<?xml version="1.0" standalone="no"?>
<svg width="567.429" height="384.969" viewBox="0 0 567.429 384.969" xmlns="http://www.w3.org/2000/svg" shape-rendering="crispEdges">
<title>
./adjusted_vop/vop_graphs/vop69.03.svg
</title>
<desc>
Creator: ROOT Version 6.24/00
CreationDate: Mon Jul 19 21:24:20 2021</desc>
<defs>
</defs>
<rect x="0.5" y="0" width="566.929" height="384.469" fill="white"/>
<rect x="57.1929" y="38.4469" width="453.543" height="307.575" fill="white"/>
<rect x="57.1929" y="38.4469" width="453.543" height="307.575" fill="none" stroke="black"/>
<path d="M57.1929,346.022h 120.945v -15.022h 15.1181v -22.533h 15.1181v -97.643h 15.1181v -157.731h 30.2362v 37.555h 15.1181v 90.132h 15.1181v -15.022h 15.1181v 120.176h 15.1181v 15.022h 15.1181v 15.022h 15.1181v 7.511h 15.1181v 7.511h 15.1181v
 15.022h 120.945v -7.511h 15.1181" fill="none" stroke="#ff6800"/>
<path d="M59.4606,346.022h 63.4961l 4.53543, -0.0534422l 4.53543, -0.0433047l 4.53543, -0.074697l 4.53543, -0.125955l 4.53543, -0.207599l 4.53543, -0.334407l 4.53543, -0.526392l 4.53543, -0.809574l 4.53543, -1.21629l 4.53543, -1.7847l 4.53543,
 -2.55702l 4.53543, -3.5762l 4.53543, -4.88077l 4.53543, -6.49776l 4.53543, -8.43427l 4.53543, -10.6683l 4.53543, -13.1405l 4.53543, -15.7479l 4.53543, -18.3425l 4.53543, -20.7354l 4.53543, -22.7081l 4.53543, -24.0309l 4.53543, -24.4868l 4.53543,
 -23.8993l 4.53543, -22.1583l 4.53543, -19.2428l 4.53543, -15.2331l 4.53543, -10.3124l 4.53543, -4.75353l 4.53543, 1.105l 4.53543, 6.89356l 4.53543, 12.2498l 4.53543, 16.8563l 4.53543, 20.4715l 4.53543, 22.9502" fill="none" stroke="#ff6800"
 stroke-width="2"/>
<path d="M281.697,149.966l 4.53543, 24.2508l 4.53543, 24.4298l 4.53543, 23.6251l 4.53543, 22.0318l 4.53543, 19.8746l 4.53543, 17.3817l 4.53543, 14.7622l 4.53543, 12.1906l 4.53543, 9.79812l 4.53543, 7.67091l 4.53543, 5.85346l 4.53543, 4.35579l
 4.53543, 3.16226l 4.53543, 2.24059l 4.53543, 1.54987l 4.53543, 1.04691l 4.53543, 0.69072l 4.53543, 0.445207l 4.53543, 0.28039l 4.53543, 0.172571l 4.53543, 0.103809l 4.53543, 0.061041l 4.53543, 0.0350886l 4.53543, 0.0425389h 113.386" fill="none"
 stroke="#ff6800" stroke-width="2"/>
<path d="M503.933,346.022h 4.53543" fill="none" stroke="#ff6800" stroke-width="2"/>
<path d="M57.1929,346.022h 453.543" fill="none" stroke="black"/>
<path d="M57.1929,336.795v 9.22726" fill="none" stroke="black"/>
<path d="M72.311,341.409v 4.61363" fill="none" stroke="black"/>
<path d="M87.4291,341.409v 4.61363" fill="none" stroke="black"/>
<path d="M102.547,341.409v 4.61363" fill="none" stroke="black"/>
<path d="M117.665,341.409v 4.61363" fill="none" stroke="black"/>
<path d="M132.783,336.795v 9.22726" fill="none" stroke="black"/>
<path d="M147.902,341.409v 4.61363" fill="none" stroke="black"/>
<path d="M163.02,341.409v 4.61363" fill="none" stroke="black"/>
<path d="M178.138,341.409v 4.61363" fill="none" stroke="black"/>
<path d="M193.256,341.409v 4.61363" fill="none" stroke="black"/>
<path d="M208.374,336.795v 9.22726" fill="none" stroke="black"/>
<path d="M223.492,341.409v 4.61363" fill="none" stroke="black"/>
<path d="M238.61,341.409v 4.61363" fill="none" stroke="black"/>
<path d="M253.728,341.409v 4.61363" fill="none" stroke="black"/>
<path d="M268.846,341.409v 4.61363" fill="none" stroke="black"/>
<path d="M283.965,336.795v 9.22726" fill="none" stroke="black"/>
<path d="M299.083,341.409v 4.61363" fill="none" stroke="black"/>
<path d="M314.201,341.409v 4.61363" fill="none" stroke="black"/>
<path d="M329.319,341.409v 4.61363" fill="none" stroke="black"/>
<path d="M344.437,341.409v 4.61363" fill="none" stroke="black"/>
<path d="M359.555,336.795v 9.22726" fill="none" stroke="black"/>
<path d="M374.673,341.409v 4.61363" fill="none" stroke="black"/>
<path d="M389.791,341.409v 4.61363" fill="none" stroke="black"/>
<path d="M404.909,341.409v 4.61363" fill="none" stroke="black"/>
<path d="M420.028,341.409v 4.61363" fill="none" stroke="black"/>
<path d="M435.146,336.795v 9.22726" fill="none" stroke="black"/>
<path d="M450.264,341.409v 4.61363" fill="none" stroke="black"/>
<path d="M465.382,341.409v 4.61363" fill="none" stroke="black"/>
<path d="M480.5,341.409v 4.61363" fill="none" stroke="black"/>
<path d="M495.618,341.409v 4.61363" fill="none" stroke="black"/>
<path d="M510.736,336.795v 9.22726" fill="none" stroke="black"/>
<text xml:space="preserve" x="53.446" y="358.403" fill="black" font-size="12.8453" font-family="Helvetica">0</text>
<text xml:space="preserve" x="121.868" y="358.403" fill="black" font-size="12.8453" font-family="Helvetica">100</text>
<text xml:space="preserve" x="197.622" y="358.403" fill="black" font-size="12.8453" font-family="Helvetica">200</text>
<text xml:space="preserve" x="273.375" y="358.403" fill="black" font-size="12.8453" font-family="Helvetica">300</text>
<text xml:space="preserve" x="348.314" y="358.403" fill="black" font-size="12.8453" font-family="Helvetica">400</text>
<text xml:space="preserve" x="424.068" y="358.403" fill="black" font-size="12.8453" font-family="Helvetica">500</text>
<text xml:space="preserve" x="499.821" y="358.403" fill="black" font-size="12.8453" font-family="Helvetica">600</text>
<text xml:space="preserve" x="486.788" y="369.807" fill="black" font-size="12.8453" font-family="Helvetica">mpv</text>
<path d="M57.1929,346.022v -307.575" fill="none" stroke="black"/>
<path d="M70.7992,346.022h -13.6063" fill="none" stroke="black"/>
<path d="M63.9961,339.763h -6.80315" fill="none" stroke="black"/>
<path d="M63.9961,333.504h -6.80315" fill="none" stroke="black"/>
<path d="M63.9961,327.245h -6.80315" fill="none" stroke="black"/>
<path d="M70.7992,320.986h -13.6063" fill="none" stroke="black"/>
<path d="M63.9961,314.726h -6.80315" fill="none" stroke="black"/>
<path d="M63.9961,308.467h -6.80315" fill="none" stroke="black"/>
<path d="M63.9961,302.208h -6.80315" fill="none" stroke="black"/>
<path d="M70.7992,295.949h -13.6063" fill="none" stroke="black"/>
<path d="M63.9961,289.69h -6.80315" fill="none" stroke="black"/>
<path d="M63.9961,283.431h -6.80315" fill="none" stroke="black"/>
<path d="M63.9961,277.171h -6.80315" fill="none" stroke="black"/>
<path d="M70.7992,270.912h -13.6063" fill="none" stroke="black"/>
<path d="M63.9961,264.653h -6.80315" fill="none" stroke="black"/>
<path d="M63.9961,258.394h -6.80315" fill="none" stroke="black"/>
<path d="M63.9961,252.135h -6.80315" fill="none" stroke="black"/>
<path d="M70.7992,245.876h -13.6063" fill="none" stroke="black"/>
<path d="M63.9961,239.616h -6.80315" fill="none" stroke="black"/>
<path d="M63.9961,233.357h -6.80315" fill="none" stroke="black"/>
<path d="M63.9961,227.098h -6.80315" fill="none" stroke="black"/>
<path d="M70.7992,220.839h -13.6063" fill="none" stroke="black"/>
<path d="M63.9961,214.58h -6.80315" fill="none" stroke="black"/>
<path d="M63.9961,208.321h -6.80315" fill="none" stroke="black"/>
<path d="M63.9961,202.061h -6.80315" fill="none" stroke="black"/>
<path d="M70.7992,195.802h -13.6063" fill="none" stroke="black"/>
<path d="M63.9961,189.543h -6.80315" fill="none" stroke="black"/>
<path d="M63.9961,183.284h -6.80315" fill="none" stroke="black"/>
<path d="M63.9961,177.025h -6.80315" fill="none" stroke="black"/>
<path d="M70.7992,170.766h -13.6063" fill="none" stroke="black"/>
<path d="M63.9961,164.506h -6.80315" fill="none" stroke="black"/>
<path d="M63.9961,158.247h -6.80315" fill="none" stroke="black"/>
<path d="M63.9961,151.988h -6.80315" fill="none" stroke="black"/>
<path d="M70.7992,145.729h -13.6063" fill="none" stroke="black"/>
<path d="M63.9961,139.47h -6.80315" fill="none" stroke="black"/>
<path d="M63.9961,133.211h -6.80315" fill="none" stroke="black"/>
<path d="M63.9961,126.951h -6.80315" fill="none" stroke="black"/>
<path d="M70.7992,120.692h -13.6063" fill="none" stroke="black"/>
<path d="M63.9961,114.433h -6.80315" fill="none" stroke="black"/>
<path d="M63.9961,108.174h -6.80315" fill="none" stroke="black"/>
<path d="M63.9961,101.915h -6.80315" fill="none" stroke="black"/>
<path d="M70.7992,95.6557h -13.6063" fill="none" stroke="black"/>
<path d="M63.9961,89.3965h -6.80315" fill="none" stroke="black"/>
<path d="M63.9961,83.1374h -6.80315" fill="none" stroke="black"/>
<path d="M63.9961,76.8782h -6.80315" fill="none" stroke="black"/>
<path d="M70.7992,70.619h -13.6063" fill="none" stroke="black"/>
<path d="M63.9961,64.3599h -6.80315" fill="none" stroke="black"/>
<path d="M63.9961,58.1007h -6.80315" fill="none" stroke="black"/>
<path d="M63.9961,51.8415h -6.80315" fill="none" stroke="black"/>
<path d="M70.7992,45.5824h -13.6063" fill="none" stroke="black"/>
<path d="M70.7992,45.5824h -13.6063" fill="none" stroke="black"/>
<path d="M63.9961,39.3232h -6.80315" fill="none" stroke="black"/>
<text xml:space="preserve" x="47.7441" y="350.258" fill="black" font-size="12.8453" font-family="Helvetica">0</text>
<text xml:space="preserve" x="41.2277" y="325.821" fill="black" font-size="12.8453" font-family="Helvetica">20</text>
<text xml:space="preserve" x="41.2277" y="300.57" fill="black" font-size="12.8453" font-family="Helvetica">40</text>
<text xml:space="preserve" x="41.2277" y="275.319" fill="black" font-size="12.8453" font-family="Helvetica">60</text>
<text xml:space="preserve" x="41.2277" y="250.068" fill="black" font-size="12.8453" font-family="Helvetica">80</text>
<text xml:space="preserve" x="33.8967" y="225.631" fill="black" font-size="12.8453" font-family="Helvetica">100</text>
<text xml:space="preserve" x="33.8967" y="200.38" fill="black" font-size="12.8453" font-family="Helvetica">120</text>
<text xml:space="preserve" x="33.8967" y="175.129" fill="black" font-size="12.8453" font-family="Helvetica">140</text>
<text xml:space="preserve" x="33.8967" y="149.878" fill="black" font-size="12.8453" font-family="Helvetica">160</text>
<text xml:space="preserve" x="33.8967" y="125.441" fill="black" font-size="12.8453" font-family="Helvetica">180</text>
<text xml:space="preserve" x="33.8967" y="100.19" fill="black" font-size="12.8453" font-family="Helvetica">200</text>
<text xml:space="preserve" x="33.8967" y="74.9389" fill="black" font-size="12.8453" font-family="Helvetica">220</text>
<text xml:space="preserve" x="33.8967" y="49.6878" fill="black" font-size="12.8453" font-family="Helvetica">240</text>
<g transform="rotate(-90,20.0493,86.3427)">
<text xml:space="preserve" x="20.0493" y="86.3427" fill="black" font-size="12.8453" font-family="Helvetica">n_blocks</text>
</g>
<text xml:space="preserve" x="243.237" y="17.9202" fill="black" font-size="18.7938" font-family="Helvetica">vop 69.03</text>
<rect x="351.996" y="24.9905" width="204.094" height="76.8938" fill="white"/>
<path d="M351.996,101.884h 204.094" fill="none" stroke="black"/>
<path d="M556.091,101.884v -76.8938" fill="none" stroke="black"/>
<path d="M556.091,24.9905h -204.094" fill="none" stroke="black"/>
<path d="M351.996,24.9905v 76.8938" fill="none" stroke="black"/>
<text xml:space="preserve" x="377.638" y="39.0986" fill="black" font-size="16.7253" font-family="Helvetica"> / ndf </text>
<text xml:space="preserve" x="371.122" y="34.2112" fill="black" font-size="11.3169" font-family="Helvetica">2</text>
<text xml:space="preserve" x="362.162" y="39.0986" fill="black" font-size="16.7253" font-family="Times">&#0967;</text>
<text xml:space="preserve" x="476.199" y="40.7277" fill="black" font-size="16.7253" font-family="Helvetica">   110 / 11</text>
<text xml:space="preserve" x="362.162" y="60.2769" fill="black" font-size="16.7253" font-family="Helvetica">Constant </text>
<text xml:space="preserve" x="518.556" y="60.2769" fill="black" font-size="16.7253" font-family="Helvetica"> 9.0</text>
<text xml:space="preserve" x="509.596" y="60.2769" fill="black" font-size="16.7253" font-family="Times">&#0177;</text>
<text xml:space="preserve" x="459.094" y="60.2769" fill="black" font-size="16.7253" font-family="Helvetica"> 221.2 </text>
<text xml:space="preserve" x="362.162" y="79.0117" fill="black" font-size="16.7253" font-family="Helvetica">Mean     </text>
<text xml:space="preserve" x="518.556" y="79.0117" fill="black" font-size="16.7253" font-family="Helvetica"> 1.4</text>
<text xml:space="preserve" x="509.596" y="79.0117" fill="black" font-size="16.7253" font-family="Times">&#0177;</text>
<text xml:space="preserve" x="459.094" y="79.0117" fill="black" font-size="16.7253" font-family="Helvetica"> 262.9 </text>
<text xml:space="preserve" x="362.162" y="96.9318" fill="black" font-size="16.7253" font-family="Helvetica">Sigma    </text>
<text xml:space="preserve" x="509.596" y="98.561" fill="black" font-size="16.7253" font-family="Helvetica"> 1.18</text>
<text xml:space="preserve" x="500.636" y="98.561" fill="black" font-size="16.7253" font-family="Times">&#0177;</text>
<text xml:space="preserve" x="450.133" y="98.561" fill="black" font-size="16.7253" font-family="Helvetica"> 41.07 </text>
<g stroke="black" stroke-width="1" fill="none">
<line x1="63.752" y1="346.022" x2="64.752" y2="346.022"/>
</g>
<g stroke="black" stroke-width="1" fill="none">
<line x1="78.8701" y1="346.022" x2="79.8701" y2="346.022"/>
</g>
<g stroke="black" stroke-width="1" fill="none">
<line x1="93.9882" y1="346.022" x2="94.9882" y2="346.022"/>
</g>
<g stroke="black" stroke-width="1" fill="none">
<line x1="109.106" y1="346.022" x2="110.106" y2="346.022"/>
</g>
<g stroke="black" stroke-width="1" fill="none">
<line x1="124.224" y1="346.022" x2="125.224" y2="346.022"/>
</g>
<g stroke="black" stroke-width="1" fill="none">
<line x1="139.343" y1="346.022" x2="140.343" y2="346.022"/>
</g>
<g stroke="black" stroke-width="1" fill="none">
<line x1="154.461" y1="346.022" x2="155.461" y2="346.022"/>
</g>
<g stroke="black" stroke-width="1" fill="none">
<line x1="169.579" y1="346.022" x2="170.579" y2="346.022"/>
</g>
<path d="M185.697,335.337v -4.33648" fill="none" stroke="#ff6800"/>
<path d="M185.697,331v -4.33648" fill="none" stroke="#ff6800"/>
<path d="M178.138,331h 7.55905" fill="none" stroke="#ff6800"/>
<path d="M185.697,331h 7.55905" fill="none" stroke="#ff6800"/>
<g stroke="black" stroke-width="1" fill="none">
<line x1="184.697" y1="331" x2="185.697" y2="331"/>
</g>
<path d="M200.815,315.324v -6.85657" fill="none" stroke="#ff6800"/>
<path d="M200.815,308.467v -6.85657" fill="none" stroke="#ff6800"/>
<path d="M193.256,308.467h 7.55905" fill="none" stroke="#ff6800"/>
<path d="M200.815,308.467h 7.55905" fill="none" stroke="#ff6800"/>
<g stroke="black" stroke-width="1" fill="none">
<line x1="199.815" y1="308.467" x2="200.815" y2="308.467"/>
</g>
<path d="M215.933,223.834v -13.0094" fill="none" stroke="#ff6800"/>
<path d="M215.933,210.824v -13.0094" fill="none" stroke="#ff6800"/>
<path d="M208.374,210.824h 7.55905" fill="none" stroke="#ff6800"/>
<path d="M215.933,210.824h 7.55905" fill="none" stroke="#ff6800"/>
<g stroke="black" stroke-width="1" fill="none">
<line x1="214.933" y1="210.824" x2="215.933" y2="210.824"/>
</g>
<path d="M231.051,72.2427v -19.1494" fill="none" stroke="#ff6800"/>
<path d="M231.051,53.0934v -14.6464" fill="none" stroke="#ff6800"/>
<path d="M223.492,53.0934h 7.55905" fill="none" stroke="#ff6800"/>
<path d="M231.051,53.0934h 7.55905" fill="none" stroke="#ff6800"/>
<g stroke="black" stroke-width="1" fill="none">
<line x1="230.051" y1="53.0934" x2="231.051" y2="53.0934"/>
</g>
<path d="M246.169,72.2427v -19.1494" fill="none" stroke="#ff6800"/>
<path d="M246.169,53.0934v -14.6464" fill="none" stroke="#ff6800"/>
<path d="M238.61,53.0934h 7.55905" fill="none" stroke="#ff6800"/>
<path d="M246.169,53.0934h 7.55905" fill="none" stroke="#ff6800"/>
<g stroke="black" stroke-width="1" fill="none">
<line x1="245.169" y1="53.0934" x2="246.169" y2="53.0934"/>
</g>
<path d="M261.287,108.528v -17.8797" fill="none" stroke="#ff6800"/>
<path d="M261.287,90.6484v -17.8797" fill="none" stroke="#ff6800"/>
<path d="M253.728,90.6484h 7.55905" fill="none" stroke="#ff6800"/>
<path d="M261.287,90.6484h 7.55905" fill="none" stroke="#ff6800"/>
<g stroke="black" stroke-width="1" fill="none">
<line x1="260.287" y1="90.6484" x2="261.287" y2="90.6484"/>
</g>
<path d="M276.406,195.163v -14.3825" fill="none" stroke="#ff6800"/>
<path d="M276.406,180.78v -14.3825" fill="none" stroke="#ff6800"/>
<path d="M268.846,180.78h 7.55905" fill="none" stroke="#ff6800"/>
<path d="M276.406,180.78h 7.55905" fill="none" stroke="#ff6800"/>
<g stroke="black" stroke-width="1" fill="none">
<line x1="275.406" y1="180.78" x2="276.406" y2="180.78"/>
</g>
<path d="M291.524,180.78v -15.022" fill="none" stroke="#ff6800"/>
<path d="M291.524,165.758v -15.022" fill="none" stroke="#ff6800"/>
<path d="M283.965,165.758h 7.55905" fill="none" stroke="#ff6800"/>
<path d="M291.524,165.758h 7.55905" fill="none" stroke="#ff6800"/>
<g stroke="black" stroke-width="1" fill="none">
<line x1="290.524" y1="165.758" x2="291.524" y2="165.758"/>
</g>
<path d="M306.642,294.607v -8.67295" fill="none" stroke="#ff6800"/>
<path d="M306.642,285.934v -8.67295" fill="none" stroke="#ff6800"/>
<path d="M299.083,285.934h 7.55905" fill="none" stroke="#ff6800"/>
<path d="M306.642,285.934h 7.55905" fill="none" stroke="#ff6800"/>
<g stroke="black" stroke-width="1" fill="none">
<line x1="305.642" y1="285.934" x2="306.642" y2="285.934"/>
</g>
<path d="M321.76,308.467v -7.511" fill="none" stroke="#ff6800"/>
<path d="M321.76,300.956v -7.511" fill="none" stroke="#ff6800"/>
<path d="M314.201,300.956h 7.55905" fill="none" stroke="#ff6800"/>
<path d="M321.76,300.956h 7.55905" fill="none" stroke="#ff6800"/>
<g stroke="black" stroke-width="1" fill="none">
<line x1="320.76" y1="300.956" x2="321.76" y2="300.956"/>
</g>
<path d="M336.878,322.111v -6.1327" fill="none" stroke="#ff6800"/>
<path d="M336.878,315.978v -6.1327" fill="none" stroke="#ff6800"/>
<path d="M329.319,315.978h 7.55905" fill="none" stroke="#ff6800"/>
<path d="M336.878,315.978h 7.55905" fill="none" stroke="#ff6800"/>
<g stroke="black" stroke-width="1" fill="none">
<line x1="335.878" y1="315.978" x2="336.878" y2="315.978"/>
</g>
<path d="M351.996,328.8v -5.31108" fill="none" stroke="#ff6800"/>
<path d="M351.996,323.489v -5.31108" fill="none" stroke="#ff6800"/>
<path d="M344.437,323.489h 7.55905" fill="none" stroke="#ff6800"/>
<path d="M351.996,323.489h 7.55905" fill="none" stroke="#ff6800"/>
<g stroke="black" stroke-width="1" fill="none">
<line x1="350.996" y1="323.489" x2="351.996" y2="323.489"/>
</g>
<path d="M367.114,335.337v -4.33648" fill="none" stroke="#ff6800"/>
<path d="M367.114,331v -4.33648" fill="none" stroke="#ff6800"/>
<path d="M359.555,331h 7.55905" fill="none" stroke="#ff6800"/>
<path d="M367.114,331h 7.55905" fill="none" stroke="#ff6800"/>
<g stroke="black" stroke-width="1" fill="none">
<line x1="366.114" y1="331" x2="367.114" y2="331"/>
</g>
<g stroke="black" stroke-width="1" fill="none">
<line x1="381.232" y1="346.022" x2="382.232" y2="346.022"/>
</g>
<g stroke="black" stroke-width="1" fill="none">
<line x1="396.35" y1="346.022" x2="397.35" y2="346.022"/>
</g>
<g stroke="black" stroke-width="1" fill="none">
<line x1="411.469" y1="346.022" x2="412.469" y2="346.022"/>
</g>
<g stroke="black" stroke-width="1" fill="none">
<line x1="426.587" y1="346.022" x2="427.587" y2="346.022"/>
</g>
<g stroke="black" stroke-width="1" fill="none">
<line x1="441.705" y1="346.022" x2="442.705" y2="346.022"/>
</g>
<g stroke="black" stroke-width="1" fill="none">
<line x1="456.823" y1="346.022" x2="457.823" y2="346.022"/>
</g>
<g stroke="black" stroke-width="1" fill="none">
<line x1="471.941" y1="346.022" x2="472.941" y2="346.022"/>
</g>
<g stroke="black" stroke-width="1" fill="none">
<line x1="487.059" y1="346.022" x2="488.059" y2="346.022"/>
</g>
<path d="M503.177,341.578v -3.06635" fill="none" stroke="#ff6800"/>
<path d="M503.177,338.511v -3.06635" fill="none" stroke="#ff6800"/>
<path d="M495.618,338.511h 7.55905" fill="none" stroke="#ff6800"/>
<path d="M503.177,338.511h 7.55905" fill="none" stroke="#ff6800"/>
<g stroke="black" stroke-width="1" fill="none">
<line x1="502.177" y1="338.511" x2="503.177" y2="338.511"/>
</g>
<path d="M59.4606,346.022h 63.4961l 4.53543, -0.0534422l 4.53543, -0.0433047l 4.53543, -0.074697l 4.53543, -0.125955l 4.53543, -0.207599l 4.53543, -0.334407l 4.53543, -0.526392l 4.53543, -0.809574l 4.53543, -1.21629l 4.53543, -1.7847l 4.53543,
 -2.55702l 4.53543, -3.5762l 4.53543, -4.88077l 4.53543, -6.49776l 4.53543, -8.43427l 4.53543, -10.6683l 4.53543, -13.1405l 4.53543, -15.7479l 4.53543, -18.3425l 4.53543, -20.7354l 4.53543, -22.7081l 4.53543, -24.0309l 4.53543, -24.4868l 4.53543,
 -23.8993l 4.53543, -22.1583l 4.53543, -19.2428l 4.53543, -15.2331l 4.53543, -10.3124l 4.53543, -4.75353l 4.53543, 1.105l 4.53543, 6.89356l 4.53543, 12.2498l 4.53543, 16.8563l 4.53543, 20.4715l 4.53543, 22.9502" fill="none" stroke="#ff6800"
 stroke-width="2"/>
<path d="M281.697,149.966l 4.53543, 24.2508l 4.53543, 24.4298l 4.53543, 23.6251l 4.53543, 22.0318l 4.53543, 19.8746l 4.53543, 17.3817l 4.53543, 14.7622l 4.53543, 12.1906l 4.53543, 9.79812l 4.53543, 7.67091l 4.53543, 5.85346l 4.53543, 4.35579l
 4.53543, 3.16226l 4.53543, 2.24059l 4.53543, 1.54987l 4.53543, 1.04691l 4.53543, 0.69072l 4.53543, 0.445207l 4.53543, 0.28039l 4.53543, 0.172571l 4.53543, 0.103809l 4.53543, 0.061041l 4.53543, 0.0350886l 4.53543, 0.0425389h 113.386" fill="none"
 stroke="#ff6800" stroke-width="2"/>
<path d="M503.933,346.022h 4.53543" fill="none" stroke="#ff6800" stroke-width="2"/>
<rect x="351.996" y="24.9905" width="204.094" height="76.8938" fill="white"/>
<path d="M351.996,101.884h 204.094" fill="none" stroke="black"/>
<path d="M556.091,101.884v -76.8938" fill="none" stroke="black"/>
<path d="M556.091,24.9905h -204.094" fill="none" stroke="black"/>
<path d="M351.996,24.9905v 76.8938" fill="none" stroke="black"/>
<text xml:space="preserve" x="377.638" y="39.0986" fill="black" font-size="16.7253" font-family="Helvetica"> / ndf </text>
<text xml:space="preserve" x="371.122" y="34.2112" fill="black" font-size="11.3169" font-family="Helvetica">2</text>
<text xml:space="preserve" x="362.162" y="39.0986" fill="black" font-size="16.7253" font-family="Times">&#0967;</text>
<text xml:space="preserve" x="476.199" y="40.7277" fill="black" font-size="16.7253" font-family="Helvetica">   110 / 11</text>
<text xml:space="preserve" x="362.162" y="60.2769" fill="black" font-size="16.7253" font-family="Helvetica">Constant </text>
<text xml:space="preserve" x="518.556" y="60.2769" fill="black" font-size="16.7253" font-family="Helvetica"> 9.0</text>
<text xml:space="preserve" x="509.596" y="60.2769" fill="black" font-size="16.7253" font-family="Times">&#0177;</text>
<text xml:space="preserve" x="459.094" y="60.2769" fill="black" font-size="16.7253" font-family="Helvetica"> 221.2 </text>
<text xml:space="preserve" x="362.162" y="79.0117" fill="black" font-size="16.7253" font-family="Helvetica">Mean     </text>
<text xml:space="preserve" x="518.556" y="79.0117" fill="black" font-size="16.7253" font-family="Helvetica"> 1.4</text>
<text xml:space="preserve" x="509.596" y="79.0117" fill="black" font-size="16.7253" font-family="Times">&#0177;</text>
<text xml:space="preserve" x="459.094" y="79.0117" fill="black" font-size="16.7253" font-family="Helvetica"> 262.9 </text>
<text xml:space="preserve" x="362.162" y="96.9318" fill="black" font-size="16.7253" font-family="Helvetica">Sigma    </text>
<text xml:space="preserve" x="509.596" y="98.561" fill="black" font-size="16.7253" font-family="Helvetica"> 1.18</text>
<text xml:space="preserve" x="500.636" y="98.561" fill="black" font-size="16.7253" font-family="Times">&#0177;</text>
<text xml:space="preserve" x="450.133" y="98.561" fill="black" font-size="16.7253" font-family="Helvetica"> 41.07 </text>
<text xml:space="preserve" x="243.237" y="17.9202" fill="black" font-size="18.7938" font-family="Helvetica">vop 69.03</text></svg>
