<?xml version="1.0" standalone="no"?>
<svg width="567.429" height="384.969" viewBox="0 0 567.429 384.969" xmlns="http://www.w3.org/2000/svg" shape-rendering="crispEdges">
<title>
./adjusted_vop/vop_graphs/vop69.03.svg
</title>
<desc>
Creator: ROOT Version 6.24/00
CreationDate: Mon Jul 26 12:36:31 2021</desc>
<defs>
</defs>
<rect x="0.5" y="0" width="566.929" height="384.469" fill="white"/>
<rect x="57.1929" y="38.4469" width="453.543" height="307.575" fill="white"/>
<rect x="57.1929" y="38.4469" width="453.543" height="307.575" fill="none" stroke="black"/>
<path d="M57.1929,346.022h 120.945v -13.949h 15.1181v -20.9235h 15.1181v -83.694h 15.1181v -146.464h 30.2362v -27.898h 15.1181v 167.388h 15.1181v -13.949h 15.1181v 62.7705h 15.1181v 34.8725h 15.1181v 13.949h 15.1181v 6.9745h 15.1181v 13.949h 30.2362v
 6.9745h 105.827v -6.9745h 15.1181" fill="none" stroke="#ff6800"/>
<path d="M59.4606,346.022h 58.9606l 4.53543, -0.0323472l 4.53543, -0.0265838l 4.53543, -0.0462208l 4.53543, -0.0786098l 4.53543, -0.130766l 4.53543, -0.212735l 4.53543, -0.338424l 4.53543, -0.526378l 4.53543, -0.800354l 4.53543, -1.18942l 4.53543,
 -1.7273l 4.53543, -2.45061l 4.53543, -3.39575l 4.53543, -4.59421l 4.53543, -6.06641l 4.53543, -7.81443l 4.53543, -9.81444l 4.53543, -12.0099l 4.53543, -14.307l 4.53543, -16.574l 4.53543, -18.6454l 4.53543, -20.332l 4.53543, -21.4373l 4.53543,
 -21.7773l 4.53543, -21.2041l 4.53543, -19.6275l 4.53543, -17.0331l 4.53543, -13.4929l 4.53543, -9.16517l 4.53543, -4.28445l 4.53543, 0.859646l 4.53543, 5.95065l 4.53543, 10.6775l 4.53543, 14.7662l 4.53543, 18.0055l 4.53543, 20.2653" fill="none"
 stroke="#ff6800" stroke-width="2"/>
<path d="M281.697,167.412l 4.53543, 21.5029l 4.53543, 21.7593l 4.53543, 21.1463l 4.53543, 19.8264l 4.53543, 17.9901l 4.53543, 15.8336l 4.53543, 13.5398l 4.53543, 11.2637l 4.53543, 9.12463l 4.53543, 7.20382l 4.53543, 5.54624l 4.53543, 4.1663l 4.53543,
 3.05497l 4.53543, 2.18739l 4.53543, 1.52982l 4.53543, 1.04537l 4.53543, 0.698082l 4.53543, 0.455659l 4.53543, 0.290766l 4.53543, 0.18142l 4.53543, 0.110693l 4.53543, 0.0660542l 4.53543, 0.0385543l 4.53543, 0.0483926h 113.386" fill="none"
 stroke="#ff6800" stroke-width="2"/>
<path d="M503.933,346.022h 4.53543" fill="none" stroke="#ff6800" stroke-width="2"/>
<path d="M57.1929,346.022h 453.543" fill="none" stroke="black"/>
<path d="M57.1929,336.795v 9.22726" fill="none" stroke="black"/>
<path d="M72.311,341.409v 4.61363" fill="none" stroke="black"/>
<path d="M87.4291,341.409v 4.61363" fill="none" stroke="black"/>
<path d="M102.547,341.409v 4.61363" fill="none" stroke="black"/>
<path d="M117.665,341.409v 4.61363" fill="none" stroke="black"/>
<path d="M132.783,336.795v 9.22726" fill="none" stroke="black"/>
<path d="M147.902,341.409v 4.61363" fill="none" stroke="black"/>
<path d="M163.02,341.409v 4.61363" fill="none" stroke="black"/>
<path d="M178.138,341.409v 4.61363" fill="none" stroke="black"/>
<path d="M193.256,341.409v 4.61363" fill="none" stroke="black"/>
<path d="M208.374,336.795v 9.22726" fill="none" stroke="black"/>
<path d="M223.492,341.409v 4.61363" fill="none" stroke="black"/>
<path d="M238.61,341.409v 4.61363" fill="none" stroke="black"/>
<path d="M253.728,341.409v 4.61363" fill="none" stroke="black"/>
<path d="M268.846,341.409v 4.61363" fill="none" stroke="black"/>
<path d="M283.965,336.795v 9.22726" fill="none" stroke="black"/>
<path d="M299.083,341.409v 4.61363" fill="none" stroke="black"/>
<path d="M314.201,341.409v 4.61363" fill="none" stroke="black"/>
<path d="M329.319,341.409v 4.61363" fill="none" stroke="black"/>
<path d="M344.437,341.409v 4.61363" fill="none" stroke="black"/>
<path d="M359.555,336.795v 9.22726" fill="none" stroke="black"/>
<path d="M374.673,341.409v 4.61363" fill="none" stroke="black"/>
<path d="M389.791,341.409v 4.61363" fill="none" stroke="black"/>
<path d="M404.909,341.409v 4.61363" fill="none" stroke="black"/>
<path d="M420.028,341.409v 4.61363" fill="none" stroke="black"/>
<path d="M435.146,336.795v 9.22726" fill="none" stroke="black"/>
<path d="M450.264,341.409v 4.61363" fill="none" stroke="black"/>
<path d="M465.382,341.409v 4.61363" fill="none" stroke="black"/>
<path d="M480.5,341.409v 4.61363" fill="none" stroke="black"/>
<path d="M495.618,341.409v 4.61363" fill="none" stroke="black"/>
<path d="M510.736,336.795v 9.22726" fill="none" stroke="black"/>
<text xml:space="preserve" x="53.446" y="358.403" fill="black" font-size="12.8453" font-family="Helvetica">0</text>
<text xml:space="preserve" x="121.868" y="358.403" fill="black" font-size="12.8453" font-family="Helvetica">100</text>
<text xml:space="preserve" x="197.622" y="358.403" fill="black" font-size="12.8453" font-family="Helvetica">200</text>
<text xml:space="preserve" x="273.375" y="358.403" fill="black" font-size="12.8453" font-family="Helvetica">300</text>
<text xml:space="preserve" x="348.314" y="358.403" fill="black" font-size="12.8453" font-family="Helvetica">400</text>
<text xml:space="preserve" x="424.068" y="358.403" fill="black" font-size="12.8453" font-family="Helvetica">500</text>
<text xml:space="preserve" x="499.821" y="358.403" fill="black" font-size="12.8453" font-family="Helvetica">600</text>
<text xml:space="preserve" x="486.788" y="369.807" fill="black" font-size="12.8453" font-family="Helvetica">mpv</text>
<path d="M57.1929,346.022v -307.575" fill="none" stroke="black"/>
<path d="M70.7992,346.022h -13.6063" fill="none" stroke="black"/>
<path d="M63.9961,339.048h -6.80315" fill="none" stroke="black"/>
<path d="M63.9961,332.073h -6.80315" fill="none" stroke="black"/>
<path d="M63.9961,325.099h -6.80315" fill="none" stroke="black"/>
<path d="M63.9961,318.124h -6.80315" fill="none" stroke="black"/>
<path d="M70.7992,311.15h -13.6063" fill="none" stroke="black"/>
<path d="M63.9961,304.175h -6.80315" fill="none" stroke="black"/>
<path d="M63.9961,297.201h -6.80315" fill="none" stroke="black"/>
<path d="M63.9961,290.226h -6.80315" fill="none" stroke="black"/>
<path d="M63.9961,283.252h -6.80315" fill="none" stroke="black"/>
<path d="M70.7992,276.277h -13.6063" fill="none" stroke="black"/>
<path d="M63.9961,269.303h -6.80315" fill="none" stroke="black"/>
<path d="M63.9961,262.328h -6.80315" fill="none" stroke="black"/>
<path d="M63.9961,255.354h -6.80315" fill="none" stroke="black"/>
<path d="M63.9961,248.379h -6.80315" fill="none" stroke="black"/>
<path d="M70.7992,241.405h -13.6063" fill="none" stroke="black"/>
<path d="M63.9961,234.43h -6.80315" fill="none" stroke="black"/>
<path d="M63.9961,227.456h -6.80315" fill="none" stroke="black"/>
<path d="M63.9961,220.481h -6.80315" fill="none" stroke="black"/>
<path d="M63.9961,213.507h -6.80315" fill="none" stroke="black"/>
<path d="M70.7992,206.532h -13.6063" fill="none" stroke="black"/>
<path d="M63.9961,199.558h -6.80315" fill="none" stroke="black"/>
<path d="M63.9961,192.583h -6.80315" fill="none" stroke="black"/>
<path d="M63.9961,185.609h -6.80315" fill="none" stroke="black"/>
<path d="M63.9961,178.634h -6.80315" fill="none" stroke="black"/>
<path d="M70.7992,171.66h -13.6063" fill="none" stroke="black"/>
<path d="M63.9961,164.685h -6.80315" fill="none" stroke="black"/>
<path d="M63.9961,157.711h -6.80315" fill="none" stroke="black"/>
<path d="M63.9961,150.736h -6.80315" fill="none" stroke="black"/>
<path d="M63.9961,143.762h -6.80315" fill="none" stroke="black"/>
<path d="M70.7992,136.787h -13.6063" fill="none" stroke="black"/>
<path d="M63.9961,129.813h -6.80315" fill="none" stroke="black"/>
<path d="M63.9961,122.838h -6.80315" fill="none" stroke="black"/>
<path d="M63.9961,115.864h -6.80315" fill="none" stroke="black"/>
<path d="M63.9961,108.889h -6.80315" fill="none" stroke="black"/>
<path d="M70.7992,101.915h -13.6063" fill="none" stroke="black"/>
<path d="M63.9961,94.9403h -6.80315" fill="none" stroke="black"/>
<path d="M63.9961,87.9659h -6.80315" fill="none" stroke="black"/>
<path d="M63.9961,80.9914h -6.80315" fill="none" stroke="black"/>
<path d="M63.9961,74.0169h -6.80315" fill="none" stroke="black"/>
<path d="M70.7992,67.0424h -13.6063" fill="none" stroke="black"/>
<path d="M70.7992,67.0424h -13.6063" fill="none" stroke="black"/>
<path d="M63.9961,60.0679h -6.80315" fill="none" stroke="black"/>
<path d="M63.9961,53.0934h -6.80315" fill="none" stroke="black"/>
<path d="M63.9961,46.1189h -6.80315" fill="none" stroke="black"/>
<path d="M63.9961,39.1444h -6.80315" fill="none" stroke="black"/>
<text xml:space="preserve" x="47.7441" y="350.258" fill="black" font-size="12.8453" font-family="Helvetica">0</text>
<text xml:space="preserve" x="47.7441" y="315.232" fill="black" font-size="12.8453" font-family="Helvetica">5</text>
<text xml:space="preserve" x="41.2277" y="281.021" fill="black" font-size="12.8453" font-family="Helvetica">10</text>
<text xml:space="preserve" x="40.4131" y="245.995" fill="black" font-size="12.8453" font-family="Helvetica">15</text>
<text xml:space="preserve" x="41.2277" y="210.969" fill="black" font-size="12.8453" font-family="Helvetica">20</text>
<text xml:space="preserve" x="40.4131" y="175.944" fill="black" font-size="12.8453" font-family="Helvetica">25</text>
<text xml:space="preserve" x="41.2277" y="140.918" fill="black" font-size="12.8453" font-family="Helvetica">30</text>
<text xml:space="preserve" x="40.4131" y="106.706" fill="black" font-size="12.8453" font-family="Helvetica">35</text>
<text xml:space="preserve" x="41.2277" y="71.6807" fill="black" font-size="12.8453" font-family="Helvetica">40</text>
<g transform="rotate(-90,27.3803,86.3427)">
<text xml:space="preserve" x="27.3803" y="86.3427" fill="black" font-size="12.8453" font-family="Helvetica">n_blocks</text>
</g>
<text xml:space="preserve" x="243.237" y="17.9202" fill="black" font-size="18.7938" font-family="Helvetica">vop 69.03</text>
<rect x="351.996" y="24.9905" width="204.094" height="76.8938" fill="white"/>
<path d="M351.996,101.884h 204.094" fill="none" stroke="black"/>
<path d="M556.091,101.884v -76.8938" fill="none" stroke="black"/>
<path d="M556.091,24.9905h -204.094" fill="none" stroke="black"/>
<path d="M351.996,24.9905v 76.8938" fill="none" stroke="black"/>
<text xml:space="preserve" x="377.638" y="39.0986" fill="black" font-size="16.7253" font-family="Helvetica"> / ndf </text>
<text xml:space="preserve" x="371.122" y="34.2112" fill="black" font-size="11.3169" font-family="Helvetica">2</text>
<text xml:space="preserve" x="362.162" y="39.0986" fill="black" font-size="16.7253" font-family="Times">&#0967;</text>
<text xml:space="preserve" x="468.868" y="40.7277" fill="black" font-size="16.7253" font-family="Helvetica"> 21.71 / 12</text>
<text xml:space="preserve" x="362.162" y="60.2769" fill="black" font-size="16.7253" font-family="Helvetica">Constant </text>
<text xml:space="preserve" x="509.596" y="60.2769" fill="black" font-size="16.7253" font-family="Helvetica"> 3.89</text>
<text xml:space="preserve" x="500.636" y="60.2769" fill="black" font-size="16.7253" font-family="Times">&#0177;</text>
<text xml:space="preserve" x="450.133" y="60.2769" fill="black" font-size="16.7253" font-family="Helvetica"> 35.76 </text>
<text xml:space="preserve" x="362.162" y="79.0117" fill="black" font-size="16.7253" font-family="Helvetica">Mean     </text>
<text xml:space="preserve" x="518.556" y="79.0117" fill="black" font-size="16.7253" font-family="Helvetica"> 3.9</text>
<text xml:space="preserve" x="509.596" y="79.0117" fill="black" font-size="16.7253" font-family="Times">&#0177;</text>
<text xml:space="preserve" x="463.166" y="79.0117" fill="black" font-size="16.7253" font-family="Helvetica">   263 </text>
<text xml:space="preserve" x="362.162" y="96.9318" fill="black" font-size="16.7253" font-family="Helvetica">Sigma    </text>
<text xml:space="preserve" x="518.556" y="98.561" fill="black" font-size="16.7253" font-family="Helvetica"> 3.5</text>
<text xml:space="preserve" x="509.596" y="98.561" fill="black" font-size="16.7253" font-family="Times">&#0177;</text>
<text xml:space="preserve" x="463.166" y="98.561" fill="black" font-size="16.7253" font-family="Helvetica">  41.6 </text>
<g stroke="black" stroke-width="1" fill="none">
<line x1="63.752" y1="346.022" x2="64.752" y2="346.022"/>
</g>
<g stroke="black" stroke-width="1" fill="none">
<line x1="78.8701" y1="346.022" x2="79.8701" y2="346.022"/>
</g>
<g stroke="black" stroke-width="1" fill="none">
<line x1="93.9882" y1="346.022" x2="94.9882" y2="346.022"/>
</g>
<g stroke="black" stroke-width="1" fill="none">
<line x1="109.106" y1="346.022" x2="110.106" y2="346.022"/>
</g>
<g stroke="black" stroke-width="1" fill="none">
<line x1="124.224" y1="346.022" x2="125.224" y2="346.022"/>
</g>
<g stroke="black" stroke-width="1" fill="none">
<line x1="139.343" y1="346.022" x2="140.343" y2="346.022"/>
</g>
<g stroke="black" stroke-width="1" fill="none">
<line x1="154.461" y1="346.022" x2="155.461" y2="346.022"/>
</g>
<g stroke="black" stroke-width="1" fill="none">
<line x1="169.579" y1="346.022" x2="170.579" y2="346.022"/>
</g>
<path d="M185.697,341.937v -9.86343" fill="none" stroke="#ff6800"/>
<path d="M185.697,332.073v -9.86343" fill="none" stroke="#ff6800"/>
<path d="M178.138,332.073h 7.55905" fill="none" stroke="#ff6800"/>
<path d="M185.697,332.073h 7.55905" fill="none" stroke="#ff6800"/>
<g stroke="black" stroke-width="1" fill="none">
<line x1="184.697" y1="332.073" x2="185.697" y2="332.073"/>
</g>
<path d="M200.815,326.745v -15.5955" fill="none" stroke="#ff6800"/>
<path d="M200.815,311.15v -15.5955" fill="none" stroke="#ff6800"/>
<path d="M193.256,311.15h 7.55905" fill="none" stroke="#ff6800"/>
<path d="M200.815,311.15h 7.55905" fill="none" stroke="#ff6800"/>
<g stroke="black" stroke-width="1" fill="none">
<line x1="199.815" y1="311.15" x2="200.815" y2="311.15"/>
</g>
<path d="M215.933,256.212v -28.7566" fill="none" stroke="#ff6800"/>
<path d="M215.933,227.456v -28.7566" fill="none" stroke="#ff6800"/>
<path d="M208.374,227.456h 7.55905" fill="none" stroke="#ff6800"/>
<path d="M215.933,227.456h 7.55905" fill="none" stroke="#ff6800"/>
<g stroke="black" stroke-width="1" fill="none">
<line x1="214.933" y1="227.456" x2="215.933" y2="227.456"/>
</g>
<path d="M231.051,123.985v -42.9937" fill="none" stroke="#ff6800"/>
<path d="M231.051,80.9914v -42.5444" fill="none" stroke="#ff6800"/>
<path d="M223.492,80.9914h 7.55905" fill="none" stroke="#ff6800"/>
<path d="M231.051,80.9914h 7.55905" fill="none" stroke="#ff6800"/>
<g stroke="black" stroke-width="1" fill="none">
<line x1="230.051" y1="80.9914" x2="231.051" y2="80.9914"/>
</g>
<path d="M246.169,123.985v -42.9937" fill="none" stroke="#ff6800"/>
<path d="M246.169,80.9914v -42.5444" fill="none" stroke="#ff6800"/>
<path d="M238.61,80.9914h 7.55905" fill="none" stroke="#ff6800"/>
<path d="M246.169,80.9914h 7.55905" fill="none" stroke="#ff6800"/>
<g stroke="black" stroke-width="1" fill="none">
<line x1="245.169" y1="80.9914" x2="246.169" y2="80.9914"/>
</g>
<path d="M261.287,98.2933v -45.1999" fill="none" stroke="#ff6800"/>
<path d="M261.287,53.0934v -14.6464" fill="none" stroke="#ff6800"/>
<path d="M253.728,53.0934h 7.55905" fill="none" stroke="#ff6800"/>
<path d="M261.287,53.0934h 7.55905" fill="none" stroke="#ff6800"/>
<g stroke="black" stroke-width="1" fill="none">
<line x1="260.287" y1="53.0934" x2="261.287" y2="53.0934"/>
</g>
<path d="M276.406,250.072v -29.5903" fill="none" stroke="#ff6800"/>
<path d="M276.406,220.481v -29.5903" fill="none" stroke="#ff6800"/>
<path d="M268.846,220.481h 7.55905" fill="none" stroke="#ff6800"/>
<path d="M276.406,220.481h 7.55905" fill="none" stroke="#ff6800"/>
<g stroke="black" stroke-width="1" fill="none">
<line x1="275.406" y1="220.481" x2="276.406" y2="220.481"/>
</g>
<path d="M291.524,237.723v -31.1909" fill="none" stroke="#ff6800"/>
<path d="M291.524,206.532v -31.1909" fill="none" stroke="#ff6800"/>
<path d="M283.965,206.532h 7.55905" fill="none" stroke="#ff6800"/>
<path d="M291.524,206.532h 7.55905" fill="none" stroke="#ff6800"/>
<g stroke="black" stroke-width="1" fill="none">
<line x1="290.524" y1="206.532" x2="291.524" y2="206.532"/>
</g>
<path d="M306.642,292.435v -23.1318" fill="none" stroke="#ff6800"/>
<path d="M306.642,269.303v -23.1318" fill="none" stroke="#ff6800"/>
<path d="M299.083,269.303h 7.55905" fill="none" stroke="#ff6800"/>
<path d="M306.642,269.303h 7.55905" fill="none" stroke="#ff6800"/>
<g stroke="black" stroke-width="1" fill="none">
<line x1="305.642" y1="269.303" x2="306.642" y2="269.303"/>
</g>
<path d="M321.76,321.259v -17.084" fill="none" stroke="#ff6800"/>
<path d="M321.76,304.175v -17.084" fill="none" stroke="#ff6800"/>
<path d="M314.201,304.175h 7.55905" fill="none" stroke="#ff6800"/>
<path d="M321.76,304.175h 7.55905" fill="none" stroke="#ff6800"/>
<g stroke="black" stroke-width="1" fill="none">
<line x1="320.76" y1="304.175" x2="321.76" y2="304.175"/>
</g>
<path d="M336.878,332.073v -13.949" fill="none" stroke="#ff6800"/>
<path d="M336.878,318.124v -13.949" fill="none" stroke="#ff6800"/>
<path d="M329.319,318.124h 7.55905" fill="none" stroke="#ff6800"/>
<path d="M336.878,318.124h 7.55905" fill="none" stroke="#ff6800"/>
<g stroke="black" stroke-width="1" fill="none">
<line x1="335.878" y1="318.124" x2="336.878" y2="318.124"/>
</g>
<path d="M351.996,337.179v -12.0802" fill="none" stroke="#ff6800"/>
<path d="M351.996,325.099v -12.0802" fill="none" stroke="#ff6800"/>
<path d="M344.437,325.099h 7.55905" fill="none" stroke="#ff6800"/>
<path d="M351.996,325.099h 7.55905" fill="none" stroke="#ff6800"/>
<g stroke="black" stroke-width="1" fill="none">
<line x1="350.996" y1="325.099" x2="351.996" y2="325.099"/>
</g>
<path d="M367.114,346.022v -6.9745" fill="none" stroke="#ff6800"/>
<path d="M367.114,339.048v -6.9745" fill="none" stroke="#ff6800"/>
<path d="M359.555,339.048h 7.55905" fill="none" stroke="#ff6800"/>
<path d="M367.114,339.048h 7.55905" fill="none" stroke="#ff6800"/>
<g stroke="black" stroke-width="1" fill="none">
<line x1="366.114" y1="339.048" x2="367.114" y2="339.048"/>
</g>
<path d="M382.232,346.022v -6.9745" fill="none" stroke="#ff6800"/>
<path d="M382.232,339.048v -6.9745" fill="none" stroke="#ff6800"/>
<path d="M374.673,339.048h 7.55905" fill="none" stroke="#ff6800"/>
<path d="M382.232,339.048h 7.55905" fill="none" stroke="#ff6800"/>
<g stroke="black" stroke-width="1" fill="none">
<line x1="381.232" y1="339.048" x2="382.232" y2="339.048"/>
</g>
<g stroke="black" stroke-width="1" fill="none">
<line x1="396.35" y1="346.022" x2="397.35" y2="346.022"/>
</g>
<g stroke="black" stroke-width="1" fill="none">
<line x1="411.469" y1="346.022" x2="412.469" y2="346.022"/>
</g>
<g stroke="black" stroke-width="1" fill="none">
<line x1="426.587" y1="346.022" x2="427.587" y2="346.022"/>
</g>
<g stroke="black" stroke-width="1" fill="none">
<line x1="441.705" y1="346.022" x2="442.705" y2="346.022"/>
</g>
<g stroke="black" stroke-width="1" fill="none">
<line x1="456.823" y1="346.022" x2="457.823" y2="346.022"/>
</g>
<g stroke="black" stroke-width="1" fill="none">
<line x1="471.941" y1="346.022" x2="472.941" y2="346.022"/>
</g>
<g stroke="black" stroke-width="1" fill="none">
<line x1="487.059" y1="346.022" x2="488.059" y2="346.022"/>
</g>
<path d="M503.177,346.022v -6.9745" fill="none" stroke="#ff6800"/>
<path d="M503.177,339.048v -6.9745" fill="none" stroke="#ff6800"/>
<path d="M495.618,339.048h 7.55905" fill="none" stroke="#ff6800"/>
<path d="M503.177,339.048h 7.55905" fill="none" stroke="#ff6800"/>
<g stroke="black" stroke-width="1" fill="none">
<line x1="502.177" y1="339.048" x2="503.177" y2="339.048"/>
</g>
<path d="M59.4606,346.022h 58.9606l 4.53543, -0.0323472l 4.53543, -0.0265838l 4.53543, -0.0462208l 4.53543, -0.0786098l 4.53543, -0.130766l 4.53543, -0.212735l 4.53543, -0.338424l 4.53543, -0.526378l 4.53543, -0.800354l 4.53543, -1.18942l 4.53543,
 -1.7273l 4.53543, -2.45061l 4.53543, -3.39575l 4.53543, -4.59421l 4.53543, -6.06641l 4.53543, -7.81443l 4.53543, -9.81444l 4.53543, -12.0099l 4.53543, -14.307l 4.53543, -16.574l 4.53543, -18.6454l 4.53543, -20.332l 4.53543, -21.4373l 4.53543,
 -21.7773l 4.53543, -21.2041l 4.53543, -19.6275l 4.53543, -17.0331l 4.53543, -13.4929l 4.53543, -9.16517l 4.53543, -4.28445l 4.53543, 0.859646l 4.53543, 5.95065l 4.53543, 10.6775l 4.53543, 14.7662l 4.53543, 18.0055l 4.53543, 20.2653" fill="none"
 stroke="#ff6800" stroke-width="2"/>
<path d="M281.697,167.412l 4.53543, 21.5029l 4.53543, 21.7593l 4.53543, 21.1463l 4.53543, 19.8264l 4.53543, 17.9901l 4.53543, 15.8336l 4.53543, 13.5398l 4.53543, 11.2637l 4.53543, 9.12463l 4.53543, 7.20382l 4.53543, 5.54624l 4.53543, 4.1663l 4.53543,
 3.05497l 4.53543, 2.18739l 4.53543, 1.52982l 4.53543, 1.04537l 4.53543, 0.698082l 4.53543, 0.455659l 4.53543, 0.290766l 4.53543, 0.18142l 4.53543, 0.110693l 4.53543, 0.0660542l 4.53543, 0.0385543l 4.53543, 0.0483926h 113.386" fill="none"
 stroke="#ff6800" stroke-width="2"/>
<path d="M503.933,346.022h 4.53543" fill="none" stroke="#ff6800" stroke-width="2"/>
<rect x="351.996" y="24.9905" width="204.094" height="76.8938" fill="white"/>
<path d="M351.996,101.884h 204.094" fill="none" stroke="black"/>
<path d="M556.091,101.884v -76.8938" fill="none" stroke="black"/>
<path d="M556.091,24.9905h -204.094" fill="none" stroke="black"/>
<path d="M351.996,24.9905v 76.8938" fill="none" stroke="black"/>
<text xml:space="preserve" x="377.638" y="39.0986" fill="black" font-size="16.7253" font-family="Helvetica"> / ndf </text>
<text xml:space="preserve" x="371.122" y="34.2112" fill="black" font-size="11.3169" font-family="Helvetica">2</text>
<text xml:space="preserve" x="362.162" y="39.0986" fill="black" font-size="16.7253" font-family="Times">&#0967;</text>
<text xml:space="preserve" x="468.868" y="40.7277" fill="black" font-size="16.7253" font-family="Helvetica"> 21.71 / 12</text>
<text xml:space="preserve" x="362.162" y="60.2769" fill="black" font-size="16.7253" font-family="Helvetica">Constant </text>
<text xml:space="preserve" x="509.596" y="60.2769" fill="black" font-size="16.7253" font-family="Helvetica"> 3.89</text>
<text xml:space="preserve" x="500.636" y="60.2769" fill="black" font-size="16.7253" font-family="Times">&#0177;</text>
<text xml:space="preserve" x="450.133" y="60.2769" fill="black" font-size="16.7253" font-family="Helvetica"> 35.76 </text>
<text xml:space="preserve" x="362.162" y="79.0117" fill="black" font-size="16.7253" font-family="Helvetica">Mean     </text>
<text xml:space="preserve" x="518.556" y="79.0117" fill="black" font-size="16.7253" font-family="Helvetica"> 3.9</text>
<text xml:space="preserve" x="509.596" y="79.0117" fill="black" font-size="16.7253" font-family="Times">&#0177;</text>
<text xml:space="preserve" x="463.166" y="79.0117" fill="black" font-size="16.7253" font-family="Helvetica">   263 </text>
<text xml:space="preserve" x="362.162" y="96.9318" fill="black" font-size="16.7253" font-family="Helvetica">Sigma    </text>
<text xml:space="preserve" x="518.556" y="98.561" fill="black" font-size="16.7253" font-family="Helvetica"> 3.5</text>
<text xml:space="preserve" x="509.596" y="98.561" fill="black" font-size="16.7253" font-family="Times">&#0177;</text>
<text xml:space="preserve" x="463.166" y="98.561" fill="black" font-size="16.7253" font-family="Helvetica">  41.6 </text>
<text xml:space="preserve" x="243.237" y="17.9202" fill="black" font-size="18.7938" font-family="Helvetica">vop 69.03</text></svg>
