<?xml version="1.0" standalone="no"?>
<svg width="567.429" height="384.969" viewBox="0 0 567.429 384.969" xmlns="http://www.w3.org/2000/svg" shape-rendering="crispEdges">
<title>
./adjusted_vop/vop_graphs/vop69.18.svg
</title>
<desc>
Creator: ROOT Version 6.22/02
CreationDate: Fri Jun 25 18:24:53 2021</desc>
<defs>
</defs>
<rect x="0.5" y="0" width="566.929" height="384.469" fill="white"/>
<rect x="57.1929" y="38.4469" width="453.543" height="307.575" fill="white"/>
<rect x="57.1929" y="38.4469" width="453.543" height="307.575" fill="none" stroke="black"/>
<path d="M57.1929,346.022h 90.7087v -15.834h 15.1181v 15.834h 15.1181v -15.834h 15.1181v -47.502h 15.1181v -15.834h 15.1181v -87.087h 15.1181v -126.672h 15.1181v 31.668h 15.1181v 118.755h 15.1181v -15.834h 15.1181v 87.087h 15.1181v 31.668h 15.1181v
 31.668h 15.1181v 7.917h 166.299" fill="none" stroke="#cea262"/>
<path d="M59.4606,346.022h 63.4961l 4.53543, -0.0538304l 4.53543, -0.0420874l 4.53543, -0.071512l 4.53543, -0.118875l 4.53543, -0.193302l 4.53543, -0.307447l 4.53543, -0.478222l 4.53543, -0.72736l 4.53543, -1.08157l 4.53543, -1.57201l 4.53543,
 -2.23282l 4.53543, -3.09837l 4.53543, -4.19911l 4.53543, -5.55604l 4.53543, -7.17405l 4.53543, -9.03491l 4.53543, -11.0907l 4.53543, -13.2594l 4.53543, -15.423l 4.53543, -17.4315l 4.53543, -19.1104l 4.53543, -20.2753l 4.53543, -20.75l 4.53543,
 -20.3874l 4.53543, -19.0908l 4.53543, -16.8311l 4.53543, -13.6585l 4.53543, -9.7045l 4.53543, -5.17467l 4.53543, -0.331056l 4.53543, 4.53279l 4.53543, 9.12126l 4.53543, 13.1665l 4.53543, 16.454l 4.53543, 18.8417" fill="none" stroke="#cea262"
 stroke-width="2"/>
<path d="M281.697,169.679l 4.53543, 20.2683l 4.53543, 20.7527l 4.53543, 20.3833l 4.53543, 19.3017l 4.53543, 17.6814l 4.53543, 15.7069l 4.53543, 13.5548l 4.53543, 11.3792l 4.53543, 9.30252l 4.53543, 7.41183l 4.53543, 5.75937l 4.53543, 4.36704l
 4.53543, 3.23266l 4.53543, 2.33698l 4.53543, 1.6505l 4.53543, 1.13909l 4.53543, 0.768399l 4.53543, 0.506743l 4.53543, 0.326767l 4.53543, 0.206067l 4.53543, 0.127103l 4.53543, 0.0766889l 4.53543, 0.0452677l 4.53543, 0.0261435l 4.53543, 0.032123h
 108.85" fill="none" stroke="#cea262" stroke-width="2"/>
<path d="M503.933,346.022h 4.53543" fill="none" stroke="#cea262" stroke-width="2"/>
<path d="M57.1929,346.022h 453.543" fill="none" stroke="black"/>
<path d="M57.1929,336.795v 9.22726" fill="none" stroke="black"/>
<path d="M72.311,341.409v 4.61363" fill="none" stroke="black"/>
<path d="M87.4291,341.409v 4.61363" fill="none" stroke="black"/>
<path d="M102.547,341.409v 4.61363" fill="none" stroke="black"/>
<path d="M117.665,341.409v 4.61363" fill="none" stroke="black"/>
<path d="M132.783,336.795v 9.22726" fill="none" stroke="black"/>
<path d="M147.902,341.409v 4.61363" fill="none" stroke="black"/>
<path d="M163.02,341.409v 4.61363" fill="none" stroke="black"/>
<path d="M178.138,341.409v 4.61363" fill="none" stroke="black"/>
<path d="M193.256,341.409v 4.61363" fill="none" stroke="black"/>
<path d="M208.374,336.795v 9.22726" fill="none" stroke="black"/>
<path d="M223.492,341.409v 4.61363" fill="none" stroke="black"/>
<path d="M238.61,341.409v 4.61363" fill="none" stroke="black"/>
<path d="M253.728,341.409v 4.61363" fill="none" stroke="black"/>
<path d="M268.846,341.409v 4.61363" fill="none" stroke="black"/>
<path d="M283.965,336.795v 9.22726" fill="none" stroke="black"/>
<path d="M299.083,341.409v 4.61363" fill="none" stroke="black"/>
<path d="M314.201,341.409v 4.61363" fill="none" stroke="black"/>
<path d="M329.319,341.409v 4.61363" fill="none" stroke="black"/>
<path d="M344.437,341.409v 4.61363" fill="none" stroke="black"/>
<path d="M359.555,336.795v 9.22726" fill="none" stroke="black"/>
<path d="M374.673,341.409v 4.61363" fill="none" stroke="black"/>
<path d="M389.791,341.409v 4.61363" fill="none" stroke="black"/>
<path d="M404.909,341.409v 4.61363" fill="none" stroke="black"/>
<path d="M420.028,341.409v 4.61363" fill="none" stroke="black"/>
<path d="M435.146,336.795v 9.22726" fill="none" stroke="black"/>
<path d="M450.264,341.409v 4.61363" fill="none" stroke="black"/>
<path d="M465.382,341.409v 4.61363" fill="none" stroke="black"/>
<path d="M480.5,341.409v 4.61363" fill="none" stroke="black"/>
<path d="M495.618,341.409v 4.61363" fill="none" stroke="black"/>
<path d="M510.736,336.795v 9.22726" fill="none" stroke="black"/>
<text xml:space="preserve" x="53.446" y="358.403" fill="black" font-size="12.8453" font-family="Helvetica">0</text>
<text xml:space="preserve" x="121.868" y="358.403" fill="black" font-size="12.8453" font-family="Helvetica">100</text>
<text xml:space="preserve" x="197.622" y="358.403" fill="black" font-size="12.8453" font-family="Helvetica">200</text>
<text xml:space="preserve" x="273.375" y="358.403" fill="black" font-size="12.8453" font-family="Helvetica">300</text>
<text xml:space="preserve" x="348.314" y="358.403" fill="black" font-size="12.8453" font-family="Helvetica">400</text>
<text xml:space="preserve" x="424.068" y="358.403" fill="black" font-size="12.8453" font-family="Helvetica">500</text>
<text xml:space="preserve" x="499.821" y="358.403" fill="black" font-size="12.8453" font-family="Helvetica">600</text>
<text xml:space="preserve" x="486.788" y="369.807" fill="black" font-size="12.8453" font-family="Helvetica">mpv</text>
<path d="M57.1929,346.022v -307.575" fill="none" stroke="black"/>
<path d="M70.7992,346.022h -13.6063" fill="none" stroke="black"/>
<path d="M63.9961,338.105h -6.80315" fill="none" stroke="black"/>
<path d="M63.9961,330.188h -6.80315" fill="none" stroke="black"/>
<path d="M63.9961,322.271h -6.80315" fill="none" stroke="black"/>
<path d="M63.9961,314.354h -6.80315" fill="none" stroke="black"/>
<path d="M70.7992,306.437h -13.6063" fill="none" stroke="black"/>
<path d="M63.9961,298.52h -6.80315" fill="none" stroke="black"/>
<path d="M63.9961,290.603h -6.80315" fill="none" stroke="black"/>
<path d="M63.9961,282.686h -6.80315" fill="none" stroke="black"/>
<path d="M63.9961,274.769h -6.80315" fill="none" stroke="black"/>
<path d="M70.7992,266.852h -13.6063" fill="none" stroke="black"/>
<path d="M63.9961,258.935h -6.80315" fill="none" stroke="black"/>
<path d="M63.9961,251.018h -6.80315" fill="none" stroke="black"/>
<path d="M63.9961,243.101h -6.80315" fill="none" stroke="black"/>
<path d="M63.9961,235.184h -6.80315" fill="none" stroke="black"/>
<path d="M70.7992,227.267h -13.6063" fill="none" stroke="black"/>
<path d="M63.9961,219.35h -6.80315" fill="none" stroke="black"/>
<path d="M63.9961,211.433h -6.80315" fill="none" stroke="black"/>
<path d="M63.9961,203.516h -6.80315" fill="none" stroke="black"/>
<path d="M63.9961,195.599h -6.80315" fill="none" stroke="black"/>
<path d="M70.7992,187.682h -13.6063" fill="none" stroke="black"/>
<path d="M63.9961,179.765h -6.80315" fill="none" stroke="black"/>
<path d="M63.9961,171.848h -6.80315" fill="none" stroke="black"/>
<path d="M63.9961,163.931h -6.80315" fill="none" stroke="black"/>
<path d="M63.9961,156.014h -6.80315" fill="none" stroke="black"/>
<path d="M70.7992,148.097h -13.6063" fill="none" stroke="black"/>
<path d="M63.9961,140.18h -6.80315" fill="none" stroke="black"/>
<path d="M63.9961,132.263h -6.80315" fill="none" stroke="black"/>
<path d="M63.9961,124.346h -6.80315" fill="none" stroke="black"/>
<path d="M63.9961,116.429h -6.80315" fill="none" stroke="black"/>
<path d="M70.7992,108.512h -13.6063" fill="none" stroke="black"/>
<path d="M63.9961,100.595h -6.80315" fill="none" stroke="black"/>
<path d="M63.9961,92.6784h -6.80315" fill="none" stroke="black"/>
<path d="M63.9961,84.7614h -6.80315" fill="none" stroke="black"/>
<path d="M63.9961,76.8444h -6.80315" fill="none" stroke="black"/>
<path d="M70.7992,68.9274h -13.6063" fill="none" stroke="black"/>
<path d="M70.7992,68.9274h -13.6063" fill="none" stroke="black"/>
<path d="M63.9961,61.0104h -6.80315" fill="none" stroke="black"/>
<path d="M63.9961,53.0934h -6.80315" fill="none" stroke="black"/>
<path d="M63.9961,45.1764h -6.80315" fill="none" stroke="black"/>
<text xml:space="preserve" x="47.7441" y="350.258" fill="black" font-size="12.8453" font-family="Helvetica">0</text>
<text xml:space="preserve" x="47.7441" y="311.159" fill="black" font-size="12.8453" font-family="Helvetica">5</text>
<text xml:space="preserve" x="41.2277" y="271.246" fill="black" font-size="12.8453" font-family="Helvetica">10</text>
<text xml:space="preserve" x="40.4131" y="232.148" fill="black" font-size="12.8453" font-family="Helvetica">15</text>
<text xml:space="preserve" x="41.2277" y="192.235" fill="black" font-size="12.8453" font-family="Helvetica">20</text>
<text xml:space="preserve" x="40.4131" y="152.321" fill="black" font-size="12.8453" font-family="Helvetica">25</text>
<text xml:space="preserve" x="41.2277" y="113.223" fill="black" font-size="12.8453" font-family="Helvetica">30</text>
<text xml:space="preserve" x="40.4131" y="73.3098" fill="black" font-size="12.8453" font-family="Helvetica">35</text>
<g transform="rotate(-90,27.3803,86.3427)">
<text xml:space="preserve" x="27.3803" y="86.3427" fill="black" font-size="12.8453" font-family="Helvetica">n_blocks</text>
</g>
<text xml:space="preserve" x="242.422" y="17.9202" fill="black" font-size="18.7938" font-family="Helvetica">vop 69.18</text>
<rect x="351.996" y="24.9905" width="204.094" height="76.8938" fill="white"/>
<path d="M351.996,101.884h 204.094" fill="none" stroke="black"/>
<path d="M556.091,101.884v -76.8938" fill="none" stroke="black"/>
<path d="M556.091,24.9905h -204.094" fill="none" stroke="black"/>
<path d="M351.996,24.9905v 76.8938" fill="none" stroke="black"/>
<text xml:space="preserve" x="377.638" y="39.0986" fill="black" font-size="16.7253" font-family="Helvetica"> / ndf </text>
<text xml:space="preserve" x="371.122" y="34.2112" fill="black" font-size="11.3169" font-family="Helvetica">2</text>
<text xml:space="preserve" x="362.162" y="39.0986" fill="black" font-size="16.7253" font-family="Times">&#0967;</text>
<text xml:space="preserve" x="477.828" y="40.7277" fill="black" font-size="16.7253" font-family="Helvetica"> 8.985 / 9</text>
<text xml:space="preserve" x="362.162" y="60.2769" fill="black" font-size="16.7253" font-family="Helvetica">Constant </text>
<text xml:space="preserve" x="509.596" y="60.2769" fill="black" font-size="16.7253" font-family="Helvetica"> 3.10</text>
<text xml:space="preserve" x="500.636" y="60.2769" fill="black" font-size="16.7253" font-family="Times">&#0177;</text>
<text xml:space="preserve" x="450.133" y="60.2769" fill="black" font-size="16.7253" font-family="Helvetica"> 30.18 </text>
<text xml:space="preserve" x="362.162" y="79.0117" fill="black" font-size="16.7253" font-family="Helvetica">Mean     </text>
<text xml:space="preserve" x="518.556" y="79.0117" fill="black" font-size="16.7253" font-family="Helvetica"> 3.4</text>
<text xml:space="preserve" x="509.596" y="79.0117" fill="black" font-size="16.7253" font-family="Times">&#0177;</text>
<text xml:space="preserve" x="459.094" y="79.0117" fill="black" font-size="16.7253" font-family="Helvetica"> 264.4 </text>
<text xml:space="preserve" x="362.162" y="96.9318" fill="black" font-size="16.7253" font-family="Helvetica">Sigma    </text>
<text xml:space="preserve" x="509.596" y="98.561" fill="black" font-size="16.7253" font-family="Helvetica"> 2.87</text>
<text xml:space="preserve" x="500.636" y="98.561" fill="black" font-size="16.7253" font-family="Times">&#0177;</text>
<text xml:space="preserve" x="450.133" y="98.561" fill="black" font-size="16.7253" font-family="Helvetica"> 41.82 </text>
<g stroke="black" stroke-width="1" fill="none">
<line x1="63.752" y1="346.022" x2="64.752" y2="346.022"/>
</g>
<g stroke="black" stroke-width="1" fill="none">
<line x1="78.8701" y1="346.022" x2="79.8701" y2="346.022"/>
</g>
<g stroke="black" stroke-width="1" fill="none">
<line x1="93.9882" y1="346.022" x2="94.9882" y2="346.022"/>
</g>
<g stroke="black" stroke-width="1" fill="none">
<line x1="109.106" y1="346.022" x2="110.106" y2="346.022"/>
</g>
<g stroke="black" stroke-width="1" fill="none">
<line x1="124.224" y1="346.022" x2="125.224" y2="346.022"/>
</g>
<g stroke="black" stroke-width="1" fill="none">
<line x1="139.343" y1="346.022" x2="140.343" y2="346.022"/>
</g>
<path d="M155.461,341.385v -11.1963" fill="none" stroke="#cea262"/>
<path d="M155.461,330.188v -11.1963" fill="none" stroke="#cea262"/>
<path d="M147.902,330.188h 7.55905" fill="none" stroke="#cea262"/>
<path d="M155.461,330.188h 7.55905" fill="none" stroke="#cea262"/>
<g stroke="black" stroke-width="1" fill="none">
<line x1="154.461" y1="330.188" x2="155.461" y2="330.188"/>
</g>
<g stroke="black" stroke-width="1" fill="none">
<line x1="169.579" y1="346.022" x2="170.579" y2="346.022"/>
</g>
<path d="M185.697,341.385v -11.1963" fill="none" stroke="#cea262"/>
<path d="M185.697,330.188v -11.1963" fill="none" stroke="#cea262"/>
<path d="M178.138,330.188h 7.55905" fill="none" stroke="#cea262"/>
<path d="M185.697,330.188h 7.55905" fill="none" stroke="#cea262"/>
<g stroke="black" stroke-width="1" fill="none">
<line x1="184.697" y1="330.188" x2="185.697" y2="330.188"/>
</g>
<path d="M200.815,305.079v -22.3926" fill="none" stroke="#cea262"/>
<path d="M200.815,282.686v -22.3926" fill="none" stroke="#cea262"/>
<path d="M193.256,282.686h 7.55905" fill="none" stroke="#cea262"/>
<path d="M200.815,282.686h 7.55905" fill="none" stroke="#cea262"/>
<g stroke="black" stroke-width="1" fill="none">
<line x1="199.815" y1="282.686" x2="200.815" y2="282.686"/>
</g>
<path d="M215.933,291.888v -25.0357" fill="none" stroke="#cea262"/>
<path d="M215.933,266.852v -25.0357" fill="none" stroke="#cea262"/>
<path d="M208.374,266.852h 7.55905" fill="none" stroke="#cea262"/>
<path d="M215.933,266.852h 7.55905" fill="none" stroke="#cea262"/>
<g stroke="black" stroke-width="1" fill="none">
<line x1="214.933" y1="266.852" x2="215.933" y2="266.852"/>
</g>
<path d="M231.051,216.046v -36.2802" fill="none" stroke="#cea262"/>
<path d="M231.051,179.765v -36.2802" fill="none" stroke="#cea262"/>
<path d="M223.492,179.765h 7.55905" fill="none" stroke="#cea262"/>
<path d="M231.051,179.765h 7.55905" fill="none" stroke="#cea262"/>
<g stroke="black" stroke-width="1" fill="none">
<line x1="230.051" y1="179.765" x2="231.051" y2="179.765"/>
</g>
<path d="M246.169,101.251v -48.1572" fill="none" stroke="#cea262"/>
<path d="M246.169,53.0934v -14.6464" fill="none" stroke="#cea262"/>
<path d="M238.61,53.0934h 7.55905" fill="none" stroke="#cea262"/>
<path d="M246.169,53.0934h 7.55905" fill="none" stroke="#cea262"/>
<g stroke="black" stroke-width="1" fill="none">
<line x1="245.169" y1="53.0934" x2="246.169" y2="53.0934"/>
</g>
<path d="M261.287,130.241v -45.4797" fill="none" stroke="#cea262"/>
<path d="M261.287,84.7614v -45.4797" fill="none" stroke="#cea262"/>
<path d="M253.728,84.7614h 7.55905" fill="none" stroke="#cea262"/>
<path d="M261.287,84.7614h 7.55905" fill="none" stroke="#cea262"/>
<g stroke="black" stroke-width="1" fill="none">
<line x1="260.287" y1="84.7614" x2="261.287" y2="84.7614"/>
</g>
<path d="M276.406,237.105v -33.589" fill="none" stroke="#cea262"/>
<path d="M276.406,203.516v -33.589" fill="none" stroke="#cea262"/>
<path d="M268.846,203.516h 7.55905" fill="none" stroke="#cea262"/>
<path d="M276.406,203.516h 7.55905" fill="none" stroke="#cea262"/>
<g stroke="black" stroke-width="1" fill="none">
<line x1="275.406" y1="203.516" x2="276.406" y2="203.516"/>
</g>
<path d="M291.524,223.088v -35.4059" fill="none" stroke="#cea262"/>
<path d="M291.524,187.682v -35.4059" fill="none" stroke="#cea262"/>
<path d="M283.965,187.682h 7.55905" fill="none" stroke="#cea262"/>
<path d="M291.524,187.682h 7.55905" fill="none" stroke="#cea262"/>
<g stroke="black" stroke-width="1" fill="none">
<line x1="290.524" y1="187.682" x2="291.524" y2="187.682"/>
</g>
<path d="M306.642,298.52v -23.751" fill="none" stroke="#cea262"/>
<path d="M306.642,274.769v -23.751" fill="none" stroke="#cea262"/>
<path d="M299.083,274.769h 7.55905" fill="none" stroke="#cea262"/>
<path d="M306.642,274.769h 7.55905" fill="none" stroke="#cea262"/>
<g stroke="black" stroke-width="1" fill="none">
<line x1="305.642" y1="274.769" x2="306.642" y2="274.769"/>
</g>
<path d="M321.76,324.14v -17.7029" fill="none" stroke="#cea262"/>
<path d="M321.76,306.437v -17.7029" fill="none" stroke="#cea262"/>
<path d="M314.201,306.437h 7.55905" fill="none" stroke="#cea262"/>
<path d="M321.76,306.437h 7.55905" fill="none" stroke="#cea262"/>
<g stroke="black" stroke-width="1" fill="none">
<line x1="320.76" y1="306.437" x2="321.76" y2="306.437"/>
</g>
<path d="M336.878,346.022v -7.917" fill="none" stroke="#cea262"/>
<path d="M336.878,338.105v -7.917" fill="none" stroke="#cea262"/>
<path d="M329.319,338.105h 7.55905" fill="none" stroke="#cea262"/>
<path d="M336.878,338.105h 7.55905" fill="none" stroke="#cea262"/>
<g stroke="black" stroke-width="1" fill="none">
<line x1="335.878" y1="338.105" x2="336.878" y2="338.105"/>
</g>
<g stroke="black" stroke-width="1" fill="none">
<line x1="350.996" y1="346.022" x2="351.996" y2="346.022"/>
</g>
<g stroke="black" stroke-width="1" fill="none">
<line x1="366.114" y1="346.022" x2="367.114" y2="346.022"/>
</g>
<g stroke="black" stroke-width="1" fill="none">
<line x1="381.232" y1="346.022" x2="382.232" y2="346.022"/>
</g>
<g stroke="black" stroke-width="1" fill="none">
<line x1="396.35" y1="346.022" x2="397.35" y2="346.022"/>
</g>
<g stroke="black" stroke-width="1" fill="none">
<line x1="411.469" y1="346.022" x2="412.469" y2="346.022"/>
</g>
<g stroke="black" stroke-width="1" fill="none">
<line x1="426.587" y1="346.022" x2="427.587" y2="346.022"/>
</g>
<g stroke="black" stroke-width="1" fill="none">
<line x1="441.705" y1="346.022" x2="442.705" y2="346.022"/>
</g>
<g stroke="black" stroke-width="1" fill="none">
<line x1="456.823" y1="346.022" x2="457.823" y2="346.022"/>
</g>
<g stroke="black" stroke-width="1" fill="none">
<line x1="471.941" y1="346.022" x2="472.941" y2="346.022"/>
</g>
<g stroke="black" stroke-width="1" fill="none">
<line x1="487.059" y1="346.022" x2="488.059" y2="346.022"/>
</g>
<g stroke="black" stroke-width="1" fill="none">
<line x1="502.177" y1="346.022" x2="503.177" y2="346.022"/>
</g>
<path d="M59.4606,346.022h 63.4961l 4.53543, -0.0538304l 4.53543, -0.0420874l 4.53543, -0.071512l 4.53543, -0.118875l 4.53543, -0.193302l 4.53543, -0.307447l 4.53543, -0.478222l 4.53543, -0.72736l 4.53543, -1.08157l 4.53543, -1.57201l 4.53543,
 -2.23282l 4.53543, -3.09837l 4.53543, -4.19911l 4.53543, -5.55604l 4.53543, -7.17405l 4.53543, -9.03491l 4.53543, -11.0907l 4.53543, -13.2594l 4.53543, -15.423l 4.53543, -17.4315l 4.53543, -19.1104l 4.53543, -20.2753l 4.53543, -20.75l 4.53543,
 -20.3874l 4.53543, -19.0908l 4.53543, -16.8311l 4.53543, -13.6585l 4.53543, -9.7045l 4.53543, -5.17467l 4.53543, -0.331056l 4.53543, 4.53279l 4.53543, 9.12126l 4.53543, 13.1665l 4.53543, 16.454l 4.53543, 18.8417" fill="none" stroke="#cea262"
 stroke-width="2"/>
<path d="M281.697,169.679l 4.53543, 20.2683l 4.53543, 20.7527l 4.53543, 20.3833l 4.53543, 19.3017l 4.53543, 17.6814l 4.53543, 15.7069l 4.53543, 13.5548l 4.53543, 11.3792l 4.53543, 9.30252l 4.53543, 7.41183l 4.53543, 5.75937l 4.53543, 4.36704l
 4.53543, 3.23266l 4.53543, 2.33698l 4.53543, 1.6505l 4.53543, 1.13909l 4.53543, 0.768399l 4.53543, 0.506743l 4.53543, 0.326767l 4.53543, 0.206067l 4.53543, 0.127103l 4.53543, 0.0766889l 4.53543, 0.0452677l 4.53543, 0.0261435l 4.53543, 0.032123h
 108.85" fill="none" stroke="#cea262" stroke-width="2"/>
<path d="M503.933,346.022h 4.53543" fill="none" stroke="#cea262" stroke-width="2"/>
<rect x="351.996" y="24.9905" width="204.094" height="76.8938" fill="white"/>
<path d="M351.996,101.884h 204.094" fill="none" stroke="black"/>
<path d="M556.091,101.884v -76.8938" fill="none" stroke="black"/>
<path d="M556.091,24.9905h -204.094" fill="none" stroke="black"/>
<path d="M351.996,24.9905v 76.8938" fill="none" stroke="black"/>
<text xml:space="preserve" x="377.638" y="39.0986" fill="black" font-size="16.7253" font-family="Helvetica"> / ndf </text>
<text xml:space="preserve" x="371.122" y="34.2112" fill="black" font-size="11.3169" font-family="Helvetica">2</text>
<text xml:space="preserve" x="362.162" y="39.0986" fill="black" font-size="16.7253" font-family="Times">&#0967;</text>
<text xml:space="preserve" x="477.828" y="40.7277" fill="black" font-size="16.7253" font-family="Helvetica"> 8.985 / 9</text>
<text xml:space="preserve" x="362.162" y="60.2769" fill="black" font-size="16.7253" font-family="Helvetica">Constant </text>
<text xml:space="preserve" x="509.596" y="60.2769" fill="black" font-size="16.7253" font-family="Helvetica"> 3.10</text>
<text xml:space="preserve" x="500.636" y="60.2769" fill="black" font-size="16.7253" font-family="Times">&#0177;</text>
<text xml:space="preserve" x="450.133" y="60.2769" fill="black" font-size="16.7253" font-family="Helvetica"> 30.18 </text>
<text xml:space="preserve" x="362.162" y="79.0117" fill="black" font-size="16.7253" font-family="Helvetica">Mean     </text>
<text xml:space="preserve" x="518.556" y="79.0117" fill="black" font-size="16.7253" font-family="Helvetica"> 3.4</text>
<text xml:space="preserve" x="509.596" y="79.0117" fill="black" font-size="16.7253" font-family="Times">&#0177;</text>
<text xml:space="preserve" x="459.094" y="79.0117" fill="black" font-size="16.7253" font-family="Helvetica"> 264.4 </text>
<text xml:space="preserve" x="362.162" y="96.9318" fill="black" font-size="16.7253" font-family="Helvetica">Sigma    </text>
<text xml:space="preserve" x="509.596" y="98.561" fill="black" font-size="16.7253" font-family="Helvetica"> 2.87</text>
<text xml:space="preserve" x="500.636" y="98.561" fill="black" font-size="16.7253" font-family="Times">&#0177;</text>
<text xml:space="preserve" x="450.133" y="98.561" fill="black" font-size="16.7253" font-family="Helvetica"> 41.82 </text>
<text xml:space="preserve" x="242.422" y="17.9202" fill="black" font-size="18.7938" font-family="Helvetica">vop 69.18</text></svg>
