<?xml version="1.0" standalone="no"?>
<svg width="567.429" height="384.969" viewBox="0 0 567.429 384.969" xmlns="http://www.w3.org/2000/svg" shape-rendering="crispEdges">
<title>
./adjusted_vop/vop_graphs/vop69.33.svg
</title>
<desc>
Creator: ROOT Version 6.22/02
CreationDate: Wed Jul  7 20:37:20 2021</desc>
<defs>
</defs>
<rect x="0.5" y="0" width="566.929" height="384.469" fill="white"/>
<rect x="57.1929" y="38.4469" width="453.543" height="307.575" fill="white"/>
<rect x="57.1929" y="38.4469" width="453.543" height="307.575" fill="none" stroke="black"/>
<path d="M57.1929,346.022h 120.945v -12.2054h 15.1181v -12.2054h 15.1181v -61.0269h 15.1181v -73.2322h 15.1181v -24.4107h 15.1181v -109.848h 15.1181v 134.259h 15.1181v 12.2054h 15.1181v 12.2054h 15.1181v 73.2322h 15.1181v 12.2054h 15.1181v 24.4107h
 15.1181v 24.4107h 151.181" fill="none" stroke="#007d34"/>
<path d="M59.4606,346.022h 54.4252l 4.53543, -0.0391565l 4.53543, -0.0263737l 4.53543, -0.0424089l 4.53543, -0.0670517l 4.53543, -0.104232l 4.53543, -0.159294l 4.53543, -0.239314l 4.53543, -0.3534l 4.53543, -0.51292l 4.53543, -0.73159l 4.53543,
 -1.02533l 4.53543, -1.41182l 4.53543, -1.90956l 4.53543, -2.53658l 4.53543, -3.30849l 4.53543, -4.23607l 4.53543, -5.32258l 4.53543, -6.56077l 4.53543, -7.93011l 4.53543, -9.39463l 4.53543, -10.9016l 4.53543, -12.382l 4.53543, -13.752l 4.53543,
 -14.9177l 4.53543, -15.7804l 4.53543, -16.2447l 4.53543, -16.2265l 4.53543, -15.6625l 4.53543, -14.5178l 4.53543, -12.7922l 4.53543, -10.5234l 4.53543, -7.78731l 4.53543, -4.69419l 4.53543, -1.38141l 4.53543, 1.99665l 4.53543, 5.28046l 4.53543,
 8.31787" fill="none" stroke="#007d34" stroke-width="2"/>
<path d="M281.697,148.142l 4.53543, 10.9758l 4.53543, 13.1499l 4.53543, 14.771l 4.53543, 15.8084l 4.53543, 16.2691l 4.53543, 16.1936l 4.53543, 15.6498l 4.53543, 14.7243l 4.53543, 13.5139l 4.53543, 12.1169l 4.53543, 10.6258l 4.53543, 9.12192l 4.53543,
 7.67137l 4.53543, 6.32379l 4.53543, 5.11223l 4.53543, 4.05458l 4.53543, 3.15596l 4.53543, 2.41153l 4.53543, 1.80941l 4.53543, 1.33339l 4.53543, 0.96524l 4.53543, 0.686499l 4.53543, 0.479771l 4.53543, 0.329513l 4.53543, 0.222437l 4.53543, 0.147597l
 4.53543, 0.0962774l 4.53543, 0.0617425l 4.53543, 0.0389303l 4.53543, 0.024136l 4.53543, 0.035577h 81.6378" fill="none" stroke="#007d34" stroke-width="2"/>
<path d="M503.933,346.022h 4.53543" fill="none" stroke="#007d34" stroke-width="2"/>
<path d="M57.1929,346.022h 453.543" fill="none" stroke="black"/>
<path d="M57.1929,336.795v 9.22726" fill="none" stroke="black"/>
<path d="M72.311,341.409v 4.61363" fill="none" stroke="black"/>
<path d="M87.4291,341.409v 4.61363" fill="none" stroke="black"/>
<path d="M102.547,341.409v 4.61363" fill="none" stroke="black"/>
<path d="M117.665,341.409v 4.61363" fill="none" stroke="black"/>
<path d="M132.783,336.795v 9.22726" fill="none" stroke="black"/>
<path d="M147.902,341.409v 4.61363" fill="none" stroke="black"/>
<path d="M163.02,341.409v 4.61363" fill="none" stroke="black"/>
<path d="M178.138,341.409v 4.61363" fill="none" stroke="black"/>
<path d="M193.256,341.409v 4.61363" fill="none" stroke="black"/>
<path d="M208.374,336.795v 9.22726" fill="none" stroke="black"/>
<path d="M223.492,341.409v 4.61363" fill="none" stroke="black"/>
<path d="M238.61,341.409v 4.61363" fill="none" stroke="black"/>
<path d="M253.728,341.409v 4.61363" fill="none" stroke="black"/>
<path d="M268.846,341.409v 4.61363" fill="none" stroke="black"/>
<path d="M283.965,336.795v 9.22726" fill="none" stroke="black"/>
<path d="M299.083,341.409v 4.61363" fill="none" stroke="black"/>
<path d="M314.201,341.409v 4.61363" fill="none" stroke="black"/>
<path d="M329.319,341.409v 4.61363" fill="none" stroke="black"/>
<path d="M344.437,341.409v 4.61363" fill="none" stroke="black"/>
<path d="M359.555,336.795v 9.22726" fill="none" stroke="black"/>
<path d="M374.673,341.409v 4.61363" fill="none" stroke="black"/>
<path d="M389.791,341.409v 4.61363" fill="none" stroke="black"/>
<path d="M404.909,341.409v 4.61363" fill="none" stroke="black"/>
<path d="M420.028,341.409v 4.61363" fill="none" stroke="black"/>
<path d="M435.146,336.795v 9.22726" fill="none" stroke="black"/>
<path d="M450.264,341.409v 4.61363" fill="none" stroke="black"/>
<path d="M465.382,341.409v 4.61363" fill="none" stroke="black"/>
<path d="M480.5,341.409v 4.61363" fill="none" stroke="black"/>
<path d="M495.618,341.409v 4.61363" fill="none" stroke="black"/>
<path d="M510.736,336.795v 9.22726" fill="none" stroke="black"/>
<text xml:space="preserve" x="53.446" y="358.403" fill="black" font-size="12.8453" font-family="Helvetica">0</text>
<text xml:space="preserve" x="121.868" y="358.403" fill="black" font-size="12.8453" font-family="Helvetica">100</text>
<text xml:space="preserve" x="197.622" y="358.403" fill="black" font-size="12.8453" font-family="Helvetica">200</text>
<text xml:space="preserve" x="273.375" y="358.403" fill="black" font-size="12.8453" font-family="Helvetica">300</text>
<text xml:space="preserve" x="348.314" y="358.403" fill="black" font-size="12.8453" font-family="Helvetica">400</text>
<text xml:space="preserve" x="424.068" y="358.403" fill="black" font-size="12.8453" font-family="Helvetica">500</text>
<text xml:space="preserve" x="499.821" y="358.403" fill="black" font-size="12.8453" font-family="Helvetica">600</text>
<text xml:space="preserve" x="486.788" y="369.807" fill="black" font-size="12.8453" font-family="Helvetica">mpv</text>
<path d="M57.1929,346.022v -307.575" fill="none" stroke="black"/>
<path d="M70.7992,346.022h -13.6063" fill="none" stroke="black"/>
<path d="M63.9961,333.817h -6.80315" fill="none" stroke="black"/>
<path d="M63.9961,321.612h -6.80315" fill="none" stroke="black"/>
<path d="M63.9961,309.406h -6.80315" fill="none" stroke="black"/>
<path d="M63.9961,297.201h -6.80315" fill="none" stroke="black"/>
<path d="M70.7992,284.995h -13.6063" fill="none" stroke="black"/>
<path d="M63.9961,272.79h -6.80315" fill="none" stroke="black"/>
<path d="M63.9961,260.585h -6.80315" fill="none" stroke="black"/>
<path d="M63.9961,248.379h -6.80315" fill="none" stroke="black"/>
<path d="M63.9961,236.174h -6.80315" fill="none" stroke="black"/>
<path d="M70.7992,223.969h -13.6063" fill="none" stroke="black"/>
<path d="M63.9961,211.763h -6.80315" fill="none" stroke="black"/>
<path d="M63.9961,199.558h -6.80315" fill="none" stroke="black"/>
<path d="M63.9961,187.352h -6.80315" fill="none" stroke="black"/>
<path d="M63.9961,175.147h -6.80315" fill="none" stroke="black"/>
<path d="M70.7992,162.942h -13.6063" fill="none" stroke="black"/>
<path d="M63.9961,150.736h -6.80315" fill="none" stroke="black"/>
<path d="M63.9961,138.531h -6.80315" fill="none" stroke="black"/>
<path d="M63.9961,126.326h -6.80315" fill="none" stroke="black"/>
<path d="M63.9961,114.12h -6.80315" fill="none" stroke="black"/>
<path d="M70.7992,101.915h -13.6063" fill="none" stroke="black"/>
<path d="M63.9961,89.7095h -6.80315" fill="none" stroke="black"/>
<path d="M63.9961,77.5041h -6.80315" fill="none" stroke="black"/>
<path d="M63.9961,65.2987h -6.80315" fill="none" stroke="black"/>
<path d="M63.9961,53.0934h -6.80315" fill="none" stroke="black"/>
<path d="M70.7992,40.888h -13.6063" fill="none" stroke="black"/>
<path d="M70.7992,40.888h -13.6063" fill="none" stroke="black"/>
<text xml:space="preserve" x="47.7441" y="350.258" fill="black" font-size="12.8453" font-family="Helvetica">0</text>
<text xml:space="preserve" x="47.7441" y="289.166" fill="black" font-size="12.8453" font-family="Helvetica">5</text>
<text xml:space="preserve" x="41.2277" y="228.075" fill="black" font-size="12.8453" font-family="Helvetica">10</text>
<text xml:space="preserve" x="40.4131" y="167.798" fill="black" font-size="12.8453" font-family="Helvetica">15</text>
<text xml:space="preserve" x="41.2277" y="106.706" fill="black" font-size="12.8453" font-family="Helvetica">20</text>
<text xml:space="preserve" x="40.4131" y="45.615" fill="black" font-size="12.8453" font-family="Helvetica">25</text>
<g transform="rotate(-90,27.3803,86.3427)">
<text xml:space="preserve" x="27.3803" y="86.3427" fill="black" font-size="12.8453" font-family="Helvetica">n_blocks</text>
</g>
<text xml:space="preserve" x="243.237" y="17.9202" fill="black" font-size="18.7938" font-family="Helvetica">vop 69.33</text>
<rect x="351.996" y="24.9905" width="204.094" height="76.8938" fill="white"/>
<path d="M351.996,101.884h 204.094" fill="none" stroke="black"/>
<path d="M556.091,101.884v -76.8938" fill="none" stroke="black"/>
<path d="M556.091,24.9905h -204.094" fill="none" stroke="black"/>
<path d="M351.996,24.9905v 76.8938" fill="none" stroke="black"/>
<text xml:space="preserve" x="377.638" y="39.0986" fill="black" font-size="16.7253" font-family="Helvetica"> / ndf </text>
<text xml:space="preserve" x="371.122" y="34.2112" fill="black" font-size="11.3169" font-family="Helvetica">2</text>
<text xml:space="preserve" x="362.162" y="39.0986" fill="black" font-size="16.7253" font-family="Times">&#0967;</text>
<text xml:space="preserve" x="482.716" y="40.7277" fill="black" font-size="16.7253" font-family="Helvetica">  5.81 / 9</text>
<text xml:space="preserve" x="362.162" y="60.2769" fill="black" font-size="16.7253" font-family="Helvetica">Constant </text>
<text xml:space="preserve" x="509.596" y="60.2769" fill="black" font-size="16.7253" font-family="Helvetica"> 2.24</text>
<text xml:space="preserve" x="500.636" y="60.2769" fill="black" font-size="16.7253" font-family="Times">&#0177;</text>
<text xml:space="preserve" x="450.133" y="60.2769" fill="black" font-size="16.7253" font-family="Helvetica"> 17.49 </text>
<text xml:space="preserve" x="362.162" y="79.0117" fill="black" font-size="16.7253" font-family="Helvetica">Mean     </text>
<text xml:space="preserve" x="518.556" y="79.0117" fill="black" font-size="16.7253" font-family="Helvetica"> 5.2</text>
<text xml:space="preserve" x="509.596" y="79.0117" fill="black" font-size="16.7253" font-family="Times">&#0177;</text>
<text xml:space="preserve" x="459.094" y="79.0117" fill="black" font-size="16.7253" font-family="Helvetica"> 278.5 </text>
<text xml:space="preserve" x="362.162" y="96.9318" fill="black" font-size="16.7253" font-family="Helvetica">Sigma    </text>
<text xml:space="preserve" x="518.556" y="98.561" fill="black" font-size="16.7253" font-family="Helvetica"> 4.2</text>
<text xml:space="preserve" x="509.596" y="98.561" fill="black" font-size="16.7253" font-family="Times">&#0177;</text>
<text xml:space="preserve" x="463.166" y="98.561" fill="black" font-size="16.7253" font-family="Helvetica">  47.6 </text>
<g stroke="black" stroke-width="1" fill="none">
<line x1="63.752" y1="346.022" x2="64.752" y2="346.022"/>
</g>
<g stroke="black" stroke-width="1" fill="none">
<line x1="78.8701" y1="346.022" x2="79.8701" y2="346.022"/>
</g>
<g stroke="black" stroke-width="1" fill="none">
<line x1="93.9882" y1="346.022" x2="94.9882" y2="346.022"/>
</g>
<g stroke="black" stroke-width="1" fill="none">
<line x1="109.106" y1="346.022" x2="110.106" y2="346.022"/>
</g>
<g stroke="black" stroke-width="1" fill="none">
<line x1="124.224" y1="346.022" x2="125.224" y2="346.022"/>
</g>
<g stroke="black" stroke-width="1" fill="none">
<line x1="139.343" y1="346.022" x2="140.343" y2="346.022"/>
</g>
<g stroke="black" stroke-width="1" fill="none">
<line x1="154.461" y1="346.022" x2="155.461" y2="346.022"/>
</g>
<g stroke="black" stroke-width="1" fill="none">
<line x1="169.579" y1="346.022" x2="170.579" y2="346.022"/>
</g>
<path d="M185.697,346.022v -12.2054" fill="none" stroke="#007d34"/>
<path d="M185.697,333.817v -12.2054" fill="none" stroke="#007d34"/>
<path d="M178.138,333.817h 7.55905" fill="none" stroke="#007d34"/>
<path d="M185.697,333.817h 7.55905" fill="none" stroke="#007d34"/>
<g stroke="black" stroke-width="1" fill="none">
<line x1="184.697" y1="333.817" x2="185.697" y2="333.817"/>
</g>
<path d="M200.815,338.873v -17.261" fill="none" stroke="#007d34"/>
<path d="M200.815,321.612v -17.261" fill="none" stroke="#007d34"/>
<path d="M193.256,321.612h 7.55905" fill="none" stroke="#007d34"/>
<path d="M200.815,321.612h 7.55905" fill="none" stroke="#007d34"/>
<g stroke="black" stroke-width="1" fill="none">
<line x1="199.815" y1="321.612" x2="200.815" y2="321.612"/>
</g>
<path d="M215.933,292.877v -32.2924" fill="none" stroke="#007d34"/>
<path d="M215.933,260.585v -32.2924" fill="none" stroke="#007d34"/>
<path d="M208.374,260.585h 7.55905" fill="none" stroke="#007d34"/>
<path d="M215.933,260.585h 7.55905" fill="none" stroke="#007d34"/>
<g stroke="black" stroke-width="1" fill="none">
<line x1="214.933" y1="260.585" x2="215.933" y2="260.585"/>
</g>
<path d="M231.051,231.36v -44.0071" fill="none" stroke="#007d34"/>
<path d="M231.051,187.352v -44.0071" fill="none" stroke="#007d34"/>
<path d="M223.492,187.352h 7.55905" fill="none" stroke="#007d34"/>
<path d="M231.051,187.352h 7.55905" fill="none" stroke="#007d34"/>
<g stroke="black" stroke-width="1" fill="none">
<line x1="230.051" y1="187.352" x2="231.051" y2="187.352"/>
</g>
<path d="M246.169,210.213v -47.2712" fill="none" stroke="#007d34"/>
<path d="M246.169,162.942v -47.2712" fill="none" stroke="#007d34"/>
<path d="M238.61,162.942h 7.55905" fill="none" stroke="#007d34"/>
<path d="M246.169,162.942h 7.55905" fill="none" stroke="#007d34"/>
<g stroke="black" stroke-width="1" fill="none">
<line x1="245.169" y1="162.942" x2="246.169" y2="162.942"/>
</g>
<path d="M261.287,112.887v -59.7939" fill="none" stroke="#007d34"/>
<path d="M261.287,53.0934v -14.6464" fill="none" stroke="#007d34"/>
<path d="M253.728,53.0934h 7.55905" fill="none" stroke="#007d34"/>
<path d="M261.287,53.0934h 7.55905" fill="none" stroke="#007d34"/>
<g stroke="black" stroke-width="1" fill="none">
<line x1="260.287" y1="53.0934" x2="261.287" y2="53.0934"/>
</g>
<path d="M276.406,231.36v -44.0071" fill="none" stroke="#007d34"/>
<path d="M276.406,187.352v -44.0071" fill="none" stroke="#007d34"/>
<path d="M268.846,187.352h 7.55905" fill="none" stroke="#007d34"/>
<path d="M276.406,187.352h 7.55905" fill="none" stroke="#007d34"/>
<g stroke="black" stroke-width="1" fill="none">
<line x1="275.406" y1="187.352" x2="276.406" y2="187.352"/>
</g>
<path d="M291.524,241.838v -42.2806" fill="none" stroke="#007d34"/>
<path d="M291.524,199.558v -42.2806" fill="none" stroke="#007d34"/>
<path d="M283.965,199.558h 7.55905" fill="none" stroke="#007d34"/>
<path d="M291.524,199.558h 7.55905" fill="none" stroke="#007d34"/>
<g stroke="black" stroke-width="1" fill="none">
<line x1="290.524" y1="199.558" x2="291.524" y2="199.558"/>
</g>
<path d="M306.642,252.244v -40.4806" fill="none" stroke="#007d34"/>
<path d="M306.642,211.763v -40.4806" fill="none" stroke="#007d34"/>
<path d="M299.083,211.763h 7.55905" fill="none" stroke="#007d34"/>
<path d="M306.642,211.763h 7.55905" fill="none" stroke="#007d34"/>
<g stroke="black" stroke-width="1" fill="none">
<line x1="305.642" y1="211.763" x2="306.642" y2="211.763"/>
</g>
<path d="M321.76,312.287v -27.292" fill="none" stroke="#007d34"/>
<path d="M321.76,284.995v -27.292" fill="none" stroke="#007d34"/>
<path d="M314.201,284.995h 7.55905" fill="none" stroke="#007d34"/>
<path d="M321.76,284.995h 7.55905" fill="none" stroke="#007d34"/>
<g stroke="black" stroke-width="1" fill="none">
<line x1="320.76" y1="284.995" x2="321.76" y2="284.995"/>
</g>
<path d="M336.878,321.612v -24.4107" fill="none" stroke="#007d34"/>
<path d="M336.878,297.201v -24.4107" fill="none" stroke="#007d34"/>
<path d="M329.319,297.201h 7.55905" fill="none" stroke="#007d34"/>
<path d="M336.878,297.201h 7.55905" fill="none" stroke="#007d34"/>
<g stroke="black" stroke-width="1" fill="none">
<line x1="335.878" y1="297.201" x2="336.878" y2="297.201"/>
</g>
<path d="M351.996,338.873v -17.261" fill="none" stroke="#007d34"/>
<path d="M351.996,321.612v -17.261" fill="none" stroke="#007d34"/>
<path d="M344.437,321.612h 7.55905" fill="none" stroke="#007d34"/>
<path d="M351.996,321.612h 7.55905" fill="none" stroke="#007d34"/>
<g stroke="black" stroke-width="1" fill="none">
<line x1="350.996" y1="321.612" x2="351.996" y2="321.612"/>
</g>
<g stroke="black" stroke-width="1" fill="none">
<line x1="366.114" y1="346.022" x2="367.114" y2="346.022"/>
</g>
<g stroke="black" stroke-width="1" fill="none">
<line x1="381.232" y1="346.022" x2="382.232" y2="346.022"/>
</g>
<g stroke="black" stroke-width="1" fill="none">
<line x1="396.35" y1="346.022" x2="397.35" y2="346.022"/>
</g>
<g stroke="black" stroke-width="1" fill="none">
<line x1="411.469" y1="346.022" x2="412.469" y2="346.022"/>
</g>
<g stroke="black" stroke-width="1" fill="none">
<line x1="426.587" y1="346.022" x2="427.587" y2="346.022"/>
</g>
<g stroke="black" stroke-width="1" fill="none">
<line x1="441.705" y1="346.022" x2="442.705" y2="346.022"/>
</g>
<g stroke="black" stroke-width="1" fill="none">
<line x1="456.823" y1="346.022" x2="457.823" y2="346.022"/>
</g>
<g stroke="black" stroke-width="1" fill="none">
<line x1="471.941" y1="346.022" x2="472.941" y2="346.022"/>
</g>
<g stroke="black" stroke-width="1" fill="none">
<line x1="487.059" y1="346.022" x2="488.059" y2="346.022"/>
</g>
<g stroke="black" stroke-width="1" fill="none">
<line x1="502.177" y1="346.022" x2="503.177" y2="346.022"/>
</g>
<path d="M59.4606,346.022h 54.4252l 4.53543, -0.0391565l 4.53543, -0.0263737l 4.53543, -0.0424089l 4.53543, -0.0670517l 4.53543, -0.104232l 4.53543, -0.159294l 4.53543, -0.239314l 4.53543, -0.3534l 4.53543, -0.51292l 4.53543, -0.73159l 4.53543,
 -1.02533l 4.53543, -1.41182l 4.53543, -1.90956l 4.53543, -2.53658l 4.53543, -3.30849l 4.53543, -4.23607l 4.53543, -5.32258l 4.53543, -6.56077l 4.53543, -7.93011l 4.53543, -9.39463l 4.53543, -10.9016l 4.53543, -12.382l 4.53543, -13.752l 4.53543,
 -14.9177l 4.53543, -15.7804l 4.53543, -16.2447l 4.53543, -16.2265l 4.53543, -15.6625l 4.53543, -14.5178l 4.53543, -12.7922l 4.53543, -10.5234l 4.53543, -7.78731l 4.53543, -4.69419l 4.53543, -1.38141l 4.53543, 1.99665l 4.53543, 5.28046l 4.53543,
 8.31787" fill="none" stroke="#007d34" stroke-width="2"/>
<path d="M281.697,148.142l 4.53543, 10.9758l 4.53543, 13.1499l 4.53543, 14.771l 4.53543, 15.8084l 4.53543, 16.2691l 4.53543, 16.1936l 4.53543, 15.6498l 4.53543, 14.7243l 4.53543, 13.5139l 4.53543, 12.1169l 4.53543, 10.6258l 4.53543, 9.12192l 4.53543,
 7.67137l 4.53543, 6.32379l 4.53543, 5.11223l 4.53543, 4.05458l 4.53543, 3.15596l 4.53543, 2.41153l 4.53543, 1.80941l 4.53543, 1.33339l 4.53543, 0.96524l 4.53543, 0.686499l 4.53543, 0.479771l 4.53543, 0.329513l 4.53543, 0.222437l 4.53543, 0.147597l
 4.53543, 0.0962774l 4.53543, 0.0617425l 4.53543, 0.0389303l 4.53543, 0.024136l 4.53543, 0.035577h 81.6378" fill="none" stroke="#007d34" stroke-width="2"/>
<path d="M503.933,346.022h 4.53543" fill="none" stroke="#007d34" stroke-width="2"/>
<rect x="351.996" y="24.9905" width="204.094" height="76.8938" fill="white"/>
<path d="M351.996,101.884h 204.094" fill="none" stroke="black"/>
<path d="M556.091,101.884v -76.8938" fill="none" stroke="black"/>
<path d="M556.091,24.9905h -204.094" fill="none" stroke="black"/>
<path d="M351.996,24.9905v 76.8938" fill="none" stroke="black"/>
<text xml:space="preserve" x="377.638" y="39.0986" fill="black" font-size="16.7253" font-family="Helvetica"> / ndf </text>
<text xml:space="preserve" x="371.122" y="34.2112" fill="black" font-size="11.3169" font-family="Helvetica">2</text>
<text xml:space="preserve" x="362.162" y="39.0986" fill="black" font-size="16.7253" font-family="Times">&#0967;</text>
<text xml:space="preserve" x="482.716" y="40.7277" fill="black" font-size="16.7253" font-family="Helvetica">  5.81 / 9</text>
<text xml:space="preserve" x="362.162" y="60.2769" fill="black" font-size="16.7253" font-family="Helvetica">Constant </text>
<text xml:space="preserve" x="509.596" y="60.2769" fill="black" font-size="16.7253" font-family="Helvetica"> 2.24</text>
<text xml:space="preserve" x="500.636" y="60.2769" fill="black" font-size="16.7253" font-family="Times">&#0177;</text>
<text xml:space="preserve" x="450.133" y="60.2769" fill="black" font-size="16.7253" font-family="Helvetica"> 17.49 </text>
<text xml:space="preserve" x="362.162" y="79.0117" fill="black" font-size="16.7253" font-family="Helvetica">Mean     </text>
<text xml:space="preserve" x="518.556" y="79.0117" fill="black" font-size="16.7253" font-family="Helvetica"> 5.2</text>
<text xml:space="preserve" x="509.596" y="79.0117" fill="black" font-size="16.7253" font-family="Times">&#0177;</text>
<text xml:space="preserve" x="459.094" y="79.0117" fill="black" font-size="16.7253" font-family="Helvetica"> 278.5 </text>
<text xml:space="preserve" x="362.162" y="96.9318" fill="black" font-size="16.7253" font-family="Helvetica">Sigma    </text>
<text xml:space="preserve" x="518.556" y="98.561" fill="black" font-size="16.7253" font-family="Helvetica"> 4.2</text>
<text xml:space="preserve" x="509.596" y="98.561" fill="black" font-size="16.7253" font-family="Times">&#0177;</text>
<text xml:space="preserve" x="463.166" y="98.561" fill="black" font-size="16.7253" font-family="Helvetica">  47.6 </text>
<text xml:space="preserve" x="243.237" y="17.9202" fill="black" font-size="18.7938" font-family="Helvetica">vop 69.33</text></svg>
