<?xml version="1.0" standalone="no"?>
<svg width="567.429" height="384.969" viewBox="0 0 567.429 384.969" xmlns="http://www.w3.org/2000/svg" shape-rendering="crispEdges">
<title>
./adjusted_vop/vop_graphs/vop69.13.svg
</title>
<desc>
Creator: ROOT Version 6.22/02
CreationDate: Sat Jun 26 01:19:18 2021</desc>
<defs>
</defs>
<rect x="0.5" y="0" width="566.929" height="384.469" fill="white"/>
<rect x="57.1929" y="38.4469" width="453.543" height="307.575" fill="white"/>
<rect x="57.1929" y="38.4469" width="453.543" height="307.575" fill="none" stroke="black"/>
<path d="M57.1929,337.653h 15.1181v 8.3694h 45.3543v -8.3694h 15.1181v 8.3694h 30.2362v -8.3694h 15.1181v -8.3694h 15.1181v -100.433h 15.1181v 16.7388h 15.1181v -142.28h 15.1181v -41.847h 15.1181v -8.3694h 15.1181v 92.0634h 15.1181v 92.0634h 15.1181v
 58.5858h 15.1181v 33.4776h 15.1181v 8.3694h 15.1181v 8.3694h 166.299" fill="none" stroke="#c10020"/>
<path d="M59.4606,346.022h 63.4961l 4.53543, -0.03402l 4.53543, -0.0309474l 4.53543, -0.0561587l 4.53543, -0.0993494l 4.53543, -0.171324l 4.53543, -0.287948l 4.53543, -0.471614l 4.53543, -0.752594l 4.53543, -1.16989l 4.53543, -1.77109l 4.53543,
 -2.61054l 4.53543, -3.74517l 4.53543, -5.2276l 4.53543, -7.09623l 4.53543, -9.36291l 4.53543, -11.9995l 4.53543, -14.9254l 4.53543, -17.9988l 4.53543, -21.0154l 4.53543, -23.7158l 4.53543, -25.8048l 4.53543, -26.9815l 4.53543, -26.9767l 4.53543,
 -25.5937l 4.53543, -22.7455l 4.53543, -18.4808l 4.53543, -12.9931l 4.53543, -6.60966l 4.53543, 0.240427l 4.53543, 7.07341l 4.53543, 13.4076l 4.53543, 18.8195l 4.53543, 22.9904l 4.53543, 25.7368l 4.53543, 27.0198" fill="none" stroke="#c10020"
 stroke-width="2"/>
<path d="M281.697,172.582l 4.53543, 26.9352l 4.53543, 25.6859l 4.53543, 23.5445l 4.53543, 20.8129l 4.53543, 17.7845l 4.53543, 14.7154l 4.53543, 11.8058l 4.53543, 9.19296l 4.53543, 6.95355l 4.53543, 5.1125l 4.53543, 3.65569l 4.53543, 2.54335l 4.53543,
 1.7223l 4.53543, 1.13556l 4.53543, 0.729175l 4.53543, 0.456111l 4.53543, 0.277981l 4.53543, 0.165098l 4.53543, 0.0955692l 4.53543, 0.0539263l 4.53543, 0.029665l 4.53543, 0.0324965h 122.457" fill="none" stroke="#c10020" stroke-width="2"/>
<path d="M503.933,346.022h 4.53543" fill="none" stroke="#c10020" stroke-width="2"/>
<path d="M57.1929,346.022h 453.543" fill="none" stroke="black"/>
<path d="M57.1929,336.795v 9.22726" fill="none" stroke="black"/>
<path d="M72.311,341.409v 4.61363" fill="none" stroke="black"/>
<path d="M87.4291,341.409v 4.61363" fill="none" stroke="black"/>
<path d="M102.547,341.409v 4.61363" fill="none" stroke="black"/>
<path d="M117.665,341.409v 4.61363" fill="none" stroke="black"/>
<path d="M132.783,336.795v 9.22726" fill="none" stroke="black"/>
<path d="M147.902,341.409v 4.61363" fill="none" stroke="black"/>
<path d="M163.02,341.409v 4.61363" fill="none" stroke="black"/>
<path d="M178.138,341.409v 4.61363" fill="none" stroke="black"/>
<path d="M193.256,341.409v 4.61363" fill="none" stroke="black"/>
<path d="M208.374,336.795v 9.22726" fill="none" stroke="black"/>
<path d="M223.492,341.409v 4.61363" fill="none" stroke="black"/>
<path d="M238.61,341.409v 4.61363" fill="none" stroke="black"/>
<path d="M253.728,341.409v 4.61363" fill="none" stroke="black"/>
<path d="M268.846,341.409v 4.61363" fill="none" stroke="black"/>
<path d="M283.965,336.795v 9.22726" fill="none" stroke="black"/>
<path d="M299.083,341.409v 4.61363" fill="none" stroke="black"/>
<path d="M314.201,341.409v 4.61363" fill="none" stroke="black"/>
<path d="M329.319,341.409v 4.61363" fill="none" stroke="black"/>
<path d="M344.437,341.409v 4.61363" fill="none" stroke="black"/>
<path d="M359.555,336.795v 9.22726" fill="none" stroke="black"/>
<path d="M374.673,341.409v 4.61363" fill="none" stroke="black"/>
<path d="M389.791,341.409v 4.61363" fill="none" stroke="black"/>
<path d="M404.909,341.409v 4.61363" fill="none" stroke="black"/>
<path d="M420.028,341.409v 4.61363" fill="none" stroke="black"/>
<path d="M435.146,336.795v 9.22726" fill="none" stroke="black"/>
<path d="M450.264,341.409v 4.61363" fill="none" stroke="black"/>
<path d="M465.382,341.409v 4.61363" fill="none" stroke="black"/>
<path d="M480.5,341.409v 4.61363" fill="none" stroke="black"/>
<path d="M495.618,341.409v 4.61363" fill="none" stroke="black"/>
<path d="M510.736,336.795v 9.22726" fill="none" stroke="black"/>
<text xml:space="preserve" x="53.446" y="358.403" fill="black" font-size="12.8453" font-family="Helvetica">0</text>
<text xml:space="preserve" x="121.868" y="358.403" fill="black" font-size="12.8453" font-family="Helvetica">100</text>
<text xml:space="preserve" x="197.622" y="358.403" fill="black" font-size="12.8453" font-family="Helvetica">200</text>
<text xml:space="preserve" x="273.375" y="358.403" fill="black" font-size="12.8453" font-family="Helvetica">300</text>
<text xml:space="preserve" x="348.314" y="358.403" fill="black" font-size="12.8453" font-family="Helvetica">400</text>
<text xml:space="preserve" x="424.068" y="358.403" fill="black" font-size="12.8453" font-family="Helvetica">500</text>
<text xml:space="preserve" x="499.821" y="358.403" fill="black" font-size="12.8453" font-family="Helvetica">600</text>
<text xml:space="preserve" x="486.788" y="369.807" fill="black" font-size="12.8453" font-family="Helvetica">mpv</text>
<path d="M57.1929,346.022v -307.575" fill="none" stroke="black"/>
<path d="M70.7992,346.022h -13.6063" fill="none" stroke="black"/>
<path d="M63.9961,337.653h -6.80315" fill="none" stroke="black"/>
<path d="M63.9961,329.283h -6.80315" fill="none" stroke="black"/>
<path d="M63.9961,320.914h -6.80315" fill="none" stroke="black"/>
<path d="M63.9961,312.545h -6.80315" fill="none" stroke="black"/>
<path d="M70.7992,304.175h -13.6063" fill="none" stroke="black"/>
<path d="M63.9961,295.806h -6.80315" fill="none" stroke="black"/>
<path d="M63.9961,287.436h -6.80315" fill="none" stroke="black"/>
<path d="M63.9961,279.067h -6.80315" fill="none" stroke="black"/>
<path d="M63.9961,270.698h -6.80315" fill="none" stroke="black"/>
<path d="M70.7992,262.328h -13.6063" fill="none" stroke="black"/>
<path d="M63.9961,253.959h -6.80315" fill="none" stroke="black"/>
<path d="M63.9961,245.589h -6.80315" fill="none" stroke="black"/>
<path d="M63.9961,237.22h -6.80315" fill="none" stroke="black"/>
<path d="M63.9961,228.851h -6.80315" fill="none" stroke="black"/>
<path d="M70.7992,220.481h -13.6063" fill="none" stroke="black"/>
<path d="M63.9961,212.112h -6.80315" fill="none" stroke="black"/>
<path d="M63.9961,203.743h -6.80315" fill="none" stroke="black"/>
<path d="M63.9961,195.373h -6.80315" fill="none" stroke="black"/>
<path d="M63.9961,187.004h -6.80315" fill="none" stroke="black"/>
<path d="M70.7992,178.634h -13.6063" fill="none" stroke="black"/>
<path d="M63.9961,170.265h -6.80315" fill="none" stroke="black"/>
<path d="M63.9961,161.896h -6.80315" fill="none" stroke="black"/>
<path d="M63.9961,153.526h -6.80315" fill="none" stroke="black"/>
<path d="M63.9961,145.157h -6.80315" fill="none" stroke="black"/>
<path d="M70.7992,136.787h -13.6063" fill="none" stroke="black"/>
<path d="M63.9961,128.418h -6.80315" fill="none" stroke="black"/>
<path d="M63.9961,120.049h -6.80315" fill="none" stroke="black"/>
<path d="M63.9961,111.679h -6.80315" fill="none" stroke="black"/>
<path d="M63.9961,103.31h -6.80315" fill="none" stroke="black"/>
<path d="M70.7992,94.9403h -13.6063" fill="none" stroke="black"/>
<path d="M63.9961,86.571h -6.80315" fill="none" stroke="black"/>
<path d="M63.9961,78.2016h -6.80315" fill="none" stroke="black"/>
<path d="M63.9961,69.8322h -6.80315" fill="none" stroke="black"/>
<path d="M63.9961,61.4628h -6.80315" fill="none" stroke="black"/>
<path d="M70.7992,53.0934h -13.6063" fill="none" stroke="black"/>
<path d="M70.7992,53.0934h -13.6063" fill="none" stroke="black"/>
<path d="M63.9961,44.724h -6.80315" fill="none" stroke="black"/>
<text xml:space="preserve" x="47.7441" y="350.258" fill="black" font-size="12.8453" font-family="Helvetica">0</text>
<text xml:space="preserve" x="47.7441" y="308.716" fill="black" font-size="12.8453" font-family="Helvetica">5</text>
<text xml:space="preserve" x="41.2277" y="267.173" fill="black" font-size="12.8453" font-family="Helvetica">10</text>
<text xml:space="preserve" x="40.4131" y="224.817" fill="black" font-size="12.8453" font-family="Helvetica">15</text>
<text xml:space="preserve" x="41.2277" y="183.275" fill="black" font-size="12.8453" font-family="Helvetica">20</text>
<text xml:space="preserve" x="40.4131" y="140.918" fill="black" font-size="12.8453" font-family="Helvetica">25</text>
<text xml:space="preserve" x="41.2277" y="99.3755" fill="black" font-size="12.8453" font-family="Helvetica">30</text>
<text xml:space="preserve" x="40.4131" y="57.8333" fill="black" font-size="12.8453" font-family="Helvetica">35</text>
<g transform="rotate(-90,27.3803,86.3427)">
<text xml:space="preserve" x="27.3803" y="86.3427" fill="black" font-size="12.8453" font-family="Helvetica">n_blocks</text>
</g>
<text xml:space="preserve" x="243.237" y="17.9202" fill="black" font-size="18.7938" font-family="Helvetica">vop 69.13</text>
<rect x="351.996" y="24.9905" width="204.094" height="76.8938" fill="white"/>
<path d="M351.996,101.884h 204.094" fill="none" stroke="black"/>
<path d="M556.091,101.884v -76.8938" fill="none" stroke="black"/>
<path d="M556.091,24.9905h -204.094" fill="none" stroke="black"/>
<path d="M351.996,24.9905v 76.8938" fill="none" stroke="black"/>
<text xml:space="preserve" x="377.638" y="39.0986" fill="black" font-size="16.7253" font-family="Helvetica"> / ndf </text>
<text xml:space="preserve" x="371.122" y="34.2112" fill="black" font-size="11.3169" font-family="Helvetica">2</text>
<text xml:space="preserve" x="362.162" y="39.0986" fill="black" font-size="16.7253" font-family="Times">&#0967;</text>
<text xml:space="preserve" x="471.312" y="40.7277" fill="black" font-size="16.7253" font-family="Helvetica"> 7.374 / 11</text>
<text xml:space="preserve" x="362.162" y="60.2769" fill="black" font-size="16.7253" font-family="Helvetica">Constant </text>
<text xml:space="preserve" x="512.039" y="60.2769" fill="black" font-size="16.7253" font-family="Helvetica"> 3.41</text>
<text xml:space="preserve" x="503.079" y="60.2769" fill="black" font-size="16.7253" font-family="Times">&#0177;</text>
<text xml:space="preserve" x="452.577" y="60.2769" fill="black" font-size="16.7253" font-family="Helvetica"> 34.59 </text>
<text xml:space="preserve" x="362.162" y="79.0117" fill="black" font-size="16.7253" font-family="Helvetica">Mean     </text>
<text xml:space="preserve" x="518.556" y="79.0117" fill="black" font-size="16.7253" font-family="Helvetica"> 3.0</text>
<text xml:space="preserve" x="509.596" y="79.0117" fill="black" font-size="16.7253" font-family="Times">&#0177;</text>
<text xml:space="preserve" x="459.094" y="79.0117" fill="black" font-size="16.7253" font-family="Helvetica"> 257.8 </text>
<text xml:space="preserve" x="362.162" y="96.9318" fill="black" font-size="16.7253" font-family="Helvetica">Sigma    </text>
<text xml:space="preserve" x="509.596" y="98.561" fill="black" font-size="16.7253" font-family="Helvetica"> 2.42</text>
<text xml:space="preserve" x="500.636" y="98.561" fill="black" font-size="16.7253" font-family="Times">&#0177;</text>
<text xml:space="preserve" x="450.133" y="98.561" fill="black" font-size="16.7253" font-family="Helvetica"> 38.74 </text>
<path d="M64.752,346.022v -8.3694" fill="none" stroke="#c10020"/>
<path d="M64.752,337.653v -8.3694" fill="none" stroke="#c10020"/>
<path d="M57.1929,337.653h 7.55905" fill="none" stroke="#c10020"/>
<path d="M64.752,337.653h 7.55905" fill="none" stroke="#c10020"/>
<g stroke="black" stroke-width="1" fill="none">
<line x1="63.752" y1="337.653" x2="64.752" y2="337.653"/>
</g>
<g stroke="black" stroke-width="1" fill="none">
<line x1="78.8701" y1="346.022" x2="79.8701" y2="346.022"/>
</g>
<g stroke="black" stroke-width="1" fill="none">
<line x1="93.9882" y1="346.022" x2="94.9882" y2="346.022"/>
</g>
<g stroke="black" stroke-width="1" fill="none">
<line x1="109.106" y1="346.022" x2="110.106" y2="346.022"/>
</g>
<path d="M125.224,346.022v -8.3694" fill="none" stroke="#c10020"/>
<path d="M125.224,337.653v -8.3694" fill="none" stroke="#c10020"/>
<path d="M117.665,337.653h 7.55905" fill="none" stroke="#c10020"/>
<path d="M125.224,337.653h 7.55905" fill="none" stroke="#c10020"/>
<g stroke="black" stroke-width="1" fill="none">
<line x1="124.224" y1="337.653" x2="125.224" y2="337.653"/>
</g>
<g stroke="black" stroke-width="1" fill="none">
<line x1="139.343" y1="346.022" x2="140.343" y2="346.022"/>
</g>
<g stroke="black" stroke-width="1" fill="none">
<line x1="154.461" y1="346.022" x2="155.461" y2="346.022"/>
</g>
<path d="M170.579,346.022v -8.3694" fill="none" stroke="#c10020"/>
<path d="M170.579,337.653v -8.3694" fill="none" stroke="#c10020"/>
<path d="M163.02,337.653h 7.55905" fill="none" stroke="#c10020"/>
<path d="M170.579,337.653h 7.55905" fill="none" stroke="#c10020"/>
<g stroke="black" stroke-width="1" fill="none">
<line x1="169.579" y1="337.653" x2="170.579" y2="337.653"/>
</g>
<path d="M185.697,341.12v -11.8361" fill="none" stroke="#c10020"/>
<path d="M185.697,329.283v -11.8361" fill="none" stroke="#c10020"/>
<path d="M178.138,329.283h 7.55905" fill="none" stroke="#c10020"/>
<path d="M185.697,329.283h 7.55905" fill="none" stroke="#c10020"/>
<g stroke="black" stroke-width="1" fill="none">
<line x1="184.697" y1="329.283" x2="185.697" y2="329.283"/>
</g>
<path d="M200.815,260.166v -31.3154" fill="none" stroke="#c10020"/>
<path d="M200.815,228.851v -31.3154" fill="none" stroke="#c10020"/>
<path d="M193.256,228.851h 7.55905" fill="none" stroke="#c10020"/>
<path d="M200.815,228.851h 7.55905" fill="none" stroke="#c10020"/>
<g stroke="black" stroke-width="1" fill="none">
<line x1="199.815" y1="228.851" x2="200.815" y2="228.851"/>
</g>
<path d="M215.933,274.582v -28.9924" fill="none" stroke="#c10020"/>
<path d="M215.933,245.589v -28.9924" fill="none" stroke="#c10020"/>
<path d="M208.374,245.589h 7.55905" fill="none" stroke="#c10020"/>
<path d="M215.933,245.589h 7.55905" fill="none" stroke="#c10020"/>
<g stroke="black" stroke-width="1" fill="none">
<line x1="214.933" y1="245.589" x2="215.933" y2="245.589"/>
</g>
<path d="M231.051,148.38v -45.0706" fill="none" stroke="#c10020"/>
<path d="M231.051,103.31v -45.0706" fill="none" stroke="#c10020"/>
<path d="M223.492,103.31h 7.55905" fill="none" stroke="#c10020"/>
<path d="M231.051,103.31h 7.55905" fill="none" stroke="#c10020"/>
<g stroke="black" stroke-width="1" fill="none">
<line x1="230.051" y1="103.31" x2="231.051" y2="103.31"/>
</g>
<path d="M246.169,110.264v -48.8016" fill="none" stroke="#c10020"/>
<path d="M246.169,61.4628v -23.0158" fill="none" stroke="#c10020"/>
<path d="M238.61,61.4628h 7.55905" fill="none" stroke="#c10020"/>
<path d="M246.169,61.4628h 7.55905" fill="none" stroke="#c10020"/>
<g stroke="black" stroke-width="1" fill="none">
<line x1="245.169" y1="61.4628" x2="246.169" y2="61.4628"/>
</g>
<path d="M261.287,102.607v -49.514" fill="none" stroke="#c10020"/>
<path d="M261.287,53.0934v -14.6464" fill="none" stroke="#c10020"/>
<path d="M253.728,53.0934h 7.55905" fill="none" stroke="#c10020"/>
<path d="M261.287,53.0934h 7.55905" fill="none" stroke="#c10020"/>
<g stroke="black" stroke-width="1" fill="none">
<line x1="260.287" y1="53.0934" x2="261.287" y2="53.0934"/>
</g>
<path d="M276.406,186.158v -41.0015" fill="none" stroke="#c10020"/>
<path d="M276.406,145.157v -41.0015" fill="none" stroke="#c10020"/>
<path d="M268.846,145.157h 7.55905" fill="none" stroke="#c10020"/>
<path d="M276.406,145.157h 7.55905" fill="none" stroke="#c10020"/>
<g stroke="black" stroke-width="1" fill="none">
<line x1="275.406" y1="145.157" x2="276.406" y2="145.157"/>
</g>
<path d="M291.524,267.396v -30.1763" fill="none" stroke="#c10020"/>
<path d="M291.524,237.22v -30.1763" fill="none" stroke="#c10020"/>
<path d="M283.965,237.22h 7.55905" fill="none" stroke="#c10020"/>
<path d="M291.524,237.22h 7.55905" fill="none" stroke="#c10020"/>
<g stroke="black" stroke-width="1" fill="none">
<line x1="290.524" y1="237.22" x2="291.524" y2="237.22"/>
</g>
<path d="M306.642,316.307v -20.5008" fill="none" stroke="#c10020"/>
<path d="M306.642,295.806v -20.5008" fill="none" stroke="#c10020"/>
<path d="M299.083,295.806h 7.55905" fill="none" stroke="#c10020"/>
<path d="M306.642,295.806h 7.55905" fill="none" stroke="#c10020"/>
<g stroke="black" stroke-width="1" fill="none">
<line x1="305.642" y1="295.806" x2="306.642" y2="295.806"/>
</g>
<path d="M321.76,341.12v -11.8361" fill="none" stroke="#c10020"/>
<path d="M321.76,329.283v -11.8361" fill="none" stroke="#c10020"/>
<path d="M314.201,329.283h 7.55905" fill="none" stroke="#c10020"/>
<path d="M321.76,329.283h 7.55905" fill="none" stroke="#c10020"/>
<g stroke="black" stroke-width="1" fill="none">
<line x1="320.76" y1="329.283" x2="321.76" y2="329.283"/>
</g>
<path d="M336.878,346.022v -8.3694" fill="none" stroke="#c10020"/>
<path d="M336.878,337.653v -8.3694" fill="none" stroke="#c10020"/>
<path d="M329.319,337.653h 7.55905" fill="none" stroke="#c10020"/>
<path d="M336.878,337.653h 7.55905" fill="none" stroke="#c10020"/>
<g stroke="black" stroke-width="1" fill="none">
<line x1="335.878" y1="337.653" x2="336.878" y2="337.653"/>
</g>
<g stroke="black" stroke-width="1" fill="none">
<line x1="350.996" y1="346.022" x2="351.996" y2="346.022"/>
</g>
<g stroke="black" stroke-width="1" fill="none">
<line x1="366.114" y1="346.022" x2="367.114" y2="346.022"/>
</g>
<g stroke="black" stroke-width="1" fill="none">
<line x1="381.232" y1="346.022" x2="382.232" y2="346.022"/>
</g>
<g stroke="black" stroke-width="1" fill="none">
<line x1="396.35" y1="346.022" x2="397.35" y2="346.022"/>
</g>
<g stroke="black" stroke-width="1" fill="none">
<line x1="411.469" y1="346.022" x2="412.469" y2="346.022"/>
</g>
<g stroke="black" stroke-width="1" fill="none">
<line x1="426.587" y1="346.022" x2="427.587" y2="346.022"/>
</g>
<g stroke="black" stroke-width="1" fill="none">
<line x1="441.705" y1="346.022" x2="442.705" y2="346.022"/>
</g>
<g stroke="black" stroke-width="1" fill="none">
<line x1="456.823" y1="346.022" x2="457.823" y2="346.022"/>
</g>
<g stroke="black" stroke-width="1" fill="none">
<line x1="471.941" y1="346.022" x2="472.941" y2="346.022"/>
</g>
<g stroke="black" stroke-width="1" fill="none">
<line x1="487.059" y1="346.022" x2="488.059" y2="346.022"/>
</g>
<g stroke="black" stroke-width="1" fill="none">
<line x1="502.177" y1="346.022" x2="503.177" y2="346.022"/>
</g>
<path d="M59.4606,346.022h 63.4961l 4.53543, -0.03402l 4.53543, -0.0309474l 4.53543, -0.0561587l 4.53543, -0.0993494l 4.53543, -0.171324l 4.53543, -0.287948l 4.53543, -0.471614l 4.53543, -0.752594l 4.53543, -1.16989l 4.53543, -1.77109l 4.53543,
 -2.61054l 4.53543, -3.74517l 4.53543, -5.2276l 4.53543, -7.09623l 4.53543, -9.36291l 4.53543, -11.9995l 4.53543, -14.9254l 4.53543, -17.9988l 4.53543, -21.0154l 4.53543, -23.7158l 4.53543, -25.8048l 4.53543, -26.9815l 4.53543, -26.9767l 4.53543,
 -25.5937l 4.53543, -22.7455l 4.53543, -18.4808l 4.53543, -12.9931l 4.53543, -6.60966l 4.53543, 0.240427l 4.53543, 7.07341l 4.53543, 13.4076l 4.53543, 18.8195l 4.53543, 22.9904l 4.53543, 25.7368l 4.53543, 27.0198" fill="none" stroke="#c10020"
 stroke-width="2"/>
<path d="M281.697,172.582l 4.53543, 26.9352l 4.53543, 25.6859l 4.53543, 23.5445l 4.53543, 20.8129l 4.53543, 17.7845l 4.53543, 14.7154l 4.53543, 11.8058l 4.53543, 9.19296l 4.53543, 6.95355l 4.53543, 5.1125l 4.53543, 3.65569l 4.53543, 2.54335l 4.53543,
 1.7223l 4.53543, 1.13556l 4.53543, 0.729175l 4.53543, 0.456111l 4.53543, 0.277981l 4.53543, 0.165098l 4.53543, 0.0955692l 4.53543, 0.0539263l 4.53543, 0.029665l 4.53543, 0.0324965h 122.457" fill="none" stroke="#c10020" stroke-width="2"/>
<path d="M503.933,346.022h 4.53543" fill="none" stroke="#c10020" stroke-width="2"/>
<rect x="351.996" y="24.9905" width="204.094" height="76.8938" fill="white"/>
<path d="M351.996,101.884h 204.094" fill="none" stroke="black"/>
<path d="M556.091,101.884v -76.8938" fill="none" stroke="black"/>
<path d="M556.091,24.9905h -204.094" fill="none" stroke="black"/>
<path d="M351.996,24.9905v 76.8938" fill="none" stroke="black"/>
<text xml:space="preserve" x="377.638" y="39.0986" fill="black" font-size="16.7253" font-family="Helvetica"> / ndf </text>
<text xml:space="preserve" x="371.122" y="34.2112" fill="black" font-size="11.3169" font-family="Helvetica">2</text>
<text xml:space="preserve" x="362.162" y="39.0986" fill="black" font-size="16.7253" font-family="Times">&#0967;</text>
<text xml:space="preserve" x="471.312" y="40.7277" fill="black" font-size="16.7253" font-family="Helvetica"> 7.374 / 11</text>
<text xml:space="preserve" x="362.162" y="60.2769" fill="black" font-size="16.7253" font-family="Helvetica">Constant </text>
<text xml:space="preserve" x="512.039" y="60.2769" fill="black" font-size="16.7253" font-family="Helvetica"> 3.41</text>
<text xml:space="preserve" x="503.079" y="60.2769" fill="black" font-size="16.7253" font-family="Times">&#0177;</text>
<text xml:space="preserve" x="452.577" y="60.2769" fill="black" font-size="16.7253" font-family="Helvetica"> 34.59 </text>
<text xml:space="preserve" x="362.162" y="79.0117" fill="black" font-size="16.7253" font-family="Helvetica">Mean     </text>
<text xml:space="preserve" x="518.556" y="79.0117" fill="black" font-size="16.7253" font-family="Helvetica"> 3.0</text>
<text xml:space="preserve" x="509.596" y="79.0117" fill="black" font-size="16.7253" font-family="Times">&#0177;</text>
<text xml:space="preserve" x="459.094" y="79.0117" fill="black" font-size="16.7253" font-family="Helvetica"> 257.8 </text>
<text xml:space="preserve" x="362.162" y="96.9318" fill="black" font-size="16.7253" font-family="Helvetica">Sigma    </text>
<text xml:space="preserve" x="509.596" y="98.561" fill="black" font-size="16.7253" font-family="Helvetica"> 2.42</text>
<text xml:space="preserve" x="500.636" y="98.561" fill="black" font-size="16.7253" font-family="Times">&#0177;</text>
<text xml:space="preserve" x="450.133" y="98.561" fill="black" font-size="16.7253" font-family="Helvetica"> 38.74 </text>
<text xml:space="preserve" x="243.237" y="17.9202" fill="black" font-size="18.7938" font-family="Helvetica">vop 69.13</text></svg>
