<?xml version="1.0" standalone="no"?>
<svg width="567.429" height="384.969" viewBox="0 0 567.429 384.969" xmlns="http://www.w3.org/2000/svg" shape-rendering="crispEdges">
<title>
./adjusted_vop/vop_graphs/vop69.03.svg
</title>
<desc>
Creator: ROOT Version 6.22/02
CreationDate: Mon Jul 12 11:35:42 2021</desc>
<defs>
</defs>
<rect x="0.5" y="0" width="566.929" height="384.469" fill="white"/>
<rect x="57.1929" y="38.4469" width="453.543" height="307.575" fill="white"/>
<rect x="57.1929" y="38.4469" width="453.543" height="307.575" fill="none" stroke="black"/>
<path d="M57.1929,346.022h 120.945v -9.44932h 15.1181v -9.44932h 15.1181v -132.29h 15.1181v -103.943h 15.1181v -37.7973h 15.1181v 9.44932h 15.1181v 179.537h 15.1181v -56.6959h 15.1181v 75.5946h 15.1181v 66.1452h 15.1181v -28.348h 15.1181v 18.8986h
 15.1181v 28.348h 15.1181v -9.44932h 15.1181v 9.44932h 120.945" fill="none" stroke="#ff6800"/>
<path d="M59.4606,346.022h 77.1024l 4.53543, -0.0549078l 4.53543, -0.0524374l 4.53543, -0.0968072l 4.53543, -0.17355l 4.53543, -0.302077l 4.53543, -0.510393l 4.53543, -0.836927l 4.53543, -1.33154l 4.53543, -2.05482l 4.53543, -3.07463l 4.53543,
 -4.45888l 4.53543, -6.26402l 4.53543, -8.5193l 4.53543, -11.2085l 4.53543, -14.2517l 4.53543, -17.4915l 4.53543, -20.6886l 4.53543, -23.5314l 4.53543, -25.6613l 4.53543, -26.715l 4.53543, -26.3775l 4.53543, -24.4387l 4.53543, -20.8418l 4.53543,
 -15.7132l 4.53543, -9.36445l 4.53543, -2.26338l 4.53543, 5.02222l 4.53543, 11.8998l 4.53543, 17.8314l 4.53543, 22.4036l 4.53543, 25.3735l 4.53543, 26.6864" fill="none" stroke="#ff6800" stroke-width="2"/>
<path d="M281.697,188.962l 4.53543, 26.4623l 4.53543, 24.9576l 4.53543, 22.5125l 4.53543, 19.4943l 4.53543, 16.2477l 4.53543, 13.059l 4.53543, 10.1365l 4.53543, 7.60697l 4.53543, 5.52413l 4.53543, 3.88462l 4.53543, 2.64678l 4.53543, 1.74813l 4.53543,
 1.11967l 4.53543, 0.695687l 4.53543, 0.419436l 4.53543, 0.245444l 4.53543, 0.139433l 4.53543, 0.07691l 4.53543, 0.0411981l 4.53543, 0.0422262h 131.528" fill="none" stroke="#ff6800" stroke-width="2"/>
<path d="M503.933,346.022h 4.53543" fill="none" stroke="#ff6800" stroke-width="2"/>
<path d="M57.1929,346.022h 453.543" fill="none" stroke="black"/>
<path d="M57.1929,336.795v 9.22726" fill="none" stroke="black"/>
<path d="M72.311,341.409v 4.61363" fill="none" stroke="black"/>
<path d="M87.4291,341.409v 4.61363" fill="none" stroke="black"/>
<path d="M102.547,341.409v 4.61363" fill="none" stroke="black"/>
<path d="M117.665,341.409v 4.61363" fill="none" stroke="black"/>
<path d="M132.783,336.795v 9.22726" fill="none" stroke="black"/>
<path d="M147.902,341.409v 4.61363" fill="none" stroke="black"/>
<path d="M163.02,341.409v 4.61363" fill="none" stroke="black"/>
<path d="M178.138,341.409v 4.61363" fill="none" stroke="black"/>
<path d="M193.256,341.409v 4.61363" fill="none" stroke="black"/>
<path d="M208.374,336.795v 9.22726" fill="none" stroke="black"/>
<path d="M223.492,341.409v 4.61363" fill="none" stroke="black"/>
<path d="M238.61,341.409v 4.61363" fill="none" stroke="black"/>
<path d="M253.728,341.409v 4.61363" fill="none" stroke="black"/>
<path d="M268.846,341.409v 4.61363" fill="none" stroke="black"/>
<path d="M283.965,336.795v 9.22726" fill="none" stroke="black"/>
<path d="M299.083,341.409v 4.61363" fill="none" stroke="black"/>
<path d="M314.201,341.409v 4.61363" fill="none" stroke="black"/>
<path d="M329.319,341.409v 4.61363" fill="none" stroke="black"/>
<path d="M344.437,341.409v 4.61363" fill="none" stroke="black"/>
<path d="M359.555,336.795v 9.22726" fill="none" stroke="black"/>
<path d="M374.673,341.409v 4.61363" fill="none" stroke="black"/>
<path d="M389.791,341.409v 4.61363" fill="none" stroke="black"/>
<path d="M404.909,341.409v 4.61363" fill="none" stroke="black"/>
<path d="M420.028,341.409v 4.61363" fill="none" stroke="black"/>
<path d="M435.146,336.795v 9.22726" fill="none" stroke="black"/>
<path d="M450.264,341.409v 4.61363" fill="none" stroke="black"/>
<path d="M465.382,341.409v 4.61363" fill="none" stroke="black"/>
<path d="M480.5,341.409v 4.61363" fill="none" stroke="black"/>
<path d="M495.618,341.409v 4.61363" fill="none" stroke="black"/>
<path d="M510.736,336.795v 9.22726" fill="none" stroke="black"/>
<text xml:space="preserve" x="53.446" y="358.403" fill="black" font-size="12.8453" font-family="Helvetica">0</text>
<text xml:space="preserve" x="121.868" y="358.403" fill="black" font-size="12.8453" font-family="Helvetica">100</text>
<text xml:space="preserve" x="197.622" y="358.403" fill="black" font-size="12.8453" font-family="Helvetica">200</text>
<text xml:space="preserve" x="273.375" y="358.403" fill="black" font-size="12.8453" font-family="Helvetica">300</text>
<text xml:space="preserve" x="348.314" y="358.403" fill="black" font-size="12.8453" font-family="Helvetica">400</text>
<text xml:space="preserve" x="424.068" y="358.403" fill="black" font-size="12.8453" font-family="Helvetica">500</text>
<text xml:space="preserve" x="499.821" y="358.403" fill="black" font-size="12.8453" font-family="Helvetica">600</text>
<text xml:space="preserve" x="486.788" y="369.807" fill="black" font-size="12.8453" font-family="Helvetica">mpv</text>
<path d="M57.1929,346.022v -307.575" fill="none" stroke="black"/>
<path d="M70.7992,346.022h -13.6063" fill="none" stroke="black"/>
<path d="M63.9961,336.573h -6.80315" fill="none" stroke="black"/>
<path d="M63.9961,327.124h -6.80315" fill="none" stroke="black"/>
<path d="M63.9961,317.674h -6.80315" fill="none" stroke="black"/>
<path d="M63.9961,308.225h -6.80315" fill="none" stroke="black"/>
<path d="M70.7992,298.776h -13.6063" fill="none" stroke="black"/>
<path d="M63.9961,289.326h -6.80315" fill="none" stroke="black"/>
<path d="M63.9961,279.877h -6.80315" fill="none" stroke="black"/>
<path d="M63.9961,270.428h -6.80315" fill="none" stroke="black"/>
<path d="M63.9961,260.978h -6.80315" fill="none" stroke="black"/>
<path d="M70.7992,251.529h -13.6063" fill="none" stroke="black"/>
<path d="M63.9961,242.08h -6.80315" fill="none" stroke="black"/>
<path d="M63.9961,232.63h -6.80315" fill="none" stroke="black"/>
<path d="M63.9961,223.181h -6.80315" fill="none" stroke="black"/>
<path d="M63.9961,213.732h -6.80315" fill="none" stroke="black"/>
<path d="M70.7992,204.282h -13.6063" fill="none" stroke="black"/>
<path d="M63.9961,194.833h -6.80315" fill="none" stroke="black"/>
<path d="M63.9961,185.384h -6.80315" fill="none" stroke="black"/>
<path d="M63.9961,175.935h -6.80315" fill="none" stroke="black"/>
<path d="M63.9961,166.485h -6.80315" fill="none" stroke="black"/>
<path d="M70.7992,157.036h -13.6063" fill="none" stroke="black"/>
<path d="M63.9961,147.587h -6.80315" fill="none" stroke="black"/>
<path d="M63.9961,138.137h -6.80315" fill="none" stroke="black"/>
<path d="M63.9961,128.688h -6.80315" fill="none" stroke="black"/>
<path d="M63.9961,119.239h -6.80315" fill="none" stroke="black"/>
<path d="M70.7992,109.789h -13.6063" fill="none" stroke="black"/>
<path d="M63.9961,100.34h -6.80315" fill="none" stroke="black"/>
<path d="M63.9961,90.8906h -6.80315" fill="none" stroke="black"/>
<path d="M63.9961,81.4413h -6.80315" fill="none" stroke="black"/>
<path d="M63.9961,71.992h -6.80315" fill="none" stroke="black"/>
<path d="M70.7992,62.5427h -13.6063" fill="none" stroke="black"/>
<path d="M70.7992,62.5427h -13.6063" fill="none" stroke="black"/>
<path d="M63.9961,53.0934h -6.80315" fill="none" stroke="black"/>
<path d="M63.9961,43.644h -6.80315" fill="none" stroke="black"/>
<text xml:space="preserve" x="47.7441" y="350.258" fill="black" font-size="12.8453" font-family="Helvetica">0</text>
<text xml:space="preserve" x="47.7441" y="303.014" fill="black" font-size="12.8453" font-family="Helvetica">5</text>
<text xml:space="preserve" x="41.2277" y="255.77" fill="black" font-size="12.8453" font-family="Helvetica">10</text>
<text xml:space="preserve" x="40.4131" y="208.526" fill="black" font-size="12.8453" font-family="Helvetica">15</text>
<text xml:space="preserve" x="41.2277" y="161.282" fill="black" font-size="12.8453" font-family="Helvetica">20</text>
<text xml:space="preserve" x="40.4131" y="114.037" fill="black" font-size="12.8453" font-family="Helvetica">25</text>
<text xml:space="preserve" x="41.2277" y="66.7934" fill="black" font-size="12.8453" font-family="Helvetica">30</text>
<g transform="rotate(-90,27.3803,86.3427)">
<text xml:space="preserve" x="27.3803" y="86.3427" fill="black" font-size="12.8453" font-family="Helvetica">n_blocks</text>
</g>
<text xml:space="preserve" x="243.237" y="17.9202" fill="black" font-size="18.7938" font-family="Helvetica">vop 69.03</text>
<rect x="351.996" y="24.9905" width="204.094" height="76.8938" fill="white"/>
<path d="M351.996,101.884h 204.094" fill="none" stroke="black"/>
<path d="M556.091,101.884v -76.8938" fill="none" stroke="black"/>
<path d="M556.091,24.9905h -204.094" fill="none" stroke="black"/>
<path d="M351.996,24.9905v 76.8938" fill="none" stroke="black"/>
<text xml:space="preserve" x="377.638" y="39.0986" fill="black" font-size="16.7253" font-family="Helvetica"> / ndf </text>
<text xml:space="preserve" x="371.122" y="34.2112" fill="black" font-size="11.3169" font-family="Helvetica">2</text>
<text xml:space="preserve" x="362.162" y="39.0986" fill="black" font-size="16.7253" font-family="Times">&#0967;</text>
<text xml:space="preserve" x="468.868" y="40.7277" fill="black" font-size="16.7253" font-family="Helvetica"> 27.66 / 10</text>
<text xml:space="preserve" x="362.162" y="60.2769" fill="black" font-size="16.7253" font-family="Helvetica">Constant </text>
<text xml:space="preserve" x="512.039" y="60.2769" fill="black" font-size="16.7253" font-family="Helvetica"> 4.01</text>
<text xml:space="preserve" x="503.079" y="60.2769" fill="black" font-size="16.7253" font-family="Times">&#0177;</text>
<text xml:space="preserve" x="452.577" y="60.2769" fill="black" font-size="16.7253" font-family="Helvetica"> 28.19 </text>
<text xml:space="preserve" x="362.162" y="79.0117" fill="black" font-size="16.7253" font-family="Helvetica">Mean     </text>
<text xml:space="preserve" x="521" y="79.0117" fill="black" font-size="16.7253" font-family="Helvetica"> 5.1</text>
<text xml:space="preserve" x="512.039" y="79.0117" fill="black" font-size="16.7253" font-family="Times">&#0177;</text>
<text xml:space="preserve" x="461.537" y="79.0117" fill="black" font-size="16.7253" font-family="Helvetica"> 259.9 </text>
<text xml:space="preserve" x="362.162" y="96.9318" fill="black" font-size="16.7253" font-family="Helvetica">Sigma    </text>
<text xml:space="preserve" x="509.596" y="98.561" fill="black" font-size="16.7253" font-family="Helvetica"> 4.08</text>
<text xml:space="preserve" x="500.636" y="98.561" fill="black" font-size="16.7253" font-family="Times">&#0177;</text>
<text xml:space="preserve" x="450.133" y="98.561" fill="black" font-size="16.7253" font-family="Helvetica"> 36.13 </text>
<g stroke="black" stroke-width="1" fill="none">
<line x1="63.752" y1="346.022" x2="64.752" y2="346.022"/>
</g>
<g stroke="black" stroke-width="1" fill="none">
<line x1="78.8701" y1="346.022" x2="79.8701" y2="346.022"/>
</g>
<g stroke="black" stroke-width="1" fill="none">
<line x1="93.9882" y1="346.022" x2="94.9882" y2="346.022"/>
</g>
<g stroke="black" stroke-width="1" fill="none">
<line x1="109.106" y1="346.022" x2="110.106" y2="346.022"/>
</g>
<g stroke="black" stroke-width="1" fill="none">
<line x1="124.224" y1="346.022" x2="125.224" y2="346.022"/>
</g>
<g stroke="black" stroke-width="1" fill="none">
<line x1="139.343" y1="346.022" x2="140.343" y2="346.022"/>
</g>
<g stroke="black" stroke-width="1" fill="none">
<line x1="154.461" y1="346.022" x2="155.461" y2="346.022"/>
</g>
<g stroke="black" stroke-width="1" fill="none">
<line x1="169.579" y1="346.022" x2="170.579" y2="346.022"/>
</g>
<path d="M185.697,346.022v -9.44932" fill="none" stroke="#ff6800"/>
<path d="M185.697,336.573v -9.44932" fill="none" stroke="#ff6800"/>
<path d="M178.138,336.573h 7.55905" fill="none" stroke="#ff6800"/>
<path d="M185.697,336.573h 7.55905" fill="none" stroke="#ff6800"/>
<g stroke="black" stroke-width="1" fill="none">
<line x1="184.697" y1="336.573" x2="185.697" y2="336.573"/>
</g>
<path d="M200.815,340.487v -13.3634" fill="none" stroke="#ff6800"/>
<path d="M200.815,327.124v -13.3634" fill="none" stroke="#ff6800"/>
<path d="M193.256,327.124h 7.55905" fill="none" stroke="#ff6800"/>
<path d="M200.815,327.124h 7.55905" fill="none" stroke="#ff6800"/>
<g stroke="black" stroke-width="1" fill="none">
<line x1="199.815" y1="327.124" x2="200.815" y2="327.124"/>
</g>
<path d="M215.933,232.63v -37.7973" fill="none" stroke="#ff6800"/>
<path d="M215.933,194.833v -37.7973" fill="none" stroke="#ff6800"/>
<path d="M208.374,194.833h 7.55905" fill="none" stroke="#ff6800"/>
<path d="M215.933,194.833h 7.55905" fill="none" stroke="#ff6800"/>
<g stroke="black" stroke-width="1" fill="none">
<line x1="214.933" y1="194.833" x2="215.933" y2="194.833"/>
</g>
<path d="M231.051,139.991v -49.1001" fill="none" stroke="#ff6800"/>
<path d="M231.051,90.8906v -49.1001" fill="none" stroke="#ff6800"/>
<path d="M223.492,90.8906h 7.55905" fill="none" stroke="#ff6800"/>
<path d="M231.051,90.8906h 7.55905" fill="none" stroke="#ff6800"/>
<g stroke="black" stroke-width="1" fill="none">
<line x1="230.051" y1="90.8906" x2="231.051" y2="90.8906"/>
</g>
<path d="M246.169,105.705v -52.6116" fill="none" stroke="#ff6800"/>
<path d="M246.169,53.0934v -14.6464" fill="none" stroke="#ff6800"/>
<path d="M238.61,53.0934h 7.55905" fill="none" stroke="#ff6800"/>
<path d="M246.169,53.0934h 7.55905" fill="none" stroke="#ff6800"/>
<g stroke="black" stroke-width="1" fill="none">
<line x1="245.169" y1="53.0934" x2="246.169" y2="53.0934"/>
</g>
<path d="M261.287,114.299v -51.7561" fill="none" stroke="#ff6800"/>
<path d="M261.287,62.5427v -24.0958" fill="none" stroke="#ff6800"/>
<path d="M253.728,62.5427h 7.55905" fill="none" stroke="#ff6800"/>
<path d="M261.287,62.5427h 7.55905" fill="none" stroke="#ff6800"/>
<g stroke="black" stroke-width="1" fill="none">
<line x1="260.287" y1="62.5427" x2="261.287" y2="62.5427"/>
</g>
<path d="M276.406,273.42v -31.3398" fill="none" stroke="#ff6800"/>
<path d="M276.406,242.08v -31.3398" fill="none" stroke="#ff6800"/>
<path d="M268.846,242.08h 7.55905" fill="none" stroke="#ff6800"/>
<path d="M276.406,242.08h 7.55905" fill="none" stroke="#ff6800"/>
<g stroke="black" stroke-width="1" fill="none">
<line x1="275.406" y1="242.08" x2="276.406" y2="242.08"/>
</g>
<path d="M291.524,224.344v -38.9605" fill="none" stroke="#ff6800"/>
<path d="M291.524,185.384v -38.9605" fill="none" stroke="#ff6800"/>
<path d="M283.965,185.384h 7.55905" fill="none" stroke="#ff6800"/>
<path d="M291.524,185.384h 7.55905" fill="none" stroke="#ff6800"/>
<g stroke="black" stroke-width="1" fill="none">
<line x1="290.524" y1="185.384" x2="291.524" y2="185.384"/>
</g>
<path d="M306.642,289.326v -28.348" fill="none" stroke="#ff6800"/>
<path d="M306.642,260.978v -28.348" fill="none" stroke="#ff6800"/>
<path d="M299.083,260.978h 7.55905" fill="none" stroke="#ff6800"/>
<path d="M306.642,260.978h 7.55905" fill="none" stroke="#ff6800"/>
<g stroke="black" stroke-width="1" fill="none">
<line x1="305.642" y1="260.978" x2="306.642" y2="260.978"/>
</g>
<path d="M321.76,340.487v -13.3634" fill="none" stroke="#ff6800"/>
<path d="M321.76,327.124v -13.3634" fill="none" stroke="#ff6800"/>
<path d="M314.201,327.124h 7.55905" fill="none" stroke="#ff6800"/>
<path d="M321.76,327.124h 7.55905" fill="none" stroke="#ff6800"/>
<g stroke="black" stroke-width="1" fill="none">
<line x1="320.76" y1="327.124" x2="321.76" y2="327.124"/>
</g>
<path d="M336.878,319.905v -21.1293" fill="none" stroke="#ff6800"/>
<path d="M336.878,298.776v -21.1293" fill="none" stroke="#ff6800"/>
<path d="M329.319,298.776h 7.55905" fill="none" stroke="#ff6800"/>
<path d="M336.878,298.776h 7.55905" fill="none" stroke="#ff6800"/>
<g stroke="black" stroke-width="1" fill="none">
<line x1="335.878" y1="298.776" x2="336.878" y2="298.776"/>
</g>
<path d="M351.996,334.041v -16.3667" fill="none" stroke="#ff6800"/>
<path d="M351.996,317.674v -16.3667" fill="none" stroke="#ff6800"/>
<path d="M344.437,317.674h 7.55905" fill="none" stroke="#ff6800"/>
<path d="M351.996,317.674h 7.55905" fill="none" stroke="#ff6800"/>
<g stroke="black" stroke-width="1" fill="none">
<line x1="350.996" y1="317.674" x2="351.996" y2="317.674"/>
</g>
<g stroke="black" stroke-width="1" fill="none">
<line x1="366.114" y1="346.022" x2="367.114" y2="346.022"/>
</g>
<path d="M382.232,346.022v -9.44932" fill="none" stroke="#ff6800"/>
<path d="M382.232,336.573v -9.44932" fill="none" stroke="#ff6800"/>
<path d="M374.673,336.573h 7.55905" fill="none" stroke="#ff6800"/>
<path d="M382.232,336.573h 7.55905" fill="none" stroke="#ff6800"/>
<g stroke="black" stroke-width="1" fill="none">
<line x1="381.232" y1="336.573" x2="382.232" y2="336.573"/>
</g>
<g stroke="black" stroke-width="1" fill="none">
<line x1="396.35" y1="346.022" x2="397.35" y2="346.022"/>
</g>
<g stroke="black" stroke-width="1" fill="none">
<line x1="411.469" y1="346.022" x2="412.469" y2="346.022"/>
</g>
<g stroke="black" stroke-width="1" fill="none">
<line x1="426.587" y1="346.022" x2="427.587" y2="346.022"/>
</g>
<g stroke="black" stroke-width="1" fill="none">
<line x1="441.705" y1="346.022" x2="442.705" y2="346.022"/>
</g>
<g stroke="black" stroke-width="1" fill="none">
<line x1="456.823" y1="346.022" x2="457.823" y2="346.022"/>
</g>
<g stroke="black" stroke-width="1" fill="none">
<line x1="471.941" y1="346.022" x2="472.941" y2="346.022"/>
</g>
<g stroke="black" stroke-width="1" fill="none">
<line x1="487.059" y1="346.022" x2="488.059" y2="346.022"/>
</g>
<g stroke="black" stroke-width="1" fill="none">
<line x1="502.177" y1="346.022" x2="503.177" y2="346.022"/>
</g>
<path d="M59.4606,346.022h 77.1024l 4.53543, -0.0549078l 4.53543, -0.0524374l 4.53543, -0.0968072l 4.53543, -0.17355l 4.53543, -0.302077l 4.53543, -0.510393l 4.53543, -0.836927l 4.53543, -1.33154l 4.53543, -2.05482l 4.53543, -3.07463l 4.53543,
 -4.45888l 4.53543, -6.26402l 4.53543, -8.5193l 4.53543, -11.2085l 4.53543, -14.2517l 4.53543, -17.4915l 4.53543, -20.6886l 4.53543, -23.5314l 4.53543, -25.6613l 4.53543, -26.715l 4.53543, -26.3775l 4.53543, -24.4387l 4.53543, -20.8418l 4.53543,
 -15.7132l 4.53543, -9.36445l 4.53543, -2.26338l 4.53543, 5.02222l 4.53543, 11.8998l 4.53543, 17.8314l 4.53543, 22.4036l 4.53543, 25.3735l 4.53543, 26.6864" fill="none" stroke="#ff6800" stroke-width="2"/>
<path d="M281.697,188.962l 4.53543, 26.4623l 4.53543, 24.9576l 4.53543, 22.5125l 4.53543, 19.4943l 4.53543, 16.2477l 4.53543, 13.059l 4.53543, 10.1365l 4.53543, 7.60697l 4.53543, 5.52413l 4.53543, 3.88462l 4.53543, 2.64678l 4.53543, 1.74813l 4.53543,
 1.11967l 4.53543, 0.695687l 4.53543, 0.419436l 4.53543, 0.245444l 4.53543, 0.139433l 4.53543, 0.07691l 4.53543, 0.0411981l 4.53543, 0.0422262h 131.528" fill="none" stroke="#ff6800" stroke-width="2"/>
<path d="M503.933,346.022h 4.53543" fill="none" stroke="#ff6800" stroke-width="2"/>
<rect x="351.996" y="24.9905" width="204.094" height="76.8938" fill="white"/>
<path d="M351.996,101.884h 204.094" fill="none" stroke="black"/>
<path d="M556.091,101.884v -76.8938" fill="none" stroke="black"/>
<path d="M556.091,24.9905h -204.094" fill="none" stroke="black"/>
<path d="M351.996,24.9905v 76.8938" fill="none" stroke="black"/>
<text xml:space="preserve" x="377.638" y="39.0986" fill="black" font-size="16.7253" font-family="Helvetica"> / ndf </text>
<text xml:space="preserve" x="371.122" y="34.2112" fill="black" font-size="11.3169" font-family="Helvetica">2</text>
<text xml:space="preserve" x="362.162" y="39.0986" fill="black" font-size="16.7253" font-family="Times">&#0967;</text>
<text xml:space="preserve" x="468.868" y="40.7277" fill="black" font-size="16.7253" font-family="Helvetica"> 27.66 / 10</text>
<text xml:space="preserve" x="362.162" y="60.2769" fill="black" font-size="16.7253" font-family="Helvetica">Constant </text>
<text xml:space="preserve" x="512.039" y="60.2769" fill="black" font-size="16.7253" font-family="Helvetica"> 4.01</text>
<text xml:space="preserve" x="503.079" y="60.2769" fill="black" font-size="16.7253" font-family="Times">&#0177;</text>
<text xml:space="preserve" x="452.577" y="60.2769" fill="black" font-size="16.7253" font-family="Helvetica"> 28.19 </text>
<text xml:space="preserve" x="362.162" y="79.0117" fill="black" font-size="16.7253" font-family="Helvetica">Mean     </text>
<text xml:space="preserve" x="521" y="79.0117" fill="black" font-size="16.7253" font-family="Helvetica"> 5.1</text>
<text xml:space="preserve" x="512.039" y="79.0117" fill="black" font-size="16.7253" font-family="Times">&#0177;</text>
<text xml:space="preserve" x="461.537" y="79.0117" fill="black" font-size="16.7253" font-family="Helvetica"> 259.9 </text>
<text xml:space="preserve" x="362.162" y="96.9318" fill="black" font-size="16.7253" font-family="Helvetica">Sigma    </text>
<text xml:space="preserve" x="509.596" y="98.561" fill="black" font-size="16.7253" font-family="Helvetica"> 4.08</text>
<text xml:space="preserve" x="500.636" y="98.561" fill="black" font-size="16.7253" font-family="Times">&#0177;</text>
<text xml:space="preserve" x="450.133" y="98.561" fill="black" font-size="16.7253" font-family="Helvetica"> 36.13 </text>
<text xml:space="preserve" x="243.237" y="17.9202" fill="black" font-size="18.7938" font-family="Helvetica">vop 69.03</text></svg>
