<?xml version="1.0" standalone="no"?>
<svg width="567.429" height="384.969" viewBox="0 0 567.429 384.969" xmlns="http://www.w3.org/2000/svg" shape-rendering="crispEdges">
<title>
./adjusted_vop/vop_graphs/vop69.08.svg
</title>
<desc>
Creator: ROOT Version 6.22/02
CreationDate: Mon Jul 12 11:35:42 2021</desc>
<defs>
</defs>
<rect x="0.5" y="0" width="566.929" height="384.469" fill="white"/>
<rect x="57.1929" y="38.4469" width="453.543" height="307.575" fill="white"/>
<rect x="57.1929" y="38.4469" width="453.543" height="307.575" fill="none" stroke="black"/>
<path d="M57.1929,346.022h 90.7087v -9.44932h 15.1181v 9.44932h 30.2362v -28.348h 15.1181v -28.348h 15.1181v -103.943h 15.1181v -56.6959h 15.1181v -75.5946h 15.1181v 56.6959h 15.1181v -9.44932h 15.1181v 94.4932h 15.1181v -9.44932h 15.1181v 94.4932h
 15.1181v 18.8986h 15.1181v 37.7973h 15.1181v -18.8986h 15.1181v 28.348h 120.945" fill="none" stroke="#a6bdd7"/>
<path d="M59.4606,346.022h 54.4252l 4.53543, -0.0396223l 4.53543, -0.0257821l 4.53543, -0.0409863l 4.53543, -0.0641507l 4.53543, -0.0988509l 4.53543, -0.149951l 4.53543, -0.223913l 4.53543, -0.329105l 4.53543, -0.476079l 4.53543, -0.677753l 4.53543,
 -0.949439l 4.53543, -1.30862l 4.53543, -1.7744l 4.53543, -2.36657l 4.53543, -3.10411l 4.53543, -4.00335l 4.53543, -5.07548l 4.53543, -6.32388l 4.53543, -7.74123l 4.53543, -9.30674l 4.53543, -10.9839l 4.53543, -12.7193l 4.53543, -14.4423l 4.53543,
 -16.067l 4.53543, -17.4955l 4.53543, -18.6233l 4.53543, -19.3467l 4.53543, -19.5701l 4.53543, -19.2157l 4.53543, -18.2314l 4.53543, -16.5978l 4.53543, -14.3331l 4.53543, -11.4951l 4.53543, -8.17936l 4.53543, -4.51446l 4.53543, -0.653642l 4.53543,
 3.23572" fill="none" stroke="#a6bdd7" stroke-width="2"/>
<path d="M281.697,82.7095l 4.53543, 6.98421l 4.53543, 10.4326l 4.53543, 13.4429l 4.53543, 15.9079l 4.53543, 17.7567l 4.53543, 18.958l 4.53543, 19.519l 4.53543, 19.4814l 4.53543, 18.9155l 4.53543, 17.9117l 4.53543, 16.5721l 4.53543, 15.0017l 4.53543,
 13.3014l 4.53543, 11.5615l 4.53543, 9.85804l 4.53543, 8.25027l 4.53543, 6.78027l 4.53543, 5.47388l 4.53543, 4.34264l 4.53543, 3.38645l 4.53543, 2.59639l 4.53543, 1.95759l 4.53543, 1.4517l 4.53543, 1.05901l 4.53543, 0.760082l 4.53543, 0.53679l
 4.53543, 0.373063l 4.53543, 0.255174l 4.53543, 0.171792l 4.53543, 0.113847l 4.53543, 0.0742708l 4.53543, 0.0477006l 4.53543, 0.0301622l 4.53543, 0.046937h 68.0315" fill="none" stroke="#a6bdd7" stroke-width="2"/>
<path d="M503.933,346.022h 4.53543" fill="none" stroke="#a6bdd7" stroke-width="2"/>
<path d="M57.1929,346.022h 453.543" fill="none" stroke="black"/>
<path d="M57.1929,336.795v 9.22726" fill="none" stroke="black"/>
<path d="M72.311,341.409v 4.61363" fill="none" stroke="black"/>
<path d="M87.4291,341.409v 4.61363" fill="none" stroke="black"/>
<path d="M102.547,341.409v 4.61363" fill="none" stroke="black"/>
<path d="M117.665,341.409v 4.61363" fill="none" stroke="black"/>
<path d="M132.783,336.795v 9.22726" fill="none" stroke="black"/>
<path d="M147.902,341.409v 4.61363" fill="none" stroke="black"/>
<path d="M163.02,341.409v 4.61363" fill="none" stroke="black"/>
<path d="M178.138,341.409v 4.61363" fill="none" stroke="black"/>
<path d="M193.256,341.409v 4.61363" fill="none" stroke="black"/>
<path d="M208.374,336.795v 9.22726" fill="none" stroke="black"/>
<path d="M223.492,341.409v 4.61363" fill="none" stroke="black"/>
<path d="M238.61,341.409v 4.61363" fill="none" stroke="black"/>
<path d="M253.728,341.409v 4.61363" fill="none" stroke="black"/>
<path d="M268.846,341.409v 4.61363" fill="none" stroke="black"/>
<path d="M283.965,336.795v 9.22726" fill="none" stroke="black"/>
<path d="M299.083,341.409v 4.61363" fill="none" stroke="black"/>
<path d="M314.201,341.409v 4.61363" fill="none" stroke="black"/>
<path d="M329.319,341.409v 4.61363" fill="none" stroke="black"/>
<path d="M344.437,341.409v 4.61363" fill="none" stroke="black"/>
<path d="M359.555,336.795v 9.22726" fill="none" stroke="black"/>
<path d="M374.673,341.409v 4.61363" fill="none" stroke="black"/>
<path d="M389.791,341.409v 4.61363" fill="none" stroke="black"/>
<path d="M404.909,341.409v 4.61363" fill="none" stroke="black"/>
<path d="M420.028,341.409v 4.61363" fill="none" stroke="black"/>
<path d="M435.146,336.795v 9.22726" fill="none" stroke="black"/>
<path d="M450.264,341.409v 4.61363" fill="none" stroke="black"/>
<path d="M465.382,341.409v 4.61363" fill="none" stroke="black"/>
<path d="M480.5,341.409v 4.61363" fill="none" stroke="black"/>
<path d="M495.618,341.409v 4.61363" fill="none" stroke="black"/>
<path d="M510.736,336.795v 9.22726" fill="none" stroke="black"/>
<text xml:space="preserve" x="53.446" y="358.403" fill="black" font-size="12.8453" font-family="Helvetica">0</text>
<text xml:space="preserve" x="121.868" y="358.403" fill="black" font-size="12.8453" font-family="Helvetica">100</text>
<text xml:space="preserve" x="197.622" y="358.403" fill="black" font-size="12.8453" font-family="Helvetica">200</text>
<text xml:space="preserve" x="273.375" y="358.403" fill="black" font-size="12.8453" font-family="Helvetica">300</text>
<text xml:space="preserve" x="348.314" y="358.403" fill="black" font-size="12.8453" font-family="Helvetica">400</text>
<text xml:space="preserve" x="424.068" y="358.403" fill="black" font-size="12.8453" font-family="Helvetica">500</text>
<text xml:space="preserve" x="499.821" y="358.403" fill="black" font-size="12.8453" font-family="Helvetica">600</text>
<text xml:space="preserve" x="486.788" y="369.807" fill="black" font-size="12.8453" font-family="Helvetica">mpv</text>
<path d="M57.1929,346.022v -307.575" fill="none" stroke="black"/>
<path d="M70.7992,346.022h -13.6063" fill="none" stroke="black"/>
<path d="M63.9961,336.573h -6.80315" fill="none" stroke="black"/>
<path d="M63.9961,327.124h -6.80315" fill="none" stroke="black"/>
<path d="M63.9961,317.674h -6.80315" fill="none" stroke="black"/>
<path d="M63.9961,308.225h -6.80315" fill="none" stroke="black"/>
<path d="M70.7992,298.776h -13.6063" fill="none" stroke="black"/>
<path d="M63.9961,289.326h -6.80315" fill="none" stroke="black"/>
<path d="M63.9961,279.877h -6.80315" fill="none" stroke="black"/>
<path d="M63.9961,270.428h -6.80315" fill="none" stroke="black"/>
<path d="M63.9961,260.978h -6.80315" fill="none" stroke="black"/>
<path d="M70.7992,251.529h -13.6063" fill="none" stroke="black"/>
<path d="M63.9961,242.08h -6.80315" fill="none" stroke="black"/>
<path d="M63.9961,232.63h -6.80315" fill="none" stroke="black"/>
<path d="M63.9961,223.181h -6.80315" fill="none" stroke="black"/>
<path d="M63.9961,213.732h -6.80315" fill="none" stroke="black"/>
<path d="M70.7992,204.282h -13.6063" fill="none" stroke="black"/>
<path d="M63.9961,194.833h -6.80315" fill="none" stroke="black"/>
<path d="M63.9961,185.384h -6.80315" fill="none" stroke="black"/>
<path d="M63.9961,175.935h -6.80315" fill="none" stroke="black"/>
<path d="M63.9961,166.485h -6.80315" fill="none" stroke="black"/>
<path d="M70.7992,157.036h -13.6063" fill="none" stroke="black"/>
<path d="M63.9961,147.587h -6.80315" fill="none" stroke="black"/>
<path d="M63.9961,138.137h -6.80315" fill="none" stroke="black"/>
<path d="M63.9961,128.688h -6.80315" fill="none" stroke="black"/>
<path d="M63.9961,119.239h -6.80315" fill="none" stroke="black"/>
<path d="M70.7992,109.789h -13.6063" fill="none" stroke="black"/>
<path d="M63.9961,100.34h -6.80315" fill="none" stroke="black"/>
<path d="M63.9961,90.8906h -6.80315" fill="none" stroke="black"/>
<path d="M63.9961,81.4413h -6.80315" fill="none" stroke="black"/>
<path d="M63.9961,71.992h -6.80315" fill="none" stroke="black"/>
<path d="M70.7992,62.5427h -13.6063" fill="none" stroke="black"/>
<path d="M70.7992,62.5427h -13.6063" fill="none" stroke="black"/>
<path d="M63.9961,53.0934h -6.80315" fill="none" stroke="black"/>
<path d="M63.9961,43.644h -6.80315" fill="none" stroke="black"/>
<text xml:space="preserve" x="47.7441" y="350.258" fill="black" font-size="12.8453" font-family="Helvetica">0</text>
<text xml:space="preserve" x="47.7441" y="303.014" fill="black" font-size="12.8453" font-family="Helvetica">5</text>
<text xml:space="preserve" x="41.2277" y="255.77" fill="black" font-size="12.8453" font-family="Helvetica">10</text>
<text xml:space="preserve" x="40.4131" y="208.526" fill="black" font-size="12.8453" font-family="Helvetica">15</text>
<text xml:space="preserve" x="41.2277" y="161.282" fill="black" font-size="12.8453" font-family="Helvetica">20</text>
<text xml:space="preserve" x="40.4131" y="114.037" fill="black" font-size="12.8453" font-family="Helvetica">25</text>
<text xml:space="preserve" x="41.2277" y="66.7934" fill="black" font-size="12.8453" font-family="Helvetica">30</text>
<g transform="rotate(-90,27.3803,86.3427)">
<text xml:space="preserve" x="27.3803" y="86.3427" fill="black" font-size="12.8453" font-family="Helvetica">n_blocks</text>
</g>
<text xml:space="preserve" x="242.422" y="17.9202" fill="black" font-size="18.7938" font-family="Helvetica">vop 69.08</text>
<rect x="351.996" y="24.9905" width="204.094" height="76.8938" fill="white"/>
<path d="M351.996,101.884h 204.094" fill="none" stroke="black"/>
<path d="M556.091,101.884v -76.8938" fill="none" stroke="black"/>
<path d="M556.091,24.9905h -204.094" fill="none" stroke="black"/>
<path d="M351.996,24.9905v 76.8938" fill="none" stroke="black"/>
<text xml:space="preserve" x="377.638" y="39.0986" fill="black" font-size="16.7253" font-family="Helvetica"> / ndf </text>
<text xml:space="preserve" x="371.122" y="34.2112" fill="black" font-size="11.3169" font-family="Helvetica">2</text>
<text xml:space="preserve" x="362.162" y="39.0986" fill="black" font-size="16.7253" font-family="Times">&#0967;</text>
<text xml:space="preserve" x="471.312" y="40.7277" fill="black" font-size="16.7253" font-family="Helvetica"> 8.088 / 11</text>
<text xml:space="preserve" x="362.162" y="60.2769" fill="black" font-size="16.7253" font-family="Helvetica">Constant </text>
<text xml:space="preserve" x="509.596" y="60.2769" fill="black" font-size="16.7253" font-family="Helvetica"> 2.74</text>
<text xml:space="preserve" x="500.636" y="60.2769" fill="black" font-size="16.7253" font-family="Times">&#0177;</text>
<text xml:space="preserve" x="450.133" y="60.2769" fill="black" font-size="16.7253" font-family="Helvetica"> 28.23 </text>
<text xml:space="preserve" x="362.162" y="79.0117" fill="black" font-size="16.7253" font-family="Helvetica">Mean     </text>
<text xml:space="preserve" x="518.556" y="79.0117" fill="black" font-size="16.7253" font-family="Helvetica"> 3.9</text>
<text xml:space="preserve" x="509.596" y="79.0117" fill="black" font-size="16.7253" font-family="Times">&#0177;</text>
<text xml:space="preserve" x="463.166" y="79.0117" fill="black" font-size="16.7253" font-family="Helvetica">   289 </text>
<text xml:space="preserve" x="362.162" y="96.9318" fill="black" font-size="16.7253" font-family="Helvetica">Sigma    </text>
<text xml:space="preserve" x="509.596" y="98.561" fill="black" font-size="16.7253" font-family="Helvetica"> 3.24</text>
<text xml:space="preserve" x="500.636" y="98.561" fill="black" font-size="16.7253" font-family="Times">&#0177;</text>
<text xml:space="preserve" x="450.133" y="98.561" fill="black" font-size="16.7253" font-family="Helvetica"> 49.54 </text>
<g stroke="black" stroke-width="1" fill="none">
<line x1="63.752" y1="346.022" x2="64.752" y2="346.022"/>
</g>
<g stroke="black" stroke-width="1" fill="none">
<line x1="78.8701" y1="346.022" x2="79.8701" y2="346.022"/>
</g>
<g stroke="black" stroke-width="1" fill="none">
<line x1="93.9882" y1="346.022" x2="94.9882" y2="346.022"/>
</g>
<g stroke="black" stroke-width="1" fill="none">
<line x1="109.106" y1="346.022" x2="110.106" y2="346.022"/>
</g>
<g stroke="black" stroke-width="1" fill="none">
<line x1="124.224" y1="346.022" x2="125.224" y2="346.022"/>
</g>
<g stroke="black" stroke-width="1" fill="none">
<line x1="139.343" y1="346.022" x2="140.343" y2="346.022"/>
</g>
<path d="M155.461,346.022v -9.44932" fill="none" stroke="#a6bdd7"/>
<path d="M155.461,336.573v -9.44932" fill="none" stroke="#a6bdd7"/>
<path d="M147.902,336.573h 7.55905" fill="none" stroke="#a6bdd7"/>
<path d="M155.461,336.573h 7.55905" fill="none" stroke="#a6bdd7"/>
<g stroke="black" stroke-width="1" fill="none">
<line x1="154.461" y1="336.573" x2="155.461" y2="336.573"/>
</g>
<g stroke="black" stroke-width="1" fill="none">
<line x1="169.579" y1="346.022" x2="170.579" y2="346.022"/>
</g>
<g stroke="black" stroke-width="1" fill="none">
<line x1="184.697" y1="346.022" x2="185.697" y2="346.022"/>
</g>
<path d="M200.815,334.041v -16.3667" fill="none" stroke="#a6bdd7"/>
<path d="M200.815,317.674v -16.3667" fill="none" stroke="#a6bdd7"/>
<path d="M193.256,317.674h 7.55905" fill="none" stroke="#a6bdd7"/>
<path d="M200.815,317.674h 7.55905" fill="none" stroke="#a6bdd7"/>
<g stroke="black" stroke-width="1" fill="none">
<line x1="199.815" y1="317.674" x2="200.815" y2="317.674"/>
</g>
<path d="M215.933,312.472v -23.146" fill="none" stroke="#a6bdd7"/>
<path d="M215.933,289.326v -23.146" fill="none" stroke="#a6bdd7"/>
<path d="M208.374,289.326h 7.55905" fill="none" stroke="#a6bdd7"/>
<path d="M215.933,289.326h 7.55905" fill="none" stroke="#a6bdd7"/>
<g stroke="black" stroke-width="1" fill="none">
<line x1="214.933" y1="289.326" x2="215.933" y2="289.326"/>
</g>
<path d="M231.051,224.344v -38.9605" fill="none" stroke="#a6bdd7"/>
<path d="M231.051,185.384v -38.9605" fill="none" stroke="#a6bdd7"/>
<path d="M223.492,185.384h 7.55905" fill="none" stroke="#a6bdd7"/>
<path d="M231.051,185.384h 7.55905" fill="none" stroke="#a6bdd7"/>
<g stroke="black" stroke-width="1" fill="none">
<line x1="230.051" y1="185.384" x2="231.051" y2="185.384"/>
</g>
<path d="M246.169,174.005v -45.3173" fill="none" stroke="#a6bdd7"/>
<path d="M246.169,128.688v -45.3173" fill="none" stroke="#a6bdd7"/>
<path d="M238.61,128.688h 7.55905" fill="none" stroke="#a6bdd7"/>
<path d="M246.169,128.688h 7.55905" fill="none" stroke="#a6bdd7"/>
<g stroke="black" stroke-width="1" fill="none">
<line x1="245.169" y1="128.688" x2="246.169" y2="128.688"/>
</g>
<path d="M261.287,105.705v -52.6116" fill="none" stroke="#a6bdd7"/>
<path d="M261.287,53.0934v -14.6464" fill="none" stroke="#a6bdd7"/>
<path d="M253.728,53.0934h 7.55905" fill="none" stroke="#a6bdd7"/>
<path d="M261.287,53.0934h 7.55905" fill="none" stroke="#a6bdd7"/>
<g stroke="black" stroke-width="1" fill="none">
<line x1="260.287" y1="53.0934" x2="261.287" y2="53.0934"/>
</g>
<path d="M276.406,157.036v -47.2466" fill="none" stroke="#a6bdd7"/>
<path d="M276.406,109.789v -47.2466" fill="none" stroke="#a6bdd7"/>
<path d="M268.846,109.789h 7.55905" fill="none" stroke="#a6bdd7"/>
<path d="M276.406,109.789h 7.55905" fill="none" stroke="#a6bdd7"/>
<g stroke="black" stroke-width="1" fill="none">
<line x1="275.406" y1="109.789" x2="276.406" y2="109.789"/>
</g>
<path d="M291.524,148.522v -48.1823" fill="none" stroke="#a6bdd7"/>
<path d="M291.524,100.34v -48.1823" fill="none" stroke="#a6bdd7"/>
<path d="M283.965,100.34h 7.55905" fill="none" stroke="#a6bdd7"/>
<path d="M291.524,100.34h 7.55905" fill="none" stroke="#a6bdd7"/>
<g stroke="black" stroke-width="1" fill="none">
<line x1="290.524" y1="100.34" x2="291.524" y2="100.34"/>
</g>
<path d="M306.642,232.63v -37.7973" fill="none" stroke="#a6bdd7"/>
<path d="M306.642,194.833v -37.7973" fill="none" stroke="#a6bdd7"/>
<path d="M299.083,194.833h 7.55905" fill="none" stroke="#a6bdd7"/>
<path d="M306.642,194.833h 7.55905" fill="none" stroke="#a6bdd7"/>
<g stroke="black" stroke-width="1" fill="none">
<line x1="305.642" y1="194.833" x2="306.642" y2="194.833"/>
</g>
<path d="M321.76,224.344v -38.9605" fill="none" stroke="#a6bdd7"/>
<path d="M321.76,185.384v -38.9605" fill="none" stroke="#a6bdd7"/>
<path d="M314.201,185.384h 7.55905" fill="none" stroke="#a6bdd7"/>
<path d="M321.76,185.384h 7.55905" fill="none" stroke="#a6bdd7"/>
<g stroke="black" stroke-width="1" fill="none">
<line x1="320.76" y1="185.384" x2="321.76" y2="185.384"/>
</g>
<path d="M336.878,304.878v -25.0005" fill="none" stroke="#a6bdd7"/>
<path d="M336.878,279.877v -25.0005" fill="none" stroke="#a6bdd7"/>
<path d="M329.319,279.877h 7.55905" fill="none" stroke="#a6bdd7"/>
<path d="M336.878,279.877h 7.55905" fill="none" stroke="#a6bdd7"/>
<g stroke="black" stroke-width="1" fill="none">
<line x1="335.878" y1="279.877" x2="336.878" y2="279.877"/>
</g>
<path d="M351.996,319.905v -21.1293" fill="none" stroke="#a6bdd7"/>
<path d="M351.996,298.776v -21.1293" fill="none" stroke="#a6bdd7"/>
<path d="M344.437,298.776h 7.55905" fill="none" stroke="#a6bdd7"/>
<path d="M351.996,298.776h 7.55905" fill="none" stroke="#a6bdd7"/>
<g stroke="black" stroke-width="1" fill="none">
<line x1="350.996" y1="298.776" x2="351.996" y2="298.776"/>
</g>
<path d="M367.114,346.022v -9.44932" fill="none" stroke="#a6bdd7"/>
<path d="M367.114,336.573v -9.44932" fill="none" stroke="#a6bdd7"/>
<path d="M359.555,336.573h 7.55905" fill="none" stroke="#a6bdd7"/>
<path d="M367.114,336.573h 7.55905" fill="none" stroke="#a6bdd7"/>
<g stroke="black" stroke-width="1" fill="none">
<line x1="366.114" y1="336.573" x2="367.114" y2="336.573"/>
</g>
<path d="M382.232,334.041v -16.3667" fill="none" stroke="#a6bdd7"/>
<path d="M382.232,317.674v -16.3667" fill="none" stroke="#a6bdd7"/>
<path d="M374.673,317.674h 7.55905" fill="none" stroke="#a6bdd7"/>
<path d="M382.232,317.674h 7.55905" fill="none" stroke="#a6bdd7"/>
<g stroke="black" stroke-width="1" fill="none">
<line x1="381.232" y1="317.674" x2="382.232" y2="317.674"/>
</g>
<g stroke="black" stroke-width="1" fill="none">
<line x1="396.35" y1="346.022" x2="397.35" y2="346.022"/>
</g>
<g stroke="black" stroke-width="1" fill="none">
<line x1="411.469" y1="346.022" x2="412.469" y2="346.022"/>
</g>
<g stroke="black" stroke-width="1" fill="none">
<line x1="426.587" y1="346.022" x2="427.587" y2="346.022"/>
</g>
<g stroke="black" stroke-width="1" fill="none">
<line x1="441.705" y1="346.022" x2="442.705" y2="346.022"/>
</g>
<g stroke="black" stroke-width="1" fill="none">
<line x1="456.823" y1="346.022" x2="457.823" y2="346.022"/>
</g>
<g stroke="black" stroke-width="1" fill="none">
<line x1="471.941" y1="346.022" x2="472.941" y2="346.022"/>
</g>
<g stroke="black" stroke-width="1" fill="none">
<line x1="487.059" y1="346.022" x2="488.059" y2="346.022"/>
</g>
<g stroke="black" stroke-width="1" fill="none">
<line x1="502.177" y1="346.022" x2="503.177" y2="346.022"/>
</g>
<path d="M59.4606,346.022h 54.4252l 4.53543, -0.0396223l 4.53543, -0.0257821l 4.53543, -0.0409863l 4.53543, -0.0641507l 4.53543, -0.0988509l 4.53543, -0.149951l 4.53543, -0.223913l 4.53543, -0.329105l 4.53543, -0.476079l 4.53543, -0.677753l 4.53543,
 -0.949439l 4.53543, -1.30862l 4.53543, -1.7744l 4.53543, -2.36657l 4.53543, -3.10411l 4.53543, -4.00335l 4.53543, -5.07548l 4.53543, -6.32388l 4.53543, -7.74123l 4.53543, -9.30674l 4.53543, -10.9839l 4.53543, -12.7193l 4.53543, -14.4423l 4.53543,
 -16.067l 4.53543, -17.4955l 4.53543, -18.6233l 4.53543, -19.3467l 4.53543, -19.5701l 4.53543, -19.2157l 4.53543, -18.2314l 4.53543, -16.5978l 4.53543, -14.3331l 4.53543, -11.4951l 4.53543, -8.17936l 4.53543, -4.51446l 4.53543, -0.653642l 4.53543,
 3.23572" fill="none" stroke="#a6bdd7" stroke-width="2"/>
<path d="M281.697,82.7095l 4.53543, 6.98421l 4.53543, 10.4326l 4.53543, 13.4429l 4.53543, 15.9079l 4.53543, 17.7567l 4.53543, 18.958l 4.53543, 19.519l 4.53543, 19.4814l 4.53543, 18.9155l 4.53543, 17.9117l 4.53543, 16.5721l 4.53543, 15.0017l 4.53543,
 13.3014l 4.53543, 11.5615l 4.53543, 9.85804l 4.53543, 8.25027l 4.53543, 6.78027l 4.53543, 5.47388l 4.53543, 4.34264l 4.53543, 3.38645l 4.53543, 2.59639l 4.53543, 1.95759l 4.53543, 1.4517l 4.53543, 1.05901l 4.53543, 0.760082l 4.53543, 0.53679l
 4.53543, 0.373063l 4.53543, 0.255174l 4.53543, 0.171792l 4.53543, 0.113847l 4.53543, 0.0742708l 4.53543, 0.0477006l 4.53543, 0.0301622l 4.53543, 0.046937h 68.0315" fill="none" stroke="#a6bdd7" stroke-width="2"/>
<path d="M503.933,346.022h 4.53543" fill="none" stroke="#a6bdd7" stroke-width="2"/>
<rect x="351.996" y="24.9905" width="204.094" height="76.8938" fill="white"/>
<path d="M351.996,101.884h 204.094" fill="none" stroke="black"/>
<path d="M556.091,101.884v -76.8938" fill="none" stroke="black"/>
<path d="M556.091,24.9905h -204.094" fill="none" stroke="black"/>
<path d="M351.996,24.9905v 76.8938" fill="none" stroke="black"/>
<text xml:space="preserve" x="377.638" y="39.0986" fill="black" font-size="16.7253" font-family="Helvetica"> / ndf </text>
<text xml:space="preserve" x="371.122" y="34.2112" fill="black" font-size="11.3169" font-family="Helvetica">2</text>
<text xml:space="preserve" x="362.162" y="39.0986" fill="black" font-size="16.7253" font-family="Times">&#0967;</text>
<text xml:space="preserve" x="471.312" y="40.7277" fill="black" font-size="16.7253" font-family="Helvetica"> 8.088 / 11</text>
<text xml:space="preserve" x="362.162" y="60.2769" fill="black" font-size="16.7253" font-family="Helvetica">Constant </text>
<text xml:space="preserve" x="509.596" y="60.2769" fill="black" font-size="16.7253" font-family="Helvetica"> 2.74</text>
<text xml:space="preserve" x="500.636" y="60.2769" fill="black" font-size="16.7253" font-family="Times">&#0177;</text>
<text xml:space="preserve" x="450.133" y="60.2769" fill="black" font-size="16.7253" font-family="Helvetica"> 28.23 </text>
<text xml:space="preserve" x="362.162" y="79.0117" fill="black" font-size="16.7253" font-family="Helvetica">Mean     </text>
<text xml:space="preserve" x="518.556" y="79.0117" fill="black" font-size="16.7253" font-family="Helvetica"> 3.9</text>
<text xml:space="preserve" x="509.596" y="79.0117" fill="black" font-size="16.7253" font-family="Times">&#0177;</text>
<text xml:space="preserve" x="463.166" y="79.0117" fill="black" font-size="16.7253" font-family="Helvetica">   289 </text>
<text xml:space="preserve" x="362.162" y="96.9318" fill="black" font-size="16.7253" font-family="Helvetica">Sigma    </text>
<text xml:space="preserve" x="509.596" y="98.561" fill="black" font-size="16.7253" font-family="Helvetica"> 3.24</text>
<text xml:space="preserve" x="500.636" y="98.561" fill="black" font-size="16.7253" font-family="Times">&#0177;</text>
<text xml:space="preserve" x="450.133" y="98.561" fill="black" font-size="16.7253" font-family="Helvetica"> 49.54 </text>
<text xml:space="preserve" x="242.422" y="17.9202" fill="black" font-size="18.7938" font-family="Helvetica">vop 69.08</text></svg>
