<?xml version="1.0" standalone="no"?>
<svg width="567.429" height="384.969" viewBox="0 0 567.429 384.969" xmlns="http://www.w3.org/2000/svg" shape-rendering="crispEdges">
<title>
./adjusted_vop/vop_graphs/vop69.08.svg
</title>
<desc>
Creator: ROOT Version 6.22/02
CreationDate: Sat Jun 26 00:59:46 2021</desc>
<defs>
</defs>
<rect x="0.5" y="0" width="566.929" height="384.469" fill="white"/>
<rect x="57.1929" y="38.4469" width="453.543" height="307.575" fill="white"/>
<rect x="57.1929" y="38.4469" width="453.543" height="307.575" fill="none" stroke="black"/>
<path d="M57.1929,335.921h 15.1181v 10.101h 60.4724v -10.101h 15.1181v 10.101h 30.2362v -10.101h 15.1181v -20.202h 15.1181v -30.303h 15.1181v -131.313h 15.1181v -30.303h 15.1181v -50.505h 30.2362v -20.202h 15.1181v 121.212h 15.1181v 101.01h 15.1181v
 -60.606h 15.1181v 70.707h 15.1181v 20.202h 15.1181v 40.404h 136.063" fill="none" stroke="#a6bdd7"/>
<path d="M59.4606,346.022h 54.4252l 4.53543, -0.0310872l 4.53543, -0.021289l 4.53543, -0.034521l 4.53543, -0.055073l 4.53543, -0.086436l 4.53543, -0.133451l 4.53543, -0.202672l 4.53543, -0.302743l 4.53543, -0.444757l 4.53543, -0.642538l 4.53543,
 -0.912759l 4.53543, -1.2748l 4.53543, -1.75022l 4.53543, -2.36181l 4.53543, -3.13198l 4.53543, -4.08063l 4.53543, -5.22235l 4.53543, -6.56321l 4.53543, -8.09728l 4.53543, -9.80321l 4.53543, -11.6414l 4.53543, -13.5524l 4.53543, -15.4562l 4.53543,
 -17.2546l 4.53543, -18.8348l 4.53543, -20.0763l 4.53543, -20.8589l 4.53543, -21.0728l 4.53543, -20.6295l 4.53543, -19.4712l 4.53543, -17.58l 4.53543, -14.9825l 4.53543, -11.7523l 4.53543, -8.00712l 4.53543, -3.90208l 4.53543, 0.380895l 4.53543,
 4.64643" fill="none" stroke="#a6bdd7" stroke-width="2"/>
<path d="M281.697,70.8247l 4.53543, 8.70046l 4.53543, 12.3649l 4.53543, 15.4906l 4.53543, 17.9672l 4.53543, 19.7295l 4.53543, 20.7587l 4.53543, 21.0807l 4.53543, 20.759l 4.53543, 19.8868l 4.53543, 18.5765l 4.53543, 16.949l 4.53543, 15.1242l 4.53543,
 13.2124l 4.53543, 11.3091l 4.53543, 9.49052l 4.53543, 7.81265l 4.53543, 6.31168l 4.53543, 5.00598l 4.53543, 3.89914l 4.53543, 2.98331l 4.53543, 2.24273l 4.53543, 1.65689l 4.53543, 1.20316l 4.53543, 0.858876l 4.53543, 0.602803l 4.53543, 0.416015l
 4.53543, 0.282344l 4.53543, 0.188463l 4.53543, 0.123733l 4.53543, 0.0799088l 4.53543, 0.050767l 4.53543, 0.0317303l 4.53543, 0.0478141h 72.5669" fill="none" stroke="#a6bdd7" stroke-width="2"/>
<path d="M503.933,346.022h 4.53543" fill="none" stroke="#a6bdd7" stroke-width="2"/>
<path d="M57.1929,346.022h 453.543" fill="none" stroke="black"/>
<path d="M57.1929,336.795v 9.22726" fill="none" stroke="black"/>
<path d="M72.311,341.409v 4.61363" fill="none" stroke="black"/>
<path d="M87.4291,341.409v 4.61363" fill="none" stroke="black"/>
<path d="M102.547,341.409v 4.61363" fill="none" stroke="black"/>
<path d="M117.665,341.409v 4.61363" fill="none" stroke="black"/>
<path d="M132.783,336.795v 9.22726" fill="none" stroke="black"/>
<path d="M147.902,341.409v 4.61363" fill="none" stroke="black"/>
<path d="M163.02,341.409v 4.61363" fill="none" stroke="black"/>
<path d="M178.138,341.409v 4.61363" fill="none" stroke="black"/>
<path d="M193.256,341.409v 4.61363" fill="none" stroke="black"/>
<path d="M208.374,336.795v 9.22726" fill="none" stroke="black"/>
<path d="M223.492,341.409v 4.61363" fill="none" stroke="black"/>
<path d="M238.61,341.409v 4.61363" fill="none" stroke="black"/>
<path d="M253.728,341.409v 4.61363" fill="none" stroke="black"/>
<path d="M268.846,341.409v 4.61363" fill="none" stroke="black"/>
<path d="M283.965,336.795v 9.22726" fill="none" stroke="black"/>
<path d="M299.083,341.409v 4.61363" fill="none" stroke="black"/>
<path d="M314.201,341.409v 4.61363" fill="none" stroke="black"/>
<path d="M329.319,341.409v 4.61363" fill="none" stroke="black"/>
<path d="M344.437,341.409v 4.61363" fill="none" stroke="black"/>
<path d="M359.555,336.795v 9.22726" fill="none" stroke="black"/>
<path d="M374.673,341.409v 4.61363" fill="none" stroke="black"/>
<path d="M389.791,341.409v 4.61363" fill="none" stroke="black"/>
<path d="M404.909,341.409v 4.61363" fill="none" stroke="black"/>
<path d="M420.028,341.409v 4.61363" fill="none" stroke="black"/>
<path d="M435.146,336.795v 9.22726" fill="none" stroke="black"/>
<path d="M450.264,341.409v 4.61363" fill="none" stroke="black"/>
<path d="M465.382,341.409v 4.61363" fill="none" stroke="black"/>
<path d="M480.5,341.409v 4.61363" fill="none" stroke="black"/>
<path d="M495.618,341.409v 4.61363" fill="none" stroke="black"/>
<path d="M510.736,336.795v 9.22726" fill="none" stroke="black"/>
<text xml:space="preserve" x="53.446" y="358.403" fill="black" font-size="12.8453" font-family="Helvetica">0</text>
<text xml:space="preserve" x="121.868" y="358.403" fill="black" font-size="12.8453" font-family="Helvetica">100</text>
<text xml:space="preserve" x="197.622" y="358.403" fill="black" font-size="12.8453" font-family="Helvetica">200</text>
<text xml:space="preserve" x="273.375" y="358.403" fill="black" font-size="12.8453" font-family="Helvetica">300</text>
<text xml:space="preserve" x="348.314" y="358.403" fill="black" font-size="12.8453" font-family="Helvetica">400</text>
<text xml:space="preserve" x="424.068" y="358.403" fill="black" font-size="12.8453" font-family="Helvetica">500</text>
<text xml:space="preserve" x="499.821" y="358.403" fill="black" font-size="12.8453" font-family="Helvetica">600</text>
<text xml:space="preserve" x="486.788" y="369.807" fill="black" font-size="12.8453" font-family="Helvetica">mpv</text>
<path d="M57.1929,346.022v -307.575" fill="none" stroke="black"/>
<path d="M70.7992,346.022h -13.6063" fill="none" stroke="black"/>
<path d="M63.9961,335.921h -6.80315" fill="none" stroke="black"/>
<path d="M63.9961,325.82h -6.80315" fill="none" stroke="black"/>
<path d="M63.9961,315.719h -6.80315" fill="none" stroke="black"/>
<path d="M63.9961,305.618h -6.80315" fill="none" stroke="black"/>
<path d="M70.7992,295.517h -13.6063" fill="none" stroke="black"/>
<path d="M63.9961,285.416h -6.80315" fill="none" stroke="black"/>
<path d="M63.9961,275.315h -6.80315" fill="none" stroke="black"/>
<path d="M63.9961,265.214h -6.80315" fill="none" stroke="black"/>
<path d="M63.9961,255.113h -6.80315" fill="none" stroke="black"/>
<path d="M70.7992,245.012h -13.6063" fill="none" stroke="black"/>
<path d="M63.9961,234.911h -6.80315" fill="none" stroke="black"/>
<path d="M63.9961,224.81h -6.80315" fill="none" stroke="black"/>
<path d="M63.9961,214.709h -6.80315" fill="none" stroke="black"/>
<path d="M63.9961,204.608h -6.80315" fill="none" stroke="black"/>
<path d="M70.7992,194.507h -13.6063" fill="none" stroke="black"/>
<path d="M63.9961,184.406h -6.80315" fill="none" stroke="black"/>
<path d="M63.9961,174.305h -6.80315" fill="none" stroke="black"/>
<path d="M63.9961,164.204h -6.80315" fill="none" stroke="black"/>
<path d="M63.9961,154.103h -6.80315" fill="none" stroke="black"/>
<path d="M70.7992,144.002h -13.6063" fill="none" stroke="black"/>
<path d="M63.9961,133.901h -6.80315" fill="none" stroke="black"/>
<path d="M63.9961,123.8h -6.80315" fill="none" stroke="black"/>
<path d="M63.9961,113.699h -6.80315" fill="none" stroke="black"/>
<path d="M63.9961,103.598h -6.80315" fill="none" stroke="black"/>
<path d="M70.7992,93.4974h -13.6063" fill="none" stroke="black"/>
<path d="M63.9961,83.3964h -6.80315" fill="none" stroke="black"/>
<path d="M63.9961,73.2954h -6.80315" fill="none" stroke="black"/>
<path d="M63.9961,63.1944h -6.80315" fill="none" stroke="black"/>
<path d="M63.9961,53.0934h -6.80315" fill="none" stroke="black"/>
<path d="M70.7992,42.9924h -13.6063" fill="none" stroke="black"/>
<path d="M70.7992,42.9924h -13.6063" fill="none" stroke="black"/>
<text xml:space="preserve" x="47.7441" y="350.258" fill="black" font-size="12.8453" font-family="Helvetica">0</text>
<text xml:space="preserve" x="47.7441" y="299.756" fill="black" font-size="12.8453" font-family="Helvetica">5</text>
<text xml:space="preserve" x="41.2277" y="249.253" fill="black" font-size="12.8453" font-family="Helvetica">10</text>
<text xml:space="preserve" x="40.4131" y="198.751" fill="black" font-size="12.8453" font-family="Helvetica">15</text>
<text xml:space="preserve" x="41.2277" y="148.249" fill="black" font-size="12.8453" font-family="Helvetica">20</text>
<text xml:space="preserve" x="40.4131" y="97.7464" fill="black" font-size="12.8453" font-family="Helvetica">25</text>
<text xml:space="preserve" x="41.2277" y="47.2441" fill="black" font-size="12.8453" font-family="Helvetica">30</text>
<g transform="rotate(-90,27.3803,86.3427)">
<text xml:space="preserve" x="27.3803" y="86.3427" fill="black" font-size="12.8453" font-family="Helvetica">n_blocks</text>
</g>
<text xml:space="preserve" x="242.422" y="17.9202" fill="black" font-size="18.7938" font-family="Helvetica">vop 69.08</text>
<rect x="351.996" y="24.9905" width="204.094" height="76.8938" fill="white"/>
<path d="M351.996,101.884h 204.094" fill="none" stroke="black"/>
<path d="M556.091,101.884v -76.8938" fill="none" stroke="black"/>
<path d="M556.091,24.9905h -204.094" fill="none" stroke="black"/>
<path d="M351.996,24.9905v 76.8938" fill="none" stroke="black"/>
<text xml:space="preserve" x="377.638" y="39.0986" fill="black" font-size="16.7253" font-family="Helvetica"> / ndf </text>
<text xml:space="preserve" x="371.122" y="34.2112" fill="black" font-size="11.3169" font-family="Helvetica">2</text>
<text xml:space="preserve" x="362.162" y="39.0986" fill="black" font-size="16.7253" font-family="Times">&#0967;</text>
<text xml:space="preserve" x="472.941" y="40.7277" fill="black" font-size="16.7253" font-family="Helvetica">  15.7 / 12</text>
<text xml:space="preserve" x="362.162" y="60.2769" fill="black" font-size="16.7253" font-family="Helvetica">Constant </text>
<text xml:space="preserve" x="509.596" y="60.2769" fill="black" font-size="16.7253" font-family="Helvetica"> 2.98</text>
<text xml:space="preserve" x="500.636" y="60.2769" fill="black" font-size="16.7253" font-family="Times">&#0177;</text>
<text xml:space="preserve" x="450.133" y="60.2769" fill="black" font-size="16.7253" font-family="Helvetica"> 27.78 </text>
<text xml:space="preserve" x="362.162" y="79.0117" fill="black" font-size="16.7253" font-family="Helvetica">Mean     </text>
<text xml:space="preserve" x="518.556" y="79.0117" fill="black" font-size="16.7253" font-family="Helvetica"> 4.3</text>
<text xml:space="preserve" x="509.596" y="79.0117" fill="black" font-size="16.7253" font-family="Times">&#0177;</text>
<text xml:space="preserve" x="459.094" y="79.0117" fill="black" font-size="16.7253" font-family="Helvetica"> 287.5 </text>
<text xml:space="preserve" x="362.162" y="96.9318" fill="black" font-size="16.7253" font-family="Helvetica">Sigma    </text>
<text xml:space="preserve" x="509.596" y="98.561" fill="black" font-size="16.7253" font-family="Helvetica"> 3.80</text>
<text xml:space="preserve" x="500.636" y="98.561" fill="black" font-size="16.7253" font-family="Times">&#0177;</text>
<text xml:space="preserve" x="450.133" y="98.561" fill="black" font-size="16.7253" font-family="Helvetica"> 48.38 </text>
<path d="M64.752,346.022v -10.101" fill="none" stroke="#a6bdd7"/>
<path d="M64.752,335.921v -10.101" fill="none" stroke="#a6bdd7"/>
<path d="M57.1929,335.921h 7.55905" fill="none" stroke="#a6bdd7"/>
<path d="M64.752,335.921h 7.55905" fill="none" stroke="#a6bdd7"/>
<g stroke="black" stroke-width="1" fill="none">
<line x1="63.752" y1="335.921" x2="64.752" y2="335.921"/>
</g>
<g stroke="black" stroke-width="1" fill="none">
<line x1="78.8701" y1="346.022" x2="79.8701" y2="346.022"/>
</g>
<g stroke="black" stroke-width="1" fill="none">
<line x1="93.9882" y1="346.022" x2="94.9882" y2="346.022"/>
</g>
<g stroke="black" stroke-width="1" fill="none">
<line x1="109.106" y1="346.022" x2="110.106" y2="346.022"/>
</g>
<g stroke="black" stroke-width="1" fill="none">
<line x1="124.224" y1="346.022" x2="125.224" y2="346.022"/>
</g>
<path d="M140.343,346.022v -10.101" fill="none" stroke="#a6bdd7"/>
<path d="M140.343,335.921v -10.101" fill="none" stroke="#a6bdd7"/>
<path d="M132.783,335.921h 7.55905" fill="none" stroke="#a6bdd7"/>
<path d="M140.343,335.921h 7.55905" fill="none" stroke="#a6bdd7"/>
<g stroke="black" stroke-width="1" fill="none">
<line x1="139.343" y1="335.921" x2="140.343" y2="335.921"/>
</g>
<g stroke="black" stroke-width="1" fill="none">
<line x1="154.461" y1="346.022" x2="155.461" y2="346.022"/>
</g>
<g stroke="black" stroke-width="1" fill="none">
<line x1="169.579" y1="346.022" x2="170.579" y2="346.022"/>
</g>
<path d="M185.697,346.022v -10.101" fill="none" stroke="#a6bdd7"/>
<path d="M185.697,335.921v -10.101" fill="none" stroke="#a6bdd7"/>
<path d="M178.138,335.921h 7.55905" fill="none" stroke="#a6bdd7"/>
<path d="M185.697,335.921h 7.55905" fill="none" stroke="#a6bdd7"/>
<g stroke="black" stroke-width="1" fill="none">
<line x1="184.697" y1="335.921" x2="185.697" y2="335.921"/>
</g>
<path d="M200.815,333.215v -17.4954" fill="none" stroke="#a6bdd7"/>
<path d="M200.815,315.719v -17.4954" fill="none" stroke="#a6bdd7"/>
<path d="M193.256,315.719h 7.55905" fill="none" stroke="#a6bdd7"/>
<path d="M200.815,315.719h 7.55905" fill="none" stroke="#a6bdd7"/>
<g stroke="black" stroke-width="1" fill="none">
<line x1="199.815" y1="315.719" x2="200.815" y2="315.719"/>
</g>
<path d="M215.933,310.159v -24.7423" fill="none" stroke="#a6bdd7"/>
<path d="M215.933,285.416v -24.7423" fill="none" stroke="#a6bdd7"/>
<path d="M208.374,285.416h 7.55905" fill="none" stroke="#a6bdd7"/>
<path d="M215.933,285.416h 7.55905" fill="none" stroke="#a6bdd7"/>
<g stroke="black" stroke-width="1" fill="none">
<line x1="214.933" y1="285.416" x2="215.933" y2="285.416"/>
</g>
<path d="M231.051,198.133v -44.0292" fill="none" stroke="#a6bdd7"/>
<path d="M231.051,154.103v -44.0292" fill="none" stroke="#a6bdd7"/>
<path d="M223.492,154.103h 7.55905" fill="none" stroke="#a6bdd7"/>
<path d="M231.051,154.103h 7.55905" fill="none" stroke="#a6bdd7"/>
<g stroke="black" stroke-width="1" fill="none">
<line x1="230.051" y1="154.103" x2="231.051" y2="154.103"/>
</g>
<path d="M246.169,171.178v -47.3779" fill="none" stroke="#a6bdd7"/>
<path d="M246.169,123.8v -47.3779" fill="none" stroke="#a6bdd7"/>
<path d="M238.61,123.8h 7.55905" fill="none" stroke="#a6bdd7"/>
<path d="M246.169,123.8h 7.55905" fill="none" stroke="#a6bdd7"/>
<g stroke="black" stroke-width="1" fill="none">
<line x1="245.169" y1="123.8" x2="246.169" y2="123.8"/>
</g>
<path d="M261.287,125.782v -52.4863" fill="none" stroke="#a6bdd7"/>
<path d="M261.287,73.2954v -34.8484" fill="none" stroke="#a6bdd7"/>
<path d="M253.728,73.2954h 7.55905" fill="none" stroke="#a6bdd7"/>
<path d="M261.287,73.2954h 7.55905" fill="none" stroke="#a6bdd7"/>
<g stroke="black" stroke-width="1" fill="none">
<line x1="260.287" y1="73.2954" x2="261.287" y2="73.2954"/>
</g>
<path d="M276.406,125.782v -52.4863" fill="none" stroke="#a6bdd7"/>
<path d="M276.406,73.2954v -34.8484" fill="none" stroke="#a6bdd7"/>
<path d="M268.846,73.2954h 7.55905" fill="none" stroke="#a6bdd7"/>
<path d="M276.406,73.2954h 7.55905" fill="none" stroke="#a6bdd7"/>
<g stroke="black" stroke-width="1" fill="none">
<line x1="275.406" y1="73.2954" x2="276.406" y2="73.2954"/>
</g>
<path d="M291.524,107.489v -54.3955" fill="none" stroke="#a6bdd7"/>
<path d="M291.524,53.0934v -14.6464" fill="none" stroke="#a6bdd7"/>
<path d="M283.965,53.0934h 7.55905" fill="none" stroke="#a6bdd7"/>
<path d="M291.524,53.0934h 7.55905" fill="none" stroke="#a6bdd7"/>
<g stroke="black" stroke-width="1" fill="none">
<line x1="290.524" y1="53.0934" x2="291.524" y2="53.0934"/>
</g>
<path d="M306.642,215.953v -41.6475" fill="none" stroke="#a6bdd7"/>
<path d="M306.642,174.305v -41.6475" fill="none" stroke="#a6bdd7"/>
<path d="M299.083,174.305h 7.55905" fill="none" stroke="#a6bdd7"/>
<path d="M306.642,174.305h 7.55905" fill="none" stroke="#a6bdd7"/>
<g stroke="black" stroke-width="1" fill="none">
<line x1="305.642" y1="174.305" x2="306.642" y2="174.305"/>
</g>
<path d="M321.76,302.04v -26.7247" fill="none" stroke="#a6bdd7"/>
<path d="M321.76,275.315v -26.7247" fill="none" stroke="#a6bdd7"/>
<path d="M314.201,275.315h 7.55905" fill="none" stroke="#a6bdd7"/>
<path d="M321.76,275.315h 7.55905" fill="none" stroke="#a6bdd7"/>
<g stroke="black" stroke-width="1" fill="none">
<line x1="320.76" y1="275.315" x2="321.76" y2="275.315"/>
</g>
<path d="M336.878,251.129v -36.4197" fill="none" stroke="#a6bdd7"/>
<path d="M336.878,214.709v -36.4197" fill="none" stroke="#a6bdd7"/>
<path d="M329.319,214.709h 7.55905" fill="none" stroke="#a6bdd7"/>
<path d="M336.878,214.709h 7.55905" fill="none" stroke="#a6bdd7"/>
<g stroke="black" stroke-width="1" fill="none">
<line x1="335.878" y1="214.709" x2="336.878" y2="214.709"/>
</g>
<path d="M351.996,310.159v -24.7423" fill="none" stroke="#a6bdd7"/>
<path d="M351.996,285.416v -24.7423" fill="none" stroke="#a6bdd7"/>
<path d="M344.437,285.416h 7.55905" fill="none" stroke="#a6bdd7"/>
<path d="M351.996,285.416h 7.55905" fill="none" stroke="#a6bdd7"/>
<g stroke="black" stroke-width="1" fill="none">
<line x1="350.996" y1="285.416" x2="351.996" y2="285.416"/>
</g>
<path d="M367.114,325.82v -20.202" fill="none" stroke="#a6bdd7"/>
<path d="M367.114,305.618v -20.202" fill="none" stroke="#a6bdd7"/>
<path d="M359.555,305.618h 7.55905" fill="none" stroke="#a6bdd7"/>
<path d="M367.114,305.618h 7.55905" fill="none" stroke="#a6bdd7"/>
<g stroke="black" stroke-width="1" fill="none">
<line x1="366.114" y1="305.618" x2="367.114" y2="305.618"/>
</g>
<g stroke="black" stroke-width="1" fill="none">
<line x1="381.232" y1="346.022" x2="382.232" y2="346.022"/>
</g>
<g stroke="black" stroke-width="1" fill="none">
<line x1="396.35" y1="346.022" x2="397.35" y2="346.022"/>
</g>
<g stroke="black" stroke-width="1" fill="none">
<line x1="411.469" y1="346.022" x2="412.469" y2="346.022"/>
</g>
<g stroke="black" stroke-width="1" fill="none">
<line x1="426.587" y1="346.022" x2="427.587" y2="346.022"/>
</g>
<g stroke="black" stroke-width="1" fill="none">
<line x1="441.705" y1="346.022" x2="442.705" y2="346.022"/>
</g>
<g stroke="black" stroke-width="1" fill="none">
<line x1="456.823" y1="346.022" x2="457.823" y2="346.022"/>
</g>
<g stroke="black" stroke-width="1" fill="none">
<line x1="471.941" y1="346.022" x2="472.941" y2="346.022"/>
</g>
<g stroke="black" stroke-width="1" fill="none">
<line x1="487.059" y1="346.022" x2="488.059" y2="346.022"/>
</g>
<g stroke="black" stroke-width="1" fill="none">
<line x1="502.177" y1="346.022" x2="503.177" y2="346.022"/>
</g>
<path d="M59.4606,346.022h 54.4252l 4.53543, -0.0310872l 4.53543, -0.021289l 4.53543, -0.034521l 4.53543, -0.055073l 4.53543, -0.086436l 4.53543, -0.133451l 4.53543, -0.202672l 4.53543, -0.302743l 4.53543, -0.444757l 4.53543, -0.642538l 4.53543,
 -0.912759l 4.53543, -1.2748l 4.53543, -1.75022l 4.53543, -2.36181l 4.53543, -3.13198l 4.53543, -4.08063l 4.53543, -5.22235l 4.53543, -6.56321l 4.53543, -8.09728l 4.53543, -9.80321l 4.53543, -11.6414l 4.53543, -13.5524l 4.53543, -15.4562l 4.53543,
 -17.2546l 4.53543, -18.8348l 4.53543, -20.0763l 4.53543, -20.8589l 4.53543, -21.0728l 4.53543, -20.6295l 4.53543, -19.4712l 4.53543, -17.58l 4.53543, -14.9825l 4.53543, -11.7523l 4.53543, -8.00712l 4.53543, -3.90208l 4.53543, 0.380895l 4.53543,
 4.64643" fill="none" stroke="#a6bdd7" stroke-width="2"/>
<path d="M281.697,70.8247l 4.53543, 8.70046l 4.53543, 12.3649l 4.53543, 15.4906l 4.53543, 17.9672l 4.53543, 19.7295l 4.53543, 20.7587l 4.53543, 21.0807l 4.53543, 20.759l 4.53543, 19.8868l 4.53543, 18.5765l 4.53543, 16.949l 4.53543, 15.1242l 4.53543,
 13.2124l 4.53543, 11.3091l 4.53543, 9.49052l 4.53543, 7.81265l 4.53543, 6.31168l 4.53543, 5.00598l 4.53543, 3.89914l 4.53543, 2.98331l 4.53543, 2.24273l 4.53543, 1.65689l 4.53543, 1.20316l 4.53543, 0.858876l 4.53543, 0.602803l 4.53543, 0.416015l
 4.53543, 0.282344l 4.53543, 0.188463l 4.53543, 0.123733l 4.53543, 0.0799088l 4.53543, 0.050767l 4.53543, 0.0317303l 4.53543, 0.0478141h 72.5669" fill="none" stroke="#a6bdd7" stroke-width="2"/>
<path d="M503.933,346.022h 4.53543" fill="none" stroke="#a6bdd7" stroke-width="2"/>
<rect x="351.996" y="24.9905" width="204.094" height="76.8938" fill="white"/>
<path d="M351.996,101.884h 204.094" fill="none" stroke="black"/>
<path d="M556.091,101.884v -76.8938" fill="none" stroke="black"/>
<path d="M556.091,24.9905h -204.094" fill="none" stroke="black"/>
<path d="M351.996,24.9905v 76.8938" fill="none" stroke="black"/>
<text xml:space="preserve" x="377.638" y="39.0986" fill="black" font-size="16.7253" font-family="Helvetica"> / ndf </text>
<text xml:space="preserve" x="371.122" y="34.2112" fill="black" font-size="11.3169" font-family="Helvetica">2</text>
<text xml:space="preserve" x="362.162" y="39.0986" fill="black" font-size="16.7253" font-family="Times">&#0967;</text>
<text xml:space="preserve" x="472.941" y="40.7277" fill="black" font-size="16.7253" font-family="Helvetica">  15.7 / 12</text>
<text xml:space="preserve" x="362.162" y="60.2769" fill="black" font-size="16.7253" font-family="Helvetica">Constant </text>
<text xml:space="preserve" x="509.596" y="60.2769" fill="black" font-size="16.7253" font-family="Helvetica"> 2.98</text>
<text xml:space="preserve" x="500.636" y="60.2769" fill="black" font-size="16.7253" font-family="Times">&#0177;</text>
<text xml:space="preserve" x="450.133" y="60.2769" fill="black" font-size="16.7253" font-family="Helvetica"> 27.78 </text>
<text xml:space="preserve" x="362.162" y="79.0117" fill="black" font-size="16.7253" font-family="Helvetica">Mean     </text>
<text xml:space="preserve" x="518.556" y="79.0117" fill="black" font-size="16.7253" font-family="Helvetica"> 4.3</text>
<text xml:space="preserve" x="509.596" y="79.0117" fill="black" font-size="16.7253" font-family="Times">&#0177;</text>
<text xml:space="preserve" x="459.094" y="79.0117" fill="black" font-size="16.7253" font-family="Helvetica"> 287.5 </text>
<text xml:space="preserve" x="362.162" y="96.9318" fill="black" font-size="16.7253" font-family="Helvetica">Sigma    </text>
<text xml:space="preserve" x="509.596" y="98.561" fill="black" font-size="16.7253" font-family="Helvetica"> 3.80</text>
<text xml:space="preserve" x="500.636" y="98.561" fill="black" font-size="16.7253" font-family="Times">&#0177;</text>
<text xml:space="preserve" x="450.133" y="98.561" fill="black" font-size="16.7253" font-family="Helvetica"> 48.38 </text>
<text xml:space="preserve" x="242.422" y="17.9202" fill="black" font-size="18.7938" font-family="Helvetica">vop 69.08</text></svg>
