<?xml version="1.0" standalone="no"?>
<svg width="567.429" height="384.969" viewBox="0 0 567.429 384.969" xmlns="http://www.w3.org/2000/svg" shape-rendering="crispEdges">
<title>
./adjusted_vop/vop_graphs/vop69.13.svg
</title>
<desc>
Creator: ROOT Version 6.24/00
CreationDate: Thu Jun 24 01:25:21 2021</desc>
<defs>
</defs>
<rect x="0.5" y="0" width="566.929" height="384.469" fill="white"/>
<rect x="57.1929" y="38.4469" width="453.543" height="307.575" fill="white"/>
<rect x="57.1929" y="38.4469" width="453.543" height="307.575" fill="none" stroke="black"/>
<path d="M57.1929,346.022h 105.827v -8.61556h 15.1181v -25.8467h 15.1181v -68.9244h 15.1181v 17.2311h 15.1181v -206.773h 15.1181v 51.6933h 15.1181v -51.6933h 15.1181v 103.387h 15.1181v 68.9244h 15.1181v 51.6933h 15.1181v 34.4622h 15.1181v 17.2311h
 15.1181v 17.2311h 166.299" fill="none" stroke="#c10020"/>
<path d="M59.4606,346.022h 54.4252l 4.53543, -0.0498895l 4.53543, -0.0378458l 4.53543, -0.0636155l 4.53543, -0.104767l 4.53543, -0.169031l 4.53543, -0.267139l 4.53543, -0.413515l 4.53543, -0.626859l 4.53543, -0.930484l 4.53543, -1.35218l 4.53543,
 -1.92339l 4.53543, -2.67735l 4.53543, -3.6462l 4.53543, -4.8567l 4.53543, -6.3249l 4.53543, -8.05001l 4.53543, -10.008l 4.53543, -12.1463l 4.53543, -14.3798l 4.53543, -16.5904l 4.53543, -18.6309l 4.53543, -20.3326l 4.53543, -21.5181l 4.53543,
 -22.0188l 4.53543, -21.6926l 4.53543, -20.4438l 4.53543, -18.2385l 4.53543, -15.1157l 4.53543, -11.1902l 4.53543, -6.64739l 4.53543, -1.72897l 4.53543, 3.28821l 4.53543, 8.11794l 4.53543, 12.4917l 4.53543, 16.1835l 4.53543, 19.0287l 4.53543, 20.936"
 fill="none" stroke="#c10020" stroke-width="2"/>
<path d="M281.697,163.892l 4.53543, 21.89l 4.53543, 21.9453l 4.53543, 21.214l 4.53543, 19.8485l 4.53543, 18.0222l 4.53543, 15.9112l 4.53543, 13.6789l 4.53543, 11.464l 4.53543, 9.37443l 4.53543, 7.48489l 4.53543, 5.83861l 4.53543, 4.45167l 4.53543,
 3.31894l 4.53543, 2.42039l 4.53543, 1.72705l 4.53543, 1.20604l 4.53543, 0.824425l 4.53543, 0.551762l 4.53543, 0.361605l 4.53543, 0.232092l 4.53543, 0.14591l 4.53543, 0.0898575l 4.53543, 0.0542144l 4.53543, 0.0320483l 4.53543, 0.0416652h 108.85"
 fill="none" stroke="#c10020" stroke-width="2"/>
<path d="M503.933,346.022h 4.53543" fill="none" stroke="#c10020" stroke-width="2"/>
<path d="M57.1929,346.022h 453.543" fill="none" stroke="black"/>
<path d="M57.1929,336.795v 9.22726" fill="none" stroke="black"/>
<path d="M72.311,341.409v 4.61363" fill="none" stroke="black"/>
<path d="M87.4291,341.409v 4.61363" fill="none" stroke="black"/>
<path d="M102.547,341.409v 4.61363" fill="none" stroke="black"/>
<path d="M117.665,341.409v 4.61363" fill="none" stroke="black"/>
<path d="M132.783,336.795v 9.22726" fill="none" stroke="black"/>
<path d="M147.902,341.409v 4.61363" fill="none" stroke="black"/>
<path d="M163.02,341.409v 4.61363" fill="none" stroke="black"/>
<path d="M178.138,341.409v 4.61363" fill="none" stroke="black"/>
<path d="M193.256,341.409v 4.61363" fill="none" stroke="black"/>
<path d="M208.374,336.795v 9.22726" fill="none" stroke="black"/>
<path d="M223.492,341.409v 4.61363" fill="none" stroke="black"/>
<path d="M238.61,341.409v 4.61363" fill="none" stroke="black"/>
<path d="M253.728,341.409v 4.61363" fill="none" stroke="black"/>
<path d="M268.846,341.409v 4.61363" fill="none" stroke="black"/>
<path d="M283.965,336.795v 9.22726" fill="none" stroke="black"/>
<path d="M299.083,341.409v 4.61363" fill="none" stroke="black"/>
<path d="M314.201,341.409v 4.61363" fill="none" stroke="black"/>
<path d="M329.319,341.409v 4.61363" fill="none" stroke="black"/>
<path d="M344.437,341.409v 4.61363" fill="none" stroke="black"/>
<path d="M359.555,336.795v 9.22726" fill="none" stroke="black"/>
<path d="M374.673,341.409v 4.61363" fill="none" stroke="black"/>
<path d="M389.791,341.409v 4.61363" fill="none" stroke="black"/>
<path d="M404.909,341.409v 4.61363" fill="none" stroke="black"/>
<path d="M420.028,341.409v 4.61363" fill="none" stroke="black"/>
<path d="M435.146,336.795v 9.22726" fill="none" stroke="black"/>
<path d="M450.264,341.409v 4.61363" fill="none" stroke="black"/>
<path d="M465.382,341.409v 4.61363" fill="none" stroke="black"/>
<path d="M480.5,341.409v 4.61363" fill="none" stroke="black"/>
<path d="M495.618,341.409v 4.61363" fill="none" stroke="black"/>
<path d="M510.736,336.795v 9.22726" fill="none" stroke="black"/>
<text xml:space="preserve" x="53.446" y="358.403" fill="black" font-size="12.8453" font-family="Helvetica">0</text>
<text xml:space="preserve" x="121.868" y="358.403" fill="black" font-size="12.8453" font-family="Helvetica">100</text>
<text xml:space="preserve" x="197.622" y="358.403" fill="black" font-size="12.8453" font-family="Helvetica">200</text>
<text xml:space="preserve" x="273.375" y="358.403" fill="black" font-size="12.8453" font-family="Helvetica">300</text>
<text xml:space="preserve" x="348.314" y="358.403" fill="black" font-size="12.8453" font-family="Helvetica">400</text>
<text xml:space="preserve" x="424.068" y="358.403" fill="black" font-size="12.8453" font-family="Helvetica">500</text>
<text xml:space="preserve" x="499.821" y="358.403" fill="black" font-size="12.8453" font-family="Helvetica">600</text>
<text xml:space="preserve" x="486.788" y="369.807" fill="black" font-size="12.8453" font-family="Helvetica">mpv</text>
<path d="M57.1929,346.022v -307.575" fill="none" stroke="black"/>
<path d="M70.7992,346.022h -13.6063" fill="none" stroke="black"/>
<path d="M63.9961,337.407h -6.80315" fill="none" stroke="black"/>
<path d="M63.9961,328.791h -6.80315" fill="none" stroke="black"/>
<path d="M63.9961,320.176h -6.80315" fill="none" stroke="black"/>
<path d="M63.9961,311.56h -6.80315" fill="none" stroke="black"/>
<path d="M70.7992,302.944h -13.6063" fill="none" stroke="black"/>
<path d="M63.9961,294.329h -6.80315" fill="none" stroke="black"/>
<path d="M63.9961,285.713h -6.80315" fill="none" stroke="black"/>
<path d="M63.9961,277.098h -6.80315" fill="none" stroke="black"/>
<path d="M63.9961,268.482h -6.80315" fill="none" stroke="black"/>
<path d="M70.7992,259.867h -13.6063" fill="none" stroke="black"/>
<path d="M63.9961,251.251h -6.80315" fill="none" stroke="black"/>
<path d="M63.9961,242.636h -6.80315" fill="none" stroke="black"/>
<path d="M63.9961,234.02h -6.80315" fill="none" stroke="black"/>
<path d="M63.9961,225.404h -6.80315" fill="none" stroke="black"/>
<path d="M70.7992,216.789h -13.6063" fill="none" stroke="black"/>
<path d="M63.9961,208.173h -6.80315" fill="none" stroke="black"/>
<path d="M63.9961,199.558h -6.80315" fill="none" stroke="black"/>
<path d="M63.9961,190.942h -6.80315" fill="none" stroke="black"/>
<path d="M63.9961,182.327h -6.80315" fill="none" stroke="black"/>
<path d="M70.7992,173.711h -13.6063" fill="none" stroke="black"/>
<path d="M63.9961,165.096h -6.80315" fill="none" stroke="black"/>
<path d="M63.9961,156.48h -6.80315" fill="none" stroke="black"/>
<path d="M63.9961,147.864h -6.80315" fill="none" stroke="black"/>
<path d="M63.9961,139.249h -6.80315" fill="none" stroke="black"/>
<path d="M70.7992,130.633h -13.6063" fill="none" stroke="black"/>
<path d="M63.9961,122.018h -6.80315" fill="none" stroke="black"/>
<path d="M63.9961,113.402h -6.80315" fill="none" stroke="black"/>
<path d="M63.9961,104.787h -6.80315" fill="none" stroke="black"/>
<path d="M63.9961,96.1711h -6.80315" fill="none" stroke="black"/>
<path d="M70.7992,87.5556h -13.6063" fill="none" stroke="black"/>
<path d="M63.9961,78.94h -6.80315" fill="none" stroke="black"/>
<path d="M63.9961,70.3245h -6.80315" fill="none" stroke="black"/>
<path d="M63.9961,61.7089h -6.80315" fill="none" stroke="black"/>
<path d="M63.9961,53.0934h -6.80315" fill="none" stroke="black"/>
<path d="M70.7992,44.4778h -13.6063" fill="none" stroke="black"/>
<path d="M70.7992,44.4778h -13.6063" fill="none" stroke="black"/>
<text xml:space="preserve" x="47.7441" y="350.258" fill="black" font-size="12.8453" font-family="Helvetica">0</text>
<text xml:space="preserve" x="47.7441" y="307.087" fill="black" font-size="12.8453" font-family="Helvetica">5</text>
<text xml:space="preserve" x="41.2277" y="264.73" fill="black" font-size="12.8453" font-family="Helvetica">10</text>
<text xml:space="preserve" x="40.4131" y="221.559" fill="black" font-size="12.8453" font-family="Helvetica">15</text>
<text xml:space="preserve" x="41.2277" y="178.387" fill="black" font-size="12.8453" font-family="Helvetica">20</text>
<text xml:space="preserve" x="40.4131" y="135.216" fill="black" font-size="12.8453" font-family="Helvetica">25</text>
<text xml:space="preserve" x="41.2277" y="92.0445" fill="black" font-size="12.8453" font-family="Helvetica">30</text>
<text xml:space="preserve" x="40.4131" y="48.8732" fill="black" font-size="12.8453" font-family="Helvetica">35</text>
<g transform="rotate(-90,27.3803,86.3427)">
<text xml:space="preserve" x="27.3803" y="86.3427" fill="black" font-size="12.8453" font-family="Helvetica">n_blocks</text>
</g>
<text xml:space="preserve" x="243.237" y="17.9202" fill="black" font-size="18.7938" font-family="Helvetica">vop 69.13</text>
<rect x="351.996" y="24.9905" width="204.094" height="76.8938" fill="white"/>
<path d="M351.996,101.884h 204.094" fill="none" stroke="black"/>
<path d="M556.091,101.884v -76.8938" fill="none" stroke="black"/>
<path d="M556.091,24.9905h -204.094" fill="none" stroke="black"/>
<path d="M351.996,24.9905v 76.8938" fill="none" stroke="black"/>
<text xml:space="preserve" x="377.638" y="39.0986" fill="black" font-size="16.7253" font-family="Helvetica"> / ndf </text>
<text xml:space="preserve" x="371.122" y="34.2112" fill="black" font-size="11.3169" font-family="Helvetica">2</text>
<text xml:space="preserve" x="362.162" y="39.0986" fill="black" font-size="16.7253" font-family="Times">&#0967;</text>
<text xml:space="preserve" x="477.828" y="40.7277" fill="black" font-size="16.7253" font-family="Helvetica"> 8.819 / 9</text>
<text xml:space="preserve" x="362.162" y="60.2769" fill="black" font-size="16.7253" font-family="Helvetica">Constant </text>
<text xml:space="preserve" x="512.039" y="60.2769" fill="black" font-size="16.7253" font-family="Helvetica"> 3.11</text>
<text xml:space="preserve" x="503.079" y="60.2769" fill="black" font-size="16.7253" font-family="Times">&#0177;</text>
<text xml:space="preserve" x="452.577" y="60.2769" fill="black" font-size="16.7253" font-family="Helvetica"> 30.44 </text>
<text xml:space="preserve" x="362.162" y="79.0117" fill="black" font-size="16.7253" font-family="Helvetica">Mean     </text>
<text xml:space="preserve" x="518.556" y="79.0117" fill="black" font-size="16.7253" font-family="Helvetica"> 3.5</text>
<text xml:space="preserve" x="509.596" y="79.0117" fill="black" font-size="16.7253" font-family="Times">&#0177;</text>
<text xml:space="preserve" x="461.537" y="79.0117" fill="black" font-size="16.7253" font-family="Helvetica"> 260.1 </text>
<text xml:space="preserve" x="362.162" y="96.9318" fill="black" font-size="16.7253" font-family="Helvetica">Sigma    </text>
<text xml:space="preserve" x="509.596" y="98.561" fill="black" font-size="16.7253" font-family="Helvetica"> 2.99</text>
<text xml:space="preserve" x="500.636" y="98.561" fill="black" font-size="16.7253" font-family="Times">&#0177;</text>
<text xml:space="preserve" x="450.133" y="98.561" fill="black" font-size="16.7253" font-family="Helvetica"> 43.26 </text>
<g stroke="black" stroke-width="1" fill="none">
<line x1="63.752" y1="346.022" x2="64.752" y2="346.022"/>
</g>
<g stroke="black" stroke-width="1" fill="none">
<line x1="78.8701" y1="346.022" x2="79.8701" y2="346.022"/>
</g>
<g stroke="black" stroke-width="1" fill="none">
<line x1="93.9882" y1="346.022" x2="94.9882" y2="346.022"/>
</g>
<g stroke="black" stroke-width="1" fill="none">
<line x1="109.106" y1="346.022" x2="110.106" y2="346.022"/>
</g>
<g stroke="black" stroke-width="1" fill="none">
<line x1="124.224" y1="346.022" x2="125.224" y2="346.022"/>
</g>
<g stroke="black" stroke-width="1" fill="none">
<line x1="139.343" y1="346.022" x2="140.343" y2="346.022"/>
</g>
<g stroke="black" stroke-width="1" fill="none">
<line x1="154.461" y1="346.022" x2="155.461" y2="346.022"/>
</g>
<path d="M170.579,346.022v -8.61556" fill="none" stroke="#c10020"/>
<path d="M170.579,337.407v -8.61556" fill="none" stroke="#c10020"/>
<path d="M163.02,337.407h 7.55905" fill="none" stroke="#c10020"/>
<path d="M170.579,337.407h 7.55905" fill="none" stroke="#c10020"/>
<g stroke="black" stroke-width="1" fill="none">
<line x1="169.579" y1="337.407" x2="170.579" y2="337.407"/>
</g>
<path d="M185.697,328.791v -17.2311" fill="none" stroke="#c10020"/>
<path d="M185.697,311.56v -17.2311" fill="none" stroke="#c10020"/>
<path d="M178.138,311.56h 7.55905" fill="none" stroke="#c10020"/>
<path d="M185.697,311.56h 7.55905" fill="none" stroke="#c10020"/>
<g stroke="black" stroke-width="1" fill="none">
<line x1="184.697" y1="311.56" x2="185.697" y2="311.56"/>
</g>
<path d="M200.815,272.481v -29.8452" fill="none" stroke="#c10020"/>
<path d="M200.815,242.636v -29.8452" fill="none" stroke="#c10020"/>
<path d="M193.256,242.636h 7.55905" fill="none" stroke="#c10020"/>
<path d="M200.815,242.636h 7.55905" fill="none" stroke="#c10020"/>
<g stroke="black" stroke-width="1" fill="none">
<line x1="199.815" y1="242.636" x2="200.815" y2="242.636"/>
</g>
<path d="M215.933,287.111v -27.2448" fill="none" stroke="#c10020"/>
<path d="M215.933,259.867v -27.2448" fill="none" stroke="#c10020"/>
<path d="M208.374,259.867h 7.55905" fill="none" stroke="#c10020"/>
<path d="M215.933,259.867h 7.55905" fill="none" stroke="#c10020"/>
<g stroke="black" stroke-width="1" fill="none">
<line x1="214.933" y1="259.867" x2="215.933" y2="259.867"/>
</g>
<path d="M231.051,103.33v -50.2369" fill="none" stroke="#c10020"/>
<path d="M231.051,53.0934v -14.6464" fill="none" stroke="#c10020"/>
<path d="M223.492,53.0934h 7.55905" fill="none" stroke="#c10020"/>
<path d="M231.051,53.0934h 7.55905" fill="none" stroke="#c10020"/>
<g stroke="black" stroke-width="1" fill="none">
<line x1="230.051" y1="53.0934" x2="231.051" y2="53.0934"/>
</g>
<path d="M246.169,150.376v -45.5892" fill="none" stroke="#c10020"/>
<path d="M246.169,104.787v -45.5892" fill="none" stroke="#c10020"/>
<path d="M238.61,104.787h 7.55905" fill="none" stroke="#c10020"/>
<path d="M246.169,104.787h 7.55905" fill="none" stroke="#c10020"/>
<g stroke="black" stroke-width="1" fill="none">
<line x1="245.169" y1="104.787" x2="246.169" y2="104.787"/>
</g>
<path d="M261.287,103.33v -50.2369" fill="none" stroke="#c10020"/>
<path d="M261.287,53.0934v -14.6464" fill="none" stroke="#c10020"/>
<path d="M253.728,53.0934h 7.55905" fill="none" stroke="#c10020"/>
<path d="M261.287,53.0934h 7.55905" fill="none" stroke="#c10020"/>
<g stroke="black" stroke-width="1" fill="none">
<line x1="260.287" y1="53.0934" x2="261.287" y2="53.0934"/>
</g>
<path d="M276.406,196.891v -40.4105" fill="none" stroke="#c10020"/>
<path d="M276.406,156.48v -40.4105" fill="none" stroke="#c10020"/>
<path d="M268.846,156.48h 7.55905" fill="none" stroke="#c10020"/>
<path d="M276.406,156.48h 7.55905" fill="none" stroke="#c10020"/>
<g stroke="black" stroke-width="1" fill="none">
<line x1="275.406" y1="156.48" x2="276.406" y2="156.48"/>
</g>
<path d="M291.524,257.641v -32.2365" fill="none" stroke="#c10020"/>
<path d="M291.524,225.404v -32.2365" fill="none" stroke="#c10020"/>
<path d="M283.965,225.404h 7.55905" fill="none" stroke="#c10020"/>
<path d="M291.524,225.404h 7.55905" fill="none" stroke="#c10020"/>
<g stroke="black" stroke-width="1" fill="none">
<line x1="290.524" y1="225.404" x2="291.524" y2="225.404"/>
</g>
<path d="M306.642,301.466v -24.3685" fill="none" stroke="#c10020"/>
<path d="M306.642,277.098v -24.3685" fill="none" stroke="#c10020"/>
<path d="M299.083,277.098h 7.55905" fill="none" stroke="#c10020"/>
<path d="M306.642,277.098h 7.55905" fill="none" stroke="#c10020"/>
<g stroke="black" stroke-width="1" fill="none">
<line x1="305.642" y1="277.098" x2="306.642" y2="277.098"/>
</g>
<path d="M321.76,328.791v -17.2311" fill="none" stroke="#c10020"/>
<path d="M321.76,311.56v -17.2311" fill="none" stroke="#c10020"/>
<path d="M314.201,311.56h 7.55905" fill="none" stroke="#c10020"/>
<path d="M321.76,311.56h 7.55905" fill="none" stroke="#c10020"/>
<g stroke="black" stroke-width="1" fill="none">
<line x1="320.76" y1="311.56" x2="321.76" y2="311.56"/>
</g>
<path d="M336.878,340.975v -12.1842" fill="none" stroke="#c10020"/>
<path d="M336.878,328.791v -12.1842" fill="none" stroke="#c10020"/>
<path d="M329.319,328.791h 7.55905" fill="none" stroke="#c10020"/>
<path d="M336.878,328.791h 7.55905" fill="none" stroke="#c10020"/>
<g stroke="black" stroke-width="1" fill="none">
<line x1="335.878" y1="328.791" x2="336.878" y2="328.791"/>
</g>
<g stroke="black" stroke-width="1" fill="none">
<line x1="350.996" y1="346.022" x2="351.996" y2="346.022"/>
</g>
<g stroke="black" stroke-width="1" fill="none">
<line x1="366.114" y1="346.022" x2="367.114" y2="346.022"/>
</g>
<g stroke="black" stroke-width="1" fill="none">
<line x1="381.232" y1="346.022" x2="382.232" y2="346.022"/>
</g>
<g stroke="black" stroke-width="1" fill="none">
<line x1="396.35" y1="346.022" x2="397.35" y2="346.022"/>
</g>
<g stroke="black" stroke-width="1" fill="none">
<line x1="411.469" y1="346.022" x2="412.469" y2="346.022"/>
</g>
<g stroke="black" stroke-width="1" fill="none">
<line x1="426.587" y1="346.022" x2="427.587" y2="346.022"/>
</g>
<g stroke="black" stroke-width="1" fill="none">
<line x1="441.705" y1="346.022" x2="442.705" y2="346.022"/>
</g>
<g stroke="black" stroke-width="1" fill="none">
<line x1="456.823" y1="346.022" x2="457.823" y2="346.022"/>
</g>
<g stroke="black" stroke-width="1" fill="none">
<line x1="471.941" y1="346.022" x2="472.941" y2="346.022"/>
</g>
<g stroke="black" stroke-width="1" fill="none">
<line x1="487.059" y1="346.022" x2="488.059" y2="346.022"/>
</g>
<g stroke="black" stroke-width="1" fill="none">
<line x1="502.177" y1="346.022" x2="503.177" y2="346.022"/>
</g>
<path d="M59.4606,346.022h 54.4252l 4.53543, -0.0498895l 4.53543, -0.0378458l 4.53543, -0.0636155l 4.53543, -0.104767l 4.53543, -0.169031l 4.53543, -0.267139l 4.53543, -0.413515l 4.53543, -0.626859l 4.53543, -0.930484l 4.53543, -1.35218l 4.53543,
 -1.92339l 4.53543, -2.67735l 4.53543, -3.6462l 4.53543, -4.8567l 4.53543, -6.3249l 4.53543, -8.05001l 4.53543, -10.008l 4.53543, -12.1463l 4.53543, -14.3798l 4.53543, -16.5904l 4.53543, -18.6309l 4.53543, -20.3326l 4.53543, -21.5181l 4.53543,
 -22.0188l 4.53543, -21.6926l 4.53543, -20.4438l 4.53543, -18.2385l 4.53543, -15.1157l 4.53543, -11.1902l 4.53543, -6.64739l 4.53543, -1.72897l 4.53543, 3.28821l 4.53543, 8.11794l 4.53543, 12.4917l 4.53543, 16.1835l 4.53543, 19.0287l 4.53543, 20.936"
 fill="none" stroke="#c10020" stroke-width="2"/>
<path d="M281.697,163.892l 4.53543, 21.89l 4.53543, 21.9453l 4.53543, 21.214l 4.53543, 19.8485l 4.53543, 18.0222l 4.53543, 15.9112l 4.53543, 13.6789l 4.53543, 11.464l 4.53543, 9.37443l 4.53543, 7.48489l 4.53543, 5.83861l 4.53543, 4.45167l 4.53543,
 3.31894l 4.53543, 2.42039l 4.53543, 1.72705l 4.53543, 1.20604l 4.53543, 0.824425l 4.53543, 0.551762l 4.53543, 0.361605l 4.53543, 0.232092l 4.53543, 0.14591l 4.53543, 0.0898575l 4.53543, 0.0542144l 4.53543, 0.0320483l 4.53543, 0.0416652h 108.85"
 fill="none" stroke="#c10020" stroke-width="2"/>
<path d="M503.933,346.022h 4.53543" fill="none" stroke="#c10020" stroke-width="2"/>
<rect x="351.996" y="24.9905" width="204.094" height="76.8938" fill="white"/>
<path d="M351.996,101.884h 204.094" fill="none" stroke="black"/>
<path d="M556.091,101.884v -76.8938" fill="none" stroke="black"/>
<path d="M556.091,24.9905h -204.094" fill="none" stroke="black"/>
<path d="M351.996,24.9905v 76.8938" fill="none" stroke="black"/>
<text xml:space="preserve" x="377.638" y="39.0986" fill="black" font-size="16.7253" font-family="Helvetica"> / ndf </text>
<text xml:space="preserve" x="371.122" y="34.2112" fill="black" font-size="11.3169" font-family="Helvetica">2</text>
<text xml:space="preserve" x="362.162" y="39.0986" fill="black" font-size="16.7253" font-family="Times">&#0967;</text>
<text xml:space="preserve" x="477.828" y="40.7277" fill="black" font-size="16.7253" font-family="Helvetica"> 8.819 / 9</text>
<text xml:space="preserve" x="362.162" y="60.2769" fill="black" font-size="16.7253" font-family="Helvetica">Constant </text>
<text xml:space="preserve" x="512.039" y="60.2769" fill="black" font-size="16.7253" font-family="Helvetica"> 3.11</text>
<text xml:space="preserve" x="503.079" y="60.2769" fill="black" font-size="16.7253" font-family="Times">&#0177;</text>
<text xml:space="preserve" x="452.577" y="60.2769" fill="black" font-size="16.7253" font-family="Helvetica"> 30.44 </text>
<text xml:space="preserve" x="362.162" y="79.0117" fill="black" font-size="16.7253" font-family="Helvetica">Mean     </text>
<text xml:space="preserve" x="518.556" y="79.0117" fill="black" font-size="16.7253" font-family="Helvetica"> 3.5</text>
<text xml:space="preserve" x="509.596" y="79.0117" fill="black" font-size="16.7253" font-family="Times">&#0177;</text>
<text xml:space="preserve" x="461.537" y="79.0117" fill="black" font-size="16.7253" font-family="Helvetica"> 260.1 </text>
<text xml:space="preserve" x="362.162" y="96.9318" fill="black" font-size="16.7253" font-family="Helvetica">Sigma    </text>
<text xml:space="preserve" x="509.596" y="98.561" fill="black" font-size="16.7253" font-family="Helvetica"> 2.99</text>
<text xml:space="preserve" x="500.636" y="98.561" fill="black" font-size="16.7253" font-family="Times">&#0177;</text>
<text xml:space="preserve" x="450.133" y="98.561" fill="black" font-size="16.7253" font-family="Helvetica"> 43.26 </text>
<text xml:space="preserve" x="243.237" y="17.9202" fill="black" font-size="18.7938" font-family="Helvetica">vop 69.13</text></svg>
