<?xml version="1.0" standalone="no"?>
<svg width="567.429" height="384.969" viewBox="0 0 567.429 384.969" xmlns="http://www.w3.org/2000/svg" shape-rendering="crispEdges">
<title>
./adjusted_vop/vop_graphs/vop68.93.svg
</title>
<desc>
Creator: ROOT Version 6.24/00
CreationDate: Mon Jul 19 21:24:20 2021</desc>
<defs>
</defs>
<rect x="0.5" y="0" width="566.929" height="384.469" fill="white"/>
<rect x="57.1929" y="38.4469" width="453.543" height="307.575" fill="white"/>
<rect x="57.1929" y="38.4469" width="453.543" height="307.575" fill="none" stroke="black"/>
<path d="M57.1929,346.022h 151.181v -24.9679h 30.2362v -187.259h 15.1181v -37.4518h 15.1181v -24.9679h 15.1181v 187.259h 15.1181v 74.9036h 15.1181v 12.4839h 196.535" fill="none" stroke="#ffb300"/>
<path d="M59.4606,346.022h 131.528l 4.53543, -0.0492915l 4.53543, -0.0980667l 4.53543, -0.261974l 4.53543, -0.647188l 4.53543, -1.47732l 4.53543, -3.11267l 4.53543, -6.04528l 4.53543, -10.803l 4.53543, -17.7196l 4.53543, -26.5864l 4.53543, -36.3045l
 4.53543, -44.7647l 4.53543, -49.1811l 4.53543, -46.9419l 4.53543, -36.7284l 4.53543, -19.3837l 4.53543, 1.99897l 4.53543, 22.957l 4.53543, 39.1747l 4.53543, 47.9296" fill="none" stroke="#ffb300" stroke-width="2"/>
<path d="M281.697,157.977l 4.53543, 48.8069l 4.53543, 43.4406l 4.53543, 34.5554l 4.53543, 24.8635l 4.53543, 16.2996l 4.53543, 9.78133l 4.53543, 5.39042l 4.53543, 2.73433l 4.53543, 1.27886l 4.53543, 0.552205l 4.53543, 0.220355l 4.53543, 0.0813277l
 4.53543, 0.0400678h 163.276" fill="none" stroke="#ffb300" stroke-width="2"/>
<path d="M503.933,346.022h 4.53543" fill="none" stroke="#ffb300" stroke-width="2"/>
<path d="M57.1929,346.022h 453.543" fill="none" stroke="black"/>
<path d="M57.1929,336.795v 9.22726" fill="none" stroke="black"/>
<path d="M72.311,341.409v 4.61363" fill="none" stroke="black"/>
<path d="M87.4291,341.409v 4.61363" fill="none" stroke="black"/>
<path d="M102.547,341.409v 4.61363" fill="none" stroke="black"/>
<path d="M117.665,341.409v 4.61363" fill="none" stroke="black"/>
<path d="M132.783,336.795v 9.22726" fill="none" stroke="black"/>
<path d="M147.902,341.409v 4.61363" fill="none" stroke="black"/>
<path d="M163.02,341.409v 4.61363" fill="none" stroke="black"/>
<path d="M178.138,341.409v 4.61363" fill="none" stroke="black"/>
<path d="M193.256,341.409v 4.61363" fill="none" stroke="black"/>
<path d="M208.374,336.795v 9.22726" fill="none" stroke="black"/>
<path d="M223.492,341.409v 4.61363" fill="none" stroke="black"/>
<path d="M238.61,341.409v 4.61363" fill="none" stroke="black"/>
<path d="M253.728,341.409v 4.61363" fill="none" stroke="black"/>
<path d="M268.846,341.409v 4.61363" fill="none" stroke="black"/>
<path d="M283.965,336.795v 9.22726" fill="none" stroke="black"/>
<path d="M299.083,341.409v 4.61363" fill="none" stroke="black"/>
<path d="M314.201,341.409v 4.61363" fill="none" stroke="black"/>
<path d="M329.319,341.409v 4.61363" fill="none" stroke="black"/>
<path d="M344.437,341.409v 4.61363" fill="none" stroke="black"/>
<path d="M359.555,336.795v 9.22726" fill="none" stroke="black"/>
<path d="M374.673,341.409v 4.61363" fill="none" stroke="black"/>
<path d="M389.791,341.409v 4.61363" fill="none" stroke="black"/>
<path d="M404.909,341.409v 4.61363" fill="none" stroke="black"/>
<path d="M420.028,341.409v 4.61363" fill="none" stroke="black"/>
<path d="M435.146,336.795v 9.22726" fill="none" stroke="black"/>
<path d="M450.264,341.409v 4.61363" fill="none" stroke="black"/>
<path d="M465.382,341.409v 4.61363" fill="none" stroke="black"/>
<path d="M480.5,341.409v 4.61363" fill="none" stroke="black"/>
<path d="M495.618,341.409v 4.61363" fill="none" stroke="black"/>
<path d="M510.736,336.795v 9.22726" fill="none" stroke="black"/>
<text xml:space="preserve" x="53.446" y="358.403" fill="black" font-size="12.8453" font-family="Helvetica">0</text>
<text xml:space="preserve" x="121.868" y="358.403" fill="black" font-size="12.8453" font-family="Helvetica">100</text>
<text xml:space="preserve" x="197.622" y="358.403" fill="black" font-size="12.8453" font-family="Helvetica">200</text>
<text xml:space="preserve" x="273.375" y="358.403" fill="black" font-size="12.8453" font-family="Helvetica">300</text>
<text xml:space="preserve" x="348.314" y="358.403" fill="black" font-size="12.8453" font-family="Helvetica">400</text>
<text xml:space="preserve" x="424.068" y="358.403" fill="black" font-size="12.8453" font-family="Helvetica">500</text>
<text xml:space="preserve" x="499.821" y="358.403" fill="black" font-size="12.8453" font-family="Helvetica">600</text>
<text xml:space="preserve" x="486.788" y="369.807" fill="black" font-size="12.8453" font-family="Helvetica">mpv</text>
<path d="M57.1929,346.022v -307.575" fill="none" stroke="black"/>
<path d="M70.7992,346.022h -13.6063" fill="none" stroke="black"/>
<path d="M63.9961,335.619h -6.80315" fill="none" stroke="black"/>
<path d="M63.9961,325.216h -6.80315" fill="none" stroke="black"/>
<path d="M63.9961,314.812h -6.80315" fill="none" stroke="black"/>
<path d="M70.7992,304.409h -13.6063" fill="none" stroke="black"/>
<path d="M63.9961,294.006h -6.80315" fill="none" stroke="black"/>
<path d="M63.9961,283.603h -6.80315" fill="none" stroke="black"/>
<path d="M63.9961,273.199h -6.80315" fill="none" stroke="black"/>
<path d="M70.7992,262.796h -13.6063" fill="none" stroke="black"/>
<path d="M63.9961,252.393h -6.80315" fill="none" stroke="black"/>
<path d="M63.9961,241.989h -6.80315" fill="none" stroke="black"/>
<path d="M63.9961,231.586h -6.80315" fill="none" stroke="black"/>
<path d="M70.7992,221.183h -13.6063" fill="none" stroke="black"/>
<path d="M63.9961,210.78h -6.80315" fill="none" stroke="black"/>
<path d="M63.9961,200.376h -6.80315" fill="none" stroke="black"/>
<path d="M63.9961,189.973h -6.80315" fill="none" stroke="black"/>
<path d="M70.7992,179.57h -13.6063" fill="none" stroke="black"/>
<path d="M63.9961,169.166h -6.80315" fill="none" stroke="black"/>
<path d="M63.9961,158.763h -6.80315" fill="none" stroke="black"/>
<path d="M63.9961,148.36h -6.80315" fill="none" stroke="black"/>
<path d="M70.7992,137.957h -13.6063" fill="none" stroke="black"/>
<path d="M63.9961,127.553h -6.80315" fill="none" stroke="black"/>
<path d="M63.9961,117.15h -6.80315" fill="none" stroke="black"/>
<path d="M63.9961,106.747h -6.80315" fill="none" stroke="black"/>
<path d="M70.7992,96.3435h -13.6063" fill="none" stroke="black"/>
<path d="M63.9961,85.9402h -6.80315" fill="none" stroke="black"/>
<path d="M63.9961,75.537h -6.80315" fill="none" stroke="black"/>
<path d="M63.9961,65.1337h -6.80315" fill="none" stroke="black"/>
<path d="M70.7992,54.7304h -13.6063" fill="none" stroke="black"/>
<path d="M70.7992,54.7304h -13.6063" fill="none" stroke="black"/>
<path d="M63.9961,44.3271h -6.80315" fill="none" stroke="black"/>
<text xml:space="preserve" x="47.7441" y="350.258" fill="black" font-size="12.8453" font-family="Helvetica">0</text>
<text xml:space="preserve" x="41.2277" y="308.716" fill="black" font-size="12.8453" font-family="Helvetica">20</text>
<text xml:space="preserve" x="41.2277" y="267.173" fill="black" font-size="12.8453" font-family="Helvetica">40</text>
<text xml:space="preserve" x="41.2277" y="225.631" fill="black" font-size="12.8453" font-family="Helvetica">60</text>
<text xml:space="preserve" x="41.2277" y="184.089" fill="black" font-size="12.8453" font-family="Helvetica">80</text>
<text xml:space="preserve" x="33.8967" y="142.547" fill="black" font-size="12.8453" font-family="Helvetica">100</text>
<text xml:space="preserve" x="33.8967" y="101.005" fill="black" font-size="12.8453" font-family="Helvetica">120</text>
<text xml:space="preserve" x="33.8967" y="59.4624" fill="black" font-size="12.8453" font-family="Helvetica">140</text>
<g transform="rotate(-90,20.0493,86.3427)">
<text xml:space="preserve" x="20.0493" y="86.3427" fill="black" font-size="12.8453" font-family="Helvetica">n_blocks</text>
</g>
<text xml:space="preserve" x="243.237" y="17.9202" fill="black" font-size="18.7938" font-family="Helvetica">vop 68.93</text>
<rect x="351.996" y="24.9905" width="204.094" height="76.8938" fill="white"/>
<path d="M351.996,101.884h 204.094" fill="none" stroke="black"/>
<path d="M556.091,101.884v -76.8938" fill="none" stroke="black"/>
<path d="M556.091,24.9905h -204.094" fill="none" stroke="black"/>
<path d="M351.996,24.9905v 76.8938" fill="none" stroke="black"/>
<text xml:space="preserve" x="377.638" y="39.0986" fill="black" font-size="16.7253" font-family="Helvetica"> / ndf </text>
<text xml:space="preserve" x="371.122" y="34.2112" fill="black" font-size="11.3169" font-family="Helvetica">2</text>
<text xml:space="preserve" x="362.162" y="39.0986" fill="black" font-size="16.7253" font-family="Times">&#0967;</text>
<text xml:space="preserve" x="477.828" y="40.7277" fill="black" font-size="16.7253" font-family="Helvetica"> 23.93 / 4</text>
<text xml:space="preserve" x="362.162" y="60.2769" fill="black" font-size="16.7253" font-family="Helvetica">Constant </text>
<text xml:space="preserve" x="518.556" y="60.2769" fill="black" font-size="16.7253" font-family="Helvetica"> 8.8</text>
<text xml:space="preserve" x="509.596" y="60.2769" fill="black" font-size="16.7253" font-family="Times">&#0177;</text>
<text xml:space="preserve" x="461.537" y="60.2769" fill="black" font-size="16.7253" font-family="Helvetica"> 145.1 </text>
<text xml:space="preserve" x="362.162" y="79.0117" fill="black" font-size="16.7253" font-family="Helvetica">Mean     </text>
<text xml:space="preserve" x="521" y="79.0117" fill="black" font-size="16.7253" font-family="Helvetica"> 1.1</text>
<text xml:space="preserve" x="512.039" y="79.0117" fill="black" font-size="16.7253" font-family="Times">&#0177;</text>
<text xml:space="preserve" x="461.537" y="79.0117" fill="black" font-size="16.7253" font-family="Helvetica"> 275.5 </text>
<text xml:space="preserve" x="362.162" y="96.9318" fill="black" font-size="16.7253" font-family="Helvetica">Sigma    </text>
<text xml:space="preserve" x="509.596" y="98.561" fill="black" font-size="16.7253" font-family="Helvetica"> 0.78</text>
<text xml:space="preserve" x="500.636" y="98.561" fill="black" font-size="16.7253" font-family="Times">&#0177;</text>
<text xml:space="preserve" x="450.133" y="98.561" fill="black" font-size="16.7253" font-family="Helvetica"> 22.14 </text>
<g stroke="black" stroke-width="1" fill="none">
<line x1="63.752" y1="346.022" x2="64.752" y2="346.022"/>
</g>
<g stroke="black" stroke-width="1" fill="none">
<line x1="78.8701" y1="346.022" x2="79.8701" y2="346.022"/>
</g>
<g stroke="black" stroke-width="1" fill="none">
<line x1="93.9882" y1="346.022" x2="94.9882" y2="346.022"/>
</g>
<g stroke="black" stroke-width="1" fill="none">
<line x1="109.106" y1="346.022" x2="110.106" y2="346.022"/>
</g>
<g stroke="black" stroke-width="1" fill="none">
<line x1="124.224" y1="346.022" x2="125.224" y2="346.022"/>
</g>
<g stroke="black" stroke-width="1" fill="none">
<line x1="139.343" y1="346.022" x2="140.343" y2="346.022"/>
</g>
<g stroke="black" stroke-width="1" fill="none">
<line x1="154.461" y1="346.022" x2="155.461" y2="346.022"/>
</g>
<g stroke="black" stroke-width="1" fill="none">
<line x1="169.579" y1="346.022" x2="170.579" y2="346.022"/>
</g>
<g stroke="black" stroke-width="1" fill="none">
<line x1="184.697" y1="346.022" x2="185.697" y2="346.022"/>
</g>
<g stroke="black" stroke-width="1" fill="none">
<line x1="199.815" y1="346.022" x2="200.815" y2="346.022"/>
</g>
<path d="M215.933,328.262v -7.2076" fill="none" stroke="#ffb300"/>
<path d="M215.933,321.054v -7.2076" fill="none" stroke="#ffb300"/>
<path d="M208.374,321.054h 7.55905" fill="none" stroke="#ffb300"/>
<path d="M215.933,321.054h 7.55905" fill="none" stroke="#ffb300"/>
<g stroke="black" stroke-width="1" fill="none">
<line x1="214.933" y1="321.054" x2="215.933" y2="321.054"/>
</g>
<path d="M231.051,328.262v -7.2076" fill="none" stroke="#ffb300"/>
<path d="M231.051,321.054v -7.2076" fill="none" stroke="#ffb300"/>
<path d="M223.492,321.054h 7.55905" fill="none" stroke="#ffb300"/>
<path d="M231.051,321.054h 7.55905" fill="none" stroke="#ffb300"/>
<g stroke="black" stroke-width="1" fill="none">
<line x1="230.051" y1="321.054" x2="231.051" y2="321.054"/>
</g>
<path d="M246.169,154.809v -21.0136" fill="none" stroke="#ffb300"/>
<path d="M246.169,133.795v -21.0136" fill="none" stroke="#ffb300"/>
<path d="M238.61,133.795h 7.55905" fill="none" stroke="#ffb300"/>
<path d="M246.169,133.795h 7.55905" fill="none" stroke="#ffb300"/>
<g stroke="black" stroke-width="1" fill="none">
<line x1="245.169" y1="133.795" x2="246.169" y2="133.795"/>
</g>
<path d="M261.287,119.136v -22.7924" fill="none" stroke="#ffb300"/>
<path d="M261.287,96.3435v -22.7924" fill="none" stroke="#ffb300"/>
<path d="M253.728,96.3435h 7.55905" fill="none" stroke="#ffb300"/>
<path d="M261.287,96.3435h 7.55905" fill="none" stroke="#ffb300"/>
<g stroke="black" stroke-width="1" fill="none">
<line x1="260.287" y1="96.3435" x2="261.287" y2="96.3435"/>
</g>
<path d="M276.406,95.2806v -23.9049" fill="none" stroke="#ffb300"/>
<path d="M276.406,71.3757v -23.9049" fill="none" stroke="#ffb300"/>
<path d="M268.846,71.3757h 7.55905" fill="none" stroke="#ffb300"/>
<path d="M276.406,71.3757h 7.55905" fill="none" stroke="#ffb300"/>
<g stroke="black" stroke-width="1" fill="none">
<line x1="275.406" y1="71.3757" x2="276.406" y2="71.3757"/>
</g>
<path d="M291.524,272.119v -13.4842" fill="none" stroke="#ffb300"/>
<path d="M291.524,258.635v -13.4842" fill="none" stroke="#ffb300"/>
<path d="M283.965,258.635h 7.55905" fill="none" stroke="#ffb300"/>
<path d="M291.524,258.635h 7.55905" fill="none" stroke="#ffb300"/>
<g stroke="black" stroke-width="1" fill="none">
<line x1="290.524" y1="258.635" x2="291.524" y2="258.635"/>
</g>
<path d="M306.642,338.635v -5.09655" fill="none" stroke="#ffb300"/>
<path d="M306.642,333.538v -5.09655" fill="none" stroke="#ffb300"/>
<path d="M299.083,333.538h 7.55905" fill="none" stroke="#ffb300"/>
<path d="M306.642,333.538h 7.55905" fill="none" stroke="#ffb300"/>
<g stroke="black" stroke-width="1" fill="none">
<line x1="305.642" y1="333.538" x2="306.642" y2="333.538"/>
</g>
<g stroke="black" stroke-width="1" fill="none">
<line x1="320.76" y1="346.022" x2="321.76" y2="346.022"/>
</g>
<g stroke="black" stroke-width="1" fill="none">
<line x1="335.878" y1="346.022" x2="336.878" y2="346.022"/>
</g>
<g stroke="black" stroke-width="1" fill="none">
<line x1="350.996" y1="346.022" x2="351.996" y2="346.022"/>
</g>
<g stroke="black" stroke-width="1" fill="none">
<line x1="366.114" y1="346.022" x2="367.114" y2="346.022"/>
</g>
<g stroke="black" stroke-width="1" fill="none">
<line x1="381.232" y1="346.022" x2="382.232" y2="346.022"/>
</g>
<g stroke="black" stroke-width="1" fill="none">
<line x1="396.35" y1="346.022" x2="397.35" y2="346.022"/>
</g>
<g stroke="black" stroke-width="1" fill="none">
<line x1="411.469" y1="346.022" x2="412.469" y2="346.022"/>
</g>
<g stroke="black" stroke-width="1" fill="none">
<line x1="426.587" y1="346.022" x2="427.587" y2="346.022"/>
</g>
<g stroke="black" stroke-width="1" fill="none">
<line x1="441.705" y1="346.022" x2="442.705" y2="346.022"/>
</g>
<g stroke="black" stroke-width="1" fill="none">
<line x1="456.823" y1="346.022" x2="457.823" y2="346.022"/>
</g>
<g stroke="black" stroke-width="1" fill="none">
<line x1="471.941" y1="346.022" x2="472.941" y2="346.022"/>
</g>
<g stroke="black" stroke-width="1" fill="none">
<line x1="487.059" y1="346.022" x2="488.059" y2="346.022"/>
</g>
<g stroke="black" stroke-width="1" fill="none">
<line x1="502.177" y1="346.022" x2="503.177" y2="346.022"/>
</g>
<path d="M59.4606,346.022h 131.528l 4.53543, -0.0492915l 4.53543, -0.0980667l 4.53543, -0.261974l 4.53543, -0.647188l 4.53543, -1.47732l 4.53543, -3.11267l 4.53543, -6.04528l 4.53543, -10.803l 4.53543, -17.7196l 4.53543, -26.5864l 4.53543, -36.3045l
 4.53543, -44.7647l 4.53543, -49.1811l 4.53543, -46.9419l 4.53543, -36.7284l 4.53543, -19.3837l 4.53543, 1.99897l 4.53543, 22.957l 4.53543, 39.1747l 4.53543, 47.9296" fill="none" stroke="#ffb300" stroke-width="2"/>
<path d="M281.697,157.977l 4.53543, 48.8069l 4.53543, 43.4406l 4.53543, 34.5554l 4.53543, 24.8635l 4.53543, 16.2996l 4.53543, 9.78133l 4.53543, 5.39042l 4.53543, 2.73433l 4.53543, 1.27886l 4.53543, 0.552205l 4.53543, 0.220355l 4.53543, 0.0813277l
 4.53543, 0.0400678h 163.276" fill="none" stroke="#ffb300" stroke-width="2"/>
<path d="M503.933,346.022h 4.53543" fill="none" stroke="#ffb300" stroke-width="2"/>
<rect x="351.996" y="24.9905" width="204.094" height="76.8938" fill="white"/>
<path d="M351.996,101.884h 204.094" fill="none" stroke="black"/>
<path d="M556.091,101.884v -76.8938" fill="none" stroke="black"/>
<path d="M556.091,24.9905h -204.094" fill="none" stroke="black"/>
<path d="M351.996,24.9905v 76.8938" fill="none" stroke="black"/>
<text xml:space="preserve" x="377.638" y="39.0986" fill="black" font-size="16.7253" font-family="Helvetica"> / ndf </text>
<text xml:space="preserve" x="371.122" y="34.2112" fill="black" font-size="11.3169" font-family="Helvetica">2</text>
<text xml:space="preserve" x="362.162" y="39.0986" fill="black" font-size="16.7253" font-family="Times">&#0967;</text>
<text xml:space="preserve" x="477.828" y="40.7277" fill="black" font-size="16.7253" font-family="Helvetica"> 23.93 / 4</text>
<text xml:space="preserve" x="362.162" y="60.2769" fill="black" font-size="16.7253" font-family="Helvetica">Constant </text>
<text xml:space="preserve" x="518.556" y="60.2769" fill="black" font-size="16.7253" font-family="Helvetica"> 8.8</text>
<text xml:space="preserve" x="509.596" y="60.2769" fill="black" font-size="16.7253" font-family="Times">&#0177;</text>
<text xml:space="preserve" x="461.537" y="60.2769" fill="black" font-size="16.7253" font-family="Helvetica"> 145.1 </text>
<text xml:space="preserve" x="362.162" y="79.0117" fill="black" font-size="16.7253" font-family="Helvetica">Mean     </text>
<text xml:space="preserve" x="521" y="79.0117" fill="black" font-size="16.7253" font-family="Helvetica"> 1.1</text>
<text xml:space="preserve" x="512.039" y="79.0117" fill="black" font-size="16.7253" font-family="Times">&#0177;</text>
<text xml:space="preserve" x="461.537" y="79.0117" fill="black" font-size="16.7253" font-family="Helvetica"> 275.5 </text>
<text xml:space="preserve" x="362.162" y="96.9318" fill="black" font-size="16.7253" font-family="Helvetica">Sigma    </text>
<text xml:space="preserve" x="509.596" y="98.561" fill="black" font-size="16.7253" font-family="Helvetica"> 0.78</text>
<text xml:space="preserve" x="500.636" y="98.561" fill="black" font-size="16.7253" font-family="Times">&#0177;</text>
<text xml:space="preserve" x="450.133" y="98.561" fill="black" font-size="16.7253" font-family="Helvetica"> 22.14 </text>
<text xml:space="preserve" x="243.237" y="17.9202" fill="black" font-size="18.7938" font-family="Helvetica">vop 68.93</text></svg>
