<?xml version="1.0" standalone="no"?>
<svg width="567.429" height="384.969" viewBox="0 0 567.429 384.969" xmlns="http://www.w3.org/2000/svg" shape-rendering="crispEdges">
<title>
./adjusted_vop/vop_graphs/vop69.18.svg
</title>
<desc>
Creator: ROOT Version 6.24/00
CreationDate: Mon Jul 19 21:24:20 2021</desc>
<defs>
</defs>
<rect x="0.5" y="0" width="566.929" height="384.469" fill="white"/>
<rect x="57.1929" y="38.4469" width="453.543" height="307.575" fill="white"/>
<rect x="57.1929" y="38.4469" width="453.543" height="307.575" fill="none" stroke="black"/>
<path d="M57.1929,346.022h 90.7087v -6.10269h 30.2362v -6.10269h 15.1181v -36.6161h 30.2362v -97.643h 15.1181v -18.3081h 15.1181v -128.156h 15.1181v 54.9242h 15.1181v 48.8215h 15.1181v 91.5403h 15.1181v 30.5134h 15.1181v 54.9242h 15.1181v 6.10269h
 30.2362v 6.10269h 136.063" fill="none" stroke="#cea262"/>
<path d="M59.4606,346.022h 72.5669l 4.53543, -0.0428006l 4.53543, -0.0347752l 4.53543, -0.0600897l 4.53543, -0.101526l 4.53543, -0.16771l 4.53543, -0.270825l 4.53543, -0.427477l 4.53543, -0.65942l 4.53543, -0.993947l 4.53543, -1.46362l 4.53543,
 -2.10505l 4.53543, -2.95629l 4.53543, -4.05273l 4.53543, -5.42134l 4.53543, -7.07349l 4.53543, -8.99705l 4.53543, -11.1488l 4.53543, -13.4485l 4.53543, -15.7761l 4.53543, -17.9742l 4.53543, -19.8563l 4.53543, -21.2205l 4.53543, -21.87l 4.53543,
 -21.6362l 4.53543, -20.4024l 4.53543, -18.1247l 4.53543, -14.8461l 4.53543, -10.7003l 4.53543, -5.90458l 4.53543, -0.741869l 4.53543, 4.46738l 4.53543, 9.39781l 4.53543, 13.7529" fill="none" stroke="#cea262" stroke-width="2"/>
<path d="M281.697,125.162l 4.53543, 17.2944l 4.53543, 19.8636l 4.53543, 21.3919l 4.53543, 21.8997l 4.53543, 21.4848l 4.53543, 20.3037l 4.53543, 18.5475l 4.53543, 16.4189l 4.53543, 14.1105l 4.53543, 11.789l 4.53543, 9.58557l 4.53543, 7.59153l 4.53543,
 5.86013l 4.53543, 4.41157l 4.53543, 3.24031l 4.53543, 2.32303l 4.53543, 1.62606l 4.53543, 1.11162l 4.53543, 0.742358l 4.53543, 0.484395l 4.53543, 0.308881l 4.53543, 0.192512l 4.53543, 0.11729l 4.53543, 0.0698633l 4.53543, 0.0406887l 4.53543,
 0.0507539h 104.315" fill="none" stroke="#cea262" stroke-width="2"/>
<path d="M503.933,346.022h 4.53543" fill="none" stroke="#cea262" stroke-width="2"/>
<path d="M57.1929,346.022h 453.543" fill="none" stroke="black"/>
<path d="M57.1929,336.795v 9.22726" fill="none" stroke="black"/>
<path d="M72.311,341.409v 4.61363" fill="none" stroke="black"/>
<path d="M87.4291,341.409v 4.61363" fill="none" stroke="black"/>
<path d="M102.547,341.409v 4.61363" fill="none" stroke="black"/>
<path d="M117.665,341.409v 4.61363" fill="none" stroke="black"/>
<path d="M132.783,336.795v 9.22726" fill="none" stroke="black"/>
<path d="M147.902,341.409v 4.61363" fill="none" stroke="black"/>
<path d="M163.02,341.409v 4.61363" fill="none" stroke="black"/>
<path d="M178.138,341.409v 4.61363" fill="none" stroke="black"/>
<path d="M193.256,341.409v 4.61363" fill="none" stroke="black"/>
<path d="M208.374,336.795v 9.22726" fill="none" stroke="black"/>
<path d="M223.492,341.409v 4.61363" fill="none" stroke="black"/>
<path d="M238.61,341.409v 4.61363" fill="none" stroke="black"/>
<path d="M253.728,341.409v 4.61363" fill="none" stroke="black"/>
<path d="M268.846,341.409v 4.61363" fill="none" stroke="black"/>
<path d="M283.965,336.795v 9.22726" fill="none" stroke="black"/>
<path d="M299.083,341.409v 4.61363" fill="none" stroke="black"/>
<path d="M314.201,341.409v 4.61363" fill="none" stroke="black"/>
<path d="M329.319,341.409v 4.61363" fill="none" stroke="black"/>
<path d="M344.437,341.409v 4.61363" fill="none" stroke="black"/>
<path d="M359.555,336.795v 9.22726" fill="none" stroke="black"/>
<path d="M374.673,341.409v 4.61363" fill="none" stroke="black"/>
<path d="M389.791,341.409v 4.61363" fill="none" stroke="black"/>
<path d="M404.909,341.409v 4.61363" fill="none" stroke="black"/>
<path d="M420.028,341.409v 4.61363" fill="none" stroke="black"/>
<path d="M435.146,336.795v 9.22726" fill="none" stroke="black"/>
<path d="M450.264,341.409v 4.61363" fill="none" stroke="black"/>
<path d="M465.382,341.409v 4.61363" fill="none" stroke="black"/>
<path d="M480.5,341.409v 4.61363" fill="none" stroke="black"/>
<path d="M495.618,341.409v 4.61363" fill="none" stroke="black"/>
<path d="M510.736,336.795v 9.22726" fill="none" stroke="black"/>
<text xml:space="preserve" x="53.446" y="358.403" fill="black" font-size="12.8453" font-family="Helvetica">0</text>
<text xml:space="preserve" x="121.868" y="358.403" fill="black" font-size="12.8453" font-family="Helvetica">100</text>
<text xml:space="preserve" x="197.622" y="358.403" fill="black" font-size="12.8453" font-family="Helvetica">200</text>
<text xml:space="preserve" x="273.375" y="358.403" fill="black" font-size="12.8453" font-family="Helvetica">300</text>
<text xml:space="preserve" x="348.314" y="358.403" fill="black" font-size="12.8453" font-family="Helvetica">400</text>
<text xml:space="preserve" x="424.068" y="358.403" fill="black" font-size="12.8453" font-family="Helvetica">500</text>
<text xml:space="preserve" x="499.821" y="358.403" fill="black" font-size="12.8453" font-family="Helvetica">600</text>
<text xml:space="preserve" x="486.788" y="369.807" fill="black" font-size="12.8453" font-family="Helvetica">mpv</text>
<path d="M57.1929,346.022v -307.575" fill="none" stroke="black"/>
<path d="M70.7992,346.022h -13.6063" fill="none" stroke="black"/>
<path d="M63.9961,335.851h -6.80315" fill="none" stroke="black"/>
<path d="M63.9961,325.68h -6.80315" fill="none" stroke="black"/>
<path d="M63.9961,315.509h -6.80315" fill="none" stroke="black"/>
<path d="M63.9961,305.338h -6.80315" fill="none" stroke="black"/>
<path d="M70.7992,295.167h -13.6063" fill="none" stroke="black"/>
<path d="M63.9961,284.995h -6.80315" fill="none" stroke="black"/>
<path d="M63.9961,274.824h -6.80315" fill="none" stroke="black"/>
<path d="M63.9961,264.653h -6.80315" fill="none" stroke="black"/>
<path d="M63.9961,254.482h -6.80315" fill="none" stroke="black"/>
<path d="M70.7992,244.311h -13.6063" fill="none" stroke="black"/>
<path d="M63.9961,234.14h -6.80315" fill="none" stroke="black"/>
<path d="M63.9961,223.969h -6.80315" fill="none" stroke="black"/>
<path d="M63.9961,213.797h -6.80315" fill="none" stroke="black"/>
<path d="M63.9961,203.626h -6.80315" fill="none" stroke="black"/>
<path d="M70.7992,193.455h -13.6063" fill="none" stroke="black"/>
<path d="M63.9961,183.284h -6.80315" fill="none" stroke="black"/>
<path d="M63.9961,173.113h -6.80315" fill="none" stroke="black"/>
<path d="M63.9961,162.942h -6.80315" fill="none" stroke="black"/>
<path d="M63.9961,152.771h -6.80315" fill="none" stroke="black"/>
<path d="M70.7992,142.599h -13.6063" fill="none" stroke="black"/>
<path d="M63.9961,132.428h -6.80315" fill="none" stroke="black"/>
<path d="M63.9961,122.257h -6.80315" fill="none" stroke="black"/>
<path d="M63.9961,112.086h -6.80315" fill="none" stroke="black"/>
<path d="M63.9961,101.915h -6.80315" fill="none" stroke="black"/>
<path d="M70.7992,91.7437h -13.6063" fill="none" stroke="black"/>
<path d="M63.9961,81.5726h -6.80315" fill="none" stroke="black"/>
<path d="M63.9961,71.4014h -6.80315" fill="none" stroke="black"/>
<path d="M63.9961,61.2303h -6.80315" fill="none" stroke="black"/>
<path d="M63.9961,51.0591h -6.80315" fill="none" stroke="black"/>
<path d="M70.7992,40.888h -13.6063" fill="none" stroke="black"/>
<path d="M70.7992,40.888h -13.6063" fill="none" stroke="black"/>
<text xml:space="preserve" x="47.7441" y="350.258" fill="black" font-size="12.8453" font-family="Helvetica">0</text>
<text xml:space="preserve" x="41.2277" y="299.756" fill="black" font-size="12.8453" font-family="Helvetica">50</text>
<text xml:space="preserve" x="33.8967" y="248.439" fill="black" font-size="12.8453" font-family="Helvetica">100</text>
<text xml:space="preserve" x="33.8967" y="197.936" fill="black" font-size="12.8453" font-family="Helvetica">150</text>
<text xml:space="preserve" x="33.8967" y="147.434" fill="black" font-size="12.8453" font-family="Helvetica">200</text>
<text xml:space="preserve" x="33.8967" y="96.1173" fill="black" font-size="12.8453" font-family="Helvetica">250</text>
<text xml:space="preserve" x="33.8967" y="45.615" fill="black" font-size="12.8453" font-family="Helvetica">300</text>
<g transform="rotate(-90,20.0493,86.3427)">
<text xml:space="preserve" x="20.0493" y="86.3427" fill="black" font-size="12.8453" font-family="Helvetica">n_blocks</text>
</g>
<text xml:space="preserve" x="242.422" y="17.9202" fill="black" font-size="18.7938" font-family="Helvetica">vop 69.18</text>
<rect x="351.996" y="24.9905" width="204.094" height="76.8938" fill="white"/>
<path d="M351.996,101.884h 204.094" fill="none" stroke="black"/>
<path d="M556.091,101.884v -76.8938" fill="none" stroke="black"/>
<path d="M556.091,24.9905h -204.094" fill="none" stroke="black"/>
<path d="M351.996,24.9905v 76.8938" fill="none" stroke="black"/>
<text xml:space="preserve" x="377.638" y="39.0986" fill="black" font-size="16.7253" font-family="Helvetica"> / ndf </text>
<text xml:space="preserve" x="371.122" y="34.2112" fill="black" font-size="11.3169" font-family="Helvetica">2</text>
<text xml:space="preserve" x="362.162" y="39.0986" fill="black" font-size="16.7253" font-family="Times">&#0967;</text>
<text xml:space="preserve" x="468.868" y="40.7277" fill="black" font-size="16.7253" font-family="Helvetica"> 54.93 / 12</text>
<text xml:space="preserve" x="362.162" y="60.2769" fill="black" font-size="16.7253" font-family="Helvetica">Constant </text>
<text xml:space="preserve" x="518.556" y="60.2769" fill="black" font-size="16.7253" font-family="Helvetica"> 9.0</text>
<text xml:space="preserve" x="509.596" y="60.2769" fill="black" font-size="16.7253" font-family="Times">&#0177;</text>
<text xml:space="preserve" x="459.094" y="60.2769" fill="black" font-size="16.7253" font-family="Helvetica"> 244.6 </text>
<text xml:space="preserve" x="362.162" y="79.0117" fill="black" font-size="16.7253" font-family="Helvetica">Mean     </text>
<text xml:space="preserve" x="518.556" y="79.0117" fill="black" font-size="16.7253" font-family="Helvetica"> 1.2</text>
<text xml:space="preserve" x="509.596" y="79.0117" fill="black" font-size="16.7253" font-family="Times">&#0177;</text>
<text xml:space="preserve" x="459.094" y="79.0117" fill="black" font-size="16.7253" font-family="Helvetica"> 276.8 </text>
<text xml:space="preserve" x="362.162" y="96.9318" fill="black" font-size="16.7253" font-family="Helvetica">Sigma    </text>
<text xml:space="preserve" x="509.596" y="98.561" fill="black" font-size="16.7253" font-family="Helvetica"> 0.98</text>
<text xml:space="preserve" x="500.636" y="98.561" fill="black" font-size="16.7253" font-family="Times">&#0177;</text>
<text xml:space="preserve" x="450.133" y="98.561" fill="black" font-size="16.7253" font-family="Helvetica"> 41.27 </text>
<g stroke="black" stroke-width="1" fill="none">
<line x1="63.752" y1="346.022" x2="64.752" y2="346.022"/>
</g>
<g stroke="black" stroke-width="1" fill="none">
<line x1="78.8701" y1="346.022" x2="79.8701" y2="346.022"/>
</g>
<g stroke="black" stroke-width="1" fill="none">
<line x1="93.9882" y1="346.022" x2="94.9882" y2="346.022"/>
</g>
<g stroke="black" stroke-width="1" fill="none">
<line x1="109.106" y1="346.022" x2="110.106" y2="346.022"/>
</g>
<g stroke="black" stroke-width="1" fill="none">
<line x1="124.224" y1="346.022" x2="125.224" y2="346.022"/>
</g>
<g stroke="black" stroke-width="1" fill="none">
<line x1="139.343" y1="346.022" x2="140.343" y2="346.022"/>
</g>
<path d="M155.461,342.411v -2.49141" fill="none" stroke="#cea262"/>
<path d="M155.461,339.92v -2.49141" fill="none" stroke="#cea262"/>
<path d="M147.902,339.92h 7.55905" fill="none" stroke="#cea262"/>
<path d="M155.461,339.92h 7.55905" fill="none" stroke="#cea262"/>
<g stroke="black" stroke-width="1" fill="none">
<line x1="154.461" y1="339.92" x2="155.461" y2="339.92"/>
</g>
<path d="M170.579,342.411v -2.49141" fill="none" stroke="#cea262"/>
<path d="M170.579,339.92v -2.49141" fill="none" stroke="#cea262"/>
<path d="M163.02,339.92h 7.55905" fill="none" stroke="#cea262"/>
<path d="M170.579,339.92h 7.55905" fill="none" stroke="#cea262"/>
<g stroke="black" stroke-width="1" fill="none">
<line x1="169.579" y1="339.92" x2="170.579" y2="339.92"/>
</g>
<path d="M185.697,337.34v -3.52339" fill="none" stroke="#cea262"/>
<path d="M185.697,333.817v -3.52339" fill="none" stroke="#cea262"/>
<path d="M178.138,333.817h 7.55905" fill="none" stroke="#cea262"/>
<path d="M185.697,333.817h 7.55905" fill="none" stroke="#cea262"/>
<g stroke="black" stroke-width="1" fill="none">
<line x1="184.697" y1="333.817" x2="185.697" y2="333.817"/>
</g>
<path d="M200.815,304.248v -7.04677" fill="none" stroke="#cea262"/>
<path d="M200.815,297.201v -7.04677" fill="none" stroke="#cea262"/>
<path d="M193.256,297.201h 7.55905" fill="none" stroke="#cea262"/>
<path d="M200.815,297.201h 7.55905" fill="none" stroke="#cea262"/>
<g stroke="black" stroke-width="1" fill="none">
<line x1="199.815" y1="297.201" x2="200.815" y2="297.201"/>
</g>
<path d="M215.933,304.248v -7.04677" fill="none" stroke="#cea262"/>
<path d="M215.933,297.201v -7.04677" fill="none" stroke="#cea262"/>
<path d="M208.374,297.201h 7.55905" fill="none" stroke="#cea262"/>
<path d="M215.933,297.201h 7.55905" fill="none" stroke="#cea262"/>
<g stroke="black" stroke-width="1" fill="none">
<line x1="214.933" y1="297.201" x2="215.933" y2="297.201"/>
</g>
<path d="M231.051,211.763v -12.2054" fill="none" stroke="#cea262"/>
<path d="M231.051,199.558v -12.2054" fill="none" stroke="#cea262"/>
<path d="M223.492,199.558h 7.55905" fill="none" stroke="#cea262"/>
<path d="M231.051,199.558h 7.55905" fill="none" stroke="#cea262"/>
<g stroke="black" stroke-width="1" fill="none">
<line x1="230.051" y1="199.558" x2="231.051" y2="199.558"/>
</g>
<path d="M246.169,194.196v -12.9458" fill="none" stroke="#cea262"/>
<path d="M246.169,181.25v -12.9458" fill="none" stroke="#cea262"/>
<path d="M238.61,181.25h 7.55905" fill="none" stroke="#cea262"/>
<path d="M246.169,181.25h 7.55905" fill="none" stroke="#cea262"/>
<g stroke="black" stroke-width="1" fill="none">
<line x1="245.169" y1="181.25" x2="246.169" y2="181.25"/>
</g>
<path d="M261.287,70.3544v -17.261" fill="none" stroke="#cea262"/>
<path d="M261.287,53.0934v -14.6464" fill="none" stroke="#cea262"/>
<path d="M253.728,53.0934h 7.55905" fill="none" stroke="#cea262"/>
<path d="M261.287,53.0934h 7.55905" fill="none" stroke="#cea262"/>
<g stroke="black" stroke-width="1" fill="none">
<line x1="260.287" y1="53.0934" x2="261.287" y2="53.0934"/>
</g>
<path d="M276.406,123.576v -15.5589" fill="none" stroke="#cea262"/>
<path d="M276.406,108.018v -15.5589" fill="none" stroke="#cea262"/>
<path d="M268.846,108.018h 7.55905" fill="none" stroke="#cea262"/>
<path d="M276.406,108.018h 7.55905" fill="none" stroke="#cea262"/>
<g stroke="black" stroke-width="1" fill="none">
<line x1="275.406" y1="108.018" x2="276.406" y2="108.018"/>
</g>
<path d="M291.524,170.711v -13.8716" fill="none" stroke="#cea262"/>
<path d="M291.524,156.839v -13.8716" fill="none" stroke="#cea262"/>
<path d="M283.965,156.839h 7.55905" fill="none" stroke="#cea262"/>
<path d="M291.524,156.839h 7.55905" fill="none" stroke="#cea262"/>
<g stroke="black" stroke-width="1" fill="none">
<line x1="290.524" y1="156.839" x2="291.524" y2="156.839"/>
</g>
<path d="M306.642,258.345v -9.96564" fill="none" stroke="#cea262"/>
<path d="M306.642,248.379v -9.96564" fill="none" stroke="#cea262"/>
<path d="M299.083,248.379h 7.55905" fill="none" stroke="#cea262"/>
<path d="M306.642,248.379h 7.55905" fill="none" stroke="#cea262"/>
<g stroke="black" stroke-width="1" fill="none">
<line x1="305.642" y1="248.379" x2="306.642" y2="248.379"/>
</g>
<path d="M321.76,287.156v -8.26307" fill="none" stroke="#cea262"/>
<path d="M321.76,278.893v -8.26307" fill="none" stroke="#cea262"/>
<path d="M314.201,278.893h 7.55905" fill="none" stroke="#cea262"/>
<path d="M321.76,278.893h 7.55905" fill="none" stroke="#cea262"/>
<g stroke="black" stroke-width="1" fill="none">
<line x1="320.76" y1="278.893" x2="321.76" y2="278.893"/>
</g>
<path d="M336.878,337.34v -3.52339" fill="none" stroke="#cea262"/>
<path d="M336.878,333.817v -3.52339" fill="none" stroke="#cea262"/>
<path d="M329.319,333.817h 7.55905" fill="none" stroke="#cea262"/>
<path d="M336.878,333.817h 7.55905" fill="none" stroke="#cea262"/>
<g stroke="black" stroke-width="1" fill="none">
<line x1="335.878" y1="333.817" x2="336.878" y2="333.817"/>
</g>
<path d="M351.996,342.411v -2.49141" fill="none" stroke="#cea262"/>
<path d="M351.996,339.92v -2.49141" fill="none" stroke="#cea262"/>
<path d="M344.437,339.92h 7.55905" fill="none" stroke="#cea262"/>
<path d="M351.996,339.92h 7.55905" fill="none" stroke="#cea262"/>
<g stroke="black" stroke-width="1" fill="none">
<line x1="350.996" y1="339.92" x2="351.996" y2="339.92"/>
</g>
<path d="M367.114,342.411v -2.49141" fill="none" stroke="#cea262"/>
<path d="M367.114,339.92v -2.49141" fill="none" stroke="#cea262"/>
<path d="M359.555,339.92h 7.55905" fill="none" stroke="#cea262"/>
<path d="M367.114,339.92h 7.55905" fill="none" stroke="#cea262"/>
<g stroke="black" stroke-width="1" fill="none">
<line x1="366.114" y1="339.92" x2="367.114" y2="339.92"/>
</g>
<g stroke="black" stroke-width="1" fill="none">
<line x1="381.232" y1="346.022" x2="382.232" y2="346.022"/>
</g>
<g stroke="black" stroke-width="1" fill="none">
<line x1="396.35" y1="346.022" x2="397.35" y2="346.022"/>
</g>
<g stroke="black" stroke-width="1" fill="none">
<line x1="411.469" y1="346.022" x2="412.469" y2="346.022"/>
</g>
<g stroke="black" stroke-width="1" fill="none">
<line x1="426.587" y1="346.022" x2="427.587" y2="346.022"/>
</g>
<g stroke="black" stroke-width="1" fill="none">
<line x1="441.705" y1="346.022" x2="442.705" y2="346.022"/>
</g>
<g stroke="black" stroke-width="1" fill="none">
<line x1="456.823" y1="346.022" x2="457.823" y2="346.022"/>
</g>
<g stroke="black" stroke-width="1" fill="none">
<line x1="471.941" y1="346.022" x2="472.941" y2="346.022"/>
</g>
<g stroke="black" stroke-width="1" fill="none">
<line x1="487.059" y1="346.022" x2="488.059" y2="346.022"/>
</g>
<g stroke="black" stroke-width="1" fill="none">
<line x1="502.177" y1="346.022" x2="503.177" y2="346.022"/>
</g>
<path d="M59.4606,346.022h 72.5669l 4.53543, -0.0428006l 4.53543, -0.0347752l 4.53543, -0.0600897l 4.53543, -0.101526l 4.53543, -0.16771l 4.53543, -0.270825l 4.53543, -0.427477l 4.53543, -0.65942l 4.53543, -0.993947l 4.53543, -1.46362l 4.53543,
 -2.10505l 4.53543, -2.95629l 4.53543, -4.05273l 4.53543, -5.42134l 4.53543, -7.07349l 4.53543, -8.99705l 4.53543, -11.1488l 4.53543, -13.4485l 4.53543, -15.7761l 4.53543, -17.9742l 4.53543, -19.8563l 4.53543, -21.2205l 4.53543, -21.87l 4.53543,
 -21.6362l 4.53543, -20.4024l 4.53543, -18.1247l 4.53543, -14.8461l 4.53543, -10.7003l 4.53543, -5.90458l 4.53543, -0.741869l 4.53543, 4.46738l 4.53543, 9.39781l 4.53543, 13.7529" fill="none" stroke="#cea262" stroke-width="2"/>
<path d="M281.697,125.162l 4.53543, 17.2944l 4.53543, 19.8636l 4.53543, 21.3919l 4.53543, 21.8997l 4.53543, 21.4848l 4.53543, 20.3037l 4.53543, 18.5475l 4.53543, 16.4189l 4.53543, 14.1105l 4.53543, 11.789l 4.53543, 9.58557l 4.53543, 7.59153l 4.53543,
 5.86013l 4.53543, 4.41157l 4.53543, 3.24031l 4.53543, 2.32303l 4.53543, 1.62606l 4.53543, 1.11162l 4.53543, 0.742358l 4.53543, 0.484395l 4.53543, 0.308881l 4.53543, 0.192512l 4.53543, 0.11729l 4.53543, 0.0698633l 4.53543, 0.0406887l 4.53543,
 0.0507539h 104.315" fill="none" stroke="#cea262" stroke-width="2"/>
<path d="M503.933,346.022h 4.53543" fill="none" stroke="#cea262" stroke-width="2"/>
<rect x="351.996" y="24.9905" width="204.094" height="76.8938" fill="white"/>
<path d="M351.996,101.884h 204.094" fill="none" stroke="black"/>
<path d="M556.091,101.884v -76.8938" fill="none" stroke="black"/>
<path d="M556.091,24.9905h -204.094" fill="none" stroke="black"/>
<path d="M351.996,24.9905v 76.8938" fill="none" stroke="black"/>
<text xml:space="preserve" x="377.638" y="39.0986" fill="black" font-size="16.7253" font-family="Helvetica"> / ndf </text>
<text xml:space="preserve" x="371.122" y="34.2112" fill="black" font-size="11.3169" font-family="Helvetica">2</text>
<text xml:space="preserve" x="362.162" y="39.0986" fill="black" font-size="16.7253" font-family="Times">&#0967;</text>
<text xml:space="preserve" x="468.868" y="40.7277" fill="black" font-size="16.7253" font-family="Helvetica"> 54.93 / 12</text>
<text xml:space="preserve" x="362.162" y="60.2769" fill="black" font-size="16.7253" font-family="Helvetica">Constant </text>
<text xml:space="preserve" x="518.556" y="60.2769" fill="black" font-size="16.7253" font-family="Helvetica"> 9.0</text>
<text xml:space="preserve" x="509.596" y="60.2769" fill="black" font-size="16.7253" font-family="Times">&#0177;</text>
<text xml:space="preserve" x="459.094" y="60.2769" fill="black" font-size="16.7253" font-family="Helvetica"> 244.6 </text>
<text xml:space="preserve" x="362.162" y="79.0117" fill="black" font-size="16.7253" font-family="Helvetica">Mean     </text>
<text xml:space="preserve" x="518.556" y="79.0117" fill="black" font-size="16.7253" font-family="Helvetica"> 1.2</text>
<text xml:space="preserve" x="509.596" y="79.0117" fill="black" font-size="16.7253" font-family="Times">&#0177;</text>
<text xml:space="preserve" x="459.094" y="79.0117" fill="black" font-size="16.7253" font-family="Helvetica"> 276.8 </text>
<text xml:space="preserve" x="362.162" y="96.9318" fill="black" font-size="16.7253" font-family="Helvetica">Sigma    </text>
<text xml:space="preserve" x="509.596" y="98.561" fill="black" font-size="16.7253" font-family="Helvetica"> 0.98</text>
<text xml:space="preserve" x="500.636" y="98.561" fill="black" font-size="16.7253" font-family="Times">&#0177;</text>
<text xml:space="preserve" x="450.133" y="98.561" fill="black" font-size="16.7253" font-family="Helvetica"> 41.27 </text>
<text xml:space="preserve" x="242.422" y="17.9202" fill="black" font-size="18.7938" font-family="Helvetica">vop 69.18</text></svg>
