<?xml version="1.0" standalone="no"?>
<svg width="567.429" height="384.969" viewBox="0 0 567.429 384.969" xmlns="http://www.w3.org/2000/svg" shape-rendering="crispEdges">
<title>
./adjusted_vop/vop_graphs/vop_stacked.svg
</title>
<desc>
Creator: ROOT Version 6.22/02
CreationDate: Sat Jun 26 01:19:18 2021</desc>
<defs>
</defs>
<rect x="0.5" y="0" width="566.929" height="384.469" fill="white"/>
<rect x="57.1929" y="38.4469" width="453.543" height="307.575" fill="white"/>
<rect x="57.1929" y="38.4469" width="453.543" height="307.575" fill="none" stroke="black"/>
<path d="M57.1929,346.022h 453.543" fill="none" stroke="#000099"/>
<path d="M57.1929,346.022h 453.543" fill="none" stroke="black"/>
<path d="M57.1929,336.795v 9.22726" fill="none" stroke="black"/>
<path d="M72.311,341.409v 4.61363" fill="none" stroke="black"/>
<path d="M87.4291,341.409v 4.61363" fill="none" stroke="black"/>
<path d="M102.547,341.409v 4.61363" fill="none" stroke="black"/>
<path d="M117.665,341.409v 4.61363" fill="none" stroke="black"/>
<path d="M132.783,336.795v 9.22726" fill="none" stroke="black"/>
<path d="M147.902,341.409v 4.61363" fill="none" stroke="black"/>
<path d="M163.02,341.409v 4.61363" fill="none" stroke="black"/>
<path d="M178.138,341.409v 4.61363" fill="none" stroke="black"/>
<path d="M193.256,341.409v 4.61363" fill="none" stroke="black"/>
<path d="M208.374,336.795v 9.22726" fill="none" stroke="black"/>
<path d="M223.492,341.409v 4.61363" fill="none" stroke="black"/>
<path d="M238.61,341.409v 4.61363" fill="none" stroke="black"/>
<path d="M253.728,341.409v 4.61363" fill="none" stroke="black"/>
<path d="M268.846,341.409v 4.61363" fill="none" stroke="black"/>
<path d="M283.965,336.795v 9.22726" fill="none" stroke="black"/>
<path d="M299.083,341.409v 4.61363" fill="none" stroke="black"/>
<path d="M314.201,341.409v 4.61363" fill="none" stroke="black"/>
<path d="M329.319,341.409v 4.61363" fill="none" stroke="black"/>
<path d="M344.437,341.409v 4.61363" fill="none" stroke="black"/>
<path d="M359.555,336.795v 9.22726" fill="none" stroke="black"/>
<path d="M374.673,341.409v 4.61363" fill="none" stroke="black"/>
<path d="M389.791,341.409v 4.61363" fill="none" stroke="black"/>
<path d="M404.909,341.409v 4.61363" fill="none" stroke="black"/>
<path d="M420.028,341.409v 4.61363" fill="none" stroke="black"/>
<path d="M435.146,336.795v 9.22726" fill="none" stroke="black"/>
<path d="M450.264,341.409v 4.61363" fill="none" stroke="black"/>
<path d="M465.382,341.409v 4.61363" fill="none" stroke="black"/>
<path d="M480.5,341.409v 4.61363" fill="none" stroke="black"/>
<path d="M495.618,341.409v 4.61363" fill="none" stroke="black"/>
<path d="M510.736,336.795v 9.22726" fill="none" stroke="black"/>
<text xml:space="preserve" x="53.446" y="358.403" fill="black" font-size="12.8453" font-family="Helvetica">0</text>
<text xml:space="preserve" x="121.868" y="358.403" fill="black" font-size="12.8453" font-family="Helvetica">100</text>
<text xml:space="preserve" x="197.622" y="358.403" fill="black" font-size="12.8453" font-family="Helvetica">200</text>
<text xml:space="preserve" x="273.375" y="358.403" fill="black" font-size="12.8453" font-family="Helvetica">300</text>
<text xml:space="preserve" x="348.314" y="358.403" fill="black" font-size="12.8453" font-family="Helvetica">400</text>
<text xml:space="preserve" x="424.068" y="358.403" fill="black" font-size="12.8453" font-family="Helvetica">500</text>
<text xml:space="preserve" x="499.821" y="358.403" fill="black" font-size="12.8453" font-family="Helvetica">600</text>
<path d="M57.1929,346.022v -307.575" fill="none" stroke="black"/>
<path d="M70.7992,346.022h -13.6063" fill="none" stroke="black"/>
<path d="M63.9961,337.653h -6.80315" fill="none" stroke="black"/>
<path d="M63.9961,329.283h -6.80315" fill="none" stroke="black"/>
<path d="M63.9961,320.914h -6.80315" fill="none" stroke="black"/>
<path d="M63.9961,312.545h -6.80315" fill="none" stroke="black"/>
<path d="M70.7992,304.175h -13.6063" fill="none" stroke="black"/>
<path d="M63.9961,295.806h -6.80315" fill="none" stroke="black"/>
<path d="M63.9961,287.436h -6.80315" fill="none" stroke="black"/>
<path d="M63.9961,279.067h -6.80315" fill="none" stroke="black"/>
<path d="M63.9961,270.698h -6.80315" fill="none" stroke="black"/>
<path d="M70.7992,262.328h -13.6063" fill="none" stroke="black"/>
<path d="M63.9961,253.959h -6.80315" fill="none" stroke="black"/>
<path d="M63.9961,245.589h -6.80315" fill="none" stroke="black"/>
<path d="M63.9961,237.22h -6.80315" fill="none" stroke="black"/>
<path d="M63.9961,228.851h -6.80315" fill="none" stroke="black"/>
<path d="M70.7992,220.481h -13.6063" fill="none" stroke="black"/>
<path d="M63.9961,212.112h -6.80315" fill="none" stroke="black"/>
<path d="M63.9961,203.743h -6.80315" fill="none" stroke="black"/>
<path d="M63.9961,195.373h -6.80315" fill="none" stroke="black"/>
<path d="M63.9961,187.004h -6.80315" fill="none" stroke="black"/>
<path d="M70.7992,178.634h -13.6063" fill="none" stroke="black"/>
<path d="M63.9961,170.265h -6.80315" fill="none" stroke="black"/>
<path d="M63.9961,161.896h -6.80315" fill="none" stroke="black"/>
<path d="M63.9961,153.526h -6.80315" fill="none" stroke="black"/>
<path d="M63.9961,145.157h -6.80315" fill="none" stroke="black"/>
<path d="M70.7992,136.787h -13.6063" fill="none" stroke="black"/>
<path d="M63.9961,128.418h -6.80315" fill="none" stroke="black"/>
<path d="M63.9961,120.049h -6.80315" fill="none" stroke="black"/>
<path d="M63.9961,111.679h -6.80315" fill="none" stroke="black"/>
<path d="M63.9961,103.31h -6.80315" fill="none" stroke="black"/>
<path d="M70.7992,94.9403h -13.6063" fill="none" stroke="black"/>
<path d="M63.9961,86.571h -6.80315" fill="none" stroke="black"/>
<path d="M63.9961,78.2016h -6.80315" fill="none" stroke="black"/>
<path d="M63.9961,69.8322h -6.80315" fill="none" stroke="black"/>
<path d="M63.9961,61.4628h -6.80315" fill="none" stroke="black"/>
<path d="M70.7992,53.0934h -13.6063" fill="none" stroke="black"/>
<path d="M70.7992,53.0934h -13.6063" fill="none" stroke="black"/>
<path d="M63.9961,44.724h -6.80315" fill="none" stroke="black"/>
<text xml:space="preserve" x="47.7441" y="350.258" fill="black" font-size="12.8453" font-family="Helvetica">0</text>
<text xml:space="preserve" x="47.7441" y="308.716" fill="black" font-size="12.8453" font-family="Helvetica">5</text>
<text xml:space="preserve" x="41.2277" y="267.173" fill="black" font-size="12.8453" font-family="Helvetica">10</text>
<text xml:space="preserve" x="40.4131" y="224.817" fill="black" font-size="12.8453" font-family="Helvetica">15</text>
<text xml:space="preserve" x="41.2277" y="183.275" fill="black" font-size="12.8453" font-family="Helvetica">20</text>
<text xml:space="preserve" x="40.4131" y="140.918" fill="black" font-size="12.8453" font-family="Helvetica">25</text>
<text xml:space="preserve" x="41.2277" y="99.3755" fill="black" font-size="12.8453" font-family="Helvetica">30</text>
<text xml:space="preserve" x="40.4131" y="57.8333" fill="black" font-size="12.8453" font-family="Helvetica">35</text>
<text xml:space="preserve" x="148.749" y="17.9202" fill="black" font-size="18.7938" font-family="Helvetica">distributions of mpv for each vop</text>
<path d="M57.1929,346.022h 151.181v -33.4776h 15.1181v -41.847h 15.1181v -33.4776h 15.1181v -33.4776h 15.1181v 83.694h 15.1181v 33.4776h 15.1181v 25.1082h 211.654" fill="none" stroke="#ffb300"/>
<path d="M59.4606,346.022h 104.315l 4.53543, -0.0613092l 4.53543, -0.075291l 4.53543, -0.154526l 4.53543, -0.302364l 4.53543, -0.563821l 4.53543, -1.00138l 4.53543, -1.69285l 4.53543, -2.72174l 4.53543, -4.15756l 4.53543, -6.02587l 4.53543, -8.27252l
 4.53543, -10.7318l 4.53543, -13.1128l 4.53543, -15.0181l 4.53543, -16.003l 4.53543, -15.6695l 4.53543, -13.7751l 4.53543, -10.324l 4.53543, -5.6073l 4.53543, -0.170831l 4.53543, 5.28791l 4.53543, 10.0666l 4.53543, 13.6066l 4.53543, 15.5996l 4.53543,
 16.024l 4.53543, 15.1095" fill="none" stroke="#ffb300" stroke-width="2"/>
<path d="M281.697,296.275l 4.53543, 13.2478l 4.53543, 10.8837l 4.53543, 8.4196l 4.53543, 6.15388l 4.53543, 4.25979l 4.53543, 2.79755l 4.53543, 1.74542l 4.53543, 1.03563l 4.53543, 0.584865l 4.53543, 0.314583l 4.53543, 0.161243l 4.53543, 0.0787937l
 4.53543, 0.0644798h 163.276" fill="none" stroke="#ffb300" stroke-width="2"/>
<path d="M503.933,346.022h 4.53543" fill="none" stroke="#ffb300" stroke-width="2"/>
<rect x="351.996" y="24.9905" width="204.094" height="76.8938" fill="white"/>
<path d="M351.996,101.884h 204.094" fill="none" stroke="black"/>
<path d="M556.091,101.884v -76.8938" fill="none" stroke="black"/>
<path d="M556.091,24.9905h -204.094" fill="none" stroke="black"/>
<path d="M351.996,24.9905v 76.8938" fill="none" stroke="black"/>
<text xml:space="preserve" x="377.638" y="39.0986" fill="black" font-size="16.7253" font-family="Helvetica"> / ndf </text>
<text xml:space="preserve" x="371.122" y="34.2112" fill="black" font-size="11.3169" font-family="Helvetica">2</text>
<text xml:space="preserve" x="362.162" y="39.0986" fill="black" font-size="16.7253" font-family="Times">&#0967;</text>
<text xml:space="preserve" x="468.868" y="40.7277" fill="black" font-size="16.7253" font-family="Helvetica"> 0.9717 / 3</text>
<text xml:space="preserve" x="362.162" y="60.2769" fill="black" font-size="16.7253" font-family="Helvetica">Constant </text>
<text xml:space="preserve" x="512.039" y="60.2769" fill="black" font-size="16.7253" font-family="Helvetica"> 2.81</text>
<text xml:space="preserve" x="503.079" y="60.2769" fill="black" font-size="16.7253" font-family="Times">&#0177;</text>
<text xml:space="preserve" x="452.577" y="60.2769" fill="black" font-size="16.7253" font-family="Helvetica"> 15.06 </text>
<text xml:space="preserve" x="362.162" y="79.0117" fill="black" font-size="16.7253" font-family="Helvetica">Mean     </text>
<text xml:space="preserve" x="518.556" y="79.0117" fill="black" font-size="16.7253" font-family="Helvetica"> 4.4</text>
<text xml:space="preserve" x="509.596" y="79.0117" fill="black" font-size="16.7253" font-family="Times">&#0177;</text>
<text xml:space="preserve" x="459.094" y="79.0117" fill="black" font-size="16.7253" font-family="Helvetica"> 258.2 </text>
<text xml:space="preserve" x="362.162" y="96.9318" fill="black" font-size="16.7253" font-family="Helvetica">Sigma    </text>
<text xml:space="preserve" x="509.596" y="98.561" fill="black" font-size="16.7253" font-family="Helvetica"> 4.36</text>
<text xml:space="preserve" x="500.636" y="98.561" fill="black" font-size="16.7253" font-family="Times">&#0177;</text>
<text xml:space="preserve" x="450.133" y="98.561" fill="black" font-size="16.7253" font-family="Helvetica"> 28.46 </text>
<path d="M57.1929,346.022h 166.299v -16.7388h 15.1181v -50.2164h 15.1181v -8.3694h 15.1181v -8.3694h 15.1181v -16.7388h 15.1181v -8.3694h 15.1181v 25.1082h 15.1181v 58.5858h 15.1181v 16.7388h 15.1181v 8.3694h 151.181" fill="none" stroke="#803e75"/>
<path d="M59.4606,346.022h 104.315l 4.53543, -0.0531674l 4.53543, -0.0407034l 4.53543, -0.0682592l 4.53543, -0.111803l 4.53543, -0.178832l 4.53543, -0.279298l 4.53543, -0.42584l 4.53543, -0.633707l 4.53543, -0.920221l 4.53543, -1.30358l 4.53543,
 -1.80086l 4.53543, -2.42524l 4.53543, -3.18245l 4.53543, -4.06686l 4.53543, -5.05766l 4.53543, -6.11598l 4.53543, -7.18359l 4.53543, -8.18416l 4.53543, -9.02752l 4.53543, -9.61704l 4.53543, -9.85977l 4.53543, -9.67808l 4.53543, -9.02149l 4.53543,
 -7.87646l 4.53543, -6.27254l 4.53543, -4.28328" fill="none" stroke="#803e75" stroke-width="2"/>
<path d="M281.697,238.354l 4.53543, -2.02139l 4.53543, 0.371742l 4.53543, 2.74062l 4.53543, 4.93236l 4.53543, 6.81303l 4.53543, 8.28114l 4.53543, 9.27647l 4.53543, 9.78314l 4.53543, 9.82694l 4.53543, 9.46793l 4.53543, 8.78974l 4.53543, 7.88766l
 4.53543, 6.85731l 4.53543, 5.78521l 4.53543, 4.74242l 4.53543, 3.7812l 4.53543, 2.93461l 4.53543, 2.21841l 4.53543, 1.63429l 4.53543, 1.17383l 4.53543, 0.822291l 4.53543, 0.561987l 4.53543, 0.374819l 4.53543, 0.244011l 4.53543, 0.155088l 4.53543,
 0.0962497l 4.53543, 0.0583366l 4.53543, 0.0345351l 4.53543, 0.0444125h 90.7087" fill="none" stroke="#803e75" stroke-width="2"/>
<path d="M503.933,346.022h 4.53543" fill="none" stroke="#803e75" stroke-width="2"/>
<rect x="351.996" y="24.9905" width="204.094" height="76.8938" fill="white"/>
<path d="M351.996,101.884h 204.094" fill="none" stroke="black"/>
<path d="M556.091,101.884v -76.8938" fill="none" stroke="black"/>
<path d="M556.091,24.9905h -204.094" fill="none" stroke="black"/>
<path d="M351.996,24.9905v 76.8938" fill="none" stroke="black"/>
<text xml:space="preserve" x="377.638" y="39.0986" fill="black" font-size="16.7253" font-family="Helvetica"> / ndf </text>
<text xml:space="preserve" x="371.122" y="34.2112" fill="black" font-size="11.3169" font-family="Helvetica">2</text>
<text xml:space="preserve" x="362.162" y="39.0986" fill="black" font-size="16.7253" font-family="Times">&#0967;</text>
<text xml:space="preserve" x="477.828" y="40.7277" fill="black" font-size="16.7253" font-family="Helvetica"> 3.169 / 6</text>
<text xml:space="preserve" x="362.162" y="60.2769" fill="black" font-size="16.7253" font-family="Helvetica">Constant </text>
<text xml:space="preserve" x="512.039" y="60.2769" fill="black" font-size="16.7253" font-family="Helvetica"> 2.01</text>
<text xml:space="preserve" x="503.079" y="60.2769" fill="black" font-size="16.7253" font-family="Times">&#0177;</text>
<text xml:space="preserve" x="452.577" y="60.2769" fill="black" font-size="16.7253" font-family="Helvetica"> 13.12 </text>
<text xml:space="preserve" x="362.162" y="79.0117" fill="black" font-size="16.7253" font-family="Helvetica">Mean     </text>
<text xml:space="preserve" x="518.556" y="79.0117" fill="black" font-size="16.7253" font-family="Helvetica"> 5.7</text>
<text xml:space="preserve" x="509.596" y="79.0117" fill="black" font-size="16.7253" font-family="Times">&#0177;</text>
<text xml:space="preserve" x="461.537" y="79.0117" fill="black" font-size="16.7253" font-family="Helvetica"> 305.1 </text>
<text xml:space="preserve" x="362.162" y="96.9318" fill="black" font-size="16.7253" font-family="Helvetica">Sigma    </text>
<text xml:space="preserve" x="509.596" y="98.561" fill="black" font-size="16.7253" font-family="Helvetica"> 4.34</text>
<text xml:space="preserve" x="500.636" y="98.561" fill="black" font-size="16.7253" font-family="Times">&#0177;</text>
<text xml:space="preserve" x="450.133" y="98.561" fill="black" font-size="16.7253" font-family="Helvetica"> 40.46 </text>
<path d="M57.1929,346.022h 105.827v -8.3694h 30.2362v -16.7388h 15.1181v -75.3246h 15.1181v 25.1082h 15.1181v -58.5858h 15.1181v 33.4776h 15.1181v -50.2164h 15.1181v 58.5858h 15.1181v 16.7388h 15.1181v 16.7388h 15.1181v 25.1082h 15.1181v 33.4776h
 30.2362v -8.3694h 15.1181v 8.3694h 75.5906v -8.3694h 15.1181v 8.3694h 15.1181v -8.3694h 15.1181" fill="none" stroke="#ff6800"/>
<path d="M59.4606,346.022h 40.8189l 4.53543, -0.0331377l 4.53543, -0.018777l 4.53543, -0.0284008l 4.53543, -0.0423858l 4.53543, -0.0624128l 4.53543, -0.0906708l 4.53543, -0.12995l 4.53543, -0.183725l 4.53543, -0.256222l 4.53543, -0.352439l 4.53543,
 -0.478115l 4.53543, -0.639613l 4.53543, -0.843706l 4.53543, -1.09724l 4.53543, -1.40664l 4.53543, -1.77733l 4.53543, -2.21298l 4.53543, -2.71469l 4.53543, -3.28013l 4.53543, -3.9027l 4.53543, -4.57088l 4.53543, -5.26773l 4.53543, -5.97078l 4.53543,
 -6.65233l 4.53543, -7.28026l 4.53543, -7.81936l 4.53543, -8.23312l 4.53543, -8.48602l 4.53543, -8.54597l 4.53543, -8.387l 4.53543, -7.99163l 4.53543, -7.35301l 4.53543, -6.47629l 4.53543, -5.37932l 4.53543, -4.09233l 4.53543, -2.65668l 4.53543,
 -1.12269l 4.53543, 0.45329l 4.53543, 2.01229l 4.53543, 3.49639" fill="none" stroke="#ff6800" stroke-width="2"/>
<path d="M281.697,226.148l 4.53543, 4.85232l 4.53543, 6.03459l 4.53543, 7.00802l 4.53543, 7.7494l 4.53543, 8.24819l 4.53543, 8.50627l 4.53543, 8.53681l 4.53543, 8.36246l 4.53543, 8.013l 4.53543, 7.52281l 4.53543, 6.92828l 4.53543, 6.26542l 4.53543,
 5.56786l 4.53543, 4.86531l 4.53543, 4.18253l 4.53543, 3.53882l 4.53543, 2.94797l 4.53543, 2.41861l 4.53543, 1.95478l 4.53543, 1.55674l 4.53543, 1.22182l 4.53543, 0.945238l 4.53543, 0.720917l 4.53543, 0.542121l 4.53543, 0.401999l 4.53543, 0.293979l
 4.53543, 0.212036l 4.53543, 0.15085l 4.53543, 0.105865l 4.53543, 0.0732927l 4.53543, 0.050061l 4.53543, 0.0337359l 4.53543, 0.0224317l 4.53543, 0.0401806h 68.0315" fill="none" stroke="#ff6800" stroke-width="2"/>
<path d="M503.933,346.022h 4.53543" fill="none" stroke="#ff6800" stroke-width="2"/>
<rect x="351.996" y="24.9905" width="204.094" height="76.8938" fill="white"/>
<path d="M351.996,101.884h 204.094" fill="none" stroke="black"/>
<path d="M556.091,101.884v -76.8938" fill="none" stroke="black"/>
<path d="M556.091,24.9905h -204.094" fill="none" stroke="black"/>
<path d="M351.996,24.9905v 76.8938" fill="none" stroke="black"/>
<text xml:space="preserve" x="377.638" y="39.0986" fill="black" font-size="16.7253" font-family="Helvetica"> / ndf </text>
<text xml:space="preserve" x="371.122" y="34.2112" fill="black" font-size="11.3169" font-family="Helvetica">2</text>
<text xml:space="preserve" x="362.162" y="39.0986" fill="black" font-size="16.7253" font-family="Times">&#0967;</text>
<text xml:space="preserve" x="468.868" y="40.7277" fill="black" font-size="16.7253" font-family="Helvetica"> 8.321 / 12</text>
<text xml:space="preserve" x="362.162" y="60.2769" fill="black" font-size="16.7253" font-family="Helvetica">Constant </text>
<text xml:space="preserve" x="509.596" y="60.2769" fill="black" font-size="16.7253" font-family="Helvetica"> 1.96</text>
<text xml:space="preserve" x="500.636" y="60.2769" fill="black" font-size="16.7253" font-family="Times">&#0177;</text>
<text xml:space="preserve" x="450.133" y="60.2769" fill="black" font-size="16.7253" font-family="Helvetica"> 15.04 </text>
<text xml:space="preserve" x="362.162" y="79.0117" fill="black" font-size="16.7253" font-family="Helvetica">Mean     </text>
<text xml:space="preserve" x="518.556" y="79.0117" fill="black" font-size="16.7253" font-family="Helvetica"> 6.5</text>
<text xml:space="preserve" x="509.596" y="79.0117" fill="black" font-size="16.7253" font-family="Times">&#0177;</text>
<text xml:space="preserve" x="459.094" y="79.0117" fill="black" font-size="16.7253" font-family="Helvetica"> 280.3 </text>
<text xml:space="preserve" x="362.162" y="96.9318" fill="black" font-size="16.7253" font-family="Helvetica">Sigma    </text>
<text xml:space="preserve" x="509.596" y="98.561" fill="black" font-size="16.7253" font-family="Helvetica"> 5.32</text>
<text xml:space="preserve" x="500.636" y="98.561" fill="black" font-size="16.7253" font-family="Times">&#0177;</text>
<text xml:space="preserve" x="452.577" y="98.561" fill="black" font-size="16.7253" font-family="Helvetica"> 53.51 </text>
<path d="M57.1929,337.653h 15.1181v 8.3694h 60.4724v -8.3694h 15.1181v 8.3694h 30.2362v -8.3694h 15.1181v -16.7388h 15.1181v -25.1082h 15.1181v -108.802h 15.1181v -25.1082h 15.1181v -41.847h 30.2362v -16.7388h 15.1181v 100.433h 15.1181v 83.694h
 15.1181v -50.2164h 15.1181v 58.5858h 15.1181v 16.7388h 15.1181v 33.4776h 136.063" fill="none" stroke="#a6bdd7"/>
<path d="M59.4606,346.022h 58.9606l 4.53543, -0.0433974l 4.53543, -0.0286031l 4.53543, -0.0456319l 4.53543, -0.0716184l 4.53543, -0.110574l 4.53543, -0.167929l 4.53543, -0.250844l 4.53543, -0.368513l 4.53543, -0.532389l 4.53543, -0.756286l 4.53543,
 -1.05626l 4.53543, -1.45018l 4.53543, -1.95693l 4.53543, -2.59507l 4.53543, -3.38109l 4.53543, -4.32709l 4.53543, -5.43809l 4.53543, -6.70917l 4.53543, -8.12266l 4.53543, -9.64577l 4.53543, -11.2291l 4.53543, -12.8066l 4.53543, -14.2966l 4.53543,
 -15.606l 4.53543, -16.6347l 4.53543, -17.2831l 4.53543, -17.4604l 4.53543, -17.093l 4.53543, -16.1333l 4.53543, -14.5662l 4.53543, -12.414l 4.53543, -9.73761l 4.53543, -6.63447l 4.53543, -3.23315l 4.53543, 0.315598l 4.53543, 3.8499" fill="none"
 stroke="#a6bdd7" stroke-width="2"/>
<path d="M281.697,118.001l 4.53543, 7.20895l 4.53543, 10.2452l 4.53543, 12.835l 4.53543, 14.8871l 4.53543, 16.3473l 4.53543, 17.2001l 4.53543, 17.4668l 4.53543, 17.2003l 4.53543, 16.4777l 4.53543, 15.392l 4.53543, 14.0435l 4.53543, 12.5315l 4.53543,
 10.9474l 4.53543, 9.3704l 4.53543, 7.86357l 4.53543, 6.47334l 4.53543, 5.22967l 4.53543, 4.14782l 4.53543, 3.23071l 4.53543, 2.47188l 4.53543, 1.85827l 4.53543, 1.37285l 4.53543, 0.996903l 4.53543, 0.71164l 4.53543, 0.499465l 4.53543, 0.344698l
 4.53543, 0.233942l 4.53543, 0.156155l 4.53543, 0.102522l 4.53543, 0.0662101l 4.53543, 0.042064l 4.53543, 0.0262908l 4.53543, 0.0396174h 72.5669" fill="none" stroke="#a6bdd7" stroke-width="2"/>
<path d="M503.933,346.022h 4.53543" fill="none" stroke="#a6bdd7" stroke-width="2"/>
<rect x="351.996" y="24.9905" width="204.094" height="76.8938" fill="white"/>
<path d="M351.996,101.884h 204.094" fill="none" stroke="black"/>
<path d="M556.091,101.884v -76.8938" fill="none" stroke="black"/>
<path d="M556.091,24.9905h -204.094" fill="none" stroke="black"/>
<path d="M351.996,24.9905v 76.8938" fill="none" stroke="black"/>
<text xml:space="preserve" x="377.638" y="39.0986" fill="black" font-size="16.7253" font-family="Helvetica"> / ndf </text>
<text xml:space="preserve" x="371.122" y="34.2112" fill="black" font-size="11.3169" font-family="Helvetica">2</text>
<text xml:space="preserve" x="362.162" y="39.0986" fill="black" font-size="16.7253" font-family="Times">&#0967;</text>
<text xml:space="preserve" x="472.941" y="40.7277" fill="black" font-size="16.7253" font-family="Helvetica">  15.7 / 12</text>
<text xml:space="preserve" x="362.162" y="60.2769" fill="black" font-size="16.7253" font-family="Helvetica">Constant </text>
<text xml:space="preserve" x="509.596" y="60.2769" fill="black" font-size="16.7253" font-family="Helvetica"> 2.98</text>
<text xml:space="preserve" x="500.636" y="60.2769" fill="black" font-size="16.7253" font-family="Times">&#0177;</text>
<text xml:space="preserve" x="450.133" y="60.2769" fill="black" font-size="16.7253" font-family="Helvetica"> 27.78 </text>
<text xml:space="preserve" x="362.162" y="79.0117" fill="black" font-size="16.7253" font-family="Helvetica">Mean     </text>
<text xml:space="preserve" x="518.556" y="79.0117" fill="black" font-size="16.7253" font-family="Helvetica"> 4.3</text>
<text xml:space="preserve" x="509.596" y="79.0117" fill="black" font-size="16.7253" font-family="Times">&#0177;</text>
<text xml:space="preserve" x="459.094" y="79.0117" fill="black" font-size="16.7253" font-family="Helvetica"> 287.5 </text>
<text xml:space="preserve" x="362.162" y="96.9318" fill="black" font-size="16.7253" font-family="Helvetica">Sigma    </text>
<text xml:space="preserve" x="509.596" y="98.561" fill="black" font-size="16.7253" font-family="Helvetica"> 3.80</text>
<text xml:space="preserve" x="500.636" y="98.561" fill="black" font-size="16.7253" font-family="Times">&#0177;</text>
<text xml:space="preserve" x="450.133" y="98.561" fill="black" font-size="16.7253" font-family="Helvetica"> 48.38 </text>
<path d="M57.1929,337.653h 15.1181v 8.3694h 45.3543v -8.3694h 15.1181v 8.3694h 30.2362v -8.3694h 15.1181v -8.3694h 15.1181v -100.433h 15.1181v 16.7388h 15.1181v -142.28h 15.1181v -41.847h 15.1181v -8.3694h 15.1181v 92.0634h 15.1181v 92.0634h 15.1181v
 58.5858h 15.1181v 33.4776h 15.1181v 8.3694h 15.1181v 8.3694h 166.299" fill="none" stroke="#c10020"/>
<path d="M59.4606,346.022h 63.4961l 4.53543, -0.03402l 4.53543, -0.0309474l 4.53543, -0.0561587l 4.53543, -0.0993494l 4.53543, -0.171324l 4.53543, -0.287948l 4.53543, -0.471614l 4.53543, -0.752594l 4.53543, -1.16989l 4.53543, -1.77109l 4.53543,
 -2.61054l 4.53543, -3.74517l 4.53543, -5.2276l 4.53543, -7.09623l 4.53543, -9.36291l 4.53543, -11.9995l 4.53543, -14.9254l 4.53543, -17.9988l 4.53543, -21.0154l 4.53543, -23.7158l 4.53543, -25.8048l 4.53543, -26.9815l 4.53543, -26.9767l 4.53543,
 -25.5937l 4.53543, -22.7455l 4.53543, -18.4808l 4.53543, -12.9931l 4.53543, -6.60966l 4.53543, 0.240427l 4.53543, 7.07341l 4.53543, 13.4076l 4.53543, 18.8195l 4.53543, 22.9904l 4.53543, 25.7368l 4.53543, 27.0198" fill="none" stroke="#c10020"
 stroke-width="2"/>
<path d="M281.697,172.582l 4.53543, 26.9352l 4.53543, 25.6859l 4.53543, 23.5445l 4.53543, 20.8129l 4.53543, 17.7845l 4.53543, 14.7154l 4.53543, 11.8058l 4.53543, 9.19296l 4.53543, 6.95355l 4.53543, 5.1125l 4.53543, 3.65569l 4.53543, 2.54335l 4.53543,
 1.7223l 4.53543, 1.13556l 4.53543, 0.729175l 4.53543, 0.456111l 4.53543, 0.277981l 4.53543, 0.165098l 4.53543, 0.0955692l 4.53543, 0.0539263l 4.53543, 0.029665l 4.53543, 0.0324965h 122.457" fill="none" stroke="#c10020" stroke-width="2"/>
<path d="M503.933,346.022h 4.53543" fill="none" stroke="#c10020" stroke-width="2"/>
<rect x="351.996" y="24.9905" width="204.094" height="76.8938" fill="white"/>
<path d="M351.996,101.884h 204.094" fill="none" stroke="black"/>
<path d="M556.091,101.884v -76.8938" fill="none" stroke="black"/>
<path d="M556.091,24.9905h -204.094" fill="none" stroke="black"/>
<path d="M351.996,24.9905v 76.8938" fill="none" stroke="black"/>
<text xml:space="preserve" x="377.638" y="39.0986" fill="black" font-size="16.7253" font-family="Helvetica"> / ndf </text>
<text xml:space="preserve" x="371.122" y="34.2112" fill="black" font-size="11.3169" font-family="Helvetica">2</text>
<text xml:space="preserve" x="362.162" y="39.0986" fill="black" font-size="16.7253" font-family="Times">&#0967;</text>
<text xml:space="preserve" x="471.312" y="40.7277" fill="black" font-size="16.7253" font-family="Helvetica"> 7.374 / 11</text>
<text xml:space="preserve" x="362.162" y="60.2769" fill="black" font-size="16.7253" font-family="Helvetica">Constant </text>
<text xml:space="preserve" x="512.039" y="60.2769" fill="black" font-size="16.7253" font-family="Helvetica"> 3.41</text>
<text xml:space="preserve" x="503.079" y="60.2769" fill="black" font-size="16.7253" font-family="Times">&#0177;</text>
<text xml:space="preserve" x="452.577" y="60.2769" fill="black" font-size="16.7253" font-family="Helvetica"> 34.59 </text>
<text xml:space="preserve" x="362.162" y="79.0117" fill="black" font-size="16.7253" font-family="Helvetica">Mean     </text>
<text xml:space="preserve" x="518.556" y="79.0117" fill="black" font-size="16.7253" font-family="Helvetica"> 3.0</text>
<text xml:space="preserve" x="509.596" y="79.0117" fill="black" font-size="16.7253" font-family="Times">&#0177;</text>
<text xml:space="preserve" x="459.094" y="79.0117" fill="black" font-size="16.7253" font-family="Helvetica"> 257.8 </text>
<text xml:space="preserve" x="362.162" y="96.9318" fill="black" font-size="16.7253" font-family="Helvetica">Sigma    </text>
<text xml:space="preserve" x="509.596" y="98.561" fill="black" font-size="16.7253" font-family="Helvetica"> 2.42</text>
<text xml:space="preserve" x="500.636" y="98.561" fill="black" font-size="16.7253" font-family="Times">&#0177;</text>
<text xml:space="preserve" x="450.133" y="98.561" fill="black" font-size="16.7253" font-family="Helvetica"> 38.74 </text>
<path d="M57.1929,346.022h 90.7087v -16.7388h 15.1181v 16.7388h 15.1181v -8.3694h 15.1181v -33.4776h 15.1181v -25.1082h 15.1181v -92.0634h 15.1181v -100.433h 15.1181v 16.7388h 30.2362v 50.2164h 15.1181v 108.802h 15.1181v 33.4776h 15.1181v 25.1082h
 15.1181v 25.1082h 166.299" fill="none" stroke="#cea262"/>
<path d="M59.4606,346.022h 68.0315l 4.53543, -0.0324282l 4.53543, -0.0272303l 4.53543, -0.0477766l 4.53543, -0.0819495l 4.53543, -0.137405l 4.53543, -0.225181l 4.53543, -0.360645l 4.53543, -0.564398l 4.53543, -0.862932l 4.53543, -1.28876l 4.53543,
 -1.87965l 4.53543, -2.67661l 4.53543, -3.72023l 4.53543, -5.04524l 4.53543, -6.67336l 4.53543, -8.60493l 4.53543, -10.8102l 4.53543, -13.2216l 4.53543, -15.7293l 4.53543, -18.1803l 4.53543, -20.385l 4.53543, -22.1292l 4.53543, -23.1938l 4.53543,
 -23.3785l 4.53543, -22.5288l 4.53543, -20.5604l 4.53543, -17.4782l 4.53543, -13.3861l 4.53543, -8.484l 4.53543, -3.05313l 4.53543, 2.57089l 4.53543, 8.03218l 4.53543, 12.9919l 4.53543, 17.163" fill="none" stroke="#cea262" stroke-width="2"/>
<path d="M281.697,122.033l 4.53543, 20.3378l 4.53543, 22.4038l 4.53543, 23.3477l 4.53543, 23.2469l 4.53543, 22.2508l 4.53543, 20.5567l 4.53543, 18.383l 4.53543, 15.9453l 4.53543, 13.4359l 4.53543, 11.0112l 4.53543, 8.78493l 4.53543, 6.82811l 4.53543,
 5.17347l 4.53543, 3.82295l 4.53543, 2.75631l 4.53543, 1.93964l 4.53543, 1.33262l 4.53543, 0.894119l 4.53543, 0.585976l 4.53543, 0.375183l 4.53543, 0.234724l 4.53543, 0.143511l 4.53543, 0.0857599l 4.53543, 0.050096l 4.53543, 0.0286079l 4.53543,
 0.0342066h 104.315" fill="none" stroke="#cea262" stroke-width="2"/>
<path d="M503.933,346.022h 4.53543" fill="none" stroke="#cea262" stroke-width="2"/>
<rect x="351.996" y="24.9905" width="204.094" height="76.8938" fill="white"/>
<path d="M351.996,101.884h 204.094" fill="none" stroke="black"/>
<path d="M556.091,101.884v -76.8938" fill="none" stroke="black"/>
<path d="M556.091,24.9905h -204.094" fill="none" stroke="black"/>
<path d="M351.996,24.9905v 76.8938" fill="none" stroke="black"/>
<text xml:space="preserve" x="377.638" y="39.0986" fill="black" font-size="16.7253" font-family="Helvetica"> / ndf </text>
<text xml:space="preserve" x="371.122" y="34.2112" fill="black" font-size="11.3169" font-family="Helvetica">2</text>
<text xml:space="preserve" x="362.162" y="39.0986" fill="black" font-size="16.7253" font-family="Times">&#0967;</text>
<text xml:space="preserve" x="477.828" y="40.7277" fill="black" font-size="16.7253" font-family="Helvetica"> 4.293 / 9</text>
<text xml:space="preserve" x="362.162" y="60.2769" fill="black" font-size="16.7253" font-family="Helvetica">Constant </text>
<text xml:space="preserve" x="509.596" y="60.2769" fill="black" font-size="16.7253" font-family="Helvetica"> 3.19</text>
<text xml:space="preserve" x="500.636" y="60.2769" fill="black" font-size="16.7253" font-family="Times">&#0177;</text>
<text xml:space="preserve" x="450.133" y="60.2769" fill="black" font-size="16.7253" font-family="Helvetica"> 31.63 </text>
<text xml:space="preserve" x="362.162" y="79.0117" fill="black" font-size="16.7253" font-family="Helvetica">Mean     </text>
<text xml:space="preserve" x="518.556" y="79.0117" fill="black" font-size="16.7253" font-family="Helvetica"> 3.4</text>
<text xml:space="preserve" x="509.596" y="79.0117" fill="black" font-size="16.7253" font-family="Times">&#0177;</text>
<text xml:space="preserve" x="459.094" y="79.0117" fill="black" font-size="16.7253" font-family="Helvetica"> 273.3 </text>
<text xml:space="preserve" x="362.162" y="96.9318" fill="black" font-size="16.7253" font-family="Helvetica">Sigma    </text>
<text xml:space="preserve" x="509.596" y="98.561" fill="black" font-size="16.7253" font-family="Helvetica"> 2.75</text>
<text xml:space="preserve" x="500.636" y="98.561" fill="black" font-size="16.7253" font-family="Times">&#0177;</text>
<text xml:space="preserve" x="450.133" y="98.561" fill="black" font-size="16.7253" font-family="Helvetica"> 41.06 </text>
<path d="M57.1929,346.022h 181.417v -16.7388h 15.1181v -92.0634h 15.1181v -8.3694h 15.1181v 25.1082h 15.1181v 58.5858h 15.1181v 33.4776h 196.535" fill="none" stroke="#817066"/>
<path d="M59.4606,346.022h 145.134l 4.53543, -0.0329704l 4.53543, -0.062106l 4.53543, -0.159945l 4.53543, -0.381238l 4.53543, -0.840286l 4.53543, -1.71069l 4.53543, -3.21212l 4.53543, -5.55189l 4.53543, -8.8096l 4.53543, -12.7844l 4.53543, -16.8712l
 4.53543, -20.0639l 4.53543, -21.1668l 4.53543, -19.2l 4.53543, -13.8581l 4.53543, -5.79146l 4.53543, 3.47758" fill="none" stroke="#817066" stroke-width="2"/>
<path d="M281.697,219.003l 4.53543, 12.0203l 4.53543, 18.1549l 4.53543, 20.9851l 4.53543, 20.5882l 4.53543, 17.8132l 4.53543, 13.8453l 4.53543, 9.76731l 4.53543, 6.29401l 4.53543, 3.72033l 4.53543, 2.02304l 4.53543, 1.01417l 4.53543, 0.469445l
 4.53543, 0.200886l 4.53543, 0.0795455l 4.53543, 0.04344h 154.205" fill="none" stroke="#817066" stroke-width="2"/>
<path d="M503.933,346.022h 4.53543" fill="none" stroke="#817066" stroke-width="2"/>
<rect x="351.996" y="24.9905" width="204.094" height="76.8938" fill="white"/>
<path d="M351.996,101.884h 204.094" fill="none" stroke="black"/>
<path d="M556.091,101.884v -76.8938" fill="none" stroke="black"/>
<path d="M556.091,24.9905h -204.094" fill="none" stroke="black"/>
<path d="M351.996,24.9905v 76.8938" fill="none" stroke="black"/>
<text xml:space="preserve" x="377.638" y="39.0986" fill="black" font-size="16.7253" font-family="Helvetica"> / ndf </text>
<text xml:space="preserve" x="371.122" y="34.2112" fill="black" font-size="11.3169" font-family="Helvetica">2</text>
<text xml:space="preserve" x="362.162" y="39.0986" fill="black" font-size="16.7253" font-family="Times">&#0967;</text>
<text xml:space="preserve" x="477.828" y="40.7277" fill="black" font-size="16.7253" font-family="Helvetica"> 1.306 / 2</text>
<text xml:space="preserve" x="362.162" y="60.2769" fill="black" font-size="16.7253" font-family="Helvetica">Constant </text>
<text xml:space="preserve" x="518.556" y="60.2769" fill="black" font-size="16.7253" font-family="Helvetica"> 3.0</text>
<text xml:space="preserve" x="509.596" y="60.2769" fill="black" font-size="16.7253" font-family="Times">&#0177;</text>
<text xml:space="preserve" x="463.166" y="60.2769" fill="black" font-size="16.7253" font-family="Helvetica">  15.6 </text>
<text xml:space="preserve" x="362.162" y="79.0117" fill="black" font-size="16.7253" font-family="Helvetica">Mean     </text>
<text xml:space="preserve" x="518.556" y="79.0117" fill="black" font-size="16.7253" font-family="Helvetica"> 3.8</text>
<text xml:space="preserve" x="509.596" y="79.0117" fill="black" font-size="16.7253" font-family="Times">&#0177;</text>
<text xml:space="preserve" x="459.094" y="79.0117" fill="black" font-size="16.7253" font-family="Helvetica"> 291.8 </text>
<text xml:space="preserve" x="362.162" y="96.9318" fill="black" font-size="16.7253" font-family="Helvetica">Sigma    </text>
<text xml:space="preserve" x="518.556" y="98.561" fill="black" font-size="16.7253" font-family="Helvetica"> 3.0</text>
<text xml:space="preserve" x="509.596" y="98.561" fill="black" font-size="16.7253" font-family="Times">&#0177;</text>
<text xml:space="preserve" x="463.166" y="98.561" fill="black" font-size="16.7253" font-family="Helvetica">  22.3 </text>
<path d="M57.1929,346.022h 90.7087v -8.3694h 15.1181v 8.3694h 15.1181v -8.3694h 15.1181v -8.3694h 15.1181v -41.847h 15.1181v -41.847h 15.1181v -8.3694h 15.1181v -66.9552h 15.1181v 25.1082h 15.1181v 41.847h 15.1181v 16.7388h 15.1181v 58.5858h 15.1181v
 -8.3694h 15.1181v 33.4776h 15.1181v 8.3694h 151.181" fill="none" stroke="#007d34"/>
<path d="M59.4606,346.022h 63.4961l 4.53543, -0.0394494l 4.53543, -0.0272984l 4.53543, -0.0442545l 4.53543, -0.0704345l 4.53543, -0.110049l 4.53543, -0.168778l 4.53543, -0.254059l 4.53543, -0.375311l 4.53543, -0.544039l 4.53543, -0.773724l 4.53543,
 -1.07942l 4.53543, -1.47691l 4.53543, -1.98148l 4.53543, -2.60605l 4.53543, -3.35898l 4.53543, -4.24142l 4.53543, -5.24464l 4.53543, -6.34753l 4.53543, -7.51479l 4.53543, -8.69619l 4.53543, -9.82736l 4.53543, -10.8324l 4.53543, -11.6286l 4.53543,
 -12.1322l 4.53543, -12.2668l 4.53543, -11.9709l 4.53543, -11.2059l 4.53543, -9.96282l 4.53543, -8.26565l 4.53543, -6.17261l 4.53543, -3.77328l 4.53543, -1.18241l 4.53543, 1.46914l 4.53543, 4.04534l 4.53543, 6.41658" fill="none" stroke="#007d34"
 stroke-width="2"/>
<path d="M281.697,203.778l 4.53543, 8.47044l 4.53543, 10.1205l 4.53543, 11.3123l 4.53543, 12.0252l 4.53543, 12.2721l 4.53543, 12.0941l 4.53543, 11.5548l 4.53543, 10.7319l 4.53543, 9.70919l 4.53543, 8.56906l 4.53543, 7.38632l 4.53543, 6.22389l
 4.53543, 5.13038l 4.53543, 4.13949l 4.53543, 3.27089l 4.53543, 2.53211l 4.53543, 1.92108l 4.53543, 1.42882l 4.53543, 1.04206l 4.53543, 0.745381l 4.53543, 0.523021l 4.53543, 0.360069l 4.53543, 0.243243l 4.53543, 0.161264l 4.53543, 0.104937l 4.53543,
 0.0670278l 4.53543, 0.0420299l 4.53543, 0.0258745l 4.53543, 0.0372208h 90.7087" fill="none" stroke="#007d34" stroke-width="2"/>
<path d="M503.933,346.022h 4.53543" fill="none" stroke="#007d34" stroke-width="2"/>
<rect x="351.996" y="24.9905" width="204.094" height="76.8938" fill="white"/>
<path d="M351.996,101.884h 204.094" fill="none" stroke="black"/>
<path d="M556.091,101.884v -76.8938" fill="none" stroke="black"/>
<path d="M556.091,24.9905h -204.094" fill="none" stroke="black"/>
<path d="M351.996,24.9905v 76.8938" fill="none" stroke="black"/>
<text xml:space="preserve" x="377.638" y="39.0986" fill="black" font-size="16.7253" font-family="Helvetica"> / ndf </text>
<text xml:space="preserve" x="371.122" y="34.2112" fill="black" font-size="11.3169" font-family="Helvetica">2</text>
<text xml:space="preserve" x="362.162" y="39.0986" fill="black" font-size="16.7253" font-family="Times">&#0967;</text>
<text xml:space="preserve" x="468.868" y="40.7277" fill="black" font-size="16.7253" font-family="Helvetica"> 4.358 / 10</text>
<text xml:space="preserve" x="362.162" y="60.2769" fill="black" font-size="16.7253" font-family="Helvetica">Constant </text>
<text xml:space="preserve" x="512.039" y="60.2769" fill="black" font-size="16.7253" font-family="Helvetica"> 2.31</text>
<text xml:space="preserve" x="503.079" y="60.2769" fill="black" font-size="16.7253" font-family="Times">&#0177;</text>
<text xml:space="preserve" x="452.577" y="60.2769" fill="black" font-size="16.7253" font-family="Helvetica"> 18.42 </text>
<text xml:space="preserve" x="362.162" y="79.0117" fill="black" font-size="16.7253" font-family="Helvetica">Mean     </text>
<text xml:space="preserve" x="518.556" y="79.0117" fill="black" font-size="16.7253" font-family="Helvetica"> 4.6</text>
<text xml:space="preserve" x="509.596" y="79.0117" fill="black" font-size="16.7253" font-family="Times">&#0177;</text>
<text xml:space="preserve" x="459.094" y="79.0117" fill="black" font-size="16.7253" font-family="Helvetica"> 278.7 </text>
<text xml:space="preserve" x="362.162" y="96.9318" fill="black" font-size="16.7253" font-family="Helvetica">Sigma    </text>
<text xml:space="preserve" x="512.039" y="98.561" fill="black" font-size="16.7253" font-family="Helvetica"> 3.81</text>
<text xml:space="preserve" x="503.079" y="98.561" fill="black" font-size="16.7253" font-family="Times">&#0177;</text>
<text xml:space="preserve" x="452.577" y="98.561" fill="black" font-size="16.7253" font-family="Helvetica"> 45.65 </text>
<path d="M57.1929,346.022h 453.543" fill="none" stroke="black"/>
<path d="M57.1929,336.795v 9.22726" fill="none" stroke="black"/>
<path d="M72.311,341.409v 4.61363" fill="none" stroke="black"/>
<path d="M87.4291,341.409v 4.61363" fill="none" stroke="black"/>
<path d="M102.547,341.409v 4.61363" fill="none" stroke="black"/>
<path d="M117.665,341.409v 4.61363" fill="none" stroke="black"/>
<path d="M132.783,336.795v 9.22726" fill="none" stroke="black"/>
<path d="M147.902,341.409v 4.61363" fill="none" stroke="black"/>
<path d="M163.02,341.409v 4.61363" fill="none" stroke="black"/>
<path d="M178.138,341.409v 4.61363" fill="none" stroke="black"/>
<path d="M193.256,341.409v 4.61363" fill="none" stroke="black"/>
<path d="M208.374,336.795v 9.22726" fill="none" stroke="black"/>
<path d="M223.492,341.409v 4.61363" fill="none" stroke="black"/>
<path d="M238.61,341.409v 4.61363" fill="none" stroke="black"/>
<path d="M253.728,341.409v 4.61363" fill="none" stroke="black"/>
<path d="M268.846,341.409v 4.61363" fill="none" stroke="black"/>
<path d="M283.965,336.795v 9.22726" fill="none" stroke="black"/>
<path d="M299.083,341.409v 4.61363" fill="none" stroke="black"/>
<path d="M314.201,341.409v 4.61363" fill="none" stroke="black"/>
<path d="M329.319,341.409v 4.61363" fill="none" stroke="black"/>
<path d="M344.437,341.409v 4.61363" fill="none" stroke="black"/>
<path d="M359.555,336.795v 9.22726" fill="none" stroke="black"/>
<path d="M374.673,341.409v 4.61363" fill="none" stroke="black"/>
<path d="M389.791,341.409v 4.61363" fill="none" stroke="black"/>
<path d="M404.909,341.409v 4.61363" fill="none" stroke="black"/>
<path d="M420.028,341.409v 4.61363" fill="none" stroke="black"/>
<path d="M435.146,336.795v 9.22726" fill="none" stroke="black"/>
<path d="M450.264,341.409v 4.61363" fill="none" stroke="black"/>
<path d="M465.382,341.409v 4.61363" fill="none" stroke="black"/>
<path d="M480.5,341.409v 4.61363" fill="none" stroke="black"/>
<path d="M495.618,341.409v 4.61363" fill="none" stroke="black"/>
<path d="M510.736,336.795v 9.22726" fill="none" stroke="black"/>
<path d="M57.1929,346.022v -307.575" fill="none" stroke="black"/>
<path d="M70.7992,346.022h -13.6063" fill="none" stroke="black"/>
<path d="M63.9961,337.653h -6.80315" fill="none" stroke="black"/>
<path d="M63.9961,329.283h -6.80315" fill="none" stroke="black"/>
<path d="M63.9961,320.914h -6.80315" fill="none" stroke="black"/>
<path d="M63.9961,312.545h -6.80315" fill="none" stroke="black"/>
<path d="M70.7992,304.175h -13.6063" fill="none" stroke="black"/>
<path d="M63.9961,295.806h -6.80315" fill="none" stroke="black"/>
<path d="M63.9961,287.436h -6.80315" fill="none" stroke="black"/>
<path d="M63.9961,279.067h -6.80315" fill="none" stroke="black"/>
<path d="M63.9961,270.698h -6.80315" fill="none" stroke="black"/>
<path d="M70.7992,262.328h -13.6063" fill="none" stroke="black"/>
<path d="M63.9961,253.959h -6.80315" fill="none" stroke="black"/>
<path d="M63.9961,245.589h -6.80315" fill="none" stroke="black"/>
<path d="M63.9961,237.22h -6.80315" fill="none" stroke="black"/>
<path d="M63.9961,228.851h -6.80315" fill="none" stroke="black"/>
<path d="M70.7992,220.481h -13.6063" fill="none" stroke="black"/>
<path d="M63.9961,212.112h -6.80315" fill="none" stroke="black"/>
<path d="M63.9961,203.743h -6.80315" fill="none" stroke="black"/>
<path d="M63.9961,195.373h -6.80315" fill="none" stroke="black"/>
<path d="M63.9961,187.004h -6.80315" fill="none" stroke="black"/>
<path d="M70.7992,178.634h -13.6063" fill="none" stroke="black"/>
<path d="M63.9961,170.265h -6.80315" fill="none" stroke="black"/>
<path d="M63.9961,161.896h -6.80315" fill="none" stroke="black"/>
<path d="M63.9961,153.526h -6.80315" fill="none" stroke="black"/>
<path d="M63.9961,145.157h -6.80315" fill="none" stroke="black"/>
<path d="M70.7992,136.787h -13.6063" fill="none" stroke="black"/>
<path d="M63.9961,128.418h -6.80315" fill="none" stroke="black"/>
<path d="M63.9961,120.049h -6.80315" fill="none" stroke="black"/>
<path d="M63.9961,111.679h -6.80315" fill="none" stroke="black"/>
<path d="M63.9961,103.31h -6.80315" fill="none" stroke="black"/>
<path d="M70.7992,94.9403h -13.6063" fill="none" stroke="black"/>
<path d="M63.9961,86.571h -6.80315" fill="none" stroke="black"/>
<path d="M63.9961,78.2016h -6.80315" fill="none" stroke="black"/>
<path d="M63.9961,69.8322h -6.80315" fill="none" stroke="black"/>
<path d="M63.9961,61.4628h -6.80315" fill="none" stroke="black"/>
<path d="M70.7992,53.0934h -13.6063" fill="none" stroke="black"/>
<path d="M70.7992,53.0934h -13.6063" fill="none" stroke="black"/>
<path d="M63.9961,44.724h -6.80315" fill="none" stroke="black"/>
<rect x="58.0145" y="140.127" width="170.079" height="80.7385" fill="white"/>
<path d="M58.0145,220.865h 170.079" fill="none" stroke="black"/>
<path d="M228.093,220.865v -80.7385" fill="none" stroke="black"/>
<path d="M228.093,140.127h -170.079" fill="none" stroke="black"/>
<path d="M58.0145,140.127v 80.7385" fill="none" stroke="black"/>
<text xml:space="preserve" x="99.8755" y="147.434" fill="black" font-size="8.72026" font-family="Helvetica">vop 68.93</text>
<path d="M64.3925,148.705h 29.7638v -7.06462h -29.7638z" fill="white"/>
<path d="M64.3925,145.173h 29.7638" fill="none" stroke="#ffb300"/>
<g stroke="black" stroke-width="1" fill="none">
<line x1="78.2744" y1="145.173" x2="79.2744" y2="145.173"/>
</g>
<text xml:space="preserve" x="99.8755" y="157.209" fill="black" font-size="8.72026" font-family="Helvetica">vop 68.98</text>
<path d="M64.3925,158.798h 29.7638v -7.06462h -29.7638z" fill="white"/>
<path d="M64.3925,155.265h 29.7638" fill="none" stroke="#803e75"/>
<g stroke="black" stroke-width="1" fill="none">
<line x1="78.2744" y1="155.265" x2="79.2744" y2="155.265"/>
</g>
<text xml:space="preserve" x="99.8755" y="166.983" fill="black" font-size="8.72026" font-family="Helvetica">vop 69.03</text>
<path d="M64.3925,168.89h 29.7638v -7.06462h -29.7638z" fill="white"/>
<path d="M64.3925,165.358h 29.7638" fill="none" stroke="#ff6800"/>
<g stroke="black" stroke-width="1" fill="none">
<line x1="78.2744" y1="165.358" x2="79.2744" y2="165.358"/>
</g>
<text xml:space="preserve" x="99.8755" y="177.573" fill="black" font-size="8.72026" font-family="Helvetica">vop 69.08</text>
<path d="M64.3925,178.982h 29.7638v -7.06462h -29.7638z" fill="white"/>
<path d="M64.3925,175.45h 29.7638" fill="none" stroke="#a6bdd7"/>
<g stroke="black" stroke-width="1" fill="none">
<line x1="78.2744" y1="175.45" x2="79.2744" y2="175.45"/>
</g>
<text xml:space="preserve" x="99.8755" y="187.347" fill="black" font-size="8.72026" font-family="Helvetica">vop 69.13</text>
<path d="M64.3925,189.074h 29.7638v -7.06462h -29.7638z" fill="white"/>
<path d="M64.3925,185.542h 29.7638" fill="none" stroke="#c10020"/>
<g stroke="black" stroke-width="1" fill="none">
<line x1="78.2744" y1="185.542" x2="79.2744" y2="185.542"/>
</g>
<text xml:space="preserve" x="99.8755" y="197.122" fill="black" font-size="8.72026" font-family="Helvetica">vop 69.18</text>
<path d="M64.3925,199.167h 29.7638v -7.06462h -29.7638z" fill="white"/>
<path d="M64.3925,195.634h 29.7638" fill="none" stroke="#cea262"/>
<g stroke="black" stroke-width="1" fill="none">
<line x1="78.2744" y1="195.634" x2="79.2744" y2="195.634"/>
</g>
<text xml:space="preserve" x="99.8755" y="207.711" fill="black" font-size="8.72026" font-family="Helvetica">vop 69.23</text>
<path d="M64.3925,209.259h 29.7638v -7.06462h -29.7638z" fill="white"/>
<path d="M64.3925,205.727h 29.7638" fill="none" stroke="#817066"/>
<g stroke="black" stroke-width="1" fill="none">
<line x1="78.2744" y1="205.727" x2="79.2744" y2="205.727"/>
</g>
<text xml:space="preserve" x="99.8755" y="217.486" fill="black" font-size="8.72026" font-family="Helvetica">vop 69.33</text>
<path d="M64.3925,219.351h 29.7638v -7.06462h -29.7638z" fill="white"/>
<path d="M64.3925,215.819h 29.7638" fill="none" stroke="#007d34"/>
<g stroke="black" stroke-width="1" fill="none">
<line x1="78.2744" y1="215.819" x2="79.2744" y2="215.819"/>
</g>
<text xml:space="preserve" x="148.749" y="17.9202" fill="black" font-size="18.7938" font-family="Helvetica">distributions of mpv for each vop</text></svg>
