<?xml version="1.0" standalone="no"?>
<svg width="567.429" height="384.969" viewBox="0 0 567.429 384.969" xmlns="http://www.w3.org/2000/svg" shape-rendering="crispEdges">
<title>
./adjusted_vop/vop_graphs/vop_mpv_scatter.svg
</title>
<desc>
Creator: ROOT Version 6.22/02
CreationDate: Sat Jun 26 01:13:23 2021</desc>
<defs>
</defs>
<rect x="0.5" y="0" width="566.929" height="384.469" fill="white"/>
<rect x="57.1929" y="38.4469" width="453.543" height="307.575" fill="white"/>
<rect x="57.1929" y="38.4469" width="453.543" height="307.575" fill="none" stroke="black"/>
<path d="M57.1929,346.022h 453.543" fill="none" stroke="black"/>
<path d="M66.6417,336.795v 9.22726" fill="none" stroke="black"/>
<path d="M76.0906,341.409v 4.61363" fill="none" stroke="black"/>
<path d="M85.5394,341.409v 4.61363" fill="none" stroke="black"/>
<path d="M94.9882,341.409v 4.61363" fill="none" stroke="black"/>
<path d="M104.437,341.409v 4.61363" fill="none" stroke="black"/>
<path d="M113.886,336.795v 9.22726" fill="none" stroke="black"/>
<path d="M123.335,341.409v 4.61363" fill="none" stroke="black"/>
<path d="M132.783,341.409v 4.61363" fill="none" stroke="black"/>
<path d="M142.232,341.409v 4.61363" fill="none" stroke="black"/>
<path d="M151.681,341.409v 4.61363" fill="none" stroke="black"/>
<path d="M161.13,336.795v 9.22726" fill="none" stroke="black"/>
<path d="M170.579,341.409v 4.61363" fill="none" stroke="black"/>
<path d="M180.028,341.409v 4.61363" fill="none" stroke="black"/>
<path d="M189.476,341.409v 4.61363" fill="none" stroke="black"/>
<path d="M198.925,341.409v 4.61363" fill="none" stroke="black"/>
<path d="M208.374,336.795v 9.22726" fill="none" stroke="black"/>
<path d="M217.823,341.409v 4.61363" fill="none" stroke="black"/>
<path d="M227.272,341.409v 4.61363" fill="none" stroke="black"/>
<path d="M236.72,341.409v 4.61363" fill="none" stroke="black"/>
<path d="M246.169,341.409v 4.61363" fill="none" stroke="black"/>
<path d="M255.618,336.795v 9.22726" fill="none" stroke="black"/>
<path d="M265.067,341.409v 4.61363" fill="none" stroke="black"/>
<path d="M274.516,341.409v 4.61363" fill="none" stroke="black"/>
<path d="M283.965,341.409v 4.61363" fill="none" stroke="black"/>
<path d="M293.413,341.409v 4.61363" fill="none" stroke="black"/>
<path d="M302.862,336.795v 9.22726" fill="none" stroke="black"/>
<path d="M312.311,341.409v 4.61363" fill="none" stroke="black"/>
<path d="M321.76,341.409v 4.61363" fill="none" stroke="black"/>
<path d="M331.209,341.409v 4.61363" fill="none" stroke="black"/>
<path d="M340.657,341.409v 4.61363" fill="none" stroke="black"/>
<path d="M350.106,336.795v 9.22726" fill="none" stroke="black"/>
<path d="M359.555,341.409v 4.61363" fill="none" stroke="black"/>
<path d="M369.004,341.409v 4.61363" fill="none" stroke="black"/>
<path d="M378.453,341.409v 4.61363" fill="none" stroke="black"/>
<path d="M387.902,341.409v 4.61363" fill="none" stroke="black"/>
<path d="M397.35,336.795v 9.22726" fill="none" stroke="black"/>
<path d="M406.799,341.409v 4.61363" fill="none" stroke="black"/>
<path d="M416.248,341.409v 4.61363" fill="none" stroke="black"/>
<path d="M425.697,341.409v 4.61363" fill="none" stroke="black"/>
<path d="M435.146,341.409v 4.61363" fill="none" stroke="black"/>
<path d="M444.594,336.795v 9.22726" fill="none" stroke="black"/>
<path d="M454.043,341.409v 4.61363" fill="none" stroke="black"/>
<path d="M463.492,341.409v 4.61363" fill="none" stroke="black"/>
<path d="M472.941,341.409v 4.61363" fill="none" stroke="black"/>
<path d="M482.39,341.409v 4.61363" fill="none" stroke="black"/>
<path d="M491.839,336.795v 9.22726" fill="none" stroke="black"/>
<path d="M66.6417,336.795v 9.22726" fill="none" stroke="black"/>
<path d="M491.839,336.795v 9.22726" fill="none" stroke="black"/>
<path d="M501.287,341.409v 4.61363" fill="none" stroke="black"/>
<text xml:space="preserve" x="54.2605" y="358.403" fill="black" font-size="12.8453" font-family="Helvetica">68.9</text>
<text xml:space="preserve" x="98.2464" y="358.403" fill="black" font-size="12.8453" font-family="Helvetica">68.95</text>
<text xml:space="preserve" x="154.451" y="358.403" fill="black" font-size="12.8453" font-family="Helvetica">69</text>
<text xml:space="preserve" x="192.735" y="358.403" fill="black" font-size="12.8453" font-family="Helvetica">69.05</text>
<text xml:space="preserve" x="244.051" y="358.403" fill="black" font-size="12.8453" font-family="Helvetica">69.1</text>
<text xml:space="preserve" x="287.223" y="358.403" fill="black" font-size="12.8453" font-family="Helvetica">69.15</text>
<text xml:space="preserve" x="337.725" y="358.403" fill="black" font-size="12.8453" font-family="Helvetica">69.2</text>
<text xml:space="preserve" x="381.711" y="358.403" fill="black" font-size="12.8453" font-family="Helvetica">69.25</text>
<text xml:space="preserve" x="432.213" y="358.403" fill="black" font-size="12.8453" font-family="Helvetica">69.3</text>
<text xml:space="preserve" x="476.199" y="358.403" fill="black" font-size="12.8453" font-family="Helvetica">69.35</text>
<text xml:space="preserve" x="490.861" y="369.807" fill="black" font-size="12.8453" font-family="Helvetica">vop</text>
<path d="M57.1929,346.022v -307.575" fill="none" stroke="black"/>
<path d="M70.7992,320.38h -13.6063" fill="none" stroke="black"/>
<path d="M63.9961,308.498h -6.80315" fill="none" stroke="black"/>
<path d="M63.9961,296.616h -6.80315" fill="none" stroke="black"/>
<path d="M63.9961,284.734h -6.80315" fill="none" stroke="black"/>
<path d="M70.7992,272.852h -13.6063" fill="none" stroke="black"/>
<path d="M63.9961,260.97h -6.80315" fill="none" stroke="black"/>
<path d="M63.9961,249.088h -6.80315" fill="none" stroke="black"/>
<path d="M63.9961,237.206h -6.80315" fill="none" stroke="black"/>
<path d="M70.7992,225.324h -13.6063" fill="none" stroke="black"/>
<path d="M63.9961,213.442h -6.80315" fill="none" stroke="black"/>
<path d="M63.9961,201.561h -6.80315" fill="none" stroke="black"/>
<path d="M63.9961,189.679h -6.80315" fill="none" stroke="black"/>
<path d="M70.7992,177.797h -13.6063" fill="none" stroke="black"/>
<path d="M63.9961,165.915h -6.80315" fill="none" stroke="black"/>
<path d="M63.9961,154.033h -6.80315" fill="none" stroke="black"/>
<path d="M63.9961,142.151h -6.80315" fill="none" stroke="black"/>
<path d="M70.7992,130.269h -13.6063" fill="none" stroke="black"/>
<path d="M63.9961,118.387h -6.80315" fill="none" stroke="black"/>
<path d="M63.9961,106.505h -6.80315" fill="none" stroke="black"/>
<path d="M63.9961,94.6232h -6.80315" fill="none" stroke="black"/>
<path d="M70.7992,82.7412h -13.6063" fill="none" stroke="black"/>
<path d="M70.7992,320.38h -13.6063" fill="none" stroke="black"/>
<path d="M63.9961,332.262h -6.80315" fill="none" stroke="black"/>
<path d="M63.9961,344.144h -6.80315" fill="none" stroke="black"/>
<path d="M70.7992,82.7412h -13.6063" fill="none" stroke="black"/>
<path d="M63.9961,70.8593h -6.80315" fill="none" stroke="black"/>
<path d="M63.9961,58.9774h -6.80315" fill="none" stroke="black"/>
<path d="M63.9961,47.0955h -6.80315" fill="none" stroke="black"/>
<text xml:space="preserve" x="47.7441" y="325.007" fill="black" font-size="12.8453" font-family="Helvetica">0</text>
<text xml:space="preserve" x="27.3803" y="276.948" fill="black" font-size="12.8453" font-family="Helvetica">2000</text>
<text xml:space="preserve" x="27.3803" y="229.704" fill="black" font-size="12.8453" font-family="Helvetica">4000</text>
<text xml:space="preserve" x="27.3803" y="182.46" fill="black" font-size="12.8453" font-family="Helvetica">6000</text>
<text xml:space="preserve" x="27.3803" y="134.401" fill="black" font-size="12.8453" font-family="Helvetica">8000</text>
<text xml:space="preserve" x="20.8638" y="87.1572" fill="black" font-size="12.8453" font-family="Helvetica">10000</text>
<text xml:space="preserve" x="76.2535" y="30.1385" fill="black" font-size="8.73023" font-family="Helvetica">3</text>
<text xml:space="preserve" x="63.2206" y="36.6549" fill="black" font-size="12.8453" font-family="Helvetica">10</text>
<text xml:space="preserve" x="56.7042" y="36.6549" fill="black" font-size="12.8453" font-family="Times">&#0215;</text>
<g transform="rotate(-90,6.20187,61.9061)">
<text xml:space="preserve" x="6.20187" y="61.9061" fill="black" font-size="12.8453" font-family="Helvetica">mpv</text>
</g>
<text xml:space="preserve" x="145.49" y="17.9202" fill="black" font-size="18.7938" font-family="Helvetica">block mpv vs sipm vop (adjusted)</text>
<g fill="black">
<circle cx="142.232" cy="320.373" r="1.62911"/>
<circle cx="142.232" cy="320.373" r="1.62911"/>
<circle cx="142.232" cy="320.373" r="1.62911"/>
<circle cx="142.232" cy="320.372" r="1.62911"/>
<circle cx="142.232" cy="320.373" r="1.62911"/>
<circle cx="142.232" cy="320.374" r="1.62911"/>
<circle cx="142.232" cy="320.374" r="1.62911"/>
<circle cx="142.232" cy="320.373" r="1.62911"/>
<circle cx="142.232" cy="320.372" r="1.62911"/>
<circle cx="142.232" cy="320.372" r="1.62911"/>
<circle cx="142.232" cy="320.372" r="1.62911"/>
<circle cx="142.232" cy="320.372" r="1.62911"/>
<circle cx="142.232" cy="320.373" r="1.62911"/>
<circle cx="142.232" cy="320.371" r="1.62911"/>
<circle cx="142.232" cy="320.373" r="1.62911"/>
<circle cx="142.232" cy="320.372" r="1.62911"/>
<circle cx="142.232" cy="320.373" r="1.62911"/>
<circle cx="142.232" cy="320.373" r="1.62911"/>
<circle cx="142.232" cy="320.372" r="1.62911"/>
<circle cx="142.232" cy="320.373" r="1.62911"/>
<circle cx="142.232" cy="320.373" r="1.62911"/>
<circle cx="142.232" cy="320.372" r="1.62911"/>
<circle cx="142.232" cy="320.372" r="1.62911"/>
<circle cx="142.232" cy="320.371" r="1.62911"/>
<circle cx="142.232" cy="320.372" r="1.62911"/>
<circle cx="142.232" cy="320.372" r="1.62911"/>
<circle cx="142.232" cy="320.372" r="1.62911"/>
<circle cx="142.232" cy="320.374" r="1.62911"/>
<circle cx="142.232" cy="320.374" r="1.62911"/>
<circle cx="142.232" cy="320.373" r="1.62911"/>
<circle cx="142.232" cy="320.372" r="1.62911"/>
<circle cx="142.232" cy="320.372" r="1.62911"/>
<circle cx="142.232" cy="320.374" r="1.62911"/>
<circle cx="142.232" cy="320.372" r="1.62911"/>
<circle cx="142.232" cy="320.374" r="1.62911"/>
<circle cx="142.232" cy="320.374" r="1.62911"/>
<circle cx="142.232" cy="320.371" r="1.62911"/>
<circle cx="142.232" cy="320.372" r="1.62911"/>
<circle cx="142.232" cy="320.371" r="1.62911"/>
<circle cx="142.232" cy="320.372" r="1.62911"/>
<circle cx="142.232" cy="320.371" r="1.62911"/>
<circle cx="142.232" cy="320.372" r="1.62911"/>
<circle cx="142.232" cy="320.373" r="1.62911"/>
<circle cx="142.232" cy="320.373" r="1.62911"/>
<circle cx="142.232" cy="320.372" r="1.62911"/>
<circle cx="142.232" cy="320.372" r="1.62911"/>
<circle cx="142.232" cy="320.374" r="1.62911"/>
<circle cx="142.232" cy="320.371" r="1.62911"/>
<circle cx="142.232" cy="320.372" r="1.62911"/>
<circle cx="142.232" cy="320.373" r="1.62911"/>
<circle cx="142.232" cy="320.371" r="1.62911"/>
<circle cx="142.232" cy="320.373" r="1.62911"/>
<circle cx="142.232" cy="320.374" r="1.62911"/>
<circle cx="142.232" cy="320.371" r="1.62911"/>
<circle cx="142.232" cy="320.372" r="1.62911"/>
<circle cx="142.232" cy="320.372" r="1.62911"/>
<circle cx="142.232" cy="320.372" r="1.62911"/>
<circle cx="142.232" cy="320.372" r="1.62911"/>
<circle cx="142.232" cy="320.372" r="1.62911"/>
<circle cx="142.232" cy="320.372" r="1.62911"/>
<circle cx="142.232" cy="320.372" r="1.62911"/>
<circle cx="142.232" cy="320.373" r="1.62911"/>
<circle cx="142.232" cy="320.374" r="1.62911"/>
<circle cx="142.232" cy="320.371" r="1.62911"/>
<circle cx="142.232" cy="320.373" r="1.62911"/>
<circle cx="142.232" cy="320.373" r="1.62911"/>
<circle cx="142.232" cy="320.372" r="1.62911"/>
<circle cx="142.232" cy="320.374" r="1.62911"/>
<circle cx="142.232" cy="320.374" r="1.62911"/>
<circle cx="142.232" cy="320.372" r="1.62911"/>
<circle cx="142.232" cy="320.373" r="1.62911"/>
<circle cx="142.232" cy="320.372" r="1.62911"/>
<circle cx="142.232" cy="320.374" r="1.62911"/>
<circle cx="142.232" cy="320.372" r="1.62911"/>
<circle cx="142.232" cy="320.376" r="1.62911"/>
<circle cx="142.232" cy="320.374" r="1.62911"/>
<circle cx="142.232" cy="320.372" r="1.62911"/>
<circle cx="142.232" cy="320.372" r="1.62911"/>
<circle cx="142.232" cy="320.371" r="1.62911"/>
<circle cx="142.232" cy="320.372" r="1.62911"/>
<circle cx="142.232" cy="320.372" r="1.62911"/>
<circle cx="142.232" cy="320.371" r="1.62911"/>
<circle cx="142.232" cy="320.373" r="1.62911"/>
<circle cx="142.232" cy="320.373" r="1.62911"/>
<circle cx="142.232" cy="320.372" r="1.62911"/>
<circle cx="142.232" cy="320.371" r="1.62911"/>
<circle cx="142.232" cy="320.373" r="1.62911"/>
<circle cx="142.232" cy="320.371" r="1.62911"/>
<circle cx="142.232" cy="320.371" r="1.62911"/>
<circle cx="142.232" cy="320.372" r="1.62911"/>
<circle cx="472.941" cy="320.373" r="1.62911"/>
<circle cx="472.941" cy="320.374" r="1.62911"/>
<circle cx="472.941" cy="320.372" r="1.62911"/>
<circle cx="472.941" cy="320.371" r="1.62911"/>
<circle cx="472.941" cy="320.373" r="1.62911"/>
<circle cx="472.941" cy="320.371" r="1.62911"/>
<circle cx="472.941" cy="320.371" r="1.62911"/>
<circle cx="472.941" cy="320.373" r="1.62911"/>
<circle cx="472.941" cy="320.372" r="1.62911"/>
<circle cx="472.941" cy="320.373" r="1.62911"/>
<circle cx="472.941" cy="320.372" r="1.62911"/>
<circle cx="472.941" cy="320.374" r="1.62911"/>
<circle cx="472.941" cy="320.373" r="1.62911"/>
<circle cx="472.941" cy="320.374" r="1.62911"/>
<circle cx="472.941" cy="320.375" r="1.62911"/>
<circle cx="472.941" cy="320.374" r="1.62911"/>
<circle cx="472.941" cy="320.373" r="1.62911"/>
<circle cx="472.941" cy="320.372" r="1.62911"/>
<circle cx="472.941" cy="320.373" r="1.62911"/>
<circle cx="472.941" cy="320.373" r="1.62911"/>
<circle cx="472.941" cy="320.373" r="1.62911"/>
<circle cx="472.941" cy="320.374" r="1.62911"/>
<circle cx="472.941" cy="320.372" r="1.62911"/>
<circle cx="472.941" cy="320.373" r="1.62911"/>
<circle cx="472.941" cy="320.373" r="1.62911"/>
<circle cx="472.941" cy="320.373" r="1.62911"/>
<circle cx="472.941" cy="320.374" r="1.62911"/>
<circle cx="472.941" cy="320.375" r="1.62911"/>
<circle cx="472.941" cy="320.371" r="1.62911"/>
<circle cx="472.941" cy="320.374" r="1.62911"/>
<circle cx="472.941" cy="320.373" r="1.62911"/>
<circle cx="472.941" cy="320.373" r="1.62911"/>
<circle cx="472.941" cy="320.374" r="1.62911"/>
<circle cx="472.941" cy="320.372" r="1.62911"/>
<circle cx="472.941" cy="320.373" r="1.62911"/>
<circle cx="472.941" cy="320.372" r="1.62911"/>
<circle cx="472.941" cy="320.372" r="1.62911"/>
<circle cx="472.941" cy="320.372" r="1.62911"/>
<circle cx="472.941" cy="320.372" r="1.62911"/>
<circle cx="472.941" cy="320.374" r="1.62911"/>
<circle cx="472.941" cy="320.373" r="1.62911"/>
<circle cx="472.941" cy="320.371" r="1.62911"/>
<circle cx="472.941" cy="320.373" r="1.62911"/>
<circle cx="472.941" cy="320.374" r="1.62911"/>
<circle cx="472.941" cy="320.372" r="1.62911"/>
<circle cx="472.941" cy="320.374" r="1.62911"/>
<circle cx="472.941" cy="320.374" r="1.62911"/>
<circle cx="472.941" cy="320.375" r="1.62911"/>
<circle cx="472.941" cy="320.374" r="1.62911"/>
<circle cx="472.941" cy="320.374" r="1.62911"/>
<circle cx="472.941" cy="320.375" r="1.62911"/>
<circle cx="472.941" cy="320.373" r="1.62911"/>
<circle cx="472.941" cy="320.373" r="1.62911"/>
<circle cx="472.941" cy="320.373" r="1.62911"/>
<circle cx="472.941" cy="320.377" r="1.62911"/>
<circle cx="472.941" cy="320.373" r="1.62911"/>
<circle cx="472.941" cy="320.374" r="1.62911"/>
<circle cx="472.941" cy="320.372" r="1.62911"/>
<circle cx="472.941" cy="320.374" r="1.62911"/>
<circle cx="472.941" cy="320.374" r="1.62911"/>
<circle cx="472.941" cy="320.375" r="1.62911"/>
<circle cx="472.941" cy="320.374" r="1.62911"/>
<circle cx="472.941" cy="320.373" r="1.62911"/>
<circle cx="472.941" cy="320.374" r="1.62911"/>
<circle cx="472.941" cy="320.375" r="1.62911"/>
<circle cx="472.941" cy="320.373" r="1.62911"/>
<circle cx="472.941" cy="320.374" r="1.62911"/>
<circle cx="472.941" cy="320.374" r="1.62911"/>
<circle cx="472.941" cy="320.375" r="1.62911"/>
<circle cx="472.941" cy="320.373" r="1.62911"/>
<circle cx="472.941" cy="320.375" r="1.62911"/>
<circle cx="472.941" cy="320.374" r="1.62911"/>
<circle cx="472.941" cy="320.373" r="1.62911"/>
<circle cx="472.941" cy="320.374" r="1.62911"/>
<circle cx="472.941" cy="320.375" r="1.62911"/>
<circle cx="472.941" cy="320.374" r="1.62911"/>
<circle cx="472.941" cy="320.373" r="1.62911"/>
<circle cx="472.941" cy="320.373" r="1.62911"/>
<circle cx="472.941" cy="320.373" r="1.62911"/>
<circle cx="472.941" cy="320.373" r="1.62911"/>
<circle cx="472.941" cy="320.373" r="1.62911"/>
<circle cx="472.941" cy="320.373" r="1.62911"/>
<circle cx="472.941" cy="320.374" r="1.62911"/>
<circle cx="472.941" cy="320.374" r="1.62911"/>
<circle cx="472.941" cy="320.373" r="1.62911"/>
<circle cx="472.941" cy="320.373" r="1.62911"/>
<circle cx="472.941" cy="320.373" r="1.62911"/>
<circle cx="472.941" cy="320.374" r="1.62911"/>
<circle cx="472.941" cy="320.373" r="1.62911"/>
<circle cx="472.941" cy="320.372" r="1.62911"/>
<circle cx="472.941" cy="320.373" r="1.62911"/>
<circle cx="472.941" cy="320.373" r="1.62911"/>
<circle cx="472.941" cy="320.373" r="1.62911"/>
<circle cx="472.941" cy="320.373" r="1.62911"/>
<circle cx="472.941" cy="320.375" r="1.62911"/>
<circle cx="472.941" cy="320.374" r="1.62911"/>
<circle cx="472.941" cy="320.373" r="1.62911"/>
<circle cx="472.941" cy="320.373" r="1.62911"/>
<circle cx="472.941" cy="320.373" r="1.62911"/>
<circle cx="472.941" cy="320.374" r="1.62911"/>
<circle cx="472.941" cy="320.373" r="1.62911"/>
<circle cx="472.941" cy="320.372" r="1.62911"/>
<circle cx="472.941" cy="320.373" r="1.62911"/>
<circle cx="472.941" cy="320.374" r="1.62911"/>
<circle cx="472.941" cy="320.375" r="1.62911"/>
<circle cx="472.941" cy="320.374" r="1.62911"/>
<circle cx="472.941" cy="320.375" r="1.62911"/>
<circle cx="472.941" cy="320.374" r="1.62911"/>
<circle cx="472.941" cy="320.374" r="1.62911"/>
<circle cx="472.941" cy="320.374" r="1.62911"/>
<circle cx="472.941" cy="320.375" r="1.62911"/>
<circle cx="472.941" cy="320.374" r="1.62911"/>
<circle cx="472.941" cy="320.373" r="1.62911"/>
<circle cx="472.941" cy="320.374" r="1.62911"/>
<circle cx="472.941" cy="320.374" r="1.62911"/>
<circle cx="472.941" cy="320.374" r="1.62911"/>
<circle cx="472.941" cy="320.373" r="1.62911"/>
<circle cx="472.941" cy="320.373" r="1.62911"/>
<circle cx="472.941" cy="320.373" r="1.62911"/>
<circle cx="472.941" cy="320.374" r="1.62911"/>
<circle cx="472.941" cy="320.374" r="1.62911"/>
<circle cx="472.941" cy="320.374" r="1.62911"/>
<circle cx="472.941" cy="320.374" r="1.62911"/>
<circle cx="472.941" cy="320.373" r="1.62911"/>
<circle cx="472.941" cy="320.373" r="1.62911"/>
<circle cx="472.941" cy="320.373" r="1.62911"/>
<circle cx="472.941" cy="320.373" r="1.62911"/>
<circle cx="472.941" cy="320.374" r="1.62911"/>
<circle cx="472.941" cy="320.373" r="1.62911"/>
<circle cx="472.941" cy="320.373" r="1.62911"/>
<circle cx="472.941" cy="320.373" r="1.62911"/>
<circle cx="472.941" cy="320.374" r="1.62911"/>
<circle cx="472.941" cy="320.374" r="1.62911"/>
<circle cx="472.941" cy="320.372" r="1.62911"/>
<circle cx="472.941" cy="320.374" r="1.62911"/>
<circle cx="472.941" cy="320.374" r="1.62911"/>
<circle cx="472.941" cy="320.374" r="1.62911"/>
<circle cx="472.941" cy="320.374" r="1.62911"/>
<circle cx="472.941" cy="320.374" r="1.62911"/>
<circle cx="472.941" cy="320.374" r="1.62911"/>
<circle cx="472.941" cy="320.375" r="1.62911"/>
<circle cx="472.941" cy="320.373" r="1.62911"/>
<circle cx="472.941" cy="320.374" r="1.62911"/>
<circle cx="283.965" cy="320.372" r="1.62911"/>
<circle cx="472.941" cy="320.373" r="1.62911"/>
<circle cx="472.941" cy="320.374" r="1.62911"/>
<circle cx="472.941" cy="320.375" r="1.62911"/>
<circle cx="472.941" cy="320.373" r="1.62911"/>
<circle cx="472.941" cy="320.374" r="1.62911"/>
<circle cx="472.941" cy="320.375" r="1.62911"/>
<circle cx="283.965" cy="320.374" r="1.62911"/>
<circle cx="283.965" cy="320.375" r="1.62911"/>
<circle cx="283.965" cy="320.373" r="1.62911"/>
<circle cx="472.941" cy="320.373" r="1.62911"/>
<circle cx="283.965" cy="320.373" r="1.62911"/>
<circle cx="283.965" cy="320.374" r="1.62911"/>
<circle cx="283.965" cy="320.373" r="1.62911"/>
<circle cx="283.965" cy="320.374" r="1.62911"/>
<circle cx="283.965" cy="320.373" r="1.62911"/>
<circle cx="283.965" cy="320.374" r="1.62911"/>
<circle cx="283.965" cy="320.374" r="1.62911"/>
<circle cx="283.965" cy="320.375" r="1.62911"/>
<circle cx="283.965" cy="320.373" r="1.62911"/>
<circle cx="283.965" cy="320.374" r="1.62911"/>
<circle cx="283.965" cy="320.374" r="1.62911"/>
<circle cx="283.965" cy="320.373" r="1.62911"/>
<circle cx="283.965" cy="320.375" r="1.62911"/>
<circle cx="283.965" cy="320.375" r="1.62911"/>
<circle cx="283.965" cy="320.374" r="1.62911"/>
<circle cx="283.965" cy="320.374" r="1.62911"/>
<circle cx="283.965" cy="320.374" r="1.62911"/>
<circle cx="283.965" cy="320.374" r="1.62911"/>
<circle cx="283.965" cy="320.375" r="1.62911"/>
<circle cx="283.965" cy="320.372" r="1.62911"/>
<circle cx="283.965" cy="320.375" r="1.62911"/>
<circle cx="283.965" cy="320.373" r="1.62911"/>
<circle cx="283.965" cy="320.373" r="1.62911"/>
<circle cx="283.965" cy="320.372" r="1.62911"/>
<circle cx="283.965" cy="320.373" r="1.62911"/>
<circle cx="283.965" cy="320.373" r="1.62911"/>
<circle cx="283.965" cy="320.373" r="1.62911"/>
<circle cx="283.965" cy="320.375" r="1.62911"/>
<circle cx="283.965" cy="320.374" r="1.62911"/>
<circle cx="283.965" cy="320.373" r="1.62911"/>
<circle cx="283.965" cy="320.375" r="1.62911"/>
<circle cx="283.965" cy="320.375" r="1.62911"/>
<circle cx="283.965" cy="320.376" r="1.62911"/>
<circle cx="283.965" cy="320.374" r="1.62911"/>
<circle cx="283.965" cy="320.375" r="1.62911"/>
<circle cx="283.965" cy="320.374" r="1.62911"/>
<circle cx="283.965" cy="320.374" r="1.62911"/>
<circle cx="283.965" cy="320.374" r="1.62911"/>
<circle cx="283.965" cy="320.374" r="1.62911"/>
<circle cx="283.965" cy="320.374" r="1.62911"/>
<circle cx="283.965" cy="320.373" r="1.62911"/>
<circle cx="283.965" cy="320.372" r="1.62911"/>
<circle cx="283.965" cy="320.374" r="1.62911"/>
<circle cx="283.965" cy="320.377" r="1.62911"/>
<circle cx="283.965" cy="320.373" r="1.62911"/>
<circle cx="283.965" cy="320.373" r="1.62911"/>
<circle cx="283.965" cy="320.374" r="1.62911"/>
<circle cx="283.965" cy="320.374" r="1.62911"/>
<circle cx="283.965" cy="320.374" r="1.62911"/>
<circle cx="283.965" cy="320.375" r="1.62911"/>
<circle cx="283.965" cy="320.372" r="1.62911"/>
<circle cx="283.965" cy="320.373" r="1.62911"/>
<circle cx="283.965" cy="320.373" r="1.62911"/>
<circle cx="283.965" cy="320.373" r="1.62911"/>
<circle cx="283.965" cy="320.373" r="1.62911"/>
<circle cx="283.965" cy="320.372" r="1.62911"/>
<circle cx="283.965" cy="320.373" r="1.62911"/>
<circle cx="283.965" cy="320.374" r="1.62911"/>
<circle cx="283.965" cy="320.372" r="1.62911"/>
<circle cx="283.965" cy="320.374" r="1.62911"/>
<circle cx="283.965" cy="320.374" r="1.62911"/>
<circle cx="283.965" cy="320.375" r="1.62911"/>
<circle cx="283.965" cy="320.375" r="1.62911"/>
<circle cx="283.965" cy="320.375" r="1.62911"/>
<circle cx="283.965" cy="320.375" r="1.62911"/>
<circle cx="283.965" cy="320.374" r="1.62911"/>
<circle cx="283.965" cy="320.375" r="1.62911"/>
<circle cx="283.965" cy="320.374" r="1.62911"/>
<circle cx="283.965" cy="320.373" r="1.62911"/>
<circle cx="283.965" cy="320.373" r="1.62911"/>
<circle cx="283.965" cy="320.376" r="1.62911"/>
<circle cx="283.965" cy="320.375" r="1.62911"/>
<circle cx="283.965" cy="320.375" r="1.62911"/>
<circle cx="283.965" cy="320.374" r="1.62911"/>
<circle cx="283.965" cy="320.374" r="1.62911"/>
<circle cx="283.965" cy="320.374" r="1.62911"/>
<circle cx="283.965" cy="320.374" r="1.62911"/>
<circle cx="283.965" cy="320.373" r="1.62911"/>
<circle cx="283.965" cy="320.375" r="1.62911"/>
<circle cx="283.965" cy="320.374" r="1.62911"/>
<circle cx="283.965" cy="320.372" r="1.62911"/>
<circle cx="283.965" cy="320.374" r="1.62911"/>
<circle cx="283.965" cy="320.375" r="1.62911"/>
<circle cx="283.965" cy="320.372" r="1.62911"/>
<circle cx="283.965" cy="320.374" r="1.62911"/>
<circle cx="283.965" cy="320.374" r="1.62911"/>
<circle cx="283.965" cy="320.374" r="1.62911"/>
<circle cx="283.965" cy="320.373" r="1.62911"/>
<circle cx="283.965" cy="320.372" r="1.62911"/>
<circle cx="283.965" cy="320.372" r="1.62911"/>
<circle cx="283.965" cy="320.379" r="1.62911"/>
<circle cx="283.965" cy="320.374" r="1.62911"/>
<circle cx="283.965" cy="320.373" r="1.62911"/>
<circle cx="283.965" cy="320.374" r="1.62911"/>
<circle cx="283.965" cy="320.373" r="1.62911"/>
<circle cx="283.965" cy="320.373" r="1.62911"/>
<circle cx="283.965" cy="320.375" r="1.62911"/>
<circle cx="283.965" cy="320.373" r="1.62911"/>
<circle cx="283.965" cy="320.373" r="1.62911"/>
<circle cx="283.965" cy="320.373" r="1.62911"/>
<circle cx="283.965" cy="320.372" r="1.62911"/>
<circle cx="283.965" cy="320.372" r="1.62911"/>
<circle cx="283.965" cy="320.373" r="1.62911"/>
<circle cx="283.965" cy="320.372" r="1.62911"/>
<circle cx="283.965" cy="320.372" r="1.62911"/>
<circle cx="283.965" cy="320.372" r="1.62911"/>
<circle cx="283.965" cy="320.371" r="1.62911"/>
<circle cx="283.965" cy="320.375" r="1.62911"/>
<circle cx="283.965" cy="320.371" r="1.62911"/>
<circle cx="283.965" cy="320.374" r="1.62911"/>
<circle cx="283.965" cy="320.373" r="1.62911"/>
<circle cx="283.965" cy="320.372" r="1.62911"/>
<circle cx="283.965" cy="320.371" r="1.62911"/>
<circle cx="283.965" cy="320.372" r="1.62911"/>
<circle cx="283.965" cy="320.373" r="1.62911"/>
<circle cx="283.965" cy="320.373" r="1.62911"/>
<circle cx="283.965" cy="320.373" r="1.62911"/>
<circle cx="283.965" cy="320.374" r="1.62911"/>
<circle cx="283.965" cy="320.374" r="1.62911"/>
<circle cx="283.965" cy="320.375" r="1.62911"/>
<circle cx="283.965" cy="320.372" r="1.62911"/>
<circle cx="283.965" cy="320.373" r="1.62911"/>
<circle cx="283.965" cy="320.374" r="1.62911"/>
<circle cx="283.965" cy="320.373" r="1.62911"/>
<circle cx="283.965" cy="320.375" r="1.62911"/>
<circle cx="283.965" cy="320.373" r="1.62911"/>
<circle cx="283.965" cy="320.373" r="1.62911"/>
<circle cx="283.965" cy="320.373" r="1.62911"/>
<circle cx="283.965" cy="320.374" r="1.62911"/>
<circle cx="283.965" cy="320.375" r="1.62911"/>
<circle cx="283.965" cy="320.373" r="1.62911"/>
<circle cx="283.965" cy="320.373" r="1.62911"/>
<circle cx="283.965" cy="320.372" r="1.62911"/>
<circle cx="283.965" cy="320.372" r="1.62911"/>
<circle cx="283.965" cy="320.373" r="1.62911"/>
<circle cx="283.965" cy="320.372" r="1.62911"/>
<circle cx="283.965" cy="320.374" r="1.62911"/>
<circle cx="283.965" cy="320.373" r="1.62911"/>
<circle cx="283.965" cy="320.372" r="1.62911"/>
<circle cx="283.965" cy="320.372" r="1.62911"/>
<circle cx="283.965" cy="320.373" r="1.62911"/>
<circle cx="283.965" cy="320.372" r="1.62911"/>
<circle cx="283.965" cy="320.374" r="1.62911"/>
<circle cx="283.965" cy="320.372" r="1.62911"/>
<circle cx="283.965" cy="320.372" r="1.62911"/>
<circle cx="283.965" cy="320.372" r="1.62911"/>
<circle cx="283.965" cy="320.373" r="1.62911"/>
<circle cx="283.965" cy="320.372" r="1.62911"/>
<circle cx="283.965" cy="320.374" r="1.62911"/>
<circle cx="283.965" cy="320.373" r="1.62911"/>
<circle cx="283.965" cy="320.374" r="1.62911"/>
<circle cx="283.965" cy="320.372" r="1.62911"/>
<circle cx="283.965" cy="320.374" r="1.62911"/>
<circle cx="283.965" cy="320.375" r="1.62911"/>
<circle cx="283.965" cy="320.374" r="1.62911"/>
<circle cx="283.965" cy="320.374" r="1.62911"/>
<circle cx="283.965" cy="320.373" r="1.62911"/>
<circle cx="283.965" cy="320.371" r="1.62911"/>
<circle cx="283.965" cy="320.372" r="1.62911"/>
<circle cx="283.965" cy="320.375" r="1.62911"/>
<circle cx="283.965" cy="320.373" r="1.62911"/>
<circle cx="283.965" cy="320.374" r="1.62911"/>
<circle cx="283.965" cy="320.372" r="1.62911"/>
<circle cx="283.965" cy="320.374" r="1.62911"/>
<circle cx="283.965" cy="320.374" r="1.62911"/>
<circle cx="283.965" cy="320.372" r="1.62911"/>
<circle cx="283.965" cy="320.374" r="1.62911"/>
<circle cx="283.965" cy="320.373" r="1.62911"/>
<circle cx="283.965" cy="320.372" r="1.62911"/>
<circle cx="283.965" cy="320.374" r="1.62911"/>
<circle cx="283.965" cy="320.374" r="1.62911"/>
<circle cx="283.965" cy="320.372" r="1.62911"/>
<circle cx="283.965" cy="320.374" r="1.62911"/>
<circle cx="283.965" cy="320.374" r="1.62911"/>
<circle cx="283.965" cy="320.373" r="1.62911"/>
<circle cx="283.965" cy="320.373" r="1.62911"/>
<circle cx="283.965" cy="320.374" r="1.62911"/>
<circle cx="283.965" cy="320.373" r="1.62911"/>
<circle cx="283.965" cy="320.374" r="1.62911"/>
<circle cx="283.965" cy="320.373" r="1.62911"/>
<circle cx="283.965" cy="320.373" r="1.62911"/>
<circle cx="283.965" cy="320.374" r="1.62911"/>
<circle cx="283.965" cy="320.373" r="1.62911"/>
<circle cx="283.965" cy="320.372" r="1.62911"/>
<circle cx="283.965" cy="320.374" r="1.62911"/>
<circle cx="283.965" cy="320.374" r="1.62911"/>
<circle cx="283.965" cy="320.373" r="1.62911"/>
<circle cx="283.965" cy="320.376" r="1.62911"/>
<circle cx="283.965" cy="320.374" r="1.62911"/>
<circle cx="283.965" cy="320.374" r="1.62911"/>
<circle cx="283.965" cy="320.373" r="1.62911"/>
<circle cx="283.965" cy="320.374" r="1.62911"/>
<circle cx="283.965" cy="320.372" r="1.62911"/>
<circle cx="283.965" cy="320.373" r="1.62911"/>
<circle cx="283.965" cy="320.374" r="1.62911"/>
<circle cx="283.965" cy="320.376" r="1.62911"/>
<circle cx="283.965" cy="320.373" r="1.62911"/>
<circle cx="283.965" cy="320.374" r="1.62911"/>
<circle cx="283.965" cy="320.374" r="1.62911"/>
<circle cx="283.965" cy="320.374" r="1.62911"/>
<circle cx="283.965" cy="320.372" r="1.62911"/>
<circle cx="283.965" cy="320.373" r="1.62911"/>
<circle cx="283.965" cy="320.373" r="1.62911"/>
<circle cx="283.965" cy="320.374" r="1.62911"/>
<circle cx="283.965" cy="320.373" r="1.62911"/>
<circle cx="283.965" cy="320.374" r="1.62911"/>
<circle cx="283.965" cy="320.374" r="1.62911"/>
<circle cx="283.965" cy="320.372" r="1.62911"/>
<circle cx="283.965" cy="320.374" r="1.62911"/>
<circle cx="283.965" cy="320.374" r="1.62911"/>
<circle cx="283.965" cy="320.373" r="1.62911"/>
<circle cx="283.965" cy="320.373" r="1.62911"/>
<circle cx="283.965" cy="320.374" r="1.62911"/>
<circle cx="283.965" cy="320.374" r="1.62911"/>
<circle cx="283.965" cy="320.373" r="1.62911"/>
<circle cx="283.965" cy="320.373" r="1.62911"/>
<circle cx="283.965" cy="320.374" r="1.62911"/>
<circle cx="283.965" cy="320.373" r="1.62911"/>
<circle cx="283.965" cy="320.374" r="1.62911"/>
<circle cx="283.965" cy="320.373" r="1.62911"/>
<circle cx="283.965" cy="320.372" r="1.62911"/>
<circle cx="283.965" cy="320.375" r="1.62911"/>
<circle cx="283.965" cy="320.374" r="1.62911"/>
<circle cx="283.965" cy="320.374" r="1.62911"/>
<circle cx="283.965" cy="320.374" r="1.62911"/>
<circle cx="331.209" cy="320.375" r="1.62911"/>
<circle cx="331.209" cy="320.377" r="1.62911"/>
<circle cx="331.209" cy="320.374" r="1.62911"/>
<circle cx="331.209" cy="320.373" r="1.62911"/>
<circle cx="283.965" cy="320.372" r="1.62911"/>
<circle cx="331.209" cy="320.374" r="1.62911"/>
<circle cx="331.209" cy="320.374" r="1.62911"/>
<circle cx="331.209" cy="320.372" r="1.62911"/>
<circle cx="331.209" cy="320.373" r="1.62911"/>
<circle cx="331.209" cy="320.374" r="1.62911"/>
<circle cx="331.209" cy="320.374" r="1.62911"/>
<circle cx="331.209" cy="320.372" r="1.62911"/>
<circle cx="331.209" cy="320.372" r="1.62911"/>
<circle cx="331.209" cy="320.374" r="1.62911"/>
<circle cx="331.209" cy="320.373" r="1.62911"/>
<circle cx="331.209" cy="320.373" r="1.62911"/>
<circle cx="331.209" cy="320.373" r="1.62911"/>
<circle cx="331.209" cy="320.372" r="1.62911"/>
<circle cx="331.209" cy="320.374" r="1.62911"/>
<circle cx="331.209" cy="320.374" r="1.62911"/>
<circle cx="331.209" cy="320.372" r="1.62911"/>
<circle cx="331.209" cy="320.374" r="1.62911"/>
<circle cx="331.209" cy="320.373" r="1.62911"/>
<circle cx="331.209" cy="320.373" r="1.62911"/>
<circle cx="331.209" cy="320.372" r="1.62911"/>
<circle cx="331.209" cy="320.371" r="1.62911"/>
<circle cx="331.209" cy="320.373" r="1.62911"/>
<circle cx="331.209" cy="320.375" r="1.62911"/>
<circle cx="331.209" cy="320.373" r="1.62911"/>
<circle cx="331.209" cy="320.374" r="1.62911"/>
<circle cx="331.209" cy="320.373" r="1.62911"/>
<circle cx="331.209" cy="320.373" r="1.62911"/>
<circle cx="331.209" cy="320.373" r="1.62911"/>
<circle cx="331.209" cy="320.375" r="1.62911"/>
<circle cx="331.209" cy="320.373" r="1.62911"/>
<circle cx="331.209" cy="320.373" r="1.62911"/>
<circle cx="331.209" cy="320.374" r="1.62911"/>
<circle cx="331.209" cy="320.373" r="1.62911"/>
<circle cx="331.209" cy="320.373" r="1.62911"/>
<circle cx="331.209" cy="320.373" r="1.62911"/>
<circle cx="331.209" cy="320.375" r="1.62911"/>
<circle cx="331.209" cy="320.373" r="1.62911"/>
<circle cx="331.209" cy="320.374" r="1.62911"/>
<circle cx="331.209" cy="320.373" r="1.62911"/>
<circle cx="331.209" cy="320.371" r="1.62911"/>
<circle cx="331.209" cy="320.375" r="1.62911"/>
<circle cx="331.209" cy="320.372" r="1.62911"/>
<circle cx="331.209" cy="320.373" r="1.62911"/>
<circle cx="331.209" cy="320.372" r="1.62911"/>
<circle cx="331.209" cy="320.372" r="1.62911"/>
<circle cx="331.209" cy="320.375" r="1.62911"/>
<circle cx="331.209" cy="320.374" r="1.62911"/>
<circle cx="331.209" cy="320.374" r="1.62911"/>
<circle cx="331.209" cy="320.373" r="1.62911"/>
<circle cx="331.209" cy="320.372" r="1.62911"/>
<circle cx="331.209" cy="320.373" r="1.62911"/>
<circle cx="331.209" cy="320.374" r="1.62911"/>
<circle cx="331.209" cy="320.372" r="1.62911"/>
<circle cx="331.209" cy="320.373" r="1.62911"/>
<circle cx="331.209" cy="320.375" r="1.62911"/>
<circle cx="331.209" cy="320.373" r="1.62911"/>
<circle cx="331.209" cy="320.372" r="1.62911"/>
<circle cx="283.965" cy="320.374" r="1.62911"/>
<circle cx="331.209" cy="320.372" r="1.62911"/>
<circle cx="331.209" cy="320.374" r="1.62911"/>
<circle cx="283.965" cy="320.373" r="1.62911"/>
<circle cx="331.209" cy="320.374" r="1.62911"/>
<circle cx="331.209" cy="320.374" r="1.62911"/>
<circle cx="283.965" cy="320.372" r="1.62911"/>
<circle cx="331.209" cy="320.374" r="1.62911"/>
<circle cx="331.209" cy="320.372" r="1.62911"/>
<circle cx="331.209" cy="320.372" r="1.62911"/>
<circle cx="331.209" cy="320.373" r="1.62911"/>
<circle cx="331.209" cy="320.372" r="1.62911"/>
<circle cx="331.209" cy="320.372" r="1.62911"/>
<circle cx="331.209" cy="320.371" r="1.62911"/>
<circle cx="331.209" cy="320.372" r="1.62911"/>
<circle cx="331.209" cy="320.373" r="1.62911"/>
<circle cx="331.209" cy="320.374" r="1.62911"/>
<circle cx="331.209" cy="320.374" r="1.62911"/>
<circle cx="331.209" cy="320.371" r="1.62911"/>
<circle cx="331.209" cy="320.372" r="1.62911"/>
<circle cx="331.209" cy="320.373" r="1.62911"/>
<circle cx="331.209" cy="320.372" r="1.62911"/>
<circle cx="331.209" cy="320.373" r="1.62911"/>
<circle cx="331.209" cy="320.374" r="1.62911"/>
<circle cx="331.209" cy="320.371" r="1.62911"/>
<circle cx="331.209" cy="320.374" r="1.62911"/>
<circle cx="331.209" cy="320.375" r="1.62911"/>
<circle cx="331.209" cy="320.372" r="1.62911"/>
<circle cx="331.209" cy="320.374" r="1.62911"/>
<circle cx="331.209" cy="320.373" r="1.62911"/>
<circle cx="331.209" cy="320.373" r="1.62911"/>
<circle cx="331.209" cy="320.374" r="1.62911"/>
<circle cx="331.209" cy="320.373" r="1.62911"/>
<circle cx="331.209" cy="320.374" r="1.62911"/>
<circle cx="331.209" cy="320.375" r="1.62911"/>
<circle cx="331.209" cy="320.372" r="1.62911"/>
<circle cx="331.209" cy="320.371" r="1.62911"/>
<circle cx="331.209" cy="320.374" r="1.62911"/>
<circle cx="331.209" cy="320.372" r="1.62911"/>
<circle cx="331.209" cy="320.374" r="1.62911"/>
<circle cx="331.209" cy="320.375" r="1.62911"/>
<circle cx="331.209" cy="320.374" r="1.62911"/>
<circle cx="331.209" cy="320.372" r="1.62911"/>
<circle cx="331.209" cy="320.375" r="1.62911"/>
<circle cx="331.209" cy="320.374" r="1.62911"/>
<circle cx="331.209" cy="320.373" r="1.62911"/>
<circle cx="331.209" cy="320.373" r="1.62911"/>
<circle cx="331.209" cy="320.374" r="1.62911"/>
<circle cx="331.209" cy="320.374" r="1.62911"/>
<circle cx="331.209" cy="320.371" r="1.62911"/>
<circle cx="331.209" cy="320.372" r="1.62911"/>
<circle cx="331.209" cy="320.373" r="1.62911"/>
<circle cx="331.209" cy="320.372" r="1.62911"/>
<circle cx="331.209" cy="320.374" r="1.62911"/>
<circle cx="331.209" cy="320.372" r="1.62911"/>
<circle cx="331.209" cy="320.372" r="1.62911"/>
<circle cx="331.209" cy="320.374" r="1.62911"/>
<circle cx="331.209" cy="320.374" r="1.62911"/>
<circle cx="331.209" cy="320.374" r="1.62911"/>
<circle cx="331.209" cy="320.38" r="1.62911"/>
<circle cx="331.209" cy="320.372" r="1.62911"/>
<circle cx="331.209" cy="320.374" r="1.62911"/>
<circle cx="331.209" cy="320.372" r="1.62911"/>
<circle cx="331.209" cy="320.372" r="1.62911"/>
<circle cx="331.209" cy="320.374" r="1.62911"/>
<circle cx="331.209" cy="320.372" r="1.62911"/>
<circle cx="331.209" cy="320.371" r="1.62911"/>
<circle cx="331.209" cy="320.371" r="1.62911"/>
<circle cx="331.209" cy="320.375" r="1.62911"/>
<circle cx="331.209" cy="320.373" r="1.62911"/>
<circle cx="331.209" cy="320.373" r="1.62911"/>
<circle cx="331.209" cy="320.373" r="1.62911"/>
<circle cx="331.209" cy="320.373" r="1.62911"/>
<circle cx="331.209" cy="320.373" r="1.62911"/>
<circle cx="331.209" cy="320.377" r="1.62911"/>
<circle cx="331.209" cy="320.372" r="1.62911"/>
<circle cx="331.209" cy="320.372" r="1.62911"/>
<circle cx="331.209" cy="320.373" r="1.62911"/>
<circle cx="331.209" cy="320.372" r="1.62911"/>
<circle cx="331.209" cy="320.371" r="1.62911"/>
<circle cx="331.209" cy="320.371" r="1.62911"/>
<circle cx="331.209" cy="320.372" r="1.62911"/>
<circle cx="331.209" cy="320.372" r="1.62911"/>
<circle cx="331.209" cy="320.371" r="1.62911"/>
<circle cx="331.209" cy="320.372" r="1.62911"/>
<circle cx="331.209" cy="320.371" r="1.62911"/>
<circle cx="331.209" cy="320.373" r="1.62911"/>
<circle cx="331.209" cy="320.373" r="1.62911"/>
<circle cx="331.209" cy="320.373" r="1.62911"/>
<circle cx="331.209" cy="320.375" r="1.62911"/>
<circle cx="331.209" cy="320.373" r="1.62911"/>
<circle cx="331.209" cy="320.373" r="1.62911"/>
<circle cx="331.209" cy="320.373" r="1.62911"/>
<circle cx="331.209" cy="320.373" r="1.62911"/>
<circle cx="331.209" cy="320.373" r="1.62911"/>
<circle cx="331.209" cy="320.373" r="1.62911"/>
<circle cx="331.209" cy="320.373" r="1.62911"/>
<circle cx="331.209" cy="320.373" r="1.62911"/>
<circle cx="331.209" cy="320.375" r="1.62911"/>
<circle cx="331.209" cy="320.372" r="1.62911"/>
<circle cx="331.209" cy="320.374" r="1.62911"/>
<circle cx="331.209" cy="320.37" r="1.62911"/>
<circle cx="331.209" cy="320.374" r="1.62911"/>
<circle cx="331.209" cy="320.375" r="1.62911"/>
<circle cx="331.209" cy="320.373" r="1.62911"/>
<circle cx="331.209" cy="320.371" r="1.62911"/>
<circle cx="331.209" cy="320.374" r="1.62911"/>
<circle cx="331.209" cy="320.372" r="1.62911"/>
<circle cx="331.209" cy="320.373" r="1.62911"/>
<circle cx="331.209" cy="320.372" r="1.62911"/>
<circle cx="331.209" cy="320.374" r="1.62911"/>
<circle cx="331.209" cy="320.375" r="1.62911"/>
<circle cx="331.209" cy="320.373" r="1.62911"/>
<circle cx="331.209" cy="320.371" r="1.62911"/>
<circle cx="331.209" cy="320.374" r="1.62911"/>
<circle cx="331.209" cy="320.37" r="1.62911"/>
<circle cx="331.209" cy="320.372" r="1.62911"/>
<circle cx="331.209" cy="320.37" r="1.62911"/>
<circle cx="331.209" cy="320.374" r="1.62911"/>
<circle cx="331.209" cy="320.37" r="1.62911"/>
<circle cx="331.209" cy="320.373" r="1.62911"/>
<circle cx="331.209" cy="320.374" r="1.62911"/>
<circle cx="331.209" cy="320.373" r="1.62911"/>
<circle cx="331.209" cy="320.372" r="1.62911"/>
<circle cx="331.209" cy="320.372" r="1.62911"/>
<circle cx="331.209" cy="320.373" r="1.62911"/>
<circle cx="331.209" cy="320.371" r="1.62911"/>
<circle cx="331.209" cy="320.371" r="1.62911"/>
<circle cx="331.209" cy="320.371" r="1.62911"/>
<circle cx="331.209" cy="320.37" r="1.62911"/>
<circle cx="331.209" cy="320.373" r="1.62911"/>
<circle cx="331.209" cy="320.37" r="1.62911"/>
<circle cx="331.209" cy="320.372" r="1.62911"/>
<circle cx="331.209" cy="320.371" r="1.62911"/>
<circle cx="331.209" cy="320.371" r="1.62911"/>
<circle cx="331.209" cy="320.372" r="1.62911"/>
<circle cx="331.209" cy="320.371" r="1.62911"/>
<circle cx="331.209" cy="320.371" r="1.62911"/>
<circle cx="331.209" cy="320.371" r="1.62911"/>
<circle cx="331.209" cy="320.371" r="1.62911"/>
<circle cx="331.209" cy="320.372" r="1.62911"/>
<circle cx="331.209" cy="320.373" r="1.62911"/>
<circle cx="331.209" cy="320.372" r="1.62911"/>
<circle cx="236.72" cy="320.373" r="1.62911"/>
<circle cx="331.209" cy="320.373" r="1.62911"/>
<circle cx="236.72" cy="320.373" r="1.62911"/>
<circle cx="236.72" cy="320.373" r="1.62911"/>
<circle cx="331.209" cy="320.373" r="1.62911"/>
<circle cx="331.209" cy="320.373" r="1.62911"/>
<circle cx="331.209" cy="320.373" r="1.62911"/>
<circle cx="331.209" cy="320.373" r="1.62911"/>
<circle cx="331.209" cy="320.374" r="1.62911"/>
<circle cx="331.209" cy="320.373" r="1.62911"/>
<circle cx="331.209" cy="320.373" r="1.62911"/>
<circle cx="331.209" cy="320.374" r="1.62911"/>
<circle cx="331.209" cy="320.374" r="1.62911"/>
<circle cx="331.209" cy="320.374" r="1.62911"/>
<circle cx="331.209" cy="320.373" r="1.62911"/>
<circle cx="331.209" cy="320.372" r="1.62911"/>
<circle cx="331.209" cy="320.374" r="1.62911"/>
<circle cx="331.209" cy="320.373" r="1.62911"/>
<circle cx="331.209" cy="320.373" r="1.62911"/>
<circle cx="331.209" cy="320.374" r="1.62911"/>
<circle cx="331.209" cy="320.374" r="1.62911"/>
<circle cx="331.209" cy="320.373" r="1.62911"/>
<circle cx="331.209" cy="320.374" r="1.62911"/>
<circle cx="236.72" cy="320.372" r="1.62911"/>
<circle cx="236.72" cy="320.372" r="1.62911"/>
<circle cx="236.72" cy="320.372" r="1.62911"/>
<circle cx="236.72" cy="320.373" r="1.62911"/>
<circle cx="236.72" cy="320.375" r="1.62911"/>
<circle cx="236.72" cy="320.371" r="1.62911"/>
<circle cx="236.72" cy="320.373" r="1.62911"/>
<circle cx="236.72" cy="320.372" r="1.62911"/>
<circle cx="236.72" cy="320.375" r="1.62911"/>
<circle cx="236.72" cy="320.374" r="1.62911"/>
<circle cx="236.72" cy="320.374" r="1.62911"/>
<circle cx="236.72" cy="320.373" r="1.62911"/>
<circle cx="236.72" cy="320.374" r="1.62911"/>
<circle cx="236.72" cy="320.375" r="1.62911"/>
<circle cx="236.72" cy="320.375" r="1.62911"/>
<circle cx="236.72" cy="320.366" r="1.62911"/>
<circle cx="236.72" cy="320.373" r="1.62911"/>
<circle cx="236.72" cy="320.375" r="1.62911"/>
<circle cx="236.72" cy="320.374" r="1.62911"/>
<circle cx="236.72" cy="320.374" r="1.62911"/>
<circle cx="236.72" cy="320.375" r="1.62911"/>
<circle cx="236.72" cy="320.375" r="1.62911"/>
<circle cx="236.72" cy="320.372" r="1.62911"/>
<circle cx="236.72" cy="320.373" r="1.62911"/>
<circle cx="236.72" cy="320.376" r="1.62911"/>
<circle cx="236.72" cy="320.372" r="1.62911"/>
<circle cx="236.72" cy="320.372" r="1.62911"/>
<circle cx="236.72" cy="320.374" r="1.62911"/>
<circle cx="236.72" cy="320.374" r="1.62911"/>
<circle cx="236.72" cy="320.373" r="1.62911"/>
<circle cx="236.72" cy="320.372" r="1.62911"/>
<circle cx="236.72" cy="320.373" r="1.62911"/>
<circle cx="236.72" cy="320.373" r="1.62911"/>
<circle cx="236.72" cy="320.371" r="1.62911"/>
<circle cx="236.72" cy="320.372" r="1.62911"/>
<circle cx="236.72" cy="320.371" r="1.62911"/>
<circle cx="236.72" cy="320.374" r="1.62911"/>
<circle cx="236.72" cy="320.373" r="1.62911"/>
<circle cx="236.72" cy="320.375" r="1.62911"/>
<circle cx="236.72" cy="320.371" r="1.62911"/>
<circle cx="236.72" cy="320.372" r="1.62911"/>
<circle cx="236.72" cy="320.372" r="1.62911"/>
<circle cx="236.72" cy="320.373" r="1.62911"/>
<circle cx="236.72" cy="320.373" r="1.62911"/>
<circle cx="236.72" cy="320.372" r="1.62911"/>
<circle cx="236.72" cy="320.372" r="1.62911"/>
<circle cx="236.72" cy="320.372" r="1.62911"/>
<circle cx="236.72" cy="320.372" r="1.62911"/>
<circle cx="236.72" cy="320.372" r="1.62911"/>
<circle cx="236.72" cy="320.373" r="1.62911"/>
<circle cx="236.72" cy="320.373" r="1.62911"/>
<circle cx="236.72" cy="320.374" r="1.62911"/>
<circle cx="236.72" cy="320.373" r="1.62911"/>
<circle cx="236.72" cy="320.373" r="1.62911"/>
<circle cx="236.72" cy="320.373" r="1.62911"/>
<circle cx="236.72" cy="320.374" r="1.62911"/>
<circle cx="236.72" cy="320.375" r="1.62911"/>
<circle cx="236.72" cy="320.374" r="1.62911"/>
<circle cx="236.72" cy="320.373" r="1.62911"/>
<circle cx="236.72" cy="320.374" r="1.62911"/>
<circle cx="236.72" cy="320.375" r="1.62911"/>
<circle cx="236.72" cy="320.374" r="1.62911"/>
<circle cx="236.72" cy="320.373" r="1.62911"/>
<circle cx="236.72" cy="320.373" r="1.62911"/>
<circle cx="236.72" cy="320.373" r="1.62911"/>
<circle cx="236.72" cy="320.375" r="1.62911"/>
<circle cx="236.72" cy="320.374" r="1.62911"/>
<circle cx="236.72" cy="320.376" r="1.62911"/>
<circle cx="236.72" cy="320.372" r="1.62911"/>
<circle cx="236.72" cy="320.375" r="1.62911"/>
<circle cx="236.72" cy="320.373" r="1.62911"/>
<circle cx="236.72" cy="320.374" r="1.62911"/>
<circle cx="236.72" cy="320.375" r="1.62911"/>
<circle cx="236.72" cy="320.373" r="1.62911"/>
<circle cx="236.72" cy="320.373" r="1.62911"/>
<circle cx="236.72" cy="320.373" r="1.62911"/>
<circle cx="236.72" cy="320.372" r="1.62911"/>
<circle cx="236.72" cy="320.374" r="1.62911"/>
<circle cx="236.72" cy="320.372" r="1.62911"/>
<circle cx="236.72" cy="320.374" r="1.62911"/>
<circle cx="236.72" cy="320.371" r="1.62911"/>
<circle cx="236.72" cy="320.374" r="1.62911"/>
<circle cx="236.72" cy="320.374" r="1.62911"/>
<circle cx="236.72" cy="320.373" r="1.62911"/>
<circle cx="236.72" cy="320.374" r="1.62911"/>
<circle cx="236.72" cy="320.371" r="1.62911"/>
<circle cx="236.72" cy="320.374" r="1.62911"/>
<circle cx="236.72" cy="320.371" r="1.62911"/>
<circle cx="236.72" cy="320.373" r="1.62911"/>
<circle cx="236.72" cy="320.371" r="1.62911"/>
<circle cx="236.72" cy="320.374" r="1.62911"/>
<circle cx="236.72" cy="320.369" r="1.62911"/>
<circle cx="236.72" cy="320.375" r="1.62911"/>
<circle cx="236.72" cy="320.372" r="1.62911"/>
<circle cx="236.72" cy="320.375" r="1.62911"/>
<circle cx="236.72" cy="320.374" r="1.62911"/>
<circle cx="236.72" cy="320.373" r="1.62911"/>
<circle cx="236.72" cy="320.373" r="1.62911"/>
<circle cx="236.72" cy="320.372" r="1.62911"/>
<circle cx="236.72" cy="320.373" r="1.62911"/>
<circle cx="236.72" cy="320.367" r="1.62911"/>
<circle cx="236.72" cy="320.374" r="1.62911"/>
<circle cx="236.72" cy="320.373" r="1.62911"/>
<circle cx="236.72" cy="320.373" r="1.62911"/>
<circle cx="236.72" cy="320.374" r="1.62911"/>
<circle cx="236.72" cy="320.371" r="1.62911"/>
<circle cx="236.72" cy="320.374" r="1.62911"/>
<circle cx="236.72" cy="320.374" r="1.62911"/>
<circle cx="236.72" cy="320.375" r="1.62911"/>
<circle cx="236.72" cy="320.373" r="1.62911"/>
<circle cx="236.72" cy="320.373" r="1.62911"/>
<circle cx="236.72" cy="320.372" r="1.62911"/>
<circle cx="236.72" cy="320.373" r="1.62911"/>
<circle cx="236.72" cy="320.373" r="1.62911"/>
<circle cx="236.72" cy="320.374" r="1.62911"/>
<circle cx="236.72" cy="320.374" r="1.62911"/>
<circle cx="236.72" cy="320.372" r="1.62911"/>
<circle cx="236.72" cy="320.373" r="1.62911"/>
<circle cx="236.72" cy="320.373" r="1.62911"/>
<circle cx="236.72" cy="320.373" r="1.62911"/>
<circle cx="236.72" cy="320.373" r="1.62911"/>
<circle cx="236.72" cy="320.373" r="1.62911"/>
<circle cx="236.72" cy="320.373" r="1.62911"/>
<circle cx="236.72" cy="320.373" r="1.62911"/>
<circle cx="236.72" cy="320.372" r="1.62911"/>
<circle cx="236.72" cy="320.373" r="1.62911"/>
<circle cx="236.72" cy="320.373" r="1.62911"/>
<circle cx="236.72" cy="320.374" r="1.62911"/>
<circle cx="236.72" cy="320.373" r="1.62911"/>
<circle cx="236.72" cy="320.373" r="1.62911"/>
<circle cx="236.72" cy="320.372" r="1.62911"/>
<circle cx="236.72" cy="320.373" r="1.62911"/>
<circle cx="236.72" cy="320.373" r="1.62911"/>
<circle cx="236.72" cy="320.374" r="1.62911"/>
<circle cx="236.72" cy="320.374" r="1.62911"/>
<circle cx="236.72" cy="320.372" r="1.62911"/>
<circle cx="236.72" cy="320.373" r="1.62911"/>
<circle cx="236.72" cy="320.372" r="1.62911"/>
<circle cx="236.72" cy="320.373" r="1.62911"/>
<circle cx="236.72" cy="320.373" r="1.62911"/>
<circle cx="236.72" cy="320.373" r="1.62911"/>
<circle cx="236.72" cy="320.372" r="1.62911"/>
<circle cx="236.72" cy="320.373" r="1.62911"/>
<circle cx="236.72" cy="320.373" r="1.62911"/>
<circle cx="236.72" cy="320.373" r="1.62911"/>
<circle cx="236.72" cy="320.372" r="1.62911"/>
<circle cx="236.72" cy="320.373" r="1.62911"/>
<circle cx="236.72" cy="320.372" r="1.62911"/>
<circle cx="236.72" cy="320.372" r="1.62911"/>
<circle cx="236.72" cy="320.373" r="1.62911"/>
<circle cx="236.72" cy="320.372" r="1.62911"/>
<circle cx="236.72" cy="320.373" r="1.62911"/>
<circle cx="236.72" cy="320.372" r="1.62911"/>
<circle cx="236.72" cy="320.373" r="1.62911"/>
<circle cx="236.72" cy="320.373" r="1.62911"/>
<circle cx="236.72" cy="320.373" r="1.62911"/>
<circle cx="236.72" cy="320.374" r="1.62911"/>
<circle cx="236.72" cy="320.373" r="1.62911"/>
<circle cx="236.72" cy="320.373" r="1.62911"/>
<circle cx="236.72" cy="320.374" r="1.62911"/>
<circle cx="236.72" cy="320.373" r="1.62911"/>
<circle cx="236.72" cy="320.373" r="1.62911"/>
<circle cx="236.72" cy="320.374" r="1.62911"/>
<circle cx="236.72" cy="320.374" r="1.62911"/>
<circle cx="236.72" cy="320.374" r="1.62911"/>
<circle cx="236.72" cy="320.374" r="1.62911"/>
<circle cx="236.72" cy="320.374" r="1.62911"/>
<circle cx="236.72" cy="320.374" r="1.62911"/>
<circle cx="236.72" cy="320.373" r="1.62911"/>
<circle cx="236.72" cy="320.375" r="1.62911"/>
<circle cx="236.72" cy="320.374" r="1.62911"/>
<circle cx="236.72" cy="320.373" r="1.62911"/>
<circle cx="236.72" cy="320.373" r="1.62911"/>
<circle cx="236.72" cy="320.373" r="1.62911"/>
<circle cx="236.72" cy="320.373" r="1.62911"/>
<circle cx="236.72" cy="320.372" r="1.62911"/>
<circle cx="236.72" cy="320.373" r="1.62911"/>
<circle cx="236.72" cy="320.373" r="1.62911"/>
<circle cx="236.72" cy="320.373" r="1.62911"/>
<circle cx="236.72" cy="320.373" r="1.62911"/>
<circle cx="236.72" cy="320.373" r="1.62911"/>
<circle cx="236.72" cy="320.374" r="1.62911"/>
<circle cx="236.72" cy="320.373" r="1.62911"/>
<circle cx="236.72" cy="320.373" r="1.62911"/>
<circle cx="236.72" cy="320.373" r="1.62911"/>
<circle cx="236.72" cy="320.373" r="1.62911"/>
<circle cx="236.72" cy="320.373" r="1.62911"/>
<circle cx="236.72" cy="320.373" r="1.62911"/>
<circle cx="236.72" cy="320.374" r="1.62911"/>
<circle cx="236.72" cy="320.374" r="1.62911"/>
<circle cx="236.72" cy="320.374" r="1.62911"/>
<circle cx="236.72" cy="320.374" r="1.62911"/>
<circle cx="236.72" cy="320.374" r="1.62911"/>
<circle cx="236.72" cy="320.374" r="1.62911"/>
<circle cx="236.72" cy="320.374" r="1.62911"/>
<circle cx="236.72" cy="320.374" r="1.62911"/>
<circle cx="236.72" cy="320.375" r="1.62911"/>
<circle cx="236.72" cy="320.374" r="1.62911"/>
<circle cx="236.72" cy="320.373" r="1.62911"/>
<circle cx="236.72" cy="320.373" r="1.62911"/>
<circle cx="236.72" cy="320.375" r="1.62911"/>
<circle cx="236.72" cy="320.374" r="1.62911"/>
<circle cx="236.72" cy="320.374" r="1.62911"/>
<circle cx="236.72" cy="320.375" r="1.62911"/>
<circle cx="236.72" cy="320.373" r="1.62911"/>
<circle cx="236.72" cy="320.374" r="1.62911"/>
<circle cx="236.72" cy="320.374" r="1.62911"/>
<circle cx="236.72" cy="320.38" r="1.62911"/>
<circle cx="236.72" cy="320.38" r="1.62911"/>
<circle cx="236.72" cy="320.38" r="1.62911"/>
<circle cx="236.72" cy="320.38" r="1.62911"/>
<circle cx="236.72" cy="320.38" r="1.62911"/>
<circle cx="236.72" cy="320.38" r="1.62911"/>
<circle cx="236.72" cy="320.38" r="1.62911"/>
<circle cx="236.72" cy="320.38" r="1.62911"/>
<circle cx="236.72" cy="320.38" r="1.62911"/>
<circle cx="236.72" cy="320.38" r="1.62911"/>
<circle cx="236.72" cy="320.38" r="1.62911"/>
<circle cx="236.72" cy="320.38" r="1.62911"/>
<circle cx="236.72" cy="320.38" r="1.62911"/>
<circle cx="236.72" cy="320.38" r="1.62911"/>
<circle cx="236.72" cy="320.38" r="1.62911"/>
<circle cx="236.72" cy="320.38" r="1.62911"/>
<circle cx="236.72" cy="320.38" r="1.62911"/>
<circle cx="236.72" cy="320.38" r="1.62911"/>
<circle cx="189.476" cy="320.38" r="1.62911"/>
<circle cx="236.72" cy="320.38" r="1.62911"/>
<circle cx="236.72" cy="320.38" r="1.62911"/>
<circle cx="236.72" cy="320.38" r="1.62911"/>
<circle cx="236.72" cy="320.38" r="1.62911"/>
<circle cx="236.72" cy="320.38" r="1.62911"/>
<circle cx="236.72" cy="320.38" r="1.62911"/>
<circle cx="236.72" cy="320.38" r="1.62911"/>
<circle cx="236.72" cy="320.38" r="1.62911"/>
<circle cx="236.72" cy="320.38" r="1.62911"/>
<circle cx="236.72" cy="320.38" r="1.62911"/>
<circle cx="236.72" cy="320.38" r="1.62911"/>
<circle cx="236.72" cy="320.38" r="1.62911"/>
<circle cx="189.476" cy="320.38" r="1.62911"/>
<circle cx="236.72" cy="320.38" r="1.62911"/>
<circle cx="236.72" cy="320.38" r="1.62911"/>
<circle cx="236.72" cy="320.38" r="1.62911"/>
<circle cx="189.476" cy="320.38" r="1.62911"/>
<circle cx="189.476" cy="320.38" r="1.62911"/>
<circle cx="189.476" cy="320.38" r="1.62911"/>
<circle cx="189.476" cy="320.38" r="1.62911"/>
<circle cx="189.476" cy="320.38" r="1.62911"/>
<circle cx="189.476" cy="320.38" r="1.62911"/>
<circle cx="189.476" cy="320.38" r="1.62911"/>
<circle cx="189.476" cy="320.38" r="1.62911"/>
<circle cx="189.476" cy="320.38" r="1.62911"/>
<circle cx="189.476" cy="320.38" r="1.62911"/>
<circle cx="189.476" cy="320.38" r="1.62911"/>
<circle cx="189.476" cy="320.38" r="1.62911"/>
<circle cx="189.476" cy="320.38" r="1.62911"/>
<circle cx="189.476" cy="320.38" r="1.62911"/>
<circle cx="189.476" cy="320.38" r="1.62911"/>
<circle cx="189.476" cy="320.38" r="1.62911"/>
<circle cx="189.476" cy="320.38" r="1.62911"/>
<circle cx="189.476" cy="320.38" r="1.62911"/>
<circle cx="189.476" cy="320.38" r="1.62911"/>
<circle cx="189.476" cy="320.38" r="1.62911"/>
<circle cx="189.476" cy="320.38" r="1.62911"/>
<circle cx="189.476" cy="320.38" r="1.62911"/>
<circle cx="189.476" cy="320.38" r="1.62911"/>
<circle cx="189.476" cy="320.38" r="1.62911"/>
<circle cx="189.476" cy="320.38" r="1.62911"/>
<circle cx="189.476" cy="320.38" r="1.62911"/>
<circle cx="189.476" cy="320.38" r="1.62911"/>
<circle cx="189.476" cy="320.38" r="1.62911"/>
<circle cx="189.476" cy="320.38" r="1.62911"/>
<circle cx="189.476" cy="320.38" r="1.62911"/>
<circle cx="189.476" cy="320.38" r="1.62911"/>
<circle cx="189.476" cy="320.38" r="1.62911"/>
<circle cx="189.476" cy="320.38" r="1.62911"/>
<circle cx="189.476" cy="320.38" r="1.62911"/>
<circle cx="189.476" cy="320.38" r="1.62911"/>
<circle cx="189.476" cy="320.38" r="1.62911"/>
<circle cx="189.476" cy="320.38" r="1.62911"/>
<circle cx="189.476" cy="320.38" r="1.62911"/>
<circle cx="189.476" cy="320.38" r="1.62911"/>
<circle cx="189.476" cy="320.38" r="1.62911"/>
<circle cx="189.476" cy="320.38" r="1.62911"/>
<circle cx="189.476" cy="320.38" r="1.62911"/>
<circle cx="189.476" cy="320.38" r="1.62911"/>
<circle cx="189.476" cy="320.38" r="1.62911"/>
<circle cx="189.476" cy="320.38" r="1.62911"/>
<circle cx="189.476" cy="320.38" r="1.62911"/>
<circle cx="189.476" cy="320.38" r="1.62911"/>
<circle cx="189.476" cy="320.38" r="1.62911"/>
<circle cx="189.476" cy="320.38" r="1.62911"/>
<circle cx="189.476" cy="320.38" r="1.62911"/>
<circle cx="189.476" cy="320.38" r="1.62911"/>
<circle cx="189.476" cy="320.38" r="1.62911"/>
<circle cx="189.476" cy="320.38" r="1.62911"/>
<circle cx="189.476" cy="320.38" r="1.62911"/>
<circle cx="189.476" cy="320.38" r="1.62911"/>
<circle cx="189.476" cy="320.38" r="1.62911"/>
<circle cx="189.476" cy="320.38" r="1.62911"/>
<circle cx="189.476" cy="320.38" r="1.62911"/>
<circle cx="189.476" cy="320.38" r="1.62911"/>
<circle cx="189.476" cy="320.38" r="1.62911"/>
<circle cx="189.476" cy="320.38" r="1.62911"/>
<circle cx="189.476" cy="320.38" r="1.62911"/>
<circle cx="189.476" cy="320.38" r="1.62911"/>
<circle cx="189.476" cy="320.38" r="1.62911"/>
<circle cx="189.476" cy="320.38" r="1.62911"/>
<circle cx="189.476" cy="320.38" r="1.62911"/>
<circle cx="189.476" cy="320.38" r="1.62911"/>
<circle cx="189.476" cy="320.38" r="1.62911"/>
<circle cx="189.476" cy="320.38" r="1.62911"/>
<circle cx="189.476" cy="320.38" r="1.62911"/>
<circle cx="189.476" cy="320.38" r="1.62911"/>
<circle cx="189.476" cy="320.38" r="1.62911"/>
<circle cx="189.476" cy="320.38" r="1.62911"/>
<circle cx="189.476" cy="320.38" r="1.62911"/>
<circle cx="189.476" cy="320.38" r="1.62911"/>
<circle cx="189.476" cy="320.38" r="1.62911"/>
<circle cx="189.476" cy="320.38" r="1.62911"/>
<circle cx="189.476" cy="320.38" r="1.62911"/>
<circle cx="189.476" cy="320.38" r="1.62911"/>
<circle cx="189.476" cy="320.38" r="1.62911"/>
<circle cx="189.476" cy="320.38" r="1.62911"/>
<circle cx="189.476" cy="320.38" r="1.62911"/>
<circle cx="189.476" cy="320.38" r="1.62911"/>
<circle cx="189.476" cy="320.38" r="1.62911"/>
<circle cx="189.476" cy="320.38" r="1.62911"/>
<circle cx="189.476" cy="320.38" r="1.62911"/>
<circle cx="189.476" cy="320.38" r="1.62911"/>
<circle cx="189.476" cy="320.38" r="1.62911"/>
<circle cx="189.476" cy="320.38" r="1.62911"/>
<circle cx="189.476" cy="320.38" r="1.62911"/>
<circle cx="189.476" cy="320.38" r="1.62911"/>
<circle cx="189.476" cy="320.38" r="1.62911"/>
<circle cx="189.476" cy="320.38" r="1.62911"/>
<circle cx="189.476" cy="320.38" r="1.62911"/>
<circle cx="189.476" cy="320.38" r="1.62911"/>
<circle cx="189.476" cy="320.38" r="1.62911"/>
<circle cx="189.476" cy="320.38" r="1.62911"/>
<circle cx="189.476" cy="320.38" r="1.62911"/>
<circle cx="189.476" cy="320.38" r="1.62911"/>
<circle cx="189.476" cy="320.38" r="1.62911"/>
<circle cx="189.476" cy="320.38" r="1.62911"/>
<circle cx="189.476" cy="320.38" r="1.62911"/>
<circle cx="189.476" cy="320.38" r="1.62911"/>
<circle cx="189.476" cy="320.38" r="1.62911"/>
<circle cx="189.476" cy="320.38" r="1.62911"/>
<circle cx="189.476" cy="320.38" r="1.62911"/>
<circle cx="189.476" cy="320.38" r="1.62911"/>
<circle cx="189.476" cy="320.38" r="1.62911"/>
<circle cx="189.476" cy="320.38" r="1.62911"/>
<circle cx="189.476" cy="320.38" r="1.62911"/>
<circle cx="189.476" cy="320.38" r="1.62911"/>
<circle cx="189.476" cy="320.38" r="1.62911"/>
<circle cx="189.476" cy="320.38" r="1.62911"/>
<circle cx="189.476" cy="320.363" r="1.62911"/>
<circle cx="189.476" cy="320.369" r="1.62911"/>
<circle cx="189.476" cy="320.369" r="1.62911"/>
<circle cx="189.476" cy="320.391" r="1.62911"/>
<circle cx="189.476" cy="320.38" r="1.62911"/>
<circle cx="189.476" cy="320.38" r="1.62911"/>
<circle cx="189.476" cy="320.363" r="1.62911"/>
<circle cx="189.476" cy="320.369" r="1.62911"/>
<circle cx="189.476" cy="320.369" r="1.62911"/>
<circle cx="189.476" cy="320.391" r="1.62911"/>
<circle cx="189.476" cy="320.38" r="1.62911"/>
<circle cx="189.476" cy="320.38" r="1.62911"/>
<circle cx="189.476" cy="320.38" r="1.62911"/>
<circle cx="189.476" cy="320.38" r="1.62911"/>
<circle cx="189.476" cy="320.38" r="1.62911"/>
<circle cx="189.476" cy="320.38" r="1.62911"/>
<circle cx="189.476" cy="320.38" r="1.62911"/>
<circle cx="189.476" cy="320.38" r="1.62911"/>
<circle cx="189.476" cy="320.38" r="1.62911"/>
<circle cx="189.476" cy="320.38" r="1.62911"/>
<circle cx="189.476" cy="320.38" r="1.62911"/>
<circle cx="189.476" cy="320.38" r="1.62911"/>
<circle cx="189.476" cy="320.38" r="1.62911"/>
<circle cx="189.476" cy="320.38" r="1.62911"/>
<circle cx="189.476" cy="320.38" r="1.62911"/>
<circle cx="378.453" cy="320.38" r="1.62911"/>
<circle cx="378.453" cy="320.38" r="1.62911"/>
<circle cx="378.453" cy="320.38" r="1.62911"/>
<circle cx="378.453" cy="320.38" r="1.62911"/>
<circle cx="378.453" cy="320.38" r="1.62911"/>
<circle cx="378.453" cy="320.379" r="1.62911"/>
<circle cx="378.453" cy="320.379" r="1.62911"/>
<circle cx="378.453" cy="320.38" r="1.62911"/>
</g>
<g fill="black">
<circle cx="378.453" cy="320.38" r="1.62911"/>
<circle cx="378.453" cy="320.38" r="1.62911"/>
<circle cx="378.453" cy="320.38" r="1.62911"/>
<circle cx="378.453" cy="320.38" r="1.62911"/>
<circle cx="378.453" cy="320.38" r="1.62911"/>
<circle cx="378.453" cy="320.38" r="1.62911"/>
<circle cx="378.453" cy="320.38" r="1.62911"/>
<circle cx="378.453" cy="320.38" r="1.62911"/>
<circle cx="378.453" cy="320.38" r="1.62911"/>
<circle cx="378.453" cy="320.38" r="1.62911"/>
<circle cx="378.453" cy="320.38" r="1.62911"/>
<circle cx="378.453" cy="320.38" r="1.62911"/>
<circle cx="378.453" cy="320.38" r="1.62911"/>
<circle cx="378.453" cy="320.38" r="1.62911"/>
<circle cx="378.453" cy="320.38" r="1.62911"/>
<circle cx="378.453" cy="320.38" r="1.62911"/>
<circle cx="378.453" cy="320.38" r="1.62911"/>
<circle cx="378.453" cy="320.38" r="1.62911"/>
<circle cx="378.453" cy="320.38" r="1.62911"/>
<circle cx="378.453" cy="320.38" r="1.62911"/>
<circle cx="378.453" cy="320.38" r="1.62911"/>
<circle cx="378.453" cy="320.38" r="1.62911"/>
<circle cx="378.453" cy="320.38" r="1.62911"/>
<circle cx="378.453" cy="320.38" r="1.62911"/>
<circle cx="378.453" cy="320.38" r="1.62911"/>
<circle cx="378.453" cy="320.38" r="1.62911"/>
<circle cx="378.453" cy="320.38" r="1.62911"/>
<circle cx="378.453" cy="320.38" r="1.62911"/>
<circle cx="378.453" cy="320.38" r="1.62911"/>
<circle cx="378.453" cy="320.38" r="1.62911"/>
<circle cx="378.453" cy="232.189" r="1.62911"/>
<circle cx="378.453" cy="320.38" r="1.62911"/>
<circle cx="378.453" cy="320.38" r="1.62911"/>
<circle cx="378.453" cy="64.0782" r="1.62911"/>
<circle cx="378.453" cy="320.38" r="1.62911"/>
<circle cx="378.453" cy="320.38" r="1.62911"/>
<circle cx="378.453" cy="320.38" r="1.62911"/>
<circle cx="378.453" cy="320.38" r="1.62911"/>
</g>
<g fill="black">
<circle cx="378.453" cy="320.38" r="1.62911"/>
<circle cx="378.453" cy="320.38" r="1.62911"/>
<circle cx="378.453" cy="320.38" r="1.62911"/>
<circle cx="378.453" cy="320.38" r="1.62911"/>
<circle cx="378.453" cy="320.38" r="1.62911"/>
<circle cx="378.453" cy="320.38" r="1.62911"/>
<circle cx="378.453" cy="320.38" r="1.62911"/>
<circle cx="378.453" cy="320.38" r="1.62911"/>
<circle cx="378.453" cy="320.38" r="1.62911"/>
<circle cx="378.453" cy="320.38" r="1.62911"/>
<circle cx="378.453" cy="320.38" r="1.62911"/>
<circle cx="94.9882" cy="320.38" r="1.62911"/>
<circle cx="94.9882" cy="320.38" r="1.62911"/>
<circle cx="94.9882" cy="320.38" r="1.62911"/>
<circle cx="94.9882" cy="320.38" r="1.62911"/>
<circle cx="94.9882" cy="320.38" r="1.62911"/>
<circle cx="94.9882" cy="320.38" r="1.62911"/>
<circle cx="94.9882" cy="320.38" r="1.62911"/>
<circle cx="94.9882" cy="320.38" r="1.62911"/>
<circle cx="94.9882" cy="320.38" r="1.62911"/>
<circle cx="94.9882" cy="320.38" r="1.62911"/>
<circle cx="94.9882" cy="320.38" r="1.62911"/>
<circle cx="94.9882" cy="320.38" r="1.62911"/>
<circle cx="94.9882" cy="320.38" r="1.62911"/>
<circle cx="94.9882" cy="320.38" r="1.62911"/>
<circle cx="94.9882" cy="320.38" r="1.62911"/>
<circle cx="94.9882" cy="320.38" r="1.62911"/>
<circle cx="94.9882" cy="320.38" r="1.62911"/>
<circle cx="94.9882" cy="320.38" r="1.62911"/>
<circle cx="94.9882" cy="320.38" r="1.62911"/>
<circle cx="94.9882" cy="320.38" r="1.62911"/>
<circle cx="94.9882" cy="320.38" r="1.62911"/>
<circle cx="94.9882" cy="320.38" r="1.62911"/>
<circle cx="94.9882" cy="320.38" r="1.62911"/>
<circle cx="94.9882" cy="320.38" r="1.62911"/>
<circle cx="94.9882" cy="320.38" r="1.62911"/>
<circle cx="94.9882" cy="320.38" r="1.62911"/>
<circle cx="94.9882" cy="320.38" r="1.62911"/>
<circle cx="94.9882" cy="320.38" r="1.62911"/>
<circle cx="94.9882" cy="320.38" r="1.62911"/>
<circle cx="94.9882" cy="320.38" r="1.62911"/>
<circle cx="94.9882" cy="320.38" r="1.62911"/>
<circle cx="94.9882" cy="320.38" r="1.62911"/>
<circle cx="94.9882" cy="320.38" r="1.62911"/>
<circle cx="94.9882" cy="320.38" r="1.62911"/>
<circle cx="94.9882" cy="320.38" r="1.62911"/>
<circle cx="94.9882" cy="320.38" r="1.62911"/>
<circle cx="94.9882" cy="320.38" r="1.62911"/>
<circle cx="94.9882" cy="320.38" r="1.62911"/>
<circle cx="94.9882" cy="320.38" r="1.62911"/>
<circle cx="94.9882" cy="320.38" r="1.62911"/>
<circle cx="94.9882" cy="320.38" r="1.62911"/>
<circle cx="94.9882" cy="320.38" r="1.62911"/>
<circle cx="94.9882" cy="320.38" r="1.62911"/>
<circle cx="94.9882" cy="320.38" r="1.62911"/>
<circle cx="94.9882" cy="320.38" r="1.62911"/>
<circle cx="94.9882" cy="320.38" r="1.62911"/>
<circle cx="94.9882" cy="320.38" r="1.62911"/>
<circle cx="94.9882" cy="320.38" r="1.62911"/>
<circle cx="94.9882" cy="320.38" r="1.62911"/>
<circle cx="94.9882" cy="320.38" r="1.62911"/>
<circle cx="94.9882" cy="320.38" r="1.62911"/>
<circle cx="94.9882" cy="320.38" r="1.62911"/>
<circle cx="94.9882" cy="320.38" r="1.62911"/>
<circle cx="94.9882" cy="320.38" r="1.62911"/>
<circle cx="94.9882" cy="320.38" r="1.62911"/>
<circle cx="94.9882" cy="320.38" r="1.62911"/>
<circle cx="94.9882" cy="320.38" r="1.62911"/>
<circle cx="94.9882" cy="320.38" r="1.62911"/>
<circle cx="94.9882" cy="320.38" r="1.62911"/>
<circle cx="94.9882" cy="320.38" r="1.62911"/>
<circle cx="94.9882" cy="320.38" r="1.62911"/>
<circle cx="94.9882" cy="320.38" r="1.62911"/>
<circle cx="94.9882" cy="320.38" r="1.62911"/>
<circle cx="94.9882" cy="320.38" r="1.62911"/>
<circle cx="94.9882" cy="320.38" r="1.62911"/>
<circle cx="94.9882" cy="320.38" r="1.62911"/>
<circle cx="94.9882" cy="320.38" r="1.62911"/>
<circle cx="94.9882" cy="320.38" r="1.62911"/>
<circle cx="94.9882" cy="320.38" r="1.62911"/>
<circle cx="94.9882" cy="320.38" r="1.62911"/>
<circle cx="94.9882" cy="320.38" r="1.62911"/>
<circle cx="94.9882" cy="320.38" r="1.62911"/>
</g>
<text xml:space="preserve" x="145.49" y="17.9202" fill="black" font-size="18.7938" font-family="Helvetica">block mpv vs sipm vop (adjusted)</text></svg>
