<?xml version="1.0" standalone="no"?>
<svg width="567.429" height="384.969" viewBox="0 0 567.429 384.969" xmlns="http://www.w3.org/2000/svg" shape-rendering="crispEdges">
<title>
./adjusted_vop/vop_graphs/vop_mpv_scatter.svg
</title>
<desc>
Creator: ROOT Version 6.24/00
CreationDate: Thu Jun 24 00:43:01 2021</desc>
<defs>
</defs>
<rect x="0.5" y="0" width="566.929" height="384.469" fill="white"/>
<rect x="57.1929" y="38.4469" width="453.543" height="307.575" fill="white"/>
<rect x="57.1929" y="38.4469" width="453.543" height="307.575" fill="none" stroke="black"/>
<path d="M57.1929,346.022h 453.543" fill="none" stroke="black"/>
<path d="M66.6417,336.795v 9.22726" fill="none" stroke="black"/>
<path d="M76.0906,341.409v 4.61363" fill="none" stroke="black"/>
<path d="M85.5394,341.409v 4.61363" fill="none" stroke="black"/>
<path d="M94.9882,341.409v 4.61363" fill="none" stroke="black"/>
<path d="M104.437,341.409v 4.61363" fill="none" stroke="black"/>
<path d="M113.886,336.795v 9.22726" fill="none" stroke="black"/>
<path d="M123.335,341.409v 4.61363" fill="none" stroke="black"/>
<path d="M132.783,341.409v 4.61363" fill="none" stroke="black"/>
<path d="M142.232,341.409v 4.61363" fill="none" stroke="black"/>
<path d="M151.681,341.409v 4.61363" fill="none" stroke="black"/>
<path d="M161.13,336.795v 9.22726" fill="none" stroke="black"/>
<path d="M170.579,341.409v 4.61363" fill="none" stroke="black"/>
<path d="M180.028,341.409v 4.61363" fill="none" stroke="black"/>
<path d="M189.476,341.409v 4.61363" fill="none" stroke="black"/>
<path d="M198.925,341.409v 4.61363" fill="none" stroke="black"/>
<path d="M208.374,336.795v 9.22726" fill="none" stroke="black"/>
<path d="M217.823,341.409v 4.61363" fill="none" stroke="black"/>
<path d="M227.272,341.409v 4.61363" fill="none" stroke="black"/>
<path d="M236.72,341.409v 4.61363" fill="none" stroke="black"/>
<path d="M246.169,341.409v 4.61363" fill="none" stroke="black"/>
<path d="M255.618,336.795v 9.22726" fill="none" stroke="black"/>
<path d="M265.067,341.409v 4.61363" fill="none" stroke="black"/>
<path d="M274.516,341.409v 4.61363" fill="none" stroke="black"/>
<path d="M283.965,341.409v 4.61363" fill="none" stroke="black"/>
<path d="M293.413,341.409v 4.61363" fill="none" stroke="black"/>
<path d="M302.862,336.795v 9.22726" fill="none" stroke="black"/>
<path d="M312.311,341.409v 4.61363" fill="none" stroke="black"/>
<path d="M321.76,341.409v 4.61363" fill="none" stroke="black"/>
<path d="M331.209,341.409v 4.61363" fill="none" stroke="black"/>
<path d="M340.657,341.409v 4.61363" fill="none" stroke="black"/>
<path d="M350.106,336.795v 9.22726" fill="none" stroke="black"/>
<path d="M359.555,341.409v 4.61363" fill="none" stroke="black"/>
<path d="M369.004,341.409v 4.61363" fill="none" stroke="black"/>
<path d="M378.453,341.409v 4.61363" fill="none" stroke="black"/>
<path d="M387.902,341.409v 4.61363" fill="none" stroke="black"/>
<path d="M397.35,336.795v 9.22726" fill="none" stroke="black"/>
<path d="M406.799,341.409v 4.61363" fill="none" stroke="black"/>
<path d="M416.248,341.409v 4.61363" fill="none" stroke="black"/>
<path d="M425.697,341.409v 4.61363" fill="none" stroke="black"/>
<path d="M435.146,341.409v 4.61363" fill="none" stroke="black"/>
<path d="M444.594,336.795v 9.22726" fill="none" stroke="black"/>
<path d="M454.043,341.409v 4.61363" fill="none" stroke="black"/>
<path d="M463.492,341.409v 4.61363" fill="none" stroke="black"/>
<path d="M472.941,341.409v 4.61363" fill="none" stroke="black"/>
<path d="M482.39,341.409v 4.61363" fill="none" stroke="black"/>
<path d="M491.839,336.795v 9.22726" fill="none" stroke="black"/>
<path d="M66.6417,336.795v 9.22726" fill="none" stroke="black"/>
<path d="M491.839,336.795v 9.22726" fill="none" stroke="black"/>
<path d="M501.287,341.409v 4.61363" fill="none" stroke="black"/>
<text xml:space="preserve" x="54.2605" y="358.403" fill="black" font-size="12.8453" font-family="Helvetica">68.9</text>
<text xml:space="preserve" x="98.2464" y="358.403" fill="black" font-size="12.8453" font-family="Helvetica">68.95</text>
<text xml:space="preserve" x="154.451" y="358.403" fill="black" font-size="12.8453" font-family="Helvetica">69</text>
<text xml:space="preserve" x="192.735" y="358.403" fill="black" font-size="12.8453" font-family="Helvetica">69.05</text>
<text xml:space="preserve" x="244.051" y="358.403" fill="black" font-size="12.8453" font-family="Helvetica">69.1</text>
<text xml:space="preserve" x="287.223" y="358.403" fill="black" font-size="12.8453" font-family="Helvetica">69.15</text>
<text xml:space="preserve" x="337.725" y="358.403" fill="black" font-size="12.8453" font-family="Helvetica">69.2</text>
<text xml:space="preserve" x="381.711" y="358.403" fill="black" font-size="12.8453" font-family="Helvetica">69.25</text>
<text xml:space="preserve" x="432.213" y="358.403" fill="black" font-size="12.8453" font-family="Helvetica">69.3</text>
<text xml:space="preserve" x="476.199" y="358.403" fill="black" font-size="12.8453" font-family="Helvetica">69.35</text>
<text xml:space="preserve" x="490.861" y="369.807" fill="black" font-size="12.8453" font-family="Helvetica">vop</text>
<path d="M57.1929,346.022v -307.575" fill="none" stroke="black"/>
<path d="M70.7992,346.022h -13.6063" fill="none" stroke="black"/>
<path d="M63.9961,339.871h -6.80315" fill="none" stroke="black"/>
<path d="M63.9961,333.719h -6.80315" fill="none" stroke="black"/>
<path d="M63.9961,327.568h -6.80315" fill="none" stroke="black"/>
<path d="M63.9961,321.416h -6.80315" fill="none" stroke="black"/>
<path d="M70.7992,315.265h -13.6063" fill="none" stroke="black"/>
<path d="M63.9961,309.113h -6.80315" fill="none" stroke="black"/>
<path d="M63.9961,302.962h -6.80315" fill="none" stroke="black"/>
<path d="M63.9961,296.81h -6.80315" fill="none" stroke="black"/>
<path d="M63.9961,290.659h -6.80315" fill="none" stroke="black"/>
<path d="M70.7992,284.507h -13.6063" fill="none" stroke="black"/>
<path d="M63.9961,278.356h -6.80315" fill="none" stroke="black"/>
<path d="M63.9961,272.204h -6.80315" fill="none" stroke="black"/>
<path d="M63.9961,266.053h -6.80315" fill="none" stroke="black"/>
<path d="M63.9961,259.901h -6.80315" fill="none" stroke="black"/>
<path d="M70.7992,253.75h -13.6063" fill="none" stroke="black"/>
<path d="M63.9961,247.598h -6.80315" fill="none" stroke="black"/>
<path d="M63.9961,241.447h -6.80315" fill="none" stroke="black"/>
<path d="M63.9961,235.295h -6.80315" fill="none" stroke="black"/>
<path d="M63.9961,229.144h -6.80315" fill="none" stroke="black"/>
<path d="M70.7992,222.992h -13.6063" fill="none" stroke="black"/>
<path d="M63.9961,216.841h -6.80315" fill="none" stroke="black"/>
<path d="M63.9961,210.689h -6.80315" fill="none" stroke="black"/>
<path d="M63.9961,204.538h -6.80315" fill="none" stroke="black"/>
<path d="M63.9961,198.386h -6.80315" fill="none" stroke="black"/>
<path d="M70.7992,192.235h -13.6063" fill="none" stroke="black"/>
<path d="M63.9961,186.083h -6.80315" fill="none" stroke="black"/>
<path d="M63.9961,179.932h -6.80315" fill="none" stroke="black"/>
<path d="M63.9961,173.78h -6.80315" fill="none" stroke="black"/>
<path d="M63.9961,167.629h -6.80315" fill="none" stroke="black"/>
<path d="M70.7992,161.477h -13.6063" fill="none" stroke="black"/>
<path d="M63.9961,155.326h -6.80315" fill="none" stroke="black"/>
<path d="M63.9961,149.174h -6.80315" fill="none" stroke="black"/>
<path d="M63.9961,143.023h -6.80315" fill="none" stroke="black"/>
<path d="M63.9961,136.871h -6.80315" fill="none" stroke="black"/>
<path d="M70.7992,130.72h -13.6063" fill="none" stroke="black"/>
<path d="M63.9961,124.568h -6.80315" fill="none" stroke="black"/>
<path d="M63.9961,118.417h -6.80315" fill="none" stroke="black"/>
<path d="M63.9961,112.265h -6.80315" fill="none" stroke="black"/>
<path d="M63.9961,106.113h -6.80315" fill="none" stroke="black"/>
<path d="M70.7992,99.962h -13.6063" fill="none" stroke="black"/>
<path d="M63.9961,93.8105h -6.80315" fill="none" stroke="black"/>
<path d="M63.9961,87.659h -6.80315" fill="none" stroke="black"/>
<path d="M63.9961,81.5075h -6.80315" fill="none" stroke="black"/>
<path d="M63.9961,75.356h -6.80315" fill="none" stroke="black"/>
<path d="M70.7992,69.2045h -13.6063" fill="none" stroke="black"/>
<path d="M63.9961,63.0529h -6.80315" fill="none" stroke="black"/>
<path d="M63.9961,56.9014h -6.80315" fill="none" stroke="black"/>
<path d="M63.9961,50.7499h -6.80315" fill="none" stroke="black"/>
<path d="M63.9961,44.5984h -6.80315" fill="none" stroke="black"/>
<path d="M70.7992,38.4469h -13.6063" fill="none" stroke="black"/>
<text xml:space="preserve" x="24.122" y="350.258" fill="black" font-size="12.8453" font-family="Helvetica">359.7</text>
<text xml:space="preserve" x="16.7911" y="350.258" fill="black" font-size="12.8453" font-family="Times">&#8722;</text>
<text xml:space="preserve" x="30.6385" y="320.119" fill="black" font-size="12.8453" font-family="Helvetica">71.9</text>
<text xml:space="preserve" x="24.122" y="289.166" fill="black" font-size="12.8453" font-family="Helvetica">503.5</text>
<text xml:space="preserve" x="25.7512" y="258.213" fill="black" font-size="12.8453" font-family="Helvetica">935.1</text>
<text xml:space="preserve" x="16.7911" y="227.26" fill="black" font-size="12.8453" font-family="Helvetica">1366.7</text>
<text xml:space="preserve" x="16.7911" y="197.122" fill="black" font-size="12.8453" font-family="Helvetica">1798.3</text>
<text xml:space="preserve" x="16.7911" y="166.169" fill="black" font-size="12.8453" font-family="Helvetica">2229.9</text>
<text xml:space="preserve" x="16.7911" y="135.216" fill="black" font-size="12.8453" font-family="Helvetica">2661.5</text>
<text xml:space="preserve" x="19.2347" y="104.263" fill="black" font-size="12.8453" font-family="Helvetica">3093.1</text>
<text xml:space="preserve" x="16.7911" y="73.3098" fill="black" font-size="12.8453" font-family="Helvetica">3524.7</text>
<text xml:space="preserve" x="16.7911" y="43.1713" fill="black" font-size="12.8453" font-family="Helvetica">3956.3</text>
<text xml:space="preserve" x="76.2535" y="30.1385" fill="black" font-size="8.73023" font-family="Helvetica">249</text>
<text xml:space="preserve" x="63.2206" y="36.6549" fill="black" font-size="12.8453" font-family="Helvetica">10</text>
<text xml:space="preserve" x="56.7042" y="36.6549" fill="black" font-size="12.8453" font-family="Times">&#0215;</text>
<g transform="rotate(-90,2.94366,61.9061)">
<text xml:space="preserve" x="2.94366" y="61.9061" fill="black" font-size="12.8453" font-family="Helvetica">mpv</text>
</g>
<text xml:space="preserve" x="145.49" y="17.9202" fill="black" font-size="18.7938" font-family="Helvetica">block mpv vs sipm vop (adjusted)</text>
<g fill="black">
<circle cx="142.232" cy="320.391" r="1.62911"/>
<circle cx="142.232" cy="320.391" r="1.62911"/>
<circle cx="142.232" cy="320.391" r="1.62911"/>
<circle cx="142.232" cy="320.391" r="1.62911"/>
<circle cx="142.232" cy="320.391" r="1.62911"/>
<circle cx="142.232" cy="320.391" r="1.62911"/>
<circle cx="142.232" cy="320.391" r="1.62911"/>
<circle cx="142.232" cy="320.391" r="1.62911"/>
<circle cx="142.232" cy="320.391" r="1.62911"/>
<circle cx="142.232" cy="320.391" r="1.62911"/>
<circle cx="142.232" cy="320.391" r="1.62911"/>
<circle cx="142.232" cy="320.391" r="1.62911"/>
<circle cx="142.232" cy="320.391" r="1.62911"/>
<circle cx="142.232" cy="320.391" r="1.62911"/>
<circle cx="142.232" cy="320.391" r="1.62911"/>
<circle cx="142.232" cy="320.391" r="1.62911"/>
<circle cx="142.232" cy="320.391" r="1.62911"/>
<circle cx="142.232" cy="320.391" r="1.62911"/>
<circle cx="142.232" cy="320.391" r="1.62911"/>
<circle cx="142.232" cy="320.391" r="1.62911"/>
<circle cx="142.232" cy="320.391" r="1.62911"/>
<circle cx="142.232" cy="320.391" r="1.62911"/>
<circle cx="142.232" cy="320.391" r="1.62911"/>
<circle cx="142.232" cy="320.391" r="1.62911"/>
<circle cx="142.232" cy="320.391" r="1.62911"/>
<circle cx="142.232" cy="320.391" r="1.62911"/>
<circle cx="142.232" cy="320.391" r="1.62911"/>
<circle cx="142.232" cy="320.391" r="1.62911"/>
<circle cx="142.232" cy="320.391" r="1.62911"/>
<circle cx="142.232" cy="320.391" r="1.62911"/>
<circle cx="142.232" cy="320.391" r="1.62911"/>
<circle cx="142.232" cy="320.391" r="1.62911"/>
<circle cx="142.232" cy="320.391" r="1.62911"/>
<circle cx="142.232" cy="320.391" r="1.62911"/>
<circle cx="142.232" cy="320.391" r="1.62911"/>
<circle cx="142.232" cy="320.391" r="1.62911"/>
<circle cx="142.232" cy="320.391" r="1.62911"/>
<circle cx="142.232" cy="320.391" r="1.62911"/>
<circle cx="142.232" cy="320.391" r="1.62911"/>
<circle cx="142.232" cy="320.391" r="1.62911"/>
<circle cx="142.232" cy="320.391" r="1.62911"/>
<circle cx="142.232" cy="320.391" r="1.62911"/>
<circle cx="142.232" cy="320.391" r="1.62911"/>
<circle cx="142.232" cy="320.391" r="1.62911"/>
<circle cx="142.232" cy="320.391" r="1.62911"/>
<circle cx="142.232" cy="320.391" r="1.62911"/>
<circle cx="142.232" cy="320.391" r="1.62911"/>
<circle cx="142.232" cy="320.391" r="1.62911"/>
<circle cx="142.232" cy="320.391" r="1.62911"/>
<circle cx="142.232" cy="320.391" r="1.62911"/>
<circle cx="142.232" cy="320.391" r="1.62911"/>
<circle cx="142.232" cy="320.391" r="1.62911"/>
<circle cx="142.232" cy="320.391" r="1.62911"/>
<circle cx="142.232" cy="320.391" r="1.62911"/>
<circle cx="142.232" cy="320.391" r="1.62911"/>
<circle cx="142.232" cy="320.391" r="1.62911"/>
<circle cx="142.232" cy="320.391" r="1.62911"/>
<circle cx="142.232" cy="320.391" r="1.62911"/>
<circle cx="142.232" cy="320.391" r="1.62911"/>
<circle cx="142.232" cy="320.391" r="1.62911"/>
<circle cx="142.232" cy="320.391" r="1.62911"/>
<circle cx="142.232" cy="320.391" r="1.62911"/>
<circle cx="142.232" cy="320.391" r="1.62911"/>
<circle cx="142.232" cy="320.391" r="1.62911"/>
<circle cx="142.232" cy="320.391" r="1.62911"/>
<circle cx="142.232" cy="320.391" r="1.62911"/>
<circle cx="142.232" cy="320.391" r="1.62911"/>
<circle cx="142.232" cy="320.391" r="1.62911"/>
<circle cx="142.232" cy="320.391" r="1.62911"/>
<circle cx="142.232" cy="320.391" r="1.62911"/>
<circle cx="142.232" cy="320.391" r="1.62911"/>
<circle cx="142.232" cy="320.391" r="1.62911"/>
<circle cx="142.232" cy="320.391" r="1.62911"/>
<circle cx="142.232" cy="320.391" r="1.62911"/>
<circle cx="142.232" cy="320.391" r="1.62911"/>
<circle cx="142.232" cy="320.391" r="1.62911"/>
<circle cx="142.232" cy="320.391" r="1.62911"/>
<circle cx="142.232" cy="320.391" r="1.62911"/>
<circle cx="142.232" cy="320.391" r="1.62911"/>
<circle cx="142.232" cy="320.391" r="1.62911"/>
<circle cx="142.232" cy="320.391" r="1.62911"/>
<circle cx="142.232" cy="320.391" r="1.62911"/>
<circle cx="142.232" cy="320.391" r="1.62911"/>
<circle cx="142.232" cy="320.391" r="1.62911"/>
<circle cx="142.232" cy="320.391" r="1.62911"/>
<circle cx="142.232" cy="320.391" r="1.62911"/>
<circle cx="142.232" cy="320.391" r="1.62911"/>
<circle cx="142.232" cy="320.391" r="1.62911"/>
<circle cx="142.232" cy="320.391" r="1.62911"/>
<circle cx="142.232" cy="320.391" r="1.62911"/>
<circle cx="472.941" cy="320.391" r="1.62911"/>
<circle cx="472.941" cy="320.391" r="1.62911"/>
<circle cx="472.941" cy="320.391" r="1.62911"/>
<circle cx="472.941" cy="320.391" r="1.62911"/>
<circle cx="472.941" cy="320.391" r="1.62911"/>
<circle cx="472.941" cy="320.391" r="1.62911"/>
<circle cx="472.941" cy="320.391" r="1.62911"/>
<circle cx="472.941" cy="320.391" r="1.62911"/>
<circle cx="472.941" cy="320.391" r="1.62911"/>
<circle cx="472.941" cy="320.391" r="1.62911"/>
<circle cx="472.941" cy="320.391" r="1.62911"/>
<circle cx="472.941" cy="320.391" r="1.62911"/>
<circle cx="472.941" cy="320.391" r="1.62911"/>
<circle cx="472.941" cy="320.391" r="1.62911"/>
<circle cx="472.941" cy="320.391" r="1.62911"/>
<circle cx="472.941" cy="320.391" r="1.62911"/>
<circle cx="472.941" cy="320.391" r="1.62911"/>
<circle cx="472.941" cy="320.391" r="1.62911"/>
<circle cx="472.941" cy="320.391" r="1.62911"/>
<circle cx="472.941" cy="320.391" r="1.62911"/>
<circle cx="472.941" cy="320.391" r="1.62911"/>
<circle cx="472.941" cy="320.391" r="1.62911"/>
<circle cx="472.941" cy="320.391" r="1.62911"/>
<circle cx="472.941" cy="320.391" r="1.62911"/>
<circle cx="472.941" cy="320.391" r="1.62911"/>
<circle cx="472.941" cy="320.391" r="1.62911"/>
<circle cx="472.941" cy="320.391" r="1.62911"/>
<circle cx="472.941" cy="320.391" r="1.62911"/>
<circle cx="472.941" cy="320.391" r="1.62911"/>
<circle cx="472.941" cy="320.391" r="1.62911"/>
<circle cx="472.941" cy="320.391" r="1.62911"/>
<circle cx="472.941" cy="320.391" r="1.62911"/>
<circle cx="472.941" cy="320.391" r="1.62911"/>
<circle cx="472.941" cy="320.391" r="1.62911"/>
<circle cx="472.941" cy="320.391" r="1.62911"/>
<circle cx="472.941" cy="320.391" r="1.62911"/>
<circle cx="472.941" cy="320.391" r="1.62911"/>
<circle cx="472.941" cy="320.391" r="1.62911"/>
<circle cx="472.941" cy="320.391" r="1.62911"/>
<circle cx="472.941" cy="320.391" r="1.62911"/>
<circle cx="472.941" cy="320.391" r="1.62911"/>
<circle cx="472.941" cy="320.391" r="1.62911"/>
<circle cx="472.941" cy="320.391" r="1.62911"/>
<circle cx="472.941" cy="320.391" r="1.62911"/>
<circle cx="472.941" cy="320.391" r="1.62911"/>
<circle cx="472.941" cy="320.391" r="1.62911"/>
<circle cx="472.941" cy="320.391" r="1.62911"/>
<circle cx="472.941" cy="320.391" r="1.62911"/>
<circle cx="472.941" cy="320.391" r="1.62911"/>
<circle cx="472.941" cy="320.391" r="1.62911"/>
<circle cx="472.941" cy="320.391" r="1.62911"/>
<circle cx="472.941" cy="320.391" r="1.62911"/>
<circle cx="472.941" cy="320.391" r="1.62911"/>
<circle cx="472.941" cy="320.391" r="1.62911"/>
<circle cx="472.941" cy="320.391" r="1.62911"/>
<circle cx="472.941" cy="320.391" r="1.62911"/>
<circle cx="472.941" cy="320.391" r="1.62911"/>
<circle cx="472.941" cy="320.391" r="1.62911"/>
<circle cx="472.941" cy="320.391" r="1.62911"/>
<circle cx="472.941" cy="320.391" r="1.62911"/>
<circle cx="472.941" cy="320.391" r="1.62911"/>
<circle cx="472.941" cy="320.391" r="1.62911"/>
<circle cx="472.941" cy="320.391" r="1.62911"/>
<circle cx="472.941" cy="320.391" r="1.62911"/>
<circle cx="472.941" cy="320.391" r="1.62911"/>
<circle cx="472.941" cy="320.391" r="1.62911"/>
<circle cx="472.941" cy="320.391" r="1.62911"/>
<circle cx="472.941" cy="320.391" r="1.62911"/>
<circle cx="472.941" cy="320.391" r="1.62911"/>
<circle cx="472.941" cy="320.391" r="1.62911"/>
<circle cx="472.941" cy="320.391" r="1.62911"/>
<circle cx="472.941" cy="320.391" r="1.62911"/>
<circle cx="472.941" cy="320.391" r="1.62911"/>
<circle cx="472.941" cy="320.391" r="1.62911"/>
<circle cx="472.941" cy="320.391" r="1.62911"/>
<circle cx="472.941" cy="320.391" r="1.62911"/>
<circle cx="472.941" cy="320.391" r="1.62911"/>
<circle cx="472.941" cy="320.391" r="1.62911"/>
<circle cx="472.941" cy="320.391" r="1.62911"/>
<circle cx="472.941" cy="320.391" r="1.62911"/>
<circle cx="472.941" cy="320.391" r="1.62911"/>
<circle cx="472.941" cy="320.391" r="1.62911"/>
<circle cx="472.941" cy="320.391" r="1.62911"/>
<circle cx="472.941" cy="320.391" r="1.62911"/>
<circle cx="472.941" cy="320.391" r="1.62911"/>
<circle cx="472.941" cy="320.391" r="1.62911"/>
<circle cx="472.941" cy="320.391" r="1.62911"/>
<circle cx="472.941" cy="320.391" r="1.62911"/>
<circle cx="472.941" cy="320.391" r="1.62911"/>
<circle cx="472.941" cy="320.391" r="1.62911"/>
<circle cx="472.941" cy="320.391" r="1.62911"/>
<circle cx="472.941" cy="320.391" r="1.62911"/>
<circle cx="472.941" cy="320.391" r="1.62911"/>
<circle cx="472.941" cy="320.391" r="1.62911"/>
<circle cx="472.941" cy="320.391" r="1.62911"/>
<circle cx="472.941" cy="320.391" r="1.62911"/>
<circle cx="472.941" cy="320.391" r="1.62911"/>
<circle cx="472.941" cy="320.391" r="1.62911"/>
<circle cx="472.941" cy="320.391" r="1.62911"/>
<circle cx="472.941" cy="320.391" r="1.62911"/>
<circle cx="472.941" cy="320.391" r="1.62911"/>
<circle cx="472.941" cy="320.391" r="1.62911"/>
<circle cx="472.941" cy="320.391" r="1.62911"/>
<circle cx="472.941" cy="320.391" r="1.62911"/>
<circle cx="472.941" cy="320.391" r="1.62911"/>
<circle cx="472.941" cy="320.391" r="1.62911"/>
<circle cx="472.941" cy="320.391" r="1.62911"/>
<circle cx="472.941" cy="320.391" r="1.62911"/>
<circle cx="472.941" cy="320.391" r="1.62911"/>
<circle cx="472.941" cy="320.391" r="1.62911"/>
<circle cx="472.941" cy="320.391" r="1.62911"/>
<circle cx="472.941" cy="320.391" r="1.62911"/>
<circle cx="472.941" cy="320.391" r="1.62911"/>
<circle cx="472.941" cy="320.391" r="1.62911"/>
<circle cx="472.941" cy="320.391" r="1.62911"/>
<circle cx="472.941" cy="320.391" r="1.62911"/>
<circle cx="472.941" cy="320.391" r="1.62911"/>
<circle cx="472.941" cy="320.391" r="1.62911"/>
<circle cx="472.941" cy="320.391" r="1.62911"/>
<circle cx="472.941" cy="320.391" r="1.62911"/>
<circle cx="472.941" cy="320.391" r="1.62911"/>
<circle cx="472.941" cy="320.391" r="1.62911"/>
<circle cx="472.941" cy="320.391" r="1.62911"/>
<circle cx="472.941" cy="320.391" r="1.62911"/>
<circle cx="472.941" cy="320.391" r="1.62911"/>
<circle cx="472.941" cy="320.391" r="1.62911"/>
<circle cx="472.941" cy="320.391" r="1.62911"/>
<circle cx="472.941" cy="320.391" r="1.62911"/>
<circle cx="472.941" cy="320.391" r="1.62911"/>
<circle cx="472.941" cy="320.391" r="1.62911"/>
<circle cx="472.941" cy="320.391" r="1.62911"/>
<circle cx="472.941" cy="320.391" r="1.62911"/>
<circle cx="472.941" cy="320.391" r="1.62911"/>
<circle cx="472.941" cy="320.391" r="1.62911"/>
<circle cx="472.941" cy="320.391" r="1.62911"/>
<circle cx="472.941" cy="320.391" r="1.62911"/>
<circle cx="472.941" cy="320.391" r="1.62911"/>
<circle cx="472.941" cy="320.391" r="1.62911"/>
<circle cx="472.941" cy="320.391" r="1.62911"/>
<circle cx="472.941" cy="320.391" r="1.62911"/>
<circle cx="472.941" cy="320.391" r="1.62911"/>
<circle cx="472.941" cy="320.391" r="1.62911"/>
<circle cx="283.965" cy="320.391" r="1.62911"/>
<circle cx="472.941" cy="320.391" r="1.62911"/>
<circle cx="472.941" cy="320.391" r="1.62911"/>
<circle cx="472.941" cy="320.391" r="1.62911"/>
<circle cx="472.941" cy="320.391" r="1.62911"/>
<circle cx="472.941" cy="320.391" r="1.62911"/>
<circle cx="472.941" cy="320.391" r="1.62911"/>
<circle cx="283.965" cy="320.391" r="1.62911"/>
<circle cx="283.965" cy="320.391" r="1.62911"/>
<circle cx="283.965" cy="320.391" r="1.62911"/>
<circle cx="472.941" cy="320.391" r="1.62911"/>
<circle cx="283.965" cy="320.391" r="1.62911"/>
<circle cx="283.965" cy="320.391" r="1.62911"/>
<circle cx="283.965" cy="320.391" r="1.62911"/>
<circle cx="283.965" cy="320.391" r="1.62911"/>
<circle cx="283.965" cy="320.391" r="1.62911"/>
<circle cx="283.965" cy="320.391" r="1.62911"/>
<circle cx="283.965" cy="320.391" r="1.62911"/>
<circle cx="283.965" cy="320.391" r="1.62911"/>
<circle cx="283.965" cy="320.391" r="1.62911"/>
<circle cx="283.965" cy="320.391" r="1.62911"/>
<circle cx="283.965" cy="320.391" r="1.62911"/>
<circle cx="283.965" cy="320.391" r="1.62911"/>
<circle cx="283.965" cy="320.391" r="1.62911"/>
<circle cx="283.965" cy="320.391" r="1.62911"/>
<circle cx="283.965" cy="320.391" r="1.62911"/>
<circle cx="283.965" cy="320.391" r="1.62911"/>
<circle cx="283.965" cy="320.391" r="1.62911"/>
<circle cx="283.965" cy="320.391" r="1.62911"/>
<circle cx="283.965" cy="320.391" r="1.62911"/>
<circle cx="283.965" cy="320.391" r="1.62911"/>
<circle cx="283.965" cy="320.391" r="1.62911"/>
<circle cx="283.965" cy="320.391" r="1.62911"/>
<circle cx="283.965" cy="320.391" r="1.62911"/>
<circle cx="283.965" cy="320.391" r="1.62911"/>
<circle cx="283.965" cy="320.391" r="1.62911"/>
<circle cx="283.965" cy="320.391" r="1.62911"/>
<circle cx="283.965" cy="320.391" r="1.62911"/>
<circle cx="283.965" cy="320.391" r="1.62911"/>
<circle cx="283.965" cy="320.391" r="1.62911"/>
<circle cx="283.965" cy="320.391" r="1.62911"/>
<circle cx="283.965" cy="320.391" r="1.62911"/>
<circle cx="283.965" cy="320.391" r="1.62911"/>
<circle cx="283.965" cy="320.391" r="1.62911"/>
<circle cx="283.965" cy="320.391" r="1.62911"/>
<circle cx="283.965" cy="320.391" r="1.62911"/>
<circle cx="283.965" cy="320.391" r="1.62911"/>
<circle cx="283.965" cy="320.391" r="1.62911"/>
<circle cx="283.965" cy="320.391" r="1.62911"/>
<circle cx="283.965" cy="320.391" r="1.62911"/>
<circle cx="283.965" cy="320.391" r="1.62911"/>
<circle cx="283.965" cy="320.391" r="1.62911"/>
<circle cx="283.965" cy="320.391" r="1.62911"/>
<circle cx="283.965" cy="320.391" r="1.62911"/>
<circle cx="283.965" cy="320.391" r="1.62911"/>
<circle cx="283.965" cy="320.391" r="1.62911"/>
<circle cx="283.965" cy="320.391" r="1.62911"/>
<circle cx="283.965" cy="320.391" r="1.62911"/>
<circle cx="283.965" cy="320.391" r="1.62911"/>
<circle cx="283.965" cy="320.391" r="1.62911"/>
<circle cx="283.965" cy="320.391" r="1.62911"/>
<circle cx="283.965" cy="320.391" r="1.62911"/>
<circle cx="283.965" cy="320.391" r="1.62911"/>
<circle cx="283.965" cy="320.391" r="1.62911"/>
<circle cx="283.965" cy="320.391" r="1.62911"/>
<circle cx="283.965" cy="320.391" r="1.62911"/>
<circle cx="283.965" cy="320.391" r="1.62911"/>
<circle cx="283.965" cy="320.391" r="1.62911"/>
<circle cx="283.965" cy="320.391" r="1.62911"/>
<circle cx="283.965" cy="320.391" r="1.62911"/>
<circle cx="283.965" cy="320.391" r="1.62911"/>
<circle cx="283.965" cy="320.391" r="1.62911"/>
<circle cx="283.965" cy="320.391" r="1.62911"/>
<circle cx="283.965" cy="320.391" r="1.62911"/>
<circle cx="283.965" cy="320.391" r="1.62911"/>
<circle cx="283.965" cy="320.391" r="1.62911"/>
<circle cx="283.965" cy="320.391" r="1.62911"/>
<circle cx="283.965" cy="320.391" r="1.62911"/>
<circle cx="283.965" cy="320.391" r="1.62911"/>
<circle cx="283.965" cy="320.391" r="1.62911"/>
<circle cx="283.965" cy="320.391" r="1.62911"/>
<circle cx="283.965" cy="320.391" r="1.62911"/>
<circle cx="283.965" cy="320.391" r="1.62911"/>
<circle cx="283.965" cy="320.391" r="1.62911"/>
<circle cx="283.965" cy="320.391" r="1.62911"/>
<circle cx="283.965" cy="320.391" r="1.62911"/>
<circle cx="283.965" cy="320.391" r="1.62911"/>
<circle cx="283.965" cy="320.391" r="1.62911"/>
<circle cx="283.965" cy="320.391" r="1.62911"/>
<circle cx="283.965" cy="320.391" r="1.62911"/>
<circle cx="283.965" cy="320.391" r="1.62911"/>
<circle cx="283.965" cy="320.391" r="1.62911"/>
<circle cx="283.965" cy="320.391" r="1.62911"/>
<circle cx="283.965" cy="320.391" r="1.62911"/>
<circle cx="283.965" cy="320.391" r="1.62911"/>
<circle cx="283.965" cy="320.391" r="1.62911"/>
<circle cx="283.965" cy="320.391" r="1.62911"/>
<circle cx="283.965" cy="320.391" r="1.62911"/>
<circle cx="283.965" cy="320.391" r="1.62911"/>
<circle cx="283.965" cy="320.391" r="1.62911"/>
<circle cx="283.965" cy="320.391" r="1.62911"/>
<circle cx="283.965" cy="320.391" r="1.62911"/>
<circle cx="283.965" cy="320.391" r="1.62911"/>
<circle cx="283.965" cy="320.391" r="1.62911"/>
<circle cx="283.965" cy="320.391" r="1.62911"/>
<circle cx="283.965" cy="320.391" r="1.62911"/>
<circle cx="283.965" cy="320.391" r="1.62911"/>
<circle cx="283.965" cy="320.391" r="1.62911"/>
<circle cx="283.965" cy="320.391" r="1.62911"/>
<circle cx="283.965" cy="320.391" r="1.62911"/>
<circle cx="283.965" cy="320.391" r="1.62911"/>
<circle cx="283.965" cy="320.391" r="1.62911"/>
<circle cx="283.965" cy="320.391" r="1.62911"/>
<circle cx="283.965" cy="320.391" r="1.62911"/>
<circle cx="283.965" cy="320.391" r="1.62911"/>
<circle cx="283.965" cy="320.391" r="1.62911"/>
<circle cx="283.965" cy="320.391" r="1.62911"/>
<circle cx="283.965" cy="320.391" r="1.62911"/>
<circle cx="283.965" cy="320.391" r="1.62911"/>
<circle cx="283.965" cy="320.391" r="1.62911"/>
<circle cx="283.965" cy="320.391" r="1.62911"/>
<circle cx="283.965" cy="320.391" r="1.62911"/>
<circle cx="283.965" cy="320.391" r="1.62911"/>
<circle cx="283.965" cy="320.391" r="1.62911"/>
<circle cx="283.965" cy="320.391" r="1.62911"/>
<circle cx="283.965" cy="320.391" r="1.62911"/>
<circle cx="283.965" cy="320.391" r="1.62911"/>
<circle cx="283.965" cy="320.391" r="1.62911"/>
<circle cx="283.965" cy="320.391" r="1.62911"/>
<circle cx="283.965" cy="320.391" r="1.62911"/>
<circle cx="283.965" cy="320.391" r="1.62911"/>
<circle cx="283.965" cy="320.391" r="1.62911"/>
<circle cx="283.965" cy="320.391" r="1.62911"/>
<circle cx="283.965" cy="320.391" r="1.62911"/>
<circle cx="283.965" cy="320.391" r="1.62911"/>
<circle cx="283.965" cy="320.391" r="1.62911"/>
<circle cx="283.965" cy="320.391" r="1.62911"/>
<circle cx="283.965" cy="320.391" r="1.62911"/>
<circle cx="283.965" cy="320.391" r="1.62911"/>
<circle cx="283.965" cy="320.391" r="1.62911"/>
<circle cx="283.965" cy="320.391" r="1.62911"/>
<circle cx="283.965" cy="320.391" r="1.62911"/>
<circle cx="283.965" cy="320.391" r="1.62911"/>
<circle cx="283.965" cy="320.391" r="1.62911"/>
<circle cx="283.965" cy="320.391" r="1.62911"/>
<circle cx="283.965" cy="320.391" r="1.62911"/>
<circle cx="283.965" cy="320.391" r="1.62911"/>
<circle cx="283.965" cy="320.391" r="1.62911"/>
<circle cx="283.965" cy="320.391" r="1.62911"/>
<circle cx="283.965" cy="320.391" r="1.62911"/>
<circle cx="283.965" cy="320.391" r="1.62911"/>
<circle cx="283.965" cy="320.391" r="1.62911"/>
<circle cx="283.965" cy="320.391" r="1.62911"/>
<circle cx="283.965" cy="320.391" r="1.62911"/>
<circle cx="283.965" cy="320.391" r="1.62911"/>
<circle cx="283.965" cy="320.391" r="1.62911"/>
<circle cx="283.965" cy="320.391" r="1.62911"/>
<circle cx="283.965" cy="320.391" r="1.62911"/>
<circle cx="283.965" cy="320.391" r="1.62911"/>
<circle cx="283.965" cy="320.391" r="1.62911"/>
<circle cx="283.965" cy="320.391" r="1.62911"/>
<circle cx="283.965" cy="320.391" r="1.62911"/>
<circle cx="283.965" cy="320.391" r="1.62911"/>
<circle cx="283.965" cy="320.391" r="1.62911"/>
<circle cx="283.965" cy="320.391" r="1.62911"/>
<circle cx="283.965" cy="320.391" r="1.62911"/>
<circle cx="283.965" cy="320.391" r="1.62911"/>
<circle cx="283.965" cy="320.391" r="1.62911"/>
<circle cx="283.965" cy="320.391" r="1.62911"/>
<circle cx="283.965" cy="320.391" r="1.62911"/>
<circle cx="283.965" cy="320.391" r="1.62911"/>
<circle cx="283.965" cy="320.391" r="1.62911"/>
<circle cx="283.965" cy="320.391" r="1.62911"/>
<circle cx="283.965" cy="320.391" r="1.62911"/>
<circle cx="283.965" cy="320.391" r="1.62911"/>
<circle cx="283.965" cy="320.391" r="1.62911"/>
<circle cx="283.965" cy="320.391" r="1.62911"/>
<circle cx="283.965" cy="320.391" r="1.62911"/>
<circle cx="283.965" cy="320.391" r="1.62911"/>
<circle cx="283.965" cy="320.391" r="1.62911"/>
<circle cx="283.965" cy="320.391" r="1.62911"/>
<circle cx="283.965" cy="320.391" r="1.62911"/>
<circle cx="283.965" cy="320.391" r="1.62911"/>
<circle cx="283.965" cy="320.391" r="1.62911"/>
<circle cx="283.965" cy="320.391" r="1.62911"/>
<circle cx="283.965" cy="320.391" r="1.62911"/>
<circle cx="283.965" cy="320.391" r="1.62911"/>
<circle cx="283.965" cy="320.391" r="1.62911"/>
<circle cx="283.965" cy="320.391" r="1.62911"/>
<circle cx="283.965" cy="320.391" r="1.62911"/>
<circle cx="283.965" cy="320.391" r="1.62911"/>
<circle cx="283.965" cy="320.391" r="1.62911"/>
<circle cx="283.965" cy="320.391" r="1.62911"/>
<circle cx="283.965" cy="320.391" r="1.62911"/>
<circle cx="283.965" cy="320.391" r="1.62911"/>
<circle cx="283.965" cy="320.391" r="1.62911"/>
<circle cx="283.965" cy="320.391" r="1.62911"/>
<circle cx="283.965" cy="320.391" r="1.62911"/>
<circle cx="283.965" cy="320.391" r="1.62911"/>
<circle cx="283.965" cy="320.391" r="1.62911"/>
<circle cx="283.965" cy="320.391" r="1.62911"/>
<circle cx="283.965" cy="320.391" r="1.62911"/>
<circle cx="283.965" cy="320.391" r="1.62911"/>
<circle cx="283.965" cy="320.391" r="1.62911"/>
<circle cx="283.965" cy="320.391" r="1.62911"/>
<circle cx="283.965" cy="320.391" r="1.62911"/>
<circle cx="283.965" cy="320.391" r="1.62911"/>
<circle cx="283.965" cy="320.391" r="1.62911"/>
<circle cx="283.965" cy="320.391" r="1.62911"/>
<circle cx="283.965" cy="320.391" r="1.62911"/>
<circle cx="283.965" cy="320.391" r="1.62911"/>
<circle cx="283.965" cy="320.391" r="1.62911"/>
<circle cx="283.965" cy="320.391" r="1.62911"/>
<circle cx="283.965" cy="320.391" r="1.62911"/>
<circle cx="283.965" cy="320.391" r="1.62911"/>
<circle cx="283.965" cy="320.391" r="1.62911"/>
<circle cx="283.965" cy="320.391" r="1.62911"/>
<circle cx="283.965" cy="320.391" r="1.62911"/>
<circle cx="283.965" cy="320.391" r="1.62911"/>
<circle cx="283.965" cy="320.391" r="1.62911"/>
<circle cx="283.965" cy="320.391" r="1.62911"/>
<circle cx="283.965" cy="320.391" r="1.62911"/>
<circle cx="283.965" cy="320.391" r="1.62911"/>
<circle cx="283.965" cy="320.391" r="1.62911"/>
<circle cx="283.965" cy="320.391" r="1.62911"/>
<circle cx="283.965" cy="320.391" r="1.62911"/>
<circle cx="283.965" cy="320.391" r="1.62911"/>
<circle cx="283.965" cy="320.391" r="1.62911"/>
<circle cx="283.965" cy="320.391" r="1.62911"/>
<circle cx="283.965" cy="320.391" r="1.62911"/>
<circle cx="283.965" cy="320.391" r="1.62911"/>
<circle cx="283.965" cy="320.391" r="1.62911"/>
<circle cx="283.965" cy="320.391" r="1.62911"/>
<circle cx="283.965" cy="320.391" r="1.62911"/>
<circle cx="283.965" cy="320.391" r="1.62911"/>
<circle cx="283.965" cy="320.391" r="1.62911"/>
<circle cx="331.209" cy="320.391" r="1.62911"/>
<circle cx="331.209" cy="320.391" r="1.62911"/>
<circle cx="331.209" cy="320.391" r="1.62911"/>
<circle cx="331.209" cy="320.391" r="1.62911"/>
<circle cx="283.965" cy="320.391" r="1.62911"/>
<circle cx="331.209" cy="320.391" r="1.62911"/>
<circle cx="331.209" cy="320.391" r="1.62911"/>
<circle cx="331.209" cy="320.391" r="1.62911"/>
<circle cx="331.209" cy="320.391" r="1.62911"/>
<circle cx="331.209" cy="320.391" r="1.62911"/>
<circle cx="331.209" cy="320.391" r="1.62911"/>
<circle cx="331.209" cy="320.391" r="1.62911"/>
<circle cx="331.209" cy="320.391" r="1.62911"/>
<circle cx="331.209" cy="320.391" r="1.62911"/>
<circle cx="331.209" cy="320.391" r="1.62911"/>
<circle cx="331.209" cy="320.391" r="1.62911"/>
<circle cx="331.209" cy="320.391" r="1.62911"/>
<circle cx="331.209" cy="320.391" r="1.62911"/>
<circle cx="331.209" cy="320.391" r="1.62911"/>
<circle cx="331.209" cy="320.391" r="1.62911"/>
<circle cx="331.209" cy="320.391" r="1.62911"/>
<circle cx="331.209" cy="320.391" r="1.62911"/>
<circle cx="331.209" cy="320.391" r="1.62911"/>
<circle cx="331.209" cy="320.391" r="1.62911"/>
<circle cx="331.209" cy="320.391" r="1.62911"/>
<circle cx="331.209" cy="320.391" r="1.62911"/>
<circle cx="331.209" cy="320.391" r="1.62911"/>
<circle cx="331.209" cy="320.391" r="1.62911"/>
<circle cx="331.209" cy="320.391" r="1.62911"/>
<circle cx="331.209" cy="320.391" r="1.62911"/>
<circle cx="331.209" cy="320.391" r="1.62911"/>
<circle cx="331.209" cy="320.391" r="1.62911"/>
<circle cx="331.209" cy="320.391" r="1.62911"/>
<circle cx="331.209" cy="320.391" r="1.62911"/>
<circle cx="331.209" cy="320.391" r="1.62911"/>
<circle cx="331.209" cy="320.391" r="1.62911"/>
<circle cx="331.209" cy="320.391" r="1.62911"/>
<circle cx="331.209" cy="320.391" r="1.62911"/>
<circle cx="331.209" cy="320.391" r="1.62911"/>
<circle cx="331.209" cy="320.391" r="1.62911"/>
<circle cx="331.209" cy="320.391" r="1.62911"/>
<circle cx="331.209" cy="320.391" r="1.62911"/>
<circle cx="331.209" cy="320.391" r="1.62911"/>
<circle cx="331.209" cy="320.391" r="1.62911"/>
<circle cx="331.209" cy="320.391" r="1.62911"/>
<circle cx="331.209" cy="320.391" r="1.62911"/>
<circle cx="331.209" cy="320.391" r="1.62911"/>
<circle cx="331.209" cy="320.391" r="1.62911"/>
<circle cx="331.209" cy="320.391" r="1.62911"/>
<circle cx="331.209" cy="320.391" r="1.62911"/>
<circle cx="331.209" cy="320.391" r="1.62911"/>
<circle cx="331.209" cy="320.391" r="1.62911"/>
<circle cx="331.209" cy="320.391" r="1.62911"/>
<circle cx="331.209" cy="320.391" r="1.62911"/>
<circle cx="331.209" cy="320.391" r="1.62911"/>
<circle cx="331.209" cy="320.391" r="1.62911"/>
<circle cx="331.209" cy="320.391" r="1.62911"/>
<circle cx="331.209" cy="320.391" r="1.62911"/>
<circle cx="331.209" cy="320.391" r="1.62911"/>
<circle cx="331.209" cy="320.391" r="1.62911"/>
<circle cx="331.209" cy="320.391" r="1.62911"/>
<circle cx="331.209" cy="320.391" r="1.62911"/>
<circle cx="283.965" cy="320.391" r="1.62911"/>
<circle cx="331.209" cy="320.391" r="1.62911"/>
<circle cx="331.209" cy="320.391" r="1.62911"/>
<circle cx="283.965" cy="320.391" r="1.62911"/>
<circle cx="331.209" cy="320.391" r="1.62911"/>
<circle cx="331.209" cy="320.391" r="1.62911"/>
<circle cx="283.965" cy="320.391" r="1.62911"/>
<circle cx="283.965" cy="320.391" r="1.62911"/>
<circle cx="331.209" cy="320.391" r="1.62911"/>
<circle cx="331.209" cy="320.391" r="1.62911"/>
<circle cx="331.209" cy="320.391" r="1.62911"/>
<circle cx="331.209" cy="320.391" r="1.62911"/>
<circle cx="331.209" cy="320.391" r="1.62911"/>
<circle cx="331.209" cy="320.391" r="1.62911"/>
<circle cx="331.209" cy="320.391" r="1.62911"/>
<circle cx="331.209" cy="320.391" r="1.62911"/>
<circle cx="331.209" cy="320.391" r="1.62911"/>
<circle cx="331.209" cy="320.391" r="1.62911"/>
<circle cx="331.209" cy="320.391" r="1.62911"/>
<circle cx="331.209" cy="320.391" r="1.62911"/>
<circle cx="331.209" cy="320.391" r="1.62911"/>
<circle cx="331.209" cy="320.391" r="1.62911"/>
<circle cx="331.209" cy="320.391" r="1.62911"/>
<circle cx="331.209" cy="320.391" r="1.62911"/>
<circle cx="331.209" cy="320.391" r="1.62911"/>
<circle cx="331.209" cy="320.391" r="1.62911"/>
<circle cx="331.209" cy="320.391" r="1.62911"/>
<circle cx="331.209" cy="320.391" r="1.62911"/>
<circle cx="331.209" cy="320.391" r="1.62911"/>
<circle cx="331.209" cy="320.391" r="1.62911"/>
<circle cx="331.209" cy="320.391" r="1.62911"/>
<circle cx="331.209" cy="320.391" r="1.62911"/>
<circle cx="331.209" cy="320.391" r="1.62911"/>
<circle cx="331.209" cy="320.391" r="1.62911"/>
<circle cx="331.209" cy="320.391" r="1.62911"/>
<circle cx="331.209" cy="320.391" r="1.62911"/>
<circle cx="331.209" cy="320.391" r="1.62911"/>
<circle cx="331.209" cy="320.391" r="1.62911"/>
<circle cx="331.209" cy="320.391" r="1.62911"/>
<circle cx="331.209" cy="320.391" r="1.62911"/>
<circle cx="331.209" cy="320.391" r="1.62911"/>
<circle cx="331.209" cy="320.391" r="1.62911"/>
<circle cx="331.209" cy="320.391" r="1.62911"/>
<circle cx="331.209" cy="320.391" r="1.62911"/>
<circle cx="331.209" cy="320.391" r="1.62911"/>
<circle cx="331.209" cy="320.391" r="1.62911"/>
<circle cx="331.209" cy="320.391" r="1.62911"/>
<circle cx="331.209" cy="320.391" r="1.62911"/>
<circle cx="331.209" cy="320.391" r="1.62911"/>
<circle cx="331.209" cy="320.391" r="1.62911"/>
<circle cx="331.209" cy="320.391" r="1.62911"/>
<circle cx="331.209" cy="320.391" r="1.62911"/>
<circle cx="331.209" cy="320.391" r="1.62911"/>
<circle cx="331.209" cy="320.391" r="1.62911"/>
<circle cx="331.209" cy="320.391" r="1.62911"/>
<circle cx="331.209" cy="320.391" r="1.62911"/>
<circle cx="331.209" cy="320.391" r="1.62911"/>
<circle cx="331.209" cy="320.391" r="1.62911"/>
<circle cx="331.209" cy="320.391" r="1.62911"/>
<circle cx="331.209" cy="320.391" r="1.62911"/>
<circle cx="331.209" cy="320.391" r="1.62911"/>
<circle cx="331.209" cy="320.391" r="1.62911"/>
<circle cx="331.209" cy="320.391" r="1.62911"/>
<circle cx="331.209" cy="320.391" r="1.62911"/>
<circle cx="331.209" cy="320.391" r="1.62911"/>
<circle cx="331.209" cy="320.391" r="1.62911"/>
<circle cx="331.209" cy="320.391" r="1.62911"/>
<circle cx="331.209" cy="320.391" r="1.62911"/>
<circle cx="331.209" cy="320.391" r="1.62911"/>
<circle cx="331.209" cy="320.391" r="1.62911"/>
<circle cx="331.209" cy="320.391" r="1.62911"/>
<circle cx="331.209" cy="320.391" r="1.62911"/>
<circle cx="331.209" cy="320.391" r="1.62911"/>
<circle cx="331.209" cy="320.391" r="1.62911"/>
<circle cx="331.209" cy="320.391" r="1.62911"/>
<circle cx="331.209" cy="320.391" r="1.62911"/>
<circle cx="331.209" cy="320.391" r="1.62911"/>
<circle cx="331.209" cy="320.391" r="1.62911"/>
<circle cx="331.209" cy="320.391" r="1.62911"/>
<circle cx="331.209" cy="320.391" r="1.62911"/>
<circle cx="331.209" cy="320.391" r="1.62911"/>
<circle cx="331.209" cy="320.391" r="1.62911"/>
<circle cx="331.209" cy="320.391" r="1.62911"/>
<circle cx="331.209" cy="320.391" r="1.62911"/>
<circle cx="331.209" cy="320.391" r="1.62911"/>
<circle cx="331.209" cy="320.391" r="1.62911"/>
<circle cx="331.209" cy="320.391" r="1.62911"/>
<circle cx="331.209" cy="320.391" r="1.62911"/>
<circle cx="331.209" cy="320.391" r="1.62911"/>
<circle cx="331.209" cy="320.391" r="1.62911"/>
<circle cx="331.209" cy="320.391" r="1.62911"/>
<circle cx="331.209" cy="320.391" r="1.62911"/>
<circle cx="331.209" cy="320.391" r="1.62911"/>
<circle cx="331.209" cy="320.391" r="1.62911"/>
<circle cx="331.209" cy="320.391" r="1.62911"/>
<circle cx="331.209" cy="320.391" r="1.62911"/>
<circle cx="331.209" cy="320.391" r="1.62911"/>
<circle cx="331.209" cy="320.391" r="1.62911"/>
<circle cx="331.209" cy="320.391" r="1.62911"/>
<circle cx="331.209" cy="320.391" r="1.62911"/>
<circle cx="331.209" cy="320.391" r="1.62911"/>
<circle cx="331.209" cy="320.391" r="1.62911"/>
<circle cx="331.209" cy="320.391" r="1.62911"/>
<circle cx="331.209" cy="320.391" r="1.62911"/>
<circle cx="331.209" cy="320.391" r="1.62911"/>
<circle cx="331.209" cy="320.391" r="1.62911"/>
<circle cx="331.209" cy="320.391" r="1.62911"/>
<circle cx="331.209" cy="320.391" r="1.62911"/>
<circle cx="331.209" cy="320.391" r="1.62911"/>
<circle cx="331.209" cy="320.391" r="1.62911"/>
<circle cx="331.209" cy="320.391" r="1.62911"/>
<circle cx="331.209" cy="320.391" r="1.62911"/>
<circle cx="331.209" cy="320.391" r="1.62911"/>
<circle cx="331.209" cy="320.391" r="1.62911"/>
<circle cx="331.209" cy="320.391" r="1.62911"/>
<circle cx="331.209" cy="320.391" r="1.62911"/>
<circle cx="331.209" cy="320.391" r="1.62911"/>
<circle cx="331.209" cy="320.391" r="1.62911"/>
<circle cx="331.209" cy="320.391" r="1.62911"/>
<circle cx="331.209" cy="320.391" r="1.62911"/>
<circle cx="331.209" cy="320.391" r="1.62911"/>
<circle cx="331.209" cy="320.391" r="1.62911"/>
<circle cx="331.209" cy="320.391" r="1.62911"/>
<circle cx="331.209" cy="320.391" r="1.62911"/>
<circle cx="331.209" cy="320.391" r="1.62911"/>
<circle cx="331.209" cy="320.391" r="1.62911"/>
<circle cx="331.209" cy="320.391" r="1.62911"/>
<circle cx="331.209" cy="320.391" r="1.62911"/>
<circle cx="331.209" cy="320.391" r="1.62911"/>
<circle cx="331.209" cy="320.391" r="1.62911"/>
<circle cx="331.209" cy="320.391" r="1.62911"/>
<circle cx="331.209" cy="320.391" r="1.62911"/>
<circle cx="331.209" cy="320.391" r="1.62911"/>
<circle cx="331.209" cy="320.391" r="1.62911"/>
<circle cx="331.209" cy="320.391" r="1.62911"/>
<circle cx="331.209" cy="320.391" r="1.62911"/>
<circle cx="331.209" cy="320.391" r="1.62911"/>
<circle cx="331.209" cy="320.391" r="1.62911"/>
<circle cx="331.209" cy="320.391" r="1.62911"/>
<circle cx="331.209" cy="320.391" r="1.62911"/>
<circle cx="331.209" cy="320.391" r="1.62911"/>
<circle cx="331.209" cy="320.391" r="1.62911"/>
<circle cx="331.209" cy="320.391" r="1.62911"/>
<circle cx="236.72" cy="320.391" r="1.62911"/>
<circle cx="331.209" cy="320.391" r="1.62911"/>
<circle cx="236.72" cy="320.391" r="1.62911"/>
<circle cx="236.72" cy="320.391" r="1.62911"/>
<circle cx="331.209" cy="320.391" r="1.62911"/>
<circle cx="331.209" cy="320.391" r="1.62911"/>
<circle cx="331.209" cy="320.391" r="1.62911"/>
<circle cx="331.209" cy="320.391" r="1.62911"/>
<circle cx="331.209" cy="320.391" r="1.62911"/>
<circle cx="331.209" cy="320.391" r="1.62911"/>
<circle cx="331.209" cy="320.391" r="1.62911"/>
<circle cx="331.209" cy="320.391" r="1.62911"/>
<circle cx="331.209" cy="320.391" r="1.62911"/>
<circle cx="331.209" cy="320.391" r="1.62911"/>
<circle cx="331.209" cy="320.391" r="1.62911"/>
<circle cx="331.209" cy="320.391" r="1.62911"/>
<circle cx="331.209" cy="320.391" r="1.62911"/>
<circle cx="331.209" cy="320.391" r="1.62911"/>
<circle cx="331.209" cy="320.391" r="1.62911"/>
<circle cx="331.209" cy="320.391" r="1.62911"/>
<circle cx="331.209" cy="320.391" r="1.62911"/>
<circle cx="331.209" cy="320.391" r="1.62911"/>
<circle cx="331.209" cy="320.391" r="1.62911"/>
<circle cx="236.72" cy="320.391" r="1.62911"/>
<circle cx="236.72" cy="320.391" r="1.62911"/>
<circle cx="236.72" cy="320.391" r="1.62911"/>
<circle cx="236.72" cy="320.391" r="1.62911"/>
<circle cx="236.72" cy="320.391" r="1.62911"/>
<circle cx="236.72" cy="320.391" r="1.62911"/>
<circle cx="236.72" cy="320.391" r="1.62911"/>
<circle cx="236.72" cy="320.391" r="1.62911"/>
<circle cx="236.72" cy="320.391" r="1.62911"/>
<circle cx="236.72" cy="320.391" r="1.62911"/>
<circle cx="236.72" cy="320.391" r="1.62911"/>
<circle cx="236.72" cy="320.391" r="1.62911"/>
<circle cx="236.72" cy="320.391" r="1.62911"/>
<circle cx="236.72" cy="320.391" r="1.62911"/>
<circle cx="236.72" cy="320.391" r="1.62911"/>
<circle cx="236.72" cy="320.391" r="1.62911"/>
<circle cx="236.72" cy="320.391" r="1.62911"/>
<circle cx="236.72" cy="320.391" r="1.62911"/>
<circle cx="236.72" cy="320.391" r="1.62911"/>
<circle cx="236.72" cy="320.391" r="1.62911"/>
<circle cx="236.72" cy="320.391" r="1.62911"/>
<circle cx="236.72" cy="320.391" r="1.62911"/>
<circle cx="236.72" cy="320.391" r="1.62911"/>
<circle cx="236.72" cy="320.391" r="1.62911"/>
<circle cx="236.72" cy="320.391" r="1.62911"/>
<circle cx="236.72" cy="320.391" r="1.62911"/>
<circle cx="236.72" cy="320.391" r="1.62911"/>
<circle cx="236.72" cy="320.391" r="1.62911"/>
<circle cx="236.72" cy="320.391" r="1.62911"/>
<circle cx="236.72" cy="320.391" r="1.62911"/>
<circle cx="236.72" cy="320.391" r="1.62911"/>
<circle cx="236.72" cy="320.391" r="1.62911"/>
<circle cx="236.72" cy="320.391" r="1.62911"/>
<circle cx="236.72" cy="320.391" r="1.62911"/>
<circle cx="236.72" cy="320.391" r="1.62911"/>
<circle cx="236.72" cy="320.391" r="1.62911"/>
<circle cx="236.72" cy="320.391" r="1.62911"/>
<circle cx="236.72" cy="320.391" r="1.62911"/>
<circle cx="236.72" cy="320.391" r="1.62911"/>
<circle cx="236.72" cy="320.391" r="1.62911"/>
<circle cx="236.72" cy="320.391" r="1.62911"/>
<circle cx="236.72" cy="320.391" r="1.62911"/>
<circle cx="236.72" cy="320.391" r="1.62911"/>
<circle cx="236.72" cy="320.391" r="1.62911"/>
<circle cx="236.72" cy="320.391" r="1.62911"/>
<circle cx="236.72" cy="320.391" r="1.62911"/>
<circle cx="236.72" cy="320.391" r="1.62911"/>
<circle cx="236.72" cy="320.391" r="1.62911"/>
<circle cx="236.72" cy="320.391" r="1.62911"/>
<circle cx="236.72" cy="320.391" r="1.62911"/>
<circle cx="236.72" cy="320.391" r="1.62911"/>
<circle cx="236.72" cy="320.391" r="1.62911"/>
<circle cx="236.72" cy="320.391" r="1.62911"/>
<circle cx="236.72" cy="320.391" r="1.62911"/>
<circle cx="236.72" cy="320.391" r="1.62911"/>
<circle cx="236.72" cy="320.391" r="1.62911"/>
<circle cx="236.72" cy="320.391" r="1.62911"/>
<circle cx="236.72" cy="320.391" r="1.62911"/>
<circle cx="236.72" cy="320.391" r="1.62911"/>
<circle cx="236.72" cy="320.391" r="1.62911"/>
<circle cx="236.72" cy="320.391" r="1.62911"/>
<circle cx="236.72" cy="320.391" r="1.62911"/>
<circle cx="236.72" cy="320.391" r="1.62911"/>
<circle cx="236.72" cy="320.391" r="1.62911"/>
<circle cx="236.72" cy="320.391" r="1.62911"/>
<circle cx="236.72" cy="320.391" r="1.62911"/>
<circle cx="236.72" cy="320.391" r="1.62911"/>
<circle cx="236.72" cy="320.391" r="1.62911"/>
<circle cx="236.72" cy="320.391" r="1.62911"/>
<circle cx="236.72" cy="320.391" r="1.62911"/>
<circle cx="236.72" cy="320.391" r="1.62911"/>
<circle cx="236.72" cy="320.391" r="1.62911"/>
<circle cx="236.72" cy="320.391" r="1.62911"/>
<circle cx="236.72" cy="320.391" r="1.62911"/>
<circle cx="236.72" cy="320.391" r="1.62911"/>
<circle cx="236.72" cy="320.391" r="1.62911"/>
<circle cx="236.72" cy="320.391" r="1.62911"/>
<circle cx="236.72" cy="320.391" r="1.62911"/>
<circle cx="236.72" cy="320.391" r="1.62911"/>
<circle cx="236.72" cy="320.391" r="1.62911"/>
<circle cx="236.72" cy="320.391" r="1.62911"/>
<circle cx="236.72" cy="320.391" r="1.62911"/>
<circle cx="236.72" cy="320.391" r="1.62911"/>
<circle cx="236.72" cy="320.391" r="1.62911"/>
<circle cx="236.72" cy="320.391" r="1.62911"/>
<circle cx="236.72" cy="320.391" r="1.62911"/>
<circle cx="236.72" cy="320.391" r="1.62911"/>
<circle cx="236.72" cy="320.391" r="1.62911"/>
<circle cx="236.72" cy="320.391" r="1.62911"/>
<circle cx="236.72" cy="320.391" r="1.62911"/>
<circle cx="236.72" cy="320.391" r="1.62911"/>
<circle cx="236.72" cy="320.391" r="1.62911"/>
<circle cx="236.72" cy="320.391" r="1.62911"/>
<circle cx="236.72" cy="320.391" r="1.62911"/>
<circle cx="236.72" cy="320.391" r="1.62911"/>
<circle cx="236.72" cy="320.391" r="1.62911"/>
<circle cx="236.72" cy="320.391" r="1.62911"/>
<circle cx="236.72" cy="320.391" r="1.62911"/>
<circle cx="236.72" cy="320.391" r="1.62911"/>
<circle cx="236.72" cy="320.391" r="1.62911"/>
<circle cx="236.72" cy="320.391" r="1.62911"/>
<circle cx="236.72" cy="320.391" r="1.62911"/>
<circle cx="236.72" cy="320.391" r="1.62911"/>
<circle cx="236.72" cy="320.391" r="1.62911"/>
<circle cx="236.72" cy="320.391" r="1.62911"/>
<circle cx="236.72" cy="320.391" r="1.62911"/>
<circle cx="236.72" cy="320.391" r="1.62911"/>
<circle cx="236.72" cy="320.391" r="1.62911"/>
<circle cx="236.72" cy="320.391" r="1.62911"/>
<circle cx="236.72" cy="320.391" r="1.62911"/>
<circle cx="236.72" cy="320.391" r="1.62911"/>
<circle cx="236.72" cy="320.391" r="1.62911"/>
<circle cx="236.72" cy="320.391" r="1.62911"/>
<circle cx="236.72" cy="320.391" r="1.62911"/>
<circle cx="236.72" cy="320.391" r="1.62911"/>
<circle cx="236.72" cy="320.391" r="1.62911"/>
<circle cx="236.72" cy="320.391" r="1.62911"/>
<circle cx="236.72" cy="320.391" r="1.62911"/>
<circle cx="236.72" cy="320.391" r="1.62911"/>
<circle cx="236.72" cy="320.391" r="1.62911"/>
<circle cx="236.72" cy="320.391" r="1.62911"/>
<circle cx="236.72" cy="320.391" r="1.62911"/>
<circle cx="236.72" cy="320.391" r="1.62911"/>
<circle cx="236.72" cy="320.391" r="1.62911"/>
<circle cx="236.72" cy="320.391" r="1.62911"/>
<circle cx="236.72" cy="320.391" r="1.62911"/>
<circle cx="236.72" cy="320.391" r="1.62911"/>
<circle cx="236.72" cy="320.391" r="1.62911"/>
<circle cx="236.72" cy="320.391" r="1.62911"/>
<circle cx="236.72" cy="320.391" r="1.62911"/>
<circle cx="236.72" cy="320.391" r="1.62911"/>
<circle cx="236.72" cy="320.391" r="1.62911"/>
<circle cx="236.72" cy="320.391" r="1.62911"/>
<circle cx="236.72" cy="320.391" r="1.62911"/>
<circle cx="236.72" cy="320.391" r="1.62911"/>
<circle cx="236.72" cy="320.391" r="1.62911"/>
<circle cx="236.72" cy="320.391" r="1.62911"/>
<circle cx="236.72" cy="320.391" r="1.62911"/>
<circle cx="236.72" cy="320.391" r="1.62911"/>
<circle cx="236.72" cy="320.391" r="1.62911"/>
<circle cx="236.72" cy="320.391" r="1.62911"/>
<circle cx="236.72" cy="320.391" r="1.62911"/>
<circle cx="236.72" cy="320.391" r="1.62911"/>
<circle cx="236.72" cy="320.391" r="1.62911"/>
<circle cx="236.72" cy="320.391" r="1.62911"/>
<circle cx="236.72" cy="320.391" r="1.62911"/>
<circle cx="236.72" cy="320.391" r="1.62911"/>
<circle cx="236.72" cy="320.391" r="1.62911"/>
<circle cx="236.72" cy="320.391" r="1.62911"/>
<circle cx="236.72" cy="320.391" r="1.62911"/>
<circle cx="236.72" cy="320.391" r="1.62911"/>
<circle cx="236.72" cy="320.391" r="1.62911"/>
<circle cx="236.72" cy="320.391" r="1.62911"/>
<circle cx="236.72" cy="320.391" r="1.62911"/>
<circle cx="236.72" cy="320.391" r="1.62911"/>
<circle cx="236.72" cy="320.391" r="1.62911"/>
<circle cx="236.72" cy="320.391" r="1.62911"/>
<circle cx="236.72" cy="320.391" r="1.62911"/>
<circle cx="236.72" cy="320.391" r="1.62911"/>
<circle cx="236.72" cy="320.391" r="1.62911"/>
<circle cx="236.72" cy="320.391" r="1.62911"/>
<circle cx="236.72" cy="320.391" r="1.62911"/>
<circle cx="236.72" cy="320.391" r="1.62911"/>
<circle cx="236.72" cy="320.391" r="1.62911"/>
<circle cx="236.72" cy="320.391" r="1.62911"/>
<circle cx="236.72" cy="320.391" r="1.62911"/>
<circle cx="236.72" cy="320.391" r="1.62911"/>
<circle cx="236.72" cy="320.391" r="1.62911"/>
<circle cx="236.72" cy="320.391" r="1.62911"/>
<circle cx="236.72" cy="320.391" r="1.62911"/>
<circle cx="236.72" cy="320.391" r="1.62911"/>
<circle cx="236.72" cy="320.391" r="1.62911"/>
<circle cx="236.72" cy="320.391" r="1.62911"/>
<circle cx="236.72" cy="320.391" r="1.62911"/>
<circle cx="236.72" cy="320.391" r="1.62911"/>
<circle cx="236.72" cy="320.391" r="1.62911"/>
<circle cx="236.72" cy="320.391" r="1.62911"/>
<circle cx="236.72" cy="320.391" r="1.62911"/>
<circle cx="236.72" cy="320.391" r="1.62911"/>
<circle cx="236.72" cy="320.391" r="1.62911"/>
<circle cx="236.72" cy="320.391" r="1.62911"/>
<circle cx="236.72" cy="320.391" r="1.62911"/>
<circle cx="236.72" cy="320.391" r="1.62911"/>
<circle cx="236.72" cy="320.391" r="1.62911"/>
<circle cx="236.72" cy="320.391" r="1.62911"/>
<circle cx="236.72" cy="320.391" r="1.62911"/>
<circle cx="236.72" cy="320.391" r="1.62911"/>
<circle cx="236.72" cy="320.391" r="1.62911"/>
<circle cx="236.72" cy="320.391" r="1.62911"/>
<circle cx="236.72" cy="320.391" r="1.62911"/>
<circle cx="236.72" cy="320.391" r="1.62911"/>
<circle cx="236.72" cy="320.391" r="1.62911"/>
<circle cx="236.72" cy="320.391" r="1.62911"/>
<circle cx="236.72" cy="320.391" r="1.62911"/>
<circle cx="236.72" cy="320.391" r="1.62911"/>
<circle cx="236.72" cy="320.391" r="1.62911"/>
<circle cx="236.72" cy="320.391" r="1.62911"/>
<circle cx="236.72" cy="320.391" r="1.62911"/>
<circle cx="236.72" cy="320.391" r="1.62911"/>
<circle cx="236.72" cy="320.391" r="1.62911"/>
<circle cx="236.72" cy="320.391" r="1.62911"/>
<circle cx="236.72" cy="320.391" r="1.62911"/>
<circle cx="236.72" cy="320.391" r="1.62911"/>
<circle cx="236.72" cy="320.391" r="1.62911"/>
<circle cx="236.72" cy="320.391" r="1.62911"/>
<circle cx="236.72" cy="320.391" r="1.62911"/>
<circle cx="236.72" cy="320.391" r="1.62911"/>
<circle cx="236.72" cy="320.391" r="1.62911"/>
<circle cx="236.72" cy="320.391" r="1.62911"/>
<circle cx="236.72" cy="320.391" r="1.62911"/>
<circle cx="236.72" cy="320.391" r="1.62911"/>
<circle cx="236.72" cy="320.391" r="1.62911"/>
<circle cx="236.72" cy="320.391" r="1.62911"/>
<circle cx="236.72" cy="320.391" r="1.62911"/>
<circle cx="236.72" cy="320.391" r="1.62911"/>
<circle cx="236.72" cy="320.391" r="1.62911"/>
<circle cx="236.72" cy="320.391" r="1.62911"/>
<circle cx="236.72" cy="320.391" r="1.62911"/>
<circle cx="236.72" cy="320.391" r="1.62911"/>
<circle cx="236.72" cy="320.391" r="1.62911"/>
<circle cx="236.72" cy="320.391" r="1.62911"/>
<circle cx="236.72" cy="320.391" r="1.62911"/>
<circle cx="236.72" cy="320.391" r="1.62911"/>
<circle cx="236.72" cy="320.391" r="1.62911"/>
<circle cx="236.72" cy="320.391" r="1.62911"/>
<circle cx="189.476" cy="320.391" r="1.62911"/>
<circle cx="236.72" cy="320.391" r="1.62911"/>
<circle cx="236.72" cy="320.391" r="1.62911"/>
<circle cx="236.72" cy="320.391" r="1.62911"/>
<circle cx="236.72" cy="320.391" r="1.62911"/>
<circle cx="236.72" cy="320.391" r="1.62911"/>
<circle cx="236.72" cy="320.391" r="1.62911"/>
<circle cx="236.72" cy="320.391" r="1.62911"/>
<circle cx="236.72" cy="320.391" r="1.62911"/>
<circle cx="236.72" cy="320.391" r="1.62911"/>
<circle cx="236.72" cy="320.391" r="1.62911"/>
<circle cx="236.72" cy="320.391" r="1.62911"/>
<circle cx="236.72" cy="320.391" r="1.62911"/>
<circle cx="189.476" cy="320.391" r="1.62911"/>
<circle cx="236.72" cy="320.391" r="1.62911"/>
<circle cx="236.72" cy="320.391" r="1.62911"/>
<circle cx="236.72" cy="320.391" r="1.62911"/>
<circle cx="189.476" cy="320.391" r="1.62911"/>
<circle cx="189.476" cy="320.391" r="1.62911"/>
<circle cx="189.476" cy="320.391" r="1.62911"/>
<circle cx="189.476" cy="320.391" r="1.62911"/>
<circle cx="189.476" cy="320.391" r="1.62911"/>
<circle cx="189.476" cy="320.391" r="1.62911"/>
<circle cx="189.476" cy="320.391" r="1.62911"/>
<circle cx="189.476" cy="320.391" r="1.62911"/>
<circle cx="189.476" cy="320.391" r="1.62911"/>
<circle cx="189.476" cy="320.391" r="1.62911"/>
<circle cx="189.476" cy="320.391" r="1.62911"/>
<circle cx="189.476" cy="320.391" r="1.62911"/>
<circle cx="189.476" cy="320.391" r="1.62911"/>
<circle cx="189.476" cy="320.391" r="1.62911"/>
<circle cx="189.476" cy="320.391" r="1.62911"/>
<circle cx="189.476" cy="320.391" r="1.62911"/>
<circle cx="189.476" cy="320.391" r="1.62911"/>
<circle cx="189.476" cy="320.391" r="1.62911"/>
<circle cx="189.476" cy="320.391" r="1.62911"/>
<circle cx="189.476" cy="320.391" r="1.62911"/>
<circle cx="189.476" cy="320.391" r="1.62911"/>
<circle cx="189.476" cy="320.391" r="1.62911"/>
<circle cx="189.476" cy="320.391" r="1.62911"/>
<circle cx="189.476" cy="320.391" r="1.62911"/>
<circle cx="189.476" cy="320.391" r="1.62911"/>
<circle cx="189.476" cy="320.391" r="1.62911"/>
<circle cx="189.476" cy="320.391" r="1.62911"/>
<circle cx="189.476" cy="320.391" r="1.62911"/>
<circle cx="189.476" cy="320.391" r="1.62911"/>
<circle cx="189.476" cy="320.391" r="1.62911"/>
<circle cx="189.476" cy="320.391" r="1.62911"/>
<circle cx="189.476" cy="320.391" r="1.62911"/>
<circle cx="189.476" cy="320.391" r="1.62911"/>
<circle cx="189.476" cy="320.391" r="1.62911"/>
<circle cx="189.476" cy="320.391" r="1.62911"/>
<circle cx="189.476" cy="320.391" r="1.62911"/>
<circle cx="189.476" cy="320.391" r="1.62911"/>
<circle cx="189.476" cy="320.391" r="1.62911"/>
<circle cx="189.476" cy="320.391" r="1.62911"/>
<circle cx="189.476" cy="320.391" r="1.62911"/>
<circle cx="189.476" cy="320.391" r="1.62911"/>
<circle cx="189.476" cy="320.391" r="1.62911"/>
<circle cx="189.476" cy="320.391" r="1.62911"/>
<circle cx="189.476" cy="320.391" r="1.62911"/>
<circle cx="189.476" cy="320.391" r="1.62911"/>
<circle cx="189.476" cy="320.391" r="1.62911"/>
<circle cx="189.476" cy="320.391" r="1.62911"/>
<circle cx="189.476" cy="320.391" r="1.62911"/>
<circle cx="189.476" cy="320.391" r="1.62911"/>
<circle cx="189.476" cy="320.391" r="1.62911"/>
<circle cx="189.476" cy="320.391" r="1.62911"/>
<circle cx="189.476" cy="320.391" r="1.62911"/>
<circle cx="189.476" cy="320.391" r="1.62911"/>
<circle cx="189.476" cy="320.391" r="1.62911"/>
<circle cx="189.476" cy="320.391" r="1.62911"/>
<circle cx="189.476" cy="320.391" r="1.62911"/>
<circle cx="189.476" cy="320.391" r="1.62911"/>
<circle cx="189.476" cy="320.391" r="1.62911"/>
<circle cx="189.476" cy="320.391" r="1.62911"/>
<circle cx="189.476" cy="320.391" r="1.62911"/>
<circle cx="189.476" cy="320.391" r="1.62911"/>
<circle cx="189.476" cy="320.391" r="1.62911"/>
<circle cx="189.476" cy="320.391" r="1.62911"/>
<circle cx="189.476" cy="320.391" r="1.62911"/>
<circle cx="189.476" cy="320.391" r="1.62911"/>
<circle cx="189.476" cy="320.391" r="1.62911"/>
<circle cx="189.476" cy="320.391" r="1.62911"/>
<circle cx="189.476" cy="320.391" r="1.62911"/>
<circle cx="189.476" cy="320.391" r="1.62911"/>
<circle cx="189.476" cy="320.391" r="1.62911"/>
<circle cx="189.476" cy="320.391" r="1.62911"/>
<circle cx="189.476" cy="320.391" r="1.62911"/>
<circle cx="189.476" cy="320.391" r="1.62911"/>
<circle cx="189.476" cy="320.391" r="1.62911"/>
<circle cx="189.476" cy="320.391" r="1.62911"/>
<circle cx="189.476" cy="320.391" r="1.62911"/>
<circle cx="189.476" cy="320.391" r="1.62911"/>
<circle cx="189.476" cy="320.391" r="1.62911"/>
<circle cx="189.476" cy="320.391" r="1.62911"/>
<circle cx="189.476" cy="320.391" r="1.62911"/>
<circle cx="189.476" cy="320.391" r="1.62911"/>
<circle cx="189.476" cy="320.391" r="1.62911"/>
<circle cx="189.476" cy="320.391" r="1.62911"/>
<circle cx="189.476" cy="320.391" r="1.62911"/>
<circle cx="189.476" cy="320.391" r="1.62911"/>
<circle cx="189.476" cy="320.391" r="1.62911"/>
<circle cx="189.476" cy="320.391" r="1.62911"/>
<circle cx="189.476" cy="320.391" r="1.62911"/>
<circle cx="189.476" cy="64.0782" r="1.62911"/>
<circle cx="189.476" cy="320.391" r="1.62911"/>
<circle cx="189.476" cy="320.391" r="1.62911"/>
<circle cx="189.476" cy="320.391" r="1.62911"/>
<circle cx="189.476" cy="320.391" r="1.62911"/>
<circle cx="189.476" cy="320.391" r="1.62911"/>
<circle cx="189.476" cy="320.391" r="1.62911"/>
<circle cx="189.476" cy="64.0782" r="1.62911"/>
<circle cx="189.476" cy="320.391" r="1.62911"/>
<circle cx="189.476" cy="320.391" r="1.62911"/>
<circle cx="189.476" cy="320.391" r="1.62911"/>
<circle cx="189.476" cy="320.391" r="1.62911"/>
<circle cx="189.476" cy="320.391" r="1.62911"/>
<circle cx="189.476" cy="320.391" r="1.62911"/>
<circle cx="189.476" cy="320.391" r="1.62911"/>
<circle cx="189.476" cy="320.391" r="1.62911"/>
<circle cx="189.476" cy="320.391" r="1.62911"/>
<circle cx="189.476" cy="320.391" r="1.62911"/>
<circle cx="189.476" cy="320.391" r="1.62911"/>
<circle cx="189.476" cy="320.391" r="1.62911"/>
<circle cx="189.476" cy="320.391" r="1.62911"/>
<circle cx="189.476" cy="320.391" r="1.62911"/>
<circle cx="189.476" cy="320.391" r="1.62911"/>
<circle cx="189.476" cy="320.391" r="1.62911"/>
<circle cx="189.476" cy="320.391" r="1.62911"/>
<circle cx="189.476" cy="320.391" r="1.62911"/>
<circle cx="189.476" cy="320.391" r="1.62911"/>
<circle cx="189.476" cy="320.391" r="1.62911"/>
<circle cx="189.476" cy="320.391" r="1.62911"/>
<circle cx="189.476" cy="320.391" r="1.62911"/>
<circle cx="189.476" cy="320.391" r="1.62911"/>
<circle cx="189.476" cy="320.391" r="1.62911"/>
<circle cx="189.476" cy="320.391" r="1.62911"/>
<circle cx="189.476" cy="320.391" r="1.62911"/>
<circle cx="189.476" cy="320.391" r="1.62911"/>
<circle cx="189.476" cy="320.391" r="1.62911"/>
<circle cx="189.476" cy="320.391" r="1.62911"/>
<circle cx="189.476" cy="320.391" r="1.62911"/>
<circle cx="189.476" cy="320.391" r="1.62911"/>
<circle cx="189.476" cy="320.391" r="1.62911"/>
<circle cx="189.476" cy="320.391" r="1.62911"/>
<circle cx="189.476" cy="320.391" r="1.62911"/>
<circle cx="189.476" cy="320.391" r="1.62911"/>
<circle cx="189.476" cy="320.391" r="1.62911"/>
<circle cx="189.476" cy="320.391" r="1.62911"/>
<circle cx="189.476" cy="320.391" r="1.62911"/>
<circle cx="189.476" cy="320.391" r="1.62911"/>
<circle cx="189.476" cy="320.391" r="1.62911"/>
<circle cx="189.476" cy="320.391" r="1.62911"/>
<circle cx="189.476" cy="320.391" r="1.62911"/>
<circle cx="189.476" cy="320.391" r="1.62911"/>
<circle cx="378.453" cy="320.391" r="1.62911"/>
<circle cx="378.453" cy="320.391" r="1.62911"/>
<circle cx="378.453" cy="320.391" r="1.62911"/>
<circle cx="378.453" cy="320.391" r="1.62911"/>
<circle cx="378.453" cy="320.391" r="1.62911"/>
<circle cx="378.453" cy="320.391" r="1.62911"/>
<circle cx="378.453" cy="320.391" r="1.62911"/>
<circle cx="378.453" cy="320.391" r="1.62911"/>
<circle cx="378.453" cy="320.391" r="1.62911"/>
<circle cx="378.453" cy="320.391" r="1.62911"/>
<circle cx="378.453" cy="320.391" r="1.62911"/>
<circle cx="378.453" cy="320.391" r="1.62911"/>
<circle cx="378.453" cy="320.391" r="1.62911"/>
<circle cx="378.453" cy="320.391" r="1.62911"/>
<circle cx="378.453" cy="320.391" r="1.62911"/>
<circle cx="378.453" cy="320.391" r="1.62911"/>
<circle cx="378.453" cy="320.391" r="1.62911"/>
<circle cx="378.453" cy="320.391" r="1.62911"/>
<circle cx="378.453" cy="320.391" r="1.62911"/>
<circle cx="378.453" cy="320.391" r="1.62911"/>
<circle cx="378.453" cy="320.391" r="1.62911"/>
<circle cx="378.453" cy="320.391" r="1.62911"/>
<circle cx="378.453" cy="320.391" r="1.62911"/>
<circle cx="378.453" cy="320.391" r="1.62911"/>
<circle cx="378.453" cy="320.391" r="1.62911"/>
<circle cx="378.453" cy="320.391" r="1.62911"/>
<circle cx="378.453" cy="320.391" r="1.62911"/>
<circle cx="378.453" cy="320.391" r="1.62911"/>
<circle cx="378.453" cy="320.391" r="1.62911"/>
<circle cx="378.453" cy="320.391" r="1.62911"/>
<circle cx="378.453" cy="320.391" r="1.62911"/>
<circle cx="378.453" cy="320.391" r="1.62911"/>
<circle cx="378.453" cy="320.391" r="1.62911"/>
<circle cx="378.453" cy="320.391" r="1.62911"/>
<circle cx="378.453" cy="320.391" r="1.62911"/>
<circle cx="378.453" cy="320.391" r="1.62911"/>
<circle cx="378.453" cy="320.391" r="1.62911"/>
<circle cx="378.453" cy="320.391" r="1.62911"/>
<circle cx="378.453" cy="320.391" r="1.62911"/>
<circle cx="378.453" cy="320.391" r="1.62911"/>
<circle cx="378.453" cy="320.391" r="1.62911"/>
<circle cx="378.453" cy="320.391" r="1.62911"/>
<circle cx="378.453" cy="320.391" r="1.62911"/>
<circle cx="378.453" cy="320.391" r="1.62911"/>
<circle cx="378.453" cy="320.391" r="1.62911"/>
<circle cx="378.453" cy="320.391" r="1.62911"/>
<circle cx="378.453" cy="320.391" r="1.62911"/>
<circle cx="378.453" cy="320.391" r="1.62911"/>
<circle cx="378.453" cy="320.391" r="1.62911"/>
<circle cx="378.453" cy="320.391" r="1.62911"/>
<circle cx="378.453" cy="320.391" r="1.62911"/>
<circle cx="378.453" cy="320.391" r="1.62911"/>
<circle cx="378.453" cy="320.391" r="1.62911"/>
<circle cx="378.453" cy="320.391" r="1.62911"/>
<circle cx="378.453" cy="320.391" r="1.62911"/>
<circle cx="378.453" cy="320.391" r="1.62911"/>
<circle cx="378.453" cy="320.391" r="1.62911"/>
<circle cx="378.453" cy="320.391" r="1.62911"/>
<circle cx="94.9882" cy="320.391" r="1.62911"/>
<circle cx="94.9882" cy="320.391" r="1.62911"/>
<circle cx="94.9882" cy="320.391" r="1.62911"/>
<circle cx="94.9882" cy="320.391" r="1.62911"/>
<circle cx="94.9882" cy="320.391" r="1.62911"/>
<circle cx="94.9882" cy="320.391" r="1.62911"/>
<circle cx="94.9882" cy="320.391" r="1.62911"/>
<circle cx="94.9882" cy="320.391" r="1.62911"/>
<circle cx="94.9882" cy="320.391" r="1.62911"/>
<circle cx="94.9882" cy="320.391" r="1.62911"/>
<circle cx="94.9882" cy="320.391" r="1.62911"/>
<circle cx="94.9882" cy="320.391" r="1.62911"/>
<circle cx="94.9882" cy="320.391" r="1.62911"/>
<circle cx="94.9882" cy="320.391" r="1.62911"/>
<circle cx="94.9882" cy="320.391" r="1.62911"/>
<circle cx="94.9882" cy="320.391" r="1.62911"/>
<circle cx="94.9882" cy="320.391" r="1.62911"/>
<circle cx="94.9882" cy="320.391" r="1.62911"/>
<circle cx="94.9882" cy="320.391" r="1.62911"/>
<circle cx="94.9882" cy="320.391" r="1.62911"/>
<circle cx="94.9882" cy="320.391" r="1.62911"/>
<circle cx="94.9882" cy="320.391" r="1.62911"/>
<circle cx="94.9882" cy="320.391" r="1.62911"/>
<circle cx="94.9882" cy="320.391" r="1.62911"/>
<circle cx="94.9882" cy="320.391" r="1.62911"/>
<circle cx="94.9882" cy="320.391" r="1.62911"/>
<circle cx="94.9882" cy="320.391" r="1.62911"/>
<circle cx="94.9882" cy="320.391" r="1.62911"/>
<circle cx="94.9882" cy="320.391" r="1.62911"/>
<circle cx="94.9882" cy="320.391" r="1.62911"/>
<circle cx="94.9882" cy="320.391" r="1.62911"/>
<circle cx="94.9882" cy="320.391" r="1.62911"/>
<circle cx="94.9882" cy="320.391" r="1.62911"/>
<circle cx="94.9882" cy="320.391" r="1.62911"/>
<circle cx="94.9882" cy="320.391" r="1.62911"/>
<circle cx="94.9882" cy="320.391" r="1.62911"/>
<circle cx="94.9882" cy="320.391" r="1.62911"/>
<circle cx="94.9882" cy="320.391" r="1.62911"/>
<circle cx="94.9882" cy="320.391" r="1.62911"/>
<circle cx="94.9882" cy="320.391" r="1.62911"/>
<circle cx="94.9882" cy="320.391" r="1.62911"/>
<circle cx="94.9882" cy="320.391" r="1.62911"/>
<circle cx="94.9882" cy="320.391" r="1.62911"/>
<circle cx="94.9882" cy="320.391" r="1.62911"/>
<circle cx="94.9882" cy="320.391" r="1.62911"/>
<circle cx="94.9882" cy="320.391" r="1.62911"/>
<circle cx="94.9882" cy="320.391" r="1.62911"/>
<circle cx="94.9882" cy="320.391" r="1.62911"/>
<circle cx="94.9882" cy="320.391" r="1.62911"/>
<circle cx="94.9882" cy="320.391" r="1.62911"/>
<circle cx="94.9882" cy="320.391" r="1.62911"/>
<circle cx="94.9882" cy="320.391" r="1.62911"/>
<circle cx="94.9882" cy="320.391" r="1.62911"/>
<circle cx="94.9882" cy="320.391" r="1.62911"/>
<circle cx="94.9882" cy="320.391" r="1.62911"/>
<circle cx="94.9882" cy="320.391" r="1.62911"/>
<circle cx="94.9882" cy="320.391" r="1.62911"/>
<circle cx="94.9882" cy="320.391" r="1.62911"/>
<circle cx="94.9882" cy="320.391" r="1.62911"/>
<circle cx="94.9882" cy="320.391" r="1.62911"/>
<circle cx="94.9882" cy="320.391" r="1.62911"/>
<circle cx="94.9882" cy="320.391" r="1.62911"/>
<circle cx="94.9882" cy="320.391" r="1.62911"/>
<circle cx="94.9882" cy="320.391" r="1.62911"/>
<circle cx="94.9882" cy="320.391" r="1.62911"/>
<circle cx="94.9882" cy="320.391" r="1.62911"/>
<circle cx="94.9882" cy="320.391" r="1.62911"/>
<circle cx="94.9882" cy="320.391" r="1.62911"/>
<circle cx="94.9882" cy="320.391" r="1.62911"/>
<circle cx="94.9882" cy="320.391" r="1.62911"/>
<circle cx="94.9882" cy="320.391" r="1.62911"/>
</g>
<text xml:space="preserve" x="145.49" y="17.9202" fill="black" font-size="18.7938" font-family="Helvetica">block mpv vs sipm vop (adjusted)</text></svg>
