<?xml version="1.0" standalone="no"?>
<svg width="567.429" height="384.969" viewBox="0 0 567.429 384.969" xmlns="http://www.w3.org/2000/svg" shape-rendering="crispEdges">
<title>
./adjusted_vop/vop_graphs/vop_mpv_discrete.svg
</title>
<desc>
Creator: ROOT Version 6.22/02
CreationDate: Mon Jul 12 11:35:43 2021</desc>
<defs>
</defs>
<rect x="0.5" y="0" width="566.929" height="384.469" fill="white"/>
<rect x="57.1929" y="38.4469" width="453.543" height="307.575" fill="white"/>
<rect x="57.1929" y="38.4469" width="453.543" height="307.575" fill="none" stroke="black"/>
<path d="M57.1929,346.022h 453.543" fill="none" stroke="black"/>
<path d="M98.4241,38.4469v 307.575" fill="none" stroke="black" stroke-dasharray=" 1, 2"/>
<path d="M180.887,38.4469v 307.575" fill="none" stroke="black" stroke-dasharray=" 1, 2"/>
<path d="M263.349,38.4469v 307.575" fill="none" stroke="black" stroke-dasharray=" 1, 2"/>
<path d="M345.811,38.4469v 307.575" fill="none" stroke="black" stroke-dasharray=" 1, 2"/>
<path d="M428.274,38.4469v 307.575" fill="none" stroke="black" stroke-dasharray=" 1, 2"/>
<path d="M510.736,38.4469v 307.575" fill="none" stroke="black" stroke-dasharray=" 1, 2"/>
<path d="M98.4241,38.4469v 307.575" fill="none" stroke="black" stroke-dasharray=" 1, 2"/>
<path d="M57.1929,346.022v -307.575" fill="none" stroke="black"/>
<path d="M510.736,346.022h -453.543" fill="none" stroke="black" stroke-dasharray=" 1, 2"/>
<path d="M510.736,307.575h -453.543" fill="none" stroke="black" stroke-dasharray=" 1, 2"/>
<path d="M510.736,269.128h -453.543" fill="none" stroke="black" stroke-dasharray=" 1, 2"/>
<path d="M510.736,230.682h -453.543" fill="none" stroke="black" stroke-dasharray=" 1, 2"/>
<path d="M510.736,192.235h -453.543" fill="none" stroke="black" stroke-dasharray=" 1, 2"/>
<path d="M510.736,153.788h -453.543" fill="none" stroke="black" stroke-dasharray=" 1, 2"/>
<path d="M510.736,115.341h -453.543" fill="none" stroke="black" stroke-dasharray=" 1, 2"/>
<path d="M510.736,76.8938h -453.543" fill="none" stroke="black" stroke-dasharray=" 1, 2"/>
<path d="M510.736,38.4469h -453.543" fill="none" stroke="black" stroke-dasharray=" 1, 2"/>
<path d="M57.1929,346.022h 453.543" fill="none" stroke="black"/>
<path d="M98.4241,336.795v 9.22726" fill="none" stroke="black"/>
<path d="M114.917,341.409v 4.61363" fill="none" stroke="black"/>
<path d="M131.409,341.409v 4.61363" fill="none" stroke="black"/>
<path d="M147.902,341.409v 4.61363" fill="none" stroke="black"/>
<path d="M164.394,341.409v 4.61363" fill="none" stroke="black"/>
<path d="M180.887,336.795v 9.22726" fill="none" stroke="black"/>
<path d="M197.379,341.409v 4.61363" fill="none" stroke="black"/>
<path d="M213.872,341.409v 4.61363" fill="none" stroke="black"/>
<path d="M230.364,341.409v 4.61363" fill="none" stroke="black"/>
<path d="M246.856,341.409v 4.61363" fill="none" stroke="black"/>
<path d="M263.349,336.795v 9.22726" fill="none" stroke="black"/>
<path d="M279.841,341.409v 4.61363" fill="none" stroke="black"/>
<path d="M296.334,341.409v 4.61363" fill="none" stroke="black"/>
<path d="M312.826,341.409v 4.61363" fill="none" stroke="black"/>
<path d="M329.319,341.409v 4.61363" fill="none" stroke="black"/>
<path d="M345.811,336.795v 9.22726" fill="none" stroke="black"/>
<path d="M362.304,341.409v 4.61363" fill="none" stroke="black"/>
<path d="M378.796,341.409v 4.61363" fill="none" stroke="black"/>
<path d="M395.289,341.409v 4.61363" fill="none" stroke="black"/>
<path d="M411.781,341.409v 4.61363" fill="none" stroke="black"/>
<path d="M428.274,336.795v 9.22726" fill="none" stroke="black"/>
<path d="M444.766,341.409v 4.61363" fill="none" stroke="black"/>
<path d="M461.259,341.409v 4.61363" fill="none" stroke="black"/>
<path d="M477.751,341.409v 4.61363" fill="none" stroke="black"/>
<path d="M494.244,341.409v 4.61363" fill="none" stroke="black"/>
<path d="M510.736,336.795v 9.22726" fill="none" stroke="black"/>
<path d="M98.4241,336.795v 9.22726" fill="none" stroke="black"/>
<path d="M81.9316,341.409v 4.61363" fill="none" stroke="black"/>
<path d="M65.4392,341.409v 4.61363" fill="none" stroke="black"/>
<text xml:space="preserve" x="86.0281" y="358.403" fill="black" font-size="12.8453" font-family="Helvetica">68.9</text>
<text xml:space="preserve" x="174" y="358.403" fill="black" font-size="12.8453" font-family="Helvetica">69</text>
<text xml:space="preserve" x="251.382" y="358.403" fill="black" font-size="12.8453" font-family="Helvetica">69.1</text>
<text xml:space="preserve" x="332.838" y="358.403" fill="black" font-size="12.8453" font-family="Helvetica">69.2</text>
<text xml:space="preserve" x="415.922" y="358.403" fill="black" font-size="12.8453" font-family="Helvetica">69.3</text>
<text xml:space="preserve" x="498.192" y="358.403" fill="black" font-size="12.8453" font-family="Helvetica">69.4</text>
<text xml:space="preserve" x="490.861" y="369.807" fill="black" font-size="12.8453" font-family="Helvetica">vop</text>
<path d="M57.1929,346.022v -307.575" fill="none" stroke="black"/>
<path d="M70.7992,346.022h -13.6063" fill="none" stroke="black"/>
<path d="M63.9961,336.411h -6.80315" fill="none" stroke="black"/>
<path d="M63.9961,326.799h -6.80315" fill="none" stroke="black"/>
<path d="M63.9961,317.187h -6.80315" fill="none" stroke="black"/>
<path d="M70.7992,307.575h -13.6063" fill="none" stroke="black"/>
<path d="M63.9961,297.964h -6.80315" fill="none" stroke="black"/>
<path d="M63.9961,288.352h -6.80315" fill="none" stroke="black"/>
<path d="M63.9961,278.74h -6.80315" fill="none" stroke="black"/>
<path d="M70.7992,269.128h -13.6063" fill="none" stroke="black"/>
<path d="M63.9961,259.517h -6.80315" fill="none" stroke="black"/>
<path d="M63.9961,249.905h -6.80315" fill="none" stroke="black"/>
<path d="M63.9961,240.293h -6.80315" fill="none" stroke="black"/>
<path d="M70.7992,230.682h -13.6063" fill="none" stroke="black"/>
<path d="M63.9961,221.07h -6.80315" fill="none" stroke="black"/>
<path d="M63.9961,211.458h -6.80315" fill="none" stroke="black"/>
<path d="M63.9961,201.846h -6.80315" fill="none" stroke="black"/>
<path d="M70.7992,192.235h -13.6063" fill="none" stroke="black"/>
<path d="M63.9961,182.623h -6.80315" fill="none" stroke="black"/>
<path d="M63.9961,173.011h -6.80315" fill="none" stroke="black"/>
<path d="M63.9961,163.399h -6.80315" fill="none" stroke="black"/>
<path d="M70.7992,153.788h -13.6063" fill="none" stroke="black"/>
<path d="M63.9961,144.176h -6.80315" fill="none" stroke="black"/>
<path d="M63.9961,134.564h -6.80315" fill="none" stroke="black"/>
<path d="M63.9961,124.952h -6.80315" fill="none" stroke="black"/>
<path d="M70.7992,115.341h -13.6063" fill="none" stroke="black"/>
<path d="M63.9961,105.729h -6.80315" fill="none" stroke="black"/>
<path d="M63.9961,96.1173h -6.80315" fill="none" stroke="black"/>
<path d="M63.9961,86.5056h -6.80315" fill="none" stroke="black"/>
<path d="M70.7992,76.8938h -13.6063" fill="none" stroke="black"/>
<path d="M63.9961,67.2821h -6.80315" fill="none" stroke="black"/>
<path d="M63.9961,57.6704h -6.80315" fill="none" stroke="black"/>
<path d="M63.9961,48.0586h -6.80315" fill="none" stroke="black"/>
<path d="M70.7992,38.4469h -13.6063" fill="none" stroke="black"/>
<text xml:space="preserve" x="33.8967" y="350.258" fill="black" font-size="12.8453" font-family="Helvetica">220</text>
<text xml:space="preserve" x="33.8967" y="311.974" fill="black" font-size="12.8453" font-family="Helvetica">240</text>
<text xml:space="preserve" x="33.8967" y="273.69" fill="black" font-size="12.8453" font-family="Helvetica">260</text>
<text xml:space="preserve" x="33.8967" y="235.406" fill="black" font-size="12.8453" font-family="Helvetica">280</text>
<text xml:space="preserve" x="33.8967" y="197.122" fill="black" font-size="12.8453" font-family="Helvetica">300</text>
<text xml:space="preserve" x="33.8967" y="158.023" fill="black" font-size="12.8453" font-family="Helvetica">320</text>
<text xml:space="preserve" x="33.8967" y="119.739" fill="black" font-size="12.8453" font-family="Helvetica">340</text>
<text xml:space="preserve" x="33.8967" y="81.4553" fill="black" font-size="12.8453" font-family="Helvetica">360</text>
<text xml:space="preserve" x="33.8967" y="43.1713" fill="black" font-size="12.8453" font-family="Helvetica">380</text>
<g transform="rotate(-90,19.2347,61.9061)">
<text xml:space="preserve" x="19.2347" y="61.9061" fill="black" font-size="12.8453" font-family="Helvetica">mpv</text>
</g>
<text xml:space="preserve" x="134.901" y="18.7347" fill="black" font-size="18.7938" font-family="Helvetica">Block MPV vs SiPM VOp (Adjusted)</text>
<g fill="black">
<rect x="119.905" y="232.795" width="6.51643" height="6.51643"/>
<rect x="161.136" y="162.797" width="6.51643" height="6.51643"/>
<rect x="202.367" y="266.145" width="6.51643" height="6.51643"/>
<rect x="243.598" y="210.114" width="6.51643" height="6.51643"/>
<rect x="284.829" y="271.622" width="6.51643" height="6.51643"/>
<rect x="326.061" y="234.966" width="6.51643" height="6.51643"/>
<rect x="367.292" y="205.19" width="6.51643" height="6.51643"/>
<rect x="449.754" y="238.415" width="6.51643" height="6.51643"/>
</g>
<path d="M123.163,232.795v -3.67245" fill="none" stroke="black"/>
<path d="M121.534,229.122h 3.25821" fill="none" stroke="black"/>
<path d="M123.163,239.311v 3.67245" fill="none" stroke="black"/>
<path d="M121.534,242.984h 3.25821" fill="none" stroke="black"/>
<path d="M164.394,162.797v -7.42" fill="none" stroke="black"/>
<path d="M162.765,155.377h 3.25821" fill="none" stroke="black"/>
<path d="M164.394,169.313v 7.42" fill="none" stroke="black"/>
<path d="M162.765,176.733h 3.25821" fill="none" stroke="black"/>
<path d="M205.625,266.145v -6.54584" fill="none" stroke="black"/>
<path d="M203.996,259.599h 3.25821" fill="none" stroke="black"/>
<path d="M205.625,272.661v 6.54584" fill="none" stroke="black"/>
<path d="M203.996,279.207h 3.25821" fill="none" stroke="black"/>
<path d="M246.856,210.114v -4.31435" fill="none" stroke="black"/>
<path d="M245.227,205.8h 3.25821" fill="none" stroke="black"/>
<path d="M246.856,216.63v 4.31435" fill="none" stroke="black"/>
<path d="M245.227,220.945h 3.25821" fill="none" stroke="black"/>
<path d="M288.088,271.622v -3.28005" fill="none" stroke="black"/>
<path d="M286.459,268.342h 3.25821" fill="none" stroke="black"/>
<path d="M288.088,278.138v 3.28005" fill="none" stroke="black"/>
<path d="M286.459,281.418h 3.25821" fill="none" stroke="black"/>
<path d="M329.319,234.966v -3.06493" fill="none" stroke="black"/>
<path d="M327.69,231.901h 3.25821" fill="none" stroke="black"/>
<path d="M329.319,241.482v 3.06493" fill="none" stroke="black"/>
<path d="M327.69,244.547h 3.25821" fill="none" stroke="black"/>
<path d="M370.55,205.19v -2.8284" fill="none" stroke="black"/>
<path d="M368.921,202.362h 3.25821" fill="none" stroke="black"/>
<path d="M370.55,211.707v 2.8284" fill="none" stroke="black"/>
<path d="M368.921,214.535h 3.25821" fill="none" stroke="black"/>
<path d="M453.013,238.415v -6.19746" fill="none" stroke="black"/>
<path d="M451.383,232.217h 3.25821" fill="none" stroke="black"/>
<path d="M453.013,244.931v 6.19746" fill="none" stroke="black"/>
<path d="M451.383,251.129h 3.25821" fill="none" stroke="black"/>
<text xml:space="preserve" x="134.901" y="18.7347" fill="black" font-size="18.7938" font-family="Helvetica">Block MPV vs SiPM VOp (Adjusted)</text></svg>
