<?xml version="1.0" standalone="no"?>
<svg width="567.429" height="384.969" viewBox="0 0 567.429 384.969" xmlns="http://www.w3.org/2000/svg" shape-rendering="crispEdges">
<title>
./sector_diagrams/adj_sigmas.svg
</title>
<desc>
Creator: ROOT Version 6.22/02
CreationDate: Mon Jul 19 14:30:41 2021</desc>
<defs>
</defs>
<rect x="0.5" y="0" width="566.929" height="384.469" fill="white"/>
<rect x="57.1929" y="38.4469" width="453.543" height="307.575" fill="white"/>
<rect x="57.1929" y="38.4469" width="453.543" height="307.575" fill="none" stroke="black"/>
<path d="M57.1929,346.022h 453.543" fill="none" stroke="black"/>
<path d="M57.1929,38.4469v 307.575" fill="none" stroke="black" stroke-dasharray=" 1, 2"/>
<path d="M107.587,38.4469v 307.575" fill="none" stroke="black" stroke-dasharray=" 1, 2"/>
<path d="M157.98,38.4469v 307.575" fill="none" stroke="black" stroke-dasharray=" 1, 2"/>
<path d="M208.374,38.4469v 307.575" fill="none" stroke="black" stroke-dasharray=" 1, 2"/>
<path d="M258.768,38.4469v 307.575" fill="none" stroke="black" stroke-dasharray=" 1, 2"/>
<path d="M309.161,38.4469v 307.575" fill="none" stroke="black" stroke-dasharray=" 1, 2"/>
<path d="M359.555,38.4469v 307.575" fill="none" stroke="black" stroke-dasharray=" 1, 2"/>
<path d="M409.949,38.4469v 307.575" fill="none" stroke="black" stroke-dasharray=" 1, 2"/>
<path d="M460.343,38.4469v 307.575" fill="none" stroke="black" stroke-dasharray=" 1, 2"/>
<path d="M510.736,38.4469v 307.575" fill="none" stroke="black" stroke-dasharray=" 1, 2"/>
<path d="M57.1929,346.022v -307.575" fill="none" stroke="black"/>
<path d="M510.736,346.022h -453.543" fill="none" stroke="black" stroke-dasharray=" 1, 2"/>
<path d="M510.736,315.265h -453.543" fill="none" stroke="black" stroke-dasharray=" 1, 2"/>
<path d="M510.736,284.507h -453.543" fill="none" stroke="black" stroke-dasharray=" 1, 2"/>
<path d="M510.736,253.75h -453.543" fill="none" stroke="black" stroke-dasharray=" 1, 2"/>
<path d="M510.736,222.992h -453.543" fill="none" stroke="black" stroke-dasharray=" 1, 2"/>
<path d="M510.736,192.235h -453.543" fill="none" stroke="black" stroke-dasharray=" 1, 2"/>
<path d="M510.736,161.477h -453.543" fill="none" stroke="black" stroke-dasharray=" 1, 2"/>
<path d="M510.736,130.72h -453.543" fill="none" stroke="black" stroke-dasharray=" 1, 2"/>
<path d="M510.736,99.962h -453.543" fill="none" stroke="black" stroke-dasharray=" 1, 2"/>
<path d="M510.736,69.2045h -453.543" fill="none" stroke="black" stroke-dasharray=" 1, 2"/>
<path d="M510.736,38.4469h -453.543" fill="none" stroke="black" stroke-dasharray=" 1, 2"/>
<path d="M57.1929,346.022h 453.543" fill="none" stroke="black"/>
<path d="M57.1929,336.795v 9.22726" fill="none" stroke="black"/>
<path d="M69.7913,341.409v 4.61363" fill="none" stroke="black"/>
<path d="M82.3898,341.409v 4.61363" fill="none" stroke="black"/>
<path d="M94.9882,341.409v 4.61363" fill="none" stroke="black"/>
<path d="M107.587,336.795v 9.22726" fill="none" stroke="black"/>
<path d="M120.185,341.409v 4.61363" fill="none" stroke="black"/>
<path d="M132.783,341.409v 4.61363" fill="none" stroke="black"/>
<path d="M145.382,341.409v 4.61363" fill="none" stroke="black"/>
<path d="M157.98,336.795v 9.22726" fill="none" stroke="black"/>
<path d="M170.579,341.409v 4.61363" fill="none" stroke="black"/>
<path d="M183.177,341.409v 4.61363" fill="none" stroke="black"/>
<path d="M195.776,341.409v 4.61363" fill="none" stroke="black"/>
<path d="M208.374,336.795v 9.22726" fill="none" stroke="black"/>
<path d="M220.972,341.409v 4.61363" fill="none" stroke="black"/>
<path d="M233.571,341.409v 4.61363" fill="none" stroke="black"/>
<path d="M246.169,341.409v 4.61363" fill="none" stroke="black"/>
<path d="M258.768,336.795v 9.22726" fill="none" stroke="black"/>
<path d="M271.366,341.409v 4.61363" fill="none" stroke="black"/>
<path d="M283.965,341.409v 4.61363" fill="none" stroke="black"/>
<path d="M296.563,341.409v 4.61363" fill="none" stroke="black"/>
<path d="M309.161,336.795v 9.22726" fill="none" stroke="black"/>
<path d="M321.76,341.409v 4.61363" fill="none" stroke="black"/>
<path d="M334.358,341.409v 4.61363" fill="none" stroke="black"/>
<path d="M346.957,341.409v 4.61363" fill="none" stroke="black"/>
<path d="M359.555,336.795v 9.22726" fill="none" stroke="black"/>
<path d="M372.154,341.409v 4.61363" fill="none" stroke="black"/>
<path d="M384.752,341.409v 4.61363" fill="none" stroke="black"/>
<path d="M397.35,341.409v 4.61363" fill="none" stroke="black"/>
<path d="M409.949,336.795v 9.22726" fill="none" stroke="black"/>
<path d="M422.547,341.409v 4.61363" fill="none" stroke="black"/>
<path d="M435.146,341.409v 4.61363" fill="none" stroke="black"/>
<path d="M447.744,341.409v 4.61363" fill="none" stroke="black"/>
<path d="M460.343,336.795v 9.22726" fill="none" stroke="black"/>
<path d="M472.941,341.409v 4.61363" fill="none" stroke="black"/>
<path d="M485.539,341.409v 4.61363" fill="none" stroke="black"/>
<path d="M498.138,341.409v 4.61363" fill="none" stroke="black"/>
<path d="M510.736,336.795v 9.22726" fill="none" stroke="black"/>
<text xml:space="preserve" x="53.446" y="358.403" fill="black" font-size="12.8453" font-family="Helvetica">0</text>
<text xml:space="preserve" x="103.948" y="358.403" fill="black" font-size="12.8453" font-family="Helvetica">2</text>
<text xml:space="preserve" x="154.451" y="358.403" fill="black" font-size="12.8453" font-family="Helvetica">4</text>
<text xml:space="preserve" x="204.953" y="358.403" fill="black" font-size="12.8453" font-family="Helvetica">6</text>
<text xml:space="preserve" x="255.455" y="358.403" fill="black" font-size="12.8453" font-family="Helvetica">8</text>
<text xml:space="preserve" x="301.885" y="358.403" fill="black" font-size="12.8453" font-family="Helvetica">10</text>
<text xml:space="preserve" x="351.573" y="358.403" fill="black" font-size="12.8453" font-family="Helvetica">12</text>
<text xml:space="preserve" x="402.075" y="358.403" fill="black" font-size="12.8453" font-family="Helvetica">14</text>
<text xml:space="preserve" x="452.577" y="358.403" fill="black" font-size="12.8453" font-family="Helvetica">16</text>
<text xml:space="preserve" x="503.079" y="358.403" fill="black" font-size="12.8453" font-family="Helvetica">18</text>
<text xml:space="preserve" x="474.57" y="372.251" fill="black" font-size="12.8453" font-family="Helvetica">Sector</text>
<path d="M57.1929,346.022v -307.575" fill="none" stroke="black"/>
<path d="M70.7992,346.022h -13.6063" fill="none" stroke="black"/>
<path d="M63.9961,339.871h -6.80315" fill="none" stroke="black"/>
<path d="M63.9961,333.719h -6.80315" fill="none" stroke="black"/>
<path d="M63.9961,327.568h -6.80315" fill="none" stroke="black"/>
<path d="M63.9961,321.416h -6.80315" fill="none" stroke="black"/>
<path d="M70.7992,315.265h -13.6063" fill="none" stroke="black"/>
<path d="M63.9961,309.113h -6.80315" fill="none" stroke="black"/>
<path d="M63.9961,302.962h -6.80315" fill="none" stroke="black"/>
<path d="M63.9961,296.81h -6.80315" fill="none" stroke="black"/>
<path d="M63.9961,290.659h -6.80315" fill="none" stroke="black"/>
<path d="M70.7992,284.507h -13.6063" fill="none" stroke="black"/>
<path d="M63.9961,278.356h -6.80315" fill="none" stroke="black"/>
<path d="M63.9961,272.204h -6.80315" fill="none" stroke="black"/>
<path d="M63.9961,266.053h -6.80315" fill="none" stroke="black"/>
<path d="M63.9961,259.901h -6.80315" fill="none" stroke="black"/>
<path d="M70.7992,253.75h -13.6063" fill="none" stroke="black"/>
<path d="M63.9961,247.598h -6.80315" fill="none" stroke="black"/>
<path d="M63.9961,241.447h -6.80315" fill="none" stroke="black"/>
<path d="M63.9961,235.295h -6.80315" fill="none" stroke="black"/>
<path d="M63.9961,229.144h -6.80315" fill="none" stroke="black"/>
<path d="M70.7992,222.992h -13.6063" fill="none" stroke="black"/>
<path d="M63.9961,216.841h -6.80315" fill="none" stroke="black"/>
<path d="M63.9961,210.689h -6.80315" fill="none" stroke="black"/>
<path d="M63.9961,204.538h -6.80315" fill="none" stroke="black"/>
<path d="M63.9961,198.386h -6.80315" fill="none" stroke="black"/>
<path d="M70.7992,192.235h -13.6063" fill="none" stroke="black"/>
<path d="M63.9961,186.083h -6.80315" fill="none" stroke="black"/>
<path d="M63.9961,179.932h -6.80315" fill="none" stroke="black"/>
<path d="M63.9961,173.78h -6.80315" fill="none" stroke="black"/>
<path d="M63.9961,167.629h -6.80315" fill="none" stroke="black"/>
<path d="M70.7992,161.477h -13.6063" fill="none" stroke="black"/>
<path d="M63.9961,155.326h -6.80315" fill="none" stroke="black"/>
<path d="M63.9961,149.174h -6.80315" fill="none" stroke="black"/>
<path d="M63.9961,143.023h -6.80315" fill="none" stroke="black"/>
<path d="M63.9961,136.871h -6.80315" fill="none" stroke="black"/>
<path d="M70.7992,130.72h -13.6063" fill="none" stroke="black"/>
<path d="M63.9961,124.568h -6.80315" fill="none" stroke="black"/>
<path d="M63.9961,118.417h -6.80315" fill="none" stroke="black"/>
<path d="M63.9961,112.265h -6.80315" fill="none" stroke="black"/>
<path d="M63.9961,106.113h -6.80315" fill="none" stroke="black"/>
<path d="M70.7992,99.962h -13.6063" fill="none" stroke="black"/>
<path d="M63.9961,93.8105h -6.80315" fill="none" stroke="black"/>
<path d="M63.9961,87.659h -6.80315" fill="none" stroke="black"/>
<path d="M63.9961,81.5075h -6.80315" fill="none" stroke="black"/>
<path d="M63.9961,75.356h -6.80315" fill="none" stroke="black"/>
<path d="M70.7992,69.2045h -13.6063" fill="none" stroke="black"/>
<path d="M63.9961,63.0529h -6.80315" fill="none" stroke="black"/>
<path d="M63.9961,56.9014h -6.80315" fill="none" stroke="black"/>
<path d="M63.9961,50.7499h -6.80315" fill="none" stroke="black"/>
<path d="M63.9961,44.5984h -6.80315" fill="none" stroke="black"/>
<path d="M70.7992,38.4469h -13.6063" fill="none" stroke="black"/>
<text xml:space="preserve" x="47.7441" y="350.258" fill="black" font-size="12.8453" font-family="Helvetica">0</text>
<text xml:space="preserve" x="41.2277" y="320.119" fill="black" font-size="12.8453" font-family="Helvetica">10</text>
<text xml:space="preserve" x="41.2277" y="289.166" fill="black" font-size="12.8453" font-family="Helvetica">20</text>
<text xml:space="preserve" x="41.2277" y="258.213" fill="black" font-size="12.8453" font-family="Helvetica">30</text>
<text xml:space="preserve" x="41.2277" y="227.26" fill="black" font-size="12.8453" font-family="Helvetica">40</text>
<text xml:space="preserve" x="41.2277" y="197.122" fill="black" font-size="12.8453" font-family="Helvetica">50</text>
<text xml:space="preserve" x="41.2277" y="166.169" fill="black" font-size="12.8453" font-family="Helvetica">60</text>
<text xml:space="preserve" x="41.2277" y="135.216" fill="black" font-size="12.8453" font-family="Helvetica">70</text>
<text xml:space="preserve" x="41.2277" y="104.263" fill="black" font-size="12.8453" font-family="Helvetica">80</text>
<text xml:space="preserve" x="41.2277" y="73.3098" fill="black" font-size="12.8453" font-family="Helvetica">90</text>
<text xml:space="preserve" x="33.8967" y="43.1713" fill="black" font-size="12.8453" font-family="Helvetica">100</text>
<g transform="rotate(-90,20.0493,110.779)">
<text xml:space="preserve" x="20.0493" y="110.779" fill="black" font-size="12.8453" font-family="Helvetica">Sigma (MPV)</text>
</g>
<text xml:space="preserve" x="155.265" y="18.7347" fill="black" font-size="18.7938" font-family="Helvetica">Sector MPV Sigmas (Adjusted)</text>
<g fill="black">
<rect x="79.1316" y="218.483" width="6.51643" height="6.51643"/>
<rect x="104.328" y="210.156" width="6.51643" height="6.51643"/>
<rect x="129.525" y="235.027" width="6.51643" height="6.51643"/>
<rect x="154.722" y="228.726" width="6.51643" height="6.51643"/>
<rect x="179.919" y="201.928" width="6.51643" height="6.51643"/>
<rect x="205.116" y="196.308" width="6.51643" height="6.51643"/>
<rect x="230.313" y="236.332" width="6.51643" height="6.51643"/>
<rect x="255.51" y="222.946" width="6.51643" height="6.51643"/>
<rect x="280.706" y="161.155" width="6.51643" height="6.51643"/>
<rect x="305.903" y="144.823" width="6.51643" height="6.51643"/>
<rect x="331.1" y="206.352" width="6.51643" height="6.51643"/>
<rect x="356.297" y="213.652" width="6.51643" height="6.51643"/>
<rect x="381.494" y="282.548" width="6.51643" height="6.51643"/>
<rect x="406.691" y="277.219" width="6.51643" height="6.51643"/>
<rect x="457.084" y="253.416" width="6.51643" height="6.51643"/>
<rect x="482.281" y="269.47" width="6.51643" height="6.51643"/>
</g>
<path d="M82.3898,218.483v -8.48904" fill="none" stroke="black"/>
<path d="M80.7607,209.994h 3.25821" fill="none" stroke="black"/>
<path d="M82.3898,224.999v 8.48904" fill="none" stroke="black"/>
<path d="M80.7607,233.488h 3.25821" fill="none" stroke="black"/>
<path d="M107.587,210.156v -9.67166" fill="none" stroke="black"/>
<path d="M105.958,200.484h 3.25821" fill="none" stroke="black"/>
<path d="M107.587,216.672v 9.67166" fill="none" stroke="black"/>
<path d="M105.958,226.344h 3.25821" fill="none" stroke="black"/>
<path d="M132.783,235.027v -8.22723" fill="none" stroke="black"/>
<path d="M131.154,226.8h 3.25821" fill="none" stroke="black"/>
<path d="M132.783,241.544v 8.22723" fill="none" stroke="black"/>
<path d="M131.154,249.771h 3.25821" fill="none" stroke="black"/>
<path d="M157.98,228.726v -9.93199" fill="none" stroke="black"/>
<path d="M156.351,218.794h 3.25821" fill="none" stroke="black"/>
<path d="M157.98,235.242v 9.93199" fill="none" stroke="black"/>
<path d="M156.351,245.174h 3.25821" fill="none" stroke="black"/>
<path d="M183.177,201.928v -12.8961" fill="none" stroke="black"/>
<path d="M181.548,189.032h 3.25821" fill="none" stroke="black"/>
<path d="M183.177,208.445v 12.8961" fill="none" stroke="black"/>
<path d="M181.548,221.341h 3.25821" fill="none" stroke="black"/>
<path d="M208.374,196.308v -11.5686" fill="none" stroke="black"/>
<path d="M206.745,184.739h 3.25821" fill="none" stroke="black"/>
<path d="M208.374,202.824v 11.5686" fill="none" stroke="black"/>
<path d="M206.745,214.393h 3.25821" fill="none" stroke="black"/>
<path d="M233.571,236.332v -7.62452" fill="none" stroke="black"/>
<path d="M231.942,228.707h 3.25821" fill="none" stroke="black"/>
<path d="M233.571,242.848v 7.62452" fill="none" stroke="black"/>
<path d="M231.942,250.472h 3.25821" fill="none" stroke="black"/>
<path d="M258.768,222.946v -7.93642" fill="none" stroke="black"/>
<path d="M257.139,215.01h 3.25821" fill="none" stroke="black"/>
<path d="M258.768,229.462v 7.93642" fill="none" stroke="black"/>
<path d="M257.139,237.399h 3.25821" fill="none" stroke="black"/>
<path d="M283.965,161.155v -19.2308" fill="none" stroke="black"/>
<path d="M282.335,141.925h 3.25821" fill="none" stroke="black"/>
<path d="M283.965,167.672v 19.2308" fill="none" stroke="black"/>
<path d="M282.335,186.903h 3.25821" fill="none" stroke="black"/>
<path d="M309.161,144.823v -26.8064" fill="none" stroke="black"/>
<path d="M307.532,118.017h 3.25821" fill="none" stroke="black"/>
<path d="M309.161,151.34v 26.8064" fill="none" stroke="black"/>
<path d="M307.532,178.146h 3.25821" fill="none" stroke="black"/>
<path d="M334.358,206.352v -9.39259" fill="none" stroke="black"/>
<path d="M332.729,196.959h 3.25821" fill="none" stroke="black"/>
<path d="M334.358,212.868v 9.39259" fill="none" stroke="black"/>
<path d="M332.729,222.261h 3.25821" fill="none" stroke="black"/>
<path d="M359.555,213.652v -8.1658" fill="none" stroke="black"/>
<path d="M357.926,205.486h 3.25821" fill="none" stroke="black"/>
<path d="M359.555,220.168v 8.1658" fill="none" stroke="black"/>
<path d="M357.926,228.334h 3.25821" fill="none" stroke="black"/>
<path d="M384.752,282.548v -2.29326" fill="none" stroke="black"/>
<path d="M383.123,280.255h 3.25821" fill="none" stroke="black"/>
<path d="M384.752,289.065v 2.29326" fill="none" stroke="black"/>
<path d="M383.123,291.358h 3.25821" fill="none" stroke="black"/>
<path d="M409.949,277.219v -2.62898" fill="none" stroke="black"/>
<path d="M408.32,274.59h 3.25821" fill="none" stroke="black"/>
<path d="M409.949,283.736v 2.62898" fill="none" stroke="black"/>
<path d="M408.32,286.365h 3.25821" fill="none" stroke="black"/>
<path d="M460.343,253.416v -9.96648" fill="none" stroke="black"/>
<path d="M458.713,243.45h 3.25821" fill="none" stroke="black"/>
<path d="M460.343,259.933v 9.96648" fill="none" stroke="black"/>
<path d="M458.713,269.899h 3.25821" fill="none" stroke="black"/>
<path d="M485.539,269.47v -4.89534" fill="none" stroke="black"/>
<path d="M483.91,264.575h 3.25821" fill="none" stroke="black"/>
<path d="M485.539,275.987v 4.89534" fill="none" stroke="black"/>
<path d="M483.91,280.882h 3.25821" fill="none" stroke="black"/>
<text xml:space="preserve" x="155.265" y="18.7347" fill="black" font-size="18.7938" font-family="Helvetica">Sector MPV Sigmas (Adjusted)</text></svg>
