<?xml version="1.0" standalone="no"?>
<svg width="567.429" height="384.969" viewBox="0 0 567.429 384.969" xmlns="http://www.w3.org/2000/svg" shape-rendering="crispEdges">
<title>
./sector_diagrams/adj_sigmas.svg
</title>
<desc>
Creator: ROOT Version 6.24/00
CreationDate: Sat Jul 24 11:09:18 2021</desc>
<defs>
</defs>
<rect x="0.5" y="0" width="566.929" height="384.469" fill="white"/>
<rect x="57.1929" y="38.4469" width="453.543" height="307.575" fill="white"/>
<rect x="57.1929" y="38.4469" width="453.543" height="307.575" fill="none" stroke="black"/>
<path d="M57.1929,346.022h 453.543" fill="none" stroke="black"/>
<path d="M57.1929,38.4469v 307.575" fill="none" stroke="black" stroke-dasharray=" 1, 2"/>
<path d="M107.587,38.4469v 307.575" fill="none" stroke="black" stroke-dasharray=" 1, 2"/>
<path d="M157.98,38.4469v 307.575" fill="none" stroke="black" stroke-dasharray=" 1, 2"/>
<path d="M208.374,38.4469v 307.575" fill="none" stroke="black" stroke-dasharray=" 1, 2"/>
<path d="M258.768,38.4469v 307.575" fill="none" stroke="black" stroke-dasharray=" 1, 2"/>
<path d="M309.161,38.4469v 307.575" fill="none" stroke="black" stroke-dasharray=" 1, 2"/>
<path d="M359.555,38.4469v 307.575" fill="none" stroke="black" stroke-dasharray=" 1, 2"/>
<path d="M409.949,38.4469v 307.575" fill="none" stroke="black" stroke-dasharray=" 1, 2"/>
<path d="M460.343,38.4469v 307.575" fill="none" stroke="black" stroke-dasharray=" 1, 2"/>
<path d="M510.736,38.4469v 307.575" fill="none" stroke="black" stroke-dasharray=" 1, 2"/>
<path d="M57.1929,346.022v -307.575" fill="none" stroke="black"/>
<path d="M510.736,346.022h -453.543" fill="none" stroke="black" stroke-dasharray=" 1, 2"/>
<path d="M510.736,307.575h -453.543" fill="none" stroke="black" stroke-dasharray=" 1, 2"/>
<path d="M510.736,269.128h -453.543" fill="none" stroke="black" stroke-dasharray=" 1, 2"/>
<path d="M510.736,230.682h -453.543" fill="none" stroke="black" stroke-dasharray=" 1, 2"/>
<path d="M510.736,192.235h -453.543" fill="none" stroke="black" stroke-dasharray=" 1, 2"/>
<path d="M510.736,153.788h -453.543" fill="none" stroke="black" stroke-dasharray=" 1, 2"/>
<path d="M510.736,115.341h -453.543" fill="none" stroke="black" stroke-dasharray=" 1, 2"/>
<path d="M510.736,76.8938h -453.543" fill="none" stroke="black" stroke-dasharray=" 1, 2"/>
<path d="M510.736,38.4469h -453.543" fill="none" stroke="black" stroke-dasharray=" 1, 2"/>
<path d="M57.1929,346.022h 453.543" fill="none" stroke="black"/>
<path d="M57.1929,336.795v 9.22726" fill="none" stroke="black"/>
<path d="M69.7913,341.409v 4.61363" fill="none" stroke="black"/>
<path d="M82.3898,341.409v 4.61363" fill="none" stroke="black"/>
<path d="M94.9882,341.409v 4.61363" fill="none" stroke="black"/>
<path d="M107.587,336.795v 9.22726" fill="none" stroke="black"/>
<path d="M120.185,341.409v 4.61363" fill="none" stroke="black"/>
<path d="M132.783,341.409v 4.61363" fill="none" stroke="black"/>
<path d="M145.382,341.409v 4.61363" fill="none" stroke="black"/>
<path d="M157.98,336.795v 9.22726" fill="none" stroke="black"/>
<path d="M170.579,341.409v 4.61363" fill="none" stroke="black"/>
<path d="M183.177,341.409v 4.61363" fill="none" stroke="black"/>
<path d="M195.776,341.409v 4.61363" fill="none" stroke="black"/>
<path d="M208.374,336.795v 9.22726" fill="none" stroke="black"/>
<path d="M220.972,341.409v 4.61363" fill="none" stroke="black"/>
<path d="M233.571,341.409v 4.61363" fill="none" stroke="black"/>
<path d="M246.169,341.409v 4.61363" fill="none" stroke="black"/>
<path d="M258.768,336.795v 9.22726" fill="none" stroke="black"/>
<path d="M271.366,341.409v 4.61363" fill="none" stroke="black"/>
<path d="M283.965,341.409v 4.61363" fill="none" stroke="black"/>
<path d="M296.563,341.409v 4.61363" fill="none" stroke="black"/>
<path d="M309.161,336.795v 9.22726" fill="none" stroke="black"/>
<path d="M321.76,341.409v 4.61363" fill="none" stroke="black"/>
<path d="M334.358,341.409v 4.61363" fill="none" stroke="black"/>
<path d="M346.957,341.409v 4.61363" fill="none" stroke="black"/>
<path d="M359.555,336.795v 9.22726" fill="none" stroke="black"/>
<path d="M372.154,341.409v 4.61363" fill="none" stroke="black"/>
<path d="M384.752,341.409v 4.61363" fill="none" stroke="black"/>
<path d="M397.35,341.409v 4.61363" fill="none" stroke="black"/>
<path d="M409.949,336.795v 9.22726" fill="none" stroke="black"/>
<path d="M422.547,341.409v 4.61363" fill="none" stroke="black"/>
<path d="M435.146,341.409v 4.61363" fill="none" stroke="black"/>
<path d="M447.744,341.409v 4.61363" fill="none" stroke="black"/>
<path d="M460.343,336.795v 9.22726" fill="none" stroke="black"/>
<path d="M472.941,341.409v 4.61363" fill="none" stroke="black"/>
<path d="M485.539,341.409v 4.61363" fill="none" stroke="black"/>
<path d="M498.138,341.409v 4.61363" fill="none" stroke="black"/>
<path d="M510.736,336.795v 9.22726" fill="none" stroke="black"/>
<text xml:space="preserve" x="53.446" y="358.403" fill="black" font-size="12.8453" font-family="Helvetica">0</text>
<text xml:space="preserve" x="103.948" y="358.403" fill="black" font-size="12.8453" font-family="Helvetica">2</text>
<text xml:space="preserve" x="154.451" y="358.403" fill="black" font-size="12.8453" font-family="Helvetica">4</text>
<text xml:space="preserve" x="204.953" y="358.403" fill="black" font-size="12.8453" font-family="Helvetica">6</text>
<text xml:space="preserve" x="255.455" y="358.403" fill="black" font-size="12.8453" font-family="Helvetica">8</text>
<text xml:space="preserve" x="301.885" y="358.403" fill="black" font-size="12.8453" font-family="Helvetica">10</text>
<text xml:space="preserve" x="351.573" y="358.403" fill="black" font-size="12.8453" font-family="Helvetica">12</text>
<text xml:space="preserve" x="402.075" y="358.403" fill="black" font-size="12.8453" font-family="Helvetica">14</text>
<text xml:space="preserve" x="452.577" y="358.403" fill="black" font-size="12.8453" font-family="Helvetica">16</text>
<text xml:space="preserve" x="503.079" y="358.403" fill="black" font-size="12.8453" font-family="Helvetica">18</text>
<text xml:space="preserve" x="474.57" y="372.251" fill="black" font-size="12.8453" font-family="Helvetica">Sector</text>
<path d="M57.1929,346.022v -307.575" fill="none" stroke="black"/>
<path d="M70.7992,346.022h -13.6063" fill="none" stroke="black"/>
<path d="M63.9961,338.333h -6.80315" fill="none" stroke="black"/>
<path d="M63.9961,330.643h -6.80315" fill="none" stroke="black"/>
<path d="M63.9961,322.954h -6.80315" fill="none" stroke="black"/>
<path d="M63.9961,315.265h -6.80315" fill="none" stroke="black"/>
<path d="M70.7992,307.575h -13.6063" fill="none" stroke="black"/>
<path d="M63.9961,299.886h -6.80315" fill="none" stroke="black"/>
<path d="M63.9961,292.197h -6.80315" fill="none" stroke="black"/>
<path d="M63.9961,284.507h -6.80315" fill="none" stroke="black"/>
<path d="M63.9961,276.818h -6.80315" fill="none" stroke="black"/>
<path d="M70.7992,269.128h -13.6063" fill="none" stroke="black"/>
<path d="M63.9961,261.439h -6.80315" fill="none" stroke="black"/>
<path d="M63.9961,253.75h -6.80315" fill="none" stroke="black"/>
<path d="M63.9961,246.06h -6.80315" fill="none" stroke="black"/>
<path d="M63.9961,238.371h -6.80315" fill="none" stroke="black"/>
<path d="M70.7992,230.682h -13.6063" fill="none" stroke="black"/>
<path d="M63.9961,222.992h -6.80315" fill="none" stroke="black"/>
<path d="M63.9961,215.303h -6.80315" fill="none" stroke="black"/>
<path d="M63.9961,207.613h -6.80315" fill="none" stroke="black"/>
<path d="M63.9961,199.924h -6.80315" fill="none" stroke="black"/>
<path d="M70.7992,192.235h -13.6063" fill="none" stroke="black"/>
<path d="M63.9961,184.545h -6.80315" fill="none" stroke="black"/>
<path d="M63.9961,176.856h -6.80315" fill="none" stroke="black"/>
<path d="M63.9961,169.166h -6.80315" fill="none" stroke="black"/>
<path d="M63.9961,161.477h -6.80315" fill="none" stroke="black"/>
<path d="M70.7992,153.788h -13.6063" fill="none" stroke="black"/>
<path d="M63.9961,146.098h -6.80315" fill="none" stroke="black"/>
<path d="M63.9961,138.409h -6.80315" fill="none" stroke="black"/>
<path d="M63.9961,130.72h -6.80315" fill="none" stroke="black"/>
<path d="M63.9961,123.03h -6.80315" fill="none" stroke="black"/>
<path d="M70.7992,115.341h -13.6063" fill="none" stroke="black"/>
<path d="M63.9961,107.651h -6.80315" fill="none" stroke="black"/>
<path d="M63.9961,99.962h -6.80315" fill="none" stroke="black"/>
<path d="M63.9961,92.2726h -6.80315" fill="none" stroke="black"/>
<path d="M63.9961,84.5832h -6.80315" fill="none" stroke="black"/>
<path d="M70.7992,76.8938h -13.6063" fill="none" stroke="black"/>
<path d="M63.9961,69.2045h -6.80315" fill="none" stroke="black"/>
<path d="M63.9961,61.5151h -6.80315" fill="none" stroke="black"/>
<path d="M63.9961,53.8257h -6.80315" fill="none" stroke="black"/>
<path d="M63.9961,46.1363h -6.80315" fill="none" stroke="black"/>
<path d="M70.7992,38.4469h -13.6063" fill="none" stroke="black"/>
<text xml:space="preserve" x="41.2277" y="350.258" fill="black" font-size="12.8453" font-family="Helvetica">10</text>
<text xml:space="preserve" x="41.2277" y="311.974" fill="black" font-size="12.8453" font-family="Helvetica">20</text>
<text xml:space="preserve" x="41.2277" y="273.69" fill="black" font-size="12.8453" font-family="Helvetica">30</text>
<text xml:space="preserve" x="41.2277" y="235.406" fill="black" font-size="12.8453" font-family="Helvetica">40</text>
<text xml:space="preserve" x="41.2277" y="197.122" fill="black" font-size="12.8453" font-family="Helvetica">50</text>
<text xml:space="preserve" x="41.2277" y="158.023" fill="black" font-size="12.8453" font-family="Helvetica">60</text>
<text xml:space="preserve" x="41.2277" y="119.739" fill="black" font-size="12.8453" font-family="Helvetica">70</text>
<text xml:space="preserve" x="41.2277" y="81.4553" fill="black" font-size="12.8453" font-family="Helvetica">80</text>
<text xml:space="preserve" x="41.2277" y="43.1713" fill="black" font-size="12.8453" font-family="Helvetica">90</text>
<g transform="rotate(-90,27.3803,110.779)">
<text xml:space="preserve" x="27.3803" y="110.779" fill="black" font-size="12.8453" font-family="Helvetica">Sigma (MPV)</text>
</g>
<text xml:space="preserve" x="155.265" y="18.7347" fill="black" font-size="18.7938" font-family="Helvetica">Sector MPV Sigmas (Adjusted)</text>
<g fill="black">
<polygon points=" 82.3898, 219.736 84.5619, 222.995 82.3898, 226.253 80.2176, 222.995"/>
<polygon points=" 107.587, 205.087 109.759, 208.345 107.587, 211.603 105.414, 208.345"/>
<polygon points=" 132.783, 248.132 134.956, 251.391 132.783, 254.649 130.611, 251.391"/>
<polygon points=" 157.98, 242.172 160.152, 245.43 157.98, 248.689 155.808, 245.43"/>
<polygon points=" 183.177, 204.868 185.349, 208.127 183.177, 211.385 181.005, 208.127"/>
<polygon points=" 208.374, 199.56 210.546, 202.819 208.374, 206.077 206.202, 202.819"/>
<polygon points=" 233.571, 248.239 235.743, 251.497 233.571, 254.755 231.399, 251.497"/>
<polygon points=" 258.768, 224.321 260.94, 227.579 258.768, 230.837 256.596, 227.579"/>
<polygon points=" 283.965, 158.433 286.137, 161.691 283.965, 164.949 281.792, 161.691"/>
<polygon points=" 309.161, 115.085 311.334, 118.344 309.161, 121.602 306.989, 118.344"/>
<polygon points=" 334.358, 212.694 336.53, 215.952 334.358, 219.211 332.186, 215.952"/>
<polygon points=" 359.555, 195.131 361.727, 198.389 359.555, 201.647 357.383, 198.389"/>
<polygon points=" 384.752, 305.941 386.924, 309.2 384.752, 312.458 382.58, 309.2"/>
<polygon points=" 409.949, 299.28 412.121, 302.538 409.949, 305.797 407.777, 302.538"/>
<polygon points=" 460.343, 273.114 462.515, 276.372 460.343, 279.631 458.17, 276.372"/>
<polygon points=" 485.539, 289.594 487.712, 292.852 485.539, 296.11 483.367, 292.852"/>
</g>
<path d="M82.3898,219.736v -13.2744" fill="none" stroke="black"/>
<path d="M80.7607,206.462h 3.25821" fill="none" stroke="black"/>
<path d="M82.3898,226.253v 13.2744" fill="none" stroke="black"/>
<path d="M80.7607,239.527h 3.25821" fill="none" stroke="black"/>
<path d="M107.587,205.087v -14.773" fill="none" stroke="black"/>
<path d="M105.958,190.314h 3.25821" fill="none" stroke="black"/>
<path d="M107.587,211.603v 14.773" fill="none" stroke="black"/>
<path d="M105.958,226.376h 3.25821" fill="none" stroke="black"/>
<path d="M132.783,248.132v -10.9164" fill="none" stroke="black"/>
<path d="M131.154,237.216h 3.25821" fill="none" stroke="black"/>
<path d="M132.783,254.649v 10.9164" fill="none" stroke="black"/>
<path d="M131.154,265.565h 3.25821" fill="none" stroke="black"/>
<path d="M157.98,242.172v -14.2515" fill="none" stroke="black"/>
<path d="M156.351,227.921h 3.25821" fill="none" stroke="black"/>
<path d="M157.98,248.689v 14.2515" fill="none" stroke="black"/>
<path d="M156.351,262.94h 3.25821" fill="none" stroke="black"/>
<path d="M183.177,204.868v -16.8288" fill="none" stroke="black"/>
<path d="M181.548,188.04h 3.25821" fill="none" stroke="black"/>
<path d="M183.177,211.385v 16.8288" fill="none" stroke="black"/>
<path d="M181.548,228.214h 3.25821" fill="none" stroke="black"/>
<path d="M208.374,199.56v -14.4218" fill="none" stroke="black"/>
<path d="M206.745,185.139h 3.25821" fill="none" stroke="black"/>
<path d="M208.374,206.077v 14.4218" fill="none" stroke="black"/>
<path d="M206.745,220.499h 3.25821" fill="none" stroke="black"/>
<path d="M233.571,248.239v -11.1452" fill="none" stroke="black"/>
<path d="M231.942,237.094h 3.25821" fill="none" stroke="black"/>
<path d="M233.571,254.755v 11.1452" fill="none" stroke="black"/>
<path d="M231.942,265.901h 3.25821" fill="none" stroke="black"/>
<path d="M258.768,224.321v -13.4162" fill="none" stroke="black"/>
<path d="M257.139,210.905h 3.25821" fill="none" stroke="black"/>
<path d="M258.768,230.837v 13.4162" fill="none" stroke="black"/>
<path d="M257.139,244.253h 3.25821" fill="none" stroke="black"/>
<path d="M283.965,158.433v -24.1469" fill="none" stroke="black"/>
<path d="M282.335,134.286h 3.25821" fill="none" stroke="black"/>
<path d="M283.965,164.949v 24.1469" fill="none" stroke="black"/>
<path d="M282.335,189.096h 3.25821" fill="none" stroke="black"/>
<path d="M309.161,115.085v -37.434" fill="none" stroke="black"/>
<path d="M307.532,77.6513h 3.25821" fill="none" stroke="black"/>
<path d="M309.161,121.602v 37.434" fill="none" stroke="black"/>
<path d="M307.532,159.036h 3.25821" fill="none" stroke="black"/>
<path d="M334.358,212.694v -12.4643" fill="none" stroke="black"/>
<path d="M332.729,200.23h 3.25821" fill="none" stroke="black"/>
<path d="M334.358,219.211v 12.4643" fill="none" stroke="black"/>
<path d="M332.729,231.675h 3.25821" fill="none" stroke="black"/>
<path d="M359.555,195.131v -15.6166" fill="none" stroke="black"/>
<path d="M357.926,179.514h 3.25821" fill="none" stroke="black"/>
<path d="M359.555,201.647v 15.6166" fill="none" stroke="black"/>
<path d="M357.926,217.264h 3.25821" fill="none" stroke="black"/>
<path d="M384.752,305.941v -3.68113" fill="none" stroke="black"/>
<path d="M383.123,302.26h 3.25821" fill="none" stroke="black"/>
<path d="M384.752,312.458v 3.68113" fill="none" stroke="black"/>
<path d="M383.123,316.139h 3.25821" fill="none" stroke="black"/>
<path d="M409.949,299.28v -4.10078" fill="none" stroke="black"/>
<path d="M408.32,295.179h 3.25821" fill="none" stroke="black"/>
<path d="M409.949,305.797v 4.10078" fill="none" stroke="black"/>
<path d="M408.32,309.897h 3.25821" fill="none" stroke="black"/>
<path d="M460.343,273.114v -14.737" fill="none" stroke="black"/>
<path d="M458.713,258.377h 3.25821" fill="none" stroke="black"/>
<path d="M460.343,279.631v 14.737" fill="none" stroke="black"/>
<path d="M458.713,294.368h 3.25821" fill="none" stroke="black"/>
<path d="M485.539,289.594v -6.93373" fill="none" stroke="black"/>
<path d="M483.91,282.66h 3.25821" fill="none" stroke="black"/>
<path d="M485.539,296.11v 6.93373" fill="none" stroke="black"/>
<path d="M483.91,303.044h 3.25821" fill="none" stroke="black"/>
<text xml:space="preserve" x="155.265" y="18.7347" fill="black" font-size="18.7938" font-family="Helvetica">Sector MPV Sigmas (Adjusted)</text></svg>
