<?xml version="1.0" standalone="no"?>
<svg width="567.429" height="384.969" viewBox="0 0 567.429 384.969" xmlns="http://www.w3.org/2000/svg" shape-rendering="crispEdges">
<title>
./sector_diagrams/combined_sigmas.svg
</title>
<desc>
Creator: ROOT Version 6.24/00
CreationDate: Fri Jul 30 23:28:10 2021</desc>
<defs>
</defs>
<rect x="0.5" y="0" width="566.929" height="384.469" fill="white"/>
<rect x="57.1929" y="38.4469" width="453.543" height="307.575" fill="white"/>
<rect x="57.1929" y="38.4469" width="453.543" height="307.575" fill="none" stroke="black"/>
<path d="M57.1929,346.022h 453.543" fill="none" stroke="black"/>
<path d="M107.115,38.4469v 307.575" fill="none" stroke="black" stroke-dasharray=" 1, 2"/>
<path d="M157.643,38.4469v 307.575" fill="none" stroke="black" stroke-dasharray=" 1, 2"/>
<path d="M208.172,38.4469v 307.575" fill="none" stroke="black" stroke-dasharray=" 1, 2"/>
<path d="M258.7,38.4469v 307.575" fill="none" stroke="black" stroke-dasharray=" 1, 2"/>
<path d="M309.229,38.4469v 307.575" fill="none" stroke="black" stroke-dasharray=" 1, 2"/>
<path d="M359.757,38.4469v 307.575" fill="none" stroke="black" stroke-dasharray=" 1, 2"/>
<path d="M410.286,38.4469v 307.575" fill="none" stroke="black" stroke-dasharray=" 1, 2"/>
<path d="M460.814,38.4469v 307.575" fill="none" stroke="black" stroke-dasharray=" 1, 2"/>
<path d="M107.115,38.4469v 307.575" fill="none" stroke="black" stroke-dasharray=" 1, 2"/>
<path d="M460.814,38.4469v 307.575" fill="none" stroke="black" stroke-dasharray=" 1, 2"/>
<path d="M57.1929,346.022v -307.575" fill="none" stroke="black"/>
<path d="M510.736,346.022h -453.543" fill="none" stroke="black" stroke-dasharray=" 1, 2"/>
<path d="M510.736,307.575h -453.543" fill="none" stroke="black" stroke-dasharray=" 1, 2"/>
<path d="M510.736,269.128h -453.543" fill="none" stroke="black" stroke-dasharray=" 1, 2"/>
<path d="M510.736,230.682h -453.543" fill="none" stroke="black" stroke-dasharray=" 1, 2"/>
<path d="M510.736,192.235h -453.543" fill="none" stroke="black" stroke-dasharray=" 1, 2"/>
<path d="M510.736,153.788h -453.543" fill="none" stroke="black" stroke-dasharray=" 1, 2"/>
<path d="M510.736,115.341h -453.543" fill="none" stroke="black" stroke-dasharray=" 1, 2"/>
<path d="M510.736,76.8938h -453.543" fill="none" stroke="black" stroke-dasharray=" 1, 2"/>
<path d="M510.736,38.4469h -453.543" fill="none" stroke="black" stroke-dasharray=" 1, 2"/>
<path d="M57.1929,346.022h 453.543" fill="none" stroke="black"/>
<path d="M107.115,336.795v 9.22726" fill="none" stroke="black"/>
<path d="M119.747,341.409v 4.61363" fill="none" stroke="black"/>
<path d="M132.379,341.409v 4.61363" fill="none" stroke="black"/>
<path d="M145.011,341.409v 4.61363" fill="none" stroke="black"/>
<path d="M157.643,336.795v 9.22726" fill="none" stroke="black"/>
<path d="M170.276,341.409v 4.61363" fill="none" stroke="black"/>
<path d="M182.908,341.409v 4.61363" fill="none" stroke="black"/>
<path d="M195.54,341.409v 4.61363" fill="none" stroke="black"/>
<path d="M208.172,336.795v 9.22726" fill="none" stroke="black"/>
<path d="M220.804,341.409v 4.61363" fill="none" stroke="black"/>
<path d="M233.436,341.409v 4.61363" fill="none" stroke="black"/>
<path d="M246.068,341.409v 4.61363" fill="none" stroke="black"/>
<path d="M258.7,336.795v 9.22726" fill="none" stroke="black"/>
<path d="M271.332,341.409v 4.61363" fill="none" stroke="black"/>
<path d="M283.965,341.409v 4.61363" fill="none" stroke="black"/>
<path d="M296.597,341.409v 4.61363" fill="none" stroke="black"/>
<path d="M309.229,336.795v 9.22726" fill="none" stroke="black"/>
<path d="M321.861,341.409v 4.61363" fill="none" stroke="black"/>
<path d="M334.493,341.409v 4.61363" fill="none" stroke="black"/>
<path d="M347.125,341.409v 4.61363" fill="none" stroke="black"/>
<path d="M359.757,336.795v 9.22726" fill="none" stroke="black"/>
<path d="M372.389,341.409v 4.61363" fill="none" stroke="black"/>
<path d="M385.021,341.409v 4.61363" fill="none" stroke="black"/>
<path d="M397.654,341.409v 4.61363" fill="none" stroke="black"/>
<path d="M410.286,336.795v 9.22726" fill="none" stroke="black"/>
<path d="M422.918,341.409v 4.61363" fill="none" stroke="black"/>
<path d="M435.55,341.409v 4.61363" fill="none" stroke="black"/>
<path d="M448.182,341.409v 4.61363" fill="none" stroke="black"/>
<path d="M460.814,336.795v 9.22726" fill="none" stroke="black"/>
<path d="M107.115,336.795v 9.22726" fill="none" stroke="black"/>
<path d="M94.4829,341.409v 4.61363" fill="none" stroke="black"/>
<path d="M81.8508,341.409v 4.61363" fill="none" stroke="black"/>
<path d="M69.2187,341.409v 4.61363" fill="none" stroke="black"/>
<path d="M460.814,336.795v 9.22726" fill="none" stroke="black"/>
<path d="M473.446,341.409v 4.61363" fill="none" stroke="black"/>
<path d="M486.078,341.409v 4.61363" fill="none" stroke="black"/>
<path d="M498.71,341.409v 4.61363" fill="none" stroke="black"/>
<text xml:space="preserve" x="103.134" y="358.403" fill="black" font-size="12.8453" font-family="Helvetica">2</text>
<text xml:space="preserve" x="153.636" y="358.403" fill="black" font-size="12.8453" font-family="Helvetica">4</text>
<text xml:space="preserve" x="204.138" y="358.403" fill="black" font-size="12.8453" font-family="Helvetica">6</text>
<text xml:space="preserve" x="254.641" y="358.403" fill="black" font-size="12.8453" font-family="Helvetica">8</text>
<text xml:space="preserve" x="302.699" y="358.403" fill="black" font-size="12.8453" font-family="Helvetica">10</text>
<text xml:space="preserve" x="352.387" y="358.403" fill="black" font-size="12.8453" font-family="Helvetica">12</text>
<text xml:space="preserve" x="402.889" y="358.403" fill="black" font-size="12.8453" font-family="Helvetica">14</text>
<text xml:space="preserve" x="453.392" y="358.403" fill="black" font-size="12.8453" font-family="Helvetica">16</text>
<path d="M57.1929,346.022v -307.575" fill="none" stroke="black"/>
<path d="M70.7992,346.022h -13.6063" fill="none" stroke="black"/>
<path d="M63.9961,338.333h -6.80315" fill="none" stroke="black"/>
<path d="M63.9961,330.643h -6.80315" fill="none" stroke="black"/>
<path d="M63.9961,322.954h -6.80315" fill="none" stroke="black"/>
<path d="M63.9961,315.265h -6.80315" fill="none" stroke="black"/>
<path d="M70.7992,307.575h -13.6063" fill="none" stroke="black"/>
<path d="M63.9961,299.886h -6.80315" fill="none" stroke="black"/>
<path d="M63.9961,292.197h -6.80315" fill="none" stroke="black"/>
<path d="M63.9961,284.507h -6.80315" fill="none" stroke="black"/>
<path d="M63.9961,276.818h -6.80315" fill="none" stroke="black"/>
<path d="M70.7992,269.128h -13.6063" fill="none" stroke="black"/>
<path d="M63.9961,261.439h -6.80315" fill="none" stroke="black"/>
<path d="M63.9961,253.75h -6.80315" fill="none" stroke="black"/>
<path d="M63.9961,246.06h -6.80315" fill="none" stroke="black"/>
<path d="M63.9961,238.371h -6.80315" fill="none" stroke="black"/>
<path d="M70.7992,230.682h -13.6063" fill="none" stroke="black"/>
<path d="M63.9961,222.992h -6.80315" fill="none" stroke="black"/>
<path d="M63.9961,215.303h -6.80315" fill="none" stroke="black"/>
<path d="M63.9961,207.613h -6.80315" fill="none" stroke="black"/>
<path d="M63.9961,199.924h -6.80315" fill="none" stroke="black"/>
<path d="M70.7992,192.235h -13.6063" fill="none" stroke="black"/>
<path d="M63.9961,184.545h -6.80315" fill="none" stroke="black"/>
<path d="M63.9961,176.856h -6.80315" fill="none" stroke="black"/>
<path d="M63.9961,169.166h -6.80315" fill="none" stroke="black"/>
<path d="M63.9961,161.477h -6.80315" fill="none" stroke="black"/>
<path d="M70.7992,153.788h -13.6063" fill="none" stroke="black"/>
<path d="M63.9961,146.098h -6.80315" fill="none" stroke="black"/>
<path d="M63.9961,138.409h -6.80315" fill="none" stroke="black"/>
<path d="M63.9961,130.72h -6.80315" fill="none" stroke="black"/>
<path d="M63.9961,123.03h -6.80315" fill="none" stroke="black"/>
<path d="M70.7992,115.341h -13.6063" fill="none" stroke="black"/>
<path d="M63.9961,107.651h -6.80315" fill="none" stroke="black"/>
<path d="M63.9961,99.962h -6.80315" fill="none" stroke="black"/>
<path d="M63.9961,92.2726h -6.80315" fill="none" stroke="black"/>
<path d="M63.9961,84.5832h -6.80315" fill="none" stroke="black"/>
<path d="M70.7992,76.8938h -13.6063" fill="none" stroke="black"/>
<path d="M63.9961,69.2045h -6.80315" fill="none" stroke="black"/>
<path d="M63.9961,61.5151h -6.80315" fill="none" stroke="black"/>
<path d="M63.9961,53.8257h -6.80315" fill="none" stroke="black"/>
<path d="M63.9961,46.1363h -6.80315" fill="none" stroke="black"/>
<path d="M70.7992,38.4469h -13.6063" fill="none" stroke="black"/>
<text xml:space="preserve" x="41.2277" y="350.258" fill="black" font-size="12.8453" font-family="Helvetica">10</text>
<text xml:space="preserve" x="41.2277" y="311.974" fill="black" font-size="12.8453" font-family="Helvetica">20</text>
<text xml:space="preserve" x="41.2277" y="273.69" fill="black" font-size="12.8453" font-family="Helvetica">30</text>
<text xml:space="preserve" x="41.2277" y="235.406" fill="black" font-size="12.8453" font-family="Helvetica">40</text>
<text xml:space="preserve" x="41.2277" y="197.122" fill="black" font-size="12.8453" font-family="Helvetica">50</text>
<text xml:space="preserve" x="41.2277" y="158.023" fill="black" font-size="12.8453" font-family="Helvetica">60</text>
<text xml:space="preserve" x="41.2277" y="119.739" fill="black" font-size="12.8453" font-family="Helvetica">70</text>
<text xml:space="preserve" x="41.2277" y="81.4553" fill="black" font-size="12.8453" font-family="Helvetica">80</text>
<text xml:space="preserve" x="41.2277" y="43.1713" fill="black" font-size="12.8453" font-family="Helvetica">90</text>
<text xml:space="preserve" x="148.749" y="18.7347" fill="black" font-size="18.7938" font-family="Helvetica">Sector MPV Sigmas (Combined)</text>
<path d="M81.8508,223.795v -11.198" fill="none" stroke="black"/>
<path d="M80.2217,212.597h 3.25821" fill="none" stroke="black"/>
<path d="M81.8508,230.312v 11.198" fill="none" stroke="black"/>
<path d="M80.2217,241.51h 3.25821" fill="none" stroke="black"/>
<path d="M107.115,224.121v -12.2425" fill="none" stroke="black"/>
<path d="M105.486,211.879h 3.25821" fill="none" stroke="black"/>
<path d="M107.115,230.638v 12.2425" fill="none" stroke="black"/>
<path d="M105.486,242.88h 3.25821" fill="none" stroke="black"/>
<path d="M132.379,242.126v -9.89607" fill="none" stroke="black"/>
<path d="M130.75,232.23h 3.25821" fill="none" stroke="black"/>
<path d="M132.379,248.642v 9.89607" fill="none" stroke="black"/>
<path d="M130.75,258.538h 3.25821" fill="none" stroke="black"/>
<path d="M157.643,249.533v -12.5004" fill="none" stroke="black"/>
<path d="M156.014,237.033h 3.25821" fill="none" stroke="black"/>
<path d="M157.643,256.05v 12.5004" fill="none" stroke="black"/>
<path d="M156.014,268.55h 3.25821" fill="none" stroke="black"/>
<path d="M182.908,220v -12.0432" fill="none" stroke="black"/>
<path d="M181.279,207.957h 3.25821" fill="none" stroke="black"/>
<path d="M182.908,226.517v 12.0432" fill="none" stroke="black"/>
<path d="M181.279,238.56h 3.25821" fill="none" stroke="black"/>
<path d="M208.172,212.752v -11.4387" fill="none" stroke="black"/>
<path d="M206.543,201.313h 3.25821" fill="none" stroke="black"/>
<path d="M208.172,219.268v 11.4387" fill="none" stroke="black"/>
<path d="M206.543,230.707h 3.25821" fill="none" stroke="black"/>
<path d="M233.436,247.834v -11.1702" fill="none" stroke="black"/>
<path d="M231.807,236.664h 3.25821" fill="none" stroke="black"/>
<path d="M233.436,254.351v 11.1702" fill="none" stroke="black"/>
<path d="M231.807,265.521h 3.25821" fill="none" stroke="black"/>
<path d="M258.7,223.222v -13.0541" fill="none" stroke="black"/>
<path d="M257.071,210.168h 3.25821" fill="none" stroke="black"/>
<path d="M258.7,229.739v 13.0541" fill="none" stroke="black"/>
<path d="M257.071,242.793h 3.25821" fill="none" stroke="black"/>
<path d="M283.965,172.959v -16.1489" fill="none" stroke="black"/>
<path d="M282.335,156.81h 3.25821" fill="none" stroke="black"/>
<path d="M283.965,179.475v 16.1489" fill="none" stroke="black"/>
<path d="M282.335,195.624h 3.25821" fill="none" stroke="black"/>
<path d="M309.229,130.008v -26.0763" fill="none" stroke="black"/>
<path d="M307.6,103.932h 3.25821" fill="none" stroke="black"/>
<path d="M309.229,136.525v 26.0763" fill="none" stroke="black"/>
<path d="M307.6,162.601h 3.25821" fill="none" stroke="black"/>
<path d="M334.493,206.378v -13.6759" fill="none" stroke="black"/>
<path d="M332.864,192.702h 3.25821" fill="none" stroke="black"/>
<path d="M334.493,212.895v 13.6759" fill="none" stroke="black"/>
<path d="M332.864,226.57h 3.25821" fill="none" stroke="black"/>
<path d="M359.757,163.416v -25.3489" fill="none" stroke="black"/>
<path d="M358.128,138.067h 3.25821" fill="none" stroke="black"/>
<path d="M359.757,169.933v 25.3489" fill="none" stroke="black"/>
<path d="M358.128,195.281h 3.25821" fill="none" stroke="black"/>
<path d="M385.021,284.87v -9.11207" fill="none" stroke="black"/>
<path d="M383.392,275.757h 3.25821" fill="none" stroke="black"/>
<path d="M385.021,291.386v 9.11207" fill="none" stroke="black"/>
<path d="M383.392,300.498h 3.25821" fill="none" stroke="black"/>
<path d="M410.286,271.573v -8.78103" fill="none" stroke="black"/>
<path d="M408.657,262.792h 3.25821" fill="none" stroke="black"/>
<path d="M410.286,278.089v 8.78103" fill="none" stroke="black"/>
<path d="M408.657,286.87h 3.25821" fill="none" stroke="black"/>
<path d="M460.814,266.091v -13.3366" fill="none" stroke="black"/>
<path d="M459.185,252.754h 3.25821" fill="none" stroke="black"/>
<path d="M460.814,272.607v 13.3366" fill="none" stroke="black"/>
<path d="M459.185,285.944h 3.25821" fill="none" stroke="black"/>
<path d="M486.078,273.879v -9.91333" fill="none" stroke="black"/>
<path d="M484.449,263.965h 3.25821" fill="none" stroke="black"/>
<path d="M486.078,280.395v 9.91333" fill="none" stroke="black"/>
<path d="M484.449,290.308h 3.25821" fill="none" stroke="black"/>
<g fill="#ff0000">
<polygon points=" 81.8508, 223.795 84.0229, 227.054 81.8508, 230.312 79.6787, 227.054"/>
<polygon points=" 107.115, 224.121 109.287, 227.38 107.115, 230.638 104.943, 227.38"/>
<polygon points=" 132.379, 242.126 134.551, 245.384 132.379, 248.642 130.207, 245.384"/>
<polygon points=" 157.643, 249.533 159.816, 252.792 157.643, 256.05 155.471, 252.792"/>
<polygon points=" 182.908, 220 185.08, 223.258 182.908, 226.517 180.736, 223.258"/>
<polygon points=" 208.172, 212.752 210.344, 216.01 208.172, 219.268 206, 216.01"/>
<polygon points=" 233.436, 247.834 235.608, 251.093 233.436, 254.351 231.264, 251.093"/>
<polygon points=" 258.7, 223.222 260.872, 226.481 258.7, 229.739 256.528, 226.481"/>
<polygon points=" 283.965, 172.959 286.137, 176.217 283.965, 179.475 281.792, 176.217"/>
<polygon points=" 309.229, 130.008 311.401, 133.267 309.229, 136.525 307.057, 133.267"/>
<polygon points=" 334.493, 206.378 336.665, 209.636 334.493, 212.895 332.321, 209.636"/>
<polygon points=" 359.757, 163.416 361.929, 166.674 359.757, 169.933 357.585, 166.674"/>
<polygon points=" 385.021, 284.87 387.194, 288.128 385.021, 291.386 382.849, 288.128"/>
<polygon points=" 410.286, 271.573 412.458, 274.831 410.286, 278.089 408.114, 274.831"/>
<polygon points=" 460.814, 266.091 462.986, 269.349 460.814, 272.607 458.642, 269.349"/>
<polygon points=" 486.078, 273.879 488.25, 277.137 486.078, 280.395 483.906, 277.137"/>
</g>
<path d="M81.8508,219.736v -13.2744" fill="none" stroke="black"/>
<path d="M80.2217,206.462h 3.25821" fill="none" stroke="black"/>
<path d="M81.8508,226.253v 13.2744" fill="none" stroke="black"/>
<path d="M80.2217,239.527h 3.25821" fill="none" stroke="black"/>
<path d="M107.115,205.087v -14.773" fill="none" stroke="black"/>
<path d="M105.486,190.314h 3.25821" fill="none" stroke="black"/>
<path d="M107.115,211.603v 14.773" fill="none" stroke="black"/>
<path d="M105.486,226.376h 3.25821" fill="none" stroke="black"/>
<path d="M132.379,248.132v -10.9164" fill="none" stroke="black"/>
<path d="M130.75,237.216h 3.25821" fill="none" stroke="black"/>
<path d="M132.379,254.649v 10.9164" fill="none" stroke="black"/>
<path d="M130.75,265.565h 3.25821" fill="none" stroke="black"/>
<path d="M157.643,242.172v -14.2515" fill="none" stroke="black"/>
<path d="M156.014,227.921h 3.25821" fill="none" stroke="black"/>
<path d="M157.643,248.689v 14.2515" fill="none" stroke="black"/>
<path d="M156.014,262.94h 3.25821" fill="none" stroke="black"/>
<path d="M182.908,204.868v -16.8288" fill="none" stroke="black"/>
<path d="M181.279,188.04h 3.25821" fill="none" stroke="black"/>
<path d="M182.908,211.385v 16.8288" fill="none" stroke="black"/>
<path d="M181.279,228.214h 3.25821" fill="none" stroke="black"/>
<path d="M208.172,199.56v -14.4218" fill="none" stroke="black"/>
<path d="M206.543,185.139h 3.25821" fill="none" stroke="black"/>
<path d="M208.172,206.077v 14.4218" fill="none" stroke="black"/>
<path d="M206.543,220.499h 3.25821" fill="none" stroke="black"/>
<path d="M233.436,248.239v -11.1452" fill="none" stroke="black"/>
<path d="M231.807,237.094h 3.25821" fill="none" stroke="black"/>
<path d="M233.436,254.755v 11.1452" fill="none" stroke="black"/>
<path d="M231.807,265.901h 3.25821" fill="none" stroke="black"/>
<path d="M258.7,224.321v -13.4162" fill="none" stroke="black"/>
<path d="M257.071,210.905h 3.25821" fill="none" stroke="black"/>
<path d="M258.7,230.837v 13.4162" fill="none" stroke="black"/>
<path d="M257.071,244.253h 3.25821" fill="none" stroke="black"/>
<path d="M283.965,158.433v -24.1469" fill="none" stroke="black"/>
<path d="M282.335,134.286h 3.25821" fill="none" stroke="black"/>
<path d="M283.965,164.949v 24.1469" fill="none" stroke="black"/>
<path d="M282.335,189.096h 3.25821" fill="none" stroke="black"/>
<path d="M309.229,115.085v -37.434" fill="none" stroke="black"/>
<path d="M307.6,77.6513h 3.25821" fill="none" stroke="black"/>
<path d="M309.229,121.602v 37.434" fill="none" stroke="black"/>
<path d="M307.6,159.036h 3.25821" fill="none" stroke="black"/>
<path d="M334.493,212.694v -12.4643" fill="none" stroke="black"/>
<path d="M332.864,200.23h 3.25821" fill="none" stroke="black"/>
<path d="M334.493,219.211v 12.4643" fill="none" stroke="black"/>
<path d="M332.864,231.675h 3.25821" fill="none" stroke="black"/>
<path d="M359.757,195.131v -15.6166" fill="none" stroke="black"/>
<path d="M358.128,179.514h 3.25821" fill="none" stroke="black"/>
<path d="M359.757,201.647v 15.6166" fill="none" stroke="black"/>
<path d="M358.128,217.264h 3.25821" fill="none" stroke="black"/>
<path d="M385.021,305.941v -3.68113" fill="none" stroke="black"/>
<path d="M383.392,302.26h 3.25821" fill="none" stroke="black"/>
<path d="M385.021,312.458v 3.68113" fill="none" stroke="black"/>
<path d="M383.392,316.139h 3.25821" fill="none" stroke="black"/>
<path d="M410.286,299.28v -4.10078" fill="none" stroke="black"/>
<path d="M408.657,295.179h 3.25821" fill="none" stroke="black"/>
<path d="M410.286,305.797v 4.10078" fill="none" stroke="black"/>
<path d="M408.657,309.897h 3.25821" fill="none" stroke="black"/>
<path d="M460.814,273.114v -14.737" fill="none" stroke="black"/>
<path d="M459.185,258.377h 3.25821" fill="none" stroke="black"/>
<path d="M460.814,279.631v 14.737" fill="none" stroke="black"/>
<path d="M459.185,294.368h 3.25821" fill="none" stroke="black"/>
<path d="M486.078,289.594v -6.93373" fill="none" stroke="black"/>
<path d="M484.449,282.66h 3.25821" fill="none" stroke="black"/>
<path d="M486.078,296.11v 6.93373" fill="none" stroke="black"/>
<path d="M484.449,303.044h 3.25821" fill="none" stroke="black"/>
<g fill="#0000ff">
<polygon points=" 81.8508, 219.736 84.0229, 222.995 81.8508, 226.253 79.6787, 222.995"/>
<polygon points=" 107.115, 205.087 109.287, 208.345 107.115, 211.603 104.943, 208.345"/>
<polygon points=" 132.379, 248.132 134.551, 251.391 132.379, 254.649 130.207, 251.391"/>
<polygon points=" 157.643, 242.172 159.816, 245.43 157.643, 248.689 155.471, 245.43"/>
<polygon points=" 182.908, 204.868 185.08, 208.127 182.908, 211.385 180.736, 208.127"/>
<polygon points=" 208.172, 199.56 210.344, 202.819 208.172, 206.077 206, 202.819"/>
<polygon points=" 233.436, 248.239 235.608, 251.497 233.436, 254.755 231.264, 251.497"/>
<polygon points=" 258.7, 224.321 260.872, 227.579 258.7, 230.837 256.528, 227.579"/>
<polygon points=" 283.965, 158.433 286.137, 161.691 283.965, 164.949 281.792, 161.691"/>
<polygon points=" 309.229, 115.085 311.401, 118.344 309.229, 121.602 307.057, 118.344"/>
<polygon points=" 334.493, 212.694 336.665, 215.952 334.493, 219.211 332.321, 215.952"/>
<polygon points=" 359.757, 195.131 361.929, 198.389 359.757, 201.647 357.585, 198.389"/>
<polygon points=" 385.021, 305.941 387.194, 309.2 385.021, 312.458 382.849, 309.2"/>
<polygon points=" 410.286, 299.28 412.458, 302.538 410.286, 305.797 408.114, 302.538"/>
<polygon points=" 460.814, 273.114 462.986, 276.372 460.814, 279.631 458.642, 276.372"/>
<polygon points=" 486.078, 289.594 488.25, 292.852 486.078, 296.11 483.906, 292.852"/>
</g>
<rect x="85.5394" y="57.6704" width="113.386" height="57.6704" fill="white"/>
<path d="M85.5394,115.341h 113.386" fill="none" stroke="black"/>
<path d="M198.925,115.341v -57.6704" fill="none" stroke="black"/>
<path d="M198.925,57.6704h -113.386" fill="none" stroke="black"/>
<path d="M85.5394,57.6704v 57.6704" fill="none" stroke="black"/>
<text xml:space="preserve" x="113.723" y="78.1971" fill="black" font-size="17.6878" font-family="Helvetica">Before</text>
<g fill="#ff0000">
<polygon points=" 99.7126, 68.8298 101.885, 72.088 99.7126, 75.3462 97.5405, 72.088"/>
</g>
<text xml:space="preserve" x="113.723" y="106.706" fill="black" font-size="17.6878" font-family="Helvetica">After</text>
<g fill="#0000ff">
<polygon points=" 99.7126, 97.6649 101.885, 100.923 99.7126, 104.181 97.5405, 100.923"/>
</g>
<text xml:space="preserve" x="148.749" y="18.7347" fill="black" font-size="18.7938" font-family="Helvetica">Sector MPV Sigmas (Combined)</text></svg>
