<?xml version="1.0" standalone="no"?>
<svg width="567.429" height="384.969" viewBox="0 0 567.429 384.969" xmlns="http://www.w3.org/2000/svg" shape-rendering="crispEdges">
<title>
./adjusted_vop/sector_by_vop/sector-14_vop-69.23.svg
</title>
<desc>
Creator: ROOT Version 6.24/00
CreationDate: Mon Jul 19 21:24:20 2021</desc>
<defs>
</defs>
<rect x="0.5" y="0" width="566.929" height="384.469" fill="white"/>
<rect x="57.1929" y="38.4469" width="453.543" height="307.575" fill="white"/>
<rect x="57.1929" y="38.4469" width="453.543" height="307.575" fill="none" stroke="black"/>
<path d="M57.1929,346.022h 166.299v -35.1515h 15.1181v -82.0201h 15.1181v -105.454h 15.1181v -70.3029h 15.1181v 152.323h 15.1181v 117.172h 15.1181v 23.4343h 15.1181v -11.7172h 15.1181v 11.7172h 166.299" fill="none" stroke="#817066"/>
<path d="M59.4606,346.022h 131.528l 4.53543, -0.0419583l 4.53543, -0.0774056l 4.53543, -0.198521l 4.53543, -0.474633l 4.53543, -1.05713l 4.53543, -2.19157l 4.53543, -4.22444l 4.53543, -7.56082l 4.53543, -12.5418l 4.53543, -19.2335l 4.53543, -27.1731l
 4.53543, -35.1839l 4.53543, -41.4133l 4.53543, -43.7039l 4.53543, -40.2683l 4.53543, -30.4498l 4.53543, -15.2205l 4.53543, 2.88041l 4.53543, 20.4298l 4.53543, 34.1768" fill="none" stroke="#817066" stroke-width="2"/>
<path d="M281.697,122.495l 4.53543, 42.0252l 4.53543, 43.5353l 4.53543, 39.7899l 4.53543, 32.7757l 4.53543, 24.6159l 4.53543, 16.9751l 4.53543, 10.7976l 4.53543, 6.35521l 4.53543, 3.46893l 4.53543, 1.75895l 4.53543, 0.829579l 4.53543, 0.364283l
 4.53543, 0.149053l 4.53543, 0.0867288h 158.74" fill="none" stroke="#817066" stroke-width="2"/>
<path d="M503.933,346.022h 4.53543" fill="none" stroke="#817066" stroke-width="2"/>
<path d="M57.1929,346.022h 453.543" fill="none" stroke="black"/>
<path d="M57.1929,336.795v 9.22726" fill="none" stroke="black"/>
<path d="M72.311,341.409v 4.61363" fill="none" stroke="black"/>
<path d="M87.4291,341.409v 4.61363" fill="none" stroke="black"/>
<path d="M102.547,341.409v 4.61363" fill="none" stroke="black"/>
<path d="M117.665,341.409v 4.61363" fill="none" stroke="black"/>
<path d="M132.783,336.795v 9.22726" fill="none" stroke="black"/>
<path d="M147.902,341.409v 4.61363" fill="none" stroke="black"/>
<path d="M163.02,341.409v 4.61363" fill="none" stroke="black"/>
<path d="M178.138,341.409v 4.61363" fill="none" stroke="black"/>
<path d="M193.256,341.409v 4.61363" fill="none" stroke="black"/>
<path d="M208.374,336.795v 9.22726" fill="none" stroke="black"/>
<path d="M223.492,341.409v 4.61363" fill="none" stroke="black"/>
<path d="M238.61,341.409v 4.61363" fill="none" stroke="black"/>
<path d="M253.728,341.409v 4.61363" fill="none" stroke="black"/>
<path d="M268.846,341.409v 4.61363" fill="none" stroke="black"/>
<path d="M283.965,336.795v 9.22726" fill="none" stroke="black"/>
<path d="M299.083,341.409v 4.61363" fill="none" stroke="black"/>
<path d="M314.201,341.409v 4.61363" fill="none" stroke="black"/>
<path d="M329.319,341.409v 4.61363" fill="none" stroke="black"/>
<path d="M344.437,341.409v 4.61363" fill="none" stroke="black"/>
<path d="M359.555,336.795v 9.22726" fill="none" stroke="black"/>
<path d="M374.673,341.409v 4.61363" fill="none" stroke="black"/>
<path d="M389.791,341.409v 4.61363" fill="none" stroke="black"/>
<path d="M404.909,341.409v 4.61363" fill="none" stroke="black"/>
<path d="M420.028,341.409v 4.61363" fill="none" stroke="black"/>
<path d="M435.146,336.795v 9.22726" fill="none" stroke="black"/>
<path d="M450.264,341.409v 4.61363" fill="none" stroke="black"/>
<path d="M465.382,341.409v 4.61363" fill="none" stroke="black"/>
<path d="M480.5,341.409v 4.61363" fill="none" stroke="black"/>
<path d="M495.618,341.409v 4.61363" fill="none" stroke="black"/>
<path d="M510.736,336.795v 9.22726" fill="none" stroke="black"/>
<text xml:space="preserve" x="53.446" y="358.403" fill="black" font-size="12.8453" font-family="Helvetica">0</text>
<text xml:space="preserve" x="121.868" y="358.403" fill="black" font-size="12.8453" font-family="Helvetica">100</text>
<text xml:space="preserve" x="197.622" y="358.403" fill="black" font-size="12.8453" font-family="Helvetica">200</text>
<text xml:space="preserve" x="273.375" y="358.403" fill="black" font-size="12.8453" font-family="Helvetica">300</text>
<text xml:space="preserve" x="348.314" y="358.403" fill="black" font-size="12.8453" font-family="Helvetica">400</text>
<text xml:space="preserve" x="424.068" y="358.403" fill="black" font-size="12.8453" font-family="Helvetica">500</text>
<text xml:space="preserve" x="499.821" y="358.403" fill="black" font-size="12.8453" font-family="Helvetica">600</text>
<text xml:space="preserve" x="486.788" y="369.807" fill="black" font-size="12.8453" font-family="Helvetica">mpv</text>
<path d="M57.1929,346.022v -307.575" fill="none" stroke="black"/>
<path d="M70.7992,346.022h -13.6063" fill="none" stroke="black"/>
<path d="M63.9961,336.258h -6.80315" fill="none" stroke="black"/>
<path d="M63.9961,326.494h -6.80315" fill="none" stroke="black"/>
<path d="M63.9961,316.729h -6.80315" fill="none" stroke="black"/>
<path d="M70.7992,306.965h -13.6063" fill="none" stroke="black"/>
<path d="M63.9961,297.201h -6.80315" fill="none" stroke="black"/>
<path d="M63.9961,287.436h -6.80315" fill="none" stroke="black"/>
<path d="M63.9961,277.672h -6.80315" fill="none" stroke="black"/>
<path d="M70.7992,267.908h -13.6063" fill="none" stroke="black"/>
<path d="M63.9961,258.144h -6.80315" fill="none" stroke="black"/>
<path d="M63.9961,248.379h -6.80315" fill="none" stroke="black"/>
<path d="M63.9961,238.615h -6.80315" fill="none" stroke="black"/>
<path d="M70.7992,228.851h -13.6063" fill="none" stroke="black"/>
<path d="M63.9961,219.086h -6.80315" fill="none" stroke="black"/>
<path d="M63.9961,209.322h -6.80315" fill="none" stroke="black"/>
<path d="M63.9961,199.558h -6.80315" fill="none" stroke="black"/>
<path d="M70.7992,189.794h -13.6063" fill="none" stroke="black"/>
<path d="M63.9961,180.029h -6.80315" fill="none" stroke="black"/>
<path d="M63.9961,170.265h -6.80315" fill="none" stroke="black"/>
<path d="M63.9961,160.501h -6.80315" fill="none" stroke="black"/>
<path d="M70.7992,150.736h -13.6063" fill="none" stroke="black"/>
<path d="M63.9961,140.972h -6.80315" fill="none" stroke="black"/>
<path d="M63.9961,131.208h -6.80315" fill="none" stroke="black"/>
<path d="M63.9961,121.443h -6.80315" fill="none" stroke="black"/>
<path d="M70.7992,111.679h -13.6063" fill="none" stroke="black"/>
<path d="M63.9961,101.915h -6.80315" fill="none" stroke="black"/>
<path d="M63.9961,92.1506h -6.80315" fill="none" stroke="black"/>
<path d="M63.9961,82.3863h -6.80315" fill="none" stroke="black"/>
<path d="M70.7992,72.622h -13.6063" fill="none" stroke="black"/>
<path d="M70.7992,72.622h -13.6063" fill="none" stroke="black"/>
<path d="M63.9961,62.8577h -6.80315" fill="none" stroke="black"/>
<path d="M63.9961,53.0934h -6.80315" fill="none" stroke="black"/>
<path d="M63.9961,43.3291h -6.80315" fill="none" stroke="black"/>
<text xml:space="preserve" x="47.7441" y="350.258" fill="black" font-size="12.8453" font-family="Helvetica">0</text>
<text xml:space="preserve" x="41.2277" y="311.159" fill="black" font-size="12.8453" font-family="Helvetica">20</text>
<text xml:space="preserve" x="41.2277" y="272.061" fill="black" font-size="12.8453" font-family="Helvetica">40</text>
<text xml:space="preserve" x="41.2277" y="232.962" fill="black" font-size="12.8453" font-family="Helvetica">60</text>
<text xml:space="preserve" x="41.2277" y="194.678" fill="black" font-size="12.8453" font-family="Helvetica">80</text>
<text xml:space="preserve" x="33.8967" y="155.58" fill="black" font-size="12.8453" font-family="Helvetica">100</text>
<text xml:space="preserve" x="33.8967" y="116.481" fill="black" font-size="12.8453" font-family="Helvetica">120</text>
<text xml:space="preserve" x="33.8967" y="77.3826" fill="black" font-size="12.8453" font-family="Helvetica">140</text>
<g transform="rotate(-90,20.0493,86.3427)">
<text xml:space="preserve" x="20.0493" y="86.3427" fill="black" font-size="12.8453" font-family="Helvetica">n_blocks</text>
</g>
<text xml:space="preserve" x="199.251" y="17.9202" fill="black" font-size="18.7938" font-family="Helvetica">sector 14, vop 69.23</text>
<rect x="351.996" y="24.9905" width="204.094" height="76.8938" fill="white"/>
<path d="M351.996,101.884h 204.094" fill="none" stroke="black"/>
<path d="M556.091,101.884v -76.8938" fill="none" stroke="black"/>
<path d="M556.091,24.9905h -204.094" fill="none" stroke="black"/>
<path d="M351.996,24.9905v 76.8938" fill="none" stroke="black"/>
<text xml:space="preserve" x="377.638" y="39.0986" fill="black" font-size="16.7253" font-family="Helvetica"> / ndf </text>
<text xml:space="preserve" x="371.122" y="34.2112" fill="black" font-size="11.3169" font-family="Helvetica">2</text>
<text xml:space="preserve" x="362.162" y="39.0986" fill="black" font-size="16.7253" font-family="Times">&#0967;</text>
<text xml:space="preserve" x="477.828" y="40.7277" fill="black" font-size="16.7253" font-family="Helvetica"> 12.45 / 4</text>
<text xml:space="preserve" x="362.162" y="60.2769" fill="black" font-size="16.7253" font-family="Helvetica">Constant </text>
<text xml:space="preserve" x="521" y="60.2769" fill="black" font-size="16.7253" font-family="Helvetica"> 9.1</text>
<text xml:space="preserve" x="512.039" y="60.2769" fill="black" font-size="16.7253" font-family="Times">&#0177;</text>
<text xml:space="preserve" x="461.537" y="60.2769" fill="black" font-size="16.7253" font-family="Helvetica"> 144.5 </text>
<text xml:space="preserve" x="362.162" y="79.0117" fill="black" font-size="16.7253" font-family="Helvetica">Mean     </text>
<text xml:space="preserve" x="518.556" y="79.0117" fill="black" font-size="16.7253" font-family="Helvetica"> 1.2</text>
<text xml:space="preserve" x="509.596" y="79.0117" fill="black" font-size="16.7253" font-family="Times">&#0177;</text>
<text xml:space="preserve" x="461.537" y="79.0117" fill="black" font-size="16.7253" font-family="Helvetica"> 281.1 </text>
<text xml:space="preserve" x="362.162" y="96.9318" fill="black" font-size="16.7253" font-family="Helvetica">Sigma    </text>
<text xml:space="preserve" x="509.596" y="98.561" fill="black" font-size="16.7253" font-family="Helvetica"> 0.99</text>
<text xml:space="preserve" x="500.636" y="98.561" fill="black" font-size="16.7253" font-family="Times">&#0177;</text>
<text xml:space="preserve" x="450.133" y="98.561" fill="black" font-size="16.7253" font-family="Helvetica"> 23.36 </text>
<g stroke="black" stroke-width="1" fill="none">
<line x1="63.752" y1="346.022" x2="64.752" y2="346.022"/>
</g>
<g stroke="black" stroke-width="1" fill="none">
<line x1="78.8701" y1="346.022" x2="79.8701" y2="346.022"/>
</g>
<g stroke="black" stroke-width="1" fill="none">
<line x1="93.9882" y1="346.022" x2="94.9882" y2="346.022"/>
</g>
<g stroke="black" stroke-width="1" fill="none">
<line x1="109.106" y1="346.022" x2="110.106" y2="346.022"/>
</g>
<g stroke="black" stroke-width="1" fill="none">
<line x1="124.224" y1="346.022" x2="125.224" y2="346.022"/>
</g>
<g stroke="black" stroke-width="1" fill="none">
<line x1="139.343" y1="346.022" x2="140.343" y2="346.022"/>
</g>
<g stroke="black" stroke-width="1" fill="none">
<line x1="154.461" y1="346.022" x2="155.461" y2="346.022"/>
</g>
<g stroke="black" stroke-width="1" fill="none">
<line x1="169.579" y1="346.022" x2="170.579" y2="346.022"/>
</g>
<g stroke="black" stroke-width="1" fill="none">
<line x1="184.697" y1="346.022" x2="185.697" y2="346.022"/>
</g>
<g stroke="black" stroke-width="1" fill="none">
<line x1="199.815" y1="346.022" x2="200.815" y2="346.022"/>
</g>
<g stroke="black" stroke-width="1" fill="none">
<line x1="214.933" y1="346.022" x2="215.933" y2="346.022"/>
</g>
<path d="M231.051,319.156v -8.28528" fill="none" stroke="#817066"/>
<path d="M231.051,310.871v -8.28528" fill="none" stroke="#817066"/>
<path d="M223.492,310.871h 7.55905" fill="none" stroke="#817066"/>
<path d="M231.051,310.871h 7.55905" fill="none" stroke="#817066"/>
<g stroke="black" stroke-width="1" fill="none">
<line x1="230.051" y1="310.871" x2="231.051" y2="310.871"/>
</g>
<path d="M246.169,243.977v -15.1268" fill="none" stroke="#817066"/>
<path d="M246.169,228.851v -15.1268" fill="none" stroke="#817066"/>
<path d="M238.61,228.851h 7.55905" fill="none" stroke="#817066"/>
<path d="M246.169,228.851h 7.55905" fill="none" stroke="#817066"/>
<g stroke="black" stroke-width="1" fill="none">
<line x1="245.169" y1="228.851" x2="246.169" y2="228.851"/>
</g>
<path d="M261.287,144.247v -20.8508" fill="none" stroke="#817066"/>
<path d="M261.287,123.396v -20.8508" fill="none" stroke="#817066"/>
<path d="M253.728,123.396h 7.55905" fill="none" stroke="#817066"/>
<path d="M261.287,123.396h 7.55905" fill="none" stroke="#817066"/>
<g stroke="black" stroke-width="1" fill="none">
<line x1="260.287" y1="123.396" x2="261.287" y2="123.396"/>
</g>
<path d="M276.406,77.0109v -23.9175" fill="none" stroke="#817066"/>
<path d="M276.406,53.0934v -14.6464" fill="none" stroke="#817066"/>
<path d="M268.846,53.0934h 7.55905" fill="none" stroke="#817066"/>
<path d="M276.406,53.0934h 7.55905" fill="none" stroke="#817066"/>
<g stroke="black" stroke-width="1" fill="none">
<line x1="275.406" y1="53.0934" x2="276.406" y2="53.0934"/>
</g>
<path d="M291.524,221.987v -16.5706" fill="none" stroke="#817066"/>
<path d="M291.524,205.416v -16.5706" fill="none" stroke="#817066"/>
<path d="M283.965,205.416h 7.55905" fill="none" stroke="#817066"/>
<path d="M291.524,205.416h 7.55905" fill="none" stroke="#817066"/>
<g stroke="black" stroke-width="1" fill="none">
<line x1="290.524" y1="205.416" x2="291.524" y2="205.416"/>
</g>
<path d="M306.642,329.353v -6.7649" fill="none" stroke="#817066"/>
<path d="M306.642,322.588v -6.7649" fill="none" stroke="#817066"/>
<path d="M299.083,322.588h 7.55905" fill="none" stroke="#817066"/>
<path d="M306.642,322.588h 7.55905" fill="none" stroke="#817066"/>
<g stroke="black" stroke-width="1" fill="none">
<line x1="305.642" y1="322.588" x2="306.642" y2="322.588"/>
</g>
<g stroke="black" stroke-width="1" fill="none">
<line x1="320.76" y1="346.022" x2="321.76" y2="346.022"/>
</g>
<path d="M336.878,339.089v -4.78351" fill="none" stroke="#817066"/>
<path d="M336.878,334.305v -4.78351" fill="none" stroke="#817066"/>
<path d="M329.319,334.305h 7.55905" fill="none" stroke="#817066"/>
<path d="M336.878,334.305h 7.55905" fill="none" stroke="#817066"/>
<g stroke="black" stroke-width="1" fill="none">
<line x1="335.878" y1="334.305" x2="336.878" y2="334.305"/>
</g>
<g stroke="black" stroke-width="1" fill="none">
<line x1="350.996" y1="346.022" x2="351.996" y2="346.022"/>
</g>
<g stroke="black" stroke-width="1" fill="none">
<line x1="366.114" y1="346.022" x2="367.114" y2="346.022"/>
</g>
<g stroke="black" stroke-width="1" fill="none">
<line x1="381.232" y1="346.022" x2="382.232" y2="346.022"/>
</g>
<g stroke="black" stroke-width="1" fill="none">
<line x1="396.35" y1="346.022" x2="397.35" y2="346.022"/>
</g>
<g stroke="black" stroke-width="1" fill="none">
<line x1="411.469" y1="346.022" x2="412.469" y2="346.022"/>
</g>
<g stroke="black" stroke-width="1" fill="none">
<line x1="426.587" y1="346.022" x2="427.587" y2="346.022"/>
</g>
<g stroke="black" stroke-width="1" fill="none">
<line x1="441.705" y1="346.022" x2="442.705" y2="346.022"/>
</g>
<g stroke="black" stroke-width="1" fill="none">
<line x1="456.823" y1="346.022" x2="457.823" y2="346.022"/>
</g>
<g stroke="black" stroke-width="1" fill="none">
<line x1="471.941" y1="346.022" x2="472.941" y2="346.022"/>
</g>
<g stroke="black" stroke-width="1" fill="none">
<line x1="487.059" y1="346.022" x2="488.059" y2="346.022"/>
</g>
<g stroke="black" stroke-width="1" fill="none">
<line x1="502.177" y1="346.022" x2="503.177" y2="346.022"/>
</g>
<path d="M59.4606,346.022h 131.528l 4.53543, -0.0419583l 4.53543, -0.0774056l 4.53543, -0.198521l 4.53543, -0.474633l 4.53543, -1.05713l 4.53543, -2.19157l 4.53543, -4.22444l 4.53543, -7.56082l 4.53543, -12.5418l 4.53543, -19.2335l 4.53543, -27.1731l
 4.53543, -35.1839l 4.53543, -41.4133l 4.53543, -43.7039l 4.53543, -40.2683l 4.53543, -30.4498l 4.53543, -15.2205l 4.53543, 2.88041l 4.53543, 20.4298l 4.53543, 34.1768" fill="none" stroke="#817066" stroke-width="2"/>
<path d="M281.697,122.495l 4.53543, 42.0252l 4.53543, 43.5353l 4.53543, 39.7899l 4.53543, 32.7757l 4.53543, 24.6159l 4.53543, 16.9751l 4.53543, 10.7976l 4.53543, 6.35521l 4.53543, 3.46893l 4.53543, 1.75895l 4.53543, 0.829579l 4.53543, 0.364283l
 4.53543, 0.149053l 4.53543, 0.0867288h 158.74" fill="none" stroke="#817066" stroke-width="2"/>
<path d="M503.933,346.022h 4.53543" fill="none" stroke="#817066" stroke-width="2"/>
<rect x="351.996" y="24.9905" width="204.094" height="76.8938" fill="white"/>
<path d="M351.996,101.884h 204.094" fill="none" stroke="black"/>
<path d="M556.091,101.884v -76.8938" fill="none" stroke="black"/>
<path d="M556.091,24.9905h -204.094" fill="none" stroke="black"/>
<path d="M351.996,24.9905v 76.8938" fill="none" stroke="black"/>
<text xml:space="preserve" x="377.638" y="39.0986" fill="black" font-size="16.7253" font-family="Helvetica"> / ndf </text>
<text xml:space="preserve" x="371.122" y="34.2112" fill="black" font-size="11.3169" font-family="Helvetica">2</text>
<text xml:space="preserve" x="362.162" y="39.0986" fill="black" font-size="16.7253" font-family="Times">&#0967;</text>
<text xml:space="preserve" x="477.828" y="40.7277" fill="black" font-size="16.7253" font-family="Helvetica"> 12.45 / 4</text>
<text xml:space="preserve" x="362.162" y="60.2769" fill="black" font-size="16.7253" font-family="Helvetica">Constant </text>
<text xml:space="preserve" x="521" y="60.2769" fill="black" font-size="16.7253" font-family="Helvetica"> 9.1</text>
<text xml:space="preserve" x="512.039" y="60.2769" fill="black" font-size="16.7253" font-family="Times">&#0177;</text>
<text xml:space="preserve" x="461.537" y="60.2769" fill="black" font-size="16.7253" font-family="Helvetica"> 144.5 </text>
<text xml:space="preserve" x="362.162" y="79.0117" fill="black" font-size="16.7253" font-family="Helvetica">Mean     </text>
<text xml:space="preserve" x="518.556" y="79.0117" fill="black" font-size="16.7253" font-family="Helvetica"> 1.2</text>
<text xml:space="preserve" x="509.596" y="79.0117" fill="black" font-size="16.7253" font-family="Times">&#0177;</text>
<text xml:space="preserve" x="461.537" y="79.0117" fill="black" font-size="16.7253" font-family="Helvetica"> 281.1 </text>
<text xml:space="preserve" x="362.162" y="96.9318" fill="black" font-size="16.7253" font-family="Helvetica">Sigma    </text>
<text xml:space="preserve" x="509.596" y="98.561" fill="black" font-size="16.7253" font-family="Helvetica"> 0.99</text>
<text xml:space="preserve" x="500.636" y="98.561" fill="black" font-size="16.7253" font-family="Times">&#0177;</text>
<text xml:space="preserve" x="450.133" y="98.561" fill="black" font-size="16.7253" font-family="Helvetica"> 23.36 </text>
<text xml:space="preserve" x="199.251" y="17.9202" fill="black" font-size="18.7938" font-family="Helvetica">sector 14, vop 69.23</text></svg>
