<?xml version="1.0" standalone="no"?>
<svg width="567.429" height="384.969" viewBox="0 0 567.429 384.969" xmlns="http://www.w3.org/2000/svg" shape-rendering="crispEdges">
<title>
./adjusted_vop/sector_by_vop/sector-3_vop-69.13.svg
</title>
<desc>
Creator: ROOT Version 6.24/00
CreationDate: Mon Jul 19 20:49:53 2021</desc>
<defs>
</defs>
<rect x="0.5" y="0" width="566.929" height="384.469" fill="white"/>
<rect x="57.1929" y="38.4469" width="453.543" height="307.575" fill="white"/>
<rect x="57.1929" y="38.4469" width="453.543" height="307.575" fill="none" stroke="black"/>
<path d="M57.1929,346.022h 136.063v -36.6161h 15.1181v -73.2322h 15.1181v -109.848h 15.1181v 36.6161h 15.1181v -36.6161h 15.1181v -73.2322h 15.1181v 292.929h 30.2362v -36.6161h 15.1181v 36.6161h 181.417" fill="none" stroke="#c10020"/>
<path d="M59.4606,346.022h 63.4961l 4.53543, -0.0515257l 4.53543, -0.0393867l 4.53543, -0.0663733l 4.53543, -0.109537l 4.53543, -0.177013l 4.53543, -0.280082l 4.53543, -0.433855l 4.53543, -0.657845l 4.53543, -0.976235l 4.53543, -1.41762l 4.53543,
 -2.01395l 4.53543, -2.79848l 4.53543, -3.80241l 4.53543, -5.05031l 4.53543, -6.55443l 4.53543, -8.30829l 4.53543, -10.2804l 4.53543, -12.4089l 4.53543, -14.5988l 4.53543, -16.7227l 4.53543, -18.6254l 4.53543, -20.1341l 4.53543, -21.0727l 4.53543,
 -21.28l 4.53543, -20.6293l 4.53543, -19.0466l 4.53543, -16.5253l 4.53543, -13.1346l 4.53543, -9.01908l 4.53543, -4.38943l 4.53543, 0.495072l 4.53543, 5.35068l 4.53543, 9.89643l 4.53543, 13.8811l 4.53543, 17.106" fill="none" stroke="#c10020"
 stroke-width="2"/>
<path d="M281.697,142.147l 4.53543, 19.4415l 4.53543, 20.8337l 4.53543, 21.3038l 4.53543, 20.9377l 4.53543, 19.8707l 4.53543, 18.2684l 4.53543, 16.3077l 4.53543, 14.1588l 4.53543, 11.9719l 4.53543, 9.86837l 4.53543, 7.93629l 4.53543, 6.23106l
 4.53543, 4.77869l 4.53543, 3.58137l 4.53543, 2.62387l 4.53543, 1.87986l 4.53543, 1.31738l 4.53543, 0.903238l 4.53543, 0.606016l 4.53543, 0.397953l 4.53543, 0.255807l 4.53543, 0.160984l 4.53543, 0.0991968l 4.53543, 0.0598551l 4.53543, 0.0353699l
 4.53543, 0.0458516h 104.315" fill="none" stroke="#c10020" stroke-width="2"/>
<path d="M503.933,346.022h 4.53543" fill="none" stroke="#c10020" stroke-width="2"/>
<path d="M57.1929,346.022h 453.543" fill="none" stroke="black"/>
<path d="M57.1929,336.795v 9.22726" fill="none" stroke="black"/>
<path d="M72.311,341.409v 4.61363" fill="none" stroke="black"/>
<path d="M87.4291,341.409v 4.61363" fill="none" stroke="black"/>
<path d="M102.547,341.409v 4.61363" fill="none" stroke="black"/>
<path d="M117.665,341.409v 4.61363" fill="none" stroke="black"/>
<path d="M132.783,336.795v 9.22726" fill="none" stroke="black"/>
<path d="M147.902,341.409v 4.61363" fill="none" stroke="black"/>
<path d="M163.02,341.409v 4.61363" fill="none" stroke="black"/>
<path d="M178.138,341.409v 4.61363" fill="none" stroke="black"/>
<path d="M193.256,341.409v 4.61363" fill="none" stroke="black"/>
<path d="M208.374,336.795v 9.22726" fill="none" stroke="black"/>
<path d="M223.492,341.409v 4.61363" fill="none" stroke="black"/>
<path d="M238.61,341.409v 4.61363" fill="none" stroke="black"/>
<path d="M253.728,341.409v 4.61363" fill="none" stroke="black"/>
<path d="M268.846,341.409v 4.61363" fill="none" stroke="black"/>
<path d="M283.965,336.795v 9.22726" fill="none" stroke="black"/>
<path d="M299.083,341.409v 4.61363" fill="none" stroke="black"/>
<path d="M314.201,341.409v 4.61363" fill="none" stroke="black"/>
<path d="M329.319,341.409v 4.61363" fill="none" stroke="black"/>
<path d="M344.437,341.409v 4.61363" fill="none" stroke="black"/>
<path d="M359.555,336.795v 9.22726" fill="none" stroke="black"/>
<path d="M374.673,341.409v 4.61363" fill="none" stroke="black"/>
<path d="M389.791,341.409v 4.61363" fill="none" stroke="black"/>
<path d="M404.909,341.409v 4.61363" fill="none" stroke="black"/>
<path d="M420.028,341.409v 4.61363" fill="none" stroke="black"/>
<path d="M435.146,336.795v 9.22726" fill="none" stroke="black"/>
<path d="M450.264,341.409v 4.61363" fill="none" stroke="black"/>
<path d="M465.382,341.409v 4.61363" fill="none" stroke="black"/>
<path d="M480.5,341.409v 4.61363" fill="none" stroke="black"/>
<path d="M495.618,341.409v 4.61363" fill="none" stroke="black"/>
<path d="M510.736,336.795v 9.22726" fill="none" stroke="black"/>
<text xml:space="preserve" x="53.446" y="358.403" fill="black" font-size="12.8453" font-family="Helvetica">0</text>
<text xml:space="preserve" x="121.868" y="358.403" fill="black" font-size="12.8453" font-family="Helvetica">100</text>
<text xml:space="preserve" x="197.622" y="358.403" fill="black" font-size="12.8453" font-family="Helvetica">200</text>
<text xml:space="preserve" x="273.375" y="358.403" fill="black" font-size="12.8453" font-family="Helvetica">300</text>
<text xml:space="preserve" x="348.314" y="358.403" fill="black" font-size="12.8453" font-family="Helvetica">400</text>
<text xml:space="preserve" x="424.068" y="358.403" fill="black" font-size="12.8453" font-family="Helvetica">500</text>
<text xml:space="preserve" x="499.821" y="358.403" fill="black" font-size="12.8453" font-family="Helvetica">600</text>
<text xml:space="preserve" x="486.788" y="369.807" fill="black" font-size="12.8453" font-family="Helvetica">mpv</text>
<path d="M57.1929,346.022v -307.575" fill="none" stroke="black"/>
<path d="M70.7992,346.022h -13.6063" fill="none" stroke="black"/>
<path d="M63.9961,338.699h -6.80315" fill="none" stroke="black"/>
<path d="M63.9961,331.376h -6.80315" fill="none" stroke="black"/>
<path d="M63.9961,324.053h -6.80315" fill="none" stroke="black"/>
<path d="M63.9961,316.729h -6.80315" fill="none" stroke="black"/>
<path d="M70.7992,309.406h -13.6063" fill="none" stroke="black"/>
<path d="M63.9961,302.083h -6.80315" fill="none" stroke="black"/>
<path d="M63.9961,294.76h -6.80315" fill="none" stroke="black"/>
<path d="M63.9961,287.436h -6.80315" fill="none" stroke="black"/>
<path d="M63.9961,280.113h -6.80315" fill="none" stroke="black"/>
<path d="M70.7992,272.79h -13.6063" fill="none" stroke="black"/>
<path d="M63.9961,265.467h -6.80315" fill="none" stroke="black"/>
<path d="M63.9961,258.144h -6.80315" fill="none" stroke="black"/>
<path d="M63.9961,250.82h -6.80315" fill="none" stroke="black"/>
<path d="M63.9961,243.497h -6.80315" fill="none" stroke="black"/>
<path d="M70.7992,236.174h -13.6063" fill="none" stroke="black"/>
<path d="M63.9961,228.851h -6.80315" fill="none" stroke="black"/>
<path d="M63.9961,221.527h -6.80315" fill="none" stroke="black"/>
<path d="M63.9961,214.204h -6.80315" fill="none" stroke="black"/>
<path d="M63.9961,206.881h -6.80315" fill="none" stroke="black"/>
<path d="M70.7992,199.558h -13.6063" fill="none" stroke="black"/>
<path d="M63.9961,192.235h -6.80315" fill="none" stroke="black"/>
<path d="M63.9961,184.911h -6.80315" fill="none" stroke="black"/>
<path d="M63.9961,177.588h -6.80315" fill="none" stroke="black"/>
<path d="M63.9961,170.265h -6.80315" fill="none" stroke="black"/>
<path d="M70.7992,162.942h -13.6063" fill="none" stroke="black"/>
<path d="M63.9961,155.618h -6.80315" fill="none" stroke="black"/>
<path d="M63.9961,148.295h -6.80315" fill="none" stroke="black"/>
<path d="M63.9961,140.972h -6.80315" fill="none" stroke="black"/>
<path d="M63.9961,133.649h -6.80315" fill="none" stroke="black"/>
<path d="M70.7992,126.326h -13.6063" fill="none" stroke="black"/>
<path d="M63.9961,119.002h -6.80315" fill="none" stroke="black"/>
<path d="M63.9961,111.679h -6.80315" fill="none" stroke="black"/>
<path d="M63.9961,104.356h -6.80315" fill="none" stroke="black"/>
<path d="M63.9961,97.0327h -6.80315" fill="none" stroke="black"/>
<path d="M70.7992,89.7095h -13.6063" fill="none" stroke="black"/>
<path d="M63.9961,82.3863h -6.80315" fill="none" stroke="black"/>
<path d="M63.9961,75.063h -6.80315" fill="none" stroke="black"/>
<path d="M63.9961,67.7398h -6.80315" fill="none" stroke="black"/>
<path d="M63.9961,60.4166h -6.80315" fill="none" stroke="black"/>
<path d="M70.7992,53.0934h -13.6063" fill="none" stroke="black"/>
<path d="M70.7992,53.0934h -13.6063" fill="none" stroke="black"/>
<path d="M63.9961,45.7701h -6.80315" fill="none" stroke="black"/>
<path d="M63.9961,38.4469h -6.80315" fill="none" stroke="black"/>
<text xml:space="preserve" x="47.7441" y="350.258" fill="black" font-size="12.8453" font-family="Helvetica">0</text>
<text xml:space="preserve" x="49.3732" y="313.603" fill="black" font-size="12.8453" font-family="Helvetica">1</text>
<text xml:space="preserve" x="47.7441" y="276.948" fill="black" font-size="12.8453" font-family="Helvetica">2</text>
<text xml:space="preserve" x="47.7441" y="240.293" fill="black" font-size="12.8453" font-family="Helvetica">3</text>
<text xml:space="preserve" x="47.7441" y="203.638" fill="black" font-size="12.8453" font-family="Helvetica">4</text>
<text xml:space="preserve" x="47.7441" y="167.798" fill="black" font-size="12.8453" font-family="Helvetica">5</text>
<text xml:space="preserve" x="47.7441" y="131.143" fill="black" font-size="12.8453" font-family="Helvetica">6</text>
<text xml:space="preserve" x="47.7441" y="94.4882" fill="black" font-size="12.8453" font-family="Helvetica">7</text>
<text xml:space="preserve" x="47.7441" y="57.8333" fill="black" font-size="12.8453" font-family="Helvetica">8</text>
<g transform="rotate(-90,34.7112,86.3427)">
<text xml:space="preserve" x="34.7112" y="86.3427" fill="black" font-size="12.8453" font-family="Helvetica">n_blocks</text>
</g>
<text xml:space="preserve" x="204.138" y="17.9202" fill="black" font-size="18.7938" font-family="Helvetica">sector 3, vop 69.13</text>
<rect x="351.996" y="24.9905" width="204.094" height="76.8938" fill="white"/>
<path d="M351.996,101.884h 204.094" fill="none" stroke="black"/>
<path d="M556.091,101.884v -76.8938" fill="none" stroke="black"/>
<path d="M556.091,24.9905h -204.094" fill="none" stroke="black"/>
<path d="M351.996,24.9905v 76.8938" fill="none" stroke="black"/>
<text xml:space="preserve" x="376.824" y="39.0986" fill="black" font-size="16.6263" font-family="Helvetica"> / ndf </text>
<text xml:space="preserve" x="371.122" y="34.2112" fill="black" font-size="11.2509" font-family="Helvetica">2</text>
<text xml:space="preserve" x="362.162" y="39.0986" fill="black" font-size="16.6263" font-family="Times">&#0967;</text>
<text xml:space="preserve" x="481.901" y="40.7277" fill="black" font-size="16.6263" font-family="Helvetica">  1.36 / 4</text>
<text xml:space="preserve" x="362.162" y="60.2769" fill="black" font-size="16.6263" font-family="Helvetica">Constant </text>
<text xml:space="preserve" x="500.636" y="60.2769" fill="black" font-size="16.6263" font-family="Helvetica"> 1.542</text>
<text xml:space="preserve" x="491.676" y="60.2769" fill="black" font-size="16.6263" font-family="Times">&#0177;</text>
<text xml:space="preserve" x="441.173" y="60.2769" fill="black" font-size="16.6263" font-family="Helvetica"> 6.855 </text>
<text xml:space="preserve" x="362.162" y="79.0117" fill="black" font-size="16.6263" font-family="Helvetica">Mean     </text>
<text xml:space="preserve" x="509.596" y="79.0117" fill="black" font-size="16.6263" font-family="Helvetica"> 10.2</text>
<text xml:space="preserve" x="500.636" y="79.0117" fill="black" font-size="16.6263" font-family="Times">&#0177;</text>
<text xml:space="preserve" x="450.133" y="79.0117" fill="black" font-size="16.6263" font-family="Helvetica"> 269.4 </text>
<text xml:space="preserve" x="362.162" y="96.9318" fill="black" font-size="16.6263" font-family="Helvetica">Sigma    </text>
<text xml:space="preserve" x="518.556" y="98.561" fill="black" font-size="16.6263" font-family="Helvetica"> 7.2</text>
<text xml:space="preserve" x="509.596" y="98.561" fill="black" font-size="16.6263" font-family="Times">&#0177;</text>
<text xml:space="preserve" x="463.166" y="98.561" fill="black" font-size="16.6263" font-family="Helvetica">  42.8 </text>
<g stroke="black" stroke-width="1" fill="none">
<line x1="63.752" y1="346.022" x2="64.752" y2="346.022"/>
</g>
<g stroke="black" stroke-width="1" fill="none">
<line x1="78.8701" y1="346.022" x2="79.8701" y2="346.022"/>
</g>
<g stroke="black" stroke-width="1" fill="none">
<line x1="93.9882" y1="346.022" x2="94.9882" y2="346.022"/>
</g>
<g stroke="black" stroke-width="1" fill="none">
<line x1="109.106" y1="346.022" x2="110.106" y2="346.022"/>
</g>
<g stroke="black" stroke-width="1" fill="none">
<line x1="124.224" y1="346.022" x2="125.224" y2="346.022"/>
</g>
<g stroke="black" stroke-width="1" fill="none">
<line x1="139.343" y1="346.022" x2="140.343" y2="346.022"/>
</g>
<g stroke="black" stroke-width="1" fill="none">
<line x1="154.461" y1="346.022" x2="155.461" y2="346.022"/>
</g>
<g stroke="black" stroke-width="1" fill="none">
<line x1="169.579" y1="346.022" x2="170.579" y2="346.022"/>
</g>
<g stroke="black" stroke-width="1" fill="none">
<line x1="184.697" y1="346.022" x2="185.697" y2="346.022"/>
</g>
<path d="M200.815,346.022v -36.6161" fill="none" stroke="#c10020"/>
<path d="M200.815,309.406v -36.6161" fill="none" stroke="#c10020"/>
<path d="M193.256,309.406h 7.55905" fill="none" stroke="#c10020"/>
<path d="M200.815,309.406h 7.55905" fill="none" stroke="#c10020"/>
<g stroke="black" stroke-width="1" fill="none">
<line x1="199.815" y1="309.406" x2="200.815" y2="309.406"/>
</g>
<path d="M215.933,299.595v -63.421" fill="none" stroke="#c10020"/>
<path d="M215.933,236.174v -63.421" fill="none" stroke="#c10020"/>
<path d="M208.374,236.174h 7.55905" fill="none" stroke="#c10020"/>
<path d="M215.933,236.174h 7.55905" fill="none" stroke="#c10020"/>
<g stroke="black" stroke-width="1" fill="none">
<line x1="214.933" y1="236.174" x2="215.933" y2="236.174"/>
</g>
<path d="M231.051,216.016v -89.6908" fill="none" stroke="#c10020"/>
<path d="M231.051,126.326v -87.8787" fill="none" stroke="#c10020"/>
<path d="M223.492,126.326h 7.55905" fill="none" stroke="#c10020"/>
<path d="M231.051,126.326h 7.55905" fill="none" stroke="#c10020"/>
<g stroke="black" stroke-width="1" fill="none">
<line x1="230.051" y1="126.326" x2="231.051" y2="126.326"/>
</g>
<path d="M246.169,244.818v -81.8761" fill="none" stroke="#c10020"/>
<path d="M246.169,162.942v -81.8761" fill="none" stroke="#c10020"/>
<path d="M238.61,162.942h 7.55905" fill="none" stroke="#c10020"/>
<path d="M246.169,162.942h 7.55905" fill="none" stroke="#c10020"/>
<g stroke="black" stroke-width="1" fill="none">
<line x1="245.169" y1="162.942" x2="246.169" y2="162.942"/>
</g>
<path d="M261.287,216.016v -89.6908" fill="none" stroke="#c10020"/>
<path d="M261.287,126.326v -87.8787" fill="none" stroke="#c10020"/>
<path d="M253.728,126.326h 7.55905" fill="none" stroke="#c10020"/>
<path d="M261.287,126.326h 7.55905" fill="none" stroke="#c10020"/>
<g stroke="black" stroke-width="1" fill="none">
<line x1="260.287" y1="126.326" x2="261.287" y2="126.326"/>
</g>
<path d="M276.406,156.659v -103.566" fill="none" stroke="#c10020"/>
<path d="M276.406,53.0934v -14.6464" fill="none" stroke="#c10020"/>
<path d="M268.846,53.0934h 7.55905" fill="none" stroke="#c10020"/>
<path d="M276.406,53.0934h 7.55905" fill="none" stroke="#c10020"/>
<g stroke="black" stroke-width="1" fill="none">
<line x1="275.406" y1="53.0934" x2="276.406" y2="53.0934"/>
</g>
<g stroke="black" stroke-width="1" fill="none">
<line x1="290.524" y1="346.022" x2="291.524" y2="346.022"/>
</g>
<g stroke="black" stroke-width="1" fill="none">
<line x1="305.642" y1="346.022" x2="306.642" y2="346.022"/>
</g>
<path d="M321.76,346.022v -36.6161" fill="none" stroke="#c10020"/>
<path d="M321.76,309.406v -36.6161" fill="none" stroke="#c10020"/>
<path d="M314.201,309.406h 7.55905" fill="none" stroke="#c10020"/>
<path d="M321.76,309.406h 7.55905" fill="none" stroke="#c10020"/>
<g stroke="black" stroke-width="1" fill="none">
<line x1="320.76" y1="309.406" x2="321.76" y2="309.406"/>
</g>
<g stroke="black" stroke-width="1" fill="none">
<line x1="335.878" y1="346.022" x2="336.878" y2="346.022"/>
</g>
<g stroke="black" stroke-width="1" fill="none">
<line x1="350.996" y1="346.022" x2="351.996" y2="346.022"/>
</g>
<g stroke="black" stroke-width="1" fill="none">
<line x1="366.114" y1="346.022" x2="367.114" y2="346.022"/>
</g>
<g stroke="black" stroke-width="1" fill="none">
<line x1="381.232" y1="346.022" x2="382.232" y2="346.022"/>
</g>
<g stroke="black" stroke-width="1" fill="none">
<line x1="396.35" y1="346.022" x2="397.35" y2="346.022"/>
</g>
<g stroke="black" stroke-width="1" fill="none">
<line x1="411.469" y1="346.022" x2="412.469" y2="346.022"/>
</g>
<g stroke="black" stroke-width="1" fill="none">
<line x1="426.587" y1="346.022" x2="427.587" y2="346.022"/>
</g>
<g stroke="black" stroke-width="1" fill="none">
<line x1="441.705" y1="346.022" x2="442.705" y2="346.022"/>
</g>
<g stroke="black" stroke-width="1" fill="none">
<line x1="456.823" y1="346.022" x2="457.823" y2="346.022"/>
</g>
<g stroke="black" stroke-width="1" fill="none">
<line x1="471.941" y1="346.022" x2="472.941" y2="346.022"/>
</g>
<g stroke="black" stroke-width="1" fill="none">
<line x1="487.059" y1="346.022" x2="488.059" y2="346.022"/>
</g>
<g stroke="black" stroke-width="1" fill="none">
<line x1="502.177" y1="346.022" x2="503.177" y2="346.022"/>
</g>
<path d="M59.4606,346.022h 63.4961l 4.53543, -0.0515257l 4.53543, -0.0393867l 4.53543, -0.0663733l 4.53543, -0.109537l 4.53543, -0.177013l 4.53543, -0.280082l 4.53543, -0.433855l 4.53543, -0.657845l 4.53543, -0.976235l 4.53543, -1.41762l 4.53543,
 -2.01395l 4.53543, -2.79848l 4.53543, -3.80241l 4.53543, -5.05031l 4.53543, -6.55443l 4.53543, -8.30829l 4.53543, -10.2804l 4.53543, -12.4089l 4.53543, -14.5988l 4.53543, -16.7227l 4.53543, -18.6254l 4.53543, -20.1341l 4.53543, -21.0727l 4.53543,
 -21.28l 4.53543, -20.6293l 4.53543, -19.0466l 4.53543, -16.5253l 4.53543, -13.1346l 4.53543, -9.01908l 4.53543, -4.38943l 4.53543, 0.495072l 4.53543, 5.35068l 4.53543, 9.89643l 4.53543, 13.8811l 4.53543, 17.106" fill="none" stroke="#c10020"
 stroke-width="2"/>
<path d="M281.697,142.147l 4.53543, 19.4415l 4.53543, 20.8337l 4.53543, 21.3038l 4.53543, 20.9377l 4.53543, 19.8707l 4.53543, 18.2684l 4.53543, 16.3077l 4.53543, 14.1588l 4.53543, 11.9719l 4.53543, 9.86837l 4.53543, 7.93629l 4.53543, 6.23106l
 4.53543, 4.77869l 4.53543, 3.58137l 4.53543, 2.62387l 4.53543, 1.87986l 4.53543, 1.31738l 4.53543, 0.903238l 4.53543, 0.606016l 4.53543, 0.397953l 4.53543, 0.255807l 4.53543, 0.160984l 4.53543, 0.0991968l 4.53543, 0.0598551l 4.53543, 0.0353699l
 4.53543, 0.0458516h 104.315" fill="none" stroke="#c10020" stroke-width="2"/>
<path d="M503.933,346.022h 4.53543" fill="none" stroke="#c10020" stroke-width="2"/>
<rect x="351.996" y="24.9905" width="204.094" height="76.8938" fill="white"/>
<path d="M351.996,101.884h 204.094" fill="none" stroke="black"/>
<path d="M556.091,101.884v -76.8938" fill="none" stroke="black"/>
<path d="M556.091,24.9905h -204.094" fill="none" stroke="black"/>
<path d="M351.996,24.9905v 76.8938" fill="none" stroke="black"/>
<text xml:space="preserve" x="376.824" y="39.0986" fill="black" font-size="16.6263" font-family="Helvetica"> / ndf </text>
<text xml:space="preserve" x="371.122" y="34.2112" fill="black" font-size="11.2509" font-family="Helvetica">2</text>
<text xml:space="preserve" x="362.162" y="39.0986" fill="black" font-size="16.6263" font-family="Times">&#0967;</text>
<text xml:space="preserve" x="481.901" y="40.7277" fill="black" font-size="16.6263" font-family="Helvetica">  1.36 / 4</text>
<text xml:space="preserve" x="362.162" y="60.2769" fill="black" font-size="16.6263" font-family="Helvetica">Constant </text>
<text xml:space="preserve" x="500.636" y="60.2769" fill="black" font-size="16.6263" font-family="Helvetica"> 1.542</text>
<text xml:space="preserve" x="491.676" y="60.2769" fill="black" font-size="16.6263" font-family="Times">&#0177;</text>
<text xml:space="preserve" x="441.173" y="60.2769" fill="black" font-size="16.6263" font-family="Helvetica"> 6.855 </text>
<text xml:space="preserve" x="362.162" y="79.0117" fill="black" font-size="16.6263" font-family="Helvetica">Mean     </text>
<text xml:space="preserve" x="509.596" y="79.0117" fill="black" font-size="16.6263" font-family="Helvetica"> 10.2</text>
<text xml:space="preserve" x="500.636" y="79.0117" fill="black" font-size="16.6263" font-family="Times">&#0177;</text>
<text xml:space="preserve" x="450.133" y="79.0117" fill="black" font-size="16.6263" font-family="Helvetica"> 269.4 </text>
<text xml:space="preserve" x="362.162" y="96.9318" fill="black" font-size="16.6263" font-family="Helvetica">Sigma    </text>
<text xml:space="preserve" x="518.556" y="98.561" fill="black" font-size="16.6263" font-family="Helvetica"> 7.2</text>
<text xml:space="preserve" x="509.596" y="98.561" fill="black" font-size="16.6263" font-family="Times">&#0177;</text>
<text xml:space="preserve" x="463.166" y="98.561" fill="black" font-size="16.6263" font-family="Helvetica">  42.8 </text>
<text xml:space="preserve" x="204.138" y="17.9202" fill="black" font-size="18.7938" font-family="Helvetica">sector 3, vop 69.13</text></svg>
