<?xml version="1.0" standalone="no"?>
<svg width="567.429" height="384.969" viewBox="0 0 567.429 384.969" xmlns="http://www.w3.org/2000/svg" shape-rendering="crispEdges">
<title>
./adjusted_vop/sector_by_vop/sector-3_vop-69.33.svg
</title>
<desc>
Creator: ROOT Version 6.22/02
CreationDate: Mon Jul 12 11:35:42 2021</desc>
<defs>
</defs>
<rect x="0.5" y="0" width="566.929" height="384.469" fill="white"/>
<rect x="57.1929" y="38.4469" width="453.543" height="307.575" fill="white"/>
<rect x="57.1929" y="38.4469" width="453.543" height="307.575" fill="none" stroke="black"/>
<path d="M57.1929,346.022h 105.827v -32.2456h 15.1181v 32.2456h 15.1181v -64.4912h 15.1181v -193.474h 15.1181v 32.2456h 15.1181v -64.4912h 15.1181v 32.2456h 15.1181v 64.4912h 15.1181v 128.982h 15.1181v 32.2456h 15.1181v 32.2456h 196.535" fill="none"
 stroke="#007d34"/>
<path d="M59.4606,346.022h 58.9606l 4.53543, -0.0367944l 4.53543, -0.0339768l 4.53543, -0.0620276l 4.53543, -0.110307l 4.53543, -0.191062l 4.53543, -0.322287l 4.53543, -0.529339l 4.53543, -0.846378l 4.53543, -1.31717l 4.53543, -1.99458l 4.53543,
 -2.93814l 4.53543, -4.2087l 4.53543, -5.86007l 4.53543, -7.92721l 4.53543, -10.4121l 4.53543, -13.269l 4.53543, -16.3913l 4.53543, -19.6043l 4.53543, -22.6665l 4.53543, -25.2824l 4.53543, -27.1282l 4.53543, -27.8887l 4.53543, -27.3007l 4.53543,
 -25.1981l 4.53543, -21.5482l 4.53543, -16.4733l 4.53543, -10.2508l 4.53543, -3.29028l 4.53543, 3.91086l 4.53543, 10.8262l 4.53543, 16.9637l 4.53543, 21.9239l 4.53543, 25.4422l 4.53543, 27.4101l 4.53543, 27.8729l 4.53543, 27.0069" fill="none"
 stroke="#007d34" stroke-width="2"/>
<path d="M281.697,214.297l 4.53543, 25.0814l 4.53543, 22.4141l 4.53543, 19.3278l 4.53543, 16.114l 4.53543, 13.0088l 4.53543, 10.1809l 4.53543, 7.73117l 4.53543, 5.70074l 4.53543, 4.08414l 4.53543, 2.84423l 4.53543, 1.92619l 4.53543, 1.26898l 4.53543,
 0.813494l 4.53543, 0.507586l 4.53543, 0.308327l 4.53543, 0.182366l 4.53543, 0.105045l 4.53543, 0.0589345l 4.53543, 0.0322094l 4.53543, 0.0347251h 131.528" fill="none" stroke="#007d34" stroke-width="2"/>
<path d="M503.933,346.022h 4.53543" fill="none" stroke="#007d34" stroke-width="2"/>
<path d="M57.1929,346.022h 453.543" fill="none" stroke="black"/>
<path d="M57.1929,336.795v 9.22726" fill="none" stroke="black"/>
<path d="M72.311,341.409v 4.61363" fill="none" stroke="black"/>
<path d="M87.4291,341.409v 4.61363" fill="none" stroke="black"/>
<path d="M102.547,341.409v 4.61363" fill="none" stroke="black"/>
<path d="M117.665,341.409v 4.61363" fill="none" stroke="black"/>
<path d="M132.783,336.795v 9.22726" fill="none" stroke="black"/>
<path d="M147.902,341.409v 4.61363" fill="none" stroke="black"/>
<path d="M163.02,341.409v 4.61363" fill="none" stroke="black"/>
<path d="M178.138,341.409v 4.61363" fill="none" stroke="black"/>
<path d="M193.256,341.409v 4.61363" fill="none" stroke="black"/>
<path d="M208.374,336.795v 9.22726" fill="none" stroke="black"/>
<path d="M223.492,341.409v 4.61363" fill="none" stroke="black"/>
<path d="M238.61,341.409v 4.61363" fill="none" stroke="black"/>
<path d="M253.728,341.409v 4.61363" fill="none" stroke="black"/>
<path d="M268.846,341.409v 4.61363" fill="none" stroke="black"/>
<path d="M283.965,336.795v 9.22726" fill="none" stroke="black"/>
<path d="M299.083,341.409v 4.61363" fill="none" stroke="black"/>
<path d="M314.201,341.409v 4.61363" fill="none" stroke="black"/>
<path d="M329.319,341.409v 4.61363" fill="none" stroke="black"/>
<path d="M344.437,341.409v 4.61363" fill="none" stroke="black"/>
<path d="M359.555,336.795v 9.22726" fill="none" stroke="black"/>
<path d="M374.673,341.409v 4.61363" fill="none" stroke="black"/>
<path d="M389.791,341.409v 4.61363" fill="none" stroke="black"/>
<path d="M404.909,341.409v 4.61363" fill="none" stroke="black"/>
<path d="M420.028,341.409v 4.61363" fill="none" stroke="black"/>
<path d="M435.146,336.795v 9.22726" fill="none" stroke="black"/>
<path d="M450.264,341.409v 4.61363" fill="none" stroke="black"/>
<path d="M465.382,341.409v 4.61363" fill="none" stroke="black"/>
<path d="M480.5,341.409v 4.61363" fill="none" stroke="black"/>
<path d="M495.618,341.409v 4.61363" fill="none" stroke="black"/>
<path d="M510.736,336.795v 9.22726" fill="none" stroke="black"/>
<text xml:space="preserve" x="53.446" y="358.403" fill="black" font-size="12.8453" font-family="Helvetica">0</text>
<text xml:space="preserve" x="121.868" y="358.403" fill="black" font-size="12.8453" font-family="Helvetica">100</text>
<text xml:space="preserve" x="197.622" y="358.403" fill="black" font-size="12.8453" font-family="Helvetica">200</text>
<text xml:space="preserve" x="273.375" y="358.403" fill="black" font-size="12.8453" font-family="Helvetica">300</text>
<text xml:space="preserve" x="348.314" y="358.403" fill="black" font-size="12.8453" font-family="Helvetica">400</text>
<text xml:space="preserve" x="424.068" y="358.403" fill="black" font-size="12.8453" font-family="Helvetica">500</text>
<text xml:space="preserve" x="499.821" y="358.403" fill="black" font-size="12.8453" font-family="Helvetica">600</text>
<text xml:space="preserve" x="486.788" y="369.807" fill="black" font-size="12.8453" font-family="Helvetica">mpv</text>
<path d="M57.1929,346.022v -307.575" fill="none" stroke="black"/>
<path d="M70.7992,346.022h -13.6063" fill="none" stroke="black"/>
<path d="M63.9961,339.573h -6.80315" fill="none" stroke="black"/>
<path d="M63.9961,333.124h -6.80315" fill="none" stroke="black"/>
<path d="M63.9961,326.675h -6.80315" fill="none" stroke="black"/>
<path d="M63.9961,320.226h -6.80315" fill="none" stroke="black"/>
<path d="M70.7992,313.777h -13.6063" fill="none" stroke="black"/>
<path d="M63.9961,307.328h -6.80315" fill="none" stroke="black"/>
<path d="M63.9961,300.878h -6.80315" fill="none" stroke="black"/>
<path d="M63.9961,294.429h -6.80315" fill="none" stroke="black"/>
<path d="M63.9961,287.98h -6.80315" fill="none" stroke="black"/>
<path d="M70.7992,281.531h -13.6063" fill="none" stroke="black"/>
<path d="M63.9961,275.082h -6.80315" fill="none" stroke="black"/>
<path d="M63.9961,268.633h -6.80315" fill="none" stroke="black"/>
<path d="M63.9961,262.184h -6.80315" fill="none" stroke="black"/>
<path d="M63.9961,255.735h -6.80315" fill="none" stroke="black"/>
<path d="M70.7992,249.285h -13.6063" fill="none" stroke="black"/>
<path d="M63.9961,242.836h -6.80315" fill="none" stroke="black"/>
<path d="M63.9961,236.387h -6.80315" fill="none" stroke="black"/>
<path d="M63.9961,229.938h -6.80315" fill="none" stroke="black"/>
<path d="M63.9961,223.489h -6.80315" fill="none" stroke="black"/>
<path d="M70.7992,217.04h -13.6063" fill="none" stroke="black"/>
<path d="M63.9961,210.591h -6.80315" fill="none" stroke="black"/>
<path d="M63.9961,204.142h -6.80315" fill="none" stroke="black"/>
<path d="M63.9961,197.692h -6.80315" fill="none" stroke="black"/>
<path d="M63.9961,191.243h -6.80315" fill="none" stroke="black"/>
<path d="M70.7992,184.794h -13.6063" fill="none" stroke="black"/>
<path d="M63.9961,178.345h -6.80315" fill="none" stroke="black"/>
<path d="M63.9961,171.896h -6.80315" fill="none" stroke="black"/>
<path d="M63.9961,165.447h -6.80315" fill="none" stroke="black"/>
<path d="M63.9961,158.998h -6.80315" fill="none" stroke="black"/>
<path d="M70.7992,152.549h -13.6063" fill="none" stroke="black"/>
<path d="M63.9961,146.099h -6.80315" fill="none" stroke="black"/>
<path d="M63.9961,139.65h -6.80315" fill="none" stroke="black"/>
<path d="M63.9961,133.201h -6.80315" fill="none" stroke="black"/>
<path d="M63.9961,126.752h -6.80315" fill="none" stroke="black"/>
<path d="M70.7992,120.303h -13.6063" fill="none" stroke="black"/>
<path d="M63.9961,113.854h -6.80315" fill="none" stroke="black"/>
<path d="M63.9961,107.405h -6.80315" fill="none" stroke="black"/>
<path d="M63.9961,100.956h -6.80315" fill="none" stroke="black"/>
<path d="M63.9961,94.5064h -6.80315" fill="none" stroke="black"/>
<path d="M70.7992,88.0573h -13.6063" fill="none" stroke="black"/>
<path d="M63.9961,81.6081h -6.80315" fill="none" stroke="black"/>
<path d="M63.9961,75.159h -6.80315" fill="none" stroke="black"/>
<path d="M63.9961,68.7099h -6.80315" fill="none" stroke="black"/>
<path d="M63.9961,62.2608h -6.80315" fill="none" stroke="black"/>
<path d="M70.7992,55.8116h -13.6063" fill="none" stroke="black"/>
<path d="M70.7992,55.8116h -13.6063" fill="none" stroke="black"/>
<path d="M63.9961,49.3625h -6.80315" fill="none" stroke="black"/>
<path d="M63.9961,42.9134h -6.80315" fill="none" stroke="black"/>
<text xml:space="preserve" x="47.7441" y="350.258" fill="black" font-size="12.8453" font-family="Helvetica">0</text>
<text xml:space="preserve" x="49.3732" y="318.49" fill="black" font-size="12.8453" font-family="Helvetica">1</text>
<text xml:space="preserve" x="47.7441" y="285.908" fill="black" font-size="12.8453" font-family="Helvetica">2</text>
<text xml:space="preserve" x="47.7441" y="254.141" fill="black" font-size="12.8453" font-family="Helvetica">3</text>
<text xml:space="preserve" x="47.7441" y="221.559" fill="black" font-size="12.8453" font-family="Helvetica">4</text>
<text xml:space="preserve" x="47.7441" y="188.976" fill="black" font-size="12.8453" font-family="Helvetica">5</text>
<text xml:space="preserve" x="47.7441" y="157.209" fill="black" font-size="12.8453" font-family="Helvetica">6</text>
<text xml:space="preserve" x="47.7441" y="124.627" fill="black" font-size="12.8453" font-family="Helvetica">7</text>
<text xml:space="preserve" x="47.7441" y="92.8591" fill="black" font-size="12.8453" font-family="Helvetica">8</text>
<text xml:space="preserve" x="47.7441" y="60.2769" fill="black" font-size="12.8453" font-family="Helvetica">9</text>
<g transform="rotate(-90,34.7112,86.3427)">
<text xml:space="preserve" x="34.7112" y="86.3427" fill="black" font-size="12.8453" font-family="Helvetica">n_blocks</text>
</g>
<text xml:space="preserve" x="204.138" y="17.9202" fill="black" font-size="18.7938" font-family="Helvetica">sector 3, vop 69.33</text>
<rect x="351.996" y="24.9905" width="204.094" height="76.8938" fill="white"/>
<path d="M351.996,101.884h 204.094" fill="none" stroke="black"/>
<path d="M556.091,101.884v -76.8938" fill="none" stroke="black"/>
<path d="M556.091,24.9905h -204.094" fill="none" stroke="black"/>
<path d="M351.996,24.9905v 76.8938" fill="none" stroke="black"/>
<text xml:space="preserve" x="376.824" y="39.0986" fill="black" font-size="16.6263" font-family="Helvetica"> / ndf </text>
<text xml:space="preserve" x="371.122" y="34.2112" fill="black" font-size="11.2509" font-family="Helvetica">2</text>
<text xml:space="preserve" x="362.162" y="39.0986" fill="black" font-size="16.6263" font-family="Times">&#0967;</text>
<text xml:space="preserve" x="477.828" y="40.7277" fill="black" font-size="16.6263" font-family="Helvetica"> 2.036 / 6</text>
<text xml:space="preserve" x="362.162" y="60.2769" fill="black" font-size="16.6263" font-family="Helvetica">Constant </text>
<text xml:space="preserve" x="500.636" y="60.2769" fill="black" font-size="16.6263" font-family="Helvetica"> 1.836</text>
<text xml:space="preserve" x="491.676" y="60.2769" fill="black" font-size="16.6263" font-family="Times">&#0177;</text>
<text xml:space="preserve" x="441.173" y="60.2769" fill="black" font-size="16.6263" font-family="Helvetica"> 9.089 </text>
<text xml:space="preserve" x="362.162" y="79.0117" fill="black" font-size="16.6263" font-family="Helvetica">Mean     </text>
<text xml:space="preserve" x="518.556" y="79.0117" fill="black" font-size="16.6263" font-family="Helvetica"> 6.6</text>
<text xml:space="preserve" x="509.596" y="79.0117" fill="black" font-size="16.6263" font-family="Times">&#0177;</text>
<text xml:space="preserve" x="459.094" y="79.0117" fill="black" font-size="16.6263" font-family="Helvetica"> 248.7 </text>
<text xml:space="preserve" x="362.162" y="96.9318" fill="black" font-size="16.6263" font-family="Helvetica">Sigma    </text>
<text xml:space="preserve" x="509.596" y="98.561" fill="black" font-size="16.6263" font-family="Helvetica"> 5.96</text>
<text xml:space="preserve" x="500.636" y="98.561" fill="black" font-size="16.6263" font-family="Times">&#0177;</text>
<text xml:space="preserve" x="450.133" y="98.561" fill="black" font-size="16.6263" font-family="Helvetica"> 38.16 </text>
<g stroke="black" stroke-width="1" fill="none">
<line x1="63.752" y1="346.022" x2="64.752" y2="346.022"/>
</g>
<g stroke="black" stroke-width="1" fill="none">
<line x1="78.8701" y1="346.022" x2="79.8701" y2="346.022"/>
</g>
<g stroke="black" stroke-width="1" fill="none">
<line x1="93.9882" y1="346.022" x2="94.9882" y2="346.022"/>
</g>
<g stroke="black" stroke-width="1" fill="none">
<line x1="109.106" y1="346.022" x2="110.106" y2="346.022"/>
</g>
<g stroke="black" stroke-width="1" fill="none">
<line x1="124.224" y1="346.022" x2="125.224" y2="346.022"/>
</g>
<g stroke="black" stroke-width="1" fill="none">
<line x1="139.343" y1="346.022" x2="140.343" y2="346.022"/>
</g>
<g stroke="black" stroke-width="1" fill="none">
<line x1="154.461" y1="346.022" x2="155.461" y2="346.022"/>
</g>
<path d="M170.579,346.022v -32.2456" fill="none" stroke="#007d34"/>
<path d="M170.579,313.777v -32.2456" fill="none" stroke="#007d34"/>
<path d="M163.02,313.777h 7.55905" fill="none" stroke="#007d34"/>
<path d="M170.579,313.777h 7.55905" fill="none" stroke="#007d34"/>
<g stroke="black" stroke-width="1" fill="none">
<line x1="169.579" y1="313.777" x2="170.579" y2="313.777"/>
</g>
<g stroke="black" stroke-width="1" fill="none">
<line x1="184.697" y1="346.022" x2="185.697" y2="346.022"/>
</g>
<path d="M200.815,327.133v -45.6022" fill="none" stroke="#007d34"/>
<path d="M200.815,281.531v -45.6022" fill="none" stroke="#007d34"/>
<path d="M193.256,281.531h 7.55905" fill="none" stroke="#007d34"/>
<path d="M200.815,281.531h 7.55905" fill="none" stroke="#007d34"/>
<g stroke="black" stroke-width="1" fill="none">
<line x1="199.815" y1="281.531" x2="200.815" y2="281.531"/>
</g>
<path d="M215.933,179.262v -91.2044" fill="none" stroke="#007d34"/>
<path d="M215.933,88.0573v -49.6103" fill="none" stroke="#007d34"/>
<path d="M208.374,88.0573h 7.55905" fill="none" stroke="#007d34"/>
<path d="M215.933,88.0573h 7.55905" fill="none" stroke="#007d34"/>
<g stroke="black" stroke-width="1" fill="none">
<line x1="214.933" y1="88.0573" x2="215.933" y2="88.0573"/>
</g>
<path d="M231.051,205.617v -85.3139" fill="none" stroke="#007d34"/>
<path d="M231.051,120.303v -81.856" fill="none" stroke="#007d34"/>
<path d="M223.492,120.303h 7.55905" fill="none" stroke="#007d34"/>
<path d="M231.051,120.303h 7.55905" fill="none" stroke="#007d34"/>
<g stroke="black" stroke-width="1" fill="none">
<line x1="230.051" y1="120.303" x2="231.051" y2="120.303"/>
</g>
<path d="M246.169,152.549v -96.7369" fill="none" stroke="#007d34"/>
<path d="M246.169,55.8116v -17.3647" fill="none" stroke="#007d34"/>
<path d="M238.61,55.8116h 7.55905" fill="none" stroke="#007d34"/>
<path d="M246.169,55.8116h 7.55905" fill="none" stroke="#007d34"/>
<g stroke="black" stroke-width="1" fill="none">
<line x1="245.169" y1="55.8116" x2="246.169" y2="55.8116"/>
</g>
<path d="M261.287,179.262v -91.2044" fill="none" stroke="#007d34"/>
<path d="M261.287,88.0573v -49.6103" fill="none" stroke="#007d34"/>
<path d="M253.728,88.0573h 7.55905" fill="none" stroke="#007d34"/>
<path d="M261.287,88.0573h 7.55905" fill="none" stroke="#007d34"/>
<g stroke="black" stroke-width="1" fill="none">
<line x1="260.287" y1="88.0573" x2="261.287" y2="88.0573"/>
</g>
<path d="M276.406,231.534v -78.9853" fill="none" stroke="#007d34"/>
<path d="M276.406,152.549v -78.9853" fill="none" stroke="#007d34"/>
<path d="M268.846,152.549h 7.55905" fill="none" stroke="#007d34"/>
<path d="M276.406,152.549h 7.55905" fill="none" stroke="#007d34"/>
<g stroke="black" stroke-width="1" fill="none">
<line x1="275.406" y1="152.549" x2="276.406" y2="152.549"/>
</g>
<path d="M291.524,327.133v -45.6022" fill="none" stroke="#007d34"/>
<path d="M291.524,281.531v -45.6022" fill="none" stroke="#007d34"/>
<path d="M283.965,281.531h 7.55905" fill="none" stroke="#007d34"/>
<path d="M291.524,281.531h 7.55905" fill="none" stroke="#007d34"/>
<g stroke="black" stroke-width="1" fill="none">
<line x1="290.524" y1="281.531" x2="291.524" y2="281.531"/>
</g>
<path d="M306.642,346.022v -32.2456" fill="none" stroke="#007d34"/>
<path d="M306.642,313.777v -32.2456" fill="none" stroke="#007d34"/>
<path d="M299.083,313.777h 7.55905" fill="none" stroke="#007d34"/>
<path d="M306.642,313.777h 7.55905" fill="none" stroke="#007d34"/>
<g stroke="black" stroke-width="1" fill="none">
<line x1="305.642" y1="313.777" x2="306.642" y2="313.777"/>
</g>
<g stroke="black" stroke-width="1" fill="none">
<line x1="320.76" y1="346.022" x2="321.76" y2="346.022"/>
</g>
<g stroke="black" stroke-width="1" fill="none">
<line x1="335.878" y1="346.022" x2="336.878" y2="346.022"/>
</g>
<g stroke="black" stroke-width="1" fill="none">
<line x1="350.996" y1="346.022" x2="351.996" y2="346.022"/>
</g>
<g stroke="black" stroke-width="1" fill="none">
<line x1="366.114" y1="346.022" x2="367.114" y2="346.022"/>
</g>
<g stroke="black" stroke-width="1" fill="none">
<line x1="381.232" y1="346.022" x2="382.232" y2="346.022"/>
</g>
<g stroke="black" stroke-width="1" fill="none">
<line x1="396.35" y1="346.022" x2="397.35" y2="346.022"/>
</g>
<g stroke="black" stroke-width="1" fill="none">
<line x1="411.469" y1="346.022" x2="412.469" y2="346.022"/>
</g>
<g stroke="black" stroke-width="1" fill="none">
<line x1="426.587" y1="346.022" x2="427.587" y2="346.022"/>
</g>
<g stroke="black" stroke-width="1" fill="none">
<line x1="441.705" y1="346.022" x2="442.705" y2="346.022"/>
</g>
<g stroke="black" stroke-width="1" fill="none">
<line x1="456.823" y1="346.022" x2="457.823" y2="346.022"/>
</g>
<g stroke="black" stroke-width="1" fill="none">
<line x1="471.941" y1="346.022" x2="472.941" y2="346.022"/>
</g>
<g stroke="black" stroke-width="1" fill="none">
<line x1="487.059" y1="346.022" x2="488.059" y2="346.022"/>
</g>
<g stroke="black" stroke-width="1" fill="none">
<line x1="502.177" y1="346.022" x2="503.177" y2="346.022"/>
</g>
<path d="M59.4606,346.022h 58.9606l 4.53543, -0.0367944l 4.53543, -0.0339768l 4.53543, -0.0620276l 4.53543, -0.110307l 4.53543, -0.191062l 4.53543, -0.322287l 4.53543, -0.529339l 4.53543, -0.846378l 4.53543, -1.31717l 4.53543, -1.99458l 4.53543,
 -2.93814l 4.53543, -4.2087l 4.53543, -5.86007l 4.53543, -7.92721l 4.53543, -10.4121l 4.53543, -13.269l 4.53543, -16.3913l 4.53543, -19.6043l 4.53543, -22.6665l 4.53543, -25.2824l 4.53543, -27.1282l 4.53543, -27.8887l 4.53543, -27.3007l 4.53543,
 -25.1981l 4.53543, -21.5482l 4.53543, -16.4733l 4.53543, -10.2508l 4.53543, -3.29028l 4.53543, 3.91086l 4.53543, 10.8262l 4.53543, 16.9637l 4.53543, 21.9239l 4.53543, 25.4422l 4.53543, 27.4101l 4.53543, 27.8729l 4.53543, 27.0069" fill="none"
 stroke="#007d34" stroke-width="2"/>
<path d="M281.697,214.297l 4.53543, 25.0814l 4.53543, 22.4141l 4.53543, 19.3278l 4.53543, 16.114l 4.53543, 13.0088l 4.53543, 10.1809l 4.53543, 7.73117l 4.53543, 5.70074l 4.53543, 4.08414l 4.53543, 2.84423l 4.53543, 1.92619l 4.53543, 1.26898l 4.53543,
 0.813494l 4.53543, 0.507586l 4.53543, 0.308327l 4.53543, 0.182366l 4.53543, 0.105045l 4.53543, 0.0589345l 4.53543, 0.0322094l 4.53543, 0.0347251h 131.528" fill="none" stroke="#007d34" stroke-width="2"/>
<path d="M503.933,346.022h 4.53543" fill="none" stroke="#007d34" stroke-width="2"/>
<rect x="351.996" y="24.9905" width="204.094" height="76.8938" fill="white"/>
<path d="M351.996,101.884h 204.094" fill="none" stroke="black"/>
<path d="M556.091,101.884v -76.8938" fill="none" stroke="black"/>
<path d="M556.091,24.9905h -204.094" fill="none" stroke="black"/>
<path d="M351.996,24.9905v 76.8938" fill="none" stroke="black"/>
<text xml:space="preserve" x="376.824" y="39.0986" fill="black" font-size="16.6263" font-family="Helvetica"> / ndf </text>
<text xml:space="preserve" x="371.122" y="34.2112" fill="black" font-size="11.2509" font-family="Helvetica">2</text>
<text xml:space="preserve" x="362.162" y="39.0986" fill="black" font-size="16.6263" font-family="Times">&#0967;</text>
<text xml:space="preserve" x="477.828" y="40.7277" fill="black" font-size="16.6263" font-family="Helvetica"> 2.036 / 6</text>
<text xml:space="preserve" x="362.162" y="60.2769" fill="black" font-size="16.6263" font-family="Helvetica">Constant </text>
<text xml:space="preserve" x="500.636" y="60.2769" fill="black" font-size="16.6263" font-family="Helvetica"> 1.836</text>
<text xml:space="preserve" x="491.676" y="60.2769" fill="black" font-size="16.6263" font-family="Times">&#0177;</text>
<text xml:space="preserve" x="441.173" y="60.2769" fill="black" font-size="16.6263" font-family="Helvetica"> 9.089 </text>
<text xml:space="preserve" x="362.162" y="79.0117" fill="black" font-size="16.6263" font-family="Helvetica">Mean     </text>
<text xml:space="preserve" x="518.556" y="79.0117" fill="black" font-size="16.6263" font-family="Helvetica"> 6.6</text>
<text xml:space="preserve" x="509.596" y="79.0117" fill="black" font-size="16.6263" font-family="Times">&#0177;</text>
<text xml:space="preserve" x="459.094" y="79.0117" fill="black" font-size="16.6263" font-family="Helvetica"> 248.7 </text>
<text xml:space="preserve" x="362.162" y="96.9318" fill="black" font-size="16.6263" font-family="Helvetica">Sigma    </text>
<text xml:space="preserve" x="509.596" y="98.561" fill="black" font-size="16.6263" font-family="Helvetica"> 5.96</text>
<text xml:space="preserve" x="500.636" y="98.561" fill="black" font-size="16.6263" font-family="Times">&#0177;</text>
<text xml:space="preserve" x="450.133" y="98.561" fill="black" font-size="16.6263" font-family="Helvetica"> 38.16 </text>
<text xml:space="preserve" x="204.138" y="17.9202" fill="black" font-size="18.7938" font-family="Helvetica">sector 3, vop 69.33</text></svg>
