<?xml version="1.0" standalone="no"?>
<svg width="567.429" height="384.969" viewBox="0 0 567.429 384.969" xmlns="http://www.w3.org/2000/svg" shape-rendering="crispEdges">
<title>
./adjusted_vop/sector_by_vop/sector-16_vop-69.23.svg
</title>
<desc>
Creator: ROOT Version 6.22/02
CreationDate: Fri Jul 16 02:50:51 2021</desc>
<defs>
</defs>
<rect x="0.5" y="0" width="566.929" height="384.469" fill="white"/>
<rect x="57.1929" y="38.4469" width="453.543" height="307.575" fill="white"/>
<rect x="57.1929" y="38.4469" width="453.543" height="307.575" fill="none" stroke="black"/>
<path d="M57.1929,346.022h 196.535v -81.3691h 15.1181v -162.738h 15.1181v -48.8215h 15.1181v 130.191h 15.1181v 32.5477h 15.1181v 97.643h 15.1181v 32.5477h 166.299" fill="none" stroke="#817066"/>
<path d="M59.4606,346.022h 136.063l 4.53543, -0.0323444l 4.53543, -0.0448256l 4.53543, -0.0990064l 4.53543, -0.208679l 4.53543, -0.419591l 4.53543, -0.804519l 4.53543, -1.4703l 4.53543, -2.55967l 4.53543, -4.24198l 4.53543, -6.68621l 4.53543,
 -10.0124l 4.53543, -14.224l 4.53543, -19.134l 4.53543, -24.3086l 4.53543, -29.0594l 4.53543, -32.5095l 4.53543, -33.7425l 4.53543, -32.013l 4.53543, -26.967" fill="none" stroke="#817066" stroke-width="2"/>
<path d="M281.697,107.485l 4.53543, -18.8032l 4.53543, -8.30967l 4.53543, 3.25116l 4.53543, 14.3917l 4.53543, 23.7137l 4.53543, 30.1963l 4.53543, 33.3765l 4.53543, 33.3779l 4.53543, 30.7984l 4.53543, 26.507l 4.53543, 21.421l 4.53543, 16.3251l
 4.53543, 11.7684l 4.53543, 8.04215l 4.53543, 5.21816l 4.53543, 3.21879l 4.53543, 1.88937l 4.53543, 1.05615l 4.53543, 0.562586l 4.53543, 0.285712l 4.53543, 0.138398l 4.53543, 0.0639659l 4.53543, 0.0477398h 117.921" fill="none" stroke="#817066"
 stroke-width="2"/>
<path d="M503.933,346.022h 4.53543" fill="none" stroke="#817066" stroke-width="2"/>
<path d="M57.1929,346.022h 453.543" fill="none" stroke="black"/>
<path d="M57.1929,336.795v 9.22726" fill="none" stroke="black"/>
<path d="M72.311,341.409v 4.61363" fill="none" stroke="black"/>
<path d="M87.4291,341.409v 4.61363" fill="none" stroke="black"/>
<path d="M102.547,341.409v 4.61363" fill="none" stroke="black"/>
<path d="M117.665,341.409v 4.61363" fill="none" stroke="black"/>
<path d="M132.783,336.795v 9.22726" fill="none" stroke="black"/>
<path d="M147.902,341.409v 4.61363" fill="none" stroke="black"/>
<path d="M163.02,341.409v 4.61363" fill="none" stroke="black"/>
<path d="M178.138,341.409v 4.61363" fill="none" stroke="black"/>
<path d="M193.256,341.409v 4.61363" fill="none" stroke="black"/>
<path d="M208.374,336.795v 9.22726" fill="none" stroke="black"/>
<path d="M223.492,341.409v 4.61363" fill="none" stroke="black"/>
<path d="M238.61,341.409v 4.61363" fill="none" stroke="black"/>
<path d="M253.728,341.409v 4.61363" fill="none" stroke="black"/>
<path d="M268.846,341.409v 4.61363" fill="none" stroke="black"/>
<path d="M283.965,336.795v 9.22726" fill="none" stroke="black"/>
<path d="M299.083,341.409v 4.61363" fill="none" stroke="black"/>
<path d="M314.201,341.409v 4.61363" fill="none" stroke="black"/>
<path d="M329.319,341.409v 4.61363" fill="none" stroke="black"/>
<path d="M344.437,341.409v 4.61363" fill="none" stroke="black"/>
<path d="M359.555,336.795v 9.22726" fill="none" stroke="black"/>
<path d="M374.673,341.409v 4.61363" fill="none" stroke="black"/>
<path d="M389.791,341.409v 4.61363" fill="none" stroke="black"/>
<path d="M404.909,341.409v 4.61363" fill="none" stroke="black"/>
<path d="M420.028,341.409v 4.61363" fill="none" stroke="black"/>
<path d="M435.146,336.795v 9.22726" fill="none" stroke="black"/>
<path d="M450.264,341.409v 4.61363" fill="none" stroke="black"/>
<path d="M465.382,341.409v 4.61363" fill="none" stroke="black"/>
<path d="M480.5,341.409v 4.61363" fill="none" stroke="black"/>
<path d="M495.618,341.409v 4.61363" fill="none" stroke="black"/>
<path d="M510.736,336.795v 9.22726" fill="none" stroke="black"/>
<text xml:space="preserve" x="53.446" y="358.403" fill="black" font-size="12.8453" font-family="Helvetica">0</text>
<text xml:space="preserve" x="121.868" y="358.403" fill="black" font-size="12.8453" font-family="Helvetica">100</text>
<text xml:space="preserve" x="197.622" y="358.403" fill="black" font-size="12.8453" font-family="Helvetica">200</text>
<text xml:space="preserve" x="273.375" y="358.403" fill="black" font-size="12.8453" font-family="Helvetica">300</text>
<text xml:space="preserve" x="348.314" y="358.403" fill="black" font-size="12.8453" font-family="Helvetica">400</text>
<text xml:space="preserve" x="424.068" y="358.403" fill="black" font-size="12.8453" font-family="Helvetica">500</text>
<text xml:space="preserve" x="499.821" y="358.403" fill="black" font-size="12.8453" font-family="Helvetica">600</text>
<text xml:space="preserve" x="486.788" y="369.807" fill="black" font-size="12.8453" font-family="Helvetica">mpv</text>
<path d="M57.1929,346.022v -307.575" fill="none" stroke="black"/>
<path d="M70.7992,346.022h -13.6063" fill="none" stroke="black"/>
<path d="M63.9961,337.885h -6.80315" fill="none" stroke="black"/>
<path d="M63.9961,329.748h -6.80315" fill="none" stroke="black"/>
<path d="M63.9961,321.612h -6.80315" fill="none" stroke="black"/>
<path d="M70.7992,313.475h -13.6063" fill="none" stroke="black"/>
<path d="M63.9961,305.338h -6.80315" fill="none" stroke="black"/>
<path d="M63.9961,297.201h -6.80315" fill="none" stroke="black"/>
<path d="M63.9961,289.064h -6.80315" fill="none" stroke="black"/>
<path d="M70.7992,280.927h -13.6063" fill="none" stroke="black"/>
<path d="M63.9961,272.79h -6.80315" fill="none" stroke="black"/>
<path d="M63.9961,264.653h -6.80315" fill="none" stroke="black"/>
<path d="M63.9961,256.516h -6.80315" fill="none" stroke="black"/>
<path d="M70.7992,248.379h -13.6063" fill="none" stroke="black"/>
<path d="M63.9961,240.242h -6.80315" fill="none" stroke="black"/>
<path d="M63.9961,232.105h -6.80315" fill="none" stroke="black"/>
<path d="M63.9961,223.969h -6.80315" fill="none" stroke="black"/>
<path d="M70.7992,215.832h -13.6063" fill="none" stroke="black"/>
<path d="M63.9961,207.695h -6.80315" fill="none" stroke="black"/>
<path d="M63.9961,199.558h -6.80315" fill="none" stroke="black"/>
<path d="M63.9961,191.421h -6.80315" fill="none" stroke="black"/>
<path d="M70.7992,183.284h -13.6063" fill="none" stroke="black"/>
<path d="M63.9961,175.147h -6.80315" fill="none" stroke="black"/>
<path d="M63.9961,167.01h -6.80315" fill="none" stroke="black"/>
<path d="M63.9961,158.873h -6.80315" fill="none" stroke="black"/>
<path d="M70.7992,150.736h -13.6063" fill="none" stroke="black"/>
<path d="M63.9961,142.599h -6.80315" fill="none" stroke="black"/>
<path d="M63.9961,134.462h -6.80315" fill="none" stroke="black"/>
<path d="M63.9961,126.326h -6.80315" fill="none" stroke="black"/>
<path d="M70.7992,118.189h -13.6063" fill="none" stroke="black"/>
<path d="M63.9961,110.052h -6.80315" fill="none" stroke="black"/>
<path d="M63.9961,101.915h -6.80315" fill="none" stroke="black"/>
<path d="M63.9961,93.7779h -6.80315" fill="none" stroke="black"/>
<path d="M70.7992,85.641h -13.6063" fill="none" stroke="black"/>
<path d="M63.9961,77.5041h -6.80315" fill="none" stroke="black"/>
<path d="M63.9961,69.3672h -6.80315" fill="none" stroke="black"/>
<path d="M63.9961,61.2303h -6.80315" fill="none" stroke="black"/>
<path d="M70.7992,53.0934h -13.6063" fill="none" stroke="black"/>
<path d="M70.7992,53.0934h -13.6063" fill="none" stroke="black"/>
<path d="M63.9961,44.9565h -6.80315" fill="none" stroke="black"/>
<text xml:space="preserve" x="47.7441" y="350.258" fill="black" font-size="12.8453" font-family="Helvetica">0</text>
<text xml:space="preserve" x="47.7441" y="317.676" fill="black" font-size="12.8453" font-family="Helvetica">2</text>
<text xml:space="preserve" x="47.7441" y="285.094" fill="black" font-size="12.8453" font-family="Helvetica">4</text>
<text xml:space="preserve" x="47.7441" y="252.512" fill="black" font-size="12.8453" font-family="Helvetica">6</text>
<text xml:space="preserve" x="47.7441" y="219.929" fill="black" font-size="12.8453" font-family="Helvetica">8</text>
<text xml:space="preserve" x="41.2277" y="188.162" fill="black" font-size="12.8453" font-family="Helvetica">10</text>
<text xml:space="preserve" x="40.4131" y="155.58" fill="black" font-size="12.8453" font-family="Helvetica">12</text>
<text xml:space="preserve" x="40.4131" y="122.998" fill="black" font-size="12.8453" font-family="Helvetica">14</text>
<text xml:space="preserve" x="40.4131" y="90.4154" fill="black" font-size="12.8453" font-family="Helvetica">16</text>
<text xml:space="preserve" x="40.4131" y="57.8333" fill="black" font-size="12.8453" font-family="Helvetica">18</text>
<g transform="rotate(-90,27.3803,86.3427)">
<text xml:space="preserve" x="27.3803" y="86.3427" fill="black" font-size="12.8453" font-family="Helvetica">n_blocks</text>
</g>
<text xml:space="preserve" x="199.251" y="17.9202" fill="black" font-size="18.7938" font-family="Helvetica">sector 16, vop 69.23</text>
<rect x="351.996" y="24.9905" width="204.094" height="76.8938" fill="white"/>
<path d="M351.996,101.884h 204.094" fill="none" stroke="black"/>
<path d="M556.091,101.884v -76.8938" fill="none" stroke="black"/>
<path d="M556.091,24.9905h -204.094" fill="none" stroke="black"/>
<path d="M351.996,24.9905v 76.8938" fill="none" stroke="black"/>
<text xml:space="preserve" x="377.638" y="39.0986" fill="black" font-size="16.7253" font-family="Helvetica"> / ndf </text>
<text xml:space="preserve" x="371.122" y="34.2112" fill="black" font-size="11.3169" font-family="Helvetica">2</text>
<text xml:space="preserve" x="362.162" y="39.0986" fill="black" font-size="16.7253" font-family="Times">&#0967;</text>
<text xml:space="preserve" x="477.828" y="40.7277" fill="black" font-size="16.7253" font-family="Helvetica"> 1.963 / 3</text>
<text xml:space="preserve" x="362.162" y="60.2769" fill="black" font-size="16.7253" font-family="Helvetica">Constant </text>
<text xml:space="preserve" x="509.596" y="60.2769" fill="black" font-size="16.7253" font-family="Helvetica"> 2.89</text>
<text xml:space="preserve" x="500.636" y="60.2769" fill="black" font-size="16.7253" font-family="Times">&#0177;</text>
<text xml:space="preserve" x="450.133" y="60.2769" fill="black" font-size="16.7253" font-family="Helvetica"> 16.34 </text>
<text xml:space="preserve" x="362.162" y="79.0117" fill="black" font-size="16.7253" font-family="Helvetica">Mean     </text>
<text xml:space="preserve" x="518.556" y="79.0117" fill="black" font-size="16.7253" font-family="Helvetica"> 4.3</text>
<text xml:space="preserve" x="509.596" y="79.0117" fill="black" font-size="16.7253" font-family="Times">&#0177;</text>
<text xml:space="preserve" x="459.094" y="79.0117" fill="black" font-size="16.7253" font-family="Helvetica"> 310.3 </text>
<text xml:space="preserve" x="362.162" y="96.9318" fill="black" font-size="16.7253" font-family="Helvetica">Sigma    </text>
<text xml:space="preserve" x="509.596" y="98.561" fill="black" font-size="16.7253" font-family="Helvetica"> 4.13</text>
<text xml:space="preserve" x="500.636" y="98.561" fill="black" font-size="16.7253" font-family="Times">&#0177;</text>
<text xml:space="preserve" x="450.133" y="98.561" fill="black" font-size="16.7253" font-family="Helvetica"> 28.57 </text>
<g stroke="black" stroke-width="1" fill="none">
<line x1="63.752" y1="346.022" x2="64.752" y2="346.022"/>
</g>
<g stroke="black" stroke-width="1" fill="none">
<line x1="78.8701" y1="346.022" x2="79.8701" y2="346.022"/>
</g>
<g stroke="black" stroke-width="1" fill="none">
<line x1="93.9882" y1="346.022" x2="94.9882" y2="346.022"/>
</g>
<g stroke="black" stroke-width="1" fill="none">
<line x1="109.106" y1="346.022" x2="110.106" y2="346.022"/>
</g>
<g stroke="black" stroke-width="1" fill="none">
<line x1="124.224" y1="346.022" x2="125.224" y2="346.022"/>
</g>
<g stroke="black" stroke-width="1" fill="none">
<line x1="139.343" y1="346.022" x2="140.343" y2="346.022"/>
</g>
<g stroke="black" stroke-width="1" fill="none">
<line x1="154.461" y1="346.022" x2="155.461" y2="346.022"/>
</g>
<g stroke="black" stroke-width="1" fill="none">
<line x1="169.579" y1="346.022" x2="170.579" y2="346.022"/>
</g>
<g stroke="black" stroke-width="1" fill="none">
<line x1="184.697" y1="346.022" x2="185.697" y2="346.022"/>
</g>
<g stroke="black" stroke-width="1" fill="none">
<line x1="199.815" y1="346.022" x2="200.815" y2="346.022"/>
</g>
<g stroke="black" stroke-width="1" fill="none">
<line x1="214.933" y1="346.022" x2="215.933" y2="346.022"/>
</g>
<g stroke="black" stroke-width="1" fill="none">
<line x1="230.051" y1="346.022" x2="231.051" y2="346.022"/>
</g>
<g stroke="black" stroke-width="1" fill="none">
<line x1="245.169" y1="346.022" x2="246.169" y2="346.022"/>
</g>
<path d="M261.287,301.043v -36.3894" fill="none" stroke="#817066"/>
<path d="M261.287,264.653v -36.3894" fill="none" stroke="#817066"/>
<path d="M253.728,264.653h 7.55905" fill="none" stroke="#817066"/>
<path d="M261.287,264.653h 7.55905" fill="none" stroke="#817066"/>
<g stroke="black" stroke-width="1" fill="none">
<line x1="260.287" y1="264.653" x2="261.287" y2="264.653"/>
</g>
<path d="M276.406,164.943v -63.0283" fill="none" stroke="#817066"/>
<path d="M276.406,101.915v -63.0283" fill="none" stroke="#817066"/>
<path d="M268.846,101.915h 7.55905" fill="none" stroke="#817066"/>
<path d="M276.406,101.915h 7.55905" fill="none" stroke="#817066"/>
<g stroke="black" stroke-width="1" fill="none">
<line x1="275.406" y1="101.915" x2="276.406" y2="101.915"/>
</g>
<path d="M291.524,122.137v -69.044" fill="none" stroke="#817066"/>
<path d="M291.524,53.0934v -14.6464" fill="none" stroke="#817066"/>
<path d="M283.965,53.0934h 7.55905" fill="none" stroke="#817066"/>
<path d="M291.524,53.0934h 7.55905" fill="none" stroke="#817066"/>
<g stroke="black" stroke-width="1" fill="none">
<line x1="290.524" y1="53.0934" x2="291.524" y2="53.0934"/>
</g>
<path d="M306.642,234.746v -51.4624" fill="none" stroke="#817066"/>
<path d="M306.642,183.284v -51.4624" fill="none" stroke="#817066"/>
<path d="M299.083,183.284h 7.55905" fill="none" stroke="#817066"/>
<path d="M306.642,183.284h 7.55905" fill="none" stroke="#817066"/>
<g stroke="black" stroke-width="1" fill="none">
<line x1="305.642" y1="183.284" x2="306.642" y2="183.284"/>
</g>
<path d="M321.76,261.861v -46.0293" fill="none" stroke="#817066"/>
<path d="M321.76,215.832v -46.0293" fill="none" stroke="#817066"/>
<path d="M314.201,215.832h 7.55905" fill="none" stroke="#817066"/>
<path d="M321.76,215.832h 7.55905" fill="none" stroke="#817066"/>
<g stroke="black" stroke-width="1" fill="none">
<line x1="320.76" y1="215.832" x2="321.76" y2="215.832"/>
</g>
<path d="M336.878,336.489v -23.0147" fill="none" stroke="#817066"/>
<path d="M336.878,313.475v -23.0147" fill="none" stroke="#817066"/>
<path d="M329.319,313.475h 7.55905" fill="none" stroke="#817066"/>
<path d="M336.878,313.475h 7.55905" fill="none" stroke="#817066"/>
<g stroke="black" stroke-width="1" fill="none">
<line x1="335.878" y1="313.475" x2="336.878" y2="313.475"/>
</g>
<g stroke="black" stroke-width="1" fill="none">
<line x1="350.996" y1="346.022" x2="351.996" y2="346.022"/>
</g>
<g stroke="black" stroke-width="1" fill="none">
<line x1="366.114" y1="346.022" x2="367.114" y2="346.022"/>
</g>
<g stroke="black" stroke-width="1" fill="none">
<line x1="381.232" y1="346.022" x2="382.232" y2="346.022"/>
</g>
<g stroke="black" stroke-width="1" fill="none">
<line x1="396.35" y1="346.022" x2="397.35" y2="346.022"/>
</g>
<g stroke="black" stroke-width="1" fill="none">
<line x1="411.469" y1="346.022" x2="412.469" y2="346.022"/>
</g>
<g stroke="black" stroke-width="1" fill="none">
<line x1="426.587" y1="346.022" x2="427.587" y2="346.022"/>
</g>
<g stroke="black" stroke-width="1" fill="none">
<line x1="441.705" y1="346.022" x2="442.705" y2="346.022"/>
</g>
<g stroke="black" stroke-width="1" fill="none">
<line x1="456.823" y1="346.022" x2="457.823" y2="346.022"/>
</g>
<g stroke="black" stroke-width="1" fill="none">
<line x1="471.941" y1="346.022" x2="472.941" y2="346.022"/>
</g>
<g stroke="black" stroke-width="1" fill="none">
<line x1="487.059" y1="346.022" x2="488.059" y2="346.022"/>
</g>
<g stroke="black" stroke-width="1" fill="none">
<line x1="502.177" y1="346.022" x2="503.177" y2="346.022"/>
</g>
<path d="M59.4606,346.022h 136.063l 4.53543, -0.0323444l 4.53543, -0.0448256l 4.53543, -0.0990064l 4.53543, -0.208679l 4.53543, -0.419591l 4.53543, -0.804519l 4.53543, -1.4703l 4.53543, -2.55967l 4.53543, -4.24198l 4.53543, -6.68621l 4.53543,
 -10.0124l 4.53543, -14.224l 4.53543, -19.134l 4.53543, -24.3086l 4.53543, -29.0594l 4.53543, -32.5095l 4.53543, -33.7425l 4.53543, -32.013l 4.53543, -26.967" fill="none" stroke="#817066" stroke-width="2"/>
<path d="M281.697,107.485l 4.53543, -18.8032l 4.53543, -8.30967l 4.53543, 3.25116l 4.53543, 14.3917l 4.53543, 23.7137l 4.53543, 30.1963l 4.53543, 33.3765l 4.53543, 33.3779l 4.53543, 30.7984l 4.53543, 26.507l 4.53543, 21.421l 4.53543, 16.3251l
 4.53543, 11.7684l 4.53543, 8.04215l 4.53543, 5.21816l 4.53543, 3.21879l 4.53543, 1.88937l 4.53543, 1.05615l 4.53543, 0.562586l 4.53543, 0.285712l 4.53543, 0.138398l 4.53543, 0.0639659l 4.53543, 0.0477398h 117.921" fill="none" stroke="#817066"
 stroke-width="2"/>
<path d="M503.933,346.022h 4.53543" fill="none" stroke="#817066" stroke-width="2"/>
<rect x="351.996" y="24.9905" width="204.094" height="76.8938" fill="white"/>
<path d="M351.996,101.884h 204.094" fill="none" stroke="black"/>
<path d="M556.091,101.884v -76.8938" fill="none" stroke="black"/>
<path d="M556.091,24.9905h -204.094" fill="none" stroke="black"/>
<path d="M351.996,24.9905v 76.8938" fill="none" stroke="black"/>
<text xml:space="preserve" x="377.638" y="39.0986" fill="black" font-size="16.7253" font-family="Helvetica"> / ndf </text>
<text xml:space="preserve" x="371.122" y="34.2112" fill="black" font-size="11.3169" font-family="Helvetica">2</text>
<text xml:space="preserve" x="362.162" y="39.0986" fill="black" font-size="16.7253" font-family="Times">&#0967;</text>
<text xml:space="preserve" x="477.828" y="40.7277" fill="black" font-size="16.7253" font-family="Helvetica"> 1.963 / 3</text>
<text xml:space="preserve" x="362.162" y="60.2769" fill="black" font-size="16.7253" font-family="Helvetica">Constant </text>
<text xml:space="preserve" x="509.596" y="60.2769" fill="black" font-size="16.7253" font-family="Helvetica"> 2.89</text>
<text xml:space="preserve" x="500.636" y="60.2769" fill="black" font-size="16.7253" font-family="Times">&#0177;</text>
<text xml:space="preserve" x="450.133" y="60.2769" fill="black" font-size="16.7253" font-family="Helvetica"> 16.34 </text>
<text xml:space="preserve" x="362.162" y="79.0117" fill="black" font-size="16.7253" font-family="Helvetica">Mean     </text>
<text xml:space="preserve" x="518.556" y="79.0117" fill="black" font-size="16.7253" font-family="Helvetica"> 4.3</text>
<text xml:space="preserve" x="509.596" y="79.0117" fill="black" font-size="16.7253" font-family="Times">&#0177;</text>
<text xml:space="preserve" x="459.094" y="79.0117" fill="black" font-size="16.7253" font-family="Helvetica"> 310.3 </text>
<text xml:space="preserve" x="362.162" y="96.9318" fill="black" font-size="16.7253" font-family="Helvetica">Sigma    </text>
<text xml:space="preserve" x="509.596" y="98.561" fill="black" font-size="16.7253" font-family="Helvetica"> 4.13</text>
<text xml:space="preserve" x="500.636" y="98.561" fill="black" font-size="16.7253" font-family="Times">&#0177;</text>
<text xml:space="preserve" x="450.133" y="98.561" fill="black" font-size="16.7253" font-family="Helvetica"> 28.57 </text>
<text xml:space="preserve" x="199.251" y="17.9202" fill="black" font-size="18.7938" font-family="Helvetica">sector 16, vop 69.23</text></svg>
