<?xml version="1.0" standalone="no"?>
<svg width="567.429" height="384.969" viewBox="0 0 567.429 384.969" xmlns="http://www.w3.org/2000/svg" shape-rendering="crispEdges">
<title>
./adjusted_vop/sector_by_vop/sector-10_vop-69.08.svg
</title>
<desc>
Creator: ROOT Version 6.22/02
CreationDate: Sat Jun 26 01:19:18 2021</desc>
<defs>
</defs>
<rect x="0.5" y="0" width="566.929" height="384.469" fill="white"/>
<rect x="57.1929" y="38.4469" width="453.543" height="307.575" fill="white"/>
<rect x="57.1929" y="38.4469" width="453.543" height="307.575" fill="none" stroke="black"/>
<path d="M57.1929,346.022h 120.945v -26.6299h 30.2362v -26.6299h 30.2362v -53.2598h 15.1181v -79.8897h 15.1181v -106.52h 15.1181v 53.2598h 15.1181v 79.8897h 15.1181v 79.8897h 15.1181v -133.149h 15.1181v 79.8897h 15.1181v 26.6299h 15.1181v 106.52h
 136.063" fill="none" stroke="#a6bdd7"/>
<path d="M59.4606,346.022h 13.6063l 4.53543, -0.0352009l 4.53543, -0.0145497l 4.53543, -0.0200621l 4.53543, -0.0274537l 4.53543, -0.0372834l 4.53543, -0.0502474l 4.53543, -0.0672022l 4.53543, -0.0891902l 4.53543, -0.117463l 4.53543, -0.153506l
 4.53543, -0.199057l 4.53543, -0.256119l 4.53543, -0.326967l 4.53543, -0.414142l 4.53543, -0.520426l 4.53543, -0.648806l 4.53543, -0.80241l 4.53543, -0.98442l 4.53543, -1.19796l 4.53543, -1.44596l 4.53543, -1.73098l 4.53543, -2.05503l 4.53543,
 -2.41934l 4.53543, -2.82414l 4.53543, -3.26847l 4.53543, -3.74989l 4.53543, -4.26436l 4.53543, -4.80601l 4.53543, -5.36709l 4.53543, -5.93788l 4.53543, -6.5068l 4.53543, -7.06049l 4.53543, -7.58408l 4.53543, -8.06155l 4.53543, -8.47614l 4.53543,
 -8.81095l 4.53543, -9.04949l 4.53543, -9.1764l 4.53543, -9.17811l 4.53543, -9.04354l 4.53543, -8.7647l 4.53543, -8.33726l 4.53543, -7.76097l 4.53543, -7.03993l 4.53543, -6.18267l 4.53543, -5.20213" fill="none" stroke="#a6bdd7" stroke-width="2"/>
<path d="M281.697,175.955l 4.53543, -4.11528l 4.53543, -2.94273l 4.53543, -1.70804l 4.53543, -0.436974l 4.53543, 0.84344l 4.53543, 2.10583l 4.53543, 3.32346l 4.53543, 4.47119l 4.53543, 5.52632l 4.53543, 6.46932l 4.53543, 7.28446l 4.53543, 7.96019l
 4.53543, 8.48939l 4.53543, 8.86935l 4.53543, 9.10166l 4.53543, 9.19187l 4.53543, 9.14902l 4.53543, 8.98504l 4.53543, 8.71416l 4.53543, 8.35217l 4.53543, 7.91574l 4.53543, 7.42182l 4.53543, 6.88697l 4.53543, 6.32689l 4.53543, 5.75601l 4.53543,
 5.18713l 4.53543, 4.63127l 4.53543, 4.09752l 4.53543, 3.59301l 4.53543, 3.12302l 4.53543, 2.69107l 4.53543, 2.2991l 4.53543, 1.94767l 4.53543, 1.63621l 4.53543, 1.36321l 4.53543, 1.12646l 4.53543, 0.923276l 4.53543, 0.750642l 4.53543, 0.605403l
 4.53543, 0.484382l 4.53543, 0.384489l 4.53543, 0.302796l 4.53543, 0.236594l 4.53543, 0.183426l 4.53543, 0.141103l 4.53543, 0.107707l 4.53543, 0.0815815l 4.53543, 0.0613192l 4.53543, 0.0457369" fill="none" stroke="#a6bdd7" stroke-width="2"/>
<path d="M503.933,345.901l 4.53543, 0.0338542" fill="none" stroke="#a6bdd7" stroke-width="2"/>
<path d="M57.1929,346.022h 453.543" fill="none" stroke="black"/>
<path d="M57.1929,336.795v 9.22726" fill="none" stroke="black"/>
<path d="M72.311,341.409v 4.61363" fill="none" stroke="black"/>
<path d="M87.4291,341.409v 4.61363" fill="none" stroke="black"/>
<path d="M102.547,341.409v 4.61363" fill="none" stroke="black"/>
<path d="M117.665,341.409v 4.61363" fill="none" stroke="black"/>
<path d="M132.783,336.795v 9.22726" fill="none" stroke="black"/>
<path d="M147.902,341.409v 4.61363" fill="none" stroke="black"/>
<path d="M163.02,341.409v 4.61363" fill="none" stroke="black"/>
<path d="M178.138,341.409v 4.61363" fill="none" stroke="black"/>
<path d="M193.256,341.409v 4.61363" fill="none" stroke="black"/>
<path d="M208.374,336.795v 9.22726" fill="none" stroke="black"/>
<path d="M223.492,341.409v 4.61363" fill="none" stroke="black"/>
<path d="M238.61,341.409v 4.61363" fill="none" stroke="black"/>
<path d="M253.728,341.409v 4.61363" fill="none" stroke="black"/>
<path d="M268.846,341.409v 4.61363" fill="none" stroke="black"/>
<path d="M283.965,336.795v 9.22726" fill="none" stroke="black"/>
<path d="M299.083,341.409v 4.61363" fill="none" stroke="black"/>
<path d="M314.201,341.409v 4.61363" fill="none" stroke="black"/>
<path d="M329.319,341.409v 4.61363" fill="none" stroke="black"/>
<path d="M344.437,341.409v 4.61363" fill="none" stroke="black"/>
<path d="M359.555,336.795v 9.22726" fill="none" stroke="black"/>
<path d="M374.673,341.409v 4.61363" fill="none" stroke="black"/>
<path d="M389.791,341.409v 4.61363" fill="none" stroke="black"/>
<path d="M404.909,341.409v 4.61363" fill="none" stroke="black"/>
<path d="M420.028,341.409v 4.61363" fill="none" stroke="black"/>
<path d="M435.146,336.795v 9.22726" fill="none" stroke="black"/>
<path d="M450.264,341.409v 4.61363" fill="none" stroke="black"/>
<path d="M465.382,341.409v 4.61363" fill="none" stroke="black"/>
<path d="M480.5,341.409v 4.61363" fill="none" stroke="black"/>
<path d="M495.618,341.409v 4.61363" fill="none" stroke="black"/>
<path d="M510.736,336.795v 9.22726" fill="none" stroke="black"/>
<text xml:space="preserve" x="53.446" y="358.403" fill="black" font-size="12.8453" font-family="Helvetica">0</text>
<text xml:space="preserve" x="121.868" y="358.403" fill="black" font-size="12.8453" font-family="Helvetica">100</text>
<text xml:space="preserve" x="197.622" y="358.403" fill="black" font-size="12.8453" font-family="Helvetica">200</text>
<text xml:space="preserve" x="273.375" y="358.403" fill="black" font-size="12.8453" font-family="Helvetica">300</text>
<text xml:space="preserve" x="348.314" y="358.403" fill="black" font-size="12.8453" font-family="Helvetica">400</text>
<text xml:space="preserve" x="424.068" y="358.403" fill="black" font-size="12.8453" font-family="Helvetica">500</text>
<text xml:space="preserve" x="499.821" y="358.403" fill="black" font-size="12.8453" font-family="Helvetica">600</text>
<text xml:space="preserve" x="486.788" y="369.807" fill="black" font-size="12.8453" font-family="Helvetica">mpv</text>
<path d="M57.1929,346.022v -307.575" fill="none" stroke="black"/>
<path d="M70.7992,346.022h -13.6063" fill="none" stroke="black"/>
<path d="M63.9961,332.707h -6.80315" fill="none" stroke="black"/>
<path d="M63.9961,319.392h -6.80315" fill="none" stroke="black"/>
<path d="M63.9961,306.077h -6.80315" fill="none" stroke="black"/>
<path d="M70.7992,292.762h -13.6063" fill="none" stroke="black"/>
<path d="M63.9961,279.448h -6.80315" fill="none" stroke="black"/>
<path d="M63.9961,266.133h -6.80315" fill="none" stroke="black"/>
<path d="M63.9961,252.818h -6.80315" fill="none" stroke="black"/>
<path d="M70.7992,239.503h -13.6063" fill="none" stroke="black"/>
<path d="M63.9961,226.188h -6.80315" fill="none" stroke="black"/>
<path d="M63.9961,212.873h -6.80315" fill="none" stroke="black"/>
<path d="M63.9961,199.558h -6.80315" fill="none" stroke="black"/>
<path d="M70.7992,186.243h -13.6063" fill="none" stroke="black"/>
<path d="M63.9961,172.928h -6.80315" fill="none" stroke="black"/>
<path d="M63.9961,159.613h -6.80315" fill="none" stroke="black"/>
<path d="M63.9961,146.298h -6.80315" fill="none" stroke="black"/>
<path d="M70.7992,132.983h -13.6063" fill="none" stroke="black"/>
<path d="M63.9961,119.668h -6.80315" fill="none" stroke="black"/>
<path d="M63.9961,106.353h -6.80315" fill="none" stroke="black"/>
<path d="M63.9961,93.0382h -6.80315" fill="none" stroke="black"/>
<path d="M70.7992,79.7233h -13.6063" fill="none" stroke="black"/>
<path d="M70.7992,79.7233h -13.6063" fill="none" stroke="black"/>
<path d="M63.9961,66.4083h -6.80315" fill="none" stroke="black"/>
<path d="M63.9961,53.0934h -6.80315" fill="none" stroke="black"/>
<path d="M63.9961,39.7784h -6.80315" fill="none" stroke="black"/>
<text xml:space="preserve" x="47.7441" y="350.258" fill="black" font-size="12.8453" font-family="Helvetica">0</text>
<text xml:space="preserve" x="47.7441" y="297.312" fill="black" font-size="12.8453" font-family="Helvetica">2</text>
<text xml:space="preserve" x="47.7441" y="244.366" fill="black" font-size="12.8453" font-family="Helvetica">4</text>
<text xml:space="preserve" x="47.7441" y="190.605" fill="black" font-size="12.8453" font-family="Helvetica">6</text>
<text xml:space="preserve" x="47.7441" y="137.66" fill="black" font-size="12.8453" font-family="Helvetica">8</text>
<text xml:space="preserve" x="41.2277" y="83.899" fill="black" font-size="12.8453" font-family="Helvetica">10</text>
<g transform="rotate(-90,28.1948,86.3427)">
<text xml:space="preserve" x="28.1948" y="86.3427" fill="black" font-size="12.8453" font-family="Helvetica">n_blocks</text>
</g>
<text xml:space="preserve" x="199.251" y="17.9202" fill="black" font-size="18.7938" font-family="Helvetica">sector 10, vop 69.08</text>
<rect x="351.996" y="24.9905" width="204.094" height="76.8938" fill="white"/>
<path d="M351.996,101.884h 204.094" fill="none" stroke="black"/>
<path d="M556.091,101.884v -76.8938" fill="none" stroke="black"/>
<path d="M556.091,24.9905h -204.094" fill="none" stroke="black"/>
<path d="M351.996,24.9905v 76.8938" fill="none" stroke="black"/>
<text xml:space="preserve" x="376.824" y="39.0986" fill="black" font-size="16.6263" font-family="Helvetica"> / ndf </text>
<text xml:space="preserve" x="371.122" y="34.2112" fill="black" font-size="11.2509" font-family="Helvetica">2</text>
<text xml:space="preserve" x="362.162" y="39.0986" fill="black" font-size="16.6263" font-family="Times">&#0967;</text>
<text xml:space="preserve" x="468.868" y="40.7277" fill="black" font-size="16.6263" font-family="Helvetica"> 8.567 / 10</text>
<text xml:space="preserve" x="362.162" y="60.2769" fill="black" font-size="16.6263" font-family="Helvetica">Constant </text>
<text xml:space="preserve" x="500.636" y="60.2769" fill="black" font-size="16.6263" font-family="Helvetica"> 1.272</text>
<text xml:space="preserve" x="491.676" y="60.2769" fill="black" font-size="16.6263" font-family="Times">&#0177;</text>
<text xml:space="preserve" x="441.173" y="60.2769" fill="black" font-size="16.6263" font-family="Helvetica"> 6.733 </text>
<text xml:space="preserve" x="362.162" y="79.0117" fill="black" font-size="16.6263" font-family="Helvetica">Mean     </text>
<text xml:space="preserve" x="509.596" y="79.0117" fill="black" font-size="16.6263" font-family="Helvetica"> 16.3</text>
<text xml:space="preserve" x="500.636" y="79.0117" fill="black" font-size="16.6263" font-family="Times">&#0177;</text>
<text xml:space="preserve" x="454.206" y="79.0117" fill="black" font-size="16.6263" font-family="Helvetica">   320 </text>
<text xml:space="preserve" x="362.162" y="96.9318" fill="black" font-size="16.6263" font-family="Helvetica">Sigma    </text>
<text xml:space="preserve" x="500.636" y="98.561" fill="black" font-size="16.6263" font-family="Helvetica"> 15.38</text>
<text xml:space="preserve" x="491.676" y="98.561" fill="black" font-size="16.6263" font-family="Times">&#0177;</text>
<text xml:space="preserve" x="441.173" y="98.561" fill="black" font-size="16.6263" font-family="Helvetica"> 70.93 </text>
<g stroke="black" stroke-width="1" fill="none">
<line x1="63.752" y1="346.022" x2="64.752" y2="346.022"/>
</g>
<g stroke="black" stroke-width="1" fill="none">
<line x1="78.8701" y1="346.022" x2="79.8701" y2="346.022"/>
</g>
<g stroke="black" stroke-width="1" fill="none">
<line x1="93.9882" y1="346.022" x2="94.9882" y2="346.022"/>
</g>
<g stroke="black" stroke-width="1" fill="none">
<line x1="109.106" y1="346.022" x2="110.106" y2="346.022"/>
</g>
<g stroke="black" stroke-width="1" fill="none">
<line x1="124.224" y1="346.022" x2="125.224" y2="346.022"/>
</g>
<g stroke="black" stroke-width="1" fill="none">
<line x1="139.343" y1="346.022" x2="140.343" y2="346.022"/>
</g>
<g stroke="black" stroke-width="1" fill="none">
<line x1="154.461" y1="346.022" x2="155.461" y2="346.022"/>
</g>
<g stroke="black" stroke-width="1" fill="none">
<line x1="169.579" y1="346.022" x2="170.579" y2="346.022"/>
</g>
<path d="M185.697,346.022v -26.6299" fill="none" stroke="#a6bdd7"/>
<path d="M185.697,319.392v -26.6299" fill="none" stroke="#a6bdd7"/>
<path d="M178.138,319.392h 7.55905" fill="none" stroke="#a6bdd7"/>
<path d="M185.697,319.392h 7.55905" fill="none" stroke="#a6bdd7"/>
<g stroke="black" stroke-width="1" fill="none">
<line x1="184.697" y1="319.392" x2="185.697" y2="319.392"/>
</g>
<path d="M200.815,346.022v -26.6299" fill="none" stroke="#a6bdd7"/>
<path d="M200.815,319.392v -26.6299" fill="none" stroke="#a6bdd7"/>
<path d="M193.256,319.392h 7.55905" fill="none" stroke="#a6bdd7"/>
<path d="M200.815,319.392h 7.55905" fill="none" stroke="#a6bdd7"/>
<g stroke="black" stroke-width="1" fill="none">
<line x1="199.815" y1="319.392" x2="200.815" y2="319.392"/>
</g>
<path d="M215.933,330.423v -37.6604" fill="none" stroke="#a6bdd7"/>
<path d="M215.933,292.762v -37.6604" fill="none" stroke="#a6bdd7"/>
<path d="M208.374,292.762h 7.55905" fill="none" stroke="#a6bdd7"/>
<path d="M215.933,292.762h 7.55905" fill="none" stroke="#a6bdd7"/>
<g stroke="black" stroke-width="1" fill="none">
<line x1="214.933" y1="292.762" x2="215.933" y2="292.762"/>
</g>
<path d="M231.051,330.423v -37.6604" fill="none" stroke="#a6bdd7"/>
<path d="M231.051,292.762v -37.6604" fill="none" stroke="#a6bdd7"/>
<path d="M223.492,292.762h 7.55905" fill="none" stroke="#a6bdd7"/>
<path d="M231.051,292.762h 7.55905" fill="none" stroke="#a6bdd7"/>
<g stroke="black" stroke-width="1" fill="none">
<line x1="230.051" y1="292.762" x2="231.051" y2="292.762"/>
</g>
<path d="M246.169,292.762v -53.2598" fill="none" stroke="#a6bdd7"/>
<path d="M246.169,239.503v -53.2598" fill="none" stroke="#a6bdd7"/>
<path d="M238.61,239.503h 7.55905" fill="none" stroke="#a6bdd7"/>
<path d="M246.169,239.503h 7.55905" fill="none" stroke="#a6bdd7"/>
<g stroke="black" stroke-width="1" fill="none">
<line x1="245.169" y1="239.503" x2="246.169" y2="239.503"/>
</g>
<path d="M261.287,230.069v -70.4561" fill="none" stroke="#a6bdd7"/>
<path d="M261.287,159.613v -70.4561" fill="none" stroke="#a6bdd7"/>
<path d="M253.728,159.613h 7.55905" fill="none" stroke="#a6bdd7"/>
<path d="M261.287,159.613h 7.55905" fill="none" stroke="#a6bdd7"/>
<g stroke="black" stroke-width="1" fill="none">
<line x1="260.287" y1="159.613" x2="261.287" y2="159.613"/>
</g>
<path d="M276.406,141.415v -88.3214" fill="none" stroke="#a6bdd7"/>
<path d="M276.406,53.0934v -14.6464" fill="none" stroke="#a6bdd7"/>
<path d="M268.846,53.0934h 7.55905" fill="none" stroke="#a6bdd7"/>
<path d="M276.406,53.0934h 7.55905" fill="none" stroke="#a6bdd7"/>
<g stroke="black" stroke-width="1" fill="none">
<line x1="275.406" y1="53.0934" x2="276.406" y2="53.0934"/>
</g>
<path d="M291.524,186.243v -79.8897" fill="none" stroke="#a6bdd7"/>
<path d="M291.524,106.353v -67.9062" fill="none" stroke="#a6bdd7"/>
<path d="M283.965,106.353h 7.55905" fill="none" stroke="#a6bdd7"/>
<path d="M291.524,106.353h 7.55905" fill="none" stroke="#a6bdd7"/>
<g stroke="black" stroke-width="1" fill="none">
<line x1="290.524" y1="106.353" x2="291.524" y2="106.353"/>
</g>
<path d="M306.642,251.473v -65.2297" fill="none" stroke="#a6bdd7"/>
<path d="M306.642,186.243v -65.2297" fill="none" stroke="#a6bdd7"/>
<path d="M299.083,186.243h 7.55905" fill="none" stroke="#a6bdd7"/>
<path d="M306.642,186.243h 7.55905" fill="none" stroke="#a6bdd7"/>
<g stroke="black" stroke-width="1" fill="none">
<line x1="305.642" y1="186.243" x2="306.642" y2="186.243"/>
</g>
<path d="M321.76,312.257v -46.1243" fill="none" stroke="#a6bdd7"/>
<path d="M321.76,266.133v -46.1243" fill="none" stroke="#a6bdd7"/>
<path d="M314.201,266.133h 7.55905" fill="none" stroke="#a6bdd7"/>
<path d="M321.76,266.133h 7.55905" fill="none" stroke="#a6bdd7"/>
<g stroke="black" stroke-width="1" fill="none">
<line x1="320.76" y1="266.133" x2="321.76" y2="266.133"/>
</g>
<path d="M336.878,208.304v -75.3207" fill="none" stroke="#a6bdd7"/>
<path d="M336.878,132.983v -75.3207" fill="none" stroke="#a6bdd7"/>
<path d="M329.319,132.983h 7.55905" fill="none" stroke="#a6bdd7"/>
<path d="M336.878,132.983h 7.55905" fill="none" stroke="#a6bdd7"/>
<g stroke="black" stroke-width="1" fill="none">
<line x1="335.878" y1="132.983" x2="336.878" y2="132.983"/>
</g>
<path d="M351.996,272.419v -59.5463" fill="none" stroke="#a6bdd7"/>
<path d="M351.996,212.873v -59.5463" fill="none" stroke="#a6bdd7"/>
<path d="M344.437,212.873h 7.55905" fill="none" stroke="#a6bdd7"/>
<path d="M351.996,212.873h 7.55905" fill="none" stroke="#a6bdd7"/>
<g stroke="black" stroke-width="1" fill="none">
<line x1="350.996" y1="212.873" x2="351.996" y2="212.873"/>
</g>
<path d="M367.114,292.762v -53.2598" fill="none" stroke="#a6bdd7"/>
<path d="M367.114,239.503v -53.2598" fill="none" stroke="#a6bdd7"/>
<path d="M359.555,239.503h 7.55905" fill="none" stroke="#a6bdd7"/>
<path d="M367.114,239.503h 7.55905" fill="none" stroke="#a6bdd7"/>
<g stroke="black" stroke-width="1" fill="none">
<line x1="366.114" y1="239.503" x2="367.114" y2="239.503"/>
</g>
<g stroke="black" stroke-width="1" fill="none">
<line x1="381.232" y1="346.022" x2="382.232" y2="346.022"/>
</g>
<g stroke="black" stroke-width="1" fill="none">
<line x1="396.35" y1="346.022" x2="397.35" y2="346.022"/>
</g>
<g stroke="black" stroke-width="1" fill="none">
<line x1="411.469" y1="346.022" x2="412.469" y2="346.022"/>
</g>
<g stroke="black" stroke-width="1" fill="none">
<line x1="426.587" y1="346.022" x2="427.587" y2="346.022"/>
</g>
<g stroke="black" stroke-width="1" fill="none">
<line x1="441.705" y1="346.022" x2="442.705" y2="346.022"/>
</g>
<g stroke="black" stroke-width="1" fill="none">
<line x1="456.823" y1="346.022" x2="457.823" y2="346.022"/>
</g>
<g stroke="black" stroke-width="1" fill="none">
<line x1="471.941" y1="346.022" x2="472.941" y2="346.022"/>
</g>
<g stroke="black" stroke-width="1" fill="none">
<line x1="487.059" y1="346.022" x2="488.059" y2="346.022"/>
</g>
<g stroke="black" stroke-width="1" fill="none">
<line x1="502.177" y1="346.022" x2="503.177" y2="346.022"/>
</g>
<path d="M59.4606,346.022h 13.6063l 4.53543, -0.0352009l 4.53543, -0.0145497l 4.53543, -0.0200621l 4.53543, -0.0274537l 4.53543, -0.0372834l 4.53543, -0.0502474l 4.53543, -0.0672022l 4.53543, -0.0891902l 4.53543, -0.117463l 4.53543, -0.153506l
 4.53543, -0.199057l 4.53543, -0.256119l 4.53543, -0.326967l 4.53543, -0.414142l 4.53543, -0.520426l 4.53543, -0.648806l 4.53543, -0.80241l 4.53543, -0.98442l 4.53543, -1.19796l 4.53543, -1.44596l 4.53543, -1.73098l 4.53543, -2.05503l 4.53543,
 -2.41934l 4.53543, -2.82414l 4.53543, -3.26847l 4.53543, -3.74989l 4.53543, -4.26436l 4.53543, -4.80601l 4.53543, -5.36709l 4.53543, -5.93788l 4.53543, -6.5068l 4.53543, -7.06049l 4.53543, -7.58408l 4.53543, -8.06155l 4.53543, -8.47614l 4.53543,
 -8.81095l 4.53543, -9.04949l 4.53543, -9.1764l 4.53543, -9.17811l 4.53543, -9.04354l 4.53543, -8.7647l 4.53543, -8.33726l 4.53543, -7.76097l 4.53543, -7.03993l 4.53543, -6.18267l 4.53543, -5.20213" fill="none" stroke="#a6bdd7" stroke-width="2"/>
<path d="M281.697,175.955l 4.53543, -4.11528l 4.53543, -2.94273l 4.53543, -1.70804l 4.53543, -0.436974l 4.53543, 0.84344l 4.53543, 2.10583l 4.53543, 3.32346l 4.53543, 4.47119l 4.53543, 5.52632l 4.53543, 6.46932l 4.53543, 7.28446l 4.53543, 7.96019l
 4.53543, 8.48939l 4.53543, 8.86935l 4.53543, 9.10166l 4.53543, 9.19187l 4.53543, 9.14902l 4.53543, 8.98504l 4.53543, 8.71416l 4.53543, 8.35217l 4.53543, 7.91574l 4.53543, 7.42182l 4.53543, 6.88697l 4.53543, 6.32689l 4.53543, 5.75601l 4.53543,
 5.18713l 4.53543, 4.63127l 4.53543, 4.09752l 4.53543, 3.59301l 4.53543, 3.12302l 4.53543, 2.69107l 4.53543, 2.2991l 4.53543, 1.94767l 4.53543, 1.63621l 4.53543, 1.36321l 4.53543, 1.12646l 4.53543, 0.923276l 4.53543, 0.750642l 4.53543, 0.605403l
 4.53543, 0.484382l 4.53543, 0.384489l 4.53543, 0.302796l 4.53543, 0.236594l 4.53543, 0.183426l 4.53543, 0.141103l 4.53543, 0.107707l 4.53543, 0.0815815l 4.53543, 0.0613192l 4.53543, 0.0457369" fill="none" stroke="#a6bdd7" stroke-width="2"/>
<path d="M503.933,345.901l 4.53543, 0.0338542" fill="none" stroke="#a6bdd7" stroke-width="2"/>
<rect x="351.996" y="24.9905" width="204.094" height="76.8938" fill="white"/>
<path d="M351.996,101.884h 204.094" fill="none" stroke="black"/>
<path d="M556.091,101.884v -76.8938" fill="none" stroke="black"/>
<path d="M556.091,24.9905h -204.094" fill="none" stroke="black"/>
<path d="M351.996,24.9905v 76.8938" fill="none" stroke="black"/>
<text xml:space="preserve" x="376.824" y="39.0986" fill="black" font-size="16.6263" font-family="Helvetica"> / ndf </text>
<text xml:space="preserve" x="371.122" y="34.2112" fill="black" font-size="11.2509" font-family="Helvetica">2</text>
<text xml:space="preserve" x="362.162" y="39.0986" fill="black" font-size="16.6263" font-family="Times">&#0967;</text>
<text xml:space="preserve" x="468.868" y="40.7277" fill="black" font-size="16.6263" font-family="Helvetica"> 8.567 / 10</text>
<text xml:space="preserve" x="362.162" y="60.2769" fill="black" font-size="16.6263" font-family="Helvetica">Constant </text>
<text xml:space="preserve" x="500.636" y="60.2769" fill="black" font-size="16.6263" font-family="Helvetica"> 1.272</text>
<text xml:space="preserve" x="491.676" y="60.2769" fill="black" font-size="16.6263" font-family="Times">&#0177;</text>
<text xml:space="preserve" x="441.173" y="60.2769" fill="black" font-size="16.6263" font-family="Helvetica"> 6.733 </text>
<text xml:space="preserve" x="362.162" y="79.0117" fill="black" font-size="16.6263" font-family="Helvetica">Mean     </text>
<text xml:space="preserve" x="509.596" y="79.0117" fill="black" font-size="16.6263" font-family="Helvetica"> 16.3</text>
<text xml:space="preserve" x="500.636" y="79.0117" fill="black" font-size="16.6263" font-family="Times">&#0177;</text>
<text xml:space="preserve" x="454.206" y="79.0117" fill="black" font-size="16.6263" font-family="Helvetica">   320 </text>
<text xml:space="preserve" x="362.162" y="96.9318" fill="black" font-size="16.6263" font-family="Helvetica">Sigma    </text>
<text xml:space="preserve" x="500.636" y="98.561" fill="black" font-size="16.6263" font-family="Helvetica"> 15.38</text>
<text xml:space="preserve" x="491.676" y="98.561" fill="black" font-size="16.6263" font-family="Times">&#0177;</text>
<text xml:space="preserve" x="441.173" y="98.561" fill="black" font-size="16.6263" font-family="Helvetica"> 70.93 </text>
<text xml:space="preserve" x="199.251" y="17.9202" fill="black" font-size="18.7938" font-family="Helvetica">sector 10, vop 69.08</text></svg>
