<?xml version="1.0" standalone="no"?>
<svg width="567.429" height="384.969" viewBox="0 0 567.429 384.969" xmlns="http://www.w3.org/2000/svg" shape-rendering="crispEdges">
<title>
./adjusted_vop/sector_by_vop/sector-8_vop-69.08.svg
</title>
<desc>
Creator: ROOT Version 6.24/00
CreationDate: Mon Jul 19 21:24:20 2021</desc>
<defs>
</defs>
<rect x="0.5" y="0" width="566.929" height="384.469" fill="white"/>
<rect x="57.1929" y="38.4469" width="453.543" height="307.575" fill="white"/>
<rect x="57.1929" y="38.4469" width="453.543" height="307.575" fill="none" stroke="black"/>
<path d="M57.1929,346.022h 151.181v -117.172h 15.1181v -117.172h 15.1181v -58.5858h 30.2362v 117.172h 15.1181v -58.5858h 30.2362v 234.343h 196.535" fill="none" stroke="#a6bdd7"/>
<path d="M59.4606,345.959l 4.53543, -0.0269423l 4.53543, -0.0374469l 4.53543, -0.0516184l 4.53543, -0.0705654l 4.53543, -0.0956682l 4.53543, -0.128623l 4.53543, -0.171488l 4.53543, -0.226726l 4.53543, -0.297237l 4.53543, -0.386389l 4.53543,
 -0.498025l 4.53543, -0.636448l 4.53543, -0.806381l 4.53543, -1.01289l 4.53543, -1.26125l 4.53543, -1.55681l 4.53543, -1.90475l 4.53543, -2.30978l 4.53543, -2.77591l 4.53543, -3.30597l 4.53543, -3.9013l 4.53543, -4.5613l 4.53543, -5.28303l 4.53543,
 -6.06082l 4.53543, -6.88593l 4.53543, -7.74638l 4.53543, -8.62677l 4.53543, -9.50835l 4.53543, -10.3692l 4.53543, -11.1848l 4.53543, -11.9284l 4.53543, -12.5719l 4.53543, -13.0869l 4.53543, -13.4457l 4.53543, -13.6228l 4.53543, -13.5957l 4.53543,
 -13.3465l 4.53543, -12.863l 4.53543, -12.1393l 4.53543, -11.177l 4.53543, -9.98528l 4.53543, -8.58122l 4.53543, -6.98927l 4.53543, -5.24075l 4.53543, -3.3728l 4.53543, -1.42709l 4.53543, 0.551733l 4.53543, 2.51774l 4.53543, 4.4255" fill="none"
 stroke="#a6bdd7" stroke-width="2"/>
<path d="M281.697,98.3916l 4.53543, 6.23182l 4.53543, 7.89737l 4.53543, 9.38813l 4.53543, 10.6765l 4.53543, 11.742l 4.53543, 12.5721l 4.53543, 13.1617l 4.53543, 13.5136l 4.53543, 13.6372l 4.53543, 13.548l 4.53543, 13.2667l 4.53543, 12.8176l 4.53543,
 12.2275l 4.53543, 11.5248l 4.53543, 10.7377l 4.53543, 9.89373l 4.53543, 9.01844l 4.53543, 8.13502l 4.53543, 7.26363l 4.53543, 6.42118l 4.53543, 5.62116l 4.53543, 4.87372l 4.53543, 4.18585l 4.53543, 3.56166l 4.53543, 3.00274l 4.53543, 2.50856l
 4.53543, 2.0769l 4.53543, 1.70421l 4.53543, 1.38606l 4.53543, 1.11744l 4.53543, 0.893051l 4.53543, 0.707556l 4.53543, 0.555778l 4.53543, 0.432831l 4.53543, 0.334219l 4.53543, 0.255892l 4.53543, 0.194273l 4.53543, 0.146256l 4.53543, 0.109187l
 4.53543, 0.0808349l 4.53543, 0.0593486l 4.53543, 0.0432132l 4.53543, 0.0312051l 4.53543, 0.0223485l 4.53543, 0.0158743l 4.53543, 0.0357367h 13.6063" fill="none" stroke="#a6bdd7" stroke-width="2"/>
<path d="M503.933,346.022h 4.53543" fill="none" stroke="#a6bdd7" stroke-width="2"/>
<path d="M57.1929,346.022h 453.543" fill="none" stroke="black"/>
<path d="M57.1929,336.795v 9.22726" fill="none" stroke="black"/>
<path d="M72.311,341.409v 4.61363" fill="none" stroke="black"/>
<path d="M87.4291,341.409v 4.61363" fill="none" stroke="black"/>
<path d="M102.547,341.409v 4.61363" fill="none" stroke="black"/>
<path d="M117.665,341.409v 4.61363" fill="none" stroke="black"/>
<path d="M132.783,336.795v 9.22726" fill="none" stroke="black"/>
<path d="M147.902,341.409v 4.61363" fill="none" stroke="black"/>
<path d="M163.02,341.409v 4.61363" fill="none" stroke="black"/>
<path d="M178.138,341.409v 4.61363" fill="none" stroke="black"/>
<path d="M193.256,341.409v 4.61363" fill="none" stroke="black"/>
<path d="M208.374,336.795v 9.22726" fill="none" stroke="black"/>
<path d="M223.492,341.409v 4.61363" fill="none" stroke="black"/>
<path d="M238.61,341.409v 4.61363" fill="none" stroke="black"/>
<path d="M253.728,341.409v 4.61363" fill="none" stroke="black"/>
<path d="M268.846,341.409v 4.61363" fill="none" stroke="black"/>
<path d="M283.965,336.795v 9.22726" fill="none" stroke="black"/>
<path d="M299.083,341.409v 4.61363" fill="none" stroke="black"/>
<path d="M314.201,341.409v 4.61363" fill="none" stroke="black"/>
<path d="M329.319,341.409v 4.61363" fill="none" stroke="black"/>
<path d="M344.437,341.409v 4.61363" fill="none" stroke="black"/>
<path d="M359.555,336.795v 9.22726" fill="none" stroke="black"/>
<path d="M374.673,341.409v 4.61363" fill="none" stroke="black"/>
<path d="M389.791,341.409v 4.61363" fill="none" stroke="black"/>
<path d="M404.909,341.409v 4.61363" fill="none" stroke="black"/>
<path d="M420.028,341.409v 4.61363" fill="none" stroke="black"/>
<path d="M435.146,336.795v 9.22726" fill="none" stroke="black"/>
<path d="M450.264,341.409v 4.61363" fill="none" stroke="black"/>
<path d="M465.382,341.409v 4.61363" fill="none" stroke="black"/>
<path d="M480.5,341.409v 4.61363" fill="none" stroke="black"/>
<path d="M495.618,341.409v 4.61363" fill="none" stroke="black"/>
<path d="M510.736,336.795v 9.22726" fill="none" stroke="black"/>
<text xml:space="preserve" x="53.446" y="358.403" fill="black" font-size="12.8453" font-family="Helvetica">0</text>
<text xml:space="preserve" x="121.868" y="358.403" fill="black" font-size="12.8453" font-family="Helvetica">100</text>
<text xml:space="preserve" x="197.622" y="358.403" fill="black" font-size="12.8453" font-family="Helvetica">200</text>
<text xml:space="preserve" x="273.375" y="358.403" fill="black" font-size="12.8453" font-family="Helvetica">300</text>
<text xml:space="preserve" x="348.314" y="358.403" fill="black" font-size="12.8453" font-family="Helvetica">400</text>
<text xml:space="preserve" x="424.068" y="358.403" fill="black" font-size="12.8453" font-family="Helvetica">500</text>
<text xml:space="preserve" x="499.821" y="358.403" fill="black" font-size="12.8453" font-family="Helvetica">600</text>
<text xml:space="preserve" x="486.788" y="369.807" fill="black" font-size="12.8453" font-family="Helvetica">mpv</text>
<path d="M57.1929,346.022v -307.575" fill="none" stroke="black"/>
<path d="M70.7992,346.022h -13.6063" fill="none" stroke="black"/>
<path d="M63.9961,336.258h -6.80315" fill="none" stroke="black"/>
<path d="M63.9961,326.494h -6.80315" fill="none" stroke="black"/>
<path d="M63.9961,316.729h -6.80315" fill="none" stroke="black"/>
<path d="M63.9961,306.965h -6.80315" fill="none" stroke="black"/>
<path d="M70.7992,297.201h -13.6063" fill="none" stroke="black"/>
<path d="M63.9961,287.436h -6.80315" fill="none" stroke="black"/>
<path d="M63.9961,277.672h -6.80315" fill="none" stroke="black"/>
<path d="M63.9961,267.908h -6.80315" fill="none" stroke="black"/>
<path d="M63.9961,258.144h -6.80315" fill="none" stroke="black"/>
<path d="M70.7992,248.379h -13.6063" fill="none" stroke="black"/>
<path d="M63.9961,238.615h -6.80315" fill="none" stroke="black"/>
<path d="M63.9961,228.851h -6.80315" fill="none" stroke="black"/>
<path d="M63.9961,219.086h -6.80315" fill="none" stroke="black"/>
<path d="M63.9961,209.322h -6.80315" fill="none" stroke="black"/>
<path d="M70.7992,199.558h -13.6063" fill="none" stroke="black"/>
<path d="M63.9961,189.794h -6.80315" fill="none" stroke="black"/>
<path d="M63.9961,180.029h -6.80315" fill="none" stroke="black"/>
<path d="M63.9961,170.265h -6.80315" fill="none" stroke="black"/>
<path d="M63.9961,160.501h -6.80315" fill="none" stroke="black"/>
<path d="M70.7992,150.736h -13.6063" fill="none" stroke="black"/>
<path d="M63.9961,140.972h -6.80315" fill="none" stroke="black"/>
<path d="M63.9961,131.208h -6.80315" fill="none" stroke="black"/>
<path d="M63.9961,121.443h -6.80315" fill="none" stroke="black"/>
<path d="M63.9961,111.679h -6.80315" fill="none" stroke="black"/>
<path d="M70.7992,101.915h -13.6063" fill="none" stroke="black"/>
<path d="M63.9961,92.1506h -6.80315" fill="none" stroke="black"/>
<path d="M63.9961,82.3863h -6.80315" fill="none" stroke="black"/>
<path d="M63.9961,72.622h -6.80315" fill="none" stroke="black"/>
<path d="M63.9961,62.8577h -6.80315" fill="none" stroke="black"/>
<path d="M70.7992,53.0934h -13.6063" fill="none" stroke="black"/>
<path d="M70.7992,53.0934h -13.6063" fill="none" stroke="black"/>
<path d="M63.9961,43.3291h -6.80315" fill="none" stroke="black"/>
<text xml:space="preserve" x="47.7441" y="350.258" fill="black" font-size="12.8453" font-family="Helvetica">0</text>
<text xml:space="preserve" x="47.7441" y="301.385" fill="black" font-size="12.8453" font-family="Helvetica">5</text>
<text xml:space="preserve" x="41.2277" y="252.512" fill="black" font-size="12.8453" font-family="Helvetica">10</text>
<text xml:space="preserve" x="40.4131" y="203.638" fill="black" font-size="12.8453" font-family="Helvetica">15</text>
<text xml:space="preserve" x="41.2277" y="155.58" fill="black" font-size="12.8453" font-family="Helvetica">20</text>
<text xml:space="preserve" x="40.4131" y="106.706" fill="black" font-size="12.8453" font-family="Helvetica">25</text>
<text xml:space="preserve" x="41.2277" y="57.8333" fill="black" font-size="12.8453" font-family="Helvetica">30</text>
<g transform="rotate(-90,27.3803,86.3427)">
<text xml:space="preserve" x="27.3803" y="86.3427" fill="black" font-size="12.8453" font-family="Helvetica">n_blocks</text>
</g>
<text xml:space="preserve" x="204.138" y="17.9202" fill="black" font-size="18.7938" font-family="Helvetica">sector 8, vop 69.08</text>
<rect x="351.996" y="24.9905" width="204.094" height="76.8938" fill="white"/>
<path d="M351.996,101.884h 204.094" fill="none" stroke="black"/>
<path d="M556.091,101.884v -76.8938" fill="none" stroke="black"/>
<path d="M556.091,24.9905h -204.094" fill="none" stroke="black"/>
<path d="M351.996,24.9905v 76.8938" fill="none" stroke="black"/>
<text xml:space="preserve" x="376.824" y="39.0986" fill="black" font-size="16.6263" font-family="Helvetica"> / ndf </text>
<text xml:space="preserve" x="371.122" y="34.2112" fill="black" font-size="11.2509" font-family="Helvetica">2</text>
<text xml:space="preserve" x="362.162" y="39.0986" fill="black" font-size="16.6263" font-family="Times">&#0967;</text>
<text xml:space="preserve" x="477.828" y="40.7277" fill="black" font-size="16.6263" font-family="Helvetica"> 7.646 / 4</text>
<text xml:space="preserve" x="362.162" y="60.2769" fill="black" font-size="16.6263" font-family="Helvetica">Constant </text>
<text xml:space="preserve" x="509.596" y="60.2769" fill="black" font-size="16.6263" font-family="Helvetica"> 2.92</text>
<text xml:space="preserve" x="500.636" y="60.2769" fill="black" font-size="16.6263" font-family="Times">&#0177;</text>
<text xml:space="preserve" x="450.133" y="60.2769" fill="black" font-size="16.6263" font-family="Helvetica"> 26.13 </text>
<text xml:space="preserve" x="362.162" y="79.0117" fill="black" font-size="16.6263" font-family="Helvetica">Mean     </text>
<text xml:space="preserve" x="512.039" y="79.0117" fill="black" font-size="16.6263" font-family="Helvetica"> 13.1</text>
<text xml:space="preserve" x="503.079" y="79.0117" fill="black" font-size="16.6263" font-family="Times">&#0177;</text>
<text xml:space="preserve" x="452.577" y="79.0117" fill="black" font-size="16.6263" font-family="Helvetica"> 280.3 </text>
<text xml:space="preserve" x="362.162" y="96.9318" fill="black" font-size="16.6263" font-family="Helvetica">Sigma    </text>
<text xml:space="preserve" x="500.636" y="98.561" fill="black" font-size="16.6263" font-family="Helvetica"> 19.42</text>
<text xml:space="preserve" x="491.676" y="98.561" fill="black" font-size="16.6263" font-family="Times">&#0177;</text>
<text xml:space="preserve" x="441.173" y="98.561" fill="black" font-size="16.6263" font-family="Helvetica"> 68.05 </text>
<g stroke="black" stroke-width="1" fill="none">
<line x1="63.752" y1="346.022" x2="64.752" y2="346.022"/>
</g>
<g stroke="black" stroke-width="1" fill="none">
<line x1="78.8701" y1="346.022" x2="79.8701" y2="346.022"/>
</g>
<g stroke="black" stroke-width="1" fill="none">
<line x1="93.9882" y1="346.022" x2="94.9882" y2="346.022"/>
</g>
<g stroke="black" stroke-width="1" fill="none">
<line x1="109.106" y1="346.022" x2="110.106" y2="346.022"/>
</g>
<g stroke="black" stroke-width="1" fill="none">
<line x1="124.224" y1="346.022" x2="125.224" y2="346.022"/>
</g>
<g stroke="black" stroke-width="1" fill="none">
<line x1="139.343" y1="346.022" x2="140.343" y2="346.022"/>
</g>
<g stroke="black" stroke-width="1" fill="none">
<line x1="154.461" y1="346.022" x2="155.461" y2="346.022"/>
</g>
<g stroke="black" stroke-width="1" fill="none">
<line x1="169.579" y1="346.022" x2="170.579" y2="346.022"/>
</g>
<g stroke="black" stroke-width="1" fill="none">
<line x1="184.697" y1="346.022" x2="185.697" y2="346.022"/>
</g>
<g stroke="black" stroke-width="1" fill="none">
<line x1="199.815" y1="346.022" x2="200.815" y2="346.022"/>
</g>
<path d="M215.933,262.675v -33.8245" fill="none" stroke="#a6bdd7"/>
<path d="M215.933,228.851v -33.8245" fill="none" stroke="#a6bdd7"/>
<path d="M208.374,228.851h 7.55905" fill="none" stroke="#a6bdd7"/>
<path d="M215.933,228.851h 7.55905" fill="none" stroke="#a6bdd7"/>
<g stroke="black" stroke-width="1" fill="none">
<line x1="214.933" y1="228.851" x2="215.933" y2="228.851"/>
</g>
<path d="M231.051,159.514v -47.8351" fill="none" stroke="#a6bdd7"/>
<path d="M231.051,111.679v -47.8351" fill="none" stroke="#a6bdd7"/>
<path d="M223.492,111.679h 7.55905" fill="none" stroke="#a6bdd7"/>
<path d="M231.051,111.679h 7.55905" fill="none" stroke="#a6bdd7"/>
<g stroke="black" stroke-width="1" fill="none">
<line x1="230.051" y1="111.679" x2="231.051" y2="111.679"/>
</g>
<path d="M246.169,106.575v -53.4813" fill="none" stroke="#a6bdd7"/>
<path d="M246.169,53.0934v -14.6464" fill="none" stroke="#a6bdd7"/>
<path d="M238.61,53.0934h 7.55905" fill="none" stroke="#a6bdd7"/>
<path d="M246.169,53.0934h 7.55905" fill="none" stroke="#a6bdd7"/>
<g stroke="black" stroke-width="1" fill="none">
<line x1="245.169" y1="53.0934" x2="246.169" y2="53.0934"/>
</g>
<path d="M261.287,106.575v -53.4813" fill="none" stroke="#a6bdd7"/>
<path d="M261.287,53.0934v -14.6464" fill="none" stroke="#a6bdd7"/>
<path d="M253.728,53.0934h 7.55905" fill="none" stroke="#a6bdd7"/>
<path d="M261.287,53.0934h 7.55905" fill="none" stroke="#a6bdd7"/>
<g stroke="black" stroke-width="1" fill="none">
<line x1="260.287" y1="53.0934" x2="261.287" y2="53.0934"/>
</g>
<path d="M276.406,211.691v -41.4264" fill="none" stroke="#a6bdd7"/>
<path d="M276.406,170.265v -41.4264" fill="none" stroke="#a6bdd7"/>
<path d="M268.846,170.265h 7.55905" fill="none" stroke="#a6bdd7"/>
<path d="M276.406,170.265h 7.55905" fill="none" stroke="#a6bdd7"/>
<g stroke="black" stroke-width="1" fill="none">
<line x1="275.406" y1="170.265" x2="276.406" y2="170.265"/>
</g>
<path d="M291.524,159.514v -47.8351" fill="none" stroke="#a6bdd7"/>
<path d="M291.524,111.679v -47.8351" fill="none" stroke="#a6bdd7"/>
<path d="M283.965,111.679h 7.55905" fill="none" stroke="#a6bdd7"/>
<path d="M291.524,111.679h 7.55905" fill="none" stroke="#a6bdd7"/>
<g stroke="black" stroke-width="1" fill="none">
<line x1="290.524" y1="111.679" x2="291.524" y2="111.679"/>
</g>
<path d="M306.642,159.514v -47.8351" fill="none" stroke="#a6bdd7"/>
<path d="M306.642,111.679v -47.8351" fill="none" stroke="#a6bdd7"/>
<path d="M299.083,111.679h 7.55905" fill="none" stroke="#a6bdd7"/>
<path d="M306.642,111.679h 7.55905" fill="none" stroke="#a6bdd7"/>
<g stroke="black" stroke-width="1" fill="none">
<line x1="305.642" y1="111.679" x2="306.642" y2="111.679"/>
</g>
<g stroke="black" stroke-width="1" fill="none">
<line x1="320.76" y1="346.022" x2="321.76" y2="346.022"/>
</g>
<g stroke="black" stroke-width="1" fill="none">
<line x1="335.878" y1="346.022" x2="336.878" y2="346.022"/>
</g>
<g stroke="black" stroke-width="1" fill="none">
<line x1="350.996" y1="346.022" x2="351.996" y2="346.022"/>
</g>
<g stroke="black" stroke-width="1" fill="none">
<line x1="366.114" y1="346.022" x2="367.114" y2="346.022"/>
</g>
<g stroke="black" stroke-width="1" fill="none">
<line x1="381.232" y1="346.022" x2="382.232" y2="346.022"/>
</g>
<g stroke="black" stroke-width="1" fill="none">
<line x1="396.35" y1="346.022" x2="397.35" y2="346.022"/>
</g>
<g stroke="black" stroke-width="1" fill="none">
<line x1="411.469" y1="346.022" x2="412.469" y2="346.022"/>
</g>
<g stroke="black" stroke-width="1" fill="none">
<line x1="426.587" y1="346.022" x2="427.587" y2="346.022"/>
</g>
<g stroke="black" stroke-width="1" fill="none">
<line x1="441.705" y1="346.022" x2="442.705" y2="346.022"/>
</g>
<g stroke="black" stroke-width="1" fill="none">
<line x1="456.823" y1="346.022" x2="457.823" y2="346.022"/>
</g>
<g stroke="black" stroke-width="1" fill="none">
<line x1="471.941" y1="346.022" x2="472.941" y2="346.022"/>
</g>
<g stroke="black" stroke-width="1" fill="none">
<line x1="487.059" y1="346.022" x2="488.059" y2="346.022"/>
</g>
<g stroke="black" stroke-width="1" fill="none">
<line x1="502.177" y1="346.022" x2="503.177" y2="346.022"/>
</g>
<path d="M59.4606,345.959l 4.53543, -0.0269423l 4.53543, -0.0374469l 4.53543, -0.0516184l 4.53543, -0.0705654l 4.53543, -0.0956682l 4.53543, -0.128623l 4.53543, -0.171488l 4.53543, -0.226726l 4.53543, -0.297237l 4.53543, -0.386389l 4.53543,
 -0.498025l 4.53543, -0.636448l 4.53543, -0.806381l 4.53543, -1.01289l 4.53543, -1.26125l 4.53543, -1.55681l 4.53543, -1.90475l 4.53543, -2.30978l 4.53543, -2.77591l 4.53543, -3.30597l 4.53543, -3.9013l 4.53543, -4.5613l 4.53543, -5.28303l 4.53543,
 -6.06082l 4.53543, -6.88593l 4.53543, -7.74638l 4.53543, -8.62677l 4.53543, -9.50835l 4.53543, -10.3692l 4.53543, -11.1848l 4.53543, -11.9284l 4.53543, -12.5719l 4.53543, -13.0869l 4.53543, -13.4457l 4.53543, -13.6228l 4.53543, -13.5957l 4.53543,
 -13.3465l 4.53543, -12.863l 4.53543, -12.1393l 4.53543, -11.177l 4.53543, -9.98528l 4.53543, -8.58122l 4.53543, -6.98927l 4.53543, -5.24075l 4.53543, -3.3728l 4.53543, -1.42709l 4.53543, 0.551733l 4.53543, 2.51774l 4.53543, 4.4255" fill="none"
 stroke="#a6bdd7" stroke-width="2"/>
<path d="M281.697,98.3916l 4.53543, 6.23182l 4.53543, 7.89737l 4.53543, 9.38813l 4.53543, 10.6765l 4.53543, 11.742l 4.53543, 12.5721l 4.53543, 13.1617l 4.53543, 13.5136l 4.53543, 13.6372l 4.53543, 13.548l 4.53543, 13.2667l 4.53543, 12.8176l 4.53543,
 12.2275l 4.53543, 11.5248l 4.53543, 10.7377l 4.53543, 9.89373l 4.53543, 9.01844l 4.53543, 8.13502l 4.53543, 7.26363l 4.53543, 6.42118l 4.53543, 5.62116l 4.53543, 4.87372l 4.53543, 4.18585l 4.53543, 3.56166l 4.53543, 3.00274l 4.53543, 2.50856l
 4.53543, 2.0769l 4.53543, 1.70421l 4.53543, 1.38606l 4.53543, 1.11744l 4.53543, 0.893051l 4.53543, 0.707556l 4.53543, 0.555778l 4.53543, 0.432831l 4.53543, 0.334219l 4.53543, 0.255892l 4.53543, 0.194273l 4.53543, 0.146256l 4.53543, 0.109187l
 4.53543, 0.0808349l 4.53543, 0.0593486l 4.53543, 0.0432132l 4.53543, 0.0312051l 4.53543, 0.0223485l 4.53543, 0.0158743l 4.53543, 0.0357367h 13.6063" fill="none" stroke="#a6bdd7" stroke-width="2"/>
<path d="M503.933,346.022h 4.53543" fill="none" stroke="#a6bdd7" stroke-width="2"/>
<rect x="351.996" y="24.9905" width="204.094" height="76.8938" fill="white"/>
<path d="M351.996,101.884h 204.094" fill="none" stroke="black"/>
<path d="M556.091,101.884v -76.8938" fill="none" stroke="black"/>
<path d="M556.091,24.9905h -204.094" fill="none" stroke="black"/>
<path d="M351.996,24.9905v 76.8938" fill="none" stroke="black"/>
<text xml:space="preserve" x="376.824" y="39.0986" fill="black" font-size="16.6263" font-family="Helvetica"> / ndf </text>
<text xml:space="preserve" x="371.122" y="34.2112" fill="black" font-size="11.2509" font-family="Helvetica">2</text>
<text xml:space="preserve" x="362.162" y="39.0986" fill="black" font-size="16.6263" font-family="Times">&#0967;</text>
<text xml:space="preserve" x="477.828" y="40.7277" fill="black" font-size="16.6263" font-family="Helvetica"> 7.646 / 4</text>
<text xml:space="preserve" x="362.162" y="60.2769" fill="black" font-size="16.6263" font-family="Helvetica">Constant </text>
<text xml:space="preserve" x="509.596" y="60.2769" fill="black" font-size="16.6263" font-family="Helvetica"> 2.92</text>
<text xml:space="preserve" x="500.636" y="60.2769" fill="black" font-size="16.6263" font-family="Times">&#0177;</text>
<text xml:space="preserve" x="450.133" y="60.2769" fill="black" font-size="16.6263" font-family="Helvetica"> 26.13 </text>
<text xml:space="preserve" x="362.162" y="79.0117" fill="black" font-size="16.6263" font-family="Helvetica">Mean     </text>
<text xml:space="preserve" x="512.039" y="79.0117" fill="black" font-size="16.6263" font-family="Helvetica"> 13.1</text>
<text xml:space="preserve" x="503.079" y="79.0117" fill="black" font-size="16.6263" font-family="Times">&#0177;</text>
<text xml:space="preserve" x="452.577" y="79.0117" fill="black" font-size="16.6263" font-family="Helvetica"> 280.3 </text>
<text xml:space="preserve" x="362.162" y="96.9318" fill="black" font-size="16.6263" font-family="Helvetica">Sigma    </text>
<text xml:space="preserve" x="500.636" y="98.561" fill="black" font-size="16.6263" font-family="Helvetica"> 19.42</text>
<text xml:space="preserve" x="491.676" y="98.561" fill="black" font-size="16.6263" font-family="Times">&#0177;</text>
<text xml:space="preserve" x="441.173" y="98.561" fill="black" font-size="16.6263" font-family="Helvetica"> 68.05 </text>
<text xml:space="preserve" x="204.138" y="17.9202" fill="black" font-size="18.7938" font-family="Helvetica">sector 8, vop 69.08</text></svg>
