<?xml version="1.0" standalone="no"?>
<svg width="567.429" height="384.969" viewBox="0 0 567.429 384.969" xmlns="http://www.w3.org/2000/svg" shape-rendering="crispEdges">
<title>
./adjusted_vop/sector_by_vop/sector-6_all.svg
</title>
<desc>
Creator: ROOT Version 6.22/02
CreationDate: Sat Jun 26 16:52:26 2021</desc>
<defs>
</defs>
<rect x="0.5" y="0" width="566.929" height="384.469" fill="white"/>
<rect x="57.1929" y="38.4469" width="453.543" height="307.575" fill="white"/>
<rect x="57.1929" y="38.4469" width="453.543" height="307.575" fill="none" stroke="black"/>
<path d="M57.1929,346.022h 453.543" fill="none" stroke="#000099"/>
<path d="M57.1929,346.022h 453.543" fill="none" stroke="black"/>
<path d="M57.1929,336.795v 9.22726" fill="none" stroke="black"/>
<path d="M72.311,341.409v 4.61363" fill="none" stroke="black"/>
<path d="M87.4291,341.409v 4.61363" fill="none" stroke="black"/>
<path d="M102.547,341.409v 4.61363" fill="none" stroke="black"/>
<path d="M117.665,341.409v 4.61363" fill="none" stroke="black"/>
<path d="M132.783,336.795v 9.22726" fill="none" stroke="black"/>
<path d="M147.902,341.409v 4.61363" fill="none" stroke="black"/>
<path d="M163.02,341.409v 4.61363" fill="none" stroke="black"/>
<path d="M178.138,341.409v 4.61363" fill="none" stroke="black"/>
<path d="M193.256,341.409v 4.61363" fill="none" stroke="black"/>
<path d="M208.374,336.795v 9.22726" fill="none" stroke="black"/>
<path d="M223.492,341.409v 4.61363" fill="none" stroke="black"/>
<path d="M238.61,341.409v 4.61363" fill="none" stroke="black"/>
<path d="M253.728,341.409v 4.61363" fill="none" stroke="black"/>
<path d="M268.846,341.409v 4.61363" fill="none" stroke="black"/>
<path d="M283.965,336.795v 9.22726" fill="none" stroke="black"/>
<path d="M299.083,341.409v 4.61363" fill="none" stroke="black"/>
<path d="M314.201,341.409v 4.61363" fill="none" stroke="black"/>
<path d="M329.319,341.409v 4.61363" fill="none" stroke="black"/>
<path d="M344.437,341.409v 4.61363" fill="none" stroke="black"/>
<path d="M359.555,336.795v 9.22726" fill="none" stroke="black"/>
<path d="M374.673,341.409v 4.61363" fill="none" stroke="black"/>
<path d="M389.791,341.409v 4.61363" fill="none" stroke="black"/>
<path d="M404.909,341.409v 4.61363" fill="none" stroke="black"/>
<path d="M420.028,341.409v 4.61363" fill="none" stroke="black"/>
<path d="M435.146,336.795v 9.22726" fill="none" stroke="black"/>
<path d="M450.264,341.409v 4.61363" fill="none" stroke="black"/>
<path d="M465.382,341.409v 4.61363" fill="none" stroke="black"/>
<path d="M480.5,341.409v 4.61363" fill="none" stroke="black"/>
<path d="M495.618,341.409v 4.61363" fill="none" stroke="black"/>
<path d="M510.736,336.795v 9.22726" fill="none" stroke="black"/>
<text xml:space="preserve" x="53.446" y="358.403" fill="black" font-size="12.8453" font-family="Helvetica">0</text>
<text xml:space="preserve" x="121.868" y="358.403" fill="black" font-size="12.8453" font-family="Helvetica">100</text>
<text xml:space="preserve" x="197.622" y="358.403" fill="black" font-size="12.8453" font-family="Helvetica">200</text>
<text xml:space="preserve" x="273.375" y="358.403" fill="black" font-size="12.8453" font-family="Helvetica">300</text>
<text xml:space="preserve" x="348.314" y="358.403" fill="black" font-size="12.8453" font-family="Helvetica">400</text>
<text xml:space="preserve" x="424.068" y="358.403" fill="black" font-size="12.8453" font-family="Helvetica">500</text>
<text xml:space="preserve" x="499.821" y="358.403" fill="black" font-size="12.8453" font-family="Helvetica">600</text>
<text xml:space="preserve" x="486.788" y="369.807" fill="black" font-size="12.8453" font-family="Helvetica">mpv</text>
<path d="M57.1929,346.022v -307.575" fill="none" stroke="black"/>
<path d="M70.7992,346.022h -13.6063" fill="none" stroke="black"/>
<path d="M63.9961,339.513h -6.80315" fill="none" stroke="black"/>
<path d="M63.9961,333.003h -6.80315" fill="none" stroke="black"/>
<path d="M63.9961,326.494h -6.80315" fill="none" stroke="black"/>
<path d="M63.9961,319.984h -6.80315" fill="none" stroke="black"/>
<path d="M70.7992,313.475h -13.6063" fill="none" stroke="black"/>
<path d="M63.9961,306.965h -6.80315" fill="none" stroke="black"/>
<path d="M63.9961,300.456h -6.80315" fill="none" stroke="black"/>
<path d="M63.9961,293.946h -6.80315" fill="none" stroke="black"/>
<path d="M63.9961,287.436h -6.80315" fill="none" stroke="black"/>
<path d="M70.7992,280.927h -13.6063" fill="none" stroke="black"/>
<path d="M63.9961,274.417h -6.80315" fill="none" stroke="black"/>
<path d="M63.9961,267.908h -6.80315" fill="none" stroke="black"/>
<path d="M63.9961,261.398h -6.80315" fill="none" stroke="black"/>
<path d="M63.9961,254.889h -6.80315" fill="none" stroke="black"/>
<path d="M70.7992,248.379h -13.6063" fill="none" stroke="black"/>
<path d="M63.9961,241.87h -6.80315" fill="none" stroke="black"/>
<path d="M63.9961,235.36h -6.80315" fill="none" stroke="black"/>
<path d="M63.9961,228.851h -6.80315" fill="none" stroke="black"/>
<path d="M63.9961,222.341h -6.80315" fill="none" stroke="black"/>
<path d="M70.7992,215.832h -13.6063" fill="none" stroke="black"/>
<path d="M63.9961,209.322h -6.80315" fill="none" stroke="black"/>
<path d="M63.9961,202.813h -6.80315" fill="none" stroke="black"/>
<path d="M63.9961,196.303h -6.80315" fill="none" stroke="black"/>
<path d="M63.9961,189.794h -6.80315" fill="none" stroke="black"/>
<path d="M70.7992,183.284h -13.6063" fill="none" stroke="black"/>
<path d="M63.9961,176.774h -6.80315" fill="none" stroke="black"/>
<path d="M63.9961,170.265h -6.80315" fill="none" stroke="black"/>
<path d="M63.9961,163.755h -6.80315" fill="none" stroke="black"/>
<path d="M63.9961,157.246h -6.80315" fill="none" stroke="black"/>
<path d="M70.7992,150.736h -13.6063" fill="none" stroke="black"/>
<path d="M63.9961,144.227h -6.80315" fill="none" stroke="black"/>
<path d="M63.9961,137.717h -6.80315" fill="none" stroke="black"/>
<path d="M63.9961,131.208h -6.80315" fill="none" stroke="black"/>
<path d="M63.9961,124.698h -6.80315" fill="none" stroke="black"/>
<path d="M70.7992,118.189h -13.6063" fill="none" stroke="black"/>
<path d="M63.9961,111.679h -6.80315" fill="none" stroke="black"/>
<path d="M63.9961,105.17h -6.80315" fill="none" stroke="black"/>
<path d="M63.9961,98.6601h -6.80315" fill="none" stroke="black"/>
<path d="M63.9961,92.1506h -6.80315" fill="none" stroke="black"/>
<path d="M70.7992,85.641h -13.6063" fill="none" stroke="black"/>
<path d="M63.9961,79.1315h -6.80315" fill="none" stroke="black"/>
<path d="M63.9961,72.622h -6.80315" fill="none" stroke="black"/>
<path d="M63.9961,66.1124h -6.80315" fill="none" stroke="black"/>
<path d="M63.9961,59.6029h -6.80315" fill="none" stroke="black"/>
<path d="M70.7992,53.0934h -13.6063" fill="none" stroke="black"/>
<path d="M70.7992,53.0934h -13.6063" fill="none" stroke="black"/>
<path d="M63.9961,46.5838h -6.80315" fill="none" stroke="black"/>
<path d="M63.9961,40.0743h -6.80315" fill="none" stroke="black"/>
<text xml:space="preserve" x="47.7441" y="350.258" fill="black" font-size="12.8453" font-family="Helvetica">0</text>
<text xml:space="preserve" x="49.3732" y="317.676" fill="black" font-size="12.8453" font-family="Helvetica">1</text>
<text xml:space="preserve" x="47.7441" y="285.094" fill="black" font-size="12.8453" font-family="Helvetica">2</text>
<text xml:space="preserve" x="47.7441" y="252.512" fill="black" font-size="12.8453" font-family="Helvetica">3</text>
<text xml:space="preserve" x="47.7441" y="219.929" fill="black" font-size="12.8453" font-family="Helvetica">4</text>
<text xml:space="preserve" x="47.7441" y="188.162" fill="black" font-size="12.8453" font-family="Helvetica">5</text>
<text xml:space="preserve" x="47.7441" y="155.58" fill="black" font-size="12.8453" font-family="Helvetica">6</text>
<text xml:space="preserve" x="47.7441" y="122.998" fill="black" font-size="12.8453" font-family="Helvetica">7</text>
<text xml:space="preserve" x="47.7441" y="90.4154" fill="black" font-size="12.8453" font-family="Helvetica">8</text>
<text xml:space="preserve" x="47.7441" y="57.8333" fill="black" font-size="12.8453" font-family="Helvetica">9</text>
<g transform="rotate(-90,34.7112,86.3427)">
<text xml:space="preserve" x="34.7112" y="86.3427" fill="black" font-size="12.8453" font-family="Helvetica">n_blocks</text>
</g>
<text xml:space="preserve" x="253.826" y="18.7347" fill="black" font-size="16.9898" font-family="Helvetica">sector 6</text>
<rect x="57.6465" y="346.022" width="7.10551" height="0" fill="#c10020" fill-opacity="0.50" stroke-opacity="0.50"/>
<rect x="72.7646" y="346.022" width="7.10551" height="0" fill="#c10020" fill-opacity="0.50" stroke-opacity="0.50"/>
<rect x="87.8827" y="346.022" width="7.10551" height="0" fill="#c10020" fill-opacity="0.50" stroke-opacity="0.50"/>
<rect x="103.001" y="346.022" width="7.10551" height="0" fill="#c10020" fill-opacity="0.50" stroke-opacity="0.50"/>
<rect x="118.119" y="346.022" width="7.10551" height="0" fill="#c10020" fill-opacity="0.50" stroke-opacity="0.50"/>
<rect x="133.237" y="346.022" width="7.10551" height="0" fill="#c10020" fill-opacity="0.50" stroke-opacity="0.50"/>
<rect x="148.355" y="346.022" width="7.10551" height="0" fill="#c10020" fill-opacity="0.50" stroke-opacity="0.50"/>
<rect x="163.473" y="346.022" width="7.10551" height="0" fill="#c10020" fill-opacity="0.50" stroke-opacity="0.50"/>
<rect x="178.591" y="346.022" width="7.10551" height="0" fill="#c10020" fill-opacity="0.50" stroke-opacity="0.50"/>
<rect x="193.709" y="346.022" width="7.10551" height="0" fill="#c10020" fill-opacity="0.50" stroke-opacity="0.50"/>
<rect x="208.828" y="346.022" width="7.10551" height="0" fill="#c10020" fill-opacity="0.50" stroke-opacity="0.50"/>
<rect x="223.946" y="313.475" width="7.10551" height="32.5477" fill="#c10020" fill-opacity="0.50" stroke-opacity="0.50"/>
<rect x="239.064" y="248.379" width="7.10551" height="97.643" fill="#c10020" fill-opacity="0.50" stroke-opacity="0.50"/>
<rect x="254.182" y="248.379" width="7.10551" height="97.643" fill="#c10020" fill-opacity="0.50" stroke-opacity="0.50"/>
<rect x="269.3" y="248.379" width="7.10551" height="97.643" fill="#c10020" fill-opacity="0.50" stroke-opacity="0.50"/>
<rect x="284.418" y="280.927" width="7.10551" height="65.0953" fill="#c10020" fill-opacity="0.50" stroke-opacity="0.50"/>
<rect x="299.536" y="248.379" width="7.10551" height="97.643" fill="#c10020" fill-opacity="0.50" stroke-opacity="0.50"/>
<rect x="314.654" y="313.475" width="7.10551" height="32.5477" fill="#c10020" fill-opacity="0.50" stroke-opacity="0.50"/>
<rect x="329.772" y="313.475" width="7.10551" height="32.5477" fill="#c10020" fill-opacity="0.50" stroke-opacity="0.50"/>
<rect x="344.891" y="346.022" width="7.10551" height="0" fill="#c10020" fill-opacity="0.50" stroke-opacity="0.50"/>
<rect x="360.009" y="346.022" width="7.10551" height="0" fill="#c10020" fill-opacity="0.50" stroke-opacity="0.50"/>
<rect x="375.127" y="346.022" width="7.10551" height="0" fill="#c10020" fill-opacity="0.50" stroke-opacity="0.50"/>
<rect x="390.245" y="346.022" width="7.10551" height="0" fill="#c10020" fill-opacity="0.50" stroke-opacity="0.50"/>
<rect x="405.363" y="346.022" width="7.10551" height="0" fill="#c10020" fill-opacity="0.50" stroke-opacity="0.50"/>
<rect x="420.481" y="346.022" width="7.10551" height="0" fill="#c10020" fill-opacity="0.50" stroke-opacity="0.50"/>
<rect x="435.599" y="346.022" width="7.10551" height="0" fill="#c10020" fill-opacity="0.50" stroke-opacity="0.50"/>
<rect x="450.717" y="346.022" width="7.10551" height="0" fill="#c10020" fill-opacity="0.50" stroke-opacity="0.50"/>
<rect x="465.835" y="346.022" width="7.10551" height="0" fill="#c10020" fill-opacity="0.50" stroke-opacity="0.50"/>
<rect x="480.954" y="346.022" width="7.10551" height="0" fill="#c10020" fill-opacity="0.50" stroke-opacity="0.50"/>
<rect x="496.072" y="346.022" width="7.10551" height="0" fill="#c10020" fill-opacity="0.50" stroke-opacity="0.50"/>
<path d="M59.4606,346.022h 68.0315l 4.53543, -0.0311255l 4.53543, -0.0201381l 4.53543, -0.031828l 4.53543, -0.0494524l 4.53543, -0.0755303l 4.53543, -0.113389l 4.53543, -0.167302l 4.53543, -0.242584l 4.53543, -0.345623l 4.53543, -0.4838l 4.53543,
 -0.665251l 4.53543, -0.898438l 4.53543, -1.19148l 4.53543, -1.55127l 4.53543, -1.98231l 4.53543, -2.48547l 4.53543, -3.0566l 4.53543, -3.68533l 4.53543, -4.35407l 4.53543, -5.03756l 4.53543, -5.7031l 4.53543, -6.31161l 4.53543, -6.8196l 4.53543,
 -7.18209l 4.53543, -7.3561l 4.53543, -7.30476l 4.53543, -7.00126l 4.53543, -6.43239l 4.53543, -5.60124l 4.53543, -4.52843l 4.53543, -3.25179l 4.53543, -1.82438l 4.53543, -0.310798l 4.53543, 1.21757" fill="none" stroke="#c10020" stroke-width="2"/>
<path d="M281.697,251.144l 4.53543, 2.68818l 4.53543, 4.03305l 4.53543, 5.19393l 4.53543, 6.12647l 4.53543, 6.80296l 4.53543, 7.21326l 4.53543, 7.36424l 4.53543, 7.27757l 4.53543, 6.98652l 4.53543, 6.53209l 4.53543, 5.9589l 4.53543, 5.31146l 4.53543,
 4.6309l 4.53543, 3.95271l 4.53543, 3.30522l 4.53543, 2.70911l 4.53543, 2.17759l 4.53543, 1.71718l 4.53543, 1.32889l 4.53543, 1.00953l 4.53543, 0.753022l 4.53543, 0.551627l 4.53543, 0.396928l 4.53543, 0.280591l 4.53543, 0.194892l 4.53543, 0.133023l
 4.53543, 0.0892314l 4.53543, 0.0588317l 4.53543, 0.0381281l 4.53543, 0.0242914l 4.53543, 0.0381725h 81.6378" fill="none" stroke="#c10020" stroke-width="2"/>
<path d="M503.933,346.022h 4.53543" fill="none" stroke="#c10020" stroke-width="2"/>
<rect x="64.752" y="346.022" width="7.10551" height="0" fill="#cea262" fill-opacity="0.50" stroke-opacity="0.50"/>
<rect x="79.8701" y="346.022" width="7.10551" height="0" fill="#cea262" fill-opacity="0.50" stroke-opacity="0.50"/>
<rect x="94.9882" y="346.022" width="7.10551" height="0" fill="#cea262" fill-opacity="0.50" stroke-opacity="0.50"/>
<rect x="110.106" y="346.022" width="7.10551" height="0" fill="#cea262" fill-opacity="0.50" stroke-opacity="0.50"/>
<rect x="125.224" y="346.022" width="7.10551" height="0" fill="#cea262" fill-opacity="0.50" stroke-opacity="0.50"/>
<rect x="140.343" y="346.022" width="7.10551" height="0" fill="#cea262" fill-opacity="0.50" stroke-opacity="0.50"/>
<rect x="155.461" y="346.022" width="7.10551" height="0" fill="#cea262" fill-opacity="0.50" stroke-opacity="0.50"/>
<rect x="170.579" y="346.022" width="7.10551" height="0" fill="#cea262" fill-opacity="0.50" stroke-opacity="0.50"/>
<rect x="185.697" y="346.022" width="7.10551" height="0" fill="#cea262" fill-opacity="0.50" stroke-opacity="0.50"/>
<rect x="200.815" y="280.927" width="7.10551" height="65.0953" fill="#cea262" fill-opacity="0.50" stroke-opacity="0.50"/>
<rect x="215.933" y="280.927" width="7.10551" height="65.0953" fill="#cea262" fill-opacity="0.50" stroke-opacity="0.50"/>
<rect x="231.051" y="150.736" width="7.10551" height="195.286" fill="#cea262" fill-opacity="0.50" stroke-opacity="0.50"/>
<rect x="246.169" y="150.736" width="7.10551" height="195.286" fill="#cea262" fill-opacity="0.50" stroke-opacity="0.50"/>
<rect x="261.287" y="150.736" width="7.10551" height="195.286" fill="#cea262" fill-opacity="0.50" stroke-opacity="0.50"/>
<rect x="276.406" y="53.0934" width="7.10551" height="292.929" fill="#cea262" fill-opacity="0.50" stroke-opacity="0.50"/>
<rect x="291.524" y="183.284" width="7.10551" height="162.738" fill="#cea262" fill-opacity="0.50" stroke-opacity="0.50"/>
<rect x="306.642" y="183.284" width="7.10551" height="162.738" fill="#cea262" fill-opacity="0.50" stroke-opacity="0.50"/>
<rect x="321.76" y="118.189" width="7.10551" height="227.834" fill="#cea262" fill-opacity="0.50" stroke-opacity="0.50"/>
<rect x="336.878" y="313.475" width="7.10551" height="32.5477" fill="#cea262" fill-opacity="0.50" stroke-opacity="0.50"/>
<rect x="351.996" y="346.022" width="7.10551" height="0" fill="#cea262" fill-opacity="0.50" stroke-opacity="0.50"/>
<rect x="367.114" y="313.475" width="7.10551" height="32.5477" fill="#cea262" fill-opacity="0.50" stroke-opacity="0.50"/>
<rect x="382.232" y="346.022" width="7.10551" height="0" fill="#cea262" fill-opacity="0.50" stroke-opacity="0.50"/>
<rect x="397.35" y="346.022" width="7.10551" height="0" fill="#cea262" fill-opacity="0.50" stroke-opacity="0.50"/>
<rect x="412.469" y="346.022" width="7.10551" height="0" fill="#cea262" fill-opacity="0.50" stroke-opacity="0.50"/>
<rect x="427.587" y="346.022" width="7.10551" height="0" fill="#cea262" fill-opacity="0.50" stroke-opacity="0.50"/>
<rect x="442.705" y="346.022" width="7.10551" height="0" fill="#cea262" fill-opacity="0.50" stroke-opacity="0.50"/>
<rect x="457.823" y="346.022" width="7.10551" height="0" fill="#cea262" fill-opacity="0.50" stroke-opacity="0.50"/>
<rect x="472.941" y="346.022" width="7.10551" height="0" fill="#cea262" fill-opacity="0.50" stroke-opacity="0.50"/>
<rect x="488.059" y="346.022" width="7.10551" height="0" fill="#cea262" fill-opacity="0.50" stroke-opacity="0.50"/>
<rect x="503.177" y="346.022" width="7.10551" height="0" fill="#cea262" fill-opacity="0.50" stroke-opacity="0.50"/>
<path d="M59.4606,346.022h 40.8189l 4.53543, -0.043128l 4.53543, -0.0254555l 4.53543, -0.0390857l 4.53543, -0.0591995l 4.53543, -0.0884423l 4.53543, -0.130323l 4.53543, -0.189399l 4.53543, -0.271456l 4.53543, -0.38367l 4.53543, -0.534711l 4.53543,
 -0.734758l 4.53543, -0.995389l 4.53543, -1.32929l 4.53543, -1.74972l 4.53543, -2.26978l 4.53543, -2.90134l 4.53543, -3.65373l 4.53543, -4.53221l 4.53543, -5.53629l 4.53543, -6.65804l 4.53543, -7.88054l 4.53543, -9.17669l 4.53543, -10.5086l 4.53543,
 -11.8276l 4.53543, -13.0756l 4.53543, -14.1868l 4.53543, -15.0911l 4.53543, -15.7182l 4.53543, -16.0022l 4.53543, -15.8868l 4.53543, -15.3304l 4.53543, -14.3105l 4.53543, -12.8274l 4.53543, -10.9056l 4.53543, -8.59475l 4.53543, -5.96728l 4.53543,
 -3.11501l 4.53543, -0.143814l 4.53543, 2.8329l 4.53543, 5.70137" fill="none" stroke="#cea262" stroke-width="2"/>
<path d="M281.697,121.882l 4.53543, 8.3547l 4.53543, 10.6995l 4.53543, 12.6611l 4.53543, 14.1879l 4.53543, 15.2527l 4.53543, 15.853l 4.53543, 16.0093l 4.53543, 15.7614l 4.53543, 15.1645l 4.53543, 14.2838l 4.53543, 13.1894l 4.53543, 11.9516l 4.53543,
 10.6367l 4.53543, 9.30382l 4.53543, 8.00241l 4.53543, 6.77149l 4.53543, 5.63917l 4.53543, 4.6233l 4.53543, 3.73263l 4.53543, 2.96827l 4.53543, 2.32546l 4.53543, 1.79517l 4.53543, 1.36572l 4.53543, 1.02408l 4.53543, 0.756977l 4.53543, 0.551632l
 4.53543, 0.396348l 4.53543, 0.280804l 4.53543, 0.196183l 4.53543, 0.135171l 4.53543, 0.0918541l 4.53543, 0.0615645l 4.53543, 0.0407007l 4.53543, 0.0265421l 4.53543, 0.0451191h 63.4961" fill="none" stroke="#cea262" stroke-width="2"/>
<path d="M503.933,346.022h 4.53543" fill="none" stroke="#cea262" stroke-width="2"/>
<path d="M57.1929,346.022h 453.543" fill="none" stroke="black"/>
<path d="M57.1929,336.795v 9.22726" fill="none" stroke="black"/>
<path d="M72.311,341.409v 4.61363" fill="none" stroke="black"/>
<path d="M87.4291,341.409v 4.61363" fill="none" stroke="black"/>
<path d="M102.547,341.409v 4.61363" fill="none" stroke="black"/>
<path d="M117.665,341.409v 4.61363" fill="none" stroke="black"/>
<path d="M132.783,336.795v 9.22726" fill="none" stroke="black"/>
<path d="M147.902,341.409v 4.61363" fill="none" stroke="black"/>
<path d="M163.02,341.409v 4.61363" fill="none" stroke="black"/>
<path d="M178.138,341.409v 4.61363" fill="none" stroke="black"/>
<path d="M193.256,341.409v 4.61363" fill="none" stroke="black"/>
<path d="M208.374,336.795v 9.22726" fill="none" stroke="black"/>
<path d="M223.492,341.409v 4.61363" fill="none" stroke="black"/>
<path d="M238.61,341.409v 4.61363" fill="none" stroke="black"/>
<path d="M253.728,341.409v 4.61363" fill="none" stroke="black"/>
<path d="M268.846,341.409v 4.61363" fill="none" stroke="black"/>
<path d="M283.965,336.795v 9.22726" fill="none" stroke="black"/>
<path d="M299.083,341.409v 4.61363" fill="none" stroke="black"/>
<path d="M314.201,341.409v 4.61363" fill="none" stroke="black"/>
<path d="M329.319,341.409v 4.61363" fill="none" stroke="black"/>
<path d="M344.437,341.409v 4.61363" fill="none" stroke="black"/>
<path d="M359.555,336.795v 9.22726" fill="none" stroke="black"/>
<path d="M374.673,341.409v 4.61363" fill="none" stroke="black"/>
<path d="M389.791,341.409v 4.61363" fill="none" stroke="black"/>
<path d="M404.909,341.409v 4.61363" fill="none" stroke="black"/>
<path d="M420.028,341.409v 4.61363" fill="none" stroke="black"/>
<path d="M435.146,336.795v 9.22726" fill="none" stroke="black"/>
<path d="M450.264,341.409v 4.61363" fill="none" stroke="black"/>
<path d="M465.382,341.409v 4.61363" fill="none" stroke="black"/>
<path d="M480.5,341.409v 4.61363" fill="none" stroke="black"/>
<path d="M495.618,341.409v 4.61363" fill="none" stroke="black"/>
<path d="M510.736,336.795v 9.22726" fill="none" stroke="black"/>
<path d="M57.1929,346.022v -307.575" fill="none" stroke="black"/>
<path d="M70.7992,346.022h -13.6063" fill="none" stroke="black"/>
<path d="M63.9961,339.513h -6.80315" fill="none" stroke="black"/>
<path d="M63.9961,333.003h -6.80315" fill="none" stroke="black"/>
<path d="M63.9961,326.494h -6.80315" fill="none" stroke="black"/>
<path d="M63.9961,319.984h -6.80315" fill="none" stroke="black"/>
<path d="M70.7992,313.475h -13.6063" fill="none" stroke="black"/>
<path d="M63.9961,306.965h -6.80315" fill="none" stroke="black"/>
<path d="M63.9961,300.456h -6.80315" fill="none" stroke="black"/>
<path d="M63.9961,293.946h -6.80315" fill="none" stroke="black"/>
<path d="M63.9961,287.436h -6.80315" fill="none" stroke="black"/>
<path d="M70.7992,280.927h -13.6063" fill="none" stroke="black"/>
<path d="M63.9961,274.417h -6.80315" fill="none" stroke="black"/>
<path d="M63.9961,267.908h -6.80315" fill="none" stroke="black"/>
<path d="M63.9961,261.398h -6.80315" fill="none" stroke="black"/>
<path d="M63.9961,254.889h -6.80315" fill="none" stroke="black"/>
<path d="M70.7992,248.379h -13.6063" fill="none" stroke="black"/>
<path d="M63.9961,241.87h -6.80315" fill="none" stroke="black"/>
<path d="M63.9961,235.36h -6.80315" fill="none" stroke="black"/>
<path d="M63.9961,228.851h -6.80315" fill="none" stroke="black"/>
<path d="M63.9961,222.341h -6.80315" fill="none" stroke="black"/>
<path d="M70.7992,215.832h -13.6063" fill="none" stroke="black"/>
<path d="M63.9961,209.322h -6.80315" fill="none" stroke="black"/>
<path d="M63.9961,202.813h -6.80315" fill="none" stroke="black"/>
<path d="M63.9961,196.303h -6.80315" fill="none" stroke="black"/>
<path d="M63.9961,189.794h -6.80315" fill="none" stroke="black"/>
<path d="M70.7992,183.284h -13.6063" fill="none" stroke="black"/>
<path d="M63.9961,176.774h -6.80315" fill="none" stroke="black"/>
<path d="M63.9961,170.265h -6.80315" fill="none" stroke="black"/>
<path d="M63.9961,163.755h -6.80315" fill="none" stroke="black"/>
<path d="M63.9961,157.246h -6.80315" fill="none" stroke="black"/>
<path d="M70.7992,150.736h -13.6063" fill="none" stroke="black"/>
<path d="M63.9961,144.227h -6.80315" fill="none" stroke="black"/>
<path d="M63.9961,137.717h -6.80315" fill="none" stroke="black"/>
<path d="M63.9961,131.208h -6.80315" fill="none" stroke="black"/>
<path d="M63.9961,124.698h -6.80315" fill="none" stroke="black"/>
<path d="M70.7992,118.189h -13.6063" fill="none" stroke="black"/>
<path d="M63.9961,111.679h -6.80315" fill="none" stroke="black"/>
<path d="M63.9961,105.17h -6.80315" fill="none" stroke="black"/>
<path d="M63.9961,98.6601h -6.80315" fill="none" stroke="black"/>
<path d="M63.9961,92.1506h -6.80315" fill="none" stroke="black"/>
<path d="M70.7992,85.641h -13.6063" fill="none" stroke="black"/>
<path d="M63.9961,79.1315h -6.80315" fill="none" stroke="black"/>
<path d="M63.9961,72.622h -6.80315" fill="none" stroke="black"/>
<path d="M63.9961,66.1124h -6.80315" fill="none" stroke="black"/>
<path d="M63.9961,59.6029h -6.80315" fill="none" stroke="black"/>
<path d="M70.7992,53.0934h -13.6063" fill="none" stroke="black"/>
<path d="M70.7992,53.0934h -13.6063" fill="none" stroke="black"/>
<path d="M63.9961,46.5838h -6.80315" fill="none" stroke="black"/>
<path d="M63.9961,40.0743h -6.80315" fill="none" stroke="black"/>
<rect x="58.0145" y="197.388" width="170.079" height="80.7385" fill="white"/>
<path d="M58.0145,278.127h 170.079" fill="none" stroke="black"/>
<path d="M228.093,278.127v -80.7385" fill="none" stroke="black"/>
<path d="M228.093,197.388h -170.079" fill="none" stroke="black"/>
<path d="M58.0145,197.388v 80.7385" fill="none" stroke="black"/>
<text xml:space="preserve" x="99.8755" y="226.446" fill="black" font-size="26.0796" font-family="Helvetica">vop 69.13</text>
<path d="M64.3925,231.702h 29.7638v -28.2585h -29.7638z" fill="#c10020" fill-opacity="0.50" stroke-opacity="0.50"/>
<path d="M64.3925,217.573h 29.7638" fill="none" stroke="#c10020" fill-opacity="0.00" stroke-opacity="0.00"/>
<g stroke="black" stroke-width="1" fill="none">
<line x1="78.2744" y1="217.573" x2="79.2744" y2="217.573"/>
</g>
<text xml:space="preserve" x="99.8755" y="266.359" fill="black" font-size="26.0796" font-family="Helvetica">vop 69.18</text>
<path d="M64.3925,272.071h 29.7638v -28.2585h -29.7638z" fill="#cea262" fill-opacity="0.50" stroke-opacity="0.50"/>
<path d="M64.3925,257.942h 29.7638" fill="none" stroke="#cea262" fill-opacity="0.00" stroke-opacity="0.00"/>
<g stroke="black" stroke-width="1" fill="none">
<line x1="78.2744" y1="257.942" x2="79.2744" y2="257.942"/>
</g>
<text xml:space="preserve" x="253.826" y="18.7347" fill="black" font-size="16.9898" font-family="Helvetica">sector 6</text></svg>
