<?xml version="1.0" standalone="no"?>
<svg width="567.429" height="384.969" viewBox="0 0 567.429 384.969" xmlns="http://www.w3.org/2000/svg" shape-rendering="crispEdges">
<title>
./adjusted_vop/sector_by_vop/sector-8_all.svg
</title>
<desc>
Creator: ROOT Version 6.22/02
CreationDate: Mon Jul 12 11:35:43 2021</desc>
<defs>
</defs>
<rect x="0.5" y="0" width="566.929" height="384.469" fill="white"/>
<rect x="57.1929" y="38.4469" width="453.543" height="307.575" fill="white"/>
<rect x="57.1929" y="38.4469" width="453.543" height="307.575" fill="none" stroke="black"/>
<path d="M57.1929,346.022h 453.543" fill="none" stroke="#000099"/>
<path d="M57.1929,346.022h 453.543" fill="none" stroke="black"/>
<path d="M57.1929,336.795v 9.22726" fill="none" stroke="black"/>
<path d="M72.311,341.409v 4.61363" fill="none" stroke="black"/>
<path d="M87.4291,341.409v 4.61363" fill="none" stroke="black"/>
<path d="M102.547,341.409v 4.61363" fill="none" stroke="black"/>
<path d="M117.665,341.409v 4.61363" fill="none" stroke="black"/>
<path d="M132.783,336.795v 9.22726" fill="none" stroke="black"/>
<path d="M147.902,341.409v 4.61363" fill="none" stroke="black"/>
<path d="M163.02,341.409v 4.61363" fill="none" stroke="black"/>
<path d="M178.138,341.409v 4.61363" fill="none" stroke="black"/>
<path d="M193.256,341.409v 4.61363" fill="none" stroke="black"/>
<path d="M208.374,336.795v 9.22726" fill="none" stroke="black"/>
<path d="M223.492,341.409v 4.61363" fill="none" stroke="black"/>
<path d="M238.61,341.409v 4.61363" fill="none" stroke="black"/>
<path d="M253.728,341.409v 4.61363" fill="none" stroke="black"/>
<path d="M268.846,341.409v 4.61363" fill="none" stroke="black"/>
<path d="M283.965,336.795v 9.22726" fill="none" stroke="black"/>
<path d="M299.083,341.409v 4.61363" fill="none" stroke="black"/>
<path d="M314.201,341.409v 4.61363" fill="none" stroke="black"/>
<path d="M329.319,341.409v 4.61363" fill="none" stroke="black"/>
<path d="M344.437,341.409v 4.61363" fill="none" stroke="black"/>
<path d="M359.555,336.795v 9.22726" fill="none" stroke="black"/>
<path d="M374.673,341.409v 4.61363" fill="none" stroke="black"/>
<path d="M389.791,341.409v 4.61363" fill="none" stroke="black"/>
<path d="M404.909,341.409v 4.61363" fill="none" stroke="black"/>
<path d="M420.028,341.409v 4.61363" fill="none" stroke="black"/>
<path d="M435.146,336.795v 9.22726" fill="none" stroke="black"/>
<path d="M450.264,341.409v 4.61363" fill="none" stroke="black"/>
<path d="M465.382,341.409v 4.61363" fill="none" stroke="black"/>
<path d="M480.5,341.409v 4.61363" fill="none" stroke="black"/>
<path d="M495.618,341.409v 4.61363" fill="none" stroke="black"/>
<path d="M510.736,336.795v 9.22726" fill="none" stroke="black"/>
<text xml:space="preserve" x="53.446" y="358.403" fill="black" font-size="12.8453" font-family="Helvetica">0</text>
<text xml:space="preserve" x="121.868" y="358.403" fill="black" font-size="12.8453" font-family="Helvetica">100</text>
<text xml:space="preserve" x="197.622" y="358.403" fill="black" font-size="12.8453" font-family="Helvetica">200</text>
<text xml:space="preserve" x="273.375" y="358.403" fill="black" font-size="12.8453" font-family="Helvetica">300</text>
<text xml:space="preserve" x="348.314" y="358.403" fill="black" font-size="12.8453" font-family="Helvetica">400</text>
<text xml:space="preserve" x="424.068" y="358.403" fill="black" font-size="12.8453" font-family="Helvetica">500</text>
<text xml:space="preserve" x="499.821" y="358.403" fill="black" font-size="12.8453" font-family="Helvetica">600</text>
<text xml:space="preserve" x="486.788" y="369.807" fill="black" font-size="12.8453" font-family="Helvetica">mpv</text>
<path d="M57.1929,346.022v -307.575" fill="none" stroke="black"/>
<path d="M70.7992,346.022h -13.6063" fill="none" stroke="black"/>
<path d="M63.9961,333.817h -6.80315" fill="none" stroke="black"/>
<path d="M63.9961,321.612h -6.80315" fill="none" stroke="black"/>
<path d="M63.9961,309.406h -6.80315" fill="none" stroke="black"/>
<path d="M70.7992,297.201h -13.6063" fill="none" stroke="black"/>
<path d="M63.9961,284.995h -6.80315" fill="none" stroke="black"/>
<path d="M63.9961,272.79h -6.80315" fill="none" stroke="black"/>
<path d="M63.9961,260.585h -6.80315" fill="none" stroke="black"/>
<path d="M70.7992,248.379h -13.6063" fill="none" stroke="black"/>
<path d="M63.9961,236.174h -6.80315" fill="none" stroke="black"/>
<path d="M63.9961,223.969h -6.80315" fill="none" stroke="black"/>
<path d="M63.9961,211.763h -6.80315" fill="none" stroke="black"/>
<path d="M70.7992,199.558h -13.6063" fill="none" stroke="black"/>
<path d="M63.9961,187.352h -6.80315" fill="none" stroke="black"/>
<path d="M63.9961,175.147h -6.80315" fill="none" stroke="black"/>
<path d="M63.9961,162.942h -6.80315" fill="none" stroke="black"/>
<path d="M70.7992,150.736h -13.6063" fill="none" stroke="black"/>
<path d="M63.9961,138.531h -6.80315" fill="none" stroke="black"/>
<path d="M63.9961,126.326h -6.80315" fill="none" stroke="black"/>
<path d="M63.9961,114.12h -6.80315" fill="none" stroke="black"/>
<path d="M70.7992,101.915h -13.6063" fill="none" stroke="black"/>
<path d="M63.9961,89.7095h -6.80315" fill="none" stroke="black"/>
<path d="M63.9961,77.5041h -6.80315" fill="none" stroke="black"/>
<path d="M63.9961,65.2987h -6.80315" fill="none" stroke="black"/>
<path d="M70.7992,53.0934h -13.6063" fill="none" stroke="black"/>
<path d="M70.7992,53.0934h -13.6063" fill="none" stroke="black"/>
<path d="M63.9961,40.888h -6.80315" fill="none" stroke="black"/>
<text xml:space="preserve" x="47.7441" y="350.258" fill="black" font-size="12.8453" font-family="Helvetica">0</text>
<text xml:space="preserve" x="47.7441" y="301.385" fill="black" font-size="12.8453" font-family="Helvetica">2</text>
<text xml:space="preserve" x="47.7441" y="252.512" fill="black" font-size="12.8453" font-family="Helvetica">4</text>
<text xml:space="preserve" x="47.7441" y="203.638" fill="black" font-size="12.8453" font-family="Helvetica">6</text>
<text xml:space="preserve" x="47.7441" y="155.58" fill="black" font-size="12.8453" font-family="Helvetica">8</text>
<text xml:space="preserve" x="41.2277" y="106.706" fill="black" font-size="12.8453" font-family="Helvetica">10</text>
<text xml:space="preserve" x="40.4131" y="57.8333" fill="black" font-size="12.8453" font-family="Helvetica">12</text>
<g transform="rotate(-90,27.3803,86.3427)">
<text xml:space="preserve" x="27.3803" y="86.3427" fill="black" font-size="12.8453" font-family="Helvetica">n_blocks</text>
</g>
<text xml:space="preserve" x="253.826" y="18.7347" fill="black" font-size="16.9898" font-family="Helvetica">sector 8</text>
<rect x="57.6465" y="346.022" width="7.10551" height="0" fill="#a6bdd7" fill-opacity="0.50" stroke-opacity="0.50"/>
<rect x="72.7646" y="346.022" width="7.10551" height="0" fill="#a6bdd7" fill-opacity="0.50" stroke-opacity="0.50"/>
<rect x="87.8827" y="346.022" width="7.10551" height="0" fill="#a6bdd7" fill-opacity="0.50" stroke-opacity="0.50"/>
<rect x="103.001" y="346.022" width="7.10551" height="0" fill="#a6bdd7" fill-opacity="0.50" stroke-opacity="0.50"/>
<rect x="118.119" y="346.022" width="7.10551" height="0" fill="#a6bdd7" fill-opacity="0.50" stroke-opacity="0.50"/>
<rect x="133.237" y="346.022" width="7.10551" height="0" fill="#a6bdd7" fill-opacity="0.50" stroke-opacity="0.50"/>
<rect x="148.355" y="346.022" width="7.10551" height="0" fill="#a6bdd7" fill-opacity="0.50" stroke-opacity="0.50"/>
<rect x="163.473" y="346.022" width="7.10551" height="0" fill="#a6bdd7" fill-opacity="0.50" stroke-opacity="0.50"/>
<rect x="178.591" y="346.022" width="7.10551" height="0" fill="#a6bdd7" fill-opacity="0.50" stroke-opacity="0.50"/>
<rect x="193.709" y="346.022" width="7.10551" height="0" fill="#a6bdd7" fill-opacity="0.50" stroke-opacity="0.50"/>
<rect x="208.828" y="321.612" width="7.10551" height="24.4107" fill="#a6bdd7" fill-opacity="0.50" stroke-opacity="0.50"/>
<rect x="223.946" y="321.612" width="7.10551" height="24.4107" fill="#a6bdd7" fill-opacity="0.50" stroke-opacity="0.50"/>
<rect x="239.064" y="248.379" width="7.10551" height="97.643" fill="#a6bdd7" fill-opacity="0.50" stroke-opacity="0.50"/>
<rect x="254.182" y="272.79" width="7.10551" height="73.2322" fill="#a6bdd7" fill-opacity="0.50" stroke-opacity="0.50"/>
<rect x="269.3" y="248.379" width="7.10551" height="97.643" fill="#a6bdd7" fill-opacity="0.50" stroke-opacity="0.50"/>
<rect x="284.418" y="248.379" width="7.10551" height="97.643" fill="#a6bdd7" fill-opacity="0.50" stroke-opacity="0.50"/>
<rect x="299.536" y="297.201" width="7.10551" height="48.8215" fill="#a6bdd7" fill-opacity="0.50" stroke-opacity="0.50"/>
<rect x="314.654" y="321.612" width="7.10551" height="24.4107" fill="#a6bdd7" fill-opacity="0.50" stroke-opacity="0.50"/>
<rect x="329.772" y="346.022" width="7.10551" height="0" fill="#a6bdd7" fill-opacity="0.50" stroke-opacity="0.50"/>
<rect x="344.891" y="346.022" width="7.10551" height="0" fill="#a6bdd7" fill-opacity="0.50" stroke-opacity="0.50"/>
<rect x="360.009" y="346.022" width="7.10551" height="0" fill="#a6bdd7" fill-opacity="0.50" stroke-opacity="0.50"/>
<rect x="375.127" y="346.022" width="7.10551" height="0" fill="#a6bdd7" fill-opacity="0.50" stroke-opacity="0.50"/>
<rect x="390.245" y="346.022" width="7.10551" height="0" fill="#a6bdd7" fill-opacity="0.50" stroke-opacity="0.50"/>
<rect x="405.363" y="346.022" width="7.10551" height="0" fill="#a6bdd7" fill-opacity="0.50" stroke-opacity="0.50"/>
<rect x="420.481" y="346.022" width="7.10551" height="0" fill="#a6bdd7" fill-opacity="0.50" stroke-opacity="0.50"/>
<rect x="435.599" y="346.022" width="7.10551" height="0" fill="#a6bdd7" fill-opacity="0.50" stroke-opacity="0.50"/>
<rect x="450.717" y="346.022" width="7.10551" height="0" fill="#a6bdd7" fill-opacity="0.50" stroke-opacity="0.50"/>
<rect x="465.835" y="346.022" width="7.10551" height="0" fill="#a6bdd7" fill-opacity="0.50" stroke-opacity="0.50"/>
<rect x="480.954" y="346.022" width="7.10551" height="0" fill="#a6bdd7" fill-opacity="0.50" stroke-opacity="0.50"/>
<rect x="496.072" y="346.022" width="7.10551" height="0" fill="#a6bdd7" fill-opacity="0.50" stroke-opacity="0.50"/>
<path d="M59.4606,346.022h 90.7087l 4.53543, -0.0333928l 4.53543, -0.0273178l 4.53543, -0.0471276l 4.53543, -0.0793062l 4.53543, -0.130161l 4.53543, -0.208317l 4.53543, -0.325057l 4.53543, -0.494418l 4.53543, -0.732865l 4.53543, -1.05834l 4.53543,
 -1.48851l 4.53543, -2.03813l 4.53543, -2.71556l 4.53543, -3.51875l 4.53543, -4.43109l 4.53543, -5.41806l 4.53543, -6.42548l 4.53543, -7.3802l 4.53543, -8.19407l 4.53543, -8.77128l 4.53543, -9.01867l 4.53543, -8.85799l 4.53543, -8.23829l 4.53543,
 -7.14631l 4.53543, -5.61291l 4.53543, -3.71381l 4.53543, -1.56413l 4.53543, 0.693062l 4.53543, 2.90247" fill="none" stroke="#a6bdd7" stroke-width="2"/>
<path d="M281.697,251.948l 4.53543, 4.91426l 4.53543, 6.60083l 4.53543, 7.87018l 4.53543, 8.6738l 4.53543, 9.00832l 4.53543, 8.91113l 4.53543, 8.45132l 4.53543, 7.71774l 4.53543, 6.80656l 4.53543, 5.80995l 4.53543, 4.80753l 4.53543, 3.86109l 4.53543,
 3.01268l 4.53543, 2.28552l 4.53543, 1.68684l 4.53543, 1.21183l 4.53543, 0.84776l 4.53543, 0.577725l 4.53543, 0.383635l 4.53543, 0.2483l 4.53543, 0.156672l 4.53543, 0.0963937l 4.53543, 0.057839l 4.53543, 0.033851l 4.53543, 0.0422216h 108.85"
 fill="none" stroke="#a6bdd7" stroke-width="2"/>
<path d="M503.933,346.022h 4.53543" fill="none" stroke="#a6bdd7" stroke-width="2"/>
<rect x="64.752" y="346.022" width="7.10551" height="0" fill="#cea262" fill-opacity="0.50" stroke-opacity="0.50"/>
<rect x="79.8701" y="346.022" width="7.10551" height="0" fill="#cea262" fill-opacity="0.50" stroke-opacity="0.50"/>
<rect x="94.9882" y="346.022" width="7.10551" height="0" fill="#cea262" fill-opacity="0.50" stroke-opacity="0.50"/>
<rect x="110.106" y="346.022" width="7.10551" height="0" fill="#cea262" fill-opacity="0.50" stroke-opacity="0.50"/>
<rect x="125.224" y="346.022" width="7.10551" height="0" fill="#cea262" fill-opacity="0.50" stroke-opacity="0.50"/>
<rect x="140.343" y="346.022" width="7.10551" height="0" fill="#cea262" fill-opacity="0.50" stroke-opacity="0.50"/>
<rect x="155.461" y="346.022" width="7.10551" height="0" fill="#cea262" fill-opacity="0.50" stroke-opacity="0.50"/>
<rect x="170.579" y="346.022" width="7.10551" height="0" fill="#cea262" fill-opacity="0.50" stroke-opacity="0.50"/>
<rect x="185.697" y="346.022" width="7.10551" height="0" fill="#cea262" fill-opacity="0.50" stroke-opacity="0.50"/>
<rect x="200.815" y="321.612" width="7.10551" height="24.4107" fill="#cea262" fill-opacity="0.50" stroke-opacity="0.50"/>
<rect x="215.933" y="346.022" width="7.10551" height="0" fill="#cea262" fill-opacity="0.50" stroke-opacity="0.50"/>
<rect x="231.051" y="223.969" width="7.10551" height="122.054" fill="#cea262" fill-opacity="0.50" stroke-opacity="0.50"/>
<rect x="246.169" y="272.79" width="7.10551" height="73.2322" fill="#cea262" fill-opacity="0.50" stroke-opacity="0.50"/>
<rect x="261.287" y="101.915" width="7.10551" height="244.107" fill="#cea262" fill-opacity="0.50" stroke-opacity="0.50"/>
<rect x="276.406" y="53.0934" width="7.10551" height="292.929" fill="#cea262" fill-opacity="0.50" stroke-opacity="0.50"/>
<rect x="291.524" y="126.326" width="7.10551" height="219.697" fill="#cea262" fill-opacity="0.50" stroke-opacity="0.50"/>
<rect x="306.642" y="272.79" width="7.10551" height="73.2322" fill="#cea262" fill-opacity="0.50" stroke-opacity="0.50"/>
<rect x="321.76" y="297.201" width="7.10551" height="48.8215" fill="#cea262" fill-opacity="0.50" stroke-opacity="0.50"/>
<rect x="336.878" y="297.201" width="7.10551" height="48.8215" fill="#cea262" fill-opacity="0.50" stroke-opacity="0.50"/>
<rect x="351.996" y="346.022" width="7.10551" height="0" fill="#cea262" fill-opacity="0.50" stroke-opacity="0.50"/>
<rect x="367.114" y="346.022" width="7.10551" height="0" fill="#cea262" fill-opacity="0.50" stroke-opacity="0.50"/>
<rect x="382.232" y="346.022" width="7.10551" height="0" fill="#cea262" fill-opacity="0.50" stroke-opacity="0.50"/>
<rect x="397.35" y="346.022" width="7.10551" height="0" fill="#cea262" fill-opacity="0.50" stroke-opacity="0.50"/>
<rect x="412.469" y="346.022" width="7.10551" height="0" fill="#cea262" fill-opacity="0.50" stroke-opacity="0.50"/>
<rect x="427.587" y="346.022" width="7.10551" height="0" fill="#cea262" fill-opacity="0.50" stroke-opacity="0.50"/>
<rect x="442.705" y="346.022" width="7.10551" height="0" fill="#cea262" fill-opacity="0.50" stroke-opacity="0.50"/>
<rect x="457.823" y="346.022" width="7.10551" height="0" fill="#cea262" fill-opacity="0.50" stroke-opacity="0.50"/>
<rect x="472.941" y="346.022" width="7.10551" height="0" fill="#cea262" fill-opacity="0.50" stroke-opacity="0.50"/>
<rect x="488.059" y="346.022" width="7.10551" height="0" fill="#cea262" fill-opacity="0.50" stroke-opacity="0.50"/>
<rect x="503.177" y="346.022" width="7.10551" height="0" fill="#cea262" fill-opacity="0.50" stroke-opacity="0.50"/>
<path d="M59.4606,346.022h 104.315l 4.53543, -0.0371948l 4.53543, -0.039905l 4.53543, -0.0777404l 4.53543, -0.146442l 4.53543, -0.266684l 4.53543, -0.469398l 4.53543, -0.798327l 4.53543, -1.31153l 4.53543, -2.08052l 4.53543, -3.18545l 4.53543,
 -4.70478l 4.53543, -6.69877l 4.53543, -9.18721l 4.53543, -12.1244l 4.53543, -15.3764l 4.53543, -18.7075l 4.53543, -21.7832l 4.53543, -24.1964l 4.53543, -25.5166l 4.53543, -25.358l 4.53543, -23.4561l 4.53543, -19.7342l 4.53543, -14.3456l 4.53543,
 -7.67443l 4.53543, -0.29432l 4.53543, 7.11329" fill="none" stroke="#cea262" stroke-width="2"/>
<path d="M281.697,115.564l 4.53543, 13.8627l 4.53543, 19.3686l 4.53543, 23.2296l 4.53543, 25.2742l 4.53543, 25.5619l 4.53543, 24.3448l 4.53543, 22.0018l 4.53543, 18.9626l 4.53543, 15.6384l 4.53543, 12.3703l 4.53543, 9.40231l 4.53543, 6.87603l
 4.53543, 4.84332l 4.53543, 3.2886l 4.53543, 2.15391l 4.53543, 1.36155l 4.53543, 0.831037l 4.53543, 0.489953l 4.53543, 0.279109l 4.53543, 0.153673l 4.53543, 0.0817949l 4.53543, 0.0420967l 4.53543, 0.0394263h 117.921" fill="none" stroke="#cea262"
 stroke-width="2"/>
<path d="M503.933,346.022h 4.53543" fill="none" stroke="#cea262" stroke-width="2"/>
<path d="M57.1929,346.022h 453.543" fill="none" stroke="black"/>
<path d="M57.1929,336.795v 9.22726" fill="none" stroke="black"/>
<path d="M72.311,341.409v 4.61363" fill="none" stroke="black"/>
<path d="M87.4291,341.409v 4.61363" fill="none" stroke="black"/>
<path d="M102.547,341.409v 4.61363" fill="none" stroke="black"/>
<path d="M117.665,341.409v 4.61363" fill="none" stroke="black"/>
<path d="M132.783,336.795v 9.22726" fill="none" stroke="black"/>
<path d="M147.902,341.409v 4.61363" fill="none" stroke="black"/>
<path d="M163.02,341.409v 4.61363" fill="none" stroke="black"/>
<path d="M178.138,341.409v 4.61363" fill="none" stroke="black"/>
<path d="M193.256,341.409v 4.61363" fill="none" stroke="black"/>
<path d="M208.374,336.795v 9.22726" fill="none" stroke="black"/>
<path d="M223.492,341.409v 4.61363" fill="none" stroke="black"/>
<path d="M238.61,341.409v 4.61363" fill="none" stroke="black"/>
<path d="M253.728,341.409v 4.61363" fill="none" stroke="black"/>
<path d="M268.846,341.409v 4.61363" fill="none" stroke="black"/>
<path d="M283.965,336.795v 9.22726" fill="none" stroke="black"/>
<path d="M299.083,341.409v 4.61363" fill="none" stroke="black"/>
<path d="M314.201,341.409v 4.61363" fill="none" stroke="black"/>
<path d="M329.319,341.409v 4.61363" fill="none" stroke="black"/>
<path d="M344.437,341.409v 4.61363" fill="none" stroke="black"/>
<path d="M359.555,336.795v 9.22726" fill="none" stroke="black"/>
<path d="M374.673,341.409v 4.61363" fill="none" stroke="black"/>
<path d="M389.791,341.409v 4.61363" fill="none" stroke="black"/>
<path d="M404.909,341.409v 4.61363" fill="none" stroke="black"/>
<path d="M420.028,341.409v 4.61363" fill="none" stroke="black"/>
<path d="M435.146,336.795v 9.22726" fill="none" stroke="black"/>
<path d="M450.264,341.409v 4.61363" fill="none" stroke="black"/>
<path d="M465.382,341.409v 4.61363" fill="none" stroke="black"/>
<path d="M480.5,341.409v 4.61363" fill="none" stroke="black"/>
<path d="M495.618,341.409v 4.61363" fill="none" stroke="black"/>
<path d="M510.736,336.795v 9.22726" fill="none" stroke="black"/>
<path d="M57.1929,346.022v -307.575" fill="none" stroke="black"/>
<path d="M70.7992,346.022h -13.6063" fill="none" stroke="black"/>
<path d="M63.9961,333.817h -6.80315" fill="none" stroke="black"/>
<path d="M63.9961,321.612h -6.80315" fill="none" stroke="black"/>
<path d="M63.9961,309.406h -6.80315" fill="none" stroke="black"/>
<path d="M70.7992,297.201h -13.6063" fill="none" stroke="black"/>
<path d="M63.9961,284.995h -6.80315" fill="none" stroke="black"/>
<path d="M63.9961,272.79h -6.80315" fill="none" stroke="black"/>
<path d="M63.9961,260.585h -6.80315" fill="none" stroke="black"/>
<path d="M70.7992,248.379h -13.6063" fill="none" stroke="black"/>
<path d="M63.9961,236.174h -6.80315" fill="none" stroke="black"/>
<path d="M63.9961,223.969h -6.80315" fill="none" stroke="black"/>
<path d="M63.9961,211.763h -6.80315" fill="none" stroke="black"/>
<path d="M70.7992,199.558h -13.6063" fill="none" stroke="black"/>
<path d="M63.9961,187.352h -6.80315" fill="none" stroke="black"/>
<path d="M63.9961,175.147h -6.80315" fill="none" stroke="black"/>
<path d="M63.9961,162.942h -6.80315" fill="none" stroke="black"/>
<path d="M70.7992,150.736h -13.6063" fill="none" stroke="black"/>
<path d="M63.9961,138.531h -6.80315" fill="none" stroke="black"/>
<path d="M63.9961,126.326h -6.80315" fill="none" stroke="black"/>
<path d="M63.9961,114.12h -6.80315" fill="none" stroke="black"/>
<path d="M70.7992,101.915h -13.6063" fill="none" stroke="black"/>
<path d="M63.9961,89.7095h -6.80315" fill="none" stroke="black"/>
<path d="M63.9961,77.5041h -6.80315" fill="none" stroke="black"/>
<path d="M63.9961,65.2987h -6.80315" fill="none" stroke="black"/>
<path d="M70.7992,53.0934h -13.6063" fill="none" stroke="black"/>
<path d="M70.7992,53.0934h -13.6063" fill="none" stroke="black"/>
<path d="M63.9961,40.888h -6.80315" fill="none" stroke="black"/>
<rect x="58.0145" y="238.289" width="170.079" height="80.7385" fill="white"/>
<path d="M58.0145,319.028h 170.079" fill="none" stroke="black"/>
<path d="M228.093,319.028v -80.7385" fill="none" stroke="black"/>
<path d="M228.093,238.289h -170.079" fill="none" stroke="black"/>
<path d="M58.0145,238.289v 80.7385" fill="none" stroke="black"/>
<text xml:space="preserve" x="99.8755" y="267.173" fill="black" font-size="26.0796" font-family="Helvetica">vop 69.08</text>
<path d="M64.3925,272.603h 29.7638v -28.2585h -29.7638z" fill="#a6bdd7" fill-opacity="0.50" stroke-opacity="0.50"/>
<path d="M64.3925,258.474h 29.7638" fill="none" stroke="#a6bdd7" fill-opacity="0.00" stroke-opacity="0.00"/>
<g stroke="black" stroke-width="1" fill="none">
<line x1="78.2744" y1="258.474" x2="79.2744" y2="258.474"/>
</g>
<text xml:space="preserve" x="99.8755" y="307.901" fill="black" font-size="26.0796" font-family="Helvetica">vop 69.18</text>
<path d="M64.3925,312.972h 29.7638v -28.2585h -29.7638z" fill="#cea262" fill-opacity="0.50" stroke-opacity="0.50"/>
<path d="M64.3925,298.843h 29.7638" fill="none" stroke="#cea262" fill-opacity="0.00" stroke-opacity="0.00"/>
<g stroke="black" stroke-width="1" fill="none">
<line x1="78.2744" y1="298.843" x2="79.2744" y2="298.843"/>
</g>
<text xml:space="preserve" x="253.826" y="18.7347" fill="black" font-size="16.9898" font-family="Helvetica">sector 8</text></svg>
