<?xml version="1.0" standalone="no"?>
<svg width="567.429" height="384.969" viewBox="0 0 567.429 384.969" xmlns="http://www.w3.org/2000/svg" shape-rendering="crispEdges">
<title>
./adjusted_vop/sector_by_vop/sector-17_vop-68.93.svg
</title>
<desc>
Creator: ROOT Version 6.24/00
CreationDate: Thu Jun 24 00:43:01 2021</desc>
<defs>
</defs>
<rect x="0.5" y="0" width="566.929" height="384.469" fill="white"/>
<rect x="57.1929" y="38.4469" width="453.543" height="307.575" fill="white"/>
<rect x="57.1929" y="38.4469" width="453.543" height="307.575" fill="none" stroke="black"/>
<path d="M57.1929,346.022h 151.181v -18.3081h 15.1181v -128.156h 15.1181v -146.464h 15.1181v 18.3081h 15.1181v 146.464h 15.1181v 54.9242h 15.1181v 73.2322h 211.654" fill="none" stroke="#ffb300"/>
<path d="M59.4606,346.022h 117.921l 4.53543, -0.0742381l 4.53543, -0.127716l 4.53543, -0.313344l 4.53543, -0.717936l 4.53543, -1.53507l 4.53543, -3.06027l 4.53543, -5.68187l 4.53543, -9.81033l 4.53543, -15.7213l 4.53543, -23.3205l 4.53543, -31.8991l
 4.53543, -40.0067l 4.53543, -45.589l 4.53543, -46.4629l 4.53543, -41.0462l 4.53543, -29.0788l 4.53543, -11.9938l 4.53543, 7.30588l 4.53543, 25.2496l 4.53543, 38.6776l 4.53543, 45.7485l 4.53543, 46.3191l 4.53543, 41.7049" fill="none" stroke="#ffb300"
 stroke-width="2"/>
<path d="M281.697,244.589l 4.53543, 34.0137l 4.53543, 25.3883l 4.53543, 17.4537l 4.53543, 11.0977l 4.53543, 6.54546l 4.53543, 3.58856l 4.53543, 1.83171l 4.53543, 0.871513l 4.53543, 0.386885l 4.53543, 0.160364l 4.53543, 0.062103l 4.53543, 0.0334813h
 167.811" fill="none" stroke="#ffb300" stroke-width="2"/>
<path d="M503.933,346.022h 4.53543" fill="none" stroke="#ffb300" stroke-width="2"/>
<path d="M57.1929,346.022h 453.543" fill="none" stroke="black"/>
<path d="M57.1929,336.795v 9.22726" fill="none" stroke="black"/>
<path d="M72.311,341.409v 4.61363" fill="none" stroke="black"/>
<path d="M87.4291,341.409v 4.61363" fill="none" stroke="black"/>
<path d="M102.547,341.409v 4.61363" fill="none" stroke="black"/>
<path d="M117.665,341.409v 4.61363" fill="none" stroke="black"/>
<path d="M132.783,336.795v 9.22726" fill="none" stroke="black"/>
<path d="M147.902,341.409v 4.61363" fill="none" stroke="black"/>
<path d="M163.02,341.409v 4.61363" fill="none" stroke="black"/>
<path d="M178.138,341.409v 4.61363" fill="none" stroke="black"/>
<path d="M193.256,341.409v 4.61363" fill="none" stroke="black"/>
<path d="M208.374,336.795v 9.22726" fill="none" stroke="black"/>
<path d="M223.492,341.409v 4.61363" fill="none" stroke="black"/>
<path d="M238.61,341.409v 4.61363" fill="none" stroke="black"/>
<path d="M253.728,341.409v 4.61363" fill="none" stroke="black"/>
<path d="M268.846,341.409v 4.61363" fill="none" stroke="black"/>
<path d="M283.965,336.795v 9.22726" fill="none" stroke="black"/>
<path d="M299.083,341.409v 4.61363" fill="none" stroke="black"/>
<path d="M314.201,341.409v 4.61363" fill="none" stroke="black"/>
<path d="M329.319,341.409v 4.61363" fill="none" stroke="black"/>
<path d="M344.437,341.409v 4.61363" fill="none" stroke="black"/>
<path d="M359.555,336.795v 9.22726" fill="none" stroke="black"/>
<path d="M374.673,341.409v 4.61363" fill="none" stroke="black"/>
<path d="M389.791,341.409v 4.61363" fill="none" stroke="black"/>
<path d="M404.909,341.409v 4.61363" fill="none" stroke="black"/>
<path d="M420.028,341.409v 4.61363" fill="none" stroke="black"/>
<path d="M435.146,336.795v 9.22726" fill="none" stroke="black"/>
<path d="M450.264,341.409v 4.61363" fill="none" stroke="black"/>
<path d="M465.382,341.409v 4.61363" fill="none" stroke="black"/>
<path d="M480.5,341.409v 4.61363" fill="none" stroke="black"/>
<path d="M495.618,341.409v 4.61363" fill="none" stroke="black"/>
<path d="M510.736,336.795v 9.22726" fill="none" stroke="black"/>
<text xml:space="preserve" x="53.446" y="358.403" fill="black" font-size="12.8453" font-family="Helvetica">0</text>
<text xml:space="preserve" x="121.868" y="358.403" fill="black" font-size="12.8453" font-family="Helvetica">100</text>
<text xml:space="preserve" x="197.622" y="358.403" fill="black" font-size="12.8453" font-family="Helvetica">200</text>
<text xml:space="preserve" x="273.375" y="358.403" fill="black" font-size="12.8453" font-family="Helvetica">300</text>
<text xml:space="preserve" x="348.314" y="358.403" fill="black" font-size="12.8453" font-family="Helvetica">400</text>
<text xml:space="preserve" x="424.068" y="358.403" fill="black" font-size="12.8453" font-family="Helvetica">500</text>
<text xml:space="preserve" x="499.821" y="358.403" fill="black" font-size="12.8453" font-family="Helvetica">600</text>
<text xml:space="preserve" x="486.788" y="369.807" fill="black" font-size="12.8453" font-family="Helvetica">mpv</text>
<path d="M57.1929,346.022v -307.575" fill="none" stroke="black"/>
<path d="M70.7992,346.022h -13.6063" fill="none" stroke="black"/>
<path d="M63.9961,336.868h -6.80315" fill="none" stroke="black"/>
<path d="M63.9961,327.714h -6.80315" fill="none" stroke="black"/>
<path d="M63.9961,318.56h -6.80315" fill="none" stroke="black"/>
<path d="M70.7992,309.406h -13.6063" fill="none" stroke="black"/>
<path d="M63.9961,300.252h -6.80315" fill="none" stroke="black"/>
<path d="M63.9961,291.098h -6.80315" fill="none" stroke="black"/>
<path d="M63.9961,281.944h -6.80315" fill="none" stroke="black"/>
<path d="M70.7992,272.79h -13.6063" fill="none" stroke="black"/>
<path d="M63.9961,263.636h -6.80315" fill="none" stroke="black"/>
<path d="M63.9961,254.482h -6.80315" fill="none" stroke="black"/>
<path d="M63.9961,245.328h -6.80315" fill="none" stroke="black"/>
<path d="M70.7992,236.174h -13.6063" fill="none" stroke="black"/>
<path d="M63.9961,227.02h -6.80315" fill="none" stroke="black"/>
<path d="M63.9961,217.866h -6.80315" fill="none" stroke="black"/>
<path d="M63.9961,208.712h -6.80315" fill="none" stroke="black"/>
<path d="M70.7992,199.558h -13.6063" fill="none" stroke="black"/>
<path d="M63.9961,190.404h -6.80315" fill="none" stroke="black"/>
<path d="M63.9961,181.25h -6.80315" fill="none" stroke="black"/>
<path d="M63.9961,172.096h -6.80315" fill="none" stroke="black"/>
<path d="M70.7992,162.942h -13.6063" fill="none" stroke="black"/>
<path d="M63.9961,153.788h -6.80315" fill="none" stroke="black"/>
<path d="M63.9961,144.634h -6.80315" fill="none" stroke="black"/>
<path d="M63.9961,135.48h -6.80315" fill="none" stroke="black"/>
<path d="M70.7992,126.326h -13.6063" fill="none" stroke="black"/>
<path d="M63.9961,117.172h -6.80315" fill="none" stroke="black"/>
<path d="M63.9961,108.018h -6.80315" fill="none" stroke="black"/>
<path d="M63.9961,98.8635h -6.80315" fill="none" stroke="black"/>
<path d="M70.7992,89.7095h -13.6063" fill="none" stroke="black"/>
<path d="M63.9961,80.5555h -6.80315" fill="none" stroke="black"/>
<path d="M63.9961,71.4014h -6.80315" fill="none" stroke="black"/>
<path d="M63.9961,62.2474h -6.80315" fill="none" stroke="black"/>
<path d="M70.7992,53.0934h -13.6063" fill="none" stroke="black"/>
<path d="M70.7992,53.0934h -13.6063" fill="none" stroke="black"/>
<path d="M63.9961,43.9393h -6.80315" fill="none" stroke="black"/>
<text xml:space="preserve" x="47.7441" y="350.258" fill="black" font-size="12.8453" font-family="Helvetica">0</text>
<text xml:space="preserve" x="47.7441" y="313.603" fill="black" font-size="12.8453" font-family="Helvetica">2</text>
<text xml:space="preserve" x="47.7441" y="276.948" fill="black" font-size="12.8453" font-family="Helvetica">4</text>
<text xml:space="preserve" x="47.7441" y="240.293" fill="black" font-size="12.8453" font-family="Helvetica">6</text>
<text xml:space="preserve" x="47.7441" y="203.638" fill="black" font-size="12.8453" font-family="Helvetica">8</text>
<text xml:space="preserve" x="41.2277" y="167.798" fill="black" font-size="12.8453" font-family="Helvetica">10</text>
<text xml:space="preserve" x="40.4131" y="131.143" fill="black" font-size="12.8453" font-family="Helvetica">12</text>
<text xml:space="preserve" x="40.4131" y="94.4882" fill="black" font-size="12.8453" font-family="Helvetica">14</text>
<text xml:space="preserve" x="40.4131" y="57.8333" fill="black" font-size="12.8453" font-family="Helvetica">16</text>
<g transform="rotate(-90,27.3803,86.3427)">
<text xml:space="preserve" x="27.3803" y="86.3427" fill="black" font-size="12.8453" font-family="Helvetica">n_blocks</text>
</g>
<text xml:space="preserve" x="199.251" y="17.9202" fill="black" font-size="18.7938" font-family="Helvetica">sector 17, vop 68.93</text>
<rect x="351.996" y="24.9905" width="204.094" height="76.8938" fill="white"/>
<path d="M351.996,101.884h 204.094" fill="none" stroke="black"/>
<path d="M556.091,101.884v -76.8938" fill="none" stroke="black"/>
<path d="M556.091,24.9905h -204.094" fill="none" stroke="black"/>
<path d="M351.996,24.9905v 76.8938" fill="none" stroke="black"/>
<text xml:space="preserve" x="377.638" y="39.0986" fill="black" font-size="16.7253" font-family="Helvetica"> / ndf </text>
<text xml:space="preserve" x="371.122" y="34.2112" fill="black" font-size="11.3169" font-family="Helvetica">2</text>
<text xml:space="preserve" x="362.162" y="39.0986" fill="black" font-size="16.7253" font-family="Times">&#0967;</text>
<text xml:space="preserve" x="477.828" y="40.7277" fill="black" font-size="16.7253" font-family="Helvetica"> 1.706 / 3</text>
<text xml:space="preserve" x="362.162" y="60.2769" fill="black" font-size="16.7253" font-family="Helvetica">Constant </text>
<text xml:space="preserve" x="509.596" y="60.2769" fill="black" font-size="16.7253" font-family="Helvetica"> 3.14</text>
<text xml:space="preserve" x="500.636" y="60.2769" fill="black" font-size="16.7253" font-family="Times">&#0177;</text>
<text xml:space="preserve" x="450.133" y="60.2769" fill="black" font-size="16.7253" font-family="Helvetica"> 16.75 </text>
<text xml:space="preserve" x="362.162" y="79.0117" fill="black" font-size="16.7253" font-family="Helvetica">Mean     </text>
<text xml:space="preserve" x="518.556" y="79.0117" fill="black" font-size="16.7253" font-family="Helvetica"> 3.9</text>
<text xml:space="preserve" x="509.596" y="79.0117" fill="black" font-size="16.7253" font-family="Times">&#0177;</text>
<text xml:space="preserve" x="459.094" y="79.0117" fill="black" font-size="16.7253" font-family="Helvetica"> 261.7 </text>
<text xml:space="preserve" x="362.162" y="96.9318" fill="black" font-size="16.7253" font-family="Helvetica">Sigma    </text>
<text xml:space="preserve" x="509.596" y="98.561" fill="black" font-size="16.7253" font-family="Helvetica"> 3.13</text>
<text xml:space="preserve" x="500.636" y="98.561" fill="black" font-size="16.7253" font-family="Times">&#0177;</text>
<text xml:space="preserve" x="452.577" y="98.561" fill="black" font-size="16.7253" font-family="Helvetica"> 23.71 </text>
<g stroke="black" stroke-width="1" fill="none">
<line x1="63.752" y1="346.022" x2="64.752" y2="346.022"/>
</g>
<g stroke="black" stroke-width="1" fill="none">
<line x1="78.8701" y1="346.022" x2="79.8701" y2="346.022"/>
</g>
<g stroke="black" stroke-width="1" fill="none">
<line x1="93.9882" y1="346.022" x2="94.9882" y2="346.022"/>
</g>
<g stroke="black" stroke-width="1" fill="none">
<line x1="109.106" y1="346.022" x2="110.106" y2="346.022"/>
</g>
<g stroke="black" stroke-width="1" fill="none">
<line x1="124.224" y1="346.022" x2="125.224" y2="346.022"/>
</g>
<g stroke="black" stroke-width="1" fill="none">
<line x1="139.343" y1="346.022" x2="140.343" y2="346.022"/>
</g>
<g stroke="black" stroke-width="1" fill="none">
<line x1="154.461" y1="346.022" x2="155.461" y2="346.022"/>
</g>
<g stroke="black" stroke-width="1" fill="none">
<line x1="169.579" y1="346.022" x2="170.579" y2="346.022"/>
</g>
<g stroke="black" stroke-width="1" fill="none">
<line x1="184.697" y1="346.022" x2="185.697" y2="346.022"/>
</g>
<g stroke="black" stroke-width="1" fill="none">
<line x1="199.815" y1="346.022" x2="200.815" y2="346.022"/>
</g>
<path d="M215.933,346.022v -18.3081" fill="none" stroke="#ffb300"/>
<path d="M215.933,327.714v -18.3081" fill="none" stroke="#ffb300"/>
<path d="M208.374,327.714h 7.55905" fill="none" stroke="#ffb300"/>
<path d="M215.933,327.714h 7.55905" fill="none" stroke="#ffb300"/>
<g stroke="black" stroke-width="1" fill="none">
<line x1="214.933" y1="327.714" x2="215.933" y2="327.714"/>
</g>
<path d="M231.051,251.341v -51.783" fill="none" stroke="#ffb300"/>
<path d="M231.051,199.558v -51.783" fill="none" stroke="#ffb300"/>
<path d="M223.492,199.558h 7.55905" fill="none" stroke="#ffb300"/>
<path d="M231.051,199.558h 7.55905" fill="none" stroke="#ffb300"/>
<g stroke="black" stroke-width="1" fill="none">
<line x1="230.051" y1="199.558" x2="231.051" y2="199.558"/>
</g>
<path d="M246.169,126.326v -73.2322" fill="none" stroke="#ffb300"/>
<path d="M246.169,53.0934v -14.6464" fill="none" stroke="#ffb300"/>
<path d="M238.61,53.0934h 7.55905" fill="none" stroke="#ffb300"/>
<path d="M246.169,53.0934h 7.55905" fill="none" stroke="#ffb300"/>
<g stroke="black" stroke-width="1" fill="none">
<line x1="245.169" y1="53.0934" x2="246.169" y2="53.0934"/>
</g>
<path d="M261.287,142.308v -70.9068" fill="none" stroke="#ffb300"/>
<path d="M261.287,71.4014v -32.9545" fill="none" stroke="#ffb300"/>
<path d="M253.728,71.4014h 7.55905" fill="none" stroke="#ffb300"/>
<path d="M261.287,71.4014h 7.55905" fill="none" stroke="#ffb300"/>
<g stroke="black" stroke-width="1" fill="none">
<line x1="260.287" y1="71.4014" x2="261.287" y2="71.4014"/>
</g>
<path d="M276.406,266.304v -48.4386" fill="none" stroke="#ffb300"/>
<path d="M276.406,217.866v -48.4386" fill="none" stroke="#ffb300"/>
<path d="M268.846,217.866h 7.55905" fill="none" stroke="#ffb300"/>
<path d="M276.406,217.866h 7.55905" fill="none" stroke="#ffb300"/>
<g stroke="black" stroke-width="1" fill="none">
<line x1="275.406" y1="217.866" x2="276.406" y2="217.866"/>
</g>
<path d="M291.524,309.406v -36.6161" fill="none" stroke="#ffb300"/>
<path d="M291.524,272.79v -36.6161" fill="none" stroke="#ffb300"/>
<path d="M283.965,272.79h 7.55905" fill="none" stroke="#ffb300"/>
<path d="M291.524,272.79h 7.55905" fill="none" stroke="#ffb300"/>
<g stroke="black" stroke-width="1" fill="none">
<line x1="290.524" y1="272.79" x2="291.524" y2="272.79"/>
</g>
<g stroke="black" stroke-width="1" fill="none">
<line x1="305.642" y1="346.022" x2="306.642" y2="346.022"/>
</g>
<g stroke="black" stroke-width="1" fill="none">
<line x1="320.76" y1="346.022" x2="321.76" y2="346.022"/>
</g>
<g stroke="black" stroke-width="1" fill="none">
<line x1="335.878" y1="346.022" x2="336.878" y2="346.022"/>
</g>
<g stroke="black" stroke-width="1" fill="none">
<line x1="350.996" y1="346.022" x2="351.996" y2="346.022"/>
</g>
<g stroke="black" stroke-width="1" fill="none">
<line x1="366.114" y1="346.022" x2="367.114" y2="346.022"/>
</g>
<g stroke="black" stroke-width="1" fill="none">
<line x1="381.232" y1="346.022" x2="382.232" y2="346.022"/>
</g>
<g stroke="black" stroke-width="1" fill="none">
<line x1="396.35" y1="346.022" x2="397.35" y2="346.022"/>
</g>
<g stroke="black" stroke-width="1" fill="none">
<line x1="411.469" y1="346.022" x2="412.469" y2="346.022"/>
</g>
<g stroke="black" stroke-width="1" fill="none">
<line x1="426.587" y1="346.022" x2="427.587" y2="346.022"/>
</g>
<g stroke="black" stroke-width="1" fill="none">
<line x1="441.705" y1="346.022" x2="442.705" y2="346.022"/>
</g>
<g stroke="black" stroke-width="1" fill="none">
<line x1="456.823" y1="346.022" x2="457.823" y2="346.022"/>
</g>
<g stroke="black" stroke-width="1" fill="none">
<line x1="471.941" y1="346.022" x2="472.941" y2="346.022"/>
</g>
<g stroke="black" stroke-width="1" fill="none">
<line x1="487.059" y1="346.022" x2="488.059" y2="346.022"/>
</g>
<g stroke="black" stroke-width="1" fill="none">
<line x1="502.177" y1="346.022" x2="503.177" y2="346.022"/>
</g>
<path d="M59.4606,346.022h 117.921l 4.53543, -0.0742381l 4.53543, -0.127716l 4.53543, -0.313344l 4.53543, -0.717936l 4.53543, -1.53507l 4.53543, -3.06027l 4.53543, -5.68187l 4.53543, -9.81033l 4.53543, -15.7213l 4.53543, -23.3205l 4.53543, -31.8991l
 4.53543, -40.0067l 4.53543, -45.589l 4.53543, -46.4629l 4.53543, -41.0462l 4.53543, -29.0788l 4.53543, -11.9938l 4.53543, 7.30588l 4.53543, 25.2496l 4.53543, 38.6776l 4.53543, 45.7485l 4.53543, 46.3191l 4.53543, 41.7049" fill="none" stroke="#ffb300"
 stroke-width="2"/>
<path d="M281.697,244.589l 4.53543, 34.0137l 4.53543, 25.3883l 4.53543, 17.4537l 4.53543, 11.0977l 4.53543, 6.54546l 4.53543, 3.58856l 4.53543, 1.83171l 4.53543, 0.871513l 4.53543, 0.386885l 4.53543, 0.160364l 4.53543, 0.062103l 4.53543, 0.0334813h
 167.811" fill="none" stroke="#ffb300" stroke-width="2"/>
<path d="M503.933,346.022h 4.53543" fill="none" stroke="#ffb300" stroke-width="2"/>
<rect x="351.996" y="24.9905" width="204.094" height="76.8938" fill="white"/>
<path d="M351.996,101.884h 204.094" fill="none" stroke="black"/>
<path d="M556.091,101.884v -76.8938" fill="none" stroke="black"/>
<path d="M556.091,24.9905h -204.094" fill="none" stroke="black"/>
<path d="M351.996,24.9905v 76.8938" fill="none" stroke="black"/>
<text xml:space="preserve" x="377.638" y="39.0986" fill="black" font-size="16.7253" font-family="Helvetica"> / ndf </text>
<text xml:space="preserve" x="371.122" y="34.2112" fill="black" font-size="11.3169" font-family="Helvetica">2</text>
<text xml:space="preserve" x="362.162" y="39.0986" fill="black" font-size="16.7253" font-family="Times">&#0967;</text>
<text xml:space="preserve" x="477.828" y="40.7277" fill="black" font-size="16.7253" font-family="Helvetica"> 1.706 / 3</text>
<text xml:space="preserve" x="362.162" y="60.2769" fill="black" font-size="16.7253" font-family="Helvetica">Constant </text>
<text xml:space="preserve" x="509.596" y="60.2769" fill="black" font-size="16.7253" font-family="Helvetica"> 3.14</text>
<text xml:space="preserve" x="500.636" y="60.2769" fill="black" font-size="16.7253" font-family="Times">&#0177;</text>
<text xml:space="preserve" x="450.133" y="60.2769" fill="black" font-size="16.7253" font-family="Helvetica"> 16.75 </text>
<text xml:space="preserve" x="362.162" y="79.0117" fill="black" font-size="16.7253" font-family="Helvetica">Mean     </text>
<text xml:space="preserve" x="518.556" y="79.0117" fill="black" font-size="16.7253" font-family="Helvetica"> 3.9</text>
<text xml:space="preserve" x="509.596" y="79.0117" fill="black" font-size="16.7253" font-family="Times">&#0177;</text>
<text xml:space="preserve" x="459.094" y="79.0117" fill="black" font-size="16.7253" font-family="Helvetica"> 261.7 </text>
<text xml:space="preserve" x="362.162" y="96.9318" fill="black" font-size="16.7253" font-family="Helvetica">Sigma    </text>
<text xml:space="preserve" x="509.596" y="98.561" fill="black" font-size="16.7253" font-family="Helvetica"> 3.13</text>
<text xml:space="preserve" x="500.636" y="98.561" fill="black" font-size="16.7253" font-family="Times">&#0177;</text>
<text xml:space="preserve" x="452.577" y="98.561" fill="black" font-size="16.7253" font-family="Helvetica"> 23.71 </text>
<text xml:space="preserve" x="199.251" y="17.9202" fill="black" font-size="18.7938" font-family="Helvetica">sector 17, vop 68.93</text></svg>
