<?xml version="1.0" standalone="no"?>
<svg width="567.429" height="384.969" viewBox="0 0 567.429 384.969" xmlns="http://www.w3.org/2000/svg" shape-rendering="crispEdges">
<title>
./adjusted_vop/sector_by_vop/sector-6_all.svg
</title>
<desc>
Creator: ROOT Version 6.22/02
CreationDate: Mon Jul 12 11:35:42 2021</desc>
<defs>
</defs>
<rect x="0.5" y="0" width="566.929" height="384.469" fill="white"/>
<rect x="57.1929" y="38.4469" width="453.543" height="307.575" fill="white"/>
<rect x="57.1929" y="38.4469" width="453.543" height="307.575" fill="none" stroke="black"/>
<path d="M57.1929,346.022h 453.543" fill="none" stroke="#000099"/>
<path d="M57.1929,346.022h 453.543" fill="none" stroke="black"/>
<path d="M57.1929,336.795v 9.22726" fill="none" stroke="black"/>
<path d="M72.311,341.409v 4.61363" fill="none" stroke="black"/>
<path d="M87.4291,341.409v 4.61363" fill="none" stroke="black"/>
<path d="M102.547,341.409v 4.61363" fill="none" stroke="black"/>
<path d="M117.665,341.409v 4.61363" fill="none" stroke="black"/>
<path d="M132.783,336.795v 9.22726" fill="none" stroke="black"/>
<path d="M147.902,341.409v 4.61363" fill="none" stroke="black"/>
<path d="M163.02,341.409v 4.61363" fill="none" stroke="black"/>
<path d="M178.138,341.409v 4.61363" fill="none" stroke="black"/>
<path d="M193.256,341.409v 4.61363" fill="none" stroke="black"/>
<path d="M208.374,336.795v 9.22726" fill="none" stroke="black"/>
<path d="M223.492,341.409v 4.61363" fill="none" stroke="black"/>
<path d="M238.61,341.409v 4.61363" fill="none" stroke="black"/>
<path d="M253.728,341.409v 4.61363" fill="none" stroke="black"/>
<path d="M268.846,341.409v 4.61363" fill="none" stroke="black"/>
<path d="M283.965,336.795v 9.22726" fill="none" stroke="black"/>
<path d="M299.083,341.409v 4.61363" fill="none" stroke="black"/>
<path d="M314.201,341.409v 4.61363" fill="none" stroke="black"/>
<path d="M329.319,341.409v 4.61363" fill="none" stroke="black"/>
<path d="M344.437,341.409v 4.61363" fill="none" stroke="black"/>
<path d="M359.555,336.795v 9.22726" fill="none" stroke="black"/>
<path d="M374.673,341.409v 4.61363" fill="none" stroke="black"/>
<path d="M389.791,341.409v 4.61363" fill="none" stroke="black"/>
<path d="M404.909,341.409v 4.61363" fill="none" stroke="black"/>
<path d="M420.028,341.409v 4.61363" fill="none" stroke="black"/>
<path d="M435.146,336.795v 9.22726" fill="none" stroke="black"/>
<path d="M450.264,341.409v 4.61363" fill="none" stroke="black"/>
<path d="M465.382,341.409v 4.61363" fill="none" stroke="black"/>
<path d="M480.5,341.409v 4.61363" fill="none" stroke="black"/>
<path d="M495.618,341.409v 4.61363" fill="none" stroke="black"/>
<path d="M510.736,336.795v 9.22726" fill="none" stroke="black"/>
<text xml:space="preserve" x="53.446" y="358.403" fill="black" font-size="12.8453" font-family="Helvetica">0</text>
<text xml:space="preserve" x="121.868" y="358.403" fill="black" font-size="12.8453" font-family="Helvetica">100</text>
<text xml:space="preserve" x="197.622" y="358.403" fill="black" font-size="12.8453" font-family="Helvetica">200</text>
<text xml:space="preserve" x="273.375" y="358.403" fill="black" font-size="12.8453" font-family="Helvetica">300</text>
<text xml:space="preserve" x="348.314" y="358.403" fill="black" font-size="12.8453" font-family="Helvetica">400</text>
<text xml:space="preserve" x="424.068" y="358.403" fill="black" font-size="12.8453" font-family="Helvetica">500</text>
<text xml:space="preserve" x="499.821" y="358.403" fill="black" font-size="12.8453" font-family="Helvetica">600</text>
<text xml:space="preserve" x="486.788" y="369.807" fill="black" font-size="12.8453" font-family="Helvetica">mpv</text>
<path d="M57.1929,346.022v -307.575" fill="none" stroke="black"/>
<path d="M70.7992,346.022h -13.6063" fill="none" stroke="black"/>
<path d="M63.9961,334.756h -6.80315" fill="none" stroke="black"/>
<path d="M63.9961,323.489h -6.80315" fill="none" stroke="black"/>
<path d="M63.9961,312.223h -6.80315" fill="none" stroke="black"/>
<path d="M70.7992,300.956h -13.6063" fill="none" stroke="black"/>
<path d="M63.9961,289.69h -6.80315" fill="none" stroke="black"/>
<path d="M63.9961,278.423h -6.80315" fill="none" stroke="black"/>
<path d="M63.9961,267.157h -6.80315" fill="none" stroke="black"/>
<path d="M70.7992,255.89h -13.6063" fill="none" stroke="black"/>
<path d="M63.9961,244.624h -6.80315" fill="none" stroke="black"/>
<path d="M63.9961,233.357h -6.80315" fill="none" stroke="black"/>
<path d="M63.9961,222.091h -6.80315" fill="none" stroke="black"/>
<path d="M70.7992,210.824h -13.6063" fill="none" stroke="black"/>
<path d="M63.9961,199.558h -6.80315" fill="none" stroke="black"/>
<path d="M63.9961,188.291h -6.80315" fill="none" stroke="black"/>
<path d="M63.9961,177.025h -6.80315" fill="none" stroke="black"/>
<path d="M70.7992,165.758h -13.6063" fill="none" stroke="black"/>
<path d="M63.9961,154.492h -6.80315" fill="none" stroke="black"/>
<path d="M63.9961,143.225h -6.80315" fill="none" stroke="black"/>
<path d="M63.9961,131.959h -6.80315" fill="none" stroke="black"/>
<path d="M70.7992,120.692h -13.6063" fill="none" stroke="black"/>
<path d="M63.9961,109.426h -6.80315" fill="none" stroke="black"/>
<path d="M63.9961,98.1593h -6.80315" fill="none" stroke="black"/>
<path d="M63.9961,86.8929h -6.80315" fill="none" stroke="black"/>
<path d="M70.7992,75.6264h -13.6063" fill="none" stroke="black"/>
<path d="M70.7992,75.6264h -13.6063" fill="none" stroke="black"/>
<path d="M63.9961,64.3599h -6.80315" fill="none" stroke="black"/>
<path d="M63.9961,53.0934h -6.80315" fill="none" stroke="black"/>
<path d="M63.9961,41.8269h -6.80315" fill="none" stroke="black"/>
<text xml:space="preserve" x="47.7441" y="350.258" fill="black" font-size="12.8453" font-family="Helvetica">0</text>
<text xml:space="preserve" x="47.7441" y="305.457" fill="black" font-size="12.8453" font-family="Helvetica">2</text>
<text xml:space="preserve" x="47.7441" y="260.657" fill="black" font-size="12.8453" font-family="Helvetica">4</text>
<text xml:space="preserve" x="47.7441" y="215.042" fill="black" font-size="12.8453" font-family="Helvetica">6</text>
<text xml:space="preserve" x="47.7441" y="170.242" fill="black" font-size="12.8453" font-family="Helvetica">8</text>
<text xml:space="preserve" x="41.2277" y="125.441" fill="black" font-size="12.8453" font-family="Helvetica">10</text>
<text xml:space="preserve" x="40.4131" y="79.8262" fill="black" font-size="12.8453" font-family="Helvetica">12</text>
<g transform="rotate(-90,27.3803,86.3427)">
<text xml:space="preserve" x="27.3803" y="86.3427" fill="black" font-size="12.8453" font-family="Helvetica">n_blocks</text>
</g>
<text xml:space="preserve" x="253.826" y="18.7347" fill="black" font-size="16.9898" font-family="Helvetica">sector 6</text>
<rect x="57.6465" y="346.022" width="7.10551" height="0" fill="#c10020" fill-opacity="0.50" stroke-opacity="0.50"/>
<rect x="72.7646" y="346.022" width="7.10551" height="0" fill="#c10020" fill-opacity="0.50" stroke-opacity="0.50"/>
<rect x="87.8827" y="346.022" width="7.10551" height="0" fill="#c10020" fill-opacity="0.50" stroke-opacity="0.50"/>
<rect x="103.001" y="346.022" width="7.10551" height="0" fill="#c10020" fill-opacity="0.50" stroke-opacity="0.50"/>
<rect x="118.119" y="346.022" width="7.10551" height="0" fill="#c10020" fill-opacity="0.50" stroke-opacity="0.50"/>
<rect x="133.237" y="346.022" width="7.10551" height="0" fill="#c10020" fill-opacity="0.50" stroke-opacity="0.50"/>
<rect x="148.355" y="346.022" width="7.10551" height="0" fill="#c10020" fill-opacity="0.50" stroke-opacity="0.50"/>
<rect x="163.473" y="346.022" width="7.10551" height="0" fill="#c10020" fill-opacity="0.50" stroke-opacity="0.50"/>
<rect x="178.591" y="346.022" width="7.10551" height="0" fill="#c10020" fill-opacity="0.50" stroke-opacity="0.50"/>
<rect x="193.709" y="346.022" width="7.10551" height="0" fill="#c10020" fill-opacity="0.50" stroke-opacity="0.50"/>
<rect x="208.828" y="346.022" width="7.10551" height="0" fill="#c10020" fill-opacity="0.50" stroke-opacity="0.50"/>
<rect x="223.946" y="323.489" width="7.10551" height="22.533" fill="#c10020" fill-opacity="0.50" stroke-opacity="0.50"/>
<rect x="239.064" y="278.423" width="7.10551" height="67.599" fill="#c10020" fill-opacity="0.50" stroke-opacity="0.50"/>
<rect x="254.182" y="278.423" width="7.10551" height="67.599" fill="#c10020" fill-opacity="0.50" stroke-opacity="0.50"/>
<rect x="269.3" y="278.423" width="7.10551" height="67.599" fill="#c10020" fill-opacity="0.50" stroke-opacity="0.50"/>
<rect x="284.418" y="300.956" width="7.10551" height="45.066" fill="#c10020" fill-opacity="0.50" stroke-opacity="0.50"/>
<rect x="299.536" y="278.423" width="7.10551" height="67.599" fill="#c10020" fill-opacity="0.50" stroke-opacity="0.50"/>
<rect x="314.654" y="323.489" width="7.10551" height="22.533" fill="#c10020" fill-opacity="0.50" stroke-opacity="0.50"/>
<rect x="329.772" y="323.489" width="7.10551" height="22.533" fill="#c10020" fill-opacity="0.50" stroke-opacity="0.50"/>
<rect x="344.891" y="346.022" width="7.10551" height="0" fill="#c10020" fill-opacity="0.50" stroke-opacity="0.50"/>
<rect x="360.009" y="346.022" width="7.10551" height="0" fill="#c10020" fill-opacity="0.50" stroke-opacity="0.50"/>
<rect x="375.127" y="346.022" width="7.10551" height="0" fill="#c10020" fill-opacity="0.50" stroke-opacity="0.50"/>
<rect x="390.245" y="346.022" width="7.10551" height="0" fill="#c10020" fill-opacity="0.50" stroke-opacity="0.50"/>
<rect x="405.363" y="346.022" width="7.10551" height="0" fill="#c10020" fill-opacity="0.50" stroke-opacity="0.50"/>
<rect x="420.481" y="346.022" width="7.10551" height="0" fill="#c10020" fill-opacity="0.50" stroke-opacity="0.50"/>
<rect x="435.599" y="346.022" width="7.10551" height="0" fill="#c10020" fill-opacity="0.50" stroke-opacity="0.50"/>
<rect x="450.717" y="346.022" width="7.10551" height="0" fill="#c10020" fill-opacity="0.50" stroke-opacity="0.50"/>
<rect x="465.835" y="346.022" width="7.10551" height="0" fill="#c10020" fill-opacity="0.50" stroke-opacity="0.50"/>
<rect x="480.954" y="346.022" width="7.10551" height="0" fill="#c10020" fill-opacity="0.50" stroke-opacity="0.50"/>
<rect x="496.072" y="346.022" width="7.10551" height="0" fill="#c10020" fill-opacity="0.50" stroke-opacity="0.50"/>
<path d="M59.4606,346.022h 72.5669l 4.53543, -0.0354902l 4.53543, -0.0220347l 4.53543, -0.0342363l 4.53543, -0.0522902l 4.53543, -0.0785004l 4.53543, -0.115825l 4.53543, -0.167943l 4.53543, -0.239277l 4.53543, -0.334938l 4.53543, -0.460558l 4.53543,
 -0.621996l 4.53543, -0.824874l 4.53543, -1.07396l 4.53543, -1.37237l 4.53543, -1.72071l 4.53543, -2.11611l 4.53543, -2.55138l 4.53543, -3.01435l 4.53543, -3.48754l 4.53543, -3.9483l 4.53543, -4.36958l 4.53543, -4.72126l 4.53543, -4.97221l 4.53543,
 -5.09269l 4.53543, -5.05714l 4.53543, -4.84702l 4.53543, -4.45319l 4.53543, -3.87778l 4.53543, -3.13507l 4.53543, -2.25124l 4.53543, -1.26303l 4.53543, -0.215168l 4.53543, 0.842931" fill="none" stroke="#c10020" stroke-width="2"/>
<path d="M281.697,280.337l 4.53543, 1.86105l 4.53543, 2.79211l 4.53543, 3.5958l 4.53543, 4.24141l 4.53543, 4.70974l 4.53543, 4.9938l 4.53543, 5.09832l 4.53543, 5.03831l 4.53543, 4.83682l 4.53543, 4.52221l 4.53543, 4.1254l 4.53543, 3.67716l 4.53543,
 3.20601l 4.53543, 2.73649l 4.53543, 2.28823l 4.53543, 1.87554l 4.53543, 1.50756l 4.53543, 1.18882l 4.53543, 0.920004l 4.53543, 0.698906l 4.53543, 0.521323l 4.53543, 0.381896l 4.53543, 0.274796l 4.53543, 0.194256l 4.53543, 0.134925l 4.53543,
 0.0920928l 4.53543, 0.0617756l 4.53543, 0.0407296l 4.53543, 0.0263963l 4.53543, 0.0432443h 86.1732" fill="none" stroke="#c10020" stroke-width="2"/>
<path d="M503.933,346.022h 4.53543" fill="none" stroke="#c10020" stroke-width="2"/>
<rect x="64.752" y="346.022" width="7.10551" height="0" fill="#cea262" fill-opacity="0.50" stroke-opacity="0.50"/>
<rect x="79.8701" y="346.022" width="7.10551" height="0" fill="#cea262" fill-opacity="0.50" stroke-opacity="0.50"/>
<rect x="94.9882" y="346.022" width="7.10551" height="0" fill="#cea262" fill-opacity="0.50" stroke-opacity="0.50"/>
<rect x="110.106" y="346.022" width="7.10551" height="0" fill="#cea262" fill-opacity="0.50" stroke-opacity="0.50"/>
<rect x="125.224" y="346.022" width="7.10551" height="0" fill="#cea262" fill-opacity="0.50" stroke-opacity="0.50"/>
<rect x="140.343" y="346.022" width="7.10551" height="0" fill="#cea262" fill-opacity="0.50" stroke-opacity="0.50"/>
<rect x="155.461" y="346.022" width="7.10551" height="0" fill="#cea262" fill-opacity="0.50" stroke-opacity="0.50"/>
<rect x="170.579" y="346.022" width="7.10551" height="0" fill="#cea262" fill-opacity="0.50" stroke-opacity="0.50"/>
<rect x="185.697" y="346.022" width="7.10551" height="0" fill="#cea262" fill-opacity="0.50" stroke-opacity="0.50"/>
<rect x="200.815" y="300.956" width="7.10551" height="45.066" fill="#cea262" fill-opacity="0.50" stroke-opacity="0.50"/>
<rect x="215.933" y="300.956" width="7.10551" height="45.066" fill="#cea262" fill-opacity="0.50" stroke-opacity="0.50"/>
<rect x="231.051" y="278.423" width="7.10551" height="67.599" fill="#cea262" fill-opacity="0.50" stroke-opacity="0.50"/>
<rect x="246.169" y="188.291" width="7.10551" height="157.731" fill="#cea262" fill-opacity="0.50" stroke-opacity="0.50"/>
<rect x="261.287" y="255.89" width="7.10551" height="90.132" fill="#cea262" fill-opacity="0.50" stroke-opacity="0.50"/>
<rect x="276.406" y="53.0934" width="7.10551" height="292.929" fill="#cea262" fill-opacity="0.50" stroke-opacity="0.50"/>
<rect x="291.524" y="233.357" width="7.10551" height="112.665" fill="#cea262" fill-opacity="0.50" stroke-opacity="0.50"/>
<rect x="306.642" y="210.824" width="7.10551" height="135.198" fill="#cea262" fill-opacity="0.50" stroke-opacity="0.50"/>
<rect x="321.76" y="188.291" width="7.10551" height="157.731" fill="#cea262" fill-opacity="0.50" stroke-opacity="0.50"/>
<rect x="336.878" y="346.022" width="7.10551" height="0" fill="#cea262" fill-opacity="0.50" stroke-opacity="0.50"/>
<rect x="351.996" y="346.022" width="7.10551" height="0" fill="#cea262" fill-opacity="0.50" stroke-opacity="0.50"/>
<rect x="367.114" y="323.489" width="7.10551" height="22.533" fill="#cea262" fill-opacity="0.50" stroke-opacity="0.50"/>
<rect x="382.232" y="346.022" width="7.10551" height="0" fill="#cea262" fill-opacity="0.50" stroke-opacity="0.50"/>
<rect x="397.35" y="346.022" width="7.10551" height="0" fill="#cea262" fill-opacity="0.50" stroke-opacity="0.50"/>
<rect x="412.469" y="346.022" width="7.10551" height="0" fill="#cea262" fill-opacity="0.50" stroke-opacity="0.50"/>
<rect x="427.587" y="346.022" width="7.10551" height="0" fill="#cea262" fill-opacity="0.50" stroke-opacity="0.50"/>
<rect x="442.705" y="346.022" width="7.10551" height="0" fill="#cea262" fill-opacity="0.50" stroke-opacity="0.50"/>
<rect x="457.823" y="346.022" width="7.10551" height="0" fill="#cea262" fill-opacity="0.50" stroke-opacity="0.50"/>
<rect x="472.941" y="346.022" width="7.10551" height="0" fill="#cea262" fill-opacity="0.50" stroke-opacity="0.50"/>
<rect x="488.059" y="346.022" width="7.10551" height="0" fill="#cea262" fill-opacity="0.50" stroke-opacity="0.50"/>
<rect x="503.177" y="346.022" width="7.10551" height="0" fill="#cea262" fill-opacity="0.50" stroke-opacity="0.50"/>
<path d="M59.4606,346.022h 31.748l 4.53543, -0.0328475l 4.53543, -0.0162469l 4.53543, -0.0235679l 4.53543, -0.033834l 4.53543, -0.0480676l 4.53543, -0.0675777l 4.53543, -0.0940133l 4.53543, -0.129417l 4.53543, -0.176276l 4.53543, -0.237559l 4.53543,
 -0.31674l 4.53543, -0.417795l 4.53543, -0.54516l 4.53543, -0.703648l 4.53543, -0.898304l 4.53543, -1.1342l 4.53543, -1.41617l 4.53543, -1.74844l 4.53543, -2.13425l 4.53543, -2.57538l 4.53543, -3.07163l 4.53543, -3.62038l 4.53543, -4.21609l 4.53543,
 -4.84993l 4.53543, -5.50952l 4.53543, -6.17886l 4.53543, -6.83846l 4.53543, -7.46568l 4.53543, -8.03545l 4.53543, -8.52112l 4.53543, -8.89562l 4.53543, -9.13282l 4.53543, -9.20901l 4.53543, -9.10436l 4.53543, -8.8044l 4.53543, -8.30127l 4.53543,
 -7.59467l 4.53543, -6.69247l 4.53543, -5.61086l 4.53543, -4.37399l 4.53543, -3.01313l 4.53543, -1.56541" fill="none" stroke="#cea262" stroke-width="2"/>
<path d="M281.697,192.668l 4.53543, -0.0720994l 4.53543, 1.42332l 4.53543, 2.87726l 4.53543, 4.24815l 4.53543, 5.49839l 4.53543, 6.59607l 4.53543, 7.51633l 4.53543, 8.24219l 4.53543, 8.76497l 4.53543, 9.08421l 4.53543, 9.20708l 4.53543, 9.14748l
 4.53543, 8.92476l 4.53543, 8.56233l 4.53543, 8.08617l 4.53543, 7.5233l 4.53543, 6.90047l 4.53543, 6.24296l 4.53543, 5.57365l 4.53543, 4.91237l 4.53543, 4.27547l 4.53543, 3.67566l 4.53543, 3.12211l 4.53543, 2.62066l 4.53543, 2.1742l 4.53543, 1.78313l
 4.53543, 1.44583l 4.53543, 1.15921l 4.53543, 0.919086l 4.53543, 0.720689l 4.53543, 0.558949l 4.53543, 0.428809l 4.53543, 0.325427l 4.53543, 0.244326l 4.53543, 0.181483l 4.53543, 0.133376l 4.53543, 0.0969877l 4.53543, 0.0697863l 4.53543, 0.0496886l
 4.53543, 0.0350101l 4.53543, 0.0244116l 4.53543, 0.0168453l 4.53543, 0.0341543h 27.2126" fill="none" stroke="#cea262" stroke-width="2"/>
<path d="M503.933,346.022h 4.53543" fill="none" stroke="#cea262" stroke-width="2"/>
<path d="M57.1929,346.022h 453.543" fill="none" stroke="black"/>
<path d="M57.1929,336.795v 9.22726" fill="none" stroke="black"/>
<path d="M72.311,341.409v 4.61363" fill="none" stroke="black"/>
<path d="M87.4291,341.409v 4.61363" fill="none" stroke="black"/>
<path d="M102.547,341.409v 4.61363" fill="none" stroke="black"/>
<path d="M117.665,341.409v 4.61363" fill="none" stroke="black"/>
<path d="M132.783,336.795v 9.22726" fill="none" stroke="black"/>
<path d="M147.902,341.409v 4.61363" fill="none" stroke="black"/>
<path d="M163.02,341.409v 4.61363" fill="none" stroke="black"/>
<path d="M178.138,341.409v 4.61363" fill="none" stroke="black"/>
<path d="M193.256,341.409v 4.61363" fill="none" stroke="black"/>
<path d="M208.374,336.795v 9.22726" fill="none" stroke="black"/>
<path d="M223.492,341.409v 4.61363" fill="none" stroke="black"/>
<path d="M238.61,341.409v 4.61363" fill="none" stroke="black"/>
<path d="M253.728,341.409v 4.61363" fill="none" stroke="black"/>
<path d="M268.846,341.409v 4.61363" fill="none" stroke="black"/>
<path d="M283.965,336.795v 9.22726" fill="none" stroke="black"/>
<path d="M299.083,341.409v 4.61363" fill="none" stroke="black"/>
<path d="M314.201,341.409v 4.61363" fill="none" stroke="black"/>
<path d="M329.319,341.409v 4.61363" fill="none" stroke="black"/>
<path d="M344.437,341.409v 4.61363" fill="none" stroke="black"/>
<path d="M359.555,336.795v 9.22726" fill="none" stroke="black"/>
<path d="M374.673,341.409v 4.61363" fill="none" stroke="black"/>
<path d="M389.791,341.409v 4.61363" fill="none" stroke="black"/>
<path d="M404.909,341.409v 4.61363" fill="none" stroke="black"/>
<path d="M420.028,341.409v 4.61363" fill="none" stroke="black"/>
<path d="M435.146,336.795v 9.22726" fill="none" stroke="black"/>
<path d="M450.264,341.409v 4.61363" fill="none" stroke="black"/>
<path d="M465.382,341.409v 4.61363" fill="none" stroke="black"/>
<path d="M480.5,341.409v 4.61363" fill="none" stroke="black"/>
<path d="M495.618,341.409v 4.61363" fill="none" stroke="black"/>
<path d="M510.736,336.795v 9.22726" fill="none" stroke="black"/>
<path d="M57.1929,346.022v -307.575" fill="none" stroke="black"/>
<path d="M70.7992,346.022h -13.6063" fill="none" stroke="black"/>
<path d="M63.9961,334.756h -6.80315" fill="none" stroke="black"/>
<path d="M63.9961,323.489h -6.80315" fill="none" stroke="black"/>
<path d="M63.9961,312.223h -6.80315" fill="none" stroke="black"/>
<path d="M70.7992,300.956h -13.6063" fill="none" stroke="black"/>
<path d="M63.9961,289.69h -6.80315" fill="none" stroke="black"/>
<path d="M63.9961,278.423h -6.80315" fill="none" stroke="black"/>
<path d="M63.9961,267.157h -6.80315" fill="none" stroke="black"/>
<path d="M70.7992,255.89h -13.6063" fill="none" stroke="black"/>
<path d="M63.9961,244.624h -6.80315" fill="none" stroke="black"/>
<path d="M63.9961,233.357h -6.80315" fill="none" stroke="black"/>
<path d="M63.9961,222.091h -6.80315" fill="none" stroke="black"/>
<path d="M70.7992,210.824h -13.6063" fill="none" stroke="black"/>
<path d="M63.9961,199.558h -6.80315" fill="none" stroke="black"/>
<path d="M63.9961,188.291h -6.80315" fill="none" stroke="black"/>
<path d="M63.9961,177.025h -6.80315" fill="none" stroke="black"/>
<path d="M70.7992,165.758h -13.6063" fill="none" stroke="black"/>
<path d="M63.9961,154.492h -6.80315" fill="none" stroke="black"/>
<path d="M63.9961,143.225h -6.80315" fill="none" stroke="black"/>
<path d="M63.9961,131.959h -6.80315" fill="none" stroke="black"/>
<path d="M70.7992,120.692h -13.6063" fill="none" stroke="black"/>
<path d="M63.9961,109.426h -6.80315" fill="none" stroke="black"/>
<path d="M63.9961,98.1593h -6.80315" fill="none" stroke="black"/>
<path d="M63.9961,86.8929h -6.80315" fill="none" stroke="black"/>
<path d="M70.7992,75.6264h -13.6063" fill="none" stroke="black"/>
<path d="M70.7992,75.6264h -13.6063" fill="none" stroke="black"/>
<path d="M63.9961,64.3599h -6.80315" fill="none" stroke="black"/>
<path d="M63.9961,53.0934h -6.80315" fill="none" stroke="black"/>
<path d="M63.9961,41.8269h -6.80315" fill="none" stroke="black"/>
<rect x="58.0145" y="213.749" width="170.079" height="80.7385" fill="white"/>
<path d="M58.0145,294.487h 170.079" fill="none" stroke="black"/>
<path d="M228.093,294.487v -80.7385" fill="none" stroke="black"/>
<path d="M228.093,213.749h -170.079" fill="none" stroke="black"/>
<path d="M58.0145,213.749v 80.7385" fill="none" stroke="black"/>
<text xml:space="preserve" x="99.8755" y="242.737" fill="black" font-size="26.0796" font-family="Helvetica">vop 69.13</text>
<path d="M64.3925,248.062h 29.7638v -28.2585h -29.7638z" fill="#c10020" fill-opacity="0.50" stroke-opacity="0.50"/>
<path d="M64.3925,233.933h 29.7638" fill="none" stroke="#c10020" fill-opacity="0.00" stroke-opacity="0.00"/>
<g stroke="black" stroke-width="1" fill="none">
<line x1="78.2744" y1="233.933" x2="79.2744" y2="233.933"/>
</g>
<text xml:space="preserve" x="99.8755" y="282.65" fill="black" font-size="26.0796" font-family="Helvetica">vop 69.18</text>
<path d="M64.3925,288.432h 29.7638v -28.2585h -29.7638z" fill="#cea262" fill-opacity="0.50" stroke-opacity="0.50"/>
<path d="M64.3925,274.302h 29.7638" fill="none" stroke="#cea262" fill-opacity="0.00" stroke-opacity="0.00"/>
<g stroke="black" stroke-width="1" fill="none">
<line x1="78.2744" y1="274.302" x2="79.2744" y2="274.302"/>
</g>
<text xml:space="preserve" x="253.826" y="18.7347" fill="black" font-size="16.9898" font-family="Helvetica">sector 6</text></svg>
