<?xml version="1.0" standalone="no"?>
<svg width="567.429" height="384.969" viewBox="0 0 567.429 384.969" xmlns="http://www.w3.org/2000/svg" shape-rendering="crispEdges">
<title>
./adjusted_vop/sector_by_vop/sector-13_vop-69.03.svg
</title>
<desc>
Creator: ROOT Version 6.22/02
CreationDate: Mon Jul 12 11:35:43 2021</desc>
<defs>
</defs>
<rect x="0.5" y="0" width="566.929" height="384.469" fill="white"/>
<rect x="57.1929" y="38.4469" width="453.543" height="307.575" fill="white"/>
<rect x="57.1929" y="38.4469" width="453.543" height="307.575" fill="none" stroke="black"/>
<path d="M57.1929,346.022h 120.945v -15.1591h 15.1181v 15.1591h 15.1181v -30.3182h 15.1181v -136.432h 15.1181v -75.7955h 15.1181v -45.4773h 15.1181v 272.864h 15.1181v 15.1591h 226.772" fill="none" stroke="#ff6800"/>
<path d="M59.4606,346.022h 126.992l 4.53543, -0.0856836l 4.53543, -0.220239l 4.53543, -0.674366l 4.53543, -1.8389l 4.53543, -4.45732l 4.53543, -9.57931l 4.53543, -18.1875l 4.53543, -30.3432l 4.53543, -44.1097l 4.53543, -55.0691l 4.53543, -57.4105l
 4.53543, -46.7449l 4.53543, -23.2403l 4.53543, 7.26811l 4.53543, 35.5454l 4.53543, 53.4593l 4.53543, 57.7448l 4.53543, 50.6733l 4.53543, 37.7184l 4.53543, 24.3006l 4.53543, 13.7024" fill="none" stroke="#ff6800" stroke-width="2"/>
<path d="M281.697,334.474l 4.53543, 6.80826l 4.53543, 2.99402l 4.53543, 1.16891l 4.53543, 0.406035l 4.53543, 0.125694l 4.53543, 0.0456239h 195.024" fill="none" stroke="#ff6800" stroke-width="2"/>
<path d="M503.933,346.022h 4.53543" fill="none" stroke="#ff6800" stroke-width="2"/>
<path d="M57.1929,346.022h 453.543" fill="none" stroke="black"/>
<path d="M57.1929,336.795v 9.22726" fill="none" stroke="black"/>
<path d="M72.311,341.409v 4.61363" fill="none" stroke="black"/>
<path d="M87.4291,341.409v 4.61363" fill="none" stroke="black"/>
<path d="M102.547,341.409v 4.61363" fill="none" stroke="black"/>
<path d="M117.665,341.409v 4.61363" fill="none" stroke="black"/>
<path d="M132.783,336.795v 9.22726" fill="none" stroke="black"/>
<path d="M147.902,341.409v 4.61363" fill="none" stroke="black"/>
<path d="M163.02,341.409v 4.61363" fill="none" stroke="black"/>
<path d="M178.138,341.409v 4.61363" fill="none" stroke="black"/>
<path d="M193.256,341.409v 4.61363" fill="none" stroke="black"/>
<path d="M208.374,336.795v 9.22726" fill="none" stroke="black"/>
<path d="M223.492,341.409v 4.61363" fill="none" stroke="black"/>
<path d="M238.61,341.409v 4.61363" fill="none" stroke="black"/>
<path d="M253.728,341.409v 4.61363" fill="none" stroke="black"/>
<path d="M268.846,341.409v 4.61363" fill="none" stroke="black"/>
<path d="M283.965,336.795v 9.22726" fill="none" stroke="black"/>
<path d="M299.083,341.409v 4.61363" fill="none" stroke="black"/>
<path d="M314.201,341.409v 4.61363" fill="none" stroke="black"/>
<path d="M329.319,341.409v 4.61363" fill="none" stroke="black"/>
<path d="M344.437,341.409v 4.61363" fill="none" stroke="black"/>
<path d="M359.555,336.795v 9.22726" fill="none" stroke="black"/>
<path d="M374.673,341.409v 4.61363" fill="none" stroke="black"/>
<path d="M389.791,341.409v 4.61363" fill="none" stroke="black"/>
<path d="M404.909,341.409v 4.61363" fill="none" stroke="black"/>
<path d="M420.028,341.409v 4.61363" fill="none" stroke="black"/>
<path d="M435.146,336.795v 9.22726" fill="none" stroke="black"/>
<path d="M450.264,341.409v 4.61363" fill="none" stroke="black"/>
<path d="M465.382,341.409v 4.61363" fill="none" stroke="black"/>
<path d="M480.5,341.409v 4.61363" fill="none" stroke="black"/>
<path d="M495.618,341.409v 4.61363" fill="none" stroke="black"/>
<path d="M510.736,336.795v 9.22726" fill="none" stroke="black"/>
<text xml:space="preserve" x="53.446" y="358.403" fill="black" font-size="12.8453" font-family="Helvetica">0</text>
<text xml:space="preserve" x="121.868" y="358.403" fill="black" font-size="12.8453" font-family="Helvetica">100</text>
<text xml:space="preserve" x="197.622" y="358.403" fill="black" font-size="12.8453" font-family="Helvetica">200</text>
<text xml:space="preserve" x="273.375" y="358.403" fill="black" font-size="12.8453" font-family="Helvetica">300</text>
<text xml:space="preserve" x="348.314" y="358.403" fill="black" font-size="12.8453" font-family="Helvetica">400</text>
<text xml:space="preserve" x="424.068" y="358.403" fill="black" font-size="12.8453" font-family="Helvetica">500</text>
<text xml:space="preserve" x="499.821" y="358.403" fill="black" font-size="12.8453" font-family="Helvetica">600</text>
<text xml:space="preserve" x="486.788" y="369.807" fill="black" font-size="12.8453" font-family="Helvetica">mpv</text>
<path d="M57.1929,346.022v -307.575" fill="none" stroke="black"/>
<path d="M70.7992,346.022h -13.6063" fill="none" stroke="black"/>
<path d="M63.9961,338.443h -6.80315" fill="none" stroke="black"/>
<path d="M63.9961,330.863h -6.80315" fill="none" stroke="black"/>
<path d="M63.9961,323.284h -6.80315" fill="none" stroke="black"/>
<path d="M70.7992,315.704h -13.6063" fill="none" stroke="black"/>
<path d="M63.9961,308.125h -6.80315" fill="none" stroke="black"/>
<path d="M63.9961,300.545h -6.80315" fill="none" stroke="black"/>
<path d="M63.9961,292.965h -6.80315" fill="none" stroke="black"/>
<path d="M70.7992,285.386h -13.6063" fill="none" stroke="black"/>
<path d="M63.9961,277.806h -6.80315" fill="none" stroke="black"/>
<path d="M63.9961,270.227h -6.80315" fill="none" stroke="black"/>
<path d="M63.9961,262.647h -6.80315" fill="none" stroke="black"/>
<path d="M70.7992,255.068h -13.6063" fill="none" stroke="black"/>
<path d="M63.9961,247.488h -6.80315" fill="none" stroke="black"/>
<path d="M63.9961,239.909h -6.80315" fill="none" stroke="black"/>
<path d="M63.9961,232.329h -6.80315" fill="none" stroke="black"/>
<path d="M70.7992,224.75h -13.6063" fill="none" stroke="black"/>
<path d="M63.9961,217.17h -6.80315" fill="none" stroke="black"/>
<path d="M63.9961,209.59h -6.80315" fill="none" stroke="black"/>
<path d="M63.9961,202.011h -6.80315" fill="none" stroke="black"/>
<path d="M70.7992,194.431h -13.6063" fill="none" stroke="black"/>
<path d="M63.9961,186.852h -6.80315" fill="none" stroke="black"/>
<path d="M63.9961,179.272h -6.80315" fill="none" stroke="black"/>
<path d="M63.9961,171.693h -6.80315" fill="none" stroke="black"/>
<path d="M70.7992,164.113h -13.6063" fill="none" stroke="black"/>
<path d="M63.9961,156.534h -6.80315" fill="none" stroke="black"/>
<path d="M63.9961,148.954h -6.80315" fill="none" stroke="black"/>
<path d="M63.9961,141.375h -6.80315" fill="none" stroke="black"/>
<path d="M70.7992,133.795h -13.6063" fill="none" stroke="black"/>
<path d="M63.9961,126.215h -6.80315" fill="none" stroke="black"/>
<path d="M63.9961,118.636h -6.80315" fill="none" stroke="black"/>
<path d="M63.9961,111.056h -6.80315" fill="none" stroke="black"/>
<path d="M70.7992,103.477h -13.6063" fill="none" stroke="black"/>
<path d="M63.9961,95.8973h -6.80315" fill="none" stroke="black"/>
<path d="M63.9961,88.3177h -6.80315" fill="none" stroke="black"/>
<path d="M63.9961,80.7382h -6.80315" fill="none" stroke="black"/>
<path d="M70.7992,73.1586h -13.6063" fill="none" stroke="black"/>
<path d="M63.9961,65.5791h -6.80315" fill="none" stroke="black"/>
<path d="M63.9961,57.9995h -6.80315" fill="none" stroke="black"/>
<path d="M63.9961,50.42h -6.80315" fill="none" stroke="black"/>
<path d="M70.7992,42.8404h -13.6063" fill="none" stroke="black"/>
<path d="M70.7992,42.8404h -13.6063" fill="none" stroke="black"/>
<text xml:space="preserve" x="47.7441" y="350.258" fill="black" font-size="12.8453" font-family="Helvetica">0</text>
<text xml:space="preserve" x="47.7441" y="320.119" fill="black" font-size="12.8453" font-family="Helvetica">2</text>
<text xml:space="preserve" x="47.7441" y="289.981" fill="black" font-size="12.8453" font-family="Helvetica">4</text>
<text xml:space="preserve" x="47.7441" y="259.843" fill="black" font-size="12.8453" font-family="Helvetica">6</text>
<text xml:space="preserve" x="47.7441" y="228.889" fill="black" font-size="12.8453" font-family="Helvetica">8</text>
<text xml:space="preserve" x="41.2277" y="198.751" fill="black" font-size="12.8453" font-family="Helvetica">10</text>
<text xml:space="preserve" x="40.4131" y="168.613" fill="black" font-size="12.8453" font-family="Helvetica">12</text>
<text xml:space="preserve" x="40.4131" y="138.474" fill="black" font-size="12.8453" font-family="Helvetica">14</text>
<text xml:space="preserve" x="40.4131" y="108.336" fill="black" font-size="12.8453" font-family="Helvetica">16</text>
<text xml:space="preserve" x="40.4131" y="77.3826" fill="black" font-size="12.8453" font-family="Helvetica">18</text>
<text xml:space="preserve" x="41.2277" y="47.2441" fill="black" font-size="12.8453" font-family="Helvetica">20</text>
<g transform="rotate(-90,27.3803,86.3427)">
<text xml:space="preserve" x="27.3803" y="86.3427" fill="black" font-size="12.8453" font-family="Helvetica">n_blocks</text>
</g>
<text xml:space="preserve" x="199.251" y="17.9202" fill="black" font-size="18.7938" font-family="Helvetica">sector 13, vop 69.03</text>
<rect x="351.996" y="24.9905" width="204.094" height="76.8938" fill="white"/>
<path d="M351.996,101.884h 204.094" fill="none" stroke="black"/>
<path d="M556.091,101.884v -76.8938" fill="none" stroke="black"/>
<path d="M556.091,24.9905h -204.094" fill="none" stroke="black"/>
<path d="M351.996,24.9905v 76.8938" fill="none" stroke="black"/>
<text xml:space="preserve" x="377.638" y="39.0986" fill="black" font-size="16.7253" font-family="Helvetica"> / ndf </text>
<text xml:space="preserve" x="371.122" y="34.2112" fill="black" font-size="11.3169" font-family="Helvetica">2</text>
<text xml:space="preserve" x="362.162" y="39.0986" fill="black" font-size="16.7253" font-family="Times">&#0967;</text>
<text xml:space="preserve" x="477.828" y="40.7277" fill="black" font-size="16.7253" font-family="Helvetica"> 5.965 / 3</text>
<text xml:space="preserve" x="362.162" y="60.2769" fill="black" font-size="16.7253" font-family="Helvetica">Constant </text>
<text xml:space="preserve" x="512.039" y="60.2769" fill="black" font-size="16.7253" font-family="Helvetica"> 3.51</text>
<text xml:space="preserve" x="503.079" y="60.2769" fill="black" font-size="16.7253" font-family="Times">&#0177;</text>
<text xml:space="preserve" x="452.577" y="60.2769" fill="black" font-size="16.7253" font-family="Helvetica"> 19.33 </text>
<text xml:space="preserve" x="362.162" y="79.0117" fill="black" font-size="16.7253" font-family="Helvetica">Mean     </text>
<text xml:space="preserve" x="521" y="79.0117" fill="black" font-size="16.7253" font-family="Helvetica"> 3.1</text>
<text xml:space="preserve" x="512.039" y="79.0117" fill="black" font-size="16.7253" font-family="Times">&#0177;</text>
<text xml:space="preserve" x="461.537" y="79.0117" fill="black" font-size="16.7253" font-family="Helvetica"> 250.6 </text>
<text xml:space="preserve" x="362.162" y="96.9318" fill="black" font-size="16.7253" font-family="Helvetica">Sigma    </text>
<text xml:space="preserve" x="512.039" y="98.561" fill="black" font-size="16.7253" font-family="Helvetica"> 1.91</text>
<text xml:space="preserve" x="503.079" y="98.561" fill="black" font-size="16.7253" font-family="Times">&#0177;</text>
<text xml:space="preserve" x="452.577" y="98.561" fill="black" font-size="16.7253" font-family="Helvetica"> 18.24 </text>
<g stroke="black" stroke-width="1" fill="none">
<line x1="63.752" y1="346.022" x2="64.752" y2="346.022"/>
</g>
<g stroke="black" stroke-width="1" fill="none">
<line x1="78.8701" y1="346.022" x2="79.8701" y2="346.022"/>
</g>
<g stroke="black" stroke-width="1" fill="none">
<line x1="93.9882" y1="346.022" x2="94.9882" y2="346.022"/>
</g>
<g stroke="black" stroke-width="1" fill="none">
<line x1="109.106" y1="346.022" x2="110.106" y2="346.022"/>
</g>
<g stroke="black" stroke-width="1" fill="none">
<line x1="124.224" y1="346.022" x2="125.224" y2="346.022"/>
</g>
<g stroke="black" stroke-width="1" fill="none">
<line x1="139.343" y1="346.022" x2="140.343" y2="346.022"/>
</g>
<g stroke="black" stroke-width="1" fill="none">
<line x1="154.461" y1="346.022" x2="155.461" y2="346.022"/>
</g>
<g stroke="black" stroke-width="1" fill="none">
<line x1="169.579" y1="346.022" x2="170.579" y2="346.022"/>
</g>
<path d="M185.697,346.022v -15.1591" fill="none" stroke="#ff6800"/>
<path d="M185.697,330.863v -15.1591" fill="none" stroke="#ff6800"/>
<path d="M178.138,330.863h 7.55905" fill="none" stroke="#ff6800"/>
<path d="M185.697,330.863h 7.55905" fill="none" stroke="#ff6800"/>
<g stroke="black" stroke-width="1" fill="none">
<line x1="184.697" y1="330.863" x2="185.697" y2="330.863"/>
</g>
<g stroke="black" stroke-width="1" fill="none">
<line x1="199.815" y1="346.022" x2="200.815" y2="346.022"/>
</g>
<path d="M215.933,337.142v -21.4382" fill="none" stroke="#ff6800"/>
<path d="M215.933,315.704v -21.4382" fill="none" stroke="#ff6800"/>
<path d="M208.374,315.704h 7.55905" fill="none" stroke="#ff6800"/>
<path d="M215.933,315.704h 7.55905" fill="none" stroke="#ff6800"/>
<g stroke="black" stroke-width="1" fill="none">
<line x1="214.933" y1="315.704" x2="215.933" y2="315.704"/>
</g>
<path d="M231.051,229.549v -50.277" fill="none" stroke="#ff6800"/>
<path d="M231.051,179.272v -50.277" fill="none" stroke="#ff6800"/>
<path d="M223.492,179.272h 7.55905" fill="none" stroke="#ff6800"/>
<path d="M231.051,179.272h 7.55905" fill="none" stroke="#ff6800"/>
<g stroke="black" stroke-width="1" fill="none">
<line x1="230.051" y1="179.272" x2="231.051" y2="179.272"/>
</g>
<path d="M246.169,164.113v -60.6364" fill="none" stroke="#ff6800"/>
<path d="M246.169,103.477v -60.6364" fill="none" stroke="#ff6800"/>
<path d="M238.61,103.477h 7.55905" fill="none" stroke="#ff6800"/>
<path d="M246.169,103.477h 7.55905" fill="none" stroke="#ff6800"/>
<g stroke="black" stroke-width="1" fill="none">
<line x1="245.169" y1="103.477" x2="246.169" y2="103.477"/>
</g>
<path d="M261.287,124.076v -66.0769" fill="none" stroke="#ff6800"/>
<path d="M261.287,57.9995v -19.5526" fill="none" stroke="#ff6800"/>
<path d="M253.728,57.9995h 7.55905" fill="none" stroke="#ff6800"/>
<path d="M261.287,57.9995h 7.55905" fill="none" stroke="#ff6800"/>
<g stroke="black" stroke-width="1" fill="none">
<line x1="260.287" y1="57.9995" x2="261.287" y2="57.9995"/>
</g>
<path d="M276.406,346.022v -15.1591" fill="none" stroke="#ff6800"/>
<path d="M276.406,330.863v -15.1591" fill="none" stroke="#ff6800"/>
<path d="M268.846,330.863h 7.55905" fill="none" stroke="#ff6800"/>
<path d="M276.406,330.863h 7.55905" fill="none" stroke="#ff6800"/>
<g stroke="black" stroke-width="1" fill="none">
<line x1="275.406" y1="330.863" x2="276.406" y2="330.863"/>
</g>
<g stroke="black" stroke-width="1" fill="none">
<line x1="290.524" y1="346.022" x2="291.524" y2="346.022"/>
</g>
<g stroke="black" stroke-width="1" fill="none">
<line x1="305.642" y1="346.022" x2="306.642" y2="346.022"/>
</g>
<g stroke="black" stroke-width="1" fill="none">
<line x1="320.76" y1="346.022" x2="321.76" y2="346.022"/>
</g>
<g stroke="black" stroke-width="1" fill="none">
<line x1="335.878" y1="346.022" x2="336.878" y2="346.022"/>
</g>
<g stroke="black" stroke-width="1" fill="none">
<line x1="350.996" y1="346.022" x2="351.996" y2="346.022"/>
</g>
<g stroke="black" stroke-width="1" fill="none">
<line x1="366.114" y1="346.022" x2="367.114" y2="346.022"/>
</g>
<g stroke="black" stroke-width="1" fill="none">
<line x1="381.232" y1="346.022" x2="382.232" y2="346.022"/>
</g>
<g stroke="black" stroke-width="1" fill="none">
<line x1="396.35" y1="346.022" x2="397.35" y2="346.022"/>
</g>
<g stroke="black" stroke-width="1" fill="none">
<line x1="411.469" y1="346.022" x2="412.469" y2="346.022"/>
</g>
<g stroke="black" stroke-width="1" fill="none">
<line x1="426.587" y1="346.022" x2="427.587" y2="346.022"/>
</g>
<g stroke="black" stroke-width="1" fill="none">
<line x1="441.705" y1="346.022" x2="442.705" y2="346.022"/>
</g>
<g stroke="black" stroke-width="1" fill="none">
<line x1="456.823" y1="346.022" x2="457.823" y2="346.022"/>
</g>
<g stroke="black" stroke-width="1" fill="none">
<line x1="471.941" y1="346.022" x2="472.941" y2="346.022"/>
</g>
<g stroke="black" stroke-width="1" fill="none">
<line x1="487.059" y1="346.022" x2="488.059" y2="346.022"/>
</g>
<g stroke="black" stroke-width="1" fill="none">
<line x1="502.177" y1="346.022" x2="503.177" y2="346.022"/>
</g>
<path d="M59.4606,346.022h 126.992l 4.53543, -0.0856836l 4.53543, -0.220239l 4.53543, -0.674366l 4.53543, -1.8389l 4.53543, -4.45732l 4.53543, -9.57931l 4.53543, -18.1875l 4.53543, -30.3432l 4.53543, -44.1097l 4.53543, -55.0691l 4.53543, -57.4105l
 4.53543, -46.7449l 4.53543, -23.2403l 4.53543, 7.26811l 4.53543, 35.5454l 4.53543, 53.4593l 4.53543, 57.7448l 4.53543, 50.6733l 4.53543, 37.7184l 4.53543, 24.3006l 4.53543, 13.7024" fill="none" stroke="#ff6800" stroke-width="2"/>
<path d="M281.697,334.474l 4.53543, 6.80826l 4.53543, 2.99402l 4.53543, 1.16891l 4.53543, 0.406035l 4.53543, 0.125694l 4.53543, 0.0456239h 195.024" fill="none" stroke="#ff6800" stroke-width="2"/>
<path d="M503.933,346.022h 4.53543" fill="none" stroke="#ff6800" stroke-width="2"/>
<rect x="351.996" y="24.9905" width="204.094" height="76.8938" fill="white"/>
<path d="M351.996,101.884h 204.094" fill="none" stroke="black"/>
<path d="M556.091,101.884v -76.8938" fill="none" stroke="black"/>
<path d="M556.091,24.9905h -204.094" fill="none" stroke="black"/>
<path d="M351.996,24.9905v 76.8938" fill="none" stroke="black"/>
<text xml:space="preserve" x="377.638" y="39.0986" fill="black" font-size="16.7253" font-family="Helvetica"> / ndf </text>
<text xml:space="preserve" x="371.122" y="34.2112" fill="black" font-size="11.3169" font-family="Helvetica">2</text>
<text xml:space="preserve" x="362.162" y="39.0986" fill="black" font-size="16.7253" font-family="Times">&#0967;</text>
<text xml:space="preserve" x="477.828" y="40.7277" fill="black" font-size="16.7253" font-family="Helvetica"> 5.965 / 3</text>
<text xml:space="preserve" x="362.162" y="60.2769" fill="black" font-size="16.7253" font-family="Helvetica">Constant </text>
<text xml:space="preserve" x="512.039" y="60.2769" fill="black" font-size="16.7253" font-family="Helvetica"> 3.51</text>
<text xml:space="preserve" x="503.079" y="60.2769" fill="black" font-size="16.7253" font-family="Times">&#0177;</text>
<text xml:space="preserve" x="452.577" y="60.2769" fill="black" font-size="16.7253" font-family="Helvetica"> 19.33 </text>
<text xml:space="preserve" x="362.162" y="79.0117" fill="black" font-size="16.7253" font-family="Helvetica">Mean     </text>
<text xml:space="preserve" x="521" y="79.0117" fill="black" font-size="16.7253" font-family="Helvetica"> 3.1</text>
<text xml:space="preserve" x="512.039" y="79.0117" fill="black" font-size="16.7253" font-family="Times">&#0177;</text>
<text xml:space="preserve" x="461.537" y="79.0117" fill="black" font-size="16.7253" font-family="Helvetica"> 250.6 </text>
<text xml:space="preserve" x="362.162" y="96.9318" fill="black" font-size="16.7253" font-family="Helvetica">Sigma    </text>
<text xml:space="preserve" x="512.039" y="98.561" fill="black" font-size="16.7253" font-family="Helvetica"> 1.91</text>
<text xml:space="preserve" x="503.079" y="98.561" fill="black" font-size="16.7253" font-family="Times">&#0177;</text>
<text xml:space="preserve" x="452.577" y="98.561" fill="black" font-size="16.7253" font-family="Helvetica"> 18.24 </text>
<text xml:space="preserve" x="199.251" y="17.9202" fill="black" font-size="18.7938" font-family="Helvetica">sector 13, vop 69.03</text></svg>
