<?xml version="1.0" standalone="no"?>
<svg width="567.429" height="384.969" viewBox="0 0 567.429 384.969" xmlns="http://www.w3.org/2000/svg" shape-rendering="crispEdges">
<title>
./adjusted_vop/sector_by_vop/sector-3_vop-69.33.svg
</title>
<desc>
Creator: ROOT Version 6.24/00
CreationDate: Wed Jul 21 21:39:40 2021</desc>
<defs>
</defs>
<rect x="0.5" y="0" width="566.929" height="384.469" fill="white"/>
<rect x="57.1929" y="38.4469" width="453.543" height="307.575" fill="white"/>
<rect x="57.1929" y="38.4469" width="453.543" height="307.575" fill="none" stroke="black"/>
<path d="M57.1929,346.022h 105.827v -48.4476h 15.1181v 48.4476h 15.1181v -72.6714h 15.1181v -121.119h 15.1181v -96.8952h 15.1181v 24.2238h 15.1181v 24.2238h 30.2362v 193.79h 30.2362v 48.4476h 196.535" fill="none" stroke="#007d34"/>
<path d="M59.4606,346.022h 58.9606l 4.53543, -0.0447147l 4.53543, -0.0404435l 4.53543, -0.0730961l 4.53543, -0.128716l 4.53543, -0.220806l 4.53543, -0.368943l 4.53543, -0.600353l 4.53543, -0.951191l 4.53543, -1.46705l 4.53543, -2.20206l 4.53543,
 -3.21576l 4.53543, -4.56726l 4.53543, -6.3061l 4.53543, -8.4601l 4.53543, -11.0212l 4.53543, -13.9311l 4.53543, -17.0698l 4.53543, -20.2495l 4.53543, -23.2192l 4.53543, -25.6789l 4.53543, -27.3084l 4.53543, -27.8044l 4.53543, -26.924l 4.53543,
 -24.528l 4.53543, -20.6134l 4.53543, -15.3311l 4.53543, -8.98154l 4.53543, -1.98808l 4.53543, 5.14973l 4.53543, 11.915l 4.53543, 17.8353l 4.53543, 22.5374l 4.53543, 25.7854l 4.53543, 27.4976l 4.53543, 27.7411l 4.53543, 26.7059" fill="none"
 stroke="#007d34" stroke-width="2"/>
<path d="M281.697,217.894l 4.53543, 24.6674l 4.53543, 21.9416l 4.53543, 18.8438l 4.53543, 15.6549l 4.53543, 12.5989l 4.53543, 9.83331l 4.53543, 7.44953l 4.53543, 5.48181l 4.53543, 3.92043l 4.53543, 2.72623l 4.53543, 1.84408l 4.53543, 1.21376l
 4.53543, 0.777571l 4.53543, 0.484965l 4.53543, 0.294533l 4.53543, 0.174217l 4.53543, 0.10038l 4.53543, 0.0563467l 4.53543, 0.0308182l 4.53543, 0.0333034h 131.528" fill="none" stroke="#007d34" stroke-width="2"/>
<path d="M503.933,346.022h 4.53543" fill="none" stroke="#007d34" stroke-width="2"/>
<path d="M57.1929,346.022h 453.543" fill="none" stroke="black"/>
<path d="M57.1929,336.795v 9.22726" fill="none" stroke="black"/>
<path d="M72.311,341.409v 4.61363" fill="none" stroke="black"/>
<path d="M87.4291,341.409v 4.61363" fill="none" stroke="black"/>
<path d="M102.547,341.409v 4.61363" fill="none" stroke="black"/>
<path d="M117.665,341.409v 4.61363" fill="none" stroke="black"/>
<path d="M132.783,336.795v 9.22726" fill="none" stroke="black"/>
<path d="M147.902,341.409v 4.61363" fill="none" stroke="black"/>
<path d="M163.02,341.409v 4.61363" fill="none" stroke="black"/>
<path d="M178.138,341.409v 4.61363" fill="none" stroke="black"/>
<path d="M193.256,341.409v 4.61363" fill="none" stroke="black"/>
<path d="M208.374,336.795v 9.22726" fill="none" stroke="black"/>
<path d="M223.492,341.409v 4.61363" fill="none" stroke="black"/>
<path d="M238.61,341.409v 4.61363" fill="none" stroke="black"/>
<path d="M253.728,341.409v 4.61363" fill="none" stroke="black"/>
<path d="M268.846,341.409v 4.61363" fill="none" stroke="black"/>
<path d="M283.965,336.795v 9.22726" fill="none" stroke="black"/>
<path d="M299.083,341.409v 4.61363" fill="none" stroke="black"/>
<path d="M314.201,341.409v 4.61363" fill="none" stroke="black"/>
<path d="M329.319,341.409v 4.61363" fill="none" stroke="black"/>
<path d="M344.437,341.409v 4.61363" fill="none" stroke="black"/>
<path d="M359.555,336.795v 9.22726" fill="none" stroke="black"/>
<path d="M374.673,341.409v 4.61363" fill="none" stroke="black"/>
<path d="M389.791,341.409v 4.61363" fill="none" stroke="black"/>
<path d="M404.909,341.409v 4.61363" fill="none" stroke="black"/>
<path d="M420.028,341.409v 4.61363" fill="none" stroke="black"/>
<path d="M435.146,336.795v 9.22726" fill="none" stroke="black"/>
<path d="M450.264,341.409v 4.61363" fill="none" stroke="black"/>
<path d="M465.382,341.409v 4.61363" fill="none" stroke="black"/>
<path d="M480.5,341.409v 4.61363" fill="none" stroke="black"/>
<path d="M495.618,341.409v 4.61363" fill="none" stroke="black"/>
<path d="M510.736,336.795v 9.22726" fill="none" stroke="black"/>
<text xml:space="preserve" x="53.446" y="358.403" fill="black" font-size="12.8453" font-family="Helvetica">0</text>
<text xml:space="preserve" x="121.868" y="358.403" fill="black" font-size="12.8453" font-family="Helvetica">100</text>
<text xml:space="preserve" x="197.622" y="358.403" fill="black" font-size="12.8453" font-family="Helvetica">200</text>
<text xml:space="preserve" x="273.375" y="358.403" fill="black" font-size="12.8453" font-family="Helvetica">300</text>
<text xml:space="preserve" x="348.314" y="358.403" fill="black" font-size="12.8453" font-family="Helvetica">400</text>
<text xml:space="preserve" x="424.068" y="358.403" fill="black" font-size="12.8453" font-family="Helvetica">500</text>
<text xml:space="preserve" x="499.821" y="358.403" fill="black" font-size="12.8453" font-family="Helvetica">600</text>
<text xml:space="preserve" x="486.788" y="369.807" fill="black" font-size="12.8453" font-family="Helvetica">mpv</text>
<path d="M57.1929,346.022v -307.575" fill="none" stroke="black"/>
<path d="M70.7992,346.022h -13.6063" fill="none" stroke="black"/>
<path d="M63.9961,333.91h -6.80315" fill="none" stroke="black"/>
<path d="M63.9961,321.798h -6.80315" fill="none" stroke="black"/>
<path d="M63.9961,309.687h -6.80315" fill="none" stroke="black"/>
<path d="M70.7992,297.575h -13.6063" fill="none" stroke="black"/>
<path d="M63.9961,285.463h -6.80315" fill="none" stroke="black"/>
<path d="M63.9961,273.351h -6.80315" fill="none" stroke="black"/>
<path d="M63.9961,261.239h -6.80315" fill="none" stroke="black"/>
<path d="M70.7992,249.127h -13.6063" fill="none" stroke="black"/>
<path d="M63.9961,237.015h -6.80315" fill="none" stroke="black"/>
<path d="M63.9961,224.903h -6.80315" fill="none" stroke="black"/>
<path d="M63.9961,212.791h -6.80315" fill="none" stroke="black"/>
<path d="M70.7992,200.679h -13.6063" fill="none" stroke="black"/>
<path d="M63.9961,188.568h -6.80315" fill="none" stroke="black"/>
<path d="M63.9961,176.456h -6.80315" fill="none" stroke="black"/>
<path d="M63.9961,164.344h -6.80315" fill="none" stroke="black"/>
<path d="M70.7992,152.232h -13.6063" fill="none" stroke="black"/>
<path d="M63.9961,140.12h -6.80315" fill="none" stroke="black"/>
<path d="M63.9961,128.008h -6.80315" fill="none" stroke="black"/>
<path d="M63.9961,115.896h -6.80315" fill="none" stroke="black"/>
<path d="M70.7992,103.784h -13.6063" fill="none" stroke="black"/>
<path d="M63.9961,91.6723h -6.80315" fill="none" stroke="black"/>
<path d="M63.9961,79.5604h -6.80315" fill="none" stroke="black"/>
<path d="M63.9961,67.4485h -6.80315" fill="none" stroke="black"/>
<path d="M70.7992,55.3366h -13.6063" fill="none" stroke="black"/>
<path d="M70.7992,55.3366h -13.6063" fill="none" stroke="black"/>
<path d="M63.9961,43.2247h -6.80315" fill="none" stroke="black"/>
<text xml:space="preserve" x="47.7441" y="350.258" fill="black" font-size="12.8453" font-family="Helvetica">0</text>
<text xml:space="preserve" x="47.7441" y="302.199" fill="black" font-size="12.8453" font-family="Helvetica">2</text>
<text xml:space="preserve" x="47.7441" y="253.326" fill="black" font-size="12.8453" font-family="Helvetica">4</text>
<text xml:space="preserve" x="47.7441" y="205.267" fill="black" font-size="12.8453" font-family="Helvetica">6</text>
<text xml:space="preserve" x="47.7441" y="156.394" fill="black" font-size="12.8453" font-family="Helvetica">8</text>
<text xml:space="preserve" x="41.2277" y="108.336" fill="black" font-size="12.8453" font-family="Helvetica">10</text>
<text xml:space="preserve" x="40.4131" y="59.4624" fill="black" font-size="12.8453" font-family="Helvetica">12</text>
<g transform="rotate(-90,27.3803,86.3427)">
<text xml:space="preserve" x="27.3803" y="86.3427" fill="black" font-size="12.8453" font-family="Helvetica">n_blocks</text>
</g>
<text xml:space="preserve" x="204.138" y="17.9202" fill="black" font-size="18.7938" font-family="Helvetica">sector 3, vop 69.33</text>
<rect x="351.996" y="24.9905" width="204.094" height="76.8938" fill="white"/>
<path d="M351.996,101.884h 204.094" fill="none" stroke="black"/>
<path d="M556.091,101.884v -76.8938" fill="none" stroke="black"/>
<path d="M556.091,24.9905h -204.094" fill="none" stroke="black"/>
<path d="M351.996,24.9905v 76.8938" fill="none" stroke="black"/>
<text xml:space="preserve" x="377.638" y="39.0986" fill="black" font-size="16.7253" font-family="Helvetica"> / ndf </text>
<text xml:space="preserve" x="371.122" y="34.2112" fill="black" font-size="11.3169" font-family="Helvetica">2</text>
<text xml:space="preserve" x="362.162" y="39.0986" fill="black" font-size="16.7253" font-family="Times">&#0967;</text>
<text xml:space="preserve" x="481.901" y="40.7277" fill="black" font-size="16.7253" font-family="Helvetica">  3.93 / 6</text>
<text xml:space="preserve" x="362.162" y="60.2769" fill="black" font-size="16.7253" font-family="Helvetica">Constant </text>
<text xml:space="preserve" x="509.596" y="60.2769" fill="black" font-size="16.7253" font-family="Helvetica"> 2.20</text>
<text xml:space="preserve" x="500.636" y="60.2769" fill="black" font-size="16.7253" font-family="Times">&#0177;</text>
<text xml:space="preserve" x="450.133" y="60.2769" fill="black" font-size="16.7253" font-family="Helvetica"> 12.12 </text>
<text xml:space="preserve" x="362.162" y="79.0117" fill="black" font-size="16.7253" font-family="Helvetica">Mean     </text>
<text xml:space="preserve" x="518.556" y="79.0117" fill="black" font-size="16.7253" font-family="Helvetica"> 5.8</text>
<text xml:space="preserve" x="509.596" y="79.0117" fill="black" font-size="16.7253" font-family="Times">&#0177;</text>
<text xml:space="preserve" x="459.094" y="79.0117" fill="black" font-size="16.7253" font-family="Helvetica"> 247.7 </text>
<text xml:space="preserve" x="362.162" y="96.9318" fill="black" font-size="16.7253" font-family="Helvetica">Sigma    </text>
<text xml:space="preserve" x="509.596" y="98.561" fill="black" font-size="16.7253" font-family="Helvetica"> 5.69</text>
<text xml:space="preserve" x="500.636" y="98.561" fill="black" font-size="16.7253" font-family="Times">&#0177;</text>
<text xml:space="preserve" x="450.133" y="98.561" fill="black" font-size="16.7253" font-family="Helvetica"> 38.32 </text>
<g stroke="black" stroke-width="1" fill="none">
<line x1="63.752" y1="346.022" x2="64.752" y2="346.022"/>
</g>
<g stroke="black" stroke-width="1" fill="none">
<line x1="78.8701" y1="346.022" x2="79.8701" y2="346.022"/>
</g>
<g stroke="black" stroke-width="1" fill="none">
<line x1="93.9882" y1="346.022" x2="94.9882" y2="346.022"/>
</g>
<g stroke="black" stroke-width="1" fill="none">
<line x1="109.106" y1="346.022" x2="110.106" y2="346.022"/>
</g>
<g stroke="black" stroke-width="1" fill="none">
<line x1="124.224" y1="346.022" x2="125.224" y2="346.022"/>
</g>
<g stroke="black" stroke-width="1" fill="none">
<line x1="139.343" y1="346.022" x2="140.343" y2="346.022"/>
</g>
<g stroke="black" stroke-width="1" fill="none">
<line x1="154.461" y1="346.022" x2="155.461" y2="346.022"/>
</g>
<path d="M170.579,331.832v -34.2576" fill="none" stroke="#007d34"/>
<path d="M170.579,297.575v -34.2576" fill="none" stroke="#007d34"/>
<path d="M163.02,297.575h 7.55905" fill="none" stroke="#007d34"/>
<path d="M170.579,297.575h 7.55905" fill="none" stroke="#007d34"/>
<g stroke="black" stroke-width="1" fill="none">
<line x1="169.579" y1="297.575" x2="170.579" y2="297.575"/>
</g>
<g stroke="black" stroke-width="1" fill="none">
<line x1="184.697" y1="346.022" x2="185.697" y2="346.022"/>
</g>
<path d="M200.815,315.308v -41.9569" fill="none" stroke="#007d34"/>
<path d="M200.815,273.351v -41.9569" fill="none" stroke="#007d34"/>
<path d="M193.256,273.351h 7.55905" fill="none" stroke="#007d34"/>
<path d="M200.815,273.351h 7.55905" fill="none" stroke="#007d34"/>
<g stroke="black" stroke-width="1" fill="none">
<line x1="199.815" y1="273.351" x2="200.815" y2="273.351"/>
</g>
<path d="M215.933,220.747v -68.5153" fill="none" stroke="#007d34"/>
<path d="M215.933,152.232v -68.5153" fill="none" stroke="#007d34"/>
<path d="M208.374,152.232h 7.55905" fill="none" stroke="#007d34"/>
<path d="M215.933,152.232h 7.55905" fill="none" stroke="#007d34"/>
<g stroke="black" stroke-width="1" fill="none">
<line x1="214.933" y1="152.232" x2="215.933" y2="152.232"/>
</g>
<path d="M231.051,139.25v -83.9137" fill="none" stroke="#007d34"/>
<path d="M231.051,55.3366v -16.8897" fill="none" stroke="#007d34"/>
<path d="M223.492,55.3366h 7.55905" fill="none" stroke="#007d34"/>
<path d="M231.051,55.3366h 7.55905" fill="none" stroke="#007d34"/>
<g stroke="black" stroke-width="1" fill="none">
<line x1="230.051" y1="55.3366" x2="231.051" y2="55.3366"/>
</g>
<path d="M246.169,159.902v -80.3413" fill="none" stroke="#007d34"/>
<path d="M246.169,79.5604v -41.1135" fill="none" stroke="#007d34"/>
<path d="M238.61,79.5604h 7.55905" fill="none" stroke="#007d34"/>
<path d="M246.169,79.5604h 7.55905" fill="none" stroke="#007d34"/>
<g stroke="black" stroke-width="1" fill="none">
<line x1="245.169" y1="79.5604" x2="246.169" y2="79.5604"/>
</g>
<path d="M261.287,180.387v -76.6024" fill="none" stroke="#007d34"/>
<path d="M261.287,103.784v -65.3373" fill="none" stroke="#007d34"/>
<path d="M253.728,103.784h 7.55905" fill="none" stroke="#007d34"/>
<path d="M261.287,103.784h 7.55905" fill="none" stroke="#007d34"/>
<g stroke="black" stroke-width="1" fill="none">
<line x1="260.287" y1="103.784" x2="261.287" y2="103.784"/>
</g>
<path d="M276.406,180.387v -76.6024" fill="none" stroke="#007d34"/>
<path d="M276.406,103.784v -65.3373" fill="none" stroke="#007d34"/>
<path d="M268.846,103.784h 7.55905" fill="none" stroke="#007d34"/>
<path d="M276.406,103.784h 7.55905" fill="none" stroke="#007d34"/>
<g stroke="black" stroke-width="1" fill="none">
<line x1="275.406" y1="103.784" x2="276.406" y2="103.784"/>
</g>
<path d="M291.524,331.832v -34.2576" fill="none" stroke="#007d34"/>
<path d="M291.524,297.575v -34.2576" fill="none" stroke="#007d34"/>
<path d="M283.965,297.575h 7.55905" fill="none" stroke="#007d34"/>
<path d="M291.524,297.575h 7.55905" fill="none" stroke="#007d34"/>
<g stroke="black" stroke-width="1" fill="none">
<line x1="290.524" y1="297.575" x2="291.524" y2="297.575"/>
</g>
<path d="M306.642,331.832v -34.2576" fill="none" stroke="#007d34"/>
<path d="M306.642,297.575v -34.2576" fill="none" stroke="#007d34"/>
<path d="M299.083,297.575h 7.55905" fill="none" stroke="#007d34"/>
<path d="M306.642,297.575h 7.55905" fill="none" stroke="#007d34"/>
<g stroke="black" stroke-width="1" fill="none">
<line x1="305.642" y1="297.575" x2="306.642" y2="297.575"/>
</g>
<g stroke="black" stroke-width="1" fill="none">
<line x1="320.76" y1="346.022" x2="321.76" y2="346.022"/>
</g>
<g stroke="black" stroke-width="1" fill="none">
<line x1="335.878" y1="346.022" x2="336.878" y2="346.022"/>
</g>
<g stroke="black" stroke-width="1" fill="none">
<line x1="350.996" y1="346.022" x2="351.996" y2="346.022"/>
</g>
<g stroke="black" stroke-width="1" fill="none">
<line x1="366.114" y1="346.022" x2="367.114" y2="346.022"/>
</g>
<g stroke="black" stroke-width="1" fill="none">
<line x1="381.232" y1="346.022" x2="382.232" y2="346.022"/>
</g>
<g stroke="black" stroke-width="1" fill="none">
<line x1="396.35" y1="346.022" x2="397.35" y2="346.022"/>
</g>
<g stroke="black" stroke-width="1" fill="none">
<line x1="411.469" y1="346.022" x2="412.469" y2="346.022"/>
</g>
<g stroke="black" stroke-width="1" fill="none">
<line x1="426.587" y1="346.022" x2="427.587" y2="346.022"/>
</g>
<g stroke="black" stroke-width="1" fill="none">
<line x1="441.705" y1="346.022" x2="442.705" y2="346.022"/>
</g>
<g stroke="black" stroke-width="1" fill="none">
<line x1="456.823" y1="346.022" x2="457.823" y2="346.022"/>
</g>
<g stroke="black" stroke-width="1" fill="none">
<line x1="471.941" y1="346.022" x2="472.941" y2="346.022"/>
</g>
<g stroke="black" stroke-width="1" fill="none">
<line x1="487.059" y1="346.022" x2="488.059" y2="346.022"/>
</g>
<g stroke="black" stroke-width="1" fill="none">
<line x1="502.177" y1="346.022" x2="503.177" y2="346.022"/>
</g>
<path d="M59.4606,346.022h 58.9606l 4.53543, -0.0447147l 4.53543, -0.0404435l 4.53543, -0.0730961l 4.53543, -0.128716l 4.53543, -0.220806l 4.53543, -0.368943l 4.53543, -0.600353l 4.53543, -0.951191l 4.53543, -1.46705l 4.53543, -2.20206l 4.53543,
 -3.21576l 4.53543, -4.56726l 4.53543, -6.3061l 4.53543, -8.4601l 4.53543, -11.0212l 4.53543, -13.9311l 4.53543, -17.0698l 4.53543, -20.2495l 4.53543, -23.2192l 4.53543, -25.6789l 4.53543, -27.3084l 4.53543, -27.8044l 4.53543, -26.924l 4.53543,
 -24.528l 4.53543, -20.6134l 4.53543, -15.3311l 4.53543, -8.98154l 4.53543, -1.98808l 4.53543, 5.14973l 4.53543, 11.915l 4.53543, 17.8353l 4.53543, 22.5374l 4.53543, 25.7854l 4.53543, 27.4976l 4.53543, 27.7411l 4.53543, 26.7059" fill="none"
 stroke="#007d34" stroke-width="2"/>
<path d="M281.697,217.894l 4.53543, 24.6674l 4.53543, 21.9416l 4.53543, 18.8438l 4.53543, 15.6549l 4.53543, 12.5989l 4.53543, 9.83331l 4.53543, 7.44953l 4.53543, 5.48181l 4.53543, 3.92043l 4.53543, 2.72623l 4.53543, 1.84408l 4.53543, 1.21376l
 4.53543, 0.777571l 4.53543, 0.484965l 4.53543, 0.294533l 4.53543, 0.174217l 4.53543, 0.10038l 4.53543, 0.0563467l 4.53543, 0.0308182l 4.53543, 0.0333034h 131.528" fill="none" stroke="#007d34" stroke-width="2"/>
<path d="M503.933,346.022h 4.53543" fill="none" stroke="#007d34" stroke-width="2"/>
<rect x="351.996" y="24.9905" width="204.094" height="76.8938" fill="white"/>
<path d="M351.996,101.884h 204.094" fill="none" stroke="black"/>
<path d="M556.091,101.884v -76.8938" fill="none" stroke="black"/>
<path d="M556.091,24.9905h -204.094" fill="none" stroke="black"/>
<path d="M351.996,24.9905v 76.8938" fill="none" stroke="black"/>
<text xml:space="preserve" x="377.638" y="39.0986" fill="black" font-size="16.7253" font-family="Helvetica"> / ndf </text>
<text xml:space="preserve" x="371.122" y="34.2112" fill="black" font-size="11.3169" font-family="Helvetica">2</text>
<text xml:space="preserve" x="362.162" y="39.0986" fill="black" font-size="16.7253" font-family="Times">&#0967;</text>
<text xml:space="preserve" x="481.901" y="40.7277" fill="black" font-size="16.7253" font-family="Helvetica">  3.93 / 6</text>
<text xml:space="preserve" x="362.162" y="60.2769" fill="black" font-size="16.7253" font-family="Helvetica">Constant </text>
<text xml:space="preserve" x="509.596" y="60.2769" fill="black" font-size="16.7253" font-family="Helvetica"> 2.20</text>
<text xml:space="preserve" x="500.636" y="60.2769" fill="black" font-size="16.7253" font-family="Times">&#0177;</text>
<text xml:space="preserve" x="450.133" y="60.2769" fill="black" font-size="16.7253" font-family="Helvetica"> 12.12 </text>
<text xml:space="preserve" x="362.162" y="79.0117" fill="black" font-size="16.7253" font-family="Helvetica">Mean     </text>
<text xml:space="preserve" x="518.556" y="79.0117" fill="black" font-size="16.7253" font-family="Helvetica"> 5.8</text>
<text xml:space="preserve" x="509.596" y="79.0117" fill="black" font-size="16.7253" font-family="Times">&#0177;</text>
<text xml:space="preserve" x="459.094" y="79.0117" fill="black" font-size="16.7253" font-family="Helvetica"> 247.7 </text>
<text xml:space="preserve" x="362.162" y="96.9318" fill="black" font-size="16.7253" font-family="Helvetica">Sigma    </text>
<text xml:space="preserve" x="509.596" y="98.561" fill="black" font-size="16.7253" font-family="Helvetica"> 5.69</text>
<text xml:space="preserve" x="500.636" y="98.561" fill="black" font-size="16.7253" font-family="Times">&#0177;</text>
<text xml:space="preserve" x="450.133" y="98.561" fill="black" font-size="16.7253" font-family="Helvetica"> 38.32 </text>
<text xml:space="preserve" x="204.138" y="17.9202" fill="black" font-size="18.7938" font-family="Helvetica">sector 3, vop 69.33</text></svg>
