<?xml version="1.0" standalone="no"?>
<svg width="567.429" height="384.969" viewBox="0 0 567.429 384.969" xmlns="http://www.w3.org/2000/svg" shape-rendering="crispEdges">
<title>
./adjusted_vop/sector_by_vop/sector-8_vop-69.18.svg
</title>
<desc>
Creator: ROOT Version 6.24/00
CreationDate: Mon Jul 19 21:24:20 2021</desc>
<defs>
</defs>
<rect x="0.5" y="0" width="566.929" height="384.469" fill="white"/>
<rect x="57.1929" y="38.4469" width="453.543" height="307.575" fill="white"/>
<rect x="57.1929" y="38.4469" width="453.543" height="307.575" fill="none" stroke="black"/>
<path d="M57.1929,346.022h 136.063v -36.6161h 30.2362v -109.848h 15.1181v 91.5403h 15.1181v -238.005h 15.1181v 109.848h 15.1181v -91.5403h 15.1181v 219.697h 15.1181v 18.3081h 30.2362v 36.6161h 166.299" fill="none" stroke="#cea262"/>
<path d="M59.4606,346.022h 86.1732l 4.53543, -0.0450304l 4.53543, -0.0372256l 4.53543, -0.0646105l 4.53543, -0.109447l 4.53543, -0.18092l 4.53543, -0.291803l 4.53543, -0.459134l 4.53543, -0.704616l 4.53543, -1.05447l 4.53543, -1.53842l 4.53543,
 -2.18749l 4.53543, -3.03035l 4.53543, -4.08826l 4.53543, -5.36863l 4.53543, -6.85813l 4.53543, -8.51607l 4.53543, -10.2697l 4.53543, -12.0127l 4.53543, -13.6086l 4.53543, -14.8995l 4.53543, -15.7203l 4.53543, -15.9179l 4.53543, -15.3722l 4.53543,
 -14.0158l 4.53543, -11.8501l 4.53543, -8.95299l 4.53543, -5.47662l 4.53543, -1.63529l 4.53543, 2.31653l 4.53543, 6.11203" fill="none" stroke="#cea262" stroke-width="2"/>
<path d="M281.697,180.184l 4.53543, 9.50184l 4.53543, 12.2811l 4.53543, 14.3099l 4.53543, 15.5238l 4.53543, 15.9341l 4.53543, 15.6186l 4.53543, 14.7048l 4.53543, 13.3492l 4.53543, 11.717l 4.53543, 9.96308l 4.53543, 8.21935l 4.53543, 6.58633l 4.53543,
 5.13101l 4.53543, 3.88892l 4.53543, 2.8693l 4.53543, 2.06183l 4.53543, 1.44357l 4.53543, 0.985085l 4.53543, 0.655374l 4.53543, 0.425198l 4.53543, 0.269074l 4.53543, 0.166116l 4.53543, 0.100065l 4.53543, 0.0588232l 4.53543, 0.0337491l 4.53543,
 0.0404707h 104.315" fill="none" stroke="#cea262" stroke-width="2"/>
<path d="M503.933,346.022h 4.53543" fill="none" stroke="#cea262" stroke-width="2"/>
<path d="M57.1929,346.022h 453.543" fill="none" stroke="black"/>
<path d="M57.1929,336.795v 9.22726" fill="none" stroke="black"/>
<path d="M72.311,341.409v 4.61363" fill="none" stroke="black"/>
<path d="M87.4291,341.409v 4.61363" fill="none" stroke="black"/>
<path d="M102.547,341.409v 4.61363" fill="none" stroke="black"/>
<path d="M117.665,341.409v 4.61363" fill="none" stroke="black"/>
<path d="M132.783,336.795v 9.22726" fill="none" stroke="black"/>
<path d="M147.902,341.409v 4.61363" fill="none" stroke="black"/>
<path d="M163.02,341.409v 4.61363" fill="none" stroke="black"/>
<path d="M178.138,341.409v 4.61363" fill="none" stroke="black"/>
<path d="M193.256,341.409v 4.61363" fill="none" stroke="black"/>
<path d="M208.374,336.795v 9.22726" fill="none" stroke="black"/>
<path d="M223.492,341.409v 4.61363" fill="none" stroke="black"/>
<path d="M238.61,341.409v 4.61363" fill="none" stroke="black"/>
<path d="M253.728,341.409v 4.61363" fill="none" stroke="black"/>
<path d="M268.846,341.409v 4.61363" fill="none" stroke="black"/>
<path d="M283.965,336.795v 9.22726" fill="none" stroke="black"/>
<path d="M299.083,341.409v 4.61363" fill="none" stroke="black"/>
<path d="M314.201,341.409v 4.61363" fill="none" stroke="black"/>
<path d="M329.319,341.409v 4.61363" fill="none" stroke="black"/>
<path d="M344.437,341.409v 4.61363" fill="none" stroke="black"/>
<path d="M359.555,336.795v 9.22726" fill="none" stroke="black"/>
<path d="M374.673,341.409v 4.61363" fill="none" stroke="black"/>
<path d="M389.791,341.409v 4.61363" fill="none" stroke="black"/>
<path d="M404.909,341.409v 4.61363" fill="none" stroke="black"/>
<path d="M420.028,341.409v 4.61363" fill="none" stroke="black"/>
<path d="M435.146,336.795v 9.22726" fill="none" stroke="black"/>
<path d="M450.264,341.409v 4.61363" fill="none" stroke="black"/>
<path d="M465.382,341.409v 4.61363" fill="none" stroke="black"/>
<path d="M480.5,341.409v 4.61363" fill="none" stroke="black"/>
<path d="M495.618,341.409v 4.61363" fill="none" stroke="black"/>
<path d="M510.736,336.795v 9.22726" fill="none" stroke="black"/>
<text xml:space="preserve" x="53.446" y="358.403" fill="black" font-size="12.8453" font-family="Helvetica">0</text>
<text xml:space="preserve" x="121.868" y="358.403" fill="black" font-size="12.8453" font-family="Helvetica">100</text>
<text xml:space="preserve" x="197.622" y="358.403" fill="black" font-size="12.8453" font-family="Helvetica">200</text>
<text xml:space="preserve" x="273.375" y="358.403" fill="black" font-size="12.8453" font-family="Helvetica">300</text>
<text xml:space="preserve" x="348.314" y="358.403" fill="black" font-size="12.8453" font-family="Helvetica">400</text>
<text xml:space="preserve" x="424.068" y="358.403" fill="black" font-size="12.8453" font-family="Helvetica">500</text>
<text xml:space="preserve" x="499.821" y="358.403" fill="black" font-size="12.8453" font-family="Helvetica">600</text>
<text xml:space="preserve" x="486.788" y="369.807" fill="black" font-size="12.8453" font-family="Helvetica">mpv</text>
<path d="M57.1929,346.022v -307.575" fill="none" stroke="black"/>
<path d="M70.7992,346.022h -13.6063" fill="none" stroke="black"/>
<path d="M63.9961,330.766h -6.80315" fill="none" stroke="black"/>
<path d="M63.9961,315.509h -6.80315" fill="none" stroke="black"/>
<path d="M63.9961,300.252h -6.80315" fill="none" stroke="black"/>
<path d="M70.7992,284.995h -13.6063" fill="none" stroke="black"/>
<path d="M63.9961,269.739h -6.80315" fill="none" stroke="black"/>
<path d="M63.9961,254.482h -6.80315" fill="none" stroke="black"/>
<path d="M63.9961,239.225h -6.80315" fill="none" stroke="black"/>
<path d="M70.7992,223.969h -13.6063" fill="none" stroke="black"/>
<path d="M63.9961,208.712h -6.80315" fill="none" stroke="black"/>
<path d="M63.9961,193.455h -6.80315" fill="none" stroke="black"/>
<path d="M63.9961,178.198h -6.80315" fill="none" stroke="black"/>
<path d="M70.7992,162.942h -13.6063" fill="none" stroke="black"/>
<path d="M63.9961,147.685h -6.80315" fill="none" stroke="black"/>
<path d="M63.9961,132.428h -6.80315" fill="none" stroke="black"/>
<path d="M63.9961,117.172h -6.80315" fill="none" stroke="black"/>
<path d="M70.7992,101.915h -13.6063" fill="none" stroke="black"/>
<path d="M63.9961,86.6581h -6.80315" fill="none" stroke="black"/>
<path d="M63.9961,71.4014h -6.80315" fill="none" stroke="black"/>
<path d="M63.9961,56.1447h -6.80315" fill="none" stroke="black"/>
<path d="M70.7992,40.888h -13.6063" fill="none" stroke="black"/>
<path d="M70.7992,40.888h -13.6063" fill="none" stroke="black"/>
<text xml:space="preserve" x="47.7441" y="350.258" fill="black" font-size="12.8453" font-family="Helvetica">0</text>
<text xml:space="preserve" x="41.2277" y="289.166" fill="black" font-size="12.8453" font-family="Helvetica">20</text>
<text xml:space="preserve" x="41.2277" y="228.075" fill="black" font-size="12.8453" font-family="Helvetica">40</text>
<text xml:space="preserve" x="41.2277" y="167.798" fill="black" font-size="12.8453" font-family="Helvetica">60</text>
<text xml:space="preserve" x="41.2277" y="106.706" fill="black" font-size="12.8453" font-family="Helvetica">80</text>
<text xml:space="preserve" x="33.8967" y="45.615" fill="black" font-size="12.8453" font-family="Helvetica">100</text>
<g transform="rotate(-90,20.0493,86.3427)">
<text xml:space="preserve" x="20.0493" y="86.3427" fill="black" font-size="12.8453" font-family="Helvetica">n_blocks</text>
</g>
<text xml:space="preserve" x="204.138" y="17.9202" fill="black" font-size="18.7938" font-family="Helvetica">sector 8, vop 69.18</text>
<rect x="351.996" y="24.9905" width="204.094" height="76.8938" fill="white"/>
<path d="M351.996,101.884h 204.094" fill="none" stroke="black"/>
<path d="M556.091,101.884v -76.8938" fill="none" stroke="black"/>
<path d="M556.091,24.9905h -204.094" fill="none" stroke="black"/>
<path d="M351.996,24.9905v 76.8938" fill="none" stroke="black"/>
<text xml:space="preserve" x="377.638" y="39.0986" fill="black" font-size="16.7253" font-family="Helvetica"> / ndf </text>
<text xml:space="preserve" x="371.122" y="34.2112" fill="black" font-size="11.3169" font-family="Helvetica">2</text>
<text xml:space="preserve" x="362.162" y="39.0986" fill="black" font-size="16.7253" font-family="Times">&#0967;</text>
<text xml:space="preserve" x="477.828" y="40.7277" fill="black" font-size="16.7253" font-family="Helvetica"> 96.88 / 7</text>
<text xml:space="preserve" x="362.162" y="60.2769" fill="black" font-size="16.7253" font-family="Helvetica">Constant </text>
<text xml:space="preserve" x="509.596" y="60.2769" fill="black" font-size="16.7253" font-family="Helvetica"> 6.32</text>
<text xml:space="preserve" x="500.636" y="60.2769" fill="black" font-size="16.7253" font-family="Times">&#0177;</text>
<text xml:space="preserve" x="450.133" y="60.2769" fill="black" font-size="16.7253" font-family="Helvetica"> 57.12 </text>
<text xml:space="preserve" x="362.162" y="79.0117" fill="black" font-size="16.7253" font-family="Helvetica">Mean     </text>
<text xml:space="preserve" x="518.556" y="79.0117" fill="black" font-size="16.7253" font-family="Helvetica"> 2.9</text>
<text xml:space="preserve" x="509.596" y="79.0117" fill="black" font-size="16.7253" font-family="Times">&#0177;</text>
<text xml:space="preserve" x="459.094" y="79.0117" fill="black" font-size="16.7253" font-family="Helvetica"> 284.5 </text>
<text xml:space="preserve" x="362.162" y="96.9318" fill="black" font-size="16.7253" font-family="Helvetica">Sigma    </text>
<text xml:space="preserve" x="509.596" y="98.561" fill="black" font-size="16.7253" font-family="Helvetica"> 4.03</text>
<text xml:space="preserve" x="500.636" y="98.561" fill="black" font-size="16.7253" font-family="Times">&#0177;</text>
<text xml:space="preserve" x="450.133" y="98.561" fill="black" font-size="16.7253" font-family="Helvetica"> 39.73 </text>
<g stroke="black" stroke-width="1" fill="none">
<line x1="63.752" y1="346.022" x2="64.752" y2="346.022"/>
</g>
<g stroke="black" stroke-width="1" fill="none">
<line x1="78.8701" y1="346.022" x2="79.8701" y2="346.022"/>
</g>
<g stroke="black" stroke-width="1" fill="none">
<line x1="93.9882" y1="346.022" x2="94.9882" y2="346.022"/>
</g>
<g stroke="black" stroke-width="1" fill="none">
<line x1="109.106" y1="346.022" x2="110.106" y2="346.022"/>
</g>
<g stroke="black" stroke-width="1" fill="none">
<line x1="124.224" y1="346.022" x2="125.224" y2="346.022"/>
</g>
<g stroke="black" stroke-width="1" fill="none">
<line x1="139.343" y1="346.022" x2="140.343" y2="346.022"/>
</g>
<g stroke="black" stroke-width="1" fill="none">
<line x1="154.461" y1="346.022" x2="155.461" y2="346.022"/>
</g>
<g stroke="black" stroke-width="1" fill="none">
<line x1="169.579" y1="346.022" x2="170.579" y2="346.022"/>
</g>
<g stroke="black" stroke-width="1" fill="none">
<line x1="184.697" y1="346.022" x2="185.697" y2="346.022"/>
</g>
<path d="M200.815,319.976v -10.5702" fill="none" stroke="#cea262"/>
<path d="M200.815,309.406v -10.5702" fill="none" stroke="#cea262"/>
<path d="M193.256,309.406h 7.55905" fill="none" stroke="#cea262"/>
<path d="M200.815,309.406h 7.55905" fill="none" stroke="#cea262"/>
<g stroke="black" stroke-width="1" fill="none">
<line x1="199.815" y1="309.406" x2="200.815" y2="309.406"/>
</g>
<path d="M215.933,319.976v -10.5702" fill="none" stroke="#cea262"/>
<path d="M215.933,309.406v -10.5702" fill="none" stroke="#cea262"/>
<path d="M208.374,309.406h 7.55905" fill="none" stroke="#cea262"/>
<path d="M215.933,309.406h 7.55905" fill="none" stroke="#cea262"/>
<g stroke="black" stroke-width="1" fill="none">
<line x1="214.933" y1="309.406" x2="215.933" y2="309.406"/>
</g>
<path d="M231.051,220.698v -21.1403" fill="none" stroke="#cea262"/>
<path d="M231.051,199.558v -21.1403" fill="none" stroke="#cea262"/>
<path d="M223.492,199.558h 7.55905" fill="none" stroke="#cea262"/>
<path d="M231.051,199.558h 7.55905" fill="none" stroke="#cea262"/>
<g stroke="black" stroke-width="1" fill="none">
<line x1="230.051" y1="199.558" x2="231.051" y2="199.558"/>
</g>
<path d="M246.169,304.044v -12.9458" fill="none" stroke="#cea262"/>
<path d="M246.169,291.098v -12.9458" fill="none" stroke="#cea262"/>
<path d="M238.61,291.098h 7.55905" fill="none" stroke="#cea262"/>
<path d="M246.169,291.098h 7.55905" fill="none" stroke="#cea262"/>
<g stroke="black" stroke-width="1" fill="none">
<line x1="245.169" y1="291.098" x2="246.169" y2="291.098"/>
</g>
<path d="M261.287,82.9903v -29.8969" fill="none" stroke="#cea262"/>
<path d="M261.287,53.0934v -14.6464" fill="none" stroke="#cea262"/>
<path d="M253.728,53.0934h 7.55905" fill="none" stroke="#cea262"/>
<path d="M261.287,53.0934h 7.55905" fill="none" stroke="#cea262"/>
<g stroke="black" stroke-width="1" fill="none">
<line x1="260.287" y1="53.0934" x2="261.287" y2="53.0934"/>
</g>
<path d="M276.406,186.577v -23.6356" fill="none" stroke="#cea262"/>
<path d="M276.406,162.942v -23.6356" fill="none" stroke="#cea262"/>
<path d="M268.846,162.942h 7.55905" fill="none" stroke="#cea262"/>
<path d="M276.406,162.942h 7.55905" fill="none" stroke="#cea262"/>
<g stroke="black" stroke-width="1" fill="none">
<line x1="275.406" y1="162.942" x2="276.406" y2="162.942"/>
</g>
<path d="M291.524,100.349v -28.9476" fill="none" stroke="#cea262"/>
<path d="M291.524,71.4014v -28.9476" fill="none" stroke="#cea262"/>
<path d="M283.965,71.4014h 7.55905" fill="none" stroke="#cea262"/>
<path d="M291.524,71.4014h 7.55905" fill="none" stroke="#cea262"/>
<g stroke="black" stroke-width="1" fill="none">
<line x1="290.524" y1="71.4014" x2="291.524" y2="71.4014"/>
</g>
<path d="M306.642,304.044v -12.9458" fill="none" stroke="#cea262"/>
<path d="M306.642,291.098v -12.9458" fill="none" stroke="#cea262"/>
<path d="M299.083,291.098h 7.55905" fill="none" stroke="#cea262"/>
<path d="M306.642,291.098h 7.55905" fill="none" stroke="#cea262"/>
<g stroke="black" stroke-width="1" fill="none">
<line x1="305.642" y1="291.098" x2="306.642" y2="291.098"/>
</g>
<path d="M321.76,319.976v -10.5702" fill="none" stroke="#cea262"/>
<path d="M321.76,309.406v -10.5702" fill="none" stroke="#cea262"/>
<path d="M314.201,309.406h 7.55905" fill="none" stroke="#cea262"/>
<path d="M321.76,309.406h 7.55905" fill="none" stroke="#cea262"/>
<g stroke="black" stroke-width="1" fill="none">
<line x1="320.76" y1="309.406" x2="321.76" y2="309.406"/>
</g>
<path d="M336.878,319.976v -10.5702" fill="none" stroke="#cea262"/>
<path d="M336.878,309.406v -10.5702" fill="none" stroke="#cea262"/>
<path d="M329.319,309.406h 7.55905" fill="none" stroke="#cea262"/>
<path d="M336.878,309.406h 7.55905" fill="none" stroke="#cea262"/>
<g stroke="black" stroke-width="1" fill="none">
<line x1="335.878" y1="309.406" x2="336.878" y2="309.406"/>
</g>
<g stroke="black" stroke-width="1" fill="none">
<line x1="350.996" y1="346.022" x2="351.996" y2="346.022"/>
</g>
<g stroke="black" stroke-width="1" fill="none">
<line x1="366.114" y1="346.022" x2="367.114" y2="346.022"/>
</g>
<g stroke="black" stroke-width="1" fill="none">
<line x1="381.232" y1="346.022" x2="382.232" y2="346.022"/>
</g>
<g stroke="black" stroke-width="1" fill="none">
<line x1="396.35" y1="346.022" x2="397.35" y2="346.022"/>
</g>
<g stroke="black" stroke-width="1" fill="none">
<line x1="411.469" y1="346.022" x2="412.469" y2="346.022"/>
</g>
<g stroke="black" stroke-width="1" fill="none">
<line x1="426.587" y1="346.022" x2="427.587" y2="346.022"/>
</g>
<g stroke="black" stroke-width="1" fill="none">
<line x1="441.705" y1="346.022" x2="442.705" y2="346.022"/>
</g>
<g stroke="black" stroke-width="1" fill="none">
<line x1="456.823" y1="346.022" x2="457.823" y2="346.022"/>
</g>
<g stroke="black" stroke-width="1" fill="none">
<line x1="471.941" y1="346.022" x2="472.941" y2="346.022"/>
</g>
<g stroke="black" stroke-width="1" fill="none">
<line x1="487.059" y1="346.022" x2="488.059" y2="346.022"/>
</g>
<g stroke="black" stroke-width="1" fill="none">
<line x1="502.177" y1="346.022" x2="503.177" y2="346.022"/>
</g>
<path d="M59.4606,346.022h 86.1732l 4.53543, -0.0450304l 4.53543, -0.0372256l 4.53543, -0.0646105l 4.53543, -0.109447l 4.53543, -0.18092l 4.53543, -0.291803l 4.53543, -0.459134l 4.53543, -0.704616l 4.53543, -1.05447l 4.53543, -1.53842l 4.53543,
 -2.18749l 4.53543, -3.03035l 4.53543, -4.08826l 4.53543, -5.36863l 4.53543, -6.85813l 4.53543, -8.51607l 4.53543, -10.2697l 4.53543, -12.0127l 4.53543, -13.6086l 4.53543, -14.8995l 4.53543, -15.7203l 4.53543, -15.9179l 4.53543, -15.3722l 4.53543,
 -14.0158l 4.53543, -11.8501l 4.53543, -8.95299l 4.53543, -5.47662l 4.53543, -1.63529l 4.53543, 2.31653l 4.53543, 6.11203" fill="none" stroke="#cea262" stroke-width="2"/>
<path d="M281.697,180.184l 4.53543, 9.50184l 4.53543, 12.2811l 4.53543, 14.3099l 4.53543, 15.5238l 4.53543, 15.9341l 4.53543, 15.6186l 4.53543, 14.7048l 4.53543, 13.3492l 4.53543, 11.717l 4.53543, 9.96308l 4.53543, 8.21935l 4.53543, 6.58633l 4.53543,
 5.13101l 4.53543, 3.88892l 4.53543, 2.8693l 4.53543, 2.06183l 4.53543, 1.44357l 4.53543, 0.985085l 4.53543, 0.655374l 4.53543, 0.425198l 4.53543, 0.269074l 4.53543, 0.166116l 4.53543, 0.100065l 4.53543, 0.0588232l 4.53543, 0.0337491l 4.53543,
 0.0404707h 104.315" fill="none" stroke="#cea262" stroke-width="2"/>
<path d="M503.933,346.022h 4.53543" fill="none" stroke="#cea262" stroke-width="2"/>
<rect x="351.996" y="24.9905" width="204.094" height="76.8938" fill="white"/>
<path d="M351.996,101.884h 204.094" fill="none" stroke="black"/>
<path d="M556.091,101.884v -76.8938" fill="none" stroke="black"/>
<path d="M556.091,24.9905h -204.094" fill="none" stroke="black"/>
<path d="M351.996,24.9905v 76.8938" fill="none" stroke="black"/>
<text xml:space="preserve" x="377.638" y="39.0986" fill="black" font-size="16.7253" font-family="Helvetica"> / ndf </text>
<text xml:space="preserve" x="371.122" y="34.2112" fill="black" font-size="11.3169" font-family="Helvetica">2</text>
<text xml:space="preserve" x="362.162" y="39.0986" fill="black" font-size="16.7253" font-family="Times">&#0967;</text>
<text xml:space="preserve" x="477.828" y="40.7277" fill="black" font-size="16.7253" font-family="Helvetica"> 96.88 / 7</text>
<text xml:space="preserve" x="362.162" y="60.2769" fill="black" font-size="16.7253" font-family="Helvetica">Constant </text>
<text xml:space="preserve" x="509.596" y="60.2769" fill="black" font-size="16.7253" font-family="Helvetica"> 6.32</text>
<text xml:space="preserve" x="500.636" y="60.2769" fill="black" font-size="16.7253" font-family="Times">&#0177;</text>
<text xml:space="preserve" x="450.133" y="60.2769" fill="black" font-size="16.7253" font-family="Helvetica"> 57.12 </text>
<text xml:space="preserve" x="362.162" y="79.0117" fill="black" font-size="16.7253" font-family="Helvetica">Mean     </text>
<text xml:space="preserve" x="518.556" y="79.0117" fill="black" font-size="16.7253" font-family="Helvetica"> 2.9</text>
<text xml:space="preserve" x="509.596" y="79.0117" fill="black" font-size="16.7253" font-family="Times">&#0177;</text>
<text xml:space="preserve" x="459.094" y="79.0117" fill="black" font-size="16.7253" font-family="Helvetica"> 284.5 </text>
<text xml:space="preserve" x="362.162" y="96.9318" fill="black" font-size="16.7253" font-family="Helvetica">Sigma    </text>
<text xml:space="preserve" x="509.596" y="98.561" fill="black" font-size="16.7253" font-family="Helvetica"> 4.03</text>
<text xml:space="preserve" x="500.636" y="98.561" fill="black" font-size="16.7253" font-family="Times">&#0177;</text>
<text xml:space="preserve" x="450.133" y="98.561" fill="black" font-size="16.7253" font-family="Helvetica"> 39.73 </text>
<text xml:space="preserve" x="204.138" y="17.9202" fill="black" font-size="18.7938" font-family="Helvetica">sector 8, vop 69.18</text></svg>
