<?xml version="1.0" standalone="no"?>
<svg width="567.429" height="384.969" viewBox="0 0 567.429 384.969" xmlns="http://www.w3.org/2000/svg" shape-rendering="crispEdges">
<title>
./adjusted_vop/sector_by_vop/sector-3_vop-69.13.svg
</title>
<desc>
Creator: ROOT Version 6.22/02
CreationDate: Sat Jun 26 16:52:26 2021</desc>
<defs>
</defs>
<rect x="0.5" y="0" width="566.929" height="384.469" fill="white"/>
<rect x="57.1929" y="38.4469" width="453.543" height="307.575" fill="white"/>
<rect x="57.1929" y="38.4469" width="453.543" height="307.575" fill="none" stroke="black"/>
<path d="M57.1929,346.022h 136.063v -41.847h 15.1181v -41.847h 15.1181v -209.235h 15.1181v 167.388h 30.2362v -41.847h 15.1181v 41.847h 15.1181v 125.541h 211.654" fill="none" stroke="#c10020"/>
<path d="M59.4606,346.022h 31.748l 4.53543, -0.0374665l 4.53543, -0.0216361l 4.53543, -0.0329471l 4.53543, -0.0494939l 4.53543, -0.0733436l 4.53543, -0.107207l 4.53543, -0.154565l 4.53543, -0.219783l 4.53543, -0.308208l 4.53543, -0.42621l 4.53543,
 -0.581157l 4.53543, -0.781289l 4.53543, -1.03545l 4.53543, -1.35267l 4.53543, -1.74156l 4.53543, -2.20951l 4.53543, -2.76178l 4.53543, -3.40036l 4.53543, -4.12283l 4.53543, -4.92128l 4.53543, -5.78134l 4.53543, -6.68151l 4.53543, -7.59294l 4.53543,
 -8.47977l 4.53543, -9.30018l 4.53543, -10.008l 4.53543, -10.5553l 4.53543, -10.8951l 4.53543, -10.9849l 4.53543, -10.79l 4.53543, -10.2869l 4.53543, -9.4662l 4.53543, -8.33435l 4.53543, -6.91462l 4.53543, -5.24672l 4.53543, -3.38513l 4.53543,
 -1.39618l 4.53543, 0.645825l 4.53543, 2.66325l 4.53543, 4.58l 4.53543, 6.32632l 4.53543, 7.84295" fill="none" stroke="#c10020" stroke-width="2"/>
<path d="M281.697,207.643l 4.53543, 9.08447l 4.53543, 10.0215l 4.53543, 10.6413l 4.53543, 10.9477l 4.53543, 10.9593l 4.53543, 10.7071l 4.53543, 10.2309l 4.53543, 9.57664l 4.53543, 8.79218l 4.53543, 7.92468l 4.53543, 7.0178l 4.53543, 6.10974l 4.53543,
 5.23201l 4.53543, 4.40881l 4.53543, 3.6571l 4.53543, 2.98706l 4.53543, 2.40301l 4.53543, 1.90445l 4.53543, 1.4872l 4.53543, 1.14453l 4.53543, 0.868174l 4.53543, 0.649184l 4.53543, 0.478585l 4.53543, 0.347877l 4.53543, 0.24935l 4.53543, 0.176257l
 4.53543, 0.122876l 4.53543, 0.0844896l 4.53543, 0.0573036l 4.53543, 0.0383378l 4.53543, 0.0253024l 4.53543, 0.0443847h 77.1024" fill="none" stroke="#c10020" stroke-width="2"/>
<path d="M503.933,346.022h 4.53543" fill="none" stroke="#c10020" stroke-width="2"/>
<path d="M57.1929,346.022h 453.543" fill="none" stroke="black"/>
<path d="M57.1929,336.795v 9.22726" fill="none" stroke="black"/>
<path d="M72.311,341.409v 4.61363" fill="none" stroke="black"/>
<path d="M87.4291,341.409v 4.61363" fill="none" stroke="black"/>
<path d="M102.547,341.409v 4.61363" fill="none" stroke="black"/>
<path d="M117.665,341.409v 4.61363" fill="none" stroke="black"/>
<path d="M132.783,336.795v 9.22726" fill="none" stroke="black"/>
<path d="M147.902,341.409v 4.61363" fill="none" stroke="black"/>
<path d="M163.02,341.409v 4.61363" fill="none" stroke="black"/>
<path d="M178.138,341.409v 4.61363" fill="none" stroke="black"/>
<path d="M193.256,341.409v 4.61363" fill="none" stroke="black"/>
<path d="M208.374,336.795v 9.22726" fill="none" stroke="black"/>
<path d="M223.492,341.409v 4.61363" fill="none" stroke="black"/>
<path d="M238.61,341.409v 4.61363" fill="none" stroke="black"/>
<path d="M253.728,341.409v 4.61363" fill="none" stroke="black"/>
<path d="M268.846,341.409v 4.61363" fill="none" stroke="black"/>
<path d="M283.965,336.795v 9.22726" fill="none" stroke="black"/>
<path d="M299.083,341.409v 4.61363" fill="none" stroke="black"/>
<path d="M314.201,341.409v 4.61363" fill="none" stroke="black"/>
<path d="M329.319,341.409v 4.61363" fill="none" stroke="black"/>
<path d="M344.437,341.409v 4.61363" fill="none" stroke="black"/>
<path d="M359.555,336.795v 9.22726" fill="none" stroke="black"/>
<path d="M374.673,341.409v 4.61363" fill="none" stroke="black"/>
<path d="M389.791,341.409v 4.61363" fill="none" stroke="black"/>
<path d="M404.909,341.409v 4.61363" fill="none" stroke="black"/>
<path d="M420.028,341.409v 4.61363" fill="none" stroke="black"/>
<path d="M435.146,336.795v 9.22726" fill="none" stroke="black"/>
<path d="M450.264,341.409v 4.61363" fill="none" stroke="black"/>
<path d="M465.382,341.409v 4.61363" fill="none" stroke="black"/>
<path d="M480.5,341.409v 4.61363" fill="none" stroke="black"/>
<path d="M495.618,341.409v 4.61363" fill="none" stroke="black"/>
<path d="M510.736,336.795v 9.22726" fill="none" stroke="black"/>
<text xml:space="preserve" x="53.446" y="358.403" fill="black" font-size="12.8453" font-family="Helvetica">0</text>
<text xml:space="preserve" x="121.868" y="358.403" fill="black" font-size="12.8453" font-family="Helvetica">100</text>
<text xml:space="preserve" x="197.622" y="358.403" fill="black" font-size="12.8453" font-family="Helvetica">200</text>
<text xml:space="preserve" x="273.375" y="358.403" fill="black" font-size="12.8453" font-family="Helvetica">300</text>
<text xml:space="preserve" x="348.314" y="358.403" fill="black" font-size="12.8453" font-family="Helvetica">400</text>
<text xml:space="preserve" x="424.068" y="358.403" fill="black" font-size="12.8453" font-family="Helvetica">500</text>
<text xml:space="preserve" x="499.821" y="358.403" fill="black" font-size="12.8453" font-family="Helvetica">600</text>
<text xml:space="preserve" x="486.788" y="369.807" fill="black" font-size="12.8453" font-family="Helvetica">mpv</text>
<path d="M57.1929,346.022v -307.575" fill="none" stroke="black"/>
<path d="M70.7992,346.022h -13.6063" fill="none" stroke="black"/>
<path d="M63.9961,337.653h -6.80315" fill="none" stroke="black"/>
<path d="M63.9961,329.283h -6.80315" fill="none" stroke="black"/>
<path d="M63.9961,320.914h -6.80315" fill="none" stroke="black"/>
<path d="M63.9961,312.545h -6.80315" fill="none" stroke="black"/>
<path d="M70.7992,304.175h -13.6063" fill="none" stroke="black"/>
<path d="M63.9961,295.806h -6.80315" fill="none" stroke="black"/>
<path d="M63.9961,287.436h -6.80315" fill="none" stroke="black"/>
<path d="M63.9961,279.067h -6.80315" fill="none" stroke="black"/>
<path d="M63.9961,270.698h -6.80315" fill="none" stroke="black"/>
<path d="M70.7992,262.328h -13.6063" fill="none" stroke="black"/>
<path d="M63.9961,253.959h -6.80315" fill="none" stroke="black"/>
<path d="M63.9961,245.589h -6.80315" fill="none" stroke="black"/>
<path d="M63.9961,237.22h -6.80315" fill="none" stroke="black"/>
<path d="M63.9961,228.851h -6.80315" fill="none" stroke="black"/>
<path d="M70.7992,220.481h -13.6063" fill="none" stroke="black"/>
<path d="M63.9961,212.112h -6.80315" fill="none" stroke="black"/>
<path d="M63.9961,203.743h -6.80315" fill="none" stroke="black"/>
<path d="M63.9961,195.373h -6.80315" fill="none" stroke="black"/>
<path d="M63.9961,187.004h -6.80315" fill="none" stroke="black"/>
<path d="M70.7992,178.634h -13.6063" fill="none" stroke="black"/>
<path d="M63.9961,170.265h -6.80315" fill="none" stroke="black"/>
<path d="M63.9961,161.896h -6.80315" fill="none" stroke="black"/>
<path d="M63.9961,153.526h -6.80315" fill="none" stroke="black"/>
<path d="M63.9961,145.157h -6.80315" fill="none" stroke="black"/>
<path d="M70.7992,136.787h -13.6063" fill="none" stroke="black"/>
<path d="M63.9961,128.418h -6.80315" fill="none" stroke="black"/>
<path d="M63.9961,120.049h -6.80315" fill="none" stroke="black"/>
<path d="M63.9961,111.679h -6.80315" fill="none" stroke="black"/>
<path d="M63.9961,103.31h -6.80315" fill="none" stroke="black"/>
<path d="M70.7992,94.9403h -13.6063" fill="none" stroke="black"/>
<path d="M63.9961,86.571h -6.80315" fill="none" stroke="black"/>
<path d="M63.9961,78.2016h -6.80315" fill="none" stroke="black"/>
<path d="M63.9961,69.8322h -6.80315" fill="none" stroke="black"/>
<path d="M63.9961,61.4628h -6.80315" fill="none" stroke="black"/>
<path d="M70.7992,53.0934h -13.6063" fill="none" stroke="black"/>
<path d="M70.7992,53.0934h -13.6063" fill="none" stroke="black"/>
<path d="M63.9961,44.724h -6.80315" fill="none" stroke="black"/>
<text xml:space="preserve" x="47.7441" y="350.258" fill="black" font-size="12.8453" font-family="Helvetica">0</text>
<text xml:space="preserve" x="49.3732" y="308.716" fill="black" font-size="12.8453" font-family="Helvetica">1</text>
<text xml:space="preserve" x="47.7441" y="267.173" fill="black" font-size="12.8453" font-family="Helvetica">2</text>
<text xml:space="preserve" x="47.7441" y="224.817" fill="black" font-size="12.8453" font-family="Helvetica">3</text>
<text xml:space="preserve" x="47.7441" y="183.275" fill="black" font-size="12.8453" font-family="Helvetica">4</text>
<text xml:space="preserve" x="47.7441" y="140.918" fill="black" font-size="12.8453" font-family="Helvetica">5</text>
<text xml:space="preserve" x="47.7441" y="99.3755" fill="black" font-size="12.8453" font-family="Helvetica">6</text>
<text xml:space="preserve" x="47.7441" y="57.8333" fill="black" font-size="12.8453" font-family="Helvetica">7</text>
<g transform="rotate(-90,34.7112,86.3427)">
<text xml:space="preserve" x="34.7112" y="86.3427" fill="black" font-size="12.8453" font-family="Helvetica">n_blocks</text>
</g>
<text xml:space="preserve" x="204.138" y="17.9202" fill="black" font-size="18.7938" font-family="Helvetica">sector 3, vop 69.13</text>
<rect x="351.996" y="24.9905" width="204.094" height="76.8938" fill="white"/>
<path d="M351.996,101.884h 204.094" fill="none" stroke="black"/>
<path d="M556.091,101.884v -76.8938" fill="none" stroke="black"/>
<path d="M556.091,24.9905h -204.094" fill="none" stroke="black"/>
<path d="M351.996,24.9905v 76.8938" fill="none" stroke="black"/>
<text xml:space="preserve" x="376.824" y="39.0986" fill="black" font-size="16.6263" font-family="Helvetica"> / ndf </text>
<text xml:space="preserve" x="371.122" y="34.2112" fill="black" font-size="11.2509" font-family="Helvetica">2</text>
<text xml:space="preserve" x="362.162" y="39.0986" fill="black" font-size="16.6263" font-family="Times">&#0967;</text>
<text xml:space="preserve" x="481.901" y="40.7277" fill="black" font-size="16.6263" font-family="Helvetica">  2.85 / 4</text>
<text xml:space="preserve" x="362.162" y="60.2769" fill="black" font-size="16.6263" font-family="Helvetica">Constant </text>
<text xml:space="preserve" x="500.636" y="60.2769" fill="black" font-size="16.6263" font-family="Helvetica"> 1.074</text>
<text xml:space="preserve" x="491.676" y="60.2769" fill="black" font-size="16.6263" font-family="Times">&#0177;</text>
<text xml:space="preserve" x="441.173" y="60.2769" fill="black" font-size="16.6263" font-family="Helvetica"> 3.835 </text>
<text xml:space="preserve" x="362.162" y="79.0117" fill="black" font-size="16.6263" font-family="Helvetica">Mean     </text>
<text xml:space="preserve" x="509.596" y="79.0117" fill="black" font-size="16.6263" font-family="Helvetica"> 25.2</text>
<text xml:space="preserve" x="500.636" y="79.0117" fill="black" font-size="16.6263" font-family="Times">&#0177;</text>
<text xml:space="preserve" x="452.577" y="79.0117" fill="black" font-size="16.6263" font-family="Helvetica"> 268.1 </text>
<text xml:space="preserve" x="362.162" y="96.9318" fill="black" font-size="16.6263" font-family="Helvetica">Sigma    </text>
<text xml:space="preserve" x="500.636" y="98.561" fill="black" font-size="16.6263" font-family="Helvetica"> 24.35</text>
<text xml:space="preserve" x="491.676" y="98.561" fill="black" font-size="16.6263" font-family="Times">&#0177;</text>
<text xml:space="preserve" x="441.173" y="98.561" fill="black" font-size="16.6263" font-family="Helvetica"> 53.09 </text>
<g stroke="black" stroke-width="1" fill="none">
<line x1="63.752" y1="346.022" x2="64.752" y2="346.022"/>
</g>
<g stroke="black" stroke-width="1" fill="none">
<line x1="78.8701" y1="346.022" x2="79.8701" y2="346.022"/>
</g>
<g stroke="black" stroke-width="1" fill="none">
<line x1="93.9882" y1="346.022" x2="94.9882" y2="346.022"/>
</g>
<g stroke="black" stroke-width="1" fill="none">
<line x1="109.106" y1="346.022" x2="110.106" y2="346.022"/>
</g>
<g stroke="black" stroke-width="1" fill="none">
<line x1="124.224" y1="346.022" x2="125.224" y2="346.022"/>
</g>
<g stroke="black" stroke-width="1" fill="none">
<line x1="139.343" y1="346.022" x2="140.343" y2="346.022"/>
</g>
<g stroke="black" stroke-width="1" fill="none">
<line x1="154.461" y1="346.022" x2="155.461" y2="346.022"/>
</g>
<g stroke="black" stroke-width="1" fill="none">
<line x1="169.579" y1="346.022" x2="170.579" y2="346.022"/>
</g>
<g stroke="black" stroke-width="1" fill="none">
<line x1="184.697" y1="346.022" x2="185.697" y2="346.022"/>
</g>
<path d="M200.815,346.022v -41.847" fill="none" stroke="#c10020"/>
<path d="M200.815,304.175v -41.847" fill="none" stroke="#c10020"/>
<path d="M193.256,304.175h 7.55905" fill="none" stroke="#c10020"/>
<path d="M200.815,304.175h 7.55905" fill="none" stroke="#c10020"/>
<g stroke="black" stroke-width="1" fill="none">
<line x1="199.815" y1="304.175" x2="200.815" y2="304.175"/>
</g>
<path d="M215.933,321.509v -59.1806" fill="none" stroke="#c10020"/>
<path d="M215.933,262.328v -59.1806" fill="none" stroke="#c10020"/>
<path d="M208.374,262.328h 7.55905" fill="none" stroke="#c10020"/>
<path d="M215.933,262.328h 7.55905" fill="none" stroke="#c10020"/>
<g stroke="black" stroke-width="1" fill="none">
<line x1="214.933" y1="262.328" x2="215.933" y2="262.328"/>
</g>
<path d="M231.051,163.81v -110.717" fill="none" stroke="#c10020"/>
<path d="M231.051,53.0934v -14.6464" fill="none" stroke="#c10020"/>
<path d="M223.492,53.0934h 7.55905" fill="none" stroke="#c10020"/>
<path d="M231.051,53.0934h 7.55905" fill="none" stroke="#c10020"/>
<g stroke="black" stroke-width="1" fill="none">
<line x1="230.051" y1="53.0934" x2="231.051" y2="53.0934"/>
</g>
<path d="M246.169,292.962v -72.4811" fill="none" stroke="#c10020"/>
<path d="M246.169,220.481v -72.4811" fill="none" stroke="#c10020"/>
<path d="M238.61,220.481h 7.55905" fill="none" stroke="#c10020"/>
<path d="M246.169,220.481h 7.55905" fill="none" stroke="#c10020"/>
<g stroke="black" stroke-width="1" fill="none">
<line x1="245.169" y1="220.481" x2="246.169" y2="220.481"/>
</g>
<path d="M261.287,292.962v -72.4811" fill="none" stroke="#c10020"/>
<path d="M261.287,220.481v -72.4811" fill="none" stroke="#c10020"/>
<path d="M253.728,220.481h 7.55905" fill="none" stroke="#c10020"/>
<path d="M261.287,220.481h 7.55905" fill="none" stroke="#c10020"/>
<g stroke="black" stroke-width="1" fill="none">
<line x1="260.287" y1="220.481" x2="261.287" y2="220.481"/>
</g>
<path d="M276.406,262.328v -83.694" fill="none" stroke="#c10020"/>
<path d="M276.406,178.634v -83.694" fill="none" stroke="#c10020"/>
<path d="M268.846,178.634h 7.55905" fill="none" stroke="#c10020"/>
<path d="M276.406,178.634h 7.55905" fill="none" stroke="#c10020"/>
<g stroke="black" stroke-width="1" fill="none">
<line x1="275.406" y1="178.634" x2="276.406" y2="178.634"/>
</g>
<path d="M291.524,292.962v -72.4811" fill="none" stroke="#c10020"/>
<path d="M291.524,220.481v -72.4811" fill="none" stroke="#c10020"/>
<path d="M283.965,220.481h 7.55905" fill="none" stroke="#c10020"/>
<path d="M291.524,220.481h 7.55905" fill="none" stroke="#c10020"/>
<g stroke="black" stroke-width="1" fill="none">
<line x1="290.524" y1="220.481" x2="291.524" y2="220.481"/>
</g>
<g stroke="black" stroke-width="1" fill="none">
<line x1="305.642" y1="346.022" x2="306.642" y2="346.022"/>
</g>
<g stroke="black" stroke-width="1" fill="none">
<line x1="320.76" y1="346.022" x2="321.76" y2="346.022"/>
</g>
<g stroke="black" stroke-width="1" fill="none">
<line x1="335.878" y1="346.022" x2="336.878" y2="346.022"/>
</g>
<g stroke="black" stroke-width="1" fill="none">
<line x1="350.996" y1="346.022" x2="351.996" y2="346.022"/>
</g>
<g stroke="black" stroke-width="1" fill="none">
<line x1="366.114" y1="346.022" x2="367.114" y2="346.022"/>
</g>
<g stroke="black" stroke-width="1" fill="none">
<line x1="381.232" y1="346.022" x2="382.232" y2="346.022"/>
</g>
<g stroke="black" stroke-width="1" fill="none">
<line x1="396.35" y1="346.022" x2="397.35" y2="346.022"/>
</g>
<g stroke="black" stroke-width="1" fill="none">
<line x1="411.469" y1="346.022" x2="412.469" y2="346.022"/>
</g>
<g stroke="black" stroke-width="1" fill="none">
<line x1="426.587" y1="346.022" x2="427.587" y2="346.022"/>
</g>
<g stroke="black" stroke-width="1" fill="none">
<line x1="441.705" y1="346.022" x2="442.705" y2="346.022"/>
</g>
<g stroke="black" stroke-width="1" fill="none">
<line x1="456.823" y1="346.022" x2="457.823" y2="346.022"/>
</g>
<g stroke="black" stroke-width="1" fill="none">
<line x1="471.941" y1="346.022" x2="472.941" y2="346.022"/>
</g>
<g stroke="black" stroke-width="1" fill="none">
<line x1="487.059" y1="346.022" x2="488.059" y2="346.022"/>
</g>
<g stroke="black" stroke-width="1" fill="none">
<line x1="502.177" y1="346.022" x2="503.177" y2="346.022"/>
</g>
<path d="M59.4606,346.022h 31.748l 4.53543, -0.0374665l 4.53543, -0.0216361l 4.53543, -0.0329471l 4.53543, -0.0494939l 4.53543, -0.0733436l 4.53543, -0.107207l 4.53543, -0.154565l 4.53543, -0.219783l 4.53543, -0.308208l 4.53543, -0.42621l 4.53543,
 -0.581157l 4.53543, -0.781289l 4.53543, -1.03545l 4.53543, -1.35267l 4.53543, -1.74156l 4.53543, -2.20951l 4.53543, -2.76178l 4.53543, -3.40036l 4.53543, -4.12283l 4.53543, -4.92128l 4.53543, -5.78134l 4.53543, -6.68151l 4.53543, -7.59294l 4.53543,
 -8.47977l 4.53543, -9.30018l 4.53543, -10.008l 4.53543, -10.5553l 4.53543, -10.8951l 4.53543, -10.9849l 4.53543, -10.79l 4.53543, -10.2869l 4.53543, -9.4662l 4.53543, -8.33435l 4.53543, -6.91462l 4.53543, -5.24672l 4.53543, -3.38513l 4.53543,
 -1.39618l 4.53543, 0.645825l 4.53543, 2.66325l 4.53543, 4.58l 4.53543, 6.32632l 4.53543, 7.84295" fill="none" stroke="#c10020" stroke-width="2"/>
<path d="M281.697,207.643l 4.53543, 9.08447l 4.53543, 10.0215l 4.53543, 10.6413l 4.53543, 10.9477l 4.53543, 10.9593l 4.53543, 10.7071l 4.53543, 10.2309l 4.53543, 9.57664l 4.53543, 8.79218l 4.53543, 7.92468l 4.53543, 7.0178l 4.53543, 6.10974l 4.53543,
 5.23201l 4.53543, 4.40881l 4.53543, 3.6571l 4.53543, 2.98706l 4.53543, 2.40301l 4.53543, 1.90445l 4.53543, 1.4872l 4.53543, 1.14453l 4.53543, 0.868174l 4.53543, 0.649184l 4.53543, 0.478585l 4.53543, 0.347877l 4.53543, 0.24935l 4.53543, 0.176257l
 4.53543, 0.122876l 4.53543, 0.0844896l 4.53543, 0.0573036l 4.53543, 0.0383378l 4.53543, 0.0253024l 4.53543, 0.0443847h 77.1024" fill="none" stroke="#c10020" stroke-width="2"/>
<path d="M503.933,346.022h 4.53543" fill="none" stroke="#c10020" stroke-width="2"/>
<rect x="351.996" y="24.9905" width="204.094" height="76.8938" fill="white"/>
<path d="M351.996,101.884h 204.094" fill="none" stroke="black"/>
<path d="M556.091,101.884v -76.8938" fill="none" stroke="black"/>
<path d="M556.091,24.9905h -204.094" fill="none" stroke="black"/>
<path d="M351.996,24.9905v 76.8938" fill="none" stroke="black"/>
<text xml:space="preserve" x="376.824" y="39.0986" fill="black" font-size="16.6263" font-family="Helvetica"> / ndf </text>
<text xml:space="preserve" x="371.122" y="34.2112" fill="black" font-size="11.2509" font-family="Helvetica">2</text>
<text xml:space="preserve" x="362.162" y="39.0986" fill="black" font-size="16.6263" font-family="Times">&#0967;</text>
<text xml:space="preserve" x="481.901" y="40.7277" fill="black" font-size="16.6263" font-family="Helvetica">  2.85 / 4</text>
<text xml:space="preserve" x="362.162" y="60.2769" fill="black" font-size="16.6263" font-family="Helvetica">Constant </text>
<text xml:space="preserve" x="500.636" y="60.2769" fill="black" font-size="16.6263" font-family="Helvetica"> 1.074</text>
<text xml:space="preserve" x="491.676" y="60.2769" fill="black" font-size="16.6263" font-family="Times">&#0177;</text>
<text xml:space="preserve" x="441.173" y="60.2769" fill="black" font-size="16.6263" font-family="Helvetica"> 3.835 </text>
<text xml:space="preserve" x="362.162" y="79.0117" fill="black" font-size="16.6263" font-family="Helvetica">Mean     </text>
<text xml:space="preserve" x="509.596" y="79.0117" fill="black" font-size="16.6263" font-family="Helvetica"> 25.2</text>
<text xml:space="preserve" x="500.636" y="79.0117" fill="black" font-size="16.6263" font-family="Times">&#0177;</text>
<text xml:space="preserve" x="452.577" y="79.0117" fill="black" font-size="16.6263" font-family="Helvetica"> 268.1 </text>
<text xml:space="preserve" x="362.162" y="96.9318" fill="black" font-size="16.6263" font-family="Helvetica">Sigma    </text>
<text xml:space="preserve" x="500.636" y="98.561" fill="black" font-size="16.6263" font-family="Helvetica"> 24.35</text>
<text xml:space="preserve" x="491.676" y="98.561" fill="black" font-size="16.6263" font-family="Times">&#0177;</text>
<text xml:space="preserve" x="441.173" y="98.561" fill="black" font-size="16.6263" font-family="Helvetica"> 53.09 </text>
<text xml:space="preserve" x="204.138" y="17.9202" fill="black" font-size="18.7938" font-family="Helvetica">sector 3, vop 69.13</text></svg>
