<?xml version="1.0" standalone="no"?>
<svg width="567.429" height="384.969" viewBox="0 0 567.429 384.969" xmlns="http://www.w3.org/2000/svg" shape-rendering="crispEdges">
<title>
./adjusted_vop/sector_by_vop/sector-16_vop-69.23.svg
</title>
<desc>
Creator: ROOT Version 6.24/00
CreationDate: Wed Jun 23 06:01:54 2021</desc>
<defs>
</defs>
<rect x="0.5" y="0" width="566.929" height="384.469" fill="white"/>
<rect x="57.1929" y="38.4469" width="453.543" height="307.575" fill="white"/>
<rect x="57.1929" y="38.4469" width="453.543" height="307.575" fill="none" stroke="black"/>
<path d="M57.1929,346.022h 181.417v -37.6694h 15.1181v -207.182h 15.1181v -18.8347h 15.1181v 56.5041h 15.1181v 131.843h 15.1181v 75.3388h 196.535" fill="none" stroke="#817066"/>
<path d="M59.4606,346.022h 145.134l 4.53543, -0.0741974l 4.53543, -0.139765l 4.53543, -0.359944l 4.53543, -0.857948l 4.53543, -1.891l 4.53543, -3.84978l 4.53543, -7.22865l 4.53543, -12.4941l 4.53543, -19.8253l 4.53543, -28.7704l 4.53543, -37.9674l
 4.53543, -45.1524l 4.53543, -47.6343l 4.53543, -43.2081l 4.53543, -31.1866l 4.53543, -13.0333l 4.53543, 7.82604" fill="none" stroke="#817066" stroke-width="2"/>
<path d="M281.697,60.1751l 4.53543, 27.0508l 4.53543, 40.8562l 4.53543, 47.2254l 4.53543, 46.3322l 4.53543, 40.0874l 4.53543, 31.1577l 4.53543, 21.9806l 4.53543, 14.1642l 4.53543, 8.37232l 4.53543, 4.5527l 4.53543, 2.28231l 4.53543, 1.05645l 4.53543,
 0.452079l 4.53543, 0.179011l 4.53543, 0.0656408l 4.53543, 0.0321178h 149.669" fill="none" stroke="#817066" stroke-width="2"/>
<path d="M503.933,346.022h 4.53543" fill="none" stroke="#817066" stroke-width="2"/>
<path d="M57.1929,346.022h 453.543" fill="none" stroke="black"/>
<path d="M57.1929,336.795v 9.22726" fill="none" stroke="black"/>
<path d="M72.311,341.409v 4.61363" fill="none" stroke="black"/>
<path d="M87.4291,341.409v 4.61363" fill="none" stroke="black"/>
<path d="M102.547,341.409v 4.61363" fill="none" stroke="black"/>
<path d="M117.665,341.409v 4.61363" fill="none" stroke="black"/>
<path d="M132.783,336.795v 9.22726" fill="none" stroke="black"/>
<path d="M147.902,341.409v 4.61363" fill="none" stroke="black"/>
<path d="M163.02,341.409v 4.61363" fill="none" stroke="black"/>
<path d="M178.138,341.409v 4.61363" fill="none" stroke="black"/>
<path d="M193.256,341.409v 4.61363" fill="none" stroke="black"/>
<path d="M208.374,336.795v 9.22726" fill="none" stroke="black"/>
<path d="M223.492,341.409v 4.61363" fill="none" stroke="black"/>
<path d="M238.61,341.409v 4.61363" fill="none" stroke="black"/>
<path d="M253.728,341.409v 4.61363" fill="none" stroke="black"/>
<path d="M268.846,341.409v 4.61363" fill="none" stroke="black"/>
<path d="M283.965,336.795v 9.22726" fill="none" stroke="black"/>
<path d="M299.083,341.409v 4.61363" fill="none" stroke="black"/>
<path d="M314.201,341.409v 4.61363" fill="none" stroke="black"/>
<path d="M329.319,341.409v 4.61363" fill="none" stroke="black"/>
<path d="M344.437,341.409v 4.61363" fill="none" stroke="black"/>
<path d="M359.555,336.795v 9.22726" fill="none" stroke="black"/>
<path d="M374.673,341.409v 4.61363" fill="none" stroke="black"/>
<path d="M389.791,341.409v 4.61363" fill="none" stroke="black"/>
<path d="M404.909,341.409v 4.61363" fill="none" stroke="black"/>
<path d="M420.028,341.409v 4.61363" fill="none" stroke="black"/>
<path d="M435.146,336.795v 9.22726" fill="none" stroke="black"/>
<path d="M450.264,341.409v 4.61363" fill="none" stroke="black"/>
<path d="M465.382,341.409v 4.61363" fill="none" stroke="black"/>
<path d="M480.5,341.409v 4.61363" fill="none" stroke="black"/>
<path d="M495.618,341.409v 4.61363" fill="none" stroke="black"/>
<path d="M510.736,336.795v 9.22726" fill="none" stroke="black"/>
<text xml:space="preserve" x="53.446" y="358.403" fill="black" font-size="12.8453" font-family="Helvetica">0</text>
<text xml:space="preserve" x="121.868" y="358.403" fill="black" font-size="12.8453" font-family="Helvetica">100</text>
<text xml:space="preserve" x="197.622" y="358.403" fill="black" font-size="12.8453" font-family="Helvetica">200</text>
<text xml:space="preserve" x="273.375" y="358.403" fill="black" font-size="12.8453" font-family="Helvetica">300</text>
<text xml:space="preserve" x="348.314" y="358.403" fill="black" font-size="12.8453" font-family="Helvetica">400</text>
<text xml:space="preserve" x="424.068" y="358.403" fill="black" font-size="12.8453" font-family="Helvetica">500</text>
<text xml:space="preserve" x="499.821" y="358.403" fill="black" font-size="12.8453" font-family="Helvetica">600</text>
<text xml:space="preserve" x="486.788" y="369.807" fill="black" font-size="12.8453" font-family="Helvetica">mpv</text>
<path d="M57.1929,346.022v -307.575" fill="none" stroke="black"/>
<path d="M70.7992,346.022h -13.6063" fill="none" stroke="black"/>
<path d="M63.9961,336.605h -6.80315" fill="none" stroke="black"/>
<path d="M63.9961,327.188h -6.80315" fill="none" stroke="black"/>
<path d="M63.9961,317.77h -6.80315" fill="none" stroke="black"/>
<path d="M70.7992,308.353h -13.6063" fill="none" stroke="black"/>
<path d="M63.9961,298.935h -6.80315" fill="none" stroke="black"/>
<path d="M63.9961,289.518h -6.80315" fill="none" stroke="black"/>
<path d="M63.9961,280.101h -6.80315" fill="none" stroke="black"/>
<path d="M70.7992,270.683h -13.6063" fill="none" stroke="black"/>
<path d="M63.9961,261.266h -6.80315" fill="none" stroke="black"/>
<path d="M63.9961,251.849h -6.80315" fill="none" stroke="black"/>
<path d="M63.9961,242.431h -6.80315" fill="none" stroke="black"/>
<path d="M70.7992,233.014h -13.6063" fill="none" stroke="black"/>
<path d="M63.9961,223.597h -6.80315" fill="none" stroke="black"/>
<path d="M63.9961,214.179h -6.80315" fill="none" stroke="black"/>
<path d="M63.9961,204.762h -6.80315" fill="none" stroke="black"/>
<path d="M70.7992,195.345h -13.6063" fill="none" stroke="black"/>
<path d="M63.9961,185.927h -6.80315" fill="none" stroke="black"/>
<path d="M63.9961,176.51h -6.80315" fill="none" stroke="black"/>
<path d="M63.9961,167.093h -6.80315" fill="none" stroke="black"/>
<path d="M70.7992,157.675h -13.6063" fill="none" stroke="black"/>
<path d="M63.9961,148.258h -6.80315" fill="none" stroke="black"/>
<path d="M63.9961,138.84h -6.80315" fill="none" stroke="black"/>
<path d="M63.9961,129.423h -6.80315" fill="none" stroke="black"/>
<path d="M70.7992,120.006h -13.6063" fill="none" stroke="black"/>
<path d="M63.9961,110.588h -6.80315" fill="none" stroke="black"/>
<path d="M63.9961,101.171h -6.80315" fill="none" stroke="black"/>
<path d="M63.9961,91.7537h -6.80315" fill="none" stroke="black"/>
<path d="M70.7992,82.3363h -13.6063" fill="none" stroke="black"/>
<path d="M63.9961,72.919h -6.80315" fill="none" stroke="black"/>
<path d="M63.9961,63.5016h -6.80315" fill="none" stroke="black"/>
<path d="M63.9961,54.0843h -6.80315" fill="none" stroke="black"/>
<path d="M70.7992,44.6669h -13.6063" fill="none" stroke="black"/>
<path d="M70.7992,44.6669h -13.6063" fill="none" stroke="black"/>
<text xml:space="preserve" x="47.7441" y="350.258" fill="black" font-size="12.8453" font-family="Helvetica">0</text>
<text xml:space="preserve" x="47.7441" y="312.788" fill="black" font-size="12.8453" font-family="Helvetica">2</text>
<text xml:space="preserve" x="47.7441" y="275.319" fill="black" font-size="12.8453" font-family="Helvetica">4</text>
<text xml:space="preserve" x="47.7441" y="237.85" fill="black" font-size="12.8453" font-family="Helvetica">6</text>
<text xml:space="preserve" x="47.7441" y="199.566" fill="black" font-size="12.8453" font-family="Helvetica">8</text>
<text xml:space="preserve" x="41.2277" y="162.096" fill="black" font-size="12.8453" font-family="Helvetica">10</text>
<text xml:space="preserve" x="40.4131" y="124.627" fill="black" font-size="12.8453" font-family="Helvetica">12</text>
<text xml:space="preserve" x="40.4131" y="87.1572" fill="black" font-size="12.8453" font-family="Helvetica">14</text>
<text xml:space="preserve" x="40.4131" y="48.8732" fill="black" font-size="12.8453" font-family="Helvetica">16</text>
<g transform="rotate(-90,27.3803,86.3427)">
<text xml:space="preserve" x="27.3803" y="86.3427" fill="black" font-size="12.8453" font-family="Helvetica">n_blocks</text>
</g>
<text xml:space="preserve" x="199.251" y="17.9202" fill="black" font-size="18.7938" font-family="Helvetica">sector 16, vop 69.23</text>
<rect x="351.996" y="24.9905" width="204.094" height="76.8938" fill="white"/>
<path d="M351.996,101.884h 204.094" fill="none" stroke="black"/>
<path d="M556.091,101.884v -76.8938" fill="none" stroke="black"/>
<path d="M556.091,24.9905h -204.094" fill="none" stroke="black"/>
<path d="M351.996,24.9905v 76.8938" fill="none" stroke="black"/>
<text xml:space="preserve" x="377.638" y="39.0986" fill="black" font-size="16.7253" font-family="Helvetica"> / ndf </text>
<text xml:space="preserve" x="371.122" y="34.2112" fill="black" font-size="11.3169" font-family="Helvetica">2</text>
<text xml:space="preserve" x="362.162" y="39.0986" fill="black" font-size="16.7253" font-family="Times">&#0967;</text>
<text xml:space="preserve" x="477.828" y="40.7277" fill="black" font-size="16.7253" font-family="Helvetica"> 1.306 / 2</text>
<text xml:space="preserve" x="362.162" y="60.2769" fill="black" font-size="16.7253" font-family="Helvetica">Constant </text>
<text xml:space="preserve" x="518.556" y="60.2769" fill="black" font-size="16.7253" font-family="Helvetica"> 3.0</text>
<text xml:space="preserve" x="509.596" y="60.2769" fill="black" font-size="16.7253" font-family="Times">&#0177;</text>
<text xml:space="preserve" x="463.166" y="60.2769" fill="black" font-size="16.7253" font-family="Helvetica">  15.6 </text>
<text xml:space="preserve" x="362.162" y="79.0117" fill="black" font-size="16.7253" font-family="Helvetica">Mean     </text>
<text xml:space="preserve" x="518.556" y="79.0117" fill="black" font-size="16.7253" font-family="Helvetica"> 3.8</text>
<text xml:space="preserve" x="509.596" y="79.0117" fill="black" font-size="16.7253" font-family="Times">&#0177;</text>
<text xml:space="preserve" x="459.094" y="79.0117" fill="black" font-size="16.7253" font-family="Helvetica"> 291.8 </text>
<text xml:space="preserve" x="362.162" y="96.9318" fill="black" font-size="16.7253" font-family="Helvetica">Sigma    </text>
<text xml:space="preserve" x="518.556" y="98.561" fill="black" font-size="16.7253" font-family="Helvetica"> 3.0</text>
<text xml:space="preserve" x="509.596" y="98.561" fill="black" font-size="16.7253" font-family="Times">&#0177;</text>
<text xml:space="preserve" x="463.166" y="98.561" fill="black" font-size="16.7253" font-family="Helvetica">  22.3 </text>
<g stroke="black" stroke-width="1" fill="none">
<line x1="63.752" y1="346.022" x2="64.752" y2="346.022"/>
</g>
<g stroke="black" stroke-width="1" fill="none">
<line x1="78.8701" y1="346.022" x2="79.8701" y2="346.022"/>
</g>
<g stroke="black" stroke-width="1" fill="none">
<line x1="93.9882" y1="346.022" x2="94.9882" y2="346.022"/>
</g>
<g stroke="black" stroke-width="1" fill="none">
<line x1="109.106" y1="346.022" x2="110.106" y2="346.022"/>
</g>
<g stroke="black" stroke-width="1" fill="none">
<line x1="124.224" y1="346.022" x2="125.224" y2="346.022"/>
</g>
<g stroke="black" stroke-width="1" fill="none">
<line x1="139.343" y1="346.022" x2="140.343" y2="346.022"/>
</g>
<g stroke="black" stroke-width="1" fill="none">
<line x1="154.461" y1="346.022" x2="155.461" y2="346.022"/>
</g>
<g stroke="black" stroke-width="1" fill="none">
<line x1="169.579" y1="346.022" x2="170.579" y2="346.022"/>
</g>
<g stroke="black" stroke-width="1" fill="none">
<line x1="184.697" y1="346.022" x2="185.697" y2="346.022"/>
</g>
<g stroke="black" stroke-width="1" fill="none">
<line x1="199.815" y1="346.022" x2="200.815" y2="346.022"/>
</g>
<g stroke="black" stroke-width="1" fill="none">
<line x1="214.933" y1="346.022" x2="215.933" y2="346.022"/>
</g>
<g stroke="black" stroke-width="1" fill="none">
<line x1="230.051" y1="346.022" x2="231.051" y2="346.022"/>
</g>
<path d="M246.169,334.989v -26.6363" fill="none" stroke="#817066"/>
<path d="M246.169,308.353v -26.6363" fill="none" stroke="#817066"/>
<path d="M238.61,308.353h 7.55905" fill="none" stroke="#817066"/>
<path d="M246.169,308.353h 7.55905" fill="none" stroke="#817066"/>
<g stroke="black" stroke-width="1" fill="none">
<line x1="245.169" y1="308.353" x2="246.169" y2="308.353"/>
</g>
<path d="M261.287,169.081v -67.9095" fill="none" stroke="#817066"/>
<path d="M261.287,101.171v -62.7241" fill="none" stroke="#817066"/>
<path d="M253.728,101.171h 7.55905" fill="none" stroke="#817066"/>
<path d="M261.287,101.171h 7.55905" fill="none" stroke="#817066"/>
<g stroke="black" stroke-width="1" fill="none">
<line x1="260.287" y1="101.171" x2="261.287" y2="101.171"/>
</g>
<path d="M276.406,152.809v -70.473" fill="none" stroke="#817066"/>
<path d="M276.406,82.3363v -43.8894" fill="none" stroke="#817066"/>
<path d="M268.846,82.3363h 7.55905" fill="none" stroke="#817066"/>
<path d="M276.406,82.3363h 7.55905" fill="none" stroke="#817066"/>
<g stroke="black" stroke-width="1" fill="none">
<line x1="275.406" y1="82.3363" x2="276.406" y2="82.3363"/>
</g>
<path d="M291.524,201.308v -62.4677" fill="none" stroke="#817066"/>
<path d="M291.524,138.84v -62.4677" fill="none" stroke="#817066"/>
<path d="M283.965,138.84h 7.55905" fill="none" stroke="#817066"/>
<path d="M291.524,138.84h 7.55905" fill="none" stroke="#817066"/>
<g stroke="black" stroke-width="1" fill="none">
<line x1="290.524" y1="138.84" x2="291.524" y2="138.84"/>
</g>
<path d="M306.642,308.353v -37.6694" fill="none" stroke="#817066"/>
<path d="M306.642,270.683v -37.6694" fill="none" stroke="#817066"/>
<path d="M299.083,270.683h 7.55905" fill="none" stroke="#817066"/>
<path d="M306.642,270.683h 7.55905" fill="none" stroke="#817066"/>
<g stroke="black" stroke-width="1" fill="none">
<line x1="305.642" y1="270.683" x2="306.642" y2="270.683"/>
</g>
<g stroke="black" stroke-width="1" fill="none">
<line x1="320.76" y1="346.022" x2="321.76" y2="346.022"/>
</g>
<g stroke="black" stroke-width="1" fill="none">
<line x1="335.878" y1="346.022" x2="336.878" y2="346.022"/>
</g>
<g stroke="black" stroke-width="1" fill="none">
<line x1="350.996" y1="346.022" x2="351.996" y2="346.022"/>
</g>
<g stroke="black" stroke-width="1" fill="none">
<line x1="366.114" y1="346.022" x2="367.114" y2="346.022"/>
</g>
<g stroke="black" stroke-width="1" fill="none">
<line x1="381.232" y1="346.022" x2="382.232" y2="346.022"/>
</g>
<g stroke="black" stroke-width="1" fill="none">
<line x1="396.35" y1="346.022" x2="397.35" y2="346.022"/>
</g>
<g stroke="black" stroke-width="1" fill="none">
<line x1="411.469" y1="346.022" x2="412.469" y2="346.022"/>
</g>
<g stroke="black" stroke-width="1" fill="none">
<line x1="426.587" y1="346.022" x2="427.587" y2="346.022"/>
</g>
<g stroke="black" stroke-width="1" fill="none">
<line x1="441.705" y1="346.022" x2="442.705" y2="346.022"/>
</g>
<g stroke="black" stroke-width="1" fill="none">
<line x1="456.823" y1="346.022" x2="457.823" y2="346.022"/>
</g>
<g stroke="black" stroke-width="1" fill="none">
<line x1="471.941" y1="346.022" x2="472.941" y2="346.022"/>
</g>
<g stroke="black" stroke-width="1" fill="none">
<line x1="487.059" y1="346.022" x2="488.059" y2="346.022"/>
</g>
<g stroke="black" stroke-width="1" fill="none">
<line x1="502.177" y1="346.022" x2="503.177" y2="346.022"/>
</g>
<path d="M59.4606,346.022h 145.134l 4.53543, -0.0741974l 4.53543, -0.139765l 4.53543, -0.359944l 4.53543, -0.857948l 4.53543, -1.891l 4.53543, -3.84978l 4.53543, -7.22865l 4.53543, -12.4941l 4.53543, -19.8253l 4.53543, -28.7704l 4.53543, -37.9674l
 4.53543, -45.1524l 4.53543, -47.6343l 4.53543, -43.2081l 4.53543, -31.1866l 4.53543, -13.0333l 4.53543, 7.82604" fill="none" stroke="#817066" stroke-width="2"/>
<path d="M281.697,60.1751l 4.53543, 27.0508l 4.53543, 40.8562l 4.53543, 47.2254l 4.53543, 46.3322l 4.53543, 40.0874l 4.53543, 31.1577l 4.53543, 21.9806l 4.53543, 14.1642l 4.53543, 8.37232l 4.53543, 4.5527l 4.53543, 2.28231l 4.53543, 1.05645l 4.53543,
 0.452079l 4.53543, 0.179011l 4.53543, 0.0656408l 4.53543, 0.0321178h 149.669" fill="none" stroke="#817066" stroke-width="2"/>
<path d="M503.933,346.022h 4.53543" fill="none" stroke="#817066" stroke-width="2"/>
<rect x="351.996" y="24.9905" width="204.094" height="76.8938" fill="white"/>
<path d="M351.996,101.884h 204.094" fill="none" stroke="black"/>
<path d="M556.091,101.884v -76.8938" fill="none" stroke="black"/>
<path d="M556.091,24.9905h -204.094" fill="none" stroke="black"/>
<path d="M351.996,24.9905v 76.8938" fill="none" stroke="black"/>
<text xml:space="preserve" x="377.638" y="39.0986" fill="black" font-size="16.7253" font-family="Helvetica"> / ndf </text>
<text xml:space="preserve" x="371.122" y="34.2112" fill="black" font-size="11.3169" font-family="Helvetica">2</text>
<text xml:space="preserve" x="362.162" y="39.0986" fill="black" font-size="16.7253" font-family="Times">&#0967;</text>
<text xml:space="preserve" x="477.828" y="40.7277" fill="black" font-size="16.7253" font-family="Helvetica"> 1.306 / 2</text>
<text xml:space="preserve" x="362.162" y="60.2769" fill="black" font-size="16.7253" font-family="Helvetica">Constant </text>
<text xml:space="preserve" x="518.556" y="60.2769" fill="black" font-size="16.7253" font-family="Helvetica"> 3.0</text>
<text xml:space="preserve" x="509.596" y="60.2769" fill="black" font-size="16.7253" font-family="Times">&#0177;</text>
<text xml:space="preserve" x="463.166" y="60.2769" fill="black" font-size="16.7253" font-family="Helvetica">  15.6 </text>
<text xml:space="preserve" x="362.162" y="79.0117" fill="black" font-size="16.7253" font-family="Helvetica">Mean     </text>
<text xml:space="preserve" x="518.556" y="79.0117" fill="black" font-size="16.7253" font-family="Helvetica"> 3.8</text>
<text xml:space="preserve" x="509.596" y="79.0117" fill="black" font-size="16.7253" font-family="Times">&#0177;</text>
<text xml:space="preserve" x="459.094" y="79.0117" fill="black" font-size="16.7253" font-family="Helvetica"> 291.8 </text>
<text xml:space="preserve" x="362.162" y="96.9318" fill="black" font-size="16.7253" font-family="Helvetica">Sigma    </text>
<text xml:space="preserve" x="518.556" y="98.561" fill="black" font-size="16.7253" font-family="Helvetica"> 3.0</text>
<text xml:space="preserve" x="509.596" y="98.561" fill="black" font-size="16.7253" font-family="Times">&#0177;</text>
<text xml:space="preserve" x="463.166" y="98.561" fill="black" font-size="16.7253" font-family="Helvetica">  22.3 </text>
<text xml:space="preserve" x="199.251" y="17.9202" fill="black" font-size="18.7938" font-family="Helvetica">sector 16, vop 69.23</text></svg>
