<?xml version="1.0" standalone="no"?>
<svg width="567.429" height="384.969" viewBox="0 0 567.429 384.969" xmlns="http://www.w3.org/2000/svg" shape-rendering="crispEdges">
<title>
./adjusted_vop/sector_by_vop/sector-16_all.svg
</title>
<desc>
Creator: ROOT Version 6.24/00
CreationDate: Mon Aug  2 10:23:06 2021</desc>
<defs>
</defs>
<rect x="0.5" y="0" width="566.929" height="384.469" fill="white"/>
<rect x="57.1929" y="38.4469" width="453.543" height="307.575" fill="white"/>
<rect x="57.1929" y="38.4469" width="453.543" height="307.575" fill="none" stroke="black"/>
<path d="M57.1929,346.022h 453.543" fill="none" stroke="#000099"/>
<path d="M57.1929,346.022h 453.543" fill="none" stroke="black"/>
<path d="M57.1929,336.795v 9.22726" fill="none" stroke="black"/>
<path d="M72.311,341.409v 4.61363" fill="none" stroke="black"/>
<path d="M87.4291,341.409v 4.61363" fill="none" stroke="black"/>
<path d="M102.547,341.409v 4.61363" fill="none" stroke="black"/>
<path d="M117.665,341.409v 4.61363" fill="none" stroke="black"/>
<path d="M132.783,336.795v 9.22726" fill="none" stroke="black"/>
<path d="M147.902,341.409v 4.61363" fill="none" stroke="black"/>
<path d="M163.02,341.409v 4.61363" fill="none" stroke="black"/>
<path d="M178.138,341.409v 4.61363" fill="none" stroke="black"/>
<path d="M193.256,341.409v 4.61363" fill="none" stroke="black"/>
<path d="M208.374,336.795v 9.22726" fill="none" stroke="black"/>
<path d="M223.492,341.409v 4.61363" fill="none" stroke="black"/>
<path d="M238.61,341.409v 4.61363" fill="none" stroke="black"/>
<path d="M253.728,341.409v 4.61363" fill="none" stroke="black"/>
<path d="M268.846,341.409v 4.61363" fill="none" stroke="black"/>
<path d="M283.965,336.795v 9.22726" fill="none" stroke="black"/>
<path d="M299.083,341.409v 4.61363" fill="none" stroke="black"/>
<path d="M314.201,341.409v 4.61363" fill="none" stroke="black"/>
<path d="M329.319,341.409v 4.61363" fill="none" stroke="black"/>
<path d="M344.437,341.409v 4.61363" fill="none" stroke="black"/>
<path d="M359.555,336.795v 9.22726" fill="none" stroke="black"/>
<path d="M374.673,341.409v 4.61363" fill="none" stroke="black"/>
<path d="M389.791,341.409v 4.61363" fill="none" stroke="black"/>
<path d="M404.909,341.409v 4.61363" fill="none" stroke="black"/>
<path d="M420.028,341.409v 4.61363" fill="none" stroke="black"/>
<path d="M435.146,336.795v 9.22726" fill="none" stroke="black"/>
<path d="M450.264,341.409v 4.61363" fill="none" stroke="black"/>
<path d="M465.382,341.409v 4.61363" fill="none" stroke="black"/>
<path d="M480.5,341.409v 4.61363" fill="none" stroke="black"/>
<path d="M495.618,341.409v 4.61363" fill="none" stroke="black"/>
<path d="M510.736,336.795v 9.22726" fill="none" stroke="black"/>
<text xml:space="preserve" x="53.446" y="358.403" fill="black" font-size="12.8453" font-family="Helvetica">0</text>
<text xml:space="preserve" x="121.868" y="358.403" fill="black" font-size="12.8453" font-family="Helvetica">100</text>
<text xml:space="preserve" x="197.622" y="358.403" fill="black" font-size="12.8453" font-family="Helvetica">200</text>
<text xml:space="preserve" x="273.375" y="358.403" fill="black" font-size="12.8453" font-family="Helvetica">300</text>
<text xml:space="preserve" x="348.314" y="358.403" fill="black" font-size="12.8453" font-family="Helvetica">400</text>
<text xml:space="preserve" x="424.068" y="358.403" fill="black" font-size="12.8453" font-family="Helvetica">500</text>
<text xml:space="preserve" x="499.821" y="358.403" fill="black" font-size="12.8453" font-family="Helvetica">600</text>
<text xml:space="preserve" x="486.788" y="369.807" fill="black" font-size="12.8453" font-family="Helvetica">mpv</text>
<path d="M57.1929,346.022v -307.575" fill="none" stroke="black"/>
<path d="M70.7992,346.022h -13.6063" fill="none" stroke="black"/>
<path d="M63.9961,338.314h -6.80315" fill="none" stroke="black"/>
<path d="M63.9961,330.605h -6.80315" fill="none" stroke="black"/>
<path d="M63.9961,322.896h -6.80315" fill="none" stroke="black"/>
<path d="M70.7992,315.188h -13.6063" fill="none" stroke="black"/>
<path d="M63.9961,307.479h -6.80315" fill="none" stroke="black"/>
<path d="M63.9961,299.77h -6.80315" fill="none" stroke="black"/>
<path d="M63.9961,292.062h -6.80315" fill="none" stroke="black"/>
<path d="M70.7992,284.353h -13.6063" fill="none" stroke="black"/>
<path d="M63.9961,276.644h -6.80315" fill="none" stroke="black"/>
<path d="M63.9961,268.936h -6.80315" fill="none" stroke="black"/>
<path d="M63.9961,261.227h -6.80315" fill="none" stroke="black"/>
<path d="M70.7992,253.518h -13.6063" fill="none" stroke="black"/>
<path d="M63.9961,245.81h -6.80315" fill="none" stroke="black"/>
<path d="M63.9961,238.101h -6.80315" fill="none" stroke="black"/>
<path d="M63.9961,230.392h -6.80315" fill="none" stroke="black"/>
<path d="M70.7992,222.684h -13.6063" fill="none" stroke="black"/>
<path d="M63.9961,214.975h -6.80315" fill="none" stroke="black"/>
<path d="M63.9961,207.266h -6.80315" fill="none" stroke="black"/>
<path d="M63.9961,199.558h -6.80315" fill="none" stroke="black"/>
<path d="M70.7992,191.849h -13.6063" fill="none" stroke="black"/>
<path d="M63.9961,184.141h -6.80315" fill="none" stroke="black"/>
<path d="M63.9961,176.432h -6.80315" fill="none" stroke="black"/>
<path d="M63.9961,168.723h -6.80315" fill="none" stroke="black"/>
<path d="M70.7992,161.015h -13.6063" fill="none" stroke="black"/>
<path d="M63.9961,153.306h -6.80315" fill="none" stroke="black"/>
<path d="M63.9961,145.597h -6.80315" fill="none" stroke="black"/>
<path d="M63.9961,137.889h -6.80315" fill="none" stroke="black"/>
<path d="M70.7992,130.18h -13.6063" fill="none" stroke="black"/>
<path d="M63.9961,122.471h -6.80315" fill="none" stroke="black"/>
<path d="M63.9961,114.763h -6.80315" fill="none" stroke="black"/>
<path d="M63.9961,107.054h -6.80315" fill="none" stroke="black"/>
<path d="M70.7992,99.3453h -13.6063" fill="none" stroke="black"/>
<path d="M63.9961,91.6366h -6.80315" fill="none" stroke="black"/>
<path d="M63.9961,83.928h -6.80315" fill="none" stroke="black"/>
<path d="M63.9961,76.2193h -6.80315" fill="none" stroke="black"/>
<path d="M70.7992,68.5107h -13.6063" fill="none" stroke="black"/>
<path d="M70.7992,68.5107h -13.6063" fill="none" stroke="black"/>
<path d="M63.9961,60.802h -6.80315" fill="none" stroke="black"/>
<path d="M63.9961,53.0934h -6.80315" fill="none" stroke="black"/>
<path d="M63.9961,45.3847h -6.80315" fill="none" stroke="black"/>
<text xml:space="preserve" x="47.7441" y="350.258" fill="black" font-size="12.8453" font-family="Helvetica">0</text>
<text xml:space="preserve" x="47.7441" y="319.305" fill="black" font-size="12.8453" font-family="Helvetica">2</text>
<text xml:space="preserve" x="47.7441" y="289.166" fill="black" font-size="12.8453" font-family="Helvetica">4</text>
<text xml:space="preserve" x="47.7441" y="258.213" fill="black" font-size="12.8453" font-family="Helvetica">6</text>
<text xml:space="preserve" x="47.7441" y="227.26" fill="black" font-size="12.8453" font-family="Helvetica">8</text>
<text xml:space="preserve" x="41.2277" y="196.307" fill="black" font-size="12.8453" font-family="Helvetica">10</text>
<text xml:space="preserve" x="40.4131" y="165.354" fill="black" font-size="12.8453" font-family="Helvetica">12</text>
<text xml:space="preserve" x="40.4131" y="134.401" fill="black" font-size="12.8453" font-family="Helvetica">14</text>
<text xml:space="preserve" x="40.4131" y="103.448" fill="black" font-size="12.8453" font-family="Helvetica">16</text>
<text xml:space="preserve" x="40.4131" y="73.3098" fill="black" font-size="12.8453" font-family="Helvetica">18</text>
<g transform="rotate(-90,27.3803,86.3427)">
<text xml:space="preserve" x="27.3803" y="86.3427" fill="black" font-size="12.8453" font-family="Helvetica">n_blocks</text>
</g>
<text xml:space="preserve" x="248.939" y="18.7347" fill="black" font-size="16.9898" font-family="Helvetica">sector 16</text>
<rect x="57.6465" y="346.022" width="7.10551" height="0" fill="#ffb300" fill-opacity="0.50" stroke-opacity="0.50"/>
<rect x="72.7646" y="346.022" width="7.10551" height="0" fill="#ffb300" fill-opacity="0.50" stroke-opacity="0.50"/>
<rect x="87.8827" y="346.022" width="7.10551" height="0" fill="#ffb300" fill-opacity="0.50" stroke-opacity="0.50"/>
<rect x="103.001" y="346.022" width="7.10551" height="0" fill="#ffb300" fill-opacity="0.50" stroke-opacity="0.50"/>
<rect x="118.119" y="346.022" width="7.10551" height="0" fill="#ffb300" fill-opacity="0.50" stroke-opacity="0.50"/>
<rect x="133.237" y="346.022" width="7.10551" height="0" fill="#ffb300" fill-opacity="0.50" stroke-opacity="0.50"/>
<rect x="148.355" y="346.022" width="7.10551" height="0" fill="#ffb300" fill-opacity="0.50" stroke-opacity="0.50"/>
<rect x="163.473" y="346.022" width="7.10551" height="0" fill="#ffb300" fill-opacity="0.50" stroke-opacity="0.50"/>
<rect x="178.591" y="346.022" width="7.10551" height="0" fill="#ffb300" fill-opacity="0.50" stroke-opacity="0.50"/>
<rect x="193.709" y="346.022" width="7.10551" height="0" fill="#ffb300" fill-opacity="0.50" stroke-opacity="0.50"/>
<rect x="208.828" y="346.022" width="7.10551" height="0" fill="#ffb300" fill-opacity="0.50" stroke-opacity="0.50"/>
<rect x="223.946" y="346.022" width="7.10551" height="0" fill="#ffb300" fill-opacity="0.50" stroke-opacity="0.50"/>
<rect x="239.064" y="346.022" width="7.10551" height="0" fill="#ffb300" fill-opacity="0.50" stroke-opacity="0.50"/>
<rect x="254.182" y="330.605" width="7.10551" height="15.4173" fill="#ffb300" fill-opacity="0.50" stroke-opacity="0.50"/>
<rect x="269.3" y="330.605" width="7.10551" height="15.4173" fill="#ffb300" fill-opacity="0.50" stroke-opacity="0.50"/>
<rect x="284.418" y="330.605" width="7.10551" height="15.4173" fill="#ffb300" fill-opacity="0.50" stroke-opacity="0.50"/>
<rect x="299.536" y="346.022" width="7.10551" height="0" fill="#ffb300" fill-opacity="0.50" stroke-opacity="0.50"/>
<rect x="314.654" y="346.022" width="7.10551" height="0" fill="#ffb300" fill-opacity="0.50" stroke-opacity="0.50"/>
<rect x="329.772" y="346.022" width="7.10551" height="0" fill="#ffb300" fill-opacity="0.50" stroke-opacity="0.50"/>
<rect x="344.891" y="346.022" width="7.10551" height="0" fill="#ffb300" fill-opacity="0.50" stroke-opacity="0.50"/>
<rect x="360.009" y="346.022" width="7.10551" height="0" fill="#ffb300" fill-opacity="0.50" stroke-opacity="0.50"/>
<rect x="375.127" y="346.022" width="7.10551" height="0" fill="#ffb300" fill-opacity="0.50" stroke-opacity="0.50"/>
<rect x="390.245" y="346.022" width="7.10551" height="0" fill="#ffb300" fill-opacity="0.50" stroke-opacity="0.50"/>
<rect x="405.363" y="346.022" width="7.10551" height="0" fill="#ffb300" fill-opacity="0.50" stroke-opacity="0.50"/>
<rect x="420.481" y="346.022" width="7.10551" height="0" fill="#ffb300" fill-opacity="0.50" stroke-opacity="0.50"/>
<rect x="435.599" y="346.022" width="7.10551" height="0" fill="#ffb300" fill-opacity="0.50" stroke-opacity="0.50"/>
<rect x="450.717" y="346.022" width="7.10551" height="0" fill="#ffb300" fill-opacity="0.50" stroke-opacity="0.50"/>
<rect x="465.835" y="346.022" width="7.10551" height="0" fill="#ffb300" fill-opacity="0.50" stroke-opacity="0.50"/>
<rect x="480.954" y="346.022" width="7.10551" height="0" fill="#ffb300" fill-opacity="0.50" stroke-opacity="0.50"/>
<rect x="496.072" y="346.022" width="7.10551" height="0" fill="#ffb300" fill-opacity="0.50" stroke-opacity="0.50"/>
<path d="M59.4606,342.72l 4.53543, -0.218118l 4.53543, -0.227455l 4.53543, -0.236761l 4.53543, -0.245995l 4.53543, -0.255115l 4.53543, -0.264075l 4.53543, -0.272828l 4.53543, -0.281326l 4.53543, -0.289519l 4.53543, -0.297356l 4.53543, -0.304785l
 4.53543, -0.311754l 4.53543, -0.318211l 4.53543, -0.324104l 4.53543, -0.32938l 4.53543, -0.333989l 4.53543, -0.337882l 4.53543, -0.341011l 4.53543, -0.343332l 4.53543, -0.3448l 4.53543, -0.345376l 4.53543, -0.345023l 4.53543, -0.343709l 4.53543,
 -0.341406l 4.53543, -0.338087l 4.53543, -0.333735l 4.53543, -0.328335l 4.53543, -0.321877l 4.53543, -0.314358l 4.53543, -0.30578l 4.53543, -0.296151l 4.53543, -0.285484l 4.53543, -0.2738l 4.53543, -0.261124l 4.53543, -0.247488l 4.53543, -0.23293l
 4.53543, -0.217493l 4.53543, -0.201226l 4.53543, -0.184183l 4.53543, -0.166423l 4.53543, -0.148011l 4.53543, -0.129013l 4.53543, -0.109502l 4.53543, -0.0895531l 4.53543, -0.0692447l 4.53543, -0.0486572l 4.53543, -0.027873l 4.53543, -0.00697611l
 4.53543, 0.0139491" fill="none" stroke="#ffb300" stroke-width="2"/>
<path d="M281.697,330.543l 4.53543, 0.0348178l 4.53543, 0.0555456l 4.53543, 0.0760492l 4.53543, 0.0962466l 4.53543, 0.116058l 4.53543, 0.135406l 4.53543, 0.154217l 4.53543, 0.172419l 4.53543, 0.189947l 4.53543, 0.206737l 4.53543, 0.222733l 4.53543,
 0.237882l 4.53543, 0.252138l 4.53543, 0.265457l 4.53543, 0.277806l 4.53543, 0.289154l 4.53543, 0.299476l 4.53543, 0.308757l 4.53543, 0.316982l 4.53543, 0.324148l 4.53543, 0.330252l 4.53543, 0.335302l 4.53543, 0.339307l 4.53543, 0.342285l 4.53543,
 0.344256l 4.53543, 0.345246l 4.53543, 0.345285l 4.53543, 0.344407l 4.53543, 0.342651l 4.53543, 0.340056l 4.53543, 0.336667l 4.53543, 0.33253l 4.53543, 0.327693l 4.53543, 0.322205l 4.53543, 0.316119l 4.53543, 0.309486l 4.53543, 0.302357l 4.53543,
 0.294786l 4.53543, 0.286825l 4.53543, 0.278525l 4.53543, 0.269936l 4.53543, 0.261109l 4.53543, 0.25209l 4.53543, 0.242928l 4.53543, 0.233665l 4.53543, 0.224344l 4.53543, 0.215005l 4.53543, 0.205687l 4.53543, 0.196423" fill="none" stroke="#ffb300"
 stroke-width="2"/>
<path d="M503.933,343.192l 4.53543, 0.187248" fill="none" stroke="#ffb300" stroke-width="2"/>
<rect x="64.752" y="346.022" width="7.10551" height="0" fill="#817066" fill-opacity="0.50" stroke-opacity="0.50"/>
<rect x="79.8701" y="346.022" width="7.10551" height="0" fill="#817066" fill-opacity="0.50" stroke-opacity="0.50"/>
<rect x="94.9882" y="346.022" width="7.10551" height="0" fill="#817066" fill-opacity="0.50" stroke-opacity="0.50"/>
<rect x="110.106" y="346.022" width="7.10551" height="0" fill="#817066" fill-opacity="0.50" stroke-opacity="0.50"/>
<rect x="125.224" y="346.022" width="7.10551" height="0" fill="#817066" fill-opacity="0.50" stroke-opacity="0.50"/>
<rect x="140.343" y="346.022" width="7.10551" height="0" fill="#817066" fill-opacity="0.50" stroke-opacity="0.50"/>
<rect x="155.461" y="346.022" width="7.10551" height="0" fill="#817066" fill-opacity="0.50" stroke-opacity="0.50"/>
<rect x="170.579" y="346.022" width="7.10551" height="0" fill="#817066" fill-opacity="0.50" stroke-opacity="0.50"/>
<rect x="185.697" y="346.022" width="7.10551" height="0" fill="#817066" fill-opacity="0.50" stroke-opacity="0.50"/>
<rect x="200.815" y="346.022" width="7.10551" height="0" fill="#817066" fill-opacity="0.50" stroke-opacity="0.50"/>
<rect x="215.933" y="346.022" width="7.10551" height="0" fill="#817066" fill-opacity="0.50" stroke-opacity="0.50"/>
<rect x="231.051" y="346.022" width="7.10551" height="0" fill="#817066" fill-opacity="0.50" stroke-opacity="0.50"/>
<rect x="246.169" y="346.022" width="7.10551" height="0" fill="#817066" fill-opacity="0.50" stroke-opacity="0.50"/>
<rect x="261.287" y="268.936" width="7.10551" height="77.0865" fill="#817066" fill-opacity="0.50" stroke-opacity="0.50"/>
<rect x="276.406" y="99.3453" width="7.10551" height="246.677" fill="#817066" fill-opacity="0.50" stroke-opacity="0.50"/>
<rect x="291.524" y="53.0934" width="7.10551" height="292.929" fill="#817066" fill-opacity="0.50" stroke-opacity="0.50"/>
<rect x="306.642" y="207.266" width="7.10551" height="138.756" fill="#817066" fill-opacity="0.50" stroke-opacity="0.50"/>
<rect x="321.76" y="238.101" width="7.10551" height="107.921" fill="#817066" fill-opacity="0.50" stroke-opacity="0.50"/>
<rect x="336.878" y="315.188" width="7.10551" height="30.8346" fill="#817066" fill-opacity="0.50" stroke-opacity="0.50"/>
<rect x="351.996" y="346.022" width="7.10551" height="0" fill="#817066" fill-opacity="0.50" stroke-opacity="0.50"/>
<rect x="367.114" y="346.022" width="7.10551" height="0" fill="#817066" fill-opacity="0.50" stroke-opacity="0.50"/>
<rect x="382.232" y="346.022" width="7.10551" height="0" fill="#817066" fill-opacity="0.50" stroke-opacity="0.50"/>
<rect x="397.35" y="346.022" width="7.10551" height="0" fill="#817066" fill-opacity="0.50" stroke-opacity="0.50"/>
<rect x="412.469" y="346.022" width="7.10551" height="0" fill="#817066" fill-opacity="0.50" stroke-opacity="0.50"/>
<rect x="427.587" y="346.022" width="7.10551" height="0" fill="#817066" fill-opacity="0.50" stroke-opacity="0.50"/>
<rect x="442.705" y="346.022" width="7.10551" height="0" fill="#817066" fill-opacity="0.50" stroke-opacity="0.50"/>
<rect x="457.823" y="346.022" width="7.10551" height="0" fill="#817066" fill-opacity="0.50" stroke-opacity="0.50"/>
<rect x="472.941" y="346.022" width="7.10551" height="0" fill="#817066" fill-opacity="0.50" stroke-opacity="0.50"/>
<rect x="488.059" y="346.022" width="7.10551" height="0" fill="#817066" fill-opacity="0.50" stroke-opacity="0.50"/>
<rect x="503.177" y="346.022" width="7.10551" height="0" fill="#817066" fill-opacity="0.50" stroke-opacity="0.50"/>
<path d="M59.4606,346.022h 140.598l 4.53543, -0.0573065l 4.53543, -0.0786172l 4.53543, -0.171718l 4.53543, -0.356797l 4.53543, -0.70494l 4.53543, -1.32371l 4.53543, -2.36094l 4.53543, -3.99669l 4.53543, -6.41562l 4.53543, -9.754l 4.53543, -14.0237l
 4.53543, -19.0273l 4.53543, -24.2935l 4.53543, -29.0686l 4.53543, -32.3965l 4.53543, -33.2951l 4.53543, -31.0023l 4.53543, -25.2236" fill="none" stroke="#817066" stroke-width="2"/>
<path d="M281.697,112.471l 4.53543, -16.2971l 4.53543, -5.20423l 4.53543, 6.60087l 4.53543, 17.5042l 4.53543, 26.0939l 4.53543, 31.46l 4.53543, 33.3441l 4.53543, 32.1078l 4.53543, 28.5535l 4.53543, 23.6719l 4.53543, 18.4026l 4.53543, 13.4678l
 4.53543, 9.30401l 4.53543, 6.07954l 4.53543, 3.7631l 4.53543, 2.209l 4.53543, 1.23088l 4.53543, 0.651504l 4.53543, 0.327761l 4.53543, 0.156801l 4.53543, 0.0713613l 4.53543, 0.0515167h 122.457" fill="none" stroke="#817066" stroke-width="2"/>
<path d="M503.933,346.022h 4.53543" fill="none" stroke="#817066" stroke-width="2"/>
<path d="M57.1929,346.022h 453.543" fill="none" stroke="black"/>
<path d="M57.1929,336.795v 9.22726" fill="none" stroke="black"/>
<path d="M72.311,341.409v 4.61363" fill="none" stroke="black"/>
<path d="M87.4291,341.409v 4.61363" fill="none" stroke="black"/>
<path d="M102.547,341.409v 4.61363" fill="none" stroke="black"/>
<path d="M117.665,341.409v 4.61363" fill="none" stroke="black"/>
<path d="M132.783,336.795v 9.22726" fill="none" stroke="black"/>
<path d="M147.902,341.409v 4.61363" fill="none" stroke="black"/>
<path d="M163.02,341.409v 4.61363" fill="none" stroke="black"/>
<path d="M178.138,341.409v 4.61363" fill="none" stroke="black"/>
<path d="M193.256,341.409v 4.61363" fill="none" stroke="black"/>
<path d="M208.374,336.795v 9.22726" fill="none" stroke="black"/>
<path d="M223.492,341.409v 4.61363" fill="none" stroke="black"/>
<path d="M238.61,341.409v 4.61363" fill="none" stroke="black"/>
<path d="M253.728,341.409v 4.61363" fill="none" stroke="black"/>
<path d="M268.846,341.409v 4.61363" fill="none" stroke="black"/>
<path d="M283.965,336.795v 9.22726" fill="none" stroke="black"/>
<path d="M299.083,341.409v 4.61363" fill="none" stroke="black"/>
<path d="M314.201,341.409v 4.61363" fill="none" stroke="black"/>
<path d="M329.319,341.409v 4.61363" fill="none" stroke="black"/>
<path d="M344.437,341.409v 4.61363" fill="none" stroke="black"/>
<path d="M359.555,336.795v 9.22726" fill="none" stroke="black"/>
<path d="M374.673,341.409v 4.61363" fill="none" stroke="black"/>
<path d="M389.791,341.409v 4.61363" fill="none" stroke="black"/>
<path d="M404.909,341.409v 4.61363" fill="none" stroke="black"/>
<path d="M420.028,341.409v 4.61363" fill="none" stroke="black"/>
<path d="M435.146,336.795v 9.22726" fill="none" stroke="black"/>
<path d="M450.264,341.409v 4.61363" fill="none" stroke="black"/>
<path d="M465.382,341.409v 4.61363" fill="none" stroke="black"/>
<path d="M480.5,341.409v 4.61363" fill="none" stroke="black"/>
<path d="M495.618,341.409v 4.61363" fill="none" stroke="black"/>
<path d="M510.736,336.795v 9.22726" fill="none" stroke="black"/>
<path d="M57.1929,346.022v -307.575" fill="none" stroke="black"/>
<path d="M70.7992,346.022h -13.6063" fill="none" stroke="black"/>
<path d="M63.9961,338.314h -6.80315" fill="none" stroke="black"/>
<path d="M63.9961,330.605h -6.80315" fill="none" stroke="black"/>
<path d="M63.9961,322.896h -6.80315" fill="none" stroke="black"/>
<path d="M70.7992,315.188h -13.6063" fill="none" stroke="black"/>
<path d="M63.9961,307.479h -6.80315" fill="none" stroke="black"/>
<path d="M63.9961,299.77h -6.80315" fill="none" stroke="black"/>
<path d="M63.9961,292.062h -6.80315" fill="none" stroke="black"/>
<path d="M70.7992,284.353h -13.6063" fill="none" stroke="black"/>
<path d="M63.9961,276.644h -6.80315" fill="none" stroke="black"/>
<path d="M63.9961,268.936h -6.80315" fill="none" stroke="black"/>
<path d="M63.9961,261.227h -6.80315" fill="none" stroke="black"/>
<path d="M70.7992,253.518h -13.6063" fill="none" stroke="black"/>
<path d="M63.9961,245.81h -6.80315" fill="none" stroke="black"/>
<path d="M63.9961,238.101h -6.80315" fill="none" stroke="black"/>
<path d="M63.9961,230.392h -6.80315" fill="none" stroke="black"/>
<path d="M70.7992,222.684h -13.6063" fill="none" stroke="black"/>
<path d="M63.9961,214.975h -6.80315" fill="none" stroke="black"/>
<path d="M63.9961,207.266h -6.80315" fill="none" stroke="black"/>
<path d="M63.9961,199.558h -6.80315" fill="none" stroke="black"/>
<path d="M70.7992,191.849h -13.6063" fill="none" stroke="black"/>
<path d="M63.9961,184.141h -6.80315" fill="none" stroke="black"/>
<path d="M63.9961,176.432h -6.80315" fill="none" stroke="black"/>
<path d="M63.9961,168.723h -6.80315" fill="none" stroke="black"/>
<path d="M70.7992,161.015h -13.6063" fill="none" stroke="black"/>
<path d="M63.9961,153.306h -6.80315" fill="none" stroke="black"/>
<path d="M63.9961,145.597h -6.80315" fill="none" stroke="black"/>
<path d="M63.9961,137.889h -6.80315" fill="none" stroke="black"/>
<path d="M70.7992,130.18h -13.6063" fill="none" stroke="black"/>
<path d="M63.9961,122.471h -6.80315" fill="none" stroke="black"/>
<path d="M63.9961,114.763h -6.80315" fill="none" stroke="black"/>
<path d="M63.9961,107.054h -6.80315" fill="none" stroke="black"/>
<path d="M70.7992,99.3453h -13.6063" fill="none" stroke="black"/>
<path d="M63.9961,91.6366h -6.80315" fill="none" stroke="black"/>
<path d="M63.9961,83.928h -6.80315" fill="none" stroke="black"/>
<path d="M63.9961,76.2193h -6.80315" fill="none" stroke="black"/>
<path d="M70.7992,68.5107h -13.6063" fill="none" stroke="black"/>
<path d="M70.7992,68.5107h -13.6063" fill="none" stroke="black"/>
<path d="M63.9961,60.802h -6.80315" fill="none" stroke="black"/>
<path d="M63.9961,53.0934h -6.80315" fill="none" stroke="black"/>
<path d="M63.9961,45.3847h -6.80315" fill="none" stroke="black"/>
<rect x="58.0145" y="262.83" width="170.079" height="80.7385" fill="white"/>
<path d="M58.0145,343.568h 170.079" fill="none" stroke="black"/>
<path d="M228.093,343.568v -80.7385" fill="none" stroke="black"/>
<path d="M228.093,262.83h -170.079" fill="none" stroke="black"/>
<path d="M58.0145,262.83v 80.7385" fill="none" stroke="black"/>
<text xml:space="preserve" x="99.8755" y="291.61" fill="black" font-size="26.0796" font-family="Helvetica">vop 68.93</text>
<path d="M64.3925,297.144h 29.7638v -28.2585h -29.7638z" fill="#ffb300" fill-opacity="0.50" stroke-opacity="0.50"/>
<path d="M64.3925,283.014h 29.7638" fill="none" stroke="#ffb300" fill-opacity="0.00" stroke-opacity="0.00"/>
<g stroke="black" stroke-width="1" fill="none">
<line x1="78.2744" y1="283.014" x2="79.2744" y2="283.014"/>
</g>
<text xml:space="preserve" x="99.8755" y="332.338" fill="black" font-size="26.0796" font-family="Helvetica">vop 69.23</text>
<path d="M64.3925,337.513h 29.7638v -28.2585h -29.7638z" fill="#817066" fill-opacity="0.50" stroke-opacity="0.50"/>
<path d="M64.3925,323.384h 29.7638" fill="none" stroke="#817066" fill-opacity="0.00" stroke-opacity="0.00"/>
<g stroke="black" stroke-width="1" fill="none">
<line x1="78.2744" y1="323.384" x2="79.2744" y2="323.384"/>
</g>
<text xml:space="preserve" x="248.939" y="18.7347" fill="black" font-size="16.9898" font-family="Helvetica">sector 16</text></svg>
