<?xml version="1.0" standalone="no"?>
<svg width="567.429" height="384.969" viewBox="0 0 567.429 384.969" xmlns="http://www.w3.org/2000/svg" shape-rendering="crispEdges">
<title>
./adjusted_vop/sector_by_vop/sector-12_vop-69.03.svg
</title>
<desc>
Creator: ROOT Version 6.22/02
CreationDate: Sat Jun 26 17:56:44 2021</desc>
<defs>
</defs>
<rect x="0.5" y="0" width="566.929" height="384.469" fill="white"/>
<rect x="57.1929" y="38.4469" width="453.543" height="307.575" fill="white"/>
<rect x="57.1929" y="38.4469" width="453.543" height="307.575" fill="none" stroke="black"/>
<path d="M57.1929,346.022h 136.063v -41.847h 15.1181v -146.464h 15.1181v 20.9235h 15.1181v -125.541h 15.1181v 209.235h 15.1181v -188.311h 15.1181v 188.311h 15.1181v -62.7705h 15.1181v 83.694h 15.1181v -41.847h 15.1181v 104.617h 166.299" fill="none"
 stroke="#ff6800"/>
<path d="M59.4606,345.939l 4.53543, -0.0326223l 4.53543, -0.044185l 4.53543, -0.0593718l 4.53543, -0.0791444l 4.53543, -0.10466l 4.53543, -0.137294l 4.53543, -0.178657l 4.53543, -0.230605l 4.53543, -0.295244l 4.53543, -0.374924l 4.53543, -0.472208l
 4.53543, -0.589838l 4.53543, -0.730666l 4.53543, -0.897567l 4.53543, -1.09333l 4.53543, -1.32051l 4.53543, -1.58126l 4.53543, -1.87717l 4.53543, -2.20903l 4.53543, -2.57664l 4.53543, -2.97857l 4.53543, -3.41201l 4.53543, -3.87253l 4.53543, -4.35402l
 4.53543, -4.84858l 4.53543, -5.34653l 4.53543, -5.83651l 4.53543, -6.30562l 4.53543, -6.73979l 4.53543, -7.12405l 4.53543, -7.44312l 4.53543, -7.68186l 4.53543, -7.82596l 4.53543, -7.86254l 4.53543, -7.7808l 4.53543, -7.57265l 4.53543, -7.23324l
 4.53543, -6.76135l 4.53543, -6.15975l 4.53543, -5.43532l 4.53543, -4.59896l 4.53543, -3.66541l 4.53543, -2.65283l 4.53543, -1.58219l 4.53543, -0.476602l 4.53543, 0.63957l 4.53543, 1.74155l 4.53543, 2.8051l 4.53543, 3.80737" fill="none"
 stroke="#ff6800" stroke-width="2"/>
<path d="M281.697,204.497l 4.53543, 4.72776l 4.53543, 5.54858l 4.53543, 6.25563l 4.53543, 6.83858l 4.53543, 7.29117l 4.53543, 7.61122l 4.53543, 7.80049l 4.53543, 7.86434l 4.53543, 7.81131l 4.53543, 7.65252l 4.53543, 7.40111l 4.53543, 7.07155l
 4.53543, 6.67903l 4.53543, 6.23884l 4.53543, 5.76582l 4.53543, 5.27391l 4.53543, 4.77578l 4.53543, 4.28257l 4.53543, 3.80369l 4.53543, 3.34679l 4.53543, 2.91773l 4.53543, 2.52068l 4.53543, 2.15824l 4.53543, 1.83165l 4.53543, 1.54095l 4.53543,
 1.28523l 4.53543, 1.06279l 4.53543, 0.871417l 4.53543, 0.708507l 4.53543, 0.571253l 4.53543, 0.456775l 4.53543, 0.362233l 4.53543, 0.284909l 4.53543, 0.222267l 4.53543, 0.171993l 4.53543, 0.132017l 4.53543, 0.100519l 4.53543, 0.0759235l 4.53543,
 0.0568891l 4.53543, 0.0422881l 4.53543, 0.0311855l 4.53543, 0.0228163l 4.53543, 0.0165616l 4.53543, 0.0400593h 22.6772" fill="none" stroke="#ff6800" stroke-width="2"/>
<path d="M503.933,346.022h 4.53543" fill="none" stroke="#ff6800" stroke-width="2"/>
<path d="M57.1929,346.022h 453.543" fill="none" stroke="black"/>
<path d="M57.1929,336.795v 9.22726" fill="none" stroke="black"/>
<path d="M72.311,341.409v 4.61363" fill="none" stroke="black"/>
<path d="M87.4291,341.409v 4.61363" fill="none" stroke="black"/>
<path d="M102.547,341.409v 4.61363" fill="none" stroke="black"/>
<path d="M117.665,341.409v 4.61363" fill="none" stroke="black"/>
<path d="M132.783,336.795v 9.22726" fill="none" stroke="black"/>
<path d="M147.902,341.409v 4.61363" fill="none" stroke="black"/>
<path d="M163.02,341.409v 4.61363" fill="none" stroke="black"/>
<path d="M178.138,341.409v 4.61363" fill="none" stroke="black"/>
<path d="M193.256,341.409v 4.61363" fill="none" stroke="black"/>
<path d="M208.374,336.795v 9.22726" fill="none" stroke="black"/>
<path d="M223.492,341.409v 4.61363" fill="none" stroke="black"/>
<path d="M238.61,341.409v 4.61363" fill="none" stroke="black"/>
<path d="M253.728,341.409v 4.61363" fill="none" stroke="black"/>
<path d="M268.846,341.409v 4.61363" fill="none" stroke="black"/>
<path d="M283.965,336.795v 9.22726" fill="none" stroke="black"/>
<path d="M299.083,341.409v 4.61363" fill="none" stroke="black"/>
<path d="M314.201,341.409v 4.61363" fill="none" stroke="black"/>
<path d="M329.319,341.409v 4.61363" fill="none" stroke="black"/>
<path d="M344.437,341.409v 4.61363" fill="none" stroke="black"/>
<path d="M359.555,336.795v 9.22726" fill="none" stroke="black"/>
<path d="M374.673,341.409v 4.61363" fill="none" stroke="black"/>
<path d="M389.791,341.409v 4.61363" fill="none" stroke="black"/>
<path d="M404.909,341.409v 4.61363" fill="none" stroke="black"/>
<path d="M420.028,341.409v 4.61363" fill="none" stroke="black"/>
<path d="M435.146,336.795v 9.22726" fill="none" stroke="black"/>
<path d="M450.264,341.409v 4.61363" fill="none" stroke="black"/>
<path d="M465.382,341.409v 4.61363" fill="none" stroke="black"/>
<path d="M480.5,341.409v 4.61363" fill="none" stroke="black"/>
<path d="M495.618,341.409v 4.61363" fill="none" stroke="black"/>
<path d="M510.736,336.795v 9.22726" fill="none" stroke="black"/>
<text xml:space="preserve" x="53.446" y="358.403" fill="black" font-size="12.8453" font-family="Helvetica">0</text>
<text xml:space="preserve" x="121.868" y="358.403" fill="black" font-size="12.8453" font-family="Helvetica">100</text>
<text xml:space="preserve" x="197.622" y="358.403" fill="black" font-size="12.8453" font-family="Helvetica">200</text>
<text xml:space="preserve" x="273.375" y="358.403" fill="black" font-size="12.8453" font-family="Helvetica">300</text>
<text xml:space="preserve" x="348.314" y="358.403" fill="black" font-size="12.8453" font-family="Helvetica">400</text>
<text xml:space="preserve" x="424.068" y="358.403" fill="black" font-size="12.8453" font-family="Helvetica">500</text>
<text xml:space="preserve" x="499.821" y="358.403" fill="black" font-size="12.8453" font-family="Helvetica">600</text>
<text xml:space="preserve" x="486.788" y="369.807" fill="black" font-size="12.8453" font-family="Helvetica">mpv</text>
<path d="M57.1929,346.022v -307.575" fill="none" stroke="black"/>
<path d="M70.7992,346.022h -13.6063" fill="none" stroke="black"/>
<path d="M63.9961,335.561h -6.80315" fill="none" stroke="black"/>
<path d="M63.9961,325.099h -6.80315" fill="none" stroke="black"/>
<path d="M63.9961,314.637h -6.80315" fill="none" stroke="black"/>
<path d="M70.7992,304.175h -13.6063" fill="none" stroke="black"/>
<path d="M63.9961,293.714h -6.80315" fill="none" stroke="black"/>
<path d="M63.9961,283.252h -6.80315" fill="none" stroke="black"/>
<path d="M63.9961,272.79h -6.80315" fill="none" stroke="black"/>
<path d="M70.7992,262.328h -13.6063" fill="none" stroke="black"/>
<path d="M63.9961,251.867h -6.80315" fill="none" stroke="black"/>
<path d="M63.9961,241.405h -6.80315" fill="none" stroke="black"/>
<path d="M63.9961,230.943h -6.80315" fill="none" stroke="black"/>
<path d="M70.7992,220.481h -13.6063" fill="none" stroke="black"/>
<path d="M63.9961,210.02h -6.80315" fill="none" stroke="black"/>
<path d="M63.9961,199.558h -6.80315" fill="none" stroke="black"/>
<path d="M63.9961,189.096h -6.80315" fill="none" stroke="black"/>
<path d="M70.7992,178.634h -13.6063" fill="none" stroke="black"/>
<path d="M63.9961,168.173h -6.80315" fill="none" stroke="black"/>
<path d="M63.9961,157.711h -6.80315" fill="none" stroke="black"/>
<path d="M63.9961,147.249h -6.80315" fill="none" stroke="black"/>
<path d="M70.7992,136.787h -13.6063" fill="none" stroke="black"/>
<path d="M63.9961,126.326h -6.80315" fill="none" stroke="black"/>
<path d="M63.9961,115.864h -6.80315" fill="none" stroke="black"/>
<path d="M63.9961,105.402h -6.80315" fill="none" stroke="black"/>
<path d="M70.7992,94.9403h -13.6063" fill="none" stroke="black"/>
<path d="M63.9961,84.4786h -6.80315" fill="none" stroke="black"/>
<path d="M63.9961,74.0169h -6.80315" fill="none" stroke="black"/>
<path d="M63.9961,63.5551h -6.80315" fill="none" stroke="black"/>
<path d="M70.7992,53.0934h -13.6063" fill="none" stroke="black"/>
<path d="M70.7992,53.0934h -13.6063" fill="none" stroke="black"/>
<path d="M63.9961,42.6316h -6.80315" fill="none" stroke="black"/>
<text xml:space="preserve" x="47.7441" y="350.258" fill="black" font-size="12.8453" font-family="Helvetica">0</text>
<text xml:space="preserve" x="47.7441" y="308.716" fill="black" font-size="12.8453" font-family="Helvetica">2</text>
<text xml:space="preserve" x="47.7441" y="267.173" fill="black" font-size="12.8453" font-family="Helvetica">4</text>
<text xml:space="preserve" x="47.7441" y="224.817" fill="black" font-size="12.8453" font-family="Helvetica">6</text>
<text xml:space="preserve" x="47.7441" y="183.275" fill="black" font-size="12.8453" font-family="Helvetica">8</text>
<text xml:space="preserve" x="41.2277" y="140.918" fill="black" font-size="12.8453" font-family="Helvetica">10</text>
<text xml:space="preserve" x="40.4131" y="99.3755" fill="black" font-size="12.8453" font-family="Helvetica">12</text>
<text xml:space="preserve" x="40.4131" y="57.8333" fill="black" font-size="12.8453" font-family="Helvetica">14</text>
<g transform="rotate(-90,27.3803,86.3427)">
<text xml:space="preserve" x="27.3803" y="86.3427" fill="black" font-size="12.8453" font-family="Helvetica">n_blocks</text>
</g>
<text xml:space="preserve" x="199.251" y="17.9202" fill="black" font-size="18.7938" font-family="Helvetica">sector 12, vop 69.03</text>
<rect x="351.996" y="24.9905" width="204.094" height="76.8938" fill="white"/>
<path d="M351.996,101.884h 204.094" fill="none" stroke="black"/>
<path d="M556.091,101.884v -76.8938" fill="none" stroke="black"/>
<path d="M556.091,24.9905h -204.094" fill="none" stroke="black"/>
<path d="M351.996,24.9905v 76.8938" fill="none" stroke="black"/>
<text xml:space="preserve" x="376.824" y="39.0986" fill="black" font-size="16.6263" font-family="Helvetica"> / ndf </text>
<text xml:space="preserve" x="371.122" y="34.2112" fill="black" font-size="11.2509" font-family="Helvetica">2</text>
<text xml:space="preserve" x="362.162" y="39.0986" fill="black" font-size="16.6263" font-family="Times">&#0967;</text>
<text xml:space="preserve" x="477.828" y="40.7277" fill="black" font-size="16.6263" font-family="Helvetica"> 15.76 / 7</text>
<text xml:space="preserve" x="362.162" y="60.2769" fill="black" font-size="16.6263" font-family="Helvetica">Constant </text>
<text xml:space="preserve" x="500.636" y="60.2769" fill="black" font-size="16.6263" font-family="Helvetica"> 1.378</text>
<text xml:space="preserve" x="491.676" y="60.2769" fill="black" font-size="16.6263" font-family="Times">&#0177;</text>
<text xml:space="preserve" x="441.173" y="60.2769" fill="black" font-size="16.6263" font-family="Helvetica"> 7.194 </text>
<text xml:space="preserve" x="362.162" y="79.0117" fill="black" font-size="16.6263" font-family="Helvetica">Mean     </text>
<text xml:space="preserve" x="509.596" y="79.0117" fill="black" font-size="16.6263" font-family="Helvetica"> 13.7</text>
<text xml:space="preserve" x="500.636" y="79.0117" fill="black" font-size="16.6263" font-family="Times">&#0177;</text>
<text xml:space="preserve" x="450.133" y="79.0117" fill="black" font-size="16.6263" font-family="Helvetica"> 272.6 </text>
<text xml:space="preserve" x="362.162" y="96.9318" fill="black" font-size="16.6263" font-family="Helvetica">Sigma    </text>
<text xml:space="preserve" x="503.079" y="98.561" fill="black" font-size="16.6263" font-family="Helvetica"> 17.51</text>
<text xml:space="preserve" x="494.119" y="98.561" fill="black" font-size="16.6263" font-family="Times">&#0177;</text>
<text xml:space="preserve" x="446.061" y="98.561" fill="black" font-size="16.6263" font-family="Helvetica"> 69.61 </text>
<g stroke="black" stroke-width="1" fill="none">
<line x1="63.752" y1="346.022" x2="64.752" y2="346.022"/>
</g>
<g stroke="black" stroke-width="1" fill="none">
<line x1="78.8701" y1="346.022" x2="79.8701" y2="346.022"/>
</g>
<g stroke="black" stroke-width="1" fill="none">
<line x1="93.9882" y1="346.022" x2="94.9882" y2="346.022"/>
</g>
<g stroke="black" stroke-width="1" fill="none">
<line x1="109.106" y1="346.022" x2="110.106" y2="346.022"/>
</g>
<g stroke="black" stroke-width="1" fill="none">
<line x1="124.224" y1="346.022" x2="125.224" y2="346.022"/>
</g>
<g stroke="black" stroke-width="1" fill="none">
<line x1="139.343" y1="346.022" x2="140.343" y2="346.022"/>
</g>
<g stroke="black" stroke-width="1" fill="none">
<line x1="154.461" y1="346.022" x2="155.461" y2="346.022"/>
</g>
<g stroke="black" stroke-width="1" fill="none">
<line x1="169.579" y1="346.022" x2="170.579" y2="346.022"/>
</g>
<g stroke="black" stroke-width="1" fill="none">
<line x1="184.697" y1="346.022" x2="185.697" y2="346.022"/>
</g>
<path d="M200.815,333.766v -29.5903" fill="none" stroke="#ff6800"/>
<path d="M200.815,304.175v -29.5903" fill="none" stroke="#ff6800"/>
<path d="M193.256,304.175h 7.55905" fill="none" stroke="#ff6800"/>
<path d="M200.815,304.175h 7.55905" fill="none" stroke="#ff6800"/>
<g stroke="black" stroke-width="1" fill="none">
<line x1="199.815" y1="304.175" x2="200.815" y2="304.175"/>
</g>
<path d="M215.933,220.481v -62.7705" fill="none" stroke="#ff6800"/>
<path d="M215.933,157.711v -62.7705" fill="none" stroke="#ff6800"/>
<path d="M208.374,157.711h 7.55905" fill="none" stroke="#ff6800"/>
<path d="M215.933,157.711h 7.55905" fill="none" stroke="#ff6800"/>
<g stroke="black" stroke-width="1" fill="none">
<line x1="214.933" y1="157.711" x2="215.933" y2="157.711"/>
</g>
<path d="M231.051,237.815v -59.1806" fill="none" stroke="#ff6800"/>
<path d="M231.051,178.634v -59.1806" fill="none" stroke="#ff6800"/>
<path d="M223.492,178.634h 7.55905" fill="none" stroke="#ff6800"/>
<path d="M231.051,178.634h 7.55905" fill="none" stroke="#ff6800"/>
<g stroke="black" stroke-width="1" fill="none">
<line x1="230.051" y1="178.634" x2="231.051" y2="178.634"/>
</g>
<path d="M246.169,131.382v -78.2885" fill="none" stroke="#ff6800"/>
<path d="M246.169,53.0934v -14.6464" fill="none" stroke="#ff6800"/>
<path d="M238.61,53.0934h 7.55905" fill="none" stroke="#ff6800"/>
<path d="M246.169,53.0934h 7.55905" fill="none" stroke="#ff6800"/>
<g stroke="black" stroke-width="1" fill="none">
<line x1="245.169" y1="53.0934" x2="246.169" y2="53.0934"/>
</g>
<path d="M261.287,304.175v -41.847" fill="none" stroke="#ff6800"/>
<path d="M261.287,262.328v -41.847" fill="none" stroke="#ff6800"/>
<path d="M253.728,262.328h 7.55905" fill="none" stroke="#ff6800"/>
<path d="M261.287,262.328h 7.55905" fill="none" stroke="#ff6800"/>
<g stroke="black" stroke-width="1" fill="none">
<line x1="260.287" y1="262.328" x2="261.287" y2="262.328"/>
</g>
<path d="M276.406,149.458v -75.4407" fill="none" stroke="#ff6800"/>
<path d="M276.406,74.0169v -35.5699" fill="none" stroke="#ff6800"/>
<path d="M268.846,74.0169h 7.55905" fill="none" stroke="#ff6800"/>
<path d="M276.406,74.0169h 7.55905" fill="none" stroke="#ff6800"/>
<g stroke="black" stroke-width="1" fill="none">
<line x1="275.406" y1="74.0169" x2="276.406" y2="74.0169"/>
</g>
<path d="M291.524,304.175v -41.847" fill="none" stroke="#ff6800"/>
<path d="M291.524,262.328v -41.847" fill="none" stroke="#ff6800"/>
<path d="M283.965,262.328h 7.55905" fill="none" stroke="#ff6800"/>
<path d="M291.524,262.328h 7.55905" fill="none" stroke="#ff6800"/>
<g stroke="black" stroke-width="1" fill="none">
<line x1="290.524" y1="262.328" x2="291.524" y2="262.328"/>
</g>
<path d="M306.642,254.916v -55.3584" fill="none" stroke="#ff6800"/>
<path d="M306.642,199.558v -55.3584" fill="none" stroke="#ff6800"/>
<path d="M299.083,199.558h 7.55905" fill="none" stroke="#ff6800"/>
<path d="M306.642,199.558h 7.55905" fill="none" stroke="#ff6800"/>
<g stroke="black" stroke-width="1" fill="none">
<line x1="305.642" y1="199.558" x2="306.642" y2="199.558"/>
</g>
<path d="M321.76,319.492v -36.2406" fill="none" stroke="#ff6800"/>
<path d="M321.76,283.252v -36.2406" fill="none" stroke="#ff6800"/>
<path d="M314.201,283.252h 7.55905" fill="none" stroke="#ff6800"/>
<path d="M321.76,283.252h 7.55905" fill="none" stroke="#ff6800"/>
<g stroke="black" stroke-width="1" fill="none">
<line x1="320.76" y1="283.252" x2="321.76" y2="283.252"/>
</g>
<path d="M336.878,288.191v -46.7864" fill="none" stroke="#ff6800"/>
<path d="M336.878,241.405v -46.7864" fill="none" stroke="#ff6800"/>
<path d="M329.319,241.405h 7.55905" fill="none" stroke="#ff6800"/>
<path d="M336.878,241.405h 7.55905" fill="none" stroke="#ff6800"/>
<g stroke="black" stroke-width="1" fill="none">
<line x1="335.878" y1="241.405" x2="336.878" y2="241.405"/>
</g>
<g stroke="black" stroke-width="1" fill="none">
<line x1="350.996" y1="346.022" x2="351.996" y2="346.022"/>
</g>
<g stroke="black" stroke-width="1" fill="none">
<line x1="366.114" y1="346.022" x2="367.114" y2="346.022"/>
</g>
<g stroke="black" stroke-width="1" fill="none">
<line x1="381.232" y1="346.022" x2="382.232" y2="346.022"/>
</g>
<g stroke="black" stroke-width="1" fill="none">
<line x1="396.35" y1="346.022" x2="397.35" y2="346.022"/>
</g>
<g stroke="black" stroke-width="1" fill="none">
<line x1="411.469" y1="346.022" x2="412.469" y2="346.022"/>
</g>
<g stroke="black" stroke-width="1" fill="none">
<line x1="426.587" y1="346.022" x2="427.587" y2="346.022"/>
</g>
<g stroke="black" stroke-width="1" fill="none">
<line x1="441.705" y1="346.022" x2="442.705" y2="346.022"/>
</g>
<g stroke="black" stroke-width="1" fill="none">
<line x1="456.823" y1="346.022" x2="457.823" y2="346.022"/>
</g>
<g stroke="black" stroke-width="1" fill="none">
<line x1="471.941" y1="346.022" x2="472.941" y2="346.022"/>
</g>
<g stroke="black" stroke-width="1" fill="none">
<line x1="487.059" y1="346.022" x2="488.059" y2="346.022"/>
</g>
<g stroke="black" stroke-width="1" fill="none">
<line x1="502.177" y1="346.022" x2="503.177" y2="346.022"/>
</g>
<path d="M59.4606,345.939l 4.53543, -0.0326223l 4.53543, -0.044185l 4.53543, -0.0593718l 4.53543, -0.0791444l 4.53543, -0.10466l 4.53543, -0.137294l 4.53543, -0.178657l 4.53543, -0.230605l 4.53543, -0.295244l 4.53543, -0.374924l 4.53543, -0.472208l
 4.53543, -0.589838l 4.53543, -0.730666l 4.53543, -0.897567l 4.53543, -1.09333l 4.53543, -1.32051l 4.53543, -1.58126l 4.53543, -1.87717l 4.53543, -2.20903l 4.53543, -2.57664l 4.53543, -2.97857l 4.53543, -3.41201l 4.53543, -3.87253l 4.53543, -4.35402l
 4.53543, -4.84858l 4.53543, -5.34653l 4.53543, -5.83651l 4.53543, -6.30562l 4.53543, -6.73979l 4.53543, -7.12405l 4.53543, -7.44312l 4.53543, -7.68186l 4.53543, -7.82596l 4.53543, -7.86254l 4.53543, -7.7808l 4.53543, -7.57265l 4.53543, -7.23324l
 4.53543, -6.76135l 4.53543, -6.15975l 4.53543, -5.43532l 4.53543, -4.59896l 4.53543, -3.66541l 4.53543, -2.65283l 4.53543, -1.58219l 4.53543, -0.476602l 4.53543, 0.63957l 4.53543, 1.74155l 4.53543, 2.8051l 4.53543, 3.80737" fill="none"
 stroke="#ff6800" stroke-width="2"/>
<path d="M281.697,204.497l 4.53543, 4.72776l 4.53543, 5.54858l 4.53543, 6.25563l 4.53543, 6.83858l 4.53543, 7.29117l 4.53543, 7.61122l 4.53543, 7.80049l 4.53543, 7.86434l 4.53543, 7.81131l 4.53543, 7.65252l 4.53543, 7.40111l 4.53543, 7.07155l
 4.53543, 6.67903l 4.53543, 6.23884l 4.53543, 5.76582l 4.53543, 5.27391l 4.53543, 4.77578l 4.53543, 4.28257l 4.53543, 3.80369l 4.53543, 3.34679l 4.53543, 2.91773l 4.53543, 2.52068l 4.53543, 2.15824l 4.53543, 1.83165l 4.53543, 1.54095l 4.53543,
 1.28523l 4.53543, 1.06279l 4.53543, 0.871417l 4.53543, 0.708507l 4.53543, 0.571253l 4.53543, 0.456775l 4.53543, 0.362233l 4.53543, 0.284909l 4.53543, 0.222267l 4.53543, 0.171993l 4.53543, 0.132017l 4.53543, 0.100519l 4.53543, 0.0759235l 4.53543,
 0.0568891l 4.53543, 0.0422881l 4.53543, 0.0311855l 4.53543, 0.0228163l 4.53543, 0.0165616l 4.53543, 0.0400593h 22.6772" fill="none" stroke="#ff6800" stroke-width="2"/>
<path d="M503.933,346.022h 4.53543" fill="none" stroke="#ff6800" stroke-width="2"/>
<rect x="351.996" y="24.9905" width="204.094" height="76.8938" fill="white"/>
<path d="M351.996,101.884h 204.094" fill="none" stroke="black"/>
<path d="M556.091,101.884v -76.8938" fill="none" stroke="black"/>
<path d="M556.091,24.9905h -204.094" fill="none" stroke="black"/>
<path d="M351.996,24.9905v 76.8938" fill="none" stroke="black"/>
<text xml:space="preserve" x="376.824" y="39.0986" fill="black" font-size="16.6263" font-family="Helvetica"> / ndf </text>
<text xml:space="preserve" x="371.122" y="34.2112" fill="black" font-size="11.2509" font-family="Helvetica">2</text>
<text xml:space="preserve" x="362.162" y="39.0986" fill="black" font-size="16.6263" font-family="Times">&#0967;</text>
<text xml:space="preserve" x="477.828" y="40.7277" fill="black" font-size="16.6263" font-family="Helvetica"> 15.76 / 7</text>
<text xml:space="preserve" x="362.162" y="60.2769" fill="black" font-size="16.6263" font-family="Helvetica">Constant </text>
<text xml:space="preserve" x="500.636" y="60.2769" fill="black" font-size="16.6263" font-family="Helvetica"> 1.378</text>
<text xml:space="preserve" x="491.676" y="60.2769" fill="black" font-size="16.6263" font-family="Times">&#0177;</text>
<text xml:space="preserve" x="441.173" y="60.2769" fill="black" font-size="16.6263" font-family="Helvetica"> 7.194 </text>
<text xml:space="preserve" x="362.162" y="79.0117" fill="black" font-size="16.6263" font-family="Helvetica">Mean     </text>
<text xml:space="preserve" x="509.596" y="79.0117" fill="black" font-size="16.6263" font-family="Helvetica"> 13.7</text>
<text xml:space="preserve" x="500.636" y="79.0117" fill="black" font-size="16.6263" font-family="Times">&#0177;</text>
<text xml:space="preserve" x="450.133" y="79.0117" fill="black" font-size="16.6263" font-family="Helvetica"> 272.6 </text>
<text xml:space="preserve" x="362.162" y="96.9318" fill="black" font-size="16.6263" font-family="Helvetica">Sigma    </text>
<text xml:space="preserve" x="503.079" y="98.561" fill="black" font-size="16.6263" font-family="Helvetica"> 17.51</text>
<text xml:space="preserve" x="494.119" y="98.561" fill="black" font-size="16.6263" font-family="Times">&#0177;</text>
<text xml:space="preserve" x="446.061" y="98.561" fill="black" font-size="16.6263" font-family="Helvetica"> 69.61 </text>
<text xml:space="preserve" x="199.251" y="17.9202" fill="black" font-size="18.7938" font-family="Helvetica">sector 12, vop 69.03</text></svg>
