<?xml version="1.0" standalone="no"?>
<svg width="567.429" height="384.969" viewBox="0 0 567.429 384.969" xmlns="http://www.w3.org/2000/svg" shape-rendering="crispEdges">
<title>
./adjusted_vop/sector_by_vop/sector-13_vop-69.03.svg
</title>
<desc>
Creator: ROOT Version 6.24/00
CreationDate: Mon Jul 19 21:24:20 2021</desc>
<defs>
</defs>
<rect x="0.5" y="0" width="566.929" height="384.469" fill="white"/>
<rect x="57.1929" y="38.4469" width="453.543" height="307.575" fill="white"/>
<rect x="57.1929" y="38.4469" width="453.543" height="307.575" fill="none" stroke="black"/>
<path d="M57.1929,346.022h 120.945v -11.9694h 30.2362v -35.9083h 15.1181v -143.633h 15.1181v -83.7861h 15.1181v 59.8472h 15.1181v 191.511h 15.1181v 11.9694h 15.1181v 11.9694h 211.654" fill="none" stroke="#ff6800"/>
<path d="M59.4606,346.022h 117.921l 4.53543, -0.064498l 4.53543, -0.142668l 4.53543, -0.402829l 4.53543, -1.03653l 4.53543, -2.42772l 4.53543, -5.16767l 4.53543, -9.97626l 4.53543, -17.417l 4.53543, -27.3854l 4.53543, -38.539l 4.53543, -48.0556l
 4.53543, -52.1516l 4.53543, -47.4754l 4.53543, -32.8708l 4.53543, -10.5131l 4.53543, 14.4584l 4.53543, 35.8513l 4.53543, 48.9088l 4.53543, 52.0139l 4.53543, 46.7836l 4.53543, 36.7593l 4.53543, 25.6432l 4.53543, 16.0302" fill="none" stroke="#ff6800"
 stroke-width="2"/>
<path d="M281.697,328.845l 4.53543, 9.03196l 4.53543, 4.60457l 4.53543, 2.1298l 4.53543, 0.895551l 4.53543, 0.342836l 4.53543, 0.119626l 4.53543, 0.0529935h 190.488" fill="none" stroke="#ff6800" stroke-width="2"/>
<path d="M503.933,346.022h 4.53543" fill="none" stroke="#ff6800" stroke-width="2"/>
<path d="M57.1929,346.022h 453.543" fill="none" stroke="black"/>
<path d="M57.1929,336.795v 9.22726" fill="none" stroke="black"/>
<path d="M72.311,341.409v 4.61363" fill="none" stroke="black"/>
<path d="M87.4291,341.409v 4.61363" fill="none" stroke="black"/>
<path d="M102.547,341.409v 4.61363" fill="none" stroke="black"/>
<path d="M117.665,341.409v 4.61363" fill="none" stroke="black"/>
<path d="M132.783,336.795v 9.22726" fill="none" stroke="black"/>
<path d="M147.902,341.409v 4.61363" fill="none" stroke="black"/>
<path d="M163.02,341.409v 4.61363" fill="none" stroke="black"/>
<path d="M178.138,341.409v 4.61363" fill="none" stroke="black"/>
<path d="M193.256,341.409v 4.61363" fill="none" stroke="black"/>
<path d="M208.374,336.795v 9.22726" fill="none" stroke="black"/>
<path d="M223.492,341.409v 4.61363" fill="none" stroke="black"/>
<path d="M238.61,341.409v 4.61363" fill="none" stroke="black"/>
<path d="M253.728,341.409v 4.61363" fill="none" stroke="black"/>
<path d="M268.846,341.409v 4.61363" fill="none" stroke="black"/>
<path d="M283.965,336.795v 9.22726" fill="none" stroke="black"/>
<path d="M299.083,341.409v 4.61363" fill="none" stroke="black"/>
<path d="M314.201,341.409v 4.61363" fill="none" stroke="black"/>
<path d="M329.319,341.409v 4.61363" fill="none" stroke="black"/>
<path d="M344.437,341.409v 4.61363" fill="none" stroke="black"/>
<path d="M359.555,336.795v 9.22726" fill="none" stroke="black"/>
<path d="M374.673,341.409v 4.61363" fill="none" stroke="black"/>
<path d="M389.791,341.409v 4.61363" fill="none" stroke="black"/>
<path d="M404.909,341.409v 4.61363" fill="none" stroke="black"/>
<path d="M420.028,341.409v 4.61363" fill="none" stroke="black"/>
<path d="M435.146,336.795v 9.22726" fill="none" stroke="black"/>
<path d="M450.264,341.409v 4.61363" fill="none" stroke="black"/>
<path d="M465.382,341.409v 4.61363" fill="none" stroke="black"/>
<path d="M480.5,341.409v 4.61363" fill="none" stroke="black"/>
<path d="M495.618,341.409v 4.61363" fill="none" stroke="black"/>
<path d="M510.736,336.795v 9.22726" fill="none" stroke="black"/>
<text xml:space="preserve" x="53.446" y="358.403" fill="black" font-size="12.8453" font-family="Helvetica">0</text>
<text xml:space="preserve" x="121.868" y="358.403" fill="black" font-size="12.8453" font-family="Helvetica">100</text>
<text xml:space="preserve" x="197.622" y="358.403" fill="black" font-size="12.8453" font-family="Helvetica">200</text>
<text xml:space="preserve" x="273.375" y="358.403" fill="black" font-size="12.8453" font-family="Helvetica">300</text>
<text xml:space="preserve" x="348.314" y="358.403" fill="black" font-size="12.8453" font-family="Helvetica">400</text>
<text xml:space="preserve" x="424.068" y="358.403" fill="black" font-size="12.8453" font-family="Helvetica">500</text>
<text xml:space="preserve" x="499.821" y="358.403" fill="black" font-size="12.8453" font-family="Helvetica">600</text>
<text xml:space="preserve" x="486.788" y="369.807" fill="black" font-size="12.8453" font-family="Helvetica">mpv</text>
<path d="M57.1929,346.022v -307.575" fill="none" stroke="black"/>
<path d="M70.7992,346.022h -13.6063" fill="none" stroke="black"/>
<path d="M63.9961,336.048h -6.80315" fill="none" stroke="black"/>
<path d="M63.9961,326.073h -6.80315" fill="none" stroke="black"/>
<path d="M63.9961,316.099h -6.80315" fill="none" stroke="black"/>
<path d="M70.7992,306.124h -13.6063" fill="none" stroke="black"/>
<path d="M63.9961,296.15h -6.80315" fill="none" stroke="black"/>
<path d="M63.9961,286.175h -6.80315" fill="none" stroke="black"/>
<path d="M63.9961,276.201h -6.80315" fill="none" stroke="black"/>
<path d="M70.7992,266.226h -13.6063" fill="none" stroke="black"/>
<path d="M63.9961,256.251h -6.80315" fill="none" stroke="black"/>
<path d="M63.9961,246.277h -6.80315" fill="none" stroke="black"/>
<path d="M63.9961,236.302h -6.80315" fill="none" stroke="black"/>
<path d="M70.7992,226.328h -13.6063" fill="none" stroke="black"/>
<path d="M63.9961,216.353h -6.80315" fill="none" stroke="black"/>
<path d="M63.9961,206.379h -6.80315" fill="none" stroke="black"/>
<path d="M63.9961,196.404h -6.80315" fill="none" stroke="black"/>
<path d="M70.7992,186.43h -13.6063" fill="none" stroke="black"/>
<path d="M63.9961,176.455h -6.80315" fill="none" stroke="black"/>
<path d="M63.9961,166.481h -6.80315" fill="none" stroke="black"/>
<path d="M63.9961,156.506h -6.80315" fill="none" stroke="black"/>
<path d="M70.7992,146.532h -13.6063" fill="none" stroke="black"/>
<path d="M63.9961,136.557h -6.80315" fill="none" stroke="black"/>
<path d="M63.9961,126.583h -6.80315" fill="none" stroke="black"/>
<path d="M63.9961,116.608h -6.80315" fill="none" stroke="black"/>
<path d="M70.7992,106.634h -13.6063" fill="none" stroke="black"/>
<path d="M63.9961,96.659h -6.80315" fill="none" stroke="black"/>
<path d="M63.9961,86.6845h -6.80315" fill="none" stroke="black"/>
<path d="M63.9961,76.7099h -6.80315" fill="none" stroke="black"/>
<path d="M70.7992,66.7354h -13.6063" fill="none" stroke="black"/>
<path d="M70.7992,66.7354h -13.6063" fill="none" stroke="black"/>
<path d="M63.9961,56.7609h -6.80315" fill="none" stroke="black"/>
<path d="M63.9961,46.7863h -6.80315" fill="none" stroke="black"/>
<text xml:space="preserve" x="47.7441" y="350.258" fill="black" font-size="12.8453" font-family="Helvetica">0</text>
<text xml:space="preserve" x="41.2277" y="310.345" fill="black" font-size="12.8453" font-family="Helvetica">20</text>
<text xml:space="preserve" x="41.2277" y="270.432" fill="black" font-size="12.8453" font-family="Helvetica">40</text>
<text xml:space="preserve" x="41.2277" y="230.519" fill="black" font-size="12.8453" font-family="Helvetica">60</text>
<text xml:space="preserve" x="41.2277" y="190.605" fill="black" font-size="12.8453" font-family="Helvetica">80</text>
<text xml:space="preserve" x="33.8967" y="150.692" fill="black" font-size="12.8453" font-family="Helvetica">100</text>
<text xml:space="preserve" x="33.8967" y="110.779" fill="black" font-size="12.8453" font-family="Helvetica">120</text>
<text xml:space="preserve" x="33.8967" y="70.8661" fill="black" font-size="12.8453" font-family="Helvetica">140</text>
<g transform="rotate(-90,20.0493,86.3427)">
<text xml:space="preserve" x="20.0493" y="86.3427" fill="black" font-size="12.8453" font-family="Helvetica">n_blocks</text>
</g>
<text xml:space="preserve" x="199.251" y="17.9202" fill="black" font-size="18.7938" font-family="Helvetica">sector 13, vop 69.03</text>
<rect x="351.996" y="24.9905" width="204.094" height="76.8938" fill="white"/>
<path d="M351.996,101.884h 204.094" fill="none" stroke="black"/>
<path d="M556.091,101.884v -76.8938" fill="none" stroke="black"/>
<path d="M556.091,24.9905h -204.094" fill="none" stroke="black"/>
<path d="M351.996,24.9905v 76.8938" fill="none" stroke="black"/>
<text xml:space="preserve" x="377.638" y="39.0986" fill="black" font-size="16.7253" font-family="Helvetica"> / ndf </text>
<text xml:space="preserve" x="371.122" y="34.2112" fill="black" font-size="11.3169" font-family="Helvetica">2</text>
<text xml:space="preserve" x="362.162" y="39.0986" fill="black" font-size="16.7253" font-family="Times">&#0967;</text>
<text xml:space="preserve" x="481.901" y="40.7277" fill="black" font-size="16.7253" font-family="Helvetica">  20.6 / 5</text>
<text xml:space="preserve" x="362.162" y="60.2769" fill="black" font-size="16.7253" font-family="Helvetica">Constant </text>
<text xml:space="preserve" x="518.556" y="60.2769" fill="black" font-size="16.7253" font-family="Helvetica"> 9.7</text>
<text xml:space="preserve" x="509.596" y="60.2769" fill="black" font-size="16.7253" font-family="Times">&#0177;</text>
<text xml:space="preserve" x="459.094" y="60.2769" fill="black" font-size="16.7253" font-family="Helvetica"> 147.2 </text>
<text xml:space="preserve" x="362.162" y="79.0117" fill="black" font-size="16.7253" font-family="Helvetica">Mean     </text>
<text xml:space="preserve" x="521" y="79.0117" fill="black" font-size="16.7253" font-family="Helvetica"> 1.1</text>
<text xml:space="preserve" x="512.039" y="79.0117" fill="black" font-size="16.7253" font-family="Times">&#0177;</text>
<text xml:space="preserve" x="461.537" y="79.0117" fill="black" font-size="16.7253" font-family="Helvetica"> 248.5 </text>
<text xml:space="preserve" x="362.162" y="96.9318" fill="black" font-size="16.7253" font-family="Helvetica">Sigma    </text>
<text xml:space="preserve" x="509.596" y="98.561" fill="black" font-size="16.7253" font-family="Helvetica"> 0.84</text>
<text xml:space="preserve" x="500.636" y="98.561" fill="black" font-size="16.7253" font-family="Times">&#0177;</text>
<text xml:space="preserve" x="450.133" y="98.561" fill="black" font-size="16.7253" font-family="Helvetica"> 20.35 </text>
<g stroke="black" stroke-width="1" fill="none">
<line x1="63.752" y1="346.022" x2="64.752" y2="346.022"/>
</g>
<g stroke="black" stroke-width="1" fill="none">
<line x1="78.8701" y1="346.022" x2="79.8701" y2="346.022"/>
</g>
<g stroke="black" stroke-width="1" fill="none">
<line x1="93.9882" y1="346.022" x2="94.9882" y2="346.022"/>
</g>
<g stroke="black" stroke-width="1" fill="none">
<line x1="109.106" y1="346.022" x2="110.106" y2="346.022"/>
</g>
<g stroke="black" stroke-width="1" fill="none">
<line x1="124.224" y1="346.022" x2="125.224" y2="346.022"/>
</g>
<g stroke="black" stroke-width="1" fill="none">
<line x1="139.343" y1="346.022" x2="140.343" y2="346.022"/>
</g>
<g stroke="black" stroke-width="1" fill="none">
<line x1="154.461" y1="346.022" x2="155.461" y2="346.022"/>
</g>
<g stroke="black" stroke-width="1" fill="none">
<line x1="169.579" y1="346.022" x2="170.579" y2="346.022"/>
</g>
<path d="M185.697,338.939v -4.8865" fill="none" stroke="#ff6800"/>
<path d="M185.697,334.053v -4.8865" fill="none" stroke="#ff6800"/>
<path d="M178.138,334.053h 7.55905" fill="none" stroke="#ff6800"/>
<path d="M185.697,334.053h 7.55905" fill="none" stroke="#ff6800"/>
<g stroke="black" stroke-width="1" fill="none">
<line x1="184.697" y1="334.053" x2="185.697" y2="334.053"/>
</g>
<path d="M200.815,338.939v -4.8865" fill="none" stroke="#ff6800"/>
<path d="M200.815,334.053v -4.8865" fill="none" stroke="#ff6800"/>
<path d="M193.256,334.053h 7.55905" fill="none" stroke="#ff6800"/>
<path d="M200.815,334.053h 7.55905" fill="none" stroke="#ff6800"/>
<g stroke="black" stroke-width="1" fill="none">
<line x1="199.815" y1="334.053" x2="200.815" y2="334.053"/>
</g>
<path d="M215.933,307.918v -9.773" fill="none" stroke="#ff6800"/>
<path d="M215.933,298.145v -9.773" fill="none" stroke="#ff6800"/>
<path d="M208.374,298.145h 7.55905" fill="none" stroke="#ff6800"/>
<path d="M215.933,298.145h 7.55905" fill="none" stroke="#ff6800"/>
<g stroke="black" stroke-width="1" fill="none">
<line x1="214.933" y1="298.145" x2="215.933" y2="298.145"/>
</g>
<path d="M231.051,174.057v -19.546" fill="none" stroke="#ff6800"/>
<path d="M231.051,154.511v -19.546" fill="none" stroke="#ff6800"/>
<path d="M223.492,154.511h 7.55905" fill="none" stroke="#ff6800"/>
<path d="M231.051,154.511h 7.55905" fill="none" stroke="#ff6800"/>
<g stroke="black" stroke-width="1" fill="none">
<line x1="230.051" y1="154.511" x2="231.051" y2="154.511"/>
</g>
<path d="M246.169,94.16v -23.4348" fill="none" stroke="#ff6800"/>
<path d="M246.169,70.7252v -23.4348" fill="none" stroke="#ff6800"/>
<path d="M238.61,70.7252h 7.55905" fill="none" stroke="#ff6800"/>
<path d="M246.169,70.7252h 7.55905" fill="none" stroke="#ff6800"/>
<g stroke="black" stroke-width="1" fill="none">
<line x1="245.169" y1="70.7252" x2="246.169" y2="70.7252"/>
</g>
<path d="M261.287,151.304v -20.7317" fill="none" stroke="#ff6800"/>
<path d="M261.287,130.572v -20.7317" fill="none" stroke="#ff6800"/>
<path d="M253.728,130.572h 7.55905" fill="none" stroke="#ff6800"/>
<path d="M261.287,130.572h 7.55905" fill="none" stroke="#ff6800"/>
<g stroke="black" stroke-width="1" fill="none">
<line x1="260.287" y1="130.572" x2="261.287" y2="130.572"/>
</g>
<path d="M276.406,328.994v -6.91056" fill="none" stroke="#ff6800"/>
<path d="M276.406,322.083v -6.91056" fill="none" stroke="#ff6800"/>
<path d="M268.846,322.083h 7.55905" fill="none" stroke="#ff6800"/>
<path d="M276.406,322.083h 7.55905" fill="none" stroke="#ff6800"/>
<g stroke="black" stroke-width="1" fill="none">
<line x1="275.406" y1="322.083" x2="276.406" y2="322.083"/>
</g>
<path d="M291.524,338.939v -4.8865" fill="none" stroke="#ff6800"/>
<path d="M291.524,334.053v -4.8865" fill="none" stroke="#ff6800"/>
<path d="M283.965,334.053h 7.55905" fill="none" stroke="#ff6800"/>
<path d="M291.524,334.053h 7.55905" fill="none" stroke="#ff6800"/>
<g stroke="black" stroke-width="1" fill="none">
<line x1="290.524" y1="334.053" x2="291.524" y2="334.053"/>
</g>
<g stroke="black" stroke-width="1" fill="none">
<line x1="305.642" y1="346.022" x2="306.642" y2="346.022"/>
</g>
<g stroke="black" stroke-width="1" fill="none">
<line x1="320.76" y1="346.022" x2="321.76" y2="346.022"/>
</g>
<g stroke="black" stroke-width="1" fill="none">
<line x1="335.878" y1="346.022" x2="336.878" y2="346.022"/>
</g>
<g stroke="black" stroke-width="1" fill="none">
<line x1="350.996" y1="346.022" x2="351.996" y2="346.022"/>
</g>
<g stroke="black" stroke-width="1" fill="none">
<line x1="366.114" y1="346.022" x2="367.114" y2="346.022"/>
</g>
<g stroke="black" stroke-width="1" fill="none">
<line x1="381.232" y1="346.022" x2="382.232" y2="346.022"/>
</g>
<g stroke="black" stroke-width="1" fill="none">
<line x1="396.35" y1="346.022" x2="397.35" y2="346.022"/>
</g>
<g stroke="black" stroke-width="1" fill="none">
<line x1="411.469" y1="346.022" x2="412.469" y2="346.022"/>
</g>
<g stroke="black" stroke-width="1" fill="none">
<line x1="426.587" y1="346.022" x2="427.587" y2="346.022"/>
</g>
<g stroke="black" stroke-width="1" fill="none">
<line x1="441.705" y1="346.022" x2="442.705" y2="346.022"/>
</g>
<g stroke="black" stroke-width="1" fill="none">
<line x1="456.823" y1="346.022" x2="457.823" y2="346.022"/>
</g>
<g stroke="black" stroke-width="1" fill="none">
<line x1="471.941" y1="346.022" x2="472.941" y2="346.022"/>
</g>
<g stroke="black" stroke-width="1" fill="none">
<line x1="487.059" y1="346.022" x2="488.059" y2="346.022"/>
</g>
<g stroke="black" stroke-width="1" fill="none">
<line x1="502.177" y1="346.022" x2="503.177" y2="346.022"/>
</g>
<path d="M59.4606,346.022h 117.921l 4.53543, -0.064498l 4.53543, -0.142668l 4.53543, -0.402829l 4.53543, -1.03653l 4.53543, -2.42772l 4.53543, -5.16767l 4.53543, -9.97626l 4.53543, -17.417l 4.53543, -27.3854l 4.53543, -38.539l 4.53543, -48.0556l
 4.53543, -52.1516l 4.53543, -47.4754l 4.53543, -32.8708l 4.53543, -10.5131l 4.53543, 14.4584l 4.53543, 35.8513l 4.53543, 48.9088l 4.53543, 52.0139l 4.53543, 46.7836l 4.53543, 36.7593l 4.53543, 25.6432l 4.53543, 16.0302" fill="none" stroke="#ff6800"
 stroke-width="2"/>
<path d="M281.697,328.845l 4.53543, 9.03196l 4.53543, 4.60457l 4.53543, 2.1298l 4.53543, 0.895551l 4.53543, 0.342836l 4.53543, 0.119626l 4.53543, 0.0529935h 190.488" fill="none" stroke="#ff6800" stroke-width="2"/>
<path d="M503.933,346.022h 4.53543" fill="none" stroke="#ff6800" stroke-width="2"/>
<rect x="351.996" y="24.9905" width="204.094" height="76.8938" fill="white"/>
<path d="M351.996,101.884h 204.094" fill="none" stroke="black"/>
<path d="M556.091,101.884v -76.8938" fill="none" stroke="black"/>
<path d="M556.091,24.9905h -204.094" fill="none" stroke="black"/>
<path d="M351.996,24.9905v 76.8938" fill="none" stroke="black"/>
<text xml:space="preserve" x="377.638" y="39.0986" fill="black" font-size="16.7253" font-family="Helvetica"> / ndf </text>
<text xml:space="preserve" x="371.122" y="34.2112" fill="black" font-size="11.3169" font-family="Helvetica">2</text>
<text xml:space="preserve" x="362.162" y="39.0986" fill="black" font-size="16.7253" font-family="Times">&#0967;</text>
<text xml:space="preserve" x="481.901" y="40.7277" fill="black" font-size="16.7253" font-family="Helvetica">  20.6 / 5</text>
<text xml:space="preserve" x="362.162" y="60.2769" fill="black" font-size="16.7253" font-family="Helvetica">Constant </text>
<text xml:space="preserve" x="518.556" y="60.2769" fill="black" font-size="16.7253" font-family="Helvetica"> 9.7</text>
<text xml:space="preserve" x="509.596" y="60.2769" fill="black" font-size="16.7253" font-family="Times">&#0177;</text>
<text xml:space="preserve" x="459.094" y="60.2769" fill="black" font-size="16.7253" font-family="Helvetica"> 147.2 </text>
<text xml:space="preserve" x="362.162" y="79.0117" fill="black" font-size="16.7253" font-family="Helvetica">Mean     </text>
<text xml:space="preserve" x="521" y="79.0117" fill="black" font-size="16.7253" font-family="Helvetica"> 1.1</text>
<text xml:space="preserve" x="512.039" y="79.0117" fill="black" font-size="16.7253" font-family="Times">&#0177;</text>
<text xml:space="preserve" x="461.537" y="79.0117" fill="black" font-size="16.7253" font-family="Helvetica"> 248.5 </text>
<text xml:space="preserve" x="362.162" y="96.9318" fill="black" font-size="16.7253" font-family="Helvetica">Sigma    </text>
<text xml:space="preserve" x="509.596" y="98.561" fill="black" font-size="16.7253" font-family="Helvetica"> 0.84</text>
<text xml:space="preserve" x="500.636" y="98.561" fill="black" font-size="16.7253" font-family="Times">&#0177;</text>
<text xml:space="preserve" x="450.133" y="98.561" fill="black" font-size="16.7253" font-family="Helvetica"> 20.35 </text>
<text xml:space="preserve" x="199.251" y="17.9202" fill="black" font-size="18.7938" font-family="Helvetica">sector 13, vop 69.03</text></svg>
