<?xml version="1.0" standalone="no"?>
<svg width="567.429" height="384.969" viewBox="0 0 567.429 384.969" xmlns="http://www.w3.org/2000/svg" shape-rendering="crispEdges">
<title>
./adjusted_vop/sector_by_vop/sector-8_all.svg
</title>
<desc>
Creator: ROOT Version 6.24/00
CreationDate: Mon Jul 19 13:27:57 2021</desc>
<defs>
</defs>
<rect x="0.5" y="0" width="566.929" height="384.469" fill="white"/>
<rect x="57.1929" y="38.4469" width="453.543" height="307.575" fill="white"/>
<rect x="57.1929" y="38.4469" width="453.543" height="307.575" fill="none" stroke="black"/>
<path d="M57.1929,346.022h 453.543" fill="none" stroke="#000099"/>
<path d="M57.1929,346.022h 453.543" fill="none" stroke="black"/>
<path d="M57.1929,336.795v 9.22726" fill="none" stroke="black"/>
<path d="M72.311,341.409v 4.61363" fill="none" stroke="black"/>
<path d="M87.4291,341.409v 4.61363" fill="none" stroke="black"/>
<path d="M102.547,341.409v 4.61363" fill="none" stroke="black"/>
<path d="M117.665,341.409v 4.61363" fill="none" stroke="black"/>
<path d="M132.783,336.795v 9.22726" fill="none" stroke="black"/>
<path d="M147.902,341.409v 4.61363" fill="none" stroke="black"/>
<path d="M163.02,341.409v 4.61363" fill="none" stroke="black"/>
<path d="M178.138,341.409v 4.61363" fill="none" stroke="black"/>
<path d="M193.256,341.409v 4.61363" fill="none" stroke="black"/>
<path d="M208.374,336.795v 9.22726" fill="none" stroke="black"/>
<path d="M223.492,341.409v 4.61363" fill="none" stroke="black"/>
<path d="M238.61,341.409v 4.61363" fill="none" stroke="black"/>
<path d="M253.728,341.409v 4.61363" fill="none" stroke="black"/>
<path d="M268.846,341.409v 4.61363" fill="none" stroke="black"/>
<path d="M283.965,336.795v 9.22726" fill="none" stroke="black"/>
<path d="M299.083,341.409v 4.61363" fill="none" stroke="black"/>
<path d="M314.201,341.409v 4.61363" fill="none" stroke="black"/>
<path d="M329.319,341.409v 4.61363" fill="none" stroke="black"/>
<path d="M344.437,341.409v 4.61363" fill="none" stroke="black"/>
<path d="M359.555,336.795v 9.22726" fill="none" stroke="black"/>
<path d="M374.673,341.409v 4.61363" fill="none" stroke="black"/>
<path d="M389.791,341.409v 4.61363" fill="none" stroke="black"/>
<path d="M404.909,341.409v 4.61363" fill="none" stroke="black"/>
<path d="M420.028,341.409v 4.61363" fill="none" stroke="black"/>
<path d="M435.146,336.795v 9.22726" fill="none" stroke="black"/>
<path d="M450.264,341.409v 4.61363" fill="none" stroke="black"/>
<path d="M465.382,341.409v 4.61363" fill="none" stroke="black"/>
<path d="M480.5,341.409v 4.61363" fill="none" stroke="black"/>
<path d="M495.618,341.409v 4.61363" fill="none" stroke="black"/>
<path d="M510.736,336.795v 9.22726" fill="none" stroke="black"/>
<text xml:space="preserve" x="53.446" y="358.403" fill="black" font-size="12.8453" font-family="Helvetica">0</text>
<text xml:space="preserve" x="121.868" y="358.403" fill="black" font-size="12.8453" font-family="Helvetica">100</text>
<text xml:space="preserve" x="197.622" y="358.403" fill="black" font-size="12.8453" font-family="Helvetica">200</text>
<text xml:space="preserve" x="273.375" y="358.403" fill="black" font-size="12.8453" font-family="Helvetica">300</text>
<text xml:space="preserve" x="348.314" y="358.403" fill="black" font-size="12.8453" font-family="Helvetica">400</text>
<text xml:space="preserve" x="424.068" y="358.403" fill="black" font-size="12.8453" font-family="Helvetica">500</text>
<text xml:space="preserve" x="499.821" y="358.403" fill="black" font-size="12.8453" font-family="Helvetica">600</text>
<text xml:space="preserve" x="486.788" y="369.807" fill="black" font-size="12.8453" font-family="Helvetica">mpv</text>
<path d="M57.1929,346.022v -307.575" fill="none" stroke="black"/>
<path d="M70.7992,346.022h -13.6063" fill="none" stroke="black"/>
<path d="M63.9961,335.561h -6.80315" fill="none" stroke="black"/>
<path d="M63.9961,325.099h -6.80315" fill="none" stroke="black"/>
<path d="M63.9961,314.637h -6.80315" fill="none" stroke="black"/>
<path d="M70.7992,304.175h -13.6063" fill="none" stroke="black"/>
<path d="M63.9961,293.714h -6.80315" fill="none" stroke="black"/>
<path d="M63.9961,283.252h -6.80315" fill="none" stroke="black"/>
<path d="M63.9961,272.79h -6.80315" fill="none" stroke="black"/>
<path d="M70.7992,262.328h -13.6063" fill="none" stroke="black"/>
<path d="M63.9961,251.867h -6.80315" fill="none" stroke="black"/>
<path d="M63.9961,241.405h -6.80315" fill="none" stroke="black"/>
<path d="M63.9961,230.943h -6.80315" fill="none" stroke="black"/>
<path d="M70.7992,220.481h -13.6063" fill="none" stroke="black"/>
<path d="M63.9961,210.02h -6.80315" fill="none" stroke="black"/>
<path d="M63.9961,199.558h -6.80315" fill="none" stroke="black"/>
<path d="M63.9961,189.096h -6.80315" fill="none" stroke="black"/>
<path d="M70.7992,178.634h -13.6063" fill="none" stroke="black"/>
<path d="M63.9961,168.173h -6.80315" fill="none" stroke="black"/>
<path d="M63.9961,157.711h -6.80315" fill="none" stroke="black"/>
<path d="M63.9961,147.249h -6.80315" fill="none" stroke="black"/>
<path d="M70.7992,136.787h -13.6063" fill="none" stroke="black"/>
<path d="M63.9961,126.326h -6.80315" fill="none" stroke="black"/>
<path d="M63.9961,115.864h -6.80315" fill="none" stroke="black"/>
<path d="M63.9961,105.402h -6.80315" fill="none" stroke="black"/>
<path d="M70.7992,94.9403h -13.6063" fill="none" stroke="black"/>
<path d="M63.9961,84.4786h -6.80315" fill="none" stroke="black"/>
<path d="M63.9961,74.0169h -6.80315" fill="none" stroke="black"/>
<path d="M63.9961,63.5551h -6.80315" fill="none" stroke="black"/>
<path d="M70.7992,53.0934h -13.6063" fill="none" stroke="black"/>
<path d="M70.7992,53.0934h -13.6063" fill="none" stroke="black"/>
<path d="M63.9961,42.6316h -6.80315" fill="none" stroke="black"/>
<text xml:space="preserve" x="47.7441" y="350.258" fill="black" font-size="12.8453" font-family="Helvetica">0</text>
<text xml:space="preserve" x="47.7441" y="308.716" fill="black" font-size="12.8453" font-family="Helvetica">2</text>
<text xml:space="preserve" x="47.7441" y="267.173" fill="black" font-size="12.8453" font-family="Helvetica">4</text>
<text xml:space="preserve" x="47.7441" y="224.817" fill="black" font-size="12.8453" font-family="Helvetica">6</text>
<text xml:space="preserve" x="47.7441" y="183.275" fill="black" font-size="12.8453" font-family="Helvetica">8</text>
<text xml:space="preserve" x="41.2277" y="140.918" fill="black" font-size="12.8453" font-family="Helvetica">10</text>
<text xml:space="preserve" x="40.4131" y="99.3755" fill="black" font-size="12.8453" font-family="Helvetica">12</text>
<text xml:space="preserve" x="40.4131" y="57.8333" fill="black" font-size="12.8453" font-family="Helvetica">14</text>
<g transform="rotate(-90,27.3803,86.3427)">
<text xml:space="preserve" x="27.3803" y="86.3427" fill="black" font-size="12.8453" font-family="Helvetica">n_blocks</text>
</g>
<text xml:space="preserve" x="253.826" y="18.7347" fill="black" font-size="16.9898" font-family="Helvetica">sector 8</text>
<rect x="57.6465" y="346.022" width="7.10551" height="0" fill="#a6bdd7" fill-opacity="0.50" stroke-opacity="0.50"/>
<rect x="72.7646" y="346.022" width="7.10551" height="0" fill="#a6bdd7" fill-opacity="0.50" stroke-opacity="0.50"/>
<rect x="87.8827" y="346.022" width="7.10551" height="0" fill="#a6bdd7" fill-opacity="0.50" stroke-opacity="0.50"/>
<rect x="103.001" y="346.022" width="7.10551" height="0" fill="#a6bdd7" fill-opacity="0.50" stroke-opacity="0.50"/>
<rect x="118.119" y="346.022" width="7.10551" height="0" fill="#a6bdd7" fill-opacity="0.50" stroke-opacity="0.50"/>
<rect x="133.237" y="346.022" width="7.10551" height="0" fill="#a6bdd7" fill-opacity="0.50" stroke-opacity="0.50"/>
<rect x="148.355" y="346.022" width="7.10551" height="0" fill="#a6bdd7" fill-opacity="0.50" stroke-opacity="0.50"/>
<rect x="163.473" y="346.022" width="7.10551" height="0" fill="#a6bdd7" fill-opacity="0.50" stroke-opacity="0.50"/>
<rect x="178.591" y="346.022" width="7.10551" height="0" fill="#a6bdd7" fill-opacity="0.50" stroke-opacity="0.50"/>
<rect x="193.709" y="346.022" width="7.10551" height="0" fill="#a6bdd7" fill-opacity="0.50" stroke-opacity="0.50"/>
<rect x="208.828" y="325.099" width="7.10551" height="20.9235" fill="#a6bdd7" fill-opacity="0.50" stroke-opacity="0.50"/>
<rect x="223.946" y="283.252" width="7.10551" height="62.7705" fill="#a6bdd7" fill-opacity="0.50" stroke-opacity="0.50"/>
<rect x="239.064" y="220.481" width="7.10551" height="125.541" fill="#a6bdd7" fill-opacity="0.50" stroke-opacity="0.50"/>
<rect x="254.182" y="262.328" width="7.10551" height="83.694" fill="#a6bdd7" fill-opacity="0.50" stroke-opacity="0.50"/>
<rect x="269.3" y="241.405" width="7.10551" height="104.617" fill="#a6bdd7" fill-opacity="0.50" stroke-opacity="0.50"/>
<rect x="284.418" y="262.328" width="7.10551" height="83.694" fill="#a6bdd7" fill-opacity="0.50" stroke-opacity="0.50"/>
<rect x="299.536" y="283.252" width="7.10551" height="62.7705" fill="#a6bdd7" fill-opacity="0.50" stroke-opacity="0.50"/>
<rect x="314.654" y="325.099" width="7.10551" height="20.9235" fill="#a6bdd7" fill-opacity="0.50" stroke-opacity="0.50"/>
<rect x="329.772" y="346.022" width="7.10551" height="0" fill="#a6bdd7" fill-opacity="0.50" stroke-opacity="0.50"/>
<rect x="344.891" y="346.022" width="7.10551" height="0" fill="#a6bdd7" fill-opacity="0.50" stroke-opacity="0.50"/>
<rect x="360.009" y="346.022" width="7.10551" height="0" fill="#a6bdd7" fill-opacity="0.50" stroke-opacity="0.50"/>
<rect x="375.127" y="346.022" width="7.10551" height="0" fill="#a6bdd7" fill-opacity="0.50" stroke-opacity="0.50"/>
<rect x="390.245" y="346.022" width="7.10551" height="0" fill="#a6bdd7" fill-opacity="0.50" stroke-opacity="0.50"/>
<rect x="405.363" y="346.022" width="7.10551" height="0" fill="#a6bdd7" fill-opacity="0.50" stroke-opacity="0.50"/>
<rect x="420.481" y="346.022" width="7.10551" height="0" fill="#a6bdd7" fill-opacity="0.50" stroke-opacity="0.50"/>
<rect x="435.599" y="346.022" width="7.10551" height="0" fill="#a6bdd7" fill-opacity="0.50" stroke-opacity="0.50"/>
<rect x="450.717" y="346.022" width="7.10551" height="0" fill="#a6bdd7" fill-opacity="0.50" stroke-opacity="0.50"/>
<rect x="465.835" y="346.022" width="7.10551" height="0" fill="#a6bdd7" fill-opacity="0.50" stroke-opacity="0.50"/>
<rect x="480.954" y="346.022" width="7.10551" height="0" fill="#a6bdd7" fill-opacity="0.50" stroke-opacity="0.50"/>
<rect x="496.072" y="346.022" width="7.10551" height="0" fill="#a6bdd7" fill-opacity="0.50" stroke-opacity="0.50"/>
<path d="M59.4606,346.022h 81.6378l 4.53543, -0.0511527l 4.53543, -0.0383346l 4.53543, -0.063785l 4.53543, -0.103753l 4.53543, -0.16496l 4.53543, -0.256326l 4.53543, -0.389194l 4.53543, -0.577324l 4.53543, -0.836482l 4.53543, -1.1835l 4.53543,
 -1.63465l 4.53543, -2.2033l 4.53543, -2.89693l 4.53543, -3.71363l 4.53543, -4.63869l 4.53543, -5.6416l 4.53543, -6.67444l 4.53543, -7.67212l 4.53543, -8.55522l 4.53543, -9.23549l 4.53543, -9.62408l 4.53543, -9.64147l 4.53543, -9.2282l 4.53543,
 -8.35464l 4.53543, -7.02816l 4.53543, -5.29645l 4.53543, -3.24573l 4.53543, -0.994029l 4.53543, 1.32003l 4.53543, 3.55136l 4.53543, 5.56345" fill="none" stroke="#a6bdd7" stroke-width="2"/>
<path d="M281.697,246.513l 4.53543, 7.24217l 4.53543, 8.50647l 4.53543, 9.31439l 4.53543, 9.66408l 4.53543, 9.58994l 4.53543, 9.15488l 4.53543, 8.4404l 4.53543, 7.53584l 4.53543, 6.52863l 4.53543, 5.49645l 4.53543, 4.50207l 4.53543, 3.59089l 4.53543,
 2.79105l 4.53543, 2.11526l 4.53543, 1.56388l 4.53543, 1.12839l 4.53543, 0.794835l 4.53543, 0.546747l 4.53543, 0.367362l 4.53543, 0.241154l 4.53543, 0.154691l 4.53543, 0.0969797l 4.53543, 0.0594294l 4.53543, 0.0356027l 4.53543, 0.0471768h 108.85"
 fill="none" stroke="#a6bdd7" stroke-width="2"/>
<path d="M503.933,346.022h 4.53543" fill="none" stroke="#a6bdd7" stroke-width="2"/>
<rect x="64.752" y="346.022" width="7.10551" height="0" fill="#cea262" fill-opacity="0.50" stroke-opacity="0.50"/>
<rect x="79.8701" y="346.022" width="7.10551" height="0" fill="#cea262" fill-opacity="0.50" stroke-opacity="0.50"/>
<rect x="94.9882" y="346.022" width="7.10551" height="0" fill="#cea262" fill-opacity="0.50" stroke-opacity="0.50"/>
<rect x="110.106" y="346.022" width="7.10551" height="0" fill="#cea262" fill-opacity="0.50" stroke-opacity="0.50"/>
<rect x="125.224" y="346.022" width="7.10551" height="0" fill="#cea262" fill-opacity="0.50" stroke-opacity="0.50"/>
<rect x="140.343" y="346.022" width="7.10551" height="0" fill="#cea262" fill-opacity="0.50" stroke-opacity="0.50"/>
<rect x="155.461" y="346.022" width="7.10551" height="0" fill="#cea262" fill-opacity="0.50" stroke-opacity="0.50"/>
<rect x="170.579" y="346.022" width="7.10551" height="0" fill="#cea262" fill-opacity="0.50" stroke-opacity="0.50"/>
<rect x="185.697" y="346.022" width="7.10551" height="0" fill="#cea262" fill-opacity="0.50" stroke-opacity="0.50"/>
<rect x="200.815" y="325.099" width="7.10551" height="20.9235" fill="#cea262" fill-opacity="0.50" stroke-opacity="0.50"/>
<rect x="215.933" y="283.252" width="7.10551" height="62.7705" fill="#cea262" fill-opacity="0.50" stroke-opacity="0.50"/>
<rect x="231.051" y="178.634" width="7.10551" height="167.388" fill="#cea262" fill-opacity="0.50" stroke-opacity="0.50"/>
<rect x="246.169" y="262.328" width="7.10551" height="83.694" fill="#cea262" fill-opacity="0.50" stroke-opacity="0.50"/>
<rect x="261.287" y="74.0169" width="7.10551" height="272.005" fill="#cea262" fill-opacity="0.50" stroke-opacity="0.50"/>
<rect x="276.406" y="74.0169" width="7.10551" height="272.005" fill="#cea262" fill-opacity="0.50" stroke-opacity="0.50"/>
<rect x="291.524" y="53.0934" width="7.10551" height="292.929" fill="#cea262" fill-opacity="0.50" stroke-opacity="0.50"/>
<rect x="306.642" y="283.252" width="7.10551" height="62.7705" fill="#cea262" fill-opacity="0.50" stroke-opacity="0.50"/>
<rect x="321.76" y="304.175" width="7.10551" height="41.847" fill="#cea262" fill-opacity="0.50" stroke-opacity="0.50"/>
<rect x="336.878" y="304.175" width="7.10551" height="41.847" fill="#cea262" fill-opacity="0.50" stroke-opacity="0.50"/>
<rect x="351.996" y="346.022" width="7.10551" height="0" fill="#cea262" fill-opacity="0.50" stroke-opacity="0.50"/>
<rect x="367.114" y="346.022" width="7.10551" height="0" fill="#cea262" fill-opacity="0.50" stroke-opacity="0.50"/>
<rect x="382.232" y="346.022" width="7.10551" height="0" fill="#cea262" fill-opacity="0.50" stroke-opacity="0.50"/>
<rect x="397.35" y="346.022" width="7.10551" height="0" fill="#cea262" fill-opacity="0.50" stroke-opacity="0.50"/>
<rect x="412.469" y="346.022" width="7.10551" height="0" fill="#cea262" fill-opacity="0.50" stroke-opacity="0.50"/>
<rect x="427.587" y="346.022" width="7.10551" height="0" fill="#cea262" fill-opacity="0.50" stroke-opacity="0.50"/>
<rect x="442.705" y="346.022" width="7.10551" height="0" fill="#cea262" fill-opacity="0.50" stroke-opacity="0.50"/>
<rect x="457.823" y="346.022" width="7.10551" height="0" fill="#cea262" fill-opacity="0.50" stroke-opacity="0.50"/>
<rect x="472.941" y="346.022" width="7.10551" height="0" fill="#cea262" fill-opacity="0.50" stroke-opacity="0.50"/>
<rect x="488.059" y="346.022" width="7.10551" height="0" fill="#cea262" fill-opacity="0.50" stroke-opacity="0.50"/>
<rect x="503.177" y="346.022" width="7.10551" height="0" fill="#cea262" fill-opacity="0.50" stroke-opacity="0.50"/>
<path d="M59.4606,346.022h 81.6378l 4.53543, -0.0395186l 4.53543, -0.0338073l 4.53543, -0.0596406l 4.53543, -0.102677l 4.53543, -0.172486l 4.53543, -0.282699l 4.53543, -0.451974l 4.53543, -0.704769l 4.53543, -1.0716l 4.53543, -1.58845l 4.53543,
 -2.29482l 4.53543, -3.2301l 4.53543, -4.42805l 4.53543, -5.90937l 4.53543, -7.67296l 4.53543, -9.68695l 4.53543, -11.881l 4.53543, -14.1416l 4.53543, -16.3132l 4.53543, -18.2051l 4.53543, -19.6069l 4.53543, -20.3095l 4.53543, -20.1318l 4.53543,
 -18.9477l 4.53543, -16.7104l 4.53543, -13.4678l 4.53543, -9.36749l 4.53543, -4.64719l 4.53543, 0.387515l 4.53543, 5.39583l 4.53543, 10.0399" fill="none" stroke="#cea262" stroke-width="2"/>
<path d="M281.697,140.386l 4.53543, 14.0227l 4.53543, 17.1191l 4.53543, 19.1963l 4.53543, 20.2216l 4.53543, 20.2552l 4.53543, 19.4332l 4.53543, 17.9428l 4.53543, 15.9949l 4.53543, 13.7981l 4.53543, 11.5386l 4.53543, 9.36582l 4.53543, 7.38651l
 4.53543, 5.66479l 4.53543, 4.22728l 4.53543, 3.07116l 4.53543, 2.1732l 4.53543, 1.49835l 4.53543, 1.00689l 4.53543, 0.659656l 4.53543, 0.421427l 4.53543, 0.262593l 4.53543, 0.159616l 4.53543, 0.0946601l 4.53543, 0.054779l 4.53543, 0.0309364l
 4.53543, 0.0358896h 104.315" fill="none" stroke="#cea262" stroke-width="2"/>
<path d="M503.933,346.022h 4.53543" fill="none" stroke="#cea262" stroke-width="2"/>
<path d="M57.1929,346.022h 453.543" fill="none" stroke="black"/>
<path d="M57.1929,336.795v 9.22726" fill="none" stroke="black"/>
<path d="M72.311,341.409v 4.61363" fill="none" stroke="black"/>
<path d="M87.4291,341.409v 4.61363" fill="none" stroke="black"/>
<path d="M102.547,341.409v 4.61363" fill="none" stroke="black"/>
<path d="M117.665,341.409v 4.61363" fill="none" stroke="black"/>
<path d="M132.783,336.795v 9.22726" fill="none" stroke="black"/>
<path d="M147.902,341.409v 4.61363" fill="none" stroke="black"/>
<path d="M163.02,341.409v 4.61363" fill="none" stroke="black"/>
<path d="M178.138,341.409v 4.61363" fill="none" stroke="black"/>
<path d="M193.256,341.409v 4.61363" fill="none" stroke="black"/>
<path d="M208.374,336.795v 9.22726" fill="none" stroke="black"/>
<path d="M223.492,341.409v 4.61363" fill="none" stroke="black"/>
<path d="M238.61,341.409v 4.61363" fill="none" stroke="black"/>
<path d="M253.728,341.409v 4.61363" fill="none" stroke="black"/>
<path d="M268.846,341.409v 4.61363" fill="none" stroke="black"/>
<path d="M283.965,336.795v 9.22726" fill="none" stroke="black"/>
<path d="M299.083,341.409v 4.61363" fill="none" stroke="black"/>
<path d="M314.201,341.409v 4.61363" fill="none" stroke="black"/>
<path d="M329.319,341.409v 4.61363" fill="none" stroke="black"/>
<path d="M344.437,341.409v 4.61363" fill="none" stroke="black"/>
<path d="M359.555,336.795v 9.22726" fill="none" stroke="black"/>
<path d="M374.673,341.409v 4.61363" fill="none" stroke="black"/>
<path d="M389.791,341.409v 4.61363" fill="none" stroke="black"/>
<path d="M404.909,341.409v 4.61363" fill="none" stroke="black"/>
<path d="M420.028,341.409v 4.61363" fill="none" stroke="black"/>
<path d="M435.146,336.795v 9.22726" fill="none" stroke="black"/>
<path d="M450.264,341.409v 4.61363" fill="none" stroke="black"/>
<path d="M465.382,341.409v 4.61363" fill="none" stroke="black"/>
<path d="M480.5,341.409v 4.61363" fill="none" stroke="black"/>
<path d="M495.618,341.409v 4.61363" fill="none" stroke="black"/>
<path d="M510.736,336.795v 9.22726" fill="none" stroke="black"/>
<path d="M57.1929,346.022v -307.575" fill="none" stroke="black"/>
<path d="M70.7992,346.022h -13.6063" fill="none" stroke="black"/>
<path d="M63.9961,335.561h -6.80315" fill="none" stroke="black"/>
<path d="M63.9961,325.099h -6.80315" fill="none" stroke="black"/>
<path d="M63.9961,314.637h -6.80315" fill="none" stroke="black"/>
<path d="M70.7992,304.175h -13.6063" fill="none" stroke="black"/>
<path d="M63.9961,293.714h -6.80315" fill="none" stroke="black"/>
<path d="M63.9961,283.252h -6.80315" fill="none" stroke="black"/>
<path d="M63.9961,272.79h -6.80315" fill="none" stroke="black"/>
<path d="M70.7992,262.328h -13.6063" fill="none" stroke="black"/>
<path d="M63.9961,251.867h -6.80315" fill="none" stroke="black"/>
<path d="M63.9961,241.405h -6.80315" fill="none" stroke="black"/>
<path d="M63.9961,230.943h -6.80315" fill="none" stroke="black"/>
<path d="M70.7992,220.481h -13.6063" fill="none" stroke="black"/>
<path d="M63.9961,210.02h -6.80315" fill="none" stroke="black"/>
<path d="M63.9961,199.558h -6.80315" fill="none" stroke="black"/>
<path d="M63.9961,189.096h -6.80315" fill="none" stroke="black"/>
<path d="M70.7992,178.634h -13.6063" fill="none" stroke="black"/>
<path d="M63.9961,168.173h -6.80315" fill="none" stroke="black"/>
<path d="M63.9961,157.711h -6.80315" fill="none" stroke="black"/>
<path d="M63.9961,147.249h -6.80315" fill="none" stroke="black"/>
<path d="M70.7992,136.787h -13.6063" fill="none" stroke="black"/>
<path d="M63.9961,126.326h -6.80315" fill="none" stroke="black"/>
<path d="M63.9961,115.864h -6.80315" fill="none" stroke="black"/>
<path d="M63.9961,105.402h -6.80315" fill="none" stroke="black"/>
<path d="M70.7992,94.9403h -13.6063" fill="none" stroke="black"/>
<path d="M63.9961,84.4786h -6.80315" fill="none" stroke="black"/>
<path d="M63.9961,74.0169h -6.80315" fill="none" stroke="black"/>
<path d="M63.9961,63.5551h -6.80315" fill="none" stroke="black"/>
<path d="M70.7992,53.0934h -13.6063" fill="none" stroke="black"/>
<path d="M70.7992,53.0934h -13.6063" fill="none" stroke="black"/>
<path d="M63.9961,42.6316h -6.80315" fill="none" stroke="black"/>
<rect x="58.0145" y="197.388" width="170.079" height="80.7385" fill="white"/>
<path d="M58.0145,278.127h 170.079" fill="none" stroke="black"/>
<path d="M228.093,278.127v -80.7385" fill="none" stroke="black"/>
<path d="M228.093,197.388h -170.079" fill="none" stroke="black"/>
<path d="M58.0145,197.388v 80.7385" fill="none" stroke="black"/>
<text xml:space="preserve" x="99.8755" y="226.446" fill="black" font-size="26.0796" font-family="Helvetica">vop 69.08</text>
<path d="M64.3925,231.702h 29.7638v -28.2585h -29.7638z" fill="#a6bdd7" fill-opacity="0.50" stroke-opacity="0.50"/>
<path d="M64.3925,217.573h 29.7638" fill="none" stroke="#a6bdd7" fill-opacity="0.00" stroke-opacity="0.00"/>
<g stroke="black" stroke-width="1" fill="none">
<line x1="78.2744" y1="217.573" x2="79.2744" y2="217.573"/>
</g>
<text xml:space="preserve" x="99.8755" y="266.359" fill="black" font-size="26.0796" font-family="Helvetica">vop 69.18</text>
<path d="M64.3925,272.071h 29.7638v -28.2585h -29.7638z" fill="#cea262" fill-opacity="0.50" stroke-opacity="0.50"/>
<path d="M64.3925,257.942h 29.7638" fill="none" stroke="#cea262" fill-opacity="0.00" stroke-opacity="0.00"/>
<g stroke="black" stroke-width="1" fill="none">
<line x1="78.2744" y1="257.942" x2="79.2744" y2="257.942"/>
</g>
<text xml:space="preserve" x="253.826" y="18.7347" fill="black" font-size="16.9898" font-family="Helvetica">sector 8</text></svg>
