<?xml version="1.0" standalone="no"?>
<svg width="567.429" height="384.969" viewBox="0 0 567.429 384.969" xmlns="http://www.w3.org/2000/svg" shape-rendering="crispEdges">
<title>
./adjusted_vop/vop_by_sector/vop-68.98_all.svg
</title>
<desc>
Creator: ROOT Version 6.24/00
CreationDate: Mon Aug  2 10:23:06 2021</desc>
<defs>
</defs>
<rect x="0.5" y="0" width="566.929" height="384.469" fill="white"/>
<rect x="57.1929" y="38.4469" width="453.543" height="307.575" fill="white"/>
<rect x="57.1929" y="38.4469" width="453.543" height="307.575" fill="none" stroke="black"/>
<path d="M57.1929,346.022h 453.543" fill="none" stroke="#000099"/>
<path d="M57.1929,346.022h 453.543" fill="none" stroke="black"/>
<path d="M57.1929,336.795v 9.22726" fill="none" stroke="black"/>
<path d="M72.311,341.409v 4.61363" fill="none" stroke="black"/>
<path d="M87.4291,341.409v 4.61363" fill="none" stroke="black"/>
<path d="M102.547,341.409v 4.61363" fill="none" stroke="black"/>
<path d="M117.665,341.409v 4.61363" fill="none" stroke="black"/>
<path d="M132.783,336.795v 9.22726" fill="none" stroke="black"/>
<path d="M147.902,341.409v 4.61363" fill="none" stroke="black"/>
<path d="M163.02,341.409v 4.61363" fill="none" stroke="black"/>
<path d="M178.138,341.409v 4.61363" fill="none" stroke="black"/>
<path d="M193.256,341.409v 4.61363" fill="none" stroke="black"/>
<path d="M208.374,336.795v 9.22726" fill="none" stroke="black"/>
<path d="M223.492,341.409v 4.61363" fill="none" stroke="black"/>
<path d="M238.61,341.409v 4.61363" fill="none" stroke="black"/>
<path d="M253.728,341.409v 4.61363" fill="none" stroke="black"/>
<path d="M268.846,341.409v 4.61363" fill="none" stroke="black"/>
<path d="M283.965,336.795v 9.22726" fill="none" stroke="black"/>
<path d="M299.083,341.409v 4.61363" fill="none" stroke="black"/>
<path d="M314.201,341.409v 4.61363" fill="none" stroke="black"/>
<path d="M329.319,341.409v 4.61363" fill="none" stroke="black"/>
<path d="M344.437,341.409v 4.61363" fill="none" stroke="black"/>
<path d="M359.555,336.795v 9.22726" fill="none" stroke="black"/>
<path d="M374.673,341.409v 4.61363" fill="none" stroke="black"/>
<path d="M389.791,341.409v 4.61363" fill="none" stroke="black"/>
<path d="M404.909,341.409v 4.61363" fill="none" stroke="black"/>
<path d="M420.028,341.409v 4.61363" fill="none" stroke="black"/>
<path d="M435.146,336.795v 9.22726" fill="none" stroke="black"/>
<path d="M450.264,341.409v 4.61363" fill="none" stroke="black"/>
<path d="M465.382,341.409v 4.61363" fill="none" stroke="black"/>
<path d="M480.5,341.409v 4.61363" fill="none" stroke="black"/>
<path d="M495.618,341.409v 4.61363" fill="none" stroke="black"/>
<path d="M510.736,336.795v 9.22726" fill="none" stroke="black"/>
<text xml:space="preserve" x="53.446" y="358.403" fill="black" font-size="12.8453" font-family="Helvetica">0</text>
<text xml:space="preserve" x="121.868" y="358.403" fill="black" font-size="12.8453" font-family="Helvetica">100</text>
<text xml:space="preserve" x="197.622" y="358.403" fill="black" font-size="12.8453" font-family="Helvetica">200</text>
<text xml:space="preserve" x="273.375" y="358.403" fill="black" font-size="12.8453" font-family="Helvetica">300</text>
<text xml:space="preserve" x="348.314" y="358.403" fill="black" font-size="12.8453" font-family="Helvetica">400</text>
<text xml:space="preserve" x="424.068" y="358.403" fill="black" font-size="12.8453" font-family="Helvetica">500</text>
<text xml:space="preserve" x="499.821" y="358.403" fill="black" font-size="12.8453" font-family="Helvetica">600</text>
<text xml:space="preserve" x="486.788" y="369.807" fill="black" font-size="12.8453" font-family="Helvetica">mpv</text>
<path d="M57.1929,346.022v -307.575" fill="none" stroke="black"/>
<path d="M70.7992,346.022h -13.6063" fill="none" stroke="black"/>
<path d="M63.9961,339.365h -6.80315" fill="none" stroke="black"/>
<path d="M63.9961,332.707h -6.80315" fill="none" stroke="black"/>
<path d="M63.9961,326.05h -6.80315" fill="none" stroke="black"/>
<path d="M70.7992,319.392h -13.6063" fill="none" stroke="black"/>
<path d="M63.9961,312.735h -6.80315" fill="none" stroke="black"/>
<path d="M63.9961,306.077h -6.80315" fill="none" stroke="black"/>
<path d="M63.9961,299.42h -6.80315" fill="none" stroke="black"/>
<path d="M70.7992,292.762h -13.6063" fill="none" stroke="black"/>
<path d="M63.9961,286.105h -6.80315" fill="none" stroke="black"/>
<path d="M63.9961,279.448h -6.80315" fill="none" stroke="black"/>
<path d="M63.9961,272.79h -6.80315" fill="none" stroke="black"/>
<path d="M70.7992,266.133h -13.6063" fill="none" stroke="black"/>
<path d="M63.9961,259.475h -6.80315" fill="none" stroke="black"/>
<path d="M63.9961,252.818h -6.80315" fill="none" stroke="black"/>
<path d="M63.9961,246.16h -6.80315" fill="none" stroke="black"/>
<path d="M70.7992,239.503h -13.6063" fill="none" stroke="black"/>
<path d="M63.9961,232.845h -6.80315" fill="none" stroke="black"/>
<path d="M63.9961,226.188h -6.80315" fill="none" stroke="black"/>
<path d="M63.9961,219.53h -6.80315" fill="none" stroke="black"/>
<path d="M70.7992,212.873h -13.6063" fill="none" stroke="black"/>
<path d="M63.9961,206.215h -6.80315" fill="none" stroke="black"/>
<path d="M63.9961,199.558h -6.80315" fill="none" stroke="black"/>
<path d="M63.9961,192.9h -6.80315" fill="none" stroke="black"/>
<path d="M70.7992,186.243h -13.6063" fill="none" stroke="black"/>
<path d="M63.9961,179.585h -6.80315" fill="none" stroke="black"/>
<path d="M63.9961,172.928h -6.80315" fill="none" stroke="black"/>
<path d="M63.9961,166.27h -6.80315" fill="none" stroke="black"/>
<path d="M70.7992,159.613h -13.6063" fill="none" stroke="black"/>
<path d="M63.9961,152.955h -6.80315" fill="none" stroke="black"/>
<path d="M63.9961,146.298h -6.80315" fill="none" stroke="black"/>
<path d="M63.9961,139.641h -6.80315" fill="none" stroke="black"/>
<path d="M70.7992,132.983h -13.6063" fill="none" stroke="black"/>
<path d="M63.9961,126.326h -6.80315" fill="none" stroke="black"/>
<path d="M63.9961,119.668h -6.80315" fill="none" stroke="black"/>
<path d="M63.9961,113.011h -6.80315" fill="none" stroke="black"/>
<path d="M70.7992,106.353h -13.6063" fill="none" stroke="black"/>
<path d="M63.9961,99.6957h -6.80315" fill="none" stroke="black"/>
<path d="M63.9961,93.0382h -6.80315" fill="none" stroke="black"/>
<path d="M63.9961,86.3807h -6.80315" fill="none" stroke="black"/>
<path d="M70.7992,79.7233h -13.6063" fill="none" stroke="black"/>
<path d="M63.9961,73.0658h -6.80315" fill="none" stroke="black"/>
<path d="M63.9961,66.4083h -6.80315" fill="none" stroke="black"/>
<path d="M63.9961,59.7508h -6.80315" fill="none" stroke="black"/>
<path d="M70.7992,53.0934h -13.6063" fill="none" stroke="black"/>
<path d="M70.7992,53.0934h -13.6063" fill="none" stroke="black"/>
<path d="M63.9961,46.4359h -6.80315" fill="none" stroke="black"/>
<path d="M63.9961,39.7784h -6.80315" fill="none" stroke="black"/>
<text xml:space="preserve" x="47.7441" y="350.258" fill="black" font-size="12.8453" font-family="Helvetica">0</text>
<text xml:space="preserve" x="47.7441" y="324.192" fill="black" font-size="12.8453" font-family="Helvetica">2</text>
<text xml:space="preserve" x="47.7441" y="297.312" fill="black" font-size="12.8453" font-family="Helvetica">4</text>
<text xml:space="preserve" x="47.7441" y="270.432" fill="black" font-size="12.8453" font-family="Helvetica">6</text>
<text xml:space="preserve" x="47.7441" y="244.366" fill="black" font-size="12.8453" font-family="Helvetica">8</text>
<text xml:space="preserve" x="41.2277" y="217.486" fill="black" font-size="12.8453" font-family="Helvetica">10</text>
<text xml:space="preserve" x="40.4131" y="190.605" fill="black" font-size="12.8453" font-family="Helvetica">12</text>
<text xml:space="preserve" x="40.4131" y="163.725" fill="black" font-size="12.8453" font-family="Helvetica">14</text>
<text xml:space="preserve" x="40.4131" y="137.66" fill="black" font-size="12.8453" font-family="Helvetica">16</text>
<text xml:space="preserve" x="40.4131" y="110.779" fill="black" font-size="12.8453" font-family="Helvetica">18</text>
<text xml:space="preserve" x="41.2277" y="83.899" fill="black" font-size="12.8453" font-family="Helvetica">20</text>
<text xml:space="preserve" x="40.4131" y="57.8333" fill="black" font-size="12.8453" font-family="Helvetica">22</text>
<g transform="rotate(-90,27.3803,86.3427)">
<text xml:space="preserve" x="27.3803" y="86.3427" fill="black" font-size="12.8453" font-family="Helvetica">n_blocks</text>
</g>
<text xml:space="preserve" x="242.422" y="17.9202" fill="black" font-size="18.7938" font-family="Helvetica">vop 68.98</text>
<rect x="57.6465" y="346.022" width="14.211" height="0" fill="#ffb300" fill-opacity="0.50" stroke-opacity="0.50"/>
<rect x="72.7646" y="346.022" width="14.211" height="0" fill="#ffb300" fill-opacity="0.50" stroke-opacity="0.50"/>
<rect x="87.8827" y="346.022" width="14.211" height="0" fill="#ffb300" fill-opacity="0.50" stroke-opacity="0.50"/>
<rect x="103.001" y="346.022" width="14.211" height="0" fill="#ffb300" fill-opacity="0.50" stroke-opacity="0.50"/>
<rect x="118.119" y="346.022" width="14.211" height="0" fill="#ffb300" fill-opacity="0.50" stroke-opacity="0.50"/>
<rect x="133.237" y="346.022" width="14.211" height="0" fill="#ffb300" fill-opacity="0.50" stroke-opacity="0.50"/>
<rect x="148.355" y="346.022" width="14.211" height="0" fill="#ffb300" fill-opacity="0.50" stroke-opacity="0.50"/>
<rect x="163.473" y="346.022" width="14.211" height="0" fill="#ffb300" fill-opacity="0.50" stroke-opacity="0.50"/>
<rect x="178.591" y="346.022" width="14.211" height="0" fill="#ffb300" fill-opacity="0.50" stroke-opacity="0.50"/>
<rect x="193.709" y="332.707" width="14.211" height="13.3149" fill="#ffb300" fill-opacity="0.50" stroke-opacity="0.50"/>
<rect x="208.828" y="346.022" width="14.211" height="0" fill="#ffb300" fill-opacity="0.50" stroke-opacity="0.50"/>
<rect x="223.946" y="319.392" width="14.211" height="26.6299" fill="#ffb300" fill-opacity="0.50" stroke-opacity="0.50"/>
<rect x="239.064" y="172.928" width="14.211" height="173.094" fill="#ffb300" fill-opacity="0.50" stroke-opacity="0.50"/>
<rect x="254.182" y="239.503" width="14.211" height="106.52" fill="#ffb300" fill-opacity="0.50" stroke-opacity="0.50"/>
<rect x="269.3" y="159.613" width="14.211" height="186.409" fill="#ffb300" fill-opacity="0.50" stroke-opacity="0.50"/>
<rect x="284.418" y="53.0934" width="14.211" height="292.929" fill="#ffb300" fill-opacity="0.50" stroke-opacity="0.50"/>
<rect x="299.536" y="186.243" width="14.211" height="159.779" fill="#ffb300" fill-opacity="0.50" stroke-opacity="0.50"/>
<rect x="314.654" y="226.188" width="14.211" height="119.835" fill="#ffb300" fill-opacity="0.50" stroke-opacity="0.50"/>
<rect x="329.772" y="266.133" width="14.211" height="79.8897" fill="#ffb300" fill-opacity="0.50" stroke-opacity="0.50"/>
<rect x="344.891" y="319.392" width="14.211" height="26.6299" fill="#ffb300" fill-opacity="0.50" stroke-opacity="0.50"/>
<rect x="360.009" y="332.707" width="14.211" height="13.3149" fill="#ffb300" fill-opacity="0.50" stroke-opacity="0.50"/>
<rect x="375.127" y="346.022" width="14.211" height="0" fill="#ffb300" fill-opacity="0.50" stroke-opacity="0.50"/>
<rect x="390.245" y="346.022" width="14.211" height="0" fill="#ffb300" fill-opacity="0.50" stroke-opacity="0.50"/>
<rect x="405.363" y="346.022" width="14.211" height="0" fill="#ffb300" fill-opacity="0.50" stroke-opacity="0.50"/>
<rect x="420.481" y="346.022" width="14.211" height="0" fill="#ffb300" fill-opacity="0.50" stroke-opacity="0.50"/>
<rect x="435.599" y="346.022" width="14.211" height="0" fill="#ffb300" fill-opacity="0.50" stroke-opacity="0.50"/>
<rect x="450.717" y="346.022" width="14.211" height="0" fill="#ffb300" fill-opacity="0.50" stroke-opacity="0.50"/>
<rect x="465.835" y="346.022" width="14.211" height="0" fill="#ffb300" fill-opacity="0.50" stroke-opacity="0.50"/>
<rect x="480.954" y="346.022" width="14.211" height="0" fill="#ffb300" fill-opacity="0.50" stroke-opacity="0.50"/>
<rect x="496.072" y="346.022" width="14.211" height="0" fill="#ffb300" fill-opacity="0.50" stroke-opacity="0.50"/>
<path d="M59.4606,346.022h 95.2441l 4.53543, -0.0460617l 4.53543, -0.0359274l 4.53543, -0.0610019l 4.53543, -0.101351l 4.53543, -0.164753l 4.53543, -0.262004l 4.53543, -0.407563l 4.53543, -0.620055l 4.53543, -0.922441l 4.53543, -1.34164l 4.53543,
 -1.90732l 4.53543, -2.64967l 4.53543, -3.59588l 4.53543, -4.76549l 4.53543, -6.16475l 4.53543, -7.78043l 4.53543, -9.57415l 4.53543, -11.4781l 4.53543, -13.3933l 4.53543, -15.1919l 4.53543, -16.7239l 4.53543, -17.8284l 4.53543, -18.3491l 4.53543,
 -18.1524l 4.53543, -17.1456l 4.53543, -15.2929l 4.53543, -12.6263l 4.53543, -9.24895" fill="none" stroke="#ffb300" stroke-width="2"/>
<path d="M281.697,140.191l 4.53543, -5.33027l 4.53543, -1.09196l 4.53543, 3.2125l 4.53543, 7.323l 4.53543, 10.9988l 4.53543, 14.0419l 4.53543, 16.3145l 4.53543, 17.7485l 4.53543, 18.3464l 4.53543, 18.1737l 4.53543, 17.3457l 4.53543, 16.0096l 4.53543,
 14.326l 4.53543, 12.4521l 4.53543, 10.5282l 4.53543, 8.66835l 4.53543, 6.95611l 4.53543, 5.44436l 4.53543, 4.15837l 4.53543, 3.10099l 4.53543, 2.25864l 4.53543, 1.60734l 4.53543, 1.11791l 4.53543, 0.760057l 4.53543, 0.505263l 4.53543, 0.328474l
 4.53543, 0.208864l 4.53543, 0.129918l 4.53543, 0.0790625l 4.53543, 0.0470778l 4.53543, 0.0274314l 4.53543, 0.0343734h 77.1024" fill="none" stroke="#ffb300" stroke-width="2"/>
<path d="M503.933,346.022h 4.53543" fill="none" stroke="#ffb300" stroke-width="2"/>
<path d="M57.1929,346.022h 453.543" fill="none" stroke="black"/>
<path d="M57.1929,336.795v 9.22726" fill="none" stroke="black"/>
<path d="M72.311,341.409v 4.61363" fill="none" stroke="black"/>
<path d="M87.4291,341.409v 4.61363" fill="none" stroke="black"/>
<path d="M102.547,341.409v 4.61363" fill="none" stroke="black"/>
<path d="M117.665,341.409v 4.61363" fill="none" stroke="black"/>
<path d="M132.783,336.795v 9.22726" fill="none" stroke="black"/>
<path d="M147.902,341.409v 4.61363" fill="none" stroke="black"/>
<path d="M163.02,341.409v 4.61363" fill="none" stroke="black"/>
<path d="M178.138,341.409v 4.61363" fill="none" stroke="black"/>
<path d="M193.256,341.409v 4.61363" fill="none" stroke="black"/>
<path d="M208.374,336.795v 9.22726" fill="none" stroke="black"/>
<path d="M223.492,341.409v 4.61363" fill="none" stroke="black"/>
<path d="M238.61,341.409v 4.61363" fill="none" stroke="black"/>
<path d="M253.728,341.409v 4.61363" fill="none" stroke="black"/>
<path d="M268.846,341.409v 4.61363" fill="none" stroke="black"/>
<path d="M283.965,336.795v 9.22726" fill="none" stroke="black"/>
<path d="M299.083,341.409v 4.61363" fill="none" stroke="black"/>
<path d="M314.201,341.409v 4.61363" fill="none" stroke="black"/>
<path d="M329.319,341.409v 4.61363" fill="none" stroke="black"/>
<path d="M344.437,341.409v 4.61363" fill="none" stroke="black"/>
<path d="M359.555,336.795v 9.22726" fill="none" stroke="black"/>
<path d="M374.673,341.409v 4.61363" fill="none" stroke="black"/>
<path d="M389.791,341.409v 4.61363" fill="none" stroke="black"/>
<path d="M404.909,341.409v 4.61363" fill="none" stroke="black"/>
<path d="M420.028,341.409v 4.61363" fill="none" stroke="black"/>
<path d="M435.146,336.795v 9.22726" fill="none" stroke="black"/>
<path d="M450.264,341.409v 4.61363" fill="none" stroke="black"/>
<path d="M465.382,341.409v 4.61363" fill="none" stroke="black"/>
<path d="M480.5,341.409v 4.61363" fill="none" stroke="black"/>
<path d="M495.618,341.409v 4.61363" fill="none" stroke="black"/>
<path d="M510.736,336.795v 9.22726" fill="none" stroke="black"/>
<path d="M57.1929,346.022v -307.575" fill="none" stroke="black"/>
<path d="M70.7992,346.022h -13.6063" fill="none" stroke="black"/>
<path d="M63.9961,339.365h -6.80315" fill="none" stroke="black"/>
<path d="M63.9961,332.707h -6.80315" fill="none" stroke="black"/>
<path d="M63.9961,326.05h -6.80315" fill="none" stroke="black"/>
<path d="M70.7992,319.392h -13.6063" fill="none" stroke="black"/>
<path d="M63.9961,312.735h -6.80315" fill="none" stroke="black"/>
<path d="M63.9961,306.077h -6.80315" fill="none" stroke="black"/>
<path d="M63.9961,299.42h -6.80315" fill="none" stroke="black"/>
<path d="M70.7992,292.762h -13.6063" fill="none" stroke="black"/>
<path d="M63.9961,286.105h -6.80315" fill="none" stroke="black"/>
<path d="M63.9961,279.448h -6.80315" fill="none" stroke="black"/>
<path d="M63.9961,272.79h -6.80315" fill="none" stroke="black"/>
<path d="M70.7992,266.133h -13.6063" fill="none" stroke="black"/>
<path d="M63.9961,259.475h -6.80315" fill="none" stroke="black"/>
<path d="M63.9961,252.818h -6.80315" fill="none" stroke="black"/>
<path d="M63.9961,246.16h -6.80315" fill="none" stroke="black"/>
<path d="M70.7992,239.503h -13.6063" fill="none" stroke="black"/>
<path d="M63.9961,232.845h -6.80315" fill="none" stroke="black"/>
<path d="M63.9961,226.188h -6.80315" fill="none" stroke="black"/>
<path d="M63.9961,219.53h -6.80315" fill="none" stroke="black"/>
<path d="M70.7992,212.873h -13.6063" fill="none" stroke="black"/>
<path d="M63.9961,206.215h -6.80315" fill="none" stroke="black"/>
<path d="M63.9961,199.558h -6.80315" fill="none" stroke="black"/>
<path d="M63.9961,192.9h -6.80315" fill="none" stroke="black"/>
<path d="M70.7992,186.243h -13.6063" fill="none" stroke="black"/>
<path d="M63.9961,179.585h -6.80315" fill="none" stroke="black"/>
<path d="M63.9961,172.928h -6.80315" fill="none" stroke="black"/>
<path d="M63.9961,166.27h -6.80315" fill="none" stroke="black"/>
<path d="M70.7992,159.613h -13.6063" fill="none" stroke="black"/>
<path d="M63.9961,152.955h -6.80315" fill="none" stroke="black"/>
<path d="M63.9961,146.298h -6.80315" fill="none" stroke="black"/>
<path d="M63.9961,139.641h -6.80315" fill="none" stroke="black"/>
<path d="M70.7992,132.983h -13.6063" fill="none" stroke="black"/>
<path d="M63.9961,126.326h -6.80315" fill="none" stroke="black"/>
<path d="M63.9961,119.668h -6.80315" fill="none" stroke="black"/>
<path d="M63.9961,113.011h -6.80315" fill="none" stroke="black"/>
<path d="M70.7992,106.353h -13.6063" fill="none" stroke="black"/>
<path d="M63.9961,99.6957h -6.80315" fill="none" stroke="black"/>
<path d="M63.9961,93.0382h -6.80315" fill="none" stroke="black"/>
<path d="M63.9961,86.3807h -6.80315" fill="none" stroke="black"/>
<path d="M70.7992,79.7233h -13.6063" fill="none" stroke="black"/>
<path d="M63.9961,73.0658h -6.80315" fill="none" stroke="black"/>
<path d="M63.9961,66.4083h -6.80315" fill="none" stroke="black"/>
<path d="M63.9961,59.7508h -6.80315" fill="none" stroke="black"/>
<path d="M70.7992,53.0934h -13.6063" fill="none" stroke="black"/>
<path d="M70.7992,53.0934h -13.6063" fill="none" stroke="black"/>
<path d="M63.9961,46.4359h -6.80315" fill="none" stroke="black"/>
<path d="M63.9961,39.7784h -6.80315" fill="none" stroke="black"/>
<rect x="58.0145" y="246.469" width="170.079" height="80.7385" fill="white"/>
<path d="M58.0145,327.208h 170.079" fill="none" stroke="black"/>
<path d="M228.093,327.208v -80.7385" fill="none" stroke="black"/>
<path d="M228.093,246.469h -170.079" fill="none" stroke="black"/>
<path d="M58.0145,246.469v 80.7385" fill="none" stroke="black"/>
<text xml:space="preserve" x="99.8755" y="296.497" fill="black" font-size="26.1785" font-family="Helvetica">sector 1</text>
<path d="M64.3925,315.097h 29.7638v -56.517h -29.7638z" fill="#ffb300" fill-opacity="0.50" stroke-opacity="0.50"/>
<path d="M64.3925,286.839h 29.7638" fill="none" stroke="#ffb300" fill-opacity="0.00" stroke-opacity="0.00"/>
<g stroke="black" stroke-width="1" fill="none">
<line x1="78.2744" y1="286.839" x2="79.2744" y2="286.839"/>
</g>
<text xml:space="preserve" x="242.422" y="17.9202" fill="black" font-size="18.7938" font-family="Helvetica">vop 68.98</text></svg>
