<?xml version="1.0" standalone="no"?>
<svg width="567.429" height="384.969" viewBox="0 0 567.429 384.969" xmlns="http://www.w3.org/2000/svg" shape-rendering="crispEdges">
<title>
./adjusted_vop/vop_by_sector/vop-68.98_all.svg
</title>
<desc>
Creator: ROOT Version 6.22/02
CreationDate: Sat Jun 26 00:59:46 2021</desc>
<defs>
</defs>
<rect x="0.5" y="0" width="566.929" height="384.469" fill="white"/>
<rect x="57.1929" y="38.4469" width="453.543" height="307.575" fill="white"/>
<rect x="57.1929" y="38.4469" width="453.543" height="307.575" fill="none" stroke="black"/>
<path d="M57.1929,346.022h 453.543" fill="none" stroke="#000099"/>
<path d="M57.1929,346.022h 453.543" fill="none" stroke="black"/>
<path d="M57.1929,336.795v 9.22726" fill="none" stroke="black"/>
<path d="M72.311,341.409v 4.61363" fill="none" stroke="black"/>
<path d="M87.4291,341.409v 4.61363" fill="none" stroke="black"/>
<path d="M102.547,341.409v 4.61363" fill="none" stroke="black"/>
<path d="M117.665,341.409v 4.61363" fill="none" stroke="black"/>
<path d="M132.783,336.795v 9.22726" fill="none" stroke="black"/>
<path d="M147.902,341.409v 4.61363" fill="none" stroke="black"/>
<path d="M163.02,341.409v 4.61363" fill="none" stroke="black"/>
<path d="M178.138,341.409v 4.61363" fill="none" stroke="black"/>
<path d="M193.256,341.409v 4.61363" fill="none" stroke="black"/>
<path d="M208.374,336.795v 9.22726" fill="none" stroke="black"/>
<path d="M223.492,341.409v 4.61363" fill="none" stroke="black"/>
<path d="M238.61,341.409v 4.61363" fill="none" stroke="black"/>
<path d="M253.728,341.409v 4.61363" fill="none" stroke="black"/>
<path d="M268.846,341.409v 4.61363" fill="none" stroke="black"/>
<path d="M283.965,336.795v 9.22726" fill="none" stroke="black"/>
<path d="M299.083,341.409v 4.61363" fill="none" stroke="black"/>
<path d="M314.201,341.409v 4.61363" fill="none" stroke="black"/>
<path d="M329.319,341.409v 4.61363" fill="none" stroke="black"/>
<path d="M344.437,341.409v 4.61363" fill="none" stroke="black"/>
<path d="M359.555,336.795v 9.22726" fill="none" stroke="black"/>
<path d="M374.673,341.409v 4.61363" fill="none" stroke="black"/>
<path d="M389.791,341.409v 4.61363" fill="none" stroke="black"/>
<path d="M404.909,341.409v 4.61363" fill="none" stroke="black"/>
<path d="M420.028,341.409v 4.61363" fill="none" stroke="black"/>
<path d="M435.146,336.795v 9.22726" fill="none" stroke="black"/>
<path d="M450.264,341.409v 4.61363" fill="none" stroke="black"/>
<path d="M465.382,341.409v 4.61363" fill="none" stroke="black"/>
<path d="M480.5,341.409v 4.61363" fill="none" stroke="black"/>
<path d="M495.618,341.409v 4.61363" fill="none" stroke="black"/>
<path d="M510.736,336.795v 9.22726" fill="none" stroke="black"/>
<text xml:space="preserve" x="53.446" y="358.403" fill="black" font-size="12.8453" font-family="Helvetica">0</text>
<text xml:space="preserve" x="121.868" y="358.403" fill="black" font-size="12.8453" font-family="Helvetica">100</text>
<text xml:space="preserve" x="197.622" y="358.403" fill="black" font-size="12.8453" font-family="Helvetica">200</text>
<text xml:space="preserve" x="273.375" y="358.403" fill="black" font-size="12.8453" font-family="Helvetica">300</text>
<text xml:space="preserve" x="348.314" y="358.403" fill="black" font-size="12.8453" font-family="Helvetica">400</text>
<text xml:space="preserve" x="424.068" y="358.403" fill="black" font-size="12.8453" font-family="Helvetica">500</text>
<text xml:space="preserve" x="499.821" y="358.403" fill="black" font-size="12.8453" font-family="Helvetica">600</text>
<text xml:space="preserve" x="486.788" y="369.807" fill="black" font-size="12.8453" font-family="Helvetica">mpv</text>
<path d="M57.1929,346.022v -307.575" fill="none" stroke="black"/>
<path d="M70.7992,346.022h -13.6063" fill="none" stroke="black"/>
<path d="M63.9961,334.756h -6.80315" fill="none" stroke="black"/>
<path d="M63.9961,323.489h -6.80315" fill="none" stroke="black"/>
<path d="M63.9961,312.223h -6.80315" fill="none" stroke="black"/>
<path d="M70.7992,300.956h -13.6063" fill="none" stroke="black"/>
<path d="M63.9961,289.69h -6.80315" fill="none" stroke="black"/>
<path d="M63.9961,278.423h -6.80315" fill="none" stroke="black"/>
<path d="M63.9961,267.157h -6.80315" fill="none" stroke="black"/>
<path d="M70.7992,255.89h -13.6063" fill="none" stroke="black"/>
<path d="M63.9961,244.624h -6.80315" fill="none" stroke="black"/>
<path d="M63.9961,233.357h -6.80315" fill="none" stroke="black"/>
<path d="M63.9961,222.091h -6.80315" fill="none" stroke="black"/>
<path d="M70.7992,210.824h -13.6063" fill="none" stroke="black"/>
<path d="M63.9961,199.558h -6.80315" fill="none" stroke="black"/>
<path d="M63.9961,188.291h -6.80315" fill="none" stroke="black"/>
<path d="M63.9961,177.025h -6.80315" fill="none" stroke="black"/>
<path d="M70.7992,165.758h -13.6063" fill="none" stroke="black"/>
<path d="M63.9961,154.492h -6.80315" fill="none" stroke="black"/>
<path d="M63.9961,143.225h -6.80315" fill="none" stroke="black"/>
<path d="M63.9961,131.959h -6.80315" fill="none" stroke="black"/>
<path d="M70.7992,120.692h -13.6063" fill="none" stroke="black"/>
<path d="M63.9961,109.426h -6.80315" fill="none" stroke="black"/>
<path d="M63.9961,98.1593h -6.80315" fill="none" stroke="black"/>
<path d="M63.9961,86.8929h -6.80315" fill="none" stroke="black"/>
<path d="M70.7992,75.6264h -13.6063" fill="none" stroke="black"/>
<path d="M70.7992,75.6264h -13.6063" fill="none" stroke="black"/>
<path d="M63.9961,64.3599h -6.80315" fill="none" stroke="black"/>
<path d="M63.9961,53.0934h -6.80315" fill="none" stroke="black"/>
<path d="M63.9961,41.8269h -6.80315" fill="none" stroke="black"/>
<text xml:space="preserve" x="47.7441" y="350.258" fill="black" font-size="12.8453" font-family="Helvetica">0</text>
<text xml:space="preserve" x="47.7441" y="305.457" fill="black" font-size="12.8453" font-family="Helvetica">2</text>
<text xml:space="preserve" x="47.7441" y="260.657" fill="black" font-size="12.8453" font-family="Helvetica">4</text>
<text xml:space="preserve" x="47.7441" y="215.042" fill="black" font-size="12.8453" font-family="Helvetica">6</text>
<text xml:space="preserve" x="47.7441" y="170.242" fill="black" font-size="12.8453" font-family="Helvetica">8</text>
<text xml:space="preserve" x="41.2277" y="125.441" fill="black" font-size="12.8453" font-family="Helvetica">10</text>
<text xml:space="preserve" x="40.4131" y="79.8262" fill="black" font-size="12.8453" font-family="Helvetica">12</text>
<g transform="rotate(-90,27.3803,86.3427)">
<text xml:space="preserve" x="27.3803" y="86.3427" fill="black" font-size="12.8453" font-family="Helvetica">n_blocks</text>
</g>
<text xml:space="preserve" x="242.422" y="17.9202" fill="black" font-size="18.7938" font-family="Helvetica">vop 68.98</text>
<rect x="57.6465" y="346.022" width="14.211" height="0" fill="#ffb300" fill-opacity="0.50" stroke-opacity="0.50"/>
<rect x="72.7646" y="346.022" width="14.211" height="0" fill="#ffb300" fill-opacity="0.50" stroke-opacity="0.50"/>
<rect x="87.8827" y="346.022" width="14.211" height="0" fill="#ffb300" fill-opacity="0.50" stroke-opacity="0.50"/>
<rect x="103.001" y="346.022" width="14.211" height="0" fill="#ffb300" fill-opacity="0.50" stroke-opacity="0.50"/>
<rect x="118.119" y="346.022" width="14.211" height="0" fill="#ffb300" fill-opacity="0.50" stroke-opacity="0.50"/>
<rect x="133.237" y="346.022" width="14.211" height="0" fill="#ffb300" fill-opacity="0.50" stroke-opacity="0.50"/>
<rect x="148.355" y="346.022" width="14.211" height="0" fill="#ffb300" fill-opacity="0.50" stroke-opacity="0.50"/>
<rect x="163.473" y="346.022" width="14.211" height="0" fill="#ffb300" fill-opacity="0.50" stroke-opacity="0.50"/>
<rect x="178.591" y="346.022" width="14.211" height="0" fill="#ffb300" fill-opacity="0.50" stroke-opacity="0.50"/>
<rect x="193.709" y="346.022" width="14.211" height="0" fill="#ffb300" fill-opacity="0.50" stroke-opacity="0.50"/>
<rect x="208.828" y="346.022" width="14.211" height="0" fill="#ffb300" fill-opacity="0.50" stroke-opacity="0.50"/>
<rect x="223.946" y="300.956" width="14.211" height="45.066" fill="#ffb300" fill-opacity="0.50" stroke-opacity="0.50"/>
<rect x="239.064" y="165.758" width="14.211" height="180.264" fill="#ffb300" fill-opacity="0.50" stroke-opacity="0.50"/>
<rect x="254.182" y="143.225" width="14.211" height="202.797" fill="#ffb300" fill-opacity="0.50" stroke-opacity="0.50"/>
<rect x="269.3" y="120.692" width="14.211" height="225.33" fill="#ffb300" fill-opacity="0.50" stroke-opacity="0.50"/>
<rect x="284.418" y="75.6264" width="14.211" height="270.396" fill="#ffb300" fill-opacity="0.50" stroke-opacity="0.50"/>
<rect x="299.536" y="53.0934" width="14.211" height="292.929" fill="#ffb300" fill-opacity="0.50" stroke-opacity="0.50"/>
<rect x="314.654" y="120.692" width="14.211" height="225.33" fill="#ffb300" fill-opacity="0.50" stroke-opacity="0.50"/>
<rect x="329.772" y="278.423" width="14.211" height="67.599" fill="#ffb300" fill-opacity="0.50" stroke-opacity="0.50"/>
<rect x="344.891" y="323.489" width="14.211" height="22.533" fill="#ffb300" fill-opacity="0.50" stroke-opacity="0.50"/>
<rect x="360.009" y="346.022" width="14.211" height="0" fill="#ffb300" fill-opacity="0.50" stroke-opacity="0.50"/>
<rect x="375.127" y="346.022" width="14.211" height="0" fill="#ffb300" fill-opacity="0.50" stroke-opacity="0.50"/>
<rect x="390.245" y="346.022" width="14.211" height="0" fill="#ffb300" fill-opacity="0.50" stroke-opacity="0.50"/>
<rect x="405.363" y="346.022" width="14.211" height="0" fill="#ffb300" fill-opacity="0.50" stroke-opacity="0.50"/>
<rect x="420.481" y="346.022" width="14.211" height="0" fill="#ffb300" fill-opacity="0.50" stroke-opacity="0.50"/>
<rect x="435.599" y="346.022" width="14.211" height="0" fill="#ffb300" fill-opacity="0.50" stroke-opacity="0.50"/>
<rect x="450.717" y="346.022" width="14.211" height="0" fill="#ffb300" fill-opacity="0.50" stroke-opacity="0.50"/>
<rect x="465.835" y="346.022" width="14.211" height="0" fill="#ffb300" fill-opacity="0.50" stroke-opacity="0.50"/>
<rect x="480.954" y="346.022" width="14.211" height="0" fill="#ffb300" fill-opacity="0.50" stroke-opacity="0.50"/>
<rect x="496.072" y="346.022" width="14.211" height="0" fill="#ffb300" fill-opacity="0.50" stroke-opacity="0.50"/>
<path d="M59.4606,346.022h 95.2441l 4.53543, -0.0429875l 4.53543, -0.0363233l 4.53543, -0.0638321l 4.53543, -0.109586l 4.53543, -0.183775l 4.53543, -0.301007l 4.53543, -0.48147l 4.53543, -0.751957l 4.53543, -1.14649l 4.53543, -1.70614l 4.53543,
 -2.47752l 4.53543, -3.50963l 4.53543, -4.84846l 4.53543, -6.52949l 4.53543, -8.56814l 4.53543, -10.9492l 4.53543, -13.6168l 4.53543, -16.4661l 4.53543, -19.3404l 4.53543, -22.0343l 4.53543, -24.3049l 4.53543, -25.892l 4.53543, -26.5455l 4.53543,
 -26.0564l 4.53543, -24.2886l 4.53543, -21.2059l 4.53543, -16.8876l 4.53543, -11.5319" fill="none" stroke="#ffb300" stroke-width="2"/>
<path d="M281.697,56.1458l 4.53543, -5.44221l 4.53543, 1.00084l 4.53543, 7.37859l 4.53543, 13.2794l 4.53543, 18.3428l 4.53543, 22.2954l 4.53543, 24.9751l 4.53543, 26.3392l 4.53543, 26.4572l 4.53543, 25.4906l 4.53543, 23.6647l 4.53543, 21.236l
 4.53543, 18.462l 4.53543, 15.5756l 4.53543, 12.7681l 4.53543, 10.1801l 4.53543, 7.90087l 4.53543, 5.97263l 4.53543, 4.40002l 4.53543, 3.16031l 4.53543, 2.21386l 4.53543, 1.51304l 4.53543, 1.00913l 4.53543, 0.656953l 4.53543, 0.417544l 4.53543,
 0.259134l 4.53543, 0.15706l 4.53543, 0.0929792l 4.53543, 0.0537694l 4.53543, 0.0303781l 4.53543, 0.0354246h 81.6378" fill="none" stroke="#ffb300" stroke-width="2"/>
<path d="M503.933,346.022h 4.53543" fill="none" stroke="#ffb300" stroke-width="2"/>
<path d="M57.1929,346.022h 453.543" fill="none" stroke="black"/>
<path d="M57.1929,336.795v 9.22726" fill="none" stroke="black"/>
<path d="M72.311,341.409v 4.61363" fill="none" stroke="black"/>
<path d="M87.4291,341.409v 4.61363" fill="none" stroke="black"/>
<path d="M102.547,341.409v 4.61363" fill="none" stroke="black"/>
<path d="M117.665,341.409v 4.61363" fill="none" stroke="black"/>
<path d="M132.783,336.795v 9.22726" fill="none" stroke="black"/>
<path d="M147.902,341.409v 4.61363" fill="none" stroke="black"/>
<path d="M163.02,341.409v 4.61363" fill="none" stroke="black"/>
<path d="M178.138,341.409v 4.61363" fill="none" stroke="black"/>
<path d="M193.256,341.409v 4.61363" fill="none" stroke="black"/>
<path d="M208.374,336.795v 9.22726" fill="none" stroke="black"/>
<path d="M223.492,341.409v 4.61363" fill="none" stroke="black"/>
<path d="M238.61,341.409v 4.61363" fill="none" stroke="black"/>
<path d="M253.728,341.409v 4.61363" fill="none" stroke="black"/>
<path d="M268.846,341.409v 4.61363" fill="none" stroke="black"/>
<path d="M283.965,336.795v 9.22726" fill="none" stroke="black"/>
<path d="M299.083,341.409v 4.61363" fill="none" stroke="black"/>
<path d="M314.201,341.409v 4.61363" fill="none" stroke="black"/>
<path d="M329.319,341.409v 4.61363" fill="none" stroke="black"/>
<path d="M344.437,341.409v 4.61363" fill="none" stroke="black"/>
<path d="M359.555,336.795v 9.22726" fill="none" stroke="black"/>
<path d="M374.673,341.409v 4.61363" fill="none" stroke="black"/>
<path d="M389.791,341.409v 4.61363" fill="none" stroke="black"/>
<path d="M404.909,341.409v 4.61363" fill="none" stroke="black"/>
<path d="M420.028,341.409v 4.61363" fill="none" stroke="black"/>
<path d="M435.146,336.795v 9.22726" fill="none" stroke="black"/>
<path d="M450.264,341.409v 4.61363" fill="none" stroke="black"/>
<path d="M465.382,341.409v 4.61363" fill="none" stroke="black"/>
<path d="M480.5,341.409v 4.61363" fill="none" stroke="black"/>
<path d="M495.618,341.409v 4.61363" fill="none" stroke="black"/>
<path d="M510.736,336.795v 9.22726" fill="none" stroke="black"/>
<path d="M57.1929,346.022v -307.575" fill="none" stroke="black"/>
<path d="M70.7992,346.022h -13.6063" fill="none" stroke="black"/>
<path d="M63.9961,334.756h -6.80315" fill="none" stroke="black"/>
<path d="M63.9961,323.489h -6.80315" fill="none" stroke="black"/>
<path d="M63.9961,312.223h -6.80315" fill="none" stroke="black"/>
<path d="M70.7992,300.956h -13.6063" fill="none" stroke="black"/>
<path d="M63.9961,289.69h -6.80315" fill="none" stroke="black"/>
<path d="M63.9961,278.423h -6.80315" fill="none" stroke="black"/>
<path d="M63.9961,267.157h -6.80315" fill="none" stroke="black"/>
<path d="M70.7992,255.89h -13.6063" fill="none" stroke="black"/>
<path d="M63.9961,244.624h -6.80315" fill="none" stroke="black"/>
<path d="M63.9961,233.357h -6.80315" fill="none" stroke="black"/>
<path d="M63.9961,222.091h -6.80315" fill="none" stroke="black"/>
<path d="M70.7992,210.824h -13.6063" fill="none" stroke="black"/>
<path d="M63.9961,199.558h -6.80315" fill="none" stroke="black"/>
<path d="M63.9961,188.291h -6.80315" fill="none" stroke="black"/>
<path d="M63.9961,177.025h -6.80315" fill="none" stroke="black"/>
<path d="M70.7992,165.758h -13.6063" fill="none" stroke="black"/>
<path d="M63.9961,154.492h -6.80315" fill="none" stroke="black"/>
<path d="M63.9961,143.225h -6.80315" fill="none" stroke="black"/>
<path d="M63.9961,131.959h -6.80315" fill="none" stroke="black"/>
<path d="M70.7992,120.692h -13.6063" fill="none" stroke="black"/>
<path d="M63.9961,109.426h -6.80315" fill="none" stroke="black"/>
<path d="M63.9961,98.1593h -6.80315" fill="none" stroke="black"/>
<path d="M63.9961,86.8929h -6.80315" fill="none" stroke="black"/>
<path d="M70.7992,75.6264h -13.6063" fill="none" stroke="black"/>
<path d="M70.7992,75.6264h -13.6063" fill="none" stroke="black"/>
<path d="M63.9961,64.3599h -6.80315" fill="none" stroke="black"/>
<path d="M63.9961,53.0934h -6.80315" fill="none" stroke="black"/>
<path d="M63.9961,41.8269h -6.80315" fill="none" stroke="black"/>
<rect x="58.0145" y="262.83" width="170.079" height="80.7385" fill="white"/>
<path d="M58.0145,343.568h 170.079" fill="none" stroke="black"/>
<path d="M228.093,343.568v -80.7385" fill="none" stroke="black"/>
<path d="M228.093,262.83h -170.079" fill="none" stroke="black"/>
<path d="M58.0145,262.83v 80.7385" fill="none" stroke="black"/>
<text xml:space="preserve" x="99.8755" y="312.788" fill="black" font-size="26.1785" font-family="Helvetica">sector 1</text>
<path d="M64.3925,331.457h 29.7638v -56.517h -29.7638z" fill="#ffb300" fill-opacity="0.50" stroke-opacity="0.50"/>
<path d="M64.3925,303.199h 29.7638" fill="none" stroke="#ffb300" fill-opacity="0.00" stroke-opacity="0.00"/>
<g stroke="black" stroke-width="1" fill="none">
<line x1="78.2744" y1="303.199" x2="79.2744" y2="303.199"/>
</g>
<text xml:space="preserve" x="242.422" y="17.9202" fill="black" font-size="18.7938" font-family="Helvetica">vop 68.98</text></svg>
