<?xml version="1.0" standalone="no"?>
<svg width="567.429" height="384.969" viewBox="0 0 567.429 384.969" xmlns="http://www.w3.org/2000/svg" shape-rendering="crispEdges">
<title>
./adjusted_vop/vop_by_sector/vop-69.03_all.svg
</title>
<desc>
Creator: ROOT Version 6.24/00
CreationDate: Tue Jul 20 19:41:02 2021</desc>
<defs>
</defs>
<rect x="0.5" y="0" width="566.929" height="384.469" fill="white"/>
<rect x="57.1929" y="38.4469" width="453.543" height="307.575" fill="white"/>
<rect x="57.1929" y="38.4469" width="453.543" height="307.575" fill="none" stroke="black"/>
<path d="M57.1929,346.022h 453.543" fill="none" stroke="#000099"/>
<path d="M57.1929,346.022h 453.543" fill="none" stroke="black"/>
<path d="M57.1929,336.795v 9.22726" fill="none" stroke="black"/>
<path d="M72.311,341.409v 4.61363" fill="none" stroke="black"/>
<path d="M87.4291,341.409v 4.61363" fill="none" stroke="black"/>
<path d="M102.547,341.409v 4.61363" fill="none" stroke="black"/>
<path d="M117.665,341.409v 4.61363" fill="none" stroke="black"/>
<path d="M132.783,336.795v 9.22726" fill="none" stroke="black"/>
<path d="M147.902,341.409v 4.61363" fill="none" stroke="black"/>
<path d="M163.02,341.409v 4.61363" fill="none" stroke="black"/>
<path d="M178.138,341.409v 4.61363" fill="none" stroke="black"/>
<path d="M193.256,341.409v 4.61363" fill="none" stroke="black"/>
<path d="M208.374,336.795v 9.22726" fill="none" stroke="black"/>
<path d="M223.492,341.409v 4.61363" fill="none" stroke="black"/>
<path d="M238.61,341.409v 4.61363" fill="none" stroke="black"/>
<path d="M253.728,341.409v 4.61363" fill="none" stroke="black"/>
<path d="M268.846,341.409v 4.61363" fill="none" stroke="black"/>
<path d="M283.965,336.795v 9.22726" fill="none" stroke="black"/>
<path d="M299.083,341.409v 4.61363" fill="none" stroke="black"/>
<path d="M314.201,341.409v 4.61363" fill="none" stroke="black"/>
<path d="M329.319,341.409v 4.61363" fill="none" stroke="black"/>
<path d="M344.437,341.409v 4.61363" fill="none" stroke="black"/>
<path d="M359.555,336.795v 9.22726" fill="none" stroke="black"/>
<path d="M374.673,341.409v 4.61363" fill="none" stroke="black"/>
<path d="M389.791,341.409v 4.61363" fill="none" stroke="black"/>
<path d="M404.909,341.409v 4.61363" fill="none" stroke="black"/>
<path d="M420.028,341.409v 4.61363" fill="none" stroke="black"/>
<path d="M435.146,336.795v 9.22726" fill="none" stroke="black"/>
<path d="M450.264,341.409v 4.61363" fill="none" stroke="black"/>
<path d="M465.382,341.409v 4.61363" fill="none" stroke="black"/>
<path d="M480.5,341.409v 4.61363" fill="none" stroke="black"/>
<path d="M495.618,341.409v 4.61363" fill="none" stroke="black"/>
<path d="M510.736,336.795v 9.22726" fill="none" stroke="black"/>
<text xml:space="preserve" x="53.446" y="358.403" fill="black" font-size="12.8453" font-family="Helvetica">0</text>
<text xml:space="preserve" x="121.868" y="358.403" fill="black" font-size="12.8453" font-family="Helvetica">100</text>
<text xml:space="preserve" x="197.622" y="358.403" fill="black" font-size="12.8453" font-family="Helvetica">200</text>
<text xml:space="preserve" x="273.375" y="358.403" fill="black" font-size="12.8453" font-family="Helvetica">300</text>
<text xml:space="preserve" x="348.314" y="358.403" fill="black" font-size="12.8453" font-family="Helvetica">400</text>
<text xml:space="preserve" x="424.068" y="358.403" fill="black" font-size="12.8453" font-family="Helvetica">500</text>
<text xml:space="preserve" x="499.821" y="358.403" fill="black" font-size="12.8453" font-family="Helvetica">600</text>
<text xml:space="preserve" x="486.788" y="369.807" fill="black" font-size="12.8453" font-family="Helvetica">mpv</text>
<path d="M57.1929,346.022v -307.575" fill="none" stroke="black"/>
<path d="M70.7992,346.022h -13.6063" fill="none" stroke="black"/>
<path d="M63.9961,339.365h -6.80315" fill="none" stroke="black"/>
<path d="M63.9961,332.707h -6.80315" fill="none" stroke="black"/>
<path d="M63.9961,326.05h -6.80315" fill="none" stroke="black"/>
<path d="M70.7992,319.392h -13.6063" fill="none" stroke="black"/>
<path d="M63.9961,312.735h -6.80315" fill="none" stroke="black"/>
<path d="M63.9961,306.077h -6.80315" fill="none" stroke="black"/>
<path d="M63.9961,299.42h -6.80315" fill="none" stroke="black"/>
<path d="M70.7992,292.762h -13.6063" fill="none" stroke="black"/>
<path d="M63.9961,286.105h -6.80315" fill="none" stroke="black"/>
<path d="M63.9961,279.448h -6.80315" fill="none" stroke="black"/>
<path d="M63.9961,272.79h -6.80315" fill="none" stroke="black"/>
<path d="M70.7992,266.133h -13.6063" fill="none" stroke="black"/>
<path d="M63.9961,259.475h -6.80315" fill="none" stroke="black"/>
<path d="M63.9961,252.818h -6.80315" fill="none" stroke="black"/>
<path d="M63.9961,246.16h -6.80315" fill="none" stroke="black"/>
<path d="M70.7992,239.503h -13.6063" fill="none" stroke="black"/>
<path d="M63.9961,232.845h -6.80315" fill="none" stroke="black"/>
<path d="M63.9961,226.188h -6.80315" fill="none" stroke="black"/>
<path d="M63.9961,219.53h -6.80315" fill="none" stroke="black"/>
<path d="M70.7992,212.873h -13.6063" fill="none" stroke="black"/>
<path d="M63.9961,206.215h -6.80315" fill="none" stroke="black"/>
<path d="M63.9961,199.558h -6.80315" fill="none" stroke="black"/>
<path d="M63.9961,192.9h -6.80315" fill="none" stroke="black"/>
<path d="M70.7992,186.243h -13.6063" fill="none" stroke="black"/>
<path d="M63.9961,179.585h -6.80315" fill="none" stroke="black"/>
<path d="M63.9961,172.928h -6.80315" fill="none" stroke="black"/>
<path d="M63.9961,166.27h -6.80315" fill="none" stroke="black"/>
<path d="M70.7992,159.613h -13.6063" fill="none" stroke="black"/>
<path d="M63.9961,152.955h -6.80315" fill="none" stroke="black"/>
<path d="M63.9961,146.298h -6.80315" fill="none" stroke="black"/>
<path d="M63.9961,139.641h -6.80315" fill="none" stroke="black"/>
<path d="M70.7992,132.983h -13.6063" fill="none" stroke="black"/>
<path d="M63.9961,126.326h -6.80315" fill="none" stroke="black"/>
<path d="M63.9961,119.668h -6.80315" fill="none" stroke="black"/>
<path d="M63.9961,113.011h -6.80315" fill="none" stroke="black"/>
<path d="M70.7992,106.353h -13.6063" fill="none" stroke="black"/>
<path d="M63.9961,99.6957h -6.80315" fill="none" stroke="black"/>
<path d="M63.9961,93.0382h -6.80315" fill="none" stroke="black"/>
<path d="M63.9961,86.3807h -6.80315" fill="none" stroke="black"/>
<path d="M70.7992,79.7233h -13.6063" fill="none" stroke="black"/>
<path d="M63.9961,73.0658h -6.80315" fill="none" stroke="black"/>
<path d="M63.9961,66.4083h -6.80315" fill="none" stroke="black"/>
<path d="M63.9961,59.7508h -6.80315" fill="none" stroke="black"/>
<path d="M70.7992,53.0934h -13.6063" fill="none" stroke="black"/>
<path d="M70.7992,53.0934h -13.6063" fill="none" stroke="black"/>
<path d="M63.9961,46.4359h -6.80315" fill="none" stroke="black"/>
<path d="M63.9961,39.7784h -6.80315" fill="none" stroke="black"/>
<text xml:space="preserve" x="47.7441" y="350.258" fill="black" font-size="12.8453" font-family="Helvetica">0</text>
<text xml:space="preserve" x="47.7441" y="324.192" fill="black" font-size="12.8453" font-family="Helvetica">2</text>
<text xml:space="preserve" x="47.7441" y="297.312" fill="black" font-size="12.8453" font-family="Helvetica">4</text>
<text xml:space="preserve" x="47.7441" y="270.432" fill="black" font-size="12.8453" font-family="Helvetica">6</text>
<text xml:space="preserve" x="47.7441" y="244.366" fill="black" font-size="12.8453" font-family="Helvetica">8</text>
<text xml:space="preserve" x="41.2277" y="217.486" fill="black" font-size="12.8453" font-family="Helvetica">10</text>
<text xml:space="preserve" x="40.4131" y="190.605" fill="black" font-size="12.8453" font-family="Helvetica">12</text>
<text xml:space="preserve" x="40.4131" y="163.725" fill="black" font-size="12.8453" font-family="Helvetica">14</text>
<text xml:space="preserve" x="40.4131" y="137.66" fill="black" font-size="12.8453" font-family="Helvetica">16</text>
<text xml:space="preserve" x="40.4131" y="110.779" fill="black" font-size="12.8453" font-family="Helvetica">18</text>
<text xml:space="preserve" x="41.2277" y="83.899" fill="black" font-size="12.8453" font-family="Helvetica">20</text>
<text xml:space="preserve" x="40.4131" y="57.8333" fill="black" font-size="12.8453" font-family="Helvetica">22</text>
<g transform="rotate(-90,27.3803,86.3427)">
<text xml:space="preserve" x="27.3803" y="86.3427" fill="black" font-size="12.8453" font-family="Helvetica">n_blocks</text>
</g>
<text xml:space="preserve" x="243.237" y="17.9202" fill="black" font-size="18.7938" font-family="Helvetica">vop 69.03</text>
<rect x="57.6465" y="346.022" width="4.73197" height="0" fill="#ff7a5c" fill-opacity="0.50" stroke-opacity="0.50"/>
<rect x="72.7646" y="346.022" width="4.73197" height="0" fill="#ff7a5c" fill-opacity="0.50" stroke-opacity="0.50"/>
<rect x="87.8827" y="346.022" width="4.73197" height="0" fill="#ff7a5c" fill-opacity="0.50" stroke-opacity="0.50"/>
<rect x="103.001" y="346.022" width="4.73197" height="0" fill="#ff7a5c" fill-opacity="0.50" stroke-opacity="0.50"/>
<rect x="118.119" y="346.022" width="4.73197" height="0" fill="#ff7a5c" fill-opacity="0.50" stroke-opacity="0.50"/>
<rect x="133.237" y="346.022" width="4.73197" height="0" fill="#ff7a5c" fill-opacity="0.50" stroke-opacity="0.50"/>
<rect x="148.355" y="346.022" width="4.73197" height="0" fill="#ff7a5c" fill-opacity="0.50" stroke-opacity="0.50"/>
<rect x="163.473" y="346.022" width="4.73197" height="0" fill="#ff7a5c" fill-opacity="0.50" stroke-opacity="0.50"/>
<rect x="178.591" y="346.022" width="4.73197" height="0" fill="#ff7a5c" fill-opacity="0.50" stroke-opacity="0.50"/>
<rect x="193.709" y="319.392" width="4.73197" height="26.6299" fill="#ff7a5c" fill-opacity="0.50" stroke-opacity="0.50"/>
<rect x="208.828" y="279.448" width="4.73197" height="66.5747" fill="#ff7a5c" fill-opacity="0.50" stroke-opacity="0.50"/>
<rect x="223.946" y="266.133" width="4.73197" height="79.8897" fill="#ff7a5c" fill-opacity="0.50" stroke-opacity="0.50"/>
<rect x="239.064" y="279.448" width="4.73197" height="66.5747" fill="#ff7a5c" fill-opacity="0.50" stroke-opacity="0.50"/>
<rect x="254.182" y="252.818" width="4.73197" height="93.2047" fill="#ff7a5c" fill-opacity="0.50" stroke-opacity="0.50"/>
<rect x="269.3" y="279.448" width="4.73197" height="66.5747" fill="#ff7a5c" fill-opacity="0.50" stroke-opacity="0.50"/>
<rect x="284.418" y="226.188" width="4.73197" height="119.835" fill="#ff7a5c" fill-opacity="0.50" stroke-opacity="0.50"/>
<rect x="299.536" y="292.762" width="4.73197" height="53.2598" fill="#ff7a5c" fill-opacity="0.50" stroke-opacity="0.50"/>
<rect x="314.654" y="306.077" width="4.73197" height="39.9448" fill="#ff7a5c" fill-opacity="0.50" stroke-opacity="0.50"/>
<rect x="329.772" y="332.707" width="4.73197" height="13.3149" fill="#ff7a5c" fill-opacity="0.50" stroke-opacity="0.50"/>
<rect x="344.891" y="332.707" width="4.73197" height="13.3149" fill="#ff7a5c" fill-opacity="0.50" stroke-opacity="0.50"/>
<rect x="360.009" y="346.022" width="4.73197" height="0" fill="#ff7a5c" fill-opacity="0.50" stroke-opacity="0.50"/>
<rect x="375.127" y="332.707" width="4.73197" height="13.3149" fill="#ff7a5c" fill-opacity="0.50" stroke-opacity="0.50"/>
<rect x="390.245" y="346.022" width="4.73197" height="0" fill="#ff7a5c" fill-opacity="0.50" stroke-opacity="0.50"/>
<rect x="405.363" y="346.022" width="4.73197" height="0" fill="#ff7a5c" fill-opacity="0.50" stroke-opacity="0.50"/>
<rect x="420.481" y="346.022" width="4.73197" height="0" fill="#ff7a5c" fill-opacity="0.50" stroke-opacity="0.50"/>
<rect x="435.599" y="346.022" width="4.73197" height="0" fill="#ff7a5c" fill-opacity="0.50" stroke-opacity="0.50"/>
<rect x="450.717" y="346.022" width="4.73197" height="0" fill="#ff7a5c" fill-opacity="0.50" stroke-opacity="0.50"/>
<rect x="465.835" y="346.022" width="4.73197" height="0" fill="#ff7a5c" fill-opacity="0.50" stroke-opacity="0.50"/>
<rect x="480.954" y="346.022" width="4.73197" height="0" fill="#ff7a5c" fill-opacity="0.50" stroke-opacity="0.50"/>
<rect x="496.072" y="332.707" width="4.73197" height="13.3149" fill="#ff7a5c" fill-opacity="0.50" stroke-opacity="0.50"/>
<path d="M59.4606,346.022h 27.2126l 4.53543, -0.0459889l 4.53543, -0.0222368l 4.53543, -0.0319248l 4.53543, -0.0453179l 4.53543, -0.0636031l 4.53543, -0.0882537l 4.53543, -0.121063l 4.53543, -0.164167l 4.53543, -0.220056l 4.53543, -0.291557l 4.53543,
 -0.381788l 4.53543, -0.494077l 4.53543, -0.631828l 4.53543, -0.798345l 4.53543, -0.996595l 4.53543, -1.22893l 4.53543, -1.49676l 4.53543, -1.80018l 4.53543, -2.13767l 4.53543, -2.50569l 4.53543, -2.89843l 4.53543, -3.30764l 4.53543, -3.72253l
 4.53543, -4.12991l 4.53543, -4.51443l 4.53543, -4.85913l 4.53543, -5.14606l 4.53543, -5.35719l 4.53543, -5.47537l 4.53543, -5.48541l 4.53543, -5.37521l 4.53543, -5.13666l 4.53543, -4.76659l 4.53543, -4.26726l 4.53543, -3.64673l 4.53543, -2.91873l
 4.53543, -2.10225l 4.53543, -1.22072l 4.53543, -0.300937l 4.53543, 0.628336l 4.53543, 1.53783l 4.53543, 2.3993l 4.53543, 3.187" fill="none" stroke="#ff7a5c" stroke-width="2"/>
<path d="M281.697,265.577l 4.53543, 3.87896l 4.53543, 4.45797l 4.53543, 4.91228l 4.53543, 5.23587l 4.53543, 5.42846l 4.53543, 5.49505l 4.53543, 5.44526l 4.53543, 5.2924l 4.53543, 5.05248l 4.53543, 4.74307l 4.53543, 4.38229l 4.53543, 3.98783l 4.53543,
 3.57615l 4.53543, 3.16188l 4.53543, 2.75738l 4.53543, 2.37256l 4.53543, 2.01478l 4.53543, 1.68902l 4.53543, 1.39809l 4.53543, 1.14288l 4.53543, 0.922798l 4.53543, 0.73606l 4.53543, 0.580064l 4.53543, 0.451691l 4.53543, 0.34758l 4.53543, 0.264335l
 4.53543, 0.198689l 4.53543, 0.147621l 4.53543, 0.108418l 4.53543, 0.0787164l 4.53543, 0.0565014l 4.53543, 0.0400965l 4.53543, 0.0281337l 4.53543, 0.0195181l 4.53543, 0.0399086h 63.4961" fill="none" stroke="#ff7a5c" stroke-width="2"/>
<path d="M503.933,346.022h 4.53543" fill="none" stroke="#ff7a5c" stroke-width="2"/>
<rect x="62.3784" y="346.022" width="4.73197" height="0" fill="#53377a" fill-opacity="0.50" stroke-opacity="0.50"/>
<rect x="77.4965" y="346.022" width="4.73197" height="0" fill="#53377a" fill-opacity="0.50" stroke-opacity="0.50"/>
<rect x="92.6146" y="346.022" width="4.73197" height="0" fill="#53377a" fill-opacity="0.50" stroke-opacity="0.50"/>
<rect x="107.733" y="346.022" width="4.73197" height="0" fill="#53377a" fill-opacity="0.50" stroke-opacity="0.50"/>
<rect x="122.851" y="346.022" width="4.73197" height="0" fill="#53377a" fill-opacity="0.50" stroke-opacity="0.50"/>
<rect x="137.969" y="346.022" width="4.73197" height="0" fill="#53377a" fill-opacity="0.50" stroke-opacity="0.50"/>
<rect x="153.087" y="346.022" width="4.73197" height="0" fill="#53377a" fill-opacity="0.50" stroke-opacity="0.50"/>
<rect x="168.205" y="346.022" width="4.73197" height="0" fill="#53377a" fill-opacity="0.50" stroke-opacity="0.50"/>
<rect x="183.323" y="332.707" width="4.73197" height="13.3149" fill="#53377a" fill-opacity="0.50" stroke-opacity="0.50"/>
<rect x="198.441" y="319.392" width="4.73197" height="26.6299" fill="#53377a" fill-opacity="0.50" stroke-opacity="0.50"/>
<rect x="213.56" y="226.188" width="4.73197" height="119.835" fill="#53377a" fill-opacity="0.50" stroke-opacity="0.50"/>
<rect x="228.678" y="146.298" width="4.73197" height="199.724" fill="#53377a" fill-opacity="0.50" stroke-opacity="0.50"/>
<rect x="243.796" y="172.928" width="4.73197" height="173.094" fill="#53377a" fill-opacity="0.50" stroke-opacity="0.50"/>
<rect x="258.914" y="172.928" width="4.73197" height="173.094" fill="#53377a" fill-opacity="0.50" stroke-opacity="0.50"/>
<rect x="274.032" y="186.243" width="4.73197" height="159.779" fill="#53377a" fill-opacity="0.50" stroke-opacity="0.50"/>
<rect x="289.15" y="212.873" width="4.73197" height="133.149" fill="#53377a" fill-opacity="0.50" stroke-opacity="0.50"/>
<rect x="304.268" y="252.818" width="4.73197" height="93.2047" fill="#53377a" fill-opacity="0.50" stroke-opacity="0.50"/>
<rect x="319.386" y="306.077" width="4.73197" height="39.9448" fill="#53377a" fill-opacity="0.50" stroke-opacity="0.50"/>
<rect x="334.504" y="306.077" width="4.73197" height="39.9448" fill="#53377a" fill-opacity="0.50" stroke-opacity="0.50"/>
<rect x="349.623" y="319.392" width="4.73197" height="26.6299" fill="#53377a" fill-opacity="0.50" stroke-opacity="0.50"/>
<rect x="364.741" y="332.707" width="4.73197" height="13.3149" fill="#53377a" fill-opacity="0.50" stroke-opacity="0.50"/>
<rect x="379.859" y="346.022" width="4.73197" height="0" fill="#53377a" fill-opacity="0.50" stroke-opacity="0.50"/>
<rect x="394.977" y="346.022" width="4.73197" height="0" fill="#53377a" fill-opacity="0.50" stroke-opacity="0.50"/>
<rect x="410.095" y="346.022" width="4.73197" height="0" fill="#53377a" fill-opacity="0.50" stroke-opacity="0.50"/>
<rect x="425.213" y="346.022" width="4.73197" height="0" fill="#53377a" fill-opacity="0.50" stroke-opacity="0.50"/>
<rect x="440.331" y="346.022" width="4.73197" height="0" fill="#53377a" fill-opacity="0.50" stroke-opacity="0.50"/>
<rect x="455.449" y="346.022" width="4.73197" height="0" fill="#53377a" fill-opacity="0.50" stroke-opacity="0.50"/>
<rect x="470.567" y="346.022" width="4.73197" height="0" fill="#53377a" fill-opacity="0.50" stroke-opacity="0.50"/>
<rect x="485.686" y="346.022" width="4.73197" height="0" fill="#53377a" fill-opacity="0.50" stroke-opacity="0.50"/>
<rect x="500.804" y="346.022" width="4.73197" height="0" fill="#53377a" fill-opacity="0.50" stroke-opacity="0.50"/>
<path d="M59.4606,346.022h 49.8898l 4.53543, -0.0456367l 4.53543, -0.0294638l 4.53543, -0.0466013l 4.53543, -0.0725107l 4.53543, -0.110986l 4.53543, -0.167097l 4.53543, -0.247437l 4.53543, -0.360342l 4.53543, -0.516033l 4.53543, -0.726609l 4.53543,
 -1.00584l 4.53543, -1.36867l 4.53543, -1.83036l 4.53543, -2.40524l 4.53543, -3.10508l 4.53543, -3.93702l 4.53543, -4.90132l 4.53543, -5.98905l 4.53543, -7.17995l 4.53543, -8.44086l 4.53543, -9.72502l 4.53543, -10.9725l 4.53543, -12.1124l 4.53543,
 -13.0659l 4.53543, -13.7518l 4.53543, -14.0923l 4.53543, -14.0203l 4.53543, -13.4861l 4.53543, -12.4641l 4.53543, -10.9567l 4.53543, -8.99761l 4.53543, -6.65126l 4.53543, -4.0096l 4.53543, -1.18635l 4.53543, 1.69113l 4.53543, 4.49137l 4.53543,
 7.08876l 4.53543, 9.37286" fill="none" stroke="#53377a" stroke-width="2"/>
<path d="M281.697,180.688l 4.53543, 11.2562l 4.53543, 12.6797l 4.53543, 13.6152l 4.53543, 14.0653l 4.53543, 14.0605l 4.53543, 13.6539l 4.53543, 12.9151l 4.53543, 11.9229l 4.53543, 10.7585l 4.53543, 9.4997l 4.53543, 8.21565l 4.53543, 6.96406l 4.53543,
 5.7893l 4.53543, 4.72218l 4.53543, 3.78083l 4.53543, 2.9724l 4.53543, 2.29524l 4.53543, 1.74124l 4.53543, 1.29804l 4.53543, 0.951044l 4.53543, 0.684961l 4.53543, 0.485006l 4.53543, 0.337674l 4.53543, 0.231189l 4.53543, 0.155669l 4.53543, 0.103095l
 4.53543, 0.06716l 4.53543, 0.0430382l 4.53543, 0.0271329l 4.53543, 0.041738h 86.1732" fill="none" stroke="#53377a" stroke-width="2"/>
<path d="M503.933,346.022h 4.53543" fill="none" stroke="#53377a" stroke-width="2"/>
<rect x="67.1104" y="346.022" width="4.73197" height="0" fill="#ff8e00" fill-opacity="0.50" stroke-opacity="0.50"/>
<rect x="82.2285" y="346.022" width="4.73197" height="0" fill="#ff8e00" fill-opacity="0.50" stroke-opacity="0.50"/>
<rect x="97.3466" y="346.022" width="4.73197" height="0" fill="#ff8e00" fill-opacity="0.50" stroke-opacity="0.50"/>
<rect x="112.465" y="346.022" width="4.73197" height="0" fill="#ff8e00" fill-opacity="0.50" stroke-opacity="0.50"/>
<rect x="127.583" y="346.022" width="4.73197" height="0" fill="#ff8e00" fill-opacity="0.50" stroke-opacity="0.50"/>
<rect x="142.701" y="346.022" width="4.73197" height="0" fill="#ff8e00" fill-opacity="0.50" stroke-opacity="0.50"/>
<rect x="157.819" y="346.022" width="4.73197" height="0" fill="#ff8e00" fill-opacity="0.50" stroke-opacity="0.50"/>
<rect x="172.937" y="346.022" width="4.73197" height="0" fill="#ff8e00" fill-opacity="0.50" stroke-opacity="0.50"/>
<rect x="188.055" y="332.707" width="4.73197" height="13.3149" fill="#ff8e00" fill-opacity="0.50" stroke-opacity="0.50"/>
<rect x="203.173" y="332.707" width="4.73197" height="13.3149" fill="#ff8e00" fill-opacity="0.50" stroke-opacity="0.50"/>
<rect x="218.292" y="306.077" width="4.73197" height="39.9448" fill="#ff8e00" fill-opacity="0.50" stroke-opacity="0.50"/>
<rect x="233.41" y="119.668" width="4.73197" height="226.354" fill="#ff8e00" fill-opacity="0.50" stroke-opacity="0.50"/>
<rect x="248.528" y="79.7233" width="4.73197" height="266.299" fill="#ff8e00" fill-opacity="0.50" stroke-opacity="0.50"/>
<rect x="263.646" y="53.0934" width="4.73197" height="292.929" fill="#ff8e00" fill-opacity="0.50" stroke-opacity="0.50"/>
<rect x="278.764" y="332.707" width="4.73197" height="13.3149" fill="#ff8e00" fill-opacity="0.50" stroke-opacity="0.50"/>
<rect x="293.882" y="332.707" width="4.73197" height="13.3149" fill="#ff8e00" fill-opacity="0.50" stroke-opacity="0.50"/>
<rect x="309" y="346.022" width="4.73197" height="0" fill="#ff8e00" fill-opacity="0.50" stroke-opacity="0.50"/>
<rect x="324.118" y="346.022" width="4.73197" height="0" fill="#ff8e00" fill-opacity="0.50" stroke-opacity="0.50"/>
<rect x="339.236" y="346.022" width="4.73197" height="0" fill="#ff8e00" fill-opacity="0.50" stroke-opacity="0.50"/>
<rect x="354.354" y="346.022" width="4.73197" height="0" fill="#ff8e00" fill-opacity="0.50" stroke-opacity="0.50"/>
<rect x="369.473" y="346.022" width="4.73197" height="0" fill="#ff8e00" fill-opacity="0.50" stroke-opacity="0.50"/>
<rect x="384.591" y="346.022" width="4.73197" height="0" fill="#ff8e00" fill-opacity="0.50" stroke-opacity="0.50"/>
<rect x="399.709" y="346.022" width="4.73197" height="0" fill="#ff8e00" fill-opacity="0.50" stroke-opacity="0.50"/>
<rect x="414.827" y="346.022" width="4.73197" height="0" fill="#ff8e00" fill-opacity="0.50" stroke-opacity="0.50"/>
<rect x="429.945" y="346.022" width="4.73197" height="0" fill="#ff8e00" fill-opacity="0.50" stroke-opacity="0.50"/>
<rect x="445.063" y="346.022" width="4.73197" height="0" fill="#ff8e00" fill-opacity="0.50" stroke-opacity="0.50"/>
<rect x="460.181" y="346.022" width="4.73197" height="0" fill="#ff8e00" fill-opacity="0.50" stroke-opacity="0.50"/>
<rect x="475.299" y="346.022" width="4.73197" height="0" fill="#ff8e00" fill-opacity="0.50" stroke-opacity="0.50"/>
<rect x="490.417" y="346.022" width="4.73197" height="0" fill="#ff8e00" fill-opacity="0.50" stroke-opacity="0.50"/>
<rect x="505.536" y="346.022" width="4.73197" height="0" fill="#ff8e00" fill-opacity="0.50" stroke-opacity="0.50"/>
<path d="M59.4606,346.022h 122.457l 4.53543, -0.0815122l 4.53543, -0.200439l 4.53543, -0.599897l 4.53543, -1.61208l 4.53543, -3.88345l 4.53543, -8.36847l 4.53543, -16.0837l 4.53543, -27.4523l 4.53543, -41.3432l 4.53543, -54.3581l 4.53543, -61.2193l
 4.53543, -56.7484l 4.16498, -35.6246" fill="none" stroke="#ff8e00" stroke-width="2"/>
<path d="M248.309,38.4469l 1.6397, 7.63486" fill="none" stroke="#ff8e00" stroke-width="2"/>
<path d="M249.949,46.0818l 4.53543, 46.5705l 4.53543, 59.8417l 4.53543, 59.8678l 4.53543, 50.1904l 4.53543, 36.3368l 4.53543, 23.0678l 4.53543, 12.955l 4.53543, 6.47235l 4.53543, 2.88735l 4.53543, 1.15317l 4.53543, 0.413116l 4.53543, 0.132944l
 4.53543, 0.051457h 158.74" fill="none" stroke="#ff8e00" stroke-width="2"/>
<path d="M467.65,346.022h 40.8189" fill="none" stroke="#ff8e00" stroke-width="2"/>
<path d="M57.1929,346.022h 453.543" fill="none" stroke="black"/>
<path d="M57.1929,336.795v 9.22726" fill="none" stroke="black"/>
<path d="M72.311,341.409v 4.61363" fill="none" stroke="black"/>
<path d="M87.4291,341.409v 4.61363" fill="none" stroke="black"/>
<path d="M102.547,341.409v 4.61363" fill="none" stroke="black"/>
<path d="M117.665,341.409v 4.61363" fill="none" stroke="black"/>
<path d="M132.783,336.795v 9.22726" fill="none" stroke="black"/>
<path d="M147.902,341.409v 4.61363" fill="none" stroke="black"/>
<path d="M163.02,341.409v 4.61363" fill="none" stroke="black"/>
<path d="M178.138,341.409v 4.61363" fill="none" stroke="black"/>
<path d="M193.256,341.409v 4.61363" fill="none" stroke="black"/>
<path d="M208.374,336.795v 9.22726" fill="none" stroke="black"/>
<path d="M223.492,341.409v 4.61363" fill="none" stroke="black"/>
<path d="M238.61,341.409v 4.61363" fill="none" stroke="black"/>
<path d="M253.728,341.409v 4.61363" fill="none" stroke="black"/>
<path d="M268.846,341.409v 4.61363" fill="none" stroke="black"/>
<path d="M283.965,336.795v 9.22726" fill="none" stroke="black"/>
<path d="M299.083,341.409v 4.61363" fill="none" stroke="black"/>
<path d="M314.201,341.409v 4.61363" fill="none" stroke="black"/>
<path d="M329.319,341.409v 4.61363" fill="none" stroke="black"/>
<path d="M344.437,341.409v 4.61363" fill="none" stroke="black"/>
<path d="M359.555,336.795v 9.22726" fill="none" stroke="black"/>
<path d="M374.673,341.409v 4.61363" fill="none" stroke="black"/>
<path d="M389.791,341.409v 4.61363" fill="none" stroke="black"/>
<path d="M404.909,341.409v 4.61363" fill="none" stroke="black"/>
<path d="M420.028,341.409v 4.61363" fill="none" stroke="black"/>
<path d="M435.146,336.795v 9.22726" fill="none" stroke="black"/>
<path d="M450.264,341.409v 4.61363" fill="none" stroke="black"/>
<path d="M465.382,341.409v 4.61363" fill="none" stroke="black"/>
<path d="M480.5,341.409v 4.61363" fill="none" stroke="black"/>
<path d="M495.618,341.409v 4.61363" fill="none" stroke="black"/>
<path d="M510.736,336.795v 9.22726" fill="none" stroke="black"/>
<path d="M57.1929,346.022v -307.575" fill="none" stroke="black"/>
<path d="M70.7992,346.022h -13.6063" fill="none" stroke="black"/>
<path d="M63.9961,339.365h -6.80315" fill="none" stroke="black"/>
<path d="M63.9961,332.707h -6.80315" fill="none" stroke="black"/>
<path d="M63.9961,326.05h -6.80315" fill="none" stroke="black"/>
<path d="M70.7992,319.392h -13.6063" fill="none" stroke="black"/>
<path d="M63.9961,312.735h -6.80315" fill="none" stroke="black"/>
<path d="M63.9961,306.077h -6.80315" fill="none" stroke="black"/>
<path d="M63.9961,299.42h -6.80315" fill="none" stroke="black"/>
<path d="M70.7992,292.762h -13.6063" fill="none" stroke="black"/>
<path d="M63.9961,286.105h -6.80315" fill="none" stroke="black"/>
<path d="M63.9961,279.448h -6.80315" fill="none" stroke="black"/>
<path d="M63.9961,272.79h -6.80315" fill="none" stroke="black"/>
<path d="M70.7992,266.133h -13.6063" fill="none" stroke="black"/>
<path d="M63.9961,259.475h -6.80315" fill="none" stroke="black"/>
<path d="M63.9961,252.818h -6.80315" fill="none" stroke="black"/>
<path d="M63.9961,246.16h -6.80315" fill="none" stroke="black"/>
<path d="M70.7992,239.503h -13.6063" fill="none" stroke="black"/>
<path d="M63.9961,232.845h -6.80315" fill="none" stroke="black"/>
<path d="M63.9961,226.188h -6.80315" fill="none" stroke="black"/>
<path d="M63.9961,219.53h -6.80315" fill="none" stroke="black"/>
<path d="M70.7992,212.873h -13.6063" fill="none" stroke="black"/>
<path d="M63.9961,206.215h -6.80315" fill="none" stroke="black"/>
<path d="M63.9961,199.558h -6.80315" fill="none" stroke="black"/>
<path d="M63.9961,192.9h -6.80315" fill="none" stroke="black"/>
<path d="M70.7992,186.243h -13.6063" fill="none" stroke="black"/>
<path d="M63.9961,179.585h -6.80315" fill="none" stroke="black"/>
<path d="M63.9961,172.928h -6.80315" fill="none" stroke="black"/>
<path d="M63.9961,166.27h -6.80315" fill="none" stroke="black"/>
<path d="M70.7992,159.613h -13.6063" fill="none" stroke="black"/>
<path d="M63.9961,152.955h -6.80315" fill="none" stroke="black"/>
<path d="M63.9961,146.298h -6.80315" fill="none" stroke="black"/>
<path d="M63.9961,139.641h -6.80315" fill="none" stroke="black"/>
<path d="M70.7992,132.983h -13.6063" fill="none" stroke="black"/>
<path d="M63.9961,126.326h -6.80315" fill="none" stroke="black"/>
<path d="M63.9961,119.668h -6.80315" fill="none" stroke="black"/>
<path d="M63.9961,113.011h -6.80315" fill="none" stroke="black"/>
<path d="M70.7992,106.353h -13.6063" fill="none" stroke="black"/>
<path d="M63.9961,99.6957h -6.80315" fill="none" stroke="black"/>
<path d="M63.9961,93.0382h -6.80315" fill="none" stroke="black"/>
<path d="M63.9961,86.3807h -6.80315" fill="none" stroke="black"/>
<path d="M70.7992,79.7233h -13.6063" fill="none" stroke="black"/>
<path d="M63.9961,73.0658h -6.80315" fill="none" stroke="black"/>
<path d="M63.9961,66.4083h -6.80315" fill="none" stroke="black"/>
<path d="M63.9961,59.7508h -6.80315" fill="none" stroke="black"/>
<path d="M70.7992,53.0934h -13.6063" fill="none" stroke="black"/>
<path d="M70.7992,53.0934h -13.6063" fill="none" stroke="black"/>
<path d="M63.9961,46.4359h -6.80315" fill="none" stroke="black"/>
<path d="M63.9961,39.7784h -6.80315" fill="none" stroke="black"/>
<rect x="58.0145" y="140.127" width="170.079" height="80.7385" fill="white"/>
<path d="M58.0145,220.865h 170.079" fill="none" stroke="black"/>
<path d="M228.093,220.865v -80.7385" fill="none" stroke="black"/>
<path d="M228.093,140.127h -170.079" fill="none" stroke="black"/>
<path d="M58.0145,140.127v 80.7385" fill="none" stroke="black"/>
<text xml:space="preserve" x="99.8755" y="158.838" fill="black" font-size="16.1932" font-family="Helvetica">sector 11</text>
<path d="M64.3925,163.003h 29.7638v -18.839h -29.7638z" fill="#ff7a5c" fill-opacity="0.50" stroke-opacity="0.50"/>
<path d="M64.3925,153.583h 29.7638" fill="none" stroke="#ff7a5c" fill-opacity="0.00" stroke-opacity="0.00"/>
<g stroke="black" stroke-width="1" fill="none">
<line x1="78.2744" y1="153.583" x2="79.2744" y2="153.583"/>
</g>
<text xml:space="preserve" x="99.8755" y="186.533" fill="black" font-size="16.1932" font-family="Helvetica">sector 12</text>
<path d="M64.3925,189.915h 29.7638v -18.839h -29.7638z" fill="#53377a" fill-opacity="0.50" stroke-opacity="0.50"/>
<path d="M64.3925,180.496h 29.7638" fill="none" stroke="#53377a" fill-opacity="0.00" stroke-opacity="0.00"/>
<g stroke="black" stroke-width="1" fill="none">
<line x1="78.2744" y1="180.496" x2="79.2744" y2="180.496"/>
</g>
<text xml:space="preserve" x="99.8755" y="213.413" fill="black" font-size="16.1932" font-family="Helvetica">sector 13</text>
<path d="M64.3925,216.828h 29.7638v -18.839h -29.7638z" fill="#ff8e00" fill-opacity="0.50" stroke-opacity="0.50"/>
<path d="M64.3925,207.409h 29.7638" fill="none" stroke="#ff8e00" fill-opacity="0.00" stroke-opacity="0.00"/>
<g stroke="black" stroke-width="1" fill="none">
<line x1="78.2744" y1="207.409" x2="79.2744" y2="207.409"/>
</g>
<text xml:space="preserve" x="243.237" y="17.9202" fill="black" font-size="18.7938" font-family="Helvetica">vop 69.03</text></svg>
