<?xml version="1.0" standalone="no"?>
<svg width="567.429" height="384.969" viewBox="0 0 567.429 384.969" xmlns="http://www.w3.org/2000/svg" shape-rendering="crispEdges">
<title>
./adjusted_vop/vop_by_sector/vop-69.03_all.svg
</title>
<desc>
Creator: ROOT Version 6.24/00
CreationDate: Mon Jul 19 13:36:07 2021</desc>
<defs>
</defs>
<rect x="0.5" y="0" width="566.929" height="384.469" fill="white"/>
<rect x="57.1929" y="38.4469" width="453.543" height="307.575" fill="white"/>
<rect x="57.1929" y="38.4469" width="453.543" height="307.575" fill="none" stroke="black"/>
<path d="M57.1929,346.022h 453.543" fill="none" stroke="#000099"/>
<path d="M57.1929,346.022h 453.543" fill="none" stroke="black"/>
<path d="M57.1929,336.795v 9.22726" fill="none" stroke="black"/>
<path d="M72.311,341.409v 4.61363" fill="none" stroke="black"/>
<path d="M87.4291,341.409v 4.61363" fill="none" stroke="black"/>
<path d="M102.547,341.409v 4.61363" fill="none" stroke="black"/>
<path d="M117.665,341.409v 4.61363" fill="none" stroke="black"/>
<path d="M132.783,336.795v 9.22726" fill="none" stroke="black"/>
<path d="M147.902,341.409v 4.61363" fill="none" stroke="black"/>
<path d="M163.02,341.409v 4.61363" fill="none" stroke="black"/>
<path d="M178.138,341.409v 4.61363" fill="none" stroke="black"/>
<path d="M193.256,341.409v 4.61363" fill="none" stroke="black"/>
<path d="M208.374,336.795v 9.22726" fill="none" stroke="black"/>
<path d="M223.492,341.409v 4.61363" fill="none" stroke="black"/>
<path d="M238.61,341.409v 4.61363" fill="none" stroke="black"/>
<path d="M253.728,341.409v 4.61363" fill="none" stroke="black"/>
<path d="M268.846,341.409v 4.61363" fill="none" stroke="black"/>
<path d="M283.965,336.795v 9.22726" fill="none" stroke="black"/>
<path d="M299.083,341.409v 4.61363" fill="none" stroke="black"/>
<path d="M314.201,341.409v 4.61363" fill="none" stroke="black"/>
<path d="M329.319,341.409v 4.61363" fill="none" stroke="black"/>
<path d="M344.437,341.409v 4.61363" fill="none" stroke="black"/>
<path d="M359.555,336.795v 9.22726" fill="none" stroke="black"/>
<path d="M374.673,341.409v 4.61363" fill="none" stroke="black"/>
<path d="M389.791,341.409v 4.61363" fill="none" stroke="black"/>
<path d="M404.909,341.409v 4.61363" fill="none" stroke="black"/>
<path d="M420.028,341.409v 4.61363" fill="none" stroke="black"/>
<path d="M435.146,336.795v 9.22726" fill="none" stroke="black"/>
<path d="M450.264,341.409v 4.61363" fill="none" stroke="black"/>
<path d="M465.382,341.409v 4.61363" fill="none" stroke="black"/>
<path d="M480.5,341.409v 4.61363" fill="none" stroke="black"/>
<path d="M495.618,341.409v 4.61363" fill="none" stroke="black"/>
<path d="M510.736,336.795v 9.22726" fill="none" stroke="black"/>
<text xml:space="preserve" x="53.446" y="358.403" fill="black" font-size="12.8453" font-family="Helvetica">0</text>
<text xml:space="preserve" x="121.868" y="358.403" fill="black" font-size="12.8453" font-family="Helvetica">100</text>
<text xml:space="preserve" x="197.622" y="358.403" fill="black" font-size="12.8453" font-family="Helvetica">200</text>
<text xml:space="preserve" x="273.375" y="358.403" fill="black" font-size="12.8453" font-family="Helvetica">300</text>
<text xml:space="preserve" x="348.314" y="358.403" fill="black" font-size="12.8453" font-family="Helvetica">400</text>
<text xml:space="preserve" x="424.068" y="358.403" fill="black" font-size="12.8453" font-family="Helvetica">500</text>
<text xml:space="preserve" x="499.821" y="358.403" fill="black" font-size="12.8453" font-family="Helvetica">600</text>
<text xml:space="preserve" x="486.788" y="369.807" fill="black" font-size="12.8453" font-family="Helvetica">mpv</text>
<path d="M57.1929,346.022v -307.575" fill="none" stroke="black"/>
<path d="M70.7992,346.022h -13.6063" fill="none" stroke="black"/>
<path d="M63.9961,339.365h -6.80315" fill="none" stroke="black"/>
<path d="M63.9961,332.707h -6.80315" fill="none" stroke="black"/>
<path d="M63.9961,326.05h -6.80315" fill="none" stroke="black"/>
<path d="M70.7992,319.392h -13.6063" fill="none" stroke="black"/>
<path d="M63.9961,312.735h -6.80315" fill="none" stroke="black"/>
<path d="M63.9961,306.077h -6.80315" fill="none" stroke="black"/>
<path d="M63.9961,299.42h -6.80315" fill="none" stroke="black"/>
<path d="M70.7992,292.762h -13.6063" fill="none" stroke="black"/>
<path d="M63.9961,286.105h -6.80315" fill="none" stroke="black"/>
<path d="M63.9961,279.448h -6.80315" fill="none" stroke="black"/>
<path d="M63.9961,272.79h -6.80315" fill="none" stroke="black"/>
<path d="M70.7992,266.133h -13.6063" fill="none" stroke="black"/>
<path d="M63.9961,259.475h -6.80315" fill="none" stroke="black"/>
<path d="M63.9961,252.818h -6.80315" fill="none" stroke="black"/>
<path d="M63.9961,246.16h -6.80315" fill="none" stroke="black"/>
<path d="M70.7992,239.503h -13.6063" fill="none" stroke="black"/>
<path d="M63.9961,232.845h -6.80315" fill="none" stroke="black"/>
<path d="M63.9961,226.188h -6.80315" fill="none" stroke="black"/>
<path d="M63.9961,219.53h -6.80315" fill="none" stroke="black"/>
<path d="M70.7992,212.873h -13.6063" fill="none" stroke="black"/>
<path d="M63.9961,206.215h -6.80315" fill="none" stroke="black"/>
<path d="M63.9961,199.558h -6.80315" fill="none" stroke="black"/>
<path d="M63.9961,192.9h -6.80315" fill="none" stroke="black"/>
<path d="M70.7992,186.243h -13.6063" fill="none" stroke="black"/>
<path d="M63.9961,179.585h -6.80315" fill="none" stroke="black"/>
<path d="M63.9961,172.928h -6.80315" fill="none" stroke="black"/>
<path d="M63.9961,166.27h -6.80315" fill="none" stroke="black"/>
<path d="M70.7992,159.613h -13.6063" fill="none" stroke="black"/>
<path d="M63.9961,152.955h -6.80315" fill="none" stroke="black"/>
<path d="M63.9961,146.298h -6.80315" fill="none" stroke="black"/>
<path d="M63.9961,139.641h -6.80315" fill="none" stroke="black"/>
<path d="M70.7992,132.983h -13.6063" fill="none" stroke="black"/>
<path d="M63.9961,126.326h -6.80315" fill="none" stroke="black"/>
<path d="M63.9961,119.668h -6.80315" fill="none" stroke="black"/>
<path d="M63.9961,113.011h -6.80315" fill="none" stroke="black"/>
<path d="M70.7992,106.353h -13.6063" fill="none" stroke="black"/>
<path d="M63.9961,99.6957h -6.80315" fill="none" stroke="black"/>
<path d="M63.9961,93.0382h -6.80315" fill="none" stroke="black"/>
<path d="M63.9961,86.3807h -6.80315" fill="none" stroke="black"/>
<path d="M70.7992,79.7233h -13.6063" fill="none" stroke="black"/>
<path d="M63.9961,73.0658h -6.80315" fill="none" stroke="black"/>
<path d="M63.9961,66.4083h -6.80315" fill="none" stroke="black"/>
<path d="M63.9961,59.7508h -6.80315" fill="none" stroke="black"/>
<path d="M70.7992,53.0934h -13.6063" fill="none" stroke="black"/>
<path d="M70.7992,53.0934h -13.6063" fill="none" stroke="black"/>
<path d="M63.9961,46.4359h -6.80315" fill="none" stroke="black"/>
<path d="M63.9961,39.7784h -6.80315" fill="none" stroke="black"/>
<text xml:space="preserve" x="47.7441" y="350.258" fill="black" font-size="12.8453" font-family="Helvetica">0</text>
<text xml:space="preserve" x="47.7441" y="324.192" fill="black" font-size="12.8453" font-family="Helvetica">2</text>
<text xml:space="preserve" x="47.7441" y="297.312" fill="black" font-size="12.8453" font-family="Helvetica">4</text>
<text xml:space="preserve" x="47.7441" y="270.432" fill="black" font-size="12.8453" font-family="Helvetica">6</text>
<text xml:space="preserve" x="47.7441" y="244.366" fill="black" font-size="12.8453" font-family="Helvetica">8</text>
<text xml:space="preserve" x="41.2277" y="217.486" fill="black" font-size="12.8453" font-family="Helvetica">10</text>
<text xml:space="preserve" x="40.4131" y="190.605" fill="black" font-size="12.8453" font-family="Helvetica">12</text>
<text xml:space="preserve" x="40.4131" y="163.725" fill="black" font-size="12.8453" font-family="Helvetica">14</text>
<text xml:space="preserve" x="40.4131" y="137.66" fill="black" font-size="12.8453" font-family="Helvetica">16</text>
<text xml:space="preserve" x="40.4131" y="110.779" fill="black" font-size="12.8453" font-family="Helvetica">18</text>
<text xml:space="preserve" x="41.2277" y="83.899" fill="black" font-size="12.8453" font-family="Helvetica">20</text>
<text xml:space="preserve" x="40.4131" y="57.8333" fill="black" font-size="12.8453" font-family="Helvetica">22</text>
<g transform="rotate(-90,27.3803,86.3427)">
<text xml:space="preserve" x="27.3803" y="86.3427" fill="black" font-size="12.8453" font-family="Helvetica">n_blocks</text>
</g>
<text xml:space="preserve" x="243.237" y="17.9202" fill="black" font-size="18.7938" font-family="Helvetica">vop 69.03</text>
<rect x="57.6465" y="346.022" width="4.73197" height="0" fill="#ff7a5c" fill-opacity="0.50" stroke-opacity="0.50"/>
<rect x="72.7646" y="346.022" width="4.73197" height="0" fill="#ff7a5c" fill-opacity="0.50" stroke-opacity="0.50"/>
<rect x="87.8827" y="346.022" width="4.73197" height="0" fill="#ff7a5c" fill-opacity="0.50" stroke-opacity="0.50"/>
<rect x="103.001" y="346.022" width="4.73197" height="0" fill="#ff7a5c" fill-opacity="0.50" stroke-opacity="0.50"/>
<rect x="118.119" y="346.022" width="4.73197" height="0" fill="#ff7a5c" fill-opacity="0.50" stroke-opacity="0.50"/>
<rect x="133.237" y="346.022" width="4.73197" height="0" fill="#ff7a5c" fill-opacity="0.50" stroke-opacity="0.50"/>
<rect x="148.355" y="346.022" width="4.73197" height="0" fill="#ff7a5c" fill-opacity="0.50" stroke-opacity="0.50"/>
<rect x="163.473" y="346.022" width="4.73197" height="0" fill="#ff7a5c" fill-opacity="0.50" stroke-opacity="0.50"/>
<rect x="178.591" y="346.022" width="4.73197" height="0" fill="#ff7a5c" fill-opacity="0.50" stroke-opacity="0.50"/>
<rect x="193.709" y="319.392" width="4.73197" height="26.6299" fill="#ff7a5c" fill-opacity="0.50" stroke-opacity="0.50"/>
<rect x="208.828" y="279.448" width="4.73197" height="66.5747" fill="#ff7a5c" fill-opacity="0.50" stroke-opacity="0.50"/>
<rect x="223.946" y="266.133" width="4.73197" height="79.8897" fill="#ff7a5c" fill-opacity="0.50" stroke-opacity="0.50"/>
<rect x="239.064" y="279.448" width="4.73197" height="66.5747" fill="#ff7a5c" fill-opacity="0.50" stroke-opacity="0.50"/>
<rect x="254.182" y="252.818" width="4.73197" height="93.2047" fill="#ff7a5c" fill-opacity="0.50" stroke-opacity="0.50"/>
<rect x="269.3" y="306.077" width="4.73197" height="39.9448" fill="#ff7a5c" fill-opacity="0.50" stroke-opacity="0.50"/>
<rect x="284.418" y="199.558" width="4.73197" height="146.464" fill="#ff7a5c" fill-opacity="0.50" stroke-opacity="0.50"/>
<rect x="299.536" y="292.762" width="4.73197" height="53.2598" fill="#ff7a5c" fill-opacity="0.50" stroke-opacity="0.50"/>
<rect x="314.654" y="306.077" width="4.73197" height="39.9448" fill="#ff7a5c" fill-opacity="0.50" stroke-opacity="0.50"/>
<rect x="329.772" y="332.707" width="4.73197" height="13.3149" fill="#ff7a5c" fill-opacity="0.50" stroke-opacity="0.50"/>
<rect x="344.891" y="332.707" width="4.73197" height="13.3149" fill="#ff7a5c" fill-opacity="0.50" stroke-opacity="0.50"/>
<rect x="360.009" y="346.022" width="4.73197" height="0" fill="#ff7a5c" fill-opacity="0.50" stroke-opacity="0.50"/>
<rect x="375.127" y="332.707" width="4.73197" height="13.3149" fill="#ff7a5c" fill-opacity="0.50" stroke-opacity="0.50"/>
<rect x="390.245" y="346.022" width="4.73197" height="0" fill="#ff7a5c" fill-opacity="0.50" stroke-opacity="0.50"/>
<rect x="405.363" y="346.022" width="4.73197" height="0" fill="#ff7a5c" fill-opacity="0.50" stroke-opacity="0.50"/>
<rect x="420.481" y="346.022" width="4.73197" height="0" fill="#ff7a5c" fill-opacity="0.50" stroke-opacity="0.50"/>
<rect x="435.599" y="346.022" width="4.73197" height="0" fill="#ff7a5c" fill-opacity="0.50" stroke-opacity="0.50"/>
<rect x="450.717" y="346.022" width="4.73197" height="0" fill="#ff7a5c" fill-opacity="0.50" stroke-opacity="0.50"/>
<rect x="465.835" y="346.022" width="4.73197" height="0" fill="#ff7a5c" fill-opacity="0.50" stroke-opacity="0.50"/>
<rect x="480.954" y="346.022" width="4.73197" height="0" fill="#ff7a5c" fill-opacity="0.50" stroke-opacity="0.50"/>
<rect x="496.072" y="346.022" width="4.73197" height="0" fill="#ff7a5c" fill-opacity="0.50" stroke-opacity="0.50"/>
<path d="M59.4606,346.022h 4.53543l 4.53543, -0.0340797l 4.53543, -0.0147975l 4.53543, -0.0206191l 4.53543, -0.0284667l 4.53543, -0.0389383l 4.53543, -0.0527686l 4.53543, -0.0708461l 4.53543, -0.0942284l 4.53543, -0.124152l 4.53543, -0.162037l
 4.53543, -0.209479l 4.53543, -0.26823l 4.53543, -0.340166l 4.53543, -0.42723l 4.53543, -0.531358l 4.53543, -0.654385l 4.53543, -0.797924l 4.53543, -0.963226l 4.53543, -1.15103l 4.53543, -1.36138l 4.53543, -1.59348l 4.53543, -1.84552l 4.53543,
 -2.11454l 4.53543, -2.39634l 4.53543, -2.6854l 4.53543, -2.97491l 4.53543, -3.25687l 4.53543, -3.52222l 4.53543, -3.76112l 4.53543, -3.96327l 4.53543, -4.11832l 4.53543, -4.21636l 4.53543, -4.24839l 4.53543, -4.20683l 4.53543, -4.08602l 4.53543,
 -3.88268l 4.53543, -3.59616l 4.53543, -3.22877l 4.53543, -2.78579l 4.53543, -2.27545l 4.53543, -1.70866l 4.53543, -1.09868l 4.53543, -0.460554l 4.53543, 0.189445l 4.53543, 0.834553l 4.53543, 1.45821l 4.53543, 2.04478l 4.53543, 2.58018" fill="none"
 stroke="#ff7a5c" stroke-width="2"/>
<path d="M281.697,277.758l 4.53543, 3.05246l 4.53543, 3.45225l 4.53543, 3.77301l 4.53543, 4.0112l 4.53543, 4.16624l 4.53543, 4.24034l 4.53543, 4.23825l 4.53543, 4.16676l 4.53543, 4.03437l 4.53543, 3.85065l 4.53543, 3.62584l 4.53543, 3.37032l 4.53543,
 3.09414l 4.53543, 2.80675l 4.53543, 2.5166l 4.53543, 2.23102l 4.53543, 1.95607l 4.53543, 1.69651l 4.53543, 1.45579l 4.53543, 1.2362l 4.53543, 1.03894l 4.53543, 0.864291l 4.53543, 0.711784l 4.53543, 0.580365l 4.53543, 0.468554l 4.53543, 0.374592l
 4.53543, 0.296573l 4.53543, 0.232546l 4.53543, 0.1806l 4.53543, 0.138926l 4.53543, 0.105859l 4.53543, 0.0799039l 4.53543, 0.0597486l 4.53543, 0.0442612l 4.53543, 0.0324841l 4.53543, 0.0236202l 4.53543, 0.0170168l 4.53543, 0.0396634h 49.8898"
 fill="none" stroke="#ff7a5c" stroke-width="2"/>
<path d="M503.933,346.022h 4.53543" fill="none" stroke="#ff7a5c" stroke-width="2"/>
<rect x="62.3784" y="346.022" width="4.73197" height="0" fill="#53377a" fill-opacity="0.50" stroke-opacity="0.50"/>
<rect x="77.4965" y="346.022" width="4.73197" height="0" fill="#53377a" fill-opacity="0.50" stroke-opacity="0.50"/>
<rect x="92.6146" y="346.022" width="4.73197" height="0" fill="#53377a" fill-opacity="0.50" stroke-opacity="0.50"/>
<rect x="107.733" y="346.022" width="4.73197" height="0" fill="#53377a" fill-opacity="0.50" stroke-opacity="0.50"/>
<rect x="122.851" y="346.022" width="4.73197" height="0" fill="#53377a" fill-opacity="0.50" stroke-opacity="0.50"/>
<rect x="137.969" y="346.022" width="4.73197" height="0" fill="#53377a" fill-opacity="0.50" stroke-opacity="0.50"/>
<rect x="153.087" y="346.022" width="4.73197" height="0" fill="#53377a" fill-opacity="0.50" stroke-opacity="0.50"/>
<rect x="168.205" y="346.022" width="4.73197" height="0" fill="#53377a" fill-opacity="0.50" stroke-opacity="0.50"/>
<rect x="183.323" y="332.707" width="4.73197" height="13.3149" fill="#53377a" fill-opacity="0.50" stroke-opacity="0.50"/>
<rect x="198.441" y="319.392" width="4.73197" height="26.6299" fill="#53377a" fill-opacity="0.50" stroke-opacity="0.50"/>
<rect x="213.56" y="226.188" width="4.73197" height="119.835" fill="#53377a" fill-opacity="0.50" stroke-opacity="0.50"/>
<rect x="228.678" y="172.928" width="4.73197" height="173.094" fill="#53377a" fill-opacity="0.50" stroke-opacity="0.50"/>
<rect x="243.796" y="146.298" width="4.73197" height="199.724" fill="#53377a" fill-opacity="0.50" stroke-opacity="0.50"/>
<rect x="258.914" y="172.928" width="4.73197" height="173.094" fill="#53377a" fill-opacity="0.50" stroke-opacity="0.50"/>
<rect x="274.032" y="186.243" width="4.73197" height="159.779" fill="#53377a" fill-opacity="0.50" stroke-opacity="0.50"/>
<rect x="289.15" y="212.873" width="4.73197" height="133.149" fill="#53377a" fill-opacity="0.50" stroke-opacity="0.50"/>
<rect x="304.268" y="252.818" width="4.73197" height="93.2047" fill="#53377a" fill-opacity="0.50" stroke-opacity="0.50"/>
<rect x="319.386" y="332.707" width="4.73197" height="13.3149" fill="#53377a" fill-opacity="0.50" stroke-opacity="0.50"/>
<rect x="334.504" y="279.448" width="4.73197" height="66.5747" fill="#53377a" fill-opacity="0.50" stroke-opacity="0.50"/>
<rect x="349.623" y="319.392" width="4.73197" height="26.6299" fill="#53377a" fill-opacity="0.50" stroke-opacity="0.50"/>
<rect x="364.741" y="332.707" width="4.73197" height="13.3149" fill="#53377a" fill-opacity="0.50" stroke-opacity="0.50"/>
<rect x="379.859" y="346.022" width="4.73197" height="0" fill="#53377a" fill-opacity="0.50" stroke-opacity="0.50"/>
<rect x="394.977" y="346.022" width="4.73197" height="0" fill="#53377a" fill-opacity="0.50" stroke-opacity="0.50"/>
<rect x="410.095" y="346.022" width="4.73197" height="0" fill="#53377a" fill-opacity="0.50" stroke-opacity="0.50"/>
<rect x="425.213" y="346.022" width="4.73197" height="0" fill="#53377a" fill-opacity="0.50" stroke-opacity="0.50"/>
<rect x="440.331" y="346.022" width="4.73197" height="0" fill="#53377a" fill-opacity="0.50" stroke-opacity="0.50"/>
<rect x="455.449" y="346.022" width="4.73197" height="0" fill="#53377a" fill-opacity="0.50" stroke-opacity="0.50"/>
<rect x="470.567" y="346.022" width="4.73197" height="0" fill="#53377a" fill-opacity="0.50" stroke-opacity="0.50"/>
<rect x="485.686" y="346.022" width="4.73197" height="0" fill="#53377a" fill-opacity="0.50" stroke-opacity="0.50"/>
<rect x="500.804" y="346.022" width="4.73197" height="0" fill="#53377a" fill-opacity="0.50" stroke-opacity="0.50"/>
<path d="M59.4606,346.022h 63.4961l 4.53543, -0.0451121l 4.53543, -0.0351711l 4.53543, -0.0597025l 4.53543, -0.099164l 4.53543, -0.161148l 4.53543, -0.256186l 4.53543, -0.39837l 4.53543, -0.605833l 4.53543, -0.900908l 4.53543, -1.30974l 4.53543,
 -1.86109l 4.53543, -2.58412l 4.53543, -3.50502l 4.53543, -4.64239l 4.53543, -6.00178l 4.53543, -7.56974l 4.53543, -9.30826l 4.53543, -11.1508l 4.53543, -13.0005l 4.53543, -14.7331l 4.53543, -16.2026l 4.53543, -17.2533l 4.53543, -17.7344l 4.53543,
 -17.5177l 4.53543, -16.5151l 4.53543, -14.6944l 4.53543, -12.0889l 4.53543, -8.80114l 4.53543, -4.99704l 4.53543, -0.892779l 4.53543, 3.26562l 4.53543, 7.22673l 4.53543, 10.7588l 4.53543, 13.6724l 4.53543, 15.8366" fill="none" stroke="#53377a"
 stroke-width="2"/>
<path d="M281.697,191.857l 4.53543, 17.1886l 4.53543, 17.7334l 4.53543, 17.5368l 4.53543, 16.712l 4.53543, 15.4024l 4.53543, 13.7635l 4.53543, 11.9472l 4.53543, 10.088l 4.53543, 8.29514l 4.53543, 6.64803l 4.53543, 5.19653l 4.53543, 3.96397l 4.53543,
 2.9522l 4.53543, 2.14748l 4.53543, 1.52623l 4.53543, 1.0601l 4.53543, 0.71979l 4.53543, 0.47785l 4.53543, 0.31023l 4.53543, 0.196992l 4.53543, 0.122363l 4.53543, 0.0743597l 4.53543, 0.0442143l 4.53543, 0.0257257l 4.53543, 0.0321339h 108.85"
 fill="none" stroke="#53377a" stroke-width="2"/>
<path d="M503.933,346.022h 4.53543" fill="none" stroke="#53377a" stroke-width="2"/>
<rect x="67.1104" y="346.022" width="4.73197" height="0" fill="#ff8e00" fill-opacity="0.50" stroke-opacity="0.50"/>
<rect x="82.2285" y="346.022" width="4.73197" height="0" fill="#ff8e00" fill-opacity="0.50" stroke-opacity="0.50"/>
<rect x="97.3466" y="346.022" width="4.73197" height="0" fill="#ff8e00" fill-opacity="0.50" stroke-opacity="0.50"/>
<rect x="112.465" y="346.022" width="4.73197" height="0" fill="#ff8e00" fill-opacity="0.50" stroke-opacity="0.50"/>
<rect x="127.583" y="346.022" width="4.73197" height="0" fill="#ff8e00" fill-opacity="0.50" stroke-opacity="0.50"/>
<rect x="142.701" y="346.022" width="4.73197" height="0" fill="#ff8e00" fill-opacity="0.50" stroke-opacity="0.50"/>
<rect x="157.819" y="346.022" width="4.73197" height="0" fill="#ff8e00" fill-opacity="0.50" stroke-opacity="0.50"/>
<rect x="172.937" y="346.022" width="4.73197" height="0" fill="#ff8e00" fill-opacity="0.50" stroke-opacity="0.50"/>
<rect x="188.055" y="332.707" width="4.73197" height="13.3149" fill="#ff8e00" fill-opacity="0.50" stroke-opacity="0.50"/>
<rect x="203.173" y="332.707" width="4.73197" height="13.3149" fill="#ff8e00" fill-opacity="0.50" stroke-opacity="0.50"/>
<rect x="218.292" y="306.077" width="4.73197" height="39.9448" fill="#ff8e00" fill-opacity="0.50" stroke-opacity="0.50"/>
<rect x="233.41" y="119.668" width="4.73197" height="226.354" fill="#ff8e00" fill-opacity="0.50" stroke-opacity="0.50"/>
<rect x="248.528" y="79.7233" width="4.73197" height="266.299" fill="#ff8e00" fill-opacity="0.50" stroke-opacity="0.50"/>
<rect x="263.646" y="53.0934" width="4.73197" height="292.929" fill="#ff8e00" fill-opacity="0.50" stroke-opacity="0.50"/>
<rect x="278.764" y="332.707" width="4.73197" height="13.3149" fill="#ff8e00" fill-opacity="0.50" stroke-opacity="0.50"/>
<rect x="293.882" y="332.707" width="4.73197" height="13.3149" fill="#ff8e00" fill-opacity="0.50" stroke-opacity="0.50"/>
<rect x="309" y="346.022" width="4.73197" height="0" fill="#ff8e00" fill-opacity="0.50" stroke-opacity="0.50"/>
<rect x="324.118" y="346.022" width="4.73197" height="0" fill="#ff8e00" fill-opacity="0.50" stroke-opacity="0.50"/>
<rect x="339.236" y="346.022" width="4.73197" height="0" fill="#ff8e00" fill-opacity="0.50" stroke-opacity="0.50"/>
<rect x="354.354" y="346.022" width="4.73197" height="0" fill="#ff8e00" fill-opacity="0.50" stroke-opacity="0.50"/>
<rect x="369.473" y="346.022" width="4.73197" height="0" fill="#ff8e00" fill-opacity="0.50" stroke-opacity="0.50"/>
<rect x="384.591" y="346.022" width="4.73197" height="0" fill="#ff8e00" fill-opacity="0.50" stroke-opacity="0.50"/>
<rect x="399.709" y="346.022" width="4.73197" height="0" fill="#ff8e00" fill-opacity="0.50" stroke-opacity="0.50"/>
<rect x="414.827" y="346.022" width="4.73197" height="0" fill="#ff8e00" fill-opacity="0.50" stroke-opacity="0.50"/>
<rect x="429.945" y="346.022" width="4.73197" height="0" fill="#ff8e00" fill-opacity="0.50" stroke-opacity="0.50"/>
<rect x="445.063" y="346.022" width="4.73197" height="0" fill="#ff8e00" fill-opacity="0.50" stroke-opacity="0.50"/>
<rect x="460.181" y="346.022" width="4.73197" height="0" fill="#ff8e00" fill-opacity="0.50" stroke-opacity="0.50"/>
<rect x="475.299" y="346.022" width="4.73197" height="0" fill="#ff8e00" fill-opacity="0.50" stroke-opacity="0.50"/>
<rect x="490.417" y="346.022" width="4.73197" height="0" fill="#ff8e00" fill-opacity="0.50" stroke-opacity="0.50"/>
<rect x="505.536" y="346.022" width="4.73197" height="0" fill="#ff8e00" fill-opacity="0.50" stroke-opacity="0.50"/>
<path d="M59.4606,346.022h 122.457l 4.53543, -0.0815122l 4.53543, -0.200439l 4.53543, -0.599897l 4.53543, -1.61208l 4.53543, -3.88345l 4.53543, -8.36847l 4.53543, -16.0837l 4.53543, -27.4523l 4.53543, -41.3432l 4.53543, -54.3581l 4.53543, -61.2193l
 4.53543, -56.7484l 4.16498, -35.6246" fill="none" stroke="#ff8e00" stroke-width="2"/>
<path d="M248.309,38.4469l 1.6397, 7.63486" fill="none" stroke="#ff8e00" stroke-width="2"/>
<path d="M249.949,46.0818l 4.53543, 46.5705l 4.53543, 59.8417l 4.53543, 59.8678l 4.53543, 50.1904l 4.53543, 36.3368l 4.53543, 23.0678l 4.53543, 12.955l 4.53543, 6.47235l 4.53543, 2.88735l 4.53543, 1.15317l 4.53543, 0.413116l 4.53543, 0.132944l
 4.53543, 0.051457h 158.74" fill="none" stroke="#ff8e00" stroke-width="2"/>
<path d="M467.65,346.022h 40.8189" fill="none" stroke="#ff8e00" stroke-width="2"/>
<path d="M57.1929,346.022h 453.543" fill="none" stroke="black"/>
<path d="M57.1929,336.795v 9.22726" fill="none" stroke="black"/>
<path d="M72.311,341.409v 4.61363" fill="none" stroke="black"/>
<path d="M87.4291,341.409v 4.61363" fill="none" stroke="black"/>
<path d="M102.547,341.409v 4.61363" fill="none" stroke="black"/>
<path d="M117.665,341.409v 4.61363" fill="none" stroke="black"/>
<path d="M132.783,336.795v 9.22726" fill="none" stroke="black"/>
<path d="M147.902,341.409v 4.61363" fill="none" stroke="black"/>
<path d="M163.02,341.409v 4.61363" fill="none" stroke="black"/>
<path d="M178.138,341.409v 4.61363" fill="none" stroke="black"/>
<path d="M193.256,341.409v 4.61363" fill="none" stroke="black"/>
<path d="M208.374,336.795v 9.22726" fill="none" stroke="black"/>
<path d="M223.492,341.409v 4.61363" fill="none" stroke="black"/>
<path d="M238.61,341.409v 4.61363" fill="none" stroke="black"/>
<path d="M253.728,341.409v 4.61363" fill="none" stroke="black"/>
<path d="M268.846,341.409v 4.61363" fill="none" stroke="black"/>
<path d="M283.965,336.795v 9.22726" fill="none" stroke="black"/>
<path d="M299.083,341.409v 4.61363" fill="none" stroke="black"/>
<path d="M314.201,341.409v 4.61363" fill="none" stroke="black"/>
<path d="M329.319,341.409v 4.61363" fill="none" stroke="black"/>
<path d="M344.437,341.409v 4.61363" fill="none" stroke="black"/>
<path d="M359.555,336.795v 9.22726" fill="none" stroke="black"/>
<path d="M374.673,341.409v 4.61363" fill="none" stroke="black"/>
<path d="M389.791,341.409v 4.61363" fill="none" stroke="black"/>
<path d="M404.909,341.409v 4.61363" fill="none" stroke="black"/>
<path d="M420.028,341.409v 4.61363" fill="none" stroke="black"/>
<path d="M435.146,336.795v 9.22726" fill="none" stroke="black"/>
<path d="M450.264,341.409v 4.61363" fill="none" stroke="black"/>
<path d="M465.382,341.409v 4.61363" fill="none" stroke="black"/>
<path d="M480.5,341.409v 4.61363" fill="none" stroke="black"/>
<path d="M495.618,341.409v 4.61363" fill="none" stroke="black"/>
<path d="M510.736,336.795v 9.22726" fill="none" stroke="black"/>
<path d="M57.1929,346.022v -307.575" fill="none" stroke="black"/>
<path d="M70.7992,346.022h -13.6063" fill="none" stroke="black"/>
<path d="M63.9961,339.365h -6.80315" fill="none" stroke="black"/>
<path d="M63.9961,332.707h -6.80315" fill="none" stroke="black"/>
<path d="M63.9961,326.05h -6.80315" fill="none" stroke="black"/>
<path d="M70.7992,319.392h -13.6063" fill="none" stroke="black"/>
<path d="M63.9961,312.735h -6.80315" fill="none" stroke="black"/>
<path d="M63.9961,306.077h -6.80315" fill="none" stroke="black"/>
<path d="M63.9961,299.42h -6.80315" fill="none" stroke="black"/>
<path d="M70.7992,292.762h -13.6063" fill="none" stroke="black"/>
<path d="M63.9961,286.105h -6.80315" fill="none" stroke="black"/>
<path d="M63.9961,279.448h -6.80315" fill="none" stroke="black"/>
<path d="M63.9961,272.79h -6.80315" fill="none" stroke="black"/>
<path d="M70.7992,266.133h -13.6063" fill="none" stroke="black"/>
<path d="M63.9961,259.475h -6.80315" fill="none" stroke="black"/>
<path d="M63.9961,252.818h -6.80315" fill="none" stroke="black"/>
<path d="M63.9961,246.16h -6.80315" fill="none" stroke="black"/>
<path d="M70.7992,239.503h -13.6063" fill="none" stroke="black"/>
<path d="M63.9961,232.845h -6.80315" fill="none" stroke="black"/>
<path d="M63.9961,226.188h -6.80315" fill="none" stroke="black"/>
<path d="M63.9961,219.53h -6.80315" fill="none" stroke="black"/>
<path d="M70.7992,212.873h -13.6063" fill="none" stroke="black"/>
<path d="M63.9961,206.215h -6.80315" fill="none" stroke="black"/>
<path d="M63.9961,199.558h -6.80315" fill="none" stroke="black"/>
<path d="M63.9961,192.9h -6.80315" fill="none" stroke="black"/>
<path d="M70.7992,186.243h -13.6063" fill="none" stroke="black"/>
<path d="M63.9961,179.585h -6.80315" fill="none" stroke="black"/>
<path d="M63.9961,172.928h -6.80315" fill="none" stroke="black"/>
<path d="M63.9961,166.27h -6.80315" fill="none" stroke="black"/>
<path d="M70.7992,159.613h -13.6063" fill="none" stroke="black"/>
<path d="M63.9961,152.955h -6.80315" fill="none" stroke="black"/>
<path d="M63.9961,146.298h -6.80315" fill="none" stroke="black"/>
<path d="M63.9961,139.641h -6.80315" fill="none" stroke="black"/>
<path d="M70.7992,132.983h -13.6063" fill="none" stroke="black"/>
<path d="M63.9961,126.326h -6.80315" fill="none" stroke="black"/>
<path d="M63.9961,119.668h -6.80315" fill="none" stroke="black"/>
<path d="M63.9961,113.011h -6.80315" fill="none" stroke="black"/>
<path d="M70.7992,106.353h -13.6063" fill="none" stroke="black"/>
<path d="M63.9961,99.6957h -6.80315" fill="none" stroke="black"/>
<path d="M63.9961,93.0382h -6.80315" fill="none" stroke="black"/>
<path d="M63.9961,86.3807h -6.80315" fill="none" stroke="black"/>
<path d="M70.7992,79.7233h -13.6063" fill="none" stroke="black"/>
<path d="M63.9961,73.0658h -6.80315" fill="none" stroke="black"/>
<path d="M63.9961,66.4083h -6.80315" fill="none" stroke="black"/>
<path d="M63.9961,59.7508h -6.80315" fill="none" stroke="black"/>
<path d="M70.7992,53.0934h -13.6063" fill="none" stroke="black"/>
<path d="M70.7992,53.0934h -13.6063" fill="none" stroke="black"/>
<path d="M63.9961,46.4359h -6.80315" fill="none" stroke="black"/>
<path d="M63.9961,39.7784h -6.80315" fill="none" stroke="black"/>
<rect x="58.0145" y="140.127" width="170.079" height="80.7385" fill="white"/>
<path d="M58.0145,220.865h 170.079" fill="none" stroke="black"/>
<path d="M228.093,220.865v -80.7385" fill="none" stroke="black"/>
<path d="M228.093,140.127h -170.079" fill="none" stroke="black"/>
<path d="M58.0145,140.127v 80.7385" fill="none" stroke="black"/>
<text xml:space="preserve" x="99.8755" y="158.838" fill="black" font-size="16.1932" font-family="Helvetica">sector 11</text>
<path d="M64.3925,163.003h 29.7638v -18.839h -29.7638z" fill="#ff7a5c" fill-opacity="0.50" stroke-opacity="0.50"/>
<path d="M64.3925,153.583h 29.7638" fill="none" stroke="#ff7a5c" fill-opacity="0.00" stroke-opacity="0.00"/>
<g stroke="black" stroke-width="1" fill="none">
<line x1="78.2744" y1="153.583" x2="79.2744" y2="153.583"/>
</g>
<text xml:space="preserve" x="99.8755" y="186.533" fill="black" font-size="16.1932" font-family="Helvetica">sector 12</text>
<path d="M64.3925,189.915h 29.7638v -18.839h -29.7638z" fill="#53377a" fill-opacity="0.50" stroke-opacity="0.50"/>
<path d="M64.3925,180.496h 29.7638" fill="none" stroke="#53377a" fill-opacity="0.00" stroke-opacity="0.00"/>
<g stroke="black" stroke-width="1" fill="none">
<line x1="78.2744" y1="180.496" x2="79.2744" y2="180.496"/>
</g>
<text xml:space="preserve" x="99.8755" y="213.413" fill="black" font-size="16.1932" font-family="Helvetica">sector 13</text>
<path d="M64.3925,216.828h 29.7638v -18.839h -29.7638z" fill="#ff8e00" fill-opacity="0.50" stroke-opacity="0.50"/>
<path d="M64.3925,207.409h 29.7638" fill="none" stroke="#ff8e00" fill-opacity="0.00" stroke-opacity="0.00"/>
<g stroke="black" stroke-width="1" fill="none">
<line x1="78.2744" y1="207.409" x2="79.2744" y2="207.409"/>
</g>
<text xml:space="preserve" x="243.237" y="17.9202" fill="black" font-size="18.7938" font-family="Helvetica">vop 69.03</text></svg>
