<?xml version="1.0" standalone="no"?>
<svg width="567.429" height="384.969" viewBox="0 0 567.429 384.969" xmlns="http://www.w3.org/2000/svg" shape-rendering="crispEdges">
<title>
./adjusted_vop/vop_by_sector/vop-69.08_all.svg
</title>
<desc>
Creator: ROOT Version 6.24/00
CreationDate: Mon Jul 19 21:24:20 2021</desc>
<defs>
</defs>
<rect x="0.5" y="0" width="566.929" height="384.469" fill="white"/>
<rect x="57.1929" y="38.4469" width="453.543" height="307.575" fill="white"/>
<rect x="57.1929" y="38.4469" width="453.543" height="307.575" fill="none" stroke="black"/>
<path d="M57.1929,346.022h 453.543" fill="none" stroke="#000099"/>
<path d="M57.1929,346.022h 453.543" fill="none" stroke="black"/>
<path d="M57.1929,336.795v 9.22726" fill="none" stroke="black"/>
<path d="M72.311,341.409v 4.61363" fill="none" stroke="black"/>
<path d="M87.4291,341.409v 4.61363" fill="none" stroke="black"/>
<path d="M102.547,341.409v 4.61363" fill="none" stroke="black"/>
<path d="M117.665,341.409v 4.61363" fill="none" stroke="black"/>
<path d="M132.783,336.795v 9.22726" fill="none" stroke="black"/>
<path d="M147.902,341.409v 4.61363" fill="none" stroke="black"/>
<path d="M163.02,341.409v 4.61363" fill="none" stroke="black"/>
<path d="M178.138,341.409v 4.61363" fill="none" stroke="black"/>
<path d="M193.256,341.409v 4.61363" fill="none" stroke="black"/>
<path d="M208.374,336.795v 9.22726" fill="none" stroke="black"/>
<path d="M223.492,341.409v 4.61363" fill="none" stroke="black"/>
<path d="M238.61,341.409v 4.61363" fill="none" stroke="black"/>
<path d="M253.728,341.409v 4.61363" fill="none" stroke="black"/>
<path d="M268.846,341.409v 4.61363" fill="none" stroke="black"/>
<path d="M283.965,336.795v 9.22726" fill="none" stroke="black"/>
<path d="M299.083,341.409v 4.61363" fill="none" stroke="black"/>
<path d="M314.201,341.409v 4.61363" fill="none" stroke="black"/>
<path d="M329.319,341.409v 4.61363" fill="none" stroke="black"/>
<path d="M344.437,341.409v 4.61363" fill="none" stroke="black"/>
<path d="M359.555,336.795v 9.22726" fill="none" stroke="black"/>
<path d="M374.673,341.409v 4.61363" fill="none" stroke="black"/>
<path d="M389.791,341.409v 4.61363" fill="none" stroke="black"/>
<path d="M404.909,341.409v 4.61363" fill="none" stroke="black"/>
<path d="M420.028,341.409v 4.61363" fill="none" stroke="black"/>
<path d="M435.146,336.795v 9.22726" fill="none" stroke="black"/>
<path d="M450.264,341.409v 4.61363" fill="none" stroke="black"/>
<path d="M465.382,341.409v 4.61363" fill="none" stroke="black"/>
<path d="M480.5,341.409v 4.61363" fill="none" stroke="black"/>
<path d="M495.618,341.409v 4.61363" fill="none" stroke="black"/>
<path d="M510.736,336.795v 9.22726" fill="none" stroke="black"/>
<text xml:space="preserve" x="53.446" y="358.403" fill="black" font-size="12.8453" font-family="Helvetica">0</text>
<text xml:space="preserve" x="121.868" y="358.403" fill="black" font-size="12.8453" font-family="Helvetica">100</text>
<text xml:space="preserve" x="197.622" y="358.403" fill="black" font-size="12.8453" font-family="Helvetica">200</text>
<text xml:space="preserve" x="273.375" y="358.403" fill="black" font-size="12.8453" font-family="Helvetica">300</text>
<text xml:space="preserve" x="348.314" y="358.403" fill="black" font-size="12.8453" font-family="Helvetica">400</text>
<text xml:space="preserve" x="424.068" y="358.403" fill="black" font-size="12.8453" font-family="Helvetica">500</text>
<text xml:space="preserve" x="499.821" y="358.403" fill="black" font-size="12.8453" font-family="Helvetica">600</text>
<text xml:space="preserve" x="486.788" y="369.807" fill="black" font-size="12.8453" font-family="Helvetica">mpv</text>
<path d="M57.1929,346.022v -307.575" fill="none" stroke="black"/>
<path d="M70.7992,346.022h -13.6063" fill="none" stroke="black"/>
<path d="M63.9961,339.513h -6.80315" fill="none" stroke="black"/>
<path d="M63.9961,333.003h -6.80315" fill="none" stroke="black"/>
<path d="M63.9961,326.494h -6.80315" fill="none" stroke="black"/>
<path d="M63.9961,319.984h -6.80315" fill="none" stroke="black"/>
<path d="M70.7992,313.475h -13.6063" fill="none" stroke="black"/>
<path d="M63.9961,306.965h -6.80315" fill="none" stroke="black"/>
<path d="M63.9961,300.456h -6.80315" fill="none" stroke="black"/>
<path d="M63.9961,293.946h -6.80315" fill="none" stroke="black"/>
<path d="M63.9961,287.436h -6.80315" fill="none" stroke="black"/>
<path d="M70.7992,280.927h -13.6063" fill="none" stroke="black"/>
<path d="M63.9961,274.417h -6.80315" fill="none" stroke="black"/>
<path d="M63.9961,267.908h -6.80315" fill="none" stroke="black"/>
<path d="M63.9961,261.398h -6.80315" fill="none" stroke="black"/>
<path d="M63.9961,254.889h -6.80315" fill="none" stroke="black"/>
<path d="M70.7992,248.379h -13.6063" fill="none" stroke="black"/>
<path d="M63.9961,241.87h -6.80315" fill="none" stroke="black"/>
<path d="M63.9961,235.36h -6.80315" fill="none" stroke="black"/>
<path d="M63.9961,228.851h -6.80315" fill="none" stroke="black"/>
<path d="M63.9961,222.341h -6.80315" fill="none" stroke="black"/>
<path d="M70.7992,215.832h -13.6063" fill="none" stroke="black"/>
<path d="M63.9961,209.322h -6.80315" fill="none" stroke="black"/>
<path d="M63.9961,202.813h -6.80315" fill="none" stroke="black"/>
<path d="M63.9961,196.303h -6.80315" fill="none" stroke="black"/>
<path d="M63.9961,189.794h -6.80315" fill="none" stroke="black"/>
<path d="M70.7992,183.284h -13.6063" fill="none" stroke="black"/>
<path d="M63.9961,176.774h -6.80315" fill="none" stroke="black"/>
<path d="M63.9961,170.265h -6.80315" fill="none" stroke="black"/>
<path d="M63.9961,163.755h -6.80315" fill="none" stroke="black"/>
<path d="M63.9961,157.246h -6.80315" fill="none" stroke="black"/>
<path d="M70.7992,150.736h -13.6063" fill="none" stroke="black"/>
<path d="M63.9961,144.227h -6.80315" fill="none" stroke="black"/>
<path d="M63.9961,137.717h -6.80315" fill="none" stroke="black"/>
<path d="M63.9961,131.208h -6.80315" fill="none" stroke="black"/>
<path d="M63.9961,124.698h -6.80315" fill="none" stroke="black"/>
<path d="M70.7992,118.189h -13.6063" fill="none" stroke="black"/>
<path d="M63.9961,111.679h -6.80315" fill="none" stroke="black"/>
<path d="M63.9961,105.17h -6.80315" fill="none" stroke="black"/>
<path d="M63.9961,98.6601h -6.80315" fill="none" stroke="black"/>
<path d="M63.9961,92.1506h -6.80315" fill="none" stroke="black"/>
<path d="M70.7992,85.641h -13.6063" fill="none" stroke="black"/>
<path d="M63.9961,79.1315h -6.80315" fill="none" stroke="black"/>
<path d="M63.9961,72.622h -6.80315" fill="none" stroke="black"/>
<path d="M63.9961,66.1124h -6.80315" fill="none" stroke="black"/>
<path d="M63.9961,59.6029h -6.80315" fill="none" stroke="black"/>
<path d="M70.7992,53.0934h -13.6063" fill="none" stroke="black"/>
<path d="M70.7992,53.0934h -13.6063" fill="none" stroke="black"/>
<path d="M63.9961,46.5838h -6.80315" fill="none" stroke="black"/>
<path d="M63.9961,40.0743h -6.80315" fill="none" stroke="black"/>
<text xml:space="preserve" x="47.7441" y="350.258" fill="black" font-size="12.8453" font-family="Helvetica">0</text>
<text xml:space="preserve" x="41.2277" y="317.676" fill="black" font-size="12.8453" font-family="Helvetica">10</text>
<text xml:space="preserve" x="41.2277" y="285.094" fill="black" font-size="12.8453" font-family="Helvetica">20</text>
<text xml:space="preserve" x="41.2277" y="252.512" fill="black" font-size="12.8453" font-family="Helvetica">30</text>
<text xml:space="preserve" x="41.2277" y="219.929" fill="black" font-size="12.8453" font-family="Helvetica">40</text>
<text xml:space="preserve" x="41.2277" y="188.162" fill="black" font-size="12.8453" font-family="Helvetica">50</text>
<text xml:space="preserve" x="41.2277" y="155.58" fill="black" font-size="12.8453" font-family="Helvetica">60</text>
<text xml:space="preserve" x="41.2277" y="122.998" fill="black" font-size="12.8453" font-family="Helvetica">70</text>
<text xml:space="preserve" x="41.2277" y="90.4154" fill="black" font-size="12.8453" font-family="Helvetica">80</text>
<text xml:space="preserve" x="41.2277" y="57.8333" fill="black" font-size="12.8453" font-family="Helvetica">90</text>
<g transform="rotate(-90,28.1948,86.3427)">
<text xml:space="preserve" x="28.1948" y="86.3427" fill="black" font-size="12.8453" font-family="Helvetica">n_blocks</text>
</g>
<text xml:space="preserve" x="242.422" y="17.9202" fill="black" font-size="18.7938" font-family="Helvetica">vop 69.08</text>
<rect x="57.6465" y="346.022" width="3.55276" height="0" fill="#007d34" fill-opacity="0.50" stroke-opacity="0.50"/>
<rect x="72.7646" y="346.022" width="3.55276" height="0" fill="#007d34" fill-opacity="0.50" stroke-opacity="0.50"/>
<rect x="87.8827" y="346.022" width="3.55276" height="0" fill="#007d34" fill-opacity="0.50" stroke-opacity="0.50"/>
<rect x="103.001" y="346.022" width="3.55276" height="0" fill="#007d34" fill-opacity="0.50" stroke-opacity="0.50"/>
<rect x="118.119" y="346.022" width="3.55276" height="0" fill="#007d34" fill-opacity="0.50" stroke-opacity="0.50"/>
<rect x="133.237" y="346.022" width="3.55276" height="0" fill="#007d34" fill-opacity="0.50" stroke-opacity="0.50"/>
<rect x="148.355" y="346.022" width="3.55276" height="0" fill="#007d34" fill-opacity="0.50" stroke-opacity="0.50"/>
<rect x="163.473" y="346.022" width="3.55276" height="0" fill="#007d34" fill-opacity="0.50" stroke-opacity="0.50"/>
<rect x="178.591" y="346.022" width="3.55276" height="0" fill="#007d34" fill-opacity="0.50" stroke-opacity="0.50"/>
<rect x="193.709" y="346.022" width="3.55276" height="0" fill="#007d34" fill-opacity="0.50" stroke-opacity="0.50"/>
<rect x="208.828" y="306.965" width="3.55276" height="39.0572" fill="#007d34" fill-opacity="0.50" stroke-opacity="0.50"/>
<rect x="223.946" y="267.908" width="3.55276" height="78.1144" fill="#007d34" fill-opacity="0.50" stroke-opacity="0.50"/>
<rect x="239.064" y="248.379" width="3.55276" height="97.643" fill="#007d34" fill-opacity="0.50" stroke-opacity="0.50"/>
<rect x="254.182" y="248.379" width="3.55276" height="97.643" fill="#007d34" fill-opacity="0.50" stroke-opacity="0.50"/>
<rect x="269.3" y="287.436" width="3.55276" height="58.5858" fill="#007d34" fill-opacity="0.50" stroke-opacity="0.50"/>
<rect x="284.418" y="267.908" width="3.55276" height="78.1144" fill="#007d34" fill-opacity="0.50" stroke-opacity="0.50"/>
<rect x="299.536" y="267.908" width="3.55276" height="78.1144" fill="#007d34" fill-opacity="0.50" stroke-opacity="0.50"/>
<rect x="314.654" y="346.022" width="3.55276" height="0" fill="#007d34" fill-opacity="0.50" stroke-opacity="0.50"/>
<rect x="329.772" y="346.022" width="3.55276" height="0" fill="#007d34" fill-opacity="0.50" stroke-opacity="0.50"/>
<rect x="344.891" y="346.022" width="3.55276" height="0" fill="#007d34" fill-opacity="0.50" stroke-opacity="0.50"/>
<rect x="360.009" y="346.022" width="3.55276" height="0" fill="#007d34" fill-opacity="0.50" stroke-opacity="0.50"/>
<rect x="375.127" y="346.022" width="3.55276" height="0" fill="#007d34" fill-opacity="0.50" stroke-opacity="0.50"/>
<rect x="390.245" y="346.022" width="3.55276" height="0" fill="#007d34" fill-opacity="0.50" stroke-opacity="0.50"/>
<rect x="405.363" y="346.022" width="3.55276" height="0" fill="#007d34" fill-opacity="0.50" stroke-opacity="0.50"/>
<rect x="420.481" y="346.022" width="3.55276" height="0" fill="#007d34" fill-opacity="0.50" stroke-opacity="0.50"/>
<rect x="435.599" y="346.022" width="3.55276" height="0" fill="#007d34" fill-opacity="0.50" stroke-opacity="0.50"/>
<rect x="450.717" y="346.022" width="3.55276" height="0" fill="#007d34" fill-opacity="0.50" stroke-opacity="0.50"/>
<rect x="465.835" y="346.022" width="3.55276" height="0" fill="#007d34" fill-opacity="0.50" stroke-opacity="0.50"/>
<rect x="480.954" y="346.022" width="3.55276" height="0" fill="#007d34" fill-opacity="0.50" stroke-opacity="0.50"/>
<rect x="496.072" y="346.022" width="3.55276" height="0" fill="#007d34" fill-opacity="0.50" stroke-opacity="0.50"/>
<path d="M59.4606,346.022h 4.53543l 4.53543, -0.0425039l 4.53543, -0.0172061l 4.53543, -0.0235218l 4.53543, -0.0318894l 4.53543, -0.0428744l 4.53543, -0.0571628l 4.53543, -0.0755752l 4.53543, -0.0990789l 4.53543, -0.128796l 4.53543, -0.166008l
 4.53543, -0.212149l 4.53543, -0.268794l 4.53543, -0.337629l 4.53543, -0.420417l 4.53543, -0.518938l 4.53543, -0.634915l 4.53543, -0.769928l 4.53543, -0.925302l 4.53543, -1.10199l 4.53543, -1.30043l 4.53543, -1.52043l 4.53543, -1.76101l 4.53543,
 -2.02027l 4.53543, -2.29531l 4.53543, -2.58213l 4.53543, -2.87559l 4.53543, -3.16945l 4.53543, -3.45642l 4.53543, -3.72828l 4.53543, -3.97614l 4.53543, -4.19063l 4.53543, -4.36229l 4.53543, -4.48191l 4.53543, -4.54093l 4.53543, -4.5319l 4.53543,
 -4.44885l 4.53543, -4.28766l 4.53543, -4.04643l 4.53543, -3.72566l 4.53543, -3.32843l 4.53543, -2.86041l 4.53543, -2.32976l 4.53543, -1.74692l 4.53543, -1.12427l 4.53543, -0.475696l 4.53543, 0.183911l 4.53543, 0.839246l 4.53543, 1.47517" fill="none"
 stroke="#007d34" stroke-width="2"/>
<path d="M281.697,263.479l 4.53543, 2.07727l 4.53543, 2.63246l 4.53543, 3.12938l 4.53543, 3.55882l 4.53543, 3.914l 4.53543, 4.19068l 4.53543, 4.38724l 4.53543, 4.50453l 4.53543, 4.54572l 4.53543, 4.51601l 4.53543, 4.42224l 4.53543, 4.27253l 4.53543,
 4.07585l 4.53543, 3.84161l 4.53543, 3.57925l 4.53543, 3.29791l 4.53543, 3.00615l 4.53543, 2.71167l 4.53543, 2.42121l 4.53543, 2.14039l 4.53543, 1.87372l 4.53543, 1.62457l 4.53543, 1.39528l 4.53543, 1.18722l 4.53543, 1.00091l 4.53543, 0.836188l
 4.53543, 0.692299l 4.53543, 0.56807l 4.53543, 0.462022l 4.53543, 0.372481l 4.53543, 0.297684l 4.53543, 0.235852l 4.53543, 0.185259l 4.53543, 0.144277l 4.53543, 0.111406l 4.53543, 0.0852975l 4.53543, 0.0647577l 4.53543, 0.0487519l 4.53543, 0.0363956l
 4.53543, 0.026945l 4.53543, 0.0197829l 4.53543, 0.0144044l 4.53543, 0.0350549h 27.2126" fill="none" stroke="#007d34" stroke-width="2"/>
<path d="M503.933,346.022h 4.53543" fill="none" stroke="#007d34" stroke-width="2"/>
<rect x="61.1992" y="326.494" width="3.55276" height="19.5286" fill="#f6768e" fill-opacity="0.50" stroke-opacity="0.50"/>
<rect x="76.3173" y="346.022" width="3.55276" height="0" fill="#f6768e" fill-opacity="0.50" stroke-opacity="0.50"/>
<rect x="91.4354" y="346.022" width="3.55276" height="0" fill="#f6768e" fill-opacity="0.50" stroke-opacity="0.50"/>
<rect x="106.554" y="346.022" width="3.55276" height="0" fill="#f6768e" fill-opacity="0.50" stroke-opacity="0.50"/>
<rect x="121.672" y="346.022" width="3.55276" height="0" fill="#f6768e" fill-opacity="0.50" stroke-opacity="0.50"/>
<rect x="136.79" y="326.494" width="3.55276" height="19.5286" fill="#f6768e" fill-opacity="0.50" stroke-opacity="0.50"/>
<rect x="151.908" y="346.022" width="3.55276" height="0" fill="#f6768e" fill-opacity="0.50" stroke-opacity="0.50"/>
<rect x="167.026" y="346.022" width="3.55276" height="0" fill="#f6768e" fill-opacity="0.50" stroke-opacity="0.50"/>
<rect x="182.144" y="346.022" width="3.55276" height="0" fill="#f6768e" fill-opacity="0.50" stroke-opacity="0.50"/>
<rect x="197.262" y="287.436" width="3.55276" height="58.5858" fill="#f6768e" fill-opacity="0.50" stroke-opacity="0.50"/>
<rect x="212.38" y="228.851" width="3.55276" height="117.172" fill="#f6768e" fill-opacity="0.50" stroke-opacity="0.50"/>
<rect x="227.498" y="189.794" width="3.55276" height="156.229" fill="#f6768e" fill-opacity="0.50" stroke-opacity="0.50"/>
<rect x="242.617" y="53.0934" width="3.55276" height="292.929" fill="#f6768e" fill-opacity="0.50" stroke-opacity="0.50"/>
<rect x="257.735" y="131.208" width="3.55276" height="214.815" fill="#f6768e" fill-opacity="0.50" stroke-opacity="0.50"/>
<rect x="272.853" y="150.736" width="3.55276" height="195.286" fill="#f6768e" fill-opacity="0.50" stroke-opacity="0.50"/>
<rect x="287.971" y="92.1506" width="3.55276" height="253.872" fill="#f6768e" fill-opacity="0.50" stroke-opacity="0.50"/>
<rect x="303.089" y="170.265" width="3.55276" height="175.757" fill="#f6768e" fill-opacity="0.50" stroke-opacity="0.50"/>
<rect x="318.207" y="209.322" width="3.55276" height="136.7" fill="#f6768e" fill-opacity="0.50" stroke-opacity="0.50"/>
<rect x="333.325" y="267.908" width="3.55276" height="78.1144" fill="#f6768e" fill-opacity="0.50" stroke-opacity="0.50"/>
<rect x="348.443" y="346.022" width="3.55276" height="0" fill="#f6768e" fill-opacity="0.50" stroke-opacity="0.50"/>
<rect x="363.561" y="326.494" width="3.55276" height="19.5286" fill="#f6768e" fill-opacity="0.50" stroke-opacity="0.50"/>
<rect x="378.68" y="346.022" width="3.55276" height="0" fill="#f6768e" fill-opacity="0.50" stroke-opacity="0.50"/>
<rect x="393.798" y="346.022" width="3.55276" height="0" fill="#f6768e" fill-opacity="0.50" stroke-opacity="0.50"/>
<rect x="408.916" y="346.022" width="3.55276" height="0" fill="#f6768e" fill-opacity="0.50" stroke-opacity="0.50"/>
<rect x="424.034" y="346.022" width="3.55276" height="0" fill="#f6768e" fill-opacity="0.50" stroke-opacity="0.50"/>
<rect x="439.152" y="346.022" width="3.55276" height="0" fill="#f6768e" fill-opacity="0.50" stroke-opacity="0.50"/>
<rect x="454.27" y="346.022" width="3.55276" height="0" fill="#f6768e" fill-opacity="0.50" stroke-opacity="0.50"/>
<rect x="469.388" y="346.022" width="3.55276" height="0" fill="#f6768e" fill-opacity="0.50" stroke-opacity="0.50"/>
<rect x="484.506" y="346.022" width="3.55276" height="0" fill="#f6768e" fill-opacity="0.50" stroke-opacity="0.50"/>
<rect x="499.624" y="346.022" width="3.55276" height="0" fill="#f6768e" fill-opacity="0.50" stroke-opacity="0.50"/>
<path d="M59.4606,346.022h 18.1417l 4.53543, -0.0308769l 4.53543, -0.0164269l 4.53543, -0.0244169l 4.53543, -0.0358959l 4.53543, -0.0521921l 4.53543, -0.0750506l 4.53543, -0.106728l 4.53543, -0.150092l 4.53543, -0.208724l 4.53543, -0.287013l 4.53543,
 -0.390234l 4.53543, -0.524584l 4.53543, -0.697179l 4.53543, -0.915972l 4.53543, -1.18958l 4.53543, -1.52702l 4.53543, -1.93728l 4.53543, -2.42878l 4.53543, -3.00872l 4.53543, -3.68225l 4.53543, -4.4516l 4.53543, -5.31515l 4.53543, -6.26646l 4.53543,
 -7.29352l 4.53543, -8.37806l 4.53543, -9.49519l 4.53543, -10.6135l 4.53543, -11.6952l 4.53543, -12.6978l 4.53543, -13.5748l 4.53543, -14.2779l 4.53543, -14.7599l 4.53543, -14.9767l 4.53543, -14.8907l 4.53543, -14.4731l 4.53543, -13.7067l 4.53543,
 -12.5879l 4.53543, -11.1279l 4.53543, -9.35292l 4.53543, -7.30421l 4.53543, -5.03617l 4.53543, -2.61418l 4.53543, -0.111396l 4.53543, 2.39484l 4.53543, 4.82703" fill="none" stroke="#f6768e" stroke-width="2"/>
<path d="M281.697,110.954l 4.53543, 7.11146l 4.53543, 9.18195l 4.53543, 10.983l 4.53543, 12.4722l 4.53543, 13.6219l 4.53543, 14.4195l 4.53543, 14.8675l 4.53543, 14.9818l 4.53543, 14.7904l 4.53543, 14.3302l 4.53543, 13.6447l 4.53543, 12.7812l 4.53543,
 11.7878l 4.53543, 10.7112l 4.53543, 9.59461l 4.53543, 8.47602l 4.53543, 7.3875l 4.53543, 6.35452l 4.53543, 5.39593l 4.53543, 4.52428l 4.53543, 3.74646l 4.53543, 3.06449l 4.53543, 2.47644l 4.53543, 1.97738l 4.53543, 1.56026l 4.53543, 1.21674l
 4.53543, 0.937844l 4.53543, 0.714555l 4.53543, 0.538204l 4.53543, 0.40077l 4.53543, 0.295058l 4.53543, 0.214788l 4.53543, 0.154606l 4.53543, 0.110047l 4.53543, 0.0774608l 4.53543, 0.0539211l 4.53543, 0.0371214l 4.53543, 0.0252751l 4.53543,
 0.0170208l 4.53543, 0.0320782h 40.8189" fill="none" stroke="#f6768e" stroke-width="2"/>
<path d="M503.933,346.022h 4.53543" fill="none" stroke="#f6768e" stroke-width="2"/>
<rect x="64.752" y="346.022" width="3.55276" height="0" fill="#00538a" fill-opacity="0.50" stroke-opacity="0.50"/>
<rect x="79.8701" y="346.022" width="3.55276" height="0" fill="#00538a" fill-opacity="0.50" stroke-opacity="0.50"/>
<rect x="94.9882" y="346.022" width="3.55276" height="0" fill="#00538a" fill-opacity="0.50" stroke-opacity="0.50"/>
<rect x="110.106" y="346.022" width="3.55276" height="0" fill="#00538a" fill-opacity="0.50" stroke-opacity="0.50"/>
<rect x="125.224" y="346.022" width="3.55276" height="0" fill="#00538a" fill-opacity="0.50" stroke-opacity="0.50"/>
<rect x="140.343" y="346.022" width="3.55276" height="0" fill="#00538a" fill-opacity="0.50" stroke-opacity="0.50"/>
<rect x="155.461" y="326.494" width="3.55276" height="19.5286" fill="#00538a" fill-opacity="0.50" stroke-opacity="0.50"/>
<rect x="170.579" y="346.022" width="3.55276" height="0" fill="#00538a" fill-opacity="0.50" stroke-opacity="0.50"/>
<rect x="185.697" y="346.022" width="3.55276" height="0" fill="#00538a" fill-opacity="0.50" stroke-opacity="0.50"/>
<rect x="200.815" y="306.965" width="3.55276" height="39.0572" fill="#00538a" fill-opacity="0.50" stroke-opacity="0.50"/>
<rect x="215.933" y="346.022" width="3.55276" height="0" fill="#00538a" fill-opacity="0.50" stroke-opacity="0.50"/>
<rect x="231.051" y="287.436" width="3.55276" height="58.5858" fill="#00538a" fill-opacity="0.50" stroke-opacity="0.50"/>
<rect x="246.169" y="228.851" width="3.55276" height="117.172" fill="#00538a" fill-opacity="0.50" stroke-opacity="0.50"/>
<rect x="261.287" y="92.1506" width="3.55276" height="253.872" fill="#00538a" fill-opacity="0.50" stroke-opacity="0.50"/>
<rect x="276.406" y="111.679" width="3.55276" height="234.343" fill="#00538a" fill-opacity="0.50" stroke-opacity="0.50"/>
<rect x="291.524" y="189.794" width="3.55276" height="156.229" fill="#00538a" fill-opacity="0.50" stroke-opacity="0.50"/>
<rect x="306.642" y="209.322" width="3.55276" height="136.7" fill="#00538a" fill-opacity="0.50" stroke-opacity="0.50"/>
<rect x="321.76" y="111.679" width="3.55276" height="234.343" fill="#00538a" fill-opacity="0.50" stroke-opacity="0.50"/>
<rect x="336.878" y="170.265" width="3.55276" height="175.757" fill="#00538a" fill-opacity="0.50" stroke-opacity="0.50"/>
<rect x="351.996" y="248.379" width="3.55276" height="97.643" fill="#00538a" fill-opacity="0.50" stroke-opacity="0.50"/>
<rect x="367.114" y="248.379" width="3.55276" height="97.643" fill="#00538a" fill-opacity="0.50" stroke-opacity="0.50"/>
<rect x="382.232" y="326.494" width="3.55276" height="19.5286" fill="#00538a" fill-opacity="0.50" stroke-opacity="0.50"/>
<rect x="397.35" y="346.022" width="3.55276" height="0" fill="#00538a" fill-opacity="0.50" stroke-opacity="0.50"/>
<rect x="412.469" y="346.022" width="3.55276" height="0" fill="#00538a" fill-opacity="0.50" stroke-opacity="0.50"/>
<rect x="427.587" y="346.022" width="3.55276" height="0" fill="#00538a" fill-opacity="0.50" stroke-opacity="0.50"/>
<rect x="442.705" y="346.022" width="3.55276" height="0" fill="#00538a" fill-opacity="0.50" stroke-opacity="0.50"/>
<rect x="457.823" y="346.022" width="3.55276" height="0" fill="#00538a" fill-opacity="0.50" stroke-opacity="0.50"/>
<rect x="472.941" y="346.022" width="3.55276" height="0" fill="#00538a" fill-opacity="0.50" stroke-opacity="0.50"/>
<rect x="488.059" y="346.022" width="3.55276" height="0" fill="#00538a" fill-opacity="0.50" stroke-opacity="0.50"/>
<rect x="503.177" y="346.022" width="3.55276" height="0" fill="#00538a" fill-opacity="0.50" stroke-opacity="0.50"/>
<path d="M59.4606,346.022h 31.748l 4.53543, -0.0365012l 4.53543, -0.0174156l 4.53543, -0.0250082l 4.53543, -0.035568l 4.53543, -0.0501022l 4.53543, -0.0698974l 4.53543, -0.0965737l 4.53543, -0.13214l 4.53543, -0.179049l 4.53543, -0.240246l 4.53543,
 -0.3192l 4.53543, -0.419928l 4.53543, -0.546975l 4.53543, -0.70537l 4.53543, -0.900524l 4.53543, -1.13808l 4.53543, -1.42369l 4.53543, -1.76273l 4.53543, -2.15995l 4.53543, -2.61905l 4.53543, -3.14219l 4.53543, -3.72952l 4.53543, -4.37864l 4.53543,
 -5.08413l 4.53543, -5.83712l 4.53543, -6.625l 4.53543, -7.4313l 4.53543, -8.23569l 4.53543, -9.01432l 4.53543, -9.74035l 4.53543, -10.3848l 4.53543, -10.9174l 4.53543, -11.3085l 4.53543, -11.5295l 4.53543, -11.5555l 4.53543, -11.366l 4.53543,
 -10.9468l 4.53543, -10.2909l 4.53543, -9.39979l 4.53543, -8.28373l 4.53543, -6.96181l 4.53543, -5.46165" fill="none" stroke="#00538a" stroke-width="2"/>
<path d="M281.697,151.52l 4.53543, -3.81842l 4.53543, -2.07353l 4.53543, -0.272879l 4.53543, 1.53514l 4.53543, 3.3018l 4.53543, 4.98023l 4.53543, 6.52748l 4.53543, 7.90633l 4.53543, 9.08677l 4.53543, 10.0471l 4.53543, 10.7743l 4.53543, 11.2644l
 4.53543, 11.5219l 4.53543, 11.5589l 4.53543, 11.3941l 4.53543, 11.0514l 4.53543, 10.5583l 4.53543, 9.9443l 4.53543, 9.23971l 4.53543, 8.47398l 4.53543, 7.67468l 4.53543, 6.86665l 4.53543, 6.07131l 4.53543, 5.30632l 4.53543, 4.58543l 4.53543,
 3.91862l 4.53543, 3.31231l 4.53543, 2.76975l 4.53543, 2.29152l 4.53543, 1.876l 4.53543, 1.5199l 4.53543, 1.21875l 4.53543, 0.967318l 4.53543, 0.759998l 4.53543, 0.59112l 4.53543, 0.455185l 4.53543, 0.347035l 4.53543, 0.261973l 4.53543, 0.195821l
 4.53543, 0.144944l 4.53543, 0.106243l 4.53543, 0.0771206l 4.53543, 0.055441l 4.53543, 0.0394725l 4.53543, 0.0278339l 4.53543, 0.0194394l 4.53543, 0.0410887h 9.07087" fill="none" stroke="#00538a" stroke-width="2"/>
<path d="M503.933,346.022h 4.53543" fill="none" stroke="#00538a" stroke-width="2"/>
<rect x="68.3047" y="346.022" width="3.55276" height="0" fill="#ff7a5c" fill-opacity="0.50" stroke-opacity="0.50"/>
<rect x="83.4228" y="346.022" width="3.55276" height="0" fill="#ff7a5c" fill-opacity="0.50" stroke-opacity="0.50"/>
<rect x="98.5409" y="346.022" width="3.55276" height="0" fill="#ff7a5c" fill-opacity="0.50" stroke-opacity="0.50"/>
<rect x="113.659" y="346.022" width="3.55276" height="0" fill="#ff7a5c" fill-opacity="0.50" stroke-opacity="0.50"/>
<rect x="128.777" y="346.022" width="3.55276" height="0" fill="#ff7a5c" fill-opacity="0.50" stroke-opacity="0.50"/>
<rect x="143.895" y="346.022" width="3.55276" height="0" fill="#ff7a5c" fill-opacity="0.50" stroke-opacity="0.50"/>
<rect x="159.013" y="346.022" width="3.55276" height="0" fill="#ff7a5c" fill-opacity="0.50" stroke-opacity="0.50"/>
<rect x="174.132" y="346.022" width="3.55276" height="0" fill="#ff7a5c" fill-opacity="0.50" stroke-opacity="0.50"/>
<rect x="189.25" y="346.022" width="3.55276" height="0" fill="#ff7a5c" fill-opacity="0.50" stroke-opacity="0.50"/>
<rect x="204.368" y="346.022" width="3.55276" height="0" fill="#ff7a5c" fill-opacity="0.50" stroke-opacity="0.50"/>
<rect x="219.486" y="326.494" width="3.55276" height="19.5286" fill="#ff7a5c" fill-opacity="0.50" stroke-opacity="0.50"/>
<rect x="234.604" y="267.908" width="3.55276" height="78.1144" fill="#ff7a5c" fill-opacity="0.50" stroke-opacity="0.50"/>
<rect x="249.722" y="228.851" width="3.55276" height="117.172" fill="#ff7a5c" fill-opacity="0.50" stroke-opacity="0.50"/>
<rect x="264.84" y="150.736" width="3.55276" height="195.286" fill="#ff7a5c" fill-opacity="0.50" stroke-opacity="0.50"/>
<rect x="279.958" y="111.679" width="3.55276" height="234.343" fill="#ff7a5c" fill-opacity="0.50" stroke-opacity="0.50"/>
<rect x="295.076" y="267.908" width="3.55276" height="78.1144" fill="#ff7a5c" fill-opacity="0.50" stroke-opacity="0.50"/>
<rect x="310.194" y="267.908" width="3.55276" height="78.1144" fill="#ff7a5c" fill-opacity="0.50" stroke-opacity="0.50"/>
<rect x="325.313" y="326.494" width="3.55276" height="19.5286" fill="#ff7a5c" fill-opacity="0.50" stroke-opacity="0.50"/>
<rect x="340.431" y="346.022" width="3.55276" height="0" fill="#ff7a5c" fill-opacity="0.50" stroke-opacity="0.50"/>
<rect x="355.549" y="346.022" width="3.55276" height="0" fill="#ff7a5c" fill-opacity="0.50" stroke-opacity="0.50"/>
<rect x="370.667" y="346.022" width="3.55276" height="0" fill="#ff7a5c" fill-opacity="0.50" stroke-opacity="0.50"/>
<rect x="385.785" y="346.022" width="3.55276" height="0" fill="#ff7a5c" fill-opacity="0.50" stroke-opacity="0.50"/>
<rect x="400.903" y="346.022" width="3.55276" height="0" fill="#ff7a5c" fill-opacity="0.50" stroke-opacity="0.50"/>
<rect x="416.021" y="346.022" width="3.55276" height="0" fill="#ff7a5c" fill-opacity="0.50" stroke-opacity="0.50"/>
<rect x="431.139" y="346.022" width="3.55276" height="0" fill="#ff7a5c" fill-opacity="0.50" stroke-opacity="0.50"/>
<rect x="446.257" y="346.022" width="3.55276" height="0" fill="#ff7a5c" fill-opacity="0.50" stroke-opacity="0.50"/>
<rect x="461.376" y="346.022" width="3.55276" height="0" fill="#ff7a5c" fill-opacity="0.50" stroke-opacity="0.50"/>
<rect x="476.494" y="346.022" width="3.55276" height="0" fill="#ff7a5c" fill-opacity="0.50" stroke-opacity="0.50"/>
<rect x="491.612" y="346.022" width="3.55276" height="0" fill="#ff7a5c" fill-opacity="0.50" stroke-opacity="0.50"/>
<rect x="506.73" y="346.022" width="3.55276" height="0" fill="#ff7a5c" fill-opacity="0.50" stroke-opacity="0.50"/>
<path d="M59.4606,346.022h 104.315l 4.53543, -0.0639915l 4.53543, -0.0673612l 4.53543, -0.129298l 4.53543, -0.239364l 4.53543, -0.427265l 4.53543, -0.735145l 4.53543, -1.2188l 4.53543, -1.9462l 4.53543, -2.99169l 4.53543, -4.42432l 4.53543, -6.28985l
 4.53543, -8.58769l 4.53543, -11.2464l 4.53543, -14.104l 4.53543, -16.9009l 4.53543, -19.2929l 4.53543, -20.8878l 4.53543, -21.3046l 4.53543, -20.2468l 4.53543, -17.5738l 4.53543, -13.3524l 4.53543, -7.87311l 4.53543, -1.62158l 4.53543, 4.7917l
 4.53543, 10.7296l 4.53543, 15.6329" fill="none" stroke="#ff7a5c" stroke-width="2"/>
<path d="M281.697,185.651l 4.53543, 19.1065l 4.53543, 20.9705l 4.53543, 21.2659l 4.53543, 20.219l 4.53543, 18.1776l 4.53543, 15.537l 4.53543, 12.6715l 4.53543, 9.8865l 4.53543, 7.39309l 4.53543, 5.30635l 4.53543, 3.65957l 4.53543, 2.4272l 4.53543,
 1.54926l 4.53543, 0.952211l 4.53543, 0.563814l 4.53543, 0.321737l 4.53543, 0.177l 4.53543, 0.0939022l 4.53543, 0.048052l 4.53543, 0.0441855h 131.528" fill="none" stroke="#ff7a5c" stroke-width="2"/>
<path d="M503.933,346.022h 4.53543" fill="none" stroke="#ff7a5c" stroke-width="2"/>
<path d="M57.1929,346.022h 453.543" fill="none" stroke="black"/>
<path d="M57.1929,336.795v 9.22726" fill="none" stroke="black"/>
<path d="M72.311,341.409v 4.61363" fill="none" stroke="black"/>
<path d="M87.4291,341.409v 4.61363" fill="none" stroke="black"/>
<path d="M102.547,341.409v 4.61363" fill="none" stroke="black"/>
<path d="M117.665,341.409v 4.61363" fill="none" stroke="black"/>
<path d="M132.783,336.795v 9.22726" fill="none" stroke="black"/>
<path d="M147.902,341.409v 4.61363" fill="none" stroke="black"/>
<path d="M163.02,341.409v 4.61363" fill="none" stroke="black"/>
<path d="M178.138,341.409v 4.61363" fill="none" stroke="black"/>
<path d="M193.256,341.409v 4.61363" fill="none" stroke="black"/>
<path d="M208.374,336.795v 9.22726" fill="none" stroke="black"/>
<path d="M223.492,341.409v 4.61363" fill="none" stroke="black"/>
<path d="M238.61,341.409v 4.61363" fill="none" stroke="black"/>
<path d="M253.728,341.409v 4.61363" fill="none" stroke="black"/>
<path d="M268.846,341.409v 4.61363" fill="none" stroke="black"/>
<path d="M283.965,336.795v 9.22726" fill="none" stroke="black"/>
<path d="M299.083,341.409v 4.61363" fill="none" stroke="black"/>
<path d="M314.201,341.409v 4.61363" fill="none" stroke="black"/>
<path d="M329.319,341.409v 4.61363" fill="none" stroke="black"/>
<path d="M344.437,341.409v 4.61363" fill="none" stroke="black"/>
<path d="M359.555,336.795v 9.22726" fill="none" stroke="black"/>
<path d="M374.673,341.409v 4.61363" fill="none" stroke="black"/>
<path d="M389.791,341.409v 4.61363" fill="none" stroke="black"/>
<path d="M404.909,341.409v 4.61363" fill="none" stroke="black"/>
<path d="M420.028,341.409v 4.61363" fill="none" stroke="black"/>
<path d="M435.146,336.795v 9.22726" fill="none" stroke="black"/>
<path d="M450.264,341.409v 4.61363" fill="none" stroke="black"/>
<path d="M465.382,341.409v 4.61363" fill="none" stroke="black"/>
<path d="M480.5,341.409v 4.61363" fill="none" stroke="black"/>
<path d="M495.618,341.409v 4.61363" fill="none" stroke="black"/>
<path d="M510.736,336.795v 9.22726" fill="none" stroke="black"/>
<path d="M57.1929,346.022v -307.575" fill="none" stroke="black"/>
<path d="M70.7992,346.022h -13.6063" fill="none" stroke="black"/>
<path d="M63.9961,339.513h -6.80315" fill="none" stroke="black"/>
<path d="M63.9961,333.003h -6.80315" fill="none" stroke="black"/>
<path d="M63.9961,326.494h -6.80315" fill="none" stroke="black"/>
<path d="M63.9961,319.984h -6.80315" fill="none" stroke="black"/>
<path d="M70.7992,313.475h -13.6063" fill="none" stroke="black"/>
<path d="M63.9961,306.965h -6.80315" fill="none" stroke="black"/>
<path d="M63.9961,300.456h -6.80315" fill="none" stroke="black"/>
<path d="M63.9961,293.946h -6.80315" fill="none" stroke="black"/>
<path d="M63.9961,287.436h -6.80315" fill="none" stroke="black"/>
<path d="M70.7992,280.927h -13.6063" fill="none" stroke="black"/>
<path d="M63.9961,274.417h -6.80315" fill="none" stroke="black"/>
<path d="M63.9961,267.908h -6.80315" fill="none" stroke="black"/>
<path d="M63.9961,261.398h -6.80315" fill="none" stroke="black"/>
<path d="M63.9961,254.889h -6.80315" fill="none" stroke="black"/>
<path d="M70.7992,248.379h -13.6063" fill="none" stroke="black"/>
<path d="M63.9961,241.87h -6.80315" fill="none" stroke="black"/>
<path d="M63.9961,235.36h -6.80315" fill="none" stroke="black"/>
<path d="M63.9961,228.851h -6.80315" fill="none" stroke="black"/>
<path d="M63.9961,222.341h -6.80315" fill="none" stroke="black"/>
<path d="M70.7992,215.832h -13.6063" fill="none" stroke="black"/>
<path d="M63.9961,209.322h -6.80315" fill="none" stroke="black"/>
<path d="M63.9961,202.813h -6.80315" fill="none" stroke="black"/>
<path d="M63.9961,196.303h -6.80315" fill="none" stroke="black"/>
<path d="M63.9961,189.794h -6.80315" fill="none" stroke="black"/>
<path d="M70.7992,183.284h -13.6063" fill="none" stroke="black"/>
<path d="M63.9961,176.774h -6.80315" fill="none" stroke="black"/>
<path d="M63.9961,170.265h -6.80315" fill="none" stroke="black"/>
<path d="M63.9961,163.755h -6.80315" fill="none" stroke="black"/>
<path d="M63.9961,157.246h -6.80315" fill="none" stroke="black"/>
<path d="M70.7992,150.736h -13.6063" fill="none" stroke="black"/>
<path d="M63.9961,144.227h -6.80315" fill="none" stroke="black"/>
<path d="M63.9961,137.717h -6.80315" fill="none" stroke="black"/>
<path d="M63.9961,131.208h -6.80315" fill="none" stroke="black"/>
<path d="M63.9961,124.698h -6.80315" fill="none" stroke="black"/>
<path d="M70.7992,118.189h -13.6063" fill="none" stroke="black"/>
<path d="M63.9961,111.679h -6.80315" fill="none" stroke="black"/>
<path d="M63.9961,105.17h -6.80315" fill="none" stroke="black"/>
<path d="M63.9961,98.6601h -6.80315" fill="none" stroke="black"/>
<path d="M63.9961,92.1506h -6.80315" fill="none" stroke="black"/>
<path d="M70.7992,85.641h -13.6063" fill="none" stroke="black"/>
<path d="M63.9961,79.1315h -6.80315" fill="none" stroke="black"/>
<path d="M63.9961,72.622h -6.80315" fill="none" stroke="black"/>
<path d="M63.9961,66.1124h -6.80315" fill="none" stroke="black"/>
<path d="M63.9961,59.6029h -6.80315" fill="none" stroke="black"/>
<path d="M70.7992,53.0934h -13.6063" fill="none" stroke="black"/>
<path d="M70.7992,53.0934h -13.6063" fill="none" stroke="black"/>
<path d="M63.9961,46.5838h -6.80315" fill="none" stroke="black"/>
<path d="M63.9961,40.0743h -6.80315" fill="none" stroke="black"/>
<rect x="58.0145" y="140.127" width="170.079" height="80.7385" fill="white"/>
<path d="M58.0145,220.865h 170.079" fill="none" stroke="black"/>
<path d="M228.093,220.865v -80.7385" fill="none" stroke="black"/>
<path d="M228.093,140.127h -170.079" fill="none" stroke="black"/>
<path d="M58.0145,140.127v 80.7385" fill="none" stroke="black"/>
<text xml:space="preserve" x="99.8755" y="153.951" fill="black" font-size="12.4567" font-family="Helvetica">sector 8</text>
<path d="M64.3925,157.284h 29.7638v -14.1292h -29.7638z" fill="#007d34" fill-opacity="0.50" stroke-opacity="0.50"/>
<path d="M64.3925,150.219h 29.7638" fill="none" stroke="#007d34" fill-opacity="0.00" stroke-opacity="0.00"/>
<g stroke="black" stroke-width="1" fill="none">
<line x1="78.2744" y1="150.219" x2="79.2744" y2="150.219"/>
</g>
<text xml:space="preserve" x="99.8755" y="174.314" fill="black" font-size="12.4567" font-family="Helvetica">sector 9</text>
<path d="M64.3925,177.468h 29.7638v -14.1292h -29.7638z" fill="#f6768e" fill-opacity="0.50" stroke-opacity="0.50"/>
<path d="M64.3925,170.404h 29.7638" fill="none" stroke="#f6768e" fill-opacity="0.00" stroke-opacity="0.00"/>
<g stroke="black" stroke-width="1" fill="none">
<line x1="78.2744" y1="170.404" x2="79.2744" y2="170.404"/>
</g>
<text xml:space="preserve" x="99.8755" y="194.678" fill="black" font-size="12.4567" font-family="Helvetica">sector 10</text>
<path d="M64.3925,197.653h 29.7638v -14.1292h -29.7638z" fill="#00538a" fill-opacity="0.50" stroke-opacity="0.50"/>
<path d="M64.3925,190.588h 29.7638" fill="none" stroke="#00538a" fill-opacity="0.00" stroke-opacity="0.00"/>
<g stroke="black" stroke-width="1" fill="none">
<line x1="78.2744" y1="190.588" x2="79.2744" y2="190.588"/>
</g>
<text xml:space="preserve" x="99.8755" y="215.042" fill="black" font-size="12.4567" font-family="Helvetica">sector 11</text>
<path d="M64.3925,217.838h 29.7638v -14.1292h -29.7638z" fill="#ff7a5c" fill-opacity="0.50" stroke-opacity="0.50"/>
<path d="M64.3925,210.773h 29.7638" fill="none" stroke="#ff7a5c" fill-opacity="0.00" stroke-opacity="0.00"/>
<g stroke="black" stroke-width="1" fill="none">
<line x1="78.2744" y1="210.773" x2="79.2744" y2="210.773"/>
</g>
<text xml:space="preserve" x="242.422" y="17.9202" fill="black" font-size="18.7938" font-family="Helvetica">vop 69.08</text></svg>
