<?xml version="1.0" standalone="no"?>
<svg width="567.429" height="384.969" viewBox="0 0 567.429 384.969" xmlns="http://www.w3.org/2000/svg" shape-rendering="crispEdges">
<title>
./plots/sector_before_after/sector7before.svg
</title>
<desc>
Creator: ROOT Version 6.22/02
CreationDate: Thu Aug  5 11:57:55 2021</desc>
<defs>
</defs>
<rect x="0.5" y="0" width="566.929" height="384.469" fill="white"/>
<rect x="57.1929" y="38.4469" width="453.543" height="307.575" fill="white"/>
<rect x="57.1929" y="38.4469" width="453.543" height="307.575" fill="none" stroke="black"/>
<path d="M57.1929,346.022h 453.543" fill="none" stroke="black"/>
<path d="M57.1929,38.4469v 307.575" fill="none" stroke="black" stroke-dasharray=" 1, 2"/>
<path d="M104.437,38.4469v 307.575" fill="none" stroke="black" stroke-dasharray=" 1, 2"/>
<path d="M151.681,38.4469v 307.575" fill="none" stroke="black" stroke-dasharray=" 1, 2"/>
<path d="M198.925,38.4469v 307.575" fill="none" stroke="black" stroke-dasharray=" 1, 2"/>
<path d="M246.169,38.4469v 307.575" fill="none" stroke="black" stroke-dasharray=" 1, 2"/>
<path d="M293.413,38.4469v 307.575" fill="none" stroke="black" stroke-dasharray=" 1, 2"/>
<path d="M340.657,38.4469v 307.575" fill="none" stroke="black" stroke-dasharray=" 1, 2"/>
<path d="M387.902,38.4469v 307.575" fill="none" stroke="black" stroke-dasharray=" 1, 2"/>
<path d="M435.146,38.4469v 307.575" fill="none" stroke="black" stroke-dasharray=" 1, 2"/>
<path d="M482.39,38.4469v 307.575" fill="none" stroke="black" stroke-dasharray=" 1, 2"/>
<path d="M482.39,38.4469v 307.575" fill="none" stroke="black" stroke-dasharray=" 1, 2"/>
<path d="M57.1929,346.022v -307.575" fill="none" stroke="black"/>
<path d="M510.736,346.022h -453.543" fill="none" stroke="black" stroke-dasharray=" 1, 2"/>
<path d="M510.736,297.201h -453.543" fill="none" stroke="black" stroke-dasharray=" 1, 2"/>
<path d="M510.736,248.379h -453.543" fill="none" stroke="black" stroke-dasharray=" 1, 2"/>
<path d="M510.736,199.558h -453.543" fill="none" stroke="black" stroke-dasharray=" 1, 2"/>
<path d="M510.736,150.736h -453.543" fill="none" stroke="black" stroke-dasharray=" 1, 2"/>
<path d="M510.736,101.915h -453.543" fill="none" stroke="black" stroke-dasharray=" 1, 2"/>
<path d="M510.736,53.0934h -453.543" fill="none" stroke="black" stroke-dasharray=" 1, 2"/>
<path d="M510.736,53.0934h -453.543" fill="none" stroke="black" stroke-dasharray=" 1, 2"/>
<path d="M57.1929,346.022h 453.543" fill="none" stroke="#000099"/>
<path d="M57.1929,346.022h 453.543" fill="none" stroke="black"/>
<path d="M57.1929,336.795v 9.22726" fill="none" stroke="black"/>
<path d="M66.6417,341.409v 4.61363" fill="none" stroke="black"/>
<path d="M76.0906,341.409v 4.61363" fill="none" stroke="black"/>
<path d="M85.5394,341.409v 4.61363" fill="none" stroke="black"/>
<path d="M94.9882,341.409v 4.61363" fill="none" stroke="black"/>
<path d="M104.437,336.795v 9.22726" fill="none" stroke="black"/>
<path d="M113.886,341.409v 4.61363" fill="none" stroke="black"/>
<path d="M123.335,341.409v 4.61363" fill="none" stroke="black"/>
<path d="M132.783,341.409v 4.61363" fill="none" stroke="black"/>
<path d="M142.232,341.409v 4.61363" fill="none" stroke="black"/>
<path d="M151.681,336.795v 9.22726" fill="none" stroke="black"/>
<path d="M161.13,341.409v 4.61363" fill="none" stroke="black"/>
<path d="M170.579,341.409v 4.61363" fill="none" stroke="black"/>
<path d="M180.028,341.409v 4.61363" fill="none" stroke="black"/>
<path d="M189.476,341.409v 4.61363" fill="none" stroke="black"/>
<path d="M198.925,336.795v 9.22726" fill="none" stroke="black"/>
<path d="M208.374,341.409v 4.61363" fill="none" stroke="black"/>
<path d="M217.823,341.409v 4.61363" fill="none" stroke="black"/>
<path d="M227.272,341.409v 4.61363" fill="none" stroke="black"/>
<path d="M236.72,341.409v 4.61363" fill="none" stroke="black"/>
<path d="M246.169,336.795v 9.22726" fill="none" stroke="black"/>
<path d="M255.618,341.409v 4.61363" fill="none" stroke="black"/>
<path d="M265.067,341.409v 4.61363" fill="none" stroke="black"/>
<path d="M274.516,341.409v 4.61363" fill="none" stroke="black"/>
<path d="M283.965,341.409v 4.61363" fill="none" stroke="black"/>
<path d="M293.413,336.795v 9.22726" fill="none" stroke="black"/>
<path d="M302.862,341.409v 4.61363" fill="none" stroke="black"/>
<path d="M312.311,341.409v 4.61363" fill="none" stroke="black"/>
<path d="M321.76,341.409v 4.61363" fill="none" stroke="black"/>
<path d="M331.209,341.409v 4.61363" fill="none" stroke="black"/>
<path d="M340.657,336.795v 9.22726" fill="none" stroke="black"/>
<path d="M350.106,341.409v 4.61363" fill="none" stroke="black"/>
<path d="M359.555,341.409v 4.61363" fill="none" stroke="black"/>
<path d="M369.004,341.409v 4.61363" fill="none" stroke="black"/>
<path d="M378.453,341.409v 4.61363" fill="none" stroke="black"/>
<path d="M387.902,336.795v 9.22726" fill="none" stroke="black"/>
<path d="M397.35,341.409v 4.61363" fill="none" stroke="black"/>
<path d="M406.799,341.409v 4.61363" fill="none" stroke="black"/>
<path d="M416.248,341.409v 4.61363" fill="none" stroke="black"/>
<path d="M425.697,341.409v 4.61363" fill="none" stroke="black"/>
<path d="M435.146,336.795v 9.22726" fill="none" stroke="black"/>
<path d="M444.594,341.409v 4.61363" fill="none" stroke="black"/>
<path d="M454.043,341.409v 4.61363" fill="none" stroke="black"/>
<path d="M463.492,341.409v 4.61363" fill="none" stroke="black"/>
<path d="M472.941,341.409v 4.61363" fill="none" stroke="black"/>
<path d="M482.39,336.795v 9.22726" fill="none" stroke="black"/>
<path d="M482.39,336.795v 9.22726" fill="none" stroke="black"/>
<path d="M491.839,341.409v 4.61363" fill="none" stroke="black"/>
<path d="M501.287,341.409v 4.61363" fill="none" stroke="black"/>
<text xml:space="preserve" x="53.446" y="358.403" fill="black" font-size="12.8453" font-family="Helvetica">0</text>
<text xml:space="preserve" x="97.4318" y="358.403" fill="black" font-size="12.8453" font-family="Helvetica">10</text>
<text xml:space="preserve" x="144.676" y="358.403" fill="black" font-size="12.8453" font-family="Helvetica">20</text>
<text xml:space="preserve" x="191.92" y="358.403" fill="black" font-size="12.8453" font-family="Helvetica">30</text>
<text xml:space="preserve" x="239.164" y="358.403" fill="black" font-size="12.8453" font-family="Helvetica">40</text>
<text xml:space="preserve" x="286.408" y="358.403" fill="black" font-size="12.8453" font-family="Helvetica">50</text>
<text xml:space="preserve" x="333.652" y="358.403" fill="black" font-size="12.8453" font-family="Helvetica">60</text>
<text xml:space="preserve" x="380.896" y="358.403" fill="black" font-size="12.8453" font-family="Helvetica">70</text>
<text xml:space="preserve" x="428.141" y="358.403" fill="black" font-size="12.8453" font-family="Helvetica">80</text>
<text xml:space="preserve" x="475.385" y="358.403" fill="black" font-size="12.8453" font-family="Helvetica">90</text>
<text xml:space="preserve" x="433.842" y="372.251" fill="black" font-size="12.8453" font-family="Helvetica">Block Number</text>
<path d="M57.1929,346.022v -307.575" fill="none" stroke="black"/>
<path d="M70.7992,346.022h -13.6063" fill="none" stroke="black"/>
<path d="M63.9961,336.258h -6.80315" fill="none" stroke="black"/>
<path d="M63.9961,326.494h -6.80315" fill="none" stroke="black"/>
<path d="M63.9961,316.729h -6.80315" fill="none" stroke="black"/>
<path d="M63.9961,306.965h -6.80315" fill="none" stroke="black"/>
<path d="M70.7992,297.201h -13.6063" fill="none" stroke="black"/>
<path d="M63.9961,287.436h -6.80315" fill="none" stroke="black"/>
<path d="M63.9961,277.672h -6.80315" fill="none" stroke="black"/>
<path d="M63.9961,267.908h -6.80315" fill="none" stroke="black"/>
<path d="M63.9961,258.144h -6.80315" fill="none" stroke="black"/>
<path d="M70.7992,248.379h -13.6063" fill="none" stroke="black"/>
<path d="M63.9961,238.615h -6.80315" fill="none" stroke="black"/>
<path d="M63.9961,228.851h -6.80315" fill="none" stroke="black"/>
<path d="M63.9961,219.086h -6.80315" fill="none" stroke="black"/>
<path d="M63.9961,209.322h -6.80315" fill="none" stroke="black"/>
<path d="M70.7992,199.558h -13.6063" fill="none" stroke="black"/>
<path d="M63.9961,189.794h -6.80315" fill="none" stroke="black"/>
<path d="M63.9961,180.029h -6.80315" fill="none" stroke="black"/>
<path d="M63.9961,170.265h -6.80315" fill="none" stroke="black"/>
<path d="M63.9961,160.501h -6.80315" fill="none" stroke="black"/>
<path d="M70.7992,150.736h -13.6063" fill="none" stroke="black"/>
<path d="M63.9961,140.972h -6.80315" fill="none" stroke="black"/>
<path d="M63.9961,131.208h -6.80315" fill="none" stroke="black"/>
<path d="M63.9961,121.443h -6.80315" fill="none" stroke="black"/>
<path d="M63.9961,111.679h -6.80315" fill="none" stroke="black"/>
<path d="M70.7992,101.915h -13.6063" fill="none" stroke="black"/>
<path d="M63.9961,92.1506h -6.80315" fill="none" stroke="black"/>
<path d="M63.9961,82.3863h -6.80315" fill="none" stroke="black"/>
<path d="M63.9961,72.622h -6.80315" fill="none" stroke="black"/>
<path d="M63.9961,62.8577h -6.80315" fill="none" stroke="black"/>
<path d="M70.7992,53.0934h -13.6063" fill="none" stroke="black"/>
<path d="M70.7992,53.0934h -13.6063" fill="none" stroke="black"/>
<path d="M63.9961,43.3291h -6.80315" fill="none" stroke="black"/>
<text xml:space="preserve" x="47.7441" y="350.258" fill="black" font-size="12.8453" font-family="Helvetica">0</text>
<text xml:space="preserve" x="33.8967" y="301.385" fill="black" font-size="12.8453" font-family="Helvetica">100</text>
<text xml:space="preserve" x="33.8967" y="252.512" fill="black" font-size="12.8453" font-family="Helvetica">200</text>
<text xml:space="preserve" x="33.8967" y="203.638" fill="black" font-size="12.8453" font-family="Helvetica">300</text>
<text xml:space="preserve" x="33.8967" y="155.58" fill="black" font-size="12.8453" font-family="Helvetica">400</text>
<text xml:space="preserve" x="33.8967" y="106.706" fill="black" font-size="12.8453" font-family="Helvetica">500</text>
<text xml:space="preserve" x="33.8967" y="57.8333" fill="black" font-size="12.8453" font-family="Helvetica">600</text>
<g transform="rotate(-90,21.6784,65.1643)">
<text xml:space="preserve" x="21.6784" y="65.1643" fill="black" font-size="12.8453" font-family="Helvetica">MPV</text>
</g>
<text xml:space="preserve" x="216.357" y="18.7347" fill="black" font-size="18.0316" font-family="Helvetica">Sector 7 (Before)</text>
<g fill="black">
<circle cx="69.0039" cy="201.264" r="3.25821"/>
<circle cx="73.7283" cy="252.865" r="3.25821"/>
<circle cx="78.4528" cy="207.537" r="3.25821"/>
<circle cx="83.1772" cy="205.928" r="3.25821"/>
<circle cx="87.9016" cy="214.783" r="3.25821"/>
<circle cx="92.626" cy="190.71" r="3.25821"/>
<circle cx="97.3504" cy="178.118" r="3.25821"/>
<circle cx="102.075" cy="204.639" r="3.25821"/>
<circle cx="106.799" cy="221.686" r="3.25821"/>
<circle cx="111.524" cy="177.446" r="3.25821"/>
<circle cx="116.248" cy="239.978" r="3.25821"/>
<circle cx="120.972" cy="232.523" r="3.25821"/>
<circle cx="125.697" cy="208.153" r="3.25821"/>
<circle cx="130.421" cy="181.347" r="3.25821"/>
<circle cx="135.146" cy="209.847" r="3.25821"/>
<circle cx="139.87" cy="230.698" r="3.25821"/>
<circle cx="144.594" cy="224.036" r="3.25821"/>
<circle cx="149.319" cy="196.882" r="3.25821"/>
<circle cx="154.043" cy="209.562" r="3.25821"/>
<circle cx="158.768" cy="223.564" r="3.25821"/>
<circle cx="163.492" cy="231.762" r="3.25821"/>
<circle cx="168.217" cy="220.239" r="3.25821"/>
<circle cx="172.941" cy="242.377" r="3.25821"/>
<circle cx="177.665" cy="205.311" r="3.25821"/>
<circle cx="182.39" cy="222.771" r="3.25821"/>
<circle cx="187.114" cy="219.994" r="3.25821"/>
<circle cx="191.839" cy="227.416" r="3.25821"/>
<circle cx="196.563" cy="223.12" r="3.25821"/>
<circle cx="201.287" cy="210.618" r="3.25821"/>
<circle cx="206.012" cy="219.714" r="3.25821"/>
<circle cx="210.736" cy="223.857" r="3.25821"/>
<circle cx="215.461" cy="244.943" r="3.25821"/>
<circle cx="220.185" cy="216.872" r="3.25821"/>
<circle cx="224.909" cy="205.848" r="3.25821"/>
<circle cx="229.634" cy="208.941" r="3.25821"/>
<circle cx="234.358" cy="238.942" r="3.25821"/>
<circle cx="239.083" cy="228.26" r="3.25821"/>
<circle cx="243.807" cy="214.159" r="3.25821"/>
<circle cx="248.531" cy="222.951" r="3.25821"/>
<circle cx="253.256" cy="267.655" r="3.25821"/>
<circle cx="257.98" cy="226.559" r="3.25821"/>
<circle cx="262.705" cy="232.762" r="3.25821"/>
<circle cx="267.429" cy="248.812" r="3.25821"/>
<circle cx="272.154" cy="209.485" r="3.25821"/>
<circle cx="276.878" cy="235.966" r="3.25821"/>
<circle cx="281.602" cy="203.535" r="3.25821"/>
<circle cx="286.327" cy="231.857" r="3.25821"/>
<circle cx="291.051" cy="221.552" r="3.25821"/>
<circle cx="295.776" cy="240.488" r="3.25821"/>
<circle cx="300.5" cy="281.447" r="3.25821"/>
</g>
<g fill="black">
<circle cx="305.224" cy="229.428" r="3.25821"/>
<circle cx="309.949" cy="215.938" r="3.25821"/>
<circle cx="314.673" cy="224.466" r="3.25821"/>
<circle cx="319.398" cy="230.521" r="3.25821"/>
<circle cx="324.122" cy="248.081" r="3.25821"/>
<circle cx="328.846" cy="228.036" r="3.25821"/>
<circle cx="333.571" cy="188.716" r="3.25821"/>
<circle cx="338.295" cy="219.15" r="3.25821"/>
<circle cx="343.02" cy="216.131" r="3.25821"/>
<circle cx="347.744" cy="207.166" r="3.25821"/>
<circle cx="352.469" cy="228.589" r="3.25821"/>
<circle cx="357.193" cy="218.249" r="3.25821"/>
<circle cx="361.917" cy="183.953" r="3.25821"/>
<circle cx="366.642" cy="232.74" r="3.25821"/>
<circle cx="371.366" cy="234.464" r="3.25821"/>
<circle cx="376.091" cy="190.629" r="3.25821"/>
<circle cx="380.815" cy="227.519" r="3.25821"/>
<circle cx="385.539" cy="221.593" r="3.25821"/>
<circle cx="390.264" cy="225.206" r="3.25821"/>
<circle cx="394.988" cy="207.44" r="3.25821"/>
<circle cx="399.713" cy="239.387" r="3.25821"/>
<circle cx="409.161" cy="209.806" r="3.25821"/>
<circle cx="413.886" cy="220.129" r="3.25821"/>
<circle cx="418.61" cy="245.874" r="3.25821"/>
<circle cx="423.335" cy="232.06" r="3.25821"/>
<circle cx="428.059" cy="212.667" r="3.25821"/>
<circle cx="432.783" cy="211.431" r="3.25821"/>
<circle cx="437.508" cy="200.232" r="3.25821"/>
<circle cx="442.232" cy="224.898" r="3.25821"/>
<circle cx="446.957" cy="220.64" r="3.25821"/>
<circle cx="451.681" cy="230.756" r="3.25821"/>
<circle cx="456.406" cy="181.188" r="3.25821"/>
<circle cx="461.13" cy="214.911" r="3.25821"/>
<circle cx="465.854" cy="201.901" r="3.25821"/>
<circle cx="470.579" cy="253.573" r="3.25821"/>
<circle cx="475.303" cy="217.149" r="3.25821"/>
<circle cx="480.028" cy="235.715" r="3.25821"/>
<circle cx="484.752" cy="237.813" r="3.25821"/>
<circle cx="489.476" cy="234.09" r="3.25821"/>
<circle cx="494.201" cy="269.45" r="3.25821"/>
<circle cx="498.925" cy="254.077" r="3.25821"/>
<circle cx="508.374" cy="284.306" r="3.25821"/>
</g>
<g fill="black">
<circle cx="69.0039" cy="201.264" r="3.25821"/>
<circle cx="73.7283" cy="252.865" r="3.25821"/>
<circle cx="78.4528" cy="207.537" r="3.25821"/>
<circle cx="87.9016" cy="214.783" r="3.25821"/>
<circle cx="111.524" cy="177.446" r="3.25821"/>
<circle cx="116.248" cy="239.978" r="3.25821"/>
<circle cx="120.972" cy="232.523" r="3.25821"/>
<circle cx="125.697" cy="208.153" r="3.25821"/>
<circle cx="130.421" cy="181.347" r="3.25821"/>
<circle cx="135.146" cy="209.847" r="3.25821"/>
<circle cx="139.87" cy="230.698" r="3.25821"/>
<circle cx="144.594" cy="224.036" r="3.25821"/>
<circle cx="149.319" cy="196.882" r="3.25821"/>
<circle cx="154.043" cy="209.562" r="3.25821"/>
<circle cx="158.768" cy="223.564" r="3.25821"/>
<circle cx="163.492" cy="231.762" r="3.25821"/>
<circle cx="168.217" cy="220.239" r="3.25821"/>
<circle cx="172.941" cy="242.377" r="3.25821"/>
<circle cx="177.665" cy="205.311" r="3.25821"/>
<circle cx="182.39" cy="222.771" r="3.25821"/>
<circle cx="187.114" cy="219.994" r="3.25821"/>
<circle cx="191.839" cy="227.416" r="3.25821"/>
<circle cx="196.563" cy="223.12" r="3.25821"/>
<circle cx="201.287" cy="210.618" r="3.25821"/>
<circle cx="206.012" cy="219.714" r="3.25821"/>
<circle cx="210.736" cy="223.857" r="3.25821"/>
<circle cx="215.461" cy="244.943" r="3.25821"/>
<circle cx="220.185" cy="216.872" r="3.25821"/>
<circle cx="224.909" cy="205.848" r="3.25821"/>
<circle cx="229.634" cy="208.941" r="3.25821"/>
<circle cx="234.358" cy="238.942" r="3.25821"/>
<circle cx="239.083" cy="228.26" r="3.25821"/>
<circle cx="243.807" cy="214.159" r="3.25821"/>
<circle cx="248.531" cy="222.951" r="3.25821"/>
<circle cx="253.256" cy="267.655" r="3.25821"/>
<circle cx="257.98" cy="226.559" r="3.25821"/>
<circle cx="262.705" cy="232.762" r="3.25821"/>
<circle cx="267.429" cy="248.812" r="3.25821"/>
<circle cx="272.154" cy="209.485" r="3.25821"/>
<circle cx="276.878" cy="235.966" r="3.25821"/>
<circle cx="281.602" cy="203.535" r="3.25821"/>
<circle cx="286.327" cy="231.857" r="3.25821"/>
<circle cx="291.051" cy="221.552" r="3.25821"/>
<circle cx="295.776" cy="240.488" r="3.25821"/>
<circle cx="300.5" cy="281.447" r="3.25821"/>
<circle cx="305.224" cy="229.428" r="3.25821"/>
<circle cx="309.949" cy="215.938" r="3.25821"/>
<circle cx="314.673" cy="224.466" r="3.25821"/>
<circle cx="319.398" cy="230.521" r="3.25821"/>
<circle cx="324.122" cy="248.081" r="3.25821"/>
</g>
<g fill="black">
<circle cx="328.846" cy="228.036" r="3.25821"/>
<circle cx="333.571" cy="188.716" r="3.25821"/>
<circle cx="338.295" cy="219.15" r="3.25821"/>
<circle cx="343.02" cy="216.131" r="3.25821"/>
<circle cx="347.744" cy="207.166" r="3.25821"/>
<circle cx="352.469" cy="228.589" r="3.25821"/>
<circle cx="357.193" cy="218.249" r="3.25821"/>
<circle cx="361.917" cy="183.953" r="3.25821"/>
<circle cx="366.642" cy="232.74" r="3.25821"/>
<circle cx="371.366" cy="234.464" r="3.25821"/>
<circle cx="376.091" cy="190.629" r="3.25821"/>
<circle cx="380.815" cy="227.519" r="3.25821"/>
<circle cx="385.539" cy="221.593" r="3.25821"/>
<circle cx="390.264" cy="225.206" r="3.25821"/>
<circle cx="394.988" cy="207.44" r="3.25821"/>
<circle cx="399.713" cy="239.387" r="3.25821"/>
<circle cx="409.161" cy="209.806" r="3.25821"/>
<circle cx="413.886" cy="220.129" r="3.25821"/>
<circle cx="418.61" cy="245.874" r="3.25821"/>
<circle cx="423.335" cy="232.06" r="3.25821"/>
<circle cx="428.059" cy="212.667" r="3.25821"/>
<circle cx="432.783" cy="211.431" r="3.25821"/>
<circle cx="437.508" cy="200.232" r="3.25821"/>
<circle cx="442.232" cy="224.898" r="3.25821"/>
<circle cx="446.957" cy="220.64" r="3.25821"/>
<circle cx="451.681" cy="230.756" r="3.25821"/>
<circle cx="456.406" cy="181.188" r="3.25821"/>
<circle cx="461.13" cy="214.911" r="3.25821"/>
<circle cx="465.854" cy="201.901" r="3.25821"/>
<circle cx="470.579" cy="253.573" r="3.25821"/>
<circle cx="475.303" cy="217.149" r="3.25821"/>
<circle cx="480.028" cy="235.715" r="3.25821"/>
<circle cx="484.752" cy="237.813" r="3.25821"/>
<circle cx="489.476" cy="234.09" r="3.25821"/>
<circle cx="494.201" cy="269.45" r="3.25821"/>
<circle cx="498.925" cy="254.077" r="3.25821"/>
<circle cx="508.374" cy="284.306" r="3.25821"/>
</g>
<g fill="black">
<circle cx="69.0039" cy="201.264" r="3.25821"/>
<circle cx="73.7283" cy="252.865" r="3.25821"/>
<circle cx="78.4528" cy="207.537" r="3.25821"/>
<circle cx="87.9016" cy="214.783" r="3.25821"/>
<circle cx="111.524" cy="177.446" r="3.25821"/>
<circle cx="116.248" cy="239.978" r="3.25821"/>
<circle cx="120.972" cy="232.523" r="3.25821"/>
<circle cx="125.697" cy="208.153" r="3.25821"/>
<circle cx="130.421" cy="181.347" r="3.25821"/>
<circle cx="135.146" cy="209.847" r="3.25821"/>
<circle cx="139.87" cy="230.698" r="3.25821"/>
<circle cx="144.594" cy="224.036" r="3.25821"/>
<circle cx="149.319" cy="196.882" r="3.25821"/>
<circle cx="154.043" cy="209.562" r="3.25821"/>
<circle cx="158.768" cy="223.564" r="3.25821"/>
<circle cx="163.492" cy="231.762" r="3.25821"/>
<circle cx="168.217" cy="220.239" r="3.25821"/>
<circle cx="172.941" cy="242.377" r="3.25821"/>
<circle cx="177.665" cy="205.311" r="3.25821"/>
<circle cx="182.39" cy="222.771" r="3.25821"/>
<circle cx="187.114" cy="219.994" r="3.25821"/>
<circle cx="191.839" cy="227.416" r="3.25821"/>
<circle cx="196.563" cy="223.12" r="3.25821"/>
<circle cx="201.287" cy="210.618" r="3.25821"/>
<circle cx="206.012" cy="219.714" r="3.25821"/>
<circle cx="210.736" cy="223.857" r="3.25821"/>
<circle cx="215.461" cy="244.943" r="3.25821"/>
<circle cx="220.185" cy="216.872" r="3.25821"/>
<circle cx="224.909" cy="205.848" r="3.25821"/>
<circle cx="229.634" cy="208.941" r="3.25821"/>
<circle cx="234.358" cy="238.942" r="3.25821"/>
<circle cx="239.083" cy="228.26" r="3.25821"/>
<circle cx="243.807" cy="214.159" r="3.25821"/>
<circle cx="248.531" cy="222.951" r="3.25821"/>
<circle cx="253.256" cy="267.655" r="3.25821"/>
<circle cx="257.98" cy="226.559" r="3.25821"/>
<circle cx="262.705" cy="232.762" r="3.25821"/>
<circle cx="267.429" cy="248.812" r="3.25821"/>
<circle cx="272.154" cy="209.485" r="3.25821"/>
<circle cx="276.878" cy="235.966" r="3.25821"/>
<circle cx="281.602" cy="203.535" r="3.25821"/>
<circle cx="286.327" cy="231.857" r="3.25821"/>
<circle cx="291.051" cy="221.552" r="3.25821"/>
<circle cx="295.776" cy="240.488" r="3.25821"/>
<circle cx="300.5" cy="281.447" r="3.25821"/>
<circle cx="305.224" cy="229.428" r="3.25821"/>
<circle cx="309.949" cy="215.938" r="3.25821"/>
<circle cx="314.673" cy="224.466" r="3.25821"/>
<circle cx="319.398" cy="230.521" r="3.25821"/>
<circle cx="324.122" cy="248.081" r="3.25821"/>
</g>
<g fill="black">
<circle cx="328.846" cy="228.036" r="3.25821"/>
<circle cx="333.571" cy="188.716" r="3.25821"/>
<circle cx="338.295" cy="219.15" r="3.25821"/>
<circle cx="343.02" cy="216.131" r="3.25821"/>
<circle cx="347.744" cy="207.166" r="3.25821"/>
<circle cx="352.469" cy="228.589" r="3.25821"/>
<circle cx="357.193" cy="218.249" r="3.25821"/>
<circle cx="361.917" cy="183.953" r="3.25821"/>
<circle cx="366.642" cy="232.74" r="3.25821"/>
<circle cx="371.366" cy="234.464" r="3.25821"/>
<circle cx="376.091" cy="190.629" r="3.25821"/>
<circle cx="380.815" cy="227.519" r="3.25821"/>
<circle cx="385.539" cy="221.593" r="3.25821"/>
<circle cx="390.264" cy="225.206" r="3.25821"/>
<circle cx="394.988" cy="207.44" r="3.25821"/>
<circle cx="399.713" cy="239.387" r="3.25821"/>
<circle cx="409.161" cy="209.806" r="3.25821"/>
<circle cx="413.886" cy="220.129" r="3.25821"/>
<circle cx="418.61" cy="245.874" r="3.25821"/>
<circle cx="423.335" cy="232.06" r="3.25821"/>
<circle cx="428.059" cy="212.667" r="3.25821"/>
<circle cx="432.783" cy="211.431" r="3.25821"/>
<circle cx="437.508" cy="200.232" r="3.25821"/>
<circle cx="442.232" cy="224.898" r="3.25821"/>
<circle cx="446.957" cy="220.64" r="3.25821"/>
<circle cx="451.681" cy="230.756" r="3.25821"/>
<circle cx="456.406" cy="181.188" r="3.25821"/>
<circle cx="461.13" cy="214.911" r="3.25821"/>
<circle cx="465.854" cy="201.901" r="3.25821"/>
<circle cx="470.579" cy="253.573" r="3.25821"/>
<circle cx="475.303" cy="217.149" r="3.25821"/>
<circle cx="480.028" cy="235.715" r="3.25821"/>
<circle cx="484.752" cy="237.813" r="3.25821"/>
<circle cx="489.476" cy="234.09" r="3.25821"/>
<circle cx="494.201" cy="269.45" r="3.25821"/>
<circle cx="498.925" cy="254.077" r="3.25821"/>
<circle cx="508.374" cy="284.306" r="3.25821"/>
</g>
<g fill="black">
<circle cx="69.0039" cy="201.264" r="3.25821"/>
<circle cx="73.7283" cy="252.865" r="3.25821"/>
<circle cx="78.4528" cy="207.537" r="3.25821"/>
<circle cx="87.9016" cy="214.783" r="3.25821"/>
<circle cx="111.524" cy="177.446" r="3.25821"/>
<circle cx="116.248" cy="239.978" r="3.25821"/>
<circle cx="120.972" cy="232.523" r="3.25821"/>
<circle cx="125.697" cy="208.153" r="3.25821"/>
<circle cx="130.421" cy="181.347" r="3.25821"/>
<circle cx="135.146" cy="209.847" r="3.25821"/>
<circle cx="139.87" cy="230.698" r="3.25821"/>
<circle cx="144.594" cy="224.036" r="3.25821"/>
<circle cx="149.319" cy="196.882" r="3.25821"/>
<circle cx="154.043" cy="209.562" r="3.25821"/>
<circle cx="158.768" cy="223.564" r="3.25821"/>
<circle cx="163.492" cy="231.762" r="3.25821"/>
<circle cx="168.217" cy="220.239" r="3.25821"/>
<circle cx="172.941" cy="242.377" r="3.25821"/>
<circle cx="177.665" cy="205.311" r="3.25821"/>
<circle cx="182.39" cy="222.771" r="3.25821"/>
<circle cx="187.114" cy="219.994" r="3.25821"/>
<circle cx="191.839" cy="227.416" r="3.25821"/>
<circle cx="196.563" cy="223.12" r="3.25821"/>
<circle cx="201.287" cy="210.618" r="3.25821"/>
<circle cx="206.012" cy="219.714" r="3.25821"/>
<circle cx="210.736" cy="223.857" r="3.25821"/>
<circle cx="215.461" cy="244.943" r="3.25821"/>
<circle cx="220.185" cy="216.872" r="3.25821"/>
<circle cx="224.909" cy="205.848" r="3.25821"/>
<circle cx="229.634" cy="208.941" r="3.25821"/>
<circle cx="234.358" cy="238.942" r="3.25821"/>
<circle cx="239.083" cy="228.26" r="3.25821"/>
<circle cx="243.807" cy="214.159" r="3.25821"/>
<circle cx="248.531" cy="222.951" r="3.25821"/>
<circle cx="253.256" cy="267.655" r="3.25821"/>
<circle cx="257.98" cy="226.559" r="3.25821"/>
<circle cx="262.705" cy="232.762" r="3.25821"/>
<circle cx="267.429" cy="248.812" r="3.25821"/>
<circle cx="272.154" cy="209.485" r="3.25821"/>
<circle cx="276.878" cy="235.966" r="3.25821"/>
<circle cx="281.602" cy="203.535" r="3.25821"/>
<circle cx="286.327" cy="231.857" r="3.25821"/>
<circle cx="291.051" cy="221.552" r="3.25821"/>
<circle cx="295.776" cy="240.488" r="3.25821"/>
<circle cx="300.5" cy="281.447" r="3.25821"/>
<circle cx="305.224" cy="229.428" r="3.25821"/>
<circle cx="309.949" cy="215.938" r="3.25821"/>
<circle cx="314.673" cy="224.466" r="3.25821"/>
<circle cx="319.398" cy="230.521" r="3.25821"/>
<circle cx="324.122" cy="248.081" r="3.25821"/>
</g>
<g fill="black">
<circle cx="328.846" cy="228.036" r="3.25821"/>
<circle cx="333.571" cy="188.716" r="3.25821"/>
<circle cx="338.295" cy="219.15" r="3.25821"/>
<circle cx="343.02" cy="216.131" r="3.25821"/>
<circle cx="347.744" cy="207.166" r="3.25821"/>
<circle cx="352.469" cy="228.589" r="3.25821"/>
<circle cx="357.193" cy="218.249" r="3.25821"/>
<circle cx="361.917" cy="183.953" r="3.25821"/>
<circle cx="366.642" cy="232.74" r="3.25821"/>
<circle cx="371.366" cy="234.464" r="3.25821"/>
<circle cx="376.091" cy="190.629" r="3.25821"/>
<circle cx="380.815" cy="227.519" r="3.25821"/>
<circle cx="385.539" cy="221.593" r="3.25821"/>
<circle cx="390.264" cy="225.206" r="3.25821"/>
<circle cx="394.988" cy="207.44" r="3.25821"/>
<circle cx="399.713" cy="239.387" r="3.25821"/>
<circle cx="409.161" cy="209.806" r="3.25821"/>
<circle cx="413.886" cy="220.129" r="3.25821"/>
<circle cx="418.61" cy="245.874" r="3.25821"/>
<circle cx="423.335" cy="232.06" r="3.25821"/>
<circle cx="428.059" cy="212.667" r="3.25821"/>
<circle cx="432.783" cy="211.431" r="3.25821"/>
<circle cx="437.508" cy="200.232" r="3.25821"/>
<circle cx="442.232" cy="224.898" r="3.25821"/>
<circle cx="446.957" cy="220.64" r="3.25821"/>
<circle cx="451.681" cy="230.756" r="3.25821"/>
<circle cx="456.406" cy="181.188" r="3.25821"/>
<circle cx="461.13" cy="214.911" r="3.25821"/>
<circle cx="465.854" cy="201.901" r="3.25821"/>
<circle cx="470.579" cy="253.573" r="3.25821"/>
<circle cx="475.303" cy="217.149" r="3.25821"/>
<circle cx="480.028" cy="235.715" r="3.25821"/>
<circle cx="484.752" cy="237.813" r="3.25821"/>
<circle cx="489.476" cy="234.09" r="3.25821"/>
<circle cx="494.201" cy="269.45" r="3.25821"/>
<circle cx="498.925" cy="254.077" r="3.25821"/>
<circle cx="508.374" cy="284.306" r="3.25821"/>
</g>
<g fill="black">
<circle cx="120.972" cy="232.523" r="3.25821"/>
<circle cx="144.594" cy="224.036" r="3.25821"/>
<circle cx="154.043" cy="209.562" r="3.25821"/>
<circle cx="158.768" cy="223.564" r="3.25821"/>
<circle cx="163.492" cy="231.762" r="3.25821"/>
<circle cx="168.217" cy="220.239" r="3.25821"/>
<circle cx="172.941" cy="242.377" r="3.25821"/>
<circle cx="177.665" cy="205.311" r="3.25821"/>
<circle cx="182.39" cy="222.771" r="3.25821"/>
<circle cx="187.114" cy="219.994" r="3.25821"/>
<circle cx="191.839" cy="227.416" r="3.25821"/>
<circle cx="196.563" cy="223.12" r="3.25821"/>
<circle cx="201.287" cy="210.618" r="3.25821"/>
<circle cx="206.012" cy="219.714" r="3.25821"/>
<circle cx="210.736" cy="223.857" r="3.25821"/>
<circle cx="215.461" cy="244.943" r="3.25821"/>
<circle cx="220.185" cy="216.872" r="3.25821"/>
<circle cx="224.909" cy="205.848" r="3.25821"/>
<circle cx="229.634" cy="208.941" r="3.25821"/>
<circle cx="234.358" cy="238.942" r="3.25821"/>
<circle cx="239.083" cy="228.26" r="3.25821"/>
<circle cx="243.807" cy="214.159" r="3.25821"/>
<circle cx="248.531" cy="222.951" r="3.25821"/>
<circle cx="253.256" cy="267.655" r="3.25821"/>
<circle cx="257.98" cy="226.559" r="3.25821"/>
<circle cx="262.705" cy="232.762" r="3.25821"/>
<circle cx="267.429" cy="248.812" r="3.25821"/>
<circle cx="272.154" cy="209.485" r="3.25821"/>
<circle cx="276.878" cy="235.966" r="3.25821"/>
<circle cx="281.602" cy="203.535" r="3.25821"/>
<circle cx="286.327" cy="231.857" r="3.25821"/>
<circle cx="291.051" cy="221.552" r="3.25821"/>
<circle cx="295.776" cy="240.488" r="3.25821"/>
<circle cx="300.5" cy="281.447" r="3.25821"/>
<circle cx="305.224" cy="229.428" r="3.25821"/>
<circle cx="309.949" cy="215.938" r="3.25821"/>
<circle cx="314.673" cy="224.466" r="3.25821"/>
<circle cx="319.398" cy="230.521" r="3.25821"/>
<circle cx="324.122" cy="248.081" r="3.25821"/>
<circle cx="328.846" cy="228.036" r="3.25821"/>
<circle cx="333.571" cy="188.716" r="3.25821"/>
<circle cx="338.295" cy="219.15" r="3.25821"/>
<circle cx="343.02" cy="216.131" r="3.25821"/>
<circle cx="347.744" cy="207.166" r="3.25821"/>
<circle cx="352.469" cy="228.589" r="3.25821"/>
<circle cx="357.193" cy="218.249" r="3.25821"/>
<circle cx="361.917" cy="183.953" r="3.25821"/>
<circle cx="366.642" cy="232.74" r="3.25821"/>
<circle cx="371.366" cy="234.464" r="3.25821"/>
<circle cx="376.091" cy="190.629" r="3.25821"/>
</g>
<g fill="black">
<circle cx="380.815" cy="227.519" r="3.25821"/>
<circle cx="385.539" cy="221.593" r="3.25821"/>
<circle cx="390.264" cy="225.206" r="3.25821"/>
<circle cx="394.988" cy="207.44" r="3.25821"/>
<circle cx="399.713" cy="239.387" r="3.25821"/>
<circle cx="409.161" cy="209.806" r="3.25821"/>
<circle cx="413.886" cy="220.129" r="3.25821"/>
<circle cx="418.61" cy="245.874" r="3.25821"/>
<circle cx="423.335" cy="232.06" r="3.25821"/>
<circle cx="428.059" cy="212.667" r="3.25821"/>
<circle cx="432.783" cy="211.431" r="3.25821"/>
<circle cx="437.508" cy="200.232" r="3.25821"/>
<circle cx="442.232" cy="224.898" r="3.25821"/>
<circle cx="446.957" cy="220.64" r="3.25821"/>
<circle cx="451.681" cy="230.756" r="3.25821"/>
<circle cx="456.406" cy="181.188" r="3.25821"/>
<circle cx="461.13" cy="214.911" r="3.25821"/>
<circle cx="465.854" cy="201.901" r="3.25821"/>
<circle cx="470.579" cy="253.573" r="3.25821"/>
<circle cx="475.303" cy="217.149" r="3.25821"/>
<circle cx="480.028" cy="235.715" r="3.25821"/>
<circle cx="484.752" cy="237.813" r="3.25821"/>
<circle cx="489.476" cy="234.09" r="3.25821"/>
<circle cx="494.201" cy="269.45" r="3.25821"/>
<circle cx="498.925" cy="254.077" r="3.25821"/>
<circle cx="508.374" cy="284.306" r="3.25821"/>
</g>
<g fill="black">
<circle cx="120.972" cy="232.523" r="3.25821"/>
<circle cx="144.594" cy="224.036" r="3.25821"/>
<circle cx="154.043" cy="209.562" r="3.25821"/>
<circle cx="158.768" cy="223.564" r="3.25821"/>
<circle cx="163.492" cy="231.762" r="3.25821"/>
<circle cx="168.217" cy="220.239" r="3.25821"/>
<circle cx="172.941" cy="242.377" r="3.25821"/>
<circle cx="177.665" cy="205.311" r="3.25821"/>
<circle cx="182.39" cy="222.771" r="3.25821"/>
<circle cx="187.114" cy="219.994" r="3.25821"/>
<circle cx="191.839" cy="227.416" r="3.25821"/>
<circle cx="196.563" cy="223.12" r="3.25821"/>
<circle cx="201.287" cy="210.618" r="3.25821"/>
<circle cx="206.012" cy="219.714" r="3.25821"/>
<circle cx="210.736" cy="223.857" r="3.25821"/>
<circle cx="215.461" cy="244.943" r="3.25821"/>
<circle cx="220.185" cy="216.872" r="3.25821"/>
<circle cx="224.909" cy="205.848" r="3.25821"/>
<circle cx="229.634" cy="208.941" r="3.25821"/>
<circle cx="234.358" cy="238.942" r="3.25821"/>
<circle cx="239.083" cy="228.26" r="3.25821"/>
<circle cx="243.807" cy="214.159" r="3.25821"/>
<circle cx="248.531" cy="222.951" r="3.25821"/>
<circle cx="253.256" cy="267.655" r="3.25821"/>
<circle cx="257.98" cy="226.559" r="3.25821"/>
<circle cx="262.705" cy="232.762" r="3.25821"/>
<circle cx="267.429" cy="248.812" r="3.25821"/>
<circle cx="272.154" cy="209.485" r="3.25821"/>
<circle cx="276.878" cy="235.966" r="3.25821"/>
<circle cx="281.602" cy="203.535" r="3.25821"/>
<circle cx="286.327" cy="231.857" r="3.25821"/>
<circle cx="291.051" cy="221.552" r="3.25821"/>
<circle cx="295.776" cy="240.488" r="3.25821"/>
<circle cx="300.5" cy="281.447" r="3.25821"/>
<circle cx="305.224" cy="229.428" r="3.25821"/>
<circle cx="309.949" cy="215.938" r="3.25821"/>
<circle cx="314.673" cy="224.466" r="3.25821"/>
<circle cx="319.398" cy="230.521" r="3.25821"/>
<circle cx="324.122" cy="248.081" r="3.25821"/>
<circle cx="328.846" cy="228.036" r="3.25821"/>
<circle cx="333.571" cy="188.716" r="3.25821"/>
<circle cx="338.295" cy="219.15" r="3.25821"/>
<circle cx="343.02" cy="216.131" r="3.25821"/>
<circle cx="347.744" cy="207.166" r="3.25821"/>
<circle cx="352.469" cy="228.589" r="3.25821"/>
<circle cx="357.193" cy="218.249" r="3.25821"/>
<circle cx="361.917" cy="183.953" r="3.25821"/>
<circle cx="366.642" cy="232.74" r="3.25821"/>
<circle cx="371.366" cy="234.464" r="3.25821"/>
<circle cx="376.091" cy="190.629" r="3.25821"/>
</g>
<g fill="black">
<circle cx="380.815" cy="227.519" r="3.25821"/>
<circle cx="385.539" cy="221.593" r="3.25821"/>
<circle cx="390.264" cy="225.206" r="3.25821"/>
<circle cx="394.988" cy="207.44" r="3.25821"/>
<circle cx="399.713" cy="239.387" r="3.25821"/>
<circle cx="409.161" cy="209.806" r="3.25821"/>
<circle cx="413.886" cy="220.129" r="3.25821"/>
<circle cx="418.61" cy="245.874" r="3.25821"/>
<circle cx="423.335" cy="232.06" r="3.25821"/>
<circle cx="428.059" cy="212.667" r="3.25821"/>
<circle cx="432.783" cy="211.431" r="3.25821"/>
<circle cx="437.508" cy="200.232" r="3.25821"/>
<circle cx="442.232" cy="224.898" r="3.25821"/>
<circle cx="446.957" cy="220.64" r="3.25821"/>
<circle cx="451.681" cy="230.756" r="3.25821"/>
<circle cx="456.406" cy="181.188" r="3.25821"/>
<circle cx="461.13" cy="214.911" r="3.25821"/>
<circle cx="465.854" cy="201.901" r="3.25821"/>
<circle cx="470.579" cy="253.573" r="3.25821"/>
<circle cx="475.303" cy="217.149" r="3.25821"/>
<circle cx="480.028" cy="235.715" r="3.25821"/>
<circle cx="484.752" cy="237.813" r="3.25821"/>
<circle cx="489.476" cy="234.09" r="3.25821"/>
<circle cx="494.201" cy="269.45" r="3.25821"/>
<circle cx="498.925" cy="254.077" r="3.25821"/>
<circle cx="508.374" cy="284.306" r="3.25821"/>
</g>
<g fill="black">
<circle cx="120.972" cy="232.523" r="3.25821"/>
<circle cx="144.594" cy="224.036" r="3.25821"/>
<circle cx="154.043" cy="209.562" r="3.25821"/>
<circle cx="158.768" cy="223.564" r="3.25821"/>
<circle cx="163.492" cy="231.762" r="3.25821"/>
<circle cx="168.217" cy="220.239" r="3.25821"/>
<circle cx="172.941" cy="242.377" r="3.25821"/>
<circle cx="177.665" cy="205.311" r="3.25821"/>
<circle cx="182.39" cy="222.771" r="3.25821"/>
<circle cx="187.114" cy="219.994" r="3.25821"/>
<circle cx="191.839" cy="227.416" r="3.25821"/>
<circle cx="196.563" cy="223.12" r="3.25821"/>
<circle cx="201.287" cy="210.618" r="3.25821"/>
<circle cx="206.012" cy="219.714" r="3.25821"/>
<circle cx="210.736" cy="223.857" r="3.25821"/>
<circle cx="215.461" cy="244.943" r="3.25821"/>
<circle cx="220.185" cy="216.872" r="3.25821"/>
<circle cx="224.909" cy="205.848" r="3.25821"/>
<circle cx="229.634" cy="208.941" r="3.25821"/>
<circle cx="234.358" cy="238.942" r="3.25821"/>
<circle cx="239.083" cy="228.26" r="3.25821"/>
<circle cx="243.807" cy="214.159" r="3.25821"/>
<circle cx="248.531" cy="222.951" r="3.25821"/>
<circle cx="253.256" cy="267.655" r="3.25821"/>
<circle cx="257.98" cy="226.559" r="3.25821"/>
<circle cx="262.705" cy="232.762" r="3.25821"/>
<circle cx="267.429" cy="248.812" r="3.25821"/>
<circle cx="272.154" cy="209.485" r="3.25821"/>
<circle cx="276.878" cy="235.966" r="3.25821"/>
<circle cx="281.602" cy="203.535" r="3.25821"/>
<circle cx="286.327" cy="231.857" r="3.25821"/>
<circle cx="291.051" cy="221.552" r="3.25821"/>
<circle cx="295.776" cy="240.488" r="3.25821"/>
<circle cx="300.5" cy="281.447" r="3.25821"/>
<circle cx="305.224" cy="229.428" r="3.25821"/>
<circle cx="309.949" cy="215.938" r="3.25821"/>
<circle cx="314.673" cy="224.466" r="3.25821"/>
<circle cx="319.398" cy="230.521" r="3.25821"/>
<circle cx="324.122" cy="248.081" r="3.25821"/>
<circle cx="328.846" cy="228.036" r="3.25821"/>
<circle cx="333.571" cy="188.716" r="3.25821"/>
<circle cx="338.295" cy="219.15" r="3.25821"/>
<circle cx="343.02" cy="216.131" r="3.25821"/>
<circle cx="347.744" cy="207.166" r="3.25821"/>
<circle cx="352.469" cy="228.589" r="3.25821"/>
<circle cx="357.193" cy="218.249" r="3.25821"/>
<circle cx="361.917" cy="183.953" r="3.25821"/>
<circle cx="366.642" cy="232.74" r="3.25821"/>
<circle cx="371.366" cy="234.464" r="3.25821"/>
<circle cx="376.091" cy="190.629" r="3.25821"/>
</g>
<g fill="black">
<circle cx="380.815" cy="227.519" r="3.25821"/>
<circle cx="385.539" cy="221.593" r="3.25821"/>
<circle cx="390.264" cy="225.206" r="3.25821"/>
<circle cx="394.988" cy="207.44" r="3.25821"/>
<circle cx="399.713" cy="239.387" r="3.25821"/>
<circle cx="409.161" cy="209.806" r="3.25821"/>
<circle cx="413.886" cy="220.129" r="3.25821"/>
<circle cx="418.61" cy="245.874" r="3.25821"/>
<circle cx="423.335" cy="232.06" r="3.25821"/>
<circle cx="428.059" cy="212.667" r="3.25821"/>
<circle cx="432.783" cy="211.431" r="3.25821"/>
<circle cx="437.508" cy="200.232" r="3.25821"/>
<circle cx="442.232" cy="224.898" r="3.25821"/>
<circle cx="446.957" cy="220.64" r="3.25821"/>
<circle cx="451.681" cy="230.756" r="3.25821"/>
<circle cx="456.406" cy="181.188" r="3.25821"/>
<circle cx="461.13" cy="214.911" r="3.25821"/>
<circle cx="465.854" cy="201.901" r="3.25821"/>
<circle cx="470.579" cy="253.573" r="3.25821"/>
<circle cx="475.303" cy="217.149" r="3.25821"/>
<circle cx="480.028" cy="235.715" r="3.25821"/>
<circle cx="484.752" cy="237.813" r="3.25821"/>
<circle cx="489.476" cy="234.09" r="3.25821"/>
<circle cx="494.201" cy="269.45" r="3.25821"/>
<circle cx="498.925" cy="254.077" r="3.25821"/>
<circle cx="508.374" cy="284.306" r="3.25821"/>
</g>
<g fill="black">
<circle cx="120.972" cy="232.523" r="3.25821"/>
<circle cx="210.736" cy="223.857" r="3.25821"/>
<circle cx="215.461" cy="244.943" r="3.25821"/>
<circle cx="220.185" cy="216.872" r="3.25821"/>
<circle cx="224.909" cy="205.848" r="3.25821"/>
<circle cx="229.634" cy="208.941" r="3.25821"/>
<circle cx="234.358" cy="238.942" r="3.25821"/>
<circle cx="239.083" cy="228.26" r="3.25821"/>
<circle cx="243.807" cy="214.159" r="3.25821"/>
<circle cx="248.531" cy="222.951" r="3.25821"/>
<circle cx="253.256" cy="267.655" r="3.25821"/>
<circle cx="257.98" cy="226.559" r="3.25821"/>
<circle cx="262.705" cy="232.762" r="3.25821"/>
<circle cx="267.429" cy="248.812" r="3.25821"/>
<circle cx="272.154" cy="209.485" r="3.25821"/>
<circle cx="276.878" cy="235.966" r="3.25821"/>
<circle cx="281.602" cy="203.535" r="3.25821"/>
<circle cx="286.327" cy="231.857" r="3.25821"/>
<circle cx="291.051" cy="221.552" r="3.25821"/>
<circle cx="295.776" cy="240.488" r="3.25821"/>
<circle cx="300.5" cy="281.447" r="3.25821"/>
<circle cx="305.224" cy="229.428" r="3.25821"/>
<circle cx="309.949" cy="215.938" r="3.25821"/>
<circle cx="314.673" cy="224.466" r="3.25821"/>
<circle cx="319.398" cy="230.521" r="3.25821"/>
<circle cx="324.122" cy="248.081" r="3.25821"/>
<circle cx="328.846" cy="228.036" r="3.25821"/>
<circle cx="333.571" cy="188.716" r="3.25821"/>
<circle cx="338.295" cy="219.15" r="3.25821"/>
<circle cx="343.02" cy="216.131" r="3.25821"/>
<circle cx="347.744" cy="207.166" r="3.25821"/>
<circle cx="352.469" cy="228.589" r="3.25821"/>
<circle cx="357.193" cy="218.249" r="3.25821"/>
<circle cx="361.917" cy="183.953" r="3.25821"/>
<circle cx="366.642" cy="232.74" r="3.25821"/>
<circle cx="371.366" cy="234.464" r="3.25821"/>
<circle cx="376.091" cy="190.629" r="3.25821"/>
<circle cx="380.815" cy="227.519" r="3.25821"/>
<circle cx="385.539" cy="221.593" r="3.25821"/>
<circle cx="390.264" cy="225.206" r="3.25821"/>
<circle cx="394.988" cy="207.44" r="3.25821"/>
<circle cx="399.713" cy="239.387" r="3.25821"/>
<circle cx="409.161" cy="209.806" r="3.25821"/>
<circle cx="413.886" cy="220.129" r="3.25821"/>
<circle cx="418.61" cy="245.874" r="3.25821"/>
<circle cx="423.335" cy="232.06" r="3.25821"/>
<circle cx="428.059" cy="212.667" r="3.25821"/>
<circle cx="432.783" cy="211.431" r="3.25821"/>
<circle cx="437.508" cy="200.232" r="3.25821"/>
<circle cx="442.232" cy="224.898" r="3.25821"/>
</g>
<g fill="black">
<circle cx="446.957" cy="220.64" r="3.25821"/>
<circle cx="451.681" cy="230.756" r="3.25821"/>
<circle cx="456.406" cy="181.188" r="3.25821"/>
<circle cx="461.13" cy="214.911" r="3.25821"/>
<circle cx="465.854" cy="201.901" r="3.25821"/>
<circle cx="470.579" cy="253.573" r="3.25821"/>
<circle cx="475.303" cy="217.149" r="3.25821"/>
<circle cx="480.028" cy="235.715" r="3.25821"/>
<circle cx="484.752" cy="237.813" r="3.25821"/>
<circle cx="489.476" cy="234.09" r="3.25821"/>
<circle cx="494.201" cy="269.45" r="3.25821"/>
<circle cx="498.925" cy="254.077" r="3.25821"/>
<circle cx="508.374" cy="284.306" r="3.25821"/>
</g>
<g fill="black">
<circle cx="120.972" cy="232.523" r="3.25821"/>
<circle cx="210.736" cy="223.857" r="3.25821"/>
<circle cx="215.461" cy="244.943" r="3.25821"/>
<circle cx="220.185" cy="216.872" r="3.25821"/>
<circle cx="224.909" cy="205.848" r="3.25821"/>
<circle cx="229.634" cy="208.941" r="3.25821"/>
<circle cx="234.358" cy="238.942" r="3.25821"/>
<circle cx="239.083" cy="228.26" r="3.25821"/>
<circle cx="243.807" cy="214.159" r="3.25821"/>
<circle cx="248.531" cy="222.951" r="3.25821"/>
<circle cx="253.256" cy="267.655" r="3.25821"/>
<circle cx="257.98" cy="226.559" r="3.25821"/>
<circle cx="262.705" cy="232.762" r="3.25821"/>
<circle cx="267.429" cy="248.812" r="3.25821"/>
<circle cx="272.154" cy="209.485" r="3.25821"/>
<circle cx="276.878" cy="235.966" r="3.25821"/>
<circle cx="281.602" cy="203.535" r="3.25821"/>
<circle cx="286.327" cy="231.857" r="3.25821"/>
<circle cx="291.051" cy="221.552" r="3.25821"/>
<circle cx="295.776" cy="240.488" r="3.25821"/>
<circle cx="300.5" cy="281.447" r="3.25821"/>
<circle cx="305.224" cy="229.428" r="3.25821"/>
<circle cx="309.949" cy="215.938" r="3.25821"/>
<circle cx="314.673" cy="224.466" r="3.25821"/>
<circle cx="319.398" cy="230.521" r="3.25821"/>
<circle cx="324.122" cy="248.081" r="3.25821"/>
<circle cx="328.846" cy="228.036" r="3.25821"/>
<circle cx="333.571" cy="188.716" r="3.25821"/>
<circle cx="338.295" cy="219.15" r="3.25821"/>
<circle cx="343.02" cy="216.131" r="3.25821"/>
<circle cx="347.744" cy="207.166" r="3.25821"/>
<circle cx="352.469" cy="228.589" r="3.25821"/>
<circle cx="357.193" cy="218.249" r="3.25821"/>
<circle cx="361.917" cy="183.953" r="3.25821"/>
<circle cx="366.642" cy="232.74" r="3.25821"/>
<circle cx="371.366" cy="234.464" r="3.25821"/>
<circle cx="376.091" cy="190.629" r="3.25821"/>
<circle cx="380.815" cy="227.519" r="3.25821"/>
<circle cx="385.539" cy="221.593" r="3.25821"/>
<circle cx="390.264" cy="225.206" r="3.25821"/>
<circle cx="394.988" cy="207.44" r="3.25821"/>
<circle cx="399.713" cy="239.387" r="3.25821"/>
<circle cx="409.161" cy="209.806" r="3.25821"/>
<circle cx="413.886" cy="220.129" r="3.25821"/>
<circle cx="418.61" cy="245.874" r="3.25821"/>
<circle cx="423.335" cy="232.06" r="3.25821"/>
<circle cx="428.059" cy="212.667" r="3.25821"/>
<circle cx="432.783" cy="211.431" r="3.25821"/>
<circle cx="437.508" cy="200.232" r="3.25821"/>
<circle cx="442.232" cy="224.898" r="3.25821"/>
</g>
<g fill="black">
<circle cx="446.957" cy="220.64" r="3.25821"/>
<circle cx="451.681" cy="230.756" r="3.25821"/>
<circle cx="456.406" cy="181.188" r="3.25821"/>
<circle cx="461.13" cy="214.911" r="3.25821"/>
<circle cx="465.854" cy="201.901" r="3.25821"/>
<circle cx="470.579" cy="253.573" r="3.25821"/>
<circle cx="475.303" cy="217.149" r="3.25821"/>
<circle cx="480.028" cy="235.715" r="3.25821"/>
<circle cx="484.752" cy="237.813" r="3.25821"/>
<circle cx="489.476" cy="234.09" r="3.25821"/>
<circle cx="494.201" cy="269.45" r="3.25821"/>
<circle cx="498.925" cy="254.077" r="3.25821"/>
<circle cx="508.374" cy="284.306" r="3.25821"/>
</g>
<g fill="black">
<circle cx="120.972" cy="232.523" r="3.25821"/>
<circle cx="210.736" cy="223.857" r="3.25821"/>
<circle cx="215.461" cy="244.943" r="3.25821"/>
<circle cx="220.185" cy="216.872" r="3.25821"/>
<circle cx="224.909" cy="205.848" r="3.25821"/>
<circle cx="229.634" cy="208.941" r="3.25821"/>
<circle cx="234.358" cy="238.942" r="3.25821"/>
<circle cx="239.083" cy="228.26" r="3.25821"/>
<circle cx="243.807" cy="214.159" r="3.25821"/>
<circle cx="248.531" cy="222.951" r="3.25821"/>
<circle cx="253.256" cy="267.655" r="3.25821"/>
<circle cx="257.98" cy="226.559" r="3.25821"/>
<circle cx="262.705" cy="232.762" r="3.25821"/>
<circle cx="267.429" cy="248.812" r="3.25821"/>
<circle cx="272.154" cy="209.485" r="3.25821"/>
<circle cx="276.878" cy="235.966" r="3.25821"/>
<circle cx="281.602" cy="203.535" r="3.25821"/>
<circle cx="286.327" cy="231.857" r="3.25821"/>
<circle cx="291.051" cy="221.552" r="3.25821"/>
<circle cx="295.776" cy="240.488" r="3.25821"/>
<circle cx="300.5" cy="281.447" r="3.25821"/>
<circle cx="305.224" cy="229.428" r="3.25821"/>
<circle cx="309.949" cy="215.938" r="3.25821"/>
<circle cx="314.673" cy="224.466" r="3.25821"/>
<circle cx="319.398" cy="230.521" r="3.25821"/>
<circle cx="324.122" cy="248.081" r="3.25821"/>
<circle cx="328.846" cy="228.036" r="3.25821"/>
<circle cx="333.571" cy="188.716" r="3.25821"/>
<circle cx="338.295" cy="219.15" r="3.25821"/>
<circle cx="343.02" cy="216.131" r="3.25821"/>
<circle cx="347.744" cy="207.166" r="3.25821"/>
<circle cx="352.469" cy="228.589" r="3.25821"/>
<circle cx="357.193" cy="218.249" r="3.25821"/>
<circle cx="361.917" cy="183.953" r="3.25821"/>
<circle cx="366.642" cy="232.74" r="3.25821"/>
<circle cx="371.366" cy="234.464" r="3.25821"/>
<circle cx="376.091" cy="190.629" r="3.25821"/>
<circle cx="380.815" cy="227.519" r="3.25821"/>
<circle cx="385.539" cy="221.593" r="3.25821"/>
<circle cx="390.264" cy="225.206" r="3.25821"/>
<circle cx="394.988" cy="207.44" r="3.25821"/>
<circle cx="399.713" cy="239.387" r="3.25821"/>
<circle cx="409.161" cy="209.806" r="3.25821"/>
<circle cx="413.886" cy="220.129" r="3.25821"/>
<circle cx="418.61" cy="245.874" r="3.25821"/>
<circle cx="423.335" cy="232.06" r="3.25821"/>
<circle cx="428.059" cy="212.667" r="3.25821"/>
<circle cx="432.783" cy="211.431" r="3.25821"/>
<circle cx="437.508" cy="200.232" r="3.25821"/>
<circle cx="442.232" cy="224.898" r="3.25821"/>
</g>
<g fill="black">
<circle cx="446.957" cy="220.64" r="3.25821"/>
<circle cx="451.681" cy="230.756" r="3.25821"/>
<circle cx="456.406" cy="181.188" r="3.25821"/>
<circle cx="461.13" cy="214.911" r="3.25821"/>
<circle cx="465.854" cy="201.901" r="3.25821"/>
<circle cx="470.579" cy="253.573" r="3.25821"/>
<circle cx="475.303" cy="217.149" r="3.25821"/>
<circle cx="480.028" cy="235.715" r="3.25821"/>
<circle cx="484.752" cy="237.813" r="3.25821"/>
<circle cx="489.476" cy="234.09" r="3.25821"/>
<circle cx="494.201" cy="269.45" r="3.25821"/>
<circle cx="498.925" cy="254.077" r="3.25821"/>
<circle cx="508.374" cy="284.306" r="3.25821"/>
</g>
<g fill="black">
<circle cx="120.972" cy="232.523" r="3.25821"/>
<circle cx="224.909" cy="205.848" r="3.25821"/>
<circle cx="257.98" cy="226.559" r="3.25821"/>
<circle cx="262.705" cy="232.762" r="3.25821"/>
<circle cx="267.429" cy="248.812" r="3.25821"/>
<circle cx="272.154" cy="209.485" r="3.25821"/>
<circle cx="276.878" cy="235.966" r="3.25821"/>
<circle cx="281.602" cy="203.535" r="3.25821"/>
<circle cx="286.327" cy="231.857" r="3.25821"/>
<circle cx="291.051" cy="221.552" r="3.25821"/>
<circle cx="295.776" cy="240.488" r="3.25821"/>
<circle cx="300.5" cy="281.447" r="3.25821"/>
<circle cx="305.224" cy="229.428" r="3.25821"/>
<circle cx="309.949" cy="215.938" r="3.25821"/>
<circle cx="314.673" cy="224.466" r="3.25821"/>
<circle cx="319.398" cy="230.521" r="3.25821"/>
<circle cx="324.122" cy="248.081" r="3.25821"/>
<circle cx="328.846" cy="228.036" r="3.25821"/>
<circle cx="333.571" cy="188.716" r="3.25821"/>
<circle cx="338.295" cy="219.15" r="3.25821"/>
<circle cx="343.02" cy="216.131" r="3.25821"/>
<circle cx="347.744" cy="207.166" r="3.25821"/>
<circle cx="352.469" cy="228.589" r="3.25821"/>
<circle cx="357.193" cy="218.249" r="3.25821"/>
<circle cx="361.917" cy="183.953" r="3.25821"/>
<circle cx="366.642" cy="232.74" r="3.25821"/>
<circle cx="371.366" cy="234.464" r="3.25821"/>
<circle cx="376.091" cy="190.629" r="3.25821"/>
<circle cx="380.815" cy="227.519" r="3.25821"/>
<circle cx="385.539" cy="221.593" r="3.25821"/>
<circle cx="390.264" cy="225.206" r="3.25821"/>
<circle cx="394.988" cy="207.44" r="3.25821"/>
<circle cx="399.713" cy="239.387" r="3.25821"/>
<circle cx="409.161" cy="209.806" r="3.25821"/>
<circle cx="413.886" cy="220.129" r="3.25821"/>
<circle cx="418.61" cy="245.874" r="3.25821"/>
<circle cx="423.335" cy="232.06" r="3.25821"/>
<circle cx="428.059" cy="212.667" r="3.25821"/>
<circle cx="432.783" cy="211.431" r="3.25821"/>
<circle cx="437.508" cy="200.232" r="3.25821"/>
<circle cx="442.232" cy="224.898" r="3.25821"/>
<circle cx="446.957" cy="220.64" r="3.25821"/>
<circle cx="451.681" cy="230.756" r="3.25821"/>
<circle cx="456.406" cy="181.188" r="3.25821"/>
<circle cx="461.13" cy="214.911" r="3.25821"/>
<circle cx="465.854" cy="201.901" r="3.25821"/>
<circle cx="470.579" cy="253.573" r="3.25821"/>
<circle cx="475.303" cy="217.149" r="3.25821"/>
<circle cx="480.028" cy="235.715" r="3.25821"/>
<circle cx="484.752" cy="237.813" r="3.25821"/>
</g>
<g fill="black">
<circle cx="489.476" cy="234.09" r="3.25821"/>
<circle cx="494.201" cy="269.45" r="3.25821"/>
<circle cx="498.925" cy="254.077" r="3.25821"/>
<circle cx="508.374" cy="284.306" r="3.25821"/>
</g>
<g fill="black">
<circle cx="120.972" cy="232.523" r="3.25821"/>
<circle cx="224.909" cy="205.848" r="3.25821"/>
<circle cx="257.98" cy="226.559" r="3.25821"/>
<circle cx="262.705" cy="232.762" r="3.25821"/>
<circle cx="267.429" cy="248.812" r="3.25821"/>
<circle cx="272.154" cy="209.485" r="3.25821"/>
<circle cx="276.878" cy="235.966" r="3.25821"/>
<circle cx="281.602" cy="203.535" r="3.25821"/>
<circle cx="286.327" cy="231.857" r="3.25821"/>
<circle cx="291.051" cy="221.552" r="3.25821"/>
<circle cx="295.776" cy="240.488" r="3.25821"/>
<circle cx="300.5" cy="281.447" r="3.25821"/>
<circle cx="305.224" cy="229.428" r="3.25821"/>
<circle cx="309.949" cy="215.938" r="3.25821"/>
<circle cx="314.673" cy="224.466" r="3.25821"/>
<circle cx="319.398" cy="230.521" r="3.25821"/>
<circle cx="324.122" cy="248.081" r="3.25821"/>
<circle cx="328.846" cy="228.036" r="3.25821"/>
<circle cx="333.571" cy="188.716" r="3.25821"/>
<circle cx="338.295" cy="219.15" r="3.25821"/>
<circle cx="343.02" cy="216.131" r="3.25821"/>
<circle cx="347.744" cy="207.166" r="3.25821"/>
<circle cx="352.469" cy="228.589" r="3.25821"/>
<circle cx="357.193" cy="218.249" r="3.25821"/>
<circle cx="361.917" cy="183.953" r="3.25821"/>
<circle cx="366.642" cy="232.74" r="3.25821"/>
<circle cx="371.366" cy="234.464" r="3.25821"/>
<circle cx="376.091" cy="190.629" r="3.25821"/>
<circle cx="380.815" cy="227.519" r="3.25821"/>
<circle cx="385.539" cy="221.593" r="3.25821"/>
<circle cx="390.264" cy="225.206" r="3.25821"/>
<circle cx="394.988" cy="207.44" r="3.25821"/>
<circle cx="399.713" cy="239.387" r="3.25821"/>
<circle cx="409.161" cy="209.806" r="3.25821"/>
<circle cx="413.886" cy="220.129" r="3.25821"/>
<circle cx="418.61" cy="245.874" r="3.25821"/>
<circle cx="423.335" cy="232.06" r="3.25821"/>
<circle cx="428.059" cy="212.667" r="3.25821"/>
<circle cx="432.783" cy="211.431" r="3.25821"/>
<circle cx="437.508" cy="200.232" r="3.25821"/>
<circle cx="442.232" cy="224.898" r="3.25821"/>
<circle cx="446.957" cy="220.64" r="3.25821"/>
<circle cx="451.681" cy="230.756" r="3.25821"/>
<circle cx="456.406" cy="181.188" r="3.25821"/>
<circle cx="461.13" cy="214.911" r="3.25821"/>
<circle cx="465.854" cy="201.901" r="3.25821"/>
<circle cx="470.579" cy="253.573" r="3.25821"/>
<circle cx="475.303" cy="217.149" r="3.25821"/>
<circle cx="480.028" cy="235.715" r="3.25821"/>
<circle cx="484.752" cy="237.813" r="3.25821"/>
</g>
<g fill="black">
<circle cx="489.476" cy="234.09" r="3.25821"/>
<circle cx="494.201" cy="269.45" r="3.25821"/>
<circle cx="498.925" cy="254.077" r="3.25821"/>
<circle cx="508.374" cy="284.306" r="3.25821"/>
</g>
<g fill="black">
<circle cx="120.972" cy="232.523" r="3.25821"/>
<circle cx="224.909" cy="205.848" r="3.25821"/>
<circle cx="257.98" cy="226.559" r="3.25821"/>
<circle cx="262.705" cy="232.762" r="3.25821"/>
<circle cx="267.429" cy="248.812" r="3.25821"/>
<circle cx="272.154" cy="209.485" r="3.25821"/>
<circle cx="276.878" cy="235.966" r="3.25821"/>
<circle cx="281.602" cy="203.535" r="3.25821"/>
<circle cx="286.327" cy="231.857" r="3.25821"/>
<circle cx="291.051" cy="221.552" r="3.25821"/>
<circle cx="295.776" cy="240.488" r="3.25821"/>
<circle cx="300.5" cy="281.447" r="3.25821"/>
<circle cx="305.224" cy="229.428" r="3.25821"/>
<circle cx="309.949" cy="215.938" r="3.25821"/>
<circle cx="314.673" cy="224.466" r="3.25821"/>
<circle cx="319.398" cy="230.521" r="3.25821"/>
<circle cx="324.122" cy="248.081" r="3.25821"/>
<circle cx="328.846" cy="228.036" r="3.25821"/>
<circle cx="333.571" cy="188.716" r="3.25821"/>
<circle cx="338.295" cy="219.15" r="3.25821"/>
<circle cx="343.02" cy="216.131" r="3.25821"/>
<circle cx="347.744" cy="207.166" r="3.25821"/>
<circle cx="352.469" cy="228.589" r="3.25821"/>
<circle cx="357.193" cy="218.249" r="3.25821"/>
<circle cx="361.917" cy="183.953" r="3.25821"/>
<circle cx="366.642" cy="232.74" r="3.25821"/>
<circle cx="371.366" cy="234.464" r="3.25821"/>
<circle cx="376.091" cy="190.629" r="3.25821"/>
<circle cx="380.815" cy="227.519" r="3.25821"/>
<circle cx="385.539" cy="221.593" r="3.25821"/>
<circle cx="390.264" cy="225.206" r="3.25821"/>
<circle cx="394.988" cy="207.44" r="3.25821"/>
<circle cx="399.713" cy="239.387" r="3.25821"/>
<circle cx="409.161" cy="209.806" r="3.25821"/>
<circle cx="413.886" cy="220.129" r="3.25821"/>
<circle cx="418.61" cy="245.874" r="3.25821"/>
<circle cx="423.335" cy="232.06" r="3.25821"/>
<circle cx="428.059" cy="212.667" r="3.25821"/>
<circle cx="432.783" cy="211.431" r="3.25821"/>
<circle cx="437.508" cy="200.232" r="3.25821"/>
<circle cx="442.232" cy="224.898" r="3.25821"/>
<circle cx="446.957" cy="220.64" r="3.25821"/>
<circle cx="451.681" cy="230.756" r="3.25821"/>
<circle cx="456.406" cy="181.188" r="3.25821"/>
<circle cx="461.13" cy="214.911" r="3.25821"/>
<circle cx="465.854" cy="201.901" r="3.25821"/>
<circle cx="470.579" cy="253.573" r="3.25821"/>
<circle cx="475.303" cy="217.149" r="3.25821"/>
<circle cx="480.028" cy="235.715" r="3.25821"/>
<circle cx="484.752" cy="237.813" r="3.25821"/>
</g>
<g fill="black">
<circle cx="489.476" cy="234.09" r="3.25821"/>
<circle cx="494.201" cy="269.45" r="3.25821"/>
<circle cx="498.925" cy="254.077" r="3.25821"/>
<circle cx="508.374" cy="284.306" r="3.25821"/>
</g>
<g fill="black">
<circle cx="120.972" cy="232.523" r="3.25821"/>
<circle cx="224.909" cy="205.848" r="3.25821"/>
<circle cx="286.327" cy="231.857" r="3.25821"/>
<circle cx="314.673" cy="224.466" r="3.25821"/>
<circle cx="324.122" cy="248.081" r="3.25821"/>
<circle cx="328.846" cy="228.036" r="3.25821"/>
<circle cx="338.295" cy="219.15" r="3.25821"/>
<circle cx="343.02" cy="216.131" r="3.25821"/>
<circle cx="347.744" cy="207.166" r="3.25821"/>
<circle cx="352.469" cy="228.589" r="3.25821"/>
<circle cx="357.193" cy="218.249" r="3.25821"/>
<circle cx="361.917" cy="183.953" r="3.25821"/>
<circle cx="366.642" cy="232.74" r="3.25821"/>
<circle cx="371.366" cy="234.464" r="3.25821"/>
<circle cx="376.091" cy="190.629" r="3.25821"/>
<circle cx="380.815" cy="227.519" r="3.25821"/>
<circle cx="385.539" cy="221.593" r="3.25821"/>
<circle cx="390.264" cy="225.206" r="3.25821"/>
<circle cx="394.988" cy="207.44" r="3.25821"/>
<circle cx="399.713" cy="239.387" r="3.25821"/>
<circle cx="409.161" cy="209.806" r="3.25821"/>
<circle cx="413.886" cy="220.129" r="3.25821"/>
<circle cx="418.61" cy="245.874" r="3.25821"/>
<circle cx="423.335" cy="232.06" r="3.25821"/>
<circle cx="428.059" cy="212.667" r="3.25821"/>
<circle cx="432.783" cy="211.431" r="3.25821"/>
<circle cx="437.508" cy="200.232" r="3.25821"/>
<circle cx="442.232" cy="224.898" r="3.25821"/>
<circle cx="446.957" cy="220.64" r="3.25821"/>
<circle cx="451.681" cy="230.756" r="3.25821"/>
<circle cx="456.406" cy="181.188" r="3.25821"/>
<circle cx="461.13" cy="214.911" r="3.25821"/>
<circle cx="465.854" cy="201.901" r="3.25821"/>
<circle cx="470.579" cy="253.573" r="3.25821"/>
<circle cx="475.303" cy="217.149" r="3.25821"/>
<circle cx="480.028" cy="235.715" r="3.25821"/>
<circle cx="484.752" cy="237.813" r="3.25821"/>
<circle cx="489.476" cy="234.09" r="3.25821"/>
<circle cx="494.201" cy="269.45" r="3.25821"/>
<circle cx="498.925" cy="254.077" r="3.25821"/>
<circle cx="508.374" cy="284.306" r="3.25821"/>
</g>
<g fill="black">
<circle cx="120.972" cy="232.523" r="3.25821"/>
<circle cx="224.909" cy="205.848" r="3.25821"/>
<circle cx="286.327" cy="231.857" r="3.25821"/>
<circle cx="314.673" cy="224.466" r="3.25821"/>
<circle cx="324.122" cy="248.081" r="3.25821"/>
<circle cx="328.846" cy="228.036" r="3.25821"/>
<circle cx="338.295" cy="219.15" r="3.25821"/>
<circle cx="343.02" cy="216.131" r="3.25821"/>
<circle cx="347.744" cy="207.166" r="3.25821"/>
<circle cx="352.469" cy="228.589" r="3.25821"/>
<circle cx="357.193" cy="218.249" r="3.25821"/>
<circle cx="361.917" cy="183.953" r="3.25821"/>
<circle cx="366.642" cy="232.74" r="3.25821"/>
<circle cx="371.366" cy="234.464" r="3.25821"/>
<circle cx="376.091" cy="190.629" r="3.25821"/>
<circle cx="380.815" cy="227.519" r="3.25821"/>
<circle cx="385.539" cy="221.593" r="3.25821"/>
<circle cx="390.264" cy="225.206" r="3.25821"/>
<circle cx="394.988" cy="207.44" r="3.25821"/>
<circle cx="399.713" cy="239.387" r="3.25821"/>
<circle cx="409.161" cy="209.806" r="3.25821"/>
<circle cx="413.886" cy="220.129" r="3.25821"/>
<circle cx="418.61" cy="245.874" r="3.25821"/>
<circle cx="423.335" cy="232.06" r="3.25821"/>
<circle cx="428.059" cy="212.667" r="3.25821"/>
<circle cx="432.783" cy="211.431" r="3.25821"/>
<circle cx="437.508" cy="200.232" r="3.25821"/>
<circle cx="442.232" cy="224.898" r="3.25821"/>
<circle cx="446.957" cy="220.64" r="3.25821"/>
<circle cx="451.681" cy="230.756" r="3.25821"/>
<circle cx="456.406" cy="181.188" r="3.25821"/>
<circle cx="461.13" cy="214.911" r="3.25821"/>
<circle cx="465.854" cy="201.901" r="3.25821"/>
<circle cx="470.579" cy="253.573" r="3.25821"/>
<circle cx="475.303" cy="217.149" r="3.25821"/>
<circle cx="480.028" cy="235.715" r="3.25821"/>
<circle cx="484.752" cy="237.813" r="3.25821"/>
<circle cx="489.476" cy="234.09" r="3.25821"/>
<circle cx="494.201" cy="269.45" r="3.25821"/>
<circle cx="498.925" cy="254.077" r="3.25821"/>
<circle cx="508.374" cy="284.306" r="3.25821"/>
</g>
<g fill="black">
<circle cx="120.972" cy="232.523" r="3.25821"/>
<circle cx="224.909" cy="205.848" r="3.25821"/>
<circle cx="286.327" cy="231.857" r="3.25821"/>
<circle cx="314.673" cy="224.466" r="3.25821"/>
<circle cx="324.122" cy="248.081" r="3.25821"/>
<circle cx="328.846" cy="228.036" r="3.25821"/>
<circle cx="338.295" cy="219.15" r="3.25821"/>
<circle cx="343.02" cy="216.131" r="3.25821"/>
<circle cx="347.744" cy="207.166" r="3.25821"/>
<circle cx="352.469" cy="228.589" r="3.25821"/>
<circle cx="357.193" cy="218.249" r="3.25821"/>
<circle cx="361.917" cy="183.953" r="3.25821"/>
<circle cx="366.642" cy="232.74" r="3.25821"/>
<circle cx="371.366" cy="234.464" r="3.25821"/>
<circle cx="376.091" cy="190.629" r="3.25821"/>
<circle cx="380.815" cy="227.519" r="3.25821"/>
<circle cx="385.539" cy="221.593" r="3.25821"/>
<circle cx="390.264" cy="225.206" r="3.25821"/>
<circle cx="394.988" cy="207.44" r="3.25821"/>
<circle cx="399.713" cy="239.387" r="3.25821"/>
<circle cx="409.161" cy="209.806" r="3.25821"/>
<circle cx="413.886" cy="220.129" r="3.25821"/>
<circle cx="418.61" cy="245.874" r="3.25821"/>
<circle cx="423.335" cy="232.06" r="3.25821"/>
<circle cx="428.059" cy="212.667" r="3.25821"/>
<circle cx="432.783" cy="211.431" r="3.25821"/>
<circle cx="437.508" cy="200.232" r="3.25821"/>
<circle cx="442.232" cy="224.898" r="3.25821"/>
<circle cx="446.957" cy="220.64" r="3.25821"/>
<circle cx="451.681" cy="230.756" r="3.25821"/>
<circle cx="456.406" cy="181.188" r="3.25821"/>
<circle cx="461.13" cy="214.911" r="3.25821"/>
<circle cx="465.854" cy="201.901" r="3.25821"/>
<circle cx="470.579" cy="253.573" r="3.25821"/>
<circle cx="475.303" cy="217.149" r="3.25821"/>
<circle cx="480.028" cy="235.715" r="3.25821"/>
<circle cx="484.752" cy="237.813" r="3.25821"/>
<circle cx="489.476" cy="234.09" r="3.25821"/>
<circle cx="494.201" cy="269.45" r="3.25821"/>
<circle cx="498.925" cy="254.077" r="3.25821"/>
<circle cx="508.374" cy="284.306" r="3.25821"/>
</g>
<g fill="black">
<circle cx="120.972" cy="232.523" r="3.25821"/>
<circle cx="224.909" cy="205.848" r="3.25821"/>
<circle cx="286.327" cy="231.857" r="3.25821"/>
<circle cx="352.469" cy="228.589" r="3.25821"/>
<circle cx="361.917" cy="183.953" r="3.25821"/>
<circle cx="371.366" cy="234.464" r="3.25821"/>
<circle cx="376.091" cy="190.629" r="3.25821"/>
<circle cx="380.815" cy="227.519" r="3.25821"/>
<circle cx="385.539" cy="221.593" r="3.25821"/>
<circle cx="390.264" cy="225.206" r="3.25821"/>
<circle cx="394.988" cy="207.44" r="3.25821"/>
<circle cx="399.713" cy="239.387" r="3.25821"/>
<circle cx="409.161" cy="209.806" r="3.25821"/>
<circle cx="413.886" cy="220.129" r="3.25821"/>
<circle cx="418.61" cy="245.874" r="3.25821"/>
<circle cx="423.335" cy="232.06" r="3.25821"/>
<circle cx="428.059" cy="212.667" r="3.25821"/>
<circle cx="432.783" cy="211.431" r="3.25821"/>
<circle cx="437.508" cy="200.232" r="3.25821"/>
<circle cx="442.232" cy="224.898" r="3.25821"/>
<circle cx="446.957" cy="220.64" r="3.25821"/>
<circle cx="451.681" cy="230.756" r="3.25821"/>
<circle cx="456.406" cy="181.188" r="3.25821"/>
<circle cx="461.13" cy="214.911" r="3.25821"/>
<circle cx="465.854" cy="201.901" r="3.25821"/>
<circle cx="470.579" cy="253.573" r="3.25821"/>
<circle cx="475.303" cy="217.149" r="3.25821"/>
<circle cx="480.028" cy="235.715" r="3.25821"/>
<circle cx="484.752" cy="237.813" r="3.25821"/>
<circle cx="489.476" cy="234.09" r="3.25821"/>
<circle cx="494.201" cy="269.45" r="3.25821"/>
<circle cx="498.925" cy="254.077" r="3.25821"/>
<circle cx="508.374" cy="284.306" r="3.25821"/>
</g>
<g fill="black">
<circle cx="120.972" cy="232.523" r="3.25821"/>
<circle cx="224.909" cy="205.848" r="3.25821"/>
<circle cx="286.327" cy="231.857" r="3.25821"/>
<circle cx="352.469" cy="228.589" r="3.25821"/>
<circle cx="361.917" cy="183.953" r="3.25821"/>
<circle cx="371.366" cy="234.464" r="3.25821"/>
<circle cx="376.091" cy="190.629" r="3.25821"/>
<circle cx="380.815" cy="227.519" r="3.25821"/>
<circle cx="385.539" cy="221.593" r="3.25821"/>
<circle cx="390.264" cy="225.206" r="3.25821"/>
<circle cx="394.988" cy="207.44" r="3.25821"/>
<circle cx="399.713" cy="239.387" r="3.25821"/>
<circle cx="409.161" cy="209.806" r="3.25821"/>
<circle cx="413.886" cy="220.129" r="3.25821"/>
<circle cx="418.61" cy="245.874" r="3.25821"/>
<circle cx="423.335" cy="232.06" r="3.25821"/>
<circle cx="428.059" cy="212.667" r="3.25821"/>
<circle cx="432.783" cy="211.431" r="3.25821"/>
<circle cx="437.508" cy="200.232" r="3.25821"/>
<circle cx="442.232" cy="224.898" r="3.25821"/>
<circle cx="446.957" cy="220.64" r="3.25821"/>
<circle cx="451.681" cy="230.756" r="3.25821"/>
<circle cx="456.406" cy="181.188" r="3.25821"/>
<circle cx="461.13" cy="214.911" r="3.25821"/>
<circle cx="465.854" cy="201.901" r="3.25821"/>
<circle cx="470.579" cy="253.573" r="3.25821"/>
<circle cx="475.303" cy="217.149" r="3.25821"/>
<circle cx="480.028" cy="235.715" r="3.25821"/>
<circle cx="484.752" cy="237.813" r="3.25821"/>
<circle cx="489.476" cy="234.09" r="3.25821"/>
<circle cx="494.201" cy="269.45" r="3.25821"/>
<circle cx="498.925" cy="254.077" r="3.25821"/>
<circle cx="508.374" cy="284.306" r="3.25821"/>
</g>
<g fill="black">
<circle cx="120.972" cy="232.523" r="3.25821"/>
<circle cx="224.909" cy="205.848" r="3.25821"/>
<circle cx="286.327" cy="231.857" r="3.25821"/>
<circle cx="352.469" cy="228.589" r="3.25821"/>
<circle cx="361.917" cy="183.953" r="3.25821"/>
<circle cx="371.366" cy="234.464" r="3.25821"/>
<circle cx="376.091" cy="190.629" r="3.25821"/>
<circle cx="380.815" cy="227.519" r="3.25821"/>
<circle cx="385.539" cy="221.593" r="3.25821"/>
<circle cx="390.264" cy="225.206" r="3.25821"/>
<circle cx="394.988" cy="207.44" r="3.25821"/>
<circle cx="399.713" cy="239.387" r="3.25821"/>
<circle cx="409.161" cy="209.806" r="3.25821"/>
<circle cx="413.886" cy="220.129" r="3.25821"/>
<circle cx="418.61" cy="245.874" r="3.25821"/>
<circle cx="423.335" cy="232.06" r="3.25821"/>
<circle cx="428.059" cy="212.667" r="3.25821"/>
<circle cx="432.783" cy="211.431" r="3.25821"/>
<circle cx="437.508" cy="200.232" r="3.25821"/>
<circle cx="442.232" cy="224.898" r="3.25821"/>
<circle cx="446.957" cy="220.64" r="3.25821"/>
<circle cx="451.681" cy="230.756" r="3.25821"/>
<circle cx="456.406" cy="181.188" r="3.25821"/>
<circle cx="461.13" cy="214.911" r="3.25821"/>
<circle cx="465.854" cy="201.901" r="3.25821"/>
<circle cx="470.579" cy="253.573" r="3.25821"/>
<circle cx="475.303" cy="217.149" r="3.25821"/>
<circle cx="480.028" cy="235.715" r="3.25821"/>
<circle cx="484.752" cy="237.813" r="3.25821"/>
<circle cx="489.476" cy="234.09" r="3.25821"/>
<circle cx="494.201" cy="269.45" r="3.25821"/>
<circle cx="498.925" cy="254.077" r="3.25821"/>
<circle cx="508.374" cy="284.306" r="3.25821"/>
</g>
<g fill="black">
<circle cx="120.972" cy="232.523" r="3.25821"/>
<circle cx="224.909" cy="205.848" r="3.25821"/>
<circle cx="286.327" cy="231.857" r="3.25821"/>
<circle cx="352.469" cy="228.589" r="3.25821"/>
<circle cx="361.917" cy="183.953" r="3.25821"/>
<circle cx="376.091" cy="190.629" r="3.25821"/>
<circle cx="409.161" cy="209.806" r="3.25821"/>
<circle cx="418.61" cy="245.874" r="3.25821"/>
<circle cx="423.335" cy="232.06" r="3.25821"/>
<circle cx="428.059" cy="212.667" r="3.25821"/>
<circle cx="432.783" cy="211.431" r="3.25821"/>
<circle cx="437.508" cy="200.232" r="3.25821"/>
<circle cx="442.232" cy="224.898" r="3.25821"/>
<circle cx="446.957" cy="220.64" r="3.25821"/>
<circle cx="451.681" cy="230.756" r="3.25821"/>
<circle cx="456.406" cy="181.188" r="3.25821"/>
<circle cx="461.13" cy="214.911" r="3.25821"/>
<circle cx="465.854" cy="201.901" r="3.25821"/>
<circle cx="470.579" cy="253.573" r="3.25821"/>
<circle cx="475.303" cy="217.149" r="3.25821"/>
<circle cx="480.028" cy="235.715" r="3.25821"/>
<circle cx="484.752" cy="237.813" r="3.25821"/>
<circle cx="489.476" cy="234.09" r="3.25821"/>
<circle cx="494.201" cy="269.45" r="3.25821"/>
<circle cx="498.925" cy="254.077" r="3.25821"/>
<circle cx="508.374" cy="284.306" r="3.25821"/>
</g>
<g fill="black">
<circle cx="120.972" cy="232.523" r="3.25821"/>
<circle cx="224.909" cy="205.848" r="3.25821"/>
<circle cx="286.327" cy="231.857" r="3.25821"/>
<circle cx="352.469" cy="228.589" r="3.25821"/>
<circle cx="361.917" cy="183.953" r="3.25821"/>
<circle cx="376.091" cy="190.629" r="3.25821"/>
<circle cx="409.161" cy="209.806" r="3.25821"/>
<circle cx="418.61" cy="245.874" r="3.25821"/>
<circle cx="423.335" cy="232.06" r="3.25821"/>
<circle cx="428.059" cy="212.667" r="3.25821"/>
<circle cx="432.783" cy="211.431" r="3.25821"/>
<circle cx="437.508" cy="200.232" r="3.25821"/>
<circle cx="442.232" cy="224.898" r="3.25821"/>
<circle cx="446.957" cy="220.64" r="3.25821"/>
<circle cx="451.681" cy="230.756" r="3.25821"/>
<circle cx="456.406" cy="181.188" r="3.25821"/>
<circle cx="461.13" cy="214.911" r="3.25821"/>
<circle cx="465.854" cy="201.901" r="3.25821"/>
<circle cx="470.579" cy="253.573" r="3.25821"/>
<circle cx="475.303" cy="217.149" r="3.25821"/>
<circle cx="480.028" cy="235.715" r="3.25821"/>
<circle cx="484.752" cy="237.813" r="3.25821"/>
<circle cx="489.476" cy="234.09" r="3.25821"/>
<circle cx="494.201" cy="269.45" r="3.25821"/>
<circle cx="498.925" cy="254.077" r="3.25821"/>
<circle cx="508.374" cy="284.306" r="3.25821"/>
</g>
<g fill="black">
<circle cx="120.972" cy="232.523" r="3.25821"/>
<circle cx="224.909" cy="205.848" r="3.25821"/>
<circle cx="286.327" cy="231.857" r="3.25821"/>
<circle cx="352.469" cy="228.589" r="3.25821"/>
<circle cx="361.917" cy="183.953" r="3.25821"/>
<circle cx="376.091" cy="190.629" r="3.25821"/>
<circle cx="409.161" cy="209.806" r="3.25821"/>
<circle cx="418.61" cy="245.874" r="3.25821"/>
<circle cx="423.335" cy="232.06" r="3.25821"/>
<circle cx="428.059" cy="212.667" r="3.25821"/>
<circle cx="432.783" cy="211.431" r="3.25821"/>
<circle cx="437.508" cy="200.232" r="3.25821"/>
<circle cx="442.232" cy="224.898" r="3.25821"/>
<circle cx="446.957" cy="220.64" r="3.25821"/>
<circle cx="451.681" cy="230.756" r="3.25821"/>
<circle cx="456.406" cy="181.188" r="3.25821"/>
<circle cx="461.13" cy="214.911" r="3.25821"/>
<circle cx="465.854" cy="201.901" r="3.25821"/>
<circle cx="470.579" cy="253.573" r="3.25821"/>
<circle cx="475.303" cy="217.149" r="3.25821"/>
<circle cx="480.028" cy="235.715" r="3.25821"/>
<circle cx="484.752" cy="237.813" r="3.25821"/>
<circle cx="489.476" cy="234.09" r="3.25821"/>
<circle cx="494.201" cy="269.45" r="3.25821"/>
<circle cx="498.925" cy="254.077" r="3.25821"/>
<circle cx="508.374" cy="284.306" r="3.25821"/>
</g>
<g fill="black">
<circle cx="120.972" cy="232.523" r="3.25821"/>
<circle cx="224.909" cy="205.848" r="3.25821"/>
<circle cx="286.327" cy="231.857" r="3.25821"/>
<circle cx="352.469" cy="228.589" r="3.25821"/>
<circle cx="361.917" cy="183.953" r="3.25821"/>
<circle cx="376.091" cy="190.629" r="3.25821"/>
<circle cx="409.161" cy="209.806" r="3.25821"/>
<circle cx="418.61" cy="245.874" r="3.25821"/>
<circle cx="423.335" cy="232.06" r="3.25821"/>
<circle cx="428.059" cy="212.667" r="3.25821"/>
<circle cx="432.783" cy="211.431" r="3.25821"/>
<circle cx="437.508" cy="200.232" r="3.25821"/>
<circle cx="456.406" cy="181.188" r="3.25821"/>
<circle cx="461.13" cy="214.911" r="3.25821"/>
<circle cx="480.028" cy="235.715" r="3.25821"/>
<circle cx="489.476" cy="234.09" r="3.25821"/>
</g>
<g fill="black">
<circle cx="120.972" cy="232.523" r="3.25821"/>
<circle cx="224.909" cy="205.848" r="3.25821"/>
<circle cx="286.327" cy="231.857" r="3.25821"/>
<circle cx="352.469" cy="228.589" r="3.25821"/>
<circle cx="361.917" cy="183.953" r="3.25821"/>
<circle cx="376.091" cy="190.629" r="3.25821"/>
<circle cx="409.161" cy="209.806" r="3.25821"/>
<circle cx="418.61" cy="245.874" r="3.25821"/>
<circle cx="423.335" cy="232.06" r="3.25821"/>
<circle cx="428.059" cy="212.667" r="3.25821"/>
<circle cx="432.783" cy="211.431" r="3.25821"/>
<circle cx="437.508" cy="200.232" r="3.25821"/>
<circle cx="456.406" cy="181.188" r="3.25821"/>
<circle cx="461.13" cy="214.911" r="3.25821"/>
<circle cx="480.028" cy="235.715" r="3.25821"/>
<circle cx="489.476" cy="234.09" r="3.25821"/>
</g>
<g fill="black">
<circle cx="120.972" cy="232.523" r="3.25821"/>
<circle cx="224.909" cy="205.848" r="3.25821"/>
<circle cx="286.327" cy="231.857" r="3.25821"/>
<circle cx="352.469" cy="228.589" r="3.25821"/>
<circle cx="361.917" cy="183.953" r="3.25821"/>
<circle cx="376.091" cy="190.629" r="3.25821"/>
<circle cx="409.161" cy="209.806" r="3.25821"/>
<circle cx="418.61" cy="245.874" r="3.25821"/>
<circle cx="423.335" cy="232.06" r="3.25821"/>
<circle cx="428.059" cy="212.667" r="3.25821"/>
<circle cx="432.783" cy="211.431" r="3.25821"/>
<circle cx="437.508" cy="200.232" r="3.25821"/>
<circle cx="456.406" cy="181.188" r="3.25821"/>
<circle cx="461.13" cy="214.911" r="3.25821"/>
<circle cx="480.028" cy="235.715" r="3.25821"/>
<circle cx="489.476" cy="234.09" r="3.25821"/>
</g>
<g fill="black">
<circle cx="120.972" cy="232.523" r="3.25821"/>
<circle cx="224.909" cy="205.848" r="3.25821"/>
<circle cx="286.327" cy="231.857" r="3.25821"/>
<circle cx="352.469" cy="228.589" r="3.25821"/>
<circle cx="361.917" cy="183.953" r="3.25821"/>
<circle cx="376.091" cy="190.629" r="3.25821"/>
<circle cx="409.161" cy="209.806" r="3.25821"/>
<circle cx="418.61" cy="245.874" r="3.25821"/>
<circle cx="423.335" cy="232.06" r="3.25821"/>
<circle cx="428.059" cy="212.667" r="3.25821"/>
<circle cx="432.783" cy="211.431" r="3.25821"/>
</g>
<g fill="black">
<circle cx="120.972" cy="232.523" r="3.25821"/>
<circle cx="224.909" cy="205.848" r="3.25821"/>
<circle cx="286.327" cy="231.857" r="3.25821"/>
<circle cx="352.469" cy="228.589" r="3.25821"/>
<circle cx="361.917" cy="183.953" r="3.25821"/>
<circle cx="376.091" cy="190.629" r="3.25821"/>
<circle cx="409.161" cy="209.806" r="3.25821"/>
<circle cx="418.61" cy="245.874" r="3.25821"/>
<circle cx="423.335" cy="232.06" r="3.25821"/>
<circle cx="428.059" cy="212.667" r="3.25821"/>
<circle cx="432.783" cy="211.431" r="3.25821"/>
</g>
<g fill="black">
<circle cx="120.972" cy="232.523" r="3.25821"/>
<circle cx="224.909" cy="205.848" r="3.25821"/>
<circle cx="286.327" cy="231.857" r="3.25821"/>
<circle cx="352.469" cy="228.589" r="3.25821"/>
<circle cx="361.917" cy="183.953" r="3.25821"/>
<circle cx="376.091" cy="190.629" r="3.25821"/>
<circle cx="409.161" cy="209.806" r="3.25821"/>
<circle cx="418.61" cy="245.874" r="3.25821"/>
<circle cx="423.335" cy="232.06" r="3.25821"/>
<circle cx="428.059" cy="212.667" r="3.25821"/>
<circle cx="432.783" cy="211.431" r="3.25821"/>
</g>
<g fill="black">
<circle cx="120.972" cy="232.523" r="3.25821"/>
<circle cx="224.909" cy="205.848" r="3.25821"/>
<circle cx="286.327" cy="231.857" r="3.25821"/>
<circle cx="352.469" cy="228.589" r="3.25821"/>
<circle cx="361.917" cy="183.953" r="3.25821"/>
<circle cx="376.091" cy="190.629" r="3.25821"/>
</g>
<g fill="black">
<circle cx="120.972" cy="232.523" r="3.25821"/>
<circle cx="224.909" cy="205.848" r="3.25821"/>
<circle cx="286.327" cy="231.857" r="3.25821"/>
<circle cx="352.469" cy="228.589" r="3.25821"/>
<circle cx="361.917" cy="183.953" r="3.25821"/>
<circle cx="376.091" cy="190.629" r="3.25821"/>
</g>
<g fill="black">
<circle cx="120.972" cy="232.523" r="3.25821"/>
<circle cx="224.909" cy="205.848" r="3.25821"/>
<circle cx="286.327" cy="231.857" r="3.25821"/>
<circle cx="352.469" cy="228.589" r="3.25821"/>
<circle cx="361.917" cy="183.953" r="3.25821"/>
<circle cx="376.091" cy="190.629" r="3.25821"/>
</g>
<g fill="black">
<circle cx="120.972" cy="232.523" r="3.25821"/>
<circle cx="224.909" cy="205.848" r="3.25821"/>
</g>
<g fill="black">
<circle cx="120.972" cy="232.523" r="3.25821"/>
<circle cx="224.909" cy="205.848" r="3.25821"/>
</g>
<g fill="black">
<circle cx="120.972" cy="232.523" r="3.25821"/>
<circle cx="224.909" cy="205.848" r="3.25821"/>
</g>
<g fill="black">
<circle cx="120.972" cy="232.523" r="3.25821"/>
</g>
<g fill="black">
<circle cx="120.972" cy="232.523" r="3.25821"/>
</g>
<g fill="black">
<circle cx="120.972" cy="232.523" r="3.25821"/>
</g>
<path d="M57.1929,346.022h 453.543" fill="none" stroke="black"/>
<path d="M57.1929,336.795v 9.22726" fill="none" stroke="black"/>
<path d="M66.6417,341.409v 4.61363" fill="none" stroke="black"/>
<path d="M76.0906,341.409v 4.61363" fill="none" stroke="black"/>
<path d="M85.5394,341.409v 4.61363" fill="none" stroke="black"/>
<path d="M94.9882,341.409v 4.61363" fill="none" stroke="black"/>
<path d="M104.437,336.795v 9.22726" fill="none" stroke="black"/>
<path d="M113.886,341.409v 4.61363" fill="none" stroke="black"/>
<path d="M123.335,341.409v 4.61363" fill="none" stroke="black"/>
<path d="M132.783,341.409v 4.61363" fill="none" stroke="black"/>
<path d="M142.232,341.409v 4.61363" fill="none" stroke="black"/>
<path d="M151.681,336.795v 9.22726" fill="none" stroke="black"/>
<path d="M161.13,341.409v 4.61363" fill="none" stroke="black"/>
<path d="M170.579,341.409v 4.61363" fill="none" stroke="black"/>
<path d="M180.028,341.409v 4.61363" fill="none" stroke="black"/>
<path d="M189.476,341.409v 4.61363" fill="none" stroke="black"/>
<path d="M198.925,336.795v 9.22726" fill="none" stroke="black"/>
<path d="M208.374,341.409v 4.61363" fill="none" stroke="black"/>
<path d="M217.823,341.409v 4.61363" fill="none" stroke="black"/>
<path d="M227.272,341.409v 4.61363" fill="none" stroke="black"/>
<path d="M236.72,341.409v 4.61363" fill="none" stroke="black"/>
<path d="M246.169,336.795v 9.22726" fill="none" stroke="black"/>
<path d="M255.618,341.409v 4.61363" fill="none" stroke="black"/>
<path d="M265.067,341.409v 4.61363" fill="none" stroke="black"/>
<path d="M274.516,341.409v 4.61363" fill="none" stroke="black"/>
<path d="M283.965,341.409v 4.61363" fill="none" stroke="black"/>
<path d="M293.413,336.795v 9.22726" fill="none" stroke="black"/>
<path d="M302.862,341.409v 4.61363" fill="none" stroke="black"/>
<path d="M312.311,341.409v 4.61363" fill="none" stroke="black"/>
<path d="M321.76,341.409v 4.61363" fill="none" stroke="black"/>
<path d="M331.209,341.409v 4.61363" fill="none" stroke="black"/>
<path d="M340.657,336.795v 9.22726" fill="none" stroke="black"/>
<path d="M350.106,341.409v 4.61363" fill="none" stroke="black"/>
<path d="M359.555,341.409v 4.61363" fill="none" stroke="black"/>
<path d="M369.004,341.409v 4.61363" fill="none" stroke="black"/>
<path d="M378.453,341.409v 4.61363" fill="none" stroke="black"/>
<path d="M387.902,336.795v 9.22726" fill="none" stroke="black"/>
<path d="M397.35,341.409v 4.61363" fill="none" stroke="black"/>
<path d="M406.799,341.409v 4.61363" fill="none" stroke="black"/>
<path d="M416.248,341.409v 4.61363" fill="none" stroke="black"/>
<path d="M425.697,341.409v 4.61363" fill="none" stroke="black"/>
<path d="M435.146,336.795v 9.22726" fill="none" stroke="black"/>
<path d="M444.594,341.409v 4.61363" fill="none" stroke="black"/>
<path d="M454.043,341.409v 4.61363" fill="none" stroke="black"/>
<path d="M463.492,341.409v 4.61363" fill="none" stroke="black"/>
<path d="M472.941,341.409v 4.61363" fill="none" stroke="black"/>
<path d="M482.39,336.795v 9.22726" fill="none" stroke="black"/>
<path d="M482.39,336.795v 9.22726" fill="none" stroke="black"/>
<path d="M491.839,341.409v 4.61363" fill="none" stroke="black"/>
<path d="M501.287,341.409v 4.61363" fill="none" stroke="black"/>
<path d="M57.1929,346.022v -307.575" fill="none" stroke="black"/>
<path d="M70.7992,346.022h -13.6063" fill="none" stroke="black"/>
<path d="M63.9961,336.258h -6.80315" fill="none" stroke="black"/>
<path d="M63.9961,326.494h -6.80315" fill="none" stroke="black"/>
<path d="M63.9961,316.729h -6.80315" fill="none" stroke="black"/>
<path d="M63.9961,306.965h -6.80315" fill="none" stroke="black"/>
<path d="M70.7992,297.201h -13.6063" fill="none" stroke="black"/>
<path d="M63.9961,287.436h -6.80315" fill="none" stroke="black"/>
<path d="M63.9961,277.672h -6.80315" fill="none" stroke="black"/>
<path d="M63.9961,267.908h -6.80315" fill="none" stroke="black"/>
<path d="M63.9961,258.144h -6.80315" fill="none" stroke="black"/>
<path d="M70.7992,248.379h -13.6063" fill="none" stroke="black"/>
<path d="M63.9961,238.615h -6.80315" fill="none" stroke="black"/>
<path d="M63.9961,228.851h -6.80315" fill="none" stroke="black"/>
<path d="M63.9961,219.086h -6.80315" fill="none" stroke="black"/>
<path d="M63.9961,209.322h -6.80315" fill="none" stroke="black"/>
<path d="M70.7992,199.558h -13.6063" fill="none" stroke="black"/>
<path d="M63.9961,189.794h -6.80315" fill="none" stroke="black"/>
<path d="M63.9961,180.029h -6.80315" fill="none" stroke="black"/>
<path d="M63.9961,170.265h -6.80315" fill="none" stroke="black"/>
<path d="M63.9961,160.501h -6.80315" fill="none" stroke="black"/>
<path d="M70.7992,150.736h -13.6063" fill="none" stroke="black"/>
<path d="M63.9961,140.972h -6.80315" fill="none" stroke="black"/>
<path d="M63.9961,131.208h -6.80315" fill="none" stroke="black"/>
<path d="M63.9961,121.443h -6.80315" fill="none" stroke="black"/>
<path d="M63.9961,111.679h -6.80315" fill="none" stroke="black"/>
<path d="M70.7992,101.915h -13.6063" fill="none" stroke="black"/>
<path d="M63.9961,92.1506h -6.80315" fill="none" stroke="black"/>
<path d="M63.9961,82.3863h -6.80315" fill="none" stroke="black"/>
<path d="M63.9961,72.622h -6.80315" fill="none" stroke="black"/>
<path d="M63.9961,62.8577h -6.80315" fill="none" stroke="black"/>
<path d="M70.7992,53.0934h -13.6063" fill="none" stroke="black"/>
<path d="M70.7992,53.0934h -13.6063" fill="none" stroke="black"/>
<path d="M63.9961,43.3291h -6.80315" fill="none" stroke="black"/>
<path d="M57.1929,222.281h 453.543" fill="none" stroke="#ff0000" stroke-dasharray=" 3, 3"/>
<path d="M57.1929,210.224h 453.543" fill="none" stroke="#0000ff" stroke-dasharray=" 3, 3"/>
<rect x="397.35" y="38.4469" width="113.386" height="57.6704" fill="white"/>
<path d="M397.35,96.1173h 113.386" fill="none" stroke="black"/>
<path d="M510.736,96.1173v -57.6704" fill="none" stroke="black"/>
<path d="M510.736,38.4469h -113.386" fill="none" stroke="black"/>
<path d="M397.35,38.4469v 57.6704" fill="none" stroke="black"/>
<text xml:space="preserve" x="425.697" y="55.3896" fill="black" font-size="9.60713" font-family="Helvetica">Sector Avg (253.5)</text>
<path d="M401.602,52.8645h 19.8425" fill="none" stroke="#ff0000" stroke-dasharray=" 3, 3"/>
<text xml:space="preserve" x="425.697" y="84.7135" fill="black" font-size="9.60713" font-family="Helvetica">Overall Avg (278.2)</text>
<path d="M401.602,81.6997h 19.8425" fill="none" stroke="#0000ff" stroke-dasharray=" 3, 3"/>
<text xml:space="preserve" x="216.357" y="18.7347" fill="black" font-size="18.0316" font-family="Helvetica">Sector 7 (Before)</text></svg>
