<?xml version="1.0" standalone="no"?>
<svg width="567.429" height="384.969" viewBox="0 0 567.429 384.969" xmlns="http://www.w3.org/2000/svg" shape-rendering="crispEdges">
<title>
./proof/combined/sector6.svg
</title>
<desc>
Creator: ROOT Version 6.24/00
CreationDate: Sat Jul 24 11:09:19 2021</desc>
<defs>
</defs>
<rect x="0.5" y="0" width="566.929" height="384.469" fill="white"/>
<rect x="57.1929" y="38.4469" width="453.543" height="307.575" fill="white"/>
<rect x="57.1929" y="38.4469" width="453.543" height="307.575" fill="none" stroke="black"/>
<path d="M57.1929,346.022h 453.543" fill="none" stroke="black"/>
<path d="M57.1929,38.4469v 307.575" fill="none" stroke="black" stroke-dasharray=" 1, 2"/>
<path d="M104.437,38.4469v 307.575" fill="none" stroke="black" stroke-dasharray=" 1, 2"/>
<path d="M151.681,38.4469v 307.575" fill="none" stroke="black" stroke-dasharray=" 1, 2"/>
<path d="M198.925,38.4469v 307.575" fill="none" stroke="black" stroke-dasharray=" 1, 2"/>
<path d="M246.169,38.4469v 307.575" fill="none" stroke="black" stroke-dasharray=" 1, 2"/>
<path d="M293.413,38.4469v 307.575" fill="none" stroke="black" stroke-dasharray=" 1, 2"/>
<path d="M340.657,38.4469v 307.575" fill="none" stroke="black" stroke-dasharray=" 1, 2"/>
<path d="M387.902,38.4469v 307.575" fill="none" stroke="black" stroke-dasharray=" 1, 2"/>
<path d="M435.146,38.4469v 307.575" fill="none" stroke="black" stroke-dasharray=" 1, 2"/>
<path d="M482.39,38.4469v 307.575" fill="none" stroke="black" stroke-dasharray=" 1, 2"/>
<path d="M482.39,38.4469v 307.575" fill="none" stroke="black" stroke-dasharray=" 1, 2"/>
<path d="M57.1929,346.022v -307.575" fill="none" stroke="black"/>
<path d="M510.736,346.022h -453.543" fill="none" stroke="black" stroke-dasharray=" 1, 2"/>
<path d="M510.736,294.76h -453.543" fill="none" stroke="black" stroke-dasharray=" 1, 2"/>
<path d="M510.736,243.497h -453.543" fill="none" stroke="black" stroke-dasharray=" 1, 2"/>
<path d="M510.736,192.235h -453.543" fill="none" stroke="black" stroke-dasharray=" 1, 2"/>
<path d="M510.736,140.972h -453.543" fill="none" stroke="black" stroke-dasharray=" 1, 2"/>
<path d="M510.736,89.7095h -453.543" fill="none" stroke="black" stroke-dasharray=" 1, 2"/>
<path d="M510.736,38.4469h -453.543" fill="none" stroke="black" stroke-dasharray=" 1, 2"/>
<path d="M57.1929,346.022h 453.543" fill="none" stroke="#000099"/>
<path d="M57.1929,346.022h 453.543" fill="none" stroke="black"/>
<path d="M57.1929,336.795v 9.22726" fill="none" stroke="black"/>
<path d="M66.6417,341.409v 4.61363" fill="none" stroke="black"/>
<path d="M76.0906,341.409v 4.61363" fill="none" stroke="black"/>
<path d="M85.5394,341.409v 4.61363" fill="none" stroke="black"/>
<path d="M94.9882,341.409v 4.61363" fill="none" stroke="black"/>
<path d="M104.437,336.795v 9.22726" fill="none" stroke="black"/>
<path d="M113.886,341.409v 4.61363" fill="none" stroke="black"/>
<path d="M123.335,341.409v 4.61363" fill="none" stroke="black"/>
<path d="M132.783,341.409v 4.61363" fill="none" stroke="black"/>
<path d="M142.232,341.409v 4.61363" fill="none" stroke="black"/>
<path d="M151.681,336.795v 9.22726" fill="none" stroke="black"/>
<path d="M161.13,341.409v 4.61363" fill="none" stroke="black"/>
<path d="M170.579,341.409v 4.61363" fill="none" stroke="black"/>
<path d="M180.028,341.409v 4.61363" fill="none" stroke="black"/>
<path d="M189.476,341.409v 4.61363" fill="none" stroke="black"/>
<path d="M198.925,336.795v 9.22726" fill="none" stroke="black"/>
<path d="M208.374,341.409v 4.61363" fill="none" stroke="black"/>
<path d="M217.823,341.409v 4.61363" fill="none" stroke="black"/>
<path d="M227.272,341.409v 4.61363" fill="none" stroke="black"/>
<path d="M236.72,341.409v 4.61363" fill="none" stroke="black"/>
<path d="M246.169,336.795v 9.22726" fill="none" stroke="black"/>
<path d="M255.618,341.409v 4.61363" fill="none" stroke="black"/>
<path d="M265.067,341.409v 4.61363" fill="none" stroke="black"/>
<path d="M274.516,341.409v 4.61363" fill="none" stroke="black"/>
<path d="M283.965,341.409v 4.61363" fill="none" stroke="black"/>
<path d="M293.413,336.795v 9.22726" fill="none" stroke="black"/>
<path d="M302.862,341.409v 4.61363" fill="none" stroke="black"/>
<path d="M312.311,341.409v 4.61363" fill="none" stroke="black"/>
<path d="M321.76,341.409v 4.61363" fill="none" stroke="black"/>
<path d="M331.209,341.409v 4.61363" fill="none" stroke="black"/>
<path d="M340.657,336.795v 9.22726" fill="none" stroke="black"/>
<path d="M350.106,341.409v 4.61363" fill="none" stroke="black"/>
<path d="M359.555,341.409v 4.61363" fill="none" stroke="black"/>
<path d="M369.004,341.409v 4.61363" fill="none" stroke="black"/>
<path d="M378.453,341.409v 4.61363" fill="none" stroke="black"/>
<path d="M387.902,336.795v 9.22726" fill="none" stroke="black"/>
<path d="M397.35,341.409v 4.61363" fill="none" stroke="black"/>
<path d="M406.799,341.409v 4.61363" fill="none" stroke="black"/>
<path d="M416.248,341.409v 4.61363" fill="none" stroke="black"/>
<path d="M425.697,341.409v 4.61363" fill="none" stroke="black"/>
<path d="M435.146,336.795v 9.22726" fill="none" stroke="black"/>
<path d="M444.594,341.409v 4.61363" fill="none" stroke="black"/>
<path d="M454.043,341.409v 4.61363" fill="none" stroke="black"/>
<path d="M463.492,341.409v 4.61363" fill="none" stroke="black"/>
<path d="M472.941,341.409v 4.61363" fill="none" stroke="black"/>
<path d="M482.39,336.795v 9.22726" fill="none" stroke="black"/>
<path d="M482.39,336.795v 9.22726" fill="none" stroke="black"/>
<path d="M491.839,341.409v 4.61363" fill="none" stroke="black"/>
<path d="M501.287,341.409v 4.61363" fill="none" stroke="black"/>
<text xml:space="preserve" x="53.446" y="358.403" fill="black" font-size="12.8453" font-family="Helvetica">0</text>
<text xml:space="preserve" x="97.4318" y="358.403" fill="black" font-size="12.8453" font-family="Helvetica">10</text>
<text xml:space="preserve" x="144.676" y="358.403" fill="black" font-size="12.8453" font-family="Helvetica">20</text>
<text xml:space="preserve" x="191.92" y="358.403" fill="black" font-size="12.8453" font-family="Helvetica">30</text>
<text xml:space="preserve" x="239.164" y="358.403" fill="black" font-size="12.8453" font-family="Helvetica">40</text>
<text xml:space="preserve" x="286.408" y="358.403" fill="black" font-size="12.8453" font-family="Helvetica">50</text>
<text xml:space="preserve" x="333.652" y="358.403" fill="black" font-size="12.8453" font-family="Helvetica">60</text>
<text xml:space="preserve" x="380.896" y="358.403" fill="black" font-size="12.8453" font-family="Helvetica">70</text>
<text xml:space="preserve" x="428.141" y="358.403" fill="black" font-size="12.8453" font-family="Helvetica">80</text>
<text xml:space="preserve" x="475.385" y="358.403" fill="black" font-size="12.8453" font-family="Helvetica">90</text>
<text xml:space="preserve" x="433.842" y="372.251" fill="black" font-size="12.8453" font-family="Helvetica">Block Number</text>
<path d="M57.1929,346.022v -307.575" fill="none" stroke="black"/>
<path d="M70.7992,346.022h -13.6063" fill="none" stroke="black"/>
<path d="M63.9961,335.77h -6.80315" fill="none" stroke="black"/>
<path d="M63.9961,325.517h -6.80315" fill="none" stroke="black"/>
<path d="M63.9961,315.265h -6.80315" fill="none" stroke="black"/>
<path d="M63.9961,305.012h -6.80315" fill="none" stroke="black"/>
<path d="M70.7992,294.76h -13.6063" fill="none" stroke="black"/>
<path d="M63.9961,284.507h -6.80315" fill="none" stroke="black"/>
<path d="M63.9961,274.255h -6.80315" fill="none" stroke="black"/>
<path d="M63.9961,264.002h -6.80315" fill="none" stroke="black"/>
<path d="M63.9961,253.75h -6.80315" fill="none" stroke="black"/>
<path d="M70.7992,243.497h -13.6063" fill="none" stroke="black"/>
<path d="M63.9961,233.245h -6.80315" fill="none" stroke="black"/>
<path d="M63.9961,222.992h -6.80315" fill="none" stroke="black"/>
<path d="M63.9961,212.74h -6.80315" fill="none" stroke="black"/>
<path d="M63.9961,202.487h -6.80315" fill="none" stroke="black"/>
<path d="M70.7992,192.235h -13.6063" fill="none" stroke="black"/>
<path d="M63.9961,181.982h -6.80315" fill="none" stroke="black"/>
<path d="M63.9961,171.73h -6.80315" fill="none" stroke="black"/>
<path d="M63.9961,161.477h -6.80315" fill="none" stroke="black"/>
<path d="M63.9961,151.225h -6.80315" fill="none" stroke="black"/>
<path d="M70.7992,140.972h -13.6063" fill="none" stroke="black"/>
<path d="M63.9961,130.72h -6.80315" fill="none" stroke="black"/>
<path d="M63.9961,120.467h -6.80315" fill="none" stroke="black"/>
<path d="M63.9961,110.215h -6.80315" fill="none" stroke="black"/>
<path d="M63.9961,99.962h -6.80315" fill="none" stroke="black"/>
<path d="M70.7992,89.7095h -13.6063" fill="none" stroke="black"/>
<path d="M63.9961,79.457h -6.80315" fill="none" stroke="black"/>
<path d="M63.9961,69.2045h -6.80315" fill="none" stroke="black"/>
<path d="M63.9961,58.9519h -6.80315" fill="none" stroke="black"/>
<path d="M63.9961,48.6994h -6.80315" fill="none" stroke="black"/>
<path d="M70.7992,38.4469h -13.6063" fill="none" stroke="black"/>
<text xml:space="preserve" x="47.7441" y="350.258" fill="black" font-size="12.8453" font-family="Helvetica">0</text>
<text xml:space="preserve" x="33.8967" y="298.941" fill="black" font-size="12.8453" font-family="Helvetica">100</text>
<text xml:space="preserve" x="33.8967" y="247.624" fill="black" font-size="12.8453" font-family="Helvetica">200</text>
<text xml:space="preserve" x="33.8967" y="197.122" fill="black" font-size="12.8453" font-family="Helvetica">300</text>
<text xml:space="preserve" x="33.8967" y="145.805" fill="black" font-size="12.8453" font-family="Helvetica">400</text>
<text xml:space="preserve" x="33.8967" y="94.4882" fill="black" font-size="12.8453" font-family="Helvetica">500</text>
<text xml:space="preserve" x="33.8967" y="43.1713" fill="black" font-size="12.8453" font-family="Helvetica">600</text>
<g transform="rotate(-90,21.6784,65.1643)">
<text xml:space="preserve" x="21.6784" y="65.1643" fill="black" font-size="12.8453" font-family="Helvetica">MPV</text>
</g>
<text xml:space="preserve" x="252.197" y="18.7347" fill="black" font-size="16.9898" font-family="Helvetica">Sector 6</text>
<g fill="#ff8e00" fill-opacity="0.50" stroke-opacity="0.50">
<polygon points=" 470.579, 216.372 473.837, 222.888 467.321, 222.888"/>
</g>
<g fill="#ff8e00">
<circle cx="470.579" cy="215.803" r="3.25821"/>
</g>
<g fill="#ff6800" fill-opacity="0.50" stroke-opacity="0.50">
<polygon points=" 87.9016, 199.094 91.1598, 205.611 84.6434, 205.611"/>
<polygon points=" 102.075, 198.605 105.333, 205.122 98.8166, 205.122"/>
</g>
<g fill="#ff6800">
<circle cx="87.9016" cy="196.85" r="3.25821"/>
<circle cx="102.075" cy="196.343" r="3.25821"/>
</g>
<g fill="#c10020" fill-opacity="0.50" stroke-opacity="0.50">
<polygon points=" 172.941, 178.2 176.199, 184.716 169.683, 184.716"/>
<polygon points=" 177.665, 178.68 180.924, 185.196 174.407, 185.196"/>
<polygon points=" 210.736, 197.143 213.994, 203.66 207.478, 203.66"/>
<polygon points=" 239.083, 207.972 242.341, 214.488 235.824, 214.488"/>
<polygon points=" 257.98, 252.123 261.239, 258.639 254.722, 258.639"/>
<polygon points=" 262.705, 186.71 265.963, 193.226 259.447, 193.226"/>
<polygon points=" 267.429, 181.657 270.687, 188.173 264.171, 188.173"/>
</g>
<g fill="#c10020">
<circle cx="172.941" cy="170.156" r="3.25821"/>
<circle cx="177.665" cy="170.669" r="3.25821"/>
<circle cx="210.736" cy="190.401" r="3.25821"/>
<circle cx="239.083" cy="201.973" r="3.25821"/>
<circle cx="257.98" cy="249.156" r="3.25821"/>
<circle cx="262.705" cy="179.25" r="3.25821"/>
<circle cx="267.429" cy="173.851" r="3.25821"/>
</g>
<g fill="#f6768e" fill-opacity="0.50" stroke-opacity="0.50">
<polygon points=" 324.122, 219.101 327.38, 225.617 320.864, 225.617"/>
<polygon points=" 328.846, 213.22 332.105, 219.736 325.588, 219.736"/>
<polygon points=" 333.571, 202.361 336.829, 208.878 330.313, 208.878"/>
<polygon points=" 338.295, 183.365 341.553, 189.881 335.037, 189.881"/>
<polygon points=" 343.02, 166.994 346.278, 173.51 339.761, 173.51"/>
<polygon points=" 357.193, 179.623 360.451, 186.139 353.935, 186.139"/>
<polygon points=" 371.366, 201.443 374.624, 207.96 368.108, 207.96"/>
<polygon points=" 376.091, 185.803 379.349, 192.319 372.832, 192.319"/>
<polygon points=" 385.539, 185.94 388.798, 192.457 382.281, 192.457"/>
</g>
<g fill="#f6768e">
<circle cx="324.122" cy="217.756" r="3.25821"/>
<circle cx="328.846" cy="211.656" r="3.25821"/>
<circle cx="333.571" cy="200.394" r="3.25821"/>
<circle cx="338.295" cy="180.69" r="3.25821"/>
<circle cx="343.02" cy="163.71" r="3.25821"/>
<circle cx="357.193" cy="176.809" r="3.25821"/>
<circle cx="371.366" cy="199.441" r="3.25821"/>
<circle cx="376.091" cy="183.219" r="3.25821"/>
<circle cx="385.539" cy="183.361" r="3.25821"/>
</g>
<g fill="#ff7a5c" fill-opacity="0.50" stroke-opacity="0.50">
<polygon points=" 401.179, 170.979 407.695, 170.979 404.437, 177.495"/>
<polygon points=" 415.352, 183.858 421.868, 183.858 418.61, 190.375"/>
<polygon points=" 420.076, 170.86 426.593, 170.86 423.335, 177.376"/>
<polygon points=" 424.801, 164.14 431.317, 164.14 428.059, 170.656"/>
<polygon points=" 429.525, 186.658 436.042, 186.658 432.783, 193.174"/>
</g>
<g fill="#ff7a5c">
<circle cx="404.437" cy="176.614" r="3.25821"/>
<circle cx="418.61" cy="189.315" r="3.25821"/>
<circle cx="423.335" cy="176.497" r="3.25821"/>
<circle cx="428.059" cy="169.87" r="3.25821"/>
<circle cx="432.783" cy="192.076" r="3.25821"/>
</g>
<g fill="#53377a" fill-opacity="0.50" stroke-opacity="0.50">
<polygon points=" 442.232, 185.236 445.491, 191.753 438.974, 191.753"/>
<polygon points=" 456.406, 216.457 459.664, 222.973 453.147, 222.973"/>
<polygon points=" 461.13, 218.721 464.388, 225.237 457.872, 225.237"/>
<polygon points=" 465.854, 174.361 469.113, 180.878 462.596, 180.878"/>
<polygon points=" 475.303, 197.963 478.561, 204.48 472.045, 204.48"/>
<polygon points=" 489.476, 221.192 492.735, 227.709 486.218, 227.709"/>
</g>
<g fill="#53377a">
<circle cx="442.232" cy="182.042" r="3.25821"/>
<circle cx="456.406" cy="214.541" r="3.25821"/>
<circle cx="461.13" cy="216.898" r="3.25821"/>
<circle cx="465.854" cy="170.722" r="3.25821"/>
<circle cx="475.303" cy="195.291" r="3.25821"/>
<circle cx="489.476" cy="219.471" r="3.25821"/>
</g>
<g fill="#b32851" fill-opacity="0.50" stroke-opacity="0.50">
<polygon points=" 480.028, 238.193 483.286, 244.709 476.769, 244.709"/>
<polygon points=" 494.201, 171.689 497.459, 178.205 490.943, 178.205"/>
<polygon points=" 498.925, 227.904 502.183, 234.421 495.667, 234.421"/>
<polygon points=" 503.65, 211.577 506.908, 218.094 500.391, 218.094"/>
<polygon points=" 508.374, 167.45 511.632, 173.966 505.116, 173.966"/>
</g>
<g fill="#b32851">
<circle cx="480.028" cy="233.726" r="3.25821"/>
<circle cx="494.201" cy="162.308" r="3.25821"/>
<circle cx="498.925" cy="222.677" r="3.25821"/>
<circle cx="503.65" cy="205.144" r="3.25821"/>
<circle cx="508.374" cy="157.756" r="3.25821"/>
</g>
<g fill="#00538a" fill-opacity="0.50" stroke-opacity="0.50">
<polygon points=" 361.917, 186.031 365.176, 192.547 358.659, 192.547"/>
<polygon points=" 380.815, 231.646 384.073, 238.162 377.557, 238.162"/>
<polygon points=" 394.988, 205.606 398.246, 212.123 391.73, 212.123"/>
<polygon points=" 399.713, 214.66 402.971, 221.176 396.454, 221.176"/>
<polygon points=" 409.161, 209.473 412.42, 215.989 405.903, 215.989"/>
<polygon points=" 413.886, 188.009 417.144, 194.525 410.628, 194.525"/>
<polygon points=" 437.508, 189.652 440.766, 196.169 434.25, 196.169"/>
<polygon points=" 446.957, 226.484 450.215, 233.001 443.698, 233.001"/>
<polygon points=" 451.681, 206.644 454.939, 213.161 448.423, 213.161"/>
</g>
<g fill="#00538a">
<circle cx="361.917" cy="178.859" r="3.25821"/>
<circle cx="380.815" cy="227.51" r="3.25821"/>
<circle cx="394.988" cy="199.737" r="3.25821"/>
<circle cx="399.713" cy="209.393" r="3.25821"/>
<circle cx="409.161" cy="203.861" r="3.25821"/>
<circle cx="413.886" cy="180.968" r="3.25821"/>
<circle cx="437.508" cy="182.722" r="3.25821"/>
<circle cx="446.957" cy="222.004" r="3.25821"/>
<circle cx="451.681" cy="200.844" r="3.25821"/>
</g>
<g fill="#007d34" fill-opacity="0.50" stroke-opacity="0.50">
<polygon points=" 314.673, 230.097 317.931, 236.613 311.415, 236.613"/>
<polygon points=" 347.744, 185.238 351.002, 191.754 344.486, 191.754"/>
<polygon points=" 352.469, 201.778 355.727, 208.295 349.21, 208.295"/>
<polygon points=" 366.642, 228.029 369.9, 234.546 363.384, 234.546"/>
</g>
<g fill="#007d34">
<circle cx="314.673" cy="226.538" r="3.25821"/>
<circle cx="347.744" cy="178.965" r="3.25821"/>
<circle cx="352.469" cy="196.506" r="3.25821"/>
<circle cx="366.642" cy="224.346" r="3.25821"/>
</g>
<g fill="#817066" fill-opacity="0.50" stroke-opacity="0.50">
<polygon points=" 248.531, 205.919 251.79, 212.436 245.273, 212.436"/>
<polygon points=" 272.154, 208.612 275.412, 215.128 268.895, 215.128"/>
<polygon points=" 276.878, 230.098 280.136, 236.615 273.62, 236.615"/>
<polygon points=" 281.602, 209.813 284.861, 216.329 278.344, 216.329"/>
<polygon points=" 286.327, 219.391 289.585, 225.908 283.069, 225.908"/>
<polygon points=" 291.051, 239.328 294.309, 245.844 287.793, 245.844"/>
<polygon points=" 295.776, 202.548 299.034, 209.064 292.517, 209.064"/>
<polygon points=" 300.5, 204.469 303.758, 210.986 297.242, 210.986"/>
<polygon points=" 305.224, 145.304 308.483, 151.821 301.966, 151.821"/>
<polygon points=" 309.949, 209.899 313.207, 216.416 306.691, 216.416"/>
<polygon points=" 319.398, 244.152 322.656, 250.669 316.139, 250.669"/>
</g>
<g fill="#817066">
<circle cx="248.531" cy="197.962" r="3.25821"/>
<circle cx="272.154" cy="200.875" r="3.25821"/>
<circle cx="276.878" cy="224.123" r="3.25821"/>
<circle cx="281.602" cy="202.175" r="3.25821"/>
<circle cx="286.327" cy="212.538" r="3.25821"/>
<circle cx="291.051" cy="234.109" r="3.25821"/>
<circle cx="295.776" cy="194.314" r="3.25821"/>
<circle cx="300.5" cy="196.393" r="3.25821"/>
<circle cx="305.224" cy="132.379" r="3.25821"/>
<circle cx="309.949" cy="202.268" r="3.25821"/>
<circle cx="319.398" cy="239.329" r="3.25821"/>
</g>
<g fill="#cea262" fill-opacity="0.50" stroke-opacity="0.50">
<polygon points=" 215.461, 178.75 218.719, 185.267 212.202, 185.267"/>
<polygon points=" 220.185, 194.561 223.443, 201.077 216.927, 201.077"/>
<polygon points=" 224.909, 211.967 228.168, 218.483 221.651, 218.483"/>
<polygon points=" 229.634, 205.991 232.892, 212.507 226.376, 212.507"/>
<polygon points=" 234.358, 207.59 237.616, 214.107 231.1, 214.107"/>
<polygon points=" 243.807, 230.119 247.065, 236.635 240.549, 236.635"/>
<polygon points=" 253.256, 222.938 256.514, 229.454 249.998, 229.454"/>
</g>
<g fill="#cea262">
<circle cx="215.461" cy="165.298" r="3.25821"/>
<circle cx="220.185" cy="182.719" r="3.25821"/>
<circle cx="224.909" cy="201.899" r="3.25821"/>
<circle cx="229.634" cy="195.314" r="3.25821"/>
<circle cx="234.358" cy="197.076" r="3.25821"/>
<circle cx="243.807" cy="221.9" r="3.25821"/>
<circle cx="253.256" cy="213.987" r="3.25821"/>
</g>
<g fill="#a6bdd7" fill-opacity="0.50" stroke-opacity="0.50">
<polygon points=" 154.043, 158.291 157.302, 164.808 150.785, 164.808"/>
<polygon points=" 158.768, 171.69 162.026, 178.206 155.51, 178.206"/>
<polygon points=" 163.492, 179.734 166.75, 186.251 160.234, 186.251"/>
<polygon points=" 168.217, 182.24 171.475, 188.756 164.958, 188.756"/>
<polygon points=" 182.39, 245.126 185.648, 251.642 179.132, 251.642"/>
<polygon points=" 187.114, 153.958 190.372, 160.475 183.856, 160.475"/>
<polygon points=" 191.839, 191.159 195.097, 197.676 188.58, 197.676"/>
<polygon points=" 196.563, 212.742 199.821, 219.259 193.305, 219.259"/>
<polygon points=" 201.287, 202.141 204.546, 208.657 198.029, 208.657"/>
<polygon points=" 206.012, 185.118 209.27, 191.634 202.754, 191.634"/>
</g>
<g fill="#a6bdd7">
<circle cx="154.043" cy="153.715" r="3.25821"/>
<circle cx="158.768" cy="167.682" r="3.25821"/>
<circle cx="163.492" cy="176.069" r="3.25821"/>
<circle cx="168.217" cy="178.681" r="3.25821"/>
<circle cx="182.39" cy="244.237" r="3.25821"/>
<circle cx="187.114" cy="149.198" r="3.25821"/>
<circle cx="191.839" cy="187.979" r="3.25821"/>
<circle cx="196.563" cy="210.479" r="3.25821"/>
<circle cx="201.287" cy="199.427" r="3.25821"/>
<circle cx="206.012" cy="181.681" r="3.25821"/>
</g>
<g fill="#803e75" fill-opacity="0.50" stroke-opacity="0.50">
<polygon points=" 79.919, 213.439 86.4354, 213.439 83.1772, 219.955"/>
<polygon points=" 94.0922, 201.431 100.609, 201.431 97.3504, 207.948"/>
<polygon points=" 108.265, 220.147 114.782, 220.147 111.524, 226.663"/>
<polygon points=" 112.99, 212.142 119.506, 212.142 116.248, 218.658"/>
<polygon points=" 117.714, 200.901 124.231, 200.901 120.972, 207.417"/>
<polygon points=" 122.439, 191.145 128.955, 191.145 125.697, 197.661"/>
<polygon points=" 127.163, 193.042 133.679, 193.042 130.421, 199.559"/>
<polygon points=" 131.887, 169.48 138.404, 169.48 135.146, 175.996"/>
<polygon points=" 136.612, 171.306 143.128, 171.306 139.87, 177.822"/>
<polygon points=" 141.336, 180.617 147.853, 180.617 144.594, 187.133"/>
<polygon points=" 146.061, 196.204 152.577, 196.204 149.319, 202.721"/>
</g>
<g fill="#803e75">
<circle cx="83.1772" cy="220.818" r="3.25821"/>
<circle cx="97.3504" cy="209.193" r="3.25821"/>
<circle cx="111.524" cy="227.312" r="3.25821"/>
<circle cx="116.248" cy="219.562" r="3.25821"/>
<circle cx="120.972" cy="208.679" r="3.25821"/>
<circle cx="125.697" cy="199.234" r="3.25821"/>
<circle cx="130.421" cy="201.071" r="3.25821"/>
<circle cx="135.146" cy="178.259" r="3.25821"/>
<circle cx="139.87" cy="180.027" r="3.25821"/>
<circle cx="144.594" cy="189.042" r="3.25821"/>
<circle cx="149.319" cy="204.132" r="3.25821"/>
</g>
<g fill="#ffb300" fill-opacity="0.50" stroke-opacity="0.50">
<polygon points=" 75.1945, 195.982 81.711, 195.982 78.4528, 202.498"/>
<polygon points=" 89.3678, 219.111 95.8842, 219.111 92.626, 225.627"/>
<polygon points=" 103.541, 211.604 110.057, 211.604 106.799, 218.121"/>
</g>
<g fill="#ffb300">
<circle cx="78.4528" cy="214.438" r="3.25821"/>
<circle cx="92.626" cy="235.172" r="3.25821"/>
<circle cx="106.799" cy="228.443" r="3.25821"/>
</g>
<path d="M57.1929,346.022h 453.543" fill="none" stroke="black"/>
<path d="M57.1929,336.795v 9.22726" fill="none" stroke="black"/>
<path d="M66.6417,341.409v 4.61363" fill="none" stroke="black"/>
<path d="M76.0906,341.409v 4.61363" fill="none" stroke="black"/>
<path d="M85.5394,341.409v 4.61363" fill="none" stroke="black"/>
<path d="M94.9882,341.409v 4.61363" fill="none" stroke="black"/>
<path d="M104.437,336.795v 9.22726" fill="none" stroke="black"/>
<path d="M113.886,341.409v 4.61363" fill="none" stroke="black"/>
<path d="M123.335,341.409v 4.61363" fill="none" stroke="black"/>
<path d="M132.783,341.409v 4.61363" fill="none" stroke="black"/>
<path d="M142.232,341.409v 4.61363" fill="none" stroke="black"/>
<path d="M151.681,336.795v 9.22726" fill="none" stroke="black"/>
<path d="M161.13,341.409v 4.61363" fill="none" stroke="black"/>
<path d="M170.579,341.409v 4.61363" fill="none" stroke="black"/>
<path d="M180.028,341.409v 4.61363" fill="none" stroke="black"/>
<path d="M189.476,341.409v 4.61363" fill="none" stroke="black"/>
<path d="M198.925,336.795v 9.22726" fill="none" stroke="black"/>
<path d="M208.374,341.409v 4.61363" fill="none" stroke="black"/>
<path d="M217.823,341.409v 4.61363" fill="none" stroke="black"/>
<path d="M227.272,341.409v 4.61363" fill="none" stroke="black"/>
<path d="M236.72,341.409v 4.61363" fill="none" stroke="black"/>
<path d="M246.169,336.795v 9.22726" fill="none" stroke="black"/>
<path d="M255.618,341.409v 4.61363" fill="none" stroke="black"/>
<path d="M265.067,341.409v 4.61363" fill="none" stroke="black"/>
<path d="M274.516,341.409v 4.61363" fill="none" stroke="black"/>
<path d="M283.965,341.409v 4.61363" fill="none" stroke="black"/>
<path d="M293.413,336.795v 9.22726" fill="none" stroke="black"/>
<path d="M302.862,341.409v 4.61363" fill="none" stroke="black"/>
<path d="M312.311,341.409v 4.61363" fill="none" stroke="black"/>
<path d="M321.76,341.409v 4.61363" fill="none" stroke="black"/>
<path d="M331.209,341.409v 4.61363" fill="none" stroke="black"/>
<path d="M340.657,336.795v 9.22726" fill="none" stroke="black"/>
<path d="M350.106,341.409v 4.61363" fill="none" stroke="black"/>
<path d="M359.555,341.409v 4.61363" fill="none" stroke="black"/>
<path d="M369.004,341.409v 4.61363" fill="none" stroke="black"/>
<path d="M378.453,341.409v 4.61363" fill="none" stroke="black"/>
<path d="M387.902,336.795v 9.22726" fill="none" stroke="black"/>
<path d="M397.35,341.409v 4.61363" fill="none" stroke="black"/>
<path d="M406.799,341.409v 4.61363" fill="none" stroke="black"/>
<path d="M416.248,341.409v 4.61363" fill="none" stroke="black"/>
<path d="M425.697,341.409v 4.61363" fill="none" stroke="black"/>
<path d="M435.146,336.795v 9.22726" fill="none" stroke="black"/>
<path d="M444.594,341.409v 4.61363" fill="none" stroke="black"/>
<path d="M454.043,341.409v 4.61363" fill="none" stroke="black"/>
<path d="M463.492,341.409v 4.61363" fill="none" stroke="black"/>
<path d="M472.941,341.409v 4.61363" fill="none" stroke="black"/>
<path d="M482.39,336.795v 9.22726" fill="none" stroke="black"/>
<path d="M482.39,336.795v 9.22726" fill="none" stroke="black"/>
<path d="M491.839,341.409v 4.61363" fill="none" stroke="black"/>
<path d="M501.287,341.409v 4.61363" fill="none" stroke="black"/>
<path d="M57.1929,346.022v -307.575" fill="none" stroke="black"/>
<path d="M70.7992,346.022h -13.6063" fill="none" stroke="black"/>
<path d="M63.9961,335.77h -6.80315" fill="none" stroke="black"/>
<path d="M63.9961,325.517h -6.80315" fill="none" stroke="black"/>
<path d="M63.9961,315.265h -6.80315" fill="none" stroke="black"/>
<path d="M63.9961,305.012h -6.80315" fill="none" stroke="black"/>
<path d="M70.7992,294.76h -13.6063" fill="none" stroke="black"/>
<path d="M63.9961,284.507h -6.80315" fill="none" stroke="black"/>
<path d="M63.9961,274.255h -6.80315" fill="none" stroke="black"/>
<path d="M63.9961,264.002h -6.80315" fill="none" stroke="black"/>
<path d="M63.9961,253.75h -6.80315" fill="none" stroke="black"/>
<path d="M70.7992,243.497h -13.6063" fill="none" stroke="black"/>
<path d="M63.9961,233.245h -6.80315" fill="none" stroke="black"/>
<path d="M63.9961,222.992h -6.80315" fill="none" stroke="black"/>
<path d="M63.9961,212.74h -6.80315" fill="none" stroke="black"/>
<path d="M63.9961,202.487h -6.80315" fill="none" stroke="black"/>
<path d="M70.7992,192.235h -13.6063" fill="none" stroke="black"/>
<path d="M63.9961,181.982h -6.80315" fill="none" stroke="black"/>
<path d="M63.9961,171.73h -6.80315" fill="none" stroke="black"/>
<path d="M63.9961,161.477h -6.80315" fill="none" stroke="black"/>
<path d="M63.9961,151.225h -6.80315" fill="none" stroke="black"/>
<path d="M70.7992,140.972h -13.6063" fill="none" stroke="black"/>
<path d="M63.9961,130.72h -6.80315" fill="none" stroke="black"/>
<path d="M63.9961,120.467h -6.80315" fill="none" stroke="black"/>
<path d="M63.9961,110.215h -6.80315" fill="none" stroke="black"/>
<path d="M63.9961,99.962h -6.80315" fill="none" stroke="black"/>
<path d="M70.7992,89.7095h -13.6063" fill="none" stroke="black"/>
<path d="M63.9961,79.457h -6.80315" fill="none" stroke="black"/>
<path d="M63.9961,69.2045h -6.80315" fill="none" stroke="black"/>
<path d="M63.9961,58.9519h -6.80315" fill="none" stroke="black"/>
<path d="M63.9961,48.6994h -6.80315" fill="none" stroke="black"/>
<path d="M70.7992,38.4469h -13.6063" fill="none" stroke="black"/>
<text xml:space="preserve" x="252.197" y="18.7347" fill="black" font-size="16.9898" font-family="Helvetica">Sector 6</text></svg>
