<?xml version="1.0" standalone="no"?>
<svg width="567.429" height="384.969" viewBox="0 0 567.429 384.969" xmlns="http://www.w3.org/2000/svg" shape-rendering="crispEdges">
<title>
./new_vop/sector_by_vop/sector-5_vop-69.13.svg
</title>
<desc>
Creator: ROOT Version 6.22/02
CreationDate: Fri Jun 25 18:29:43 2021</desc>
<defs>
</defs>
<rect x="0.5" y="0" width="566.929" height="384.469" fill="white"/>
<rect x="57.1929" y="38.4469" width="453.543" height="307.575" fill="white"/>
<rect x="57.1929" y="38.4469" width="453.543" height="307.575" fill="none" stroke="black"/>
<path d="M57.1929,329.748h 15.1181v 16.2738h 45.3543v -16.2738h 15.1181v 16.2738h 30.2362v -16.2738h 15.1181v -48.8215h 15.1181v -48.8215h 15.1181v -81.3691h 15.1181v -97.643h 15.1181v 32.5477h 15.1181v 48.8215h 15.1181v 65.0953h 15.1181v 81.3691h
 15.1181v 16.2738h 15.1181v 32.5477h 15.1181v 16.2738h 181.417" fill="none" stroke="#c10020"/>
<path d="M59.4606,346.022h 45.3543l 4.53543, -0.0458724l 4.53543, -0.0365643l 4.53543, -0.0627067l 4.53543, -0.105226l 4.53543, -0.17276l 4.53543, -0.277474l 4.53543, -0.435921l 4.53543, -0.669789l 4.53543, -1.00633l 4.53543, -1.47821l 4.53543,
 -2.12244l 4.53543, -2.978l 4.53543, -4.08212l 4.53543, -5.46472l 4.53543, -7.14167l 4.53543, -9.10694l 4.53543, -11.3249l 4.53543, -13.7237l 4.53543, -16.192l 4.53543, -18.5792l 4.53543, -20.7021l 4.53543, -22.357l 4.53543, -23.3379l 4.53543,
 -23.4587l 4.53543, -22.577l 4.53543, -20.6165l 4.53543, -17.584l 4.53543, -13.5775l 4.53543, -8.78393l 4.53543, -3.46583l 4.53543, 2.06244l 4.53543, 7.46542l 4.53543, 12.4203l 4.53543, 16.6487l 4.53543, 19.9426l 4.53543, 22.1807l 4.53543, 23.3333l
 4.53543, 23.457l 4.53543, 22.6792" fill="none" stroke="#c10020" stroke-width="2"/>
<path d="M281.697,224.745l 4.53543, 21.177l 4.53543, 19.1537l 4.53543, 16.8154l 4.53543, 14.352l 4.53543, 11.9233l 4.53543, 9.65086l 4.53543, 7.61642l 4.53543, 5.86431l 4.53543, 4.4074l 4.53543, 3.23466l 4.53543, 2.31905l 4.53543, 1.62463l 4.53543,
 1.11243l 4.53543, 0.744669l 4.53543, 0.487425l 4.53543, 0.312017l 4.53543, 0.195362l 4.53543, 0.11966l 4.53543, 0.0717062l 4.53543, 0.0420442l 4.53543, 0.0533742h 126.992" fill="none" stroke="#c10020" stroke-width="2"/>
<path d="M503.933,346.022h 4.53543" fill="none" stroke="#c10020" stroke-width="2"/>
<path d="M57.1929,346.022h 453.543" fill="none" stroke="black"/>
<path d="M57.1929,336.795v 9.22726" fill="none" stroke="black"/>
<path d="M72.311,341.409v 4.61363" fill="none" stroke="black"/>
<path d="M87.4291,341.409v 4.61363" fill="none" stroke="black"/>
<path d="M102.547,341.409v 4.61363" fill="none" stroke="black"/>
<path d="M117.665,341.409v 4.61363" fill="none" stroke="black"/>
<path d="M132.783,336.795v 9.22726" fill="none" stroke="black"/>
<path d="M147.902,341.409v 4.61363" fill="none" stroke="black"/>
<path d="M163.02,341.409v 4.61363" fill="none" stroke="black"/>
<path d="M178.138,341.409v 4.61363" fill="none" stroke="black"/>
<path d="M193.256,341.409v 4.61363" fill="none" stroke="black"/>
<path d="M208.374,336.795v 9.22726" fill="none" stroke="black"/>
<path d="M223.492,341.409v 4.61363" fill="none" stroke="black"/>
<path d="M238.61,341.409v 4.61363" fill="none" stroke="black"/>
<path d="M253.728,341.409v 4.61363" fill="none" stroke="black"/>
<path d="M268.846,341.409v 4.61363" fill="none" stroke="black"/>
<path d="M283.965,336.795v 9.22726" fill="none" stroke="black"/>
<path d="M299.083,341.409v 4.61363" fill="none" stroke="black"/>
<path d="M314.201,341.409v 4.61363" fill="none" stroke="black"/>
<path d="M329.319,341.409v 4.61363" fill="none" stroke="black"/>
<path d="M344.437,341.409v 4.61363" fill="none" stroke="black"/>
<path d="M359.555,336.795v 9.22726" fill="none" stroke="black"/>
<path d="M374.673,341.409v 4.61363" fill="none" stroke="black"/>
<path d="M389.791,341.409v 4.61363" fill="none" stroke="black"/>
<path d="M404.909,341.409v 4.61363" fill="none" stroke="black"/>
<path d="M420.028,341.409v 4.61363" fill="none" stroke="black"/>
<path d="M435.146,336.795v 9.22726" fill="none" stroke="black"/>
<path d="M450.264,341.409v 4.61363" fill="none" stroke="black"/>
<path d="M465.382,341.409v 4.61363" fill="none" stroke="black"/>
<path d="M480.5,341.409v 4.61363" fill="none" stroke="black"/>
<path d="M495.618,341.409v 4.61363" fill="none" stroke="black"/>
<path d="M510.736,336.795v 9.22726" fill="none" stroke="black"/>
<text xml:space="preserve" x="53.446" y="358.403" fill="black" font-size="12.8453" font-family="Helvetica">0</text>
<text xml:space="preserve" x="121.868" y="358.403" fill="black" font-size="12.8453" font-family="Helvetica">100</text>
<text xml:space="preserve" x="197.622" y="358.403" fill="black" font-size="12.8453" font-family="Helvetica">200</text>
<text xml:space="preserve" x="273.375" y="358.403" fill="black" font-size="12.8453" font-family="Helvetica">300</text>
<text xml:space="preserve" x="348.314" y="358.403" fill="black" font-size="12.8453" font-family="Helvetica">400</text>
<text xml:space="preserve" x="424.068" y="358.403" fill="black" font-size="12.8453" font-family="Helvetica">500</text>
<text xml:space="preserve" x="499.821" y="358.403" fill="black" font-size="12.8453" font-family="Helvetica">600</text>
<text xml:space="preserve" x="486.788" y="369.807" fill="black" font-size="12.8453" font-family="Helvetica">mpv</text>
<path d="M57.1929,346.022v -307.575" fill="none" stroke="black"/>
<path d="M70.7992,346.022h -13.6063" fill="none" stroke="black"/>
<path d="M63.9961,337.885h -6.80315" fill="none" stroke="black"/>
<path d="M63.9961,329.748h -6.80315" fill="none" stroke="black"/>
<path d="M63.9961,321.612h -6.80315" fill="none" stroke="black"/>
<path d="M70.7992,313.475h -13.6063" fill="none" stroke="black"/>
<path d="M63.9961,305.338h -6.80315" fill="none" stroke="black"/>
<path d="M63.9961,297.201h -6.80315" fill="none" stroke="black"/>
<path d="M63.9961,289.064h -6.80315" fill="none" stroke="black"/>
<path d="M70.7992,280.927h -13.6063" fill="none" stroke="black"/>
<path d="M63.9961,272.79h -6.80315" fill="none" stroke="black"/>
<path d="M63.9961,264.653h -6.80315" fill="none" stroke="black"/>
<path d="M63.9961,256.516h -6.80315" fill="none" stroke="black"/>
<path d="M70.7992,248.379h -13.6063" fill="none" stroke="black"/>
<path d="M63.9961,240.242h -6.80315" fill="none" stroke="black"/>
<path d="M63.9961,232.105h -6.80315" fill="none" stroke="black"/>
<path d="M63.9961,223.969h -6.80315" fill="none" stroke="black"/>
<path d="M70.7992,215.832h -13.6063" fill="none" stroke="black"/>
<path d="M63.9961,207.695h -6.80315" fill="none" stroke="black"/>
<path d="M63.9961,199.558h -6.80315" fill="none" stroke="black"/>
<path d="M63.9961,191.421h -6.80315" fill="none" stroke="black"/>
<path d="M70.7992,183.284h -13.6063" fill="none" stroke="black"/>
<path d="M63.9961,175.147h -6.80315" fill="none" stroke="black"/>
<path d="M63.9961,167.01h -6.80315" fill="none" stroke="black"/>
<path d="M63.9961,158.873h -6.80315" fill="none" stroke="black"/>
<path d="M70.7992,150.736h -13.6063" fill="none" stroke="black"/>
<path d="M63.9961,142.599h -6.80315" fill="none" stroke="black"/>
<path d="M63.9961,134.462h -6.80315" fill="none" stroke="black"/>
<path d="M63.9961,126.326h -6.80315" fill="none" stroke="black"/>
<path d="M70.7992,118.189h -13.6063" fill="none" stroke="black"/>
<path d="M63.9961,110.052h -6.80315" fill="none" stroke="black"/>
<path d="M63.9961,101.915h -6.80315" fill="none" stroke="black"/>
<path d="M63.9961,93.7779h -6.80315" fill="none" stroke="black"/>
<path d="M70.7992,85.641h -13.6063" fill="none" stroke="black"/>
<path d="M63.9961,77.5041h -6.80315" fill="none" stroke="black"/>
<path d="M63.9961,69.3672h -6.80315" fill="none" stroke="black"/>
<path d="M63.9961,61.2303h -6.80315" fill="none" stroke="black"/>
<path d="M70.7992,53.0934h -13.6063" fill="none" stroke="black"/>
<path d="M70.7992,53.0934h -13.6063" fill="none" stroke="black"/>
<path d="M63.9961,44.9565h -6.80315" fill="none" stroke="black"/>
<text xml:space="preserve" x="47.7441" y="350.258" fill="black" font-size="12.8453" font-family="Helvetica">0</text>
<text xml:space="preserve" x="47.7441" y="317.676" fill="black" font-size="12.8453" font-family="Helvetica">2</text>
<text xml:space="preserve" x="47.7441" y="285.094" fill="black" font-size="12.8453" font-family="Helvetica">4</text>
<text xml:space="preserve" x="47.7441" y="252.512" fill="black" font-size="12.8453" font-family="Helvetica">6</text>
<text xml:space="preserve" x="47.7441" y="219.929" fill="black" font-size="12.8453" font-family="Helvetica">8</text>
<text xml:space="preserve" x="41.2277" y="188.162" fill="black" font-size="12.8453" font-family="Helvetica">10</text>
<text xml:space="preserve" x="40.4131" y="155.58" fill="black" font-size="12.8453" font-family="Helvetica">12</text>
<text xml:space="preserve" x="40.4131" y="122.998" fill="black" font-size="12.8453" font-family="Helvetica">14</text>
<text xml:space="preserve" x="40.4131" y="90.4154" fill="black" font-size="12.8453" font-family="Helvetica">16</text>
<text xml:space="preserve" x="40.4131" y="57.8333" fill="black" font-size="12.8453" font-family="Helvetica">18</text>
<g transform="rotate(-90,27.3803,86.3427)">
<text xml:space="preserve" x="27.3803" y="86.3427" fill="black" font-size="12.8453" font-family="Helvetica">n_blocks</text>
</g>
<text xml:space="preserve" x="204.138" y="17.9202" fill="black" font-size="18.7938" font-family="Helvetica">sector 5, vop 69.13</text>
<rect x="351.996" y="24.9905" width="204.094" height="76.8938" fill="white"/>
<path d="M351.996,101.884h 204.094" fill="none" stroke="black"/>
<path d="M556.091,101.884v -76.8938" fill="none" stroke="black"/>
<path d="M556.091,24.9905h -204.094" fill="none" stroke="black"/>
<path d="M351.996,24.9905v 76.8938" fill="none" stroke="black"/>
<text xml:space="preserve" x="377.638" y="39.0986" fill="black" font-size="16.7253" font-family="Helvetica"> / ndf </text>
<text xml:space="preserve" x="371.122" y="34.2112" fill="black" font-size="11.3169" font-family="Helvetica">2</text>
<text xml:space="preserve" x="362.162" y="39.0986" fill="black" font-size="16.7253" font-family="Times">&#0967;</text>
<text xml:space="preserve" x="468.868" y="40.7277" fill="black" font-size="16.7253" font-family="Helvetica"> 3.074 / 10</text>
<text xml:space="preserve" x="362.162" y="60.2769" fill="black" font-size="16.7253" font-family="Helvetica">Constant </text>
<text xml:space="preserve" x="509.596" y="60.2769" fill="black" font-size="16.7253" font-family="Helvetica"> 2.32</text>
<text xml:space="preserve" x="500.636" y="60.2769" fill="black" font-size="16.7253" font-family="Times">&#0177;</text>
<text xml:space="preserve" x="450.133" y="60.2769" fill="black" font-size="16.7253" font-family="Helvetica"> 16.68 </text>
<text xml:space="preserve" x="362.162" y="79.0117" fill="black" font-size="16.7253" font-family="Helvetica">Mean     </text>
<text xml:space="preserve" x="518.556" y="79.0117" fill="black" font-size="16.7253" font-family="Helvetica"> 4.7</text>
<text xml:space="preserve" x="509.596" y="79.0117" fill="black" font-size="16.7253" font-family="Times">&#0177;</text>
<text xml:space="preserve" x="459.094" y="79.0117" fill="black" font-size="16.7253" font-family="Helvetica"> 243.8 </text>
<text xml:space="preserve" x="362.162" y="96.9318" fill="black" font-size="16.7253" font-family="Helvetica">Sigma    </text>
<text xml:space="preserve" x="509.596" y="98.561" fill="black" font-size="16.7253" font-family="Helvetica"> 3.98</text>
<text xml:space="preserve" x="500.636" y="98.561" fill="black" font-size="16.7253" font-family="Times">&#0177;</text>
<text xml:space="preserve" x="450.133" y="98.561" fill="black" font-size="16.7253" font-family="Helvetica"> 41.93 </text>
<path d="M64.752,346.022v -16.2738" fill="none" stroke="#c10020"/>
<path d="M64.752,329.748v -16.2738" fill="none" stroke="#c10020"/>
<path d="M57.1929,329.748h 7.55905" fill="none" stroke="#c10020"/>
<path d="M64.752,329.748h 7.55905" fill="none" stroke="#c10020"/>
<g stroke="black" stroke-width="1" fill="none">
<line x1="63.752" y1="329.748" x2="64.752" y2="329.748"/>
</g>
<g stroke="black" stroke-width="1" fill="none">
<line x1="78.8701" y1="346.022" x2="79.8701" y2="346.022"/>
</g>
<g stroke="black" stroke-width="1" fill="none">
<line x1="93.9882" y1="346.022" x2="94.9882" y2="346.022"/>
</g>
<g stroke="black" stroke-width="1" fill="none">
<line x1="109.106" y1="346.022" x2="110.106" y2="346.022"/>
</g>
<path d="M125.224,346.022v -16.2738" fill="none" stroke="#c10020"/>
<path d="M125.224,329.748v -16.2738" fill="none" stroke="#c10020"/>
<path d="M117.665,329.748h 7.55905" fill="none" stroke="#c10020"/>
<path d="M125.224,329.748h 7.55905" fill="none" stroke="#c10020"/>
<g stroke="black" stroke-width="1" fill="none">
<line x1="124.224" y1="329.748" x2="125.224" y2="329.748"/>
</g>
<g stroke="black" stroke-width="1" fill="none">
<line x1="139.343" y1="346.022" x2="140.343" y2="346.022"/>
</g>
<g stroke="black" stroke-width="1" fill="none">
<line x1="154.461" y1="346.022" x2="155.461" y2="346.022"/>
</g>
<path d="M170.579,346.022v -16.2738" fill="none" stroke="#c10020"/>
<path d="M170.579,329.748v -16.2738" fill="none" stroke="#c10020"/>
<path d="M163.02,329.748h 7.55905" fill="none" stroke="#c10020"/>
<path d="M170.579,329.748h 7.55905" fill="none" stroke="#c10020"/>
<g stroke="black" stroke-width="1" fill="none">
<line x1="169.579" y1="329.748" x2="170.579" y2="329.748"/>
</g>
<path d="M185.697,313.475v -32.5477" fill="none" stroke="#c10020"/>
<path d="M185.697,280.927v -32.5477" fill="none" stroke="#c10020"/>
<path d="M178.138,280.927h 7.55905" fill="none" stroke="#c10020"/>
<path d="M185.697,280.927h 7.55905" fill="none" stroke="#c10020"/>
<g stroke="black" stroke-width="1" fill="none">
<line x1="184.697" y1="280.927" x2="185.697" y2="280.927"/>
</g>
<path d="M200.815,275.162v -43.0565" fill="none" stroke="#c10020"/>
<path d="M200.815,232.105v -43.0565" fill="none" stroke="#c10020"/>
<path d="M193.256,232.105h 7.55905" fill="none" stroke="#c10020"/>
<path d="M200.815,232.105h 7.55905" fill="none" stroke="#c10020"/>
<g stroke="black" stroke-width="1" fill="none">
<line x1="199.815" y1="232.105" x2="200.815" y2="232.105"/>
</g>
<path d="M215.933,207.111v -56.3742" fill="none" stroke="#c10020"/>
<path d="M215.933,150.736v -56.3742" fill="none" stroke="#c10020"/>
<path d="M208.374,150.736h 7.55905" fill="none" stroke="#c10020"/>
<path d="M215.933,150.736h 7.55905" fill="none" stroke="#c10020"/>
<g stroke="black" stroke-width="1" fill="none">
<line x1="214.933" y1="150.736" x2="215.933" y2="150.736"/>
</g>
<path d="M231.051,122.137v -69.044" fill="none" stroke="#c10020"/>
<path d="M231.051,53.0934v -14.6464" fill="none" stroke="#c10020"/>
<path d="M223.492,53.0934h 7.55905" fill="none" stroke="#c10020"/>
<path d="M231.051,53.0934h 7.55905" fill="none" stroke="#c10020"/>
<g stroke="black" stroke-width="1" fill="none">
<line x1="230.051" y1="53.0934" x2="231.051" y2="53.0934"/>
</g>
<path d="M246.169,150.736v -65.0953" fill="none" stroke="#c10020"/>
<path d="M246.169,85.641v -47.1941" fill="none" stroke="#c10020"/>
<path d="M238.61,85.641h 7.55905" fill="none" stroke="#c10020"/>
<path d="M246.169,85.641h 7.55905" fill="none" stroke="#c10020"/>
<g stroke="black" stroke-width="1" fill="none">
<line x1="245.169" y1="85.641" x2="246.169" y2="85.641"/>
</g>
<path d="M261.287,193.139v -58.6761" fill="none" stroke="#c10020"/>
<path d="M261.287,134.462v -58.6761" fill="none" stroke="#c10020"/>
<path d="M253.728,134.462h 7.55905" fill="none" stroke="#c10020"/>
<path d="M261.287,134.462h 7.55905" fill="none" stroke="#c10020"/>
<g stroke="black" stroke-width="1" fill="none">
<line x1="260.287" y1="134.462" x2="261.287" y2="134.462"/>
</g>
<path d="M276.406,248.379v -48.8215" fill="none" stroke="#c10020"/>
<path d="M276.406,199.558v -48.8215" fill="none" stroke="#c10020"/>
<path d="M268.846,199.558h 7.55905" fill="none" stroke="#c10020"/>
<path d="M276.406,199.558h 7.55905" fill="none" stroke="#c10020"/>
<g stroke="black" stroke-width="1" fill="none">
<line x1="275.406" y1="199.558" x2="276.406" y2="199.558"/>
</g>
<path d="M291.524,313.475v -32.5477" fill="none" stroke="#c10020"/>
<path d="M291.524,280.927v -32.5477" fill="none" stroke="#c10020"/>
<path d="M283.965,280.927h 7.55905" fill="none" stroke="#c10020"/>
<path d="M291.524,280.927h 7.55905" fill="none" stroke="#c10020"/>
<g stroke="black" stroke-width="1" fill="none">
<line x1="290.524" y1="280.927" x2="291.524" y2="280.927"/>
</g>
<path d="M306.642,325.388v -28.1871" fill="none" stroke="#c10020"/>
<path d="M306.642,297.201v -28.1871" fill="none" stroke="#c10020"/>
<path d="M299.083,297.201h 7.55905" fill="none" stroke="#c10020"/>
<path d="M306.642,297.201h 7.55905" fill="none" stroke="#c10020"/>
<g stroke="black" stroke-width="1" fill="none">
<line x1="305.642" y1="297.201" x2="306.642" y2="297.201"/>
</g>
<path d="M321.76,346.022v -16.2738" fill="none" stroke="#c10020"/>
<path d="M321.76,329.748v -16.2738" fill="none" stroke="#c10020"/>
<path d="M314.201,329.748h 7.55905" fill="none" stroke="#c10020"/>
<path d="M321.76,329.748h 7.55905" fill="none" stroke="#c10020"/>
<g stroke="black" stroke-width="1" fill="none">
<line x1="320.76" y1="329.748" x2="321.76" y2="329.748"/>
</g>
<g stroke="black" stroke-width="1" fill="none">
<line x1="335.878" y1="346.022" x2="336.878" y2="346.022"/>
</g>
<g stroke="black" stroke-width="1" fill="none">
<line x1="350.996" y1="346.022" x2="351.996" y2="346.022"/>
</g>
<g stroke="black" stroke-width="1" fill="none">
<line x1="366.114" y1="346.022" x2="367.114" y2="346.022"/>
</g>
<g stroke="black" stroke-width="1" fill="none">
<line x1="381.232" y1="346.022" x2="382.232" y2="346.022"/>
</g>
<g stroke="black" stroke-width="1" fill="none">
<line x1="396.35" y1="346.022" x2="397.35" y2="346.022"/>
</g>
<g stroke="black" stroke-width="1" fill="none">
<line x1="411.469" y1="346.022" x2="412.469" y2="346.022"/>
</g>
<g stroke="black" stroke-width="1" fill="none">
<line x1="426.587" y1="346.022" x2="427.587" y2="346.022"/>
</g>
<g stroke="black" stroke-width="1" fill="none">
<line x1="441.705" y1="346.022" x2="442.705" y2="346.022"/>
</g>
<g stroke="black" stroke-width="1" fill="none">
<line x1="456.823" y1="346.022" x2="457.823" y2="346.022"/>
</g>
<g stroke="black" stroke-width="1" fill="none">
<line x1="471.941" y1="346.022" x2="472.941" y2="346.022"/>
</g>
<g stroke="black" stroke-width="1" fill="none">
<line x1="487.059" y1="346.022" x2="488.059" y2="346.022"/>
</g>
<g stroke="black" stroke-width="1" fill="none">
<line x1="502.177" y1="346.022" x2="503.177" y2="346.022"/>
</g>
<path d="M59.4606,346.022h 45.3543l 4.53543, -0.0458724l 4.53543, -0.0365643l 4.53543, -0.0627067l 4.53543, -0.105226l 4.53543, -0.17276l 4.53543, -0.277474l 4.53543, -0.435921l 4.53543, -0.669789l 4.53543, -1.00633l 4.53543, -1.47821l 4.53543,
 -2.12244l 4.53543, -2.978l 4.53543, -4.08212l 4.53543, -5.46472l 4.53543, -7.14167l 4.53543, -9.10694l 4.53543, -11.3249l 4.53543, -13.7237l 4.53543, -16.192l 4.53543, -18.5792l 4.53543, -20.7021l 4.53543, -22.357l 4.53543, -23.3379l 4.53543,
 -23.4587l 4.53543, -22.577l 4.53543, -20.6165l 4.53543, -17.584l 4.53543, -13.5775l 4.53543, -8.78393l 4.53543, -3.46583l 4.53543, 2.06244l 4.53543, 7.46542l 4.53543, 12.4203l 4.53543, 16.6487l 4.53543, 19.9426l 4.53543, 22.1807l 4.53543, 23.3333l
 4.53543, 23.457l 4.53543, 22.6792" fill="none" stroke="#c10020" stroke-width="2"/>
<path d="M281.697,224.745l 4.53543, 21.177l 4.53543, 19.1537l 4.53543, 16.8154l 4.53543, 14.352l 4.53543, 11.9233l 4.53543, 9.65086l 4.53543, 7.61642l 4.53543, 5.86431l 4.53543, 4.4074l 4.53543, 3.23466l 4.53543, 2.31905l 4.53543, 1.62463l 4.53543,
 1.11243l 4.53543, 0.744669l 4.53543, 0.487425l 4.53543, 0.312017l 4.53543, 0.195362l 4.53543, 0.11966l 4.53543, 0.0717062l 4.53543, 0.0420442l 4.53543, 0.0533742h 126.992" fill="none" stroke="#c10020" stroke-width="2"/>
<path d="M503.933,346.022h 4.53543" fill="none" stroke="#c10020" stroke-width="2"/>
<rect x="351.996" y="24.9905" width="204.094" height="76.8938" fill="white"/>
<path d="M351.996,101.884h 204.094" fill="none" stroke="black"/>
<path d="M556.091,101.884v -76.8938" fill="none" stroke="black"/>
<path d="M556.091,24.9905h -204.094" fill="none" stroke="black"/>
<path d="M351.996,24.9905v 76.8938" fill="none" stroke="black"/>
<text xml:space="preserve" x="377.638" y="39.0986" fill="black" font-size="16.7253" font-family="Helvetica"> / ndf </text>
<text xml:space="preserve" x="371.122" y="34.2112" fill="black" font-size="11.3169" font-family="Helvetica">2</text>
<text xml:space="preserve" x="362.162" y="39.0986" fill="black" font-size="16.7253" font-family="Times">&#0967;</text>
<text xml:space="preserve" x="468.868" y="40.7277" fill="black" font-size="16.7253" font-family="Helvetica"> 3.074 / 10</text>
<text xml:space="preserve" x="362.162" y="60.2769" fill="black" font-size="16.7253" font-family="Helvetica">Constant </text>
<text xml:space="preserve" x="509.596" y="60.2769" fill="black" font-size="16.7253" font-family="Helvetica"> 2.32</text>
<text xml:space="preserve" x="500.636" y="60.2769" fill="black" font-size="16.7253" font-family="Times">&#0177;</text>
<text xml:space="preserve" x="450.133" y="60.2769" fill="black" font-size="16.7253" font-family="Helvetica"> 16.68 </text>
<text xml:space="preserve" x="362.162" y="79.0117" fill="black" font-size="16.7253" font-family="Helvetica">Mean     </text>
<text xml:space="preserve" x="518.556" y="79.0117" fill="black" font-size="16.7253" font-family="Helvetica"> 4.7</text>
<text xml:space="preserve" x="509.596" y="79.0117" fill="black" font-size="16.7253" font-family="Times">&#0177;</text>
<text xml:space="preserve" x="459.094" y="79.0117" fill="black" font-size="16.7253" font-family="Helvetica"> 243.8 </text>
<text xml:space="preserve" x="362.162" y="96.9318" fill="black" font-size="16.7253" font-family="Helvetica">Sigma    </text>
<text xml:space="preserve" x="509.596" y="98.561" fill="black" font-size="16.7253" font-family="Helvetica"> 3.98</text>
<text xml:space="preserve" x="500.636" y="98.561" fill="black" font-size="16.7253" font-family="Times">&#0177;</text>
<text xml:space="preserve" x="450.133" y="98.561" fill="black" font-size="16.7253" font-family="Helvetica"> 41.93 </text>
<text xml:space="preserve" x="204.138" y="17.9202" fill="black" font-size="18.7938" font-family="Helvetica">sector 5, vop 69.13</text></svg>
