<?xml version="1.0" standalone="no"?>
<svg width="567.429" height="384.969" viewBox="0 0 567.429 384.969" xmlns="http://www.w3.org/2000/svg" shape-rendering="crispEdges">
<title>
./new_vop/sector_by_vop/sector-17_all.svg
</title>
<desc>
Creator: ROOT Version 6.24/00
CreationDate: Wed Jun 16 22:06:16 2021</desc>
<defs>
</defs>
<rect x="0.5" y="0" width="566.929" height="384.469" fill="white"/>
<rect x="57.1929" y="38.4469" width="453.543" height="307.575" fill="white"/>
<rect x="57.1929" y="38.4469" width="453.543" height="307.575" fill="none" stroke="black"/>
<path d="M57.1929,346.022h 453.543" fill="none" stroke="#000099"/>
<path d="M57.1929,346.022h 453.543" fill="none" stroke="black"/>
<path d="M57.1929,336.795v 9.22726" fill="none" stroke="black"/>
<path d="M72.311,341.409v 4.61363" fill="none" stroke="black"/>
<path d="M87.4291,341.409v 4.61363" fill="none" stroke="black"/>
<path d="M102.547,341.409v 4.61363" fill="none" stroke="black"/>
<path d="M117.665,341.409v 4.61363" fill="none" stroke="black"/>
<path d="M132.783,336.795v 9.22726" fill="none" stroke="black"/>
<path d="M147.902,341.409v 4.61363" fill="none" stroke="black"/>
<path d="M163.02,341.409v 4.61363" fill="none" stroke="black"/>
<path d="M178.138,341.409v 4.61363" fill="none" stroke="black"/>
<path d="M193.256,341.409v 4.61363" fill="none" stroke="black"/>
<path d="M208.374,336.795v 9.22726" fill="none" stroke="black"/>
<path d="M223.492,341.409v 4.61363" fill="none" stroke="black"/>
<path d="M238.61,341.409v 4.61363" fill="none" stroke="black"/>
<path d="M253.728,341.409v 4.61363" fill="none" stroke="black"/>
<path d="M268.846,341.409v 4.61363" fill="none" stroke="black"/>
<path d="M283.965,336.795v 9.22726" fill="none" stroke="black"/>
<path d="M299.083,341.409v 4.61363" fill="none" stroke="black"/>
<path d="M314.201,341.409v 4.61363" fill="none" stroke="black"/>
<path d="M329.319,341.409v 4.61363" fill="none" stroke="black"/>
<path d="M344.437,341.409v 4.61363" fill="none" stroke="black"/>
<path d="M359.555,336.795v 9.22726" fill="none" stroke="black"/>
<path d="M374.673,341.409v 4.61363" fill="none" stroke="black"/>
<path d="M389.791,341.409v 4.61363" fill="none" stroke="black"/>
<path d="M404.909,341.409v 4.61363" fill="none" stroke="black"/>
<path d="M420.028,341.409v 4.61363" fill="none" stroke="black"/>
<path d="M435.146,336.795v 9.22726" fill="none" stroke="black"/>
<path d="M450.264,341.409v 4.61363" fill="none" stroke="black"/>
<path d="M465.382,341.409v 4.61363" fill="none" stroke="black"/>
<path d="M480.5,341.409v 4.61363" fill="none" stroke="black"/>
<path d="M495.618,341.409v 4.61363" fill="none" stroke="black"/>
<path d="M510.736,336.795v 9.22726" fill="none" stroke="black"/>
<text xml:space="preserve" x="53.446" y="358.403" fill="black" font-size="12.8453" font-family="Helvetica">0</text>
<text xml:space="preserve" x="121.868" y="358.403" fill="black" font-size="12.8453" font-family="Helvetica">100</text>
<text xml:space="preserve" x="197.622" y="358.403" fill="black" font-size="12.8453" font-family="Helvetica">200</text>
<text xml:space="preserve" x="273.375" y="358.403" fill="black" font-size="12.8453" font-family="Helvetica">300</text>
<text xml:space="preserve" x="348.314" y="358.403" fill="black" font-size="12.8453" font-family="Helvetica">400</text>
<text xml:space="preserve" x="424.068" y="358.403" fill="black" font-size="12.8453" font-family="Helvetica">500</text>
<text xml:space="preserve" x="499.821" y="358.403" fill="black" font-size="12.8453" font-family="Helvetica">600</text>
<text xml:space="preserve" x="486.788" y="369.807" fill="black" font-size="12.8453" font-family="Helvetica">mpv</text>
<path d="M57.1929,346.022v -307.575" fill="none" stroke="black"/>
<path d="M70.7992,346.022h -13.6063" fill="none" stroke="black"/>
<path d="M63.9961,339.654h -6.80315" fill="none" stroke="black"/>
<path d="M63.9961,333.286h -6.80315" fill="none" stroke="black"/>
<path d="M63.9961,326.918h -6.80315" fill="none" stroke="black"/>
<path d="M70.7992,320.55h -13.6063" fill="none" stroke="black"/>
<path d="M63.9961,314.182h -6.80315" fill="none" stroke="black"/>
<path d="M63.9961,307.814h -6.80315" fill="none" stroke="black"/>
<path d="M63.9961,301.446h -6.80315" fill="none" stroke="black"/>
<path d="M70.7992,295.078h -13.6063" fill="none" stroke="black"/>
<path d="M63.9961,288.71h -6.80315" fill="none" stroke="black"/>
<path d="M63.9961,282.342h -6.80315" fill="none" stroke="black"/>
<path d="M63.9961,275.974h -6.80315" fill="none" stroke="black"/>
<path d="M70.7992,269.606h -13.6063" fill="none" stroke="black"/>
<path d="M63.9961,263.238h -6.80315" fill="none" stroke="black"/>
<path d="M63.9961,256.87h -6.80315" fill="none" stroke="black"/>
<path d="M63.9961,250.502h -6.80315" fill="none" stroke="black"/>
<path d="M70.7992,244.134h -13.6063" fill="none" stroke="black"/>
<path d="M63.9961,237.766h -6.80315" fill="none" stroke="black"/>
<path d="M63.9961,231.398h -6.80315" fill="none" stroke="black"/>
<path d="M63.9961,225.03h -6.80315" fill="none" stroke="black"/>
<path d="M70.7992,218.662h -13.6063" fill="none" stroke="black"/>
<path d="M63.9961,212.294h -6.80315" fill="none" stroke="black"/>
<path d="M63.9961,205.926h -6.80315" fill="none" stroke="black"/>
<path d="M63.9961,199.558h -6.80315" fill="none" stroke="black"/>
<path d="M70.7992,193.19h -13.6063" fill="none" stroke="black"/>
<path d="M63.9961,186.822h -6.80315" fill="none" stroke="black"/>
<path d="M63.9961,180.454h -6.80315" fill="none" stroke="black"/>
<path d="M63.9961,174.086h -6.80315" fill="none" stroke="black"/>
<path d="M70.7992,167.718h -13.6063" fill="none" stroke="black"/>
<path d="M63.9961,161.35h -6.80315" fill="none" stroke="black"/>
<path d="M63.9961,154.982h -6.80315" fill="none" stroke="black"/>
<path d="M63.9961,148.614h -6.80315" fill="none" stroke="black"/>
<path d="M70.7992,142.246h -13.6063" fill="none" stroke="black"/>
<path d="M63.9961,135.878h -6.80315" fill="none" stroke="black"/>
<path d="M63.9961,129.51h -6.80315" fill="none" stroke="black"/>
<path d="M63.9961,123.142h -6.80315" fill="none" stroke="black"/>
<path d="M70.7992,116.774h -13.6063" fill="none" stroke="black"/>
<path d="M63.9961,110.406h -6.80315" fill="none" stroke="black"/>
<path d="M63.9961,104.038h -6.80315" fill="none" stroke="black"/>
<path d="M63.9961,97.6695h -6.80315" fill="none" stroke="black"/>
<path d="M70.7992,91.3015h -13.6063" fill="none" stroke="black"/>
<path d="M63.9961,84.9335h -6.80315" fill="none" stroke="black"/>
<path d="M63.9961,78.5654h -6.80315" fill="none" stroke="black"/>
<path d="M63.9961,72.1974h -6.80315" fill="none" stroke="black"/>
<path d="M70.7992,65.8294h -13.6063" fill="none" stroke="black"/>
<path d="M63.9961,59.4614h -6.80315" fill="none" stroke="black"/>
<path d="M63.9961,53.0934h -6.80315" fill="none" stroke="black"/>
<path d="M63.9961,46.7253h -6.80315" fill="none" stroke="black"/>
<path d="M70.7992,40.3573h -13.6063" fill="none" stroke="black"/>
<path d="M70.7992,40.3573h -13.6063" fill="none" stroke="black"/>
<text xml:space="preserve" x="47.7441" y="350.258" fill="black" font-size="12.8453" font-family="Helvetica">0</text>
<text xml:space="preserve" x="47.7441" y="325.007" fill="black" font-size="12.8453" font-family="Helvetica">2</text>
<text xml:space="preserve" x="47.7441" y="299.756" fill="black" font-size="12.8453" font-family="Helvetica">4</text>
<text xml:space="preserve" x="47.7441" y="273.69" fill="black" font-size="12.8453" font-family="Helvetica">6</text>
<text xml:space="preserve" x="47.7441" y="248.439" fill="black" font-size="12.8453" font-family="Helvetica">8</text>
<text xml:space="preserve" x="41.2277" y="223.188" fill="black" font-size="12.8453" font-family="Helvetica">10</text>
<text xml:space="preserve" x="40.4131" y="197.936" fill="black" font-size="12.8453" font-family="Helvetica">12</text>
<text xml:space="preserve" x="40.4131" y="171.871" fill="black" font-size="12.8453" font-family="Helvetica">14</text>
<text xml:space="preserve" x="40.4131" y="146.62" fill="black" font-size="12.8453" font-family="Helvetica">16</text>
<text xml:space="preserve" x="40.4131" y="121.368" fill="black" font-size="12.8453" font-family="Helvetica">18</text>
<text xml:space="preserve" x="41.2277" y="96.1173" fill="black" font-size="12.8453" font-family="Helvetica">20</text>
<text xml:space="preserve" x="40.4131" y="70.0516" fill="black" font-size="12.8453" font-family="Helvetica">22</text>
<text xml:space="preserve" x="40.4131" y="44.8004" fill="black" font-size="12.8453" font-family="Helvetica">24</text>
<g transform="rotate(-90,27.3803,86.3427)">
<text xml:space="preserve" x="27.3803" y="86.3427" fill="black" font-size="12.8453" font-family="Helvetica">n_blocks</text>
</g>
<text xml:space="preserve" x="248.939" y="18.7347" fill="black" font-size="16.9898" font-family="Helvetica">sector 17</text>
<rect x="57.6465" y="346.022" width="14.211" height="0" fill="#ffb300" fill-opacity="0.50" stroke-opacity="0.50"/>
<rect x="72.7646" y="346.022" width="14.211" height="0" fill="#ffb300" fill-opacity="0.50" stroke-opacity="0.50"/>
<rect x="87.8827" y="346.022" width="14.211" height="0" fill="#ffb300" fill-opacity="0.50" stroke-opacity="0.50"/>
<rect x="103.001" y="346.022" width="14.211" height="0" fill="#ffb300" fill-opacity="0.50" stroke-opacity="0.50"/>
<rect x="118.119" y="346.022" width="14.211" height="0" fill="#ffb300" fill-opacity="0.50" stroke-opacity="0.50"/>
<rect x="133.237" y="346.022" width="14.211" height="0" fill="#ffb300" fill-opacity="0.50" stroke-opacity="0.50"/>
<rect x="148.355" y="346.022" width="14.211" height="0" fill="#ffb300" fill-opacity="0.50" stroke-opacity="0.50"/>
<rect x="163.473" y="346.022" width="14.211" height="0" fill="#ffb300" fill-opacity="0.50" stroke-opacity="0.50"/>
<rect x="178.591" y="346.022" width="14.211" height="0" fill="#ffb300" fill-opacity="0.50" stroke-opacity="0.50"/>
<rect x="193.709" y="346.022" width="14.211" height="0" fill="#ffb300" fill-opacity="0.50" stroke-opacity="0.50"/>
<rect x="208.828" y="346.022" width="14.211" height="0" fill="#ffb300" fill-opacity="0.50" stroke-opacity="0.50"/>
<rect x="223.946" y="346.022" width="14.211" height="0" fill="#ffb300" fill-opacity="0.50" stroke-opacity="0.50"/>
<rect x="239.064" y="295.078" width="14.211" height="50.9442" fill="#ffb300" fill-opacity="0.50" stroke-opacity="0.50"/>
<rect x="254.182" y="295.078" width="14.211" height="50.9442" fill="#ffb300" fill-opacity="0.50" stroke-opacity="0.50"/>
<rect x="269.3" y="167.718" width="14.211" height="178.305" fill="#ffb300" fill-opacity="0.50" stroke-opacity="0.50"/>
<rect x="284.418" y="167.718" width="14.211" height="178.305" fill="#ffb300" fill-opacity="0.50" stroke-opacity="0.50"/>
<rect x="299.536" y="53.0934" width="14.211" height="292.929" fill="#ffb300" fill-opacity="0.50" stroke-opacity="0.50"/>
<rect x="314.654" y="256.87" width="14.211" height="89.1523" fill="#ffb300" fill-opacity="0.50" stroke-opacity="0.50"/>
<rect x="329.772" y="320.55" width="14.211" height="25.4721" fill="#ffb300" fill-opacity="0.50" stroke-opacity="0.50"/>
<rect x="344.891" y="346.022" width="14.211" height="0" fill="#ffb300" fill-opacity="0.50" stroke-opacity="0.50"/>
<rect x="360.009" y="346.022" width="14.211" height="0" fill="#ffb300" fill-opacity="0.50" stroke-opacity="0.50"/>
<rect x="375.127" y="346.022" width="14.211" height="0" fill="#ffb300" fill-opacity="0.50" stroke-opacity="0.50"/>
<rect x="390.245" y="346.022" width="14.211" height="0" fill="#ffb300" fill-opacity="0.50" stroke-opacity="0.50"/>
<rect x="405.363" y="346.022" width="14.211" height="0" fill="#ffb300" fill-opacity="0.50" stroke-opacity="0.50"/>
<rect x="420.481" y="333.286" width="14.211" height="12.736" fill="#ffb300" fill-opacity="0.50" stroke-opacity="0.50"/>
<rect x="435.599" y="346.022" width="14.211" height="0" fill="#ffb300" fill-opacity="0.50" stroke-opacity="0.50"/>
<rect x="450.717" y="346.022" width="14.211" height="0" fill="#ffb300" fill-opacity="0.50" stroke-opacity="0.50"/>
<rect x="465.835" y="346.022" width="14.211" height="0" fill="#ffb300" fill-opacity="0.50" stroke-opacity="0.50"/>
<rect x="480.954" y="346.022" width="14.211" height="0" fill="#ffb300" fill-opacity="0.50" stroke-opacity="0.50"/>
<rect x="496.072" y="346.022" width="14.211" height="0" fill="#ffb300" fill-opacity="0.50" stroke-opacity="0.50"/>
<path d="M59.4606,346.022h 145.134l 4.53543, -0.0600122l 4.53543, -0.080321l 4.53543, -0.17301l 4.53543, -0.35472l 4.53543, -0.691983l 4.53543, -1.28375l 4.53543, -2.26349l 4.53543, -3.79018l 4.53543, -6.02167l 4.53543, -9.06626l 4.53543, -12.9155l
 4.53543, -17.3723l 4.53543, -21.9989l 4.53543, -26.1176l 4.53543, -28.8875l 4.53543, -29.4637l 4.53543, -27.2102" fill="none" stroke="#ffb300" stroke-width="2"/>
<path d="M281.697,158.271l 4.53543, -21.9099l 4.53543, -13.8976l 4.53543, -4.05774l 4.53543, 6.33037l 4.53543, 15.866l 4.53543, 23.3368l 4.53543, 27.9715l 4.53543, 29.5629l 4.53543, 28.4358l 4.53543, 25.2918l 4.53543, 20.9921l 4.53543, 16.3525l
 4.53543, 12.0013l 4.53543, 8.32075l 4.53543, 5.46053l 4.53543, 3.39694l 4.53543, 2.00547l 4.53543, 1.12463l 4.53543, 0.59948l 4.53543, 0.303926l 4.53543, 0.146622l 4.53543, 0.0673349l 4.53543, 0.0494227h 117.921" fill="none" stroke="#ffb300"
 stroke-width="2"/>
<path d="M503.933,346.022h 4.53543" fill="none" stroke="#ffb300" stroke-width="2"/>
<path d="M57.1929,346.022h 453.543" fill="none" stroke="black"/>
<path d="M57.1929,336.795v 9.22726" fill="none" stroke="black"/>
<path d="M72.311,341.409v 4.61363" fill="none" stroke="black"/>
<path d="M87.4291,341.409v 4.61363" fill="none" stroke="black"/>
<path d="M102.547,341.409v 4.61363" fill="none" stroke="black"/>
<path d="M117.665,341.409v 4.61363" fill="none" stroke="black"/>
<path d="M132.783,336.795v 9.22726" fill="none" stroke="black"/>
<path d="M147.902,341.409v 4.61363" fill="none" stroke="black"/>
<path d="M163.02,341.409v 4.61363" fill="none" stroke="black"/>
<path d="M178.138,341.409v 4.61363" fill="none" stroke="black"/>
<path d="M193.256,341.409v 4.61363" fill="none" stroke="black"/>
<path d="M208.374,336.795v 9.22726" fill="none" stroke="black"/>
<path d="M223.492,341.409v 4.61363" fill="none" stroke="black"/>
<path d="M238.61,341.409v 4.61363" fill="none" stroke="black"/>
<path d="M253.728,341.409v 4.61363" fill="none" stroke="black"/>
<path d="M268.846,341.409v 4.61363" fill="none" stroke="black"/>
<path d="M283.965,336.795v 9.22726" fill="none" stroke="black"/>
<path d="M299.083,341.409v 4.61363" fill="none" stroke="black"/>
<path d="M314.201,341.409v 4.61363" fill="none" stroke="black"/>
<path d="M329.319,341.409v 4.61363" fill="none" stroke="black"/>
<path d="M344.437,341.409v 4.61363" fill="none" stroke="black"/>
<path d="M359.555,336.795v 9.22726" fill="none" stroke="black"/>
<path d="M374.673,341.409v 4.61363" fill="none" stroke="black"/>
<path d="M389.791,341.409v 4.61363" fill="none" stroke="black"/>
<path d="M404.909,341.409v 4.61363" fill="none" stroke="black"/>
<path d="M420.028,341.409v 4.61363" fill="none" stroke="black"/>
<path d="M435.146,336.795v 9.22726" fill="none" stroke="black"/>
<path d="M450.264,341.409v 4.61363" fill="none" stroke="black"/>
<path d="M465.382,341.409v 4.61363" fill="none" stroke="black"/>
<path d="M480.5,341.409v 4.61363" fill="none" stroke="black"/>
<path d="M495.618,341.409v 4.61363" fill="none" stroke="black"/>
<path d="M510.736,336.795v 9.22726" fill="none" stroke="black"/>
<path d="M57.1929,346.022v -307.575" fill="none" stroke="black"/>
<path d="M70.7992,346.022h -13.6063" fill="none" stroke="black"/>
<path d="M63.9961,339.654h -6.80315" fill="none" stroke="black"/>
<path d="M63.9961,333.286h -6.80315" fill="none" stroke="black"/>
<path d="M63.9961,326.918h -6.80315" fill="none" stroke="black"/>
<path d="M70.7992,320.55h -13.6063" fill="none" stroke="black"/>
<path d="M63.9961,314.182h -6.80315" fill="none" stroke="black"/>
<path d="M63.9961,307.814h -6.80315" fill="none" stroke="black"/>
<path d="M63.9961,301.446h -6.80315" fill="none" stroke="black"/>
<path d="M70.7992,295.078h -13.6063" fill="none" stroke="black"/>
<path d="M63.9961,288.71h -6.80315" fill="none" stroke="black"/>
<path d="M63.9961,282.342h -6.80315" fill="none" stroke="black"/>
<path d="M63.9961,275.974h -6.80315" fill="none" stroke="black"/>
<path d="M70.7992,269.606h -13.6063" fill="none" stroke="black"/>
<path d="M63.9961,263.238h -6.80315" fill="none" stroke="black"/>
<path d="M63.9961,256.87h -6.80315" fill="none" stroke="black"/>
<path d="M63.9961,250.502h -6.80315" fill="none" stroke="black"/>
<path d="M70.7992,244.134h -13.6063" fill="none" stroke="black"/>
<path d="M63.9961,237.766h -6.80315" fill="none" stroke="black"/>
<path d="M63.9961,231.398h -6.80315" fill="none" stroke="black"/>
<path d="M63.9961,225.03h -6.80315" fill="none" stroke="black"/>
<path d="M70.7992,218.662h -13.6063" fill="none" stroke="black"/>
<path d="M63.9961,212.294h -6.80315" fill="none" stroke="black"/>
<path d="M63.9961,205.926h -6.80315" fill="none" stroke="black"/>
<path d="M63.9961,199.558h -6.80315" fill="none" stroke="black"/>
<path d="M70.7992,193.19h -13.6063" fill="none" stroke="black"/>
<path d="M63.9961,186.822h -6.80315" fill="none" stroke="black"/>
<path d="M63.9961,180.454h -6.80315" fill="none" stroke="black"/>
<path d="M63.9961,174.086h -6.80315" fill="none" stroke="black"/>
<path d="M70.7992,167.718h -13.6063" fill="none" stroke="black"/>
<path d="M63.9961,161.35h -6.80315" fill="none" stroke="black"/>
<path d="M63.9961,154.982h -6.80315" fill="none" stroke="black"/>
<path d="M63.9961,148.614h -6.80315" fill="none" stroke="black"/>
<path d="M70.7992,142.246h -13.6063" fill="none" stroke="black"/>
<path d="M63.9961,135.878h -6.80315" fill="none" stroke="black"/>
<path d="M63.9961,129.51h -6.80315" fill="none" stroke="black"/>
<path d="M63.9961,123.142h -6.80315" fill="none" stroke="black"/>
<path d="M70.7992,116.774h -13.6063" fill="none" stroke="black"/>
<path d="M63.9961,110.406h -6.80315" fill="none" stroke="black"/>
<path d="M63.9961,104.038h -6.80315" fill="none" stroke="black"/>
<path d="M63.9961,97.6695h -6.80315" fill="none" stroke="black"/>
<path d="M70.7992,91.3015h -13.6063" fill="none" stroke="black"/>
<path d="M63.9961,84.9335h -6.80315" fill="none" stroke="black"/>
<path d="M63.9961,78.5654h -6.80315" fill="none" stroke="black"/>
<path d="M63.9961,72.1974h -6.80315" fill="none" stroke="black"/>
<path d="M70.7992,65.8294h -13.6063" fill="none" stroke="black"/>
<path d="M63.9961,59.4614h -6.80315" fill="none" stroke="black"/>
<path d="M63.9961,53.0934h -6.80315" fill="none" stroke="black"/>
<path d="M63.9961,46.7253h -6.80315" fill="none" stroke="black"/>
<path d="M70.7992,40.3573h -13.6063" fill="none" stroke="black"/>
<path d="M70.7992,40.3573h -13.6063" fill="none" stroke="black"/>
<rect x="58.0145" y="262.83" width="170.079" height="80.7385" fill="white"/>
<path d="M58.0145,343.568h 170.079" fill="none" stroke="black"/>
<path d="M228.093,343.568v -80.7385" fill="none" stroke="black"/>
<path d="M228.093,262.83h -170.079" fill="none" stroke="black"/>
<path d="M58.0145,262.83v 80.7385" fill="none" stroke="black"/>
<text xml:space="preserve" x="99.8755" y="310.345" fill="black" font-size="25.7855" font-family="Helvetica">vop 68.93</text>
<path d="M64.3925,331.457h 29.7638v -56.517h -29.7638z" fill="#ffb300" fill-opacity="0.50" stroke-opacity="0.50"/>
<path d="M64.3925,303.199h 29.7638" fill="none" stroke="#ffb300" fill-opacity="0.00" stroke-opacity="0.00"/>
<g stroke="black" stroke-width="1" fill="none">
<line x1="78.2744" y1="303.199" x2="79.2744" y2="303.199"/>
</g>
<text xml:space="preserve" x="248.939" y="18.7347" fill="black" font-size="16.9898" font-family="Helvetica">sector 17</text></svg>
