<?xml version="1.0" standalone="no"?>
<svg width="567.429" height="384.969" viewBox="0 0 567.429 384.969" xmlns="http://www.w3.org/2000/svg" shape-rendering="crispEdges">
<title>
./new_vop/sector_by_vop/sector-3_vop-69.33.svg
</title>
<desc>
Creator: ROOT Version 6.24/00
CreationDate: Wed Jun 23 18:49:16 2021</desc>
<defs>
</defs>
<rect x="0.5" y="0" width="566.929" height="384.469" fill="white"/>
<rect x="57.1929" y="38.4469" width="453.543" height="307.575" fill="white"/>
<rect x="57.1929" y="38.4469" width="453.543" height="307.575" fill="none" stroke="black"/>
<path d="M57.1929,346.022h 90.7087v -19.5286h 45.3543v -117.172h 15.1181v -39.0572h 15.1181v 19.5286h 15.1181v -136.7h 15.1181v 39.0572h 15.1181v 214.815h 15.1181v -19.5286h 15.1181v 58.5858h 211.654" fill="none" stroke="#007d34"/>
<path d="M59.4606,346.022h 63.4961l 4.53543, -0.032046l 4.53543, -0.0336706l 4.53543, -0.0650259l 4.53543, -0.121605l 4.53543, -0.220175l 4.53543, -0.385873l 4.53543, -0.654445l 4.53543, -1.07382l 4.53543, -1.70403l 4.53543, -2.61418l 4.53543,
 -3.87528l 4.53543, -5.54793l 4.53543, -7.66503l 4.53543, -10.211l 4.53543, -13.1014l 4.53543, -16.167l 4.53543, -19.1505l 4.53543, -21.7185l 4.53543, -23.4948l 4.53543, -24.1107l 4.53543, -23.2679l 4.53543, -20.8009l 4.53543, -16.7256l 4.53543,
 -11.2616l 4.53543, -4.81838l 4.53543, 2.05414l 4.53543, 8.7429l 4.53543, 14.662l 4.53543, 19.3372l 4.53543, 22.4685l 4.53543, 23.9583l 4.53543, 23.903l 4.53543, 22.5545l 4.53543, 20.2607l 4.53543, 17.4019" fill="none" stroke="#007d34"
 stroke-width="2"/>
<path d="M281.697,292.544l 4.53543, 14.3338l 4.53543, 11.347l 4.53543, 8.64694l 4.53543, 6.3509l 4.53543, 4.50007l 4.53543, 3.07855l 4.53543, 2.03464l 4.53543, 1.29977l 4.53543, 0.802903l 4.53543, 0.479772l 4.53543, 0.277404l 4.53543, 0.155242l
 4.53543, 0.0841045l 4.53543, 0.0441193l 4.53543, 0.043014h 154.205" fill="none" stroke="#007d34" stroke-width="2"/>
<path d="M503.933,346.022h 4.53543" fill="none" stroke="#007d34" stroke-width="2"/>
<path d="M57.1929,346.022h 453.543" fill="none" stroke="black"/>
<path d="M57.1929,336.795v 9.22726" fill="none" stroke="black"/>
<path d="M72.311,341.409v 4.61363" fill="none" stroke="black"/>
<path d="M87.4291,341.409v 4.61363" fill="none" stroke="black"/>
<path d="M102.547,341.409v 4.61363" fill="none" stroke="black"/>
<path d="M117.665,341.409v 4.61363" fill="none" stroke="black"/>
<path d="M132.783,336.795v 9.22726" fill="none" stroke="black"/>
<path d="M147.902,341.409v 4.61363" fill="none" stroke="black"/>
<path d="M163.02,341.409v 4.61363" fill="none" stroke="black"/>
<path d="M178.138,341.409v 4.61363" fill="none" stroke="black"/>
<path d="M193.256,341.409v 4.61363" fill="none" stroke="black"/>
<path d="M208.374,336.795v 9.22726" fill="none" stroke="black"/>
<path d="M223.492,341.409v 4.61363" fill="none" stroke="black"/>
<path d="M238.61,341.409v 4.61363" fill="none" stroke="black"/>
<path d="M253.728,341.409v 4.61363" fill="none" stroke="black"/>
<path d="M268.846,341.409v 4.61363" fill="none" stroke="black"/>
<path d="M283.965,336.795v 9.22726" fill="none" stroke="black"/>
<path d="M299.083,341.409v 4.61363" fill="none" stroke="black"/>
<path d="M314.201,341.409v 4.61363" fill="none" stroke="black"/>
<path d="M329.319,341.409v 4.61363" fill="none" stroke="black"/>
<path d="M344.437,341.409v 4.61363" fill="none" stroke="black"/>
<path d="M359.555,336.795v 9.22726" fill="none" stroke="black"/>
<path d="M374.673,341.409v 4.61363" fill="none" stroke="black"/>
<path d="M389.791,341.409v 4.61363" fill="none" stroke="black"/>
<path d="M404.909,341.409v 4.61363" fill="none" stroke="black"/>
<path d="M420.028,341.409v 4.61363" fill="none" stroke="black"/>
<path d="M435.146,336.795v 9.22726" fill="none" stroke="black"/>
<path d="M450.264,341.409v 4.61363" fill="none" stroke="black"/>
<path d="M465.382,341.409v 4.61363" fill="none" stroke="black"/>
<path d="M480.5,341.409v 4.61363" fill="none" stroke="black"/>
<path d="M495.618,341.409v 4.61363" fill="none" stroke="black"/>
<path d="M510.736,336.795v 9.22726" fill="none" stroke="black"/>
<text xml:space="preserve" x="53.446" y="358.403" fill="black" font-size="12.8453" font-family="Helvetica">0</text>
<text xml:space="preserve" x="121.868" y="358.403" fill="black" font-size="12.8453" font-family="Helvetica">100</text>
<text xml:space="preserve" x="197.622" y="358.403" fill="black" font-size="12.8453" font-family="Helvetica">200</text>
<text xml:space="preserve" x="273.375" y="358.403" fill="black" font-size="12.8453" font-family="Helvetica">300</text>
<text xml:space="preserve" x="348.314" y="358.403" fill="black" font-size="12.8453" font-family="Helvetica">400</text>
<text xml:space="preserve" x="424.068" y="358.403" fill="black" font-size="12.8453" font-family="Helvetica">500</text>
<text xml:space="preserve" x="499.821" y="358.403" fill="black" font-size="12.8453" font-family="Helvetica">600</text>
<text xml:space="preserve" x="486.788" y="369.807" fill="black" font-size="12.8453" font-family="Helvetica">mpv</text>
<path d="M57.1929,346.022v -307.575" fill="none" stroke="black"/>
<path d="M70.7992,346.022h -13.6063" fill="none" stroke="black"/>
<path d="M63.9961,336.258h -6.80315" fill="none" stroke="black"/>
<path d="M63.9961,326.494h -6.80315" fill="none" stroke="black"/>
<path d="M63.9961,316.729h -6.80315" fill="none" stroke="black"/>
<path d="M70.7992,306.965h -13.6063" fill="none" stroke="black"/>
<path d="M63.9961,297.201h -6.80315" fill="none" stroke="black"/>
<path d="M63.9961,287.436h -6.80315" fill="none" stroke="black"/>
<path d="M63.9961,277.672h -6.80315" fill="none" stroke="black"/>
<path d="M70.7992,267.908h -13.6063" fill="none" stroke="black"/>
<path d="M63.9961,258.144h -6.80315" fill="none" stroke="black"/>
<path d="M63.9961,248.379h -6.80315" fill="none" stroke="black"/>
<path d="M63.9961,238.615h -6.80315" fill="none" stroke="black"/>
<path d="M70.7992,228.851h -13.6063" fill="none" stroke="black"/>
<path d="M63.9961,219.086h -6.80315" fill="none" stroke="black"/>
<path d="M63.9961,209.322h -6.80315" fill="none" stroke="black"/>
<path d="M63.9961,199.558h -6.80315" fill="none" stroke="black"/>
<path d="M70.7992,189.794h -13.6063" fill="none" stroke="black"/>
<path d="M63.9961,180.029h -6.80315" fill="none" stroke="black"/>
<path d="M63.9961,170.265h -6.80315" fill="none" stroke="black"/>
<path d="M63.9961,160.501h -6.80315" fill="none" stroke="black"/>
<path d="M70.7992,150.736h -13.6063" fill="none" stroke="black"/>
<path d="M63.9961,140.972h -6.80315" fill="none" stroke="black"/>
<path d="M63.9961,131.208h -6.80315" fill="none" stroke="black"/>
<path d="M63.9961,121.443h -6.80315" fill="none" stroke="black"/>
<path d="M70.7992,111.679h -13.6063" fill="none" stroke="black"/>
<path d="M63.9961,101.915h -6.80315" fill="none" stroke="black"/>
<path d="M63.9961,92.1506h -6.80315" fill="none" stroke="black"/>
<path d="M63.9961,82.3863h -6.80315" fill="none" stroke="black"/>
<path d="M70.7992,72.622h -13.6063" fill="none" stroke="black"/>
<path d="M70.7992,72.622h -13.6063" fill="none" stroke="black"/>
<path d="M63.9961,62.8577h -6.80315" fill="none" stroke="black"/>
<path d="M63.9961,53.0934h -6.80315" fill="none" stroke="black"/>
<path d="M63.9961,43.3291h -6.80315" fill="none" stroke="black"/>
<text xml:space="preserve" x="47.7441" y="350.258" fill="black" font-size="12.8453" font-family="Helvetica">0</text>
<text xml:space="preserve" x="47.7441" y="311.159" fill="black" font-size="12.8453" font-family="Helvetica">2</text>
<text xml:space="preserve" x="47.7441" y="272.061" fill="black" font-size="12.8453" font-family="Helvetica">4</text>
<text xml:space="preserve" x="47.7441" y="232.962" fill="black" font-size="12.8453" font-family="Helvetica">6</text>
<text xml:space="preserve" x="47.7441" y="194.678" fill="black" font-size="12.8453" font-family="Helvetica">8</text>
<text xml:space="preserve" x="41.2277" y="155.58" fill="black" font-size="12.8453" font-family="Helvetica">10</text>
<text xml:space="preserve" x="40.4131" y="116.481" fill="black" font-size="12.8453" font-family="Helvetica">12</text>
<text xml:space="preserve" x="40.4131" y="77.3826" fill="black" font-size="12.8453" font-family="Helvetica">14</text>
<g transform="rotate(-90,27.3803,86.3427)">
<text xml:space="preserve" x="27.3803" y="86.3427" fill="black" font-size="12.8453" font-family="Helvetica">n_blocks</text>
</g>
<text xml:space="preserve" x="204.138" y="17.9202" fill="black" font-size="18.7938" font-family="Helvetica">sector 3, vop 69.33</text>
<rect x="351.996" y="24.9905" width="204.094" height="76.8938" fill="white"/>
<path d="M351.996,101.884h 204.094" fill="none" stroke="black"/>
<path d="M556.091,101.884v -76.8938" fill="none" stroke="black"/>
<path d="M556.091,24.9905h -204.094" fill="none" stroke="black"/>
<path d="M351.996,24.9905v 76.8938" fill="none" stroke="black"/>
<text xml:space="preserve" x="377.638" y="39.0986" fill="black" font-size="16.7253" font-family="Helvetica"> / ndf </text>
<text xml:space="preserve" x="371.122" y="34.2112" fill="black" font-size="11.3169" font-family="Helvetica">2</text>
<text xml:space="preserve" x="362.162" y="39.0986" fill="black" font-size="16.7253" font-family="Times">&#0967;</text>
<text xml:space="preserve" x="481.901" y="40.7277" fill="black" font-size="16.7253" font-family="Helvetica">  9.77 / 7</text>
<text xml:space="preserve" x="362.162" y="60.2769" fill="black" font-size="16.7253" font-family="Helvetica">Constant </text>
<text xml:space="preserve" x="509.596" y="60.2769" fill="black" font-size="16.7253" font-family="Helvetica"> 2.15</text>
<text xml:space="preserve" x="500.636" y="60.2769" fill="black" font-size="16.7253" font-family="Times">&#0177;</text>
<text xml:space="preserve" x="450.133" y="60.2769" fill="black" font-size="16.7253" font-family="Helvetica"> 11.72 </text>
<text xml:space="preserve" x="362.162" y="79.0117" fill="black" font-size="16.7253" font-family="Helvetica">Mean     </text>
<text xml:space="preserve" x="518.556" y="79.0117" fill="black" font-size="16.7253" font-family="Helvetica"> 5.0</text>
<text xml:space="preserve" x="509.596" y="79.0117" fill="black" font-size="16.7253" font-family="Times">&#0177;</text>
<text xml:space="preserve" x="459.094" y="79.0117" fill="black" font-size="16.7253" font-family="Helvetica"> 238.2 </text>
<text xml:space="preserve" x="362.162" y="96.9318" fill="black" font-size="16.7253" font-family="Helvetica">Sigma    </text>
<text xml:space="preserve" x="509.596" y="98.561" fill="black" font-size="16.7253" font-family="Helvetica"> 4.28</text>
<text xml:space="preserve" x="500.636" y="98.561" fill="black" font-size="16.7253" font-family="Times">&#0177;</text>
<text xml:space="preserve" x="450.133" y="98.561" fill="black" font-size="16.7253" font-family="Helvetica"> 34.47 </text>
<g stroke="black" stroke-width="1" fill="none">
<line x1="63.752" y1="346.022" x2="64.752" y2="346.022"/>
</g>
<g stroke="black" stroke-width="1" fill="none">
<line x1="78.8701" y1="346.022" x2="79.8701" y2="346.022"/>
</g>
<g stroke="black" stroke-width="1" fill="none">
<line x1="93.9882" y1="346.022" x2="94.9882" y2="346.022"/>
</g>
<g stroke="black" stroke-width="1" fill="none">
<line x1="109.106" y1="346.022" x2="110.106" y2="346.022"/>
</g>
<g stroke="black" stroke-width="1" fill="none">
<line x1="124.224" y1="346.022" x2="125.224" y2="346.022"/>
</g>
<g stroke="black" stroke-width="1" fill="none">
<line x1="139.343" y1="346.022" x2="140.343" y2="346.022"/>
</g>
<path d="M155.461,346.022v -19.5286" fill="none" stroke="#007d34"/>
<path d="M155.461,326.494v -19.5286" fill="none" stroke="#007d34"/>
<path d="M147.902,326.494h 7.55905" fill="none" stroke="#007d34"/>
<path d="M155.461,326.494h 7.55905" fill="none" stroke="#007d34"/>
<g stroke="black" stroke-width="1" fill="none">
<line x1="154.461" y1="326.494" x2="155.461" y2="326.494"/>
</g>
<path d="M170.579,346.022v -19.5286" fill="none" stroke="#007d34"/>
<path d="M170.579,326.494v -19.5286" fill="none" stroke="#007d34"/>
<path d="M163.02,326.494h 7.55905" fill="none" stroke="#007d34"/>
<path d="M170.579,326.494h 7.55905" fill="none" stroke="#007d34"/>
<g stroke="black" stroke-width="1" fill="none">
<line x1="169.579" y1="326.494" x2="170.579" y2="326.494"/>
</g>
<path d="M185.697,346.022v -19.5286" fill="none" stroke="#007d34"/>
<path d="M185.697,326.494v -19.5286" fill="none" stroke="#007d34"/>
<path d="M178.138,326.494h 7.55905" fill="none" stroke="#007d34"/>
<path d="M185.697,326.494h 7.55905" fill="none" stroke="#007d34"/>
<g stroke="black" stroke-width="1" fill="none">
<line x1="184.697" y1="326.494" x2="185.697" y2="326.494"/>
</g>
<path d="M200.815,260.99v -51.6678" fill="none" stroke="#007d34"/>
<path d="M200.815,209.322v -51.6678" fill="none" stroke="#007d34"/>
<path d="M193.256,209.322h 7.55905" fill="none" stroke="#007d34"/>
<path d="M200.815,209.322h 7.55905" fill="none" stroke="#007d34"/>
<g stroke="black" stroke-width="1" fill="none">
<line x1="199.815" y1="209.322" x2="200.815" y2="209.322"/>
</g>
<path d="M215.933,228.851v -58.5858" fill="none" stroke="#007d34"/>
<path d="M215.933,170.265v -58.5858" fill="none" stroke="#007d34"/>
<path d="M208.374,170.265h 7.55905" fill="none" stroke="#007d34"/>
<path d="M215.933,170.265h 7.55905" fill="none" stroke="#007d34"/>
<g stroke="black" stroke-width="1" fill="none">
<line x1="214.933" y1="170.265" x2="215.933" y2="170.265"/>
</g>
<path d="M231.051,245.029v -55.2352" fill="none" stroke="#007d34"/>
<path d="M231.051,189.794v -55.2352" fill="none" stroke="#007d34"/>
<path d="M223.492,189.794h 7.55905" fill="none" stroke="#007d34"/>
<path d="M231.051,189.794h 7.55905" fill="none" stroke="#007d34"/>
<g stroke="black" stroke-width="1" fill="none">
<line x1="230.051" y1="189.794" x2="231.051" y2="189.794"/>
</g>
<path d="M246.169,128.727v -75.6339" fill="none" stroke="#007d34"/>
<path d="M246.169,53.0934v -14.6464" fill="none" stroke="#007d34"/>
<path d="M238.61,53.0934h 7.55905" fill="none" stroke="#007d34"/>
<path d="M246.169,53.0934h 7.55905" fill="none" stroke="#007d34"/>
<g stroke="black" stroke-width="1" fill="none">
<line x1="245.169" y1="53.0934" x2="246.169" y2="53.0934"/>
</g>
<path d="M261.287,162.562v -70.4113" fill="none" stroke="#007d34"/>
<path d="M261.287,92.1506v -53.7036" fill="none" stroke="#007d34"/>
<path d="M253.728,92.1506h 7.55905" fill="none" stroke="#007d34"/>
<path d="M261.287,92.1506h 7.55905" fill="none" stroke="#007d34"/>
<g stroke="black" stroke-width="1" fill="none">
<line x1="260.287" y1="92.1506" x2="261.287" y2="92.1506"/>
</g>
<path d="M276.406,334.583v -27.6176" fill="none" stroke="#007d34"/>
<path d="M276.406,306.965v -27.6176" fill="none" stroke="#007d34"/>
<path d="M268.846,306.965h 7.55905" fill="none" stroke="#007d34"/>
<path d="M276.406,306.965h 7.55905" fill="none" stroke="#007d34"/>
<g stroke="black" stroke-width="1" fill="none">
<line x1="275.406" y1="306.965" x2="276.406" y2="306.965"/>
</g>
<path d="M291.524,321.261v -33.8245" fill="none" stroke="#007d34"/>
<path d="M291.524,287.436v -33.8245" fill="none" stroke="#007d34"/>
<path d="M283.965,287.436h 7.55905" fill="none" stroke="#007d34"/>
<path d="M291.524,287.436h 7.55905" fill="none" stroke="#007d34"/>
<g stroke="black" stroke-width="1" fill="none">
<line x1="290.524" y1="287.436" x2="291.524" y2="287.436"/>
</g>
<g stroke="black" stroke-width="1" fill="none">
<line x1="305.642" y1="346.022" x2="306.642" y2="346.022"/>
</g>
<g stroke="black" stroke-width="1" fill="none">
<line x1="320.76" y1="346.022" x2="321.76" y2="346.022"/>
</g>
<g stroke="black" stroke-width="1" fill="none">
<line x1="335.878" y1="346.022" x2="336.878" y2="346.022"/>
</g>
<g stroke="black" stroke-width="1" fill="none">
<line x1="350.996" y1="346.022" x2="351.996" y2="346.022"/>
</g>
<g stroke="black" stroke-width="1" fill="none">
<line x1="366.114" y1="346.022" x2="367.114" y2="346.022"/>
</g>
<g stroke="black" stroke-width="1" fill="none">
<line x1="381.232" y1="346.022" x2="382.232" y2="346.022"/>
</g>
<g stroke="black" stroke-width="1" fill="none">
<line x1="396.35" y1="346.022" x2="397.35" y2="346.022"/>
</g>
<g stroke="black" stroke-width="1" fill="none">
<line x1="411.469" y1="346.022" x2="412.469" y2="346.022"/>
</g>
<g stroke="black" stroke-width="1" fill="none">
<line x1="426.587" y1="346.022" x2="427.587" y2="346.022"/>
</g>
<g stroke="black" stroke-width="1" fill="none">
<line x1="441.705" y1="346.022" x2="442.705" y2="346.022"/>
</g>
<g stroke="black" stroke-width="1" fill="none">
<line x1="456.823" y1="346.022" x2="457.823" y2="346.022"/>
</g>
<g stroke="black" stroke-width="1" fill="none">
<line x1="471.941" y1="346.022" x2="472.941" y2="346.022"/>
</g>
<g stroke="black" stroke-width="1" fill="none">
<line x1="487.059" y1="346.022" x2="488.059" y2="346.022"/>
</g>
<g stroke="black" stroke-width="1" fill="none">
<line x1="502.177" y1="346.022" x2="503.177" y2="346.022"/>
</g>
<path d="M59.4606,346.022h 63.4961l 4.53543, -0.032046l 4.53543, -0.0336706l 4.53543, -0.0650259l 4.53543, -0.121605l 4.53543, -0.220175l 4.53543, -0.385873l 4.53543, -0.654445l 4.53543, -1.07382l 4.53543, -1.70403l 4.53543, -2.61418l 4.53543,
 -3.87528l 4.53543, -5.54793l 4.53543, -7.66503l 4.53543, -10.211l 4.53543, -13.1014l 4.53543, -16.167l 4.53543, -19.1505l 4.53543, -21.7185l 4.53543, -23.4948l 4.53543, -24.1107l 4.53543, -23.2679l 4.53543, -20.8009l 4.53543, -16.7256l 4.53543,
 -11.2616l 4.53543, -4.81838l 4.53543, 2.05414l 4.53543, 8.7429l 4.53543, 14.662l 4.53543, 19.3372l 4.53543, 22.4685l 4.53543, 23.9583l 4.53543, 23.903l 4.53543, 22.5545l 4.53543, 20.2607l 4.53543, 17.4019" fill="none" stroke="#007d34"
 stroke-width="2"/>
<path d="M281.697,292.544l 4.53543, 14.3338l 4.53543, 11.347l 4.53543, 8.64694l 4.53543, 6.3509l 4.53543, 4.50007l 4.53543, 3.07855l 4.53543, 2.03464l 4.53543, 1.29977l 4.53543, 0.802903l 4.53543, 0.479772l 4.53543, 0.277404l 4.53543, 0.155242l
 4.53543, 0.0841045l 4.53543, 0.0441193l 4.53543, 0.043014h 154.205" fill="none" stroke="#007d34" stroke-width="2"/>
<path d="M503.933,346.022h 4.53543" fill="none" stroke="#007d34" stroke-width="2"/>
<rect x="351.996" y="24.9905" width="204.094" height="76.8938" fill="white"/>
<path d="M351.996,101.884h 204.094" fill="none" stroke="black"/>
<path d="M556.091,101.884v -76.8938" fill="none" stroke="black"/>
<path d="M556.091,24.9905h -204.094" fill="none" stroke="black"/>
<path d="M351.996,24.9905v 76.8938" fill="none" stroke="black"/>
<text xml:space="preserve" x="377.638" y="39.0986" fill="black" font-size="16.7253" font-family="Helvetica"> / ndf </text>
<text xml:space="preserve" x="371.122" y="34.2112" fill="black" font-size="11.3169" font-family="Helvetica">2</text>
<text xml:space="preserve" x="362.162" y="39.0986" fill="black" font-size="16.7253" font-family="Times">&#0967;</text>
<text xml:space="preserve" x="481.901" y="40.7277" fill="black" font-size="16.7253" font-family="Helvetica">  9.77 / 7</text>
<text xml:space="preserve" x="362.162" y="60.2769" fill="black" font-size="16.7253" font-family="Helvetica">Constant </text>
<text xml:space="preserve" x="509.596" y="60.2769" fill="black" font-size="16.7253" font-family="Helvetica"> 2.15</text>
<text xml:space="preserve" x="500.636" y="60.2769" fill="black" font-size="16.7253" font-family="Times">&#0177;</text>
<text xml:space="preserve" x="450.133" y="60.2769" fill="black" font-size="16.7253" font-family="Helvetica"> 11.72 </text>
<text xml:space="preserve" x="362.162" y="79.0117" fill="black" font-size="16.7253" font-family="Helvetica">Mean     </text>
<text xml:space="preserve" x="518.556" y="79.0117" fill="black" font-size="16.7253" font-family="Helvetica"> 5.0</text>
<text xml:space="preserve" x="509.596" y="79.0117" fill="black" font-size="16.7253" font-family="Times">&#0177;</text>
<text xml:space="preserve" x="459.094" y="79.0117" fill="black" font-size="16.7253" font-family="Helvetica"> 238.2 </text>
<text xml:space="preserve" x="362.162" y="96.9318" fill="black" font-size="16.7253" font-family="Helvetica">Sigma    </text>
<text xml:space="preserve" x="509.596" y="98.561" fill="black" font-size="16.7253" font-family="Helvetica"> 4.28</text>
<text xml:space="preserve" x="500.636" y="98.561" fill="black" font-size="16.7253" font-family="Times">&#0177;</text>
<text xml:space="preserve" x="450.133" y="98.561" fill="black" font-size="16.7253" font-family="Helvetica"> 34.47 </text>
<text xml:space="preserve" x="204.138" y="17.9202" fill="black" font-size="18.7938" font-family="Helvetica">sector 3, vop 69.33</text></svg>
