<?xml version="1.0" standalone="no"?>
<svg width="567.429" height="387.116" viewBox="0 0 567.429 387.116" xmlns="http://www.w3.org/2000/svg" shape-rendering="crispEdges">
<title>
./new_vop/sector_by_vop/sector-7_all.svg
</title>
<desc>
Creator: ROOT Version 6.24/00
CreationDate: Tue Jun 15 20:02:30 2021</desc>
<defs>
</defs>
<rect x="0.5" y="0" width="566.929" height="386.616" fill="white"/>
<rect x="57.1929" y="38.6616" width="453.543" height="309.293" fill="white"/>
<rect x="57.1929" y="38.6616" width="453.543" height="309.293" fill="none" stroke="black"/>
<path d="M57.1929,347.955h 453.543" fill="none" stroke="#000099"/>
<path d="M57.1929,347.955h 453.543" fill="none" stroke="black"/>
<path d="M57.1929,338.676v 9.27879" fill="none" stroke="black"/>
<path d="M72.311,343.315v 4.6394" fill="none" stroke="black"/>
<path d="M87.4291,343.315v 4.6394" fill="none" stroke="black"/>
<path d="M102.547,343.315v 4.6394" fill="none" stroke="black"/>
<path d="M117.665,343.315v 4.6394" fill="none" stroke="black"/>
<path d="M132.783,338.676v 9.27879" fill="none" stroke="black"/>
<path d="M147.902,343.315v 4.6394" fill="none" stroke="black"/>
<path d="M163.02,343.315v 4.6394" fill="none" stroke="black"/>
<path d="M178.138,343.315v 4.6394" fill="none" stroke="black"/>
<path d="M193.256,343.315v 4.6394" fill="none" stroke="black"/>
<path d="M208.374,338.676v 9.27879" fill="none" stroke="black"/>
<path d="M223.492,343.315v 4.6394" fill="none" stroke="black"/>
<path d="M238.61,343.315v 4.6394" fill="none" stroke="black"/>
<path d="M253.728,343.315v 4.6394" fill="none" stroke="black"/>
<path d="M268.846,343.315v 4.6394" fill="none" stroke="black"/>
<path d="M283.965,338.676v 9.27879" fill="none" stroke="black"/>
<path d="M299.083,343.315v 4.6394" fill="none" stroke="black"/>
<path d="M314.201,343.315v 4.6394" fill="none" stroke="black"/>
<path d="M329.319,343.315v 4.6394" fill="none" stroke="black"/>
<path d="M344.437,343.315v 4.6394" fill="none" stroke="black"/>
<path d="M359.555,338.676v 9.27879" fill="none" stroke="black"/>
<path d="M374.673,343.315v 4.6394" fill="none" stroke="black"/>
<path d="M389.791,343.315v 4.6394" fill="none" stroke="black"/>
<path d="M404.909,343.315v 4.6394" fill="none" stroke="black"/>
<path d="M420.028,343.315v 4.6394" fill="none" stroke="black"/>
<path d="M435.146,338.676v 9.27879" fill="none" stroke="black"/>
<path d="M450.264,343.315v 4.6394" fill="none" stroke="black"/>
<path d="M465.382,343.315v 4.6394" fill="none" stroke="black"/>
<path d="M480.5,343.315v 4.6394" fill="none" stroke="black"/>
<path d="M495.618,343.315v 4.6394" fill="none" stroke="black"/>
<path d="M510.736,338.676v 9.27879" fill="none" stroke="black"/>
<text xml:space="preserve" x="52.482" y="360.625" fill="black" font-size="12.9143" font-family="Helvetica">0</text>
<text xml:space="preserve" x="121.521" y="360.625" fill="black" font-size="12.9143" font-family="Helvetica">100</text>
<text xml:space="preserve" x="197.057" y="360.625" fill="black" font-size="12.9143" font-family="Helvetica">200</text>
<text xml:space="preserve" x="273.406" y="360.625" fill="black" font-size="12.9143" font-family="Helvetica">300</text>
<text xml:space="preserve" x="348.942" y="360.625" fill="black" font-size="12.9143" font-family="Helvetica">400</text>
<text xml:space="preserve" x="424.479" y="360.625" fill="black" font-size="12.9143" font-family="Helvetica">500</text>
<text xml:space="preserve" x="500.015" y="360.625" fill="black" font-size="12.9143" font-family="Helvetica">600</text>
<text xml:space="preserve" x="485.395" y="371.996" fill="black" font-size="12.9143" font-family="Helvetica">mpv</text>
<path d="M57.1929,347.955v -309.293" fill="none" stroke="black"/>
<path d="M70.7992,347.955h -13.6063" fill="none" stroke="black"/>
<path d="M63.9961,335.681h -6.80315" fill="none" stroke="black"/>
<path d="M63.9961,323.408h -6.80315" fill="none" stroke="black"/>
<path d="M63.9961,311.134h -6.80315" fill="none" stroke="black"/>
<path d="M63.9961,298.861h -6.80315" fill="none" stroke="black"/>
<path d="M70.7992,286.587h -13.6063" fill="none" stroke="black"/>
<path d="M63.9961,274.314h -6.80315" fill="none" stroke="black"/>
<path d="M63.9961,262.04h -6.80315" fill="none" stroke="black"/>
<path d="M63.9961,249.766h -6.80315" fill="none" stroke="black"/>
<path d="M63.9961,237.493h -6.80315" fill="none" stroke="black"/>
<path d="M70.7992,225.219h -13.6063" fill="none" stroke="black"/>
<path d="M63.9961,212.946h -6.80315" fill="none" stroke="black"/>
<path d="M63.9961,200.672h -6.80315" fill="none" stroke="black"/>
<path d="M63.9961,188.399h -6.80315" fill="none" stroke="black"/>
<path d="M63.9961,176.125h -6.80315" fill="none" stroke="black"/>
<path d="M70.7992,163.852h -13.6063" fill="none" stroke="black"/>
<path d="M63.9961,151.578h -6.80315" fill="none" stroke="black"/>
<path d="M63.9961,139.305h -6.80315" fill="none" stroke="black"/>
<path d="M63.9961,127.031h -6.80315" fill="none" stroke="black"/>
<path d="M63.9961,114.758h -6.80315" fill="none" stroke="black"/>
<path d="M70.7992,102.484h -13.6063" fill="none" stroke="black"/>
<path d="M63.9961,90.2105h -6.80315" fill="none" stroke="black"/>
<path d="M63.9961,77.937h -6.80315" fill="none" stroke="black"/>
<path d="M63.9961,65.6634h -6.80315" fill="none" stroke="black"/>
<path d="M63.9961,53.3899h -6.80315" fill="none" stroke="black"/>
<path d="M70.7992,41.1164h -13.6063" fill="none" stroke="black"/>
<path d="M70.7992,41.1164h -13.6063" fill="none" stroke="black"/>
<text xml:space="preserve" x="46.7965" y="352.503" fill="black" font-size="12.9143" font-family="Helvetica">0</text>
<text xml:space="preserve" x="46.7965" y="290.775" fill="black" font-size="12.9143" font-family="Helvetica">5</text>
<text xml:space="preserve" x="39.4865" y="229.858" fill="black" font-size="12.9143" font-family="Helvetica">10</text>
<text xml:space="preserve" x="39.4865" y="168.129" fill="black" font-size="12.9143" font-family="Helvetica">15</text>
<text xml:space="preserve" x="39.4865" y="107.213" fill="black" font-size="12.9143" font-family="Helvetica">20</text>
<text xml:space="preserve" x="39.4865" y="45.4843" fill="black" font-size="12.9143" font-family="Helvetica">25</text>
<g transform="rotate(-90,26.491,89.3441)">
<text xml:space="preserve" x="26.491" y="89.3441" fill="black" font-size="12.9143" font-family="Helvetica">n_blocks</text>
</g>
<text xml:space="preserve" x="253.912" y="18.681" fill="black" font-size="17.0819" font-family="Helvetica">sector 7</text>
<rect x="57.6465" y="347.955" width="14.211" height="0" fill="#c10020" fill-opacity="0.50" stroke-opacity="0.50"/>
<rect x="72.7646" y="347.955" width="14.211" height="0" fill="#c10020" fill-opacity="0.50" stroke-opacity="0.50"/>
<rect x="87.8827" y="347.955" width="14.211" height="0" fill="#c10020" fill-opacity="0.50" stroke-opacity="0.50"/>
<rect x="103.001" y="347.955" width="14.211" height="0" fill="#c10020" fill-opacity="0.50" stroke-opacity="0.50"/>
<rect x="118.119" y="347.955" width="14.211" height="0" fill="#c10020" fill-opacity="0.50" stroke-opacity="0.50"/>
<rect x="133.237" y="347.955" width="14.211" height="0" fill="#c10020" fill-opacity="0.50" stroke-opacity="0.50"/>
<rect x="148.355" y="323.408" width="14.211" height="24.5471" fill="#c10020" fill-opacity="0.50" stroke-opacity="0.50"/>
<rect x="163.473" y="335.681" width="14.211" height="12.2735" fill="#c10020" fill-opacity="0.50" stroke-opacity="0.50"/>
<rect x="178.591" y="335.681" width="14.211" height="12.2735" fill="#c10020" fill-opacity="0.50" stroke-opacity="0.50"/>
<rect x="193.709" y="298.861" width="14.211" height="49.0942" fill="#c10020" fill-opacity="0.50" stroke-opacity="0.50"/>
<rect x="208.828" y="249.766" width="14.211" height="98.1883" fill="#c10020" fill-opacity="0.50" stroke-opacity="0.50"/>
<rect x="223.946" y="163.852" width="14.211" height="184.103" fill="#c10020" fill-opacity="0.50" stroke-opacity="0.50"/>
<rect x="239.064" y="53.3899" width="14.211" height="294.565" fill="#c10020" fill-opacity="0.50" stroke-opacity="0.50"/>
<rect x="254.182" y="163.852" width="14.211" height="184.103" fill="#c10020" fill-opacity="0.50" stroke-opacity="0.50"/>
<rect x="269.3" y="188.399" width="14.211" height="159.556" fill="#c10020" fill-opacity="0.50" stroke-opacity="0.50"/>
<rect x="284.418" y="311.134" width="14.211" height="36.8206" fill="#c10020" fill-opacity="0.50" stroke-opacity="0.50"/>
<rect x="299.536" y="298.861" width="14.211" height="49.0942" fill="#c10020" fill-opacity="0.50" stroke-opacity="0.50"/>
<rect x="314.654" y="323.408" width="14.211" height="24.5471" fill="#c10020" fill-opacity="0.50" stroke-opacity="0.50"/>
<rect x="329.772" y="347.955" width="14.211" height="0" fill="#c10020" fill-opacity="0.50" stroke-opacity="0.50"/>
<rect x="344.891" y="347.955" width="14.211" height="0" fill="#c10020" fill-opacity="0.50" stroke-opacity="0.50"/>
<rect x="360.009" y="347.955" width="14.211" height="0" fill="#c10020" fill-opacity="0.50" stroke-opacity="0.50"/>
<rect x="375.127" y="347.955" width="14.211" height="0" fill="#c10020" fill-opacity="0.50" stroke-opacity="0.50"/>
<rect x="390.245" y="347.955" width="14.211" height="0" fill="#c10020" fill-opacity="0.50" stroke-opacity="0.50"/>
<rect x="405.363" y="347.955" width="14.211" height="0" fill="#c10020" fill-opacity="0.50" stroke-opacity="0.50"/>
<rect x="420.481" y="347.955" width="14.211" height="0" fill="#c10020" fill-opacity="0.50" stroke-opacity="0.50"/>
<rect x="435.599" y="347.955" width="14.211" height="0" fill="#c10020" fill-opacity="0.50" stroke-opacity="0.50"/>
<rect x="450.717" y="347.955" width="14.211" height="0" fill="#c10020" fill-opacity="0.50" stroke-opacity="0.50"/>
<rect x="465.835" y="347.955" width="14.211" height="0" fill="#c10020" fill-opacity="0.50" stroke-opacity="0.50"/>
<rect x="480.954" y="347.955" width="14.211" height="0" fill="#c10020" fill-opacity="0.50" stroke-opacity="0.50"/>
<rect x="496.072" y="347.955" width="14.211" height="0" fill="#c10020" fill-opacity="0.50" stroke-opacity="0.50"/>
<path d="M59.4606,347.955h 77.1024l 4.53543, -0.0581449l 4.53543, -0.0578016l 4.53543, -0.108448l 4.53543, -0.197084l 4.53543, -0.346852l 4.53543, -0.591012l 4.53543, -0.974754l 4.53543, -1.55561l 4.53543, -2.40136l 4.53543, -3.58401l 4.53543,
 -5.169l 4.53543, -7.19922l 4.53543, -9.67514l 4.53543, -12.5337l 4.53543, -15.631l 4.53543, -18.7341l 4.53543, -21.5285l 4.53543, -23.6438l 4.53543, -24.6999l 4.53543, -24.3655l 4.53543, -22.4225l 4.53543, -18.8205l 4.53543, -13.709l 4.53543,
 -7.43667l 4.53543, -0.514293l 4.53543, 6.45356l 4.53543, 12.8557l 4.53543, 18.1626l 4.53543, 21.9991l 4.53543, 24.1855l 4.53543, 24.7445l 4.53543, 23.8726" fill="none" stroke="#c10020" stroke-width="2"/>
<path d="M281.697,244.27l 4.53543, 21.8886l 4.53543, 19.1694l 4.53543, 16.09l 4.53543, 12.9753l 4.53543, 10.0708l 4.53543, 7.53336l 4.53543, 5.43686l 4.53543, 3.78882l 4.53543, 2.55121l 4.53543, 1.66079l 4.53543, 1.04569l 4.53543, 0.637063l 4.53543,
 0.375653l 4.53543, 0.214455l 4.53543, 0.118559l 4.53543, 0.0634845l 4.53543, 0.0329317l 4.53543, 0.0314925h 140.598" fill="none" stroke="#c10020" stroke-width="2"/>
<path d="M503.933,347.955h 4.53543" fill="none" stroke="#c10020" stroke-width="2"/>
<path d="M57.1929,347.955h 453.543" fill="none" stroke="black"/>
<path d="M57.1929,338.676v 9.27879" fill="none" stroke="black"/>
<path d="M72.311,343.315v 4.6394" fill="none" stroke="black"/>
<path d="M87.4291,343.315v 4.6394" fill="none" stroke="black"/>
<path d="M102.547,343.315v 4.6394" fill="none" stroke="black"/>
<path d="M117.665,343.315v 4.6394" fill="none" stroke="black"/>
<path d="M132.783,338.676v 9.27879" fill="none" stroke="black"/>
<path d="M147.902,343.315v 4.6394" fill="none" stroke="black"/>
<path d="M163.02,343.315v 4.6394" fill="none" stroke="black"/>
<path d="M178.138,343.315v 4.6394" fill="none" stroke="black"/>
<path d="M193.256,343.315v 4.6394" fill="none" stroke="black"/>
<path d="M208.374,338.676v 9.27879" fill="none" stroke="black"/>
<path d="M223.492,343.315v 4.6394" fill="none" stroke="black"/>
<path d="M238.61,343.315v 4.6394" fill="none" stroke="black"/>
<path d="M253.728,343.315v 4.6394" fill="none" stroke="black"/>
<path d="M268.846,343.315v 4.6394" fill="none" stroke="black"/>
<path d="M283.965,338.676v 9.27879" fill="none" stroke="black"/>
<path d="M299.083,343.315v 4.6394" fill="none" stroke="black"/>
<path d="M314.201,343.315v 4.6394" fill="none" stroke="black"/>
<path d="M329.319,343.315v 4.6394" fill="none" stroke="black"/>
<path d="M344.437,343.315v 4.6394" fill="none" stroke="black"/>
<path d="M359.555,338.676v 9.27879" fill="none" stroke="black"/>
<path d="M374.673,343.315v 4.6394" fill="none" stroke="black"/>
<path d="M389.791,343.315v 4.6394" fill="none" stroke="black"/>
<path d="M404.909,343.315v 4.6394" fill="none" stroke="black"/>
<path d="M420.028,343.315v 4.6394" fill="none" stroke="black"/>
<path d="M435.146,338.676v 9.27879" fill="none" stroke="black"/>
<path d="M450.264,343.315v 4.6394" fill="none" stroke="black"/>
<path d="M465.382,343.315v 4.6394" fill="none" stroke="black"/>
<path d="M480.5,343.315v 4.6394" fill="none" stroke="black"/>
<path d="M495.618,343.315v 4.6394" fill="none" stroke="black"/>
<path d="M510.736,338.676v 9.27879" fill="none" stroke="black"/>
<path d="M57.1929,347.955v -309.293" fill="none" stroke="black"/>
<path d="M70.7992,347.955h -13.6063" fill="none" stroke="black"/>
<path d="M63.9961,335.681h -6.80315" fill="none" stroke="black"/>
<path d="M63.9961,323.408h -6.80315" fill="none" stroke="black"/>
<path d="M63.9961,311.134h -6.80315" fill="none" stroke="black"/>
<path d="M63.9961,298.861h -6.80315" fill="none" stroke="black"/>
<path d="M70.7992,286.587h -13.6063" fill="none" stroke="black"/>
<path d="M63.9961,274.314h -6.80315" fill="none" stroke="black"/>
<path d="M63.9961,262.04h -6.80315" fill="none" stroke="black"/>
<path d="M63.9961,249.766h -6.80315" fill="none" stroke="black"/>
<path d="M63.9961,237.493h -6.80315" fill="none" stroke="black"/>
<path d="M70.7992,225.219h -13.6063" fill="none" stroke="black"/>
<path d="M63.9961,212.946h -6.80315" fill="none" stroke="black"/>
<path d="M63.9961,200.672h -6.80315" fill="none" stroke="black"/>
<path d="M63.9961,188.399h -6.80315" fill="none" stroke="black"/>
<path d="M63.9961,176.125h -6.80315" fill="none" stroke="black"/>
<path d="M70.7992,163.852h -13.6063" fill="none" stroke="black"/>
<path d="M63.9961,151.578h -6.80315" fill="none" stroke="black"/>
<path d="M63.9961,139.305h -6.80315" fill="none" stroke="black"/>
<path d="M63.9961,127.031h -6.80315" fill="none" stroke="black"/>
<path d="M63.9961,114.758h -6.80315" fill="none" stroke="black"/>
<path d="M70.7992,102.484h -13.6063" fill="none" stroke="black"/>
<path d="M63.9961,90.2105h -6.80315" fill="none" stroke="black"/>
<path d="M63.9961,77.937h -6.80315" fill="none" stroke="black"/>
<path d="M63.9961,65.6634h -6.80315" fill="none" stroke="black"/>
<path d="M63.9961,53.3899h -6.80315" fill="none" stroke="black"/>
<path d="M70.7992,41.1164h -13.6063" fill="none" stroke="black"/>
<path d="M70.7992,41.1164h -13.6063" fill="none" stroke="black"/>
<rect x="58.0145" y="165.587" width="170.079" height="81.1895" fill="white"/>
<path d="M58.0145,246.776h 170.079" fill="none" stroke="black"/>
<path d="M228.093,246.776v -81.1895" fill="none" stroke="black"/>
<path d="M228.093,165.587h -170.079" fill="none" stroke="black"/>
<path d="M58.0145,165.587v 81.1895" fill="none" stroke="black"/>
<text xml:space="preserve" x="100.403" y="212.801" fill="black" font-size="25.7599" font-family="Helvetica">vop 69.18</text>
<path d="M64.3925,234.598h 29.7638v -56.8326h -29.7638z" fill="#c10020" fill-opacity="0.50" stroke-opacity="0.50"/>
<path d="M64.3925,206.182h 29.7638" fill="none" stroke="#c10020" fill-opacity="0.00" stroke-opacity="0.00"/>
<g stroke="black" stroke-width="1" fill="none">
<line x1="78.2744" y1="206.182" x2="79.2744" y2="206.182"/>
</g>
<text xml:space="preserve" x="253.912" y="18.681" fill="black" font-size="17.0819" font-family="Helvetica">sector 7</text></svg>
