<?xml version="1.0" standalone="no"?>
<svg width="567.429" height="387.116" viewBox="0 0 567.429 387.116" xmlns="http://www.w3.org/2000/svg" shape-rendering="crispEdges">
<title>
./new_vop/vop_graphs/vop69.18.svg
</title>
<desc>
Creator: ROOT Version 6.24/00
CreationDate: Tue Jun 15 20:02:28 2021</desc>
<defs>
</defs>
<rect x="0.5" y="0" width="566.929" height="386.616" fill="white"/>
<rect x="57.1929" y="38.6616" width="453.543" height="309.293" fill="white"/>
<rect x="57.1929" y="38.6616" width="453.543" height="309.293" fill="none" stroke="black"/>
<path d="M57.1929,347.955h 90.7087v -12.5347h 15.1181v 6.26734h 15.1181v -12.5347h 15.1181v -37.604h 15.1181v -50.1387h 15.1181v -50.1387h 15.1181v -137.881h 15.1181v 31.3367h 15.1181v 87.7427h 15.1181v 18.802h 15.1181v 81.4754h 15.1181v 25.0694h
 15.1181v 43.8714h 30.2362v 6.26734h 151.181" fill="none" stroke="#c10020"/>
<path d="M59.4606,347.955h 58.9606l 4.53543, -0.0352591l 4.53543, -0.028348l 4.53543, -0.0488365l 4.53543, -0.0823428l 4.53543, -0.13587l 4.53543, -0.219378l 4.53543, -0.346563l 4.53543, -0.535591l 4.53543, -0.809614l 4.53543, -1.19686l 4.53543,
 -1.72997l 4.53543, -2.44439l 4.53543, -3.37534l 4.53543, -4.55352l 4.53543, -5.99926l 4.53543, -7.71578l 4.53543, -9.68194l 4.53543, -11.8458l 4.53543, -14.1201l 4.53543, -16.3811l 4.53543, -18.4723l 4.53543, -20.2129l 4.53543, -21.4126l 4.53543,
 -21.8902l 4.53543, -21.495l 4.53543, -20.1281l 4.53543, -17.7604l 4.53543, -14.4436l 4.53543, -10.313l 4.53543, -5.57976l 4.53543, -0.513286l 4.53543, 4.58409l 4.53543, 9.40695l 4.53543, 13.6771l 4.53543, 17.17l 4.53543, 19.7344" fill="none"
 stroke="#c10020" stroke-width="2"/>
<path d="M281.697,159.02l 4.53543, 21.3015l 4.53543, 21.885l 4.53543, 21.5713l 4.53543, 20.5021l 4.53543, 18.8544l 4.53543, 16.8183l 4.53543, 14.5778l 4.53543, 12.2951l 4.53543, 10.101l 4.53543, 8.09009l 4.53543, 6.32107l 4.53543, 4.82077l 4.53543,
 3.59028l 4.53543, 2.61211l 4.53543, 1.85715l 4.53543, 1.29067l 4.53543, 0.876993l 4.53543, 0.582747l 4.53543, 0.378743l 4.53543, 0.240801l 4.53543, 0.149789l 4.53543, 0.091172l 4.53543, 0.0543067l 4.53543, 0.0316589l 4.53543, 0.0397379h 108.85"
 fill="none" stroke="#c10020" stroke-width="2"/>
<path d="M503.933,347.955h 4.53543" fill="none" stroke="#c10020" stroke-width="2"/>
<path d="M57.1929,347.955h 453.543" fill="none" stroke="black"/>
<path d="M57.1929,338.676v 9.27879" fill="none" stroke="black"/>
<path d="M72.311,343.315v 4.6394" fill="none" stroke="black"/>
<path d="M87.4291,343.315v 4.6394" fill="none" stroke="black"/>
<path d="M102.547,343.315v 4.6394" fill="none" stroke="black"/>
<path d="M117.665,343.315v 4.6394" fill="none" stroke="black"/>
<path d="M132.783,338.676v 9.27879" fill="none" stroke="black"/>
<path d="M147.902,343.315v 4.6394" fill="none" stroke="black"/>
<path d="M163.02,343.315v 4.6394" fill="none" stroke="black"/>
<path d="M178.138,343.315v 4.6394" fill="none" stroke="black"/>
<path d="M193.256,343.315v 4.6394" fill="none" stroke="black"/>
<path d="M208.374,338.676v 9.27879" fill="none" stroke="black"/>
<path d="M223.492,343.315v 4.6394" fill="none" stroke="black"/>
<path d="M238.61,343.315v 4.6394" fill="none" stroke="black"/>
<path d="M253.728,343.315v 4.6394" fill="none" stroke="black"/>
<path d="M268.846,343.315v 4.6394" fill="none" stroke="black"/>
<path d="M283.965,338.676v 9.27879" fill="none" stroke="black"/>
<path d="M299.083,343.315v 4.6394" fill="none" stroke="black"/>
<path d="M314.201,343.315v 4.6394" fill="none" stroke="black"/>
<path d="M329.319,343.315v 4.6394" fill="none" stroke="black"/>
<path d="M344.437,343.315v 4.6394" fill="none" stroke="black"/>
<path d="M359.555,338.676v 9.27879" fill="none" stroke="black"/>
<path d="M374.673,343.315v 4.6394" fill="none" stroke="black"/>
<path d="M389.791,343.315v 4.6394" fill="none" stroke="black"/>
<path d="M404.909,343.315v 4.6394" fill="none" stroke="black"/>
<path d="M420.028,343.315v 4.6394" fill="none" stroke="black"/>
<path d="M435.146,338.676v 9.27879" fill="none" stroke="black"/>
<path d="M450.264,343.315v 4.6394" fill="none" stroke="black"/>
<path d="M465.382,343.315v 4.6394" fill="none" stroke="black"/>
<path d="M480.5,343.315v 4.6394" fill="none" stroke="black"/>
<path d="M495.618,343.315v 4.6394" fill="none" stroke="black"/>
<path d="M510.736,338.676v 9.27879" fill="none" stroke="black"/>
<text xml:space="preserve" x="52.482" y="360.625" fill="black" font-size="12.9143" font-family="Helvetica">0</text>
<text xml:space="preserve" x="121.521" y="360.625" fill="black" font-size="12.9143" font-family="Helvetica">100</text>
<text xml:space="preserve" x="197.057" y="360.625" fill="black" font-size="12.9143" font-family="Helvetica">200</text>
<text xml:space="preserve" x="273.406" y="360.625" fill="black" font-size="12.9143" font-family="Helvetica">300</text>
<text xml:space="preserve" x="348.942" y="360.625" fill="black" font-size="12.9143" font-family="Helvetica">400</text>
<text xml:space="preserve" x="424.479" y="360.625" fill="black" font-size="12.9143" font-family="Helvetica">500</text>
<text xml:space="preserve" x="500.015" y="360.625" fill="black" font-size="12.9143" font-family="Helvetica">600</text>
<text xml:space="preserve" x="485.395" y="371.996" fill="black" font-size="12.9143" font-family="Helvetica">mpv</text>
<path d="M57.1929,347.955v -309.293" fill="none" stroke="black"/>
<path d="M70.7992,347.955h -13.6063" fill="none" stroke="black"/>
<path d="M63.9961,341.687h -6.80315" fill="none" stroke="black"/>
<path d="M63.9961,335.42h -6.80315" fill="none" stroke="black"/>
<path d="M63.9961,329.153h -6.80315" fill="none" stroke="black"/>
<path d="M63.9961,322.885h -6.80315" fill="none" stroke="black"/>
<path d="M70.7992,316.618h -13.6063" fill="none" stroke="black"/>
<path d="M63.9961,310.351h -6.80315" fill="none" stroke="black"/>
<path d="M63.9961,304.083h -6.80315" fill="none" stroke="black"/>
<path d="M63.9961,297.816h -6.80315" fill="none" stroke="black"/>
<path d="M63.9961,291.549h -6.80315" fill="none" stroke="black"/>
<path d="M70.7992,285.281h -13.6063" fill="none" stroke="black"/>
<path d="M63.9961,279.014h -6.80315" fill="none" stroke="black"/>
<path d="M63.9961,272.747h -6.80315" fill="none" stroke="black"/>
<path d="M63.9961,266.479h -6.80315" fill="none" stroke="black"/>
<path d="M63.9961,260.212h -6.80315" fill="none" stroke="black"/>
<path d="M70.7992,253.945h -13.6063" fill="none" stroke="black"/>
<path d="M63.9961,247.677h -6.80315" fill="none" stroke="black"/>
<path d="M63.9961,241.41h -6.80315" fill="none" stroke="black"/>
<path d="M63.9961,235.143h -6.80315" fill="none" stroke="black"/>
<path d="M63.9961,228.875h -6.80315" fill="none" stroke="black"/>
<path d="M70.7992,222.608h -13.6063" fill="none" stroke="black"/>
<path d="M63.9961,216.341h -6.80315" fill="none" stroke="black"/>
<path d="M63.9961,210.073h -6.80315" fill="none" stroke="black"/>
<path d="M63.9961,203.806h -6.80315" fill="none" stroke="black"/>
<path d="M63.9961,197.539h -6.80315" fill="none" stroke="black"/>
<path d="M70.7992,191.271h -13.6063" fill="none" stroke="black"/>
<path d="M63.9961,185.004h -6.80315" fill="none" stroke="black"/>
<path d="M63.9961,178.737h -6.80315" fill="none" stroke="black"/>
<path d="M63.9961,172.469h -6.80315" fill="none" stroke="black"/>
<path d="M63.9961,166.202h -6.80315" fill="none" stroke="black"/>
<path d="M70.7992,159.935h -13.6063" fill="none" stroke="black"/>
<path d="M63.9961,153.667h -6.80315" fill="none" stroke="black"/>
<path d="M63.9961,147.4h -6.80315" fill="none" stroke="black"/>
<path d="M63.9961,141.133h -6.80315" fill="none" stroke="black"/>
<path d="M63.9961,134.865h -6.80315" fill="none" stroke="black"/>
<path d="M70.7992,128.598h -13.6063" fill="none" stroke="black"/>
<path d="M63.9961,122.331h -6.80315" fill="none" stroke="black"/>
<path d="M63.9961,116.063h -6.80315" fill="none" stroke="black"/>
<path d="M63.9961,109.796h -6.80315" fill="none" stroke="black"/>
<path d="M63.9961,103.529h -6.80315" fill="none" stroke="black"/>
<path d="M70.7992,97.2613h -13.6063" fill="none" stroke="black"/>
<path d="M63.9961,90.9939h -6.80315" fill="none" stroke="black"/>
<path d="M63.9961,84.7266h -6.80315" fill="none" stroke="black"/>
<path d="M63.9961,78.4592h -6.80315" fill="none" stroke="black"/>
<path d="M63.9961,72.1919h -6.80315" fill="none" stroke="black"/>
<path d="M70.7992,65.9246h -13.6063" fill="none" stroke="black"/>
<path d="M70.7992,65.9246h -13.6063" fill="none" stroke="black"/>
<path d="M63.9961,59.6572h -6.80315" fill="none" stroke="black"/>
<path d="M63.9961,53.3899h -6.80315" fill="none" stroke="black"/>
<path d="M63.9961,47.1226h -6.80315" fill="none" stroke="black"/>
<path d="M63.9961,40.8552h -6.80315" fill="none" stroke="black"/>
<text xml:space="preserve" x="46.7965" y="352.503" fill="black" font-size="12.9143" font-family="Helvetica">0</text>
<text xml:space="preserve" x="46.7965" y="320.827" fill="black" font-size="12.9143" font-family="Helvetica">5</text>
<text xml:space="preserve" x="39.4865" y="289.962" fill="black" font-size="12.9143" font-family="Helvetica">10</text>
<text xml:space="preserve" x="39.4865" y="258.286" fill="black" font-size="12.9143" font-family="Helvetica">15</text>
<text xml:space="preserve" x="39.4865" y="227.421" fill="black" font-size="12.9143" font-family="Helvetica">20</text>
<text xml:space="preserve" x="39.4865" y="195.745" fill="black" font-size="12.9143" font-family="Helvetica">25</text>
<text xml:space="preserve" x="39.4865" y="164.068" fill="black" font-size="12.9143" font-family="Helvetica">30</text>
<text xml:space="preserve" x="39.4865" y="133.204" fill="black" font-size="12.9143" font-family="Helvetica">35</text>
<text xml:space="preserve" x="39.4865" y="101.527" fill="black" font-size="12.9143" font-family="Helvetica">40</text>
<text xml:space="preserve" x="39.4865" y="70.6631" fill="black" font-size="12.9143" font-family="Helvetica">45</text>
<g transform="rotate(-90,26.491,89.3441)">
<text xml:space="preserve" x="26.491" y="89.3441" fill="black" font-size="12.9143" font-family="Helvetica">n_blocks</text>
</g>
<text xml:space="preserve" x="242.541" y="17.8688" fill="black" font-size="18.7414" font-family="Helvetica">vop 69.18</text>
<rect x="351.996" y="25.1301" width="204.094" height="77.3233" fill="white"/>
<path d="M351.996,102.453h 204.094" fill="none" stroke="black"/>
<path d="M556.091,102.453v -77.3233" fill="none" stroke="black"/>
<path d="M556.091,25.1301h -204.094" fill="none" stroke="black"/>
<path d="M351.996,25.1301v 77.3233" fill="none" stroke="black"/>
<text xml:space="preserve" x="377.37" y="38.9865" fill="black" font-size="16.8159" font-family="Helvetica"> / ndf </text>
<text xml:space="preserve" x="370.872" y="34.1132" fill="black" font-size="11.3773" font-family="Helvetica">2</text>
<text xml:space="preserve" x="361.938" y="38.9865" fill="black" font-size="16.8159" font-family="Times">&#0967;</text>
<text xml:space="preserve" x="471.587" y="40.611" fill="black" font-size="16.8159" font-family="Helvetica"> 7.227 / 11</text>
<text xml:space="preserve" x="361.938" y="60.1042" fill="black" font-size="16.8159" font-family="Helvetica">Constant </text>
<text xml:space="preserve" x="509.762" y="60.1042" fill="black" font-size="16.8159" font-family="Helvetica"> 3.47</text>
<text xml:space="preserve" x="500.827" y="60.1042" fill="black" font-size="16.8159" font-family="Times">&#0177;</text>
<text xml:space="preserve" x="452.906" y="60.1042" fill="black" font-size="16.8159" font-family="Helvetica"> 40.51 </text>
<text xml:space="preserve" x="361.938" y="79.5975" fill="black" font-size="16.8159" font-family="Helvetica">Mean     </text>
<text xml:space="preserve" x="518.696" y="79.5975" fill="black" font-size="16.8159" font-family="Helvetica"> 2.9</text>
<text xml:space="preserve" x="509.762" y="79.5975" fill="black" font-size="16.8159" font-family="Times">&#0177;</text>
<text xml:space="preserve" x="459.404" y="79.5975" fill="black" font-size="16.8159" font-family="Helvetica"> 264.6 </text>
<text xml:space="preserve" x="361.938" y="97.4663" fill="black" font-size="16.8159" font-family="Helvetica">Sigma    </text>
<text xml:space="preserve" x="509.762" y="99.0908" fill="black" font-size="16.8159" font-family="Helvetica"> 2.19</text>
<text xml:space="preserve" x="500.827" y="99.0908" fill="black" font-size="16.8159" font-family="Times">&#0177;</text>
<text xml:space="preserve" x="450.47" y="99.0908" fill="black" font-size="16.8159" font-family="Helvetica"> 42.14 </text>
<g stroke="black" stroke-width="1" fill="none">
<line x1="63.752" y1="347.955" x2="64.752" y2="347.955"/>
</g>
<g stroke="black" stroke-width="1" fill="none">
<line x1="78.8701" y1="347.955" x2="79.8701" y2="347.955"/>
</g>
<g stroke="black" stroke-width="1" fill="none">
<line x1="93.9882" y1="347.955" x2="94.9882" y2="347.955"/>
</g>
<g stroke="black" stroke-width="1" fill="none">
<line x1="109.106" y1="347.955" x2="110.106" y2="347.955"/>
</g>
<g stroke="black" stroke-width="1" fill="none">
<line x1="124.224" y1="347.955" x2="125.224" y2="347.955"/>
</g>
<g stroke="black" stroke-width="1" fill="none">
<line x1="139.343" y1="347.955" x2="140.343" y2="347.955"/>
</g>
<path d="M155.461,344.283v -8.86335" fill="none" stroke="#c10020"/>
<path d="M155.461,335.42v -8.86335" fill="none" stroke="#c10020"/>
<path d="M147.902,335.42h 7.55905" fill="none" stroke="#c10020"/>
<path d="M155.461,335.42h 7.55905" fill="none" stroke="#c10020"/>
<g stroke="black" stroke-width="1" fill="none">
<line x1="154.461" y1="335.42" x2="155.461" y2="335.42"/>
</g>
<path d="M170.579,347.955v -6.26734" fill="none" stroke="#c10020"/>
<path d="M170.579,341.687v -6.26734" fill="none" stroke="#c10020"/>
<path d="M163.02,341.687h 7.55905" fill="none" stroke="#c10020"/>
<path d="M170.579,341.687h 7.55905" fill="none" stroke="#c10020"/>
<g stroke="black" stroke-width="1" fill="none">
<line x1="169.579" y1="341.687" x2="170.579" y2="341.687"/>
</g>
<path d="M185.697,340.008v -10.8553" fill="none" stroke="#c10020"/>
<path d="M185.697,329.153v -10.8553" fill="none" stroke="#c10020"/>
<path d="M178.138,329.153h 7.55905" fill="none" stroke="#c10020"/>
<path d="M185.697,329.153h 7.55905" fill="none" stroke="#c10020"/>
<g stroke="black" stroke-width="1" fill="none">
<line x1="184.697" y1="329.153" x2="185.697" y2="329.153"/>
</g>
<path d="M200.815,310.351v -18.802" fill="none" stroke="#c10020"/>
<path d="M200.815,291.549v -18.802" fill="none" stroke="#c10020"/>
<path d="M193.256,291.549h 7.55905" fill="none" stroke="#c10020"/>
<path d="M200.815,291.549h 7.55905" fill="none" stroke="#c10020"/>
<g stroke="black" stroke-width="1" fill="none">
<line x1="199.815" y1="291.549" x2="200.815" y2="291.549"/>
</g>
<path d="M215.933,267.251v -25.8409" fill="none" stroke="#c10020"/>
<path d="M215.933,241.41v -25.8409" fill="none" stroke="#c10020"/>
<path d="M208.374,241.41h 7.55905" fill="none" stroke="#c10020"/>
<path d="M215.933,241.41h 7.55905" fill="none" stroke="#c10020"/>
<g stroke="black" stroke-width="1" fill="none">
<line x1="214.933" y1="241.41" x2="215.933" y2="241.41"/>
</g>
<path d="M231.051,222.608v -31.3367" fill="none" stroke="#c10020"/>
<path d="M231.051,191.271v -31.3367" fill="none" stroke="#c10020"/>
<path d="M223.492,191.271h 7.55905" fill="none" stroke="#c10020"/>
<path d="M231.051,191.271h 7.55905" fill="none" stroke="#c10020"/>
<g stroke="black" stroke-width="1" fill="none">
<line x1="230.051" y1="191.271" x2="231.051" y2="191.271"/>
</g>
<path d="M246.169,96.3566v -42.9667" fill="none" stroke="#c10020"/>
<path d="M246.169,53.3899v -14.7282" fill="none" stroke="#c10020"/>
<path d="M238.61,53.3899h 7.55905" fill="none" stroke="#c10020"/>
<path d="M246.169,53.3899h 7.55905" fill="none" stroke="#c10020"/>
<g stroke="black" stroke-width="1" fill="none">
<line x1="245.169" y1="53.3899" x2="246.169" y2="53.3899"/>
</g>
<path d="M261.287,125.344v -40.617" fill="none" stroke="#c10020"/>
<path d="M261.287,84.7266v -40.617" fill="none" stroke="#c10020"/>
<path d="M253.728,84.7266h 7.55905" fill="none" stroke="#c10020"/>
<path d="M261.287,84.7266h 7.55905" fill="none" stroke="#c10020"/>
<g stroke="black" stroke-width="1" fill="none">
<line x1="260.287" y1="84.7266" x2="261.287" y2="84.7266"/>
</g>
<path d="M276.406,205.633v -33.1636" fill="none" stroke="#c10020"/>
<path d="M276.406,172.469v -33.1636" fill="none" stroke="#c10020"/>
<path d="M268.846,172.469h 7.55905" fill="none" stroke="#c10020"/>
<path d="M276.406,172.469h 7.55905" fill="none" stroke="#c10020"/>
<g stroke="black" stroke-width="1" fill="none">
<line x1="275.406" y1="172.469" x2="276.406" y2="172.469"/>
</g>
<path d="M291.524,222.608v -31.3367" fill="none" stroke="#c10020"/>
<path d="M291.524,191.271v -31.3367" fill="none" stroke="#c10020"/>
<path d="M283.965,191.271h 7.55905" fill="none" stroke="#c10020"/>
<path d="M291.524,191.271h 7.55905" fill="none" stroke="#c10020"/>
<g stroke="black" stroke-width="1" fill="none">
<line x1="290.524" y1="191.271" x2="291.524" y2="191.271"/>
</g>
<path d="M306.642,294.457v -21.7107" fill="none" stroke="#c10020"/>
<path d="M306.642,272.747v -21.7107" fill="none" stroke="#c10020"/>
<path d="M299.083,272.747h 7.55905" fill="none" stroke="#c10020"/>
<path d="M306.642,272.747h 7.55905" fill="none" stroke="#c10020"/>
<g stroke="black" stroke-width="1" fill="none">
<line x1="305.642" y1="272.747" x2="306.642" y2="272.747"/>
</g>
<path d="M321.76,315.543v -17.7267" fill="none" stroke="#c10020"/>
<path d="M321.76,297.816v -17.7267" fill="none" stroke="#c10020"/>
<path d="M314.201,297.816h 7.55905" fill="none" stroke="#c10020"/>
<path d="M321.76,297.816h 7.55905" fill="none" stroke="#c10020"/>
<g stroke="black" stroke-width="1" fill="none">
<line x1="320.76" y1="297.816" x2="321.76" y2="297.816"/>
</g>
<path d="M336.878,347.955v -6.26734" fill="none" stroke="#c10020"/>
<path d="M336.878,341.687v -6.26734" fill="none" stroke="#c10020"/>
<path d="M329.319,341.687h 7.55905" fill="none" stroke="#c10020"/>
<path d="M336.878,341.687h 7.55905" fill="none" stroke="#c10020"/>
<g stroke="black" stroke-width="1" fill="none">
<line x1="335.878" y1="341.687" x2="336.878" y2="341.687"/>
</g>
<path d="M351.996,347.955v -6.26734" fill="none" stroke="#c10020"/>
<path d="M351.996,341.687v -6.26734" fill="none" stroke="#c10020"/>
<path d="M344.437,341.687h 7.55905" fill="none" stroke="#c10020"/>
<path d="M351.996,341.687h 7.55905" fill="none" stroke="#c10020"/>
<g stroke="black" stroke-width="1" fill="none">
<line x1="350.996" y1="341.687" x2="351.996" y2="341.687"/>
</g>
<g stroke="black" stroke-width="1" fill="none">
<line x1="366.114" y1="347.955" x2="367.114" y2="347.955"/>
</g>
<g stroke="black" stroke-width="1" fill="none">
<line x1="381.232" y1="347.955" x2="382.232" y2="347.955"/>
</g>
<g stroke="black" stroke-width="1" fill="none">
<line x1="396.35" y1="347.955" x2="397.35" y2="347.955"/>
</g>
<g stroke="black" stroke-width="1" fill="none">
<line x1="411.469" y1="347.955" x2="412.469" y2="347.955"/>
</g>
<g stroke="black" stroke-width="1" fill="none">
<line x1="426.587" y1="347.955" x2="427.587" y2="347.955"/>
</g>
<g stroke="black" stroke-width="1" fill="none">
<line x1="441.705" y1="347.955" x2="442.705" y2="347.955"/>
</g>
<g stroke="black" stroke-width="1" fill="none">
<line x1="456.823" y1="347.955" x2="457.823" y2="347.955"/>
</g>
<g stroke="black" stroke-width="1" fill="none">
<line x1="471.941" y1="347.955" x2="472.941" y2="347.955"/>
</g>
<g stroke="black" stroke-width="1" fill="none">
<line x1="487.059" y1="347.955" x2="488.059" y2="347.955"/>
</g>
<g stroke="black" stroke-width="1" fill="none">
<line x1="502.177" y1="347.955" x2="503.177" y2="347.955"/>
</g>
<path d="M59.4606,347.955h 58.9606l 4.53543, -0.0352591l 4.53543, -0.028348l 4.53543, -0.0488365l 4.53543, -0.0823428l 4.53543, -0.13587l 4.53543, -0.219378l 4.53543, -0.346563l 4.53543, -0.535591l 4.53543, -0.809614l 4.53543, -1.19686l 4.53543,
 -1.72997l 4.53543, -2.44439l 4.53543, -3.37534l 4.53543, -4.55352l 4.53543, -5.99926l 4.53543, -7.71578l 4.53543, -9.68194l 4.53543, -11.8458l 4.53543, -14.1201l 4.53543, -16.3811l 4.53543, -18.4723l 4.53543, -20.2129l 4.53543, -21.4126l 4.53543,
 -21.8902l 4.53543, -21.495l 4.53543, -20.1281l 4.53543, -17.7604l 4.53543, -14.4436l 4.53543, -10.313l 4.53543, -5.57976l 4.53543, -0.513286l 4.53543, 4.58409l 4.53543, 9.40695l 4.53543, 13.6771l 4.53543, 17.17l 4.53543, 19.7344" fill="none"
 stroke="#c10020" stroke-width="2"/>
<path d="M281.697,159.02l 4.53543, 21.3015l 4.53543, 21.885l 4.53543, 21.5713l 4.53543, 20.5021l 4.53543, 18.8544l 4.53543, 16.8183l 4.53543, 14.5778l 4.53543, 12.2951l 4.53543, 10.101l 4.53543, 8.09009l 4.53543, 6.32107l 4.53543, 4.82077l 4.53543,
 3.59028l 4.53543, 2.61211l 4.53543, 1.85715l 4.53543, 1.29067l 4.53543, 0.876993l 4.53543, 0.582747l 4.53543, 0.378743l 4.53543, 0.240801l 4.53543, 0.149789l 4.53543, 0.091172l 4.53543, 0.0543067l 4.53543, 0.0316589l 4.53543, 0.0397379h 108.85"
 fill="none" stroke="#c10020" stroke-width="2"/>
<path d="M503.933,347.955h 4.53543" fill="none" stroke="#c10020" stroke-width="2"/>
<rect x="351.996" y="25.1301" width="204.094" height="77.3233" fill="white"/>
<path d="M351.996,102.453h 204.094" fill="none" stroke="black"/>
<path d="M556.091,102.453v -77.3233" fill="none" stroke="black"/>
<path d="M556.091,25.1301h -204.094" fill="none" stroke="black"/>
<path d="M351.996,25.1301v 77.3233" fill="none" stroke="black"/>
<text xml:space="preserve" x="377.37" y="38.9865" fill="black" font-size="16.8159" font-family="Helvetica"> / ndf </text>
<text xml:space="preserve" x="370.872" y="34.1132" fill="black" font-size="11.3773" font-family="Helvetica">2</text>
<text xml:space="preserve" x="361.938" y="38.9865" fill="black" font-size="16.8159" font-family="Times">&#0967;</text>
<text xml:space="preserve" x="471.587" y="40.611" fill="black" font-size="16.8159" font-family="Helvetica"> 7.227 / 11</text>
<text xml:space="preserve" x="361.938" y="60.1042" fill="black" font-size="16.8159" font-family="Helvetica">Constant </text>
<text xml:space="preserve" x="509.762" y="60.1042" fill="black" font-size="16.8159" font-family="Helvetica"> 3.47</text>
<text xml:space="preserve" x="500.827" y="60.1042" fill="black" font-size="16.8159" font-family="Times">&#0177;</text>
<text xml:space="preserve" x="452.906" y="60.1042" fill="black" font-size="16.8159" font-family="Helvetica"> 40.51 </text>
<text xml:space="preserve" x="361.938" y="79.5975" fill="black" font-size="16.8159" font-family="Helvetica">Mean     </text>
<text xml:space="preserve" x="518.696" y="79.5975" fill="black" font-size="16.8159" font-family="Helvetica"> 2.9</text>
<text xml:space="preserve" x="509.762" y="79.5975" fill="black" font-size="16.8159" font-family="Times">&#0177;</text>
<text xml:space="preserve" x="459.404" y="79.5975" fill="black" font-size="16.8159" font-family="Helvetica"> 264.6 </text>
<text xml:space="preserve" x="361.938" y="97.4663" fill="black" font-size="16.8159" font-family="Helvetica">Sigma    </text>
<text xml:space="preserve" x="509.762" y="99.0908" fill="black" font-size="16.8159" font-family="Helvetica"> 2.19</text>
<text xml:space="preserve" x="500.827" y="99.0908" fill="black" font-size="16.8159" font-family="Times">&#0177;</text>
<text xml:space="preserve" x="450.47" y="99.0908" fill="black" font-size="16.8159" font-family="Helvetica"> 42.14 </text>
<text xml:space="preserve" x="242.541" y="17.8688" fill="black" font-size="18.7414" font-family="Helvetica">vop 69.18</text></svg>
