<?xml version="1.0" standalone="no"?>
<svg width="567.429" height="384.969" viewBox="0 0 567.429 384.969" xmlns="http://www.w3.org/2000/svg" shape-rendering="crispEdges">
<title>
./new_vop/vop_graphs/vop69.13.svg
</title>
<desc>
Creator: ROOT Version 6.22/02
CreationDate: Sat Jun 26 01:19:18 2021</desc>
<defs>
</defs>
<rect x="0.5" y="0" width="566.929" height="384.469" fill="white"/>
<rect x="57.1929" y="38.4469" width="453.543" height="307.575" fill="white"/>
<rect x="57.1929" y="38.4469" width="453.543" height="307.575" fill="none" stroke="black"/>
<path d="M57.1929,339.654h 15.1181v 6.36802h 45.3543v -6.36802h 15.1181v 6.36802h 30.2362v -6.36802h 15.1181v -50.9442h 15.1181v -44.5761h 15.1181v -76.4162h 15.1181v -114.624h 30.2362v 70.0482h 15.1181v 44.5761h 15.1181v 108.256h 15.1181v 19.1041h
 15.1181v 31.8401h 15.1181v 19.1041h 181.417" fill="none" stroke="#c10020"/>
<path d="M59.4606,346.022h 54.4252l 4.53543, -0.0377326l 4.53543, -0.0331983l 4.53543, -0.0593665l 4.53543, -0.103596l 4.53543, -0.176389l 4.53543, -0.293l 4.53543, -0.474753l 4.53543, -0.75024l 4.53543, -1.15606l 4.53543, -1.73666l 4.53543,
 -2.54267l 4.53543, -3.62723l 4.53543, -5.03987l 4.53543, -6.81773l 4.53543, -8.97464l 4.53543, -11.4891l 4.53543, -14.2928l 4.53543, -17.2623l 4.53543, -20.2164l 4.53543, -22.9217l 4.53543, -25.1079l 4.53543, -26.4922l 4.53543, -26.8129l 4.53543,
 -25.8647l 4.53543, -23.5344l 4.53543, -19.8273l 4.53543, -14.8804l 4.53543, -8.95879l 4.53543, -2.43296l 4.53543, 4.25914l 4.53543, 10.6608l 4.53543, 16.348l 4.53543, 20.9759l 4.53543, 24.3133l 4.53543, 26.2596l 4.53543, 26.8439l 4.53543, 26.208"
 fill="none" stroke="#c10020" stroke-width="2"/>
<path d="M281.697,209.974l 4.53543, 24.576l 4.53543, 22.2193l 4.53543, 19.42l 4.53543, 16.4404l 4.53543, 13.5008l 4.53543, 10.7666l 4.53543, 8.34564l 4.53543, 6.29229l 4.53543, 4.61721l 4.53543, 3.29898l 4.53543, 2.29605l 4.53543, 1.55716l 4.53543,
 1.02934l 4.53543, 0.663384l 4.53543, 0.41691l 4.53543, 0.255549l 4.53543, 0.152801l 4.53543, 0.0891387l 4.53543, 0.0507393l 4.53543, 0.0281846l 4.53543, 0.0316055h 126.992" fill="none" stroke="#c10020" stroke-width="2"/>
<path d="M503.933,346.022h 4.53543" fill="none" stroke="#c10020" stroke-width="2"/>
<path d="M57.1929,346.022h 453.543" fill="none" stroke="black"/>
<path d="M57.1929,336.795v 9.22726" fill="none" stroke="black"/>
<path d="M72.311,341.409v 4.61363" fill="none" stroke="black"/>
<path d="M87.4291,341.409v 4.61363" fill="none" stroke="black"/>
<path d="M102.547,341.409v 4.61363" fill="none" stroke="black"/>
<path d="M117.665,341.409v 4.61363" fill="none" stroke="black"/>
<path d="M132.783,336.795v 9.22726" fill="none" stroke="black"/>
<path d="M147.902,341.409v 4.61363" fill="none" stroke="black"/>
<path d="M163.02,341.409v 4.61363" fill="none" stroke="black"/>
<path d="M178.138,341.409v 4.61363" fill="none" stroke="black"/>
<path d="M193.256,341.409v 4.61363" fill="none" stroke="black"/>
<path d="M208.374,336.795v 9.22726" fill="none" stroke="black"/>
<path d="M223.492,341.409v 4.61363" fill="none" stroke="black"/>
<path d="M238.61,341.409v 4.61363" fill="none" stroke="black"/>
<path d="M253.728,341.409v 4.61363" fill="none" stroke="black"/>
<path d="M268.846,341.409v 4.61363" fill="none" stroke="black"/>
<path d="M283.965,336.795v 9.22726" fill="none" stroke="black"/>
<path d="M299.083,341.409v 4.61363" fill="none" stroke="black"/>
<path d="M314.201,341.409v 4.61363" fill="none" stroke="black"/>
<path d="M329.319,341.409v 4.61363" fill="none" stroke="black"/>
<path d="M344.437,341.409v 4.61363" fill="none" stroke="black"/>
<path d="M359.555,336.795v 9.22726" fill="none" stroke="black"/>
<path d="M374.673,341.409v 4.61363" fill="none" stroke="black"/>
<path d="M389.791,341.409v 4.61363" fill="none" stroke="black"/>
<path d="M404.909,341.409v 4.61363" fill="none" stroke="black"/>
<path d="M420.028,341.409v 4.61363" fill="none" stroke="black"/>
<path d="M435.146,336.795v 9.22726" fill="none" stroke="black"/>
<path d="M450.264,341.409v 4.61363" fill="none" stroke="black"/>
<path d="M465.382,341.409v 4.61363" fill="none" stroke="black"/>
<path d="M480.5,341.409v 4.61363" fill="none" stroke="black"/>
<path d="M495.618,341.409v 4.61363" fill="none" stroke="black"/>
<path d="M510.736,336.795v 9.22726" fill="none" stroke="black"/>
<text xml:space="preserve" x="53.446" y="358.403" fill="black" font-size="12.8453" font-family="Helvetica">0</text>
<text xml:space="preserve" x="121.868" y="358.403" fill="black" font-size="12.8453" font-family="Helvetica">100</text>
<text xml:space="preserve" x="197.622" y="358.403" fill="black" font-size="12.8453" font-family="Helvetica">200</text>
<text xml:space="preserve" x="273.375" y="358.403" fill="black" font-size="12.8453" font-family="Helvetica">300</text>
<text xml:space="preserve" x="348.314" y="358.403" fill="black" font-size="12.8453" font-family="Helvetica">400</text>
<text xml:space="preserve" x="424.068" y="358.403" fill="black" font-size="12.8453" font-family="Helvetica">500</text>
<text xml:space="preserve" x="499.821" y="358.403" fill="black" font-size="12.8453" font-family="Helvetica">600</text>
<text xml:space="preserve" x="486.788" y="369.807" fill="black" font-size="12.8453" font-family="Helvetica">mpv</text>
<path d="M57.1929,346.022v -307.575" fill="none" stroke="black"/>
<path d="M70.7992,346.022h -13.6063" fill="none" stroke="black"/>
<path d="M63.9961,339.654h -6.80315" fill="none" stroke="black"/>
<path d="M63.9961,333.286h -6.80315" fill="none" stroke="black"/>
<path d="M63.9961,326.918h -6.80315" fill="none" stroke="black"/>
<path d="M63.9961,320.55h -6.80315" fill="none" stroke="black"/>
<path d="M70.7992,314.182h -13.6063" fill="none" stroke="black"/>
<path d="M63.9961,307.814h -6.80315" fill="none" stroke="black"/>
<path d="M63.9961,301.446h -6.80315" fill="none" stroke="black"/>
<path d="M63.9961,295.078h -6.80315" fill="none" stroke="black"/>
<path d="M63.9961,288.71h -6.80315" fill="none" stroke="black"/>
<path d="M70.7992,282.342h -13.6063" fill="none" stroke="black"/>
<path d="M63.9961,275.974h -6.80315" fill="none" stroke="black"/>
<path d="M63.9961,269.606h -6.80315" fill="none" stroke="black"/>
<path d="M63.9961,263.238h -6.80315" fill="none" stroke="black"/>
<path d="M63.9961,256.87h -6.80315" fill="none" stroke="black"/>
<path d="M70.7992,250.502h -13.6063" fill="none" stroke="black"/>
<path d="M63.9961,244.134h -6.80315" fill="none" stroke="black"/>
<path d="M63.9961,237.766h -6.80315" fill="none" stroke="black"/>
<path d="M63.9961,231.398h -6.80315" fill="none" stroke="black"/>
<path d="M63.9961,225.03h -6.80315" fill="none" stroke="black"/>
<path d="M70.7992,218.662h -13.6063" fill="none" stroke="black"/>
<path d="M63.9961,212.294h -6.80315" fill="none" stroke="black"/>
<path d="M63.9961,205.926h -6.80315" fill="none" stroke="black"/>
<path d="M63.9961,199.558h -6.80315" fill="none" stroke="black"/>
<path d="M63.9961,193.19h -6.80315" fill="none" stroke="black"/>
<path d="M70.7992,186.822h -13.6063" fill="none" stroke="black"/>
<path d="M63.9961,180.454h -6.80315" fill="none" stroke="black"/>
<path d="M63.9961,174.086h -6.80315" fill="none" stroke="black"/>
<path d="M63.9961,167.718h -6.80315" fill="none" stroke="black"/>
<path d="M63.9961,161.35h -6.80315" fill="none" stroke="black"/>
<path d="M70.7992,154.982h -13.6063" fill="none" stroke="black"/>
<path d="M63.9961,148.614h -6.80315" fill="none" stroke="black"/>
<path d="M63.9961,142.246h -6.80315" fill="none" stroke="black"/>
<path d="M63.9961,135.878h -6.80315" fill="none" stroke="black"/>
<path d="M63.9961,129.51h -6.80315" fill="none" stroke="black"/>
<path d="M70.7992,123.142h -13.6063" fill="none" stroke="black"/>
<path d="M63.9961,116.774h -6.80315" fill="none" stroke="black"/>
<path d="M63.9961,110.406h -6.80315" fill="none" stroke="black"/>
<path d="M63.9961,104.038h -6.80315" fill="none" stroke="black"/>
<path d="M63.9961,97.6695h -6.80315" fill="none" stroke="black"/>
<path d="M70.7992,91.3015h -13.6063" fill="none" stroke="black"/>
<path d="M63.9961,84.9335h -6.80315" fill="none" stroke="black"/>
<path d="M63.9961,78.5654h -6.80315" fill="none" stroke="black"/>
<path d="M63.9961,72.1974h -6.80315" fill="none" stroke="black"/>
<path d="M63.9961,65.8294h -6.80315" fill="none" stroke="black"/>
<path d="M70.7992,59.4614h -13.6063" fill="none" stroke="black"/>
<path d="M70.7992,59.4614h -13.6063" fill="none" stroke="black"/>
<path d="M63.9961,53.0934h -6.80315" fill="none" stroke="black"/>
<path d="M63.9961,46.7253h -6.80315" fill="none" stroke="black"/>
<path d="M63.9961,40.3573h -6.80315" fill="none" stroke="black"/>
<text xml:space="preserve" x="47.7441" y="350.258" fill="black" font-size="12.8453" font-family="Helvetica">0</text>
<text xml:space="preserve" x="47.7441" y="318.49" fill="black" font-size="12.8453" font-family="Helvetica">5</text>
<text xml:space="preserve" x="41.2277" y="286.723" fill="black" font-size="12.8453" font-family="Helvetica">10</text>
<text xml:space="preserve" x="40.4131" y="254.955" fill="black" font-size="12.8453" font-family="Helvetica">15</text>
<text xml:space="preserve" x="41.2277" y="223.188" fill="black" font-size="12.8453" font-family="Helvetica">20</text>
<text xml:space="preserve" x="40.4131" y="191.42" fill="black" font-size="12.8453" font-family="Helvetica">25</text>
<text xml:space="preserve" x="41.2277" y="159.652" fill="black" font-size="12.8453" font-family="Helvetica">30</text>
<text xml:space="preserve" x="40.4131" y="127.885" fill="black" font-size="12.8453" font-family="Helvetica">35</text>
<text xml:space="preserve" x="41.2277" y="96.1173" fill="black" font-size="12.8453" font-family="Helvetica">40</text>
<text xml:space="preserve" x="40.4131" y="63.5352" fill="black" font-size="12.8453" font-family="Helvetica">45</text>
<g transform="rotate(-90,27.3803,86.3427)">
<text xml:space="preserve" x="27.3803" y="86.3427" fill="black" font-size="12.8453" font-family="Helvetica">n_blocks</text>
</g>
<text xml:space="preserve" x="243.237" y="17.9202" fill="black" font-size="18.7938" font-family="Helvetica">vop 69.13</text>
<rect x="351.996" y="24.9905" width="204.094" height="76.8938" fill="white"/>
<path d="M351.996,101.884h 204.094" fill="none" stroke="black"/>
<path d="M556.091,101.884v -76.8938" fill="none" stroke="black"/>
<path d="M556.091,24.9905h -204.094" fill="none" stroke="black"/>
<path d="M351.996,24.9905v 76.8938" fill="none" stroke="black"/>
<text xml:space="preserve" x="377.638" y="39.0986" fill="black" font-size="16.7253" font-family="Helvetica"> / ndf </text>
<text xml:space="preserve" x="371.122" y="34.2112" fill="black" font-size="11.3169" font-family="Helvetica">2</text>
<text xml:space="preserve" x="362.162" y="39.0986" fill="black" font-size="16.7253" font-family="Times">&#0967;</text>
<text xml:space="preserve" x="468.868" y="40.7277" fill="black" font-size="16.7253" font-family="Helvetica"> 7.085 / 10</text>
<text xml:space="preserve" x="362.162" y="60.2769" fill="black" font-size="16.7253" font-family="Helvetica">Constant </text>
<text xml:space="preserve" x="509.596" y="60.2769" fill="black" font-size="16.7253" font-family="Helvetica"> 3.85</text>
<text xml:space="preserve" x="500.636" y="60.2769" fill="black" font-size="16.7253" font-family="Times">&#0177;</text>
<text xml:space="preserve" x="450.133" y="60.2769" fill="black" font-size="16.7253" font-family="Helvetica"> 45.85 </text>
<text xml:space="preserve" x="362.162" y="79.0117" fill="black" font-size="16.7253" font-family="Helvetica">Mean     </text>
<text xml:space="preserve" x="518.556" y="79.0117" fill="black" font-size="16.7253" font-family="Helvetica"> 2.8</text>
<text xml:space="preserve" x="509.596" y="79.0117" fill="black" font-size="16.7253" font-family="Times">&#0177;</text>
<text xml:space="preserve" x="459.094" y="79.0117" fill="black" font-size="16.7253" font-family="Helvetica"> 248.2 </text>
<text xml:space="preserve" x="362.162" y="96.9318" fill="black" font-size="16.7253" font-family="Helvetica">Sigma    </text>
<text xml:space="preserve" x="512.039" y="98.561" fill="black" font-size="16.7253" font-family="Helvetica"> 2.11</text>
<text xml:space="preserve" x="503.079" y="98.561" fill="black" font-size="16.7253" font-family="Times">&#0177;</text>
<text xml:space="preserve" x="455.021" y="98.561" fill="black" font-size="16.7253" font-family="Helvetica"> 39.51 </text>
<path d="M64.752,346.022v -6.36802" fill="none" stroke="#c10020"/>
<path d="M64.752,339.654v -6.36802" fill="none" stroke="#c10020"/>
<path d="M57.1929,339.654h 7.55905" fill="none" stroke="#c10020"/>
<path d="M64.752,339.654h 7.55905" fill="none" stroke="#c10020"/>
<g stroke="black" stroke-width="1" fill="none">
<line x1="63.752" y1="339.654" x2="64.752" y2="339.654"/>
</g>
<g stroke="black" stroke-width="1" fill="none">
<line x1="78.8701" y1="346.022" x2="79.8701" y2="346.022"/>
</g>
<g stroke="black" stroke-width="1" fill="none">
<line x1="93.9882" y1="346.022" x2="94.9882" y2="346.022"/>
</g>
<g stroke="black" stroke-width="1" fill="none">
<line x1="109.106" y1="346.022" x2="110.106" y2="346.022"/>
</g>
<path d="M125.224,346.022v -6.36802" fill="none" stroke="#c10020"/>
<path d="M125.224,339.654v -6.36802" fill="none" stroke="#c10020"/>
<path d="M117.665,339.654h 7.55905" fill="none" stroke="#c10020"/>
<path d="M125.224,339.654h 7.55905" fill="none" stroke="#c10020"/>
<g stroke="black" stroke-width="1" fill="none">
<line x1="124.224" y1="339.654" x2="125.224" y2="339.654"/>
</g>
<g stroke="black" stroke-width="1" fill="none">
<line x1="139.343" y1="346.022" x2="140.343" y2="346.022"/>
</g>
<g stroke="black" stroke-width="1" fill="none">
<line x1="154.461" y1="346.022" x2="155.461" y2="346.022"/>
</g>
<path d="M170.579,346.022v -6.36802" fill="none" stroke="#c10020"/>
<path d="M170.579,339.654v -6.36802" fill="none" stroke="#c10020"/>
<path d="M163.02,339.654h 7.55905" fill="none" stroke="#c10020"/>
<path d="M170.579,339.654h 7.55905" fill="none" stroke="#c10020"/>
<g stroke="black" stroke-width="1" fill="none">
<line x1="169.579" y1="339.654" x2="170.579" y2="339.654"/>
</g>
<path d="M185.697,307.814v -19.1041" fill="none" stroke="#c10020"/>
<path d="M185.697,288.71v -19.1041" fill="none" stroke="#c10020"/>
<path d="M178.138,288.71h 7.55905" fill="none" stroke="#c10020"/>
<path d="M185.697,288.71h 7.55905" fill="none" stroke="#c10020"/>
<g stroke="black" stroke-width="1" fill="none">
<line x1="184.697" y1="288.71" x2="185.697" y2="288.71"/>
</g>
<path d="M200.815,269.606v -25.4721" fill="none" stroke="#c10020"/>
<path d="M200.815,244.134v -25.4721" fill="none" stroke="#c10020"/>
<path d="M193.256,244.134h 7.55905" fill="none" stroke="#c10020"/>
<path d="M200.815,244.134h 7.55905" fill="none" stroke="#c10020"/>
<g stroke="black" stroke-width="1" fill="none">
<line x1="199.815" y1="244.134" x2="200.815" y2="244.134"/>
</g>
<path d="M215.933,201.414v -33.6964" fill="none" stroke="#c10020"/>
<path d="M215.933,167.718v -33.6964" fill="none" stroke="#c10020"/>
<path d="M208.374,167.718h 7.55905" fill="none" stroke="#c10020"/>
<path d="M215.933,167.718h 7.55905" fill="none" stroke="#c10020"/>
<g stroke="black" stroke-width="1" fill="none">
<line x1="214.933" y1="167.718" x2="215.933" y2="167.718"/>
</g>
<path d="M231.051,96.2834v -43.19" fill="none" stroke="#c10020"/>
<path d="M231.051,53.0934v -14.6464" fill="none" stroke="#c10020"/>
<path d="M223.492,53.0934h 7.55905" fill="none" stroke="#c10020"/>
<path d="M231.051,53.0934h 7.55905" fill="none" stroke="#c10020"/>
<g stroke="black" stroke-width="1" fill="none">
<line x1="230.051" y1="53.0934" x2="231.051" y2="53.0934"/>
</g>
<path d="M246.169,96.2834v -43.19" fill="none" stroke="#c10020"/>
<path d="M246.169,53.0934v -14.6464" fill="none" stroke="#c10020"/>
<path d="M238.61,53.0934h 7.55905" fill="none" stroke="#c10020"/>
<path d="M246.169,53.0934h 7.55905" fill="none" stroke="#c10020"/>
<g stroke="black" stroke-width="1" fill="none">
<line x1="245.169" y1="53.0934" x2="246.169" y2="53.0934"/>
</g>
<path d="M261.287,160.815v -37.6737" fill="none" stroke="#c10020"/>
<path d="M261.287,123.142v -37.6737" fill="none" stroke="#c10020"/>
<path d="M253.728,123.142h 7.55905" fill="none" stroke="#c10020"/>
<path d="M261.287,123.142h 7.55905" fill="none" stroke="#c10020"/>
<g stroke="black" stroke-width="1" fill="none">
<line x1="260.287" y1="123.142" x2="261.287" y2="123.142"/>
</g>
<path d="M276.406,201.414v -33.6964" fill="none" stroke="#c10020"/>
<path d="M276.406,167.718v -33.6964" fill="none" stroke="#c10020"/>
<path d="M268.846,167.718h 7.55905" fill="none" stroke="#c10020"/>
<path d="M276.406,167.718h 7.55905" fill="none" stroke="#c10020"/>
<g stroke="black" stroke-width="1" fill="none">
<line x1="275.406" y1="167.718" x2="276.406" y2="167.718"/>
</g>
<path d="M291.524,297.094v -21.1203" fill="none" stroke="#c10020"/>
<path d="M291.524,275.974v -21.1203" fill="none" stroke="#c10020"/>
<path d="M283.965,275.974h 7.55905" fill="none" stroke="#c10020"/>
<path d="M291.524,275.974h 7.55905" fill="none" stroke="#c10020"/>
<g stroke="black" stroke-width="1" fill="none">
<line x1="290.524" y1="275.974" x2="291.524" y2="275.974"/>
</g>
<path d="M306.642,313.09v -18.0115" fill="none" stroke="#c10020"/>
<path d="M306.642,295.078v -18.0115" fill="none" stroke="#c10020"/>
<path d="M299.083,295.078h 7.55905" fill="none" stroke="#c10020"/>
<path d="M306.642,295.078h 7.55905" fill="none" stroke="#c10020"/>
<g stroke="black" stroke-width="1" fill="none">
<line x1="305.642" y1="295.078" x2="306.642" y2="295.078"/>
</g>
<path d="M321.76,337.948v -11.0297" fill="none" stroke="#c10020"/>
<path d="M321.76,326.918v -11.0297" fill="none" stroke="#c10020"/>
<path d="M314.201,326.918h 7.55905" fill="none" stroke="#c10020"/>
<path d="M321.76,326.918h 7.55905" fill="none" stroke="#c10020"/>
<g stroke="black" stroke-width="1" fill="none">
<line x1="320.76" y1="326.918" x2="321.76" y2="326.918"/>
</g>
<g stroke="black" stroke-width="1" fill="none">
<line x1="335.878" y1="346.022" x2="336.878" y2="346.022"/>
</g>
<g stroke="black" stroke-width="1" fill="none">
<line x1="350.996" y1="346.022" x2="351.996" y2="346.022"/>
</g>
<g stroke="black" stroke-width="1" fill="none">
<line x1="366.114" y1="346.022" x2="367.114" y2="346.022"/>
</g>
<g stroke="black" stroke-width="1" fill="none">
<line x1="381.232" y1="346.022" x2="382.232" y2="346.022"/>
</g>
<g stroke="black" stroke-width="1" fill="none">
<line x1="396.35" y1="346.022" x2="397.35" y2="346.022"/>
</g>
<g stroke="black" stroke-width="1" fill="none">
<line x1="411.469" y1="346.022" x2="412.469" y2="346.022"/>
</g>
<g stroke="black" stroke-width="1" fill="none">
<line x1="426.587" y1="346.022" x2="427.587" y2="346.022"/>
</g>
<g stroke="black" stroke-width="1" fill="none">
<line x1="441.705" y1="346.022" x2="442.705" y2="346.022"/>
</g>
<g stroke="black" stroke-width="1" fill="none">
<line x1="456.823" y1="346.022" x2="457.823" y2="346.022"/>
</g>
<g stroke="black" stroke-width="1" fill="none">
<line x1="471.941" y1="346.022" x2="472.941" y2="346.022"/>
</g>
<g stroke="black" stroke-width="1" fill="none">
<line x1="487.059" y1="346.022" x2="488.059" y2="346.022"/>
</g>
<g stroke="black" stroke-width="1" fill="none">
<line x1="502.177" y1="346.022" x2="503.177" y2="346.022"/>
</g>
<path d="M59.4606,346.022h 54.4252l 4.53543, -0.0377326l 4.53543, -0.0331983l 4.53543, -0.0593665l 4.53543, -0.103596l 4.53543, -0.176389l 4.53543, -0.293l 4.53543, -0.474753l 4.53543, -0.75024l 4.53543, -1.15606l 4.53543, -1.73666l 4.53543,
 -2.54267l 4.53543, -3.62723l 4.53543, -5.03987l 4.53543, -6.81773l 4.53543, -8.97464l 4.53543, -11.4891l 4.53543, -14.2928l 4.53543, -17.2623l 4.53543, -20.2164l 4.53543, -22.9217l 4.53543, -25.1079l 4.53543, -26.4922l 4.53543, -26.8129l 4.53543,
 -25.8647l 4.53543, -23.5344l 4.53543, -19.8273l 4.53543, -14.8804l 4.53543, -8.95879l 4.53543, -2.43296l 4.53543, 4.25914l 4.53543, 10.6608l 4.53543, 16.348l 4.53543, 20.9759l 4.53543, 24.3133l 4.53543, 26.2596l 4.53543, 26.8439l 4.53543, 26.208"
 fill="none" stroke="#c10020" stroke-width="2"/>
<path d="M281.697,209.974l 4.53543, 24.576l 4.53543, 22.2193l 4.53543, 19.42l 4.53543, 16.4404l 4.53543, 13.5008l 4.53543, 10.7666l 4.53543, 8.34564l 4.53543, 6.29229l 4.53543, 4.61721l 4.53543, 3.29898l 4.53543, 2.29605l 4.53543, 1.55716l 4.53543,
 1.02934l 4.53543, 0.663384l 4.53543, 0.41691l 4.53543, 0.255549l 4.53543, 0.152801l 4.53543, 0.0891387l 4.53543, 0.0507393l 4.53543, 0.0281846l 4.53543, 0.0316055h 126.992" fill="none" stroke="#c10020" stroke-width="2"/>
<path d="M503.933,346.022h 4.53543" fill="none" stroke="#c10020" stroke-width="2"/>
<rect x="351.996" y="24.9905" width="204.094" height="76.8938" fill="white"/>
<path d="M351.996,101.884h 204.094" fill="none" stroke="black"/>
<path d="M556.091,101.884v -76.8938" fill="none" stroke="black"/>
<path d="M556.091,24.9905h -204.094" fill="none" stroke="black"/>
<path d="M351.996,24.9905v 76.8938" fill="none" stroke="black"/>
<text xml:space="preserve" x="377.638" y="39.0986" fill="black" font-size="16.7253" font-family="Helvetica"> / ndf </text>
<text xml:space="preserve" x="371.122" y="34.2112" fill="black" font-size="11.3169" font-family="Helvetica">2</text>
<text xml:space="preserve" x="362.162" y="39.0986" fill="black" font-size="16.7253" font-family="Times">&#0967;</text>
<text xml:space="preserve" x="468.868" y="40.7277" fill="black" font-size="16.7253" font-family="Helvetica"> 7.085 / 10</text>
<text xml:space="preserve" x="362.162" y="60.2769" fill="black" font-size="16.7253" font-family="Helvetica">Constant </text>
<text xml:space="preserve" x="509.596" y="60.2769" fill="black" font-size="16.7253" font-family="Helvetica"> 3.85</text>
<text xml:space="preserve" x="500.636" y="60.2769" fill="black" font-size="16.7253" font-family="Times">&#0177;</text>
<text xml:space="preserve" x="450.133" y="60.2769" fill="black" font-size="16.7253" font-family="Helvetica"> 45.85 </text>
<text xml:space="preserve" x="362.162" y="79.0117" fill="black" font-size="16.7253" font-family="Helvetica">Mean     </text>
<text xml:space="preserve" x="518.556" y="79.0117" fill="black" font-size="16.7253" font-family="Helvetica"> 2.8</text>
<text xml:space="preserve" x="509.596" y="79.0117" fill="black" font-size="16.7253" font-family="Times">&#0177;</text>
<text xml:space="preserve" x="459.094" y="79.0117" fill="black" font-size="16.7253" font-family="Helvetica"> 248.2 </text>
<text xml:space="preserve" x="362.162" y="96.9318" fill="black" font-size="16.7253" font-family="Helvetica">Sigma    </text>
<text xml:space="preserve" x="512.039" y="98.561" fill="black" font-size="16.7253" font-family="Helvetica"> 2.11</text>
<text xml:space="preserve" x="503.079" y="98.561" fill="black" font-size="16.7253" font-family="Times">&#0177;</text>
<text xml:space="preserve" x="455.021" y="98.561" fill="black" font-size="16.7253" font-family="Helvetica"> 39.51 </text>
<text xml:space="preserve" x="243.237" y="17.9202" fill="black" font-size="18.7938" font-family="Helvetica">vop 69.13</text></svg>
