<?xml version="1.0" standalone="no"?>
<svg width="567.429" height="384.969" viewBox="0 0 567.429 384.969" xmlns="http://www.w3.org/2000/svg" shape-rendering="crispEdges">
<title>
./new_vop/vop_graphs/vop69.03.svg
</title>
<desc>
Creator: ROOT Version 6.24/00
CreationDate: Mon Jul 19 21:24:19 2021</desc>
<defs>
</defs>
<rect x="0.5" y="0" width="566.929" height="384.469" fill="white"/>
<rect x="57.1929" y="38.4469" width="453.543" height="307.575" fill="white"/>
<rect x="57.1929" y="38.4469" width="453.543" height="307.575" fill="none" stroke="black"/>
<path d="M57.1929,346.022h 105.827v -6.65747h 15.1181v -6.65747h 15.1181v -39.9448h 15.1181v -33.2874h 15.1181v -46.6023h 15.1181v -66.5747h 15.1181v -13.3149h 15.1181v -79.8897h 15.1181v 119.835h 15.1181v 79.8897h 15.1181v 39.9448h 15.1181v 19.9724h
 15.1181v 26.6299h 15.1181v 6.65747h 15.1181v -13.3149h 15.1181v 13.3149h 90.7087v -6.65747h 15.1181v 6.65747h 15.1181" fill="none" stroke="#ff6800"/>
<path d="M59.4606,346.022h 58.9606l 4.53543, -0.0391374l 4.53543, -0.0286343l 4.53543, -0.0475049l 4.53543, -0.0773296l 4.53543, -0.123502l 4.53543, -0.193501l 4.53543, -0.297394l 4.53543, -0.448302l 4.53543, -0.662744l 4.53543, -0.960717l 4.53543,
 -1.36537l 4.53543, -1.90209l 4.53543, -2.59684l 4.53543, -3.47367l 4.53543, -4.55133l 4.53543, -5.83914l 4.53543, -7.33247l 4.53543, -9.00819l 4.53543, -10.8208l 4.53543, -12.7004l 4.53543, -14.5521l 4.53543, -16.2595l 4.53543, -17.6903l 4.53543,
 -18.7061l 4.53543, -19.1745l 4.53543, -18.9824l 4.53543, -18.0503l 4.53543, -16.3438l 4.53543, -13.8828l 4.53543, -10.7439l 4.53543, -7.05885l 4.53543, -3.00507l 4.53543, 1.20795l 4.53543, 5.35679l 4.53543, 9.22369l 4.53543, 12.6154" fill="none"
 stroke="#ff6800" stroke-width="2"/>
<path d="M281.697,137.507l 4.53543, 15.3794l 4.53543, 17.4146l 4.53543, 18.6771l 4.53543, 19.1787l 4.53543, 18.9809l 4.53543, 18.184l 4.53543, 16.914l 4.53543, 15.3082l 4.53543, 13.5029l 4.53543, 11.6223l 4.53543, 9.77097l 4.53543, 8.02967l 4.53543,
 6.4542l 4.53543, 5.07685l 4.53543, 3.90965l 4.53543, 2.94869l 4.53543, 2.1787l 4.53543, 1.57746l 4.53543, 1.11946l 4.53543, 0.778804l 4.53543, 0.531246l 4.53543, 0.355364l 4.53543, 0.233141l 4.53543, 0.150032l 4.53543, 0.0947134l 4.53543, 0.0586603l
 4.53543, 0.0356466l 4.53543, 0.0496171h 95.2441" fill="none" stroke="#ff6800" stroke-width="2"/>
<path d="M503.933,346.022h 4.53543" fill="none" stroke="#ff6800" stroke-width="2"/>
<path d="M57.1929,346.022h 453.543" fill="none" stroke="black"/>
<path d="M57.1929,336.795v 9.22726" fill="none" stroke="black"/>
<path d="M72.311,341.409v 4.61363" fill="none" stroke="black"/>
<path d="M87.4291,341.409v 4.61363" fill="none" stroke="black"/>
<path d="M102.547,341.409v 4.61363" fill="none" stroke="black"/>
<path d="M117.665,341.409v 4.61363" fill="none" stroke="black"/>
<path d="M132.783,336.795v 9.22726" fill="none" stroke="black"/>
<path d="M147.902,341.409v 4.61363" fill="none" stroke="black"/>
<path d="M163.02,341.409v 4.61363" fill="none" stroke="black"/>
<path d="M178.138,341.409v 4.61363" fill="none" stroke="black"/>
<path d="M193.256,341.409v 4.61363" fill="none" stroke="black"/>
<path d="M208.374,336.795v 9.22726" fill="none" stroke="black"/>
<path d="M223.492,341.409v 4.61363" fill="none" stroke="black"/>
<path d="M238.61,341.409v 4.61363" fill="none" stroke="black"/>
<path d="M253.728,341.409v 4.61363" fill="none" stroke="black"/>
<path d="M268.846,341.409v 4.61363" fill="none" stroke="black"/>
<path d="M283.965,336.795v 9.22726" fill="none" stroke="black"/>
<path d="M299.083,341.409v 4.61363" fill="none" stroke="black"/>
<path d="M314.201,341.409v 4.61363" fill="none" stroke="black"/>
<path d="M329.319,341.409v 4.61363" fill="none" stroke="black"/>
<path d="M344.437,341.409v 4.61363" fill="none" stroke="black"/>
<path d="M359.555,336.795v 9.22726" fill="none" stroke="black"/>
<path d="M374.673,341.409v 4.61363" fill="none" stroke="black"/>
<path d="M389.791,341.409v 4.61363" fill="none" stroke="black"/>
<path d="M404.909,341.409v 4.61363" fill="none" stroke="black"/>
<path d="M420.028,341.409v 4.61363" fill="none" stroke="black"/>
<path d="M435.146,336.795v 9.22726" fill="none" stroke="black"/>
<path d="M450.264,341.409v 4.61363" fill="none" stroke="black"/>
<path d="M465.382,341.409v 4.61363" fill="none" stroke="black"/>
<path d="M480.5,341.409v 4.61363" fill="none" stroke="black"/>
<path d="M495.618,341.409v 4.61363" fill="none" stroke="black"/>
<path d="M510.736,336.795v 9.22726" fill="none" stroke="black"/>
<text xml:space="preserve" x="53.446" y="358.403" fill="black" font-size="12.8453" font-family="Helvetica">0</text>
<text xml:space="preserve" x="121.868" y="358.403" fill="black" font-size="12.8453" font-family="Helvetica">100</text>
<text xml:space="preserve" x="197.622" y="358.403" fill="black" font-size="12.8453" font-family="Helvetica">200</text>
<text xml:space="preserve" x="273.375" y="358.403" fill="black" font-size="12.8453" font-family="Helvetica">300</text>
<text xml:space="preserve" x="348.314" y="358.403" fill="black" font-size="12.8453" font-family="Helvetica">400</text>
<text xml:space="preserve" x="424.068" y="358.403" fill="black" font-size="12.8453" font-family="Helvetica">500</text>
<text xml:space="preserve" x="499.821" y="358.403" fill="black" font-size="12.8453" font-family="Helvetica">600</text>
<text xml:space="preserve" x="486.788" y="369.807" fill="black" font-size="12.8453" font-family="Helvetica">mpv</text>
<path d="M57.1929,346.022v -307.575" fill="none" stroke="black"/>
<path d="M70.7992,346.022h -13.6063" fill="none" stroke="black"/>
<path d="M63.9961,339.365h -6.80315" fill="none" stroke="black"/>
<path d="M63.9961,332.707h -6.80315" fill="none" stroke="black"/>
<path d="M63.9961,326.05h -6.80315" fill="none" stroke="black"/>
<path d="M63.9961,319.392h -6.80315" fill="none" stroke="black"/>
<path d="M70.7992,312.735h -13.6063" fill="none" stroke="black"/>
<path d="M63.9961,306.077h -6.80315" fill="none" stroke="black"/>
<path d="M63.9961,299.42h -6.80315" fill="none" stroke="black"/>
<path d="M63.9961,292.762h -6.80315" fill="none" stroke="black"/>
<path d="M63.9961,286.105h -6.80315" fill="none" stroke="black"/>
<path d="M70.7992,279.448h -13.6063" fill="none" stroke="black"/>
<path d="M63.9961,272.79h -6.80315" fill="none" stroke="black"/>
<path d="M63.9961,266.133h -6.80315" fill="none" stroke="black"/>
<path d="M63.9961,259.475h -6.80315" fill="none" stroke="black"/>
<path d="M63.9961,252.818h -6.80315" fill="none" stroke="black"/>
<path d="M70.7992,246.16h -13.6063" fill="none" stroke="black"/>
<path d="M63.9961,239.503h -6.80315" fill="none" stroke="black"/>
<path d="M63.9961,232.845h -6.80315" fill="none" stroke="black"/>
<path d="M63.9961,226.188h -6.80315" fill="none" stroke="black"/>
<path d="M63.9961,219.53h -6.80315" fill="none" stroke="black"/>
<path d="M70.7992,212.873h -13.6063" fill="none" stroke="black"/>
<path d="M63.9961,206.215h -6.80315" fill="none" stroke="black"/>
<path d="M63.9961,199.558h -6.80315" fill="none" stroke="black"/>
<path d="M63.9961,192.9h -6.80315" fill="none" stroke="black"/>
<path d="M63.9961,186.243h -6.80315" fill="none" stroke="black"/>
<path d="M70.7992,179.585h -13.6063" fill="none" stroke="black"/>
<path d="M63.9961,172.928h -6.80315" fill="none" stroke="black"/>
<path d="M63.9961,166.27h -6.80315" fill="none" stroke="black"/>
<path d="M63.9961,159.613h -6.80315" fill="none" stroke="black"/>
<path d="M63.9961,152.955h -6.80315" fill="none" stroke="black"/>
<path d="M70.7992,146.298h -13.6063" fill="none" stroke="black"/>
<path d="M63.9961,139.641h -6.80315" fill="none" stroke="black"/>
<path d="M63.9961,132.983h -6.80315" fill="none" stroke="black"/>
<path d="M63.9961,126.326h -6.80315" fill="none" stroke="black"/>
<path d="M63.9961,119.668h -6.80315" fill="none" stroke="black"/>
<path d="M70.7992,113.011h -13.6063" fill="none" stroke="black"/>
<path d="M63.9961,106.353h -6.80315" fill="none" stroke="black"/>
<path d="M63.9961,99.6957h -6.80315" fill="none" stroke="black"/>
<path d="M63.9961,93.0382h -6.80315" fill="none" stroke="black"/>
<path d="M63.9961,86.3807h -6.80315" fill="none" stroke="black"/>
<path d="M70.7992,79.7233h -13.6063" fill="none" stroke="black"/>
<path d="M63.9961,73.0658h -6.80315" fill="none" stroke="black"/>
<path d="M63.9961,66.4083h -6.80315" fill="none" stroke="black"/>
<path d="M63.9961,59.7508h -6.80315" fill="none" stroke="black"/>
<path d="M63.9961,53.0934h -6.80315" fill="none" stroke="black"/>
<path d="M70.7992,46.4359h -13.6063" fill="none" stroke="black"/>
<path d="M70.7992,46.4359h -13.6063" fill="none" stroke="black"/>
<path d="M63.9961,39.7784h -6.80315" fill="none" stroke="black"/>
<text xml:space="preserve" x="47.7441" y="350.258" fill="black" font-size="12.8453" font-family="Helvetica">0</text>
<text xml:space="preserve" x="47.7441" y="316.861" fill="black" font-size="12.8453" font-family="Helvetica">5</text>
<text xml:space="preserve" x="41.2277" y="284.279" fill="black" font-size="12.8453" font-family="Helvetica">10</text>
<text xml:space="preserve" x="40.4131" y="250.882" fill="black" font-size="12.8453" font-family="Helvetica">15</text>
<text xml:space="preserve" x="41.2277" y="217.486" fill="black" font-size="12.8453" font-family="Helvetica">20</text>
<text xml:space="preserve" x="40.4131" y="184.089" fill="black" font-size="12.8453" font-family="Helvetica">25</text>
<text xml:space="preserve" x="41.2277" y="150.692" fill="black" font-size="12.8453" font-family="Helvetica">30</text>
<text xml:space="preserve" x="40.4131" y="117.296" fill="black" font-size="12.8453" font-family="Helvetica">35</text>
<text xml:space="preserve" x="41.2277" y="83.899" fill="black" font-size="12.8453" font-family="Helvetica">40</text>
<text xml:space="preserve" x="40.4131" y="51.3169" fill="black" font-size="12.8453" font-family="Helvetica">45</text>
<g transform="rotate(-90,27.3803,86.3427)">
<text xml:space="preserve" x="27.3803" y="86.3427" fill="black" font-size="12.8453" font-family="Helvetica">n_blocks</text>
</g>
<text xml:space="preserve" x="243.237" y="17.9202" fill="black" font-size="18.7938" font-family="Helvetica">vop 69.03</text>
<rect x="351.996" y="24.9905" width="204.094" height="76.8938" fill="white"/>
<path d="M351.996,101.884h 204.094" fill="none" stroke="black"/>
<path d="M556.091,101.884v -76.8938" fill="none" stroke="black"/>
<path d="M556.091,24.9905h -204.094" fill="none" stroke="black"/>
<path d="M351.996,24.9905v 76.8938" fill="none" stroke="black"/>
<text xml:space="preserve" x="377.638" y="39.0986" fill="black" font-size="16.7253" font-family="Helvetica"> / ndf </text>
<text xml:space="preserve" x="371.122" y="34.2112" fill="black" font-size="11.3169" font-family="Helvetica">2</text>
<text xml:space="preserve" x="362.162" y="39.0986" fill="black" font-size="16.7253" font-family="Times">&#0967;</text>
<text xml:space="preserve" x="472.941" y="40.7277" fill="black" font-size="16.7253" font-family="Helvetica">  7.41 / 12</text>
<text xml:space="preserve" x="362.162" y="60.2769" fill="black" font-size="16.7253" font-family="Helvetica">Constant </text>
<text xml:space="preserve" x="518.556" y="60.2769" fill="black" font-size="16.7253" font-family="Helvetica"> 3.2</text>
<text xml:space="preserve" x="509.596" y="60.2769" fill="black" font-size="16.7253" font-family="Times">&#0177;</text>
<text xml:space="preserve" x="463.166" y="60.2769" fill="black" font-size="16.7253" font-family="Helvetica">  35.6 </text>
<text xml:space="preserve" x="362.162" y="79.0117" fill="black" font-size="16.7253" font-family="Helvetica">Mean     </text>
<text xml:space="preserve" x="518.556" y="79.0117" fill="black" font-size="16.7253" font-family="Helvetica"> 3.2</text>
<text xml:space="preserve" x="509.596" y="79.0117" fill="black" font-size="16.7253" font-family="Times">&#0177;</text>
<text xml:space="preserve" x="459.094" y="79.0117" fill="black" font-size="16.7253" font-family="Helvetica"> 274.3 </text>
<text xml:space="preserve" x="362.162" y="96.9318" fill="black" font-size="16.7253" font-family="Helvetica">Sigma    </text>
<text xml:space="preserve" x="509.596" y="98.561" fill="black" font-size="16.7253" font-family="Helvetica"> 2.56</text>
<text xml:space="preserve" x="500.636" y="98.561" fill="black" font-size="16.7253" font-family="Times">&#0177;</text>
<text xml:space="preserve" x="450.133" y="98.561" fill="black" font-size="16.7253" font-family="Helvetica"> 44.88 </text>
<g stroke="black" stroke-width="1" fill="none">
<line x1="63.752" y1="346.022" x2="64.752" y2="346.022"/>
</g>
<g stroke="black" stroke-width="1" fill="none">
<line x1="78.8701" y1="346.022" x2="79.8701" y2="346.022"/>
</g>
<g stroke="black" stroke-width="1" fill="none">
<line x1="93.9882" y1="346.022" x2="94.9882" y2="346.022"/>
</g>
<g stroke="black" stroke-width="1" fill="none">
<line x1="109.106" y1="346.022" x2="110.106" y2="346.022"/>
</g>
<g stroke="black" stroke-width="1" fill="none">
<line x1="124.224" y1="346.022" x2="125.224" y2="346.022"/>
</g>
<g stroke="black" stroke-width="1" fill="none">
<line x1="139.343" y1="346.022" x2="140.343" y2="346.022"/>
</g>
<g stroke="black" stroke-width="1" fill="none">
<line x1="154.461" y1="346.022" x2="155.461" y2="346.022"/>
</g>
<path d="M170.579,346.022v -6.65747" fill="none" stroke="#ff6800"/>
<path d="M170.579,339.365v -6.65747" fill="none" stroke="#ff6800"/>
<path d="M163.02,339.365h 7.55905" fill="none" stroke="#ff6800"/>
<path d="M170.579,339.365h 7.55905" fill="none" stroke="#ff6800"/>
<g stroke="black" stroke-width="1" fill="none">
<line x1="169.579" y1="339.365" x2="170.579" y2="339.365"/>
</g>
<path d="M185.697,342.122v -9.41509" fill="none" stroke="#ff6800"/>
<path d="M185.697,332.707v -9.41509" fill="none" stroke="#ff6800"/>
<path d="M178.138,332.707h 7.55905" fill="none" stroke="#ff6800"/>
<path d="M185.697,332.707h 7.55905" fill="none" stroke="#ff6800"/>
<g stroke="black" stroke-width="1" fill="none">
<line x1="184.697" y1="332.707" x2="185.697" y2="332.707"/>
</g>
<path d="M200.815,311.593v -18.8302" fill="none" stroke="#ff6800"/>
<path d="M200.815,292.762v -18.8302" fill="none" stroke="#ff6800"/>
<path d="M193.256,292.762h 7.55905" fill="none" stroke="#ff6800"/>
<path d="M200.815,292.762h 7.55905" fill="none" stroke="#ff6800"/>
<g stroke="black" stroke-width="1" fill="none">
<line x1="199.815" y1="292.762" x2="200.815" y2="292.762"/>
</g>
<path d="M215.933,283.479v -24.0039" fill="none" stroke="#ff6800"/>
<path d="M215.933,259.475v -24.0039" fill="none" stroke="#ff6800"/>
<path d="M208.374,259.475h 7.55905" fill="none" stroke="#ff6800"/>
<path d="M215.933,259.475h 7.55905" fill="none" stroke="#ff6800"/>
<g stroke="black" stroke-width="1" fill="none">
<line x1="214.933" y1="259.475" x2="215.933" y2="259.475"/>
</g>
<path d="M231.051,242.646v -29.7731" fill="none" stroke="#ff6800"/>
<path d="M231.051,212.873v -29.7731" fill="none" stroke="#ff6800"/>
<path d="M223.492,212.873h 7.55905" fill="none" stroke="#ff6800"/>
<path d="M231.051,212.873h 7.55905" fill="none" stroke="#ff6800"/>
<g stroke="black" stroke-width="1" fill="none">
<line x1="230.051" y1="212.873" x2="231.051" y2="212.873"/>
</g>
<path d="M246.169,182.762v -36.4645" fill="none" stroke="#ff6800"/>
<path d="M246.169,146.298v -36.4645" fill="none" stroke="#ff6800"/>
<path d="M238.61,146.298h 7.55905" fill="none" stroke="#ff6800"/>
<path d="M246.169,146.298h 7.55905" fill="none" stroke="#ff6800"/>
<g stroke="black" stroke-width="1" fill="none">
<line x1="245.169" y1="146.298" x2="246.169" y2="146.298"/>
</g>
<path d="M261.287,170.643v -37.6604" fill="none" stroke="#ff6800"/>
<path d="M261.287,132.983v -37.6604" fill="none" stroke="#ff6800"/>
<path d="M253.728,132.983h 7.55905" fill="none" stroke="#ff6800"/>
<path d="M261.287,132.983h 7.55905" fill="none" stroke="#ff6800"/>
<g stroke="black" stroke-width="1" fill="none">
<line x1="260.287" y1="132.983" x2="261.287" y2="132.983"/>
</g>
<path d="M276.406,97.2541v -44.1607" fill="none" stroke="#ff6800"/>
<path d="M276.406,53.0934v -14.6464" fill="none" stroke="#ff6800"/>
<path d="M268.846,53.0934h 7.55905" fill="none" stroke="#ff6800"/>
<path d="M276.406,53.0934h 7.55905" fill="none" stroke="#ff6800"/>
<g stroke="black" stroke-width="1" fill="none">
<line x1="275.406" y1="53.0934" x2="276.406" y2="53.0934"/>
</g>
<path d="M291.524,206.875v -33.9466" fill="none" stroke="#ff6800"/>
<path d="M291.524,172.928v -33.9466" fill="none" stroke="#ff6800"/>
<path d="M283.965,172.928h 7.55905" fill="none" stroke="#ff6800"/>
<path d="M291.524,172.928h 7.55905" fill="none" stroke="#ff6800"/>
<g stroke="black" stroke-width="1" fill="none">
<line x1="290.524" y1="172.928" x2="291.524" y2="172.928"/>
</g>
<path d="M306.642,277.728v -24.91" fill="none" stroke="#ff6800"/>
<path d="M306.642,252.818v -24.91" fill="none" stroke="#ff6800"/>
<path d="M299.083,252.818h 7.55905" fill="none" stroke="#ff6800"/>
<path d="M306.642,252.818h 7.55905" fill="none" stroke="#ff6800"/>
<g stroke="black" stroke-width="1" fill="none">
<line x1="305.642" y1="252.818" x2="306.642" y2="252.818"/>
</g>
<path d="M321.76,311.593v -18.8302" fill="none" stroke="#ff6800"/>
<path d="M321.76,292.762v -18.8302" fill="none" stroke="#ff6800"/>
<path d="M314.201,292.762h 7.55905" fill="none" stroke="#ff6800"/>
<path d="M321.76,292.762h 7.55905" fill="none" stroke="#ff6800"/>
<g stroke="black" stroke-width="1" fill="none">
<line x1="320.76" y1="292.762" x2="321.76" y2="292.762"/>
</g>
<path d="M336.878,327.621v -14.8866" fill="none" stroke="#ff6800"/>
<path d="M336.878,312.735v -14.8866" fill="none" stroke="#ff6800"/>
<path d="M329.319,312.735h 7.55905" fill="none" stroke="#ff6800"/>
<path d="M336.878,312.735h 7.55905" fill="none" stroke="#ff6800"/>
<g stroke="black" stroke-width="1" fill="none">
<line x1="335.878" y1="312.735" x2="336.878" y2="312.735"/>
</g>
<path d="M351.996,346.022v -6.65747" fill="none" stroke="#ff6800"/>
<path d="M351.996,339.365v -6.65747" fill="none" stroke="#ff6800"/>
<path d="M344.437,339.365h 7.55905" fill="none" stroke="#ff6800"/>
<path d="M351.996,339.365h 7.55905" fill="none" stroke="#ff6800"/>
<g stroke="black" stroke-width="1" fill="none">
<line x1="350.996" y1="339.365" x2="351.996" y2="339.365"/>
</g>
<g stroke="black" stroke-width="1" fill="none">
<line x1="366.114" y1="346.022" x2="367.114" y2="346.022"/>
</g>
<path d="M382.232,342.122v -9.41509" fill="none" stroke="#ff6800"/>
<path d="M382.232,332.707v -9.41509" fill="none" stroke="#ff6800"/>
<path d="M374.673,332.707h 7.55905" fill="none" stroke="#ff6800"/>
<path d="M382.232,332.707h 7.55905" fill="none" stroke="#ff6800"/>
<g stroke="black" stroke-width="1" fill="none">
<line x1="381.232" y1="332.707" x2="382.232" y2="332.707"/>
</g>
<g stroke="black" stroke-width="1" fill="none">
<line x1="396.35" y1="346.022" x2="397.35" y2="346.022"/>
</g>
<g stroke="black" stroke-width="1" fill="none">
<line x1="411.469" y1="346.022" x2="412.469" y2="346.022"/>
</g>
<g stroke="black" stroke-width="1" fill="none">
<line x1="426.587" y1="346.022" x2="427.587" y2="346.022"/>
</g>
<g stroke="black" stroke-width="1" fill="none">
<line x1="441.705" y1="346.022" x2="442.705" y2="346.022"/>
</g>
<g stroke="black" stroke-width="1" fill="none">
<line x1="456.823" y1="346.022" x2="457.823" y2="346.022"/>
</g>
<g stroke="black" stroke-width="1" fill="none">
<line x1="471.941" y1="346.022" x2="472.941" y2="346.022"/>
</g>
<path d="M488.059,346.022v -6.65747" fill="none" stroke="#ff6800"/>
<path d="M488.059,339.365v -6.65747" fill="none" stroke="#ff6800"/>
<path d="M480.5,339.365h 7.55905" fill="none" stroke="#ff6800"/>
<path d="M488.059,339.365h 7.55905" fill="none" stroke="#ff6800"/>
<g stroke="black" stroke-width="1" fill="none">
<line x1="487.059" y1="339.365" x2="488.059" y2="339.365"/>
</g>
<g stroke="black" stroke-width="1" fill="none">
<line x1="502.177" y1="346.022" x2="503.177" y2="346.022"/>
</g>
<path d="M59.4606,346.022h 58.9606l 4.53543, -0.0391374l 4.53543, -0.0286343l 4.53543, -0.0475049l 4.53543, -0.0773296l 4.53543, -0.123502l 4.53543, -0.193501l 4.53543, -0.297394l 4.53543, -0.448302l 4.53543, -0.662744l 4.53543, -0.960717l 4.53543,
 -1.36537l 4.53543, -1.90209l 4.53543, -2.59684l 4.53543, -3.47367l 4.53543, -4.55133l 4.53543, -5.83914l 4.53543, -7.33247l 4.53543, -9.00819l 4.53543, -10.8208l 4.53543, -12.7004l 4.53543, -14.5521l 4.53543, -16.2595l 4.53543, -17.6903l 4.53543,
 -18.7061l 4.53543, -19.1745l 4.53543, -18.9824l 4.53543, -18.0503l 4.53543, -16.3438l 4.53543, -13.8828l 4.53543, -10.7439l 4.53543, -7.05885l 4.53543, -3.00507l 4.53543, 1.20795l 4.53543, 5.35679l 4.53543, 9.22369l 4.53543, 12.6154" fill="none"
 stroke="#ff6800" stroke-width="2"/>
<path d="M281.697,137.507l 4.53543, 15.3794l 4.53543, 17.4146l 4.53543, 18.6771l 4.53543, 19.1787l 4.53543, 18.9809l 4.53543, 18.184l 4.53543, 16.914l 4.53543, 15.3082l 4.53543, 13.5029l 4.53543, 11.6223l 4.53543, 9.77097l 4.53543, 8.02967l 4.53543,
 6.4542l 4.53543, 5.07685l 4.53543, 3.90965l 4.53543, 2.94869l 4.53543, 2.1787l 4.53543, 1.57746l 4.53543, 1.11946l 4.53543, 0.778804l 4.53543, 0.531246l 4.53543, 0.355364l 4.53543, 0.233141l 4.53543, 0.150032l 4.53543, 0.0947134l 4.53543, 0.0586603l
 4.53543, 0.0356466l 4.53543, 0.0496171h 95.2441" fill="none" stroke="#ff6800" stroke-width="2"/>
<path d="M503.933,346.022h 4.53543" fill="none" stroke="#ff6800" stroke-width="2"/>
<rect x="351.996" y="24.9905" width="204.094" height="76.8938" fill="white"/>
<path d="M351.996,101.884h 204.094" fill="none" stroke="black"/>
<path d="M556.091,101.884v -76.8938" fill="none" stroke="black"/>
<path d="M556.091,24.9905h -204.094" fill="none" stroke="black"/>
<path d="M351.996,24.9905v 76.8938" fill="none" stroke="black"/>
<text xml:space="preserve" x="377.638" y="39.0986" fill="black" font-size="16.7253" font-family="Helvetica"> / ndf </text>
<text xml:space="preserve" x="371.122" y="34.2112" fill="black" font-size="11.3169" font-family="Helvetica">2</text>
<text xml:space="preserve" x="362.162" y="39.0986" fill="black" font-size="16.7253" font-family="Times">&#0967;</text>
<text xml:space="preserve" x="472.941" y="40.7277" fill="black" font-size="16.7253" font-family="Helvetica">  7.41 / 12</text>
<text xml:space="preserve" x="362.162" y="60.2769" fill="black" font-size="16.7253" font-family="Helvetica">Constant </text>
<text xml:space="preserve" x="518.556" y="60.2769" fill="black" font-size="16.7253" font-family="Helvetica"> 3.2</text>
<text xml:space="preserve" x="509.596" y="60.2769" fill="black" font-size="16.7253" font-family="Times">&#0177;</text>
<text xml:space="preserve" x="463.166" y="60.2769" fill="black" font-size="16.7253" font-family="Helvetica">  35.6 </text>
<text xml:space="preserve" x="362.162" y="79.0117" fill="black" font-size="16.7253" font-family="Helvetica">Mean     </text>
<text xml:space="preserve" x="518.556" y="79.0117" fill="black" font-size="16.7253" font-family="Helvetica"> 3.2</text>
<text xml:space="preserve" x="509.596" y="79.0117" fill="black" font-size="16.7253" font-family="Times">&#0177;</text>
<text xml:space="preserve" x="459.094" y="79.0117" fill="black" font-size="16.7253" font-family="Helvetica"> 274.3 </text>
<text xml:space="preserve" x="362.162" y="96.9318" fill="black" font-size="16.7253" font-family="Helvetica">Sigma    </text>
<text xml:space="preserve" x="509.596" y="98.561" fill="black" font-size="16.7253" font-family="Helvetica"> 2.56</text>
<text xml:space="preserve" x="500.636" y="98.561" fill="black" font-size="16.7253" font-family="Times">&#0177;</text>
<text xml:space="preserve" x="450.133" y="98.561" fill="black" font-size="16.7253" font-family="Helvetica"> 44.88 </text>
<text xml:space="preserve" x="243.237" y="17.9202" fill="black" font-size="18.7938" font-family="Helvetica">vop 69.03</text></svg>
