<?xml version="1.0" standalone="no"?>
<svg width="567.429" height="384.969" viewBox="0 0 567.429 384.969" xmlns="http://www.w3.org/2000/svg" shape-rendering="crispEdges">
<title>
./new_vop/vop_graphs/vop69.08.svg
</title>
<desc>
Creator: ROOT Version 6.22/02
CreationDate: Sat Jun 26 00:59:46 2021</desc>
<defs>
</defs>
<rect x="0.5" y="0" width="566.929" height="384.469" fill="white"/>
<rect x="57.1929" y="38.4469" width="453.543" height="307.575" fill="white"/>
<rect x="57.1929" y="38.4469" width="453.543" height="307.575" fill="none" stroke="black"/>
<path d="M57.1929,337.653h 15.1181v 8.3694h 60.4724v -8.3694h 30.2362v 8.3694h 15.1181v -16.7388h 15.1181v -41.847h 15.1181v -92.0634h 15.1181v -92.0634h 30.2362v -50.2164h 15.1181v 25.1082h 15.1181v 33.4776h 15.1181v 92.0634h 15.1181v 8.3694h
 15.1181v 25.1082h 15.1181v 16.7388h 15.1181v 75.3246h 15.1181v 16.7388h 136.063" fill="none" stroke="#a6bdd7"/>
<path d="M59.4606,346.022h 31.748l 4.53543, -0.0411587l 4.53543, -0.0234699l 4.53543, -0.0356589l 4.53543, -0.0535022l 4.53543, -0.0792696l 4.53543, -0.115972l 4.53543, -0.167529l 4.53543, -0.238943l 4.53543, -0.336466l 4.53543, -0.467738l 4.53543,
 -0.641872l 4.53543, -0.869453l 4.53543, -1.1624l 4.53543, -1.5337l 4.53543, -1.99688l 4.53543, -2.56529l 4.53543, -3.25116l 4.53543, -4.06434l 4.53543, -5.01091l 4.53543, -6.0916l 4.53543, -7.30022l 4.53543, -8.62211l 4.53543, -10.033l 4.53543,
 -11.4981l 4.53543, -12.972l 4.53543, -14.3996l 4.53543, -15.717l 4.53543, -16.8547l 4.53543, -17.7406l 4.53543, -18.3041l 4.53543, -18.4812l 4.53543, -18.2186l 4.53543, -17.4791l 4.53543, -16.2451l 4.53543, -14.5217l 4.53543, -12.3383l 4.53543,
 -9.74828l 4.53543, -6.82716l 4.53543, -3.66923l 4.53543, -0.382392l 4.53543, 2.91795l 4.53543, 6.11558" fill="none" stroke="#a6bdd7" stroke-width="2"/>
<path d="M281.697,74.9561l 4.53543, 9.10031l 4.53543, 11.7742l 4.53543, 14.0571l 4.53543, 15.8901l 4.53543, 17.2383l 4.53543, 18.0912l 4.53543, 18.4612l 4.53543, 18.3815l 4.53543, 17.9017l 4.53543, 17.0842l 4.53543, 15.9981l 4.53543, 14.7159l
 4.53543, 13.3078l 4.53543, 11.8393l 4.53543, 10.3678l 4.53543, 8.94093l 4.53543, 7.59597l 4.53543, 6.35958l 4.53543, 5.24853l 4.53543, 4.27084l 4.53543, 3.42725l 4.53543, 2.71276l 4.53543, 2.11825l 4.53543, 1.63195l 4.53543, 1.24066l 4.53543,
 0.930804l 4.53543, 0.689239l 4.53543, 0.503761l 4.53543, 0.36346l 4.53543, 0.258878l 4.53543, 0.182042l 4.53543, 0.126389l 4.53543, 0.086643l 4.53543, 0.0586494l 4.53543, 0.039203l 4.53543, 0.0258774l 4.53543, 0.0457242h 54.4252" fill="none"
 stroke="#a6bdd7" stroke-width="2"/>
<path d="M503.933,346.022h 4.53543" fill="none" stroke="#a6bdd7" stroke-width="2"/>
<path d="M57.1929,346.022h 453.543" fill="none" stroke="black"/>
<path d="M57.1929,336.795v 9.22726" fill="none" stroke="black"/>
<path d="M72.311,341.409v 4.61363" fill="none" stroke="black"/>
<path d="M87.4291,341.409v 4.61363" fill="none" stroke="black"/>
<path d="M102.547,341.409v 4.61363" fill="none" stroke="black"/>
<path d="M117.665,341.409v 4.61363" fill="none" stroke="black"/>
<path d="M132.783,336.795v 9.22726" fill="none" stroke="black"/>
<path d="M147.902,341.409v 4.61363" fill="none" stroke="black"/>
<path d="M163.02,341.409v 4.61363" fill="none" stroke="black"/>
<path d="M178.138,341.409v 4.61363" fill="none" stroke="black"/>
<path d="M193.256,341.409v 4.61363" fill="none" stroke="black"/>
<path d="M208.374,336.795v 9.22726" fill="none" stroke="black"/>
<path d="M223.492,341.409v 4.61363" fill="none" stroke="black"/>
<path d="M238.61,341.409v 4.61363" fill="none" stroke="black"/>
<path d="M253.728,341.409v 4.61363" fill="none" stroke="black"/>
<path d="M268.846,341.409v 4.61363" fill="none" stroke="black"/>
<path d="M283.965,336.795v 9.22726" fill="none" stroke="black"/>
<path d="M299.083,341.409v 4.61363" fill="none" stroke="black"/>
<path d="M314.201,341.409v 4.61363" fill="none" stroke="black"/>
<path d="M329.319,341.409v 4.61363" fill="none" stroke="black"/>
<path d="M344.437,341.409v 4.61363" fill="none" stroke="black"/>
<path d="M359.555,336.795v 9.22726" fill="none" stroke="black"/>
<path d="M374.673,341.409v 4.61363" fill="none" stroke="black"/>
<path d="M389.791,341.409v 4.61363" fill="none" stroke="black"/>
<path d="M404.909,341.409v 4.61363" fill="none" stroke="black"/>
<path d="M420.028,341.409v 4.61363" fill="none" stroke="black"/>
<path d="M435.146,336.795v 9.22726" fill="none" stroke="black"/>
<path d="M450.264,341.409v 4.61363" fill="none" stroke="black"/>
<path d="M465.382,341.409v 4.61363" fill="none" stroke="black"/>
<path d="M480.5,341.409v 4.61363" fill="none" stroke="black"/>
<path d="M495.618,341.409v 4.61363" fill="none" stroke="black"/>
<path d="M510.736,336.795v 9.22726" fill="none" stroke="black"/>
<text xml:space="preserve" x="53.446" y="358.403" fill="black" font-size="12.8453" font-family="Helvetica">0</text>
<text xml:space="preserve" x="121.868" y="358.403" fill="black" font-size="12.8453" font-family="Helvetica">100</text>
<text xml:space="preserve" x="197.622" y="358.403" fill="black" font-size="12.8453" font-family="Helvetica">200</text>
<text xml:space="preserve" x="273.375" y="358.403" fill="black" font-size="12.8453" font-family="Helvetica">300</text>
<text xml:space="preserve" x="348.314" y="358.403" fill="black" font-size="12.8453" font-family="Helvetica">400</text>
<text xml:space="preserve" x="424.068" y="358.403" fill="black" font-size="12.8453" font-family="Helvetica">500</text>
<text xml:space="preserve" x="499.821" y="358.403" fill="black" font-size="12.8453" font-family="Helvetica">600</text>
<text xml:space="preserve" x="486.788" y="369.807" fill="black" font-size="12.8453" font-family="Helvetica">mpv</text>
<path d="M57.1929,346.022v -307.575" fill="none" stroke="black"/>
<path d="M70.7992,346.022h -13.6063" fill="none" stroke="black"/>
<path d="M63.9961,337.653h -6.80315" fill="none" stroke="black"/>
<path d="M63.9961,329.283h -6.80315" fill="none" stroke="black"/>
<path d="M63.9961,320.914h -6.80315" fill="none" stroke="black"/>
<path d="M63.9961,312.545h -6.80315" fill="none" stroke="black"/>
<path d="M70.7992,304.175h -13.6063" fill="none" stroke="black"/>
<path d="M63.9961,295.806h -6.80315" fill="none" stroke="black"/>
<path d="M63.9961,287.436h -6.80315" fill="none" stroke="black"/>
<path d="M63.9961,279.067h -6.80315" fill="none" stroke="black"/>
<path d="M63.9961,270.698h -6.80315" fill="none" stroke="black"/>
<path d="M70.7992,262.328h -13.6063" fill="none" stroke="black"/>
<path d="M63.9961,253.959h -6.80315" fill="none" stroke="black"/>
<path d="M63.9961,245.589h -6.80315" fill="none" stroke="black"/>
<path d="M63.9961,237.22h -6.80315" fill="none" stroke="black"/>
<path d="M63.9961,228.851h -6.80315" fill="none" stroke="black"/>
<path d="M70.7992,220.481h -13.6063" fill="none" stroke="black"/>
<path d="M63.9961,212.112h -6.80315" fill="none" stroke="black"/>
<path d="M63.9961,203.743h -6.80315" fill="none" stroke="black"/>
<path d="M63.9961,195.373h -6.80315" fill="none" stroke="black"/>
<path d="M63.9961,187.004h -6.80315" fill="none" stroke="black"/>
<path d="M70.7992,178.634h -13.6063" fill="none" stroke="black"/>
<path d="M63.9961,170.265h -6.80315" fill="none" stroke="black"/>
<path d="M63.9961,161.896h -6.80315" fill="none" stroke="black"/>
<path d="M63.9961,153.526h -6.80315" fill="none" stroke="black"/>
<path d="M63.9961,145.157h -6.80315" fill="none" stroke="black"/>
<path d="M70.7992,136.787h -13.6063" fill="none" stroke="black"/>
<path d="M63.9961,128.418h -6.80315" fill="none" stroke="black"/>
<path d="M63.9961,120.049h -6.80315" fill="none" stroke="black"/>
<path d="M63.9961,111.679h -6.80315" fill="none" stroke="black"/>
<path d="M63.9961,103.31h -6.80315" fill="none" stroke="black"/>
<path d="M70.7992,94.9403h -13.6063" fill="none" stroke="black"/>
<path d="M63.9961,86.571h -6.80315" fill="none" stroke="black"/>
<path d="M63.9961,78.2016h -6.80315" fill="none" stroke="black"/>
<path d="M63.9961,69.8322h -6.80315" fill="none" stroke="black"/>
<path d="M63.9961,61.4628h -6.80315" fill="none" stroke="black"/>
<path d="M70.7992,53.0934h -13.6063" fill="none" stroke="black"/>
<path d="M70.7992,53.0934h -13.6063" fill="none" stroke="black"/>
<path d="M63.9961,44.724h -6.80315" fill="none" stroke="black"/>
<text xml:space="preserve" x="47.7441" y="350.258" fill="black" font-size="12.8453" font-family="Helvetica">0</text>
<text xml:space="preserve" x="47.7441" y="308.716" fill="black" font-size="12.8453" font-family="Helvetica">5</text>
<text xml:space="preserve" x="41.2277" y="267.173" fill="black" font-size="12.8453" font-family="Helvetica">10</text>
<text xml:space="preserve" x="40.4131" y="224.817" fill="black" font-size="12.8453" font-family="Helvetica">15</text>
<text xml:space="preserve" x="41.2277" y="183.275" fill="black" font-size="12.8453" font-family="Helvetica">20</text>
<text xml:space="preserve" x="40.4131" y="140.918" fill="black" font-size="12.8453" font-family="Helvetica">25</text>
<text xml:space="preserve" x="41.2277" y="99.3755" fill="black" font-size="12.8453" font-family="Helvetica">30</text>
<text xml:space="preserve" x="40.4131" y="57.8333" fill="black" font-size="12.8453" font-family="Helvetica">35</text>
<g transform="rotate(-90,27.3803,86.3427)">
<text xml:space="preserve" x="27.3803" y="86.3427" fill="black" font-size="12.8453" font-family="Helvetica">n_blocks</text>
</g>
<text xml:space="preserve" x="242.422" y="17.9202" fill="black" font-size="18.7938" font-family="Helvetica">vop 69.08</text>
<rect x="351.996" y="24.9905" width="204.094" height="76.8938" fill="white"/>
<path d="M351.996,101.884h 204.094" fill="none" stroke="black"/>
<path d="M556.091,101.884v -76.8938" fill="none" stroke="black"/>
<path d="M556.091,24.9905h -204.094" fill="none" stroke="black"/>
<path d="M351.996,24.9905v 76.8938" fill="none" stroke="black"/>
<text xml:space="preserve" x="377.638" y="39.0986" fill="black" font-size="16.7253" font-family="Helvetica"> / ndf </text>
<text xml:space="preserve" x="371.122" y="34.2112" fill="black" font-size="11.3169" font-family="Helvetica">2</text>
<text xml:space="preserve" x="362.162" y="39.0986" fill="black" font-size="16.7253" font-family="Times">&#0967;</text>
<text xml:space="preserve" x="468.868" y="40.7277" fill="black" font-size="16.7253" font-family="Helvetica"> 13.87 / 13</text>
<text xml:space="preserve" x="362.162" y="60.2769" fill="black" font-size="16.7253" font-family="Helvetica">Constant </text>
<text xml:space="preserve" x="518.556" y="60.2769" fill="black" font-size="16.7253" font-family="Helvetica"> 2.8</text>
<text xml:space="preserve" x="509.596" y="60.2769" fill="black" font-size="16.7253" font-family="Times">&#0177;</text>
<text xml:space="preserve" x="463.166" y="60.2769" fill="black" font-size="16.7253" font-family="Helvetica">  33.5 </text>
<text xml:space="preserve" x="362.162" y="79.0117" fill="black" font-size="16.7253" font-family="Helvetica">Mean     </text>
<text xml:space="preserve" x="521" y="79.0117" fill="black" font-size="16.7253" font-family="Helvetica"> 4.1</text>
<text xml:space="preserve" x="512.039" y="79.0117" fill="black" font-size="16.7253" font-family="Times">&#0177;</text>
<text xml:space="preserve" x="461.537" y="79.0117" fill="black" font-size="16.7253" font-family="Helvetica"> 282.7 </text>
<text xml:space="preserve" x="362.162" y="96.9318" fill="black" font-size="16.7253" font-family="Helvetica">Sigma    </text>
<text xml:space="preserve" x="509.596" y="98.561" fill="black" font-size="16.7253" font-family="Helvetica"> 3.19</text>
<text xml:space="preserve" x="500.636" y="98.561" fill="black" font-size="16.7253" font-family="Times">&#0177;</text>
<text xml:space="preserve" x="450.133" y="98.561" fill="black" font-size="16.7253" font-family="Helvetica"> 55.15 </text>
<path d="M64.752,346.022v -8.3694" fill="none" stroke="#a6bdd7"/>
<path d="M64.752,337.653v -8.3694" fill="none" stroke="#a6bdd7"/>
<path d="M57.1929,337.653h 7.55905" fill="none" stroke="#a6bdd7"/>
<path d="M64.752,337.653h 7.55905" fill="none" stroke="#a6bdd7"/>
<g stroke="black" stroke-width="1" fill="none">
<line x1="63.752" y1="337.653" x2="64.752" y2="337.653"/>
</g>
<g stroke="black" stroke-width="1" fill="none">
<line x1="78.8701" y1="346.022" x2="79.8701" y2="346.022"/>
</g>
<g stroke="black" stroke-width="1" fill="none">
<line x1="93.9882" y1="346.022" x2="94.9882" y2="346.022"/>
</g>
<g stroke="black" stroke-width="1" fill="none">
<line x1="109.106" y1="346.022" x2="110.106" y2="346.022"/>
</g>
<g stroke="black" stroke-width="1" fill="none">
<line x1="124.224" y1="346.022" x2="125.224" y2="346.022"/>
</g>
<path d="M140.343,346.022v -8.3694" fill="none" stroke="#a6bdd7"/>
<path d="M140.343,337.653v -8.3694" fill="none" stroke="#a6bdd7"/>
<path d="M132.783,337.653h 7.55905" fill="none" stroke="#a6bdd7"/>
<path d="M140.343,337.653h 7.55905" fill="none" stroke="#a6bdd7"/>
<g stroke="black" stroke-width="1" fill="none">
<line x1="139.343" y1="337.653" x2="140.343" y2="337.653"/>
</g>
<path d="M155.461,346.022v -8.3694" fill="none" stroke="#a6bdd7"/>
<path d="M155.461,337.653v -8.3694" fill="none" stroke="#a6bdd7"/>
<path d="M147.902,337.653h 7.55905" fill="none" stroke="#a6bdd7"/>
<path d="M155.461,337.653h 7.55905" fill="none" stroke="#a6bdd7"/>
<g stroke="black" stroke-width="1" fill="none">
<line x1="154.461" y1="337.653" x2="155.461" y2="337.653"/>
</g>
<g stroke="black" stroke-width="1" fill="none">
<line x1="169.579" y1="346.022" x2="170.579" y2="346.022"/>
</g>
<path d="M185.697,341.12v -11.8361" fill="none" stroke="#a6bdd7"/>
<path d="M185.697,329.283v -11.8361" fill="none" stroke="#a6bdd7"/>
<path d="M178.138,329.283h 7.55905" fill="none" stroke="#a6bdd7"/>
<path d="M185.697,329.283h 7.55905" fill="none" stroke="#a6bdd7"/>
<g stroke="black" stroke-width="1" fill="none">
<line x1="184.697" y1="329.283" x2="185.697" y2="329.283"/>
</g>
<path d="M200.815,309.58v -22.1433" fill="none" stroke="#a6bdd7"/>
<path d="M200.815,287.436v -22.1433" fill="none" stroke="#a6bdd7"/>
<path d="M193.256,287.436h 7.55905" fill="none" stroke="#a6bdd7"/>
<path d="M200.815,287.436h 7.55905" fill="none" stroke="#a6bdd7"/>
<g stroke="black" stroke-width="1" fill="none">
<line x1="199.815" y1="287.436" x2="200.815" y2="287.436"/>
</g>
<path d="M215.933,230.881v -35.5083" fill="none" stroke="#a6bdd7"/>
<path d="M215.933,195.373v -35.5083" fill="none" stroke="#a6bdd7"/>
<path d="M208.374,195.373h 7.55905" fill="none" stroke="#a6bdd7"/>
<path d="M215.933,195.373h 7.55905" fill="none" stroke="#a6bdd7"/>
<g stroke="black" stroke-width="1" fill="none">
<line x1="214.933" y1="195.373" x2="215.933" y2="195.373"/>
</g>
<path d="M231.051,148.38v -45.0706" fill="none" stroke="#a6bdd7"/>
<path d="M231.051,103.31v -45.0706" fill="none" stroke="#a6bdd7"/>
<path d="M223.492,103.31h 7.55905" fill="none" stroke="#a6bdd7"/>
<path d="M231.051,103.31h 7.55905" fill="none" stroke="#a6bdd7"/>
<g stroke="black" stroke-width="1" fill="none">
<line x1="230.051" y1="103.31" x2="231.051" y2="103.31"/>
</g>
<path d="M246.169,148.38v -45.0706" fill="none" stroke="#a6bdd7"/>
<path d="M246.169,103.31v -45.0706" fill="none" stroke="#a6bdd7"/>
<path d="M238.61,103.31h 7.55905" fill="none" stroke="#a6bdd7"/>
<path d="M246.169,103.31h 7.55905" fill="none" stroke="#a6bdd7"/>
<g stroke="black" stroke-width="1" fill="none">
<line x1="245.169" y1="103.31" x2="246.169" y2="103.31"/>
</g>
<path d="M261.287,102.607v -49.514" fill="none" stroke="#a6bdd7"/>
<path d="M261.287,53.0934v -14.6464" fill="none" stroke="#a6bdd7"/>
<path d="M253.728,53.0934h 7.55905" fill="none" stroke="#a6bdd7"/>
<path d="M261.287,53.0934h 7.55905" fill="none" stroke="#a6bdd7"/>
<g stroke="black" stroke-width="1" fill="none">
<line x1="260.287" y1="53.0934" x2="261.287" y2="53.0934"/>
</g>
<path d="M276.406,125.546v -47.3445" fill="none" stroke="#a6bdd7"/>
<path d="M276.406,78.2016v -39.7546" fill="none" stroke="#a6bdd7"/>
<path d="M268.846,78.2016h 7.55905" fill="none" stroke="#a6bdd7"/>
<path d="M276.406,78.2016h 7.55905" fill="none" stroke="#a6bdd7"/>
<g stroke="black" stroke-width="1" fill="none">
<line x1="275.406" y1="78.2016" x2="276.406" y2="78.2016"/>
</g>
<path d="M291.524,155.966v -44.2867" fill="none" stroke="#a6bdd7"/>
<path d="M291.524,111.679v -44.2867" fill="none" stroke="#a6bdd7"/>
<path d="M283.965,111.679h 7.55905" fill="none" stroke="#a6bdd7"/>
<path d="M291.524,111.679h 7.55905" fill="none" stroke="#a6bdd7"/>
<g stroke="black" stroke-width="1" fill="none">
<line x1="290.524" y1="111.679" x2="291.524" y2="111.679"/>
</g>
<path d="M306.642,238.25v -34.5079" fill="none" stroke="#a6bdd7"/>
<path d="M306.642,203.743v -34.5079" fill="none" stroke="#a6bdd7"/>
<path d="M299.083,203.743h 7.55905" fill="none" stroke="#a6bdd7"/>
<path d="M306.642,203.743h 7.55905" fill="none" stroke="#a6bdd7"/>
<g stroke="black" stroke-width="1" fill="none">
<line x1="305.642" y1="203.743" x2="306.642" y2="203.743"/>
</g>
<path d="M321.76,245.589v -33.4776" fill="none" stroke="#a6bdd7"/>
<path d="M321.76,212.112v -33.4776" fill="none" stroke="#a6bdd7"/>
<path d="M314.201,212.112h 7.55905" fill="none" stroke="#a6bdd7"/>
<path d="M321.76,212.112h 7.55905" fill="none" stroke="#a6bdd7"/>
<g stroke="black" stroke-width="1" fill="none">
<line x1="320.76" y1="212.112" x2="321.76" y2="212.112"/>
</g>
<path d="M336.878,267.396v -30.1763" fill="none" stroke="#a6bdd7"/>
<path d="M336.878,237.22v -30.1763" fill="none" stroke="#a6bdd7"/>
<path d="M329.319,237.22h 7.55905" fill="none" stroke="#a6bdd7"/>
<path d="M336.878,237.22h 7.55905" fill="none" stroke="#a6bdd7"/>
<g stroke="black" stroke-width="1" fill="none">
<line x1="335.878" y1="237.22" x2="336.878" y2="237.22"/>
</g>
<path d="M351.996,281.717v -27.7582" fill="none" stroke="#a6bdd7"/>
<path d="M351.996,253.959v -27.7582" fill="none" stroke="#a6bdd7"/>
<path d="M344.437,253.959h 7.55905" fill="none" stroke="#a6bdd7"/>
<path d="M351.996,253.959h 7.55905" fill="none" stroke="#a6bdd7"/>
<g stroke="black" stroke-width="1" fill="none">
<line x1="350.996" y1="253.959" x2="351.996" y2="253.959"/>
</g>
<path d="M367.114,341.12v -11.8361" fill="none" stroke="#a6bdd7"/>
<path d="M367.114,329.283v -11.8361" fill="none" stroke="#a6bdd7"/>
<path d="M359.555,329.283h 7.55905" fill="none" stroke="#a6bdd7"/>
<path d="M367.114,329.283h 7.55905" fill="none" stroke="#a6bdd7"/>
<g stroke="black" stroke-width="1" fill="none">
<line x1="366.114" y1="329.283" x2="367.114" y2="329.283"/>
</g>
<g stroke="black" stroke-width="1" fill="none">
<line x1="381.232" y1="346.022" x2="382.232" y2="346.022"/>
</g>
<g stroke="black" stroke-width="1" fill="none">
<line x1="396.35" y1="346.022" x2="397.35" y2="346.022"/>
</g>
<g stroke="black" stroke-width="1" fill="none">
<line x1="411.469" y1="346.022" x2="412.469" y2="346.022"/>
</g>
<g stroke="black" stroke-width="1" fill="none">
<line x1="426.587" y1="346.022" x2="427.587" y2="346.022"/>
</g>
<g stroke="black" stroke-width="1" fill="none">
<line x1="441.705" y1="346.022" x2="442.705" y2="346.022"/>
</g>
<g stroke="black" stroke-width="1" fill="none">
<line x1="456.823" y1="346.022" x2="457.823" y2="346.022"/>
</g>
<g stroke="black" stroke-width="1" fill="none">
<line x1="471.941" y1="346.022" x2="472.941" y2="346.022"/>
</g>
<g stroke="black" stroke-width="1" fill="none">
<line x1="487.059" y1="346.022" x2="488.059" y2="346.022"/>
</g>
<g stroke="black" stroke-width="1" fill="none">
<line x1="502.177" y1="346.022" x2="503.177" y2="346.022"/>
</g>
<path d="M59.4606,346.022h 31.748l 4.53543, -0.0411587l 4.53543, -0.0234699l 4.53543, -0.0356589l 4.53543, -0.0535022l 4.53543, -0.0792696l 4.53543, -0.115972l 4.53543, -0.167529l 4.53543, -0.238943l 4.53543, -0.336466l 4.53543, -0.467738l 4.53543,
 -0.641872l 4.53543, -0.869453l 4.53543, -1.1624l 4.53543, -1.5337l 4.53543, -1.99688l 4.53543, -2.56529l 4.53543, -3.25116l 4.53543, -4.06434l 4.53543, -5.01091l 4.53543, -6.0916l 4.53543, -7.30022l 4.53543, -8.62211l 4.53543, -10.033l 4.53543,
 -11.4981l 4.53543, -12.972l 4.53543, -14.3996l 4.53543, -15.717l 4.53543, -16.8547l 4.53543, -17.7406l 4.53543, -18.3041l 4.53543, -18.4812l 4.53543, -18.2186l 4.53543, -17.4791l 4.53543, -16.2451l 4.53543, -14.5217l 4.53543, -12.3383l 4.53543,
 -9.74828l 4.53543, -6.82716l 4.53543, -3.66923l 4.53543, -0.382392l 4.53543, 2.91795l 4.53543, 6.11558" fill="none" stroke="#a6bdd7" stroke-width="2"/>
<path d="M281.697,74.9561l 4.53543, 9.10031l 4.53543, 11.7742l 4.53543, 14.0571l 4.53543, 15.8901l 4.53543, 17.2383l 4.53543, 18.0912l 4.53543, 18.4612l 4.53543, 18.3815l 4.53543, 17.9017l 4.53543, 17.0842l 4.53543, 15.9981l 4.53543, 14.7159l
 4.53543, 13.3078l 4.53543, 11.8393l 4.53543, 10.3678l 4.53543, 8.94093l 4.53543, 7.59597l 4.53543, 6.35958l 4.53543, 5.24853l 4.53543, 4.27084l 4.53543, 3.42725l 4.53543, 2.71276l 4.53543, 2.11825l 4.53543, 1.63195l 4.53543, 1.24066l 4.53543,
 0.930804l 4.53543, 0.689239l 4.53543, 0.503761l 4.53543, 0.36346l 4.53543, 0.258878l 4.53543, 0.182042l 4.53543, 0.126389l 4.53543, 0.086643l 4.53543, 0.0586494l 4.53543, 0.039203l 4.53543, 0.0258774l 4.53543, 0.0457242h 54.4252" fill="none"
 stroke="#a6bdd7" stroke-width="2"/>
<path d="M503.933,346.022h 4.53543" fill="none" stroke="#a6bdd7" stroke-width="2"/>
<rect x="351.996" y="24.9905" width="204.094" height="76.8938" fill="white"/>
<path d="M351.996,101.884h 204.094" fill="none" stroke="black"/>
<path d="M556.091,101.884v -76.8938" fill="none" stroke="black"/>
<path d="M556.091,24.9905h -204.094" fill="none" stroke="black"/>
<path d="M351.996,24.9905v 76.8938" fill="none" stroke="black"/>
<text xml:space="preserve" x="377.638" y="39.0986" fill="black" font-size="16.7253" font-family="Helvetica"> / ndf </text>
<text xml:space="preserve" x="371.122" y="34.2112" fill="black" font-size="11.3169" font-family="Helvetica">2</text>
<text xml:space="preserve" x="362.162" y="39.0986" fill="black" font-size="16.7253" font-family="Times">&#0967;</text>
<text xml:space="preserve" x="468.868" y="40.7277" fill="black" font-size="16.7253" font-family="Helvetica"> 13.87 / 13</text>
<text xml:space="preserve" x="362.162" y="60.2769" fill="black" font-size="16.7253" font-family="Helvetica">Constant </text>
<text xml:space="preserve" x="518.556" y="60.2769" fill="black" font-size="16.7253" font-family="Helvetica"> 2.8</text>
<text xml:space="preserve" x="509.596" y="60.2769" fill="black" font-size="16.7253" font-family="Times">&#0177;</text>
<text xml:space="preserve" x="463.166" y="60.2769" fill="black" font-size="16.7253" font-family="Helvetica">  33.5 </text>
<text xml:space="preserve" x="362.162" y="79.0117" fill="black" font-size="16.7253" font-family="Helvetica">Mean     </text>
<text xml:space="preserve" x="521" y="79.0117" fill="black" font-size="16.7253" font-family="Helvetica"> 4.1</text>
<text xml:space="preserve" x="512.039" y="79.0117" fill="black" font-size="16.7253" font-family="Times">&#0177;</text>
<text xml:space="preserve" x="461.537" y="79.0117" fill="black" font-size="16.7253" font-family="Helvetica"> 282.7 </text>
<text xml:space="preserve" x="362.162" y="96.9318" fill="black" font-size="16.7253" font-family="Helvetica">Sigma    </text>
<text xml:space="preserve" x="509.596" y="98.561" fill="black" font-size="16.7253" font-family="Helvetica"> 3.19</text>
<text xml:space="preserve" x="500.636" y="98.561" fill="black" font-size="16.7253" font-family="Times">&#0177;</text>
<text xml:space="preserve" x="450.133" y="98.561" fill="black" font-size="16.7253" font-family="Helvetica"> 55.15 </text>
<text xml:space="preserve" x="242.422" y="17.9202" fill="black" font-size="18.7938" font-family="Helvetica">vop 69.08</text></svg>
