<?xml version="1.0" standalone="no"?>
<svg width="567.429" height="384.969" viewBox="0 0 567.429 384.969" xmlns="http://www.w3.org/2000/svg" shape-rendering="crispEdges">
<title>
./new_vop/vop_graphs/vop_mpv_discrete_tim.svg
</title>
<desc>
Creator: ROOT Version 6.24/00
CreationDate: Wed Jun 16 22:18:42 2021</desc>
<defs>
</defs>
<rect x="0.5" y="0" width="566.929" height="384.469" fill="white"/>
<rect x="57.1929" y="38.4469" width="453.543" height="307.575" fill="white"/>
<rect x="57.1929" y="38.4469" width="453.543" height="307.575" fill="none" stroke="black"/>
<path d="M57.1929,346.022h 453.543" fill="none" stroke="#000099"/>
<path d="M57.1929,346.022h 453.543" fill="none" stroke="black"/>
<text xml:space="preserve" x="91.73" y="356.774" fill="black" font-size="8.73015" font-family="Helvetica">A</text>
<text xml:space="preserve" x="166.669" y="356.774" fill="black" font-size="8.73015" font-family="Helvetica">B</text>
<text xml:space="preserve" x="242.422" y="356.774" fill="black" font-size="8.73015" font-family="Helvetica">C</text>
<text xml:space="preserve" x="318.176" y="356.774" fill="black" font-size="8.73015" font-family="Helvetica">D</text>
<text xml:space="preserve" x="393.929" y="356.774" fill="black" font-size="8.73015" font-family="Helvetica">G</text>
<text xml:space="preserve" x="469.683" y="356.774" fill="black" font-size="8.73015" font-family="Helvetica">H</text>
<path d="M57.1929,336.795v 9.22726" fill="none" stroke="black"/>
<path d="M132.783,336.795v 9.22726" fill="none" stroke="black"/>
<path d="M208.374,336.795v 9.22726" fill="none" stroke="black"/>
<path d="M283.965,336.795v 9.22726" fill="none" stroke="black"/>
<path d="M359.555,336.795v 9.22726" fill="none" stroke="black"/>
<path d="M435.146,336.795v 9.22726" fill="none" stroke="black"/>
<path d="M510.736,336.795v 9.22726" fill="none" stroke="black"/>
<text xml:space="preserve" x="447.69" y="372.251" fill="black" font-size="12.8453" font-family="Helvetica">PCB Series</text>
<path d="M57.1929,346.022v -307.575" fill="none" stroke="black"/>
<path d="M57.1929,346.022z" fill="none" stroke="black"/>
<path d="M57.1929,331.376z" fill="none" stroke="black"/>
<path d="M57.1929,316.729z" fill="none" stroke="black"/>
<path d="M57.1929,302.083z" fill="none" stroke="black"/>
<path d="M57.1929,287.436z" fill="none" stroke="black"/>
<path d="M57.1929,272.79z" fill="none" stroke="black"/>
<path d="M57.1929,258.144z" fill="none" stroke="black"/>
<path d="M57.1929,243.497z" fill="none" stroke="black"/>
<path d="M57.1929,228.851z" fill="none" stroke="black"/>
<path d="M57.1929,214.204z" fill="none" stroke="black"/>
<path d="M57.1929,199.558z" fill="none" stroke="black"/>
<path d="M57.1929,184.911z" fill="none" stroke="black"/>
<path d="M57.1929,170.265z" fill="none" stroke="black"/>
<path d="M57.1929,155.618z" fill="none" stroke="black"/>
<path d="M57.1929,140.972z" fill="none" stroke="black"/>
<path d="M57.1929,126.326z" fill="none" stroke="black"/>
<path d="M57.1929,111.679z" fill="none" stroke="black"/>
<path d="M57.1929,97.0327z" fill="none" stroke="black"/>
<path d="M57.1929,82.3863z" fill="none" stroke="black"/>
<path d="M57.1929,67.7398z" fill="none" stroke="black"/>
<path d="M57.1929,53.0934z" fill="none" stroke="black"/>
<path d="M57.1929,53.0934z" fill="none" stroke="black"/>
<text xml:space="preserve" x="123.498" y="18.7347" fill="black" font-size="18.7938" font-family="Helvetica">Mean Block MPV by SiPM PCB Series</text>
<text xml:space="preserve" x="123.498" y="18.7347" fill="black" font-size="18.7938" font-family="Helvetica">Mean Block MPV by SiPM PCB Series</text></svg>
