<?xml version="1.0" standalone="no"?>
<svg width="567.429" height="384.969" viewBox="0 0 567.429 384.969" xmlns="http://www.w3.org/2000/svg" shape-rendering="crispEdges">
<title>
./new_vop/vop_graphs/vop_stacked.svg
</title>
<desc>
Creator: ROOT Version 6.24/00
CreationDate: Wed Jun 23 15:10:14 2021</desc>
<defs>
</defs>
<rect x="0.5" y="0" width="566.929" height="384.469" fill="white"/>
<rect x="57.1929" y="38.4469" width="453.543" height="307.575" fill="white"/>
<rect x="57.1929" y="38.4469" width="453.543" height="307.575" fill="none" stroke="black"/>
<path d="M57.1929,346.022h 453.543" fill="none" stroke="#000099"/>
<path d="M57.1929,346.022h 453.543" fill="none" stroke="black"/>
<path d="M57.1929,336.795v 9.22726" fill="none" stroke="black"/>
<path d="M72.311,341.409v 4.61363" fill="none" stroke="black"/>
<path d="M87.4291,341.409v 4.61363" fill="none" stroke="black"/>
<path d="M102.547,341.409v 4.61363" fill="none" stroke="black"/>
<path d="M117.665,341.409v 4.61363" fill="none" stroke="black"/>
<path d="M132.783,336.795v 9.22726" fill="none" stroke="black"/>
<path d="M147.902,341.409v 4.61363" fill="none" stroke="black"/>
<path d="M163.02,341.409v 4.61363" fill="none" stroke="black"/>
<path d="M178.138,341.409v 4.61363" fill="none" stroke="black"/>
<path d="M193.256,341.409v 4.61363" fill="none" stroke="black"/>
<path d="M208.374,336.795v 9.22726" fill="none" stroke="black"/>
<path d="M223.492,341.409v 4.61363" fill="none" stroke="black"/>
<path d="M238.61,341.409v 4.61363" fill="none" stroke="black"/>
<path d="M253.728,341.409v 4.61363" fill="none" stroke="black"/>
<path d="M268.846,341.409v 4.61363" fill="none" stroke="black"/>
<path d="M283.965,336.795v 9.22726" fill="none" stroke="black"/>
<path d="M299.083,341.409v 4.61363" fill="none" stroke="black"/>
<path d="M314.201,341.409v 4.61363" fill="none" stroke="black"/>
<path d="M329.319,341.409v 4.61363" fill="none" stroke="black"/>
<path d="M344.437,341.409v 4.61363" fill="none" stroke="black"/>
<path d="M359.555,336.795v 9.22726" fill="none" stroke="black"/>
<path d="M374.673,341.409v 4.61363" fill="none" stroke="black"/>
<path d="M389.791,341.409v 4.61363" fill="none" stroke="black"/>
<path d="M404.909,341.409v 4.61363" fill="none" stroke="black"/>
<path d="M420.028,341.409v 4.61363" fill="none" stroke="black"/>
<path d="M435.146,336.795v 9.22726" fill="none" stroke="black"/>
<path d="M450.264,341.409v 4.61363" fill="none" stroke="black"/>
<path d="M465.382,341.409v 4.61363" fill="none" stroke="black"/>
<path d="M480.5,341.409v 4.61363" fill="none" stroke="black"/>
<path d="M495.618,341.409v 4.61363" fill="none" stroke="black"/>
<path d="M510.736,336.795v 9.22726" fill="none" stroke="black"/>
<text xml:space="preserve" x="53.446" y="358.403" fill="black" font-size="12.8453" font-family="Helvetica">0</text>
<text xml:space="preserve" x="121.868" y="358.403" fill="black" font-size="12.8453" font-family="Helvetica">100</text>
<text xml:space="preserve" x="197.622" y="358.403" fill="black" font-size="12.8453" font-family="Helvetica">200</text>
<text xml:space="preserve" x="273.375" y="358.403" fill="black" font-size="12.8453" font-family="Helvetica">300</text>
<text xml:space="preserve" x="348.314" y="358.403" fill="black" font-size="12.8453" font-family="Helvetica">400</text>
<text xml:space="preserve" x="424.068" y="358.403" fill="black" font-size="12.8453" font-family="Helvetica">500</text>
<text xml:space="preserve" x="499.821" y="358.403" fill="black" font-size="12.8453" font-family="Helvetica">600</text>
<path d="M57.1929,346.022v -307.575" fill="none" stroke="black"/>
<path d="M70.7992,346.022h -13.6063" fill="none" stroke="black"/>
<path d="M63.9961,333.817h -6.80315" fill="none" stroke="black"/>
<path d="M63.9961,321.612h -6.80315" fill="none" stroke="black"/>
<path d="M63.9961,309.406h -6.80315" fill="none" stroke="black"/>
<path d="M63.9961,297.201h -6.80315" fill="none" stroke="black"/>
<path d="M70.7992,284.995h -13.6063" fill="none" stroke="black"/>
<path d="M63.9961,272.79h -6.80315" fill="none" stroke="black"/>
<path d="M63.9961,260.585h -6.80315" fill="none" stroke="black"/>
<path d="M63.9961,248.379h -6.80315" fill="none" stroke="black"/>
<path d="M63.9961,236.174h -6.80315" fill="none" stroke="black"/>
<path d="M70.7992,223.969h -13.6063" fill="none" stroke="black"/>
<path d="M63.9961,211.763h -6.80315" fill="none" stroke="black"/>
<path d="M63.9961,199.558h -6.80315" fill="none" stroke="black"/>
<path d="M63.9961,187.352h -6.80315" fill="none" stroke="black"/>
<path d="M63.9961,175.147h -6.80315" fill="none" stroke="black"/>
<path d="M70.7992,162.942h -13.6063" fill="none" stroke="black"/>
<path d="M63.9961,150.736h -6.80315" fill="none" stroke="black"/>
<path d="M63.9961,138.531h -6.80315" fill="none" stroke="black"/>
<path d="M63.9961,126.326h -6.80315" fill="none" stroke="black"/>
<path d="M63.9961,114.12h -6.80315" fill="none" stroke="black"/>
<path d="M70.7992,101.915h -13.6063" fill="none" stroke="black"/>
<path d="M63.9961,89.7095h -6.80315" fill="none" stroke="black"/>
<path d="M63.9961,77.5041h -6.80315" fill="none" stroke="black"/>
<path d="M63.9961,65.2987h -6.80315" fill="none" stroke="black"/>
<path d="M63.9961,53.0934h -6.80315" fill="none" stroke="black"/>
<path d="M70.7992,40.888h -13.6063" fill="none" stroke="black"/>
<path d="M70.7992,40.888h -13.6063" fill="none" stroke="black"/>
<text xml:space="preserve" x="47.7441" y="350.258" fill="black" font-size="12.8453" font-family="Helvetica">0</text>
<text xml:space="preserve" x="41.2277" y="289.166" fill="black" font-size="12.8453" font-family="Helvetica">10</text>
<text xml:space="preserve" x="41.2277" y="228.075" fill="black" font-size="12.8453" font-family="Helvetica">20</text>
<text xml:space="preserve" x="41.2277" y="167.798" fill="black" font-size="12.8453" font-family="Helvetica">30</text>
<text xml:space="preserve" x="41.2277" y="106.706" fill="black" font-size="12.8453" font-family="Helvetica">40</text>
<text xml:space="preserve" x="41.2277" y="45.615" fill="black" font-size="12.8453" font-family="Helvetica">50</text>
<text xml:space="preserve" x="148.749" y="17.9202" fill="black" font-size="18.7938" font-family="Helvetica">distributions of mpv for each vop</text>
<path d="M57.1929,346.022h 181.417v -24.4107h 30.2362v -61.0269h 30.2362v -67.1295h 15.1181v 103.746h 15.1181v 36.6161h 15.1181v 12.2054h 166.299" fill="none" stroke="#ffb300"/>
<path d="M59.4606,346.022h 149.669l 4.53543, -0.0548255l 4.53543, -0.069904l 4.53543, -0.146059l 4.53543, -0.290214l 4.53543, -0.548104l 4.53543, -0.983348l 4.53543, -1.6747l 4.53543, -2.70493l 4.53543, -4.13874l 4.53543, -5.98995l 4.53543, -8.18381l
 4.53543, -10.5263l 4.53543, -12.6968l 4.53543, -14.2777l 4.53543, -14.8291l 4.53543, -13.9942" fill="none" stroke="#ffb300" stroke-width="2"/>
<path d="M281.697,254.913l 4.53543, -11.612l 4.53543, -7.79656l 4.53543, -2.95151l 4.53543, 2.29645l 4.53543, 7.23031l 4.53543, 11.2036l 4.53543, 13.7793l 4.53543, 14.8058l 4.53543, 14.4128l 4.53543, 12.9382l 4.53543, 10.8178l 4.53543, 8.47686l
 4.53543, 6.25084l 4.53543, 4.35l 4.53543, 2.86278l 4.53543, 1.78446l 4.53543, 1.05477l 4.53543, 0.591769l 4.53543, 0.315361l 4.53543, 0.159731l 4.53543, 0.0769324l 4.53543, 0.060979h 122.457" fill="none" stroke="#ffb300" stroke-width="2"/>
<path d="M503.933,346.022h 4.53543" fill="none" stroke="#ffb300" stroke-width="2"/>
<rect x="351.996" y="24.9905" width="204.094" height="76.8938" fill="white"/>
<path d="M351.996,101.884h 204.094" fill="none" stroke="black"/>
<path d="M556.091,101.884v -76.8938" fill="none" stroke="black"/>
<path d="M556.091,24.9905h -204.094" fill="none" stroke="black"/>
<path d="M351.996,24.9905v 76.8938" fill="none" stroke="black"/>
<text xml:space="preserve" x="377.638" y="39.0986" fill="black" font-size="16.7253" font-family="Helvetica"> / ndf </text>
<text xml:space="preserve" x="371.122" y="34.2112" fill="black" font-size="11.3169" font-family="Helvetica">2</text>
<text xml:space="preserve" x="362.162" y="39.0986" fill="black" font-size="16.7253" font-family="Times">&#0967;</text>
<text xml:space="preserve" x="477.828" y="40.7277" fill="black" font-size="16.7253" font-family="Helvetica"> 7.099 / 4</text>
<text xml:space="preserve" x="362.162" y="60.2769" fill="black" font-size="16.7253" font-family="Helvetica">Constant </text>
<text xml:space="preserve" x="509.596" y="60.2769" fill="black" font-size="16.7253" font-family="Helvetica"> 3.10</text>
<text xml:space="preserve" x="500.636" y="60.2769" fill="black" font-size="16.7253" font-family="Times">&#0177;</text>
<text xml:space="preserve" x="450.133" y="60.2769" fill="black" font-size="16.7253" font-family="Helvetica"> 18.59 </text>
<text xml:space="preserve" x="362.162" y="79.0117" fill="black" font-size="16.7253" font-family="Helvetica">Mean     </text>
<text xml:space="preserve" x="518.556" y="79.0117" fill="black" font-size="16.7253" font-family="Helvetica"> 3.9</text>
<text xml:space="preserve" x="509.596" y="79.0117" fill="black" font-size="16.7253" font-family="Times">&#0177;</text>
<text xml:space="preserve" x="459.094" y="79.0117" fill="black" font-size="16.7253" font-family="Helvetica"> 315.4 </text>
<text xml:space="preserve" x="362.162" y="96.9318" fill="black" font-size="16.7253" font-family="Helvetica">Sigma    </text>
<text xml:space="preserve" x="512.039" y="98.561" fill="black" font-size="16.7253" font-family="Helvetica"> 3.31</text>
<text xml:space="preserve" x="503.079" y="98.561" fill="black" font-size="16.7253" font-family="Times">&#0177;</text>
<text xml:space="preserve" x="452.577" y="98.561" fill="black" font-size="16.7253" font-family="Helvetica"> 27.73 </text>
<path d="M57.1929,346.022h 136.063v -6.10269h 30.2362v -36.6161h 15.1181v -30.5134h 15.1181v -6.10269h 15.1181v -18.3081h 30.2362v 12.2054h 15.1181v 48.8215h 15.1181v 12.2054h 15.1181v 24.4107h 166.299" fill="none" stroke="#803e75"/>
<path d="M59.4606,346.022h 95.2441l 4.53543, -0.048273l 4.53543, -0.0365723l 4.53543, -0.0611116l 4.53543, -0.099794l 4.53543, -0.159234l 4.53543, -0.248231l 4.53543, -0.377996l 4.53543, -0.562143l 4.53543, -0.816278l 4.53543, -1.15704l 4.53543,
 -1.60045l 4.53543, -2.15956l 4.53543, -2.84142l 4.53543, -3.64357l 4.53543, -4.55058l 4.53543, -5.53122l 4.53543, -6.53683l 4.53543, -7.50179l 4.53543, -8.34658l 4.53543, -8.98358l 4.53543, -9.32545l 4.53543, -9.29533l 4.53543, -8.83747l 4.53543,
 -7.92686l 4.53543, -6.57603l 4.53543, -4.83764l 4.53543, -2.80207l 4.53543, -0.589924" fill="none" stroke="#803e75" stroke-width="2"/>
<path d="M281.697,240.569l 4.53543, 1.65981l 4.53543, 3.80416l 4.53543, 5.71123l 4.53543, 7.27362l 4.53543, 8.41833l 4.53543, 9.11187l 4.53543, 9.36027l 4.53543, 9.20425l 4.53543, 8.71096l 4.53543, 7.9636l 4.53543, 7.05082l 4.53543, 6.05728l 4.53543,
 5.05641l 4.53543, 4.10595l 4.53543, 3.24614l 4.53543, 2.50039l 4.53543, 1.8775l 4.53543, 1.37497l 4.53543, 0.982451l 4.53543, 0.685143l 4.53543, 0.466472l 4.53543, 0.310134l 4.53543, 0.201392l 4.53543, 0.127757l 4.53543, 0.0791858l 4.53543,
 0.0479611l 4.53543, 0.0283899l 4.53543, 0.0365977h 95.2441" fill="none" stroke="#803e75" stroke-width="2"/>
<path d="M503.933,346.022h 4.53543" fill="none" stroke="#803e75" stroke-width="2"/>
<rect x="351.996" y="24.9905" width="204.094" height="76.8938" fill="white"/>
<path d="M351.996,101.884h 204.094" fill="none" stroke="black"/>
<path d="M556.091,101.884v -76.8938" fill="none" stroke="black"/>
<path d="M556.091,24.9905h -204.094" fill="none" stroke="black"/>
<path d="M351.996,24.9905v 76.8938" fill="none" stroke="black"/>
<text xml:space="preserve" x="377.638" y="39.0986" fill="black" font-size="16.7253" font-family="Helvetica"> / ndf </text>
<text xml:space="preserve" x="371.122" y="34.2112" fill="black" font-size="11.3169" font-family="Helvetica">2</text>
<text xml:space="preserve" x="362.162" y="39.0986" fill="black" font-size="16.7253" font-family="Times">&#0967;</text>
<text xml:space="preserve" x="477.828" y="40.7277" fill="black" font-size="16.7253" font-family="Helvetica"> 3.121 / 7</text>
<text xml:space="preserve" x="362.162" y="60.2769" fill="black" font-size="16.7253" font-family="Helvetica">Constant </text>
<text xml:space="preserve" x="512.039" y="60.2769" fill="black" font-size="16.7253" font-family="Helvetica"> 2.31</text>
<text xml:space="preserve" x="503.079" y="60.2769" fill="black" font-size="16.7253" font-family="Times">&#0177;</text>
<text xml:space="preserve" x="452.577" y="60.2769" fill="black" font-size="16.7253" font-family="Helvetica"> 17.29 </text>
<text xml:space="preserve" x="362.162" y="79.0117" fill="black" font-size="16.7253" font-family="Helvetica">Mean     </text>
<text xml:space="preserve" x="518.556" y="79.0117" fill="black" font-size="16.7253" font-family="Helvetica"> 4.9</text>
<text xml:space="preserve" x="509.596" y="79.0117" fill="black" font-size="16.7253" font-family="Times">&#0177;</text>
<text xml:space="preserve" x="459.094" y="79.0117" fill="black" font-size="16.7253" font-family="Helvetica"> 295.6 </text>
<text xml:space="preserve" x="362.162" y="96.9318" fill="black" font-size="16.7253" font-family="Helvetica">Sigma    </text>
<text xml:space="preserve" x="509.596" y="98.561" fill="black" font-size="16.7253" font-family="Helvetica"> 3.76</text>
<text xml:space="preserve" x="500.636" y="98.561" fill="black" font-size="16.7253" font-family="Times">&#0177;</text>
<text xml:space="preserve" x="450.133" y="98.561" fill="black" font-size="16.7253" font-family="Helvetica"> 40.94 </text>
<path d="M57.1929,346.022h 105.827v -6.10269h 15.1181v -6.10269h 15.1181v -30.5134h 15.1181v -36.6161h 15.1181v -18.3081h 15.1181v -36.6161h 15.1181v 42.7188h 15.1181v -54.9242h 15.1181v 79.3349h 15.1181v -12.2054h 15.1181v 30.5134h 15.1181v 18.3081h
 15.1181v 24.4107h 15.1181v 6.10269h 15.1181v -12.2054h 15.1181v 12.2054h 90.7087v -6.10269h 15.1181v 6.10269h 15.1181" fill="none" stroke="#ff6800"/>
<path d="M59.4606,346.022h 40.8189l 4.53543, -0.0478629l 4.53543, -0.0268159l 4.53543, -0.0403363l 4.53543, -0.0598372l 4.53543, -0.0875375l 4.53543, -0.126281l 4.53543, -0.179627l 4.53543, -0.25192l 4.53543, -0.348316l 4.53543, -0.47475l 4.53543,
 -0.637809l 4.53543, -0.8445l 4.53543, -1.10188l 4.53543, -1.41655l 4.53543, -1.79397l 4.53543, -2.23769l 4.53543, -2.74847l 4.53543, -3.32333l 4.53543, -3.95471l 4.53543, -4.62977l 4.53543, -5.32993l 4.53543, -6.03083l 4.53543, -6.70276l 4.53543,
 -7.31164l 4.53543, -7.82055l 4.53543, -8.19181l 4.53543, -8.38945l 4.53543, -8.38198l 4.53543, -8.1451l 4.53543, -7.66424l 4.53543, -6.93654l 4.53543, -5.97214l 4.53543, -4.79451l 4.53543, -3.4397l 4.53543, -1.95462l 4.53543, -0.39438l 4.53543,
 1.18112l 4.53543, 2.71101l 4.53543, 4.13733l 4.53543, 5.40869" fill="none" stroke="#ff6800" stroke-width="2"/>
<path d="M281.697,237.668l 4.53543, 6.48333l 4.53543, 7.33134l 4.53543, 7.93592l 4.53543, 8.29352l 4.53543, 8.41308l 4.53543, 8.31432l 4.53543, 8.02549l 4.53543, 7.58066l 4.53543, 7.01699l 4.53543, 6.37207l 4.53543, 5.68162l 4.53543, 4.97769l
 4.53543, 4.28741l 4.53543, 3.63226l 4.53543, 3.02791l 4.53543, 2.48449l 4.53543, 2.00716l 4.53543, 1.59692l 4.53543, 1.2515l 4.53543, 0.966276l 4.53543, 0.735136l 4.53543, 0.551175l 4.53543, 0.407307l 4.53543, 0.296696l 4.53543, 0.21306l 4.53543,
 0.150845l 4.53543, 0.105302l 4.53543, 0.0724846l 4.53543, 0.0492028l 4.53543, 0.0329377l 4.53543, 0.0217461l 4.53543, 0.0381215h 77.1024" fill="none" stroke="#ff6800" stroke-width="2"/>
<path d="M503.933,346.022h 4.53543" fill="none" stroke="#ff6800" stroke-width="2"/>
<rect x="351.996" y="24.9905" width="204.094" height="76.8938" fill="white"/>
<path d="M351.996,101.884h 204.094" fill="none" stroke="black"/>
<path d="M556.091,101.884v -76.8938" fill="none" stroke="black"/>
<path d="M556.091,24.9905h -204.094" fill="none" stroke="black"/>
<path d="M351.996,24.9905v 76.8938" fill="none" stroke="black"/>
<text xml:space="preserve" x="377.638" y="39.0986" fill="black" font-size="16.7253" font-family="Helvetica"> / ndf </text>
<text xml:space="preserve" x="371.122" y="34.2112" fill="black" font-size="11.3169" font-family="Helvetica">2</text>
<text xml:space="preserve" x="362.162" y="39.0986" fill="black" font-size="16.7253" font-family="Times">&#0967;</text>
<text xml:space="preserve" x="468.868" y="40.7277" fill="black" font-size="16.7253" font-family="Helvetica"> 10.76 / 12</text>
<text xml:space="preserve" x="362.162" y="60.2769" fill="black" font-size="16.7253" font-family="Helvetica">Constant </text>
<text xml:space="preserve" x="509.596" y="60.2769" fill="black" font-size="16.7253" font-family="Helvetica"> 2.16</text>
<text xml:space="preserve" x="500.636" y="60.2769" fill="black" font-size="16.7253" font-family="Times">&#0177;</text>
<text xml:space="preserve" x="450.133" y="60.2769" fill="black" font-size="16.7253" font-family="Helvetica"> 19.97 </text>
<text xml:space="preserve" x="362.162" y="79.0117" fill="black" font-size="16.7253" font-family="Helvetica">Mean     </text>
<text xml:space="preserve" x="518.556" y="79.0117" fill="black" font-size="16.7253" font-family="Helvetica"> 4.9</text>
<text xml:space="preserve" x="509.596" y="79.0117" fill="black" font-size="16.7253" font-family="Times">&#0177;</text>
<text xml:space="preserve" x="459.094" y="79.0117" fill="black" font-size="16.7253" font-family="Helvetica"> 271.5 </text>
<text xml:space="preserve" x="362.162" y="96.9318" fill="black" font-size="16.7253" font-family="Helvetica">Sigma    </text>
<text xml:space="preserve" x="509.596" y="98.561" fill="black" font-size="16.7253" font-family="Helvetica"> 3.60</text>
<text xml:space="preserve" x="500.636" y="98.561" fill="black" font-size="16.7253" font-family="Times">&#0177;</text>
<text xml:space="preserve" x="450.133" y="98.561" fill="black" font-size="16.7253" font-family="Helvetica"> 52.65 </text>
<path d="M57.1929,339.92h 15.1181v 6.10269h 60.4724v -6.10269h 30.2362v 6.10269h 15.1181v -12.2054h 15.1181v -24.4107h 15.1181v -73.2322h 15.1181v -73.2322h 15.1181v 12.2054h 15.1181v -42.7188h 15.1181v 12.2054h 15.1181v 24.4107h 15.1181v 79.3349h
 30.2362v 18.3081h 15.1181v 12.2054h 15.1181v 54.9242h 15.1181v 12.2054h 136.063" fill="none" stroke="#a6bdd7"/>
<path d="M59.4606,346.022h 36.2835l 4.53543, -0.0390221l 4.53543, -0.0221142l 4.53543, -0.0334959l 4.53543, -0.0500882l 4.53543, -0.0739407l 4.53543, -0.107749l 4.53543, -0.154991l 4.53543, -0.220057l 4.53543, -0.30837l 4.53543, -0.426468l 4.53543,
 -0.58203l 4.53543, -0.783813l 4.53543, -1.04147l 4.53543, -1.36521l 4.53543, -1.76532l 4.53543, -2.25142l 4.53543, -2.83162l 4.53543, -3.51143l 4.53543, -4.29256l 4.53543, -5.1717l 4.53543, -6.13933l 4.53543, -7.17867l 4.53543, -8.26502l 4.53543,
 -9.3655l 4.53543, -10.4394l 4.53543, -11.4394l 4.53543, -12.3131l 4.53543, -13.0058l 4.53543, -13.4632l 4.53543, -13.6358l 4.53543, -13.4818l 4.53543, -12.9712l 4.53543, -12.0887l 4.53543, -10.8366l 4.53543, -9.2353l 4.53543, -7.32411l 4.53543,
 -5.15943l 4.53543, -2.81223l 4.53543, -0.36421l 4.53543, 2.09694l 4.53543, 4.48272" fill="none" stroke="#a6bdd7" stroke-width="2"/>
<path d="M281.697,148.05l 4.53543, 6.70917l 4.53543, 8.7017l 4.53543, 10.3992l 4.53543, 11.7573l 4.53543, 12.7499l 4.53543, 13.3693l 4.53543, 13.626l 4.53543, 13.5458l 4.53543, 13.1675l 4.53543, 12.5387l 4.53543, 11.7127l 4.53543, 10.7443l 4.53543,
 9.68697l 4.53543, 8.58976l 4.53543, 7.49546l 4.53543, 6.43933l 4.53543, 5.44846l 4.53543, 4.54192l 4.53543, 3.73129l 4.53543, 3.02158l 4.53543, 2.41243l 4.53543, 1.89932l 4.53543, 1.47481l 4.53543, 1.1296l 4.53543, 0.853534l 4.53543, 0.636311l
 4.53543, 0.468074l 4.53543, 0.339777l 4.53543, 0.243412l 4.53543, 0.172103l 4.53543, 0.120106l 4.53543, 0.0827357l 4.53543, 0.0562599l 4.53543, 0.0377662l 4.53543, 0.025028l 4.53543, 0.0446023h 58.9606" fill="none" stroke="#a6bdd7"
 stroke-width="2"/>
<path d="M503.933,346.022h 4.53543" fill="none" stroke="#a6bdd7" stroke-width="2"/>
<rect x="351.996" y="24.9905" width="204.094" height="76.8938" fill="white"/>
<path d="M351.996,101.884h 204.094" fill="none" stroke="black"/>
<path d="M556.091,101.884v -76.8938" fill="none" stroke="black"/>
<path d="M556.091,24.9905h -204.094" fill="none" stroke="black"/>
<path d="M351.996,24.9905v 76.8938" fill="none" stroke="black"/>
<text xml:space="preserve" x="377.638" y="39.0986" fill="black" font-size="16.7253" font-family="Helvetica"> / ndf </text>
<text xml:space="preserve" x="371.122" y="34.2112" fill="black" font-size="11.3169" font-family="Helvetica">2</text>
<text xml:space="preserve" x="362.162" y="39.0986" fill="black" font-size="16.7253" font-family="Times">&#0967;</text>
<text xml:space="preserve" x="473.755" y="40.7277" fill="black" font-size="16.7253" font-family="Helvetica">  15.7 / 13</text>
<text xml:space="preserve" x="362.162" y="60.2769" fill="black" font-size="16.7253" font-family="Helvetica">Constant </text>
<text xml:space="preserve" x="509.596" y="60.2769" fill="black" font-size="16.7253" font-family="Helvetica"> 2.88</text>
<text xml:space="preserve" x="500.636" y="60.2769" fill="black" font-size="16.7253" font-family="Times">&#0177;</text>
<text xml:space="preserve" x="450.133" y="60.2769" fill="black" font-size="16.7253" font-family="Helvetica"> 33.54 </text>
<text xml:space="preserve" x="362.162" y="79.0117" fill="black" font-size="16.7253" font-family="Helvetica">Mean     </text>
<text xml:space="preserve" x="521" y="79.0117" fill="black" font-size="16.7253" font-family="Helvetica"> 4.1</text>
<text xml:space="preserve" x="512.039" y="79.0117" fill="black" font-size="16.7253" font-family="Times">&#0177;</text>
<text xml:space="preserve" x="461.537" y="79.0117" fill="black" font-size="16.7253" font-family="Helvetica"> 282.9 </text>
<text xml:space="preserve" x="362.162" y="96.9318" fill="black" font-size="16.7253" font-family="Helvetica">Sigma    </text>
<text xml:space="preserve" x="509.596" y="98.561" fill="black" font-size="16.7253" font-family="Helvetica"> 3.23</text>
<text xml:space="preserve" x="500.636" y="98.561" fill="black" font-size="16.7253" font-family="Times">&#0177;</text>
<text xml:space="preserve" x="450.133" y="98.561" fill="black" font-size="16.7253" font-family="Helvetica"> 54.58 </text>
<path d="M57.1929,339.92h 15.1181v 6.10269h 45.3543v -6.10269h 15.1181v 6.10269h 30.2362v -6.10269h 15.1181v -48.8215h 15.1181v -42.7188h 15.1181v -73.2322h 15.1181v -115.951h 15.1181v -6.10269h 15.1181v 79.3349h 15.1181v 42.7188h 15.1181v 103.746h
 15.1181v 30.5134h 15.1181v 18.3081h 15.1181v 18.3081h 181.417" fill="none" stroke="#c10020"/>
<path d="M59.4606,346.022h 58.9606l 4.53543, -0.0538642l 4.53543, -0.0472375l 4.53543, -0.0841654l 4.53543, -0.146185l 4.53543, -0.247475l 4.53543, -0.408283l 4.53543, -0.656318l 4.53543, -1.0278l 4.53543, -1.56762l 4.53543, -2.32812l 4.53543,
 -3.36562l 4.53543, -4.7344l 4.53543, -6.47768l 4.53543, -8.61598l 4.53543, -11.1339l 4.53543, -13.9673l 4.53543, -16.9932l 4.53543, -20.026l 4.53543, -22.8225l 4.53543, -25.0972l 4.53543, -26.5497l 4.53543, -26.8999l 4.53543, -25.9284l 4.53543,
 -23.515l 4.53543, -19.6681l 4.53543, -14.5392l 4.53543, -8.41782l 4.53543, -1.70518l 4.53543, 5.12865l 4.53543, 11.5994l 4.53543, 17.2653l 4.53543, 21.777l 4.53543, 24.9125l 4.53543, 26.5927l 4.53543, 26.877l 4.53543, 25.9399" fill="none"
 stroke="#c10020" stroke-width="2"/>
<path d="M281.697,219.091l 4.53543, 24.0365l 4.53543, 21.4619l 4.53543, 18.513l 4.53543, 15.4566l 4.53543, 12.5083l 4.53543, 9.82214l 4.53543, 7.49055l 4.53543, 5.55167l 4.53543, 4.00113l 4.53543, 2.80539l 4.53543, 1.91437l 4.53543, 1.27182l 4.53543,
 0.822832l 4.53543, 0.51855l 4.53543, 0.318385l 4.53543, 0.190493l 4.53543, 0.11108l 4.53543, 0.0631373l 4.53543, 0.0349851l 4.53543, 0.0388824h 131.528" fill="none" stroke="#c10020" stroke-width="2"/>
<path d="M503.933,346.022h 4.53543" fill="none" stroke="#c10020" stroke-width="2"/>
<rect x="351.996" y="24.9905" width="204.094" height="76.8938" fill="white"/>
<path d="M351.996,101.884h 204.094" fill="none" stroke="black"/>
<path d="M556.091,101.884v -76.8938" fill="none" stroke="black"/>
<path d="M556.091,24.9905h -204.094" fill="none" stroke="black"/>
<path d="M351.996,24.9905v 76.8938" fill="none" stroke="black"/>
<text xml:space="preserve" x="377.638" y="39.0986" fill="black" font-size="16.7253" font-family="Helvetica"> / ndf </text>
<text xml:space="preserve" x="371.122" y="34.2112" fill="black" font-size="11.3169" font-family="Helvetica">2</text>
<text xml:space="preserve" x="362.162" y="39.0986" fill="black" font-size="16.7253" font-family="Times">&#0967;</text>
<text xml:space="preserve" x="468.868" y="40.7277" fill="black" font-size="16.7253" font-family="Helvetica"> 6.414 / 10</text>
<text xml:space="preserve" x="362.162" y="60.2769" fill="black" font-size="16.7253" font-family="Helvetica">Constant </text>
<text xml:space="preserve" x="509.596" y="60.2769" fill="black" font-size="16.7253" font-family="Helvetica"> 3.92</text>
<text xml:space="preserve" x="500.636" y="60.2769" fill="black" font-size="16.7253" font-family="Times">&#0177;</text>
<text xml:space="preserve" x="450.133" y="60.2769" fill="black" font-size="16.7253" font-family="Helvetica"> 47.07 </text>
<text xml:space="preserve" x="362.162" y="79.0117" fill="black" font-size="16.7253" font-family="Helvetica">Mean     </text>
<text xml:space="preserve" x="518.556" y="79.0117" fill="black" font-size="16.7253" font-family="Helvetica"> 2.7</text>
<text xml:space="preserve" x="509.596" y="79.0117" fill="black" font-size="16.7253" font-family="Times">&#0177;</text>
<text xml:space="preserve" x="459.094" y="79.0117" fill="black" font-size="16.7253" font-family="Helvetica"> 247.5 </text>
<text xml:space="preserve" x="362.162" y="96.9318" fill="black" font-size="16.7253" font-family="Helvetica">Sigma    </text>
<text xml:space="preserve" x="509.596" y="98.561" fill="black" font-size="16.7253" font-family="Helvetica"> 2.03</text>
<text xml:space="preserve" x="500.636" y="98.561" fill="black" font-size="16.7253" font-family="Times">&#0177;</text>
<text xml:space="preserve" x="450.133" y="98.561" fill="black" font-size="16.7253" font-family="Helvetica"> 38.74 </text>
<path d="M57.1929,346.022h 90.7087v -12.2054h 15.1181v 6.10269h 15.1181v -12.2054h 15.1181v -36.6161h 15.1181v -48.8215h 15.1181v -42.7188h 15.1181v -140.362h 15.1181v 30.5134h 15.1181v 91.5403h 15.1181v 18.3081h 15.1181v 61.0269h 15.1181v 36.6161h
 15.1181v 42.7188h 30.2362v 6.10269h 151.181" fill="none" stroke="#cea262"/>
<path d="M59.4606,346.022h 58.9606l 4.53543, -0.038465l 4.53543, -0.0302272l 4.53543, -0.051566l 4.53543, -0.0861315l 4.53543, -0.140848l 4.53543, -0.225469l 4.53543, -0.353277l 4.53543, -0.541727l 4.53543, -0.812859l 4.53543, -1.19329l 4.53543,
 -1.71351l 4.53543, -2.40623l 4.53543, -3.30359l 4.53543, -4.43299l 4.53543, -5.81181l 4.53543, -7.44118l 4.53543, -9.29952l 4.53543, -11.3368l 4.53543, -13.4707l 4.53543, -15.5857l 4.53543, -17.5366l 4.53543, -19.1569l 4.53543, -20.2716l 4.53543,
 -20.7144l 4.53543, -20.347l 4.53543, -19.0785l 4.53543, -16.8809l 4.53543, -13.8002l 4.53543, -9.95821l 4.53543, -5.54632l 4.53543, -0.809836l 4.53543, 3.97446l 4.53543, 8.52512l 4.53543, 12.5834l 4.53543, 15.9377l 4.53543, 18.4416" fill="none"
 stroke="#cea262" stroke-width="2"/>
<path d="M281.697,163.108l 4.53543, 20.0234l 4.53543, 20.6868l 4.53543, 20.5033l 4.53543, 19.5973l 4.53543, 18.1277l 4.53543, 16.2688l 4.53543, 14.1915l 4.53543, 12.0496l 4.53543, 9.96888l 4.53543, 8.04315l 4.53543, 6.33297l 4.53543, 4.86892l
 4.53543, 3.65681l 4.53543, 2.68401l 4.53543, 1.92584l 4.53543, 1.35123l 4.53543, 0.927294l 4.53543, 0.622549l 4.53543, 0.408955l 4.53543, 0.262901l 4.53543, 0.165419l 4.53543, 0.101884l 4.53543, 0.0614332l 4.53543, 0.0362677l 4.53543, 0.0468622h
 108.85" fill="none" stroke="#cea262" stroke-width="2"/>
<path d="M503.933,346.022h 4.53543" fill="none" stroke="#cea262" stroke-width="2"/>
<rect x="351.996" y="24.9905" width="204.094" height="76.8938" fill="white"/>
<path d="M351.996,101.884h 204.094" fill="none" stroke="black"/>
<path d="M556.091,101.884v -76.8938" fill="none" stroke="black"/>
<path d="M556.091,24.9905h -204.094" fill="none" stroke="black"/>
<path d="M351.996,24.9905v 76.8938" fill="none" stroke="black"/>
<text xml:space="preserve" x="377.638" y="39.0986" fill="black" font-size="16.7253" font-family="Helvetica"> / ndf </text>
<text xml:space="preserve" x="371.122" y="34.2112" fill="black" font-size="11.3169" font-family="Helvetica">2</text>
<text xml:space="preserve" x="362.162" y="39.0986" fill="black" font-size="16.7253" font-family="Times">&#0967;</text>
<text xml:space="preserve" x="471.312" y="40.7277" fill="black" font-size="16.7253" font-family="Helvetica"> 8.156 / 11</text>
<text xml:space="preserve" x="362.162" y="60.2769" fill="black" font-size="16.7253" font-family="Helvetica">Constant </text>
<text xml:space="preserve" x="509.596" y="60.2769" fill="black" font-size="16.7253" font-family="Helvetica"> 3.40</text>
<text xml:space="preserve" x="500.636" y="60.2769" fill="black" font-size="16.7253" font-family="Times">&#0177;</text>
<text xml:space="preserve" x="450.133" y="60.2769" fill="black" font-size="16.7253" font-family="Helvetica"> 39.76 </text>
<text xml:space="preserve" x="362.162" y="79.0117" fill="black" font-size="16.7253" font-family="Helvetica">Mean     </text>
<text xml:space="preserve" x="518.556" y="79.0117" fill="black" font-size="16.7253" font-family="Helvetica"> 2.9</text>
<text xml:space="preserve" x="509.596" y="79.0117" fill="black" font-size="16.7253" font-family="Times">&#0177;</text>
<text xml:space="preserve" x="463.166" y="79.0117" fill="black" font-size="16.7253" font-family="Helvetica">   265 </text>
<text xml:space="preserve" x="362.162" y="96.9318" fill="black" font-size="16.7253" font-family="Helvetica">Sigma    </text>
<text xml:space="preserve" x="509.596" y="98.561" fill="black" font-size="16.7253" font-family="Helvetica"> 2.19</text>
<text xml:space="preserve" x="500.636" y="98.561" fill="black" font-size="16.7253" font-family="Times">&#0177;</text>
<text xml:space="preserve" x="450.133" y="98.561" fill="black" font-size="16.7253" font-family="Helvetica"> 42.55 </text>
<path d="M57.1929,346.022h 211.654v -12.2054h 15.1181v -6.10269h 15.1181v -48.8215h 15.1181v -12.2054h 15.1181v -24.4107h 15.1181v 61.0269h 15.1181v 12.2054h 15.1181v 30.5134h 136.063" fill="none" stroke="#817066"/>
<path d="M59.4606,346.022h 172.346l 4.53543, -0.0331812l 4.53543, -0.0374938l 4.53543, -0.07425l 4.53543, -0.141179l 4.53543, -0.257658l 4.53543, -0.451178l 4.53543, -0.757683l 4.53543, -1.21961l 4.53543, -1.88045l 4.53543, -2.77485l 4.53543,
 -3.9147" fill="none" stroke="#817066" stroke-width="2"/>
<path d="M281.697,334.48l 4.53543, -5.27286l 4.53543, -6.76862l 4.53543, -8.26036l 4.53543, -9.551l 4.53543, -10.41l 4.53543, -10.6114l 4.53543, -9.98208l 4.53543, -8.44848l 4.53543, -6.06939l 4.53543, -3.04227l 4.53543, 0.321557l 4.53543, 3.64943l
 4.53543, 6.57531l 4.53543, 8.80604l 4.53543, 10.1694l 4.53543, 10.6329l 4.53543, 10.2919l 4.53543, 9.33348l 4.53543, 7.98787l 4.53543, 6.48178l 4.53543, 5.00299l 4.53543, 3.68161l 4.53543, 2.58736l 4.53543, 1.73882l 4.53543, 1.11857l 4.53543,
 0.689348l 4.53543, 0.407246l 4.53543, 0.230755l 4.53543, 0.125461l 4.53543, 0.065478l 4.53543, 0.0614631h 81.6378" fill="none" stroke="#817066" stroke-width="2"/>
<path d="M503.933,346.022h 4.53543" fill="none" stroke="#817066" stroke-width="2"/>
<rect x="351.996" y="24.9905" width="204.094" height="76.8938" fill="white"/>
<path d="M351.996,101.884h 204.094" fill="none" stroke="black"/>
<path d="M556.091,101.884v -76.8938" fill="none" stroke="black"/>
<path d="M556.091,24.9905h -204.094" fill="none" stroke="black"/>
<path d="M351.996,24.9905v 76.8938" fill="none" stroke="black"/>
<text xml:space="preserve" x="377.638" y="39.0986" fill="black" font-size="16.7253" font-family="Helvetica"> / ndf </text>
<text xml:space="preserve" x="371.122" y="34.2112" fill="black" font-size="11.3169" font-family="Helvetica">2</text>
<text xml:space="preserve" x="362.162" y="39.0986" fill="black" font-size="16.7253" font-family="Times">&#0967;</text>
<text xml:space="preserve" x="477.828" y="40.7277" fill="black" font-size="16.7253" font-family="Helvetica"> 2.485 / 4</text>
<text xml:space="preserve" x="362.162" y="60.2769" fill="black" font-size="16.7253" font-family="Helvetica">Constant </text>
<text xml:space="preserve" x="509.596" y="60.2769" fill="black" font-size="16.7253" font-family="Helvetica"> 2.75</text>
<text xml:space="preserve" x="500.636" y="60.2769" fill="black" font-size="16.7253" font-family="Times">&#0177;</text>
<text xml:space="preserve" x="450.133" y="60.2769" fill="black" font-size="16.7253" font-family="Helvetica"> 14.79 </text>
<text xml:space="preserve" x="362.162" y="79.0117" fill="black" font-size="16.7253" font-family="Helvetica">Mean     </text>
<text xml:space="preserve" x="518.556" y="79.0117" fill="black" font-size="16.7253" font-family="Helvetica"> 4.6</text>
<text xml:space="preserve" x="509.596" y="79.0117" fill="black" font-size="16.7253" font-family="Times">&#0177;</text>
<text xml:space="preserve" x="459.094" y="79.0117" fill="black" font-size="16.7253" font-family="Helvetica"> 359.4 </text>
<text xml:space="preserve" x="362.162" y="96.9318" fill="black" font-size="16.7253" font-family="Helvetica">Sigma    </text>
<text xml:space="preserve" x="512.039" y="98.561" fill="black" font-size="16.7253" font-family="Helvetica"> 4.71</text>
<text xml:space="preserve" x="503.079" y="98.561" fill="black" font-size="16.7253" font-family="Times">&#0177;</text>
<text xml:space="preserve" x="452.577" y="98.561" fill="black" font-size="16.7253" font-family="Helvetica"> 30.79 </text>
<path d="M57.1929,346.022h 90.7087v -6.10269h 30.2362v -6.10269h 15.1181v -30.5134h 15.1181v -24.4107h 15.1181v -54.9242h 15.1181v -73.2322h 15.1181v 48.8215h 15.1181v 18.3081h 15.1181v 42.7188h 15.1181v 48.8215h 15.1181v -18.3081h 15.1181v 48.8215h
 15.1181v 6.10269h 166.299" fill="none" stroke="#007d34"/>
<path d="M59.4606,346.022h 58.9606l 4.53543, -0.0373928l 4.53543, -0.028286l 4.53543, -0.0474432l 4.53543, -0.0779305l 4.53543, -0.125352l 4.53543, -0.197422l 4.53543, -0.304402l 4.53543, -0.459435l 4.53543, -0.678669l 4.53543, -0.980998l 4.53543,
 -1.38728l 4.53543, -1.91885l 4.53543, -2.59523l 4.53543, -3.43102l 4.53543, -4.43215l 4.53543, -5.5917l 4.53543, -6.88595l 4.53543, -8.27125l 4.53543, -9.68249l 4.53543, -11.034l 4.53543, -12.2231l 4.53543, -13.1376l 4.53543, -13.665l 4.53543,
 -13.7046l 4.53543, -13.18l 4.53543, -12.0507l 4.53543, -10.3211l 4.53543, -8.04436l 4.53543, -5.32154l 4.53543, -2.29471l 4.53543, 0.865338l 4.53543, 3.975l 4.53543, 6.85554l 4.53543, 9.35007l 4.53543, 11.3377l 4.53543, 12.743" fill="none"
 stroke="#007d34" stroke-width="2"/>
<path d="M281.697,229.039l 4.53543, 13.5397l 4.53543, 13.7487l 4.53543, 13.4316l 4.53543, 12.6793l 4.53543, 11.6007l 4.53543, 10.3094l 4.53543, 8.91357l 4.53543, 7.50713l 4.53543, 6.16484l 4.53543, 4.94005l 4.53543, 3.8652l 4.53543, 2.95439l 4.53543,
 2.20701l 4.53543, 1.61189l 4.53543, 1.15131l 4.53543, 0.804434l 4.53543, 0.549953l 4.53543, 0.367944l 4.53543, 0.240954l 4.53543, 0.154471l 4.53543, 0.096956l 4.53543, 0.0595898l 4.53543, 0.035866l 4.53543, 0.0484095h 113.386" fill="none"
 stroke="#007d34" stroke-width="2"/>
<path d="M503.933,346.022h 4.53543" fill="none" stroke="#007d34" stroke-width="2"/>
<rect x="351.996" y="24.9905" width="204.094" height="76.8938" fill="white"/>
<path d="M351.996,101.884h 204.094" fill="none" stroke="black"/>
<path d="M556.091,101.884v -76.8938" fill="none" stroke="black"/>
<path d="M556.091,24.9905h -204.094" fill="none" stroke="black"/>
<path d="M351.996,24.9905v 76.8938" fill="none" stroke="black"/>
<text xml:space="preserve" x="377.638" y="39.0986" fill="black" font-size="16.7253" font-family="Helvetica"> / ndf </text>
<text xml:space="preserve" x="371.122" y="34.2112" fill="black" font-size="11.3169" font-family="Helvetica">2</text>
<text xml:space="preserve" x="362.162" y="39.0986" fill="black" font-size="16.7253" font-family="Times">&#0967;</text>
<text xml:space="preserve" x="468.868" y="40.7277" fill="black" font-size="16.7253" font-family="Helvetica"> 6.732 / 10</text>
<text xml:space="preserve" x="362.162" y="60.2769" fill="black" font-size="16.7253" font-family="Helvetica">Constant </text>
<text xml:space="preserve" x="509.596" y="60.2769" fill="black" font-size="16.7253" font-family="Helvetica"> 2.89</text>
<text xml:space="preserve" x="500.636" y="60.2769" fill="black" font-size="16.7253" font-family="Times">&#0177;</text>
<text xml:space="preserve" x="450.133" y="60.2769" fill="black" font-size="16.7253" font-family="Helvetica"> 26.58 </text>
<text xml:space="preserve" x="362.162" y="79.0117" fill="black" font-size="16.7253" font-family="Helvetica">Mean     </text>
<text xml:space="preserve" x="518.556" y="79.0117" fill="black" font-size="16.7253" font-family="Helvetica"> 3.7</text>
<text xml:space="preserve" x="509.596" y="79.0117" fill="black" font-size="16.7253" font-family="Times">&#0177;</text>
<text xml:space="preserve" x="459.094" y="79.0117" fill="black" font-size="16.7253" font-family="Helvetica"> 262.4 </text>
<text xml:space="preserve" x="362.162" y="96.9318" fill="black" font-size="16.7253" font-family="Helvetica">Sigma    </text>
<text xml:space="preserve" x="509.596" y="98.561" fill="black" font-size="16.7253" font-family="Helvetica"> 3.05</text>
<text xml:space="preserve" x="500.636" y="98.561" fill="black" font-size="16.7253" font-family="Times">&#0177;</text>
<text xml:space="preserve" x="450.133" y="98.561" fill="black" font-size="16.7253" font-family="Helvetica"> 42.85 </text>
<path d="M57.1929,346.022h 453.543" fill="none" stroke="black"/>
<path d="M57.1929,336.795v 9.22726" fill="none" stroke="black"/>
<path d="M72.311,341.409v 4.61363" fill="none" stroke="black"/>
<path d="M87.4291,341.409v 4.61363" fill="none" stroke="black"/>
<path d="M102.547,341.409v 4.61363" fill="none" stroke="black"/>
<path d="M117.665,341.409v 4.61363" fill="none" stroke="black"/>
<path d="M132.783,336.795v 9.22726" fill="none" stroke="black"/>
<path d="M147.902,341.409v 4.61363" fill="none" stroke="black"/>
<path d="M163.02,341.409v 4.61363" fill="none" stroke="black"/>
<path d="M178.138,341.409v 4.61363" fill="none" stroke="black"/>
<path d="M193.256,341.409v 4.61363" fill="none" stroke="black"/>
<path d="M208.374,336.795v 9.22726" fill="none" stroke="black"/>
<path d="M223.492,341.409v 4.61363" fill="none" stroke="black"/>
<path d="M238.61,341.409v 4.61363" fill="none" stroke="black"/>
<path d="M253.728,341.409v 4.61363" fill="none" stroke="black"/>
<path d="M268.846,341.409v 4.61363" fill="none" stroke="black"/>
<path d="M283.965,336.795v 9.22726" fill="none" stroke="black"/>
<path d="M299.083,341.409v 4.61363" fill="none" stroke="black"/>
<path d="M314.201,341.409v 4.61363" fill="none" stroke="black"/>
<path d="M329.319,341.409v 4.61363" fill="none" stroke="black"/>
<path d="M344.437,341.409v 4.61363" fill="none" stroke="black"/>
<path d="M359.555,336.795v 9.22726" fill="none" stroke="black"/>
<path d="M374.673,341.409v 4.61363" fill="none" stroke="black"/>
<path d="M389.791,341.409v 4.61363" fill="none" stroke="black"/>
<path d="M404.909,341.409v 4.61363" fill="none" stroke="black"/>
<path d="M420.028,341.409v 4.61363" fill="none" stroke="black"/>
<path d="M435.146,336.795v 9.22726" fill="none" stroke="black"/>
<path d="M450.264,341.409v 4.61363" fill="none" stroke="black"/>
<path d="M465.382,341.409v 4.61363" fill="none" stroke="black"/>
<path d="M480.5,341.409v 4.61363" fill="none" stroke="black"/>
<path d="M495.618,341.409v 4.61363" fill="none" stroke="black"/>
<path d="M510.736,336.795v 9.22726" fill="none" stroke="black"/>
<path d="M57.1929,346.022v -307.575" fill="none" stroke="black"/>
<path d="M70.7992,346.022h -13.6063" fill="none" stroke="black"/>
<path d="M63.9961,333.817h -6.80315" fill="none" stroke="black"/>
<path d="M63.9961,321.612h -6.80315" fill="none" stroke="black"/>
<path d="M63.9961,309.406h -6.80315" fill="none" stroke="black"/>
<path d="M63.9961,297.201h -6.80315" fill="none" stroke="black"/>
<path d="M70.7992,284.995h -13.6063" fill="none" stroke="black"/>
<path d="M63.9961,272.79h -6.80315" fill="none" stroke="black"/>
<path d="M63.9961,260.585h -6.80315" fill="none" stroke="black"/>
<path d="M63.9961,248.379h -6.80315" fill="none" stroke="black"/>
<path d="M63.9961,236.174h -6.80315" fill="none" stroke="black"/>
<path d="M70.7992,223.969h -13.6063" fill="none" stroke="black"/>
<path d="M63.9961,211.763h -6.80315" fill="none" stroke="black"/>
<path d="M63.9961,199.558h -6.80315" fill="none" stroke="black"/>
<path d="M63.9961,187.352h -6.80315" fill="none" stroke="black"/>
<path d="M63.9961,175.147h -6.80315" fill="none" stroke="black"/>
<path d="M70.7992,162.942h -13.6063" fill="none" stroke="black"/>
<path d="M63.9961,150.736h -6.80315" fill="none" stroke="black"/>
<path d="M63.9961,138.531h -6.80315" fill="none" stroke="black"/>
<path d="M63.9961,126.326h -6.80315" fill="none" stroke="black"/>
<path d="M63.9961,114.12h -6.80315" fill="none" stroke="black"/>
<path d="M70.7992,101.915h -13.6063" fill="none" stroke="black"/>
<path d="M63.9961,89.7095h -6.80315" fill="none" stroke="black"/>
<path d="M63.9961,77.5041h -6.80315" fill="none" stroke="black"/>
<path d="M63.9961,65.2987h -6.80315" fill="none" stroke="black"/>
<path d="M63.9961,53.0934h -6.80315" fill="none" stroke="black"/>
<path d="M70.7992,40.888h -13.6063" fill="none" stroke="black"/>
<path d="M70.7992,40.888h -13.6063" fill="none" stroke="black"/>
<rect x="58.0145" y="91.0456" width="170.079" height="80.7385" fill="white"/>
<path d="M58.0145,171.784h 170.079" fill="none" stroke="black"/>
<path d="M228.093,171.784v -80.7385" fill="none" stroke="black"/>
<path d="M228.093,91.0456h -170.079" fill="none" stroke="black"/>
<path d="M58.0145,91.0456v 80.7385" fill="none" stroke="black"/>
<text xml:space="preserve" x="99.8755" y="97.7464" fill="black" font-size="8.72026" font-family="Helvetica">vop 68.93</text>
<path d="M64.3925,99.624h 29.7638v -7.06462h -29.7638z" fill="white"/>
<path d="M64.3925,96.0917h 29.7638" fill="none" stroke="#ffb300"/>
<g stroke="black" stroke-width="1" fill="none">
<line x1="78.2744" y1="96.0917" x2="79.2744" y2="96.0917"/>
</g>
<text xml:space="preserve" x="99.8755" y="108.336" fill="black" font-size="8.72026" font-family="Helvetica">vop 68.98</text>
<path d="M64.3925,109.716h 29.7638v -7.06462h -29.7638z" fill="white"/>
<path d="M64.3925,106.184h 29.7638" fill="none" stroke="#803e75"/>
<g stroke="black" stroke-width="1" fill="none">
<line x1="78.2744" y1="106.184" x2="79.2744" y2="106.184"/>
</g>
<text xml:space="preserve" x="99.8755" y="118.11" fill="black" font-size="8.72026" font-family="Helvetica">vop 69.03</text>
<path d="M64.3925,119.809h 29.7638v -7.06462h -29.7638z" fill="white"/>
<path d="M64.3925,116.276h 29.7638" fill="none" stroke="#ff6800"/>
<g stroke="black" stroke-width="1" fill="none">
<line x1="78.2744" y1="116.276" x2="79.2744" y2="116.276"/>
</g>
<text xml:space="preserve" x="99.8755" y="127.885" fill="black" font-size="8.72026" font-family="Helvetica">vop 69.08</text>
<path d="M64.3925,129.901h 29.7638v -7.06462h -29.7638z" fill="white"/>
<path d="M64.3925,126.369h 29.7638" fill="none" stroke="#a6bdd7"/>
<g stroke="black" stroke-width="1" fill="none">
<line x1="78.2744" y1="126.369" x2="79.2744" y2="126.369"/>
</g>
<text xml:space="preserve" x="99.8755" y="138.474" fill="black" font-size="8.72026" font-family="Helvetica">vop 69.13</text>
<path d="M64.3925,139.993h 29.7638v -7.06462h -29.7638z" fill="white"/>
<path d="M64.3925,136.461h 29.7638" fill="none" stroke="#c10020"/>
<g stroke="black" stroke-width="1" fill="none">
<line x1="78.2744" y1="136.461" x2="79.2744" y2="136.461"/>
</g>
<text xml:space="preserve" x="99.8755" y="148.249" fill="black" font-size="8.72026" font-family="Helvetica">vop 69.18</text>
<path d="M64.3925,150.086h 29.7638v -7.06462h -29.7638z" fill="white"/>
<path d="M64.3925,146.553h 29.7638" fill="none" stroke="#cea262"/>
<g stroke="black" stroke-width="1" fill="none">
<line x1="78.2744" y1="146.553" x2="79.2744" y2="146.553"/>
</g>
<text xml:space="preserve" x="99.8755" y="158.838" fill="black" font-size="8.72026" font-family="Helvetica">vop 69.23</text>
<path d="M64.3925,160.178h 29.7638v -7.06462h -29.7638z" fill="white"/>
<path d="M64.3925,156.646h 29.7638" fill="none" stroke="#817066"/>
<g stroke="black" stroke-width="1" fill="none">
<line x1="78.2744" y1="156.646" x2="79.2744" y2="156.646"/>
</g>
<text xml:space="preserve" x="99.8755" y="168.613" fill="black" font-size="8.72026" font-family="Helvetica">vop 69.33</text>
<path d="M64.3925,170.27h 29.7638v -7.06462h -29.7638z" fill="white"/>
<path d="M64.3925,166.738h 29.7638" fill="none" stroke="#007d34"/>
<g stroke="black" stroke-width="1" fill="none">
<line x1="78.2744" y1="166.738" x2="79.2744" y2="166.738"/>
</g>
<text xml:space="preserve" x="148.749" y="17.9202" fill="black" font-size="18.7938" font-family="Helvetica">distributions of mpv for each vop</text></svg>
