<?xml version="1.0" standalone="no"?>
<svg width="567.429" height="384.969" viewBox="0 0 567.429 384.969" xmlns="http://www.w3.org/2000/svg" shape-rendering="crispEdges">
<title>
./adjusted_vop/sector/sector16.svg
</title>
<desc>
Creator: ROOT Version 6.24/00
CreationDate: Mon Jul 26 12:36:31 2021</desc>
<defs>
</defs>
<rect x="0.5" y="0" width="566.929" height="384.469" fill="white"/>
<rect x="57.1929" y="38.4469" width="453.543" height="307.575" fill="white"/>
<rect x="57.1929" y="38.4469" width="453.543" height="307.575" fill="none" stroke="black"/>
<path d="M57.1929,346.022h 196.535v -87.8787h 15.1181v -161.111h 15.1181v -43.9393h 15.1181v 161.111h 15.1181v 29.2929h 15.1181v 73.2322h 15.1181v 29.2929h 166.299" fill="none" stroke="#000099"/>
<path d="M59.4606,346.022h 136.063l 4.53543, -0.0379489l 4.53543, -0.052894l 4.53543, -0.116938l 4.53543, -0.246308l 4.53543, -0.494108l 4.53543, -0.943616l 4.53543, -1.71464l 4.53543, -2.96261l 4.53543, -4.86364l 4.53543, -7.57879l 4.53543,
 -11.1954l 4.53543, -15.6513l 4.53543, -20.6614l 4.53543, -25.6748l 4.53543, -29.896l 4.53543, -32.3924l 4.53543, -32.2845l 4.53543, -28.979l 4.53543, -22.3803" fill="none" stroke="#ff0000" stroke-width="2"/>
<path d="M281.697,107.896l 4.53543, -13.0009l 4.53543, -1.92033l 4.53543, 9.41665l 4.53543, 19.5089l 4.53543, 27.1255l 4.53543, 31.5512l 4.53543, 32.6838l 4.53543, 30.97l 4.53543, 27.22l 4.53543, 22.3733l 4.53543, 17.2874l 4.53543, 12.6015l 4.53543,
 8.68758l 4.53543, 5.67483l 4.53543, 3.51714l 4.53543, 2.07051l 4.53543, 1.15874l 4.53543, 0.616893l 4.53543, 0.312603l 4.53543, 0.150847l 4.53543, 0.0693434l 4.53543, 0.0510769h 122.457" fill="none" stroke="#ff0000" stroke-width="2"/>
<path d="M503.933,346.022h 4.53543" fill="none" stroke="#ff0000" stroke-width="2"/>
<path d="M57.1929,346.022h 453.543" fill="none" stroke="black"/>
<path d="M57.1929,336.795v 9.22726" fill="none" stroke="black"/>
<path d="M72.311,341.409v 4.61363" fill="none" stroke="black"/>
<path d="M87.4291,341.409v 4.61363" fill="none" stroke="black"/>
<path d="M102.547,341.409v 4.61363" fill="none" stroke="black"/>
<path d="M117.665,341.409v 4.61363" fill="none" stroke="black"/>
<path d="M132.783,336.795v 9.22726" fill="none" stroke="black"/>
<path d="M147.902,341.409v 4.61363" fill="none" stroke="black"/>
<path d="M163.02,341.409v 4.61363" fill="none" stroke="black"/>
<path d="M178.138,341.409v 4.61363" fill="none" stroke="black"/>
<path d="M193.256,341.409v 4.61363" fill="none" stroke="black"/>
<path d="M208.374,336.795v 9.22726" fill="none" stroke="black"/>
<path d="M223.492,341.409v 4.61363" fill="none" stroke="black"/>
<path d="M238.61,341.409v 4.61363" fill="none" stroke="black"/>
<path d="M253.728,341.409v 4.61363" fill="none" stroke="black"/>
<path d="M268.846,341.409v 4.61363" fill="none" stroke="black"/>
<path d="M283.965,336.795v 9.22726" fill="none" stroke="black"/>
<path d="M299.083,341.409v 4.61363" fill="none" stroke="black"/>
<path d="M314.201,341.409v 4.61363" fill="none" stroke="black"/>
<path d="M329.319,341.409v 4.61363" fill="none" stroke="black"/>
<path d="M344.437,341.409v 4.61363" fill="none" stroke="black"/>
<path d="M359.555,336.795v 9.22726" fill="none" stroke="black"/>
<path d="M374.673,341.409v 4.61363" fill="none" stroke="black"/>
<path d="M389.791,341.409v 4.61363" fill="none" stroke="black"/>
<path d="M404.909,341.409v 4.61363" fill="none" stroke="black"/>
<path d="M420.028,341.409v 4.61363" fill="none" stroke="black"/>
<path d="M435.146,336.795v 9.22726" fill="none" stroke="black"/>
<path d="M450.264,341.409v 4.61363" fill="none" stroke="black"/>
<path d="M465.382,341.409v 4.61363" fill="none" stroke="black"/>
<path d="M480.5,341.409v 4.61363" fill="none" stroke="black"/>
<path d="M495.618,341.409v 4.61363" fill="none" stroke="black"/>
<path d="M510.736,336.795v 9.22726" fill="none" stroke="black"/>
<text xml:space="preserve" x="53.446" y="358.403" fill="black" font-size="12.8453" font-family="Helvetica">0</text>
<text xml:space="preserve" x="121.868" y="358.403" fill="black" font-size="12.8453" font-family="Helvetica">100</text>
<text xml:space="preserve" x="197.622" y="358.403" fill="black" font-size="12.8453" font-family="Helvetica">200</text>
<text xml:space="preserve" x="273.375" y="358.403" fill="black" font-size="12.8453" font-family="Helvetica">300</text>
<text xml:space="preserve" x="348.314" y="358.403" fill="black" font-size="12.8453" font-family="Helvetica">400</text>
<text xml:space="preserve" x="424.068" y="358.403" fill="black" font-size="12.8453" font-family="Helvetica">500</text>
<text xml:space="preserve" x="499.821" y="358.403" fill="black" font-size="12.8453" font-family="Helvetica">600</text>
<text xml:space="preserve" x="483.53" y="372.251" fill="black" font-size="12.8453" font-family="Helvetica">MPV</text>
<path d="M57.1929,346.022v -307.575" fill="none" stroke="black"/>
<path d="M70.7992,346.022h -13.6063" fill="none" stroke="black"/>
<path d="M63.9961,338.699h -6.80315" fill="none" stroke="black"/>
<path d="M63.9961,331.376h -6.80315" fill="none" stroke="black"/>
<path d="M63.9961,324.053h -6.80315" fill="none" stroke="black"/>
<path d="M70.7992,316.729h -13.6063" fill="none" stroke="black"/>
<path d="M63.9961,309.406h -6.80315" fill="none" stroke="black"/>
<path d="M63.9961,302.083h -6.80315" fill="none" stroke="black"/>
<path d="M63.9961,294.76h -6.80315" fill="none" stroke="black"/>
<path d="M70.7992,287.436h -13.6063" fill="none" stroke="black"/>
<path d="M63.9961,280.113h -6.80315" fill="none" stroke="black"/>
<path d="M63.9961,272.79h -6.80315" fill="none" stroke="black"/>
<path d="M63.9961,265.467h -6.80315" fill="none" stroke="black"/>
<path d="M70.7992,258.144h -13.6063" fill="none" stroke="black"/>
<path d="M63.9961,250.82h -6.80315" fill="none" stroke="black"/>
<path d="M63.9961,243.497h -6.80315" fill="none" stroke="black"/>
<path d="M63.9961,236.174h -6.80315" fill="none" stroke="black"/>
<path d="M70.7992,228.851h -13.6063" fill="none" stroke="black"/>
<path d="M63.9961,221.527h -6.80315" fill="none" stroke="black"/>
<path d="M63.9961,214.204h -6.80315" fill="none" stroke="black"/>
<path d="M63.9961,206.881h -6.80315" fill="none" stroke="black"/>
<path d="M70.7992,199.558h -13.6063" fill="none" stroke="black"/>
<path d="M63.9961,192.235h -6.80315" fill="none" stroke="black"/>
<path d="M63.9961,184.911h -6.80315" fill="none" stroke="black"/>
<path d="M63.9961,177.588h -6.80315" fill="none" stroke="black"/>
<path d="M70.7992,170.265h -13.6063" fill="none" stroke="black"/>
<path d="M63.9961,162.942h -6.80315" fill="none" stroke="black"/>
<path d="M63.9961,155.618h -6.80315" fill="none" stroke="black"/>
<path d="M63.9961,148.295h -6.80315" fill="none" stroke="black"/>
<path d="M70.7992,140.972h -13.6063" fill="none" stroke="black"/>
<path d="M63.9961,133.649h -6.80315" fill="none" stroke="black"/>
<path d="M63.9961,126.326h -6.80315" fill="none" stroke="black"/>
<path d="M63.9961,119.002h -6.80315" fill="none" stroke="black"/>
<path d="M70.7992,111.679h -13.6063" fill="none" stroke="black"/>
<path d="M63.9961,104.356h -6.80315" fill="none" stroke="black"/>
<path d="M63.9961,97.0327h -6.80315" fill="none" stroke="black"/>
<path d="M63.9961,89.7095h -6.80315" fill="none" stroke="black"/>
<path d="M70.7992,82.3863h -13.6063" fill="none" stroke="black"/>
<path d="M63.9961,75.063h -6.80315" fill="none" stroke="black"/>
<path d="M63.9961,67.7398h -6.80315" fill="none" stroke="black"/>
<path d="M63.9961,60.4166h -6.80315" fill="none" stroke="black"/>
<path d="M70.7992,53.0934h -13.6063" fill="none" stroke="black"/>
<path d="M70.7992,53.0934h -13.6063" fill="none" stroke="black"/>
<path d="M63.9961,45.7701h -6.80315" fill="none" stroke="black"/>
<path d="M63.9961,38.4469h -6.80315" fill="none" stroke="black"/>
<text xml:space="preserve" x="47.7441" y="350.258" fill="black" font-size="12.8453" font-family="Helvetica">0</text>
<text xml:space="preserve" x="47.7441" y="320.934" fill="black" font-size="12.8453" font-family="Helvetica">2</text>
<text xml:space="preserve" x="47.7441" y="291.61" fill="black" font-size="12.8453" font-family="Helvetica">4</text>
<text xml:space="preserve" x="47.7441" y="262.286" fill="black" font-size="12.8453" font-family="Helvetica">6</text>
<text xml:space="preserve" x="47.7441" y="232.962" fill="black" font-size="12.8453" font-family="Helvetica">8</text>
<text xml:space="preserve" x="41.2277" y="203.638" fill="black" font-size="12.8453" font-family="Helvetica">10</text>
<text xml:space="preserve" x="40.4131" y="175.129" fill="black" font-size="12.8453" font-family="Helvetica">12</text>
<text xml:space="preserve" x="40.4131" y="145.805" fill="black" font-size="12.8453" font-family="Helvetica">14</text>
<text xml:space="preserve" x="40.4131" y="116.481" fill="black" font-size="12.8453" font-family="Helvetica">16</text>
<text xml:space="preserve" x="40.4131" y="87.1572" fill="black" font-size="12.8453" font-family="Helvetica">18</text>
<text xml:space="preserve" x="41.2277" y="57.8333" fill="black" font-size="12.8453" font-family="Helvetica">20</text>
<g transform="rotate(-90,27.3803,103.448)">
<text xml:space="preserve" x="27.3803" y="103.448" fill="black" font-size="12.8453" font-family="Helvetica">Num Blocks</text>
</g>
<text xml:space="preserve" x="201.695" y="17.9202" fill="black" font-size="18.7938" font-family="Helvetica">sector 16 (adjusted)</text>
<rect x="351.996" y="24.9905" width="204.094" height="92.2726" fill="white"/>
<path d="M351.996,117.263h 204.094" fill="none" stroke="black"/>
<path d="M556.091,117.263v -92.2726" fill="none" stroke="black"/>
<path d="M556.091,24.9905h -204.094" fill="none" stroke="black"/>
<path d="M351.996,24.9905v 92.2726" fill="none" stroke="black"/>
<text xml:space="preserve" x="434.657" y="38.284" fill="black" font-size="16.0763" font-family="Helvetica">adj_h</text>
<path d="M351.996,43.445h 204.094" fill="none" stroke="black"/>
<text xml:space="preserve" x="376.009" y="57.8333" fill="black" font-size="16.0763" font-family="Helvetica"> / ndf </text>
<text xml:space="preserve" x="370.307" y="52.946" fill="black" font-size="10.8842" font-family="Helvetica">2</text>
<text xml:space="preserve" x="362.162" y="57.8333" fill="black" font-size="16.0763" font-family="Times">&#0967;</text>
<text xml:space="preserve" x="481.086" y="57.8333" fill="black" font-size="16.0763" font-family="Helvetica"> 2.883 / 3</text>
<text xml:space="preserve" x="362.162" y="77.3826" fill="black" font-size="16.0763" font-family="Helvetica">Constant </text>
<text xml:space="preserve" x="511.225" y="76.568" fill="black" font-size="16.0763" font-family="Helvetica"> 3.24</text>
<text xml:space="preserve" x="502.265" y="76.568" fill="black" font-size="16.0763" font-family="Times">&#0177;</text>
<text xml:space="preserve" x="455.021" y="76.568" fill="black" font-size="16.0763" font-family="Helvetica"> 17.32 </text>
<text xml:space="preserve" x="362.162" y="94.4882" fill="black" font-size="16.0763" font-family="Helvetica">Mean     </text>
<text xml:space="preserve" x="520.185" y="94.4882" fill="black" font-size="16.0763" font-family="Helvetica"> 4.2</text>
<text xml:space="preserve" x="511.225" y="94.4882" fill="black" font-size="16.0763" font-family="Times">&#0177;</text>
<text xml:space="preserve" x="468.054" y="94.4882" fill="black" font-size="16.0763" font-family="Helvetica">   307 </text>
<text xml:space="preserve" x="362.162" y="112.408" fill="black" font-size="16.0763" font-family="Helvetica">Sigma    </text>
<text xml:space="preserve" x="511.225" y="113.223" fill="black" font-size="16.0763" font-family="Helvetica"> 4.68</text>
<text xml:space="preserve" x="502.265" y="113.223" fill="black" font-size="16.0763" font-family="Times">&#0177;</text>
<text xml:space="preserve" x="455.021" y="113.223" fill="black" font-size="16.0763" font-family="Helvetica"> 28.12 </text>
<g stroke="black" stroke-width="1" fill="none">
<line x1="63.752" y1="346.022" x2="64.752" y2="346.022"/>
</g>
<g stroke="black" stroke-width="1" fill="none">
<line x1="78.8701" y1="346.022" x2="79.8701" y2="346.022"/>
</g>
<g stroke="black" stroke-width="1" fill="none">
<line x1="93.9882" y1="346.022" x2="94.9882" y2="346.022"/>
</g>
<g stroke="black" stroke-width="1" fill="none">
<line x1="109.106" y1="346.022" x2="110.106" y2="346.022"/>
</g>
<g stroke="black" stroke-width="1" fill="none">
<line x1="124.224" y1="346.022" x2="125.224" y2="346.022"/>
</g>
<g stroke="black" stroke-width="1" fill="none">
<line x1="139.343" y1="346.022" x2="140.343" y2="346.022"/>
</g>
<g stroke="black" stroke-width="1" fill="none">
<line x1="154.461" y1="346.022" x2="155.461" y2="346.022"/>
</g>
<g stroke="black" stroke-width="1" fill="none">
<line x1="169.579" y1="346.022" x2="170.579" y2="346.022"/>
</g>
<g stroke="black" stroke-width="1" fill="none">
<line x1="184.697" y1="346.022" x2="185.697" y2="346.022"/>
</g>
<g stroke="black" stroke-width="1" fill="none">
<line x1="199.815" y1="346.022" x2="200.815" y2="346.022"/>
</g>
<g stroke="black" stroke-width="1" fill="none">
<line x1="214.933" y1="346.022" x2="215.933" y2="346.022"/>
</g>
<g stroke="black" stroke-width="1" fill="none">
<line x1="230.051" y1="346.022" x2="231.051" y2="346.022"/>
</g>
<g stroke="black" stroke-width="1" fill="none">
<line x1="245.169" y1="346.022" x2="246.169" y2="346.022"/>
</g>
<path d="M261.287,294.02v -35.8763" fill="none" stroke="#000099"/>
<path d="M261.287,258.144v -35.8763" fill="none" stroke="#000099"/>
<path d="M253.728,258.144h 7.55905" fill="none" stroke="#000099"/>
<path d="M261.287,258.144h 7.55905" fill="none" stroke="#000099"/>
<g stroke="black" stroke-width="1" fill="none">
<line x1="260.287" y1="258.144" x2="261.287" y2="258.144"/>
</g>
<path d="M276.406,157.422v -60.3888" fill="none" stroke="#000099"/>
<path d="M276.406,97.0327v -58.5858" fill="none" stroke="#000099"/>
<path d="M268.846,97.0327h 7.55905" fill="none" stroke="#000099"/>
<path d="M276.406,97.0327h 7.55905" fill="none" stroke="#000099"/>
<g stroke="black" stroke-width="1" fill="none">
<line x1="275.406" y1="97.0327" x2="276.406" y2="97.0327"/>
</g>
<path d="M291.524,118.594v -65.5009" fill="none" stroke="#000099"/>
<path d="M291.524,53.0934v -14.6464" fill="none" stroke="#000099"/>
<path d="M283.965,53.0934h 7.55905" fill="none" stroke="#000099"/>
<path d="M291.524,53.0934h 7.55905" fill="none" stroke="#000099"/>
<g stroke="black" stroke-width="1" fill="none">
<line x1="290.524" y1="53.0934" x2="291.524" y2="53.0934"/>
</g>
<path d="M306.642,258.144v -43.9393" fill="none" stroke="#000099"/>
<path d="M306.642,214.204v -43.9393" fill="none" stroke="#000099"/>
<path d="M299.083,214.204h 7.55905" fill="none" stroke="#000099"/>
<path d="M306.642,214.204h 7.55905" fill="none" stroke="#000099"/>
<g stroke="black" stroke-width="1" fill="none">
<line x1="305.642" y1="214.204" x2="306.642" y2="214.204"/>
</g>
<path d="M321.76,282.248v -38.7509" fill="none" stroke="#000099"/>
<path d="M321.76,243.497v -38.7509" fill="none" stroke="#000099"/>
<path d="M314.201,243.497h 7.55905" fill="none" stroke="#000099"/>
<path d="M321.76,243.497h 7.55905" fill="none" stroke="#000099"/>
<g stroke="black" stroke-width="1" fill="none">
<line x1="320.76" y1="243.497" x2="321.76" y2="243.497"/>
</g>
<path d="M336.878,337.443v -20.7132" fill="none" stroke="#000099"/>
<path d="M336.878,316.729v -20.7132" fill="none" stroke="#000099"/>
<path d="M329.319,316.729h 7.55905" fill="none" stroke="#000099"/>
<path d="M336.878,316.729h 7.55905" fill="none" stroke="#000099"/>
<g stroke="black" stroke-width="1" fill="none">
<line x1="335.878" y1="316.729" x2="336.878" y2="316.729"/>
</g>
<g stroke="black" stroke-width="1" fill="none">
<line x1="350.996" y1="346.022" x2="351.996" y2="346.022"/>
</g>
<g stroke="black" stroke-width="1" fill="none">
<line x1="366.114" y1="346.022" x2="367.114" y2="346.022"/>
</g>
<g stroke="black" stroke-width="1" fill="none">
<line x1="381.232" y1="346.022" x2="382.232" y2="346.022"/>
</g>
<g stroke="black" stroke-width="1" fill="none">
<line x1="396.35" y1="346.022" x2="397.35" y2="346.022"/>
</g>
<g stroke="black" stroke-width="1" fill="none">
<line x1="411.469" y1="346.022" x2="412.469" y2="346.022"/>
</g>
<g stroke="black" stroke-width="1" fill="none">
<line x1="426.587" y1="346.022" x2="427.587" y2="346.022"/>
</g>
<g stroke="black" stroke-width="1" fill="none">
<line x1="441.705" y1="346.022" x2="442.705" y2="346.022"/>
</g>
<g stroke="black" stroke-width="1" fill="none">
<line x1="456.823" y1="346.022" x2="457.823" y2="346.022"/>
</g>
<g stroke="black" stroke-width="1" fill="none">
<line x1="471.941" y1="346.022" x2="472.941" y2="346.022"/>
</g>
<g stroke="black" stroke-width="1" fill="none">
<line x1="487.059" y1="346.022" x2="488.059" y2="346.022"/>
</g>
<g stroke="black" stroke-width="1" fill="none">
<line x1="502.177" y1="346.022" x2="503.177" y2="346.022"/>
</g>
<path d="M59.4606,346.022h 136.063l 4.53543, -0.0379489l 4.53543, -0.052894l 4.53543, -0.116938l 4.53543, -0.246308l 4.53543, -0.494108l 4.53543, -0.943616l 4.53543, -1.71464l 4.53543, -2.96261l 4.53543, -4.86364l 4.53543, -7.57879l 4.53543,
 -11.1954l 4.53543, -15.6513l 4.53543, -20.6614l 4.53543, -25.6748l 4.53543, -29.896l 4.53543, -32.3924l 4.53543, -32.2845l 4.53543, -28.979l 4.53543, -22.3803" fill="none" stroke="#ff0000" stroke-width="2"/>
<path d="M281.697,107.896l 4.53543, -13.0009l 4.53543, -1.92033l 4.53543, 9.41665l 4.53543, 19.5089l 4.53543, 27.1255l 4.53543, 31.5512l 4.53543, 32.6838l 4.53543, 30.97l 4.53543, 27.22l 4.53543, 22.3733l 4.53543, 17.2874l 4.53543, 12.6015l 4.53543,
 8.68758l 4.53543, 5.67483l 4.53543, 3.51714l 4.53543, 2.07051l 4.53543, 1.15874l 4.53543, 0.616893l 4.53543, 0.312603l 4.53543, 0.150847l 4.53543, 0.0693434l 4.53543, 0.0510769h 122.457" fill="none" stroke="#ff0000" stroke-width="2"/>
<path d="M503.933,346.022h 4.53543" fill="none" stroke="#ff0000" stroke-width="2"/>
<rect x="351.996" y="24.9905" width="204.094" height="92.2726" fill="white"/>
<path d="M351.996,117.263h 204.094" fill="none" stroke="black"/>
<path d="M556.091,117.263v -92.2726" fill="none" stroke="black"/>
<path d="M556.091,24.9905h -204.094" fill="none" stroke="black"/>
<path d="M351.996,24.9905v 92.2726" fill="none" stroke="black"/>
<text xml:space="preserve" x="434.657" y="38.284" fill="black" font-size="16.0763" font-family="Helvetica">adj_h</text>
<path d="M351.996,43.445h 204.094" fill="none" stroke="black"/>
<text xml:space="preserve" x="376.009" y="57.8333" fill="black" font-size="16.0763" font-family="Helvetica"> / ndf </text>
<text xml:space="preserve" x="370.307" y="52.946" fill="black" font-size="10.8842" font-family="Helvetica">2</text>
<text xml:space="preserve" x="362.162" y="57.8333" fill="black" font-size="16.0763" font-family="Times">&#0967;</text>
<text xml:space="preserve" x="481.086" y="57.8333" fill="black" font-size="16.0763" font-family="Helvetica"> 2.883 / 3</text>
<text xml:space="preserve" x="362.162" y="77.3826" fill="black" font-size="16.0763" font-family="Helvetica">Constant </text>
<text xml:space="preserve" x="511.225" y="76.568" fill="black" font-size="16.0763" font-family="Helvetica"> 3.24</text>
<text xml:space="preserve" x="502.265" y="76.568" fill="black" font-size="16.0763" font-family="Times">&#0177;</text>
<text xml:space="preserve" x="455.021" y="76.568" fill="black" font-size="16.0763" font-family="Helvetica"> 17.32 </text>
<text xml:space="preserve" x="362.162" y="94.4882" fill="black" font-size="16.0763" font-family="Helvetica">Mean     </text>
<text xml:space="preserve" x="520.185" y="94.4882" fill="black" font-size="16.0763" font-family="Helvetica"> 4.2</text>
<text xml:space="preserve" x="511.225" y="94.4882" fill="black" font-size="16.0763" font-family="Times">&#0177;</text>
<text xml:space="preserve" x="468.054" y="94.4882" fill="black" font-size="16.0763" font-family="Helvetica">   307 </text>
<text xml:space="preserve" x="362.162" y="112.408" fill="black" font-size="16.0763" font-family="Helvetica">Sigma    </text>
<text xml:space="preserve" x="511.225" y="113.223" fill="black" font-size="16.0763" font-family="Helvetica"> 4.68</text>
<text xml:space="preserve" x="502.265" y="113.223" fill="black" font-size="16.0763" font-family="Times">&#0177;</text>
<text xml:space="preserve" x="455.021" y="113.223" fill="black" font-size="16.0763" font-family="Helvetica"> 28.12 </text>
<text xml:space="preserve" x="201.695" y="17.9202" fill="black" font-size="18.7938" font-family="Helvetica">sector 16 (adjusted)</text></svg>
