<?xml version="1.0" standalone="no"?>
<svg width="567.429" height="384.969" viewBox="0 0 567.429 384.969" xmlns="http://www.w3.org/2000/svg" shape-rendering="crispEdges">
<title>
./adjusted_vop/sector/sector1.svg
</title>
<desc>
Creator: ROOT Version 6.24/00
CreationDate: Mon Jul 19 20:49:52 2021</desc>
<defs>
</defs>
<rect x="0.5" y="0" width="566.929" height="384.469" fill="white"/>
<rect x="57.1929" y="38.4469" width="453.543" height="307.575" fill="white"/>
<rect x="57.1929" y="38.4469" width="453.543" height="307.575" fill="none" stroke="black"/>
<path d="M57.1929,346.022h 136.063v -14.6464h 15.1181v 14.6464h 15.1181v -14.6464h 15.1181v -190.404h 15.1181v 87.8787h 15.1181v -87.8787h 15.1181v -87.8787h 15.1181v 117.172h 15.1181v 29.2929h 15.1181v 58.5858h 15.1181v 43.9393h 15.1181v 29.2929h
 15.1181v 14.6464h 136.063" fill="none" stroke="#000099"/>
<path d="M59.4606,346.022h 104.315l 4.53543, -0.0557779l 4.53543, -0.0454324l 4.53543, -0.0784332l 4.53543, -0.132262l 4.53543, -0.217828l 4.53543, -0.350335l 4.53543, -0.550141l 4.53543, -0.843353l 4.53543, -1.26184l 4.53543, -1.84227l 4.53543,
 -2.62387l 4.53543, -3.64447l 4.53543, -4.93477l 4.53543, -6.51097l 4.53543, -8.36638l 4.53543, -10.463l 4.53543, -12.7247l 4.53543, -15.0337l 4.53543, -17.2321l 4.53543, -19.1295l 4.53543, -20.5185l 4.53543, -21.1946l 4.53543, -20.9822l 4.53543,
 -19.7595l 4.53543, -17.4812l 4.53543, -14.1939" fill="none" stroke="#ff0000" stroke-width="2"/>
<path d="M281.697,125.851l 4.53543, -10.0397l 4.53543, -5.24811l 4.53543, -0.115796l 4.53543, 5.02409l 4.53543, 9.83756l 4.53543, 14.0257l 4.53543, 17.3554l 4.53543, 19.6804l 4.53543, 20.9498l 4.53543, 21.2052l 4.53543, 20.5653l 4.53543, 19.2039l
 4.53543, 17.3246l 4.53543, 15.1355l 4.53543, 12.8277l 4.53543, 10.5611l 4.53543, 8.45516l 4.53543, 6.58793l 4.53543, 4.99893l 4.53543, 3.69609l 4.53543, 2.66403l 4.53543, 1.87255l 4.53543, 1.28398l 4.53543, 0.859091l 4.53543, 0.561011l 4.53543,
 0.35764l 4.53543, 0.222607l 4.53543, 0.135306l 4.53543, 0.0803227l 4.53543, 0.0465755l 4.53543, 0.0263829l 4.53543, 0.0309239h 77.1024" fill="none" stroke="#ff0000" stroke-width="2"/>
<path d="M503.933,346.022h 4.53543" fill="none" stroke="#ff0000" stroke-width="2"/>
<path d="M57.1929,346.022h 453.543" fill="none" stroke="black"/>
<path d="M57.1929,336.795v 9.22726" fill="none" stroke="black"/>
<path d="M72.311,341.409v 4.61363" fill="none" stroke="black"/>
<path d="M87.4291,341.409v 4.61363" fill="none" stroke="black"/>
<path d="M102.547,341.409v 4.61363" fill="none" stroke="black"/>
<path d="M117.665,341.409v 4.61363" fill="none" stroke="black"/>
<path d="M132.783,336.795v 9.22726" fill="none" stroke="black"/>
<path d="M147.902,341.409v 4.61363" fill="none" stroke="black"/>
<path d="M163.02,341.409v 4.61363" fill="none" stroke="black"/>
<path d="M178.138,341.409v 4.61363" fill="none" stroke="black"/>
<path d="M193.256,341.409v 4.61363" fill="none" stroke="black"/>
<path d="M208.374,336.795v 9.22726" fill="none" stroke="black"/>
<path d="M223.492,341.409v 4.61363" fill="none" stroke="black"/>
<path d="M238.61,341.409v 4.61363" fill="none" stroke="black"/>
<path d="M253.728,341.409v 4.61363" fill="none" stroke="black"/>
<path d="M268.846,341.409v 4.61363" fill="none" stroke="black"/>
<path d="M283.965,336.795v 9.22726" fill="none" stroke="black"/>
<path d="M299.083,341.409v 4.61363" fill="none" stroke="black"/>
<path d="M314.201,341.409v 4.61363" fill="none" stroke="black"/>
<path d="M329.319,341.409v 4.61363" fill="none" stroke="black"/>
<path d="M344.437,341.409v 4.61363" fill="none" stroke="black"/>
<path d="M359.555,336.795v 9.22726" fill="none" stroke="black"/>
<path d="M374.673,341.409v 4.61363" fill="none" stroke="black"/>
<path d="M389.791,341.409v 4.61363" fill="none" stroke="black"/>
<path d="M404.909,341.409v 4.61363" fill="none" stroke="black"/>
<path d="M420.028,341.409v 4.61363" fill="none" stroke="black"/>
<path d="M435.146,336.795v 9.22726" fill="none" stroke="black"/>
<path d="M450.264,341.409v 4.61363" fill="none" stroke="black"/>
<path d="M465.382,341.409v 4.61363" fill="none" stroke="black"/>
<path d="M480.5,341.409v 4.61363" fill="none" stroke="black"/>
<path d="M495.618,341.409v 4.61363" fill="none" stroke="black"/>
<path d="M510.736,336.795v 9.22726" fill="none" stroke="black"/>
<text xml:space="preserve" x="53.446" y="358.403" fill="black" font-size="12.8453" font-family="Helvetica">0</text>
<text xml:space="preserve" x="121.868" y="358.403" fill="black" font-size="12.8453" font-family="Helvetica">100</text>
<text xml:space="preserve" x="197.622" y="358.403" fill="black" font-size="12.8453" font-family="Helvetica">200</text>
<text xml:space="preserve" x="273.375" y="358.403" fill="black" font-size="12.8453" font-family="Helvetica">300</text>
<text xml:space="preserve" x="348.314" y="358.403" fill="black" font-size="12.8453" font-family="Helvetica">400</text>
<text xml:space="preserve" x="424.068" y="358.403" fill="black" font-size="12.8453" font-family="Helvetica">500</text>
<text xml:space="preserve" x="499.821" y="358.403" fill="black" font-size="12.8453" font-family="Helvetica">600</text>
<text xml:space="preserve" x="483.53" y="372.251" fill="black" font-size="12.8453" font-family="Helvetica">MPV</text>
<path d="M57.1929,346.022v -307.575" fill="none" stroke="black"/>
<path d="M70.7992,346.022h -13.6063" fill="none" stroke="black"/>
<path d="M63.9961,333.817h -6.80315" fill="none" stroke="black"/>
<path d="M63.9961,321.612h -6.80315" fill="none" stroke="black"/>
<path d="M63.9961,309.406h -6.80315" fill="none" stroke="black"/>
<path d="M70.7992,297.201h -13.6063" fill="none" stroke="black"/>
<path d="M63.9961,284.995h -6.80315" fill="none" stroke="black"/>
<path d="M63.9961,272.79h -6.80315" fill="none" stroke="black"/>
<path d="M63.9961,260.585h -6.80315" fill="none" stroke="black"/>
<path d="M70.7992,248.379h -13.6063" fill="none" stroke="black"/>
<path d="M63.9961,236.174h -6.80315" fill="none" stroke="black"/>
<path d="M63.9961,223.969h -6.80315" fill="none" stroke="black"/>
<path d="M63.9961,211.763h -6.80315" fill="none" stroke="black"/>
<path d="M70.7992,199.558h -13.6063" fill="none" stroke="black"/>
<path d="M63.9961,187.352h -6.80315" fill="none" stroke="black"/>
<path d="M63.9961,175.147h -6.80315" fill="none" stroke="black"/>
<path d="M63.9961,162.942h -6.80315" fill="none" stroke="black"/>
<path d="M70.7992,150.736h -13.6063" fill="none" stroke="black"/>
<path d="M63.9961,138.531h -6.80315" fill="none" stroke="black"/>
<path d="M63.9961,126.326h -6.80315" fill="none" stroke="black"/>
<path d="M63.9961,114.12h -6.80315" fill="none" stroke="black"/>
<path d="M70.7992,101.915h -13.6063" fill="none" stroke="black"/>
<path d="M63.9961,89.7095h -6.80315" fill="none" stroke="black"/>
<path d="M63.9961,77.5041h -6.80315" fill="none" stroke="black"/>
<path d="M63.9961,65.2987h -6.80315" fill="none" stroke="black"/>
<path d="M70.7992,53.0934h -13.6063" fill="none" stroke="black"/>
<path d="M70.7992,53.0934h -13.6063" fill="none" stroke="black"/>
<path d="M63.9961,40.888h -6.80315" fill="none" stroke="black"/>
<text xml:space="preserve" x="47.7441" y="350.258" fill="black" font-size="12.8453" font-family="Helvetica">0</text>
<text xml:space="preserve" x="41.2277" y="301.385" fill="black" font-size="12.8453" font-family="Helvetica">20</text>
<text xml:space="preserve" x="41.2277" y="252.512" fill="black" font-size="12.8453" font-family="Helvetica">40</text>
<text xml:space="preserve" x="41.2277" y="203.638" fill="black" font-size="12.8453" font-family="Helvetica">60</text>
<text xml:space="preserve" x="41.2277" y="155.58" fill="black" font-size="12.8453" font-family="Helvetica">80</text>
<text xml:space="preserve" x="33.8967" y="106.706" fill="black" font-size="12.8453" font-family="Helvetica">100</text>
<text xml:space="preserve" x="33.8967" y="57.8333" fill="black" font-size="12.8453" font-family="Helvetica">120</text>
<g transform="rotate(-90,20.8638,103.448)">
<text xml:space="preserve" x="20.8638" y="103.448" fill="black" font-size="12.8453" font-family="Helvetica">Num Blocks</text>
</g>
<text xml:space="preserve" x="206.582" y="17.9202" fill="black" font-size="18.7938" font-family="Helvetica">sector 1 (adjusted)</text>
<rect x="351.996" y="24.9905" width="204.094" height="92.2726" fill="white"/>
<path d="M351.996,117.263h 204.094" fill="none" stroke="black"/>
<path d="M556.091,117.263v -92.2726" fill="none" stroke="black"/>
<path d="M556.091,24.9905h -204.094" fill="none" stroke="black"/>
<path d="M351.996,24.9905v 92.2726" fill="none" stroke="black"/>
<text xml:space="preserve" x="434.657" y="38.284" fill="black" font-size="16.0763" font-family="Helvetica">adj_h</text>
<path d="M351.996,43.445h 204.094" fill="none" stroke="black"/>
<text xml:space="preserve" x="376.009" y="57.8333" fill="black" font-size="16.0763" font-family="Helvetica"> / ndf </text>
<text xml:space="preserve" x="370.307" y="52.946" fill="black" font-size="10.8842" font-family="Helvetica">2</text>
<text xml:space="preserve" x="362.162" y="57.8333" fill="black" font-size="16.0763" font-family="Times">&#0967;</text>
<text xml:space="preserve" x="481.086" y="57.8333" fill="black" font-size="16.0763" font-family="Helvetica"> 55.96 / 8</text>
<text xml:space="preserve" x="362.162" y="77.3826" fill="black" font-size="16.0763" font-family="Helvetica">Constant </text>
<text xml:space="preserve" x="511.225" y="76.568" fill="black" font-size="16.0763" font-family="Helvetica"> 5.59</text>
<text xml:space="preserve" x="502.265" y="76.568" fill="black" font-size="16.0763" font-family="Times">&#0177;</text>
<text xml:space="preserve" x="455.021" y="76.568" fill="black" font-size="16.0763" font-family="Helvetica"> 96.75 </text>
<text xml:space="preserve" x="362.162" y="94.4882" fill="black" font-size="16.0763" font-family="Helvetica">Mean     </text>
<text xml:space="preserve" x="520.185" y="94.4882" fill="black" font-size="16.0763" font-family="Helvetica"> 1.9</text>
<text xml:space="preserve" x="511.225" y="94.4882" fill="black" font-size="16.0763" font-family="Times">&#0177;</text>
<text xml:space="preserve" x="466.425" y="94.4882" fill="black" font-size="16.0763" font-family="Helvetica"> 312.1 </text>
<text xml:space="preserve" x="362.162" y="112.408" fill="black" font-size="16.0763" font-family="Helvetica">Sigma    </text>
<text xml:space="preserve" x="511.225" y="113.223" fill="black" font-size="16.0763" font-family="Helvetica"> 1.56</text>
<text xml:space="preserve" x="502.265" y="113.223" fill="black" font-size="16.0763" font-family="Times">&#0177;</text>
<text xml:space="preserve" x="457.464" y="113.223" fill="black" font-size="16.0763" font-family="Helvetica"> 40.41 </text>
<g stroke="black" stroke-width="1" fill="none">
<line x1="63.752" y1="346.022" x2="64.752" y2="346.022"/>
</g>
<g stroke="black" stroke-width="1" fill="none">
<line x1="78.8701" y1="346.022" x2="79.8701" y2="346.022"/>
</g>
<g stroke="black" stroke-width="1" fill="none">
<line x1="93.9882" y1="346.022" x2="94.9882" y2="346.022"/>
</g>
<g stroke="black" stroke-width="1" fill="none">
<line x1="109.106" y1="346.022" x2="110.106" y2="346.022"/>
</g>
<g stroke="black" stroke-width="1" fill="none">
<line x1="124.224" y1="346.022" x2="125.224" y2="346.022"/>
</g>
<g stroke="black" stroke-width="1" fill="none">
<line x1="139.343" y1="346.022" x2="140.343" y2="346.022"/>
</g>
<g stroke="black" stroke-width="1" fill="none">
<line x1="154.461" y1="346.022" x2="155.461" y2="346.022"/>
</g>
<g stroke="black" stroke-width="1" fill="none">
<line x1="169.579" y1="346.022" x2="170.579" y2="346.022"/>
</g>
<g stroke="black" stroke-width="1" fill="none">
<line x1="184.697" y1="346.022" x2="185.697" y2="346.022"/>
</g>
<path d="M200.815,337.355v -5.97939" fill="none" stroke="#000099"/>
<path d="M200.815,331.376v -5.97939" fill="none" stroke="#000099"/>
<path d="M193.256,331.376h 7.55905" fill="none" stroke="#000099"/>
<path d="M200.815,331.376h 7.55905" fill="none" stroke="#000099"/>
<g stroke="black" stroke-width="1" fill="none">
<line x1="199.815" y1="331.376" x2="200.815" y2="331.376"/>
</g>
<g stroke="black" stroke-width="1" fill="none">
<line x1="214.933" y1="346.022" x2="215.933" y2="346.022"/>
</g>
<path d="M231.051,337.355v -5.97939" fill="none" stroke="#000099"/>
<path d="M231.051,331.376v -5.97939" fill="none" stroke="#000099"/>
<path d="M223.492,331.376h 7.55905" fill="none" stroke="#000099"/>
<path d="M231.051,331.376h 7.55905" fill="none" stroke="#000099"/>
<g stroke="black" stroke-width="1" fill="none">
<line x1="230.051" y1="331.376" x2="231.051" y2="331.376"/>
</g>
<path d="M246.169,163.345v -22.3728" fill="none" stroke="#000099"/>
<path d="M246.169,140.972v -22.3728" fill="none" stroke="#000099"/>
<path d="M238.61,140.972h 7.55905" fill="none" stroke="#000099"/>
<path d="M246.169,140.972h 7.55905" fill="none" stroke="#000099"/>
<g stroke="black" stroke-width="1" fill="none">
<line x1="245.169" y1="140.972" x2="246.169" y2="140.972"/>
</g>
<path d="M261.287,245.763v -16.9123" fill="none" stroke="#000099"/>
<path d="M261.287,228.851v -16.9123" fill="none" stroke="#000099"/>
<path d="M253.728,228.851h 7.55905" fill="none" stroke="#000099"/>
<path d="M261.287,228.851h 7.55905" fill="none" stroke="#000099"/>
<g stroke="black" stroke-width="1" fill="none">
<line x1="260.287" y1="228.851" x2="261.287" y2="228.851"/>
</g>
<path d="M276.406,163.345v -22.3728" fill="none" stroke="#000099"/>
<path d="M276.406,140.972v -22.3728" fill="none" stroke="#000099"/>
<path d="M268.846,140.972h 7.55905" fill="none" stroke="#000099"/>
<path d="M276.406,140.972h 7.55905" fill="none" stroke="#000099"/>
<g stroke="black" stroke-width="1" fill="none">
<line x1="275.406" y1="140.972" x2="276.406" y2="140.972"/>
</g>
<path d="M291.524,79.834v -26.7406" fill="none" stroke="#000099"/>
<path d="M291.524,53.0934v -14.6464" fill="none" stroke="#000099"/>
<path d="M283.965,53.0934h 7.55905" fill="none" stroke="#000099"/>
<path d="M291.524,53.0934h 7.55905" fill="none" stroke="#000099"/>
<g stroke="black" stroke-width="1" fill="none">
<line x1="290.524" y1="53.0934" x2="291.524" y2="53.0934"/>
</g>
<path d="M306.642,190.978v -20.7132" fill="none" stroke="#000099"/>
<path d="M306.642,170.265v -20.7132" fill="none" stroke="#000099"/>
<path d="M299.083,170.265h 7.55905" fill="none" stroke="#000099"/>
<path d="M306.642,170.265h 7.55905" fill="none" stroke="#000099"/>
<g stroke="black" stroke-width="1" fill="none">
<line x1="305.642" y1="170.265" x2="306.642" y2="170.265"/>
</g>
<path d="M321.76,218.466v -18.9085" fill="none" stroke="#000099"/>
<path d="M321.76,199.558v -18.9085" fill="none" stroke="#000099"/>
<path d="M314.201,199.558h 7.55905" fill="none" stroke="#000099"/>
<path d="M321.76,199.558h 7.55905" fill="none" stroke="#000099"/>
<g stroke="black" stroke-width="1" fill="none">
<line x1="320.76" y1="199.558" x2="321.76" y2="199.558"/>
</g>
<path d="M336.878,272.79v -14.6464" fill="none" stroke="#000099"/>
<path d="M336.878,258.144v -14.6464" fill="none" stroke="#000099"/>
<path d="M329.319,258.144h 7.55905" fill="none" stroke="#000099"/>
<path d="M336.878,258.144h 7.55905" fill="none" stroke="#000099"/>
<g stroke="black" stroke-width="1" fill="none">
<line x1="335.878" y1="258.144" x2="336.878" y2="258.144"/>
</g>
<path d="M351.996,312.44v -10.3566" fill="none" stroke="#000099"/>
<path d="M351.996,302.083v -10.3566" fill="none" stroke="#000099"/>
<path d="M344.437,302.083h 7.55905" fill="none" stroke="#000099"/>
<path d="M351.996,302.083h 7.55905" fill="none" stroke="#000099"/>
<g stroke="black" stroke-width="1" fill="none">
<line x1="350.996" y1="302.083" x2="351.996" y2="302.083"/>
</g>
<path d="M367.114,337.355v -5.97939" fill="none" stroke="#000099"/>
<path d="M367.114,331.376v -5.97939" fill="none" stroke="#000099"/>
<path d="M359.555,331.376h 7.55905" fill="none" stroke="#000099"/>
<path d="M367.114,331.376h 7.55905" fill="none" stroke="#000099"/>
<g stroke="black" stroke-width="1" fill="none">
<line x1="366.114" y1="331.376" x2="367.114" y2="331.376"/>
</g>
<g stroke="black" stroke-width="1" fill="none">
<line x1="381.232" y1="346.022" x2="382.232" y2="346.022"/>
</g>
<g stroke="black" stroke-width="1" fill="none">
<line x1="396.35" y1="346.022" x2="397.35" y2="346.022"/>
</g>
<g stroke="black" stroke-width="1" fill="none">
<line x1="411.469" y1="346.022" x2="412.469" y2="346.022"/>
</g>
<g stroke="black" stroke-width="1" fill="none">
<line x1="426.587" y1="346.022" x2="427.587" y2="346.022"/>
</g>
<g stroke="black" stroke-width="1" fill="none">
<line x1="441.705" y1="346.022" x2="442.705" y2="346.022"/>
</g>
<g stroke="black" stroke-width="1" fill="none">
<line x1="456.823" y1="346.022" x2="457.823" y2="346.022"/>
</g>
<g stroke="black" stroke-width="1" fill="none">
<line x1="471.941" y1="346.022" x2="472.941" y2="346.022"/>
</g>
<g stroke="black" stroke-width="1" fill="none">
<line x1="487.059" y1="346.022" x2="488.059" y2="346.022"/>
</g>
<g stroke="black" stroke-width="1" fill="none">
<line x1="502.177" y1="346.022" x2="503.177" y2="346.022"/>
</g>
<path d="M59.4606,346.022h 104.315l 4.53543, -0.0557779l 4.53543, -0.0454324l 4.53543, -0.0784332l 4.53543, -0.132262l 4.53543, -0.217828l 4.53543, -0.350335l 4.53543, -0.550141l 4.53543, -0.843353l 4.53543, -1.26184l 4.53543, -1.84227l 4.53543,
 -2.62387l 4.53543, -3.64447l 4.53543, -4.93477l 4.53543, -6.51097l 4.53543, -8.36638l 4.53543, -10.463l 4.53543, -12.7247l 4.53543, -15.0337l 4.53543, -17.2321l 4.53543, -19.1295l 4.53543, -20.5185l 4.53543, -21.1946l 4.53543, -20.9822l 4.53543,
 -19.7595l 4.53543, -17.4812l 4.53543, -14.1939" fill="none" stroke="#ff0000" stroke-width="2"/>
<path d="M281.697,125.851l 4.53543, -10.0397l 4.53543, -5.24811l 4.53543, -0.115796l 4.53543, 5.02409l 4.53543, 9.83756l 4.53543, 14.0257l 4.53543, 17.3554l 4.53543, 19.6804l 4.53543, 20.9498l 4.53543, 21.2052l 4.53543, 20.5653l 4.53543, 19.2039l
 4.53543, 17.3246l 4.53543, 15.1355l 4.53543, 12.8277l 4.53543, 10.5611l 4.53543, 8.45516l 4.53543, 6.58793l 4.53543, 4.99893l 4.53543, 3.69609l 4.53543, 2.66403l 4.53543, 1.87255l 4.53543, 1.28398l 4.53543, 0.859091l 4.53543, 0.561011l 4.53543,
 0.35764l 4.53543, 0.222607l 4.53543, 0.135306l 4.53543, 0.0803227l 4.53543, 0.0465755l 4.53543, 0.0263829l 4.53543, 0.0309239h 77.1024" fill="none" stroke="#ff0000" stroke-width="2"/>
<path d="M503.933,346.022h 4.53543" fill="none" stroke="#ff0000" stroke-width="2"/>
<rect x="351.996" y="24.9905" width="204.094" height="92.2726" fill="white"/>
<path d="M351.996,117.263h 204.094" fill="none" stroke="black"/>
<path d="M556.091,117.263v -92.2726" fill="none" stroke="black"/>
<path d="M556.091,24.9905h -204.094" fill="none" stroke="black"/>
<path d="M351.996,24.9905v 92.2726" fill="none" stroke="black"/>
<text xml:space="preserve" x="434.657" y="38.284" fill="black" font-size="16.0763" font-family="Helvetica">adj_h</text>
<path d="M351.996,43.445h 204.094" fill="none" stroke="black"/>
<text xml:space="preserve" x="376.009" y="57.8333" fill="black" font-size="16.0763" font-family="Helvetica"> / ndf </text>
<text xml:space="preserve" x="370.307" y="52.946" fill="black" font-size="10.8842" font-family="Helvetica">2</text>
<text xml:space="preserve" x="362.162" y="57.8333" fill="black" font-size="16.0763" font-family="Times">&#0967;</text>
<text xml:space="preserve" x="481.086" y="57.8333" fill="black" font-size="16.0763" font-family="Helvetica"> 55.96 / 8</text>
<text xml:space="preserve" x="362.162" y="77.3826" fill="black" font-size="16.0763" font-family="Helvetica">Constant </text>
<text xml:space="preserve" x="511.225" y="76.568" fill="black" font-size="16.0763" font-family="Helvetica"> 5.59</text>
<text xml:space="preserve" x="502.265" y="76.568" fill="black" font-size="16.0763" font-family="Times">&#0177;</text>
<text xml:space="preserve" x="455.021" y="76.568" fill="black" font-size="16.0763" font-family="Helvetica"> 96.75 </text>
<text xml:space="preserve" x="362.162" y="94.4882" fill="black" font-size="16.0763" font-family="Helvetica">Mean     </text>
<text xml:space="preserve" x="520.185" y="94.4882" fill="black" font-size="16.0763" font-family="Helvetica"> 1.9</text>
<text xml:space="preserve" x="511.225" y="94.4882" fill="black" font-size="16.0763" font-family="Times">&#0177;</text>
<text xml:space="preserve" x="466.425" y="94.4882" fill="black" font-size="16.0763" font-family="Helvetica"> 312.1 </text>
<text xml:space="preserve" x="362.162" y="112.408" fill="black" font-size="16.0763" font-family="Helvetica">Sigma    </text>
<text xml:space="preserve" x="511.225" y="113.223" fill="black" font-size="16.0763" font-family="Helvetica"> 1.56</text>
<text xml:space="preserve" x="502.265" y="113.223" fill="black" font-size="16.0763" font-family="Times">&#0177;</text>
<text xml:space="preserve" x="457.464" y="113.223" fill="black" font-size="16.0763" font-family="Helvetica"> 40.41 </text>
<text xml:space="preserve" x="206.582" y="17.9202" fill="black" font-size="18.7938" font-family="Helvetica">sector 1 (adjusted)</text></svg>
