<?xml version="1.0" standalone="no"?>
<svg width="567.429" height="384.969" viewBox="0 0 567.429 384.969" xmlns="http://www.w3.org/2000/svg" shape-rendering="crispEdges">
<title>
./adjusted_vop/sector/sector1.svg
</title>
<desc>
Creator: ROOT Version 6.24/00
CreationDate: Mon Jul 19 21:24:19 2021</desc>
<defs>
</defs>
<rect x="0.5" y="0" width="566.929" height="384.469" fill="white"/>
<rect x="57.1929" y="38.4469" width="453.543" height="307.575" fill="white"/>
<rect x="57.1929" y="38.4469" width="453.543" height="307.575" fill="none" stroke="black"/>
<path d="M57.1929,346.022h 136.063v -15.4173h 15.1181v 15.4173h 15.1181v -30.8346h 15.1181v -169.59h 15.1181v 46.2519h 15.1181v -77.0865h 15.1181v -61.6692h 15.1181v 107.921h 15.1181v 30.8346h 15.1181v 61.6692h 15.1181v 61.6692h 15.1181v 30.8346h
 151.181" fill="none" stroke="#000099"/>
<path d="M59.4606,346.022h 90.7087l 4.53543, -0.0356438l 4.53543, -0.0287627l 4.53543, -0.0496223l 4.53543, -0.083777l 4.53543, -0.138398l 4.53543, -0.22369l 4.53543, -0.35369l 4.53543, -0.547014l 4.53543, -0.827383l 4.53543, -1.22369l 4.53543,
 -1.76931l 4.53543, -2.50036l 4.53543, -3.45264l 4.53543, -4.65706l 4.53543, -6.13368l 4.53543, -7.8847l 4.53543, -9.8871l 4.53543, -12.0861l 4.53543, -14.3906l 4.53543, -16.6724l 4.53543, -18.7701l 4.53543, -20.4987l 4.53543, -21.6642l 4.53543,
 -22.0837l 4.53543, -21.6071l 4.53543, -20.139l 4.53543, -17.6561l 4.53543, -14.2187l 4.53543, -9.97206" fill="none" stroke="#ff0000" stroke-width="2"/>
<path d="M281.697,96.4671l 4.53543, -5.13747l 4.53543, 0.00629803l 4.53543, 5.14968l 4.53543, 9.98317l 4.53543, 14.2281l 4.53543, 17.6633l 4.53543, 20.1438l 4.53543, 21.6094l 4.53543, 22.0837l 4.53543, 21.6622l 4.53543, 20.4951l 4.53543, 18.7654l
 4.53543, 16.667l 4.53543, 14.3849l 4.53543, 12.0806l 4.53543, 9.88198l 4.53543, 7.88014l 4.53543, 6.12977l 4.53543, 4.65382l 4.53543, 3.45004l 4.53543, 2.49833l 4.53543, 1.76777l 4.53543, 1.22256l 4.53543, 0.826576l 4.53543, 0.546451l 4.53543,
 0.353307l 4.53543, 0.223436l 4.53543, 0.138234l 4.53543, 0.0836729l 4.53543, 0.0495581l 4.53543, 0.0287239l 4.53543, 0.0355919h 77.1024" fill="none" stroke="#ff0000" stroke-width="2"/>
<path d="M503.933,346.022h 4.53543" fill="none" stroke="#ff0000" stroke-width="2"/>
<path d="M57.1929,346.022h 453.543" fill="none" stroke="black"/>
<path d="M57.1929,336.795v 9.22726" fill="none" stroke="black"/>
<path d="M72.311,341.409v 4.61363" fill="none" stroke="black"/>
<path d="M87.4291,341.409v 4.61363" fill="none" stroke="black"/>
<path d="M102.547,341.409v 4.61363" fill="none" stroke="black"/>
<path d="M117.665,341.409v 4.61363" fill="none" stroke="black"/>
<path d="M132.783,336.795v 9.22726" fill="none" stroke="black"/>
<path d="M147.902,341.409v 4.61363" fill="none" stroke="black"/>
<path d="M163.02,341.409v 4.61363" fill="none" stroke="black"/>
<path d="M178.138,341.409v 4.61363" fill="none" stroke="black"/>
<path d="M193.256,341.409v 4.61363" fill="none" stroke="black"/>
<path d="M208.374,336.795v 9.22726" fill="none" stroke="black"/>
<path d="M223.492,341.409v 4.61363" fill="none" stroke="black"/>
<path d="M238.61,341.409v 4.61363" fill="none" stroke="black"/>
<path d="M253.728,341.409v 4.61363" fill="none" stroke="black"/>
<path d="M268.846,341.409v 4.61363" fill="none" stroke="black"/>
<path d="M283.965,336.795v 9.22726" fill="none" stroke="black"/>
<path d="M299.083,341.409v 4.61363" fill="none" stroke="black"/>
<path d="M314.201,341.409v 4.61363" fill="none" stroke="black"/>
<path d="M329.319,341.409v 4.61363" fill="none" stroke="black"/>
<path d="M344.437,341.409v 4.61363" fill="none" stroke="black"/>
<path d="M359.555,336.795v 9.22726" fill="none" stroke="black"/>
<path d="M374.673,341.409v 4.61363" fill="none" stroke="black"/>
<path d="M389.791,341.409v 4.61363" fill="none" stroke="black"/>
<path d="M404.909,341.409v 4.61363" fill="none" stroke="black"/>
<path d="M420.028,341.409v 4.61363" fill="none" stroke="black"/>
<path d="M435.146,336.795v 9.22726" fill="none" stroke="black"/>
<path d="M450.264,341.409v 4.61363" fill="none" stroke="black"/>
<path d="M465.382,341.409v 4.61363" fill="none" stroke="black"/>
<path d="M480.5,341.409v 4.61363" fill="none" stroke="black"/>
<path d="M495.618,341.409v 4.61363" fill="none" stroke="black"/>
<path d="M510.736,336.795v 9.22726" fill="none" stroke="black"/>
<text xml:space="preserve" x="53.446" y="358.403" fill="black" font-size="12.8453" font-family="Helvetica">0</text>
<text xml:space="preserve" x="121.868" y="358.403" fill="black" font-size="12.8453" font-family="Helvetica">100</text>
<text xml:space="preserve" x="197.622" y="358.403" fill="black" font-size="12.8453" font-family="Helvetica">200</text>
<text xml:space="preserve" x="273.375" y="358.403" fill="black" font-size="12.8453" font-family="Helvetica">300</text>
<text xml:space="preserve" x="348.314" y="358.403" fill="black" font-size="12.8453" font-family="Helvetica">400</text>
<text xml:space="preserve" x="424.068" y="358.403" fill="black" font-size="12.8453" font-family="Helvetica">500</text>
<text xml:space="preserve" x="499.821" y="358.403" fill="black" font-size="12.8453" font-family="Helvetica">600</text>
<text xml:space="preserve" x="483.53" y="372.251" fill="black" font-size="12.8453" font-family="Helvetica">MPV</text>
<path d="M57.1929,346.022v -307.575" fill="none" stroke="black"/>
<path d="M70.7992,346.022h -13.6063" fill="none" stroke="black"/>
<path d="M63.9961,333.174h -6.80315" fill="none" stroke="black"/>
<path d="M63.9961,320.327h -6.80315" fill="none" stroke="black"/>
<path d="M63.9961,307.479h -6.80315" fill="none" stroke="black"/>
<path d="M70.7992,294.631h -13.6063" fill="none" stroke="black"/>
<path d="M63.9961,281.783h -6.80315" fill="none" stroke="black"/>
<path d="M63.9961,268.936h -6.80315" fill="none" stroke="black"/>
<path d="M63.9961,256.088h -6.80315" fill="none" stroke="black"/>
<path d="M70.7992,243.24h -13.6063" fill="none" stroke="black"/>
<path d="M63.9961,230.392h -6.80315" fill="none" stroke="black"/>
<path d="M63.9961,217.545h -6.80315" fill="none" stroke="black"/>
<path d="M63.9961,204.697h -6.80315" fill="none" stroke="black"/>
<path d="M70.7992,191.849h -13.6063" fill="none" stroke="black"/>
<path d="M63.9961,179.001h -6.80315" fill="none" stroke="black"/>
<path d="M63.9961,166.154h -6.80315" fill="none" stroke="black"/>
<path d="M63.9961,153.306h -6.80315" fill="none" stroke="black"/>
<path d="M70.7992,140.458h -13.6063" fill="none" stroke="black"/>
<path d="M63.9961,127.61h -6.80315" fill="none" stroke="black"/>
<path d="M63.9961,114.763h -6.80315" fill="none" stroke="black"/>
<path d="M63.9961,101.915h -6.80315" fill="none" stroke="black"/>
<path d="M70.7992,89.0671h -13.6063" fill="none" stroke="black"/>
<path d="M70.7992,89.0671h -13.6063" fill="none" stroke="black"/>
<path d="M63.9961,76.2193h -6.80315" fill="none" stroke="black"/>
<path d="M63.9961,63.3716h -6.80315" fill="none" stroke="black"/>
<path d="M63.9961,50.5238h -6.80315" fill="none" stroke="black"/>
<text xml:space="preserve" x="47.7441" y="350.258" fill="black" font-size="12.8453" font-family="Helvetica">0</text>
<text xml:space="preserve" x="41.2277" y="298.941" fill="black" font-size="12.8453" font-family="Helvetica">20</text>
<text xml:space="preserve" x="41.2277" y="247.624" fill="black" font-size="12.8453" font-family="Helvetica">40</text>
<text xml:space="preserve" x="41.2277" y="196.307" fill="black" font-size="12.8453" font-family="Helvetica">60</text>
<text xml:space="preserve" x="41.2277" y="144.99" fill="black" font-size="12.8453" font-family="Helvetica">80</text>
<text xml:space="preserve" x="33.8967" y="93.6736" fill="black" font-size="12.8453" font-family="Helvetica">100</text>
<g transform="rotate(-90,20.8638,103.448)">
<text xml:space="preserve" x="20.8638" y="103.448" fill="black" font-size="12.8453" font-family="Helvetica">Num Blocks</text>
</g>
<text xml:space="preserve" x="206.582" y="17.9202" fill="black" font-size="18.7938" font-family="Helvetica">sector 1 (adjusted)</text>
<rect x="351.996" y="24.9905" width="204.094" height="92.2726" fill="white"/>
<path d="M351.996,117.263h 204.094" fill="none" stroke="black"/>
<path d="M556.091,117.263v -92.2726" fill="none" stroke="black"/>
<path d="M556.091,24.9905h -204.094" fill="none" stroke="black"/>
<path d="M351.996,24.9905v 92.2726" fill="none" stroke="black"/>
<text xml:space="preserve" x="434.657" y="38.284" fill="black" font-size="16.0763" font-family="Helvetica">adj_h</text>
<path d="M351.996,43.445h 204.094" fill="none" stroke="black"/>
<text xml:space="preserve" x="376.009" y="57.8333" fill="black" font-size="16.0763" font-family="Helvetica"> / ndf </text>
<text xml:space="preserve" x="370.307" y="52.946" fill="black" font-size="10.8842" font-family="Helvetica">2</text>
<text xml:space="preserve" x="362.162" y="57.8333" fill="black" font-size="16.0763" font-family="Times">&#0967;</text>
<text xml:space="preserve" x="481.086" y="57.8333" fill="black" font-size="16.0763" font-family="Helvetica"> 31.03 / 7</text>
<text xml:space="preserve" x="362.162" y="77.3826" fill="black" font-size="16.0763" font-family="Helvetica">Constant </text>
<text xml:space="preserve" x="511.225" y="76.568" fill="black" font-size="16.0763" font-family="Helvetica"> 5.65</text>
<text xml:space="preserve" x="502.265" y="76.568" fill="black" font-size="16.0763" font-family="Times">&#0177;</text>
<text xml:space="preserve" x="454.206" y="76.568" fill="black" font-size="16.0763" font-family="Helvetica"> 99.37 </text>
<text xml:space="preserve" x="362.162" y="94.4882" fill="black" font-size="16.0763" font-family="Helvetica">Mean     </text>
<text xml:space="preserve" x="520.185" y="94.4882" fill="black" font-size="16.0763" font-family="Helvetica"> 2.0</text>
<text xml:space="preserve" x="511.225" y="94.4882" fill="black" font-size="16.0763" font-family="Times">&#0177;</text>
<text xml:space="preserve" x="468.054" y="94.4882" fill="black" font-size="16.0763" font-family="Helvetica">   306 </text>
<text xml:space="preserve" x="362.162" y="112.408" fill="black" font-size="16.0763" font-family="Helvetica">Sigma    </text>
<text xml:space="preserve" x="511.225" y="113.223" fill="black" font-size="16.0763" font-family="Helvetica"> 1.75</text>
<text xml:space="preserve" x="502.265" y="113.223" fill="black" font-size="16.0763" font-family="Times">&#0177;</text>
<text xml:space="preserve" x="457.464" y="113.223" fill="black" font-size="16.0763" font-family="Helvetica"> 42.01 </text>
<g stroke="black" stroke-width="1" fill="none">
<line x1="63.752" y1="346.022" x2="64.752" y2="346.022"/>
</g>
<g stroke="black" stroke-width="1" fill="none">
<line x1="78.8701" y1="346.022" x2="79.8701" y2="346.022"/>
</g>
<g stroke="black" stroke-width="1" fill="none">
<line x1="93.9882" y1="346.022" x2="94.9882" y2="346.022"/>
</g>
<g stroke="black" stroke-width="1" fill="none">
<line x1="109.106" y1="346.022" x2="110.106" y2="346.022"/>
</g>
<g stroke="black" stroke-width="1" fill="none">
<line x1="124.224" y1="346.022" x2="125.224" y2="346.022"/>
</g>
<g stroke="black" stroke-width="1" fill="none">
<line x1="139.343" y1="346.022" x2="140.343" y2="346.022"/>
</g>
<g stroke="black" stroke-width="1" fill="none">
<line x1="154.461" y1="346.022" x2="155.461" y2="346.022"/>
</g>
<g stroke="black" stroke-width="1" fill="none">
<line x1="169.579" y1="346.022" x2="170.579" y2="346.022"/>
</g>
<g stroke="black" stroke-width="1" fill="none">
<line x1="184.697" y1="346.022" x2="185.697" y2="346.022"/>
</g>
<path d="M200.815,336.899v -6.29409" fill="none" stroke="#000099"/>
<path d="M200.815,330.605v -6.29409" fill="none" stroke="#000099"/>
<path d="M193.256,330.605h 7.55905" fill="none" stroke="#000099"/>
<path d="M200.815,330.605h 7.55905" fill="none" stroke="#000099"/>
<g stroke="black" stroke-width="1" fill="none">
<line x1="199.815" y1="330.605" x2="200.815" y2="330.605"/>
</g>
<g stroke="black" stroke-width="1" fill="none">
<line x1="214.933" y1="346.022" x2="215.933" y2="346.022"/>
</g>
<path d="M231.051,324.089v -8.90119" fill="none" stroke="#000099"/>
<path d="M231.051,315.188v -8.90119" fill="none" stroke="#000099"/>
<path d="M223.492,315.188h 7.55905" fill="none" stroke="#000099"/>
<path d="M231.051,315.188h 7.55905" fill="none" stroke="#000099"/>
<g stroke="black" stroke-width="1" fill="none">
<line x1="230.051" y1="315.188" x2="231.051" y2="315.188"/>
</g>
<path d="M246.169,168.291v -22.6937" fill="none" stroke="#000099"/>
<path d="M246.169,145.597v -22.6937" fill="none" stroke="#000099"/>
<path d="M238.61,145.597h 7.55905" fill="none" stroke="#000099"/>
<path d="M246.169,145.597h 7.55905" fill="none" stroke="#000099"/>
<g stroke="black" stroke-width="1" fill="none">
<line x1="245.169" y1="145.597" x2="246.169" y2="145.597"/>
</g>
<path d="M261.287,211.753v -19.9037" fill="none" stroke="#000099"/>
<path d="M261.287,191.849v -19.9037" fill="none" stroke="#000099"/>
<path d="M253.728,191.849h 7.55905" fill="none" stroke="#000099"/>
<path d="M261.287,191.849h 7.55905" fill="none" stroke="#000099"/>
<g stroke="black" stroke-width="1" fill="none">
<line x1="260.287" y1="191.849" x2="261.287" y2="191.849"/>
</g>
<path d="M276.406,139.14v -24.3769" fill="none" stroke="#000099"/>
<path d="M276.406,114.763v -24.3769" fill="none" stroke="#000099"/>
<path d="M268.846,114.763h 7.55905" fill="none" stroke="#000099"/>
<path d="M276.406,114.763h 7.55905" fill="none" stroke="#000099"/>
<g stroke="black" stroke-width="1" fill="none">
<line x1="275.406" y1="114.763" x2="276.406" y2="114.763"/>
</g>
<path d="M291.524,80.5287v -27.4353" fill="none" stroke="#000099"/>
<path d="M291.524,53.0934v -14.6464" fill="none" stroke="#000099"/>
<path d="M283.965,53.0934h 7.55905" fill="none" stroke="#000099"/>
<path d="M291.524,53.0934h 7.55905" fill="none" stroke="#000099"/>
<g stroke="black" stroke-width="1" fill="none">
<line x1="290.524" y1="53.0934" x2="291.524" y2="53.0934"/>
</g>
<path d="M306.642,182.818v -21.8034" fill="none" stroke="#000099"/>
<path d="M306.642,161.015v -21.8034" fill="none" stroke="#000099"/>
<path d="M299.083,161.015h 7.55905" fill="none" stroke="#000099"/>
<path d="M306.642,161.015h 7.55905" fill="none" stroke="#000099"/>
<g stroke="black" stroke-width="1" fill="none">
<line x1="305.642" y1="161.015" x2="306.642" y2="161.015"/>
</g>
<path d="M321.76,211.753v -19.9037" fill="none" stroke="#000099"/>
<path d="M321.76,191.849v -19.9037" fill="none" stroke="#000099"/>
<path d="M314.201,191.849h 7.55905" fill="none" stroke="#000099"/>
<path d="M321.76,191.849h 7.55905" fill="none" stroke="#000099"/>
<g stroke="black" stroke-width="1" fill="none">
<line x1="320.76" y1="191.849" x2="321.76" y2="191.849"/>
</g>
<path d="M336.878,268.936v -15.4173" fill="none" stroke="#000099"/>
<path d="M336.878,253.518v -15.4173" fill="none" stroke="#000099"/>
<path d="M329.319,253.518h 7.55905" fill="none" stroke="#000099"/>
<path d="M336.878,253.518h 7.55905" fill="none" stroke="#000099"/>
<g stroke="black" stroke-width="1" fill="none">
<line x1="335.878" y1="253.518" x2="336.878" y2="253.518"/>
</g>
<path d="M351.996,324.089v -8.90119" fill="none" stroke="#000099"/>
<path d="M351.996,315.188v -8.90119" fill="none" stroke="#000099"/>
<path d="M344.437,315.188h 7.55905" fill="none" stroke="#000099"/>
<path d="M351.996,315.188h 7.55905" fill="none" stroke="#000099"/>
<g stroke="black" stroke-width="1" fill="none">
<line x1="350.996" y1="315.188" x2="351.996" y2="315.188"/>
</g>
<g stroke="black" stroke-width="1" fill="none">
<line x1="366.114" y1="346.022" x2="367.114" y2="346.022"/>
</g>
<g stroke="black" stroke-width="1" fill="none">
<line x1="381.232" y1="346.022" x2="382.232" y2="346.022"/>
</g>
<g stroke="black" stroke-width="1" fill="none">
<line x1="396.35" y1="346.022" x2="397.35" y2="346.022"/>
</g>
<g stroke="black" stroke-width="1" fill="none">
<line x1="411.469" y1="346.022" x2="412.469" y2="346.022"/>
</g>
<g stroke="black" stroke-width="1" fill="none">
<line x1="426.587" y1="346.022" x2="427.587" y2="346.022"/>
</g>
<g stroke="black" stroke-width="1" fill="none">
<line x1="441.705" y1="346.022" x2="442.705" y2="346.022"/>
</g>
<g stroke="black" stroke-width="1" fill="none">
<line x1="456.823" y1="346.022" x2="457.823" y2="346.022"/>
</g>
<g stroke="black" stroke-width="1" fill="none">
<line x1="471.941" y1="346.022" x2="472.941" y2="346.022"/>
</g>
<g stroke="black" stroke-width="1" fill="none">
<line x1="487.059" y1="346.022" x2="488.059" y2="346.022"/>
</g>
<g stroke="black" stroke-width="1" fill="none">
<line x1="502.177" y1="346.022" x2="503.177" y2="346.022"/>
</g>
<path d="M59.4606,346.022h 90.7087l 4.53543, -0.0356438l 4.53543, -0.0287627l 4.53543, -0.0496223l 4.53543, -0.083777l 4.53543, -0.138398l 4.53543, -0.22369l 4.53543, -0.35369l 4.53543, -0.547014l 4.53543, -0.827383l 4.53543, -1.22369l 4.53543,
 -1.76931l 4.53543, -2.50036l 4.53543, -3.45264l 4.53543, -4.65706l 4.53543, -6.13368l 4.53543, -7.8847l 4.53543, -9.8871l 4.53543, -12.0861l 4.53543, -14.3906l 4.53543, -16.6724l 4.53543, -18.7701l 4.53543, -20.4987l 4.53543, -21.6642l 4.53543,
 -22.0837l 4.53543, -21.6071l 4.53543, -20.139l 4.53543, -17.6561l 4.53543, -14.2187l 4.53543, -9.97206" fill="none" stroke="#ff0000" stroke-width="2"/>
<path d="M281.697,96.4671l 4.53543, -5.13747l 4.53543, 0.00629803l 4.53543, 5.14968l 4.53543, 9.98317l 4.53543, 14.2281l 4.53543, 17.6633l 4.53543, 20.1438l 4.53543, 21.6094l 4.53543, 22.0837l 4.53543, 21.6622l 4.53543, 20.4951l 4.53543, 18.7654l
 4.53543, 16.667l 4.53543, 14.3849l 4.53543, 12.0806l 4.53543, 9.88198l 4.53543, 7.88014l 4.53543, 6.12977l 4.53543, 4.65382l 4.53543, 3.45004l 4.53543, 2.49833l 4.53543, 1.76777l 4.53543, 1.22256l 4.53543, 0.826576l 4.53543, 0.546451l 4.53543,
 0.353307l 4.53543, 0.223436l 4.53543, 0.138234l 4.53543, 0.0836729l 4.53543, 0.0495581l 4.53543, 0.0287239l 4.53543, 0.0355919h 77.1024" fill="none" stroke="#ff0000" stroke-width="2"/>
<path d="M503.933,346.022h 4.53543" fill="none" stroke="#ff0000" stroke-width="2"/>
<rect x="351.996" y="24.9905" width="204.094" height="92.2726" fill="white"/>
<path d="M351.996,117.263h 204.094" fill="none" stroke="black"/>
<path d="M556.091,117.263v -92.2726" fill="none" stroke="black"/>
<path d="M556.091,24.9905h -204.094" fill="none" stroke="black"/>
<path d="M351.996,24.9905v 92.2726" fill="none" stroke="black"/>
<text xml:space="preserve" x="434.657" y="38.284" fill="black" font-size="16.0763" font-family="Helvetica">adj_h</text>
<path d="M351.996,43.445h 204.094" fill="none" stroke="black"/>
<text xml:space="preserve" x="376.009" y="57.8333" fill="black" font-size="16.0763" font-family="Helvetica"> / ndf </text>
<text xml:space="preserve" x="370.307" y="52.946" fill="black" font-size="10.8842" font-family="Helvetica">2</text>
<text xml:space="preserve" x="362.162" y="57.8333" fill="black" font-size="16.0763" font-family="Times">&#0967;</text>
<text xml:space="preserve" x="481.086" y="57.8333" fill="black" font-size="16.0763" font-family="Helvetica"> 31.03 / 7</text>
<text xml:space="preserve" x="362.162" y="77.3826" fill="black" font-size="16.0763" font-family="Helvetica">Constant </text>
<text xml:space="preserve" x="511.225" y="76.568" fill="black" font-size="16.0763" font-family="Helvetica"> 5.65</text>
<text xml:space="preserve" x="502.265" y="76.568" fill="black" font-size="16.0763" font-family="Times">&#0177;</text>
<text xml:space="preserve" x="454.206" y="76.568" fill="black" font-size="16.0763" font-family="Helvetica"> 99.37 </text>
<text xml:space="preserve" x="362.162" y="94.4882" fill="black" font-size="16.0763" font-family="Helvetica">Mean     </text>
<text xml:space="preserve" x="520.185" y="94.4882" fill="black" font-size="16.0763" font-family="Helvetica"> 2.0</text>
<text xml:space="preserve" x="511.225" y="94.4882" fill="black" font-size="16.0763" font-family="Times">&#0177;</text>
<text xml:space="preserve" x="468.054" y="94.4882" fill="black" font-size="16.0763" font-family="Helvetica">   306 </text>
<text xml:space="preserve" x="362.162" y="112.408" fill="black" font-size="16.0763" font-family="Helvetica">Sigma    </text>
<text xml:space="preserve" x="511.225" y="113.223" fill="black" font-size="16.0763" font-family="Helvetica"> 1.75</text>
<text xml:space="preserve" x="502.265" y="113.223" fill="black" font-size="16.0763" font-family="Times">&#0177;</text>
<text xml:space="preserve" x="457.464" y="113.223" fill="black" font-size="16.0763" font-family="Helvetica"> 42.01 </text>
<text xml:space="preserve" x="206.582" y="17.9202" fill="black" font-size="18.7938" font-family="Helvetica">sector 1 (adjusted)</text></svg>
