<?xml version="1.0" standalone="no"?>
<svg width="567.429" height="384.969" viewBox="0 0 567.429 384.969" xmlns="http://www.w3.org/2000/svg" shape-rendering="crispEdges">
<title>
./adjusted_vop/sector/sector6.svg
</title>
<desc>
Creator: ROOT Version 6.24/00
CreationDate: Mon Jul 19 20:49:52 2021</desc>
<defs>
</defs>
<rect x="0.5" y="0" width="566.929" height="384.469" fill="white"/>
<rect x="57.1929" y="38.4469" width="453.543" height="307.575" fill="white"/>
<rect x="57.1929" y="38.4469" width="453.543" height="307.575" fill="none" stroke="black"/>
<path d="M57.1929,346.022h 136.063v -26.6299h 15.1181v -26.6299h 15.1181v -13.3149h 15.1181v -106.52h 15.1181v 66.5747h 15.1181v -186.409h 15.1181v 173.094h 15.1181v -79.8897h 15.1181v 93.2047h 15.1181v 79.8897h 15.1181v 13.3149h 30.2362v 13.3149h
 136.063" fill="none" stroke="#000099"/>
<path d="M59.4606,346.022h 63.4961l 4.53543, -0.0358396l 4.53543, -0.0239403l 4.53543, -0.0383614l 4.53543, -0.0604404l 4.53543, -0.0936261l 4.53543, -0.142584l 4.53543, -0.213459l 4.53543, -0.314111l 4.53543, -0.45429l 4.53543, -0.645675l 4.53543,
 -0.90171l 4.53543, -1.23716l 4.53543, -1.66733l 4.53543, -2.2068l 4.53543, -2.86784l 4.53543, -3.65833l 4.53543, -4.57946l 4.53543, -5.62332l 4.53543, -6.77067l 4.53543, -7.98923l 4.53543, -9.23293l 4.53543, -10.4423l 4.53543, -11.5465l 4.53543,
 -12.4668l 4.53543, -13.1219l 4.53543, -13.4343l 4.53543, -13.3375l 4.53543, -12.7832l 4.53543, -11.7477l 4.53543, -10.2366l 4.53543, -8.28705l 4.53543, -5.96722l 4.53543, -3.37271l 4.53543, -0.620068l 4.53543, 2.16187" fill="none" stroke="#ff0000"
 stroke-width="2"/>
<path d="M281.697,172.063l 4.53543, 4.84197l 4.53543, 7.29705l 4.53543, 9.42127l 4.53543, 11.1336l 4.53543, 12.383l 4.53543, 13.1497l 4.53543, 13.4451l 4.53543, 13.3072l 4.53543, 12.7953l 4.53543, 11.9829l 4.53543, 10.9504l 4.53543, 9.77842l 4.53543,
 8.54189l 4.53543, 7.30565l 4.53543, 6.12186l 4.53543, 5.02891l 4.53543, 4.05165l 4.53543, 3.20278l 4.53543, 2.48487l 4.53543, 1.89269l 4.53543, 1.41568l 4.53543, 1.04003l 4.53543, 0.750585l 4.53543, 0.532231l 4.53543, 0.370857l 4.53543, 0.253963l
 4.53543, 0.17094l 4.53543, 0.113101l 4.53543, 0.0735661l 4.53543, 0.0470449l 4.53543, 0.0295802l 4.53543, 0.0450739h 77.1024" fill="none" stroke="#ff0000" stroke-width="2"/>
<path d="M503.933,346.022h 4.53543" fill="none" stroke="#ff0000" stroke-width="2"/>
<path d="M57.1929,346.022h 453.543" fill="none" stroke="black"/>
<path d="M57.1929,336.795v 9.22726" fill="none" stroke="black"/>
<path d="M72.311,341.409v 4.61363" fill="none" stroke="black"/>
<path d="M87.4291,341.409v 4.61363" fill="none" stroke="black"/>
<path d="M102.547,341.409v 4.61363" fill="none" stroke="black"/>
<path d="M117.665,341.409v 4.61363" fill="none" stroke="black"/>
<path d="M132.783,336.795v 9.22726" fill="none" stroke="black"/>
<path d="M147.902,341.409v 4.61363" fill="none" stroke="black"/>
<path d="M163.02,341.409v 4.61363" fill="none" stroke="black"/>
<path d="M178.138,341.409v 4.61363" fill="none" stroke="black"/>
<path d="M193.256,341.409v 4.61363" fill="none" stroke="black"/>
<path d="M208.374,336.795v 9.22726" fill="none" stroke="black"/>
<path d="M223.492,341.409v 4.61363" fill="none" stroke="black"/>
<path d="M238.61,341.409v 4.61363" fill="none" stroke="black"/>
<path d="M253.728,341.409v 4.61363" fill="none" stroke="black"/>
<path d="M268.846,341.409v 4.61363" fill="none" stroke="black"/>
<path d="M283.965,336.795v 9.22726" fill="none" stroke="black"/>
<path d="M299.083,341.409v 4.61363" fill="none" stroke="black"/>
<path d="M314.201,341.409v 4.61363" fill="none" stroke="black"/>
<path d="M329.319,341.409v 4.61363" fill="none" stroke="black"/>
<path d="M344.437,341.409v 4.61363" fill="none" stroke="black"/>
<path d="M359.555,336.795v 9.22726" fill="none" stroke="black"/>
<path d="M374.673,341.409v 4.61363" fill="none" stroke="black"/>
<path d="M389.791,341.409v 4.61363" fill="none" stroke="black"/>
<path d="M404.909,341.409v 4.61363" fill="none" stroke="black"/>
<path d="M420.028,341.409v 4.61363" fill="none" stroke="black"/>
<path d="M435.146,336.795v 9.22726" fill="none" stroke="black"/>
<path d="M450.264,341.409v 4.61363" fill="none" stroke="black"/>
<path d="M465.382,341.409v 4.61363" fill="none" stroke="black"/>
<path d="M480.5,341.409v 4.61363" fill="none" stroke="black"/>
<path d="M495.618,341.409v 4.61363" fill="none" stroke="black"/>
<path d="M510.736,336.795v 9.22726" fill="none" stroke="black"/>
<text xml:space="preserve" x="53.446" y="358.403" fill="black" font-size="12.8453" font-family="Helvetica">0</text>
<text xml:space="preserve" x="121.868" y="358.403" fill="black" font-size="12.8453" font-family="Helvetica">100</text>
<text xml:space="preserve" x="197.622" y="358.403" fill="black" font-size="12.8453" font-family="Helvetica">200</text>
<text xml:space="preserve" x="273.375" y="358.403" fill="black" font-size="12.8453" font-family="Helvetica">300</text>
<text xml:space="preserve" x="348.314" y="358.403" fill="black" font-size="12.8453" font-family="Helvetica">400</text>
<text xml:space="preserve" x="424.068" y="358.403" fill="black" font-size="12.8453" font-family="Helvetica">500</text>
<text xml:space="preserve" x="499.821" y="358.403" fill="black" font-size="12.8453" font-family="Helvetica">600</text>
<text xml:space="preserve" x="483.53" y="372.251" fill="black" font-size="12.8453" font-family="Helvetica">MPV</text>
<path d="M57.1929,346.022v -307.575" fill="none" stroke="black"/>
<path d="M70.7992,346.022h -13.6063" fill="none" stroke="black"/>
<path d="M63.9961,334.926h -6.80315" fill="none" stroke="black"/>
<path d="M63.9961,323.831h -6.80315" fill="none" stroke="black"/>
<path d="M63.9961,312.735h -6.80315" fill="none" stroke="black"/>
<path d="M70.7992,301.639h -13.6063" fill="none" stroke="black"/>
<path d="M63.9961,290.543h -6.80315" fill="none" stroke="black"/>
<path d="M63.9961,279.448h -6.80315" fill="none" stroke="black"/>
<path d="M63.9961,268.352h -6.80315" fill="none" stroke="black"/>
<path d="M70.7992,257.256h -13.6063" fill="none" stroke="black"/>
<path d="M63.9961,246.16h -6.80315" fill="none" stroke="black"/>
<path d="M63.9961,235.064h -6.80315" fill="none" stroke="black"/>
<path d="M63.9961,223.969h -6.80315" fill="none" stroke="black"/>
<path d="M70.7992,212.873h -13.6063" fill="none" stroke="black"/>
<path d="M63.9961,201.777h -6.80315" fill="none" stroke="black"/>
<path d="M63.9961,190.681h -6.80315" fill="none" stroke="black"/>
<path d="M63.9961,179.585h -6.80315" fill="none" stroke="black"/>
<path d="M70.7992,168.49h -13.6063" fill="none" stroke="black"/>
<path d="M63.9961,157.394h -6.80315" fill="none" stroke="black"/>
<path d="M63.9961,146.298h -6.80315" fill="none" stroke="black"/>
<path d="M63.9961,135.202h -6.80315" fill="none" stroke="black"/>
<path d="M70.7992,124.106h -13.6063" fill="none" stroke="black"/>
<path d="M63.9961,113.011h -6.80315" fill="none" stroke="black"/>
<path d="M63.9961,101.915h -6.80315" fill="none" stroke="black"/>
<path d="M63.9961,90.8191h -6.80315" fill="none" stroke="black"/>
<path d="M70.7992,79.7233h -13.6063" fill="none" stroke="black"/>
<path d="M70.7992,79.7233h -13.6063" fill="none" stroke="black"/>
<path d="M63.9961,68.6275h -6.80315" fill="none" stroke="black"/>
<path d="M63.9961,57.5317h -6.80315" fill="none" stroke="black"/>
<path d="M63.9961,46.4359h -6.80315" fill="none" stroke="black"/>
<text xml:space="preserve" x="47.7441" y="350.258" fill="black" font-size="12.8453" font-family="Helvetica">0</text>
<text xml:space="preserve" x="41.2277" y="306.272" fill="black" font-size="12.8453" font-family="Helvetica">20</text>
<text xml:space="preserve" x="41.2277" y="261.472" fill="black" font-size="12.8453" font-family="Helvetica">40</text>
<text xml:space="preserve" x="41.2277" y="217.486" fill="black" font-size="12.8453" font-family="Helvetica">60</text>
<text xml:space="preserve" x="41.2277" y="172.685" fill="black" font-size="12.8453" font-family="Helvetica">80</text>
<text xml:space="preserve" x="33.8967" y="128.699" fill="black" font-size="12.8453" font-family="Helvetica">100</text>
<text xml:space="preserve" x="33.8967" y="83.899" fill="black" font-size="12.8453" font-family="Helvetica">120</text>
<g transform="rotate(-90,20.8638,103.448)">
<text xml:space="preserve" x="20.8638" y="103.448" fill="black" font-size="12.8453" font-family="Helvetica">Num Blocks</text>
</g>
<text xml:space="preserve" x="206.582" y="17.9202" fill="black" font-size="18.7938" font-family="Helvetica">sector 6 (adjusted)</text>
<rect x="351.996" y="24.9905" width="204.094" height="92.2726" fill="white"/>
<path d="M351.996,117.263h 204.094" fill="none" stroke="black"/>
<path d="M556.091,117.263v -92.2726" fill="none" stroke="black"/>
<path d="M556.091,24.9905h -204.094" fill="none" stroke="black"/>
<path d="M351.996,24.9905v 92.2726" fill="none" stroke="black"/>
<text xml:space="preserve" x="434.657" y="38.284" fill="black" font-size="16.0763" font-family="Helvetica">adj_h</text>
<path d="M351.996,43.445h 204.094" fill="none" stroke="black"/>
<text xml:space="preserve" x="376.009" y="57.8333" fill="black" font-size="16.0763" font-family="Helvetica"> / ndf </text>
<text xml:space="preserve" x="370.307" y="52.946" fill="black" font-size="10.8842" font-family="Helvetica">2</text>
<text xml:space="preserve" x="362.162" y="57.8333" fill="black" font-size="16.0763" font-family="Times">&#0967;</text>
<text xml:space="preserve" x="481.086" y="57.8333" fill="black" font-size="16.0763" font-family="Helvetica"> 72.34 / 9</text>
<text xml:space="preserve" x="362.162" y="77.3826" fill="black" font-size="16.0763" font-family="Helvetica">Constant </text>
<text xml:space="preserve" x="511.225" y="76.568" fill="black" font-size="16.0763" font-family="Helvetica"> 4.72</text>
<text xml:space="preserve" x="502.265" y="76.568" fill="black" font-size="16.0763" font-family="Times">&#0177;</text>
<text xml:space="preserve" x="457.464" y="76.568" fill="black" font-size="16.0763" font-family="Helvetica"> 79.41 </text>
<text xml:space="preserve" x="362.162" y="94.4882" fill="black" font-size="16.0763" font-family="Helvetica">Mean     </text>
<text xml:space="preserve" x="520.185" y="94.4882" fill="black" font-size="16.0763" font-family="Helvetica"> 2.4</text>
<text xml:space="preserve" x="511.225" y="94.4882" fill="black" font-size="16.0763" font-family="Times">&#0177;</text>
<text xml:space="preserve" x="463.981" y="94.4882" fill="black" font-size="16.0763" font-family="Helvetica"> 289.3 </text>
<text xml:space="preserve" x="362.162" y="112.408" fill="black" font-size="16.0763" font-family="Helvetica">Sigma    </text>
<text xml:space="preserve" x="511.225" y="113.223" fill="black" font-size="16.0763" font-family="Helvetica"> 1.97</text>
<text xml:space="preserve" x="502.265" y="113.223" fill="black" font-size="16.0763" font-family="Times">&#0177;</text>
<text xml:space="preserve" x="455.021" y="113.223" fill="black" font-size="16.0763" font-family="Helvetica"> 47.62 </text>
<g stroke="black" stroke-width="1" fill="none">
<line x1="63.752" y1="346.022" x2="64.752" y2="346.022"/>
</g>
<g stroke="black" stroke-width="1" fill="none">
<line x1="78.8701" y1="346.022" x2="79.8701" y2="346.022"/>
</g>
<g stroke="black" stroke-width="1" fill="none">
<line x1="93.9882" y1="346.022" x2="94.9882" y2="346.022"/>
</g>
<g stroke="black" stroke-width="1" fill="none">
<line x1="109.106" y1="346.022" x2="110.106" y2="346.022"/>
</g>
<g stroke="black" stroke-width="1" fill="none">
<line x1="124.224" y1="346.022" x2="125.224" y2="346.022"/>
</g>
<g stroke="black" stroke-width="1" fill="none">
<line x1="139.343" y1="346.022" x2="140.343" y2="346.022"/>
</g>
<g stroke="black" stroke-width="1" fill="none">
<line x1="154.461" y1="346.022" x2="155.461" y2="346.022"/>
</g>
<g stroke="black" stroke-width="1" fill="none">
<line x1="169.579" y1="346.022" x2="170.579" y2="346.022"/>
</g>
<g stroke="black" stroke-width="1" fill="none">
<line x1="184.697" y1="346.022" x2="185.697" y2="346.022"/>
</g>
<path d="M200.815,327.08v -7.68739" fill="none" stroke="#000099"/>
<path d="M200.815,319.392v -7.68739" fill="none" stroke="#000099"/>
<path d="M193.256,319.392h 7.55905" fill="none" stroke="#000099"/>
<path d="M200.815,319.392h 7.55905" fill="none" stroke="#000099"/>
<g stroke="black" stroke-width="1" fill="none">
<line x1="199.815" y1="319.392" x2="200.815" y2="319.392"/>
</g>
<path d="M215.933,303.634v -10.8716" fill="none" stroke="#000099"/>
<path d="M215.933,292.762v -10.8716" fill="none" stroke="#000099"/>
<path d="M208.374,292.762h 7.55905" fill="none" stroke="#000099"/>
<path d="M215.933,292.762h 7.55905" fill="none" stroke="#000099"/>
<g stroke="black" stroke-width="1" fill="none">
<line x1="214.933" y1="292.762" x2="215.933" y2="292.762"/>
</g>
<path d="M231.051,291.602v -12.1548" fill="none" stroke="#000099"/>
<path d="M231.051,279.448v -12.1548" fill="none" stroke="#000099"/>
<path d="M223.492,279.448h 7.55905" fill="none" stroke="#000099"/>
<path d="M231.051,279.448h 7.55905" fill="none" stroke="#000099"/>
<g stroke="black" stroke-width="1" fill="none">
<line x1="230.051" y1="279.448" x2="231.051" y2="279.448"/>
</g>
<path d="M246.169,192.527v -19.5991" fill="none" stroke="#000099"/>
<path d="M246.169,172.928v -19.5991" fill="none" stroke="#000099"/>
<path d="M238.61,172.928h 7.55905" fill="none" stroke="#000099"/>
<path d="M246.169,172.928h 7.55905" fill="none" stroke="#000099"/>
<g stroke="black" stroke-width="1" fill="none">
<line x1="245.169" y1="172.928" x2="246.169" y2="172.928"/>
</g>
<path d="M261.287,254.877v -15.3748" fill="none" stroke="#000099"/>
<path d="M261.287,239.503v -15.3748" fill="none" stroke="#000099"/>
<path d="M253.728,239.503h 7.55905" fill="none" stroke="#000099"/>
<path d="M261.287,239.503h 7.55905" fill="none" stroke="#000099"/>
<g stroke="black" stroke-width="1" fill="none">
<line x1="260.287" y1="239.503" x2="261.287" y2="239.503"/>
</g>
<path d="M276.406,78.5896v -25.4962" fill="none" stroke="#000099"/>
<path d="M276.406,53.0934v -14.6464" fill="none" stroke="#000099"/>
<path d="M268.846,53.0934h 7.55905" fill="none" stroke="#000099"/>
<path d="M276.406,53.0934h 7.55905" fill="none" stroke="#000099"/>
<g stroke="black" stroke-width="1" fill="none">
<line x1="275.406" y1="53.0934" x2="276.406" y2="53.0934"/>
</g>
<path d="M291.524,242.495v -16.3074" fill="none" stroke="#000099"/>
<path d="M291.524,226.188v -16.3074" fill="none" stroke="#000099"/>
<path d="M283.965,226.188h 7.55905" fill="none" stroke="#000099"/>
<path d="M291.524,226.188h 7.55905" fill="none" stroke="#000099"/>
<g stroke="black" stroke-width="1" fill="none">
<line x1="290.524" y1="226.188" x2="291.524" y2="226.188"/>
</g>
<path d="M306.642,167.351v -21.0528" fill="none" stroke="#000099"/>
<path d="M306.642,146.298v -21.0528" fill="none" stroke="#000099"/>
<path d="M299.083,146.298h 7.55905" fill="none" stroke="#000099"/>
<path d="M306.642,146.298h 7.55905" fill="none" stroke="#000099"/>
<g stroke="black" stroke-width="1" fill="none">
<line x1="305.642" y1="146.298" x2="306.642" y2="146.298"/>
</g>
<path d="M321.76,254.877v -15.3748" fill="none" stroke="#000099"/>
<path d="M321.76,239.503v -15.3748" fill="none" stroke="#000099"/>
<path d="M314.201,239.503h 7.55905" fill="none" stroke="#000099"/>
<path d="M321.76,239.503h 7.55905" fill="none" stroke="#000099"/>
<g stroke="black" stroke-width="1" fill="none">
<line x1="320.76" y1="239.503" x2="321.76" y2="239.503"/>
</g>
<path d="M336.878,327.08v -7.68739" fill="none" stroke="#000099"/>
<path d="M336.878,319.392v -7.68739" fill="none" stroke="#000099"/>
<path d="M329.319,319.392h 7.55905" fill="none" stroke="#000099"/>
<path d="M336.878,319.392h 7.55905" fill="none" stroke="#000099"/>
<g stroke="black" stroke-width="1" fill="none">
<line x1="335.878" y1="319.392" x2="336.878" y2="319.392"/>
</g>
<path d="M351.996,338.143v -5.43581" fill="none" stroke="#000099"/>
<path d="M351.996,332.707v -5.43581" fill="none" stroke="#000099"/>
<path d="M344.437,332.707h 7.55905" fill="none" stroke="#000099"/>
<path d="M351.996,332.707h 7.55905" fill="none" stroke="#000099"/>
<g stroke="black" stroke-width="1" fill="none">
<line x1="350.996" y1="332.707" x2="351.996" y2="332.707"/>
</g>
<path d="M367.114,338.143v -5.43581" fill="none" stroke="#000099"/>
<path d="M367.114,332.707v -5.43581" fill="none" stroke="#000099"/>
<path d="M359.555,332.707h 7.55905" fill="none" stroke="#000099"/>
<path d="M367.114,332.707h 7.55905" fill="none" stroke="#000099"/>
<g stroke="black" stroke-width="1" fill="none">
<line x1="366.114" y1="332.707" x2="367.114" y2="332.707"/>
</g>
<g stroke="black" stroke-width="1" fill="none">
<line x1="381.232" y1="346.022" x2="382.232" y2="346.022"/>
</g>
<g stroke="black" stroke-width="1" fill="none">
<line x1="396.35" y1="346.022" x2="397.35" y2="346.022"/>
</g>
<g stroke="black" stroke-width="1" fill="none">
<line x1="411.469" y1="346.022" x2="412.469" y2="346.022"/>
</g>
<g stroke="black" stroke-width="1" fill="none">
<line x1="426.587" y1="346.022" x2="427.587" y2="346.022"/>
</g>
<g stroke="black" stroke-width="1" fill="none">
<line x1="441.705" y1="346.022" x2="442.705" y2="346.022"/>
</g>
<g stroke="black" stroke-width="1" fill="none">
<line x1="456.823" y1="346.022" x2="457.823" y2="346.022"/>
</g>
<g stroke="black" stroke-width="1" fill="none">
<line x1="471.941" y1="346.022" x2="472.941" y2="346.022"/>
</g>
<g stroke="black" stroke-width="1" fill="none">
<line x1="487.059" y1="346.022" x2="488.059" y2="346.022"/>
</g>
<g stroke="black" stroke-width="1" fill="none">
<line x1="502.177" y1="346.022" x2="503.177" y2="346.022"/>
</g>
<path d="M59.4606,346.022h 63.4961l 4.53543, -0.0358396l 4.53543, -0.0239403l 4.53543, -0.0383614l 4.53543, -0.0604404l 4.53543, -0.0936261l 4.53543, -0.142584l 4.53543, -0.213459l 4.53543, -0.314111l 4.53543, -0.45429l 4.53543, -0.645675l 4.53543,
 -0.90171l 4.53543, -1.23716l 4.53543, -1.66733l 4.53543, -2.2068l 4.53543, -2.86784l 4.53543, -3.65833l 4.53543, -4.57946l 4.53543, -5.62332l 4.53543, -6.77067l 4.53543, -7.98923l 4.53543, -9.23293l 4.53543, -10.4423l 4.53543, -11.5465l 4.53543,
 -12.4668l 4.53543, -13.1219l 4.53543, -13.4343l 4.53543, -13.3375l 4.53543, -12.7832l 4.53543, -11.7477l 4.53543, -10.2366l 4.53543, -8.28705l 4.53543, -5.96722l 4.53543, -3.37271l 4.53543, -0.620068l 4.53543, 2.16187" fill="none" stroke="#ff0000"
 stroke-width="2"/>
<path d="M281.697,172.063l 4.53543, 4.84197l 4.53543, 7.29705l 4.53543, 9.42127l 4.53543, 11.1336l 4.53543, 12.383l 4.53543, 13.1497l 4.53543, 13.4451l 4.53543, 13.3072l 4.53543, 12.7953l 4.53543, 11.9829l 4.53543, 10.9504l 4.53543, 9.77842l 4.53543,
 8.54189l 4.53543, 7.30565l 4.53543, 6.12186l 4.53543, 5.02891l 4.53543, 4.05165l 4.53543, 3.20278l 4.53543, 2.48487l 4.53543, 1.89269l 4.53543, 1.41568l 4.53543, 1.04003l 4.53543, 0.750585l 4.53543, 0.532231l 4.53543, 0.370857l 4.53543, 0.253963l
 4.53543, 0.17094l 4.53543, 0.113101l 4.53543, 0.0735661l 4.53543, 0.0470449l 4.53543, 0.0295802l 4.53543, 0.0450739h 77.1024" fill="none" stroke="#ff0000" stroke-width="2"/>
<path d="M503.933,346.022h 4.53543" fill="none" stroke="#ff0000" stroke-width="2"/>
<rect x="351.996" y="24.9905" width="204.094" height="92.2726" fill="white"/>
<path d="M351.996,117.263h 204.094" fill="none" stroke="black"/>
<path d="M556.091,117.263v -92.2726" fill="none" stroke="black"/>
<path d="M556.091,24.9905h -204.094" fill="none" stroke="black"/>
<path d="M351.996,24.9905v 92.2726" fill="none" stroke="black"/>
<text xml:space="preserve" x="434.657" y="38.284" fill="black" font-size="16.0763" font-family="Helvetica">adj_h</text>
<path d="M351.996,43.445h 204.094" fill="none" stroke="black"/>
<text xml:space="preserve" x="376.009" y="57.8333" fill="black" font-size="16.0763" font-family="Helvetica"> / ndf </text>
<text xml:space="preserve" x="370.307" y="52.946" fill="black" font-size="10.8842" font-family="Helvetica">2</text>
<text xml:space="preserve" x="362.162" y="57.8333" fill="black" font-size="16.0763" font-family="Times">&#0967;</text>
<text xml:space="preserve" x="481.086" y="57.8333" fill="black" font-size="16.0763" font-family="Helvetica"> 72.34 / 9</text>
<text xml:space="preserve" x="362.162" y="77.3826" fill="black" font-size="16.0763" font-family="Helvetica">Constant </text>
<text xml:space="preserve" x="511.225" y="76.568" fill="black" font-size="16.0763" font-family="Helvetica"> 4.72</text>
<text xml:space="preserve" x="502.265" y="76.568" fill="black" font-size="16.0763" font-family="Times">&#0177;</text>
<text xml:space="preserve" x="457.464" y="76.568" fill="black" font-size="16.0763" font-family="Helvetica"> 79.41 </text>
<text xml:space="preserve" x="362.162" y="94.4882" fill="black" font-size="16.0763" font-family="Helvetica">Mean     </text>
<text xml:space="preserve" x="520.185" y="94.4882" fill="black" font-size="16.0763" font-family="Helvetica"> 2.4</text>
<text xml:space="preserve" x="511.225" y="94.4882" fill="black" font-size="16.0763" font-family="Times">&#0177;</text>
<text xml:space="preserve" x="463.981" y="94.4882" fill="black" font-size="16.0763" font-family="Helvetica"> 289.3 </text>
<text xml:space="preserve" x="362.162" y="112.408" fill="black" font-size="16.0763" font-family="Helvetica">Sigma    </text>
<text xml:space="preserve" x="511.225" y="113.223" fill="black" font-size="16.0763" font-family="Helvetica"> 1.97</text>
<text xml:space="preserve" x="502.265" y="113.223" fill="black" font-size="16.0763" font-family="Times">&#0177;</text>
<text xml:space="preserve" x="455.021" y="113.223" fill="black" font-size="16.0763" font-family="Helvetica"> 47.62 </text>
<text xml:space="preserve" x="206.582" y="17.9202" fill="black" font-size="18.7938" font-family="Helvetica">sector 6 (adjusted)</text></svg>
