<?xml version="1.0" standalone="no"?>
<svg width="567.429" height="384.969" viewBox="0 0 567.429 384.969" xmlns="http://www.w3.org/2000/svg" shape-rendering="crispEdges">
<title>
./adjusted_vop/sector/sector4.svg
</title>
<desc>
Creator: ROOT Version 6.24/00
CreationDate: Mon Jul 19 20:49:52 2021</desc>
<defs>
</defs>
<rect x="0.5" y="0" width="566.929" height="384.469" fill="white"/>
<rect x="57.1929" y="38.4469" width="453.543" height="307.575" fill="white"/>
<rect x="57.1929" y="38.4469" width="453.543" height="307.575" fill="none" stroke="black"/>
<path d="M57.1929,346.022h 120.945v -29.2929h 15.1181v -73.2322h 15.1181v 14.6464h 15.1181v -190.404h 15.1181v 43.9393h 15.1181v -58.5858h 15.1181v 117.172h 15.1181v 117.172h 15.1181v 14.6464h 15.1181v 43.9393h 196.535" fill="none" stroke="#000099"/>
<path d="M59.4606,346.022h 68.0315l 4.53543, -0.0462309l 4.53543, -0.0432447l 4.53543, -0.0792203l 4.53543, -0.14114l 4.53543, -0.244518l 4.53543, -0.411851l 4.53543, -0.674306l 4.53543, -1.07291l 4.53543, -1.6586l 4.53543, -2.49035l 4.53543,
 -3.63049l 4.53543, -5.1365l 4.53543, -7.04924l 4.53543, -9.37809l 4.53543, -12.085l 4.53543, -15.0698l 4.53543, -18.1618l 4.53543, -21.1193l 4.53543, -23.6433l 4.53543, -25.4044l 4.53543, -26.082l 4.53543, -25.412l 4.53543, -23.2341l 4.53543,
 -19.5309l 4.53543, -14.4484l 4.53543, -8.29291l 4.53543, -1.50262l 4.53543, 5.40413l 4.53543, 11.8941l 4.53543, 17.487l 4.53543, 21.8146l 4.53543, 24.6595l 4.53543, 25.9698l 4.53543, 25.8478" fill="none" stroke="#ff0000" stroke-width="2"/>
<path d="M281.697,213.056l 4.53543, 24.5183l 4.53543, 22.2834l 4.53543, 19.4741l 4.53543, 16.4069l 4.53543, 13.3504l 4.53543, 10.507l 4.53543, 8.00659l 4.53543, 5.91258l 4.53543, 4.23416l 4.53543, 2.94213l 4.53543, 1.98457l 4.53543, 1.3l 4.53543,
 0.827264l 4.53543, 0.511545l 4.53543, 0.307446l 4.53543, 0.179635l 4.53543, 0.102053l 4.53543, 0.0563825l 4.53543, 0.0302976l 4.53543, 0.0314167h 131.528" fill="none" stroke="#ff0000" stroke-width="2"/>
<path d="M503.933,346.022h 4.53543" fill="none" stroke="#ff0000" stroke-width="2"/>
<path d="M57.1929,346.022h 453.543" fill="none" stroke="black"/>
<path d="M57.1929,336.795v 9.22726" fill="none" stroke="black"/>
<path d="M72.311,341.409v 4.61363" fill="none" stroke="black"/>
<path d="M87.4291,341.409v 4.61363" fill="none" stroke="black"/>
<path d="M102.547,341.409v 4.61363" fill="none" stroke="black"/>
<path d="M117.665,341.409v 4.61363" fill="none" stroke="black"/>
<path d="M132.783,336.795v 9.22726" fill="none" stroke="black"/>
<path d="M147.902,341.409v 4.61363" fill="none" stroke="black"/>
<path d="M163.02,341.409v 4.61363" fill="none" stroke="black"/>
<path d="M178.138,341.409v 4.61363" fill="none" stroke="black"/>
<path d="M193.256,341.409v 4.61363" fill="none" stroke="black"/>
<path d="M208.374,336.795v 9.22726" fill="none" stroke="black"/>
<path d="M223.492,341.409v 4.61363" fill="none" stroke="black"/>
<path d="M238.61,341.409v 4.61363" fill="none" stroke="black"/>
<path d="M253.728,341.409v 4.61363" fill="none" stroke="black"/>
<path d="M268.846,341.409v 4.61363" fill="none" stroke="black"/>
<path d="M283.965,336.795v 9.22726" fill="none" stroke="black"/>
<path d="M299.083,341.409v 4.61363" fill="none" stroke="black"/>
<path d="M314.201,341.409v 4.61363" fill="none" stroke="black"/>
<path d="M329.319,341.409v 4.61363" fill="none" stroke="black"/>
<path d="M344.437,341.409v 4.61363" fill="none" stroke="black"/>
<path d="M359.555,336.795v 9.22726" fill="none" stroke="black"/>
<path d="M374.673,341.409v 4.61363" fill="none" stroke="black"/>
<path d="M389.791,341.409v 4.61363" fill="none" stroke="black"/>
<path d="M404.909,341.409v 4.61363" fill="none" stroke="black"/>
<path d="M420.028,341.409v 4.61363" fill="none" stroke="black"/>
<path d="M435.146,336.795v 9.22726" fill="none" stroke="black"/>
<path d="M450.264,341.409v 4.61363" fill="none" stroke="black"/>
<path d="M465.382,341.409v 4.61363" fill="none" stroke="black"/>
<path d="M480.5,341.409v 4.61363" fill="none" stroke="black"/>
<path d="M495.618,341.409v 4.61363" fill="none" stroke="black"/>
<path d="M510.736,336.795v 9.22726" fill="none" stroke="black"/>
<text xml:space="preserve" x="53.446" y="358.403" fill="black" font-size="12.8453" font-family="Helvetica">0</text>
<text xml:space="preserve" x="121.868" y="358.403" fill="black" font-size="12.8453" font-family="Helvetica">100</text>
<text xml:space="preserve" x="197.622" y="358.403" fill="black" font-size="12.8453" font-family="Helvetica">200</text>
<text xml:space="preserve" x="273.375" y="358.403" fill="black" font-size="12.8453" font-family="Helvetica">300</text>
<text xml:space="preserve" x="348.314" y="358.403" fill="black" font-size="12.8453" font-family="Helvetica">400</text>
<text xml:space="preserve" x="424.068" y="358.403" fill="black" font-size="12.8453" font-family="Helvetica">500</text>
<text xml:space="preserve" x="499.821" y="358.403" fill="black" font-size="12.8453" font-family="Helvetica">600</text>
<text xml:space="preserve" x="483.53" y="372.251" fill="black" font-size="12.8453" font-family="Helvetica">MPV</text>
<path d="M57.1929,346.022v -307.575" fill="none" stroke="black"/>
<path d="M70.7992,346.022h -13.6063" fill="none" stroke="black"/>
<path d="M63.9961,333.817h -6.80315" fill="none" stroke="black"/>
<path d="M63.9961,321.612h -6.80315" fill="none" stroke="black"/>
<path d="M63.9961,309.406h -6.80315" fill="none" stroke="black"/>
<path d="M70.7992,297.201h -13.6063" fill="none" stroke="black"/>
<path d="M63.9961,284.995h -6.80315" fill="none" stroke="black"/>
<path d="M63.9961,272.79h -6.80315" fill="none" stroke="black"/>
<path d="M63.9961,260.585h -6.80315" fill="none" stroke="black"/>
<path d="M70.7992,248.379h -13.6063" fill="none" stroke="black"/>
<path d="M63.9961,236.174h -6.80315" fill="none" stroke="black"/>
<path d="M63.9961,223.969h -6.80315" fill="none" stroke="black"/>
<path d="M63.9961,211.763h -6.80315" fill="none" stroke="black"/>
<path d="M70.7992,199.558h -13.6063" fill="none" stroke="black"/>
<path d="M63.9961,187.352h -6.80315" fill="none" stroke="black"/>
<path d="M63.9961,175.147h -6.80315" fill="none" stroke="black"/>
<path d="M63.9961,162.942h -6.80315" fill="none" stroke="black"/>
<path d="M70.7992,150.736h -13.6063" fill="none" stroke="black"/>
<path d="M63.9961,138.531h -6.80315" fill="none" stroke="black"/>
<path d="M63.9961,126.326h -6.80315" fill="none" stroke="black"/>
<path d="M63.9961,114.12h -6.80315" fill="none" stroke="black"/>
<path d="M70.7992,101.915h -13.6063" fill="none" stroke="black"/>
<path d="M63.9961,89.7095h -6.80315" fill="none" stroke="black"/>
<path d="M63.9961,77.5041h -6.80315" fill="none" stroke="black"/>
<path d="M63.9961,65.2987h -6.80315" fill="none" stroke="black"/>
<path d="M70.7992,53.0934h -13.6063" fill="none" stroke="black"/>
<path d="M70.7992,53.0934h -13.6063" fill="none" stroke="black"/>
<path d="M63.9961,40.888h -6.80315" fill="none" stroke="black"/>
<text xml:space="preserve" x="47.7441" y="350.258" fill="black" font-size="12.8453" font-family="Helvetica">0</text>
<text xml:space="preserve" x="41.2277" y="301.385" fill="black" font-size="12.8453" font-family="Helvetica">20</text>
<text xml:space="preserve" x="41.2277" y="252.512" fill="black" font-size="12.8453" font-family="Helvetica">40</text>
<text xml:space="preserve" x="41.2277" y="203.638" fill="black" font-size="12.8453" font-family="Helvetica">60</text>
<text xml:space="preserve" x="41.2277" y="155.58" fill="black" font-size="12.8453" font-family="Helvetica">80</text>
<text xml:space="preserve" x="33.8967" y="106.706" fill="black" font-size="12.8453" font-family="Helvetica">100</text>
<text xml:space="preserve" x="33.8967" y="57.8333" fill="black" font-size="12.8453" font-family="Helvetica">120</text>
<g transform="rotate(-90,20.8638,103.448)">
<text xml:space="preserve" x="20.8638" y="103.448" fill="black" font-size="12.8453" font-family="Helvetica">Num Blocks</text>
</g>
<text xml:space="preserve" x="206.582" y="17.9202" fill="black" font-size="18.7938" font-family="Helvetica">sector 4 (adjusted)</text>
<rect x="351.996" y="24.9905" width="204.094" height="92.2726" fill="white"/>
<path d="M351.996,117.263h 204.094" fill="none" stroke="black"/>
<path d="M556.091,117.263v -92.2726" fill="none" stroke="black"/>
<path d="M556.091,24.9905h -204.094" fill="none" stroke="black"/>
<path d="M351.996,24.9905v 92.2726" fill="none" stroke="black"/>
<text xml:space="preserve" x="434.657" y="38.284" fill="black" font-size="16.0763" font-family="Helvetica">adj_h</text>
<path d="M351.996,43.445h 204.094" fill="none" stroke="black"/>
<text xml:space="preserve" x="376.009" y="57.8333" fill="black" font-size="16.0763" font-family="Helvetica"> / ndf </text>
<text xml:space="preserve" x="370.307" y="52.946" fill="black" font-size="10.8842" font-family="Helvetica">2</text>
<text xml:space="preserve" x="362.162" y="57.8333" fill="black" font-size="16.0763" font-family="Times">&#0967;</text>
<text xml:space="preserve" x="485.159" y="57.8333" fill="black" font-size="16.0763" font-family="Helvetica">  34.3 / 6</text>
<text xml:space="preserve" x="362.162" y="77.3826" fill="black" font-size="16.0763" font-family="Helvetica">Constant </text>
<text xml:space="preserve" x="520.185" y="76.568" fill="black" font-size="16.0763" font-family="Helvetica"> 6.7</text>
<text xml:space="preserve" x="511.225" y="76.568" fill="black" font-size="16.0763" font-family="Times">&#0177;</text>
<text xml:space="preserve" x="466.425" y="76.568" fill="black" font-size="16.0763" font-family="Helvetica"> 109.1 </text>
<text xml:space="preserve" x="362.162" y="94.4882" fill="black" font-size="16.0763" font-family="Helvetica">Mean     </text>
<text xml:space="preserve" x="520.185" y="94.4882" fill="black" font-size="16.0763" font-family="Helvetica"> 1.8</text>
<text xml:space="preserve" x="511.225" y="94.4882" fill="black" font-size="16.0763" font-family="Times">&#0177;</text>
<text xml:space="preserve" x="463.981" y="94.4882" fill="black" font-size="16.0763" font-family="Helvetica"> 253.3 </text>
<text xml:space="preserve" x="362.162" y="112.408" fill="black" font-size="16.0763" font-family="Helvetica">Sigma    </text>
<text xml:space="preserve" x="511.225" y="113.223" fill="black" font-size="16.0763" font-family="Helvetica"> 1.75</text>
<text xml:space="preserve" x="502.265" y="113.223" fill="black" font-size="16.0763" font-family="Times">&#0177;</text>
<text xml:space="preserve" x="455.021" y="113.223" fill="black" font-size="16.0763" font-family="Helvetica"> 37.08 </text>
<g stroke="black" stroke-width="1" fill="none">
<line x1="63.752" y1="346.022" x2="64.752" y2="346.022"/>
</g>
<g stroke="black" stroke-width="1" fill="none">
<line x1="78.8701" y1="346.022" x2="79.8701" y2="346.022"/>
</g>
<g stroke="black" stroke-width="1" fill="none">
<line x1="93.9882" y1="346.022" x2="94.9882" y2="346.022"/>
</g>
<g stroke="black" stroke-width="1" fill="none">
<line x1="109.106" y1="346.022" x2="110.106" y2="346.022"/>
</g>
<g stroke="black" stroke-width="1" fill="none">
<line x1="124.224" y1="346.022" x2="125.224" y2="346.022"/>
</g>
<g stroke="black" stroke-width="1" fill="none">
<line x1="139.343" y1="346.022" x2="140.343" y2="346.022"/>
</g>
<g stroke="black" stroke-width="1" fill="none">
<line x1="154.461" y1="346.022" x2="155.461" y2="346.022"/>
</g>
<g stroke="black" stroke-width="1" fill="none">
<line x1="169.579" y1="346.022" x2="170.579" y2="346.022"/>
</g>
<path d="M185.697,325.185v -8.45613" fill="none" stroke="#000099"/>
<path d="M185.697,316.729v -8.45613" fill="none" stroke="#000099"/>
<path d="M178.138,316.729h 7.55905" fill="none" stroke="#000099"/>
<path d="M185.697,316.729h 7.55905" fill="none" stroke="#000099"/>
<g stroke="black" stroke-width="1" fill="none">
<line x1="184.697" y1="316.729" x2="185.697" y2="316.729"/>
</g>
<path d="M200.815,259.317v -15.82" fill="none" stroke="#000099"/>
<path d="M200.815,243.497v -15.82" fill="none" stroke="#000099"/>
<path d="M193.256,243.497h 7.55905" fill="none" stroke="#000099"/>
<path d="M200.815,243.497h 7.55905" fill="none" stroke="#000099"/>
<g stroke="black" stroke-width="1" fill="none">
<line x1="199.815" y1="243.497" x2="200.815" y2="243.497"/>
</g>
<path d="M215.933,272.79v -14.6464" fill="none" stroke="#000099"/>
<path d="M215.933,258.144v -14.6464" fill="none" stroke="#000099"/>
<path d="M208.374,258.144h 7.55905" fill="none" stroke="#000099"/>
<path d="M215.933,258.144h 7.55905" fill="none" stroke="#000099"/>
<g stroke="black" stroke-width="1" fill="none">
<line x1="214.933" y1="258.144" x2="215.933" y2="258.144"/>
</g>
<path d="M231.051,93.8033v -26.0635" fill="none" stroke="#000099"/>
<path d="M231.051,67.7398v -26.0635" fill="none" stroke="#000099"/>
<path d="M223.492,67.7398h 7.55905" fill="none" stroke="#000099"/>
<path d="M231.051,67.7398h 7.55905" fill="none" stroke="#000099"/>
<g stroke="black" stroke-width="1" fill="none">
<line x1="230.051" y1="67.7398" x2="231.051" y2="67.7398"/>
</g>
<path d="M246.169,135.597v -23.9175" fill="none" stroke="#000099"/>
<path d="M246.169,111.679v -23.9175" fill="none" stroke="#000099"/>
<path d="M238.61,111.679h 7.55905" fill="none" stroke="#000099"/>
<path d="M246.169,111.679h 7.55905" fill="none" stroke="#000099"/>
<g stroke="black" stroke-width="1" fill="none">
<line x1="245.169" y1="111.679" x2="246.169" y2="111.679"/>
</g>
<path d="M261.287,79.834v -26.7406" fill="none" stroke="#000099"/>
<path d="M261.287,53.0934v -14.6464" fill="none" stroke="#000099"/>
<path d="M253.728,53.0934h 7.55905" fill="none" stroke="#000099"/>
<path d="M261.287,53.0934h 7.55905" fill="none" stroke="#000099"/>
<g stroke="black" stroke-width="1" fill="none">
<line x1="260.287" y1="53.0934" x2="261.287" y2="53.0934"/>
</g>
<path d="M276.406,190.978v -20.7132" fill="none" stroke="#000099"/>
<path d="M276.406,170.265v -20.7132" fill="none" stroke="#000099"/>
<path d="M268.846,170.265h 7.55905" fill="none" stroke="#000099"/>
<path d="M276.406,170.265h 7.55905" fill="none" stroke="#000099"/>
<g stroke="black" stroke-width="1" fill="none">
<line x1="275.406" y1="170.265" x2="276.406" y2="170.265"/>
</g>
<path d="M291.524,299.395v -11.9588" fill="none" stroke="#000099"/>
<path d="M291.524,287.436v -11.9588" fill="none" stroke="#000099"/>
<path d="M283.965,287.436h 7.55905" fill="none" stroke="#000099"/>
<path d="M291.524,287.436h 7.55905" fill="none" stroke="#000099"/>
<g stroke="black" stroke-width="1" fill="none">
<line x1="290.524" y1="287.436" x2="291.524" y2="287.436"/>
</g>
<path d="M306.642,312.44v -10.3566" fill="none" stroke="#000099"/>
<path d="M306.642,302.083v -10.3566" fill="none" stroke="#000099"/>
<path d="M299.083,302.083h 7.55905" fill="none" stroke="#000099"/>
<path d="M306.642,302.083h 7.55905" fill="none" stroke="#000099"/>
<g stroke="black" stroke-width="1" fill="none">
<line x1="305.642" y1="302.083" x2="306.642" y2="302.083"/>
</g>
<g stroke="black" stroke-width="1" fill="none">
<line x1="320.76" y1="346.022" x2="321.76" y2="346.022"/>
</g>
<g stroke="black" stroke-width="1" fill="none">
<line x1="335.878" y1="346.022" x2="336.878" y2="346.022"/>
</g>
<g stroke="black" stroke-width="1" fill="none">
<line x1="350.996" y1="346.022" x2="351.996" y2="346.022"/>
</g>
<g stroke="black" stroke-width="1" fill="none">
<line x1="366.114" y1="346.022" x2="367.114" y2="346.022"/>
</g>
<g stroke="black" stroke-width="1" fill="none">
<line x1="381.232" y1="346.022" x2="382.232" y2="346.022"/>
</g>
<g stroke="black" stroke-width="1" fill="none">
<line x1="396.35" y1="346.022" x2="397.35" y2="346.022"/>
</g>
<g stroke="black" stroke-width="1" fill="none">
<line x1="411.469" y1="346.022" x2="412.469" y2="346.022"/>
</g>
<g stroke="black" stroke-width="1" fill="none">
<line x1="426.587" y1="346.022" x2="427.587" y2="346.022"/>
</g>
<g stroke="black" stroke-width="1" fill="none">
<line x1="441.705" y1="346.022" x2="442.705" y2="346.022"/>
</g>
<g stroke="black" stroke-width="1" fill="none">
<line x1="456.823" y1="346.022" x2="457.823" y2="346.022"/>
</g>
<g stroke="black" stroke-width="1" fill="none">
<line x1="471.941" y1="346.022" x2="472.941" y2="346.022"/>
</g>
<g stroke="black" stroke-width="1" fill="none">
<line x1="487.059" y1="346.022" x2="488.059" y2="346.022"/>
</g>
<g stroke="black" stroke-width="1" fill="none">
<line x1="502.177" y1="346.022" x2="503.177" y2="346.022"/>
</g>
<path d="M59.4606,346.022h 68.0315l 4.53543, -0.0462309l 4.53543, -0.0432447l 4.53543, -0.0792203l 4.53543, -0.14114l 4.53543, -0.244518l 4.53543, -0.411851l 4.53543, -0.674306l 4.53543, -1.07291l 4.53543, -1.6586l 4.53543, -2.49035l 4.53543,
 -3.63049l 4.53543, -5.1365l 4.53543, -7.04924l 4.53543, -9.37809l 4.53543, -12.085l 4.53543, -15.0698l 4.53543, -18.1618l 4.53543, -21.1193l 4.53543, -23.6433l 4.53543, -25.4044l 4.53543, -26.082l 4.53543, -25.412l 4.53543, -23.2341l 4.53543,
 -19.5309l 4.53543, -14.4484l 4.53543, -8.29291l 4.53543, -1.50262l 4.53543, 5.40413l 4.53543, 11.8941l 4.53543, 17.487l 4.53543, 21.8146l 4.53543, 24.6595l 4.53543, 25.9698l 4.53543, 25.8478" fill="none" stroke="#ff0000" stroke-width="2"/>
<path d="M281.697,213.056l 4.53543, 24.5183l 4.53543, 22.2834l 4.53543, 19.4741l 4.53543, 16.4069l 4.53543, 13.3504l 4.53543, 10.507l 4.53543, 8.00659l 4.53543, 5.91258l 4.53543, 4.23416l 4.53543, 2.94213l 4.53543, 1.98457l 4.53543, 1.3l 4.53543,
 0.827264l 4.53543, 0.511545l 4.53543, 0.307446l 4.53543, 0.179635l 4.53543, 0.102053l 4.53543, 0.0563825l 4.53543, 0.0302976l 4.53543, 0.0314167h 131.528" fill="none" stroke="#ff0000" stroke-width="2"/>
<path d="M503.933,346.022h 4.53543" fill="none" stroke="#ff0000" stroke-width="2"/>
<rect x="351.996" y="24.9905" width="204.094" height="92.2726" fill="white"/>
<path d="M351.996,117.263h 204.094" fill="none" stroke="black"/>
<path d="M556.091,117.263v -92.2726" fill="none" stroke="black"/>
<path d="M556.091,24.9905h -204.094" fill="none" stroke="black"/>
<path d="M351.996,24.9905v 92.2726" fill="none" stroke="black"/>
<text xml:space="preserve" x="434.657" y="38.284" fill="black" font-size="16.0763" font-family="Helvetica">adj_h</text>
<path d="M351.996,43.445h 204.094" fill="none" stroke="black"/>
<text xml:space="preserve" x="376.009" y="57.8333" fill="black" font-size="16.0763" font-family="Helvetica"> / ndf </text>
<text xml:space="preserve" x="370.307" y="52.946" fill="black" font-size="10.8842" font-family="Helvetica">2</text>
<text xml:space="preserve" x="362.162" y="57.8333" fill="black" font-size="16.0763" font-family="Times">&#0967;</text>
<text xml:space="preserve" x="485.159" y="57.8333" fill="black" font-size="16.0763" font-family="Helvetica">  34.3 / 6</text>
<text xml:space="preserve" x="362.162" y="77.3826" fill="black" font-size="16.0763" font-family="Helvetica">Constant </text>
<text xml:space="preserve" x="520.185" y="76.568" fill="black" font-size="16.0763" font-family="Helvetica"> 6.7</text>
<text xml:space="preserve" x="511.225" y="76.568" fill="black" font-size="16.0763" font-family="Times">&#0177;</text>
<text xml:space="preserve" x="466.425" y="76.568" fill="black" font-size="16.0763" font-family="Helvetica"> 109.1 </text>
<text xml:space="preserve" x="362.162" y="94.4882" fill="black" font-size="16.0763" font-family="Helvetica">Mean     </text>
<text xml:space="preserve" x="520.185" y="94.4882" fill="black" font-size="16.0763" font-family="Helvetica"> 1.8</text>
<text xml:space="preserve" x="511.225" y="94.4882" fill="black" font-size="16.0763" font-family="Times">&#0177;</text>
<text xml:space="preserve" x="463.981" y="94.4882" fill="black" font-size="16.0763" font-family="Helvetica"> 253.3 </text>
<text xml:space="preserve" x="362.162" y="112.408" fill="black" font-size="16.0763" font-family="Helvetica">Sigma    </text>
<text xml:space="preserve" x="511.225" y="113.223" fill="black" font-size="16.0763" font-family="Helvetica"> 1.75</text>
<text xml:space="preserve" x="502.265" y="113.223" fill="black" font-size="16.0763" font-family="Times">&#0177;</text>
<text xml:space="preserve" x="455.021" y="113.223" fill="black" font-size="16.0763" font-family="Helvetica"> 37.08 </text>
<text xml:space="preserve" x="206.582" y="17.9202" fill="black" font-size="18.7938" font-family="Helvetica">sector 4 (adjusted)</text></svg>
