<?xml version="1.0" standalone="no"?>
<svg width="567.429" height="384.969" viewBox="0 0 567.429 384.969" xmlns="http://www.w3.org/2000/svg" shape-rendering="crispEdges">
<title>
./adjusted_vop/sector/sector4.svg
</title>
<desc>
Creator: ROOT Version 6.22/02
CreationDate: Mon Jul 12 11:35:43 2021</desc>
<defs>
</defs>
<rect x="0.5" y="0" width="566.929" height="384.469" fill="white"/>
<rect x="57.1929" y="38.4469" width="453.543" height="307.575" fill="white"/>
<rect x="57.1929" y="38.4469" width="453.543" height="307.575" fill="none" stroke="black"/>
<path d="M57.1929,346.022h 120.945v -41.847h 15.1181v -62.7705h 15.1181v -20.9235h 15.1181v -167.388h 15.1181v 62.7705h 15.1181v -62.7705h 15.1181v 125.541h 15.1181v 104.617h 30.2362v 62.7705h 196.535" fill="none" stroke="#000099"/>
<path d="M59.4606,346.022h 54.4252l 4.53543, -0.0434276l 4.53543, -0.0363556l 4.53543, -0.0636043l 4.53543, -0.108708l 4.53543, -0.181487l 4.53543, -0.29593l 4.53543, -0.471224l 4.53543, -0.732639l 4.53543, -1.11198l 4.53543, -1.64725l 4.53543,
 -2.38106l 4.53543, -3.3574l 4.53543, -4.61651l 4.53543, -6.18771l 4.53543, -8.08063l 4.53543, -10.2756l 4.53543, -12.7149l 4.53543, -15.296l 4.53543, -17.8694l 4.53543, -20.2434l 4.53543, -22.1952l 4.53543, -23.4903l 4.53543, -23.9081l 4.53543,
 -23.2702l 4.53543, -21.4687l 4.53543, -18.4884l 4.53543, -14.4201l 4.53543, -9.45981l 4.53543, -3.89501l 4.53543, 1.923l 4.53543, 7.61569l 4.53543, 12.818l 4.53543, 17.2172l 4.53543, 20.5837l 4.53543, 22.7902l 4.53543, 23.8165l 4.53543, 23.7413"
 fill="none" stroke="#ff0000" stroke-width="2"/>
<path d="M281.697,210.217l 4.53543, 22.7217l 4.53543, 20.9673l 4.53543, 18.7111l 4.53543, 16.1821l 4.53543, 13.5846l 4.53543, 11.0832l 4.53543, 8.79636l 4.53543, 6.79659l 4.53543, 5.11563l 4.53543, 3.75272l 4.53543, 2.68421l 4.53543, 1.87267l
 4.53543, 1.27472l 4.53543, 0.846815l 4.53543, 0.549132l 4.53543, 0.347667l 4.53543, 0.214943l 4.53543, 0.129784l 4.53543, 0.0765439l 4.53543, 0.0441006l 4.53543, 0.0535558h 126.992" fill="none" stroke="#ff0000" stroke-width="2"/>
<path d="M503.933,346.022h 4.53543" fill="none" stroke="#ff0000" stroke-width="2"/>
<path d="M57.1929,346.022h 453.543" fill="none" stroke="black"/>
<path d="M57.1929,336.795v 9.22726" fill="none" stroke="black"/>
<path d="M72.311,341.409v 4.61363" fill="none" stroke="black"/>
<path d="M87.4291,341.409v 4.61363" fill="none" stroke="black"/>
<path d="M102.547,341.409v 4.61363" fill="none" stroke="black"/>
<path d="M117.665,341.409v 4.61363" fill="none" stroke="black"/>
<path d="M132.783,336.795v 9.22726" fill="none" stroke="black"/>
<path d="M147.902,341.409v 4.61363" fill="none" stroke="black"/>
<path d="M163.02,341.409v 4.61363" fill="none" stroke="black"/>
<path d="M178.138,341.409v 4.61363" fill="none" stroke="black"/>
<path d="M193.256,341.409v 4.61363" fill="none" stroke="black"/>
<path d="M208.374,336.795v 9.22726" fill="none" stroke="black"/>
<path d="M223.492,341.409v 4.61363" fill="none" stroke="black"/>
<path d="M238.61,341.409v 4.61363" fill="none" stroke="black"/>
<path d="M253.728,341.409v 4.61363" fill="none" stroke="black"/>
<path d="M268.846,341.409v 4.61363" fill="none" stroke="black"/>
<path d="M283.965,336.795v 9.22726" fill="none" stroke="black"/>
<path d="M299.083,341.409v 4.61363" fill="none" stroke="black"/>
<path d="M314.201,341.409v 4.61363" fill="none" stroke="black"/>
<path d="M329.319,341.409v 4.61363" fill="none" stroke="black"/>
<path d="M344.437,341.409v 4.61363" fill="none" stroke="black"/>
<path d="M359.555,336.795v 9.22726" fill="none" stroke="black"/>
<path d="M374.673,341.409v 4.61363" fill="none" stroke="black"/>
<path d="M389.791,341.409v 4.61363" fill="none" stroke="black"/>
<path d="M404.909,341.409v 4.61363" fill="none" stroke="black"/>
<path d="M420.028,341.409v 4.61363" fill="none" stroke="black"/>
<path d="M435.146,336.795v 9.22726" fill="none" stroke="black"/>
<path d="M450.264,341.409v 4.61363" fill="none" stroke="black"/>
<path d="M465.382,341.409v 4.61363" fill="none" stroke="black"/>
<path d="M480.5,341.409v 4.61363" fill="none" stroke="black"/>
<path d="M495.618,341.409v 4.61363" fill="none" stroke="black"/>
<path d="M510.736,336.795v 9.22726" fill="none" stroke="black"/>
<text xml:space="preserve" x="53.446" y="358.403" fill="black" font-size="12.8453" font-family="Helvetica">0</text>
<text xml:space="preserve" x="121.868" y="358.403" fill="black" font-size="12.8453" font-family="Helvetica">100</text>
<text xml:space="preserve" x="197.622" y="358.403" fill="black" font-size="12.8453" font-family="Helvetica">200</text>
<text xml:space="preserve" x="273.375" y="358.403" fill="black" font-size="12.8453" font-family="Helvetica">300</text>
<text xml:space="preserve" x="348.314" y="358.403" fill="black" font-size="12.8453" font-family="Helvetica">400</text>
<text xml:space="preserve" x="424.068" y="358.403" fill="black" font-size="12.8453" font-family="Helvetica">500</text>
<text xml:space="preserve" x="499.821" y="358.403" fill="black" font-size="12.8453" font-family="Helvetica">600</text>
<text xml:space="preserve" x="483.53" y="372.251" fill="black" font-size="12.8453" font-family="Helvetica">MPV</text>
<path d="M57.1929,346.022v -307.575" fill="none" stroke="black"/>
<path d="M70.7992,346.022h -13.6063" fill="none" stroke="black"/>
<path d="M63.9961,335.561h -6.80315" fill="none" stroke="black"/>
<path d="M63.9961,325.099h -6.80315" fill="none" stroke="black"/>
<path d="M63.9961,314.637h -6.80315" fill="none" stroke="black"/>
<path d="M70.7992,304.175h -13.6063" fill="none" stroke="black"/>
<path d="M63.9961,293.714h -6.80315" fill="none" stroke="black"/>
<path d="M63.9961,283.252h -6.80315" fill="none" stroke="black"/>
<path d="M63.9961,272.79h -6.80315" fill="none" stroke="black"/>
<path d="M70.7992,262.328h -13.6063" fill="none" stroke="black"/>
<path d="M63.9961,251.867h -6.80315" fill="none" stroke="black"/>
<path d="M63.9961,241.405h -6.80315" fill="none" stroke="black"/>
<path d="M63.9961,230.943h -6.80315" fill="none" stroke="black"/>
<path d="M70.7992,220.481h -13.6063" fill="none" stroke="black"/>
<path d="M63.9961,210.02h -6.80315" fill="none" stroke="black"/>
<path d="M63.9961,199.558h -6.80315" fill="none" stroke="black"/>
<path d="M63.9961,189.096h -6.80315" fill="none" stroke="black"/>
<path d="M70.7992,178.634h -13.6063" fill="none" stroke="black"/>
<path d="M63.9961,168.173h -6.80315" fill="none" stroke="black"/>
<path d="M63.9961,157.711h -6.80315" fill="none" stroke="black"/>
<path d="M63.9961,147.249h -6.80315" fill="none" stroke="black"/>
<path d="M70.7992,136.787h -13.6063" fill="none" stroke="black"/>
<path d="M63.9961,126.326h -6.80315" fill="none" stroke="black"/>
<path d="M63.9961,115.864h -6.80315" fill="none" stroke="black"/>
<path d="M63.9961,105.402h -6.80315" fill="none" stroke="black"/>
<path d="M70.7992,94.9403h -13.6063" fill="none" stroke="black"/>
<path d="M63.9961,84.4786h -6.80315" fill="none" stroke="black"/>
<path d="M63.9961,74.0169h -6.80315" fill="none" stroke="black"/>
<path d="M63.9961,63.5551h -6.80315" fill="none" stroke="black"/>
<path d="M70.7992,53.0934h -13.6063" fill="none" stroke="black"/>
<path d="M70.7992,53.0934h -13.6063" fill="none" stroke="black"/>
<path d="M63.9961,42.6316h -6.80315" fill="none" stroke="black"/>
<text xml:space="preserve" x="47.7441" y="350.258" fill="black" font-size="12.8453" font-family="Helvetica">0</text>
<text xml:space="preserve" x="47.7441" y="308.716" fill="black" font-size="12.8453" font-family="Helvetica">2</text>
<text xml:space="preserve" x="47.7441" y="267.173" fill="black" font-size="12.8453" font-family="Helvetica">4</text>
<text xml:space="preserve" x="47.7441" y="224.817" fill="black" font-size="12.8453" font-family="Helvetica">6</text>
<text xml:space="preserve" x="47.7441" y="183.275" fill="black" font-size="12.8453" font-family="Helvetica">8</text>
<text xml:space="preserve" x="41.2277" y="140.918" fill="black" font-size="12.8453" font-family="Helvetica">10</text>
<text xml:space="preserve" x="40.4131" y="99.3755" fill="black" font-size="12.8453" font-family="Helvetica">12</text>
<text xml:space="preserve" x="40.4131" y="57.8333" fill="black" font-size="12.8453" font-family="Helvetica">14</text>
<g transform="rotate(-90,27.3803,103.448)">
<text xml:space="preserve" x="27.3803" y="103.448" fill="black" font-size="12.8453" font-family="Helvetica">Num Blocks</text>
</g>
<text xml:space="preserve" x="206.582" y="17.9202" fill="black" font-size="18.7938" font-family="Helvetica">sector 4 (adjusted)</text>
<rect x="351.996" y="24.9905" width="204.094" height="76.8938" fill="white"/>
<path d="M351.996,101.884h 204.094" fill="none" stroke="black"/>
<path d="M556.091,101.884v -76.8938" fill="none" stroke="black"/>
<path d="M556.091,24.9905h -204.094" fill="none" stroke="black"/>
<path d="M351.996,24.9905v 76.8938" fill="none" stroke="black"/>
<text xml:space="preserve" x="377.638" y="39.0986" fill="black" font-size="16.7253" font-family="Helvetica"> / ndf </text>
<text xml:space="preserve" x="371.122" y="34.2112" fill="black" font-size="11.3169" font-family="Helvetica">2</text>
<text xml:space="preserve" x="362.162" y="39.0986" fill="black" font-size="16.7253" font-family="Times">&#0967;</text>
<text xml:space="preserve" x="477.828" y="40.7277" fill="black" font-size="16.7253" font-family="Helvetica"> 3.015 / 6</text>
<text xml:space="preserve" x="362.162" y="60.2769" fill="black" font-size="16.7253" font-family="Helvetica">Constant </text>
<text xml:space="preserve" x="509.596" y="60.2769" fill="black" font-size="16.7253" font-family="Helvetica"> 2.18</text>
<text xml:space="preserve" x="500.636" y="60.2769" fill="black" font-size="16.7253" font-family="Times">&#0177;</text>
<text xml:space="preserve" x="450.133" y="60.2769" fill="black" font-size="16.7253" font-family="Helvetica"> 12.73 </text>
<text xml:space="preserve" x="362.162" y="79.0117" fill="black" font-size="16.7253" font-family="Helvetica">Mean     </text>
<text xml:space="preserve" x="518.556" y="79.0117" fill="black" font-size="16.7253" font-family="Helvetica"> 5.5</text>
<text xml:space="preserve" x="509.596" y="79.0117" fill="black" font-size="16.7253" font-family="Times">&#0177;</text>
<text xml:space="preserve" x="463.166" y="79.0117" fill="black" font-size="16.7253" font-family="Helvetica">   250 </text>
<text xml:space="preserve" x="362.162" y="96.9318" fill="black" font-size="16.7253" font-family="Helvetica">Sigma    </text>
<text xml:space="preserve" x="509.596" y="98.561" fill="black" font-size="16.7253" font-family="Helvetica"> 5.52</text>
<text xml:space="preserve" x="500.636" y="98.561" fill="black" font-size="16.7253" font-family="Times">&#0177;</text>
<text xml:space="preserve" x="450.133" y="98.561" fill="black" font-size="16.7253" font-family="Helvetica"> 40.47 </text>
<g stroke="black" stroke-width="1" fill="none">
<line x1="63.752" y1="346.022" x2="64.752" y2="346.022"/>
</g>
<g stroke="black" stroke-width="1" fill="none">
<line x1="78.8701" y1="346.022" x2="79.8701" y2="346.022"/>
</g>
<g stroke="black" stroke-width="1" fill="none">
<line x1="93.9882" y1="346.022" x2="94.9882" y2="346.022"/>
</g>
<g stroke="black" stroke-width="1" fill="none">
<line x1="109.106" y1="346.022" x2="110.106" y2="346.022"/>
</g>
<g stroke="black" stroke-width="1" fill="none">
<line x1="124.224" y1="346.022" x2="125.224" y2="346.022"/>
</g>
<g stroke="black" stroke-width="1" fill="none">
<line x1="139.343" y1="346.022" x2="140.343" y2="346.022"/>
</g>
<g stroke="black" stroke-width="1" fill="none">
<line x1="154.461" y1="346.022" x2="155.461" y2="346.022"/>
</g>
<g stroke="black" stroke-width="1" fill="none">
<line x1="169.579" y1="346.022" x2="170.579" y2="346.022"/>
</g>
<path d="M185.697,333.766v -29.5903" fill="none" stroke="#000099"/>
<path d="M185.697,304.175v -29.5903" fill="none" stroke="#000099"/>
<path d="M178.138,304.175h 7.55905" fill="none" stroke="#000099"/>
<path d="M185.697,304.175h 7.55905" fill="none" stroke="#000099"/>
<g stroke="black" stroke-width="1" fill="none">
<line x1="184.697" y1="304.175" x2="185.697" y2="304.175"/>
</g>
<path d="M200.815,288.191v -46.7864" fill="none" stroke="#000099"/>
<path d="M200.815,241.405v -46.7864" fill="none" stroke="#000099"/>
<path d="M193.256,241.405h 7.55905" fill="none" stroke="#000099"/>
<path d="M200.815,241.405h 7.55905" fill="none" stroke="#000099"/>
<g stroke="black" stroke-width="1" fill="none">
<line x1="199.815" y1="241.405" x2="200.815" y2="241.405"/>
</g>
<path d="M215.933,271.733v -51.2519" fill="none" stroke="#000099"/>
<path d="M215.933,220.481v -51.2519" fill="none" stroke="#000099"/>
<path d="M208.374,220.481h 7.55905" fill="none" stroke="#000099"/>
<path d="M215.933,220.481h 7.55905" fill="none" stroke="#000099"/>
<g stroke="black" stroke-width="1" fill="none">
<line x1="214.933" y1="220.481" x2="215.933" y2="220.481"/>
</g>
<path d="M231.051,131.382v -78.2885" fill="none" stroke="#000099"/>
<path d="M231.051,53.0934v -14.6464" fill="none" stroke="#000099"/>
<path d="M223.492,53.0934h 7.55905" fill="none" stroke="#000099"/>
<path d="M231.051,53.0934h 7.55905" fill="none" stroke="#000099"/>
<g stroke="black" stroke-width="1" fill="none">
<line x1="230.051" y1="53.0934" x2="231.051" y2="53.0934"/>
</g>
<path d="M246.169,185.259v -69.3954" fill="none" stroke="#000099"/>
<path d="M246.169,115.864v -69.3954" fill="none" stroke="#000099"/>
<path d="M238.61,115.864h 7.55905" fill="none" stroke="#000099"/>
<path d="M246.169,115.864h 7.55905" fill="none" stroke="#000099"/>
<g stroke="black" stroke-width="1" fill="none">
<line x1="245.169" y1="115.864" x2="246.169" y2="115.864"/>
</g>
<path d="M261.287,131.382v -78.2885" fill="none" stroke="#000099"/>
<path d="M261.287,53.0934v -14.6464" fill="none" stroke="#000099"/>
<path d="M253.728,53.0934h 7.55905" fill="none" stroke="#000099"/>
<path d="M261.287,53.0934h 7.55905" fill="none" stroke="#000099"/>
<g stroke="black" stroke-width="1" fill="none">
<line x1="260.287" y1="53.0934" x2="261.287" y2="53.0934"/>
</g>
<path d="M276.406,237.815v -59.1806" fill="none" stroke="#000099"/>
<path d="M276.406,178.634v -59.1806" fill="none" stroke="#000099"/>
<path d="M268.846,178.634h 7.55905" fill="none" stroke="#000099"/>
<path d="M276.406,178.634h 7.55905" fill="none" stroke="#000099"/>
<g stroke="black" stroke-width="1" fill="none">
<line x1="275.406" y1="178.634" x2="276.406" y2="178.634"/>
</g>
<path d="M291.524,319.492v -36.2406" fill="none" stroke="#000099"/>
<path d="M291.524,283.252v -36.2406" fill="none" stroke="#000099"/>
<path d="M283.965,283.252h 7.55905" fill="none" stroke="#000099"/>
<path d="M291.524,283.252h 7.55905" fill="none" stroke="#000099"/>
<g stroke="black" stroke-width="1" fill="none">
<line x1="290.524" y1="283.252" x2="291.524" y2="283.252"/>
</g>
<path d="M306.642,319.492v -36.2406" fill="none" stroke="#000099"/>
<path d="M306.642,283.252v -36.2406" fill="none" stroke="#000099"/>
<path d="M299.083,283.252h 7.55905" fill="none" stroke="#000099"/>
<path d="M306.642,283.252h 7.55905" fill="none" stroke="#000099"/>
<g stroke="black" stroke-width="1" fill="none">
<line x1="305.642" y1="283.252" x2="306.642" y2="283.252"/>
</g>
<g stroke="black" stroke-width="1" fill="none">
<line x1="320.76" y1="346.022" x2="321.76" y2="346.022"/>
</g>
<g stroke="black" stroke-width="1" fill="none">
<line x1="335.878" y1="346.022" x2="336.878" y2="346.022"/>
</g>
<g stroke="black" stroke-width="1" fill="none">
<line x1="350.996" y1="346.022" x2="351.996" y2="346.022"/>
</g>
<g stroke="black" stroke-width="1" fill="none">
<line x1="366.114" y1="346.022" x2="367.114" y2="346.022"/>
</g>
<g stroke="black" stroke-width="1" fill="none">
<line x1="381.232" y1="346.022" x2="382.232" y2="346.022"/>
</g>
<g stroke="black" stroke-width="1" fill="none">
<line x1="396.35" y1="346.022" x2="397.35" y2="346.022"/>
</g>
<g stroke="black" stroke-width="1" fill="none">
<line x1="411.469" y1="346.022" x2="412.469" y2="346.022"/>
</g>
<g stroke="black" stroke-width="1" fill="none">
<line x1="426.587" y1="346.022" x2="427.587" y2="346.022"/>
</g>
<g stroke="black" stroke-width="1" fill="none">
<line x1="441.705" y1="346.022" x2="442.705" y2="346.022"/>
</g>
<g stroke="black" stroke-width="1" fill="none">
<line x1="456.823" y1="346.022" x2="457.823" y2="346.022"/>
</g>
<g stroke="black" stroke-width="1" fill="none">
<line x1="471.941" y1="346.022" x2="472.941" y2="346.022"/>
</g>
<g stroke="black" stroke-width="1" fill="none">
<line x1="487.059" y1="346.022" x2="488.059" y2="346.022"/>
</g>
<g stroke="black" stroke-width="1" fill="none">
<line x1="502.177" y1="346.022" x2="503.177" y2="346.022"/>
</g>
<path d="M59.4606,346.022h 54.4252l 4.53543, -0.0434276l 4.53543, -0.0363556l 4.53543, -0.0636043l 4.53543, -0.108708l 4.53543, -0.181487l 4.53543, -0.29593l 4.53543, -0.471224l 4.53543, -0.732639l 4.53543, -1.11198l 4.53543, -1.64725l 4.53543,
 -2.38106l 4.53543, -3.3574l 4.53543, -4.61651l 4.53543, -6.18771l 4.53543, -8.08063l 4.53543, -10.2756l 4.53543, -12.7149l 4.53543, -15.296l 4.53543, -17.8694l 4.53543, -20.2434l 4.53543, -22.1952l 4.53543, -23.4903l 4.53543, -23.9081l 4.53543,
 -23.2702l 4.53543, -21.4687l 4.53543, -18.4884l 4.53543, -14.4201l 4.53543, -9.45981l 4.53543, -3.89501l 4.53543, 1.923l 4.53543, 7.61569l 4.53543, 12.818l 4.53543, 17.2172l 4.53543, 20.5837l 4.53543, 22.7902l 4.53543, 23.8165l 4.53543, 23.7413"
 fill="none" stroke="#ff0000" stroke-width="2"/>
<path d="M281.697,210.217l 4.53543, 22.7217l 4.53543, 20.9673l 4.53543, 18.7111l 4.53543, 16.1821l 4.53543, 13.5846l 4.53543, 11.0832l 4.53543, 8.79636l 4.53543, 6.79659l 4.53543, 5.11563l 4.53543, 3.75272l 4.53543, 2.68421l 4.53543, 1.87267l
 4.53543, 1.27472l 4.53543, 0.846815l 4.53543, 0.549132l 4.53543, 0.347667l 4.53543, 0.214943l 4.53543, 0.129784l 4.53543, 0.0765439l 4.53543, 0.0441006l 4.53543, 0.0535558h 126.992" fill="none" stroke="#ff0000" stroke-width="2"/>
<path d="M503.933,346.022h 4.53543" fill="none" stroke="#ff0000" stroke-width="2"/>
<rect x="351.996" y="24.9905" width="204.094" height="76.8938" fill="white"/>
<path d="M351.996,101.884h 204.094" fill="none" stroke="black"/>
<path d="M556.091,101.884v -76.8938" fill="none" stroke="black"/>
<path d="M556.091,24.9905h -204.094" fill="none" stroke="black"/>
<path d="M351.996,24.9905v 76.8938" fill="none" stroke="black"/>
<text xml:space="preserve" x="377.638" y="39.0986" fill="black" font-size="16.7253" font-family="Helvetica"> / ndf </text>
<text xml:space="preserve" x="371.122" y="34.2112" fill="black" font-size="11.3169" font-family="Helvetica">2</text>
<text xml:space="preserve" x="362.162" y="39.0986" fill="black" font-size="16.7253" font-family="Times">&#0967;</text>
<text xml:space="preserve" x="477.828" y="40.7277" fill="black" font-size="16.7253" font-family="Helvetica"> 3.015 / 6</text>
<text xml:space="preserve" x="362.162" y="60.2769" fill="black" font-size="16.7253" font-family="Helvetica">Constant </text>
<text xml:space="preserve" x="509.596" y="60.2769" fill="black" font-size="16.7253" font-family="Helvetica"> 2.18</text>
<text xml:space="preserve" x="500.636" y="60.2769" fill="black" font-size="16.7253" font-family="Times">&#0177;</text>
<text xml:space="preserve" x="450.133" y="60.2769" fill="black" font-size="16.7253" font-family="Helvetica"> 12.73 </text>
<text xml:space="preserve" x="362.162" y="79.0117" fill="black" font-size="16.7253" font-family="Helvetica">Mean     </text>
<text xml:space="preserve" x="518.556" y="79.0117" fill="black" font-size="16.7253" font-family="Helvetica"> 5.5</text>
<text xml:space="preserve" x="509.596" y="79.0117" fill="black" font-size="16.7253" font-family="Times">&#0177;</text>
<text xml:space="preserve" x="463.166" y="79.0117" fill="black" font-size="16.7253" font-family="Helvetica">   250 </text>
<text xml:space="preserve" x="362.162" y="96.9318" fill="black" font-size="16.7253" font-family="Helvetica">Sigma    </text>
<text xml:space="preserve" x="509.596" y="98.561" fill="black" font-size="16.7253" font-family="Helvetica"> 5.52</text>
<text xml:space="preserve" x="500.636" y="98.561" fill="black" font-size="16.7253" font-family="Times">&#0177;</text>
<text xml:space="preserve" x="450.133" y="98.561" fill="black" font-size="16.7253" font-family="Helvetica"> 40.47 </text>
<text xml:space="preserve" x="206.582" y="17.9202" fill="black" font-size="18.7938" font-family="Helvetica">sector 4 (adjusted)</text></svg>
