<?xml version="1.0" standalone="no"?>
<svg width="567.429" height="385.492" viewBox="0 0 567.429 385.492" xmlns="http://www.w3.org/2000/svg" shape-rendering="crispEdges">
<title>
./vop_graphs/vop69.33.svg
</title>
<desc>
Creator: ROOT Version 6.24/00
CreationDate: Wed Jun  9 11:45:16 2021</desc>
<defs>
</defs>
<rect x="0.5" y="0" width="566.929" height="384.992" fill="white"/>
<rect x="57.1929" y="38.4992" width="453.543" height="307.994" fill="white"/>
<rect x="57.1929" y="38.4992" width="453.543" height="307.994" fill="none" stroke="black"/>
<path d="M57.1929,346.493h 90.7087v -8.8887h 30.2362v -8.8887h 15.1181v -44.4435h 15.1181v -35.5548h 15.1181v -79.9983h 15.1181v -115.553h 15.1181v 79.9983h 15.1181v 26.6661h 15.1181v 62.2209h 15.1181v 71.1096h 15.1181v -26.6661h 15.1181v 71.1096h
 15.1181v 8.8887h 166.299" fill="none" stroke="#00ffff"/>
<path d="M59.4606,346.493h 58.9606l 4.53543, -0.0525781l 4.53543, -0.0400592l 4.53543, -0.0673924l 4.53543, -0.11102l 4.53543, -0.179073l 4.53543, -0.28278l 4.53543, -0.437122l 4.53543, -0.661351l 4.53543, -0.979188l 4.53543, -1.41849l 4.53543,
 -2.01011l 4.53543, -2.78575l 4.53543, -3.77459l 4.53543, -4.99873l 4.53543, -6.46754l 4.53543, -8.17155l 4.53543, -10.0764l 4.53543, -12.1183l 4.53543, -14.2013l 4.53543, -16.199l 4.53543, -17.9595l 4.53543, -19.3162l 4.53543, -20.1021l 4.53543,
 -20.1673l 4.53543, -19.3982l 4.53543, -17.7343l 4.53543, -15.1818l 4.53543, -11.8196l 4.53543, -7.79811l 4.53543, -3.32843l 4.53543, 1.33564l 4.53543, 5.92149l 4.53543, 10.1641l 4.53543, 13.8314l 4.53543, 16.7452l 4.53543, 18.7952" fill="none"
 stroke="#00ffff" stroke-width="2"/>
<path d="M281.697,175.448l 4.53543, 19.9444l 4.53543, 20.226l 4.53543, 19.7326l 4.53543, 18.6009l 4.53543, 16.9928l 4.53543, 15.0771l 4.53543, 13.0136l 4.53543, 10.9404l 4.53543, 8.96713l 4.53543, 7.17111l 4.53543, 5.59892l 4.53543, 4.27001l 4.53543,
 3.18233l 4.53543, 2.3185l 4.53543, 1.65177l 4.53543, 1.15102l 4.53543, 0.784696l 4.53543, 0.523472l 4.53543, 0.341768l 4.53543, 0.218414l 4.53543, 0.136646l 4.53543, 0.083701l 4.53543, 0.0502029l 4.53543, 0.0294871l 4.53543, 0.0377142h 108.85"
 fill="none" stroke="#00ffff" stroke-width="2"/>
<path d="M503.933,346.493h 4.53543" fill="none" stroke="#00ffff" stroke-width="2"/>
<path d="M57.1929,346.493h 453.543" fill="none" stroke="black"/>
<path d="M57.1929,337.253v 9.23981" fill="none" stroke="black"/>
<path d="M72.311,341.873v 4.6199" fill="none" stroke="black"/>
<path d="M87.4291,341.873v 4.6199" fill="none" stroke="black"/>
<path d="M102.547,341.873v 4.6199" fill="none" stroke="black"/>
<path d="M117.665,341.873v 4.6199" fill="none" stroke="black"/>
<path d="M132.783,337.253v 9.23981" fill="none" stroke="black"/>
<path d="M147.902,341.873v 4.6199" fill="none" stroke="black"/>
<path d="M163.02,341.873v 4.6199" fill="none" stroke="black"/>
<path d="M178.138,341.873v 4.6199" fill="none" stroke="black"/>
<path d="M193.256,341.873v 4.6199" fill="none" stroke="black"/>
<path d="M208.374,337.253v 9.23981" fill="none" stroke="black"/>
<path d="M223.492,341.873v 4.6199" fill="none" stroke="black"/>
<path d="M238.61,341.873v 4.6199" fill="none" stroke="black"/>
<path d="M253.728,341.873v 4.6199" fill="none" stroke="black"/>
<path d="M268.846,341.873v 4.6199" fill="none" stroke="black"/>
<path d="M283.965,337.253v 9.23981" fill="none" stroke="black"/>
<path d="M299.083,341.873v 4.6199" fill="none" stroke="black"/>
<path d="M314.201,341.873v 4.6199" fill="none" stroke="black"/>
<path d="M329.319,341.873v 4.6199" fill="none" stroke="black"/>
<path d="M344.437,341.873v 4.6199" fill="none" stroke="black"/>
<path d="M359.555,337.253v 9.23981" fill="none" stroke="black"/>
<path d="M374.673,341.873v 4.6199" fill="none" stroke="black"/>
<path d="M389.791,341.873v 4.6199" fill="none" stroke="black"/>
<path d="M404.909,341.873v 4.6199" fill="none" stroke="black"/>
<path d="M420.028,341.873v 4.6199" fill="none" stroke="black"/>
<path d="M435.146,337.253v 9.23981" fill="none" stroke="black"/>
<path d="M450.264,341.873v 4.6199" fill="none" stroke="black"/>
<path d="M465.382,341.873v 4.6199" fill="none" stroke="black"/>
<path d="M480.5,341.873v 4.6199" fill="none" stroke="black"/>
<path d="M495.618,341.873v 4.6199" fill="none" stroke="black"/>
<path d="M510.736,337.253v 9.23981" fill="none" stroke="black"/>
<text xml:space="preserve" x="53.2943" y="359.001" fill="black" font-size="12.8621" font-family="Helvetica">0</text>
<text xml:space="preserve" x="121.521" y="359.001" fill="black" font-size="12.8621" font-family="Helvetica">100</text>
<text xml:space="preserve" x="197.057" y="359.001" fill="black" font-size="12.8621" font-family="Helvetica">200</text>
<text xml:space="preserve" x="273.406" y="359.001" fill="black" font-size="12.8621" font-family="Helvetica">300</text>
<text xml:space="preserve" x="348.942" y="359.001" fill="black" font-size="12.8621" font-family="Helvetica">400</text>
<text xml:space="preserve" x="424.479" y="359.001" fill="black" font-size="12.8621" font-family="Helvetica">500</text>
<text xml:space="preserve" x="500.015" y="359.001" fill="black" font-size="12.8621" font-family="Helvetica">600</text>
<text xml:space="preserve" x="487.019" y="370.372" fill="black" font-size="12.8621" font-family="Helvetica">mpv</text>
<path d="M57.1929,346.493v -307.994" fill="none" stroke="black"/>
<path d="M70.7992,346.493h -13.6063" fill="none" stroke="black"/>
<path d="M63.9961,337.604h -6.80315" fill="none" stroke="black"/>
<path d="M63.9961,328.715h -6.80315" fill="none" stroke="black"/>
<path d="M63.9961,319.827h -6.80315" fill="none" stroke="black"/>
<path d="M63.9961,310.938h -6.80315" fill="none" stroke="black"/>
<path d="M70.7992,302.049h -13.6063" fill="none" stroke="black"/>
<path d="M63.9961,293.161h -6.80315" fill="none" stroke="black"/>
<path d="M63.9961,284.272h -6.80315" fill="none" stroke="black"/>
<path d="M63.9961,275.383h -6.80315" fill="none" stroke="black"/>
<path d="M63.9961,266.494h -6.80315" fill="none" stroke="black"/>
<path d="M70.7992,257.606h -13.6063" fill="none" stroke="black"/>
<path d="M63.9961,248.717h -6.80315" fill="none" stroke="black"/>
<path d="M63.9961,239.828h -6.80315" fill="none" stroke="black"/>
<path d="M63.9961,230.94h -6.80315" fill="none" stroke="black"/>
<path d="M63.9961,222.051h -6.80315" fill="none" stroke="black"/>
<path d="M70.7992,213.162h -13.6063" fill="none" stroke="black"/>
<path d="M63.9961,204.274h -6.80315" fill="none" stroke="black"/>
<path d="M63.9961,195.385h -6.80315" fill="none" stroke="black"/>
<path d="M63.9961,186.496h -6.80315" fill="none" stroke="black"/>
<path d="M63.9961,177.607h -6.80315" fill="none" stroke="black"/>
<path d="M70.7992,168.719h -13.6063" fill="none" stroke="black"/>
<path d="M63.9961,159.83h -6.80315" fill="none" stroke="black"/>
<path d="M63.9961,150.941h -6.80315" fill="none" stroke="black"/>
<path d="M63.9961,142.053h -6.80315" fill="none" stroke="black"/>
<path d="M63.9961,133.164h -6.80315" fill="none" stroke="black"/>
<path d="M70.7992,124.275h -13.6063" fill="none" stroke="black"/>
<path d="M63.9961,115.386h -6.80315" fill="none" stroke="black"/>
<path d="M63.9961,106.498h -6.80315" fill="none" stroke="black"/>
<path d="M63.9961,97.6091h -6.80315" fill="none" stroke="black"/>
<path d="M63.9961,88.7204h -6.80315" fill="none" stroke="black"/>
<path d="M70.7992,79.8317h -13.6063" fill="none" stroke="black"/>
<path d="M70.7992,79.8317h -13.6063" fill="none" stroke="black"/>
<path d="M63.9961,70.943h -6.80315" fill="none" stroke="black"/>
<path d="M63.9961,62.0543h -6.80315" fill="none" stroke="black"/>
<path d="M63.9961,53.1656h -6.80315" fill="none" stroke="black"/>
<path d="M63.9961,44.2769h -6.80315" fill="none" stroke="black"/>
<text xml:space="preserve" x="47.6087" y="350.879" fill="black" font-size="12.8621" font-family="Helvetica">0</text>
<text xml:space="preserve" x="47.6087" y="306.207" fill="black" font-size="12.8621" font-family="Helvetica">5</text>
<text xml:space="preserve" x="41.111" y="262.347" fill="black" font-size="12.8621" font-family="Helvetica">10</text>
<text xml:space="preserve" x="40.2988" y="217.675" fill="black" font-size="12.8621" font-family="Helvetica">15</text>
<text xml:space="preserve" x="41.111" y="173.003" fill="black" font-size="12.8621" font-family="Helvetica">20</text>
<text xml:space="preserve" x="40.2988" y="129.143" fill="black" font-size="12.8621" font-family="Helvetica">25</text>
<text xml:space="preserve" x="41.111" y="84.4708" fill="black" font-size="12.8621" font-family="Helvetica">30</text>
<g transform="rotate(-90,27.3032,86.0953)">
<text xml:space="preserve" x="27.3032" y="86.0953" fill="black" font-size="12.8621" font-family="Helvetica">n_blocks</text>
</g>
<text xml:space="preserve" x="243.354" y="17.8688" fill="black" font-size="18.7414" font-family="Helvetica">vop 69.33</text>
<rect x="351.996" y="25.0245" width="204.094" height="76.9984" fill="white"/>
<path d="M351.996,102.023h 204.094" fill="none" stroke="black"/>
<path d="M556.091,102.023v -76.9984" fill="none" stroke="black"/>
<path d="M556.091,25.0245h -204.094" fill="none" stroke="black"/>
<path d="M351.996,25.0245v 76.9984" fill="none" stroke="black"/>
<text xml:space="preserve" x="377.37" y="38.9865" fill="black" font-size="16.7474" font-family="Helvetica"> / ndf </text>
<text xml:space="preserve" x="370.872" y="34.1132" fill="black" font-size="11.3316" font-family="Helvetica">2</text>
<text xml:space="preserve" x="361.938" y="38.9865" fill="black" font-size="16.7474" font-family="Times">&#0967;</text>
<text xml:space="preserve" x="469.151" y="40.611" fill="black" font-size="16.7474" font-family="Helvetica"> 7.112 / 10</text>
<text xml:space="preserve" x="361.938" y="60.1042" fill="black" font-size="16.7474" font-family="Helvetica">Constant </text>
<text xml:space="preserve" x="512.198" y="60.1042" fill="black" font-size="16.7474" font-family="Helvetica"> 2.91</text>
<text xml:space="preserve" x="503.264" y="60.1042" fill="black" font-size="16.7474" font-family="Times">&#0177;</text>
<text xml:space="preserve" x="452.906" y="60.1042" fill="black" font-size="16.7474" font-family="Helvetica"> 26.77 </text>
<text xml:space="preserve" x="361.938" y="79.5975" fill="black" font-size="16.7474" font-family="Helvetica">Mean     </text>
<text xml:space="preserve" x="518.696" y="79.5975" fill="black" font-size="16.7474" font-family="Helvetica"> 3.7</text>
<text xml:space="preserve" x="509.762" y="79.5975" fill="black" font-size="16.7474" font-family="Times">&#0177;</text>
<text xml:space="preserve" x="459.404" y="79.5975" fill="black" font-size="16.7474" font-family="Helvetica"> 262.3 </text>
<text xml:space="preserve" x="361.938" y="96.6541" fill="black" font-size="16.7474" font-family="Helvetica">Sigma    </text>
<text xml:space="preserve" x="509.762" y="98.2785" fill="black" font-size="16.7474" font-family="Helvetica"> 3.05</text>
<text xml:space="preserve" x="500.827" y="98.2785" fill="black" font-size="16.7474" font-family="Times">&#0177;</text>
<text xml:space="preserve" x="450.47" y="98.2785" fill="black" font-size="16.7474" font-family="Helvetica"> 42.72 </text>
<g stroke="black" stroke-width="1" fill="none">
<line x1="63.752" y1="346.493" x2="64.752" y2="346.493"/>
</g>
<g stroke="black" stroke-width="1" fill="none">
<line x1="78.8701" y1="346.493" x2="79.8701" y2="346.493"/>
</g>
<g stroke="black" stroke-width="1" fill="none">
<line x1="93.9882" y1="346.493" x2="94.9882" y2="346.493"/>
</g>
<g stroke="black" stroke-width="1" fill="none">
<line x1="109.106" y1="346.493" x2="110.106" y2="346.493"/>
</g>
<g stroke="black" stroke-width="1" fill="none">
<line x1="124.224" y1="346.493" x2="125.224" y2="346.493"/>
</g>
<g stroke="black" stroke-width="1" fill="none">
<line x1="139.343" y1="346.493" x2="140.343" y2="346.493"/>
</g>
<path d="M155.461,346.493v -8.8887" fill="none" stroke="#00ffff"/>
<path d="M155.461,337.604v -8.8887" fill="none" stroke="#00ffff"/>
<path d="M147.902,337.604h 7.55905" fill="none" stroke="#00ffff"/>
<path d="M155.461,337.604h 7.55905" fill="none" stroke="#00ffff"/>
<g stroke="black" stroke-width="1" fill="none">
<line x1="154.461" y1="337.604" x2="155.461" y2="337.604"/>
</g>
<path d="M170.579,346.493v -8.8887" fill="none" stroke="#00ffff"/>
<path d="M170.579,337.604v -8.8887" fill="none" stroke="#00ffff"/>
<path d="M163.02,337.604h 7.55905" fill="none" stroke="#00ffff"/>
<path d="M170.579,337.604h 7.55905" fill="none" stroke="#00ffff"/>
<g stroke="black" stroke-width="1" fill="none">
<line x1="169.579" y1="337.604" x2="170.579" y2="337.604"/>
</g>
<path d="M185.697,341.286v -12.5705" fill="none" stroke="#00ffff"/>
<path d="M185.697,328.715v -12.5705" fill="none" stroke="#00ffff"/>
<path d="M178.138,328.715h 7.55905" fill="none" stroke="#00ffff"/>
<path d="M185.697,328.715h 7.55905" fill="none" stroke="#00ffff"/>
<g stroke="black" stroke-width="1" fill="none">
<line x1="184.697" y1="328.715" x2="185.697" y2="328.715"/>
</g>
<path d="M200.815,307.789v -23.5173" fill="none" stroke="#00ffff"/>
<path d="M200.815,284.272v -23.5173" fill="none" stroke="#00ffff"/>
<path d="M193.256,284.272h 7.55905" fill="none" stroke="#00ffff"/>
<path d="M200.815,284.272h 7.55905" fill="none" stroke="#00ffff"/>
<g stroke="black" stroke-width="1" fill="none">
<line x1="199.815" y1="284.272" x2="200.815" y2="284.272"/>
</g>
<path d="M215.933,278.198v -29.4805" fill="none" stroke="#00ffff"/>
<path d="M215.933,248.717v -29.4805" fill="none" stroke="#00ffff"/>
<path d="M208.374,248.717h 7.55905" fill="none" stroke="#00ffff"/>
<path d="M215.933,248.717h 7.55905" fill="none" stroke="#00ffff"/>
<g stroke="black" stroke-width="1" fill="none">
<line x1="214.933" y1="248.717" x2="215.933" y2="248.717"/>
</g>
<path d="M231.051,208.47v -39.7515" fill="none" stroke="#00ffff"/>
<path d="M231.051,168.719v -39.7515" fill="none" stroke="#00ffff"/>
<path d="M223.492,168.719h 7.55905" fill="none" stroke="#00ffff"/>
<path d="M231.051,168.719h 7.55905" fill="none" stroke="#00ffff"/>
<g stroke="black" stroke-width="1" fill="none">
<line x1="230.051" y1="168.719" x2="231.051" y2="168.719"/>
</g>
<path d="M246.169,104.227v -51.0617" fill="none" stroke="#00ffff"/>
<path d="M246.169,53.1656v -14.6664" fill="none" stroke="#00ffff"/>
<path d="M238.61,53.1656h 7.55905" fill="none" stroke="#00ffff"/>
<path d="M246.169,53.1656h 7.55905" fill="none" stroke="#00ffff"/>
<g stroke="black" stroke-width="1" fill="none">
<line x1="245.169" y1="53.1656" x2="246.169" y2="53.1656"/>
</g>
<path d="M261.287,176.709v -43.5456" fill="none" stroke="#00ffff"/>
<path d="M261.287,133.164v -43.5456" fill="none" stroke="#00ffff"/>
<path d="M253.728,133.164h 7.55905" fill="none" stroke="#00ffff"/>
<path d="M261.287,133.164h 7.55905" fill="none" stroke="#00ffff"/>
<g stroke="black" stroke-width="1" fill="none">
<line x1="260.287" y1="133.164" x2="261.287" y2="133.164"/>
</g>
<path d="M276.406,200.563v -40.7332" fill="none" stroke="#00ffff"/>
<path d="M276.406,159.83v -40.7332" fill="none" stroke="#00ffff"/>
<path d="M268.846,159.83h 7.55905" fill="none" stroke="#00ffff"/>
<path d="M276.406,159.83h 7.55905" fill="none" stroke="#00ffff"/>
<g stroke="black" stroke-width="1" fill="none">
<line x1="275.406" y1="159.83" x2="276.406" y2="159.83"/>
</g>
<path d="M291.524,255.309v -33.2585" fill="none" stroke="#00ffff"/>
<path d="M291.524,222.051v -33.2585" fill="none" stroke="#00ffff"/>
<path d="M283.965,222.051h 7.55905" fill="none" stroke="#00ffff"/>
<path d="M291.524,222.051h 7.55905" fill="none" stroke="#00ffff"/>
<g stroke="black" stroke-width="1" fill="none">
<line x1="290.524" y1="222.051" x2="291.524" y2="222.051"/>
</g>
<path d="M306.642,314.933v -21.7728" fill="none" stroke="#00ffff"/>
<path d="M306.642,293.161v -21.7728" fill="none" stroke="#00ffff"/>
<path d="M299.083,293.161h 7.55905" fill="none" stroke="#00ffff"/>
<path d="M306.642,293.161h 7.55905" fill="none" stroke="#00ffff"/>
<g stroke="black" stroke-width="1" fill="none">
<line x1="305.642" y1="293.161" x2="306.642" y2="293.161"/>
</g>
<path d="M321.76,293.161v -26.6661" fill="none" stroke="#00ffff"/>
<path d="M321.76,266.494v -26.6661" fill="none" stroke="#00ffff"/>
<path d="M314.201,266.494h 7.55905" fill="none" stroke="#00ffff"/>
<path d="M321.76,266.494h 7.55905" fill="none" stroke="#00ffff"/>
<g stroke="black" stroke-width="1" fill="none">
<line x1="320.76" y1="266.494" x2="321.76" y2="266.494"/>
</g>
<path d="M336.878,346.493v -8.8887" fill="none" stroke="#00ffff"/>
<path d="M336.878,337.604v -8.8887" fill="none" stroke="#00ffff"/>
<path d="M329.319,337.604h 7.55905" fill="none" stroke="#00ffff"/>
<path d="M336.878,337.604h 7.55905" fill="none" stroke="#00ffff"/>
<g stroke="black" stroke-width="1" fill="none">
<line x1="335.878" y1="337.604" x2="336.878" y2="337.604"/>
</g>
<g stroke="black" stroke-width="1" fill="none">
<line x1="350.996" y1="346.493" x2="351.996" y2="346.493"/>
</g>
<g stroke="black" stroke-width="1" fill="none">
<line x1="366.114" y1="346.493" x2="367.114" y2="346.493"/>
</g>
<g stroke="black" stroke-width="1" fill="none">
<line x1="381.232" y1="346.493" x2="382.232" y2="346.493"/>
</g>
<g stroke="black" stroke-width="1" fill="none">
<line x1="396.35" y1="346.493" x2="397.35" y2="346.493"/>
</g>
<g stroke="black" stroke-width="1" fill="none">
<line x1="411.469" y1="346.493" x2="412.469" y2="346.493"/>
</g>
<g stroke="black" stroke-width="1" fill="none">
<line x1="426.587" y1="346.493" x2="427.587" y2="346.493"/>
</g>
<g stroke="black" stroke-width="1" fill="none">
<line x1="441.705" y1="346.493" x2="442.705" y2="346.493"/>
</g>
<g stroke="black" stroke-width="1" fill="none">
<line x1="456.823" y1="346.493" x2="457.823" y2="346.493"/>
</g>
<g stroke="black" stroke-width="1" fill="none">
<line x1="471.941" y1="346.493" x2="472.941" y2="346.493"/>
</g>
<g stroke="black" stroke-width="1" fill="none">
<line x1="487.059" y1="346.493" x2="488.059" y2="346.493"/>
</g>
<g stroke="black" stroke-width="1" fill="none">
<line x1="502.177" y1="346.493" x2="503.177" y2="346.493"/>
</g>
<path d="M59.4606,346.493h 58.9606l 4.53543, -0.0525781l 4.53543, -0.0400592l 4.53543, -0.0673924l 4.53543, -0.11102l 4.53543, -0.179073l 4.53543, -0.28278l 4.53543, -0.437122l 4.53543, -0.661351l 4.53543, -0.979188l 4.53543, -1.41849l 4.53543,
 -2.01011l 4.53543, -2.78575l 4.53543, -3.77459l 4.53543, -4.99873l 4.53543, -6.46754l 4.53543, -8.17155l 4.53543, -10.0764l 4.53543, -12.1183l 4.53543, -14.2013l 4.53543, -16.199l 4.53543, -17.9595l 4.53543, -19.3162l 4.53543, -20.1021l 4.53543,
 -20.1673l 4.53543, -19.3982l 4.53543, -17.7343l 4.53543, -15.1818l 4.53543, -11.8196l 4.53543, -7.79811l 4.53543, -3.32843l 4.53543, 1.33564l 4.53543, 5.92149l 4.53543, 10.1641l 4.53543, 13.8314l 4.53543, 16.7452l 4.53543, 18.7952" fill="none"
 stroke="#00ffff" stroke-width="2"/>
<path d="M281.697,175.448l 4.53543, 19.9444l 4.53543, 20.226l 4.53543, 19.7326l 4.53543, 18.6009l 4.53543, 16.9928l 4.53543, 15.0771l 4.53543, 13.0136l 4.53543, 10.9404l 4.53543, 8.96713l 4.53543, 7.17111l 4.53543, 5.59892l 4.53543, 4.27001l 4.53543,
 3.18233l 4.53543, 2.3185l 4.53543, 1.65177l 4.53543, 1.15102l 4.53543, 0.784696l 4.53543, 0.523472l 4.53543, 0.341768l 4.53543, 0.218414l 4.53543, 0.136646l 4.53543, 0.083701l 4.53543, 0.0502029l 4.53543, 0.0294871l 4.53543, 0.0377142h 108.85"
 fill="none" stroke="#00ffff" stroke-width="2"/>
<path d="M503.933,346.493h 4.53543" fill="none" stroke="#00ffff" stroke-width="2"/>
<rect x="351.996" y="25.0245" width="204.094" height="76.9984" fill="white"/>
<path d="M351.996,102.023h 204.094" fill="none" stroke="black"/>
<path d="M556.091,102.023v -76.9984" fill="none" stroke="black"/>
<path d="M556.091,25.0245h -204.094" fill="none" stroke="black"/>
<path d="M351.996,25.0245v 76.9984" fill="none" stroke="black"/>
<text xml:space="preserve" x="377.37" y="38.9865" fill="black" font-size="16.7474" font-family="Helvetica"> / ndf </text>
<text xml:space="preserve" x="370.872" y="34.1132" fill="black" font-size="11.3316" font-family="Helvetica">2</text>
<text xml:space="preserve" x="361.938" y="38.9865" fill="black" font-size="16.7474" font-family="Times">&#0967;</text>
<text xml:space="preserve" x="469.151" y="40.611" fill="black" font-size="16.7474" font-family="Helvetica"> 7.112 / 10</text>
<text xml:space="preserve" x="361.938" y="60.1042" fill="black" font-size="16.7474" font-family="Helvetica">Constant </text>
<text xml:space="preserve" x="512.198" y="60.1042" fill="black" font-size="16.7474" font-family="Helvetica"> 2.91</text>
<text xml:space="preserve" x="503.264" y="60.1042" fill="black" font-size="16.7474" font-family="Times">&#0177;</text>
<text xml:space="preserve" x="452.906" y="60.1042" fill="black" font-size="16.7474" font-family="Helvetica"> 26.77 </text>
<text xml:space="preserve" x="361.938" y="79.5975" fill="black" font-size="16.7474" font-family="Helvetica">Mean     </text>
<text xml:space="preserve" x="518.696" y="79.5975" fill="black" font-size="16.7474" font-family="Helvetica"> 3.7</text>
<text xml:space="preserve" x="509.762" y="79.5975" fill="black" font-size="16.7474" font-family="Times">&#0177;</text>
<text xml:space="preserve" x="459.404" y="79.5975" fill="black" font-size="16.7474" font-family="Helvetica"> 262.3 </text>
<text xml:space="preserve" x="361.938" y="96.6541" fill="black" font-size="16.7474" font-family="Helvetica">Sigma    </text>
<text xml:space="preserve" x="509.762" y="98.2785" fill="black" font-size="16.7474" font-family="Helvetica"> 3.05</text>
<text xml:space="preserve" x="500.827" y="98.2785" fill="black" font-size="16.7474" font-family="Times">&#0177;</text>
<text xml:space="preserve" x="450.47" y="98.2785" fill="black" font-size="16.7474" font-family="Helvetica"> 42.72 </text>
<text xml:space="preserve" x="243.354" y="17.8688" fill="black" font-size="18.7414" font-family="Helvetica">vop 69.33</text></svg>
