<?xml version="1.0" standalone="no"?>
<svg width="567.429" height="384.68" viewBox="0 0 567.429 384.68" xmlns="http://www.w3.org/2000/svg" shape-rendering="crispEdges">
<title>
./vop_graphs/vop69.33.svg
</title>
<desc>
Creator: ROOT Version 6.22/02
CreationDate: Tue Jun 15 19:03:29 2021</desc>
<defs>
</defs>
<rect x="0.5" y="0" width="566.929" height="384.18" fill="white"/>
<rect x="57.1929" y="38.418" width="453.543" height="307.344" fill="white"/>
<rect x="57.1929" y="38.418" width="453.543" height="307.344" fill="none" stroke="black"/>
<path d="M57.1929,345.762h 90.7087v -8.86995h 30.2362v -8.86995h 15.1181v -44.3498h 15.1181v -35.4798h 15.1181v -79.8296h 15.1181v -115.309h 15.1181v 79.8296h 15.1181v 26.6099h 15.1181v 62.0897h 15.1181v 70.9596h 15.1181v -26.6099h 15.1181v 70.9596h
 15.1181v 8.86995h 166.299" fill="none" stroke="#817066"/>
<path d="M59.4606,345.762h 58.9606l 4.53543, -0.0524672l 4.53543, -0.0399747l 4.53543, -0.0672503l 4.53543, -0.110786l 4.53543, -0.178695l 4.53543, -0.282183l 4.53543, -0.4362l 4.53543, -0.659956l 4.53543, -0.977122l 4.53543, -1.4155l 4.53543,
 -2.00587l 4.53543, -2.77987l 4.53543, -3.76663l 4.53543, -4.98818l 4.53543, -6.4539l 4.53543, -8.15431l 4.53543, -10.0552l 4.53543, -12.0927l 4.53543, -14.1714l 4.53543, -16.1648l 4.53543, -17.9216l 4.53543, -19.2755l 4.53543, -20.0596l 4.53543,
 -20.1247l 4.53543, -19.3572l 4.53543, -17.6969l 4.53543, -15.1497l 4.53543, -11.7947l 4.53543, -7.78166l 4.53543, -3.32141l 4.53543, 1.33282l 4.53543, 5.90899l 4.53543, 10.1427l 4.53543, 13.8022l 4.53543, 16.7099l 4.53543, 18.7556" fill="none"
 stroke="#817066" stroke-width="2"/>
<path d="M281.697,175.078l 4.53543, 19.9024l 4.53543, 20.1833l 4.53543, 19.691l 4.53543, 18.5616l 4.53543, 16.9569l 4.53543, 15.0453l 4.53543, 12.9861l 4.53543, 10.9174l 4.53543, 8.94821l 4.53543, 7.15598l 4.53543, 5.5871l 4.53543, 4.261l 4.53543,
 3.17561l 4.53543, 2.31361l 4.53543, 1.64828l 4.53543, 1.14859l 4.53543, 0.783041l 4.53543, 0.522368l 4.53543, 0.341047l 4.53543, 0.217953l 4.53543, 0.136358l 4.53543, 0.0835245l 4.53543, 0.050097l 4.53543, 0.0294249l 4.53543, 0.0376346h 108.85"
 fill="none" stroke="#817066" stroke-width="2"/>
<path d="M503.933,345.762h 4.53543" fill="none" stroke="#817066" stroke-width="2"/>
<path d="M57.1929,345.762h 453.543" fill="none" stroke="black"/>
<path d="M57.1929,336.541v 9.22031" fill="none" stroke="black"/>
<path d="M72.311,341.152v 4.61016" fill="none" stroke="black"/>
<path d="M87.4291,341.152v 4.61016" fill="none" stroke="black"/>
<path d="M102.547,341.152v 4.61016" fill="none" stroke="black"/>
<path d="M117.665,341.152v 4.61016" fill="none" stroke="black"/>
<path d="M132.783,336.541v 9.22031" fill="none" stroke="black"/>
<path d="M147.902,341.152v 4.61016" fill="none" stroke="black"/>
<path d="M163.02,341.152v 4.61016" fill="none" stroke="black"/>
<path d="M178.138,341.152v 4.61016" fill="none" stroke="black"/>
<path d="M193.256,341.152v 4.61016" fill="none" stroke="black"/>
<path d="M208.374,336.541v 9.22031" fill="none" stroke="black"/>
<path d="M223.492,341.152v 4.61016" fill="none" stroke="black"/>
<path d="M238.61,341.152v 4.61016" fill="none" stroke="black"/>
<path d="M253.728,341.152v 4.61016" fill="none" stroke="black"/>
<path d="M268.846,341.152v 4.61016" fill="none" stroke="black"/>
<path d="M283.965,336.541v 9.22031" fill="none" stroke="black"/>
<path d="M299.083,341.152v 4.61016" fill="none" stroke="black"/>
<path d="M314.201,341.152v 4.61016" fill="none" stroke="black"/>
<path d="M329.319,341.152v 4.61016" fill="none" stroke="black"/>
<path d="M344.437,341.152v 4.61016" fill="none" stroke="black"/>
<path d="M359.555,336.541v 9.22031" fill="none" stroke="black"/>
<path d="M374.673,341.152v 4.61016" fill="none" stroke="black"/>
<path d="M389.791,341.152v 4.61016" fill="none" stroke="black"/>
<path d="M404.909,341.152v 4.61016" fill="none" stroke="black"/>
<path d="M420.028,341.152v 4.61016" fill="none" stroke="black"/>
<path d="M435.146,336.541v 9.22031" fill="none" stroke="black"/>
<path d="M450.264,341.152v 4.61016" fill="none" stroke="black"/>
<path d="M465.382,341.152v 4.61016" fill="none" stroke="black"/>
<path d="M480.5,341.152v 4.61016" fill="none" stroke="black"/>
<path d="M495.618,341.152v 4.61016" fill="none" stroke="black"/>
<path d="M510.736,336.541v 9.22031" fill="none" stroke="black"/>
<text xml:space="preserve" x="53.2943" y="358.189" fill="black" font-size="12.836" font-family="Helvetica">0</text>
<text xml:space="preserve" x="121.521" y="358.189" fill="black" font-size="12.836" font-family="Helvetica">100</text>
<text xml:space="preserve" x="197.057" y="358.189" fill="black" font-size="12.836" font-family="Helvetica">200</text>
<text xml:space="preserve" x="273.406" y="358.189" fill="black" font-size="12.836" font-family="Helvetica">300</text>
<text xml:space="preserve" x="348.942" y="358.189" fill="black" font-size="12.836" font-family="Helvetica">400</text>
<text xml:space="preserve" x="424.479" y="358.189" fill="black" font-size="12.836" font-family="Helvetica">500</text>
<text xml:space="preserve" x="500.015" y="358.189" fill="black" font-size="12.836" font-family="Helvetica">600</text>
<text xml:space="preserve" x="487.019" y="369.56" fill="black" font-size="12.836" font-family="Helvetica">mpv</text>
<path d="M57.1929,345.762v -307.344" fill="none" stroke="black"/>
<path d="M70.7992,345.762h -13.6063" fill="none" stroke="black"/>
<path d="M63.9961,336.892h -6.80315" fill="none" stroke="black"/>
<path d="M63.9961,328.022h -6.80315" fill="none" stroke="black"/>
<path d="M63.9961,319.152h -6.80315" fill="none" stroke="black"/>
<path d="M63.9961,310.282h -6.80315" fill="none" stroke="black"/>
<path d="M70.7992,301.412h -13.6063" fill="none" stroke="black"/>
<path d="M63.9961,292.542h -6.80315" fill="none" stroke="black"/>
<path d="M63.9961,283.672h -6.80315" fill="none" stroke="black"/>
<path d="M63.9961,274.802h -6.80315" fill="none" stroke="black"/>
<path d="M63.9961,265.932h -6.80315" fill="none" stroke="black"/>
<path d="M70.7992,257.062h -13.6063" fill="none" stroke="black"/>
<path d="M63.9961,248.192h -6.80315" fill="none" stroke="black"/>
<path d="M63.9961,239.322h -6.80315" fill="none" stroke="black"/>
<path d="M63.9961,230.452h -6.80315" fill="none" stroke="black"/>
<path d="M63.9961,221.582h -6.80315" fill="none" stroke="black"/>
<path d="M70.7992,212.713h -13.6063" fill="none" stroke="black"/>
<path d="M63.9961,203.843h -6.80315" fill="none" stroke="black"/>
<path d="M63.9961,194.973h -6.80315" fill="none" stroke="black"/>
<path d="M63.9961,186.103h -6.80315" fill="none" stroke="black"/>
<path d="M63.9961,177.233h -6.80315" fill="none" stroke="black"/>
<path d="M70.7992,168.363h -13.6063" fill="none" stroke="black"/>
<path d="M63.9961,159.493h -6.80315" fill="none" stroke="black"/>
<path d="M63.9961,150.623h -6.80315" fill="none" stroke="black"/>
<path d="M63.9961,141.753h -6.80315" fill="none" stroke="black"/>
<path d="M63.9961,132.883h -6.80315" fill="none" stroke="black"/>
<path d="M70.7992,124.013h -13.6063" fill="none" stroke="black"/>
<path d="M63.9961,115.143h -6.80315" fill="none" stroke="black"/>
<path d="M63.9961,106.273h -6.80315" fill="none" stroke="black"/>
<path d="M63.9961,97.4032h -6.80315" fill="none" stroke="black"/>
<path d="M63.9961,88.5332h -6.80315" fill="none" stroke="black"/>
<path d="M70.7992,79.6633h -13.6063" fill="none" stroke="black"/>
<path d="M70.7992,79.6633h -13.6063" fill="none" stroke="black"/>
<path d="M63.9961,70.7933h -6.80315" fill="none" stroke="black"/>
<path d="M63.9961,61.9234h -6.80315" fill="none" stroke="black"/>
<path d="M63.9961,53.0534h -6.80315" fill="none" stroke="black"/>
<path d="M63.9961,44.1834h -6.80315" fill="none" stroke="black"/>
<text xml:space="preserve" x="47.6087" y="350.067" fill="black" font-size="12.836" font-family="Helvetica">0</text>
<text xml:space="preserve" x="47.6087" y="306.207" fill="black" font-size="12.836" font-family="Helvetica">5</text>
<text xml:space="preserve" x="41.111" y="261.535" fill="black" font-size="12.836" font-family="Helvetica">10</text>
<text xml:space="preserve" x="40.2988" y="216.863" fill="black" font-size="12.836" font-family="Helvetica">15</text>
<text xml:space="preserve" x="41.111" y="173.003" fill="black" font-size="12.836" font-family="Helvetica">20</text>
<text xml:space="preserve" x="40.2988" y="128.331" fill="black" font-size="12.836" font-family="Helvetica">25</text>
<text xml:space="preserve" x="41.111" y="84.4708" fill="black" font-size="12.836" font-family="Helvetica">30</text>
<g transform="rotate(-90,27.3032,86.0953)">
<text xml:space="preserve" x="27.3032" y="86.0953" fill="black" font-size="12.836" font-family="Helvetica">n_blocks</text>
</g>
<text xml:space="preserve" x="243.354" y="17.8688" fill="black" font-size="18.7414" font-family="Helvetica">vop 69.33</text>
<rect x="351.996" y="24.9717" width="204.094" height="76.836" fill="white"/>
<path d="M351.996,101.808h 204.094" fill="none" stroke="black"/>
<path d="M556.091,101.808v -76.836" fill="none" stroke="black"/>
<path d="M556.091,24.9717h -204.094" fill="none" stroke="black"/>
<path d="M351.996,24.9717v 76.836" fill="none" stroke="black"/>
<text xml:space="preserve" x="377.37" y="38.9865" fill="black" font-size="16.7131" font-family="Helvetica"> / ndf </text>
<text xml:space="preserve" x="370.872" y="34.1132" fill="black" font-size="11.3087" font-family="Helvetica">2</text>
<text xml:space="preserve" x="361.938" y="38.9865" fill="black" font-size="16.7131" font-family="Times">&#0967;</text>
<text xml:space="preserve" x="469.151" y="40.611" fill="black" font-size="16.7131" font-family="Helvetica"> 7.112 / 10</text>
<text xml:space="preserve" x="361.938" y="60.1042" fill="black" font-size="16.7131" font-family="Helvetica">Constant </text>
<text xml:space="preserve" x="512.198" y="60.1042" fill="black" font-size="16.7131" font-family="Helvetica"> 2.91</text>
<text xml:space="preserve" x="503.264" y="60.1042" fill="black" font-size="16.7131" font-family="Times">&#0177;</text>
<text xml:space="preserve" x="452.906" y="60.1042" fill="black" font-size="16.7131" font-family="Helvetica"> 26.77 </text>
<text xml:space="preserve" x="361.938" y="78.7853" fill="black" font-size="16.7131" font-family="Helvetica">Mean     </text>
<text xml:space="preserve" x="518.696" y="78.7853" fill="black" font-size="16.7131" font-family="Helvetica"> 3.7</text>
<text xml:space="preserve" x="509.762" y="78.7853" fill="black" font-size="16.7131" font-family="Times">&#0177;</text>
<text xml:space="preserve" x="459.404" y="78.7853" fill="black" font-size="16.7131" font-family="Helvetica"> 262.3 </text>
<text xml:space="preserve" x="361.938" y="96.6541" fill="black" font-size="16.7131" font-family="Helvetica">Sigma    </text>
<text xml:space="preserve" x="509.762" y="98.2785" fill="black" font-size="16.7131" font-family="Helvetica"> 3.05</text>
<text xml:space="preserve" x="500.827" y="98.2785" fill="black" font-size="16.7131" font-family="Times">&#0177;</text>
<text xml:space="preserve" x="450.47" y="98.2785" fill="black" font-size="16.7131" font-family="Helvetica"> 42.72 </text>
<g stroke="black" stroke-width="1" fill="none">
<line x1="63.752" y1="345.762" x2="64.752" y2="345.762"/>
</g>
<g stroke="black" stroke-width="1" fill="none">
<line x1="78.8701" y1="345.762" x2="79.8701" y2="345.762"/>
</g>
<g stroke="black" stroke-width="1" fill="none">
<line x1="93.9882" y1="345.762" x2="94.9882" y2="345.762"/>
</g>
<g stroke="black" stroke-width="1" fill="none">
<line x1="109.106" y1="345.762" x2="110.106" y2="345.762"/>
</g>
<g stroke="black" stroke-width="1" fill="none">
<line x1="124.224" y1="345.762" x2="125.224" y2="345.762"/>
</g>
<g stroke="black" stroke-width="1" fill="none">
<line x1="139.343" y1="345.762" x2="140.343" y2="345.762"/>
</g>
<path d="M155.461,345.762v -8.86995" fill="none" stroke="#817066"/>
<path d="M155.461,336.892v -8.86995" fill="none" stroke="#817066"/>
<path d="M147.902,336.892h 7.55905" fill="none" stroke="#817066"/>
<path d="M155.461,336.892h 7.55905" fill="none" stroke="#817066"/>
<g stroke="black" stroke-width="1" fill="none">
<line x1="154.461" y1="336.892" x2="155.461" y2="336.892"/>
</g>
<path d="M170.579,345.762v -8.86995" fill="none" stroke="#817066"/>
<path d="M170.579,336.892v -8.86995" fill="none" stroke="#817066"/>
<path d="M163.02,336.892h 7.55905" fill="none" stroke="#817066"/>
<path d="M170.579,336.892h 7.55905" fill="none" stroke="#817066"/>
<g stroke="black" stroke-width="1" fill="none">
<line x1="169.579" y1="336.892" x2="170.579" y2="336.892"/>
</g>
<path d="M185.697,340.566v -12.544" fill="none" stroke="#817066"/>
<path d="M185.697,328.022v -12.544" fill="none" stroke="#817066"/>
<path d="M178.138,328.022h 7.55905" fill="none" stroke="#817066"/>
<path d="M185.697,328.022h 7.55905" fill="none" stroke="#817066"/>
<g stroke="black" stroke-width="1" fill="none">
<line x1="184.697" y1="328.022" x2="185.697" y2="328.022"/>
</g>
<path d="M200.815,307.14v -23.4677" fill="none" stroke="#817066"/>
<path d="M200.815,283.672v -23.4677" fill="none" stroke="#817066"/>
<path d="M193.256,283.672h 7.55905" fill="none" stroke="#817066"/>
<path d="M200.815,283.672h 7.55905" fill="none" stroke="#817066"/>
<g stroke="black" stroke-width="1" fill="none">
<line x1="199.815" y1="283.672" x2="200.815" y2="283.672"/>
</g>
<path d="M215.933,277.611v -29.4183" fill="none" stroke="#817066"/>
<path d="M215.933,248.192v -29.4183" fill="none" stroke="#817066"/>
<path d="M208.374,248.192h 7.55905" fill="none" stroke="#817066"/>
<path d="M215.933,248.192h 7.55905" fill="none" stroke="#817066"/>
<g stroke="black" stroke-width="1" fill="none">
<line x1="214.933" y1="248.192" x2="215.933" y2="248.192"/>
</g>
<path d="M231.051,208.03v -39.6676" fill="none" stroke="#817066"/>
<path d="M231.051,168.363v -39.6676" fill="none" stroke="#817066"/>
<path d="M223.492,168.363h 7.55905" fill="none" stroke="#817066"/>
<path d="M231.051,168.363h 7.55905" fill="none" stroke="#817066"/>
<g stroke="black" stroke-width="1" fill="none">
<line x1="230.051" y1="168.363" x2="231.051" y2="168.363"/>
</g>
<path d="M246.169,104.007v -50.954" fill="none" stroke="#817066"/>
<path d="M246.169,53.0534v -14.6354" fill="none" stroke="#817066"/>
<path d="M238.61,53.0534h 7.55905" fill="none" stroke="#817066"/>
<path d="M246.169,53.0534h 7.55905" fill="none" stroke="#817066"/>
<g stroke="black" stroke-width="1" fill="none">
<line x1="245.169" y1="53.0534" x2="246.169" y2="53.0534"/>
</g>
<path d="M261.287,176.337v -43.4537" fill="none" stroke="#817066"/>
<path d="M261.287,132.883v -43.4537" fill="none" stroke="#817066"/>
<path d="M253.728,132.883h 7.55905" fill="none" stroke="#817066"/>
<path d="M261.287,132.883h 7.55905" fill="none" stroke="#817066"/>
<g stroke="black" stroke-width="1" fill="none">
<line x1="260.287" y1="132.883" x2="261.287" y2="132.883"/>
</g>
<path d="M276.406,200.14v -40.6472" fill="none" stroke="#817066"/>
<path d="M276.406,159.493v -40.6472" fill="none" stroke="#817066"/>
<path d="M268.846,159.493h 7.55905" fill="none" stroke="#817066"/>
<path d="M276.406,159.493h 7.55905" fill="none" stroke="#817066"/>
<g stroke="black" stroke-width="1" fill="none">
<line x1="275.406" y1="159.493" x2="276.406" y2="159.493"/>
</g>
<path d="M291.524,254.771v -33.1883" fill="none" stroke="#817066"/>
<path d="M291.524,221.582v -33.1883" fill="none" stroke="#817066"/>
<path d="M283.965,221.582h 7.55905" fill="none" stroke="#817066"/>
<path d="M291.524,221.582h 7.55905" fill="none" stroke="#817066"/>
<g stroke="black" stroke-width="1" fill="none">
<line x1="290.524" y1="221.582" x2="291.524" y2="221.582"/>
</g>
<path d="M306.642,314.269v -21.7269" fill="none" stroke="#817066"/>
<path d="M306.642,292.542v -21.7269" fill="none" stroke="#817066"/>
<path d="M299.083,292.542h 7.55905" fill="none" stroke="#817066"/>
<path d="M306.642,292.542h 7.55905" fill="none" stroke="#817066"/>
<g stroke="black" stroke-width="1" fill="none">
<line x1="305.642" y1="292.542" x2="306.642" y2="292.542"/>
</g>
<path d="M321.76,292.542v -26.6099" fill="none" stroke="#817066"/>
<path d="M321.76,265.932v -26.6099" fill="none" stroke="#817066"/>
<path d="M314.201,265.932h 7.55905" fill="none" stroke="#817066"/>
<path d="M321.76,265.932h 7.55905" fill="none" stroke="#817066"/>
<g stroke="black" stroke-width="1" fill="none">
<line x1="320.76" y1="265.932" x2="321.76" y2="265.932"/>
</g>
<path d="M336.878,345.762v -8.86995" fill="none" stroke="#817066"/>
<path d="M336.878,336.892v -8.86995" fill="none" stroke="#817066"/>
<path d="M329.319,336.892h 7.55905" fill="none" stroke="#817066"/>
<path d="M336.878,336.892h 7.55905" fill="none" stroke="#817066"/>
<g stroke="black" stroke-width="1" fill="none">
<line x1="335.878" y1="336.892" x2="336.878" y2="336.892"/>
</g>
<g stroke="black" stroke-width="1" fill="none">
<line x1="350.996" y1="345.762" x2="351.996" y2="345.762"/>
</g>
<g stroke="black" stroke-width="1" fill="none">
<line x1="366.114" y1="345.762" x2="367.114" y2="345.762"/>
</g>
<g stroke="black" stroke-width="1" fill="none">
<line x1="381.232" y1="345.762" x2="382.232" y2="345.762"/>
</g>
<g stroke="black" stroke-width="1" fill="none">
<line x1="396.35" y1="345.762" x2="397.35" y2="345.762"/>
</g>
<g stroke="black" stroke-width="1" fill="none">
<line x1="411.469" y1="345.762" x2="412.469" y2="345.762"/>
</g>
<g stroke="black" stroke-width="1" fill="none">
<line x1="426.587" y1="345.762" x2="427.587" y2="345.762"/>
</g>
<g stroke="black" stroke-width="1" fill="none">
<line x1="441.705" y1="345.762" x2="442.705" y2="345.762"/>
</g>
<g stroke="black" stroke-width="1" fill="none">
<line x1="456.823" y1="345.762" x2="457.823" y2="345.762"/>
</g>
<g stroke="black" stroke-width="1" fill="none">
<line x1="471.941" y1="345.762" x2="472.941" y2="345.762"/>
</g>
<g stroke="black" stroke-width="1" fill="none">
<line x1="487.059" y1="345.762" x2="488.059" y2="345.762"/>
</g>
<g stroke="black" stroke-width="1" fill="none">
<line x1="502.177" y1="345.762" x2="503.177" y2="345.762"/>
</g>
<path d="M59.4606,345.762h 58.9606l 4.53543, -0.0524672l 4.53543, -0.0399747l 4.53543, -0.0672503l 4.53543, -0.110786l 4.53543, -0.178695l 4.53543, -0.282183l 4.53543, -0.4362l 4.53543, -0.659956l 4.53543, -0.977122l 4.53543, -1.4155l 4.53543,
 -2.00587l 4.53543, -2.77987l 4.53543, -3.76663l 4.53543, -4.98818l 4.53543, -6.4539l 4.53543, -8.15431l 4.53543, -10.0552l 4.53543, -12.0927l 4.53543, -14.1714l 4.53543, -16.1648l 4.53543, -17.9216l 4.53543, -19.2755l 4.53543, -20.0596l 4.53543,
 -20.1247l 4.53543, -19.3572l 4.53543, -17.6969l 4.53543, -15.1497l 4.53543, -11.7947l 4.53543, -7.78166l 4.53543, -3.32141l 4.53543, 1.33282l 4.53543, 5.90899l 4.53543, 10.1427l 4.53543, 13.8022l 4.53543, 16.7099l 4.53543, 18.7556" fill="none"
 stroke="#817066" stroke-width="2"/>
<path d="M281.697,175.078l 4.53543, 19.9024l 4.53543, 20.1833l 4.53543, 19.691l 4.53543, 18.5616l 4.53543, 16.9569l 4.53543, 15.0453l 4.53543, 12.9861l 4.53543, 10.9174l 4.53543, 8.94821l 4.53543, 7.15598l 4.53543, 5.5871l 4.53543, 4.261l 4.53543,
 3.17561l 4.53543, 2.31361l 4.53543, 1.64828l 4.53543, 1.14859l 4.53543, 0.783041l 4.53543, 0.522368l 4.53543, 0.341047l 4.53543, 0.217953l 4.53543, 0.136358l 4.53543, 0.0835245l 4.53543, 0.050097l 4.53543, 0.0294249l 4.53543, 0.0376346h 108.85"
 fill="none" stroke="#817066" stroke-width="2"/>
<path d="M503.933,345.762h 4.53543" fill="none" stroke="#817066" stroke-width="2"/>
<rect x="351.996" y="24.9717" width="204.094" height="76.836" fill="white"/>
<path d="M351.996,101.808h 204.094" fill="none" stroke="black"/>
<path d="M556.091,101.808v -76.836" fill="none" stroke="black"/>
<path d="M556.091,24.9717h -204.094" fill="none" stroke="black"/>
<path d="M351.996,24.9717v 76.836" fill="none" stroke="black"/>
<text xml:space="preserve" x="377.37" y="38.9865" fill="black" font-size="16.7131" font-family="Helvetica"> / ndf </text>
<text xml:space="preserve" x="370.872" y="34.1132" fill="black" font-size="11.3087" font-family="Helvetica">2</text>
<text xml:space="preserve" x="361.938" y="38.9865" fill="black" font-size="16.7131" font-family="Times">&#0967;</text>
<text xml:space="preserve" x="469.151" y="40.611" fill="black" font-size="16.7131" font-family="Helvetica"> 7.112 / 10</text>
<text xml:space="preserve" x="361.938" y="60.1042" fill="black" font-size="16.7131" font-family="Helvetica">Constant </text>
<text xml:space="preserve" x="512.198" y="60.1042" fill="black" font-size="16.7131" font-family="Helvetica"> 2.91</text>
<text xml:space="preserve" x="503.264" y="60.1042" fill="black" font-size="16.7131" font-family="Times">&#0177;</text>
<text xml:space="preserve" x="452.906" y="60.1042" fill="black" font-size="16.7131" font-family="Helvetica"> 26.77 </text>
<text xml:space="preserve" x="361.938" y="78.7853" fill="black" font-size="16.7131" font-family="Helvetica">Mean     </text>
<text xml:space="preserve" x="518.696" y="78.7853" fill="black" font-size="16.7131" font-family="Helvetica"> 3.7</text>
<text xml:space="preserve" x="509.762" y="78.7853" fill="black" font-size="16.7131" font-family="Times">&#0177;</text>
<text xml:space="preserve" x="459.404" y="78.7853" fill="black" font-size="16.7131" font-family="Helvetica"> 262.3 </text>
<text xml:space="preserve" x="361.938" y="96.6541" fill="black" font-size="16.7131" font-family="Helvetica">Sigma    </text>
<text xml:space="preserve" x="509.762" y="98.2785" fill="black" font-size="16.7131" font-family="Helvetica"> 3.05</text>
<text xml:space="preserve" x="500.827" y="98.2785" fill="black" font-size="16.7131" font-family="Times">&#0177;</text>
<text xml:space="preserve" x="450.47" y="98.2785" fill="black" font-size="16.7131" font-family="Helvetica"> 42.72 </text>
<text xml:space="preserve" x="243.354" y="17.8688" fill="black" font-size="18.7414" font-family="Helvetica">vop 69.33</text></svg>
