<?xml version="1.0" standalone="no"?>
<svg width="567.429" height="384.68" viewBox="0 0 567.429 384.68" xmlns="http://www.w3.org/2000/svg" shape-rendering="crispEdges">
<title>
./vop_graphs/vop69.08.svg
</title>
<desc>
Creator: ROOT Version 6.22/02
CreationDate: Tue Jun 15 19:03:27 2021</desc>
<defs>
</defs>
<rect x="0.5" y="0" width="566.929" height="384.18" fill="white"/>
<rect x="57.1929" y="38.418" width="453.543" height="307.344" fill="white"/>
<rect x="57.1929" y="38.418" width="453.543" height="307.344" fill="none" stroke="black"/>
<path d="M57.1929,334.504h 15.1181v 11.258h 60.4724v -11.258h 30.2362v 11.258h 15.1181v -22.516h 15.1181v -45.0321h 15.1181v -101.322h 15.1181v -90.0641h 15.1181v -11.258h 15.1181v -11.258h 15.1181v -11.258h 15.1181v 45.0321h 15.1181v 90.0641h
 15.1181v -22.516h 15.1181v 67.5481h 15.1181v -11.258h 15.1181v 101.322h 15.1181v 22.516h 136.063" fill="none" stroke="#ff6800"/>
<path d="M59.4606,345.762h 22.6772l 4.53543, -0.0435031l 4.53543, -0.0231141l 4.53543, -0.0343242l 4.53543, -0.050404l 4.53543, -0.0731906l 4.53543, -0.105089l 4.53543, -0.149193l 4.53543, -0.209419l 4.53543, -0.290627l 4.53543, -0.398737l 4.53543,
 -0.54081l 4.53543, -0.725073l 4.53543, -0.960881l 4.53543, -1.25856l 4.53543, -1.62915l 4.53543, -2.08396l 4.53543, -2.63398l 4.53543, -3.28914l 4.53543, -4.05735l 4.53543, -4.94343l 4.53543, -5.94794l 4.53543, -7.06603l 4.53543, -8.28625l 4.53543,
 -9.58967l 4.53543, -10.9492l 4.53543, -12.3294l 4.53543, -13.6868l 4.53543, -14.9707l 4.53543, -16.1249l 4.53543, -17.09l 4.53543, -17.8059l 4.53543, -18.2155l 4.53543, -18.268l 4.53543, -17.9224l 4.53543, -17.1512l 4.53543, -15.9428l 4.53543,
 -14.3039l 4.53543, -12.2602l 4.53543, -9.85632l 4.53543, -7.15444l 4.53543, -4.23172l 4.53543, -1.17661l 4.53543, 1.91552l 4.53543, 4.94742" fill="none" stroke="#ff6800" stroke-width="2"/>
<path d="M281.697,58.7948l 4.53543, 7.82494l 4.53543, 10.4619l 4.53543, 12.7846l 4.53543, 14.7347l 4.53543, 16.2721l 4.53543, 17.3756l 4.53543, 18.0432l 4.53543, 18.2903l 4.53543, 18.1482l 4.53543, 17.6603l 4.53543, 16.8793l 4.53543, 15.8634l
 4.53543, 14.6728l 4.53543, 13.3663l 4.53543, 11.9991l 4.53543, 10.6202l 4.53543, 9.27115l 4.53543, 7.98551l 4.53543, 6.78833l 4.53543, 5.69668l 4.53543, 4.72031l 4.53543, 3.8627l 4.53543, 3.12215l 4.53543, 2.49299l 4.53543, 1.96673l 4.53543,
 1.53313l 4.53543, 1.18103l 4.53543, 0.899158l 4.53543, 0.676606l 4.53543, 0.503261l 4.53543, 0.37003l 4.53543, 0.268963l 4.53543, 0.19328l 4.53543, 0.137321l 4.53543, 0.0964644l 4.53543, 0.0670029l 4.53543, 0.0460187l 4.53543, 0.0312539l 4.53543,
 0.0209903l 4.53543, 0.0392198h 40.8189" fill="none" stroke="#ff6800" stroke-width="2"/>
<path d="M503.933,345.762h 4.53543" fill="none" stroke="#ff6800" stroke-width="2"/>
<path d="M57.1929,345.762h 453.543" fill="none" stroke="black"/>
<path d="M57.1929,336.541v 9.22031" fill="none" stroke="black"/>
<path d="M72.311,341.152v 4.61016" fill="none" stroke="black"/>
<path d="M87.4291,341.152v 4.61016" fill="none" stroke="black"/>
<path d="M102.547,341.152v 4.61016" fill="none" stroke="black"/>
<path d="M117.665,341.152v 4.61016" fill="none" stroke="black"/>
<path d="M132.783,336.541v 9.22031" fill="none" stroke="black"/>
<path d="M147.902,341.152v 4.61016" fill="none" stroke="black"/>
<path d="M163.02,341.152v 4.61016" fill="none" stroke="black"/>
<path d="M178.138,341.152v 4.61016" fill="none" stroke="black"/>
<path d="M193.256,341.152v 4.61016" fill="none" stroke="black"/>
<path d="M208.374,336.541v 9.22031" fill="none" stroke="black"/>
<path d="M223.492,341.152v 4.61016" fill="none" stroke="black"/>
<path d="M238.61,341.152v 4.61016" fill="none" stroke="black"/>
<path d="M253.728,341.152v 4.61016" fill="none" stroke="black"/>
<path d="M268.846,341.152v 4.61016" fill="none" stroke="black"/>
<path d="M283.965,336.541v 9.22031" fill="none" stroke="black"/>
<path d="M299.083,341.152v 4.61016" fill="none" stroke="black"/>
<path d="M314.201,341.152v 4.61016" fill="none" stroke="black"/>
<path d="M329.319,341.152v 4.61016" fill="none" stroke="black"/>
<path d="M344.437,341.152v 4.61016" fill="none" stroke="black"/>
<path d="M359.555,336.541v 9.22031" fill="none" stroke="black"/>
<path d="M374.673,341.152v 4.61016" fill="none" stroke="black"/>
<path d="M389.791,341.152v 4.61016" fill="none" stroke="black"/>
<path d="M404.909,341.152v 4.61016" fill="none" stroke="black"/>
<path d="M420.028,341.152v 4.61016" fill="none" stroke="black"/>
<path d="M435.146,336.541v 9.22031" fill="none" stroke="black"/>
<path d="M450.264,341.152v 4.61016" fill="none" stroke="black"/>
<path d="M465.382,341.152v 4.61016" fill="none" stroke="black"/>
<path d="M480.5,341.152v 4.61016" fill="none" stroke="black"/>
<path d="M495.618,341.152v 4.61016" fill="none" stroke="black"/>
<path d="M510.736,336.541v 9.22031" fill="none" stroke="black"/>
<text xml:space="preserve" x="53.2943" y="358.189" fill="black" font-size="12.836" font-family="Helvetica">0</text>
<text xml:space="preserve" x="121.521" y="358.189" fill="black" font-size="12.836" font-family="Helvetica">100</text>
<text xml:space="preserve" x="197.057" y="358.189" fill="black" font-size="12.836" font-family="Helvetica">200</text>
<text xml:space="preserve" x="273.406" y="358.189" fill="black" font-size="12.836" font-family="Helvetica">300</text>
<text xml:space="preserve" x="348.942" y="358.189" fill="black" font-size="12.836" font-family="Helvetica">400</text>
<text xml:space="preserve" x="424.479" y="358.189" fill="black" font-size="12.836" font-family="Helvetica">500</text>
<text xml:space="preserve" x="500.015" y="358.189" fill="black" font-size="12.836" font-family="Helvetica">600</text>
<text xml:space="preserve" x="487.019" y="369.56" fill="black" font-size="12.836" font-family="Helvetica">mpv</text>
<path d="M57.1929,345.762v -307.344" fill="none" stroke="black"/>
<path d="M70.7992,345.762h -13.6063" fill="none" stroke="black"/>
<path d="M63.9961,334.504h -6.80315" fill="none" stroke="black"/>
<path d="M63.9961,323.246h -6.80315" fill="none" stroke="black"/>
<path d="M63.9961,311.988h -6.80315" fill="none" stroke="black"/>
<path d="M63.9961,300.73h -6.80315" fill="none" stroke="black"/>
<path d="M70.7992,289.472h -13.6063" fill="none" stroke="black"/>
<path d="M63.9961,278.214h -6.80315" fill="none" stroke="black"/>
<path d="M63.9961,266.956h -6.80315" fill="none" stroke="black"/>
<path d="M63.9961,255.698h -6.80315" fill="none" stroke="black"/>
<path d="M63.9961,244.44h -6.80315" fill="none" stroke="black"/>
<path d="M70.7992,233.182h -13.6063" fill="none" stroke="black"/>
<path d="M63.9961,221.924h -6.80315" fill="none" stroke="black"/>
<path d="M63.9961,210.666h -6.80315" fill="none" stroke="black"/>
<path d="M63.9961,199.408h -6.80315" fill="none" stroke="black"/>
<path d="M63.9961,188.15h -6.80315" fill="none" stroke="black"/>
<path d="M70.7992,176.892h -13.6063" fill="none" stroke="black"/>
<path d="M63.9961,165.634h -6.80315" fill="none" stroke="black"/>
<path d="M63.9961,154.376h -6.80315" fill="none" stroke="black"/>
<path d="M63.9961,143.118h -6.80315" fill="none" stroke="black"/>
<path d="M63.9961,131.86h -6.80315" fill="none" stroke="black"/>
<path d="M70.7992,120.601h -13.6063" fill="none" stroke="black"/>
<path d="M63.9961,109.343h -6.80315" fill="none" stroke="black"/>
<path d="M63.9961,98.0855h -6.80315" fill="none" stroke="black"/>
<path d="M63.9961,86.8274h -6.80315" fill="none" stroke="black"/>
<path d="M63.9961,75.5694h -6.80315" fill="none" stroke="black"/>
<path d="M70.7992,64.3114h -13.6063" fill="none" stroke="black"/>
<path d="M70.7992,64.3114h -13.6063" fill="none" stroke="black"/>
<path d="M63.9961,53.0534h -6.80315" fill="none" stroke="black"/>
<path d="M63.9961,41.7954h -6.80315" fill="none" stroke="black"/>
<text xml:space="preserve" x="47.6087" y="350.067" fill="black" font-size="12.836" font-family="Helvetica">0</text>
<text xml:space="preserve" x="47.6087" y="294.023" fill="black" font-size="12.836" font-family="Helvetica">5</text>
<text xml:space="preserve" x="41.111" y="237.98" fill="black" font-size="12.836" font-family="Helvetica">10</text>
<text xml:space="preserve" x="40.2988" y="181.125" fill="black" font-size="12.836" font-family="Helvetica">15</text>
<text xml:space="preserve" x="41.111" y="125.082" fill="black" font-size="12.836" font-family="Helvetica">20</text>
<text xml:space="preserve" x="40.2988" y="69.0387" fill="black" font-size="12.836" font-family="Helvetica">25</text>
<g transform="rotate(-90,27.3032,86.0953)">
<text xml:space="preserve" x="27.3032" y="86.0953" fill="black" font-size="12.836" font-family="Helvetica">n_blocks</text>
</g>
<text xml:space="preserve" x="242.541" y="17.8688" fill="black" font-size="18.7414" font-family="Helvetica">vop 69.08</text>
<rect x="351.996" y="24.9717" width="204.094" height="76.836" fill="white"/>
<path d="M351.996,101.808h 204.094" fill="none" stroke="black"/>
<path d="M556.091,101.808v -76.836" fill="none" stroke="black"/>
<path d="M556.091,24.9717h -204.094" fill="none" stroke="black"/>
<path d="M351.996,24.9717v 76.836" fill="none" stroke="black"/>
<text xml:space="preserve" x="377.37" y="38.9865" fill="black" font-size="16.7131" font-family="Helvetica"> / ndf </text>
<text xml:space="preserve" x="370.872" y="34.1132" fill="black" font-size="11.3087" font-family="Helvetica">2</text>
<text xml:space="preserve" x="361.938" y="38.9865" fill="black" font-size="16.7131" font-family="Times">&#0967;</text>
<text xml:space="preserve" x="474.024" y="40.611" fill="black" font-size="16.7131" font-family="Helvetica">  11.8 / 13</text>
<text xml:space="preserve" x="361.938" y="60.1042" fill="black" font-size="16.7131" font-family="Helvetica">Constant </text>
<text xml:space="preserve" x="518.696" y="60.1042" fill="black" font-size="16.7131" font-family="Helvetica"> 2.4</text>
<text xml:space="preserve" x="509.762" y="60.1042" fill="black" font-size="16.7131" font-family="Times">&#0177;</text>
<text xml:space="preserve" x="466.714" y="60.1042" fill="black" font-size="16.7131" font-family="Helvetica">  26.1 </text>
<text xml:space="preserve" x="361.938" y="78.7853" fill="black" font-size="16.7131" font-family="Helvetica">Mean     </text>
<text xml:space="preserve" x="518.696" y="78.7853" fill="black" font-size="16.7131" font-family="Helvetica"> 4.7</text>
<text xml:space="preserve" x="509.762" y="78.7853" fill="black" font-size="16.7131" font-family="Times">&#0177;</text>
<text xml:space="preserve" x="459.404" y="78.7853" fill="black" font-size="16.7131" font-family="Helvetica"> 284.3 </text>
<text xml:space="preserve" x="361.938" y="96.6541" fill="black" font-size="16.7131" font-family="Helvetica">Sigma    </text>
<text xml:space="preserve" x="509.762" y="98.2785" fill="black" font-size="16.7131" font-family="Helvetica"> 3.76</text>
<text xml:space="preserve" x="500.827" y="98.2785" fill="black" font-size="16.7131" font-family="Times">&#0177;</text>
<text xml:space="preserve" x="452.906" y="98.2785" fill="black" font-size="16.7131" font-family="Helvetica"> 58.41 </text>
<path d="M64.752,345.762v -11.258" fill="none" stroke="#ff6800"/>
<path d="M64.752,334.504v -11.258" fill="none" stroke="#ff6800"/>
<path d="M57.1929,334.504h 7.55905" fill="none" stroke="#ff6800"/>
<path d="M64.752,334.504h 7.55905" fill="none" stroke="#ff6800"/>
<g stroke="black" stroke-width="1" fill="none">
<line x1="63.752" y1="334.504" x2="64.752" y2="334.504"/>
</g>
<g stroke="black" stroke-width="1" fill="none">
<line x1="78.8701" y1="345.762" x2="79.8701" y2="345.762"/>
</g>
<g stroke="black" stroke-width="1" fill="none">
<line x1="93.9882" y1="345.762" x2="94.9882" y2="345.762"/>
</g>
<g stroke="black" stroke-width="1" fill="none">
<line x1="109.106" y1="345.762" x2="110.106" y2="345.762"/>
</g>
<g stroke="black" stroke-width="1" fill="none">
<line x1="124.224" y1="345.762" x2="125.224" y2="345.762"/>
</g>
<path d="M140.343,345.762v -11.258" fill="none" stroke="#ff6800"/>
<path d="M140.343,334.504v -11.258" fill="none" stroke="#ff6800"/>
<path d="M132.783,334.504h 7.55905" fill="none" stroke="#ff6800"/>
<path d="M140.343,334.504h 7.55905" fill="none" stroke="#ff6800"/>
<g stroke="black" stroke-width="1" fill="none">
<line x1="139.343" y1="334.504" x2="140.343" y2="334.504"/>
</g>
<path d="M155.461,345.762v -11.258" fill="none" stroke="#ff6800"/>
<path d="M155.461,334.504v -11.258" fill="none" stroke="#ff6800"/>
<path d="M147.902,334.504h 7.55905" fill="none" stroke="#ff6800"/>
<path d="M155.461,334.504h 7.55905" fill="none" stroke="#ff6800"/>
<g stroke="black" stroke-width="1" fill="none">
<line x1="154.461" y1="334.504" x2="155.461" y2="334.504"/>
</g>
<g stroke="black" stroke-width="1" fill="none">
<line x1="169.579" y1="345.762" x2="170.579" y2="345.762"/>
</g>
<path d="M185.697,339.167v -15.9212" fill="none" stroke="#ff6800"/>
<path d="M185.697,323.246v -15.9212" fill="none" stroke="#ff6800"/>
<path d="M178.138,323.246h 7.55905" fill="none" stroke="#ff6800"/>
<path d="M185.697,323.246h 7.55905" fill="none" stroke="#ff6800"/>
<g stroke="black" stroke-width="1" fill="none">
<line x1="184.697" y1="323.246" x2="185.697" y2="323.246"/>
</g>
<path d="M200.815,305.79v -27.5764" fill="none" stroke="#ff6800"/>
<path d="M200.815,278.214v -27.5764" fill="none" stroke="#ff6800"/>
<path d="M193.256,278.214h 7.55905" fill="none" stroke="#ff6800"/>
<path d="M200.815,278.214h 7.55905" fill="none" stroke="#ff6800"/>
<g stroke="black" stroke-width="1" fill="none">
<line x1="199.815" y1="278.214" x2="200.815" y2="278.214"/>
</g>
<path d="M215.933,220.494v -43.6021" fill="none" stroke="#ff6800"/>
<path d="M215.933,176.892v -43.6021" fill="none" stroke="#ff6800"/>
<path d="M208.374,176.892h 7.55905" fill="none" stroke="#ff6800"/>
<path d="M215.933,176.892h 7.55905" fill="none" stroke="#ff6800"/>
<g stroke="black" stroke-width="1" fill="none">
<line x1="214.933" y1="176.892" x2="215.933" y2="176.892"/>
</g>
<path d="M231.051,140.819v -53.9915" fill="none" stroke="#ff6800"/>
<path d="M231.051,86.8274v -48.4095" fill="none" stroke="#ff6800"/>
<path d="M223.492,86.8274h 7.55905" fill="none" stroke="#ff6800"/>
<path d="M231.051,86.8274h 7.55905" fill="none" stroke="#ff6800"/>
<g stroke="black" stroke-width="1" fill="none">
<line x1="230.051" y1="86.8274" x2="231.051" y2="86.8274"/>
</g>
<path d="M246.169,130.722v -55.1528" fill="none" stroke="#ff6800"/>
<path d="M246.169,75.5694v -37.1515" fill="none" stroke="#ff6800"/>
<path d="M238.61,75.5694h 7.55905" fill="none" stroke="#ff6800"/>
<path d="M246.169,75.5694h 7.55905" fill="none" stroke="#ff6800"/>
<g stroke="black" stroke-width="1" fill="none">
<line x1="245.169" y1="75.5694" x2="246.169" y2="75.5694"/>
</g>
<path d="M261.287,120.601v -56.2901" fill="none" stroke="#ff6800"/>
<path d="M261.287,64.3114v -25.8934" fill="none" stroke="#ff6800"/>
<path d="M253.728,64.3114h 7.55905" fill="none" stroke="#ff6800"/>
<path d="M261.287,64.3114h 7.55905" fill="none" stroke="#ff6800"/>
<g stroke="black" stroke-width="1" fill="none">
<line x1="260.287" y1="64.3114" x2="261.287" y2="64.3114"/>
</g>
<path d="M276.406,110.458v -57.4048" fill="none" stroke="#ff6800"/>
<path d="M276.406,53.0534v -14.6354" fill="none" stroke="#ff6800"/>
<path d="M268.846,53.0534h 7.55905" fill="none" stroke="#ff6800"/>
<path d="M276.406,53.0534h 7.55905" fill="none" stroke="#ff6800"/>
<g stroke="black" stroke-width="1" fill="none">
<line x1="275.406" y1="53.0534" x2="276.406" y2="53.0534"/>
</g>
<path d="M291.524,150.89v -52.8048" fill="none" stroke="#ff6800"/>
<path d="M291.524,98.0855v -52.8048" fill="none" stroke="#ff6800"/>
<path d="M283.965,98.0855h 7.55905" fill="none" stroke="#ff6800"/>
<path d="M291.524,98.0855h 7.55905" fill="none" stroke="#ff6800"/>
<g stroke="black" stroke-width="1" fill="none">
<line x1="290.524" y1="98.0855" x2="291.524" y2="98.0855"/>
</g>
<path d="M306.642,230.273v -42.1236" fill="none" stroke="#ff6800"/>
<path d="M306.642,188.15v -42.1236" fill="none" stroke="#ff6800"/>
<path d="M299.083,188.15h 7.55905" fill="none" stroke="#ff6800"/>
<path d="M306.642,188.15h 7.55905" fill="none" stroke="#ff6800"/>
<g stroke="black" stroke-width="1" fill="none">
<line x1="305.642" y1="188.15" x2="306.642" y2="188.15"/>
</g>
<path d="M321.76,210.666v -45.0321" fill="none" stroke="#ff6800"/>
<path d="M321.76,165.634v -45.0321" fill="none" stroke="#ff6800"/>
<path d="M314.201,165.634h 7.55905" fill="none" stroke="#ff6800"/>
<path d="M321.76,165.634h 7.55905" fill="none" stroke="#ff6800"/>
<g stroke="black" stroke-width="1" fill="none">
<line x1="320.76" y1="165.634" x2="321.76" y2="165.634"/>
</g>
<path d="M336.878,268.783v -35.601" fill="none" stroke="#ff6800"/>
<path d="M336.878,233.182v -35.601" fill="none" stroke="#ff6800"/>
<path d="M329.319,233.182h 7.55905" fill="none" stroke="#ff6800"/>
<path d="M336.878,233.182h 7.55905" fill="none" stroke="#ff6800"/>
<g stroke="black" stroke-width="1" fill="none">
<line x1="335.878" y1="233.182" x2="336.878" y2="233.182"/>
</g>
<path d="M351.996,259.262v -37.3386" fill="none" stroke="#ff6800"/>
<path d="M351.996,221.924v -37.3386" fill="none" stroke="#ff6800"/>
<path d="M344.437,221.924h 7.55905" fill="none" stroke="#ff6800"/>
<path d="M351.996,221.924h 7.55905" fill="none" stroke="#ff6800"/>
<g stroke="black" stroke-width="1" fill="none">
<line x1="350.996" y1="221.924" x2="351.996" y2="221.924"/>
</g>
<path d="M367.114,339.167v -15.9212" fill="none" stroke="#ff6800"/>
<path d="M367.114,323.246v -15.9212" fill="none" stroke="#ff6800"/>
<path d="M359.555,323.246h 7.55905" fill="none" stroke="#ff6800"/>
<path d="M367.114,323.246h 7.55905" fill="none" stroke="#ff6800"/>
<g stroke="black" stroke-width="1" fill="none">
<line x1="366.114" y1="323.246" x2="367.114" y2="323.246"/>
</g>
<g stroke="black" stroke-width="1" fill="none">
<line x1="381.232" y1="345.762" x2="382.232" y2="345.762"/>
</g>
<g stroke="black" stroke-width="1" fill="none">
<line x1="396.35" y1="345.762" x2="397.35" y2="345.762"/>
</g>
<g stroke="black" stroke-width="1" fill="none">
<line x1="411.469" y1="345.762" x2="412.469" y2="345.762"/>
</g>
<g stroke="black" stroke-width="1" fill="none">
<line x1="426.587" y1="345.762" x2="427.587" y2="345.762"/>
</g>
<g stroke="black" stroke-width="1" fill="none">
<line x1="441.705" y1="345.762" x2="442.705" y2="345.762"/>
</g>
<g stroke="black" stroke-width="1" fill="none">
<line x1="456.823" y1="345.762" x2="457.823" y2="345.762"/>
</g>
<g stroke="black" stroke-width="1" fill="none">
<line x1="471.941" y1="345.762" x2="472.941" y2="345.762"/>
</g>
<g stroke="black" stroke-width="1" fill="none">
<line x1="487.059" y1="345.762" x2="488.059" y2="345.762"/>
</g>
<g stroke="black" stroke-width="1" fill="none">
<line x1="502.177" y1="345.762" x2="503.177" y2="345.762"/>
</g>
<path d="M59.4606,345.762h 22.6772l 4.53543, -0.0435031l 4.53543, -0.0231141l 4.53543, -0.0343242l 4.53543, -0.050404l 4.53543, -0.0731906l 4.53543, -0.105089l 4.53543, -0.149193l 4.53543, -0.209419l 4.53543, -0.290627l 4.53543, -0.398737l 4.53543,
 -0.54081l 4.53543, -0.725073l 4.53543, -0.960881l 4.53543, -1.25856l 4.53543, -1.62915l 4.53543, -2.08396l 4.53543, -2.63398l 4.53543, -3.28914l 4.53543, -4.05735l 4.53543, -4.94343l 4.53543, -5.94794l 4.53543, -7.06603l 4.53543, -8.28625l 4.53543,
 -9.58967l 4.53543, -10.9492l 4.53543, -12.3294l 4.53543, -13.6868l 4.53543, -14.9707l 4.53543, -16.1249l 4.53543, -17.09l 4.53543, -17.8059l 4.53543, -18.2155l 4.53543, -18.268l 4.53543, -17.9224l 4.53543, -17.1512l 4.53543, -15.9428l 4.53543,
 -14.3039l 4.53543, -12.2602l 4.53543, -9.85632l 4.53543, -7.15444l 4.53543, -4.23172l 4.53543, -1.17661l 4.53543, 1.91552l 4.53543, 4.94742" fill="none" stroke="#ff6800" stroke-width="2"/>
<path d="M281.697,58.7948l 4.53543, 7.82494l 4.53543, 10.4619l 4.53543, 12.7846l 4.53543, 14.7347l 4.53543, 16.2721l 4.53543, 17.3756l 4.53543, 18.0432l 4.53543, 18.2903l 4.53543, 18.1482l 4.53543, 17.6603l 4.53543, 16.8793l 4.53543, 15.8634l
 4.53543, 14.6728l 4.53543, 13.3663l 4.53543, 11.9991l 4.53543, 10.6202l 4.53543, 9.27115l 4.53543, 7.98551l 4.53543, 6.78833l 4.53543, 5.69668l 4.53543, 4.72031l 4.53543, 3.8627l 4.53543, 3.12215l 4.53543, 2.49299l 4.53543, 1.96673l 4.53543,
 1.53313l 4.53543, 1.18103l 4.53543, 0.899158l 4.53543, 0.676606l 4.53543, 0.503261l 4.53543, 0.37003l 4.53543, 0.268963l 4.53543, 0.19328l 4.53543, 0.137321l 4.53543, 0.0964644l 4.53543, 0.0670029l 4.53543, 0.0460187l 4.53543, 0.0312539l 4.53543,
 0.0209903l 4.53543, 0.0392198h 40.8189" fill="none" stroke="#ff6800" stroke-width="2"/>
<path d="M503.933,345.762h 4.53543" fill="none" stroke="#ff6800" stroke-width="2"/>
<rect x="351.996" y="24.9717" width="204.094" height="76.836" fill="white"/>
<path d="M351.996,101.808h 204.094" fill="none" stroke="black"/>
<path d="M556.091,101.808v -76.836" fill="none" stroke="black"/>
<path d="M556.091,24.9717h -204.094" fill="none" stroke="black"/>
<path d="M351.996,24.9717v 76.836" fill="none" stroke="black"/>
<text xml:space="preserve" x="377.37" y="38.9865" fill="black" font-size="16.7131" font-family="Helvetica"> / ndf </text>
<text xml:space="preserve" x="370.872" y="34.1132" fill="black" font-size="11.3087" font-family="Helvetica">2</text>
<text xml:space="preserve" x="361.938" y="38.9865" fill="black" font-size="16.7131" font-family="Times">&#0967;</text>
<text xml:space="preserve" x="474.024" y="40.611" fill="black" font-size="16.7131" font-family="Helvetica">  11.8 / 13</text>
<text xml:space="preserve" x="361.938" y="60.1042" fill="black" font-size="16.7131" font-family="Helvetica">Constant </text>
<text xml:space="preserve" x="518.696" y="60.1042" fill="black" font-size="16.7131" font-family="Helvetica"> 2.4</text>
<text xml:space="preserve" x="509.762" y="60.1042" fill="black" font-size="16.7131" font-family="Times">&#0177;</text>
<text xml:space="preserve" x="466.714" y="60.1042" fill="black" font-size="16.7131" font-family="Helvetica">  26.1 </text>
<text xml:space="preserve" x="361.938" y="78.7853" fill="black" font-size="16.7131" font-family="Helvetica">Mean     </text>
<text xml:space="preserve" x="518.696" y="78.7853" fill="black" font-size="16.7131" font-family="Helvetica"> 4.7</text>
<text xml:space="preserve" x="509.762" y="78.7853" fill="black" font-size="16.7131" font-family="Times">&#0177;</text>
<text xml:space="preserve" x="459.404" y="78.7853" fill="black" font-size="16.7131" font-family="Helvetica"> 284.3 </text>
<text xml:space="preserve" x="361.938" y="96.6541" fill="black" font-size="16.7131" font-family="Helvetica">Sigma    </text>
<text xml:space="preserve" x="509.762" y="98.2785" fill="black" font-size="16.7131" font-family="Helvetica"> 3.76</text>
<text xml:space="preserve" x="500.827" y="98.2785" fill="black" font-size="16.7131" font-family="Times">&#0177;</text>
<text xml:space="preserve" x="452.906" y="98.2785" fill="black" font-size="16.7131" font-family="Helvetica"> 58.41 </text>
<text xml:space="preserve" x="242.541" y="17.8688" fill="black" font-size="18.7414" font-family="Helvetica">vop 69.08</text></svg>
