<?xml version="1.0" standalone="no"?>
<svg width="567.429" height="384.68" viewBox="0 0 567.429 384.68" xmlns="http://www.w3.org/2000/svg" shape-rendering="crispEdges">
<title>
./vop_graphs/vop_mpv_scatter.svg
</title>
<desc>
Creator: ROOT Version 6.22/02
CreationDate: Tue Jun 15 19:03:46 2021</desc>
<defs>
</defs>
<rect x="0.5" y="0" width="566.929" height="384.18" fill="white"/>
<rect x="57.1929" y="38.418" width="453.543" height="307.344" fill="white"/>
<rect x="57.1929" y="38.418" width="453.543" height="307.344" fill="none" stroke="black"/>
<path d="M57.1929,345.762h 453.543" fill="none" stroke="black"/>
<path d="M66.6417,336.541v 9.22031" fill="none" stroke="black"/>
<path d="M76.0906,341.152v 4.61016" fill="none" stroke="black"/>
<path d="M85.5394,341.152v 4.61016" fill="none" stroke="black"/>
<path d="M94.9882,341.152v 4.61016" fill="none" stroke="black"/>
<path d="M104.437,341.152v 4.61016" fill="none" stroke="black"/>
<path d="M113.886,336.541v 9.22031" fill="none" stroke="black"/>
<path d="M123.335,341.152v 4.61016" fill="none" stroke="black"/>
<path d="M132.783,341.152v 4.61016" fill="none" stroke="black"/>
<path d="M142.232,341.152v 4.61016" fill="none" stroke="black"/>
<path d="M151.681,341.152v 4.61016" fill="none" stroke="black"/>
<path d="M161.13,336.541v 9.22031" fill="none" stroke="black"/>
<path d="M170.579,341.152v 4.61016" fill="none" stroke="black"/>
<path d="M180.028,341.152v 4.61016" fill="none" stroke="black"/>
<path d="M189.476,341.152v 4.61016" fill="none" stroke="black"/>
<path d="M198.925,341.152v 4.61016" fill="none" stroke="black"/>
<path d="M208.374,336.541v 9.22031" fill="none" stroke="black"/>
<path d="M217.823,341.152v 4.61016" fill="none" stroke="black"/>
<path d="M227.272,341.152v 4.61016" fill="none" stroke="black"/>
<path d="M236.72,341.152v 4.61016" fill="none" stroke="black"/>
<path d="M246.169,341.152v 4.61016" fill="none" stroke="black"/>
<path d="M255.618,336.541v 9.22031" fill="none" stroke="black"/>
<path d="M265.067,341.152v 4.61016" fill="none" stroke="black"/>
<path d="M274.516,341.152v 4.61016" fill="none" stroke="black"/>
<path d="M283.965,341.152v 4.61016" fill="none" stroke="black"/>
<path d="M293.413,341.152v 4.61016" fill="none" stroke="black"/>
<path d="M302.862,336.541v 9.22031" fill="none" stroke="black"/>
<path d="M312.311,341.152v 4.61016" fill="none" stroke="black"/>
<path d="M321.76,341.152v 4.61016" fill="none" stroke="black"/>
<path d="M331.209,341.152v 4.61016" fill="none" stroke="black"/>
<path d="M340.657,341.152v 4.61016" fill="none" stroke="black"/>
<path d="M350.106,336.541v 9.22031" fill="none" stroke="black"/>
<path d="M359.555,341.152v 4.61016" fill="none" stroke="black"/>
<path d="M369.004,341.152v 4.61016" fill="none" stroke="black"/>
<path d="M378.453,341.152v 4.61016" fill="none" stroke="black"/>
<path d="M387.902,341.152v 4.61016" fill="none" stroke="black"/>
<path d="M397.35,336.541v 9.22031" fill="none" stroke="black"/>
<path d="M406.799,341.152v 4.61016" fill="none" stroke="black"/>
<path d="M416.248,341.152v 4.61016" fill="none" stroke="black"/>
<path d="M425.697,341.152v 4.61016" fill="none" stroke="black"/>
<path d="M435.146,341.152v 4.61016" fill="none" stroke="black"/>
<path d="M444.594,336.541v 9.22031" fill="none" stroke="black"/>
<path d="M454.043,341.152v 4.61016" fill="none" stroke="black"/>
<path d="M463.492,341.152v 4.61016" fill="none" stroke="black"/>
<path d="M472.941,341.152v 4.61016" fill="none" stroke="black"/>
<path d="M482.39,341.152v 4.61016" fill="none" stroke="black"/>
<path d="M491.839,336.541v 9.22031" fill="none" stroke="black"/>
<path d="M66.6417,336.541v 9.22031" fill="none" stroke="black"/>
<path d="M491.839,336.541v 9.22031" fill="none" stroke="black"/>
<path d="M501.287,341.152v 4.61016" fill="none" stroke="black"/>
<text xml:space="preserve" x="54.1065" y="358.189" fill="black" font-size="12.836" font-family="Helvetica">68.9</text>
<text xml:space="preserve" x="97.9663" y="358.189" fill="black" font-size="12.836" font-family="Helvetica">68.95</text>
<text xml:space="preserve" x="154.009" y="358.189" fill="black" font-size="12.836" font-family="Helvetica">69</text>
<text xml:space="preserve" x="192.184" y="358.189" fill="black" font-size="12.836" font-family="Helvetica">69.05</text>
<text xml:space="preserve" x="244.166" y="358.189" fill="black" font-size="12.836" font-family="Helvetica">69.1</text>
<text xml:space="preserve" x="287.213" y="358.189" fill="black" font-size="12.836" font-family="Helvetica">69.15</text>
<text xml:space="preserve" x="337.571" y="358.189" fill="black" font-size="12.836" font-family="Helvetica">69.2</text>
<text xml:space="preserve" x="381.431" y="358.189" fill="black" font-size="12.836" font-family="Helvetica">69.25</text>
<text xml:space="preserve" x="431.788" y="358.189" fill="black" font-size="12.836" font-family="Helvetica">69.3</text>
<text xml:space="preserve" x="475.648" y="358.189" fill="black" font-size="12.836" font-family="Helvetica">69.35</text>
<text xml:space="preserve" x="491.081" y="369.56" fill="black" font-size="12.836" font-family="Helvetica">vop</text>
<path d="M57.1929,345.762v -307.344" fill="none" stroke="black"/>
<path d="M70.7992,305.826h -13.6063" fill="none" stroke="black"/>
<path d="M63.9961,297.757h -6.80315" fill="none" stroke="black"/>
<path d="M63.9961,289.688h -6.80315" fill="none" stroke="black"/>
<path d="M63.9961,281.62h -6.80315" fill="none" stroke="black"/>
<path d="M63.9961,273.551h -6.80315" fill="none" stroke="black"/>
<path d="M70.7992,265.482h -13.6063" fill="none" stroke="black"/>
<path d="M63.9961,257.413h -6.80315" fill="none" stroke="black"/>
<path d="M63.9961,249.344h -6.80315" fill="none" stroke="black"/>
<path d="M63.9961,241.275h -6.80315" fill="none" stroke="black"/>
<path d="M63.9961,233.206h -6.80315" fill="none" stroke="black"/>
<path d="M70.7992,225.138h -13.6063" fill="none" stroke="black"/>
<path d="M63.9961,217.069h -6.80315" fill="none" stroke="black"/>
<path d="M63.9961,209h -6.80315" fill="none" stroke="black"/>
<path d="M63.9961,200.931h -6.80315" fill="none" stroke="black"/>
<path d="M63.9961,192.862h -6.80315" fill="none" stroke="black"/>
<path d="M70.7992,184.793h -13.6063" fill="none" stroke="black"/>
<path d="M63.9961,176.725h -6.80315" fill="none" stroke="black"/>
<path d="M63.9961,168.656h -6.80315" fill="none" stroke="black"/>
<path d="M63.9961,160.587h -6.80315" fill="none" stroke="black"/>
<path d="M63.9961,152.518h -6.80315" fill="none" stroke="black"/>
<path d="M70.7992,144.449h -13.6063" fill="none" stroke="black"/>
<path d="M63.9961,136.38h -6.80315" fill="none" stroke="black"/>
<path d="M63.9961,128.311h -6.80315" fill="none" stroke="black"/>
<path d="M63.9961,120.243h -6.80315" fill="none" stroke="black"/>
<path d="M63.9961,112.174h -6.80315" fill="none" stroke="black"/>
<path d="M70.7992,104.105h -13.6063" fill="none" stroke="black"/>
<path d="M63.9961,96.036h -6.80315" fill="none" stroke="black"/>
<path d="M63.9961,87.9672h -6.80315" fill="none" stroke="black"/>
<path d="M63.9961,79.8983h -6.80315" fill="none" stroke="black"/>
<path d="M63.9961,71.8295h -6.80315" fill="none" stroke="black"/>
<path d="M70.7992,63.7606h -13.6063" fill="none" stroke="black"/>
<path d="M70.7992,305.826h -13.6063" fill="none" stroke="black"/>
<path d="M63.9961,313.895h -6.80315" fill="none" stroke="black"/>
<path d="M63.9961,321.964h -6.80315" fill="none" stroke="black"/>
<path d="M63.9961,330.033h -6.80315" fill="none" stroke="black"/>
<path d="M63.9961,338.102h -6.80315" fill="none" stroke="black"/>
<path d="M70.7992,63.7606h -13.6063" fill="none" stroke="black"/>
<path d="M63.9961,55.6918h -6.80315" fill="none" stroke="black"/>
<path d="M63.9961,47.6229h -6.80315" fill="none" stroke="black"/>
<path d="M63.9961,39.5541h -6.80315" fill="none" stroke="black"/>
<text xml:space="preserve" x="33.801" y="310.268" fill="black" font-size="12.836" font-family="Helvetica">100</text>
<text xml:space="preserve" x="33.801" y="269.657" fill="black" font-size="12.836" font-family="Helvetica">200</text>
<text xml:space="preserve" x="33.801" y="229.858" fill="black" font-size="12.836" font-family="Helvetica">300</text>
<text xml:space="preserve" x="33.801" y="189.247" fill="black" font-size="12.836" font-family="Helvetica">400</text>
<text xml:space="preserve" x="33.801" y="148.636" fill="black" font-size="12.836" font-family="Helvetica">500</text>
<text xml:space="preserve" x="33.801" y="108.837" fill="black" font-size="12.836" font-family="Helvetica">600</text>
<text xml:space="preserve" x="33.801" y="68.2264" fill="black" font-size="12.836" font-family="Helvetica">700</text>
<g transform="rotate(-90,19.181,61.7287)">
<text xml:space="preserve" x="19.181" y="61.7287" fill="black" font-size="12.836" font-family="Helvetica">mpv</text>
</g>
<text xml:space="preserve" x="189.747" y="17.8688" fill="black" font-size="18.7414" font-family="Helvetica">block mpv vs sipm vop</text>
<g fill="black">
<circle cx="142.232" cy="206.64" r="1.62444"/>
<circle cx="142.232" cy="241.498" r="1.62444"/>
<circle cx="142.232" cy="231.732" r="1.62444"/>
<circle cx="142.232" cy="231.393" r="1.62444"/>
<circle cx="142.232" cy="224.453" r="1.62444"/>
<circle cx="142.232" cy="216.745" r="1.62444"/>
<circle cx="142.232" cy="231.746" r="1.62444"/>
<circle cx="142.232" cy="236.956" r="1.62444"/>
<circle cx="142.232" cy="222.462" r="1.62444"/>
<circle cx="142.232" cy="246.992" r="1.62444"/>
<circle cx="142.232" cy="231.458" r="1.62444"/>
<circle cx="142.232" cy="225.189" r="1.62444"/>
<circle cx="142.232" cy="258.085" r="1.62444"/>
<circle cx="142.232" cy="227.836" r="1.62444"/>
<circle cx="142.232" cy="218.979" r="1.62444"/>
<circle cx="142.232" cy="215.304" r="1.62444"/>
<circle cx="142.232" cy="240.087" r="1.62444"/>
<circle cx="142.232" cy="235.904" r="1.62444"/>
<circle cx="142.232" cy="210.209" r="1.62444"/>
<circle cx="142.232" cy="230.025" r="1.62444"/>
<circle cx="142.232" cy="234.905" r="1.62444"/>
<circle cx="142.232" cy="221.186" r="1.62444"/>
<circle cx="142.232" cy="229.033" r="1.62444"/>
<circle cx="142.232" cy="240.322" r="1.62444"/>
<circle cx="142.232" cy="249.47" r="1.62444"/>
<circle cx="142.232" cy="214.658" r="1.62444"/>
<circle cx="142.232" cy="227.371" r="1.62444"/>
<circle cx="142.232" cy="236.998" r="1.62444"/>
<circle cx="142.232" cy="251.374" r="1.62444"/>
<circle cx="142.232" cy="229.882" r="1.62444"/>
<circle cx="142.232" cy="230.259" r="1.62444"/>
<circle cx="142.232" cy="212.516" r="1.62444"/>
<circle cx="142.232" cy="234.502" r="1.62444"/>
<circle cx="142.232" cy="222.512" r="1.62444"/>
<circle cx="142.232" cy="220.576" r="1.62444"/>
<circle cx="142.232" cy="223.318" r="1.62444"/>
<circle cx="142.232" cy="243.574" r="1.62444"/>
<circle cx="142.232" cy="248.814" r="1.62444"/>
<circle cx="142.232" cy="249.324" r="1.62444"/>
<circle cx="142.232" cy="241.658" r="1.62444"/>
<circle cx="142.232" cy="253.337" r="1.62444"/>
<circle cx="142.232" cy="216.31" r="1.62444"/>
<circle cx="142.232" cy="214.879" r="1.62444"/>
<circle cx="142.232" cy="256.273" r="1.62444"/>
<circle cx="142.232" cy="215.643" r="1.62444"/>
<circle cx="142.232" cy="224.626" r="1.62444"/>
<circle cx="142.232" cy="249.395" r="1.62444"/>
<circle cx="142.232" cy="252.01" r="1.62444"/>
<circle cx="142.232" cy="197.214" r="1.62444"/>
<circle cx="142.232" cy="210.81" r="1.62444"/>
<circle cx="142.232" cy="226.453" r="1.62444"/>
<circle cx="142.232" cy="208.723" r="1.62444"/>
<circle cx="142.232" cy="207.707" r="1.62444"/>
<circle cx="142.232" cy="218.198" r="1.62444"/>
<circle cx="142.232" cy="206.379" r="1.62444"/>
<circle cx="142.232" cy="213.818" r="1.62444"/>
<circle cx="142.232" cy="214.095" r="1.62444"/>
<circle cx="142.232" cy="235.126" r="1.62444"/>
<circle cx="142.232" cy="234.679" r="1.62444"/>
<circle cx="142.232" cy="224.872" r="1.62444"/>
<circle cx="142.232" cy="225.073" r="1.62444"/>
<circle cx="142.232" cy="256.297" r="1.62444"/>
<circle cx="142.232" cy="194.586" r="1.62444"/>
<circle cx="142.232" cy="247.799" r="1.62444"/>
<circle cx="142.232" cy="218.034" r="1.62444"/>
<circle cx="142.232" cy="238.144" r="1.62444"/>
<circle cx="142.232" cy="205.45" r="1.62444"/>
<circle cx="142.232" cy="207.807" r="1.62444"/>
<circle cx="142.232" cy="237.119" r="1.62444"/>
<circle cx="142.232" cy="245.91" r="1.62444"/>
<circle cx="142.232" cy="215.577" r="1.62444"/>
<circle cx="142.232" cy="198.774" r="1.62444"/>
<circle cx="142.232" cy="210.648" r="1.62444"/>
<circle cx="142.232" cy="218.364" r="1.62444"/>
<circle cx="142.232" cy="236.125" r="1.62444"/>
<circle cx="142.232" cy="228.153" r="1.62444"/>
<circle cx="142.232" cy="225.74" r="1.62444"/>
<circle cx="142.232" cy="209.83" r="1.62444"/>
<circle cx="142.232" cy="248.237" r="1.62444"/>
<circle cx="142.232" cy="217.126" r="1.62444"/>
<circle cx="142.232" cy="217.735" r="1.62444"/>
<circle cx="142.232" cy="230.988" r="1.62444"/>
<circle cx="142.232" cy="271.596" r="1.62444"/>
<circle cx="142.232" cy="248.697" r="1.62444"/>
<circle cx="142.232" cy="200.712" r="1.62444"/>
<circle cx="142.232" cy="239.05" r="1.62444"/>
<circle cx="142.232" cy="249.07" r="1.62444"/>
<circle cx="142.232" cy="232.25" r="1.62444"/>
<circle cx="142.232" cy="219.953" r="1.62444"/>
<circle cx="142.232" cy="247.938" r="1.62444"/>
<circle cx="472.941" cy="254.389" r="1.62444"/>
<circle cx="472.941" cy="252.362" r="1.62444"/>
<circle cx="472.941" cy="230.805" r="1.62444"/>
<circle cx="472.941" cy="228.187" r="1.62444"/>
<circle cx="472.941" cy="242.872" r="1.62444"/>
<circle cx="472.941" cy="209.443" r="1.62444"/>
<circle cx="472.941" cy="245.565" r="1.62444"/>
<circle cx="472.941" cy="251.693" r="1.62444"/>
<circle cx="472.941" cy="226.259" r="1.62444"/>
<circle cx="472.941" cy="280.849" r="1.62444"/>
<circle cx="472.941" cy="216.606" r="1.62444"/>
<circle cx="472.941" cy="254.189" r="1.62444"/>
<circle cx="472.941" cy="224.485" r="1.62444"/>
<circle cx="472.941" cy="225.083" r="1.62444"/>
<circle cx="472.941" cy="239.564" r="1.62444"/>
<circle cx="472.941" cy="223.106" r="1.62444"/>
<circle cx="472.941" cy="202.111" r="1.62444"/>
<circle cx="472.941" cy="223.405" r="1.62444"/>
<circle cx="472.941" cy="242.591" r="1.62444"/>
<circle cx="472.941" cy="232.805" r="1.62444"/>
<circle cx="472.941" cy="211.198" r="1.62444"/>
<circle cx="472.941" cy="241.317" r="1.62444"/>
<circle cx="472.941" cy="225.248" r="1.62444"/>
<circle cx="472.941" cy="244.894" r="1.62444"/>
<circle cx="472.941" cy="218.526" r="1.62444"/>
<circle cx="472.941" cy="206.041" r="1.62444"/>
<circle cx="472.941" cy="251.011" r="1.62444"/>
<circle cx="472.941" cy="243.156" r="1.62444"/>
<circle cx="472.941" cy="205.79" r="1.62444"/>
<circle cx="472.941" cy="204.821" r="1.62444"/>
<circle cx="472.941" cy="243.805" r="1.62444"/>
<circle cx="472.941" cy="222.315" r="1.62444"/>
<circle cx="472.941" cy="244.619" r="1.62444"/>
<circle cx="472.941" cy="249.988" r="1.62444"/>
<circle cx="472.941" cy="204.226" r="1.62444"/>
<circle cx="472.941" cy="222.553" r="1.62444"/>
<circle cx="472.941" cy="202.396" r="1.62444"/>
<circle cx="472.941" cy="234.64" r="1.62444"/>
<circle cx="472.941" cy="230.685" r="1.62444"/>
<circle cx="472.941" cy="206.607" r="1.62444"/>
<circle cx="472.941" cy="215.308" r="1.62444"/>
<circle cx="472.941" cy="232.255" r="1.62444"/>
<circle cx="472.941" cy="236.491" r="1.62444"/>
<circle cx="472.941" cy="221.093" r="1.62444"/>
<circle cx="472.941" cy="233.638" r="1.62444"/>
<circle cx="472.941" cy="228.638" r="1.62444"/>
<circle cx="472.941" cy="253.531" r="1.62444"/>
<circle cx="472.941" cy="252.74" r="1.62444"/>
<circle cx="472.941" cy="231.639" r="1.62444"/>
<circle cx="472.941" cy="255.836" r="1.62444"/>
<circle cx="472.941" cy="228.682" r="1.62444"/>
<circle cx="472.941" cy="262.595" r="1.62444"/>
<circle cx="472.941" cy="254.036" r="1.62444"/>
<circle cx="472.941" cy="242.819" r="1.62444"/>
<circle cx="472.941" cy="233.975" r="1.62444"/>
<circle cx="472.941" cy="230.133" r="1.62444"/>
<circle cx="472.941" cy="231.105" r="1.62444"/>
<circle cx="472.941" cy="241.864" r="1.62444"/>
<circle cx="472.941" cy="257.094" r="1.62444"/>
<circle cx="472.941" cy="240.908" r="1.62444"/>
<circle cx="472.941" cy="247.235" r="1.62444"/>
<circle cx="472.941" cy="230.531" r="1.62444"/>
<circle cx="472.941" cy="196.37" r="1.62444"/>
<circle cx="472.941" cy="228.833" r="1.62444"/>
<circle cx="472.941" cy="243.315" r="1.62444"/>
<circle cx="472.941" cy="231.434" r="1.62444"/>
<circle cx="472.941" cy="234.118" r="1.62444"/>
<circle cx="472.941" cy="246.452" r="1.62444"/>
<circle cx="472.941" cy="264.461" r="1.62444"/>
<circle cx="472.941" cy="205.252" r="1.62444"/>
<circle cx="472.941" cy="203.687" r="1.62444"/>
<circle cx="472.941" cy="239.703" r="1.62444"/>
<circle cx="472.941" cy="233.9" r="1.62444"/>
<circle cx="472.941" cy="222.204" r="1.62444"/>
<circle cx="472.941" cy="228.555" r="1.62444"/>
<circle cx="472.941" cy="247.264" r="1.62444"/>
<circle cx="472.941" cy="212.062" r="1.62444"/>
<circle cx="472.941" cy="255.358" r="1.62444"/>
<circle cx="472.941" cy="234.032" r="1.62444"/>
<circle cx="472.941" cy="226.533" r="1.62444"/>
<circle cx="472.941" cy="219.28" r="1.62444"/>
<circle cx="472.941" cy="245.238" r="1.62444"/>
<circle cx="472.941" cy="222.185" r="1.62444"/>
<circle cx="472.941" cy="228.078" r="1.62444"/>
<circle cx="472.941" cy="246.011" r="1.62444"/>
<circle cx="472.941" cy="241.138" r="1.62444"/>
<circle cx="472.941" cy="244.395" r="1.62444"/>
<circle cx="472.941" cy="212.894" r="1.62444"/>
<circle cx="472.941" cy="230.072" r="1.62444"/>
<circle cx="472.941" cy="242.471" r="1.62444"/>
<circle cx="472.941" cy="255.43" r="1.62444"/>
<circle cx="472.941" cy="220.087" r="1.62444"/>
<circle cx="472.941" cy="255.912" r="1.62444"/>
<circle cx="472.941" cy="245.125" r="1.62444"/>
<circle cx="472.941" cy="248.878" r="1.62444"/>
<circle cx="472.941" cy="259.076" r="1.62444"/>
<circle cx="472.941" cy="247.463" r="1.62444"/>
<circle cx="472.941" cy="253.216" r="1.62444"/>
<circle cx="472.941" cy="250.394" r="1.62444"/>
<circle cx="472.941" cy="267.997" r="1.62444"/>
<circle cx="472.941" cy="244.771" r="1.62444"/>
<circle cx="472.941" cy="222.13" r="1.62444"/>
<circle cx="472.941" cy="234.765" r="1.62444"/>
<circle cx="472.941" cy="237.21" r="1.62444"/>
<circle cx="472.941" cy="291.281" r="1.62444"/>
<circle cx="472.941" cy="249.063" r="1.62444"/>
<circle cx="472.941" cy="232.611" r="1.62444"/>
<circle cx="472.941" cy="260.648" r="1.62444"/>
<circle cx="472.941" cy="218.3" r="1.62444"/>
<circle cx="472.941" cy="262.848" r="1.62444"/>
<circle cx="472.941" cy="246.888" r="1.62444"/>
<circle cx="472.941" cy="257.439" r="1.62444"/>
<circle cx="472.941" cy="270.457" r="1.62444"/>
<circle cx="472.941" cy="263.546" r="1.62444"/>
<circle cx="472.941" cy="254.304" r="1.62444"/>
<circle cx="472.941" cy="240.099" r="1.62444"/>
<circle cx="472.941" cy="262.177" r="1.62444"/>
<circle cx="472.941" cy="243.179" r="1.62444"/>
<circle cx="472.941" cy="267.733" r="1.62444"/>
<circle cx="472.941" cy="246.811" r="1.62444"/>
<circle cx="472.941" cy="259.424" r="1.62444"/>
<circle cx="472.941" cy="275.734" r="1.62444"/>
<circle cx="472.941" cy="257.294" r="1.62444"/>
<circle cx="472.941" cy="268.972" r="1.62444"/>
<circle cx="472.941" cy="236.689" r="1.62444"/>
<circle cx="472.941" cy="240.414" r="1.62444"/>
<circle cx="472.941" cy="270.749" r="1.62444"/>
<circle cx="472.941" cy="254.108" r="1.62444"/>
<circle cx="472.941" cy="233.959" r="1.62444"/>
<circle cx="472.941" cy="286.567" r="1.62444"/>
<circle cx="472.941" cy="248.455" r="1.62444"/>
<circle cx="472.941" cy="265.78" r="1.62444"/>
<circle cx="472.941" cy="257.967" r="1.62444"/>
<circle cx="472.941" cy="271.14" r="1.62444"/>
<circle cx="472.941" cy="240.271" r="1.62444"/>
<circle cx="472.941" cy="246.224" r="1.62444"/>
<circle cx="472.941" cy="233.898" r="1.62444"/>
<circle cx="472.941" cy="249.129" r="1.62444"/>
<circle cx="472.941" cy="242.916" r="1.62444"/>
<circle cx="472.941" cy="236.834" r="1.62444"/>
<circle cx="472.941" cy="242.861" r="1.62444"/>
<circle cx="472.941" cy="241.194" r="1.62444"/>
<circle cx="472.941" cy="259.8" r="1.62444"/>
<circle cx="283.965" cy="262.73" r="1.62444"/>
<circle cx="472.941" cy="234.021" r="1.62444"/>
<circle cx="472.941" cy="225.286" r="1.62444"/>
<circle cx="472.941" cy="245.76" r="1.62444"/>
<circle cx="472.941" cy="236.634" r="1.62444"/>
<circle cx="472.941" cy="254.421" r="1.62444"/>
<circle cx="472.941" cy="246.311" r="1.62444"/>
<circle cx="283.965" cy="240.323" r="1.62444"/>
<circle cx="283.965" cy="230.572" r="1.62444"/>
<circle cx="283.965" cy="238.989" r="1.62444"/>
<circle cx="472.941" cy="236.516" r="1.62444"/>
<circle cx="283.965" cy="237.963" r="1.62444"/>
<circle cx="283.965" cy="230.982" r="1.62444"/>
<circle cx="283.965" cy="242.194" r="1.62444"/>
<circle cx="283.965" cy="243.003" r="1.62444"/>
<circle cx="283.965" cy="259.975" r="1.62444"/>
<circle cx="283.965" cy="252.75" r="1.62444"/>
<circle cx="283.965" cy="228.549" r="1.62444"/>
<circle cx="283.965" cy="225.148" r="1.62444"/>
<circle cx="283.965" cy="224.583" r="1.62444"/>
<circle cx="283.965" cy="229.399" r="1.62444"/>
<circle cx="283.965" cy="243.782" r="1.62444"/>
<circle cx="283.965" cy="261.891" r="1.62444"/>
<circle cx="283.965" cy="239.327" r="1.62444"/>
<circle cx="283.965" cy="219.548" r="1.62444"/>
<circle cx="283.965" cy="232.034" r="1.62444"/>
<circle cx="283.965" cy="248.94" r="1.62444"/>
<circle cx="283.965" cy="259.852" r="1.62444"/>
<circle cx="283.965" cy="271.61" r="1.62444"/>
<circle cx="283.965" cy="251.917" r="1.62444"/>
<circle cx="283.965" cy="255.958" r="1.62444"/>
<circle cx="283.965" cy="261.201" r="1.62444"/>
<circle cx="283.965" cy="250.524" r="1.62444"/>
<circle cx="283.965" cy="255.266" r="1.62444"/>
<circle cx="283.965" cy="257.403" r="1.62444"/>
<circle cx="283.965" cy="259.686" r="1.62444"/>
<circle cx="283.965" cy="266.513" r="1.62444"/>
<circle cx="283.965" cy="260.567" r="1.62444"/>
<circle cx="283.965" cy="245.061" r="1.62444"/>
<circle cx="283.965" cy="244.757" r="1.62444"/>
<circle cx="283.965" cy="255.77" r="1.62444"/>
<circle cx="283.965" cy="248.852" r="1.62444"/>
<circle cx="283.965" cy="234.503" r="1.62444"/>
<circle cx="283.965" cy="256.594" r="1.62444"/>
<circle cx="283.965" cy="237.085" r="1.62444"/>
<circle cx="283.965" cy="240.035" r="1.62444"/>
<circle cx="283.965" cy="248.47" r="1.62444"/>
<circle cx="283.965" cy="231.76" r="1.62444"/>
<circle cx="283.965" cy="252.977" r="1.62444"/>
<circle cx="283.965" cy="249.726" r="1.62444"/>
<circle cx="283.965" cy="279.267" r="1.62444"/>
<circle cx="283.965" cy="246.561" r="1.62444"/>
<circle cx="283.965" cy="253.463" r="1.62444"/>
<circle cx="283.965" cy="229.379" r="1.62444"/>
<circle cx="283.965" cy="239.217" r="1.62444"/>
<circle cx="283.965" cy="244.715" r="1.62444"/>
<circle cx="283.965" cy="243.486" r="1.62444"/>
<circle cx="283.965" cy="237.66" r="1.62444"/>
<circle cx="283.965" cy="271.417" r="1.62444"/>
<circle cx="283.965" cy="250.506" r="1.62444"/>
<circle cx="283.965" cy="241.86" r="1.62444"/>
<circle cx="283.965" cy="237.29" r="1.62444"/>
<circle cx="283.965" cy="246.199" r="1.62444"/>
<circle cx="283.965" cy="241.977" r="1.62444"/>
<circle cx="283.965" cy="260.992" r="1.62444"/>
<circle cx="283.965" cy="260.255" r="1.62444"/>
<circle cx="283.965" cy="228.04" r="1.62444"/>
<circle cx="283.965" cy="218.833" r="1.62444"/>
<circle cx="283.965" cy="258.912" r="1.62444"/>
<circle cx="283.965" cy="250.193" r="1.62444"/>
<circle cx="283.965" cy="260.423" r="1.62444"/>
<circle cx="283.965" cy="250.314" r="1.62444"/>
<circle cx="283.965" cy="258.999" r="1.62444"/>
<circle cx="283.965" cy="249.249" r="1.62444"/>
<circle cx="283.965" cy="251.228" r="1.62444"/>
<circle cx="283.965" cy="253.258" r="1.62444"/>
<circle cx="283.965" cy="273.298" r="1.62444"/>
<circle cx="283.965" cy="247.014" r="1.62444"/>
<circle cx="283.965" cy="236.34" r="1.62444"/>
<circle cx="283.965" cy="248.468" r="1.62444"/>
<circle cx="283.965" cy="229.777" r="1.62444"/>
<circle cx="283.965" cy="242.255" r="1.62444"/>
<circle cx="283.965" cy="251.892" r="1.62444"/>
<circle cx="283.965" cy="253.121" r="1.62444"/>
<circle cx="283.965" cy="262.858" r="1.62444"/>
<circle cx="283.965" cy="240.766" r="1.62444"/>
<circle cx="283.965" cy="262.017" r="1.62444"/>
<circle cx="283.965" cy="249.076" r="1.62444"/>
<circle cx="283.965" cy="270.359" r="1.62444"/>
<circle cx="283.965" cy="256.228" r="1.62444"/>
<circle cx="283.965" cy="244.024" r="1.62444"/>
<circle cx="283.965" cy="277.401" r="1.62444"/>
<circle cx="283.965" cy="241.107" r="1.62444"/>
<circle cx="283.965" cy="233.846" r="1.62444"/>
<circle cx="283.965" cy="250.557" r="1.62444"/>
<circle cx="283.965" cy="239.615" r="1.62444"/>
<circle cx="283.965" cy="246.898" r="1.62444"/>
<circle cx="283.965" cy="258.462" r="1.62444"/>
<circle cx="283.965" cy="244.123" r="1.62444"/>
<circle cx="283.965" cy="251.861" r="1.62444"/>
<circle cx="283.965" cy="269.224" r="1.62444"/>
<circle cx="283.965" cy="238.978" r="1.62444"/>
<circle cx="283.965" cy="241.705" r="1.62444"/>
<circle cx="283.965" cy="249.909" r="1.62444"/>
<circle cx="283.965" cy="254.701" r="1.62444"/>
<circle cx="283.965" cy="265.825" r="1.62444"/>
<circle cx="283.965" cy="228.331" r="1.62444"/>
<circle cx="283.965" cy="253.205" r="1.62444"/>
<circle cx="283.965" cy="255.522" r="1.62444"/>
<circle cx="283.965" cy="234.676" r="1.62444"/>
<circle cx="283.965" cy="267.421" r="1.62444"/>
<circle cx="283.965" cy="235.644" r="1.62444"/>
<circle cx="283.965" cy="267.975" r="1.62444"/>
<circle cx="283.965" cy="253.562" r="1.62444"/>
<circle cx="283.965" cy="258.415" r="1.62444"/>
<circle cx="283.965" cy="247.589" r="1.62444"/>
<circle cx="283.965" cy="245.213" r="1.62444"/>
<circle cx="283.965" cy="256.898" r="1.62444"/>
<circle cx="283.965" cy="274.9" r="1.62444"/>
<circle cx="283.965" cy="277.23" r="1.62444"/>
<circle cx="283.965" cy="220.945" r="1.62444"/>
<circle cx="283.965" cy="274.092" r="1.62444"/>
<circle cx="283.965" cy="225.87" r="1.62444"/>
<circle cx="283.965" cy="235.683" r="1.62444"/>
<circle cx="283.965" cy="233.76" r="1.62444"/>
<circle cx="283.965" cy="212.882" r="1.62444"/>
<circle cx="283.965" cy="229.251" r="1.62444"/>
<circle cx="283.965" cy="231.072" r="1.62444"/>
<circle cx="283.965" cy="238.556" r="1.62444"/>
<circle cx="283.965" cy="211.885" r="1.62444"/>
<circle cx="283.965" cy="241.75" r="1.62444"/>
<circle cx="283.965" cy="266.647" r="1.62444"/>
<circle cx="283.965" cy="256.735" r="1.62444"/>
<circle cx="283.965" cy="261.263" r="1.62444"/>
<circle cx="283.965" cy="231.093" r="1.62444"/>
<circle cx="283.965" cy="264.905" r="1.62444"/>
<circle cx="283.965" cy="257.171" r="1.62444"/>
<circle cx="283.965" cy="257.567" r="1.62444"/>
<circle cx="283.965" cy="280.79" r="1.62444"/>
<circle cx="283.965" cy="239.247" r="1.62444"/>
<circle cx="283.965" cy="276.781" r="1.62444"/>
<circle cx="283.965" cy="259.807" r="1.62444"/>
<circle cx="283.965" cy="245.357" r="1.62444"/>
<circle cx="283.965" cy="244.212" r="1.62444"/>
<circle cx="283.965" cy="253.624" r="1.62444"/>
<circle cx="283.965" cy="255.752" r="1.62444"/>
<circle cx="283.965" cy="254.854" r="1.62444"/>
<circle cx="283.965" cy="250.514" r="1.62444"/>
<circle cx="283.965" cy="240.972" r="1.62444"/>
<circle cx="283.965" cy="249.063" r="1.62444"/>
<circle cx="283.965" cy="230.606" r="1.62444"/>
<circle cx="283.965" cy="255.442" r="1.62444"/>
<circle cx="283.965" cy="307.716" r="1.62444"/>
<circle cx="283.965" cy="248.26" r="1.62444"/>
<circle cx="283.965" cy="241.171" r="1.62444"/>
<circle cx="283.965" cy="245.782" r="1.62444"/>
<circle cx="283.965" cy="249.819" r="1.62444"/>
<circle cx="283.965" cy="224.025" r="1.62444"/>
<circle cx="283.965" cy="254.346" r="1.62444"/>
<circle cx="283.965" cy="259.41" r="1.62444"/>
<circle cx="283.965" cy="272.81" r="1.62444"/>
<circle cx="283.965" cy="238.029" r="1.62444"/>
<circle cx="283.965" cy="226.737" r="1.62444"/>
<circle cx="283.965" cy="238.169" r="1.62444"/>
<circle cx="283.965" cy="245.463" r="1.62444"/>
<circle cx="283.965" cy="236.348" r="1.62444"/>
<circle cx="283.965" cy="237.697" r="1.62444"/>
<circle cx="283.965" cy="242.517" r="1.62444"/>
<circle cx="283.965" cy="230.127" r="1.62444"/>
<circle cx="283.965" cy="219.047" r="1.62444"/>
<circle cx="283.965" cy="243.337" r="1.62444"/>
<circle cx="283.965" cy="257.43" r="1.62444"/>
<circle cx="283.965" cy="219.215" r="1.62444"/>
<circle cx="283.965" cy="246.801" r="1.62444"/>
<circle cx="283.965" cy="262.04" r="1.62444"/>
<circle cx="283.965" cy="254.182" r="1.62444"/>
<circle cx="283.965" cy="262.487" r="1.62444"/>
<circle cx="283.965" cy="272.056" r="1.62444"/>
<circle cx="283.965" cy="265.681" r="1.62444"/>
<circle cx="283.965" cy="264.796" r="1.62444"/>
<circle cx="283.965" cy="263.712" r="1.62444"/>
<circle cx="283.965" cy="223.463" r="1.62444"/>
<circle cx="283.965" cy="251.165" r="1.62444"/>
<circle cx="283.965" cy="275.688" r="1.62444"/>
<circle cx="283.965" cy="247.733" r="1.62444"/>
<circle cx="283.965" cy="237.889" r="1.62444"/>
<circle cx="283.965" cy="237.761" r="1.62444"/>
<circle cx="283.965" cy="287.609" r="1.62444"/>
<circle cx="283.965" cy="279.888" r="1.62444"/>
<circle cx="283.965" cy="268.629" r="1.62444"/>
<circle cx="283.965" cy="271.079" r="1.62444"/>
<circle cx="283.965" cy="246.227" r="1.62444"/>
<circle cx="283.965" cy="243.455" r="1.62444"/>
<circle cx="283.965" cy="250.457" r="1.62444"/>
<circle cx="283.965" cy="242.226" r="1.62444"/>
<circle cx="283.965" cy="250.448" r="1.62444"/>
<circle cx="283.965" cy="243.235" r="1.62444"/>
<circle cx="283.965" cy="238.199" r="1.62444"/>
<circle cx="283.965" cy="263.935" r="1.62444"/>
<circle cx="283.965" cy="251.378" r="1.62444"/>
<circle cx="283.965" cy="253.934" r="1.62444"/>
<circle cx="283.965" cy="226.373" r="1.62444"/>
<circle cx="283.965" cy="251.994" r="1.62444"/>
<circle cx="283.965" cy="233.232" r="1.62444"/>
<circle cx="283.965" cy="273.019" r="1.62444"/>
<circle cx="283.965" cy="227.444" r="1.62444"/>
<circle cx="283.965" cy="247.898" r="1.62444"/>
<circle cx="283.965" cy="263.727" r="1.62444"/>
<circle cx="283.965" cy="253.201" r="1.62444"/>
<circle cx="283.965" cy="252.741" r="1.62444"/>
<circle cx="283.965" cy="237.522" r="1.62444"/>
<circle cx="283.965" cy="202.64" r="1.62444"/>
<circle cx="283.965" cy="216.815" r="1.62444"/>
<circle cx="283.965" cy="227.98" r="1.62444"/>
<circle cx="283.965" cy="339.517" r="1.62444"/>
<circle cx="283.965" cy="230.651" r="1.62444"/>
<circle cx="283.965" cy="244.39" r="1.62444"/>
<circle cx="283.965" cy="233.101" r="1.62444"/>
<circle cx="283.965" cy="248.854" r="1.62444"/>
<circle cx="283.965" cy="234.94" r="1.62444"/>
<circle cx="283.965" cy="232.716" r="1.62444"/>
<circle cx="283.965" cy="242.946" r="1.62444"/>
<circle cx="283.965" cy="249.669" r="1.62444"/>
<circle cx="283.965" cy="243.369" r="1.62444"/>
<circle cx="283.965" cy="234.522" r="1.62444"/>
<circle cx="283.965" cy="226.844" r="1.62444"/>
<circle cx="283.965" cy="228.338" r="1.62444"/>
<circle cx="283.965" cy="209.794" r="1.62444"/>
<circle cx="283.965" cy="211.231" r="1.62444"/>
<circle cx="283.965" cy="218.559" r="1.62444"/>
<circle cx="283.965" cy="230.826" r="1.62444"/>
<circle cx="283.965" cy="200.988" r="1.62444"/>
<circle cx="283.965" cy="211.533" r="1.62444"/>
<circle cx="283.965" cy="217.864" r="1.62444"/>
<circle cx="283.965" cy="219.836" r="1.62444"/>
<circle cx="283.965" cy="216.656" r="1.62444"/>
<circle cx="331.209" cy="217.034" r="1.62444"/>
<circle cx="331.209" cy="269.328" r="1.62444"/>
<circle cx="331.209" cy="197.578" r="1.62444"/>
<circle cx="331.209" cy="226.856" r="1.62444"/>
<circle cx="283.965" cy="243.842" r="1.62444"/>
<circle cx="331.209" cy="235.498" r="1.62444"/>
<circle cx="331.209" cy="222.101" r="1.62444"/>
<circle cx="331.209" cy="231.565" r="1.62444"/>
<circle cx="331.209" cy="217.089" r="1.62444"/>
<circle cx="331.209" cy="229.532" r="1.62444"/>
<circle cx="331.209" cy="243.231" r="1.62444"/>
<circle cx="331.209" cy="238.528" r="1.62444"/>
<circle cx="331.209" cy="239.787" r="1.62444"/>
<circle cx="331.209" cy="240.087" r="1.62444"/>
<circle cx="331.209" cy="257.517" r="1.62444"/>
<circle cx="331.209" cy="238.472" r="1.62444"/>
<circle cx="331.209" cy="251.866" r="1.62444"/>
<circle cx="331.209" cy="274.834" r="1.62444"/>
<circle cx="331.209" cy="223.354" r="1.62444"/>
<circle cx="331.209" cy="219.377" r="1.62444"/>
<circle cx="331.209" cy="240.591" r="1.62444"/>
<circle cx="331.209" cy="257.501" r="1.62444"/>
<circle cx="331.209" cy="241.536" r="1.62444"/>
<circle cx="331.209" cy="249.075" r="1.62444"/>
<circle cx="331.209" cy="264.765" r="1.62444"/>
<circle cx="331.209" cy="235.818" r="1.62444"/>
<circle cx="331.209" cy="237.331" r="1.62444"/>
<circle cx="331.209" cy="190.767" r="1.62444"/>
<circle cx="331.209" cy="241.604" r="1.62444"/>
<circle cx="331.209" cy="257.5" r="1.62444"/>
<circle cx="331.209" cy="268.562" r="1.62444"/>
<circle cx="331.209" cy="248.846" r="1.62444"/>
<circle cx="331.209" cy="244.218" r="1.62444"/>
<circle cx="331.209" cy="235.672" r="1.62444"/>
<circle cx="331.209" cy="220.721" r="1.62444"/>
<circle cx="331.209" cy="207.837" r="1.62444"/>
<circle cx="331.209" cy="222.195" r="1.62444"/>
<circle cx="331.209" cy="235.213" r="1.62444"/>
<circle cx="331.209" cy="217.776" r="1.62444"/>
<circle cx="331.209" cy="222.82" r="1.62444"/>
<circle cx="331.209" cy="255.873" r="1.62444"/>
<circle cx="331.209" cy="234.949" r="1.62444"/>
<circle cx="331.209" cy="222.64" r="1.62444"/>
<circle cx="331.209" cy="258.719" r="1.62444"/>
<circle cx="331.209" cy="222.748" r="1.62444"/>
<circle cx="331.209" cy="238.225" r="1.62444"/>
<circle cx="331.209" cy="245.351" r="1.62444"/>
<circle cx="331.209" cy="210.973" r="1.62444"/>
<circle cx="331.209" cy="241.268" r="1.62444"/>
<circle cx="331.209" cy="224.376" r="1.62444"/>
<circle cx="331.209" cy="221.11" r="1.62444"/>
<circle cx="331.209" cy="210.88" r="1.62444"/>
<circle cx="331.209" cy="205.591" r="1.62444"/>
<circle cx="331.209" cy="223.313" r="1.62444"/>
<circle cx="331.209" cy="225.67" r="1.62444"/>
<circle cx="331.209" cy="222.194" r="1.62444"/>
<circle cx="331.209" cy="254.657" r="1.62444"/>
<circle cx="331.209" cy="239.043" r="1.62444"/>
<circle cx="331.209" cy="246.765" r="1.62444"/>
<circle cx="331.209" cy="248.547" r="1.62444"/>
<circle cx="331.209" cy="213.635" r="1.62444"/>
<circle cx="331.209" cy="246.698" r="1.62444"/>
<circle cx="283.965" cy="232.211" r="1.62444"/>
<circle cx="331.209" cy="263.871" r="1.62444"/>
<circle cx="331.209" cy="250.492" r="1.62444"/>
<circle cx="283.965" cy="211.532" r="1.62444"/>
<circle cx="331.209" cy="255.774" r="1.62444"/>
<circle cx="331.209" cy="242.925" r="1.62444"/>
<circle cx="283.965" cy="208.196" r="1.62444"/>
<circle cx="331.209" cy="226.548" r="1.62444"/>
<circle cx="331.209" cy="269.189" r="1.62444"/>
<circle cx="331.209" cy="231.731" r="1.62444"/>
<circle cx="331.209" cy="230.402" r="1.62444"/>
<circle cx="331.209" cy="237.719" r="1.62444"/>
<circle cx="331.209" cy="217.826" r="1.62444"/>
<circle cx="331.209" cy="207.42" r="1.62444"/>
<circle cx="331.209" cy="229.337" r="1.62444"/>
<circle cx="331.209" cy="243.424" r="1.62444"/>
<circle cx="331.209" cy="206.866" r="1.62444"/>
<circle cx="331.209" cy="258.539" r="1.62444"/>
<circle cx="331.209" cy="252.378" r="1.62444"/>
<circle cx="331.209" cy="232.241" r="1.62444"/>
<circle cx="331.209" cy="210.089" r="1.62444"/>
<circle cx="331.209" cy="233.64" r="1.62444"/>
<circle cx="331.209" cy="250.871" r="1.62444"/>
<circle cx="331.209" cy="245.366" r="1.62444"/>
<circle cx="331.209" cy="222.926" r="1.62444"/>
<circle cx="331.209" cy="233.405" r="1.62444"/>
<circle cx="331.209" cy="244.975" r="1.62444"/>
<circle cx="331.209" cy="251.75" r="1.62444"/>
<circle cx="331.209" cy="242.228" r="1.62444"/>
<circle cx="331.209" cy="260.522" r="1.62444"/>
<circle cx="331.209" cy="229.892" r="1.62444"/>
<circle cx="331.209" cy="244.32" r="1.62444"/>
<circle cx="331.209" cy="242.025" r="1.62444"/>
<circle cx="331.209" cy="248.159" r="1.62444"/>
<circle cx="331.209" cy="244.609" r="1.62444"/>
<circle cx="331.209" cy="234.278" r="1.62444"/>
<circle cx="331.209" cy="241.794" r="1.62444"/>
<circle cx="331.209" cy="245.218" r="1.62444"/>
<circle cx="331.209" cy="262.642" r="1.62444"/>
<circle cx="331.209" cy="239.445" r="1.62444"/>
<circle cx="331.209" cy="230.336" r="1.62444"/>
<circle cx="331.209" cy="232.892" r="1.62444"/>
<circle cx="331.209" cy="257.683" r="1.62444"/>
<circle cx="331.209" cy="248.856" r="1.62444"/>
<circle cx="331.209" cy="237.204" r="1.62444"/>
<circle cx="331.209" cy="244.469" r="1.62444"/>
<circle cx="331.209" cy="281.411" r="1.62444"/>
<circle cx="331.209" cy="247.451" r="1.62444"/>
<circle cx="331.209" cy="252.577" r="1.62444"/>
<circle cx="331.209" cy="265.84" r="1.62444"/>
<circle cx="331.209" cy="233.341" r="1.62444"/>
<circle cx="331.209" cy="255.224" r="1.62444"/>
<circle cx="331.209" cy="228.424" r="1.62444"/>
<circle cx="331.209" cy="251.829" r="1.62444"/>
<circle cx="331.209" cy="243.313" r="1.62444"/>
<circle cx="331.209" cy="258.96" r="1.62444"/>
<circle cx="331.209" cy="292.807" r="1.62444"/>
<circle cx="331.209" cy="249.821" r="1.62444"/>
<circle cx="331.209" cy="238.674" r="1.62444"/>
<circle cx="331.209" cy="245.721" r="1.62444"/>
<circle cx="331.209" cy="250.724" r="1.62444"/>
<circle cx="331.209" cy="265.236" r="1.62444"/>
<circle cx="331.209" cy="248.671" r="1.62444"/>
<circle cx="331.209" cy="216.178" r="1.62444"/>
<circle cx="331.209" cy="241.328" r="1.62444"/>
<circle cx="331.209" cy="238.833" r="1.62444"/>
<circle cx="331.209" cy="231.425" r="1.62444"/>
<circle cx="331.209" cy="249.128" r="1.62444"/>
<circle cx="331.209" cy="240.584" r="1.62444"/>
<circle cx="331.209" cy="212.242" r="1.62444"/>
<circle cx="331.209" cy="252.558" r="1.62444"/>
<circle cx="331.209" cy="253.983" r="1.62444"/>
<circle cx="331.209" cy="217.759" r="1.62444"/>
<circle cx="331.209" cy="248.244" r="1.62444"/>
<circle cx="331.209" cy="243.347" r="1.62444"/>
<circle cx="331.209" cy="246.333" r="1.62444"/>
<circle cx="331.209" cy="231.651" r="1.62444"/>
<circle cx="331.209" cy="258.051" r="1.62444"/>
<circle cx="331.209" cy="233.606" r="1.62444"/>
<circle cx="331.209" cy="242.137" r="1.62444"/>
<circle cx="331.209" cy="263.412" r="1.62444"/>
<circle cx="331.209" cy="251.997" r="1.62444"/>
<circle cx="331.209" cy="235.97" r="1.62444"/>
<circle cx="331.209" cy="234.949" r="1.62444"/>
<circle cx="331.209" cy="225.695" r="1.62444"/>
<circle cx="331.209" cy="246.078" r="1.62444"/>
<circle cx="331.209" cy="242.559" r="1.62444"/>
<circle cx="331.209" cy="250.919" r="1.62444"/>
<circle cx="331.209" cy="209.958" r="1.62444"/>
<circle cx="331.209" cy="237.825" r="1.62444"/>
<circle cx="331.209" cy="227.074" r="1.62444"/>
<circle cx="331.209" cy="269.774" r="1.62444"/>
<circle cx="331.209" cy="239.674" r="1.62444"/>
<circle cx="331.209" cy="255.017" r="1.62444"/>
<circle cx="331.209" cy="256.75" r="1.62444"/>
<circle cx="331.209" cy="253.674" r="1.62444"/>
<circle cx="331.209" cy="282.894" r="1.62444"/>
<circle cx="331.209" cy="270.19" r="1.62444"/>
<circle cx="331.209" cy="295.171" r="1.62444"/>
<circle cx="331.209" cy="224.805" r="1.62444"/>
<circle cx="331.209" cy="238.258" r="1.62444"/>
<circle cx="331.209" cy="219.748" r="1.62444"/>
<circle cx="331.209" cy="202.164" r="1.62444"/>
<circle cx="331.209" cy="241.203" r="1.62444"/>
<circle cx="331.209" cy="239.03" r="1.62444"/>
<circle cx="331.209" cy="233.71" r="1.62444"/>
<circle cx="331.209" cy="214.665" r="1.62444"/>
<circle cx="331.209" cy="203.005" r="1.62444"/>
<circle cx="331.209" cy="221.556" r="1.62444"/>
<circle cx="331.209" cy="245.05" r="1.62444"/>
<circle cx="331.209" cy="247.5" r="1.62444"/>
<circle cx="331.209" cy="214.641" r="1.62444"/>
<circle cx="331.209" cy="218.378" r="1.62444"/>
<circle cx="331.209" cy="214.936" r="1.62444"/>
<circle cx="331.209" cy="238.358" r="1.62444"/>
<circle cx="331.209" cy="243" r="1.62444"/>
<circle cx="331.209" cy="242.324" r="1.62444"/>
<circle cx="331.209" cy="236.556" r="1.62444"/>
<circle cx="331.209" cy="229.069" r="1.62444"/>
<circle cx="331.209" cy="231.901" r="1.62444"/>
<circle cx="331.209" cy="224.185" r="1.62444"/>
<circle cx="331.209" cy="244.665" r="1.62444"/>
<circle cx="331.209" cy="231.98" r="1.62444"/>
<circle cx="331.209" cy="250.496" r="1.62444"/>
<circle cx="331.209" cy="210.453" r="1.62444"/>
<circle cx="331.209" cy="254.552" r="1.62444"/>
<circle cx="331.209" cy="226.163" r="1.62444"/>
<circle cx="331.209" cy="240.119" r="1.62444"/>
<circle cx="331.209" cy="244.805" r="1.62444"/>
<circle cx="331.209" cy="229.665" r="1.62444"/>
<circle cx="331.209" cy="249.452" r="1.62444"/>
<circle cx="331.209" cy="208.021" r="1.62444"/>
<circle cx="331.209" cy="246.931" r="1.62444"/>
<circle cx="331.209" cy="265.877" r="1.62444"/>
<circle cx="331.209" cy="233.596" r="1.62444"/>
<circle cx="331.209" cy="238.001" r="1.62444"/>
<circle cx="331.209" cy="248.578" r="1.62444"/>
<circle cx="331.209" cy="244.389" r="1.62444"/>
<circle cx="331.209" cy="243.821" r="1.62444"/>
<circle cx="331.209" cy="243.281" r="1.62444"/>
<circle cx="331.209" cy="242.707" r="1.62444"/>
<circle cx="331.209" cy="262.425" r="1.62444"/>
<circle cx="331.209" cy="220.521" r="1.62444"/>
<circle cx="236.72" cy="241.669" r="1.62444"/>
<circle cx="331.209" cy="235.938" r="1.62444"/>
<circle cx="236.72" cy="253.945" r="1.62444"/>
<circle cx="236.72" cy="237.061" r="1.62444"/>
<circle cx="331.209" cy="235.128" r="1.62444"/>
<circle cx="331.209" cy="229.707" r="1.62444"/>
<circle cx="331.209" cy="231.565" r="1.62444"/>
<circle cx="331.209" cy="234.926" r="1.62444"/>
<circle cx="331.209" cy="261.651" r="1.62444"/>
<circle cx="331.209" cy="239.568" r="1.62444"/>
<circle cx="331.209" cy="250.747" r="1.62444"/>
<circle cx="331.209" cy="274.855" r="1.62444"/>
<circle cx="331.209" cy="231.416" r="1.62444"/>
<circle cx="331.209" cy="204.349" r="1.62444"/>
<circle cx="331.209" cy="270.11" r="1.62444"/>
<circle cx="331.209" cy="256.259" r="1.62444"/>
<circle cx="331.209" cy="228.296" r="1.62444"/>
<circle cx="331.209" cy="229.729" r="1.62444"/>
<circle cx="331.209" cy="261.08" r="1.62444"/>
<circle cx="331.209" cy="223.485" r="1.62444"/>
<circle cx="331.209" cy="222.285" r="1.62444"/>
<circle cx="331.209" cy="267.137" r="1.62444"/>
<circle cx="331.209" cy="231.13" r="1.62444"/>
<circle cx="236.72" cy="257.141" r="1.62444"/>
<circle cx="236.72" cy="241.953" r="1.62444"/>
<circle cx="236.72" cy="237.715" r="1.62444"/>
<circle cx="236.72" cy="247.913" r="1.62444"/>
<circle cx="236.72" cy="220.217" r="1.62444"/>
<circle cx="236.72" cy="229.42" r="1.62444"/>
<circle cx="236.72" cy="240.548" r="1.62444"/>
<circle cx="236.72" cy="265.31" r="1.62444"/>
<circle cx="236.72" cy="222.141" r="1.62444"/>
<circle cx="236.72" cy="231.256" r="1.62444"/>
<circle cx="236.72" cy="264.601" r="1.62444"/>
<circle cx="236.72" cy="251.305" r="1.62444"/>
<circle cx="236.72" cy="244.262" r="1.62444"/>
<circle cx="236.72" cy="217.082" r="1.62444"/>
<circle cx="236.72" cy="260.558" r="1.62444"/>
<circle cx="236.72" cy="242.747" r="1.62444"/>
<circle cx="236.72" cy="228.475" r="1.62444"/>
<circle cx="236.72" cy="249.43" r="1.62444"/>
<circle cx="236.72" cy="237.032" r="1.62444"/>
<circle cx="236.72" cy="240.403" r="1.62444"/>
<circle cx="236.72" cy="260.503" r="1.62444"/>
<circle cx="236.72" cy="246.671" r="1.62444"/>
<circle cx="236.72" cy="219.881" r="1.62444"/>
<circle cx="236.72" cy="260.197" r="1.62444"/>
<circle cx="236.72" cy="240.125" r="1.62444"/>
<circle cx="236.72" cy="203.796" r="1.62444"/>
<circle cx="236.72" cy="209.008" r="1.62444"/>
<circle cx="236.72" cy="193.635" r="1.62444"/>
<circle cx="236.72" cy="229.557" r="1.62444"/>
<circle cx="236.72" cy="195.357" r="1.62444"/>
<circle cx="236.72" cy="207.257" r="1.62444"/>
<circle cx="236.72" cy="223.411" r="1.62444"/>
<circle cx="236.72" cy="204.028" r="1.62444"/>
<circle cx="236.72" cy="205.599" r="1.62444"/>
<circle cx="236.72" cy="219.831" r="1.62444"/>
<circle cx="236.72" cy="260.189" r="1.62444"/>
<circle cx="236.72" cy="252.948" r="1.62444"/>
<circle cx="236.72" cy="243.916" r="1.62444"/>
<circle cx="236.72" cy="188.992" r="1.62444"/>
<circle cx="236.72" cy="271.733" r="1.62444"/>
<circle cx="236.72" cy="226.073" r="1.62444"/>
<circle cx="236.72" cy="228.12" r="1.62444"/>
<circle cx="236.72" cy="212.925" r="1.62444"/>
<circle cx="236.72" cy="225.595" r="1.62444"/>
<circle cx="236.72" cy="232.973" r="1.62444"/>
<circle cx="236.72" cy="247.367" r="1.62444"/>
<circle cx="236.72" cy="208.982" r="1.62444"/>
<circle cx="236.72" cy="249.656" r="1.62444"/>
<circle cx="236.72" cy="246.486" r="1.62444"/>
<circle cx="236.72" cy="268.057" r="1.62444"/>
<circle cx="236.72" cy="219.436" r="1.62444"/>
<circle cx="236.72" cy="229.141" r="1.62444"/>
<circle cx="236.72" cy="258.618" r="1.62444"/>
<circle cx="236.72" cy="242.075" r="1.62444"/>
<circle cx="236.72" cy="234.897" r="1.62444"/>
<circle cx="236.72" cy="255.492" r="1.62444"/>
<circle cx="236.72" cy="256.956" r="1.62444"/>
<circle cx="236.72" cy="234.726" r="1.62444"/>
<circle cx="236.72" cy="250.935" r="1.62444"/>
<circle cx="236.72" cy="232.86" r="1.62444"/>
<circle cx="236.72" cy="273.895" r="1.62444"/>
<circle cx="236.72" cy="223.708" r="1.62444"/>
<circle cx="236.72" cy="203.682" r="1.62444"/>
<circle cx="236.72" cy="234.903" r="1.62444"/>
<circle cx="236.72" cy="244.984" r="1.62444"/>
<circle cx="236.72" cy="223.39" r="1.62444"/>
<circle cx="236.72" cy="251.524" r="1.62444"/>
<circle cx="236.72" cy="267.707" r="1.62444"/>
<circle cx="236.72" cy="269.366" r="1.62444"/>
<circle cx="236.72" cy="258.926" r="1.62444"/>
<circle cx="236.72" cy="227.497" r="1.62444"/>
<circle cx="236.72" cy="239.366" r="1.62444"/>
<circle cx="236.72" cy="264.128" r="1.62444"/>
<circle cx="236.72" cy="259.681" r="1.62444"/>
<circle cx="236.72" cy="241.231" r="1.62444"/>
<circle cx="236.72" cy="218.154" r="1.62444"/>
<circle cx="236.72" cy="243.492" r="1.62444"/>
<circle cx="236.72" cy="254.443" r="1.62444"/>
<circle cx="236.72" cy="250.322" r="1.62444"/>
<circle cx="236.72" cy="250.411" r="1.62444"/>
<circle cx="236.72" cy="211.463" r="1.62444"/>
<circle cx="236.72" cy="227.266" r="1.62444"/>
<circle cx="236.72" cy="232.18" r="1.62444"/>
<circle cx="236.72" cy="268.197" r="1.62444"/>
<circle cx="236.72" cy="219.754" r="1.62444"/>
<circle cx="236.72" cy="251.755" r="1.62444"/>
<circle cx="236.72" cy="66.3542" r="1.62444"/>
<circle cx="236.72" cy="217.823" r="1.62444"/>
<circle cx="236.72" cy="209.463" r="1.62444"/>
<circle cx="236.72" cy="252.217" r="1.62444"/>
<circle cx="236.72" cy="243.577" r="1.62444"/>
<circle cx="236.72" cy="254.112" r="1.62444"/>
<circle cx="236.72" cy="345.716" r="1.62444"/>
<circle cx="236.72" cy="233.851" r="1.62444"/>
<circle cx="236.72" cy="214.93" r="1.62444"/>
<circle cx="236.72" cy="253.367" r="1.62444"/>
<circle cx="236.72" cy="217.269" r="1.62444"/>
<circle cx="236.72" cy="212.755" r="1.62444"/>
<circle cx="236.72" cy="221.712" r="1.62444"/>
<circle cx="236.72" cy="252.988" r="1.62444"/>
<circle cx="236.72" cy="218.707" r="1.62444"/>
<circle cx="236.72" cy="232.918" r="1.62444"/>
<circle cx="236.72" cy="204.185" r="1.62444"/>
<circle cx="236.72" cy="201.443" r="1.62444"/>
<circle cx="236.72" cy="261.533" r="1.62444"/>
<circle cx="236.72" cy="248.757" r="1.62444"/>
<circle cx="236.72" cy="236.402" r="1.62444"/>
<circle cx="236.72" cy="241.406" r="1.62444"/>
<circle cx="236.72" cy="240.704" r="1.62444"/>
<circle cx="236.72" cy="255.594" r="1.62444"/>
<circle cx="236.72" cy="232.706" r="1.62444"/>
<circle cx="236.72" cy="242.668" r="1.62444"/>
<circle cx="236.72" cy="305.695" r="1.62444"/>
<circle cx="236.72" cy="294.876" r="1.62444"/>
<circle cx="236.72" cy="208.714" r="1.62444"/>
<circle cx="236.72" cy="216.899" r="1.62444"/>
<circle cx="236.72" cy="205.38" r="1.62444"/>
<circle cx="236.72" cy="213.163" r="1.62444"/>
<circle cx="236.72" cy="201.265" r="1.62444"/>
<circle cx="236.72" cy="190.457" r="1.62444"/>
<circle cx="236.72" cy="190.691" r="1.62444"/>
<circle cx="236.72" cy="212.551" r="1.62444"/>
<circle cx="236.72" cy="214.174" r="1.62444"/>
<circle cx="236.72" cy="221.984" r="1.62444"/>
<circle cx="236.72" cy="193.923" r="1.62444"/>
<circle cx="236.72" cy="239.569" r="1.62444"/>
<circle cx="236.72" cy="208.724" r="1.62444"/>
<circle cx="236.72" cy="209.107" r="1.62444"/>
<circle cx="236.72" cy="227.77" r="1.62444"/>
<circle cx="236.72" cy="194.833" r="1.62444"/>
<circle cx="236.72" cy="235.541" r="1.62444"/>
<circle cx="236.72" cy="230.449" r="1.62444"/>
<circle cx="236.72" cy="275.728" r="1.62444"/>
<circle cx="236.72" cy="257.907" r="1.62444"/>
<circle cx="236.72" cy="243.574" r="1.62444"/>
<circle cx="236.72" cy="237.732" r="1.62444"/>
<circle cx="236.72" cy="244.306" r="1.62444"/>
<circle cx="236.72" cy="235.376" r="1.62444"/>
<circle cx="236.72" cy="233.874" r="1.62444"/>
<circle cx="236.72" cy="246.559" r="1.62444"/>
<circle cx="236.72" cy="238.884" r="1.62444"/>
<circle cx="236.72" cy="242.702" r="1.62444"/>
<circle cx="236.72" cy="225.648" r="1.62444"/>
<circle cx="236.72" cy="235.28" r="1.62444"/>
<circle cx="236.72" cy="273.495" r="1.62444"/>
<circle cx="236.72" cy="237.439" r="1.62444"/>
<circle cx="236.72" cy="219.288" r="1.62444"/>
<circle cx="236.72" cy="248.295" r="1.62444"/>
<circle cx="236.72" cy="193.739" r="1.62444"/>
<circle cx="236.72" cy="234.071" r="1.62444"/>
<circle cx="236.72" cy="256.196" r="1.62444"/>
<circle cx="236.72" cy="262.387" r="1.62444"/>
<circle cx="236.72" cy="230.111" r="1.62444"/>
<circle cx="236.72" cy="225.123" r="1.62444"/>
<circle cx="236.72" cy="192.217" r="1.62444"/>
<circle cx="236.72" cy="247.148" r="1.62444"/>
<circle cx="236.72" cy="226.009" r="1.62444"/>
<circle cx="236.72" cy="186.539" r="1.62444"/>
<circle cx="236.72" cy="232.59" r="1.62444"/>
<circle cx="236.72" cy="226.288" r="1.62444"/>
<circle cx="236.72" cy="244.493" r="1.62444"/>
<circle cx="236.72" cy="259.975" r="1.62444"/>
<circle cx="236.72" cy="261.162" r="1.62444"/>
<circle cx="236.72" cy="232.511" r="1.62444"/>
<circle cx="236.72" cy="202.081" r="1.62444"/>
<circle cx="236.72" cy="199.439" r="1.62444"/>
<circle cx="236.72" cy="251.366" r="1.62444"/>
<circle cx="236.72" cy="191.357" r="1.62444"/>
<circle cx="236.72" cy="223.348" r="1.62444"/>
<circle cx="236.72" cy="193.065" r="1.62444"/>
<circle cx="236.72" cy="190.793" r="1.62444"/>
<circle cx="236.72" cy="250.247" r="1.62444"/>
<circle cx="236.72" cy="186.732" r="1.62444"/>
<circle cx="236.72" cy="248.079" r="1.62444"/>
<circle cx="236.72" cy="240.196" r="1.62444"/>
<circle cx="236.72" cy="250.605" r="1.62444"/>
<circle cx="236.72" cy="227.824" r="1.62444"/>
<circle cx="236.72" cy="232.483" r="1.62444"/>
<circle cx="236.72" cy="211.357" r="1.62444"/>
<circle cx="236.72" cy="219.921" r="1.62444"/>
<circle cx="236.72" cy="230.649" r="1.62444"/>
<circle cx="236.72" cy="180.69" r="1.62444"/>
<circle cx="236.72" cy="199.029" r="1.62444"/>
<circle cx="236.72" cy="196.766" r="1.62444"/>
<circle cx="236.72" cy="192.615" r="1.62444"/>
<circle cx="236.72" cy="178.364" r="1.62444"/>
<circle cx="236.72" cy="184.98" r="1.62444"/>
<circle cx="236.72" cy="239.735" r="1.62444"/>
<circle cx="236.72" cy="190.279" r="1.62444"/>
<circle cx="236.72" cy="213.423" r="1.62444"/>
<circle cx="236.72" cy="222.86" r="1.62444"/>
<circle cx="236.72" cy="206.944" r="1.62444"/>
<circle cx="236.72" cy="206.494" r="1.62444"/>
<circle cx="236.72" cy="195.462" r="1.62444"/>
<circle cx="236.72" cy="219.639" r="1.62444"/>
<circle cx="236.72" cy="202.747" r="1.62444"/>
<circle cx="236.72" cy="209.604" r="1.62444"/>
<circle cx="378.453" cy="216.113" r="1.62444"/>
<circle cx="378.453" cy="208.38" r="1.62444"/>
<circle cx="378.453" cy="197.292" r="1.62444"/>
<circle cx="378.453" cy="207.728" r="1.62444"/>
<circle cx="378.453" cy="213.638" r="1.62444"/>
<circle cx="378.453" cy="191.548" r="1.62444"/>
<circle cx="378.453" cy="227.091" r="1.62444"/>
<circle cx="378.453" cy="230.236" r="1.62444"/>
<circle cx="378.453" cy="202.425" r="1.62444"/>
<circle cx="378.453" cy="202.993" r="1.62444"/>
<circle cx="378.453" cy="211.225" r="1.62444"/>
<circle cx="378.453" cy="209.677" r="1.62444"/>
<circle cx="378.453" cy="209.585" r="1.62444"/>
<circle cx="378.453" cy="181.765" r="1.62444"/>
<circle cx="378.453" cy="197.532" r="1.62444"/>
<circle cx="378.453" cy="200.323" r="1.62444"/>
<circle cx="378.453" cy="201.223" r="1.62444"/>
<circle cx="378.453" cy="197.741" r="1.62444"/>
<circle cx="378.453" cy="203.422" r="1.62444"/>
<circle cx="378.453" cy="177.459" r="1.62444"/>
<circle cx="378.453" cy="194.528" r="1.62444"/>
<circle cx="378.453" cy="192.944" r="1.62444"/>
<circle cx="378.453" cy="198.814" r="1.62444"/>
<circle cx="378.453" cy="214.477" r="1.62444"/>
<circle cx="378.453" cy="210.097" r="1.62444"/>
<circle cx="378.453" cy="207.073" r="1.62444"/>
<circle cx="378.453" cy="208.476" r="1.62444"/>
<circle cx="378.453" cy="192.314" r="1.62444"/>
<circle cx="378.453" cy="198.14" r="1.62444"/>
<circle cx="378.453" cy="200.302" r="1.62444"/>
<circle cx="378.453" cy="201.567" r="1.62444"/>
<circle cx="378.453" cy="218.371" r="1.62444"/>
<circle cx="378.453" cy="220.393" r="1.62444"/>
<circle cx="378.453" cy="197.063" r="1.62444"/>
<circle cx="378.453" cy="182.713" r="1.62444"/>
<circle cx="378.453" cy="197.534" r="1.62444"/>
<circle cx="378.453" cy="187.736" r="1.62444"/>
<circle cx="378.453" cy="206.803" r="1.62444"/>
<circle cx="378.453" cy="212.684" r="1.62444"/>
<circle cx="378.453" cy="201.659" r="1.62444"/>
<circle cx="378.453" cy="199.466" r="1.62444"/>
<circle cx="378.453" cy="180.857" r="1.62444"/>
<circle cx="378.453" cy="178.802" r="1.62444"/>
<circle cx="378.453" cy="213.191" r="1.62444"/>
<circle cx="378.453" cy="198.898" r="1.62444"/>
<circle cx="378.453" cy="206.43" r="1.62444"/>
<circle cx="378.453" cy="198.045" r="1.62444"/>
<circle cx="378.453" cy="190.832" r="1.62444"/>
<circle cx="378.453" cy="206.711" r="1.62444"/>
<circle cx="378.453" cy="192.98" r="1.62444"/>
<circle cx="378.453" cy="195.078" r="1.62444"/>
<circle cx="378.453" cy="196.765" r="1.62444"/>
<circle cx="378.453" cy="218.084" r="1.62444"/>
<circle cx="378.453" cy="190.088" r="1.62444"/>
<circle cx="378.453" cy="185.853" r="1.62444"/>
<circle cx="378.453" cy="213.848" r="1.62444"/>
<circle cx="378.453" cy="185.048" r="1.62444"/>
<circle cx="378.453" cy="214.977" r="1.62444"/>
<circle cx="378.453" cy="201.461" r="1.62444"/>
<circle cx="94.9882" cy="209.845" r="1.62444"/>
<circle cx="94.9882" cy="210.559" r="1.62444"/>
<circle cx="94.9882" cy="137.415" r="1.62444"/>
<circle cx="94.9882" cy="246.108" r="1.62444"/>
<circle cx="94.9882" cy="233.273" r="1.62444"/>
<circle cx="94.9882" cy="207.989" r="1.62444"/>
<circle cx="94.9882" cy="213.243" r="1.62444"/>
<circle cx="94.9882" cy="229.691" r="1.62444"/>
<circle cx="94.9882" cy="242.738" r="1.62444"/>
<circle cx="94.9882" cy="224.195" r="1.62444"/>
<circle cx="94.9882" cy="216.006" r="1.62444"/>
<circle cx="94.9882" cy="211.173" r="1.62444"/>
<circle cx="94.9882" cy="223.915" r="1.62444"/>
<circle cx="94.9882" cy="223.359" r="1.62444"/>
<circle cx="94.9882" cy="230.266" r="1.62444"/>
<circle cx="94.9882" cy="210.411" r="1.62444"/>
<circle cx="94.9882" cy="229.94" r="1.62444"/>
<circle cx="94.9882" cy="233.002" r="1.62444"/>
<circle cx="94.9882" cy="231.934" r="1.62444"/>
<circle cx="94.9882" cy="220.395" r="1.62444"/>
<circle cx="94.9882" cy="212.411" r="1.62444"/>
<circle cx="94.9882" cy="239.071" r="1.62444"/>
<circle cx="94.9882" cy="231.886" r="1.62444"/>
<circle cx="94.9882" cy="206.194" r="1.62444"/>
<circle cx="94.9882" cy="216.424" r="1.62444"/>
<circle cx="94.9882" cy="214.952" r="1.62444"/>
<circle cx="94.9882" cy="211.907" r="1.62444"/>
<circle cx="94.9882" cy="207.751" r="1.62444"/>
<circle cx="94.9882" cy="201.786" r="1.62444"/>
<circle cx="94.9882" cy="194.842" r="1.62444"/>
<circle cx="94.9882" cy="215.857" r="1.62444"/>
<circle cx="94.9882" cy="222.515" r="1.62444"/>
<circle cx="94.9882" cy="212.913" r="1.62444"/>
<circle cx="94.9882" cy="210.813" r="1.62444"/>
<circle cx="94.9882" cy="211.795" r="1.62444"/>
<circle cx="94.9882" cy="209.117" r="1.62444"/>
<circle cx="94.9882" cy="200.407" r="1.62444"/>
<circle cx="94.9882" cy="221.853" r="1.62444"/>
<circle cx="94.9882" cy="209.612" r="1.62444"/>
<circle cx="94.9882" cy="216.397" r="1.62444"/>
<circle cx="94.9882" cy="204.443" r="1.62444"/>
<circle cx="94.9882" cy="215.412" r="1.62444"/>
<circle cx="94.9882" cy="208.649" r="1.62444"/>
<circle cx="94.9882" cy="218.58" r="1.62444"/>
<circle cx="94.9882" cy="202.469" r="1.62444"/>
<circle cx="94.9882" cy="215.019" r="1.62444"/>
<circle cx="94.9882" cy="216.842" r="1.62444"/>
<circle cx="94.9882" cy="232.61" r="1.62444"/>
<circle cx="94.9882" cy="228.528" r="1.62444"/>
<circle cx="94.9882" cy="220.263" r="1.62444"/>
<circle cx="94.9882" cy="226.909" r="1.62444"/>
<circle cx="94.9882" cy="222.085" r="1.62444"/>
<circle cx="94.9882" cy="222.759" r="1.62444"/>
<circle cx="94.9882" cy="236.053" r="1.62444"/>
<circle cx="94.9882" cy="230.405" r="1.62444"/>
<circle cx="94.9882" cy="224.133" r="1.62444"/>
<circle cx="94.9882" cy="220.569" r="1.62444"/>
<circle cx="94.9882" cy="240.756" r="1.62444"/>
<circle cx="94.9882" cy="232.14" r="1.62444"/>
<circle cx="94.9882" cy="210.683" r="1.62444"/>
<circle cx="94.9882" cy="219.646" r="1.62444"/>
<circle cx="94.9882" cy="223.139" r="1.62444"/>
<circle cx="94.9882" cy="249.27" r="1.62444"/>
<circle cx="94.9882" cy="215.727" r="1.62444"/>
<circle cx="94.9882" cy="216.237" r="1.62444"/>
<circle cx="94.9882" cy="230.215" r="1.62444"/>
<circle cx="94.9882" cy="243.092" r="1.62444"/>
<circle cx="94.9882" cy="209.085" r="1.62444"/>
<circle cx="94.9882" cy="216.867" r="1.62444"/>
<circle cx="94.9882" cy="230.932" r="1.62444"/>
<circle cx="94.9882" cy="231.276" r="1.62444"/>
<circle cx="94.9882" cy="144.898" r="1.62444"/>
</g>
<text xml:space="preserve" x="189.747" y="17.8688" fill="black" font-size="18.7414" font-family="Helvetica">block mpv vs sipm vop</text></svg>
