<?xml version="1.0" standalone="no"?>
<svg width="567.429" height="384.969" viewBox="0 0 567.429 384.969" xmlns="http://www.w3.org/2000/svg" shape-rendering="crispEdges">
<title>
./sector_diagrams/original/sector7.svg
</title>
<desc>
Creator: ROOT Version 6.24/00
CreationDate: Wed Jun 23 06:01:55 2021</desc>
<defs>
</defs>
<rect x="0.5" y="0" width="566.929" height="384.469" fill="white"/>
<rect x="57.1929" y="38.4469" width="453.543" height="307.575" fill="white"/>
<rect x="57.1929" y="38.4469" width="453.543" height="307.575" fill="none" stroke="black"/>
<path d="M57.1929,346.022h 453.543" fill="none" stroke="#000099"/>
<path d="M57.1929,346.022h 453.543" fill="none" stroke="black"/>
<path d="M59.5308,336.795v 9.22726" fill="none" stroke="black"/>
<path d="M68.8822,341.409v 4.61363" fill="none" stroke="black"/>
<path d="M78.2336,341.409v 4.61363" fill="none" stroke="black"/>
<path d="M87.585,341.409v 4.61363" fill="none" stroke="black"/>
<path d="M96.9364,341.409v 4.61363" fill="none" stroke="black"/>
<path d="M106.288,336.795v 9.22726" fill="none" stroke="black"/>
<path d="M115.639,341.409v 4.61363" fill="none" stroke="black"/>
<path d="M124.991,341.409v 4.61363" fill="none" stroke="black"/>
<path d="M134.342,341.409v 4.61363" fill="none" stroke="black"/>
<path d="M143.693,341.409v 4.61363" fill="none" stroke="black"/>
<path d="M153.045,336.795v 9.22726" fill="none" stroke="black"/>
<path d="M162.396,341.409v 4.61363" fill="none" stroke="black"/>
<path d="M171.748,341.409v 4.61363" fill="none" stroke="black"/>
<path d="M181.099,341.409v 4.61363" fill="none" stroke="black"/>
<path d="M190.45,341.409v 4.61363" fill="none" stroke="black"/>
<path d="M199.802,336.795v 9.22726" fill="none" stroke="black"/>
<path d="M209.153,341.409v 4.61363" fill="none" stroke="black"/>
<path d="M218.505,341.409v 4.61363" fill="none" stroke="black"/>
<path d="M227.856,341.409v 4.61363" fill="none" stroke="black"/>
<path d="M237.208,341.409v 4.61363" fill="none" stroke="black"/>
<path d="M246.559,336.795v 9.22726" fill="none" stroke="black"/>
<path d="M255.91,341.409v 4.61363" fill="none" stroke="black"/>
<path d="M265.262,341.409v 4.61363" fill="none" stroke="black"/>
<path d="M274.613,341.409v 4.61363" fill="none" stroke="black"/>
<path d="M283.965,341.409v 4.61363" fill="none" stroke="black"/>
<path d="M293.316,336.795v 9.22726" fill="none" stroke="black"/>
<path d="M302.667,341.409v 4.61363" fill="none" stroke="black"/>
<path d="M312.019,341.409v 4.61363" fill="none" stroke="black"/>
<path d="M321.37,341.409v 4.61363" fill="none" stroke="black"/>
<path d="M330.722,341.409v 4.61363" fill="none" stroke="black"/>
<path d="M340.073,336.795v 9.22726" fill="none" stroke="black"/>
<path d="M349.424,341.409v 4.61363" fill="none" stroke="black"/>
<path d="M358.776,341.409v 4.61363" fill="none" stroke="black"/>
<path d="M368.127,341.409v 4.61363" fill="none" stroke="black"/>
<path d="M377.479,341.409v 4.61363" fill="none" stroke="black"/>
<path d="M386.83,336.795v 9.22726" fill="none" stroke="black"/>
<path d="M396.181,341.409v 4.61363" fill="none" stroke="black"/>
<path d="M405.533,341.409v 4.61363" fill="none" stroke="black"/>
<path d="M414.884,341.409v 4.61363" fill="none" stroke="black"/>
<path d="M424.236,341.409v 4.61363" fill="none" stroke="black"/>
<path d="M433.587,336.795v 9.22726" fill="none" stroke="black"/>
<path d="M442.939,341.409v 4.61363" fill="none" stroke="black"/>
<path d="M452.29,341.409v 4.61363" fill="none" stroke="black"/>
<path d="M461.641,341.409v 4.61363" fill="none" stroke="black"/>
<path d="M470.993,341.409v 4.61363" fill="none" stroke="black"/>
<path d="M480.344,336.795v 9.22726" fill="none" stroke="black"/>
<path d="M59.5308,336.795v 9.22726" fill="none" stroke="black"/>
<path d="M480.344,336.795v 9.22726" fill="none" stroke="black"/>
<path d="M489.696,341.409v 4.61363" fill="none" stroke="black"/>
<path d="M499.047,341.409v 4.61363" fill="none" stroke="black"/>
<path d="M508.398,341.409v 4.61363" fill="none" stroke="black"/>
<text xml:space="preserve" x="55.8896" y="358.403" fill="black" font-size="12.8453" font-family="Helvetica">0</text>
<text xml:space="preserve" x="99.061" y="358.403" fill="black" font-size="12.8453" font-family="Helvetica">10</text>
<text xml:space="preserve" x="146.305" y="358.403" fill="black" font-size="12.8453" font-family="Helvetica">20</text>
<text xml:space="preserve" x="192.735" y="358.403" fill="black" font-size="12.8453" font-family="Helvetica">30</text>
<text xml:space="preserve" x="239.979" y="358.403" fill="black" font-size="12.8453" font-family="Helvetica">40</text>
<text xml:space="preserve" x="286.408" y="358.403" fill="black" font-size="12.8453" font-family="Helvetica">50</text>
<text xml:space="preserve" x="332.838" y="358.403" fill="black" font-size="12.8453" font-family="Helvetica">60</text>
<text xml:space="preserve" x="380.082" y="358.403" fill="black" font-size="12.8453" font-family="Helvetica">70</text>
<text xml:space="preserve" x="426.511" y="358.403" fill="black" font-size="12.8453" font-family="Helvetica">80</text>
<text xml:space="preserve" x="473.755" y="358.403" fill="black" font-size="12.8453" font-family="Helvetica">90</text>
<path d="M57.1929,346.022v -307.575" fill="none" stroke="black"/>
<path d="M70.7992,346.022h -13.6063" fill="none" stroke="black"/>
<path d="M63.9961,335.77h -6.80315" fill="none" stroke="black"/>
<path d="M63.9961,325.517h -6.80315" fill="none" stroke="black"/>
<path d="M63.9961,315.265h -6.80315" fill="none" stroke="black"/>
<path d="M63.9961,305.012h -6.80315" fill="none" stroke="black"/>
<path d="M70.7992,294.76h -13.6063" fill="none" stroke="black"/>
<path d="M63.9961,284.507h -6.80315" fill="none" stroke="black"/>
<path d="M63.9961,274.255h -6.80315" fill="none" stroke="black"/>
<path d="M63.9961,264.002h -6.80315" fill="none" stroke="black"/>
<path d="M63.9961,253.75h -6.80315" fill="none" stroke="black"/>
<path d="M70.7992,243.497h -13.6063" fill="none" stroke="black"/>
<path d="M63.9961,233.245h -6.80315" fill="none" stroke="black"/>
<path d="M63.9961,222.992h -6.80315" fill="none" stroke="black"/>
<path d="M63.9961,212.74h -6.80315" fill="none" stroke="black"/>
<path d="M63.9961,202.487h -6.80315" fill="none" stroke="black"/>
<path d="M70.7992,192.235h -13.6063" fill="none" stroke="black"/>
<path d="M63.9961,181.982h -6.80315" fill="none" stroke="black"/>
<path d="M63.9961,171.73h -6.80315" fill="none" stroke="black"/>
<path d="M63.9961,161.477h -6.80315" fill="none" stroke="black"/>
<path d="M63.9961,151.225h -6.80315" fill="none" stroke="black"/>
<path d="M70.7992,140.972h -13.6063" fill="none" stroke="black"/>
<path d="M63.9961,130.72h -6.80315" fill="none" stroke="black"/>
<path d="M63.9961,120.467h -6.80315" fill="none" stroke="black"/>
<path d="M63.9961,110.215h -6.80315" fill="none" stroke="black"/>
<path d="M63.9961,99.962h -6.80315" fill="none" stroke="black"/>
<path d="M70.7992,89.7095h -13.6063" fill="none" stroke="black"/>
<path d="M63.9961,79.457h -6.80315" fill="none" stroke="black"/>
<path d="M63.9961,69.2045h -6.80315" fill="none" stroke="black"/>
<path d="M63.9961,58.9519h -6.80315" fill="none" stroke="black"/>
<path d="M63.9961,48.6994h -6.80315" fill="none" stroke="black"/>
<path d="M70.7992,38.4469h -13.6063" fill="none" stroke="black"/>
<text xml:space="preserve" x="47.7441" y="350.258" fill="black" font-size="12.8453" font-family="Helvetica">0</text>
<text xml:space="preserve" x="33.8967" y="298.941" fill="black" font-size="12.8453" font-family="Helvetica">100</text>
<text xml:space="preserve" x="33.8967" y="247.624" fill="black" font-size="12.8453" font-family="Helvetica">200</text>
<text xml:space="preserve" x="33.8967" y="197.122" fill="black" font-size="12.8453" font-family="Helvetica">300</text>
<text xml:space="preserve" x="33.8967" y="145.805" fill="black" font-size="12.8453" font-family="Helvetica">400</text>
<text xml:space="preserve" x="33.8967" y="94.4882" fill="black" font-size="12.8453" font-family="Helvetica">500</text>
<text xml:space="preserve" x="33.8967" y="43.1713" fill="black" font-size="12.8453" font-family="Helvetica">600</text>
<g fill="black">
<rect x="65.624" y="190.768" width="6.51643" height="6.51643"/>
</g>
<g fill="black">
<rect x="70.2997" y="244.949" width="6.51643" height="6.51643"/>
</g>
<g fill="black">
<rect x="79.6511" y="195.665" width="6.51643" height="6.51643"/>
</g>
<g fill="black">
<rect x="84.3268" y="204.963" width="6.51643" height="6.51643"/>
</g>
<g fill="black">
<rect x="89.0025" y="179.686" width="6.51643" height="6.51643"/>
</g>
<g fill="black">
<rect x="98.3539" y="194.312" width="6.51643" height="6.51643"/>
</g>
<g fill="black">
<rect x="103.03" y="212.211" width="6.51643" height="6.51643"/>
</g>
<g fill="black">
<rect x="107.705" y="165.759" width="6.51643" height="6.51643"/>
</g>
<g fill="black">
<rect x="117.057" y="223.589" width="6.51643" height="6.51643"/>
</g>
<g fill="black">
<rect x="121.732" y="198.002" width="6.51643" height="6.51643"/>
</g>
<g fill="black">
<rect x="126.408" y="169.855" width="6.51643" height="6.51643"/>
</g>
<g fill="#ff0000">
<rect x="135.76" y="221.674" width="6.51643" height="6.51643"/>
</g>
<g fill="#ff0000">
<rect x="140.435" y="214.679" width="6.51643" height="6.51643"/>
</g>
<g fill="#ff0000">
<rect x="145.111" y="186.167" width="6.51643" height="6.51643"/>
</g>
<g fill="#ff0000">
<rect x="154.462" y="214.182" width="6.51643" height="6.51643"/>
</g>
<g fill="#ff0000">
<rect x="159.138" y="222.791" width="6.51643" height="6.51643"/>
</g>
<g fill="#ff0000">
<rect x="163.814" y="210.692" width="6.51643" height="6.51643"/>
</g>
<g fill="#ff0000">
<rect x="173.165" y="195.017" width="6.51643" height="6.51643"/>
</g>
<g fill="#ff0000">
<rect x="177.841" y="213.35" width="6.51643" height="6.51643"/>
</g>
<g fill="#ff0000">
<rect x="182.517" y="210.434" width="6.51643" height="6.51643"/>
</g>
<g fill="#ff0000">
<rect x="191.868" y="213.717" width="6.51643" height="6.51643"/>
</g>
<g fill="#ff0000">
<rect x="196.544" y="200.59" width="6.51643" height="6.51643"/>
</g>
<g fill="#ff0000">
<rect x="201.219" y="210.14" width="6.51643" height="6.51643"/>
</g>
<g fill="#009900">
<rect x="210.571" y="236.631" width="6.51643" height="6.51643"/>
</g>
<g fill="#009900">
<rect x="215.246" y="207.156" width="6.51643" height="6.51643"/>
</g>
<g fill="#009900">
<rect x="219.922" y="195.581" width="6.51643" height="6.51643"/>
</g>
<g fill="#009900">
<rect x="229.274" y="230.33" width="6.51643" height="6.51643"/>
</g>
<g fill="#009900">
<rect x="233.949" y="219.113" width="6.51643" height="6.51643"/>
</g>
<g fill="#009900">
<rect x="238.625" y="204.308" width="6.51643" height="6.51643"/>
</g>
<g fill="#009900">
<rect x="247.976" y="260.479" width="6.51643" height="6.51643"/>
</g>
<g fill="#009900">
<rect x="252.652" y="217.328" width="6.51643" height="6.51643"/>
</g>
<g fill="#009900">
<rect x="257.328" y="223.841" width="6.51643" height="6.51643"/>
</g>
<g fill="#009900">
<rect x="266.679" y="199.4" width="6.51643" height="6.51643"/>
</g>
<g fill="#009900">
<rect x="271.355" y="227.205" width="6.51643" height="6.51643"/>
</g>
<g fill="#009900">
<rect x="276.031" y="193.152" width="6.51643" height="6.51643"/>
</g>
<g fill="#0000ff">
<rect x="285.382" y="212.07" width="6.51643" height="6.51643"/>
</g>
<g fill="#0000ff">
<rect x="290.058" y="231.953" width="6.51643" height="6.51643"/>
</g>
<g fill="#0000ff">
<rect x="294.733" y="274.96" width="6.51643" height="6.51643"/>
</g>
<g fill="#0000ff">
<rect x="304.085" y="206.176" width="6.51643" height="6.51643"/>
</g>
<g fill="#0000ff">
<rect x="308.761" y="215.13" width="6.51643" height="6.51643"/>
</g>
<g fill="#0000ff">
<rect x="313.436" y="221.488" width="6.51643" height="6.51643"/>
</g>
<g fill="#0000ff">
<rect x="322.788" y="218.878" width="6.51643" height="6.51643"/>
</g>
<g fill="#0000ff">
<rect x="327.463" y="177.592" width="6.51643" height="6.51643"/>
</g>
<g fill="#0000ff">
<rect x="332.139" y="209.548" width="6.51643" height="6.51643"/>
</g>
<g fill="#0000ff">
<rect x="341.491" y="196.965" width="6.51643" height="6.51643"/>
</g>
<g fill="#0000ff">
<rect x="346.166" y="219.459" width="6.51643" height="6.51643"/>
</g>
<g fill="#0000ff">
<rect x="350.842" y="208.603" width="6.51643" height="6.51643"/>
</g>
<g fill="#cc00ff">
<rect x="360.193" y="223.818" width="6.51643" height="6.51643"/>
</g>
<g fill="#cc00ff">
<rect x="364.869" y="225.628" width="6.51643" height="6.51643"/>
</g>
<g fill="#cc00ff">
<rect x="369.545" y="179.601" width="6.51643" height="6.51643"/>
</g>
<g fill="#cc00ff">
<rect x="378.896" y="212.114" width="6.51643" height="6.51643"/>
</g>
<g fill="#cc00ff">
<rect x="383.572" y="215.907" width="6.51643" height="6.51643"/>
</g>
<g fill="#cc00ff">
<rect x="388.248" y="197.252" width="6.51643" height="6.51643"/>
</g>
<g fill="#cc00ff">
<rect x="402.275" y="199.737" width="6.51643" height="6.51643"/>
</g>
<g fill="#cc00ff">
<rect x="406.95" y="210.576" width="6.51643" height="6.51643"/>
</g>
<g fill="#cc00ff">
<rect x="416.302" y="223.104" width="6.51643" height="6.51643"/>
</g>
<g fill="#cc00ff">
<rect x="420.977" y="202.741" width="6.51643" height="6.51643"/>
</g>
<g fill="#cc00ff">
<rect x="425.653" y="201.443" width="6.51643" height="6.51643"/>
</g>
<g fill="#00ffff">
<rect x="435.005" y="215.584" width="6.51643" height="6.51643"/>
</g>
<g fill="#00ffff">
<rect x="439.68" y="211.112" width="6.51643" height="6.51643"/>
</g>
<g fill="#00ffff">
<rect x="444.356" y="221.735" width="6.51643" height="6.51643"/>
</g>
<g fill="#00ffff">
<rect x="453.707" y="205.098" width="6.51643" height="6.51643"/>
</g>
<g fill="#00ffff">
<rect x="458.383" y="191.437" width="6.51643" height="6.51643"/>
</g>
<g fill="#00ffff">
<rect x="463.059" y="245.693" width="6.51643" height="6.51643"/>
</g>
<g fill="#00ffff">
<rect x="472.41" y="226.941" width="6.51643" height="6.51643"/>
</g>
<g fill="#00ffff">
<rect x="477.086" y="229.144" width="6.51643" height="6.51643"/>
</g>
<g fill="#00ffff">
<rect x="481.762" y="225.235" width="6.51643" height="6.51643"/>
</g>
<g fill="#00ffff">
<rect x="491.113" y="246.221" width="6.51643" height="6.51643"/>
</g>
<g fill="#00ffff">
<rect x="500.464" y="277.962" width="6.51643" height="6.51643"/>
</g>
<path d="M57.1929,346.022h 453.543" fill="none" stroke="black"/>
<path d="M59.5308,336.795v 9.22726" fill="none" stroke="black"/>
<path d="M68.8822,341.409v 4.61363" fill="none" stroke="black"/>
<path d="M78.2336,341.409v 4.61363" fill="none" stroke="black"/>
<path d="M87.585,341.409v 4.61363" fill="none" stroke="black"/>
<path d="M96.9364,341.409v 4.61363" fill="none" stroke="black"/>
<path d="M106.288,336.795v 9.22726" fill="none" stroke="black"/>
<path d="M115.639,341.409v 4.61363" fill="none" stroke="black"/>
<path d="M124.991,341.409v 4.61363" fill="none" stroke="black"/>
<path d="M134.342,341.409v 4.61363" fill="none" stroke="black"/>
<path d="M143.693,341.409v 4.61363" fill="none" stroke="black"/>
<path d="M153.045,336.795v 9.22726" fill="none" stroke="black"/>
<path d="M162.396,341.409v 4.61363" fill="none" stroke="black"/>
<path d="M171.748,341.409v 4.61363" fill="none" stroke="black"/>
<path d="M181.099,341.409v 4.61363" fill="none" stroke="black"/>
<path d="M190.45,341.409v 4.61363" fill="none" stroke="black"/>
<path d="M199.802,336.795v 9.22726" fill="none" stroke="black"/>
<path d="M209.153,341.409v 4.61363" fill="none" stroke="black"/>
<path d="M218.505,341.409v 4.61363" fill="none" stroke="black"/>
<path d="M227.856,341.409v 4.61363" fill="none" stroke="black"/>
<path d="M237.208,341.409v 4.61363" fill="none" stroke="black"/>
<path d="M246.559,336.795v 9.22726" fill="none" stroke="black"/>
<path d="M255.91,341.409v 4.61363" fill="none" stroke="black"/>
<path d="M265.262,341.409v 4.61363" fill="none" stroke="black"/>
<path d="M274.613,341.409v 4.61363" fill="none" stroke="black"/>
<path d="M283.965,341.409v 4.61363" fill="none" stroke="black"/>
<path d="M293.316,336.795v 9.22726" fill="none" stroke="black"/>
<path d="M302.667,341.409v 4.61363" fill="none" stroke="black"/>
<path d="M312.019,341.409v 4.61363" fill="none" stroke="black"/>
<path d="M321.37,341.409v 4.61363" fill="none" stroke="black"/>
<path d="M330.722,341.409v 4.61363" fill="none" stroke="black"/>
<path d="M340.073,336.795v 9.22726" fill="none" stroke="black"/>
<path d="M349.424,341.409v 4.61363" fill="none" stroke="black"/>
<path d="M358.776,341.409v 4.61363" fill="none" stroke="black"/>
<path d="M368.127,341.409v 4.61363" fill="none" stroke="black"/>
<path d="M377.479,341.409v 4.61363" fill="none" stroke="black"/>
<path d="M386.83,336.795v 9.22726" fill="none" stroke="black"/>
<path d="M396.181,341.409v 4.61363" fill="none" stroke="black"/>
<path d="M405.533,341.409v 4.61363" fill="none" stroke="black"/>
<path d="M414.884,341.409v 4.61363" fill="none" stroke="black"/>
<path d="M424.236,341.409v 4.61363" fill="none" stroke="black"/>
<path d="M433.587,336.795v 9.22726" fill="none" stroke="black"/>
<path d="M442.939,341.409v 4.61363" fill="none" stroke="black"/>
<path d="M452.29,341.409v 4.61363" fill="none" stroke="black"/>
<path d="M461.641,341.409v 4.61363" fill="none" stroke="black"/>
<path d="M470.993,341.409v 4.61363" fill="none" stroke="black"/>
<path d="M480.344,336.795v 9.22726" fill="none" stroke="black"/>
<path d="M59.5308,336.795v 9.22726" fill="none" stroke="black"/>
<path d="M480.344,336.795v 9.22726" fill="none" stroke="black"/>
<path d="M489.696,341.409v 4.61363" fill="none" stroke="black"/>
<path d="M499.047,341.409v 4.61363" fill="none" stroke="black"/>
<path d="M508.398,341.409v 4.61363" fill="none" stroke="black"/>
<path d="M57.1929,346.022v -307.575" fill="none" stroke="black"/>
<path d="M70.7992,346.022h -13.6063" fill="none" stroke="black"/>
<path d="M63.9961,335.77h -6.80315" fill="none" stroke="black"/>
<path d="M63.9961,325.517h -6.80315" fill="none" stroke="black"/>
<path d="M63.9961,315.265h -6.80315" fill="none" stroke="black"/>
<path d="M63.9961,305.012h -6.80315" fill="none" stroke="black"/>
<path d="M70.7992,294.76h -13.6063" fill="none" stroke="black"/>
<path d="M63.9961,284.507h -6.80315" fill="none" stroke="black"/>
<path d="M63.9961,274.255h -6.80315" fill="none" stroke="black"/>
<path d="M63.9961,264.002h -6.80315" fill="none" stroke="black"/>
<path d="M63.9961,253.75h -6.80315" fill="none" stroke="black"/>
<path d="M70.7992,243.497h -13.6063" fill="none" stroke="black"/>
<path d="M63.9961,233.245h -6.80315" fill="none" stroke="black"/>
<path d="M63.9961,222.992h -6.80315" fill="none" stroke="black"/>
<path d="M63.9961,212.74h -6.80315" fill="none" stroke="black"/>
<path d="M63.9961,202.487h -6.80315" fill="none" stroke="black"/>
<path d="M70.7992,192.235h -13.6063" fill="none" stroke="black"/>
<path d="M63.9961,181.982h -6.80315" fill="none" stroke="black"/>
<path d="M63.9961,171.73h -6.80315" fill="none" stroke="black"/>
<path d="M63.9961,161.477h -6.80315" fill="none" stroke="black"/>
<path d="M63.9961,151.225h -6.80315" fill="none" stroke="black"/>
<path d="M70.7992,140.972h -13.6063" fill="none" stroke="black"/>
<path d="M63.9961,130.72h -6.80315" fill="none" stroke="black"/>
<path d="M63.9961,120.467h -6.80315" fill="none" stroke="black"/>
<path d="M63.9961,110.215h -6.80315" fill="none" stroke="black"/>
<path d="M63.9961,99.962h -6.80315" fill="none" stroke="black"/>
<path d="M70.7992,89.7095h -13.6063" fill="none" stroke="black"/>
<path d="M63.9961,79.457h -6.80315" fill="none" stroke="black"/>
<path d="M63.9961,69.2045h -6.80315" fill="none" stroke="black"/>
<path d="M63.9961,58.9519h -6.80315" fill="none" stroke="black"/>
<path d="M63.9961,48.6994h -6.80315" fill="none" stroke="black"/>
<path d="M70.7992,38.4469h -13.6063" fill="none" stroke="black"/></svg>
