<?xml version="1.0" standalone="no"?>
<svg width="567.429" height="384.969" viewBox="0 0 567.429 384.969" xmlns="http://www.w3.org/2000/svg" shape-rendering="crispEdges">
<title>
./sector_diagrams/original/sector6.svg
</title>
<desc>
Creator: ROOT Version 6.22/02
CreationDate: Sat Jun 26 16:52:27 2021</desc>
<defs>
</defs>
<rect x="0.5" y="0" width="566.929" height="384.469" fill="white"/>
<rect x="57.1929" y="38.4469" width="453.543" height="307.575" fill="white"/>
<rect x="57.1929" y="38.4469" width="453.543" height="307.575" fill="none" stroke="black"/>
<path d="M57.1929,346.022h 453.543" fill="none" stroke="black"/>
<path d="M59.5308,38.4469v 307.575" fill="none" stroke="black" stroke-dasharray=" 1, 2"/>
<path d="M106.288,38.4469v 307.575" fill="none" stroke="black" stroke-dasharray=" 1, 2"/>
<path d="M153.045,38.4469v 307.575" fill="none" stroke="black" stroke-dasharray=" 1, 2"/>
<path d="M199.802,38.4469v 307.575" fill="none" stroke="black" stroke-dasharray=" 1, 2"/>
<path d="M246.559,38.4469v 307.575" fill="none" stroke="black" stroke-dasharray=" 1, 2"/>
<path d="M293.316,38.4469v 307.575" fill="none" stroke="black" stroke-dasharray=" 1, 2"/>
<path d="M340.073,38.4469v 307.575" fill="none" stroke="black" stroke-dasharray=" 1, 2"/>
<path d="M386.83,38.4469v 307.575" fill="none" stroke="black" stroke-dasharray=" 1, 2"/>
<path d="M433.587,38.4469v 307.575" fill="none" stroke="black" stroke-dasharray=" 1, 2"/>
<path d="M480.344,38.4469v 307.575" fill="none" stroke="black" stroke-dasharray=" 1, 2"/>
<path d="M59.5308,38.4469v 307.575" fill="none" stroke="black" stroke-dasharray=" 1, 2"/>
<path d="M480.344,38.4469v 307.575" fill="none" stroke="black" stroke-dasharray=" 1, 2"/>
<path d="M57.1929,346.022v -307.575" fill="none" stroke="black"/>
<path d="M510.736,346.022h -453.543" fill="none" stroke="black" stroke-dasharray=" 1, 2"/>
<path d="M510.736,294.76h -453.543" fill="none" stroke="black" stroke-dasharray=" 1, 2"/>
<path d="M510.736,243.497h -453.543" fill="none" stroke="black" stroke-dasharray=" 1, 2"/>
<path d="M510.736,192.235h -453.543" fill="none" stroke="black" stroke-dasharray=" 1, 2"/>
<path d="M510.736,140.972h -453.543" fill="none" stroke="black" stroke-dasharray=" 1, 2"/>
<path d="M510.736,89.7095h -453.543" fill="none" stroke="black" stroke-dasharray=" 1, 2"/>
<path d="M510.736,38.4469h -453.543" fill="none" stroke="black" stroke-dasharray=" 1, 2"/>
<path d="M57.1929,346.022h 453.543" fill="none" stroke="#000099"/>
<path d="M57.1929,346.022h 453.543" fill="none" stroke="black"/>
<path d="M59.5308,336.795v 9.22726" fill="none" stroke="black"/>
<path d="M68.8822,341.409v 4.61363" fill="none" stroke="black"/>
<path d="M78.2336,341.409v 4.61363" fill="none" stroke="black"/>
<path d="M87.585,341.409v 4.61363" fill="none" stroke="black"/>
<path d="M96.9364,341.409v 4.61363" fill="none" stroke="black"/>
<path d="M106.288,336.795v 9.22726" fill="none" stroke="black"/>
<path d="M115.639,341.409v 4.61363" fill="none" stroke="black"/>
<path d="M124.991,341.409v 4.61363" fill="none" stroke="black"/>
<path d="M134.342,341.409v 4.61363" fill="none" stroke="black"/>
<path d="M143.693,341.409v 4.61363" fill="none" stroke="black"/>
<path d="M153.045,336.795v 9.22726" fill="none" stroke="black"/>
<path d="M162.396,341.409v 4.61363" fill="none" stroke="black"/>
<path d="M171.748,341.409v 4.61363" fill="none" stroke="black"/>
<path d="M181.099,341.409v 4.61363" fill="none" stroke="black"/>
<path d="M190.45,341.409v 4.61363" fill="none" stroke="black"/>
<path d="M199.802,336.795v 9.22726" fill="none" stroke="black"/>
<path d="M209.153,341.409v 4.61363" fill="none" stroke="black"/>
<path d="M218.505,341.409v 4.61363" fill="none" stroke="black"/>
<path d="M227.856,341.409v 4.61363" fill="none" stroke="black"/>
<path d="M237.208,341.409v 4.61363" fill="none" stroke="black"/>
<path d="M246.559,336.795v 9.22726" fill="none" stroke="black"/>
<path d="M255.91,341.409v 4.61363" fill="none" stroke="black"/>
<path d="M265.262,341.409v 4.61363" fill="none" stroke="black"/>
<path d="M274.613,341.409v 4.61363" fill="none" stroke="black"/>
<path d="M283.965,341.409v 4.61363" fill="none" stroke="black"/>
<path d="M293.316,336.795v 9.22726" fill="none" stroke="black"/>
<path d="M302.667,341.409v 4.61363" fill="none" stroke="black"/>
<path d="M312.019,341.409v 4.61363" fill="none" stroke="black"/>
<path d="M321.37,341.409v 4.61363" fill="none" stroke="black"/>
<path d="M330.722,341.409v 4.61363" fill="none" stroke="black"/>
<path d="M340.073,336.795v 9.22726" fill="none" stroke="black"/>
<path d="M349.424,341.409v 4.61363" fill="none" stroke="black"/>
<path d="M358.776,341.409v 4.61363" fill="none" stroke="black"/>
<path d="M368.127,341.409v 4.61363" fill="none" stroke="black"/>
<path d="M377.479,341.409v 4.61363" fill="none" stroke="black"/>
<path d="M386.83,336.795v 9.22726" fill="none" stroke="black"/>
<path d="M396.181,341.409v 4.61363" fill="none" stroke="black"/>
<path d="M405.533,341.409v 4.61363" fill="none" stroke="black"/>
<path d="M414.884,341.409v 4.61363" fill="none" stroke="black"/>
<path d="M424.236,341.409v 4.61363" fill="none" stroke="black"/>
<path d="M433.587,336.795v 9.22726" fill="none" stroke="black"/>
<path d="M442.939,341.409v 4.61363" fill="none" stroke="black"/>
<path d="M452.29,341.409v 4.61363" fill="none" stroke="black"/>
<path d="M461.641,341.409v 4.61363" fill="none" stroke="black"/>
<path d="M470.993,341.409v 4.61363" fill="none" stroke="black"/>
<path d="M480.344,336.795v 9.22726" fill="none" stroke="black"/>
<path d="M59.5308,336.795v 9.22726" fill="none" stroke="black"/>
<path d="M480.344,336.795v 9.22726" fill="none" stroke="black"/>
<path d="M489.696,341.409v 4.61363" fill="none" stroke="black"/>
<path d="M499.047,341.409v 4.61363" fill="none" stroke="black"/>
<path d="M508.398,341.409v 4.61363" fill="none" stroke="black"/>
<text xml:space="preserve" x="55.8896" y="358.403" fill="black" font-size="12.8453" font-family="Helvetica">0</text>
<text xml:space="preserve" x="99.061" y="358.403" fill="black" font-size="12.8453" font-family="Helvetica">10</text>
<text xml:space="preserve" x="146.305" y="358.403" fill="black" font-size="12.8453" font-family="Helvetica">20</text>
<text xml:space="preserve" x="192.735" y="358.403" fill="black" font-size="12.8453" font-family="Helvetica">30</text>
<text xml:space="preserve" x="239.979" y="358.403" fill="black" font-size="12.8453" font-family="Helvetica">40</text>
<text xml:space="preserve" x="286.408" y="358.403" fill="black" font-size="12.8453" font-family="Helvetica">50</text>
<text xml:space="preserve" x="332.838" y="358.403" fill="black" font-size="12.8453" font-family="Helvetica">60</text>
<text xml:space="preserve" x="380.082" y="358.403" fill="black" font-size="12.8453" font-family="Helvetica">70</text>
<text xml:space="preserve" x="426.511" y="358.403" fill="black" font-size="12.8453" font-family="Helvetica">80</text>
<text xml:space="preserve" x="473.755" y="358.403" fill="black" font-size="12.8453" font-family="Helvetica">90</text>
<text xml:space="preserve" x="433.842" y="372.251" fill="black" font-size="12.8453" font-family="Helvetica">Block Number</text>
<path d="M57.1929,346.022v -307.575" fill="none" stroke="black"/>
<path d="M70.7992,346.022h -13.6063" fill="none" stroke="black"/>
<path d="M63.9961,335.77h -6.80315" fill="none" stroke="black"/>
<path d="M63.9961,325.517h -6.80315" fill="none" stroke="black"/>
<path d="M63.9961,315.265h -6.80315" fill="none" stroke="black"/>
<path d="M63.9961,305.012h -6.80315" fill="none" stroke="black"/>
<path d="M70.7992,294.76h -13.6063" fill="none" stroke="black"/>
<path d="M63.9961,284.507h -6.80315" fill="none" stroke="black"/>
<path d="M63.9961,274.255h -6.80315" fill="none" stroke="black"/>
<path d="M63.9961,264.002h -6.80315" fill="none" stroke="black"/>
<path d="M63.9961,253.75h -6.80315" fill="none" stroke="black"/>
<path d="M70.7992,243.497h -13.6063" fill="none" stroke="black"/>
<path d="M63.9961,233.245h -6.80315" fill="none" stroke="black"/>
<path d="M63.9961,222.992h -6.80315" fill="none" stroke="black"/>
<path d="M63.9961,212.74h -6.80315" fill="none" stroke="black"/>
<path d="M63.9961,202.487h -6.80315" fill="none" stroke="black"/>
<path d="M70.7992,192.235h -13.6063" fill="none" stroke="black"/>
<path d="M63.9961,181.982h -6.80315" fill="none" stroke="black"/>
<path d="M63.9961,171.73h -6.80315" fill="none" stroke="black"/>
<path d="M63.9961,161.477h -6.80315" fill="none" stroke="black"/>
<path d="M63.9961,151.225h -6.80315" fill="none" stroke="black"/>
<path d="M70.7992,140.972h -13.6063" fill="none" stroke="black"/>
<path d="M63.9961,130.72h -6.80315" fill="none" stroke="black"/>
<path d="M63.9961,120.467h -6.80315" fill="none" stroke="black"/>
<path d="M63.9961,110.215h -6.80315" fill="none" stroke="black"/>
<path d="M63.9961,99.962h -6.80315" fill="none" stroke="black"/>
<path d="M70.7992,89.7095h -13.6063" fill="none" stroke="black"/>
<path d="M63.9961,79.457h -6.80315" fill="none" stroke="black"/>
<path d="M63.9961,69.2045h -6.80315" fill="none" stroke="black"/>
<path d="M63.9961,58.9519h -6.80315" fill="none" stroke="black"/>
<path d="M63.9961,48.6994h -6.80315" fill="none" stroke="black"/>
<path d="M70.7992,38.4469h -13.6063" fill="none" stroke="black"/>
<text xml:space="preserve" x="47.7441" y="350.258" fill="black" font-size="12.8453" font-family="Helvetica">0</text>
<text xml:space="preserve" x="33.8967" y="298.941" fill="black" font-size="12.8453" font-family="Helvetica">100</text>
<text xml:space="preserve" x="33.8967" y="247.624" fill="black" font-size="12.8453" font-family="Helvetica">200</text>
<text xml:space="preserve" x="33.8967" y="197.122" fill="black" font-size="12.8453" font-family="Helvetica">300</text>
<text xml:space="preserve" x="33.8967" y="145.805" fill="black" font-size="12.8453" font-family="Helvetica">400</text>
<text xml:space="preserve" x="33.8967" y="94.4882" fill="black" font-size="12.8453" font-family="Helvetica">500</text>
<text xml:space="preserve" x="33.8967" y="43.1713" fill="black" font-size="12.8453" font-family="Helvetica">600</text>
<g transform="rotate(-90,21.6784,65.1643)">
<text xml:space="preserve" x="21.6784" y="65.1643" fill="black" font-size="12.8453" font-family="Helvetica">MPV</text>
</g>
<text xml:space="preserve" x="252.197" y="18.7347" fill="black" font-size="16.9898" font-family="Helvetica">Sector 6</text>
<g stroke="black" stroke-width="1" fill="none">
<circle cx="78.2336" cy="199.24" r="3.25821"/>
</g>
<g stroke="black" stroke-width="1" fill="none">
<circle cx="82.9093" cy="216.697" r="3.25821"/>
</g>
<g stroke="black" stroke-width="1" fill="none">
<circle cx="87.585" cy="202.353" r="3.25821"/>
</g>
<g stroke="black" stroke-width="1" fill="none">
<circle cx="96.9364" cy="204.69" r="3.25821"/>
</g>
<g stroke="black" stroke-width="1" fill="none">
<circle cx="101.612" cy="201.864" r="3.25821"/>
</g>
<g stroke="black" stroke-width="1" fill="none">
<circle cx="106.288" cy="214.863" r="3.25821"/>
</g>
<g stroke="black" stroke-width="1" fill="none">
<circle cx="115.639" cy="215.4" r="3.25821"/>
</g>
<g stroke="black" stroke-width="1" fill="none">
<circle cx="120.315" cy="204.159" r="3.25821"/>
</g>
<g stroke="black" stroke-width="1" fill="none">
<circle cx="124.991" cy="194.403" r="3.25821"/>
</g>
<g stroke="#ff0000" stroke-width="1" fill="none">
<circle cx="134.342" cy="172.738" r="3.25821"/>
</g>
<g stroke="#ff0000" stroke-width="1" fill="none">
<circle cx="139.018" cy="174.564" r="3.25821"/>
</g>
<g stroke="#ff0000" stroke-width="1" fill="none">
<circle cx="143.693" cy="183.875" r="3.25821"/>
</g>
<g stroke="#ff0000" stroke-width="1" fill="none">
<circle cx="153.045" cy="161.55" r="3.25821"/>
</g>
<g stroke="#ff0000" stroke-width="1" fill="none">
<circle cx="157.721" cy="174.948" r="3.25821"/>
</g>
<g stroke="#ff0000" stroke-width="1" fill="none">
<circle cx="162.396" cy="182.993" r="3.25821"/>
</g>
<g stroke="#ff0000" stroke-width="1" fill="none">
<circle cx="171.748" cy="181.458" r="3.25821"/>
</g>
<g stroke="#ff0000" stroke-width="1" fill="none">
<circle cx="176.423" cy="181.938" r="3.25821"/>
</g>
<g stroke="#ff0000" stroke-width="1" fill="none">
<circle cx="181.099" cy="248.384" r="3.25821"/>
</g>
<g stroke="#ff0000" stroke-width="1" fill="none">
<circle cx="190.45" cy="194.417" r="3.25821"/>
</g>
<g stroke="#ff0000" stroke-width="1" fill="none">
<circle cx="195.126" cy="216.001" r="3.25821"/>
</g>
<g stroke="#ff0000" stroke-width="1" fill="none">
<circle cx="199.802" cy="205.399" r="3.25821"/>
</g>
<g stroke="#009900" stroke-width="1" fill="none">
<circle cx="209.153" cy="200.401" r="3.25821"/>
</g>
<g stroke="#009900" stroke-width="1" fill="none">
<circle cx="213.829" cy="182.008" r="3.25821"/>
</g>
<g stroke="#009900" stroke-width="1" fill="none">
<circle cx="218.505" cy="197.819" r="3.25821"/>
</g>
<g stroke="#009900" stroke-width="1" fill="none">
<circle cx="227.856" cy="209.249" r="3.25821"/>
</g>
<g stroke="#009900" stroke-width="1" fill="none">
<circle cx="232.532" cy="210.848" r="3.25821"/>
</g>
<g stroke="#009900" stroke-width="1" fill="none">
<circle cx="237.208" cy="211.23" r="3.25821"/>
</g>
<g stroke="#009900" stroke-width="1" fill="none">
<circle cx="246.559" cy="209.177" r="3.25821"/>
</g>
<g stroke="#009900" stroke-width="1" fill="none">
<circle cx="251.235" cy="226.196" r="3.25821"/>
</g>
<g stroke="#009900" stroke-width="1" fill="none">
<circle cx="255.91" cy="255.381" r="3.25821"/>
</g>
<g stroke="#009900" stroke-width="1" fill="none">
<circle cx="265.262" cy="184.915" r="3.25821"/>
</g>
<g stroke="#009900" stroke-width="1" fill="none">
<circle cx="269.937" cy="211.87" r="3.25821"/>
</g>
<g stroke="#009900" stroke-width="1" fill="none">
<circle cx="274.613" cy="233.357" r="3.25821"/>
</g>
<g stroke="#0000ff" stroke-width="1" fill="none">
<circle cx="283.965" cy="222.65" r="3.25821"/>
</g>
<g stroke="#0000ff" stroke-width="1" fill="none">
<circle cx="288.64" cy="242.586" r="3.25821"/>
</g>
<g stroke="#0000ff" stroke-width="1" fill="none">
<circle cx="293.316" cy="205.806" r="3.25821"/>
</g>
<g stroke="#0000ff" stroke-width="1" fill="none">
<circle cx="302.667" cy="148.563" r="3.25821"/>
</g>
<g stroke="#0000ff" stroke-width="1" fill="none">
<circle cx="307.343" cy="213.158" r="3.25821"/>
</g>
<g stroke="#0000ff" stroke-width="1" fill="none">
<circle cx="312.019" cy="233.355" r="3.25821"/>
</g>
<g stroke="#0000ff" stroke-width="1" fill="none">
<circle cx="321.37" cy="222.359" r="3.25821"/>
</g>
<g stroke="#0000ff" stroke-width="1" fill="none">
<circle cx="326.046" cy="216.478" r="3.25821"/>
</g>
<g stroke="#0000ff" stroke-width="1" fill="none">
<circle cx="330.722" cy="205.619" r="3.25821"/>
</g>
<g stroke="#0000ff" stroke-width="1" fill="none">
<circle cx="340.073" cy="170.252" r="3.25821"/>
</g>
<g stroke="#0000ff" stroke-width="1" fill="none">
<circle cx="344.749" cy="188.496" r="3.25821"/>
</g>
<g stroke="#0000ff" stroke-width="1" fill="none">
<circle cx="349.424" cy="205.036" r="3.25821"/>
</g>
<g stroke="#cc00ff" stroke-width="1" fill="none">
<circle cx="358.776" cy="189.289" r="3.25821"/>
</g>
<g stroke="#cc00ff" stroke-width="1" fill="none">
<circle cx="363.452" cy="231.287" r="3.25821"/>
</g>
<g stroke="#cc00ff" stroke-width="1" fill="none">
<circle cx="368.127" cy="204.701" r="3.25821"/>
</g>
<g stroke="#cc00ff" stroke-width="1" fill="none">
<circle cx="377.479" cy="234.904" r="3.25821"/>
</g>
<g stroke="#cc00ff" stroke-width="1" fill="none">
<circle cx="382.154" cy="189.198" r="3.25821"/>
</g>
<g stroke="#cc00ff" stroke-width="1" fill="none">
<circle cx="396.181" cy="217.918" r="3.25821"/>
</g>
<g stroke="#cc00ff" stroke-width="1" fill="none">
<circle cx="400.857" cy="174.237" r="3.25821"/>
</g>
<g stroke="#cc00ff" stroke-width="1" fill="none">
<circle cx="405.533" cy="212.731" r="3.25821"/>
</g>
<g stroke="#cc00ff" stroke-width="1" fill="none">
<circle cx="414.884" cy="187.117" r="3.25821"/>
</g>
<g stroke="#cc00ff" stroke-width="1" fill="none">
<circle cx="419.56" cy="174.118" r="3.25821"/>
</g>
<g stroke="#cc00ff" stroke-width="1" fill="none">
<circle cx="424.236" cy="167.398" r="3.25821"/>
</g>
<g stroke="#00ffff" stroke-width="1" fill="none">
<circle cx="433.587" cy="192.911" r="3.25821"/>
</g>
<g stroke="#00ffff" stroke-width="1" fill="none">
<circle cx="438.263" cy="188.494" r="3.25821"/>
</g>
<g stroke="#00ffff" stroke-width="1" fill="none">
<circle cx="442.939" cy="229.742" r="3.25821"/>
</g>
<g stroke="#00ffff" stroke-width="1" fill="none">
<circle cx="452.29" cy="219.715" r="3.25821"/>
</g>
<g stroke="#00ffff" stroke-width="1" fill="none">
<circle cx="456.966" cy="221.979" r="3.25821"/>
</g>
<g stroke="#00ffff" stroke-width="1" fill="none">
<circle cx="461.641" cy="177.619" r="3.25821"/>
</g>
<g stroke="#00ffff" stroke-width="1" fill="none">
<circle cx="470.993" cy="201.222" r="3.25821"/>
</g>
<g stroke="#00ffff" stroke-width="1" fill="none">
<circle cx="475.668" cy="241.451" r="3.25821"/>
</g>
<g stroke="#00ffff" stroke-width="1" fill="none">
<circle cx="489.696" cy="174.947" r="3.25821"/>
</g>
<g stroke="#00ffff" stroke-width="1" fill="none">
<circle cx="494.371" cy="231.162" r="3.25821"/>
</g>
<g stroke="#00ffff" stroke-width="1" fill="none">
<circle cx="499.047" cy="214.835" r="3.25821"/>
</g>
<path d="M57.1929,346.022h 453.543" fill="none" stroke="black"/>
<path d="M59.5308,336.795v 9.22726" fill="none" stroke="black"/>
<path d="M68.8822,341.409v 4.61363" fill="none" stroke="black"/>
<path d="M78.2336,341.409v 4.61363" fill="none" stroke="black"/>
<path d="M87.585,341.409v 4.61363" fill="none" stroke="black"/>
<path d="M96.9364,341.409v 4.61363" fill="none" stroke="black"/>
<path d="M106.288,336.795v 9.22726" fill="none" stroke="black"/>
<path d="M115.639,341.409v 4.61363" fill="none" stroke="black"/>
<path d="M124.991,341.409v 4.61363" fill="none" stroke="black"/>
<path d="M134.342,341.409v 4.61363" fill="none" stroke="black"/>
<path d="M143.693,341.409v 4.61363" fill="none" stroke="black"/>
<path d="M153.045,336.795v 9.22726" fill="none" stroke="black"/>
<path d="M162.396,341.409v 4.61363" fill="none" stroke="black"/>
<path d="M171.748,341.409v 4.61363" fill="none" stroke="black"/>
<path d="M181.099,341.409v 4.61363" fill="none" stroke="black"/>
<path d="M190.45,341.409v 4.61363" fill="none" stroke="black"/>
<path d="M199.802,336.795v 9.22726" fill="none" stroke="black"/>
<path d="M209.153,341.409v 4.61363" fill="none" stroke="black"/>
<path d="M218.505,341.409v 4.61363" fill="none" stroke="black"/>
<path d="M227.856,341.409v 4.61363" fill="none" stroke="black"/>
<path d="M237.208,341.409v 4.61363" fill="none" stroke="black"/>
<path d="M246.559,336.795v 9.22726" fill="none" stroke="black"/>
<path d="M255.91,341.409v 4.61363" fill="none" stroke="black"/>
<path d="M265.262,341.409v 4.61363" fill="none" stroke="black"/>
<path d="M274.613,341.409v 4.61363" fill="none" stroke="black"/>
<path d="M283.965,341.409v 4.61363" fill="none" stroke="black"/>
<path d="M293.316,336.795v 9.22726" fill="none" stroke="black"/>
<path d="M302.667,341.409v 4.61363" fill="none" stroke="black"/>
<path d="M312.019,341.409v 4.61363" fill="none" stroke="black"/>
<path d="M321.37,341.409v 4.61363" fill="none" stroke="black"/>
<path d="M330.722,341.409v 4.61363" fill="none" stroke="black"/>
<path d="M340.073,336.795v 9.22726" fill="none" stroke="black"/>
<path d="M349.424,341.409v 4.61363" fill="none" stroke="black"/>
<path d="M358.776,341.409v 4.61363" fill="none" stroke="black"/>
<path d="M368.127,341.409v 4.61363" fill="none" stroke="black"/>
<path d="M377.479,341.409v 4.61363" fill="none" stroke="black"/>
<path d="M386.83,336.795v 9.22726" fill="none" stroke="black"/>
<path d="M396.181,341.409v 4.61363" fill="none" stroke="black"/>
<path d="M405.533,341.409v 4.61363" fill="none" stroke="black"/>
<path d="M414.884,341.409v 4.61363" fill="none" stroke="black"/>
<path d="M424.236,341.409v 4.61363" fill="none" stroke="black"/>
<path d="M433.587,336.795v 9.22726" fill="none" stroke="black"/>
<path d="M442.939,341.409v 4.61363" fill="none" stroke="black"/>
<path d="M452.29,341.409v 4.61363" fill="none" stroke="black"/>
<path d="M461.641,341.409v 4.61363" fill="none" stroke="black"/>
<path d="M470.993,341.409v 4.61363" fill="none" stroke="black"/>
<path d="M480.344,336.795v 9.22726" fill="none" stroke="black"/>
<path d="M59.5308,336.795v 9.22726" fill="none" stroke="black"/>
<path d="M480.344,336.795v 9.22726" fill="none" stroke="black"/>
<path d="M489.696,341.409v 4.61363" fill="none" stroke="black"/>
<path d="M499.047,341.409v 4.61363" fill="none" stroke="black"/>
<path d="M508.398,341.409v 4.61363" fill="none" stroke="black"/>
<path d="M57.1929,346.022v -307.575" fill="none" stroke="black"/>
<path d="M70.7992,346.022h -13.6063" fill="none" stroke="black"/>
<path d="M63.9961,335.77h -6.80315" fill="none" stroke="black"/>
<path d="M63.9961,325.517h -6.80315" fill="none" stroke="black"/>
<path d="M63.9961,315.265h -6.80315" fill="none" stroke="black"/>
<path d="M63.9961,305.012h -6.80315" fill="none" stroke="black"/>
<path d="M70.7992,294.76h -13.6063" fill="none" stroke="black"/>
<path d="M63.9961,284.507h -6.80315" fill="none" stroke="black"/>
<path d="M63.9961,274.255h -6.80315" fill="none" stroke="black"/>
<path d="M63.9961,264.002h -6.80315" fill="none" stroke="black"/>
<path d="M63.9961,253.75h -6.80315" fill="none" stroke="black"/>
<path d="M70.7992,243.497h -13.6063" fill="none" stroke="black"/>
<path d="M63.9961,233.245h -6.80315" fill="none" stroke="black"/>
<path d="M63.9961,222.992h -6.80315" fill="none" stroke="black"/>
<path d="M63.9961,212.74h -6.80315" fill="none" stroke="black"/>
<path d="M63.9961,202.487h -6.80315" fill="none" stroke="black"/>
<path d="M70.7992,192.235h -13.6063" fill="none" stroke="black"/>
<path d="M63.9961,181.982h -6.80315" fill="none" stroke="black"/>
<path d="M63.9961,171.73h -6.80315" fill="none" stroke="black"/>
<path d="M63.9961,161.477h -6.80315" fill="none" stroke="black"/>
<path d="M63.9961,151.225h -6.80315" fill="none" stroke="black"/>
<path d="M70.7992,140.972h -13.6063" fill="none" stroke="black"/>
<path d="M63.9961,130.72h -6.80315" fill="none" stroke="black"/>
<path d="M63.9961,120.467h -6.80315" fill="none" stroke="black"/>
<path d="M63.9961,110.215h -6.80315" fill="none" stroke="black"/>
<path d="M63.9961,99.962h -6.80315" fill="none" stroke="black"/>
<path d="M70.7992,89.7095h -13.6063" fill="none" stroke="black"/>
<path d="M63.9961,79.457h -6.80315" fill="none" stroke="black"/>
<path d="M63.9961,69.2045h -6.80315" fill="none" stroke="black"/>
<path d="M63.9961,58.9519h -6.80315" fill="none" stroke="black"/>
<path d="M63.9961,48.6994h -6.80315" fill="none" stroke="black"/>
<path d="M70.7992,38.4469h -13.6063" fill="none" stroke="black"/>
<text xml:space="preserve" x="252.197" y="18.7347" fill="black" font-size="16.9898" font-family="Helvetica">Sector 6</text></svg>
