<?xml version="1.0" standalone="no"?>
<svg width="567.429" height="384.68" viewBox="0 0 567.429 384.68" xmlns="http://www.w3.org/2000/svg" shape-rendering="crispEdges">
<title>
./the_other_ones/vop-69.08_all.svg
</title>
<desc>
Creator: ROOT Version 6.22/02
CreationDate: Tue Jun 15 19:03:43 2021</desc>
<defs>
</defs>
<rect x="0.5" y="0" width="566.929" height="384.18" fill="white"/>
<rect x="57.1929" y="38.418" width="453.543" height="307.344" fill="white"/>
<rect x="57.1929" y="38.418" width="453.543" height="307.344" fill="none" stroke="black"/>
<path d="M57.1929,345.762h 453.543" fill="none" stroke="#000099"/>
<path d="M57.1929,345.762h 453.543" fill="none" stroke="black"/>
<path d="M57.1929,336.541v 9.22031" fill="none" stroke="black"/>
<path d="M72.311,341.152v 4.61016" fill="none" stroke="black"/>
<path d="M87.4291,341.152v 4.61016" fill="none" stroke="black"/>
<path d="M102.547,341.152v 4.61016" fill="none" stroke="black"/>
<path d="M117.665,341.152v 4.61016" fill="none" stroke="black"/>
<path d="M132.783,336.541v 9.22031" fill="none" stroke="black"/>
<path d="M147.902,341.152v 4.61016" fill="none" stroke="black"/>
<path d="M163.02,341.152v 4.61016" fill="none" stroke="black"/>
<path d="M178.138,341.152v 4.61016" fill="none" stroke="black"/>
<path d="M193.256,341.152v 4.61016" fill="none" stroke="black"/>
<path d="M208.374,336.541v 9.22031" fill="none" stroke="black"/>
<path d="M223.492,341.152v 4.61016" fill="none" stroke="black"/>
<path d="M238.61,341.152v 4.61016" fill="none" stroke="black"/>
<path d="M253.728,341.152v 4.61016" fill="none" stroke="black"/>
<path d="M268.846,341.152v 4.61016" fill="none" stroke="black"/>
<path d="M283.965,336.541v 9.22031" fill="none" stroke="black"/>
<path d="M299.083,341.152v 4.61016" fill="none" stroke="black"/>
<path d="M314.201,341.152v 4.61016" fill="none" stroke="black"/>
<path d="M329.319,341.152v 4.61016" fill="none" stroke="black"/>
<path d="M344.437,341.152v 4.61016" fill="none" stroke="black"/>
<path d="M359.555,336.541v 9.22031" fill="none" stroke="black"/>
<path d="M374.673,341.152v 4.61016" fill="none" stroke="black"/>
<path d="M389.791,341.152v 4.61016" fill="none" stroke="black"/>
<path d="M404.909,341.152v 4.61016" fill="none" stroke="black"/>
<path d="M420.028,341.152v 4.61016" fill="none" stroke="black"/>
<path d="M435.146,336.541v 9.22031" fill="none" stroke="black"/>
<path d="M450.264,341.152v 4.61016" fill="none" stroke="black"/>
<path d="M465.382,341.152v 4.61016" fill="none" stroke="black"/>
<path d="M480.5,341.152v 4.61016" fill="none" stroke="black"/>
<path d="M495.618,341.152v 4.61016" fill="none" stroke="black"/>
<path d="M510.736,336.541v 9.22031" fill="none" stroke="black"/>
<text xml:space="preserve" x="53.2943" y="358.189" fill="black" font-size="12.836" font-family="Helvetica">0</text>
<text xml:space="preserve" x="121.521" y="358.189" fill="black" font-size="12.836" font-family="Helvetica">100</text>
<text xml:space="preserve" x="197.057" y="358.189" fill="black" font-size="12.836" font-family="Helvetica">200</text>
<text xml:space="preserve" x="273.406" y="358.189" fill="black" font-size="12.836" font-family="Helvetica">300</text>
<text xml:space="preserve" x="348.942" y="358.189" fill="black" font-size="12.836" font-family="Helvetica">400</text>
<text xml:space="preserve" x="424.479" y="358.189" fill="black" font-size="12.836" font-family="Helvetica">500</text>
<text xml:space="preserve" x="500.015" y="358.189" fill="black" font-size="12.836" font-family="Helvetica">600</text>
<text xml:space="preserve" x="487.019" y="369.56" fill="black" font-size="12.836" font-family="Helvetica">mpv</text>
<path d="M57.1929,345.762v -307.344" fill="none" stroke="black"/>
<path d="M70.7992,345.762h -13.6063" fill="none" stroke="black"/>
<path d="M63.9961,336.005h -6.80315" fill="none" stroke="black"/>
<path d="M63.9961,326.248h -6.80315" fill="none" stroke="black"/>
<path d="M63.9961,316.491h -6.80315" fill="none" stroke="black"/>
<path d="M70.7992,306.734h -13.6063" fill="none" stroke="black"/>
<path d="M63.9961,296.977h -6.80315" fill="none" stroke="black"/>
<path d="M63.9961,287.22h -6.80315" fill="none" stroke="black"/>
<path d="M63.9961,277.463h -6.80315" fill="none" stroke="black"/>
<path d="M70.7992,267.706h -13.6063" fill="none" stroke="black"/>
<path d="M63.9961,257.949h -6.80315" fill="none" stroke="black"/>
<path d="M63.9961,248.192h -6.80315" fill="none" stroke="black"/>
<path d="M63.9961,238.435h -6.80315" fill="none" stroke="black"/>
<path d="M70.7992,228.678h -13.6063" fill="none" stroke="black"/>
<path d="M63.9961,218.921h -6.80315" fill="none" stroke="black"/>
<path d="M63.9961,209.165h -6.80315" fill="none" stroke="black"/>
<path d="M63.9961,199.408h -6.80315" fill="none" stroke="black"/>
<path d="M70.7992,189.651h -13.6063" fill="none" stroke="black"/>
<path d="M63.9961,179.894h -6.80315" fill="none" stroke="black"/>
<path d="M63.9961,170.137h -6.80315" fill="none" stroke="black"/>
<path d="M63.9961,160.38h -6.80315" fill="none" stroke="black"/>
<path d="M70.7992,150.623h -13.6063" fill="none" stroke="black"/>
<path d="M63.9961,140.866h -6.80315" fill="none" stroke="black"/>
<path d="M63.9961,131.109h -6.80315" fill="none" stroke="black"/>
<path d="M63.9961,121.352h -6.80315" fill="none" stroke="black"/>
<path d="M70.7992,111.595h -13.6063" fill="none" stroke="black"/>
<path d="M63.9961,101.838h -6.80315" fill="none" stroke="black"/>
<path d="M63.9961,92.0812h -6.80315" fill="none" stroke="black"/>
<path d="M63.9961,82.3242h -6.80315" fill="none" stroke="black"/>
<path d="M70.7992,72.5673h -13.6063" fill="none" stroke="black"/>
<path d="M70.7992,72.5673h -13.6063" fill="none" stroke="black"/>
<path d="M63.9961,62.8103h -6.80315" fill="none" stroke="black"/>
<path d="M63.9961,53.0534h -6.80315" fill="none" stroke="black"/>
<path d="M63.9961,43.2965h -6.80315" fill="none" stroke="black"/>
<text xml:space="preserve" x="47.6087" y="350.067" fill="black" font-size="12.836" font-family="Helvetica">0</text>
<text xml:space="preserve" x="47.6087" y="311.08" fill="black" font-size="12.836" font-family="Helvetica">2</text>
<text xml:space="preserve" x="47.6087" y="272.094" fill="black" font-size="12.836" font-family="Helvetica">4</text>
<text xml:space="preserve" x="47.6087" y="233.107" fill="black" font-size="12.836" font-family="Helvetica">6</text>
<text xml:space="preserve" x="47.6087" y="194.12" fill="black" font-size="12.836" font-family="Helvetica">8</text>
<text xml:space="preserve" x="41.111" y="155.134" fill="black" font-size="12.836" font-family="Helvetica">10</text>
<text xml:space="preserve" x="40.2988" y="116.147" fill="black" font-size="12.836" font-family="Helvetica">12</text>
<text xml:space="preserve" x="40.2988" y="77.1608" fill="black" font-size="12.836" font-family="Helvetica">14</text>
<g transform="rotate(-90,27.3032,86.0953)">
<text xml:space="preserve" x="27.3032" y="86.0953" fill="black" font-size="12.836" font-family="Helvetica">n_blocks</text>
</g>
<text xml:space="preserve" x="242.541" y="17.8688" fill="black" font-size="18.7414" font-family="Helvetica">vop 69.08</text>
<rect x="57.6465" y="345.762" width="4.73197" height="0" fill="#007d34" fill-opacity="0.50" stroke-opacity="0.50"/>
<rect x="72.7646" y="345.762" width="4.73197" height="0" fill="#007d34" fill-opacity="0.50" stroke-opacity="0.50"/>
<rect x="87.8827" y="345.762" width="4.73197" height="0" fill="#007d34" fill-opacity="0.50" stroke-opacity="0.50"/>
<rect x="103.001" y="345.762" width="4.73197" height="0" fill="#007d34" fill-opacity="0.50" stroke-opacity="0.50"/>
<rect x="118.119" y="345.762" width="4.73197" height="0" fill="#007d34" fill-opacity="0.50" stroke-opacity="0.50"/>
<rect x="133.237" y="345.762" width="4.73197" height="0" fill="#007d34" fill-opacity="0.50" stroke-opacity="0.50"/>
<rect x="148.355" y="345.762" width="4.73197" height="0" fill="#007d34" fill-opacity="0.50" stroke-opacity="0.50"/>
<rect x="163.473" y="345.762" width="4.73197" height="0" fill="#007d34" fill-opacity="0.50" stroke-opacity="0.50"/>
<rect x="178.591" y="345.762" width="4.73197" height="0" fill="#007d34" fill-opacity="0.50" stroke-opacity="0.50"/>
<rect x="193.709" y="345.762" width="4.73197" height="0" fill="#007d34" fill-opacity="0.50" stroke-opacity="0.50"/>
<rect x="208.828" y="267.706" width="4.73197" height="78.0556" fill="#007d34" fill-opacity="0.50" stroke-opacity="0.50"/>
<rect x="223.946" y="267.706" width="4.73197" height="78.0556" fill="#007d34" fill-opacity="0.50" stroke-opacity="0.50"/>
<rect x="239.064" y="228.678" width="4.73197" height="117.083" fill="#007d34" fill-opacity="0.50" stroke-opacity="0.50"/>
<rect x="254.182" y="248.192" width="4.73197" height="97.5695" fill="#007d34" fill-opacity="0.50" stroke-opacity="0.50"/>
<rect x="269.3" y="287.22" width="4.73197" height="58.5417" fill="#007d34" fill-opacity="0.50" stroke-opacity="0.50"/>
<rect x="284.418" y="267.706" width="4.73197" height="78.0556" fill="#007d34" fill-opacity="0.50" stroke-opacity="0.50"/>
<rect x="299.536" y="345.762" width="4.73197" height="0" fill="#007d34" fill-opacity="0.50" stroke-opacity="0.50"/>
<rect x="314.654" y="345.762" width="4.73197" height="0" fill="#007d34" fill-opacity="0.50" stroke-opacity="0.50"/>
<rect x="329.772" y="345.762" width="4.73197" height="0" fill="#007d34" fill-opacity="0.50" stroke-opacity="0.50"/>
<rect x="344.891" y="345.762" width="4.73197" height="0" fill="#007d34" fill-opacity="0.50" stroke-opacity="0.50"/>
<rect x="360.009" y="345.762" width="4.73197" height="0" fill="#007d34" fill-opacity="0.50" stroke-opacity="0.50"/>
<rect x="375.127" y="345.762" width="4.73197" height="0" fill="#007d34" fill-opacity="0.50" stroke-opacity="0.50"/>
<rect x="390.245" y="345.762" width="4.73197" height="0" fill="#007d34" fill-opacity="0.50" stroke-opacity="0.50"/>
<rect x="405.363" y="345.762" width="4.73197" height="0" fill="#007d34" fill-opacity="0.50" stroke-opacity="0.50"/>
<rect x="420.481" y="345.762" width="4.73197" height="0" fill="#007d34" fill-opacity="0.50" stroke-opacity="0.50"/>
<rect x="435.599" y="345.762" width="4.73197" height="0" fill="#007d34" fill-opacity="0.50" stroke-opacity="0.50"/>
<rect x="450.717" y="345.762" width="4.73197" height="0" fill="#007d34" fill-opacity="0.50" stroke-opacity="0.50"/>
<rect x="465.835" y="345.762" width="4.73197" height="0" fill="#007d34" fill-opacity="0.50" stroke-opacity="0.50"/>
<rect x="480.954" y="345.762" width="4.73197" height="0" fill="#007d34" fill-opacity="0.50" stroke-opacity="0.50"/>
<rect x="496.072" y="345.762" width="4.73197" height="0" fill="#007d34" fill-opacity="0.50" stroke-opacity="0.50"/>
<path d="M59.4606,345.675l 4.53543, -0.0344514l 4.53543, -0.0467082l 4.53543, -0.0627716l 4.53543, -0.0836185l 4.53543, -0.110407l 4.53543, -0.144486l 4.53543, -0.187401l 4.53543, -0.240891l 4.53543, -0.306864l 4.53543, -0.387369l 4.53543, -0.484543l
 4.53543, -0.600537l 4.53543, -0.737424l 4.53543, -0.897075l 4.53543, -1.08103l 4.53543, -1.29033l 4.53543, -1.52534l 4.53543, -1.78562l 4.53543, -2.06968l 4.53543, -2.37488l 4.53543, -2.69727l 4.53543, -3.03155l 4.53543, -3.371l 4.53543, -3.70752l
 4.53543, -4.03182l 4.53543, -4.33353l 4.53543, -4.60158l 4.53543, -4.82451l 4.53543, -4.99099l 4.53543, -5.09022l 4.53543, -5.11255l 4.53543, -5.04997l 4.53543, -4.8966l 4.53543, -4.64913l 4.53543, -4.30719l 4.53543, -3.87354l 4.53543, -3.35416l
 4.53543, -2.75818l 4.53543, -2.09761l 4.53543, -1.38701l 4.53543, -0.64289l 4.53543, 0.116882l 4.53543, 0.873803l 4.53543, 1.60949l 4.53543, 2.30641l 4.53543, 2.94859l 4.53543, 3.52221l 4.53543, 4.0161l 4.53543, 4.42209" fill="none" stroke="#007d34"
 stroke-width="2"/>
<path d="M281.697,272.23l 4.53543, 4.73518l 4.53543, 4.95358l 4.53543, 5.07861l 4.53543, 5.1144l 4.53543, 5.06752l 4.53543, 4.94656l 4.53543, 4.76157l 4.53543, 4.52357l 4.53543, 4.24398l 4.53543, 3.93418l 4.53543, 3.60508l 4.53543, 3.26672l 4.53543,
 2.92806l 4.53543, 2.59678l 4.53543, 2.27916l 4.53543, 1.98009l 4.53543, 1.70311l 4.53543, 1.45048l 4.53543, 1.22335l 4.53543, 1.02191l 4.53543, 0.84555l 4.53543, 0.693068l 4.53543, 0.562805l 4.53543, 0.452813l 4.53543, 0.360985l 4.53543, 0.285165l
 4.53543, 0.223237l 4.53543, 0.173188l 4.53543, 0.133161l 4.53543, 0.101475l 4.53543, 0.0766452l 4.53543, 0.057381l 4.53543, 0.0425819l 4.53543, 0.0313235l 4.53543, 0.022841l 4.53543, 0.0165109l 4.53543, 0.0390948h 54.4252" fill="none"
 stroke="#007d34" stroke-width="2"/>
<path d="M503.933,345.762h 4.53543" fill="none" stroke="#007d34" stroke-width="2"/>
<rect x="62.3784" y="326.248" width="4.73197" height="19.5139" fill="#f6768e" fill-opacity="0.50" stroke-opacity="0.50"/>
<rect x="77.4965" y="345.762" width="4.73197" height="0" fill="#f6768e" fill-opacity="0.50" stroke-opacity="0.50"/>
<rect x="92.6146" y="345.762" width="4.73197" height="0" fill="#f6768e" fill-opacity="0.50" stroke-opacity="0.50"/>
<rect x="107.733" y="345.762" width="4.73197" height="0" fill="#f6768e" fill-opacity="0.50" stroke-opacity="0.50"/>
<rect x="122.851" y="345.762" width="4.73197" height="0" fill="#f6768e" fill-opacity="0.50" stroke-opacity="0.50"/>
<rect x="137.969" y="326.248" width="4.73197" height="19.5139" fill="#f6768e" fill-opacity="0.50" stroke-opacity="0.50"/>
<rect x="153.087" y="345.762" width="4.73197" height="0" fill="#f6768e" fill-opacity="0.50" stroke-opacity="0.50"/>
<rect x="168.205" y="345.762" width="4.73197" height="0" fill="#f6768e" fill-opacity="0.50" stroke-opacity="0.50"/>
<rect x="183.323" y="326.248" width="4.73197" height="19.5139" fill="#f6768e" fill-opacity="0.50" stroke-opacity="0.50"/>
<rect x="198.441" y="248.192" width="4.73197" height="97.5695" fill="#f6768e" fill-opacity="0.50" stroke-opacity="0.50"/>
<rect x="213.56" y="209.165" width="4.73197" height="136.597" fill="#f6768e" fill-opacity="0.50" stroke-opacity="0.50"/>
<rect x="228.678" y="53.0534" width="4.73197" height="292.708" fill="#f6768e" fill-opacity="0.50" stroke-opacity="0.50"/>
<rect x="243.796" y="150.623" width="4.73197" height="195.139" fill="#f6768e" fill-opacity="0.50" stroke-opacity="0.50"/>
<rect x="258.914" y="170.137" width="4.73197" height="175.625" fill="#f6768e" fill-opacity="0.50" stroke-opacity="0.50"/>
<rect x="274.032" y="111.595" width="4.73197" height="234.167" fill="#f6768e" fill-opacity="0.50" stroke-opacity="0.50"/>
<rect x="289.15" y="131.109" width="4.73197" height="214.653" fill="#f6768e" fill-opacity="0.50" stroke-opacity="0.50"/>
<rect x="304.268" y="228.678" width="4.73197" height="117.083" fill="#f6768e" fill-opacity="0.50" stroke-opacity="0.50"/>
<rect x="319.386" y="189.651" width="4.73197" height="156.111" fill="#f6768e" fill-opacity="0.50" stroke-opacity="0.50"/>
<rect x="334.504" y="306.734" width="4.73197" height="39.0278" fill="#f6768e" fill-opacity="0.50" stroke-opacity="0.50"/>
<rect x="349.623" y="326.248" width="4.73197" height="19.5139" fill="#f6768e" fill-opacity="0.50" stroke-opacity="0.50"/>
<rect x="364.741" y="345.762" width="4.73197" height="0" fill="#f6768e" fill-opacity="0.50" stroke-opacity="0.50"/>
<rect x="379.859" y="345.762" width="4.73197" height="0" fill="#f6768e" fill-opacity="0.50" stroke-opacity="0.50"/>
<rect x="394.977" y="345.762" width="4.73197" height="0" fill="#f6768e" fill-opacity="0.50" stroke-opacity="0.50"/>
<rect x="410.095" y="345.762" width="4.73197" height="0" fill="#f6768e" fill-opacity="0.50" stroke-opacity="0.50"/>
<rect x="425.213" y="345.762" width="4.73197" height="0" fill="#f6768e" fill-opacity="0.50" stroke-opacity="0.50"/>
<rect x="440.331" y="345.762" width="4.73197" height="0" fill="#f6768e" fill-opacity="0.50" stroke-opacity="0.50"/>
<rect x="455.449" y="345.762" width="4.73197" height="0" fill="#f6768e" fill-opacity="0.50" stroke-opacity="0.50"/>
<rect x="470.567" y="345.762" width="4.73197" height="0" fill="#f6768e" fill-opacity="0.50" stroke-opacity="0.50"/>
<rect x="485.686" y="345.762" width="4.73197" height="0" fill="#f6768e" fill-opacity="0.50" stroke-opacity="0.50"/>
<rect x="500.804" y="345.762" width="4.73197" height="0" fill="#f6768e" fill-opacity="0.50" stroke-opacity="0.50"/>
<path d="M59.4606,345.762h 27.2126l 4.53543, -0.0332433l 4.53543, -0.0194362l 4.53543, -0.0297818l 4.53543, -0.0450446l 4.53543, -0.0672459l 4.53543, -0.0990834l 4.53543, -0.144087l 4.53543, -0.206784l 4.53543, -0.292851l 4.53543, -0.409249l 4.53543,
 -0.564294l 4.53543, -0.767654l 4.53543, -1.03022l 4.53543, -1.3638l 4.53543, -1.78066l 4.53543, -2.2928l 4.53543, -2.911l 4.53543, -3.64366l 4.53543, -4.49542l 4.53543, -5.46572l 4.53543, -6.54726l 4.53543, -7.72468l 4.53543, -8.97348l 4.53543,
 -10.2594l 4.53543, -11.5387l 4.53543, -12.7585l 4.53543, -13.8592l 4.53543, -14.7766l 4.53543, -15.4455l 4.53543, -15.8039l 4.53543, -15.7974l 4.53543, -15.3836l 4.53543, -14.5365l 4.53543, -13.2495l 4.53543, -11.5378l 4.53543, -9.43908l 4.53543,
 -7.01243l 4.53543, -4.33585l 4.53543, -1.50214l 4.53543, 1.38647l 4.53543, 4.2244l 4.53543, 6.90916l 4.53543, 9.34747" fill="none" stroke="#f6768e" stroke-width="2"/>
<path d="M281.697,131.486l 4.53543, 11.4606l 4.53543, 13.1887l 4.53543, 14.4932l 4.53543, 15.358l 4.53543, 15.7888l 4.53543, 15.811l 4.53543, 15.4663l 4.53543, 14.8087l 4.53543, 13.9l 4.53543, 12.8055l 4.53543, 11.5892l 4.53543, 10.3113l 4.53543,
 9.02468l 4.53543, 7.77366l 4.53543, 6.59284l 4.53543, 5.50709l 4.53543, 4.53214l 4.53543, 3.67556l 4.53543, 2.93818l 4.53543, 2.31552l 4.53543, 1.79932l 4.53543, 1.37886l 4.53543, 1.04217l 4.53543, 0.776983l 4.53543, 0.571462l 4.53543, 0.414671l
 4.53543, 0.296891l 4.53543, 0.209748l 4.53543, 0.146231l 4.53543, 0.10061l 4.53543, 0.0683183l 4.53543, 0.045787l 4.53543, 0.0302885l 4.53543, 0.0197772l 4.53543, 0.0338717h 63.4961" fill="none" stroke="#f6768e" stroke-width="2"/>
<path d="M503.933,345.762h 4.53543" fill="none" stroke="#f6768e" stroke-width="2"/>
<rect x="67.1104" y="345.762" width="4.73197" height="0" fill="#00538a" fill-opacity="0.50" stroke-opacity="0.50"/>
<rect x="82.2285" y="345.762" width="4.73197" height="0" fill="#00538a" fill-opacity="0.50" stroke-opacity="0.50"/>
<rect x="97.3466" y="345.762" width="4.73197" height="0" fill="#00538a" fill-opacity="0.50" stroke-opacity="0.50"/>
<rect x="112.465" y="345.762" width="4.73197" height="0" fill="#00538a" fill-opacity="0.50" stroke-opacity="0.50"/>
<rect x="127.583" y="345.762" width="4.73197" height="0" fill="#00538a" fill-opacity="0.50" stroke-opacity="0.50"/>
<rect x="142.701" y="345.762" width="4.73197" height="0" fill="#00538a" fill-opacity="0.50" stroke-opacity="0.50"/>
<rect x="157.819" y="326.248" width="4.73197" height="19.5139" fill="#00538a" fill-opacity="0.50" stroke-opacity="0.50"/>
<rect x="172.937" y="345.762" width="4.73197" height="0" fill="#00538a" fill-opacity="0.50" stroke-opacity="0.50"/>
<rect x="188.055" y="326.248" width="4.73197" height="19.5139" fill="#00538a" fill-opacity="0.50" stroke-opacity="0.50"/>
<rect x="203.173" y="326.248" width="4.73197" height="19.5139" fill="#00538a" fill-opacity="0.50" stroke-opacity="0.50"/>
<rect x="218.292" y="267.706" width="4.73197" height="78.0556" fill="#00538a" fill-opacity="0.50" stroke-opacity="0.50"/>
<rect x="233.41" y="267.706" width="4.73197" height="78.0556" fill="#00538a" fill-opacity="0.50" stroke-opacity="0.50"/>
<rect x="248.528" y="189.651" width="4.73197" height="156.111" fill="#00538a" fill-opacity="0.50" stroke-opacity="0.50"/>
<rect x="263.646" y="131.109" width="4.73197" height="214.653" fill="#00538a" fill-opacity="0.50" stroke-opacity="0.50"/>
<rect x="278.764" y="131.109" width="4.73197" height="214.653" fill="#00538a" fill-opacity="0.50" stroke-opacity="0.50"/>
<rect x="293.882" y="209.165" width="4.73197" height="136.597" fill="#00538a" fill-opacity="0.50" stroke-opacity="0.50"/>
<rect x="309" y="189.651" width="4.73197" height="156.111" fill="#00538a" fill-opacity="0.50" stroke-opacity="0.50"/>
<rect x="324.118" y="189.651" width="4.73197" height="156.111" fill="#00538a" fill-opacity="0.50" stroke-opacity="0.50"/>
<rect x="339.236" y="189.651" width="4.73197" height="156.111" fill="#00538a" fill-opacity="0.50" stroke-opacity="0.50"/>
<rect x="354.354" y="150.623" width="4.73197" height="195.139" fill="#00538a" fill-opacity="0.50" stroke-opacity="0.50"/>
<rect x="369.473" y="306.734" width="4.73197" height="39.0278" fill="#00538a" fill-opacity="0.50" stroke-opacity="0.50"/>
<rect x="384.591" y="345.762" width="4.73197" height="0" fill="#00538a" fill-opacity="0.50" stroke-opacity="0.50"/>
<rect x="399.709" y="345.762" width="4.73197" height="0" fill="#00538a" fill-opacity="0.50" stroke-opacity="0.50"/>
<rect x="414.827" y="345.762" width="4.73197" height="0" fill="#00538a" fill-opacity="0.50" stroke-opacity="0.50"/>
<rect x="429.945" y="345.762" width="4.73197" height="0" fill="#00538a" fill-opacity="0.50" stroke-opacity="0.50"/>
<rect x="445.063" y="345.762" width="4.73197" height="0" fill="#00538a" fill-opacity="0.50" stroke-opacity="0.50"/>
<rect x="460.181" y="345.762" width="4.73197" height="0" fill="#00538a" fill-opacity="0.50" stroke-opacity="0.50"/>
<rect x="475.299" y="345.762" width="4.73197" height="0" fill="#00538a" fill-opacity="0.50" stroke-opacity="0.50"/>
<rect x="490.417" y="345.762" width="4.73197" height="0" fill="#00538a" fill-opacity="0.50" stroke-opacity="0.50"/>
<rect x="505.536" y="345.762" width="4.73197" height="0" fill="#00538a" fill-opacity="0.50" stroke-opacity="0.50"/>
<path d="M59.4606,345.762h 22.6772l 4.53543, -0.0343597l 4.53543, -0.0157432l 4.53543, -0.022343l 4.53543, -0.0314271l 4.53543, -0.0438096l 4.53543, -0.0605235l 4.53543, -0.0828624l 4.53543, -0.112423l 4.53543, -0.151149l 4.53543, -0.201367l 4.53543,
 -0.265822l 4.53543, -0.34769l 4.53543, -0.450583l 4.53543, -0.578515l 4.53543, -0.73585l 4.53543, -0.927198l 4.53543, -1.15727l 4.53543, -1.4307l 4.53543, -1.75175l 4.53543, -2.12409l 4.53543, -2.55039l 4.53543, -3.03195l 4.53543, -3.56835l 4.53543,
 -4.15701l 4.53543, -4.79285l 4.53543, -5.46796l 4.53543, -6.17143l 4.53543, -6.8892l 4.53543, -7.60418l 4.53543, -8.29644l 4.53543, -8.9437l 4.53543, -9.5219l 4.53543, -10.0061l 4.53543, -10.3713l 4.53543, -10.5939l 4.53543, -10.6524l 4.53543,
 -10.5291l 4.53543, -10.2109l 4.53543, -9.6903l 4.53543, -8.96643l 4.53543, -8.04531l 4.53543, -6.94013l 4.53543, -5.67106l 4.53543, -4.26468" fill="none" stroke="#00538a" stroke-width="2"/>
<path d="M281.697,158.299l 4.53543, -2.75311l 4.53543, -1.17275l 4.53543, 0.4371l 4.53543, 2.03594l 4.53543, 3.58373l 4.53543, 5.04254l 4.53543, 6.37812l 4.53543, 7.56122l 4.53543, 8.56866l 4.53543, 9.384l 4.53543, 9.99793l 4.53543, 10.4082l 4.53543,
 10.6195l 4.53543, 10.6422l 4.53543, 10.4923l 4.53543, 10.1895l 4.53543, 9.75671l 4.53543, 9.21842l 4.53543, 8.59972l 4.53543, 7.92516l 4.53543, 7.21795l 4.53543, 6.49916l 4.53543, 5.78722l 4.53543, 5.09758l 4.53543, 4.44261l 4.53543, 3.83156l
 4.53543, 3.27078l 4.53543, 2.76394l 4.53543, 2.31241l 4.53543, 1.91563l 4.53543, 1.57151l 4.53543, 1.27678l 4.53543, 1.02742l 4.53543, 0.818931l 4.53543, 0.646609l 4.53543, 0.505778l 4.53543, 0.391945l 4.53543, 0.300927l 4.53543, 0.228922l 4.53543,
 0.172554l 4.53543, 0.128881l 4.53543, 0.0953884l 4.53543, 0.0699619l 4.53543, 0.050851l 4.53543, 0.0366289l 4.53543, 0.0261483l 4.53543, 0.0185l 4.53543, 0.0408777h 4.53543" fill="none" stroke="#00538a" stroke-width="2"/>
<path d="M503.933,345.762h 4.53543" fill="none" stroke="#00538a" stroke-width="2"/>
<path d="M57.1929,345.762h 453.543" fill="none" stroke="black"/>
<path d="M57.1929,336.541v 9.22031" fill="none" stroke="black"/>
<path d="M72.311,341.152v 4.61016" fill="none" stroke="black"/>
<path d="M87.4291,341.152v 4.61016" fill="none" stroke="black"/>
<path d="M102.547,341.152v 4.61016" fill="none" stroke="black"/>
<path d="M117.665,341.152v 4.61016" fill="none" stroke="black"/>
<path d="M132.783,336.541v 9.22031" fill="none" stroke="black"/>
<path d="M147.902,341.152v 4.61016" fill="none" stroke="black"/>
<path d="M163.02,341.152v 4.61016" fill="none" stroke="black"/>
<path d="M178.138,341.152v 4.61016" fill="none" stroke="black"/>
<path d="M193.256,341.152v 4.61016" fill="none" stroke="black"/>
<path d="M208.374,336.541v 9.22031" fill="none" stroke="black"/>
<path d="M223.492,341.152v 4.61016" fill="none" stroke="black"/>
<path d="M238.61,341.152v 4.61016" fill="none" stroke="black"/>
<path d="M253.728,341.152v 4.61016" fill="none" stroke="black"/>
<path d="M268.846,341.152v 4.61016" fill="none" stroke="black"/>
<path d="M283.965,336.541v 9.22031" fill="none" stroke="black"/>
<path d="M299.083,341.152v 4.61016" fill="none" stroke="black"/>
<path d="M314.201,341.152v 4.61016" fill="none" stroke="black"/>
<path d="M329.319,341.152v 4.61016" fill="none" stroke="black"/>
<path d="M344.437,341.152v 4.61016" fill="none" stroke="black"/>
<path d="M359.555,336.541v 9.22031" fill="none" stroke="black"/>
<path d="M374.673,341.152v 4.61016" fill="none" stroke="black"/>
<path d="M389.791,341.152v 4.61016" fill="none" stroke="black"/>
<path d="M404.909,341.152v 4.61016" fill="none" stroke="black"/>
<path d="M420.028,341.152v 4.61016" fill="none" stroke="black"/>
<path d="M435.146,336.541v 9.22031" fill="none" stroke="black"/>
<path d="M450.264,341.152v 4.61016" fill="none" stroke="black"/>
<path d="M465.382,341.152v 4.61016" fill="none" stroke="black"/>
<path d="M480.5,341.152v 4.61016" fill="none" stroke="black"/>
<path d="M495.618,341.152v 4.61016" fill="none" stroke="black"/>
<path d="M510.736,336.541v 9.22031" fill="none" stroke="black"/>
<path d="M57.1929,345.762v -307.344" fill="none" stroke="black"/>
<path d="M70.7992,345.762h -13.6063" fill="none" stroke="black"/>
<path d="M63.9961,336.005h -6.80315" fill="none" stroke="black"/>
<path d="M63.9961,326.248h -6.80315" fill="none" stroke="black"/>
<path d="M63.9961,316.491h -6.80315" fill="none" stroke="black"/>
<path d="M70.7992,306.734h -13.6063" fill="none" stroke="black"/>
<path d="M63.9961,296.977h -6.80315" fill="none" stroke="black"/>
<path d="M63.9961,287.22h -6.80315" fill="none" stroke="black"/>
<path d="M63.9961,277.463h -6.80315" fill="none" stroke="black"/>
<path d="M70.7992,267.706h -13.6063" fill="none" stroke="black"/>
<path d="M63.9961,257.949h -6.80315" fill="none" stroke="black"/>
<path d="M63.9961,248.192h -6.80315" fill="none" stroke="black"/>
<path d="M63.9961,238.435h -6.80315" fill="none" stroke="black"/>
<path d="M70.7992,228.678h -13.6063" fill="none" stroke="black"/>
<path d="M63.9961,218.921h -6.80315" fill="none" stroke="black"/>
<path d="M63.9961,209.165h -6.80315" fill="none" stroke="black"/>
<path d="M63.9961,199.408h -6.80315" fill="none" stroke="black"/>
<path d="M70.7992,189.651h -13.6063" fill="none" stroke="black"/>
<path d="M63.9961,179.894h -6.80315" fill="none" stroke="black"/>
<path d="M63.9961,170.137h -6.80315" fill="none" stroke="black"/>
<path d="M63.9961,160.38h -6.80315" fill="none" stroke="black"/>
<path d="M70.7992,150.623h -13.6063" fill="none" stroke="black"/>
<path d="M63.9961,140.866h -6.80315" fill="none" stroke="black"/>
<path d="M63.9961,131.109h -6.80315" fill="none" stroke="black"/>
<path d="M63.9961,121.352h -6.80315" fill="none" stroke="black"/>
<path d="M70.7992,111.595h -13.6063" fill="none" stroke="black"/>
<path d="M63.9961,101.838h -6.80315" fill="none" stroke="black"/>
<path d="M63.9961,92.0812h -6.80315" fill="none" stroke="black"/>
<path d="M63.9961,82.3242h -6.80315" fill="none" stroke="black"/>
<path d="M70.7992,72.5673h -13.6063" fill="none" stroke="black"/>
<path d="M70.7992,72.5673h -13.6063" fill="none" stroke="black"/>
<path d="M63.9961,62.8103h -6.80315" fill="none" stroke="black"/>
<path d="M63.9961,53.0534h -6.80315" fill="none" stroke="black"/>
<path d="M63.9961,43.2965h -6.80315" fill="none" stroke="black"/>
<rect x="58.0145" y="123.673" width="170.079" height="80.6778" fill="white"/>
<path d="M58.0145,204.351h 170.079" fill="none" stroke="black"/>
<path d="M228.093,204.351v -80.6778" fill="none" stroke="black"/>
<path d="M228.093,123.673h -170.079" fill="none" stroke="black"/>
<path d="M58.0145,123.673v 80.6778" fill="none" stroke="black"/>
<text xml:space="preserve" x="100.403" y="142.951" fill="black" font-size="16.1483" font-family="Helvetica">sector 8</text>
<path d="M64.3925,146.532h 29.7638v -18.8248h -29.7638z" fill="#007d34" fill-opacity="0.50" stroke-opacity="0.50"/>
<path d="M64.3925,137.119h 29.7638" fill="none" stroke="#007d34" fill-opacity="0.00" stroke-opacity="0.00"/>
<g stroke="black" stroke-width="1" fill="none">
<line x1="78.2744" y1="137.119" x2="79.2744" y2="137.119"/>
</g>
<text xml:space="preserve" x="100.403" y="169.754" fill="black" font-size="16.1483" font-family="Helvetica">sector 9</text>
<path d="M64.3925,173.424h 29.7638v -18.8248h -29.7638z" fill="#f6768e" fill-opacity="0.50" stroke-opacity="0.50"/>
<path d="M64.3925,164.012h 29.7638" fill="none" stroke="#f6768e" fill-opacity="0.00" stroke-opacity="0.00"/>
<g stroke="black" stroke-width="1" fill="none">
<line x1="78.2744" y1="164.012" x2="79.2744" y2="164.012"/>
</g>
<text xml:space="preserve" x="100.403" y="196.557" fill="black" font-size="16.1483" font-family="Helvetica">sector 10</text>
<path d="M64.3925,200.317h 29.7638v -18.8248h -29.7638z" fill="#00538a" fill-opacity="0.50" stroke-opacity="0.50"/>
<path d="M64.3925,190.905h 29.7638" fill="none" stroke="#00538a" fill-opacity="0.00" stroke-opacity="0.00"/>
<g stroke="black" stroke-width="1" fill="none">
<line x1="78.2744" y1="190.905" x2="79.2744" y2="190.905"/>
</g>
<text xml:space="preserve" x="242.541" y="17.8688" fill="black" font-size="18.7414" font-family="Helvetica">vop 69.08</text></svg>
