<?xml version="1.0" standalone="no"?>
<svg width="567.429" height="384.969" viewBox="0 0 567.429 384.969" xmlns="http://www.w3.org/2000/svg" shape-rendering="crispEdges">
<title>
./sector_diagrams/diff/sector13.svg
</title>
<desc>
Creator: ROOT Version 6.24/00
CreationDate: Mon Jul 19 12:15:41 2021</desc>
<defs>
</defs>
<rect x="0.5" y="0" width="566.929" height="384.469" fill="white"/>
<rect x="57.1929" y="38.4469" width="453.543" height="307.575" fill="white"/>
<rect x="57.1929" y="38.4469" width="453.543" height="307.575" fill="none" stroke="black"/>
<path d="M57.1929,346.022h 453.543" fill="none" stroke="black"/>
<path d="M57.1929,38.4469v 307.575" fill="none" stroke="black" stroke-dasharray=" 1, 2"/>
<path d="M104.934,38.4469v 307.575" fill="none" stroke="black" stroke-dasharray=" 1, 2"/>
<path d="M152.676,38.4469v 307.575" fill="none" stroke="black" stroke-dasharray=" 1, 2"/>
<path d="M200.417,38.4469v 307.575" fill="none" stroke="black" stroke-dasharray=" 1, 2"/>
<path d="M248.159,38.4469v 307.575" fill="none" stroke="black" stroke-dasharray=" 1, 2"/>
<path d="M295.9,38.4469v 307.575" fill="none" stroke="black" stroke-dasharray=" 1, 2"/>
<path d="M343.641,38.4469v 307.575" fill="none" stroke="black" stroke-dasharray=" 1, 2"/>
<path d="M391.383,38.4469v 307.575" fill="none" stroke="black" stroke-dasharray=" 1, 2"/>
<path d="M439.124,38.4469v 307.575" fill="none" stroke="black" stroke-dasharray=" 1, 2"/>
<path d="M486.866,38.4469v 307.575" fill="none" stroke="black" stroke-dasharray=" 1, 2"/>
<path d="M486.866,38.4469v 307.575" fill="none" stroke="black" stroke-dasharray=" 1, 2"/>
<path d="M57.1929,346.022v -307.575" fill="none" stroke="black"/>
<path d="M510.736,346.022h -453.543" fill="none" stroke="black" stroke-dasharray=" 1, 2"/>
<path d="M510.736,315.265h -453.543" fill="none" stroke="black" stroke-dasharray=" 1, 2"/>
<path d="M510.736,284.507h -453.543" fill="none" stroke="black" stroke-dasharray=" 1, 2"/>
<path d="M510.736,253.75h -453.543" fill="none" stroke="black" stroke-dasharray=" 1, 2"/>
<path d="M510.736,222.992h -453.543" fill="none" stroke="black" stroke-dasharray=" 1, 2"/>
<path d="M510.736,192.235h -453.543" fill="none" stroke="black" stroke-dasharray=" 1, 2"/>
<path d="M510.736,161.477h -453.543" fill="none" stroke="black" stroke-dasharray=" 1, 2"/>
<path d="M510.736,130.72h -453.543" fill="none" stroke="black" stroke-dasharray=" 1, 2"/>
<path d="M510.736,99.962h -453.543" fill="none" stroke="black" stroke-dasharray=" 1, 2"/>
<path d="M510.736,69.2045h -453.543" fill="none" stroke="black" stroke-dasharray=" 1, 2"/>
<path d="M510.736,38.4469h -453.543" fill="none" stroke="black" stroke-dasharray=" 1, 2"/>
<path d="M57.1929,192.235h 453.543" fill="none" stroke="#000099"/>
<path d="M57.1929,346.022h 453.543" fill="none" stroke="black"/>
<path d="M57.1929,336.795v 9.22726" fill="none" stroke="black"/>
<path d="M66.7412,341.409v 4.61363" fill="none" stroke="black"/>
<path d="M76.2895,341.409v 4.61363" fill="none" stroke="black"/>
<path d="M85.8378,341.409v 4.61363" fill="none" stroke="black"/>
<path d="M95.386,341.409v 4.61363" fill="none" stroke="black"/>
<path d="M104.934,336.795v 9.22726" fill="none" stroke="black"/>
<path d="M114.483,341.409v 4.61363" fill="none" stroke="black"/>
<path d="M124.031,341.409v 4.61363" fill="none" stroke="black"/>
<path d="M133.579,341.409v 4.61363" fill="none" stroke="black"/>
<path d="M143.127,341.409v 4.61363" fill="none" stroke="black"/>
<path d="M152.676,336.795v 9.22726" fill="none" stroke="black"/>
<path d="M162.224,341.409v 4.61363" fill="none" stroke="black"/>
<path d="M171.772,341.409v 4.61363" fill="none" stroke="black"/>
<path d="M181.321,341.409v 4.61363" fill="none" stroke="black"/>
<path d="M190.869,341.409v 4.61363" fill="none" stroke="black"/>
<path d="M200.417,336.795v 9.22726" fill="none" stroke="black"/>
<path d="M209.965,341.409v 4.61363" fill="none" stroke="black"/>
<path d="M219.514,341.409v 4.61363" fill="none" stroke="black"/>
<path d="M229.062,341.409v 4.61363" fill="none" stroke="black"/>
<path d="M238.61,341.409v 4.61363" fill="none" stroke="black"/>
<path d="M248.159,336.795v 9.22726" fill="none" stroke="black"/>
<path d="M257.707,341.409v 4.61363" fill="none" stroke="black"/>
<path d="M267.255,341.409v 4.61363" fill="none" stroke="black"/>
<path d="M276.803,341.409v 4.61363" fill="none" stroke="black"/>
<path d="M286.352,341.409v 4.61363" fill="none" stroke="black"/>
<path d="M295.9,336.795v 9.22726" fill="none" stroke="black"/>
<path d="M305.448,341.409v 4.61363" fill="none" stroke="black"/>
<path d="M314.996,341.409v 4.61363" fill="none" stroke="black"/>
<path d="M324.545,341.409v 4.61363" fill="none" stroke="black"/>
<path d="M334.093,341.409v 4.61363" fill="none" stroke="black"/>
<path d="M343.641,336.795v 9.22726" fill="none" stroke="black"/>
<path d="M353.19,341.409v 4.61363" fill="none" stroke="black"/>
<path d="M362.738,341.409v 4.61363" fill="none" stroke="black"/>
<path d="M372.286,341.409v 4.61363" fill="none" stroke="black"/>
<path d="M381.834,341.409v 4.61363" fill="none" stroke="black"/>
<path d="M391.383,336.795v 9.22726" fill="none" stroke="black"/>
<path d="M400.931,341.409v 4.61363" fill="none" stroke="black"/>
<path d="M410.479,341.409v 4.61363" fill="none" stroke="black"/>
<path d="M420.028,341.409v 4.61363" fill="none" stroke="black"/>
<path d="M429.576,341.409v 4.61363" fill="none" stroke="black"/>
<path d="M439.124,336.795v 9.22726" fill="none" stroke="black"/>
<path d="M448.672,341.409v 4.61363" fill="none" stroke="black"/>
<path d="M458.221,341.409v 4.61363" fill="none" stroke="black"/>
<path d="M467.769,341.409v 4.61363" fill="none" stroke="black"/>
<path d="M477.317,341.409v 4.61363" fill="none" stroke="black"/>
<path d="M486.866,336.795v 9.22726" fill="none" stroke="black"/>
<path d="M486.866,336.795v 9.22726" fill="none" stroke="black"/>
<path d="M496.414,341.409v 4.61363" fill="none" stroke="black"/>
<path d="M505.962,341.409v 4.61363" fill="none" stroke="black"/>
<text xml:space="preserve" x="53.446" y="358.403" fill="black" font-size="12.8453" font-family="Helvetica">0</text>
<text xml:space="preserve" x="98.2464" y="358.403" fill="black" font-size="12.8453" font-family="Helvetica">10</text>
<text xml:space="preserve" x="145.49" y="358.403" fill="black" font-size="12.8453" font-family="Helvetica">20</text>
<text xml:space="preserve" x="193.549" y="358.403" fill="black" font-size="12.8453" font-family="Helvetica">30</text>
<text xml:space="preserve" x="241.608" y="358.403" fill="black" font-size="12.8453" font-family="Helvetica">40</text>
<text xml:space="preserve" x="288.852" y="358.403" fill="black" font-size="12.8453" font-family="Helvetica">50</text>
<text xml:space="preserve" x="336.911" y="358.403" fill="black" font-size="12.8453" font-family="Helvetica">60</text>
<text xml:space="preserve" x="384.155" y="358.403" fill="black" font-size="12.8453" font-family="Helvetica">70</text>
<text xml:space="preserve" x="432.213" y="358.403" fill="black" font-size="12.8453" font-family="Helvetica">80</text>
<text xml:space="preserve" x="480.272" y="358.403" fill="black" font-size="12.8453" font-family="Helvetica">90</text>
<text xml:space="preserve" x="433.842" y="372.251" fill="black" font-size="12.8453" font-family="Helvetica">Block Number</text>
<path d="M57.1929,346.022v -307.575" fill="none" stroke="black"/>
<path d="M70.7992,346.022h -13.6063" fill="none" stroke="black"/>
<path d="M63.9961,338.333h -6.80315" fill="none" stroke="black"/>
<path d="M63.9961,330.643h -6.80315" fill="none" stroke="black"/>
<path d="M63.9961,322.954h -6.80315" fill="none" stroke="black"/>
<path d="M70.7992,315.265h -13.6063" fill="none" stroke="black"/>
<path d="M63.9961,307.575h -6.80315" fill="none" stroke="black"/>
<path d="M63.9961,299.886h -6.80315" fill="none" stroke="black"/>
<path d="M63.9961,292.197h -6.80315" fill="none" stroke="black"/>
<path d="M70.7992,284.507h -13.6063" fill="none" stroke="black"/>
<path d="M63.9961,276.818h -6.80315" fill="none" stroke="black"/>
<path d="M63.9961,269.128h -6.80315" fill="none" stroke="black"/>
<path d="M63.9961,261.439h -6.80315" fill="none" stroke="black"/>
<path d="M70.7992,253.75h -13.6063" fill="none" stroke="black"/>
<path d="M63.9961,246.06h -6.80315" fill="none" stroke="black"/>
<path d="M63.9961,238.371h -6.80315" fill="none" stroke="black"/>
<path d="M63.9961,230.682h -6.80315" fill="none" stroke="black"/>
<path d="M70.7992,222.992h -13.6063" fill="none" stroke="black"/>
<path d="M63.9961,215.303h -6.80315" fill="none" stroke="black"/>
<path d="M63.9961,207.613h -6.80315" fill="none" stroke="black"/>
<path d="M63.9961,199.924h -6.80315" fill="none" stroke="black"/>
<path d="M70.7992,192.235h -13.6063" fill="none" stroke="black"/>
<path d="M63.9961,184.545h -6.80315" fill="none" stroke="black"/>
<path d="M63.9961,176.856h -6.80315" fill="none" stroke="black"/>
<path d="M63.9961,169.166h -6.80315" fill="none" stroke="black"/>
<path d="M70.7992,161.477h -13.6063" fill="none" stroke="black"/>
<path d="M63.9961,153.788h -6.80315" fill="none" stroke="black"/>
<path d="M63.9961,146.098h -6.80315" fill="none" stroke="black"/>
<path d="M63.9961,138.409h -6.80315" fill="none" stroke="black"/>
<path d="M70.7992,130.72h -13.6063" fill="none" stroke="black"/>
<path d="M63.9961,123.03h -6.80315" fill="none" stroke="black"/>
<path d="M63.9961,115.341h -6.80315" fill="none" stroke="black"/>
<path d="M63.9961,107.651h -6.80315" fill="none" stroke="black"/>
<path d="M70.7992,99.962h -13.6063" fill="none" stroke="black"/>
<path d="M63.9961,92.2726h -6.80315" fill="none" stroke="black"/>
<path d="M63.9961,84.5832h -6.80315" fill="none" stroke="black"/>
<path d="M63.9961,76.8938h -6.80315" fill="none" stroke="black"/>
<path d="M70.7992,69.2045h -13.6063" fill="none" stroke="black"/>
<path d="M63.9961,61.5151h -6.80315" fill="none" stroke="black"/>
<path d="M63.9961,53.8257h -6.80315" fill="none" stroke="black"/>
<path d="M63.9961,46.1363h -6.80315" fill="none" stroke="black"/>
<path d="M70.7992,38.4469h -13.6063" fill="none" stroke="black"/>
<text xml:space="preserve" x="33.8967" y="350.258" fill="black" font-size="12.8453" font-family="Helvetica">100</text>
<text xml:space="preserve" x="26.5657" y="350.258" fill="black" font-size="12.8453" font-family="Times">&#8722;</text>
<text xml:space="preserve" x="41.2277" y="320.119" fill="black" font-size="12.8453" font-family="Helvetica">80</text>
<text xml:space="preserve" x="33.8967" y="320.119" fill="black" font-size="12.8453" font-family="Times">&#8722;</text>
<text xml:space="preserve" x="41.2277" y="289.166" fill="black" font-size="12.8453" font-family="Helvetica">60</text>
<text xml:space="preserve" x="33.8967" y="289.166" fill="black" font-size="12.8453" font-family="Times">&#8722;</text>
<text xml:space="preserve" x="41.2277" y="258.213" fill="black" font-size="12.8453" font-family="Helvetica">40</text>
<text xml:space="preserve" x="33.8967" y="258.213" fill="black" font-size="12.8453" font-family="Times">&#8722;</text>
<text xml:space="preserve" x="41.2277" y="227.26" fill="black" font-size="12.8453" font-family="Helvetica">20</text>
<text xml:space="preserve" x="33.8967" y="227.26" fill="black" font-size="12.8453" font-family="Times">&#8722;</text>
<text xml:space="preserve" x="47.7441" y="197.122" fill="black" font-size="12.8453" font-family="Helvetica">0</text>
<text xml:space="preserve" x="41.2277" y="166.169" fill="black" font-size="12.8453" font-family="Helvetica">20</text>
<text xml:space="preserve" x="41.2277" y="135.216" fill="black" font-size="12.8453" font-family="Helvetica">40</text>
<text xml:space="preserve" x="41.2277" y="104.263" fill="black" font-size="12.8453" font-family="Helvetica">60</text>
<text xml:space="preserve" x="41.2277" y="73.3098" fill="black" font-size="12.8453" font-family="Helvetica">80</text>
<text xml:space="preserve" x="33.8967" y="43.1713" fill="black" font-size="12.8453" font-family="Helvetica">100</text>
<g transform="rotate(-90,15.9765,69.237)">
<text xml:space="preserve" x="15.9765" y="69.237" fill="black" font-size="12.8453" font-family="Helvetica">ΔMPV</text>
</g>
<text xml:space="preserve" x="196.807" y="18.7347" fill="black" font-size="18.0316" font-family="Helvetica">Sector 13 (Difference)</text>
<g fill="black">
<rect x="74.9754" y="222.021" width="6.51643" height="6.51643"/>
</g>
<g fill="black">
<rect x="79.6511" y="218.705" width="6.51643" height="6.51643"/>
</g>
<g fill="black">
<rect x="84.3268" y="220.44" width="6.51643" height="6.51643"/>
</g>
<g fill="black">
<rect x="89.0025" y="214.786" width="6.51643" height="6.51643"/>
</g>
<g fill="black">
<rect x="93.6782" y="225.105" width="6.51643" height="6.51643"/>
</g>
<g fill="black">
<rect x="98.3539" y="220.739" width="6.51643" height="6.51643"/>
</g>
<g fill="black">
<rect x="103.03" y="220.307" width="6.51643" height="6.51643"/>
</g>
<g fill="black">
<rect x="107.705" y="219.316" width="6.51643" height="6.51643"/>
</g>
<g fill="black">
<rect x="112.381" y="247.018" width="6.51643" height="6.51643"/>
</g>
<g fill="black">
<rect x="117.057" y="245.331" width="6.51643" height="6.51643"/>
</g>
<g fill="black">
<rect x="121.732" y="243.315" width="6.51643" height="6.51643"/>
</g>
<g fill="black">
<rect x="126.408" y="239.943" width="6.51643" height="6.51643"/>
</g>
<g fill="#ff0000">
<rect x="131.084" y="226.644" width="6.51643" height="6.51643"/>
</g>
<g fill="#ff0000">
<rect x="135.76" y="227.745" width="6.51643" height="6.51643"/>
</g>
<g fill="#ff0000">
<rect x="140.435" y="230.996" width="6.51643" height="6.51643"/>
</g>
<g fill="#ff0000">
<rect x="145.111" y="228.988" width="6.51643" height="6.51643"/>
</g>
<g fill="#ff0000">
<rect x="149.787" y="237.697" width="6.51643" height="6.51643"/>
</g>
<g fill="#ff0000">
<rect x="154.462" y="249.728" width="6.51643" height="6.51643"/>
</g>
<g fill="#ff0000">
<rect x="159.138" y="248.263" width="6.51643" height="6.51643"/>
</g>
<g fill="#ff0000">
<rect x="163.814" y="240.605" width="6.51643" height="6.51643"/>
</g>
<g fill="#ff0000">
<rect x="168.489" y="256.545" width="6.51643" height="6.51643"/>
</g>
<g fill="#ff0000">
<rect x="173.165" y="245.645" width="6.51643" height="6.51643"/>
</g>
<g fill="#ff0000">
<rect x="177.841" y="247.219" width="6.51643" height="6.51643"/>
</g>
<g fill="#ff0000">
<rect x="182.517" y="182.986" width="6.51643" height="6.51643"/>
</g>
<g fill="#ff0000">
<rect x="187.192" y="258.155" width="6.51643" height="6.51643"/>
</g>
<g fill="#ff0000">
<rect x="191.868" y="246.832" width="6.51643" height="6.51643"/>
</g>
<g fill="#ff0000">
<rect x="196.544" y="256.866" width="6.51643" height="6.51643"/>
</g>
<g fill="#ff0000">
<rect x="201.219" y="256.386" width="6.51643" height="6.51643"/>
</g>
<g fill="#009900">
<rect x="205.895" y="224.538" width="6.51643" height="6.51643"/>
</g>
<g fill="#009900">
<rect x="210.571" y="238.009" width="6.51643" height="6.51643"/>
</g>
<g fill="#009900">
<rect x="215.246" y="250.028" width="6.51643" height="6.51643"/>
</g>
<g fill="#009900">
<rect x="219.922" y="241.271" width="6.51643" height="6.51643"/>
</g>
<g fill="#009900">
<rect x="224.598" y="246.151" width="6.51643" height="6.51643"/>
</g>
<g fill="#009900">
<rect x="229.274" y="239.412" width="6.51643" height="6.51643"/>
</g>
<g fill="#009900">
<rect x="233.949" y="241.432" width="6.51643" height="6.51643"/>
</g>
<g fill="#009900">
<rect x="238.625" y="234.544" width="6.51643" height="6.51643"/>
</g>
<g fill="#009900">
<rect x="243.301" y="235.897" width="6.51643" height="6.51643"/>
</g>
<g fill="#009900">
<rect x="247.976" y="252.471" width="6.51643" height="6.51643"/>
</g>
<g fill="#009900">
<rect x="252.652" y="243.404" width="6.51643" height="6.51643"/>
</g>
<g fill="#009900">
<rect x="257.328" y="250.441" width="6.51643" height="6.51643"/>
</g>
<g fill="#009900">
<rect x="262.004" y="245.344" width="6.51643" height="6.51643"/>
</g>
<g fill="#009900">
<rect x="266.679" y="240.699" width="6.51643" height="6.51643"/>
</g>
<g fill="#009900">
<rect x="271.355" y="243.446" width="6.51643" height="6.51643"/>
</g>
<g fill="#009900">
<rect x="276.031" y="246.818" width="6.51643" height="6.51643"/>
</g>
<g fill="#0000ff">
<rect x="280.706" y="243.518" width="6.51643" height="6.51643"/>
</g>
<g fill="#0000ff">
<rect x="285.382" y="246.982" width="6.51643" height="6.51643"/>
</g>
<g fill="#0000ff">
<rect x="290.058" y="244.966" width="6.51643" height="6.51643"/>
</g>
<g fill="#0000ff">
<rect x="294.733" y="225.721" width="6.51643" height="6.51643"/>
</g>
<g fill="#0000ff">
<rect x="299.409" y="228.802" width="6.51643" height="6.51643"/>
</g>
<g fill="#0000ff">
<rect x="304.085" y="226.736" width="6.51643" height="6.51643"/>
</g>
<g fill="#0000ff">
<rect x="308.761" y="225.311" width="6.51643" height="6.51643"/>
</g>
<g fill="#0000ff">
<rect x="313.436" y="224.123" width="6.51643" height="6.51643"/>
</g>
<g fill="#0000ff">
<rect x="318.112" y="223.346" width="6.51643" height="6.51643"/>
</g>
<g fill="#0000ff">
<rect x="322.788" y="228.527" width="6.51643" height="6.51643"/>
</g>
<g fill="#0000ff">
<rect x="327.463" y="227.992" width="6.51643" height="6.51643"/>
</g>
<g fill="#0000ff">
<rect x="332.139" y="221.909" width="6.51643" height="6.51643"/>
</g>
<g fill="#0000ff">
<rect x="336.815" y="255.561" width="6.51643" height="6.51643"/>
</g>
<g fill="#0000ff">
<rect x="341.491" y="253.527" width="6.51643" height="6.51643"/>
</g>
<g fill="#0000ff">
<rect x="346.166" y="252.01" width="6.51643" height="6.51643"/>
</g>
<g fill="#0000ff">
<rect x="350.842" y="155.866" width="6.51643" height="6.51643"/>
</g>
<g fill="#cc00ff">
<rect x="355.518" y="244.553" width="6.51643" height="6.51643"/>
</g>
<g fill="#cc00ff">
<rect x="360.193" y="248.886" width="6.51643" height="6.51643"/>
</g>
<g fill="#cc00ff">
<rect x="364.869" y="229.569" width="6.51643" height="6.51643"/>
</g>
<g fill="#cc00ff">
<rect x="369.545" y="232.224" width="6.51643" height="6.51643"/>
</g>
<g fill="#cc00ff">
<rect x="374.22" y="266.584" width="6.51643" height="6.51643"/>
</g>
<g fill="#cc00ff">
<rect x="378.896" y="268.994" width="6.51643" height="6.51643"/>
</g>
<g fill="#cc00ff">
<rect x="383.572" y="272.716" width="6.51643" height="6.51643"/>
</g>
<g fill="#cc00ff">
<rect x="388.248" y="229.55" width="6.51643" height="6.51643"/>
</g>
<path d="M57.1929,346.022h 453.543" fill="none" stroke="black"/>
<path d="M57.1929,336.795v 9.22726" fill="none" stroke="black"/>
<path d="M66.7412,341.409v 4.61363" fill="none" stroke="black"/>
<path d="M76.2895,341.409v 4.61363" fill="none" stroke="black"/>
<path d="M85.8378,341.409v 4.61363" fill="none" stroke="black"/>
<path d="M95.386,341.409v 4.61363" fill="none" stroke="black"/>
<path d="M104.934,336.795v 9.22726" fill="none" stroke="black"/>
<path d="M114.483,341.409v 4.61363" fill="none" stroke="black"/>
<path d="M124.031,341.409v 4.61363" fill="none" stroke="black"/>
<path d="M133.579,341.409v 4.61363" fill="none" stroke="black"/>
<path d="M143.127,341.409v 4.61363" fill="none" stroke="black"/>
<path d="M152.676,336.795v 9.22726" fill="none" stroke="black"/>
<path d="M162.224,341.409v 4.61363" fill="none" stroke="black"/>
<path d="M171.772,341.409v 4.61363" fill="none" stroke="black"/>
<path d="M181.321,341.409v 4.61363" fill="none" stroke="black"/>
<path d="M190.869,341.409v 4.61363" fill="none" stroke="black"/>
<path d="M200.417,336.795v 9.22726" fill="none" stroke="black"/>
<path d="M209.965,341.409v 4.61363" fill="none" stroke="black"/>
<path d="M219.514,341.409v 4.61363" fill="none" stroke="black"/>
<path d="M229.062,341.409v 4.61363" fill="none" stroke="black"/>
<path d="M238.61,341.409v 4.61363" fill="none" stroke="black"/>
<path d="M248.159,336.795v 9.22726" fill="none" stroke="black"/>
<path d="M257.707,341.409v 4.61363" fill="none" stroke="black"/>
<path d="M267.255,341.409v 4.61363" fill="none" stroke="black"/>
<path d="M276.803,341.409v 4.61363" fill="none" stroke="black"/>
<path d="M286.352,341.409v 4.61363" fill="none" stroke="black"/>
<path d="M295.9,336.795v 9.22726" fill="none" stroke="black"/>
<path d="M305.448,341.409v 4.61363" fill="none" stroke="black"/>
<path d="M314.996,341.409v 4.61363" fill="none" stroke="black"/>
<path d="M324.545,341.409v 4.61363" fill="none" stroke="black"/>
<path d="M334.093,341.409v 4.61363" fill="none" stroke="black"/>
<path d="M343.641,336.795v 9.22726" fill="none" stroke="black"/>
<path d="M353.19,341.409v 4.61363" fill="none" stroke="black"/>
<path d="M362.738,341.409v 4.61363" fill="none" stroke="black"/>
<path d="M372.286,341.409v 4.61363" fill="none" stroke="black"/>
<path d="M381.834,341.409v 4.61363" fill="none" stroke="black"/>
<path d="M391.383,336.795v 9.22726" fill="none" stroke="black"/>
<path d="M400.931,341.409v 4.61363" fill="none" stroke="black"/>
<path d="M410.479,341.409v 4.61363" fill="none" stroke="black"/>
<path d="M420.028,341.409v 4.61363" fill="none" stroke="black"/>
<path d="M429.576,341.409v 4.61363" fill="none" stroke="black"/>
<path d="M439.124,336.795v 9.22726" fill="none" stroke="black"/>
<path d="M448.672,341.409v 4.61363" fill="none" stroke="black"/>
<path d="M458.221,341.409v 4.61363" fill="none" stroke="black"/>
<path d="M467.769,341.409v 4.61363" fill="none" stroke="black"/>
<path d="M477.317,341.409v 4.61363" fill="none" stroke="black"/>
<path d="M486.866,336.795v 9.22726" fill="none" stroke="black"/>
<path d="M486.866,336.795v 9.22726" fill="none" stroke="black"/>
<path d="M496.414,341.409v 4.61363" fill="none" stroke="black"/>
<path d="M505.962,341.409v 4.61363" fill="none" stroke="black"/>
<path d="M57.1929,346.022v -307.575" fill="none" stroke="black"/>
<path d="M70.7992,346.022h -13.6063" fill="none" stroke="black"/>
<path d="M63.9961,338.333h -6.80315" fill="none" stroke="black"/>
<path d="M63.9961,330.643h -6.80315" fill="none" stroke="black"/>
<path d="M63.9961,322.954h -6.80315" fill="none" stroke="black"/>
<path d="M70.7992,315.265h -13.6063" fill="none" stroke="black"/>
<path d="M63.9961,307.575h -6.80315" fill="none" stroke="black"/>
<path d="M63.9961,299.886h -6.80315" fill="none" stroke="black"/>
<path d="M63.9961,292.197h -6.80315" fill="none" stroke="black"/>
<path d="M70.7992,284.507h -13.6063" fill="none" stroke="black"/>
<path d="M63.9961,276.818h -6.80315" fill="none" stroke="black"/>
<path d="M63.9961,269.128h -6.80315" fill="none" stroke="black"/>
<path d="M63.9961,261.439h -6.80315" fill="none" stroke="black"/>
<path d="M70.7992,253.75h -13.6063" fill="none" stroke="black"/>
<path d="M63.9961,246.06h -6.80315" fill="none" stroke="black"/>
<path d="M63.9961,238.371h -6.80315" fill="none" stroke="black"/>
<path d="M63.9961,230.682h -6.80315" fill="none" stroke="black"/>
<path d="M70.7992,222.992h -13.6063" fill="none" stroke="black"/>
<path d="M63.9961,215.303h -6.80315" fill="none" stroke="black"/>
<path d="M63.9961,207.613h -6.80315" fill="none" stroke="black"/>
<path d="M63.9961,199.924h -6.80315" fill="none" stroke="black"/>
<path d="M70.7992,192.235h -13.6063" fill="none" stroke="black"/>
<path d="M63.9961,184.545h -6.80315" fill="none" stroke="black"/>
<path d="M63.9961,176.856h -6.80315" fill="none" stroke="black"/>
<path d="M63.9961,169.166h -6.80315" fill="none" stroke="black"/>
<path d="M70.7992,161.477h -13.6063" fill="none" stroke="black"/>
<path d="M63.9961,153.788h -6.80315" fill="none" stroke="black"/>
<path d="M63.9961,146.098h -6.80315" fill="none" stroke="black"/>
<path d="M63.9961,138.409h -6.80315" fill="none" stroke="black"/>
<path d="M70.7992,130.72h -13.6063" fill="none" stroke="black"/>
<path d="M63.9961,123.03h -6.80315" fill="none" stroke="black"/>
<path d="M63.9961,115.341h -6.80315" fill="none" stroke="black"/>
<path d="M63.9961,107.651h -6.80315" fill="none" stroke="black"/>
<path d="M70.7992,99.962h -13.6063" fill="none" stroke="black"/>
<path d="M63.9961,92.2726h -6.80315" fill="none" stroke="black"/>
<path d="M63.9961,84.5832h -6.80315" fill="none" stroke="black"/>
<path d="M63.9961,76.8938h -6.80315" fill="none" stroke="black"/>
<path d="M70.7992,69.2045h -13.6063" fill="none" stroke="black"/>
<path d="M63.9961,61.5151h -6.80315" fill="none" stroke="black"/>
<path d="M63.9961,53.8257h -6.80315" fill="none" stroke="black"/>
<path d="M63.9961,46.1363h -6.80315" fill="none" stroke="black"/>
<path d="M70.7992,38.4469h -13.6063" fill="none" stroke="black"/>
<text xml:space="preserve" x="196.807" y="18.7347" fill="black" font-size="18.0316" font-family="Helvetica">Sector 13 (Difference)</text></svg>
