<?xml version="1.0" standalone="no"?>
<svg width="567.429" height="384.969" viewBox="0 0 567.429 384.969" xmlns="http://www.w3.org/2000/svg" shape-rendering="crispEdges">
<title>
./plots/sector_fb/sector10_fb7.svg
</title>
<desc>
Creator: ROOT Version 6.24/00
CreationDate: Wed Sep  1 09:24:21 2021</desc>
<defs>
</defs>
<rect x="0.5" y="0" width="566.929" height="384.469" fill="white"/>
<rect x="57.1929" y="38.4469" width="453.543" height="307.575" fill="white"/>
<rect x="57.1929" y="38.4469" width="453.543" height="307.575" fill="none" stroke="black"/>
<rect x="57.1929" y="38.4469" width="453.543" height="307.575" fill="white"/>
<rect x="57.1929" y="38.4469" width="453.543" height="307.575" fill="none" stroke="black"/>
<path d="M57.1929,346.022h 453.543" fill="none" stroke="black"/>
<path d="M57.1929,38.4469v 307.575" fill="none" stroke="black" stroke-dasharray=" 1, 2"/>
<path d="M132.783,38.4469v 307.575" fill="none" stroke="black" stroke-dasharray=" 1, 2"/>
<path d="M208.374,38.4469v 307.575" fill="none" stroke="black" stroke-dasharray=" 1, 2"/>
<path d="M283.965,38.4469v 307.575" fill="none" stroke="black" stroke-dasharray=" 1, 2"/>
<path d="M359.555,38.4469v 307.575" fill="none" stroke="black" stroke-dasharray=" 1, 2"/>
<path d="M435.146,38.4469v 307.575" fill="none" stroke="black" stroke-dasharray=" 1, 2"/>
<path d="M510.736,38.4469v 307.575" fill="none" stroke="black" stroke-dasharray=" 1, 2"/>
<path d="M57.1929,346.022v -307.575" fill="none" stroke="black"/>
<path d="M510.736,346.022h -453.543" fill="none" stroke="black" stroke-dasharray=" 1, 2"/>
<path d="M510.736,292.762h -453.543" fill="none" stroke="black" stroke-dasharray=" 1, 2"/>
<path d="M510.736,239.503h -453.543" fill="none" stroke="black" stroke-dasharray=" 1, 2"/>
<path d="M510.736,186.243h -453.543" fill="none" stroke="black" stroke-dasharray=" 1, 2"/>
<path d="M510.736,132.983h -453.543" fill="none" stroke="black" stroke-dasharray=" 1, 2"/>
<path d="M510.736,79.7233h -453.543" fill="none" stroke="black" stroke-dasharray=" 1, 2"/>
<path d="M510.736,79.7233h -453.543" fill="none" stroke="black" stroke-dasharray=" 1, 2"/>
<path d="M57.1929,346.022h 453.543" fill="none" stroke="#000099"/>
<path d="M57.1929,346.022h 453.543" fill="none" stroke="black"/>
<path d="M57.1929,336.795v 9.22726" fill="none" stroke="black"/>
<path d="M72.311,341.409v 4.61363" fill="none" stroke="black"/>
<path d="M87.4291,341.409v 4.61363" fill="none" stroke="black"/>
<path d="M102.547,341.409v 4.61363" fill="none" stroke="black"/>
<path d="M117.665,341.409v 4.61363" fill="none" stroke="black"/>
<path d="M132.783,336.795v 9.22726" fill="none" stroke="black"/>
<path d="M147.902,341.409v 4.61363" fill="none" stroke="black"/>
<path d="M163.02,341.409v 4.61363" fill="none" stroke="black"/>
<path d="M178.138,341.409v 4.61363" fill="none" stroke="black"/>
<path d="M193.256,341.409v 4.61363" fill="none" stroke="black"/>
<path d="M208.374,336.795v 9.22726" fill="none" stroke="black"/>
<path d="M223.492,341.409v 4.61363" fill="none" stroke="black"/>
<path d="M238.61,341.409v 4.61363" fill="none" stroke="black"/>
<path d="M253.728,341.409v 4.61363" fill="none" stroke="black"/>
<path d="M268.846,341.409v 4.61363" fill="none" stroke="black"/>
<path d="M283.965,336.795v 9.22726" fill="none" stroke="black"/>
<path d="M299.083,341.409v 4.61363" fill="none" stroke="black"/>
<path d="M314.201,341.409v 4.61363" fill="none" stroke="black"/>
<path d="M329.319,341.409v 4.61363" fill="none" stroke="black"/>
<path d="M344.437,341.409v 4.61363" fill="none" stroke="black"/>
<path d="M359.555,336.795v 9.22726" fill="none" stroke="black"/>
<path d="M374.673,341.409v 4.61363" fill="none" stroke="black"/>
<path d="M389.791,341.409v 4.61363" fill="none" stroke="black"/>
<path d="M404.909,341.409v 4.61363" fill="none" stroke="black"/>
<path d="M420.028,341.409v 4.61363" fill="none" stroke="black"/>
<path d="M435.146,336.795v 9.22726" fill="none" stroke="black"/>
<path d="M450.264,341.409v 4.61363" fill="none" stroke="black"/>
<path d="M465.382,341.409v 4.61363" fill="none" stroke="black"/>
<path d="M480.5,341.409v 4.61363" fill="none" stroke="black"/>
<path d="M495.618,341.409v 4.61363" fill="none" stroke="black"/>
<path d="M510.736,336.795v 9.22726" fill="none" stroke="black"/>
<text xml:space="preserve" x="53.446" y="358.403" fill="black" font-size="12.8453" font-family="Helvetica">0</text>
<text xml:space="preserve" x="121.868" y="358.403" fill="black" font-size="12.8453" font-family="Helvetica">100</text>
<text xml:space="preserve" x="197.622" y="358.403" fill="black" font-size="12.8453" font-family="Helvetica">200</text>
<text xml:space="preserve" x="273.375" y="358.403" fill="black" font-size="12.8453" font-family="Helvetica">300</text>
<text xml:space="preserve" x="348.314" y="358.403" fill="black" font-size="12.8453" font-family="Helvetica">400</text>
<text xml:space="preserve" x="424.068" y="358.403" fill="black" font-size="12.8453" font-family="Helvetica">500</text>
<text xml:space="preserve" x="499.821" y="358.403" fill="black" font-size="12.8453" font-family="Helvetica">600</text>
<text xml:space="preserve" x="483.53" y="372.251" fill="black" font-size="12.8453" font-family="Helvetica">MPV</text>
<path d="M57.1929,346.022v -307.575" fill="none" stroke="black"/>
<path d="M70.7992,346.022h -13.6063" fill="none" stroke="black"/>
<path d="M63.9961,332.707h -6.80315" fill="none" stroke="black"/>
<path d="M63.9961,319.392h -6.80315" fill="none" stroke="black"/>
<path d="M63.9961,306.077h -6.80315" fill="none" stroke="black"/>
<path d="M70.7992,292.762h -13.6063" fill="none" stroke="black"/>
<path d="M63.9961,279.448h -6.80315" fill="none" stroke="black"/>
<path d="M63.9961,266.133h -6.80315" fill="none" stroke="black"/>
<path d="M63.9961,252.818h -6.80315" fill="none" stroke="black"/>
<path d="M70.7992,239.503h -13.6063" fill="none" stroke="black"/>
<path d="M63.9961,226.188h -6.80315" fill="none" stroke="black"/>
<path d="M63.9961,212.873h -6.80315" fill="none" stroke="black"/>
<path d="M63.9961,199.558h -6.80315" fill="none" stroke="black"/>
<path d="M70.7992,186.243h -13.6063" fill="none" stroke="black"/>
<path d="M63.9961,172.928h -6.80315" fill="none" stroke="black"/>
<path d="M63.9961,159.613h -6.80315" fill="none" stroke="black"/>
<path d="M63.9961,146.298h -6.80315" fill="none" stroke="black"/>
<path d="M70.7992,132.983h -13.6063" fill="none" stroke="black"/>
<path d="M63.9961,119.668h -6.80315" fill="none" stroke="black"/>
<path d="M63.9961,106.353h -6.80315" fill="none" stroke="black"/>
<path d="M63.9961,93.0382h -6.80315" fill="none" stroke="black"/>
<path d="M70.7992,79.7233h -13.6063" fill="none" stroke="black"/>
<path d="M70.7992,79.7233h -13.6063" fill="none" stroke="black"/>
<path d="M63.9961,66.4083h -6.80315" fill="none" stroke="black"/>
<path d="M63.9961,53.0934h -6.80315" fill="none" stroke="black"/>
<path d="M63.9961,39.7784h -6.80315" fill="none" stroke="black"/>
<text xml:space="preserve" x="47.7441" y="350.258" fill="black" font-size="12.8453" font-family="Helvetica">0</text>
<text xml:space="preserve" x="47.7441" y="297.312" fill="black" font-size="12.8453" font-family="Helvetica">2</text>
<text xml:space="preserve" x="47.7441" y="244.366" fill="black" font-size="12.8453" font-family="Helvetica">4</text>
<text xml:space="preserve" x="47.7441" y="190.605" fill="black" font-size="12.8453" font-family="Helvetica">6</text>
<text xml:space="preserve" x="47.7441" y="137.66" fill="black" font-size="12.8453" font-family="Helvetica">8</text>
<text xml:space="preserve" x="41.2277" y="83.899" fill="black" font-size="12.8453" font-family="Helvetica">10</text>
<g transform="rotate(-90,28.1948,103.448)">
<text xml:space="preserve" x="28.1948" y="103.448" fill="black" font-size="12.8453" font-family="Helvetica">Num Blocks</text>
</g>
<rect x="57.6465" y="346.022" width="7.10551" height="0" fill="#0000ff" fill-opacity="0.70" stroke-opacity="0.70"/>
<rect x="72.7646" y="346.022" width="7.10551" height="0" fill="#0000ff" fill-opacity="0.70" stroke-opacity="0.70"/>
<rect x="87.8827" y="346.022" width="7.10551" height="0" fill="#0000ff" fill-opacity="0.70" stroke-opacity="0.70"/>
<rect x="103.001" y="346.022" width="7.10551" height="0" fill="#0000ff" fill-opacity="0.70" stroke-opacity="0.70"/>
<rect x="118.119" y="346.022" width="7.10551" height="0" fill="#0000ff" fill-opacity="0.70" stroke-opacity="0.70"/>
<rect x="133.237" y="346.022" width="7.10551" height="0" fill="#0000ff" fill-opacity="0.70" stroke-opacity="0.70"/>
<rect x="148.355" y="346.022" width="7.10551" height="0" fill="#0000ff" fill-opacity="0.70" stroke-opacity="0.70"/>
<rect x="163.473" y="346.022" width="7.10551" height="0" fill="#0000ff" fill-opacity="0.70" stroke-opacity="0.70"/>
<rect x="178.591" y="346.022" width="7.10551" height="0" fill="#0000ff" fill-opacity="0.70" stroke-opacity="0.70"/>
<rect x="193.709" y="346.022" width="7.10551" height="0" fill="#0000ff" fill-opacity="0.70" stroke-opacity="0.70"/>
<rect x="208.828" y="346.022" width="7.10551" height="0" fill="#0000ff" fill-opacity="0.70" stroke-opacity="0.70"/>
<rect x="223.946" y="346.022" width="7.10551" height="0" fill="#0000ff" fill-opacity="0.70" stroke-opacity="0.70"/>
<rect x="239.064" y="319.392" width="7.10551" height="26.6299" fill="#0000ff" fill-opacity="0.70" stroke-opacity="0.70"/>
<rect x="254.182" y="346.022" width="7.10551" height="0" fill="#0000ff" fill-opacity="0.70" stroke-opacity="0.70"/>
<rect x="269.3" y="319.392" width="7.10551" height="26.6299" fill="#0000ff" fill-opacity="0.70" stroke-opacity="0.70"/>
<rect x="284.418" y="346.022" width="7.10551" height="0" fill="#0000ff" fill-opacity="0.70" stroke-opacity="0.70"/>
<rect x="299.536" y="319.392" width="7.10551" height="26.6299" fill="#0000ff" fill-opacity="0.70" stroke-opacity="0.70"/>
<rect x="314.654" y="346.022" width="7.10551" height="0" fill="#0000ff" fill-opacity="0.70" stroke-opacity="0.70"/>
<rect x="329.772" y="346.022" width="7.10551" height="0" fill="#0000ff" fill-opacity="0.70" stroke-opacity="0.70"/>
<rect x="344.891" y="346.022" width="7.10551" height="0" fill="#0000ff" fill-opacity="0.70" stroke-opacity="0.70"/>
<rect x="360.009" y="346.022" width="7.10551" height="0" fill="#0000ff" fill-opacity="0.70" stroke-opacity="0.70"/>
<rect x="375.127" y="346.022" width="7.10551" height="0" fill="#0000ff" fill-opacity="0.70" stroke-opacity="0.70"/>
<rect x="390.245" y="346.022" width="7.10551" height="0" fill="#0000ff" fill-opacity="0.70" stroke-opacity="0.70"/>
<rect x="405.363" y="346.022" width="7.10551" height="0" fill="#0000ff" fill-opacity="0.70" stroke-opacity="0.70"/>
<rect x="420.481" y="346.022" width="7.10551" height="0" fill="#0000ff" fill-opacity="0.70" stroke-opacity="0.70"/>
<rect x="435.599" y="346.022" width="7.10551" height="0" fill="#0000ff" fill-opacity="0.70" stroke-opacity="0.70"/>
<rect x="450.717" y="346.022" width="7.10551" height="0" fill="#0000ff" fill-opacity="0.70" stroke-opacity="0.70"/>
<rect x="465.835" y="346.022" width="7.10551" height="0" fill="#0000ff" fill-opacity="0.70" stroke-opacity="0.70"/>
<rect x="480.954" y="346.022" width="7.10551" height="0" fill="#0000ff" fill-opacity="0.70" stroke-opacity="0.70"/>
<rect x="496.072" y="346.022" width="7.10551" height="0" fill="#0000ff" fill-opacity="0.70" stroke-opacity="0.70"/>
<rect x="64.752" y="319.392" width="7.10551" height="26.6299" fill="black" fill-opacity="0.70" stroke-opacity="0.70"/>
<rect x="79.8701" y="346.022" width="7.10551" height="0" fill="black" fill-opacity="0.70" stroke-opacity="0.70"/>
<rect x="94.9882" y="346.022" width="7.10551" height="0" fill="black" fill-opacity="0.70" stroke-opacity="0.70"/>
<rect x="110.106" y="346.022" width="7.10551" height="0" fill="black" fill-opacity="0.70" stroke-opacity="0.70"/>
<rect x="125.224" y="346.022" width="7.10551" height="0" fill="black" fill-opacity="0.70" stroke-opacity="0.70"/>
<rect x="140.343" y="319.392" width="7.10551" height="26.6299" fill="black" fill-opacity="0.70" stroke-opacity="0.70"/>
<rect x="155.461" y="319.392" width="7.10551" height="26.6299" fill="black" fill-opacity="0.70" stroke-opacity="0.70"/>
<rect x="170.579" y="319.392" width="7.10551" height="26.6299" fill="black" fill-opacity="0.70" stroke-opacity="0.70"/>
<rect x="185.697" y="319.392" width="7.10551" height="26.6299" fill="black" fill-opacity="0.70" stroke-opacity="0.70"/>
<rect x="200.815" y="266.133" width="7.10551" height="79.8897" fill="black" fill-opacity="0.70" stroke-opacity="0.70"/>
<rect x="215.933" y="212.873" width="7.10551" height="133.149" fill="black" fill-opacity="0.70" stroke-opacity="0.70"/>
<rect x="231.051" y="106.353" width="7.10551" height="239.669" fill="black" fill-opacity="0.70" stroke-opacity="0.70"/>
<rect x="246.169" y="53.0934" width="7.10551" height="292.929" fill="black" fill-opacity="0.70" stroke-opacity="0.70"/>
<rect x="261.287" y="132.983" width="7.10551" height="213.039" fill="black" fill-opacity="0.70" stroke-opacity="0.70"/>
<rect x="276.406" y="79.7233" width="7.10551" height="266.299" fill="black" fill-opacity="0.70" stroke-opacity="0.70"/>
<rect x="291.524" y="266.133" width="7.10551" height="79.8897" fill="black" fill-opacity="0.70" stroke-opacity="0.70"/>
<rect x="306.642" y="212.873" width="7.10551" height="133.149" fill="black" fill-opacity="0.70" stroke-opacity="0.70"/>
<rect x="321.76" y="266.133" width="7.10551" height="79.8897" fill="black" fill-opacity="0.70" stroke-opacity="0.70"/>
<rect x="336.878" y="319.392" width="7.10551" height="26.6299" fill="black" fill-opacity="0.70" stroke-opacity="0.70"/>
<rect x="351.996" y="346.022" width="7.10551" height="0" fill="black" fill-opacity="0.70" stroke-opacity="0.70"/>
<rect x="367.114" y="346.022" width="7.10551" height="0" fill="black" fill-opacity="0.70" stroke-opacity="0.70"/>
<rect x="382.232" y="346.022" width="7.10551" height="0" fill="black" fill-opacity="0.70" stroke-opacity="0.70"/>
<rect x="397.35" y="346.022" width="7.10551" height="0" fill="black" fill-opacity="0.70" stroke-opacity="0.70"/>
<rect x="412.469" y="346.022" width="7.10551" height="0" fill="black" fill-opacity="0.70" stroke-opacity="0.70"/>
<rect x="427.587" y="346.022" width="7.10551" height="0" fill="black" fill-opacity="0.70" stroke-opacity="0.70"/>
<rect x="442.705" y="346.022" width="7.10551" height="0" fill="black" fill-opacity="0.70" stroke-opacity="0.70"/>
<rect x="457.823" y="346.022" width="7.10551" height="0" fill="black" fill-opacity="0.70" stroke-opacity="0.70"/>
<rect x="472.941" y="346.022" width="7.10551" height="0" fill="black" fill-opacity="0.70" stroke-opacity="0.70"/>
<rect x="488.059" y="346.022" width="7.10551" height="0" fill="black" fill-opacity="0.70" stroke-opacity="0.70"/>
<rect x="503.177" y="346.022" width="7.10551" height="0" fill="black" fill-opacity="0.70" stroke-opacity="0.70"/>
<path d="M57.1929,346.022h 453.543" fill="none" stroke="black"/>
<path d="M57.1929,336.795v 9.22726" fill="none" stroke="black"/>
<path d="M72.311,341.409v 4.61363" fill="none" stroke="black"/>
<path d="M87.4291,341.409v 4.61363" fill="none" stroke="black"/>
<path d="M102.547,341.409v 4.61363" fill="none" stroke="black"/>
<path d="M117.665,341.409v 4.61363" fill="none" stroke="black"/>
<path d="M132.783,336.795v 9.22726" fill="none" stroke="black"/>
<path d="M147.902,341.409v 4.61363" fill="none" stroke="black"/>
<path d="M163.02,341.409v 4.61363" fill="none" stroke="black"/>
<path d="M178.138,341.409v 4.61363" fill="none" stroke="black"/>
<path d="M193.256,341.409v 4.61363" fill="none" stroke="black"/>
<path d="M208.374,336.795v 9.22726" fill="none" stroke="black"/>
<path d="M223.492,341.409v 4.61363" fill="none" stroke="black"/>
<path d="M238.61,341.409v 4.61363" fill="none" stroke="black"/>
<path d="M253.728,341.409v 4.61363" fill="none" stroke="black"/>
<path d="M268.846,341.409v 4.61363" fill="none" stroke="black"/>
<path d="M283.965,336.795v 9.22726" fill="none" stroke="black"/>
<path d="M299.083,341.409v 4.61363" fill="none" stroke="black"/>
<path d="M314.201,341.409v 4.61363" fill="none" stroke="black"/>
<path d="M329.319,341.409v 4.61363" fill="none" stroke="black"/>
<path d="M344.437,341.409v 4.61363" fill="none" stroke="black"/>
<path d="M359.555,336.795v 9.22726" fill="none" stroke="black"/>
<path d="M374.673,341.409v 4.61363" fill="none" stroke="black"/>
<path d="M389.791,341.409v 4.61363" fill="none" stroke="black"/>
<path d="M404.909,341.409v 4.61363" fill="none" stroke="black"/>
<path d="M420.028,341.409v 4.61363" fill="none" stroke="black"/>
<path d="M435.146,336.795v 9.22726" fill="none" stroke="black"/>
<path d="M450.264,341.409v 4.61363" fill="none" stroke="black"/>
<path d="M465.382,341.409v 4.61363" fill="none" stroke="black"/>
<path d="M480.5,341.409v 4.61363" fill="none" stroke="black"/>
<path d="M495.618,341.409v 4.61363" fill="none" stroke="black"/>
<path d="M510.736,336.795v 9.22726" fill="none" stroke="black"/>
<path d="M57.1929,346.022v -307.575" fill="none" stroke="black"/>
<path d="M70.7992,346.022h -13.6063" fill="none" stroke="black"/>
<path d="M63.9961,332.707h -6.80315" fill="none" stroke="black"/>
<path d="M63.9961,319.392h -6.80315" fill="none" stroke="black"/>
<path d="M63.9961,306.077h -6.80315" fill="none" stroke="black"/>
<path d="M70.7992,292.762h -13.6063" fill="none" stroke="black"/>
<path d="M63.9961,279.448h -6.80315" fill="none" stroke="black"/>
<path d="M63.9961,266.133h -6.80315" fill="none" stroke="black"/>
<path d="M63.9961,252.818h -6.80315" fill="none" stroke="black"/>
<path d="M70.7992,239.503h -13.6063" fill="none" stroke="black"/>
<path d="M63.9961,226.188h -6.80315" fill="none" stroke="black"/>
<path d="M63.9961,212.873h -6.80315" fill="none" stroke="black"/>
<path d="M63.9961,199.558h -6.80315" fill="none" stroke="black"/>
<path d="M70.7992,186.243h -13.6063" fill="none" stroke="black"/>
<path d="M63.9961,172.928h -6.80315" fill="none" stroke="black"/>
<path d="M63.9961,159.613h -6.80315" fill="none" stroke="black"/>
<path d="M63.9961,146.298h -6.80315" fill="none" stroke="black"/>
<path d="M70.7992,132.983h -13.6063" fill="none" stroke="black"/>
<path d="M63.9961,119.668h -6.80315" fill="none" stroke="black"/>
<path d="M63.9961,106.353h -6.80315" fill="none" stroke="black"/>
<path d="M63.9961,93.0382h -6.80315" fill="none" stroke="black"/>
<path d="M70.7992,79.7233h -13.6063" fill="none" stroke="black"/>
<path d="M70.7992,79.7233h -13.6063" fill="none" stroke="black"/>
<path d="M63.9961,66.4083h -6.80315" fill="none" stroke="black"/>
<path d="M63.9961,53.0934h -6.80315" fill="none" stroke="black"/>
<path d="M63.9961,39.7784h -6.80315" fill="none" stroke="black"/>
<text xml:space="preserve" x="226.946" y="18.7347" fill="black" font-size="16.9898" font-family="Helvetica">Sector 10 FB 7</text>
<path d="M274.973,346.022v -307.575" fill="none" stroke="#0000ff" stroke-width="2" stroke-dasharray=" 3, 3"/>
<path d="M249.522,346.022v -307.575" fill="none" stroke="black" stroke-width="2" stroke-dasharray=" 3, 3"/>
<rect x="397.35" y="38.4469" width="113.386" height="96.1173" fill="white"/>
<path d="M397.35,134.564h 113.386" fill="none" stroke="black"/>
<path d="M510.736,134.564v -96.1173" fill="none" stroke="black"/>
<path d="M510.736,38.4469h -113.386" fill="none" stroke="black"/>
<path d="M397.35,38.4469v 96.1173" fill="none" stroke="black"/>
<text xml:space="preserve" x="425.697" y="53.7605" fill="black" font-size="9.92243" font-family="Helvetica">Sector</text>
<path d="M401.602,58.8718h 19.8425v -16.8205h -19.8425z" fill="#0000ff" fill-opacity="0.70" stroke-opacity="0.70"/>
<path d="M401.602,42.0513h 19.8425" fill="none" stroke="#000099"/>
<path d="M401.602,58.8718h 19.8425" fill="none" stroke="#000099"/>
<path d="M421.445,58.8718v -16.8205" fill="none" stroke="#000099"/>
<path d="M401.602,58.8718v -16.8205" fill="none" stroke="#000099"/>
<text xml:space="preserve" x="425.697" y="78.1971" fill="black" font-size="9.92243" font-family="Helvetica">Batch</text>
<path d="M401.602,82.9012h 19.8425v -16.8205h -19.8425z" fill="black" fill-opacity="0.70" stroke-opacity="0.70"/>
<path d="M401.602,66.0806h 19.8425" fill="none" stroke="#000099"/>
<path d="M401.602,82.9012h 19.8425" fill="none" stroke="#000099"/>
<path d="M421.445,82.9012v -16.8205" fill="none" stroke="#000099"/>
<path d="M401.602,82.9012v -16.8205" fill="none" stroke="#000099"/>
<text xml:space="preserve" x="425.697" y="101.005" fill="black" font-size="9.92243" font-family="Helvetica">Sector Avg (288.1)</text>
<path d="M401.602,98.5202h 19.8425" fill="none" stroke="#0000ff" stroke-width="2" stroke-dasharray=" 3, 3"/>
<text xml:space="preserve" x="425.697" y="125.441" fill="black" font-size="9.92243" font-family="Helvetica">Batch Avg (254.4)</text>
<path d="M401.602,122.55h 19.8425" fill="none" stroke="black" stroke-width="2" stroke-dasharray=" 3, 3"/></svg>
