<?xml version="1.0" standalone="no"?>
<svg width="567.429" height="384.969" viewBox="0 0 567.429 384.969" xmlns="http://www.w3.org/2000/svg" shape-rendering="crispEdges">
<title>
./sector_diagrams/combined/sector7.svg
</title>
<desc>
Creator: ROOT Version 6.22/02
CreationDate: Mon Jul 12 13:04:21 2021</desc>
<defs>
</defs>
<rect x="0.5" y="0" width="566.929" height="384.469" fill="white"/>
<rect x="57.1929" y="38.4469" width="453.543" height="307.575" fill="white"/>
<rect x="57.1929" y="38.4469" width="453.543" height="307.575" fill="none" stroke="black"/>
<path d="M57.1929,346.022h 453.543" fill="none" stroke="black"/>
<path d="M57.1929,38.4469v 307.575" fill="none" stroke="black" stroke-dasharray=" 1, 2"/>
<path d="M104.934,38.4469v 307.575" fill="none" stroke="black" stroke-dasharray=" 1, 2"/>
<path d="M152.676,38.4469v 307.575" fill="none" stroke="black" stroke-dasharray=" 1, 2"/>
<path d="M200.417,38.4469v 307.575" fill="none" stroke="black" stroke-dasharray=" 1, 2"/>
<path d="M248.159,38.4469v 307.575" fill="none" stroke="black" stroke-dasharray=" 1, 2"/>
<path d="M295.9,38.4469v 307.575" fill="none" stroke="black" stroke-dasharray=" 1, 2"/>
<path d="M343.641,38.4469v 307.575" fill="none" stroke="black" stroke-dasharray=" 1, 2"/>
<path d="M391.383,38.4469v 307.575" fill="none" stroke="black" stroke-dasharray=" 1, 2"/>
<path d="M439.124,38.4469v 307.575" fill="none" stroke="black" stroke-dasharray=" 1, 2"/>
<path d="M486.866,38.4469v 307.575" fill="none" stroke="black" stroke-dasharray=" 1, 2"/>
<path d="M486.866,38.4469v 307.575" fill="none" stroke="black" stroke-dasharray=" 1, 2"/>
<path d="M57.1929,346.022v -307.575" fill="none" stroke="black"/>
<path d="M510.736,346.022h -453.543" fill="none" stroke="black" stroke-dasharray=" 1, 2"/>
<path d="M510.736,294.76h -453.543" fill="none" stroke="black" stroke-dasharray=" 1, 2"/>
<path d="M510.736,243.497h -453.543" fill="none" stroke="black" stroke-dasharray=" 1, 2"/>
<path d="M510.736,192.235h -453.543" fill="none" stroke="black" stroke-dasharray=" 1, 2"/>
<path d="M510.736,140.972h -453.543" fill="none" stroke="black" stroke-dasharray=" 1, 2"/>
<path d="M510.736,89.7095h -453.543" fill="none" stroke="black" stroke-dasharray=" 1, 2"/>
<path d="M510.736,38.4469h -453.543" fill="none" stroke="black" stroke-dasharray=" 1, 2"/>
<path d="M57.1929,346.022h 453.543" fill="none" stroke="#000099"/>
<path d="M57.1929,346.022h 453.543" fill="none" stroke="black"/>
<path d="M57.1929,336.795v 9.22726" fill="none" stroke="black"/>
<path d="M66.7412,341.409v 4.61363" fill="none" stroke="black"/>
<path d="M76.2895,341.409v 4.61363" fill="none" stroke="black"/>
<path d="M85.8378,341.409v 4.61363" fill="none" stroke="black"/>
<path d="M95.386,341.409v 4.61363" fill="none" stroke="black"/>
<path d="M104.934,336.795v 9.22726" fill="none" stroke="black"/>
<path d="M114.483,341.409v 4.61363" fill="none" stroke="black"/>
<path d="M124.031,341.409v 4.61363" fill="none" stroke="black"/>
<path d="M133.579,341.409v 4.61363" fill="none" stroke="black"/>
<path d="M143.127,341.409v 4.61363" fill="none" stroke="black"/>
<path d="M152.676,336.795v 9.22726" fill="none" stroke="black"/>
<path d="M162.224,341.409v 4.61363" fill="none" stroke="black"/>
<path d="M171.772,341.409v 4.61363" fill="none" stroke="black"/>
<path d="M181.321,341.409v 4.61363" fill="none" stroke="black"/>
<path d="M190.869,341.409v 4.61363" fill="none" stroke="black"/>
<path d="M200.417,336.795v 9.22726" fill="none" stroke="black"/>
<path d="M209.965,341.409v 4.61363" fill="none" stroke="black"/>
<path d="M219.514,341.409v 4.61363" fill="none" stroke="black"/>
<path d="M229.062,341.409v 4.61363" fill="none" stroke="black"/>
<path d="M238.61,341.409v 4.61363" fill="none" stroke="black"/>
<path d="M248.159,336.795v 9.22726" fill="none" stroke="black"/>
<path d="M257.707,341.409v 4.61363" fill="none" stroke="black"/>
<path d="M267.255,341.409v 4.61363" fill="none" stroke="black"/>
<path d="M276.803,341.409v 4.61363" fill="none" stroke="black"/>
<path d="M286.352,341.409v 4.61363" fill="none" stroke="black"/>
<path d="M295.9,336.795v 9.22726" fill="none" stroke="black"/>
<path d="M305.448,341.409v 4.61363" fill="none" stroke="black"/>
<path d="M314.996,341.409v 4.61363" fill="none" stroke="black"/>
<path d="M324.545,341.409v 4.61363" fill="none" stroke="black"/>
<path d="M334.093,341.409v 4.61363" fill="none" stroke="black"/>
<path d="M343.641,336.795v 9.22726" fill="none" stroke="black"/>
<path d="M353.19,341.409v 4.61363" fill="none" stroke="black"/>
<path d="M362.738,341.409v 4.61363" fill="none" stroke="black"/>
<path d="M372.286,341.409v 4.61363" fill="none" stroke="black"/>
<path d="M381.834,341.409v 4.61363" fill="none" stroke="black"/>
<path d="M391.383,336.795v 9.22726" fill="none" stroke="black"/>
<path d="M400.931,341.409v 4.61363" fill="none" stroke="black"/>
<path d="M410.479,341.409v 4.61363" fill="none" stroke="black"/>
<path d="M420.028,341.409v 4.61363" fill="none" stroke="black"/>
<path d="M429.576,341.409v 4.61363" fill="none" stroke="black"/>
<path d="M439.124,336.795v 9.22726" fill="none" stroke="black"/>
<path d="M448.672,341.409v 4.61363" fill="none" stroke="black"/>
<path d="M458.221,341.409v 4.61363" fill="none" stroke="black"/>
<path d="M467.769,341.409v 4.61363" fill="none" stroke="black"/>
<path d="M477.317,341.409v 4.61363" fill="none" stroke="black"/>
<path d="M486.866,336.795v 9.22726" fill="none" stroke="black"/>
<path d="M486.866,336.795v 9.22726" fill="none" stroke="black"/>
<path d="M496.414,341.409v 4.61363" fill="none" stroke="black"/>
<path d="M505.962,341.409v 4.61363" fill="none" stroke="black"/>
<text xml:space="preserve" x="53.446" y="358.403" fill="black" font-size="12.8453" font-family="Helvetica">0</text>
<text xml:space="preserve" x="98.2464" y="358.403" fill="black" font-size="12.8453" font-family="Helvetica">10</text>
<text xml:space="preserve" x="145.49" y="358.403" fill="black" font-size="12.8453" font-family="Helvetica">20</text>
<text xml:space="preserve" x="193.549" y="358.403" fill="black" font-size="12.8453" font-family="Helvetica">30</text>
<text xml:space="preserve" x="241.608" y="358.403" fill="black" font-size="12.8453" font-family="Helvetica">40</text>
<text xml:space="preserve" x="288.852" y="358.403" fill="black" font-size="12.8453" font-family="Helvetica">50</text>
<text xml:space="preserve" x="336.911" y="358.403" fill="black" font-size="12.8453" font-family="Helvetica">60</text>
<text xml:space="preserve" x="384.155" y="358.403" fill="black" font-size="12.8453" font-family="Helvetica">70</text>
<text xml:space="preserve" x="432.213" y="358.403" fill="black" font-size="12.8453" font-family="Helvetica">80</text>
<text xml:space="preserve" x="480.272" y="358.403" fill="black" font-size="12.8453" font-family="Helvetica">90</text>
<text xml:space="preserve" x="433.842" y="372.251" fill="black" font-size="12.8453" font-family="Helvetica">Block Number</text>
<path d="M57.1929,346.022v -307.575" fill="none" stroke="black"/>
<path d="M70.7992,346.022h -13.6063" fill="none" stroke="black"/>
<path d="M63.9961,335.77h -6.80315" fill="none" stroke="black"/>
<path d="M63.9961,325.517h -6.80315" fill="none" stroke="black"/>
<path d="M63.9961,315.265h -6.80315" fill="none" stroke="black"/>
<path d="M63.9961,305.012h -6.80315" fill="none" stroke="black"/>
<path d="M70.7992,294.76h -13.6063" fill="none" stroke="black"/>
<path d="M63.9961,284.507h -6.80315" fill="none" stroke="black"/>
<path d="M63.9961,274.255h -6.80315" fill="none" stroke="black"/>
<path d="M63.9961,264.002h -6.80315" fill="none" stroke="black"/>
<path d="M63.9961,253.75h -6.80315" fill="none" stroke="black"/>
<path d="M70.7992,243.497h -13.6063" fill="none" stroke="black"/>
<path d="M63.9961,233.245h -6.80315" fill="none" stroke="black"/>
<path d="M63.9961,222.992h -6.80315" fill="none" stroke="black"/>
<path d="M63.9961,212.74h -6.80315" fill="none" stroke="black"/>
<path d="M63.9961,202.487h -6.80315" fill="none" stroke="black"/>
<path d="M70.7992,192.235h -13.6063" fill="none" stroke="black"/>
<path d="M63.9961,181.982h -6.80315" fill="none" stroke="black"/>
<path d="M63.9961,171.73h -6.80315" fill="none" stroke="black"/>
<path d="M63.9961,161.477h -6.80315" fill="none" stroke="black"/>
<path d="M63.9961,151.225h -6.80315" fill="none" stroke="black"/>
<path d="M70.7992,140.972h -13.6063" fill="none" stroke="black"/>
<path d="M63.9961,130.72h -6.80315" fill="none" stroke="black"/>
<path d="M63.9961,120.467h -6.80315" fill="none" stroke="black"/>
<path d="M63.9961,110.215h -6.80315" fill="none" stroke="black"/>
<path d="M63.9961,99.962h -6.80315" fill="none" stroke="black"/>
<path d="M70.7992,89.7095h -13.6063" fill="none" stroke="black"/>
<path d="M63.9961,79.457h -6.80315" fill="none" stroke="black"/>
<path d="M63.9961,69.2045h -6.80315" fill="none" stroke="black"/>
<path d="M63.9961,58.9519h -6.80315" fill="none" stroke="black"/>
<path d="M63.9961,48.6994h -6.80315" fill="none" stroke="black"/>
<path d="M70.7992,38.4469h -13.6063" fill="none" stroke="black"/>
<text xml:space="preserve" x="47.7441" y="350.258" fill="black" font-size="12.8453" font-family="Helvetica">0</text>
<text xml:space="preserve" x="33.8967" y="298.941" fill="black" font-size="12.8453" font-family="Helvetica">100</text>
<text xml:space="preserve" x="33.8967" y="247.624" fill="black" font-size="12.8453" font-family="Helvetica">200</text>
<text xml:space="preserve" x="33.8967" y="197.122" fill="black" font-size="12.8453" font-family="Helvetica">300</text>
<text xml:space="preserve" x="33.8967" y="145.805" fill="black" font-size="12.8453" font-family="Helvetica">400</text>
<text xml:space="preserve" x="33.8967" y="94.4882" fill="black" font-size="12.8453" font-family="Helvetica">500</text>
<text xml:space="preserve" x="33.8967" y="43.1713" fill="black" font-size="12.8453" font-family="Helvetica">600</text>
<g transform="rotate(-90,21.6784,65.1643)">
<text xml:space="preserve" x="21.6784" y="65.1643" fill="black" font-size="12.8453" font-family="Helvetica">MPV</text>
</g>
<text xml:space="preserve" x="201.695" y="18.7347" fill="black" font-size="18.0316" font-family="Helvetica">Sector 7 (Combined)</text>
<g stroke="black" stroke-width="1" fill="none">
<circle cx="68.8822" cy="194.027" r="3.25821"/>
</g>
<g stroke="black" stroke-width="1" fill="none">
<circle cx="73.5579" cy="248.207" r="3.25821"/>
</g>
<g stroke="black" stroke-width="1" fill="none">
<circle cx="78.2336" cy="200.613" r="3.25821"/>
</g>
<g stroke="black" stroke-width="1" fill="none">
<circle cx="82.9093" cy="198.923" r="3.25821"/>
</g>
<g stroke="black" stroke-width="1" fill="none">
<circle cx="87.585" cy="208.221" r="3.25821"/>
</g>
<g stroke="black" stroke-width="1" fill="none">
<circle cx="92.2607" cy="182.945" r="3.25821"/>
</g>
<g stroke="black" stroke-width="1" fill="none">
<circle cx="96.9364" cy="169.722" r="3.25821"/>
</g>
<g stroke="black" stroke-width="1" fill="none">
<circle cx="101.612" cy="197.57" r="3.25821"/>
</g>
<g stroke="black" stroke-width="1" fill="none">
<circle cx="106.288" cy="215.47" r="3.25821"/>
</g>
<g stroke="black" stroke-width="1" fill="none">
<circle cx="110.964" cy="169.018" r="3.25821"/>
</g>
<g stroke="black" stroke-width="1" fill="none">
<circle cx="115.639" cy="234.675" r="3.25821"/>
</g>
<g stroke="black" stroke-width="1" fill="none">
<circle cx="120.315" cy="226.848" r="3.25821"/>
</g>
<g stroke="black" stroke-width="1" fill="none">
<circle cx="124.991" cy="201.26" r="3.25821"/>
</g>
<g stroke="black" stroke-width="1" fill="none">
<circle cx="129.666" cy="173.113" r="3.25821"/>
</g>
<g stroke="black" stroke-width="1" fill="none">
<line x1="66.5786" y1="196.566" x2="71.1857" y2="201.173"/><line x1="66.5786" y1="201.173" x2="71.1857" y2="196.566"/>
</g>
<g stroke="black" stroke-width="1" fill="none">
<line x1="71.2543" y1="249.02" x2="75.8614" y2="253.627"/><line x1="71.2543" y1="253.627" x2="75.8614" y2="249.02"/>
</g>
<g stroke="black" stroke-width="1" fill="none">
<line x1="75.93" y1="202.942" x2="80.5371" y2="207.549"/><line x1="75.93" y1="207.549" x2="80.5371" y2="202.942"/>
</g>
<g stroke="black" stroke-width="1" fill="none">
<line x1="80.6057" y1="211.85" x2="85.2128" y2="216.457"/><line x1="80.6057" y1="216.457" x2="85.2128" y2="211.85"/>
</g>
<g stroke="black" stroke-width="1" fill="none">
<line x1="85.2814" y1="210.308" x2="89.8885" y2="214.915"/><line x1="85.2814" y1="214.915" x2="89.8885" y2="210.308"/>
</g>
<g stroke="black" stroke-width="1" fill="none">
<line x1="89.9571" y1="197.526" x2="94.5643" y2="202.133"/><line x1="89.9571" y1="202.133" x2="94.5643" y2="197.526"/>
</g>
<g stroke="black" stroke-width="1" fill="none">
<line x1="94.6328" y1="185.673" x2="99.24" y2="190.28"/><line x1="94.6328" y1="190.28" x2="99.24" y2="185.673"/>
</g>
<g stroke="black" stroke-width="1" fill="none">
<line x1="99.3085" y1="210.637" x2="103.916" y2="215.244"/><line x1="99.3085" y1="215.244" x2="103.916" y2="210.637"/>
</g>
<g stroke="black" stroke-width="1" fill="none">
<line x1="103.984" y1="226.684" x2="108.591" y2="231.291"/><line x1="103.984" y1="231.291" x2="108.591" y2="226.684"/>
</g>
<g stroke="black" stroke-width="1" fill="none">
<line x1="108.66" y1="172.354" x2="113.267" y2="176.961"/><line x1="108.66" y1="176.961" x2="113.267" y2="172.354"/>
</g>
<g stroke="black" stroke-width="1" fill="none">
<line x1="113.336" y1="235.919" x2="117.943" y2="240.527"/><line x1="113.336" y1="240.527" x2="117.943" y2="235.919"/>
</g>
<g stroke="black" stroke-width="1" fill="none">
<line x1="118.011" y1="219.98" x2="122.618" y2="224.587"/><line x1="118.011" y1="224.587" x2="122.618" y2="219.98"/>
</g>
<g stroke="black" stroke-width="1" fill="none">
<line x1="122.687" y1="203.569" x2="127.294" y2="208.176"/><line x1="122.687" y1="208.176" x2="127.294" y2="203.569"/>
</g>
<g stroke="black" stroke-width="1" fill="none">
<line x1="127.363" y1="176.319" x2="131.97" y2="180.926"/><line x1="127.363" y1="180.926" x2="131.97" y2="176.319"/>
</g>
<g stroke="#ff0000" stroke-width="1" fill="none">
<circle cx="134.342" cy="203.039" r="3.25821"/>
</g>
<g stroke="#ff0000" stroke-width="1" fill="none">
<circle cx="139.018" cy="224.932" r="3.25821"/>
</g>
<g stroke="#ff0000" stroke-width="1" fill="none">
<circle cx="143.693" cy="217.937" r="3.25821"/>
</g>
<g stroke="#ff0000" stroke-width="1" fill="none">
<circle cx="148.369" cy="189.425" r="3.25821"/>
</g>
<g stroke="#ff0000" stroke-width="1" fill="none">
<circle cx="153.045" cy="202.739" r="3.25821"/>
</g>
<g stroke="#ff0000" stroke-width="1" fill="none">
<circle cx="157.721" cy="217.441" r="3.25821"/>
</g>
<g stroke="#ff0000" stroke-width="1" fill="none">
<circle cx="162.396" cy="226.049" r="3.25821"/>
</g>
<g stroke="#ff0000" stroke-width="1" fill="none">
<circle cx="167.072" cy="213.95" r="3.25821"/>
</g>
<g stroke="#ff0000" stroke-width="1" fill="none">
<circle cx="171.748" cy="237.195" r="3.25821"/>
</g>
<g stroke="#ff0000" stroke-width="1" fill="none">
<circle cx="176.423" cy="198.276" r="3.25821"/>
</g>
<g stroke="#ff0000" stroke-width="1" fill="none">
<circle cx="181.099" cy="216.609" r="3.25821"/>
</g>
<g stroke="#ff0000" stroke-width="1" fill="none">
<circle cx="185.775" cy="213.692" r="3.25821"/>
</g>
<g stroke="#ff0000" stroke-width="1" fill="none">
<circle cx="190.45" cy="221.486" r="3.25821"/>
</g>
<g stroke="#ff0000" stroke-width="1" fill="none">
<circle cx="195.126" cy="216.975" r="3.25821"/>
</g>
<g stroke="#ff0000" stroke-width="1" fill="none">
<circle cx="199.802" cy="203.848" r="3.25821"/>
</g>
<g stroke="#ff0000" stroke-width="1" fill="none">
<circle cx="204.478" cy="213.399" r="3.25821"/>
</g>
<g stroke="#ff0000" stroke-width="1" fill="none">
<line x1="132.038" y1="205.291" x2="136.646" y2="209.898"/><line x1="132.038" y1="209.898" x2="136.646" y2="205.291"/>
</g>
<g stroke="#ff0000" stroke-width="1" fill="none">
<line x1="136.714" y1="226.487" x2="141.321" y2="231.094"/><line x1="136.714" y1="231.094" x2="141.321" y2="226.487"/>
</g>
<g stroke="#ff0000" stroke-width="1" fill="none">
<line x1="141.39" y1="209.754" x2="145.997" y2="214.361"/><line x1="141.39" y1="214.361" x2="145.997" y2="209.754"/>
</g>
<g stroke="#ff0000" stroke-width="1" fill="none">
<line x1="146.066" y1="192.111" x2="150.673" y2="196.718"/><line x1="146.066" y1="196.718" x2="150.673" y2="192.111"/>
</g>
<g stroke="#ff0000" stroke-width="1" fill="none">
<line x1="150.741" y1="193.858" x2="155.348" y2="198.465"/><line x1="150.741" y1="198.465" x2="155.348" y2="193.858"/>
</g>
<g stroke="#ff0000" stroke-width="1" fill="none">
<line x1="155.417" y1="209.235" x2="160.024" y2="213.842"/><line x1="155.417" y1="213.842" x2="160.024" y2="209.235"/>
</g>
<g stroke="#ff0000" stroke-width="1" fill="none">
<line x1="160.093" y1="218.238" x2="164.7" y2="222.846"/><line x1="160.093" y1="222.846" x2="164.7" y2="218.238"/>
</g>
<g stroke="#ff0000" stroke-width="1" fill="none">
<line x1="164.768" y1="205.584" x2="169.376" y2="210.191"/><line x1="164.768" y1="210.191" x2="169.376" y2="205.584"/>
</g>
<g stroke="#ff0000" stroke-width="1" fill="none">
<line x1="169.444" y1="229.896" x2="174.051" y2="234.503"/><line x1="169.444" y1="234.503" x2="174.051" y2="229.896"/>
</g>
<g stroke="#ff0000" stroke-width="1" fill="none">
<line x1="174.12" y1="189.19" x2="178.727" y2="193.797"/><line x1="174.12" y1="193.797" x2="178.727" y2="189.19"/>
</g>
<g stroke="#ff0000" stroke-width="1" fill="none">
<line x1="178.796" y1="208.365" x2="183.403" y2="212.972"/><line x1="178.796" y1="212.972" x2="183.403" y2="208.365"/>
</g>
<g stroke="#ff0000" stroke-width="1" fill="none">
<line x1="183.471" y1="205.314" x2="188.078" y2="209.921"/><line x1="183.471" y1="209.921" x2="188.078" y2="205.314"/>
</g>
<g stroke="#ff0000" stroke-width="1" fill="none">
<line x1="188.147" y1="213.466" x2="192.754" y2="218.073"/><line x1="188.147" y1="218.073" x2="192.754" y2="213.466"/>
</g>
<g stroke="#ff0000" stroke-width="1" fill="none">
<line x1="192.823" y1="208.748" x2="197.43" y2="213.355"/><line x1="192.823" y1="213.355" x2="197.43" y2="208.748"/>
</g>
<g stroke="#ff0000" stroke-width="1" fill="none">
<line x1="197.498" y1="195.018" x2="202.105" y2="199.625"/><line x1="197.498" y1="199.625" x2="202.105" y2="195.018"/>
</g>
<g stroke="#ff0000" stroke-width="1" fill="none">
<line x1="202.174" y1="205.007" x2="206.781" y2="209.614"/><line x1="202.174" y1="209.614" x2="206.781" y2="205.007"/>
</g>
<g stroke="#009900" stroke-width="1" fill="none">
<circle cx="209.153" cy="217.749" r="3.25821"/>
</g>
<g stroke="#009900" stroke-width="1" fill="none">
<circle cx="213.829" cy="239.889" r="3.25821"/>
</g>
<g stroke="#009900" stroke-width="1" fill="none">
<circle cx="218.505" cy="210.415" r="3.25821"/>
</g>
<g stroke="#009900" stroke-width="1" fill="none">
<circle cx="223.18" cy="198.839" r="3.25821"/>
</g>
<g stroke="#009900" stroke-width="1" fill="none">
<circle cx="227.856" cy="202.087" r="3.25821"/>
</g>
<g stroke="#009900" stroke-width="1" fill="none">
<circle cx="232.532" cy="233.588" r="3.25821"/>
</g>
<g stroke="#009900" stroke-width="1" fill="none">
<circle cx="237.208" cy="222.372" r="3.25821"/>
</g>
<g stroke="#009900" stroke-width="1" fill="none">
<circle cx="241.883" cy="207.566" r="3.25821"/>
</g>
<g stroke="#009900" stroke-width="1" fill="none">
<circle cx="246.559" cy="216.797" r="3.25821"/>
</g>
<g stroke="#009900" stroke-width="1" fill="none">
<circle cx="251.235" cy="263.737" r="3.25821"/>
</g>
<g stroke="#009900" stroke-width="1" fill="none">
<circle cx="255.91" cy="220.586" r="3.25821"/>
</g>
<g stroke="#009900" stroke-width="1" fill="none">
<circle cx="260.586" cy="227.099" r="3.25821"/>
</g>
<g stroke="#009900" stroke-width="1" fill="none">
<circle cx="265.262" cy="243.952" r="3.25821"/>
</g>
<g stroke="#009900" stroke-width="1" fill="none">
<circle cx="269.937" cy="202.658" r="3.25821"/>
</g>
<g stroke="#009900" stroke-width="1" fill="none">
<circle cx="274.613" cy="230.464" r="3.25821"/>
</g>
<g stroke="#009900" stroke-width="1" fill="none">
<circle cx="279.289" cy="196.411" r="3.25821"/>
</g>
<g stroke="#009900" stroke-width="1" fill="none">
<line x1="206.85" y1="202.376" x2="211.457" y2="206.983"/><line x1="206.85" y1="206.983" x2="211.457" y2="202.376"/>
</g>
<g stroke="#009900" stroke-width="1" fill="none">
<line x1="211.525" y1="226.772" x2="216.133" y2="231.379"/><line x1="211.525" y1="231.379" x2="216.133" y2="226.772"/>
</g>
<g stroke="#009900" stroke-width="1" fill="none">
<line x1="216.201" y1="194.295" x2="220.808" y2="198.902"/><line x1="216.201" y1="198.902" x2="220.808" y2="194.295"/>
</g>
<g stroke="#009900" stroke-width="1" fill="none">
<line x1="220.877" y1="186.428" x2="225.484" y2="191.035"/><line x1="220.877" y1="191.035" x2="225.484" y2="186.428"/>
</g>
<g stroke="#009900" stroke-width="1" fill="none">
<line x1="225.553" y1="185.119" x2="230.16" y2="189.726"/><line x1="225.553" y1="189.726" x2="230.16" y2="185.119"/>
</g>
<g stroke="#009900" stroke-width="1" fill="none">
<line x1="230.228" y1="219.829" x2="234.835" y2="224.436"/><line x1="230.228" y1="224.436" x2="234.835" y2="219.829"/>
</g>
<g stroke="#009900" stroke-width="1" fill="none">
<line x1="234.904" y1="207.47" x2="239.511" y2="212.077"/><line x1="234.904" y1="212.077" x2="239.511" y2="207.47"/>
</g>
<g stroke="#009900" stroke-width="1" fill="none">
<line x1="239.58" y1="191.156" x2="244.187" y2="195.763"/><line x1="239.58" y1="195.763" x2="244.187" y2="191.156"/>
</g>
<g stroke="#009900" stroke-width="1" fill="none">
<line x1="244.255" y1="201.328" x2="248.862" y2="205.935"/><line x1="244.255" y1="205.935" x2="248.862" y2="201.328"/>
</g>
<g stroke="#009900" stroke-width="1" fill="none">
<line x1="248.931" y1="253.05" x2="253.538" y2="257.657"/><line x1="248.931" y1="257.657" x2="253.538" y2="253.05"/>
</g>
<g stroke="#009900" stroke-width="1" fill="none">
<line x1="253.607" y1="208.002" x2="258.214" y2="212.609"/><line x1="253.607" y1="212.609" x2="258.214" y2="208.002"/>
</g>
<g stroke="#009900" stroke-width="1" fill="none">
<line x1="258.283" y1="215.049" x2="262.89" y2="219.656"/><line x1="258.283" y1="219.656" x2="262.89" y2="215.049"/>
</g>
<g stroke="#009900" stroke-width="1" fill="none">
<line x1="262.958" y1="233.283" x2="267.565" y2="237.89"/><line x1="262.958" y1="237.89" x2="267.565" y2="233.283"/>
</g>
<g stroke="#009900" stroke-width="1" fill="none">
<line x1="267.634" y1="188.605" x2="272.241" y2="193.212"/><line x1="267.634" y1="193.212" x2="272.241" y2="188.605"/>
</g>
<g stroke="#009900" stroke-width="1" fill="none">
<line x1="272.31" y1="218.689" x2="276.917" y2="223.296"/><line x1="272.31" y1="223.296" x2="276.917" y2="218.689"/>
</g>
<g stroke="#009900" stroke-width="1" fill="none">
<line x1="276.985" y1="181.845" x2="281.592" y2="186.452"/><line x1="276.985" y1="186.452" x2="281.592" y2="181.845"/>
</g>
<g stroke="#0000ff" stroke-width="1" fill="none">
<circle cx="283.965" cy="226.149" r="3.25821"/>
</g>
<g stroke="#0000ff" stroke-width="1" fill="none">
<circle cx="288.64" cy="215.328" r="3.25821"/>
</g>
<g stroke="#0000ff" stroke-width="1" fill="none">
<circle cx="293.316" cy="235.211" r="3.25821"/>
</g>
<g stroke="#0000ff" stroke-width="1" fill="none">
<circle cx="297.992" cy="278.218" r="3.25821"/>
</g>
<g stroke="#0000ff" stroke-width="1" fill="none">
<circle cx="302.667" cy="223.598" r="3.25821"/>
</g>
<g stroke="#0000ff" stroke-width="1" fill="none">
<circle cx="307.343" cy="209.434" r="3.25821"/>
</g>
<g stroke="#0000ff" stroke-width="1" fill="none">
<circle cx="312.019" cy="218.389" r="3.25821"/>
</g>
<g stroke="#0000ff" stroke-width="1" fill="none">
<circle cx="316.694" cy="224.746" r="3.25821"/>
</g>
<g stroke="#0000ff" stroke-width="1" fill="none">
<circle cx="321.37" cy="243.184" r="3.25821"/>
</g>
<g stroke="#0000ff" stroke-width="1" fill="none">
<circle cx="326.046" cy="222.137" r="3.25821"/>
</g>
<g stroke="#0000ff" stroke-width="1" fill="none">
<circle cx="330.722" cy="180.851" r="3.25821"/>
</g>
<g stroke="#0000ff" stroke-width="1" fill="none">
<circle cx="335.397" cy="212.806" r="3.25821"/>
</g>
<g stroke="#0000ff" stroke-width="1" fill="none">
<circle cx="340.073" cy="209.637" r="3.25821"/>
</g>
<g stroke="#0000ff" stroke-width="1" fill="none">
<circle cx="344.749" cy="200.223" r="3.25821"/>
</g>
<g stroke="#0000ff" stroke-width="1" fill="none">
<circle cx="349.424" cy="222.717" r="3.25821"/>
</g>
<g stroke="#0000ff" stroke-width="1" fill="none">
<circle cx="354.1" cy="211.861" r="3.25821"/>
</g>
<g stroke="#0000ff" stroke-width="1" fill="none">
<line x1="281.661" y1="219.383" x2="286.268" y2="223.991"/><line x1="281.661" y1="223.991" x2="286.268" y2="219.383"/>
</g>
<g stroke="#0000ff" stroke-width="1" fill="none">
<line x1="286.337" y1="202.313" x2="290.944" y2="206.92"/><line x1="286.337" y1="206.92" x2="290.944" y2="202.313"/>
</g>
<g stroke="#0000ff" stroke-width="1" fill="none">
<line x1="291.012" y1="223.825" x2="295.62" y2="228.433"/><line x1="291.012" y1="228.433" x2="295.62" y2="223.825"/>
</g>
<g stroke="#0000ff" stroke-width="1" fill="none">
<line x1="295.688" y1="270.357" x2="300.295" y2="274.964"/><line x1="295.688" y1="274.964" x2="300.295" y2="270.357"/>
</g>
<g stroke="#0000ff" stroke-width="1" fill="none">
<line x1="300.364" y1="211.261" x2="304.971" y2="215.868"/><line x1="300.364" y1="215.868" x2="304.971" y2="211.261"/>
</g>
<g stroke="#0000ff" stroke-width="1" fill="none">
<line x1="305.04" y1="195.936" x2="309.647" y2="200.543"/><line x1="305.04" y1="200.543" x2="309.647" y2="195.936"/>
</g>
<g stroke="#0000ff" stroke-width="1" fill="none">
<line x1="309.715" y1="206.624" x2="314.322" y2="211.231"/><line x1="309.715" y1="211.231" x2="314.322" y2="206.624"/>
</g>
<g stroke="#0000ff" stroke-width="1" fill="none">
<line x1="314.391" y1="212.503" x2="318.998" y2="217.11"/><line x1="314.391" y1="217.11" x2="318.998" y2="212.503"/>
</g>
<g stroke="#0000ff" stroke-width="1" fill="none">
<line x1="319.067" y1="233.258" x2="323.674" y2="237.865"/><line x1="319.067" y1="237.865" x2="323.674" y2="233.258"/>
</g>
<g stroke="#0000ff" stroke-width="1" fill="none">
<line x1="323.742" y1="210.65" x2="328.349" y2="215.257"/><line x1="323.742" y1="215.257" x2="328.349" y2="210.65"/>
</g>
<g stroke="#0000ff" stroke-width="1" fill="none">
<line x1="328.418" y1="165.01" x2="333.025" y2="169.617"/><line x1="328.418" y1="169.617" x2="333.025" y2="165.01"/>
</g>
<g stroke="#0000ff" stroke-width="1" fill="none">
<line x1="333.094" y1="200.627" x2="337.701" y2="205.235"/><line x1="333.094" y1="205.235" x2="337.701" y2="200.627"/>
</g>
<g stroke="#0000ff" stroke-width="1" fill="none">
<line x1="337.769" y1="197.223" x2="342.377" y2="201.83"/><line x1="337.769" y1="201.83" x2="342.377" y2="197.223"/>
</g>
<g stroke="#0000ff" stroke-width="1" fill="none">
<line x1="342.445" y1="187.112" x2="347.052" y2="191.719"/><line x1="342.445" y1="191.719" x2="347.052" y2="187.112"/>
</g>
<g stroke="#0000ff" stroke-width="1" fill="none">
<line x1="347.121" y1="215.824" x2="351.728" y2="220.431"/><line x1="347.121" y1="220.431" x2="351.728" y2="215.824"/>
</g>
<g stroke="#0000ff" stroke-width="1" fill="none">
<line x1="351.797" y1="199.612" x2="356.404" y2="204.219"/><line x1="351.797" y1="204.219" x2="356.404" y2="199.612"/>
</g>
<g stroke="#cc00ff" stroke-width="1" fill="none">
<circle cx="358.776" cy="175.849" r="3.25821"/>
</g>
<g stroke="#cc00ff" stroke-width="1" fill="none">
<circle cx="363.452" cy="227.076" r="3.25821"/>
</g>
<g stroke="#cc00ff" stroke-width="1" fill="none">
<circle cx="368.127" cy="228.887" r="3.25821"/>
</g>
<g stroke="#cc00ff" stroke-width="1" fill="none">
<circle cx="372.803" cy="182.86" r="3.25821"/>
</g>
<g stroke="#cc00ff" stroke-width="1" fill="none">
<circle cx="377.479" cy="221.594" r="3.25821"/>
</g>
<g stroke="#cc00ff" stroke-width="1" fill="none">
<circle cx="382.154" cy="215.372" r="3.25821"/>
</g>
<g stroke="#cc00ff" stroke-width="1" fill="none">
<circle cx="386.83" cy="219.165" r="3.25821"/>
</g>
<g stroke="#cc00ff" stroke-width="1" fill="none">
<circle cx="391.506" cy="200.51" r="3.25821"/>
</g>
<g stroke="#cc00ff" stroke-width="1" fill="none">
<circle cx="396.181" cy="234.055" r="3.25821"/>
</g>
<g stroke="#cc00ff" stroke-width="1" fill="none">
<circle cx="405.533" cy="202.995" r="3.25821"/>
</g>
<g stroke="#cc00ff" stroke-width="1" fill="none">
<circle cx="410.209" cy="213.834" r="3.25821"/>
</g>
<g stroke="#cc00ff" stroke-width="1" fill="none">
<circle cx="414.884" cy="240.867" r="3.25821"/>
</g>
<g stroke="#cc00ff" stroke-width="1" fill="none">
<circle cx="419.56" cy="226.362" r="3.25821"/>
</g>
<g stroke="#cc00ff" stroke-width="1" fill="none">
<circle cx="424.236" cy="205.999" r="3.25821"/>
</g>
<g stroke="#cc00ff" stroke-width="1" fill="none">
<circle cx="428.911" cy="204.701" r="3.25821"/>
</g>
<g stroke="#cc00ff" stroke-width="1" fill="none">
<line x1="356.472" y1="167.211" x2="361.079" y2="171.818"/><line x1="356.472" y1="171.818" x2="361.079" y2="167.211"/>
</g>
<g stroke="#cc00ff" stroke-width="1" fill="none">
<line x1="361.148" y1="215.955" x2="365.755" y2="220.562"/><line x1="361.148" y1="220.562" x2="365.755" y2="215.955"/>
</g>
<g stroke="#cc00ff" stroke-width="1" fill="none">
<line x1="365.824" y1="215.999" x2="370.431" y2="220.606"/><line x1="365.824" y1="220.606" x2="370.431" y2="215.999"/>
</g>
<g stroke="#cc00ff" stroke-width="1" fill="none">
<line x1="370.499" y1="174.483" x2="375.107" y2="179.09"/><line x1="370.499" y1="179.09" x2="375.107" y2="174.483"/>
</g>
<g stroke="#cc00ff" stroke-width="1" fill="none">
<line x1="375.175" y1="208.048" x2="379.782" y2="212.655"/><line x1="375.175" y1="212.655" x2="379.782" y2="208.048"/>
</g>
<g stroke="#cc00ff" stroke-width="1" fill="none">
<line x1="379.851" y1="201.263" x2="384.458" y2="205.87"/><line x1="379.851" y1="205.87" x2="384.458" y2="201.263"/>
</g>
<g stroke="#cc00ff" stroke-width="1" fill="none">
<line x1="384.526" y1="205.4" x2="389.134" y2="210.007"/><line x1="384.526" y1="210.007" x2="389.134" y2="205.4"/>
</g>
<g stroke="#cc00ff" stroke-width="1" fill="none">
<line x1="389.202" y1="185.059" x2="393.809" y2="189.666"/><line x1="389.202" y1="189.666" x2="393.809" y2="185.059"/>
</g>
<g stroke="#cc00ff" stroke-width="1" fill="none">
<line x1="393.878" y1="221.635" x2="398.485" y2="226.242"/><line x1="393.878" y1="226.242" x2="398.485" y2="221.635"/>
</g>
<g stroke="#cc00ff" stroke-width="1" fill="none">
<line x1="403.229" y1="202.67" x2="407.836" y2="207.278"/><line x1="403.229" y1="207.278" x2="407.836" y2="202.67"/>
</g>
<g stroke="#cc00ff" stroke-width="1" fill="none">
<line x1="407.905" y1="199.587" x2="412.512" y2="204.194"/><line x1="407.905" y1="204.194" x2="412.512" y2="199.587"/>
</g>
<g stroke="#cc00ff" stroke-width="1" fill="none">
<line x1="412.581" y1="240.018" x2="417.188" y2="244.625"/><line x1="412.581" y1="244.625" x2="417.188" y2="240.018"/>
</g>
<g stroke="#cc00ff" stroke-width="1" fill="none">
<line x1="417.256" y1="225.714" x2="421.864" y2="230.321"/><line x1="417.256" y1="230.321" x2="421.864" y2="225.714"/>
</g>
<g stroke="#cc00ff" stroke-width="1" fill="none">
<line x1="421.932" y1="205.632" x2="426.539" y2="210.24"/><line x1="421.932" y1="210.24" x2="426.539" y2="205.632"/>
</g>
<g stroke="#cc00ff" stroke-width="1" fill="none">
<line x1="426.608" y1="204.353" x2="431.215" y2="208.96"/><line x1="426.608" y1="208.96" x2="431.215" y2="204.353"/>
</g>
<g stroke="#00ffff" stroke-width="1" fill="none">
<circle cx="433.587" cy="192.943" r="3.25821"/>
</g>
<g stroke="#00ffff" stroke-width="1" fill="none">
<circle cx="438.263" cy="218.842" r="3.25821"/>
</g>
<g stroke="#00ffff" stroke-width="1" fill="none">
<circle cx="442.939" cy="214.37" r="3.25821"/>
</g>
<g stroke="#00ffff" stroke-width="1" fill="none">
<circle cx="447.614" cy="224.993" r="3.25821"/>
</g>
<g stroke="#00ffff" stroke-width="1" fill="none">
<circle cx="452.29" cy="172.947" r="3.25821"/>
</g>
<g stroke="#00ffff" stroke-width="1" fill="none">
<circle cx="456.966" cy="208.356" r="3.25821"/>
</g>
<g stroke="#00ffff" stroke-width="1" fill="none">
<circle cx="461.641" cy="194.695" r="3.25821"/>
</g>
<g stroke="#00ffff" stroke-width="1" fill="none">
<circle cx="466.317" cy="248.951" r="3.25821"/>
</g>
<g stroke="#00ffff" stroke-width="1" fill="none">
<circle cx="470.993" cy="210.706" r="3.25821"/>
</g>
<g stroke="#00ffff" stroke-width="1" fill="none">
<circle cx="475.668" cy="230.2" r="3.25821"/>
</g>
<g stroke="#00ffff" stroke-width="1" fill="none">
<circle cx="480.344" cy="232.403" r="3.25821"/>
</g>
<g stroke="#00ffff" stroke-width="1" fill="none">
<circle cx="485.02" cy="228.493" r="3.25821"/>
</g>
<g stroke="#00ffff" stroke-width="1" fill="none">
<circle cx="489.696" cy="265.621" r="3.25821"/>
</g>
<g stroke="#00ffff" stroke-width="1" fill="none">
<circle cx="494.371" cy="249.479" r="3.25821"/>
</g>
<g stroke="#00ffff" stroke-width="1" fill="none">
<circle cx="503.723" cy="281.221" r="3.25821"/>
</g>
<g stroke="#00ffff" stroke-width="1" fill="none">
<line x1="431.284" y1="184.369" x2="435.891" y2="188.976"/><line x1="431.284" y1="188.976" x2="435.891" y2="184.369"/>
</g>
<g stroke="#00ffff" stroke-width="1" fill="none">
<line x1="435.959" y1="207.143" x2="440.566" y2="211.75"/><line x1="435.959" y1="211.75" x2="440.566" y2="207.143"/>
</g>
<g stroke="#00ffff" stroke-width="1" fill="none">
<line x1="440.635" y1="202.341" x2="445.242" y2="206.948"/><line x1="440.635" y1="206.948" x2="445.242" y2="202.341"/>
</g>
<g stroke="#00ffff" stroke-width="1" fill="none">
<line x1="445.311" y1="213.748" x2="449.918" y2="218.356"/><line x1="445.311" y1="218.356" x2="449.918" y2="213.748"/>
</g>
<g stroke="#00ffff" stroke-width="1" fill="none">
<line x1="449.986" y1="163.554" x2="454.593" y2="168.161"/><line x1="449.986" y1="168.161" x2="454.593" y2="163.554"/>
</g>
<g stroke="#00ffff" stroke-width="1" fill="none">
<line x1="454.662" y1="200.413" x2="459.269" y2="205.021"/><line x1="454.662" y1="205.021" x2="459.269" y2="200.413"/>
</g>
<g stroke="#00ffff" stroke-width="1" fill="none">
<line x1="459.338" y1="181.212" x2="463.945" y2="185.819"/><line x1="459.338" y1="185.819" x2="463.945" y2="181.212"/>
</g>
<g stroke="#00ffff" stroke-width="1" fill="none">
<line x1="464.013" y1="239.476" x2="468.621" y2="244.083"/><line x1="464.013" y1="244.083" x2="468.621" y2="239.476"/>
</g>
<g stroke="#00ffff" stroke-width="1" fill="none">
<line x1="468.689" y1="198.405" x2="473.296" y2="203.013"/><line x1="468.689" y1="203.013" x2="473.296" y2="198.405"/>
</g>
<g stroke="#00ffff" stroke-width="1" fill="none">
<line x1="473.365" y1="223.152" x2="477.972" y2="227.759"/><line x1="473.365" y1="227.759" x2="477.972" y2="223.152"/>
</g>
<g stroke="#00ffff" stroke-width="1" fill="none">
<line x1="478.041" y1="221.705" x2="482.648" y2="226.313"/><line x1="478.041" y1="226.313" x2="482.648" y2="221.705"/>
</g>
<g stroke="#00ffff" stroke-width="1" fill="none">
<line x1="482.716" y1="221.376" x2="487.323" y2="225.983"/><line x1="482.716" y1="225.983" x2="487.323" y2="221.376"/>
</g>
<g stroke="#00ffff" stroke-width="1" fill="none">
<line x1="487.392" y1="257.378" x2="491.999" y2="261.985"/><line x1="487.392" y1="261.985" x2="491.999" y2="257.378"/>
</g>
<g stroke="#00ffff" stroke-width="1" fill="none">
<line x1="492.068" y1="240.044" x2="496.675" y2="244.651"/><line x1="492.068" y1="244.651" x2="496.675" y2="240.044"/>
</g>
<g stroke="#00ffff" stroke-width="1" fill="none">
<line x1="501.419" y1="274.13" x2="506.026" y2="278.737"/><line x1="501.419" y1="278.737" x2="506.026" y2="274.13"/>
</g>
<path d="M57.1929,346.022h 453.543" fill="none" stroke="black"/>
<path d="M57.1929,336.795v 9.22726" fill="none" stroke="black"/>
<path d="M66.7412,341.409v 4.61363" fill="none" stroke="black"/>
<path d="M76.2895,341.409v 4.61363" fill="none" stroke="black"/>
<path d="M85.8378,341.409v 4.61363" fill="none" stroke="black"/>
<path d="M95.386,341.409v 4.61363" fill="none" stroke="black"/>
<path d="M104.934,336.795v 9.22726" fill="none" stroke="black"/>
<path d="M114.483,341.409v 4.61363" fill="none" stroke="black"/>
<path d="M124.031,341.409v 4.61363" fill="none" stroke="black"/>
<path d="M133.579,341.409v 4.61363" fill="none" stroke="black"/>
<path d="M143.127,341.409v 4.61363" fill="none" stroke="black"/>
<path d="M152.676,336.795v 9.22726" fill="none" stroke="black"/>
<path d="M162.224,341.409v 4.61363" fill="none" stroke="black"/>
<path d="M171.772,341.409v 4.61363" fill="none" stroke="black"/>
<path d="M181.321,341.409v 4.61363" fill="none" stroke="black"/>
<path d="M190.869,341.409v 4.61363" fill="none" stroke="black"/>
<path d="M200.417,336.795v 9.22726" fill="none" stroke="black"/>
<path d="M209.965,341.409v 4.61363" fill="none" stroke="black"/>
<path d="M219.514,341.409v 4.61363" fill="none" stroke="black"/>
<path d="M229.062,341.409v 4.61363" fill="none" stroke="black"/>
<path d="M238.61,341.409v 4.61363" fill="none" stroke="black"/>
<path d="M248.159,336.795v 9.22726" fill="none" stroke="black"/>
<path d="M257.707,341.409v 4.61363" fill="none" stroke="black"/>
<path d="M267.255,341.409v 4.61363" fill="none" stroke="black"/>
<path d="M276.803,341.409v 4.61363" fill="none" stroke="black"/>
<path d="M286.352,341.409v 4.61363" fill="none" stroke="black"/>
<path d="M295.9,336.795v 9.22726" fill="none" stroke="black"/>
<path d="M305.448,341.409v 4.61363" fill="none" stroke="black"/>
<path d="M314.996,341.409v 4.61363" fill="none" stroke="black"/>
<path d="M324.545,341.409v 4.61363" fill="none" stroke="black"/>
<path d="M334.093,341.409v 4.61363" fill="none" stroke="black"/>
<path d="M343.641,336.795v 9.22726" fill="none" stroke="black"/>
<path d="M353.19,341.409v 4.61363" fill="none" stroke="black"/>
<path d="M362.738,341.409v 4.61363" fill="none" stroke="black"/>
<path d="M372.286,341.409v 4.61363" fill="none" stroke="black"/>
<path d="M381.834,341.409v 4.61363" fill="none" stroke="black"/>
<path d="M391.383,336.795v 9.22726" fill="none" stroke="black"/>
<path d="M400.931,341.409v 4.61363" fill="none" stroke="black"/>
<path d="M410.479,341.409v 4.61363" fill="none" stroke="black"/>
<path d="M420.028,341.409v 4.61363" fill="none" stroke="black"/>
<path d="M429.576,341.409v 4.61363" fill="none" stroke="black"/>
<path d="M439.124,336.795v 9.22726" fill="none" stroke="black"/>
<path d="M448.672,341.409v 4.61363" fill="none" stroke="black"/>
<path d="M458.221,341.409v 4.61363" fill="none" stroke="black"/>
<path d="M467.769,341.409v 4.61363" fill="none" stroke="black"/>
<path d="M477.317,341.409v 4.61363" fill="none" stroke="black"/>
<path d="M486.866,336.795v 9.22726" fill="none" stroke="black"/>
<path d="M486.866,336.795v 9.22726" fill="none" stroke="black"/>
<path d="M496.414,341.409v 4.61363" fill="none" stroke="black"/>
<path d="M505.962,341.409v 4.61363" fill="none" stroke="black"/>
<path d="M57.1929,346.022v -307.575" fill="none" stroke="black"/>
<path d="M70.7992,346.022h -13.6063" fill="none" stroke="black"/>
<path d="M63.9961,335.77h -6.80315" fill="none" stroke="black"/>
<path d="M63.9961,325.517h -6.80315" fill="none" stroke="black"/>
<path d="M63.9961,315.265h -6.80315" fill="none" stroke="black"/>
<path d="M63.9961,305.012h -6.80315" fill="none" stroke="black"/>
<path d="M70.7992,294.76h -13.6063" fill="none" stroke="black"/>
<path d="M63.9961,284.507h -6.80315" fill="none" stroke="black"/>
<path d="M63.9961,274.255h -6.80315" fill="none" stroke="black"/>
<path d="M63.9961,264.002h -6.80315" fill="none" stroke="black"/>
<path d="M63.9961,253.75h -6.80315" fill="none" stroke="black"/>
<path d="M70.7992,243.497h -13.6063" fill="none" stroke="black"/>
<path d="M63.9961,233.245h -6.80315" fill="none" stroke="black"/>
<path d="M63.9961,222.992h -6.80315" fill="none" stroke="black"/>
<path d="M63.9961,212.74h -6.80315" fill="none" stroke="black"/>
<path d="M63.9961,202.487h -6.80315" fill="none" stroke="black"/>
<path d="M70.7992,192.235h -13.6063" fill="none" stroke="black"/>
<path d="M63.9961,181.982h -6.80315" fill="none" stroke="black"/>
<path d="M63.9961,171.73h -6.80315" fill="none" stroke="black"/>
<path d="M63.9961,161.477h -6.80315" fill="none" stroke="black"/>
<path d="M63.9961,151.225h -6.80315" fill="none" stroke="black"/>
<path d="M70.7992,140.972h -13.6063" fill="none" stroke="black"/>
<path d="M63.9961,130.72h -6.80315" fill="none" stroke="black"/>
<path d="M63.9961,120.467h -6.80315" fill="none" stroke="black"/>
<path d="M63.9961,110.215h -6.80315" fill="none" stroke="black"/>
<path d="M63.9961,99.962h -6.80315" fill="none" stroke="black"/>
<path d="M70.7992,89.7095h -13.6063" fill="none" stroke="black"/>
<path d="M63.9961,79.457h -6.80315" fill="none" stroke="black"/>
<path d="M63.9961,69.2045h -6.80315" fill="none" stroke="black"/>
<path d="M63.9961,58.9519h -6.80315" fill="none" stroke="black"/>
<path d="M63.9961,48.6994h -6.80315" fill="none" stroke="black"/>
<path d="M70.7992,38.4469h -13.6063" fill="none" stroke="black"/>
<text xml:space="preserve" x="201.695" y="18.7347" fill="black" font-size="18.0316" font-family="Helvetica">Sector 7 (Combined)</text></svg>
