<?xml version="1.0" standalone="no"?>
<svg width="567.429" height="384.969" viewBox="0 0 567.429 384.969" xmlns="http://www.w3.org/2000/svg" shape-rendering="crispEdges">
<title>
./sector_diagrams/combined/sector16.svg
</title>
<desc>
Creator: ROOT Version 6.24/00
CreationDate: Wed Jun 23 15:10:16 2021</desc>
<defs>
</defs>
<rect x="0.5" y="0" width="566.929" height="384.469" fill="white"/>
<rect x="57.1929" y="38.4469" width="453.543" height="307.575" fill="white"/>
<rect x="57.1929" y="38.4469" width="453.543" height="307.575" fill="none" stroke="black"/>
<path d="M57.1929,346.022h 453.543" fill="none" stroke="black"/>
<path d="M59.5308,38.4469v 307.575" fill="none" stroke="black" stroke-dasharray=" 1, 2"/>
<path d="M106.288,38.4469v 307.575" fill="none" stroke="black" stroke-dasharray=" 1, 2"/>
<path d="M153.045,38.4469v 307.575" fill="none" stroke="black" stroke-dasharray=" 1, 2"/>
<path d="M199.802,38.4469v 307.575" fill="none" stroke="black" stroke-dasharray=" 1, 2"/>
<path d="M246.559,38.4469v 307.575" fill="none" stroke="black" stroke-dasharray=" 1, 2"/>
<path d="M293.316,38.4469v 307.575" fill="none" stroke="black" stroke-dasharray=" 1, 2"/>
<path d="M340.073,38.4469v 307.575" fill="none" stroke="black" stroke-dasharray=" 1, 2"/>
<path d="M386.83,38.4469v 307.575" fill="none" stroke="black" stroke-dasharray=" 1, 2"/>
<path d="M433.587,38.4469v 307.575" fill="none" stroke="black" stroke-dasharray=" 1, 2"/>
<path d="M480.344,38.4469v 307.575" fill="none" stroke="black" stroke-dasharray=" 1, 2"/>
<path d="M59.5308,38.4469v 307.575" fill="none" stroke="black" stroke-dasharray=" 1, 2"/>
<path d="M480.344,38.4469v 307.575" fill="none" stroke="black" stroke-dasharray=" 1, 2"/>
<path d="M57.1929,346.022v -307.575" fill="none" stroke="black"/>
<path d="M510.736,346.022h -453.543" fill="none" stroke="black" stroke-dasharray=" 1, 2"/>
<path d="M510.736,294.76h -453.543" fill="none" stroke="black" stroke-dasharray=" 1, 2"/>
<path d="M510.736,243.497h -453.543" fill="none" stroke="black" stroke-dasharray=" 1, 2"/>
<path d="M510.736,192.235h -453.543" fill="none" stroke="black" stroke-dasharray=" 1, 2"/>
<path d="M510.736,140.972h -453.543" fill="none" stroke="black" stroke-dasharray=" 1, 2"/>
<path d="M510.736,89.7095h -453.543" fill="none" stroke="black" stroke-dasharray=" 1, 2"/>
<path d="M510.736,38.4469h -453.543" fill="none" stroke="black" stroke-dasharray=" 1, 2"/>
<path d="M57.1929,346.022h 453.543" fill="none" stroke="#000099"/>
<path d="M57.1929,346.022h 453.543" fill="none" stroke="black"/>
<path d="M59.5308,336.795v 9.22726" fill="none" stroke="black"/>
<path d="M68.8822,341.409v 4.61363" fill="none" stroke="black"/>
<path d="M78.2336,341.409v 4.61363" fill="none" stroke="black"/>
<path d="M87.585,341.409v 4.61363" fill="none" stroke="black"/>
<path d="M96.9364,341.409v 4.61363" fill="none" stroke="black"/>
<path d="M106.288,336.795v 9.22726" fill="none" stroke="black"/>
<path d="M115.639,341.409v 4.61363" fill="none" stroke="black"/>
<path d="M124.991,341.409v 4.61363" fill="none" stroke="black"/>
<path d="M134.342,341.409v 4.61363" fill="none" stroke="black"/>
<path d="M143.693,341.409v 4.61363" fill="none" stroke="black"/>
<path d="M153.045,336.795v 9.22726" fill="none" stroke="black"/>
<path d="M162.396,341.409v 4.61363" fill="none" stroke="black"/>
<path d="M171.748,341.409v 4.61363" fill="none" stroke="black"/>
<path d="M181.099,341.409v 4.61363" fill="none" stroke="black"/>
<path d="M190.45,341.409v 4.61363" fill="none" stroke="black"/>
<path d="M199.802,336.795v 9.22726" fill="none" stroke="black"/>
<path d="M209.153,341.409v 4.61363" fill="none" stroke="black"/>
<path d="M218.505,341.409v 4.61363" fill="none" stroke="black"/>
<path d="M227.856,341.409v 4.61363" fill="none" stroke="black"/>
<path d="M237.208,341.409v 4.61363" fill="none" stroke="black"/>
<path d="M246.559,336.795v 9.22726" fill="none" stroke="black"/>
<path d="M255.91,341.409v 4.61363" fill="none" stroke="black"/>
<path d="M265.262,341.409v 4.61363" fill="none" stroke="black"/>
<path d="M274.613,341.409v 4.61363" fill="none" stroke="black"/>
<path d="M283.965,341.409v 4.61363" fill="none" stroke="black"/>
<path d="M293.316,336.795v 9.22726" fill="none" stroke="black"/>
<path d="M302.667,341.409v 4.61363" fill="none" stroke="black"/>
<path d="M312.019,341.409v 4.61363" fill="none" stroke="black"/>
<path d="M321.37,341.409v 4.61363" fill="none" stroke="black"/>
<path d="M330.722,341.409v 4.61363" fill="none" stroke="black"/>
<path d="M340.073,336.795v 9.22726" fill="none" stroke="black"/>
<path d="M349.424,341.409v 4.61363" fill="none" stroke="black"/>
<path d="M358.776,341.409v 4.61363" fill="none" stroke="black"/>
<path d="M368.127,341.409v 4.61363" fill="none" stroke="black"/>
<path d="M377.479,341.409v 4.61363" fill="none" stroke="black"/>
<path d="M386.83,336.795v 9.22726" fill="none" stroke="black"/>
<path d="M396.181,341.409v 4.61363" fill="none" stroke="black"/>
<path d="M405.533,341.409v 4.61363" fill="none" stroke="black"/>
<path d="M414.884,341.409v 4.61363" fill="none" stroke="black"/>
<path d="M424.236,341.409v 4.61363" fill="none" stroke="black"/>
<path d="M433.587,336.795v 9.22726" fill="none" stroke="black"/>
<path d="M442.939,341.409v 4.61363" fill="none" stroke="black"/>
<path d="M452.29,341.409v 4.61363" fill="none" stroke="black"/>
<path d="M461.641,341.409v 4.61363" fill="none" stroke="black"/>
<path d="M470.993,341.409v 4.61363" fill="none" stroke="black"/>
<path d="M480.344,336.795v 9.22726" fill="none" stroke="black"/>
<path d="M59.5308,336.795v 9.22726" fill="none" stroke="black"/>
<path d="M480.344,336.795v 9.22726" fill="none" stroke="black"/>
<path d="M489.696,341.409v 4.61363" fill="none" stroke="black"/>
<path d="M499.047,341.409v 4.61363" fill="none" stroke="black"/>
<path d="M508.398,341.409v 4.61363" fill="none" stroke="black"/>
<text xml:space="preserve" x="55.8896" y="358.403" fill="black" font-size="12.8453" font-family="Helvetica">0</text>
<text xml:space="preserve" x="99.061" y="358.403" fill="black" font-size="12.8453" font-family="Helvetica">10</text>
<text xml:space="preserve" x="146.305" y="358.403" fill="black" font-size="12.8453" font-family="Helvetica">20</text>
<text xml:space="preserve" x="192.735" y="358.403" fill="black" font-size="12.8453" font-family="Helvetica">30</text>
<text xml:space="preserve" x="239.979" y="358.403" fill="black" font-size="12.8453" font-family="Helvetica">40</text>
<text xml:space="preserve" x="286.408" y="358.403" fill="black" font-size="12.8453" font-family="Helvetica">50</text>
<text xml:space="preserve" x="332.838" y="358.403" fill="black" font-size="12.8453" font-family="Helvetica">60</text>
<text xml:space="preserve" x="380.082" y="358.403" fill="black" font-size="12.8453" font-family="Helvetica">70</text>
<text xml:space="preserve" x="426.511" y="358.403" fill="black" font-size="12.8453" font-family="Helvetica">80</text>
<text xml:space="preserve" x="473.755" y="358.403" fill="black" font-size="12.8453" font-family="Helvetica">90</text>
<text xml:space="preserve" x="433.842" y="372.251" fill="black" font-size="12.8453" font-family="Helvetica">Block Number</text>
<path d="M57.1929,346.022v -307.575" fill="none" stroke="black"/>
<path d="M70.7992,346.022h -13.6063" fill="none" stroke="black"/>
<path d="M63.9961,335.77h -6.80315" fill="none" stroke="black"/>
<path d="M63.9961,325.517h -6.80315" fill="none" stroke="black"/>
<path d="M63.9961,315.265h -6.80315" fill="none" stroke="black"/>
<path d="M63.9961,305.012h -6.80315" fill="none" stroke="black"/>
<path d="M70.7992,294.76h -13.6063" fill="none" stroke="black"/>
<path d="M63.9961,284.507h -6.80315" fill="none" stroke="black"/>
<path d="M63.9961,274.255h -6.80315" fill="none" stroke="black"/>
<path d="M63.9961,264.002h -6.80315" fill="none" stroke="black"/>
<path d="M63.9961,253.75h -6.80315" fill="none" stroke="black"/>
<path d="M70.7992,243.497h -13.6063" fill="none" stroke="black"/>
<path d="M63.9961,233.245h -6.80315" fill="none" stroke="black"/>
<path d="M63.9961,222.992h -6.80315" fill="none" stroke="black"/>
<path d="M63.9961,212.74h -6.80315" fill="none" stroke="black"/>
<path d="M63.9961,202.487h -6.80315" fill="none" stroke="black"/>
<path d="M70.7992,192.235h -13.6063" fill="none" stroke="black"/>
<path d="M63.9961,181.982h -6.80315" fill="none" stroke="black"/>
<path d="M63.9961,171.73h -6.80315" fill="none" stroke="black"/>
<path d="M63.9961,161.477h -6.80315" fill="none" stroke="black"/>
<path d="M63.9961,151.225h -6.80315" fill="none" stroke="black"/>
<path d="M70.7992,140.972h -13.6063" fill="none" stroke="black"/>
<path d="M63.9961,130.72h -6.80315" fill="none" stroke="black"/>
<path d="M63.9961,120.467h -6.80315" fill="none" stroke="black"/>
<path d="M63.9961,110.215h -6.80315" fill="none" stroke="black"/>
<path d="M63.9961,99.962h -6.80315" fill="none" stroke="black"/>
<path d="M70.7992,89.7095h -13.6063" fill="none" stroke="black"/>
<path d="M63.9961,79.457h -6.80315" fill="none" stroke="black"/>
<path d="M63.9961,69.2045h -6.80315" fill="none" stroke="black"/>
<path d="M63.9961,58.9519h -6.80315" fill="none" stroke="black"/>
<path d="M63.9961,48.6994h -6.80315" fill="none" stroke="black"/>
<path d="M70.7992,38.4469h -13.6063" fill="none" stroke="black"/>
<text xml:space="preserve" x="47.7441" y="350.258" fill="black" font-size="12.8453" font-family="Helvetica">0</text>
<text xml:space="preserve" x="33.8967" y="298.941" fill="black" font-size="12.8453" font-family="Helvetica">100</text>
<text xml:space="preserve" x="33.8967" y="247.624" fill="black" font-size="12.8453" font-family="Helvetica">200</text>
<text xml:space="preserve" x="33.8967" y="197.122" fill="black" font-size="12.8453" font-family="Helvetica">300</text>
<text xml:space="preserve" x="33.8967" y="145.805" fill="black" font-size="12.8453" font-family="Helvetica">400</text>
<text xml:space="preserve" x="33.8967" y="94.4882" fill="black" font-size="12.8453" font-family="Helvetica">500</text>
<text xml:space="preserve" x="33.8967" y="43.1713" fill="black" font-size="12.8453" font-family="Helvetica">600</text>
<g transform="rotate(-90,21.6784,65.1643)">
<text xml:space="preserve" x="21.6784" y="65.1643" fill="black" font-size="12.8453" font-family="Helvetica">MPV</text>
</g>
<text xml:space="preserve" x="196.807" y="18.7347" fill="black" font-size="18.0316" font-family="Helvetica">Sector 16 (Combined)</text>
<g stroke="black" stroke-width="1" fill="none">
<circle cx="115.639" cy="170.942" r="3.25821"/>
</g>
<g stroke="black" stroke-width="1" fill="none">
<circle cx="120.315" cy="156.854" r="3.25821"/>
</g>
<g stroke="black" stroke-width="1" fill="none">
<circle cx="124.991" cy="170.113" r="3.25821"/>
</g>
<g stroke="black" stroke-width="1" fill="none">
<line x1="113.336" y1="198.692" x2="117.943" y2="203.299"/><line x1="113.336" y1="203.299" x2="117.943" y2="198.692"/>
</g>
<g stroke="black" stroke-width="1" fill="none">
<line x1="118.011" y1="187.021" x2="122.618" y2="191.628"/><line x1="118.011" y1="191.628" x2="122.618" y2="187.021"/>
</g>
<g stroke="black" stroke-width="1" fill="none">
<line x1="122.687" y1="198.005" x2="127.294" y2="202.612"/><line x1="122.687" y1="202.612" x2="127.294" y2="198.005"/>
</g>
<g stroke="#ff0000" stroke-width="1" fill="none">
<circle cx="134.342" cy="149.555" r="3.25821"/>
</g>
<g stroke="#ff0000" stroke-width="1" fill="none">
<circle cx="139.018" cy="194.716" r="3.25821"/>
</g>
<g stroke="#ff0000" stroke-width="1" fill="none">
<circle cx="143.693" cy="198.713" r="3.25821"/>
</g>
<g stroke="#ff0000" stroke-width="1" fill="none">
<circle cx="153.045" cy="164.097" r="3.25821"/>
</g>
<g stroke="#ff0000" stroke-width="1" fill="none">
<circle cx="157.721" cy="174.557" r="3.25821"/>
</g>
<g stroke="#ff0000" stroke-width="1" fill="none">
<circle cx="162.396" cy="172.59" r="3.25821"/>
</g>
<g stroke="#ff0000" stroke-width="1" fill="none">
<circle cx="171.748" cy="137.124" r="3.25821"/>
</g>
<g stroke="#ff0000" stroke-width="1" fill="none">
<circle cx="176.423" cy="157.158" r="3.25821"/>
</g>
<g stroke="#ff0000" stroke-width="1" fill="none">
<circle cx="181.099" cy="160.704" r="3.25821"/>
</g>
<g stroke="#ff0000" stroke-width="1" fill="none">
<circle cx="190.45" cy="157.423" r="3.25821"/>
</g>
<g stroke="#ff0000" stroke-width="1" fill="none">
<circle cx="195.126" cy="164.642" r="3.25821"/>
</g>
<g stroke="#ff0000" stroke-width="1" fill="none">
<circle cx="199.802" cy="131.653" r="3.25821"/>
</g>
<g stroke="#ff0000" stroke-width="1" fill="none">
<line x1="132.038" y1="168.63" x2="136.646" y2="173.237"/><line x1="132.038" y1="173.237" x2="136.646" y2="168.63"/>
</g>
<g stroke="#ff0000" stroke-width="1" fill="none">
<line x1="136.714" y1="208.877" x2="141.321" y2="213.484"/><line x1="136.714" y1="213.484" x2="141.321" y2="208.877"/>
</g>
<g stroke="#ff0000" stroke-width="1" fill="none">
<line x1="141.39" y1="212.439" x2="145.997" y2="217.046"/><line x1="141.39" y1="217.046" x2="145.997" y2="212.439"/>
</g>
<g stroke="#ff0000" stroke-width="1" fill="none">
<line x1="150.741" y1="198.408" x2="155.348" y2="203.015"/><line x1="150.741" y1="203.015" x2="155.348" y2="198.408"/>
</g>
<g stroke="#ff0000" stroke-width="1" fill="none">
<line x1="155.417" y1="206.763" x2="160.024" y2="211.37"/><line x1="155.417" y1="211.37" x2="160.024" y2="206.763"/>
</g>
<g stroke="#ff0000" stroke-width="1" fill="none">
<line x1="160.093" y1="205.191" x2="164.7" y2="209.799"/><line x1="160.093" y1="209.799" x2="164.7" y2="205.191"/>
</g>
<g stroke="#ff0000" stroke-width="1" fill="none">
<line x1="169.444" y1="176.863" x2="174.051" y2="181.47"/><line x1="169.444" y1="181.47" x2="174.051" y2="176.863"/>
</g>
<g stroke="#ff0000" stroke-width="1" fill="none">
<line x1="174.12" y1="192.866" x2="178.727" y2="197.473"/><line x1="174.12" y1="197.473" x2="178.727" y2="192.866"/>
</g>
<g stroke="#ff0000" stroke-width="1" fill="none">
<line x1="178.796" y1="195.698" x2="183.403" y2="200.305"/><line x1="178.796" y1="200.305" x2="183.403" y2="195.698"/>
</g>
<g stroke="#ff0000" stroke-width="1" fill="none">
<line x1="188.147" y1="201.74" x2="192.754" y2="206.347"/><line x1="188.147" y1="206.347" x2="192.754" y2="201.74"/>
</g>
<g stroke="#ff0000" stroke-width="1" fill="none">
<line x1="192.823" y1="207.174" x2="197.43" y2="211.781"/><line x1="192.823" y1="211.781" x2="197.43" y2="207.174"/>
</g>
<g stroke="#ff0000" stroke-width="1" fill="none">
<line x1="197.498" y1="182.34" x2="202.105" y2="186.947"/><line x1="197.498" y1="186.947" x2="202.105" y2="182.34"/>
</g>
<g stroke="#009900" stroke-width="1" fill="none">
<circle cx="209.153" cy="151.328" r="3.25821"/>
</g>
<g stroke="#009900" stroke-width="1" fill="none">
<circle cx="213.829" cy="158.787" r="3.25821"/>
</g>
<g stroke="#009900" stroke-width="1" fill="none">
<circle cx="218.505" cy="178.688" r="3.25821"/>
</g>
<g stroke="#009900" stroke-width="1" fill="none">
<circle cx="227.856" cy="169.282" r="3.25821"/>
</g>
<g stroke="#009900" stroke-width="1" fill="none">
<circle cx="232.532" cy="171.064" r="3.25821"/>
</g>
<g stroke="#009900" stroke-width="1" fill="none">
<circle cx="237.208" cy="150.527" r="3.25821"/>
</g>
<g stroke="#009900" stroke-width="1" fill="none">
<circle cx="246.559" cy="160.678" r="3.25821"/>
</g>
<g stroke="#009900" stroke-width="1" fill="none">
<circle cx="251.235" cy="162.285" r="3.25821"/>
</g>
<g stroke="#009900" stroke-width="1" fill="none">
<circle cx="255.91" cy="183.636" r="3.25821"/>
</g>
<g stroke="#009900" stroke-width="1" fill="none">
<circle cx="265.262" cy="156.562" r="3.25821"/>
</g>
<g stroke="#009900" stroke-width="1" fill="none">
<circle cx="269.937" cy="138.329" r="3.25821"/>
</g>
<g stroke="#009900" stroke-width="1" fill="none">
<circle cx="274.613" cy="157.161" r="3.25821"/>
</g>
<g stroke="#009900" stroke-width="1" fill="none">
<line x1="206.85" y1="187.194" x2="211.457" y2="191.801"/><line x1="206.85" y1="191.801" x2="211.457" y2="187.194"/>
</g>
<g stroke="#009900" stroke-width="1" fill="none">
<line x1="211.525" y1="193.191" x2="216.133" y2="197.798"/><line x1="211.525" y1="197.798" x2="216.133" y2="193.191"/>
</g>
<g stroke="#009900" stroke-width="1" fill="none">
<line x1="216.201" y1="209.191" x2="220.808" y2="213.798"/><line x1="216.201" y1="213.798" x2="220.808" y2="209.191"/>
</g>
<g stroke="#009900" stroke-width="1" fill="none">
<line x1="225.553" y1="201.628" x2="230.16" y2="206.235"/><line x1="225.553" y1="206.235" x2="230.16" y2="201.628"/>
</g>
<g stroke="#009900" stroke-width="1" fill="none">
<line x1="230.228" y1="203.061" x2="234.835" y2="207.668"/><line x1="230.228" y1="207.668" x2="234.835" y2="203.061"/>
</g>
<g stroke="#009900" stroke-width="1" fill="none">
<line x1="234.904" y1="190.917" x2="239.511" y2="195.524"/><line x1="234.904" y1="195.524" x2="239.511" y2="190.917"/>
</g>
<g stroke="#009900" stroke-width="1" fill="none">
<line x1="244.255" y1="190.717" x2="248.862" y2="195.324"/><line x1="244.255" y1="195.324" x2="248.862" y2="190.717"/>
</g>
<g stroke="#009900" stroke-width="1" fill="none">
<line x1="248.931" y1="192.044" x2="253.538" y2="196.651"/><line x1="248.931" y1="196.651" x2="253.538" y2="192.044"/>
</g>
<g stroke="#009900" stroke-width="1" fill="none">
<line x1="253.607" y1="209.669" x2="258.214" y2="214.276"/><line x1="253.607" y1="214.276" x2="258.214" y2="209.669"/>
</g>
<g stroke="#009900" stroke-width="1" fill="none">
<line x1="262.958" y1="190.921" x2="267.565" y2="195.528"/><line x1="262.958" y1="195.528" x2="267.565" y2="190.921"/>
</g>
<g stroke="#009900" stroke-width="1" fill="none">
<line x1="267.634" y1="176.216" x2="272.241" y2="180.823"/><line x1="267.634" y1="180.823" x2="272.241" y2="176.216"/>
</g>
<g stroke="#009900" stroke-width="1" fill="none">
<line x1="272.31" y1="191.403" x2="276.917" y2="196.01"/><line x1="272.31" y1="196.01" x2="276.917" y2="191.403"/>
</g>
<g stroke="#0000ff" stroke-width="1" fill="none">
<circle cx="283.965" cy="168.938" r="3.25821"/>
</g>
<g stroke="#0000ff" stroke-width="1" fill="none">
<circle cx="288.64" cy="176.41" r="3.25821"/>
</g>
<g stroke="#0000ff" stroke-width="1" fill="none">
<circle cx="293.316" cy="162.402" r="3.25821"/>
</g>
<g stroke="#0000ff" stroke-width="1" fill="none">
<circle cx="302.667" cy="135.971" r="3.25821"/>
</g>
<g stroke="#0000ff" stroke-width="1" fill="none">
<circle cx="307.343" cy="133.359" r="3.25821"/>
</g>
<g stroke="#0000ff" stroke-width="1" fill="none">
<circle cx="312.019" cy="177.055" r="3.25821"/>
</g>
<g stroke="#0000ff" stroke-width="1" fill="none">
<circle cx="321.37" cy="168.465" r="3.25821"/>
</g>
<g stroke="#0000ff" stroke-width="1" fill="none">
<circle cx="326.046" cy="157.81" r="3.25821"/>
</g>
<g stroke="#0000ff" stroke-width="1" fill="none">
<circle cx="330.722" cy="148.645" r="3.25821"/>
</g>
<g stroke="#0000ff" stroke-width="1" fill="none">
<circle cx="340.073" cy="151.374" r="3.25821"/>
</g>
<g stroke="#0000ff" stroke-width="1" fill="none">
<circle cx="344.749" cy="154.04" r="3.25821"/>
</g>
<g stroke="#0000ff" stroke-width="1" fill="none">
<circle cx="349.424" cy="156.183" r="3.25821"/>
</g>
<g stroke="#0000ff" stroke-width="1" fill="none">
<line x1="281.661" y1="200.901" x2="286.268" y2="205.508"/><line x1="281.661" y1="205.508" x2="286.268" y2="200.901"/>
</g>
<g stroke="#0000ff" stroke-width="1" fill="none">
<line x1="286.337" y1="206.928" x2="290.944" y2="211.535"/><line x1="286.337" y1="211.535" x2="290.944" y2="206.928"/>
</g>
<g stroke="#0000ff" stroke-width="1" fill="none">
<line x1="291.012" y1="195.63" x2="295.62" y2="200.237"/><line x1="291.012" y1="200.237" x2="295.62" y2="195.63"/>
</g>
<g stroke="#0000ff" stroke-width="1" fill="none">
<line x1="300.364" y1="173.032" x2="304.971" y2="177.639"/><line x1="300.364" y1="177.639" x2="304.971" y2="173.032"/>
</g>
<g stroke="#0000ff" stroke-width="1" fill="none">
<line x1="305.04" y1="170.909" x2="309.647" y2="175.516"/><line x1="305.04" y1="175.516" x2="309.647" y2="170.909"/>
</g>
<g stroke="#0000ff" stroke-width="1" fill="none">
<line x1="309.715" y1="204.465" x2="314.322" y2="209.073"/><line x1="309.715" y1="209.073" x2="314.322" y2="204.465"/>
</g>
<g stroke="#0000ff" stroke-width="1" fill="none">
<line x1="319.067" y1="197.386" x2="323.674" y2="201.993"/><line x1="319.067" y1="201.993" x2="323.674" y2="197.386"/>
</g>
<g stroke="#0000ff" stroke-width="1" fill="none">
<line x1="323.742" y1="188.605" x2="328.349" y2="193.212"/><line x1="323.742" y1="193.212" x2="328.349" y2="188.605"/>
</g>
<g stroke="#0000ff" stroke-width="1" fill="none">
<line x1="328.418" y1="181.052" x2="333.025" y2="185.659"/><line x1="328.418" y1="185.659" x2="333.025" y2="181.052"/>
</g>
<g stroke="#0000ff" stroke-width="1" fill="none">
<line x1="337.769" y1="180.006" x2="342.377" y2="184.613"/><line x1="337.769" y1="184.613" x2="342.377" y2="180.006"/>
</g>
<g stroke="#0000ff" stroke-width="1" fill="none">
<line x1="342.445" y1="182.248" x2="347.052" y2="186.855"/><line x1="342.445" y1="186.855" x2="347.052" y2="182.248"/>
</g>
<g stroke="#0000ff" stroke-width="1" fill="none">
<line x1="347.121" y1="175.698" x2="351.728" y2="180.305"/><line x1="347.121" y1="180.305" x2="351.728" y2="175.698"/>
</g>
<g stroke="#cc00ff" stroke-width="1" fill="none">
<circle cx="358.776" cy="147.7" r="3.25821"/>
</g>
<g stroke="#cc00ff" stroke-width="1" fill="none">
<circle cx="363.452" cy="142.319" r="3.25821"/>
</g>
<g stroke="#cc00ff" stroke-width="1" fill="none">
<circle cx="368.127" cy="177.89" r="3.25821"/>
</g>
<g stroke="#cc00ff" stroke-width="1" fill="none">
<circle cx="377.479" cy="179.324" r="3.25821"/>
</g>
<g stroke="#cc00ff" stroke-width="1" fill="none">
<circle cx="382.154" cy="162.15" r="3.25821"/>
</g>
<g stroke="#cc00ff" stroke-width="1" fill="none">
<circle cx="386.83" cy="172.804" r="3.25821"/>
</g>
<g stroke="#cc00ff" stroke-width="1" fill="none">
<line x1="356.472" y1="181.77" x2="361.079" y2="186.377"/><line x1="356.472" y1="186.377" x2="361.079" y2="181.77"/>
</g>
<g stroke="#cc00ff" stroke-width="1" fill="none">
<line x1="361.148" y1="177.375" x2="365.755" y2="181.983"/><line x1="361.148" y1="181.983" x2="365.755" y2="177.375"/>
</g>
<g stroke="#cc00ff" stroke-width="1" fill="none">
<line x1="365.824" y1="206.423" x2="370.431" y2="211.03"/><line x1="365.824" y1="211.03" x2="370.431" y2="206.423"/>
</g>
<g stroke="#cc00ff" stroke-width="1" fill="none">
<line x1="375.175" y1="203.116" x2="379.782" y2="207.723"/><line x1="375.175" y1="207.723" x2="379.782" y2="203.116"/>
</g>
<g stroke="#cc00ff" stroke-width="1" fill="none">
<line x1="379.851" y1="188.631" x2="384.458" y2="193.238"/><line x1="379.851" y1="193.238" x2="384.458" y2="188.631"/>
</g>
<g stroke="#cc00ff" stroke-width="1" fill="none">
<line x1="384.526" y1="200.962" x2="389.134" y2="205.569"/><line x1="384.526" y1="205.569" x2="389.134" y2="200.962"/>
</g>
<path d="M57.1929,346.022h 453.543" fill="none" stroke="black"/>
<path d="M59.5308,336.795v 9.22726" fill="none" stroke="black"/>
<path d="M68.8822,341.409v 4.61363" fill="none" stroke="black"/>
<path d="M78.2336,341.409v 4.61363" fill="none" stroke="black"/>
<path d="M87.585,341.409v 4.61363" fill="none" stroke="black"/>
<path d="M96.9364,341.409v 4.61363" fill="none" stroke="black"/>
<path d="M106.288,336.795v 9.22726" fill="none" stroke="black"/>
<path d="M115.639,341.409v 4.61363" fill="none" stroke="black"/>
<path d="M124.991,341.409v 4.61363" fill="none" stroke="black"/>
<path d="M134.342,341.409v 4.61363" fill="none" stroke="black"/>
<path d="M143.693,341.409v 4.61363" fill="none" stroke="black"/>
<path d="M153.045,336.795v 9.22726" fill="none" stroke="black"/>
<path d="M162.396,341.409v 4.61363" fill="none" stroke="black"/>
<path d="M171.748,341.409v 4.61363" fill="none" stroke="black"/>
<path d="M181.099,341.409v 4.61363" fill="none" stroke="black"/>
<path d="M190.45,341.409v 4.61363" fill="none" stroke="black"/>
<path d="M199.802,336.795v 9.22726" fill="none" stroke="black"/>
<path d="M209.153,341.409v 4.61363" fill="none" stroke="black"/>
<path d="M218.505,341.409v 4.61363" fill="none" stroke="black"/>
<path d="M227.856,341.409v 4.61363" fill="none" stroke="black"/>
<path d="M237.208,341.409v 4.61363" fill="none" stroke="black"/>
<path d="M246.559,336.795v 9.22726" fill="none" stroke="black"/>
<path d="M255.91,341.409v 4.61363" fill="none" stroke="black"/>
<path d="M265.262,341.409v 4.61363" fill="none" stroke="black"/>
<path d="M274.613,341.409v 4.61363" fill="none" stroke="black"/>
<path d="M283.965,341.409v 4.61363" fill="none" stroke="black"/>
<path d="M293.316,336.795v 9.22726" fill="none" stroke="black"/>
<path d="M302.667,341.409v 4.61363" fill="none" stroke="black"/>
<path d="M312.019,341.409v 4.61363" fill="none" stroke="black"/>
<path d="M321.37,341.409v 4.61363" fill="none" stroke="black"/>
<path d="M330.722,341.409v 4.61363" fill="none" stroke="black"/>
<path d="M340.073,336.795v 9.22726" fill="none" stroke="black"/>
<path d="M349.424,341.409v 4.61363" fill="none" stroke="black"/>
<path d="M358.776,341.409v 4.61363" fill="none" stroke="black"/>
<path d="M368.127,341.409v 4.61363" fill="none" stroke="black"/>
<path d="M377.479,341.409v 4.61363" fill="none" stroke="black"/>
<path d="M386.83,336.795v 9.22726" fill="none" stroke="black"/>
<path d="M396.181,341.409v 4.61363" fill="none" stroke="black"/>
<path d="M405.533,341.409v 4.61363" fill="none" stroke="black"/>
<path d="M414.884,341.409v 4.61363" fill="none" stroke="black"/>
<path d="M424.236,341.409v 4.61363" fill="none" stroke="black"/>
<path d="M433.587,336.795v 9.22726" fill="none" stroke="black"/>
<path d="M442.939,341.409v 4.61363" fill="none" stroke="black"/>
<path d="M452.29,341.409v 4.61363" fill="none" stroke="black"/>
<path d="M461.641,341.409v 4.61363" fill="none" stroke="black"/>
<path d="M470.993,341.409v 4.61363" fill="none" stroke="black"/>
<path d="M480.344,336.795v 9.22726" fill="none" stroke="black"/>
<path d="M59.5308,336.795v 9.22726" fill="none" stroke="black"/>
<path d="M480.344,336.795v 9.22726" fill="none" stroke="black"/>
<path d="M489.696,341.409v 4.61363" fill="none" stroke="black"/>
<path d="M499.047,341.409v 4.61363" fill="none" stroke="black"/>
<path d="M508.398,341.409v 4.61363" fill="none" stroke="black"/>
<path d="M57.1929,346.022v -307.575" fill="none" stroke="black"/>
<path d="M70.7992,346.022h -13.6063" fill="none" stroke="black"/>
<path d="M63.9961,335.77h -6.80315" fill="none" stroke="black"/>
<path d="M63.9961,325.517h -6.80315" fill="none" stroke="black"/>
<path d="M63.9961,315.265h -6.80315" fill="none" stroke="black"/>
<path d="M63.9961,305.012h -6.80315" fill="none" stroke="black"/>
<path d="M70.7992,294.76h -13.6063" fill="none" stroke="black"/>
<path d="M63.9961,284.507h -6.80315" fill="none" stroke="black"/>
<path d="M63.9961,274.255h -6.80315" fill="none" stroke="black"/>
<path d="M63.9961,264.002h -6.80315" fill="none" stroke="black"/>
<path d="M63.9961,253.75h -6.80315" fill="none" stroke="black"/>
<path d="M70.7992,243.497h -13.6063" fill="none" stroke="black"/>
<path d="M63.9961,233.245h -6.80315" fill="none" stroke="black"/>
<path d="M63.9961,222.992h -6.80315" fill="none" stroke="black"/>
<path d="M63.9961,212.74h -6.80315" fill="none" stroke="black"/>
<path d="M63.9961,202.487h -6.80315" fill="none" stroke="black"/>
<path d="M70.7992,192.235h -13.6063" fill="none" stroke="black"/>
<path d="M63.9961,181.982h -6.80315" fill="none" stroke="black"/>
<path d="M63.9961,171.73h -6.80315" fill="none" stroke="black"/>
<path d="M63.9961,161.477h -6.80315" fill="none" stroke="black"/>
<path d="M63.9961,151.225h -6.80315" fill="none" stroke="black"/>
<path d="M70.7992,140.972h -13.6063" fill="none" stroke="black"/>
<path d="M63.9961,130.72h -6.80315" fill="none" stroke="black"/>
<path d="M63.9961,120.467h -6.80315" fill="none" stroke="black"/>
<path d="M63.9961,110.215h -6.80315" fill="none" stroke="black"/>
<path d="M63.9961,99.962h -6.80315" fill="none" stroke="black"/>
<path d="M70.7992,89.7095h -13.6063" fill="none" stroke="black"/>
<path d="M63.9961,79.457h -6.80315" fill="none" stroke="black"/>
<path d="M63.9961,69.2045h -6.80315" fill="none" stroke="black"/>
<path d="M63.9961,58.9519h -6.80315" fill="none" stroke="black"/>
<path d="M63.9961,48.6994h -6.80315" fill="none" stroke="black"/>
<path d="M70.7992,38.4469h -13.6063" fill="none" stroke="black"/>
<rect x="58.0145" y="262.83" width="170.079" height="80.7385" fill="white"/>
<path d="M58.0145,343.568h 170.079" fill="none" stroke="black"/>
<path d="M228.093,343.568v -80.7385" fill="none" stroke="black"/>
<path d="M228.093,262.83h -170.079" fill="none" stroke="black"/>
<path d="M58.0145,262.83v 80.7385" fill="none" stroke="black"/>
<text xml:space="preserve" x="99.8755" y="267.173" fill="black" font-size="6.0554" font-family="Helvetica">h_run16_block_ib_0</text>
<path d="M64.3925,268.549h 29.7638v -4.70975h -29.7638z" fill="white"/>
<path d="M64.3925,266.194h 29.7638" fill="none" stroke="#000099"/>
<g stroke="black" stroke-width="1" fill="none">
<circle cx="79.2744" cy="266.194" r="3.25821"/>
</g>
<text xml:space="preserve" x="99.8755" y="273.69" fill="black" font-size="6.0554" font-family="Helvetica">new_h</text>
<path d="M64.3925,275.277h 29.7638v -4.70975h -29.7638z" fill="white"/>
<path d="M64.3925,272.922h 29.7638" fill="none" stroke="#000099"/>
<g stroke="black" stroke-width="1" fill="none">
<line x1="76.9708" y1="270.618" x2="81.5779" y2="275.226"/><line x1="76.9708" y1="275.226" x2="81.5779" y2="270.618"/>
</g>
<text xml:space="preserve" x="99.8755" y="281.021" fill="black" font-size="6.0554" font-family="Helvetica">h_run16_block_ib_1</text>
<path d="M64.3925,282.005h 29.7638v -4.70975h -29.7638z" fill="white"/>
<path d="M64.3925,279.65h 29.7638" fill="none" stroke="#000099"/>
<g stroke="#ff0000" stroke-width="1" fill="none">
<circle cx="79.2744" cy="279.65" r="3.25821"/>
</g>
<text xml:space="preserve" x="99.8755" y="287.537" fill="black" font-size="6.0554" font-family="Helvetica">new_h</text>
<path d="M64.3925,288.733h 29.7638v -4.70975h -29.7638z" fill="white"/>
<path d="M64.3925,286.378h 29.7638" fill="none" stroke="#000099"/>
<g stroke="#ff0000" stroke-width="1" fill="none">
<line x1="76.9708" y1="284.075" x2="81.5779" y2="288.682"/><line x1="76.9708" y1="288.682" x2="81.5779" y2="284.075"/>
</g>
<text xml:space="preserve" x="99.8755" y="294.054" fill="black" font-size="6.0554" font-family="Helvetica">h_run16_block_ib_2</text>
<path d="M64.3925,295.461h 29.7638v -4.70975h -29.7638z" fill="white"/>
<path d="M64.3925,293.107h 29.7638" fill="none" stroke="#000099"/>
<g stroke="#009900" stroke-width="1" fill="none">
<circle cx="79.2744" cy="293.107" r="3.25821"/>
</g>
<text xml:space="preserve" x="99.8755" y="300.57" fill="black" font-size="6.0554" font-family="Helvetica">new_h</text>
<path d="M64.3925,302.19h 29.7638v -4.70975h -29.7638z" fill="white"/>
<path d="M64.3925,299.835h 29.7638" fill="none" stroke="#000099"/>
<g stroke="#009900" stroke-width="1" fill="none">
<line x1="76.9708" y1="297.531" x2="81.5779" y2="302.138"/><line x1="76.9708" y1="302.138" x2="81.5779" y2="297.531"/>
</g>
<text xml:space="preserve" x="99.8755" y="307.901" fill="black" font-size="6.0554" font-family="Helvetica">h_run16_block_ib_3</text>
<path d="M64.3925,308.918h 29.7638v -4.70975h -29.7638z" fill="white"/>
<path d="M64.3925,306.563h 29.7638" fill="none" stroke="#000099"/>
<g stroke="#0000ff" stroke-width="1" fill="none">
<circle cx="79.2744" cy="306.563" r="3.25821"/>
</g>
<text xml:space="preserve" x="99.8755" y="314.418" fill="black" font-size="6.0554" font-family="Helvetica">new_h</text>
<path d="M64.3925,315.646h 29.7638v -4.70975h -29.7638z" fill="white"/>
<path d="M64.3925,313.291h 29.7638" fill="none" stroke="#000099"/>
<g stroke="#0000ff" stroke-width="1" fill="none">
<line x1="76.9708" y1="310.988" x2="81.5779" y2="315.595"/><line x1="76.9708" y1="315.595" x2="81.5779" y2="310.988"/>
</g>
<text xml:space="preserve" x="99.8755" y="320.934" fill="black" font-size="6.0554" font-family="Helvetica">h_run16_block_ib_4</text>
<path d="M64.3925,322.374h 29.7638v -4.70975h -29.7638z" fill="white"/>
<path d="M64.3925,320.019h 29.7638" fill="none" stroke="#000099"/>
<g stroke="#cc00ff" stroke-width="1" fill="none">
<circle cx="79.2744" cy="320.019" r="3.25821"/>
</g>
<text xml:space="preserve" x="99.8755" y="327.45" fill="black" font-size="6.0554" font-family="Helvetica">new_h</text>
<path d="M64.3925,329.103h 29.7638v -4.70975h -29.7638z" fill="white"/>
<path d="M64.3925,326.748h 29.7638" fill="none" stroke="#000099"/>
<g stroke="#cc00ff" stroke-width="1" fill="none">
<line x1="76.9708" y1="324.444" x2="81.5779" y2="329.051"/><line x1="76.9708" y1="329.051" x2="81.5779" y2="324.444"/>
</g>
<text xml:space="preserve" x="99.8755" y="334.781" fill="black" font-size="6.0554" font-family="Helvetica">h_run16_block_ib_5</text>
<path d="M64.3925,335.831h 29.7638v -4.70975h -29.7638z" fill="white"/>
<path d="M64.3925,333.476h 29.7638" fill="none" stroke="#000099"/>
<g stroke="#00ffff" stroke-width="1" fill="none">
<circle cx="79.2744" cy="333.476" r="3.25821"/>
</g>
<text xml:space="preserve" x="99.8755" y="341.298" fill="black" font-size="6.0554" font-family="Helvetica">new_h</text>
<path d="M64.3925,342.559h 29.7638v -4.70975h -29.7638z" fill="white"/>
<path d="M64.3925,340.204h 29.7638" fill="none" stroke="#000099"/>
<g stroke="#00ffff" stroke-width="1" fill="none">
<line x1="76.9708" y1="337.901" x2="81.5779" y2="342.508"/><line x1="76.9708" y1="342.508" x2="81.5779" y2="337.901"/>
</g>
<text xml:space="preserve" x="196.807" y="18.7347" fill="black" font-size="18.0316" font-family="Helvetica">Sector 16 (Combined)</text></svg>
