<?xml version="1.0" standalone="no"?>
<svg width="567.429" height="384.969" viewBox="0 0 567.429 384.969" xmlns="http://www.w3.org/2000/svg" shape-rendering="crispEdges">
<title>
./sector_diagrams/combined/sector8.svg
</title>
<desc>
Creator: ROOT Version 6.22/02
CreationDate: Mon Jul 12 10:51:52 2021</desc>
<defs>
</defs>
<rect x="0.5" y="0" width="566.929" height="384.469" fill="white"/>
<rect x="57.1929" y="38.4469" width="453.543" height="307.575" fill="white"/>
<rect x="57.1929" y="38.4469" width="453.543" height="307.575" fill="none" stroke="black"/>
<path d="M57.1929,346.022h 453.543" fill="none" stroke="black"/>
<path d="M57.1929,38.4469v 307.575" fill="none" stroke="black" stroke-dasharray=" 1, 2"/>
<path d="M104.934,38.4469v 307.575" fill="none" stroke="black" stroke-dasharray=" 1, 2"/>
<path d="M152.676,38.4469v 307.575" fill="none" stroke="black" stroke-dasharray=" 1, 2"/>
<path d="M200.417,38.4469v 307.575" fill="none" stroke="black" stroke-dasharray=" 1, 2"/>
<path d="M248.159,38.4469v 307.575" fill="none" stroke="black" stroke-dasharray=" 1, 2"/>
<path d="M295.9,38.4469v 307.575" fill="none" stroke="black" stroke-dasharray=" 1, 2"/>
<path d="M343.641,38.4469v 307.575" fill="none" stroke="black" stroke-dasharray=" 1, 2"/>
<path d="M391.383,38.4469v 307.575" fill="none" stroke="black" stroke-dasharray=" 1, 2"/>
<path d="M439.124,38.4469v 307.575" fill="none" stroke="black" stroke-dasharray=" 1, 2"/>
<path d="M486.866,38.4469v 307.575" fill="none" stroke="black" stroke-dasharray=" 1, 2"/>
<path d="M486.866,38.4469v 307.575" fill="none" stroke="black" stroke-dasharray=" 1, 2"/>
<path d="M57.1929,346.022v -307.575" fill="none" stroke="black"/>
<path d="M510.736,346.022h -453.543" fill="none" stroke="black" stroke-dasharray=" 1, 2"/>
<path d="M510.736,294.76h -453.543" fill="none" stroke="black" stroke-dasharray=" 1, 2"/>
<path d="M510.736,243.497h -453.543" fill="none" stroke="black" stroke-dasharray=" 1, 2"/>
<path d="M510.736,192.235h -453.543" fill="none" stroke="black" stroke-dasharray=" 1, 2"/>
<path d="M510.736,140.972h -453.543" fill="none" stroke="black" stroke-dasharray=" 1, 2"/>
<path d="M510.736,89.7095h -453.543" fill="none" stroke="black" stroke-dasharray=" 1, 2"/>
<path d="M510.736,38.4469h -453.543" fill="none" stroke="black" stroke-dasharray=" 1, 2"/>
<path d="M57.1929,346.022h 453.543" fill="none" stroke="#000099"/>
<path d="M57.1929,346.022h 453.543" fill="none" stroke="black"/>
<path d="M57.1929,336.795v 9.22726" fill="none" stroke="black"/>
<path d="M66.7412,341.409v 4.61363" fill="none" stroke="black"/>
<path d="M76.2895,341.409v 4.61363" fill="none" stroke="black"/>
<path d="M85.8378,341.409v 4.61363" fill="none" stroke="black"/>
<path d="M95.386,341.409v 4.61363" fill="none" stroke="black"/>
<path d="M104.934,336.795v 9.22726" fill="none" stroke="black"/>
<path d="M114.483,341.409v 4.61363" fill="none" stroke="black"/>
<path d="M124.031,341.409v 4.61363" fill="none" stroke="black"/>
<path d="M133.579,341.409v 4.61363" fill="none" stroke="black"/>
<path d="M143.127,341.409v 4.61363" fill="none" stroke="black"/>
<path d="M152.676,336.795v 9.22726" fill="none" stroke="black"/>
<path d="M162.224,341.409v 4.61363" fill="none" stroke="black"/>
<path d="M171.772,341.409v 4.61363" fill="none" stroke="black"/>
<path d="M181.321,341.409v 4.61363" fill="none" stroke="black"/>
<path d="M190.869,341.409v 4.61363" fill="none" stroke="black"/>
<path d="M200.417,336.795v 9.22726" fill="none" stroke="black"/>
<path d="M209.965,341.409v 4.61363" fill="none" stroke="black"/>
<path d="M219.514,341.409v 4.61363" fill="none" stroke="black"/>
<path d="M229.062,341.409v 4.61363" fill="none" stroke="black"/>
<path d="M238.61,341.409v 4.61363" fill="none" stroke="black"/>
<path d="M248.159,336.795v 9.22726" fill="none" stroke="black"/>
<path d="M257.707,341.409v 4.61363" fill="none" stroke="black"/>
<path d="M267.255,341.409v 4.61363" fill="none" stroke="black"/>
<path d="M276.803,341.409v 4.61363" fill="none" stroke="black"/>
<path d="M286.352,341.409v 4.61363" fill="none" stroke="black"/>
<path d="M295.9,336.795v 9.22726" fill="none" stroke="black"/>
<path d="M305.448,341.409v 4.61363" fill="none" stroke="black"/>
<path d="M314.996,341.409v 4.61363" fill="none" stroke="black"/>
<path d="M324.545,341.409v 4.61363" fill="none" stroke="black"/>
<path d="M334.093,341.409v 4.61363" fill="none" stroke="black"/>
<path d="M343.641,336.795v 9.22726" fill="none" stroke="black"/>
<path d="M353.19,341.409v 4.61363" fill="none" stroke="black"/>
<path d="M362.738,341.409v 4.61363" fill="none" stroke="black"/>
<path d="M372.286,341.409v 4.61363" fill="none" stroke="black"/>
<path d="M381.834,341.409v 4.61363" fill="none" stroke="black"/>
<path d="M391.383,336.795v 9.22726" fill="none" stroke="black"/>
<path d="M400.931,341.409v 4.61363" fill="none" stroke="black"/>
<path d="M410.479,341.409v 4.61363" fill="none" stroke="black"/>
<path d="M420.028,341.409v 4.61363" fill="none" stroke="black"/>
<path d="M429.576,341.409v 4.61363" fill="none" stroke="black"/>
<path d="M439.124,336.795v 9.22726" fill="none" stroke="black"/>
<path d="M448.672,341.409v 4.61363" fill="none" stroke="black"/>
<path d="M458.221,341.409v 4.61363" fill="none" stroke="black"/>
<path d="M467.769,341.409v 4.61363" fill="none" stroke="black"/>
<path d="M477.317,341.409v 4.61363" fill="none" stroke="black"/>
<path d="M486.866,336.795v 9.22726" fill="none" stroke="black"/>
<path d="M486.866,336.795v 9.22726" fill="none" stroke="black"/>
<path d="M496.414,341.409v 4.61363" fill="none" stroke="black"/>
<path d="M505.962,341.409v 4.61363" fill="none" stroke="black"/>
<text xml:space="preserve" x="53.446" y="358.403" fill="black" font-size="12.8453" font-family="Helvetica">0</text>
<text xml:space="preserve" x="98.2464" y="358.403" fill="black" font-size="12.8453" font-family="Helvetica">10</text>
<text xml:space="preserve" x="145.49" y="358.403" fill="black" font-size="12.8453" font-family="Helvetica">20</text>
<text xml:space="preserve" x="193.549" y="358.403" fill="black" font-size="12.8453" font-family="Helvetica">30</text>
<text xml:space="preserve" x="241.608" y="358.403" fill="black" font-size="12.8453" font-family="Helvetica">40</text>
<text xml:space="preserve" x="288.852" y="358.403" fill="black" font-size="12.8453" font-family="Helvetica">50</text>
<text xml:space="preserve" x="336.911" y="358.403" fill="black" font-size="12.8453" font-family="Helvetica">60</text>
<text xml:space="preserve" x="384.155" y="358.403" fill="black" font-size="12.8453" font-family="Helvetica">70</text>
<text xml:space="preserve" x="432.213" y="358.403" fill="black" font-size="12.8453" font-family="Helvetica">80</text>
<text xml:space="preserve" x="480.272" y="358.403" fill="black" font-size="12.8453" font-family="Helvetica">90</text>
<text xml:space="preserve" x="433.842" y="372.251" fill="black" font-size="12.8453" font-family="Helvetica">Block Number</text>
<path d="M57.1929,346.022v -307.575" fill="none" stroke="black"/>
<path d="M70.7992,346.022h -13.6063" fill="none" stroke="black"/>
<path d="M63.9961,335.77h -6.80315" fill="none" stroke="black"/>
<path d="M63.9961,325.517h -6.80315" fill="none" stroke="black"/>
<path d="M63.9961,315.265h -6.80315" fill="none" stroke="black"/>
<path d="M63.9961,305.012h -6.80315" fill="none" stroke="black"/>
<path d="M70.7992,294.76h -13.6063" fill="none" stroke="black"/>
<path d="M63.9961,284.507h -6.80315" fill="none" stroke="black"/>
<path d="M63.9961,274.255h -6.80315" fill="none" stroke="black"/>
<path d="M63.9961,264.002h -6.80315" fill="none" stroke="black"/>
<path d="M63.9961,253.75h -6.80315" fill="none" stroke="black"/>
<path d="M70.7992,243.497h -13.6063" fill="none" stroke="black"/>
<path d="M63.9961,233.245h -6.80315" fill="none" stroke="black"/>
<path d="M63.9961,222.992h -6.80315" fill="none" stroke="black"/>
<path d="M63.9961,212.74h -6.80315" fill="none" stroke="black"/>
<path d="M63.9961,202.487h -6.80315" fill="none" stroke="black"/>
<path d="M70.7992,192.235h -13.6063" fill="none" stroke="black"/>
<path d="M63.9961,181.982h -6.80315" fill="none" stroke="black"/>
<path d="M63.9961,171.73h -6.80315" fill="none" stroke="black"/>
<path d="M63.9961,161.477h -6.80315" fill="none" stroke="black"/>
<path d="M63.9961,151.225h -6.80315" fill="none" stroke="black"/>
<path d="M70.7992,140.972h -13.6063" fill="none" stroke="black"/>
<path d="M63.9961,130.72h -6.80315" fill="none" stroke="black"/>
<path d="M63.9961,120.467h -6.80315" fill="none" stroke="black"/>
<path d="M63.9961,110.215h -6.80315" fill="none" stroke="black"/>
<path d="M63.9961,99.962h -6.80315" fill="none" stroke="black"/>
<path d="M70.7992,89.7095h -13.6063" fill="none" stroke="black"/>
<path d="M63.9961,79.457h -6.80315" fill="none" stroke="black"/>
<path d="M63.9961,69.2045h -6.80315" fill="none" stroke="black"/>
<path d="M63.9961,58.9519h -6.80315" fill="none" stroke="black"/>
<path d="M63.9961,48.6994h -6.80315" fill="none" stroke="black"/>
<path d="M70.7992,38.4469h -13.6063" fill="none" stroke="black"/>
<text xml:space="preserve" x="47.7441" y="350.258" fill="black" font-size="12.8453" font-family="Helvetica">0</text>
<text xml:space="preserve" x="33.8967" y="298.941" fill="black" font-size="12.8453" font-family="Helvetica">100</text>
<text xml:space="preserve" x="33.8967" y="247.624" fill="black" font-size="12.8453" font-family="Helvetica">200</text>
<text xml:space="preserve" x="33.8967" y="197.122" fill="black" font-size="12.8453" font-family="Helvetica">300</text>
<text xml:space="preserve" x="33.8967" y="145.805" fill="black" font-size="12.8453" font-family="Helvetica">400</text>
<text xml:space="preserve" x="33.8967" y="94.4882" fill="black" font-size="12.8453" font-family="Helvetica">500</text>
<text xml:space="preserve" x="33.8967" y="43.1713" fill="black" font-size="12.8453" font-family="Helvetica">600</text>
<g transform="rotate(-90,21.6784,65.1643)">
<text xml:space="preserve" x="21.6784" y="65.1643" fill="black" font-size="12.8453" font-family="Helvetica">MPV</text>
</g>
<text xml:space="preserve" x="201.695" y="18.7347" fill="black" font-size="18.0316" font-family="Helvetica">Sector 8 (Combined)</text>
<g stroke="black" stroke-width="1" fill="none">
<circle cx="78.2336" cy="191.812" r="3.25821"/>
</g>
<g stroke="black" stroke-width="1" fill="none">
<circle cx="82.9093" cy="208.906" r="3.25821"/>
</g>
<g stroke="black" stroke-width="1" fill="none">
<circle cx="87.585" cy="185.387" r="3.25821"/>
</g>
<g stroke="black" stroke-width="1" fill="none">
<circle cx="96.9364" cy="212.648" r="3.25821"/>
</g>
<g stroke="black" stroke-width="1" fill="none">
<circle cx="101.612" cy="209.887" r="3.25821"/>
</g>
<g stroke="black" stroke-width="1" fill="none">
<circle cx="106.288" cy="203.127" r="3.25821"/>
</g>
<g stroke="black" stroke-width="1" fill="none">
<circle cx="115.639" cy="164.112" r="3.25821"/>
</g>
<g stroke="black" stroke-width="1" fill="none">
<circle cx="120.315" cy="187.683" r="3.25821"/>
</g>
<g stroke="black" stroke-width="1" fill="none">
<circle cx="124.991" cy="217.535" r="3.25821"/>
</g>
<g stroke="black" stroke-width="1" fill="none">
<line x1="75.93" y1="194.871" x2="80.5371" y2="199.478"/><line x1="75.93" y1="199.478" x2="80.5371" y2="194.871"/>
</g>
<g stroke="black" stroke-width="1" fill="none">
<line x1="80.6057" y1="211.371" x2="85.2128" y2="215.978"/><line x1="80.6057" y1="215.978" x2="85.2128" y2="211.371"/>
</g>
<g stroke="black" stroke-width="1" fill="none">
<line x1="85.2814" y1="198.243" x2="89.8885" y2="202.85"/><line x1="85.2814" y1="202.85" x2="89.8885" y2="198.243"/>
</g>
<g stroke="black" stroke-width="1" fill="none">
<line x1="94.6328" y1="222.932" x2="99.24" y2="227.539"/><line x1="94.6328" y1="227.539" x2="99.24" y2="222.932"/>
</g>
<g stroke="black" stroke-width="1" fill="none">
<line x1="99.3085" y1="220.431" x2="103.916" y2="225.038"/><line x1="99.3085" y1="225.038" x2="103.916" y2="220.431"/>
</g>
<g stroke="black" stroke-width="1" fill="none">
<line x1="103.984" y1="205.793" x2="108.591" y2="210.4"/><line x1="103.984" y1="210.4" x2="108.591" y2="205.793"/>
</g>
<g stroke="black" stroke-width="1" fill="none">
<line x1="113.336" y1="168.134" x2="117.943" y2="172.742"/><line x1="113.336" y1="172.742" x2="117.943" y2="168.134"/>
</g>
<g stroke="black" stroke-width="1" fill="none">
<line x1="118.011" y1="190.886" x2="122.618" y2="195.493"/><line x1="118.011" y1="195.493" x2="122.618" y2="190.886"/>
</g>
<g stroke="black" stroke-width="1" fill="none">
<line x1="122.687" y1="219.7" x2="127.294" y2="224.307"/><line x1="122.687" y1="224.307" x2="127.294" y2="219.7"/>
</g>
<g stroke="#ff0000" stroke-width="1" fill="none">
<circle cx="134.342" cy="178.898" r="3.25821"/>
</g>
<g stroke="#ff0000" stroke-width="1" fill="none">
<circle cx="139.018" cy="183.646" r="3.25821"/>
</g>
<g stroke="#ff0000" stroke-width="1" fill="none">
<circle cx="143.693" cy="179.273" r="3.25821"/>
</g>
<g stroke="#ff0000" stroke-width="1" fill="none">
<circle cx="153.045" cy="214.931" r="3.25821"/>
</g>
<g stroke="#ff0000" stroke-width="1" fill="none">
<circle cx="157.721" cy="214.072" r="3.25821"/>
</g>
<g stroke="#ff0000" stroke-width="1" fill="none">
<circle cx="162.396" cy="206.744" r="3.25821"/>
</g>
<g stroke="#ff0000" stroke-width="1" fill="none">
<circle cx="171.748" cy="200.828" r="3.25821"/>
</g>
<g stroke="#ff0000" stroke-width="1" fill="none">
<circle cx="176.423" cy="191.024" r="3.25821"/>
</g>
<g stroke="#ff0000" stroke-width="1" fill="none">
<circle cx="190.45" cy="200.928" r="3.25821"/>
</g>
<g stroke="#ff0000" stroke-width="1" fill="none">
<circle cx="195.126" cy="224.455" r="3.25821"/>
</g>
<g stroke="#ff0000" stroke-width="1" fill="none">
<circle cx="199.802" cy="173.576" r="3.25821"/>
</g>
<g stroke="#ff0000" stroke-width="1" fill="none">
<line x1="132.038" y1="182.406" x2="136.646" y2="187.013"/><line x1="132.038" y1="187.013" x2="136.646" y2="182.406"/>
</g>
<g stroke="#ff0000" stroke-width="1" fill="none">
<line x1="136.714" y1="186.989" x2="141.321" y2="191.596"/><line x1="136.714" y1="191.596" x2="141.321" y2="186.989"/>
</g>
<g stroke="#ff0000" stroke-width="1" fill="none">
<line x1="141.39" y1="182.768" x2="145.997" y2="187.375"/><line x1="141.39" y1="187.375" x2="145.997" y2="182.768"/>
</g>
<g stroke="#ff0000" stroke-width="1" fill="none">
<line x1="150.741" y1="208.971" x2="155.348" y2="213.578"/><line x1="150.741" y1="213.578" x2="155.348" y2="208.971"/>
</g>
<g stroke="#ff0000" stroke-width="1" fill="none">
<line x1="155.417" y1="208.089" x2="160.024" y2="212.696"/><line x1="155.417" y1="212.696" x2="160.024" y2="208.089"/>
</g>
<g stroke="#ff0000" stroke-width="1" fill="none">
<line x1="160.093" y1="200.556" x2="164.7" y2="205.163"/><line x1="160.093" y1="205.163" x2="164.7" y2="200.556"/>
</g>
<g stroke="#ff0000" stroke-width="1" fill="none">
<line x1="169.444" y1="194.475" x2="174.051" y2="199.082"/><line x1="169.444" y1="199.082" x2="174.051" y2="194.475"/>
</g>
<g stroke="#ff0000" stroke-width="1" fill="none">
<line x1="174.12" y1="184.398" x2="178.727" y2="189.005"/><line x1="174.12" y1="189.005" x2="178.727" y2="184.398"/>
</g>
<g stroke="#ff0000" stroke-width="1" fill="none">
<line x1="188.147" y1="187.979" x2="192.754" y2="192.587"/><line x1="188.147" y1="192.587" x2="192.754" y2="187.979"/>
</g>
<g stroke="#ff0000" stroke-width="1" fill="none">
<line x1="192.823" y1="218.761" x2="197.43" y2="223.368"/><line x1="192.823" y1="223.368" x2="197.43" y2="218.761"/>
</g>
<g stroke="#ff0000" stroke-width="1" fill="none">
<line x1="197.498" y1="166.463" x2="202.105" y2="171.07"/><line x1="197.498" y1="171.07" x2="202.105" y2="166.463"/>
</g>
<g stroke="#009900" stroke-width="1" fill="none">
<circle cx="209.153" cy="193.538" r="3.25821"/>
</g>
<g stroke="#009900" stroke-width="1" fill="none">
<circle cx="213.829" cy="211.27" r="3.25821"/>
</g>
<g stroke="#009900" stroke-width="1" fill="none">
<circle cx="218.505" cy="217.225" r="3.25821"/>
</g>
<g stroke="#009900" stroke-width="1" fill="none">
<circle cx="227.856" cy="223.13" r="3.25821"/>
</g>
<g stroke="#009900" stroke-width="1" fill="none">
<circle cx="232.532" cy="170.486" r="3.25821"/>
</g>
<g stroke="#009900" stroke-width="1" fill="none">
<circle cx="237.208" cy="219.926" r="3.25821"/>
</g>
<g stroke="#009900" stroke-width="1" fill="none">
<circle cx="246.559" cy="202.982" r="3.25821"/>
</g>
<g stroke="#009900" stroke-width="1" fill="none">
<circle cx="251.235" cy="208.579" r="3.25821"/>
</g>
<g stroke="#009900" stroke-width="1" fill="none">
<circle cx="255.91" cy="222.019" r="3.25821"/>
</g>
<g stroke="#009900" stroke-width="1" fill="none">
<circle cx="265.262" cy="215.974" r="3.25821"/>
</g>
<g stroke="#009900" stroke-width="1" fill="none">
<circle cx="269.937" cy="215.288" r="3.25821"/>
</g>
<g stroke="#009900" stroke-width="1" fill="none">
<circle cx="274.613" cy="214.559" r="3.25821"/>
</g>
<g stroke="#009900" stroke-width="1" fill="none">
<line x1="206.85" y1="180.047" x2="211.457" y2="184.654"/><line x1="206.85" y1="184.654" x2="211.457" y2="180.047"/>
</g>
<g stroke="#009900" stroke-width="1" fill="none">
<line x1="211.525" y1="199.08" x2="216.133" y2="203.687"/><line x1="211.525" y1="203.687" x2="216.133" y2="199.08"/>
</g>
<g stroke="#009900" stroke-width="1" fill="none">
<line x1="216.201" y1="205.471" x2="220.808" y2="210.079"/><line x1="216.201" y1="210.079" x2="220.808" y2="205.471"/>
</g>
<g stroke="#009900" stroke-width="1" fill="none">
<line x1="225.553" y1="211.81" x2="230.16" y2="216.417"/><line x1="225.553" y1="216.417" x2="230.16" y2="211.81"/>
</g>
<g stroke="#009900" stroke-width="1" fill="none">
<line x1="230.228" y1="152.866" x2="234.835" y2="157.473"/><line x1="230.228" y1="157.473" x2="234.835" y2="152.866"/>
</g>
<g stroke="#009900" stroke-width="1" fill="none">
<line x1="234.904" y1="208.371" x2="239.511" y2="212.978"/><line x1="234.904" y1="212.978" x2="239.511" y2="208.371"/>
</g>
<g stroke="#009900" stroke-width="1" fill="none">
<line x1="244.255" y1="193.999" x2="248.862" y2="198.606"/><line x1="244.255" y1="198.606" x2="248.862" y2="193.999"/>
</g>
<g stroke="#009900" stroke-width="1" fill="none">
<line x1="248.931" y1="199.857" x2="253.538" y2="204.465"/><line x1="248.931" y1="204.465" x2="253.538" y2="199.857"/>
</g>
<g stroke="#009900" stroke-width="1" fill="none">
<line x1="253.607" y1="210.617" x2="258.214" y2="215.224"/><line x1="253.607" y1="215.224" x2="258.214" y2="210.617"/>
</g>
<g stroke="#009900" stroke-width="1" fill="none">
<line x1="262.958" y1="202.324" x2="267.565" y2="206.931"/><line x1="262.958" y1="206.931" x2="267.565" y2="202.324"/>
</g>
<g stroke="#009900" stroke-width="1" fill="none">
<line x1="267.634" y1="206.88" x2="272.241" y2="211.487"/><line x1="267.634" y1="211.487" x2="272.241" y2="206.88"/>
</g>
<g stroke="#009900" stroke-width="1" fill="none">
<line x1="272.31" y1="206.117" x2="276.917" y2="210.724"/><line x1="272.31" y1="210.724" x2="276.917" y2="206.117"/>
</g>
<g stroke="#0000ff" stroke-width="1" fill="none">
<circle cx="283.965" cy="186.368" r="3.25821"/>
</g>
<g stroke="#0000ff" stroke-width="1" fill="none">
<circle cx="288.64" cy="213.24" r="3.25821"/>
</g>
<g stroke="#0000ff" stroke-width="1" fill="none">
<circle cx="293.316" cy="205.957" r="3.25821"/>
</g>
<g stroke="#0000ff" stroke-width="1" fill="none">
<circle cx="302.667" cy="207.384" r="3.25821"/>
</g>
<g stroke="#0000ff" stroke-width="1" fill="none">
<circle cx="307.343" cy="204.929" r="3.25821"/>
</g>
<g stroke="#0000ff" stroke-width="1" fill="none">
<circle cx="312.019" cy="198.041" r="3.25821"/>
</g>
<g stroke="#0000ff" stroke-width="1" fill="none">
<circle cx="321.37" cy="204.672" r="3.25821"/>
</g>
<g stroke="#0000ff" stroke-width="1" fill="none">
<circle cx="326.046" cy="238.63" r="3.25821"/>
</g>
<g stroke="#0000ff" stroke-width="1" fill="none">
<circle cx="330.722" cy="210.57" r="3.25821"/>
</g>
<g stroke="#0000ff" stroke-width="1" fill="none">
<circle cx="340.073" cy="255.407" r="3.25821"/>
</g>
<g stroke="#0000ff" stroke-width="1" fill="none">
<circle cx="344.749" cy="200.212" r="3.25821"/>
</g>
<g stroke="#0000ff" stroke-width="1" fill="none">
<circle cx="349.424" cy="165.82" r="3.25821"/>
</g>
<g stroke="#0000ff" stroke-width="1" fill="none">
<line x1="281.661" y1="176.609" x2="286.268" y2="181.217"/><line x1="281.661" y1="181.217" x2="286.268" y2="176.609"/>
</g>
<g stroke="#0000ff" stroke-width="1" fill="none">
<line x1="286.337" y1="204.736" x2="290.944" y2="209.343"/><line x1="286.337" y1="209.343" x2="290.944" y2="204.736"/>
</g>
<g stroke="#0000ff" stroke-width="1" fill="none">
<line x1="291.012" y1="197.113" x2="295.62" y2="201.721"/><line x1="291.012" y1="201.721" x2="295.62" y2="197.113"/>
</g>
<g stroke="#0000ff" stroke-width="1" fill="none">
<line x1="300.364" y1="199.117" x2="304.971" y2="203.724"/><line x1="300.364" y1="203.724" x2="304.971" y2="199.117"/>
</g>
<g stroke="#0000ff" stroke-width="1" fill="none">
<line x1="305.04" y1="196.037" x2="309.647" y2="200.644"/><line x1="305.04" y1="200.644" x2="309.647" y2="196.037"/>
</g>
<g stroke="#0000ff" stroke-width="1" fill="none">
<line x1="309.715" y1="188.827" x2="314.322" y2="193.434"/><line x1="309.715" y1="193.434" x2="314.322" y2="188.827"/>
</g>
<g stroke="#0000ff" stroke-width="1" fill="none">
<line x1="319.067" y1="196.288" x2="323.674" y2="200.895"/><line x1="319.067" y1="200.895" x2="323.674" y2="196.288"/>
</g>
<g stroke="#0000ff" stroke-width="1" fill="none">
<line x1="323.742" y1="231.707" x2="328.349" y2="236.314"/><line x1="323.742" y1="236.314" x2="328.349" y2="231.707"/>
</g>
<g stroke="#0000ff" stroke-width="1" fill="none">
<line x1="328.418" y1="202.44" x2="333.025" y2="207.047"/><line x1="328.418" y1="207.047" x2="333.025" y2="202.44"/>
</g>
<g stroke="#0000ff" stroke-width="1" fill="none">
<line x1="337.769" y1="249.206" x2="342.377" y2="253.813"/><line x1="337.769" y1="253.813" x2="342.377" y2="249.206"/>
</g>
<g stroke="#0000ff" stroke-width="1" fill="none">
<line x1="342.445" y1="191.637" x2="347.052" y2="196.244"/><line x1="342.445" y1="196.244" x2="347.052" y2="191.637"/>
</g>
<g stroke="#0000ff" stroke-width="1" fill="none">
<line x1="347.121" y1="150.625" x2="351.728" y2="155.232"/><line x1="347.121" y1="155.232" x2="351.728" y2="150.625"/>
</g>
<g stroke="#cc00ff" stroke-width="1" fill="none">
<circle cx="358.776" cy="231.779" r="3.25821"/>
</g>
<g stroke="#cc00ff" stroke-width="1" fill="none">
<circle cx="368.127" cy="196.248" r="3.25821"/>
</g>
<g stroke="#cc00ff" stroke-width="1" fill="none">
<circle cx="377.479" cy="237.904" r="3.25821"/>
</g>
<g stroke="#cc00ff" stroke-width="1" fill="none">
<circle cx="382.154" cy="190.135" r="3.25821"/>
</g>
<g stroke="#cc00ff" stroke-width="1" fill="none">
<circle cx="386.83" cy="188.61" r="3.25821"/>
</g>
<g stroke="#cc00ff" stroke-width="1" fill="none">
<circle cx="396.181" cy="199.849" r="3.25821"/>
</g>
<g stroke="#cc00ff" stroke-width="1" fill="none">
<circle cx="400.857" cy="232.898" r="3.25821"/>
</g>
<g stroke="#cc00ff" stroke-width="1" fill="none">
<circle cx="405.533" cy="213.601" r="3.25821"/>
</g>
<g stroke="#cc00ff" stroke-width="1" fill="none">
<circle cx="414.884" cy="221.173" r="3.25821"/>
</g>
<g stroke="#cc00ff" stroke-width="1" fill="none">
<circle cx="419.56" cy="185.983" r="3.25821"/>
</g>
<g stroke="#cc00ff" stroke-width="1" fill="none">
<circle cx="424.236" cy="197.676" r="3.25821"/>
</g>
<g stroke="#cc00ff" stroke-width="1" fill="none">
<line x1="356.472" y1="224.561" x2="361.079" y2="229.168"/><line x1="356.472" y1="229.168" x2="361.079" y2="224.561"/>
</g>
<g stroke="#cc00ff" stroke-width="1" fill="none">
<line x1="365.824" y1="191.463" x2="370.431" y2="196.07"/><line x1="365.824" y1="196.07" x2="370.431" y2="191.463"/>
</g>
<g stroke="#cc00ff" stroke-width="1" fill="none">
<line x1="375.175" y1="233.81" x2="379.782" y2="238.417"/><line x1="375.175" y1="238.417" x2="379.782" y2="233.81"/>
</g>
<g stroke="#cc00ff" stroke-width="1" fill="none">
<line x1="379.851" y1="185.248" x2="384.458" y2="189.855"/><line x1="379.851" y1="189.855" x2="384.458" y2="185.248"/>
</g>
<g stroke="#cc00ff" stroke-width="1" fill="none">
<line x1="384.526" y1="183.699" x2="389.134" y2="188.306"/><line x1="384.526" y1="188.306" x2="389.134" y2="183.699"/>
</g>
<g stroke="#cc00ff" stroke-width="1" fill="none">
<line x1="393.878" y1="195.124" x2="398.485" y2="199.731"/><line x1="393.878" y1="199.731" x2="398.485" y2="195.124"/>
</g>
<g stroke="#cc00ff" stroke-width="1" fill="none">
<line x1="398.554" y1="228.721" x2="403.161" y2="233.328"/><line x1="398.554" y1="233.328" x2="403.161" y2="228.721"/>
</g>
<g stroke="#cc00ff" stroke-width="1" fill="none">
<line x1="403.229" y1="209.103" x2="407.836" y2="213.71"/><line x1="403.229" y1="213.71" x2="407.836" y2="209.103"/>
</g>
<g stroke="#cc00ff" stroke-width="1" fill="none">
<line x1="412.581" y1="220.204" x2="417.188" y2="224.811"/><line x1="412.581" y1="224.811" x2="417.188" y2="220.204"/>
</g>
<g stroke="#cc00ff" stroke-width="1" fill="none">
<line x1="417.256" y1="185.39" x2="421.864" y2="189.997"/><line x1="417.256" y1="189.997" x2="421.864" y2="185.39"/>
</g>
<g stroke="#cc00ff" stroke-width="1" fill="none">
<line x1="421.932" y1="196.959" x2="426.539" y2="201.566"/><line x1="421.932" y1="201.566" x2="426.539" y2="196.959"/>
</g>
<g stroke="#00ffff" stroke-width="1" fill="none">
<circle cx="433.587" cy="243.279" r="3.25821"/>
</g>
<g stroke="#00ffff" stroke-width="1" fill="none">
<circle cx="438.263" cy="188.428" r="3.25821"/>
</g>
<g stroke="#00ffff" stroke-width="1" fill="none">
<circle cx="442.939" cy="200.009" r="3.25821"/>
</g>
<g stroke="#00ffff" stroke-width="1" fill="none">
<circle cx="452.29" cy="225.484" r="3.25821"/>
</g>
<g stroke="#00ffff" stroke-width="1" fill="none">
<circle cx="456.966" cy="216.535" r="3.25821"/>
</g>
<g stroke="#00ffff" stroke-width="1" fill="none">
<circle cx="461.641" cy="181.999" r="3.25821"/>
</g>
<g stroke="#00ffff" stroke-width="1" fill="none">
<circle cx="470.993" cy="214.61" r="3.25821"/>
</g>
<g stroke="#00ffff" stroke-width="1" fill="none">
<circle cx="475.668" cy="196.475" r="3.25821"/>
</g>
<g stroke="#00ffff" stroke-width="1" fill="none">
<circle cx="480.344" cy="223.102" r="3.25821"/>
</g>
<g stroke="#00ffff" stroke-width="1" fill="none">
<circle cx="489.696" cy="211.631" r="3.25821"/>
</g>
<g stroke="#00ffff" stroke-width="1" fill="none">
<circle cx="494.371" cy="237.171" r="3.25821"/>
</g>
<g stroke="#00ffff" stroke-width="1" fill="none">
<circle cx="499.047" cy="219.595" r="3.25821"/>
</g>
<g stroke="#00ffff" stroke-width="1" fill="none">
<line x1="431.284" y1="239.273" x2="435.891" y2="243.88"/><line x1="431.284" y1="243.88" x2="435.891" y2="239.273"/>
</g>
<g stroke="#00ffff" stroke-width="1" fill="none">
<line x1="435.959" y1="178.336" x2="440.566" y2="182.943"/><line x1="435.959" y1="182.943" x2="440.566" y2="178.336"/>
</g>
<g stroke="#00ffff" stroke-width="1" fill="none">
<line x1="440.635" y1="195.286" x2="445.242" y2="199.894"/><line x1="440.635" y1="199.894" x2="445.242" y2="195.286"/>
</g>
<g stroke="#00ffff" stroke-width="1" fill="none">
<line x1="449.986" y1="217.224" x2="454.593" y2="221.831"/><line x1="449.986" y1="221.831" x2="454.593" y2="217.224"/>
</g>
<g stroke="#00ffff" stroke-width="1" fill="none">
<line x1="454.662" y1="207.337" x2="459.269" y2="211.944"/><line x1="454.662" y1="211.944" x2="459.269" y2="207.337"/>
</g>
<g stroke="#00ffff" stroke-width="1" fill="none">
<line x1="459.338" y1="170.963" x2="463.945" y2="175.57"/><line x1="459.338" y1="175.57" x2="463.945" y2="170.963"/>
</g>
<g stroke="#00ffff" stroke-width="1" fill="none">
<line x1="468.689" y1="205.812" x2="473.296" y2="210.419"/><line x1="468.689" y1="210.419" x2="473.296" y2="205.812"/>
</g>
<g stroke="#00ffff" stroke-width="1" fill="none">
<line x1="473.365" y1="186.781" x2="477.972" y2="191.389"/><line x1="473.365" y1="191.389" x2="477.972" y2="186.781"/>
</g>
<g stroke="#00ffff" stroke-width="1" fill="none">
<line x1="478.041" y1="214.724" x2="482.648" y2="219.331"/><line x1="478.041" y1="219.331" x2="482.648" y2="214.724"/>
</g>
<g stroke="#00ffff" stroke-width="1" fill="none">
<line x1="487.392" y1="202.173" x2="491.999" y2="206.78"/><line x1="487.392" y1="206.78" x2="491.999" y2="202.173"/>
</g>
<g stroke="#00ffff" stroke-width="1" fill="none">
<line x1="492.068" y1="229.072" x2="496.675" y2="233.68"/><line x1="492.068" y1="233.68" x2="496.675" y2="229.072"/>
</g>
<g stroke="#00ffff" stroke-width="1" fill="none">
<line x1="496.743" y1="210.561" x2="501.351" y2="215.168"/><line x1="496.743" y1="215.168" x2="501.351" y2="210.561"/>
</g>
<path d="M57.1929,346.022h 453.543" fill="none" stroke="black"/>
<path d="M57.1929,336.795v 9.22726" fill="none" stroke="black"/>
<path d="M66.7412,341.409v 4.61363" fill="none" stroke="black"/>
<path d="M76.2895,341.409v 4.61363" fill="none" stroke="black"/>
<path d="M85.8378,341.409v 4.61363" fill="none" stroke="black"/>
<path d="M95.386,341.409v 4.61363" fill="none" stroke="black"/>
<path d="M104.934,336.795v 9.22726" fill="none" stroke="black"/>
<path d="M114.483,341.409v 4.61363" fill="none" stroke="black"/>
<path d="M124.031,341.409v 4.61363" fill="none" stroke="black"/>
<path d="M133.579,341.409v 4.61363" fill="none" stroke="black"/>
<path d="M143.127,341.409v 4.61363" fill="none" stroke="black"/>
<path d="M152.676,336.795v 9.22726" fill="none" stroke="black"/>
<path d="M162.224,341.409v 4.61363" fill="none" stroke="black"/>
<path d="M171.772,341.409v 4.61363" fill="none" stroke="black"/>
<path d="M181.321,341.409v 4.61363" fill="none" stroke="black"/>
<path d="M190.869,341.409v 4.61363" fill="none" stroke="black"/>
<path d="M200.417,336.795v 9.22726" fill="none" stroke="black"/>
<path d="M209.965,341.409v 4.61363" fill="none" stroke="black"/>
<path d="M219.514,341.409v 4.61363" fill="none" stroke="black"/>
<path d="M229.062,341.409v 4.61363" fill="none" stroke="black"/>
<path d="M238.61,341.409v 4.61363" fill="none" stroke="black"/>
<path d="M248.159,336.795v 9.22726" fill="none" stroke="black"/>
<path d="M257.707,341.409v 4.61363" fill="none" stroke="black"/>
<path d="M267.255,341.409v 4.61363" fill="none" stroke="black"/>
<path d="M276.803,341.409v 4.61363" fill="none" stroke="black"/>
<path d="M286.352,341.409v 4.61363" fill="none" stroke="black"/>
<path d="M295.9,336.795v 9.22726" fill="none" stroke="black"/>
<path d="M305.448,341.409v 4.61363" fill="none" stroke="black"/>
<path d="M314.996,341.409v 4.61363" fill="none" stroke="black"/>
<path d="M324.545,341.409v 4.61363" fill="none" stroke="black"/>
<path d="M334.093,341.409v 4.61363" fill="none" stroke="black"/>
<path d="M343.641,336.795v 9.22726" fill="none" stroke="black"/>
<path d="M353.19,341.409v 4.61363" fill="none" stroke="black"/>
<path d="M362.738,341.409v 4.61363" fill="none" stroke="black"/>
<path d="M372.286,341.409v 4.61363" fill="none" stroke="black"/>
<path d="M381.834,341.409v 4.61363" fill="none" stroke="black"/>
<path d="M391.383,336.795v 9.22726" fill="none" stroke="black"/>
<path d="M400.931,341.409v 4.61363" fill="none" stroke="black"/>
<path d="M410.479,341.409v 4.61363" fill="none" stroke="black"/>
<path d="M420.028,341.409v 4.61363" fill="none" stroke="black"/>
<path d="M429.576,341.409v 4.61363" fill="none" stroke="black"/>
<path d="M439.124,336.795v 9.22726" fill="none" stroke="black"/>
<path d="M448.672,341.409v 4.61363" fill="none" stroke="black"/>
<path d="M458.221,341.409v 4.61363" fill="none" stroke="black"/>
<path d="M467.769,341.409v 4.61363" fill="none" stroke="black"/>
<path d="M477.317,341.409v 4.61363" fill="none" stroke="black"/>
<path d="M486.866,336.795v 9.22726" fill="none" stroke="black"/>
<path d="M486.866,336.795v 9.22726" fill="none" stroke="black"/>
<path d="M496.414,341.409v 4.61363" fill="none" stroke="black"/>
<path d="M505.962,341.409v 4.61363" fill="none" stroke="black"/>
<path d="M57.1929,346.022v -307.575" fill="none" stroke="black"/>
<path d="M70.7992,346.022h -13.6063" fill="none" stroke="black"/>
<path d="M63.9961,335.77h -6.80315" fill="none" stroke="black"/>
<path d="M63.9961,325.517h -6.80315" fill="none" stroke="black"/>
<path d="M63.9961,315.265h -6.80315" fill="none" stroke="black"/>
<path d="M63.9961,305.012h -6.80315" fill="none" stroke="black"/>
<path d="M70.7992,294.76h -13.6063" fill="none" stroke="black"/>
<path d="M63.9961,284.507h -6.80315" fill="none" stroke="black"/>
<path d="M63.9961,274.255h -6.80315" fill="none" stroke="black"/>
<path d="M63.9961,264.002h -6.80315" fill="none" stroke="black"/>
<path d="M63.9961,253.75h -6.80315" fill="none" stroke="black"/>
<path d="M70.7992,243.497h -13.6063" fill="none" stroke="black"/>
<path d="M63.9961,233.245h -6.80315" fill="none" stroke="black"/>
<path d="M63.9961,222.992h -6.80315" fill="none" stroke="black"/>
<path d="M63.9961,212.74h -6.80315" fill="none" stroke="black"/>
<path d="M63.9961,202.487h -6.80315" fill="none" stroke="black"/>
<path d="M70.7992,192.235h -13.6063" fill="none" stroke="black"/>
<path d="M63.9961,181.982h -6.80315" fill="none" stroke="black"/>
<path d="M63.9961,171.73h -6.80315" fill="none" stroke="black"/>
<path d="M63.9961,161.477h -6.80315" fill="none" stroke="black"/>
<path d="M63.9961,151.225h -6.80315" fill="none" stroke="black"/>
<path d="M70.7992,140.972h -13.6063" fill="none" stroke="black"/>
<path d="M63.9961,130.72h -6.80315" fill="none" stroke="black"/>
<path d="M63.9961,120.467h -6.80315" fill="none" stroke="black"/>
<path d="M63.9961,110.215h -6.80315" fill="none" stroke="black"/>
<path d="M63.9961,99.962h -6.80315" fill="none" stroke="black"/>
<path d="M70.7992,89.7095h -13.6063" fill="none" stroke="black"/>
<path d="M63.9961,79.457h -6.80315" fill="none" stroke="black"/>
<path d="M63.9961,69.2045h -6.80315" fill="none" stroke="black"/>
<path d="M63.9961,58.9519h -6.80315" fill="none" stroke="black"/>
<path d="M63.9961,48.6994h -6.80315" fill="none" stroke="black"/>
<path d="M70.7992,38.4469h -13.6063" fill="none" stroke="black"/>
<text xml:space="preserve" x="201.695" y="18.7347" fill="black" font-size="18.0316" font-family="Helvetica">Sector 8 (Combined)</text></svg>
