<?xml version="1.0" standalone="no"?>
<svg width="567.429" height="384.969" viewBox="0 0 567.429 384.969" xmlns="http://www.w3.org/2000/svg" shape-rendering="crispEdges">
<title>
./plots/sector_fb_legends/sector19.svg
</title>
<desc>
Creator: ROOT Version 6.22/02
CreationDate: Wed Sep  1 10:31:29 2021</desc>
<defs>
</defs>
<rect x="0.5" y="0" width="566.929" height="384.469" fill="white"/>
<rect x="0.5" y="0" width="566.929" height="384.469" fill="white"/>
<path d="M0.5,384.469h 566.929" fill="none" stroke="black"/>
<path d="M567.429,384.469v -384.469" fill="none" stroke="black"/>
<path d="M567.429,0h -566.929" fill="none" stroke="black"/>
<path d="M0.5,0v 384.469" fill="none" stroke="black"/>
<text xml:space="preserve" x="142.232" y="13.8474" fill="black" font-size="12.4567" font-family="Helvetica">FB 22: 0.927</text>
<path d="M21.7598,16.3399h 99.2126v -13.4564h -99.2126z" fill="#ffb300"/>
<path d="M21.7598,9.61173h 99.2126" fill="none" stroke="#ffb300"/>
<g stroke="black" stroke-width="1" fill="none">
<line x1="70.3661" y1="9.61173" x2="71.3661" y2="9.61173"/>
</g>
<text xml:space="preserve" x="142.232" y="32.5821" fill="black" font-size="12.4567" font-family="Helvetica">FB 23: 0.853</text>
<path d="M21.7598,35.5634h 99.2126v -13.4564h -99.2126z" fill="#803e75"/>
<path d="M21.7598,28.8352h 99.2126" fill="none" stroke="#803e75"/>
<g stroke="black" stroke-width="1" fill="none">
<line x1="70.3661" y1="28.8352" x2="71.3661" y2="28.8352"/>
</g>
<text xml:space="preserve" x="142.232" y="52.1314" fill="black" font-size="12.4567" font-family="Helvetica">FB 28: 0.919</text>
<path d="M21.7598,54.7869h 99.2126v -13.4564h -99.2126z" fill="#ff6800"/>
<path d="M21.7598,48.0586h 99.2126" fill="none" stroke="#ff6800"/>
<g stroke="black" stroke-width="1" fill="none">
<line x1="70.3661" y1="48.0586" x2="71.3661" y2="48.0586"/>
</g>
<text xml:space="preserve" x="142.232" y="70.8661" fill="black" font-size="12.4567" font-family="Helvetica">FB 29: 0.950</text>
<path d="M21.7598,74.0103h 99.2126v -13.4564h -99.2126z" fill="#a6bdd7"/>
<path d="M21.7598,67.2821h 99.2126" fill="none" stroke="#a6bdd7"/>
<g stroke="black" stroke-width="1" fill="none">
<line x1="70.3661" y1="67.2821" x2="71.3661" y2="67.2821"/>
</g>
<text xml:space="preserve" x="142.232" y="90.4154" fill="black" font-size="12.4567" font-family="Helvetica">FB 30: 0.927</text>
<path d="M21.7598,93.2338h 99.2126v -13.4564h -99.2126z" fill="#817066"/>
<path d="M21.7598,86.5056h 99.2126" fill="none" stroke="#817066"/>
<g stroke="black" stroke-width="1" fill="none">
<line x1="70.3661" y1="86.5056" x2="71.3661" y2="86.5056"/>
</g>
<text xml:space="preserve" x="142.232" y="109.965" fill="black" font-size="12.4567" font-family="Helvetica">FB 31: 0.889</text>
<path d="M21.7598,112.457h 99.2126v -13.4564h -99.2126z" fill="#007d34"/>
<path d="M21.7598,105.729h 99.2126" fill="none" stroke="#007d34"/>
<g stroke="black" stroke-width="1" fill="none">
<line x1="70.3661" y1="105.729" x2="71.3661" y2="105.729"/>
</g>
<text xml:space="preserve" x="142.232" y="128.699" fill="black" font-size="12.4567" font-family="Helvetica">FB 32: 0.891</text>
<path d="M21.7598,131.681h 99.2126v -13.4564h -99.2126z" fill="#00538a"/>
<path d="M21.7598,124.952h 99.2126" fill="none" stroke="#00538a"/>
<g stroke="black" stroke-width="1" fill="none">
<line x1="70.3661" y1="124.952" x2="71.3661" y2="124.952"/>
</g>
<text xml:space="preserve" x="142.232" y="148.249" fill="black" font-size="12.4567" font-family="Helvetica">FB 33: 0.875</text>
<path d="M21.7598,150.904h 99.2126v -13.4564h -99.2126z" fill="#ff8e00"/>
<path d="M21.7598,144.176h 99.2126" fill="none" stroke="#ff8e00"/>
<g stroke="black" stroke-width="1" fill="none">
<line x1="70.3661" y1="144.176" x2="71.3661" y2="144.176"/>
</g>
<text xml:space="preserve" x="142.232" y="166.983" fill="black" font-size="12.4567" font-family="Helvetica">FB 34: 0.872</text>
<path d="M21.7598,170.128h 99.2126v -13.4564h -99.2126z" fill="#b32851"/>
<path d="M21.7598,163.399h 99.2126" fill="none" stroke="#b32851"/>
<g stroke="black" stroke-width="1" fill="none">
<line x1="70.3661" y1="163.399" x2="71.3661" y2="163.399"/>
</g>
<text xml:space="preserve" x="142.232" y="186.533" fill="black" font-size="12.4567" font-family="Helvetica">FB 35: 0.873</text>
<path d="M21.7598,189.351h 99.2126v -13.4564h -99.2126z" fill="#f4c800"/>
<path d="M21.7598,182.623h 99.2126" fill="none" stroke="#f4c800"/>
<g stroke="black" stroke-width="1" fill="none">
<line x1="70.3661" y1="182.623" x2="71.3661" y2="182.623"/>
</g>
<text xml:space="preserve" x="142.232" y="206.082" fill="black" font-size="12.4567" font-family="Helvetica">FB 36: 0.905</text>
<path d="M21.7598,208.575h 99.2126v -13.4564h -99.2126z" fill="#93aa00"/>
<path d="M21.7598,201.846h 99.2126" fill="none" stroke="#93aa00"/>
<g stroke="black" stroke-width="1" fill="none">
<line x1="70.3661" y1="201.846" x2="71.3661" y2="201.846"/>
</g>
<text xml:space="preserve" x="142.232" y="224.817" fill="black" font-size="12.4567" font-family="Helvetica">FB 37: 0.832</text>
<path d="M21.7598,227.798h 99.2126v -13.4564h -99.2126z" fill="#232c16"/>
<path d="M21.7598,221.07h 99.2126" fill="none" stroke="#232c16"/>
<g stroke="black" stroke-width="1" fill="none">
<line x1="70.3661" y1="221.07" x2="71.3661" y2="221.07"/>
</g>
<text xml:space="preserve" x="142.232" y="244.366" fill="black" font-size="12.4567" font-family="Helvetica">FB 38: 0.821</text>
<path d="M21.7598,247.021h 99.2126v -13.4564h -99.2126z" fill="#f13a13"/>
<path d="M21.7598,240.293h 99.2126" fill="none" stroke="#f13a13"/>
<g stroke="black" stroke-width="1" fill="none">
<line x1="70.3661" y1="240.293" x2="71.3661" y2="240.293"/>
</g>
<text xml:space="preserve" x="142.232" y="263.101" fill="black" font-size="12.4567" font-family="Helvetica">FB 40: 0.839</text>
<path d="M21.7598,266.245h 99.2126v -13.4564h -99.2126z" fill="#593315"/>
<path d="M21.7598,259.517h 99.2126" fill="none" stroke="#593315"/>
<g stroke="black" stroke-width="1" fill="none">
<line x1="70.3661" y1="259.517" x2="71.3661" y2="259.517"/>
</g>
<text xml:space="preserve" x="142.232" y="282.65" fill="black" font-size="12.4567" font-family="Helvetica">FB 41: 0.916</text>
<path d="M21.7598,285.468h 99.2126v -13.4564h -99.2126z" fill="#7f180d"/>
<path d="M21.7598,278.74h 99.2126" fill="none" stroke="#7f180d"/>
<g stroke="black" stroke-width="1" fill="none">
<line x1="70.3661" y1="278.74" x2="71.3661" y2="278.74"/>
</g>
<text xml:space="preserve" x="142.232" y="302.199" fill="black" font-size="12.4567" font-family="Helvetica">FB 42: 0.811</text>
<path d="M21.7598,304.692h 99.2126v -13.4564h -99.2126z" fill="#53377a"/>
<path d="M21.7598,297.964h 99.2126" fill="none" stroke="#53377a"/>
<g stroke="black" stroke-width="1" fill="none">
<line x1="70.3661" y1="297.964" x2="71.3661" y2="297.964"/>
</g>
<text xml:space="preserve" x="142.232" y="320.934" fill="black" font-size="12.4567" font-family="Helvetica">FB 43: 0.759</text>
<path d="M21.7598,323.915h 99.2126v -13.4564h -99.2126z" fill="#ff7a5c"/>
<path d="M21.7598,317.187h 99.2126" fill="none" stroke="#ff7a5c"/>
<g stroke="black" stroke-width="1" fill="none">
<line x1="70.3661" y1="317.187" x2="71.3661" y2="317.187"/>
</g>
<text xml:space="preserve" x="142.232" y="340.483" fill="black" font-size="12.4567" font-family="Helvetica">FB 44: 0.833</text>
<path d="M21.7598,343.139h 99.2126v -13.4564h -99.2126z" fill="#f6768e"/>
<path d="M21.7598,336.411h 99.2126" fill="none" stroke="#f6768e"/>
<g stroke="black" stroke-width="1" fill="none">
<line x1="70.3661" y1="336.411" x2="71.3661" y2="336.411"/>
</g>
<text xml:space="preserve" x="142.232" y="359.218" fill="black" font-size="12.4567" font-family="Helvetica">FB 45: 0.833</text>
<path d="M21.7598,362.362h 99.2126v -13.4564h -99.2126z" fill="#cea262"/>
<path d="M21.7598,355.634h 99.2126" fill="none" stroke="#cea262"/>
<g stroke="black" stroke-width="1" fill="none">
<line x1="70.3661" y1="355.634" x2="71.3661" y2="355.634"/>
</g>
<text xml:space="preserve" x="142.232" y="378.767" fill="black" font-size="12.4567" font-family="Helvetica">FB 46: 0.913</text>
<path d="M21.7598,381.586h 99.2126v -13.4564h -99.2126z" fill="#c10020"/>
<path d="M21.7598,374.857h 99.2126" fill="none" stroke="#c10020"/>
<g stroke="black" stroke-width="1" fill="none">
<line x1="70.3661" y1="374.857" x2="71.3661" y2="374.857"/>
</g></svg>
