<?xml version="1.0" standalone="no"?>
<svg width="567.429" height="384.969" viewBox="0 0 567.429 384.969" xmlns="http://www.w3.org/2000/svg" shape-rendering="crispEdges">
<title>
./plots/sector_fb_hists/sector16.svg
</title>
<desc>
Creator: ROOT Version 6.24/00
CreationDate: Wed Sep  1 09:24:22 2021</desc>
<defs>
</defs>
<rect x="0.5" y="0" width="566.929" height="384.469" fill="white"/>
<rect x="57.1929" y="38.4469" width="453.543" height="307.575" fill="white"/>
<rect x="57.1929" y="38.4469" width="453.543" height="307.575" fill="none" stroke="black"/>
<path d="M57.1929,346.022h 453.543" fill="none" stroke="black"/>
<path d="M57.1929,38.4469v 307.575" fill="none" stroke="black" stroke-dasharray=" 1, 2"/>
<path d="M510.736,38.4469v 307.575" fill="none" stroke="black" stroke-dasharray=" 1, 2"/>
<path d="M57.1929,346.022v -307.575" fill="none" stroke="black"/>
<path d="M510.736,346.022h -453.543" fill="none" stroke="black" stroke-dasharray=" 1, 2"/>
<path d="M510.736,309.406h -453.543" fill="none" stroke="black" stroke-dasharray=" 1, 2"/>
<path d="M510.736,272.79h -453.543" fill="none" stroke="black" stroke-dasharray=" 1, 2"/>
<path d="M510.736,236.174h -453.543" fill="none" stroke="black" stroke-dasharray=" 1, 2"/>
<path d="M510.736,199.558h -453.543" fill="none" stroke="black" stroke-dasharray=" 1, 2"/>
<path d="M510.736,162.942h -453.543" fill="none" stroke="black" stroke-dasharray=" 1, 2"/>
<path d="M510.736,126.326h -453.543" fill="none" stroke="black" stroke-dasharray=" 1, 2"/>
<path d="M510.736,89.7095h -453.543" fill="none" stroke="black" stroke-dasharray=" 1, 2"/>
<path d="M510.736,53.0934h -453.543" fill="none" stroke="black" stroke-dasharray=" 1, 2"/>
<path d="M510.736,53.0934h -453.543" fill="none" stroke="black" stroke-dasharray=" 1, 2"/>
<path d="M57.1929,346.022h 453.543" fill="none" stroke="#000099"/>
<path d="M57.1929,346.022h 453.543" fill="none" stroke="black"/>
<text xml:space="preserve" x="279.892" y="356.774" fill="black" font-size="8.73015" font-family="Helvetica">21</text>
<path d="M57.1929,336.795v 9.22726" fill="none" stroke="black"/>
<path d="M510.736,336.795v 9.22726" fill="none" stroke="black"/>
<text xml:space="preserve" x="448.504" y="372.251" fill="black" font-size="12.8453" font-family="Helvetica">Fiber Batch</text>
<path d="M57.1929,346.022v -307.575" fill="none" stroke="black"/>
<path d="M70.7992,346.022h -13.6063" fill="none" stroke="black"/>
<path d="M63.9961,338.699h -6.80315" fill="none" stroke="black"/>
<path d="M63.9961,331.376h -6.80315" fill="none" stroke="black"/>
<path d="M63.9961,324.053h -6.80315" fill="none" stroke="black"/>
<path d="M63.9961,316.729h -6.80315" fill="none" stroke="black"/>
<path d="M70.7992,309.406h -13.6063" fill="none" stroke="black"/>
<path d="M63.9961,302.083h -6.80315" fill="none" stroke="black"/>
<path d="M63.9961,294.76h -6.80315" fill="none" stroke="black"/>
<path d="M63.9961,287.436h -6.80315" fill="none" stroke="black"/>
<path d="M63.9961,280.113h -6.80315" fill="none" stroke="black"/>
<path d="M70.7992,272.79h -13.6063" fill="none" stroke="black"/>
<path d="M63.9961,265.467h -6.80315" fill="none" stroke="black"/>
<path d="M63.9961,258.144h -6.80315" fill="none" stroke="black"/>
<path d="M63.9961,250.82h -6.80315" fill="none" stroke="black"/>
<path d="M63.9961,243.497h -6.80315" fill="none" stroke="black"/>
<path d="M70.7992,236.174h -13.6063" fill="none" stroke="black"/>
<path d="M63.9961,228.851h -6.80315" fill="none" stroke="black"/>
<path d="M63.9961,221.527h -6.80315" fill="none" stroke="black"/>
<path d="M63.9961,214.204h -6.80315" fill="none" stroke="black"/>
<path d="M63.9961,206.881h -6.80315" fill="none" stroke="black"/>
<path d="M70.7992,199.558h -13.6063" fill="none" stroke="black"/>
<path d="M63.9961,192.235h -6.80315" fill="none" stroke="black"/>
<path d="M63.9961,184.911h -6.80315" fill="none" stroke="black"/>
<path d="M63.9961,177.588h -6.80315" fill="none" stroke="black"/>
<path d="M63.9961,170.265h -6.80315" fill="none" stroke="black"/>
<path d="M70.7992,162.942h -13.6063" fill="none" stroke="black"/>
<path d="M63.9961,155.618h -6.80315" fill="none" stroke="black"/>
<path d="M63.9961,148.295h -6.80315" fill="none" stroke="black"/>
<path d="M63.9961,140.972h -6.80315" fill="none" stroke="black"/>
<path d="M63.9961,133.649h -6.80315" fill="none" stroke="black"/>
<path d="M70.7992,126.326h -13.6063" fill="none" stroke="black"/>
<path d="M63.9961,119.002h -6.80315" fill="none" stroke="black"/>
<path d="M63.9961,111.679h -6.80315" fill="none" stroke="black"/>
<path d="M63.9961,104.356h -6.80315" fill="none" stroke="black"/>
<path d="M63.9961,97.0327h -6.80315" fill="none" stroke="black"/>
<path d="M70.7992,89.7095h -13.6063" fill="none" stroke="black"/>
<path d="M63.9961,82.3863h -6.80315" fill="none" stroke="black"/>
<path d="M63.9961,75.063h -6.80315" fill="none" stroke="black"/>
<path d="M63.9961,67.7398h -6.80315" fill="none" stroke="black"/>
<path d="M63.9961,60.4166h -6.80315" fill="none" stroke="black"/>
<path d="M70.7992,53.0934h -13.6063" fill="none" stroke="black"/>
<path d="M70.7992,53.0934h -13.6063" fill="none" stroke="black"/>
<path d="M63.9961,45.7701h -6.80315" fill="none" stroke="black"/>
<path d="M63.9961,38.4469h -6.80315" fill="none" stroke="black"/>
<text xml:space="preserve" x="47.7441" y="350.258" fill="black" font-size="12.8453" font-family="Helvetica">0</text>
<text xml:space="preserve" x="49.3732" y="313.603" fill="black" font-size="12.8453" font-family="Helvetica">1</text>
<text xml:space="preserve" x="47.7441" y="276.948" fill="black" font-size="12.8453" font-family="Helvetica">2</text>
<text xml:space="preserve" x="47.7441" y="240.293" fill="black" font-size="12.8453" font-family="Helvetica">3</text>
<text xml:space="preserve" x="47.7441" y="203.638" fill="black" font-size="12.8453" font-family="Helvetica">4</text>
<text xml:space="preserve" x="47.7441" y="167.798" fill="black" font-size="12.8453" font-family="Helvetica">5</text>
<text xml:space="preserve" x="47.7441" y="131.143" fill="black" font-size="12.8453" font-family="Helvetica">6</text>
<text xml:space="preserve" x="47.7441" y="94.4882" fill="black" font-size="12.8453" font-family="Helvetica">7</text>
<text xml:space="preserve" x="47.7441" y="57.8333" fill="black" font-size="12.8453" font-family="Helvetica">8</text>
<g transform="rotate(-90,34.7112,103.448)">
<text xml:space="preserve" x="34.7112" y="103.448" fill="black" font-size="12.8453" font-family="Helvetica">Num Blocks</text>
</g>
<text xml:space="preserve" x="247.31" y="18.7347" fill="black" font-size="16.9898" font-family="Helvetica">Sector 16</text>
<rect x="57.1929" y="53.0934" width="453.543" height="292.929" fill="#ffb300"/>
<path d="M57.1929,346.022h 453.543" fill="none" stroke="black"/>
<path d="M57.1929,336.795v 9.22726" fill="none" stroke="black"/>
<path d="M510.736,336.795v 9.22726" fill="none" stroke="black"/>
<path d="M57.1929,346.022v -307.575" fill="none" stroke="black"/>
<path d="M70.7992,346.022h -13.6063" fill="none" stroke="black"/>
<path d="M63.9961,338.699h -6.80315" fill="none" stroke="black"/>
<path d="M63.9961,331.376h -6.80315" fill="none" stroke="black"/>
<path d="M63.9961,324.053h -6.80315" fill="none" stroke="black"/>
<path d="M63.9961,316.729h -6.80315" fill="none" stroke="black"/>
<path d="M70.7992,309.406h -13.6063" fill="none" stroke="black"/>
<path d="M63.9961,302.083h -6.80315" fill="none" stroke="black"/>
<path d="M63.9961,294.76h -6.80315" fill="none" stroke="black"/>
<path d="M63.9961,287.436h -6.80315" fill="none" stroke="black"/>
<path d="M63.9961,280.113h -6.80315" fill="none" stroke="black"/>
<path d="M70.7992,272.79h -13.6063" fill="none" stroke="black"/>
<path d="M63.9961,265.467h -6.80315" fill="none" stroke="black"/>
<path d="M63.9961,258.144h -6.80315" fill="none" stroke="black"/>
<path d="M63.9961,250.82h -6.80315" fill="none" stroke="black"/>
<path d="M63.9961,243.497h -6.80315" fill="none" stroke="black"/>
<path d="M70.7992,236.174h -13.6063" fill="none" stroke="black"/>
<path d="M63.9961,228.851h -6.80315" fill="none" stroke="black"/>
<path d="M63.9961,221.527h -6.80315" fill="none" stroke="black"/>
<path d="M63.9961,214.204h -6.80315" fill="none" stroke="black"/>
<path d="M63.9961,206.881h -6.80315" fill="none" stroke="black"/>
<path d="M70.7992,199.558h -13.6063" fill="none" stroke="black"/>
<path d="M63.9961,192.235h -6.80315" fill="none" stroke="black"/>
<path d="M63.9961,184.911h -6.80315" fill="none" stroke="black"/>
<path d="M63.9961,177.588h -6.80315" fill="none" stroke="black"/>
<path d="M63.9961,170.265h -6.80315" fill="none" stroke="black"/>
<path d="M70.7992,162.942h -13.6063" fill="none" stroke="black"/>
<path d="M63.9961,155.618h -6.80315" fill="none" stroke="black"/>
<path d="M63.9961,148.295h -6.80315" fill="none" stroke="black"/>
<path d="M63.9961,140.972h -6.80315" fill="none" stroke="black"/>
<path d="M63.9961,133.649h -6.80315" fill="none" stroke="black"/>
<path d="M70.7992,126.326h -13.6063" fill="none" stroke="black"/>
<path d="M63.9961,119.002h -6.80315" fill="none" stroke="black"/>
<path d="M63.9961,111.679h -6.80315" fill="none" stroke="black"/>
<path d="M63.9961,104.356h -6.80315" fill="none" stroke="black"/>
<path d="M63.9961,97.0327h -6.80315" fill="none" stroke="black"/>
<path d="M70.7992,89.7095h -13.6063" fill="none" stroke="black"/>
<path d="M63.9961,82.3863h -6.80315" fill="none" stroke="black"/>
<path d="M63.9961,75.063h -6.80315" fill="none" stroke="black"/>
<path d="M63.9961,67.7398h -6.80315" fill="none" stroke="black"/>
<path d="M63.9961,60.4166h -6.80315" fill="none" stroke="black"/>
<path d="M70.7992,53.0934h -13.6063" fill="none" stroke="black"/>
<path d="M70.7992,53.0934h -13.6063" fill="none" stroke="black"/>
<path d="M63.9961,45.7701h -6.80315" fill="none" stroke="black"/>
<path d="M63.9961,38.4469h -6.80315" fill="none" stroke="black"/>
<text xml:space="preserve" x="247.31" y="18.7347" fill="black" font-size="16.9898" font-family="Helvetica">Sector 16</text></svg>
