<?xml version="1.0" standalone="no"?>
<svg width="567.429" height="384.969" viewBox="0 0 567.429 384.969" xmlns="http://www.w3.org/2000/svg" shape-rendering="crispEdges">
<title>
./old_vop/vop_graphs/vop69.26.svg
</title>
<desc>
Creator: ROOT Version 6.22/02
CreationDate: Fri Jun 25 18:12:43 2021</desc>
<defs>
</defs>
<rect x="0.5" y="0" width="566.929" height="384.469" fill="white"/>
<rect x="57.1929" y="38.4469" width="453.543" height="307.575" fill="white"/>
<rect x="57.1929" y="38.4469" width="453.543" height="307.575" fill="none" stroke="black"/>
<path d="M57.1929,330.605h 15.1181v 15.4173h 60.4724v -15.4173h 15.1181v 15.4173h 30.2362v -15.4173h 15.1181v -61.6692h 15.1181v -92.5039h 15.1181v -123.338h 15.1181v 61.6692h 15.1181v 15.4173h 15.1181v -15.4173h 30.2362v 138.756h 15.1181v -30.8346h
 15.1181v 92.5039h 15.1181v 15.4173h 15.1181v 15.4173h 151.181" fill="none" stroke="#817066"/>
<path d="M59.4606,346.022h 40.8189l 4.53543, -0.0354775l 4.53543, -0.0236333l 4.53543, -0.0379063l 4.53543, -0.0598378l 4.53543, -0.0929588l 4.53543, -0.142111l 4.53543, -0.213775l 4.53543, -0.316405l 4.53543, -0.460733l 4.53543, -0.659983l 4.53543,
 -0.929923l 4.53543, -1.28866l 4.53543, -1.7561l 4.53543, -2.35294l 4.53543, -3.09917l 4.53543, -4.01204l 4.53543, -5.10349l 4.53543, -6.37727l 4.53543, -7.82577l 4.53543, -9.42716l 4.53543, -11.1429l 4.53543, -12.9165l 4.53543, -14.6733l 4.53543,
 -16.3225l 4.53543, -17.7609l 4.53543, -18.8791l 4.53543, -19.5685l 4.53543, -19.7309l 4.53543, -19.2875l 4.53543, -18.1878l 4.53543, -16.4168l 4.53543, -14.0001l 4.53543, -11.005l 4.53543, -7.53825l 4.53543, -3.74031l 4.53543, 0.224385l 4.53543,
 4.17903l 4.53543, 7.94757l 4.53543, 11.3677l 4.53543, 14.3024" fill="none" stroke="#817066" stroke-width="2"/>
<path d="M281.697,118.658l 4.53543, 16.6491l 4.53543, 18.345l 4.53543, 19.3695l 4.53543, 19.7416l 4.53543, 19.5156l 4.53543, 18.7728l 4.53543, 17.6131l 4.53543, 16.1455l 4.53543, 14.4792l 4.53543, 12.7163l 4.53543, 10.9458l 4.53543, 9.24046l 4.53543,
 7.65467l 4.53543, 6.22501l 4.53543, 4.9716l 4.53543, 3.9006l 4.53543, 3.0072l 4.53543, 2.2787l 4.53543, 1.69745l 4.53543, 1.24327l 4.53543, 0.895481l 4.53543, 0.634356l 4.53543, 0.442024l 4.53543, 0.302999l 4.53543, 0.204344l 4.53543, 0.135595l
 4.53543, 0.0885358l 4.53543, 0.0568881l 4.53543, 0.035973l 4.53543, 0.0223878l 4.53543, 0.0334662h 81.6378" fill="none" stroke="#817066" stroke-width="2"/>
<path d="M503.933,346.022h 4.53543" fill="none" stroke="#817066" stroke-width="2"/>
<path d="M57.1929,346.022h 453.543" fill="none" stroke="black"/>
<path d="M57.1929,336.795v 9.22726" fill="none" stroke="black"/>
<path d="M72.311,341.409v 4.61363" fill="none" stroke="black"/>
<path d="M87.4291,341.409v 4.61363" fill="none" stroke="black"/>
<path d="M102.547,341.409v 4.61363" fill="none" stroke="black"/>
<path d="M117.665,341.409v 4.61363" fill="none" stroke="black"/>
<path d="M132.783,336.795v 9.22726" fill="none" stroke="black"/>
<path d="M147.902,341.409v 4.61363" fill="none" stroke="black"/>
<path d="M163.02,341.409v 4.61363" fill="none" stroke="black"/>
<path d="M178.138,341.409v 4.61363" fill="none" stroke="black"/>
<path d="M193.256,341.409v 4.61363" fill="none" stroke="black"/>
<path d="M208.374,336.795v 9.22726" fill="none" stroke="black"/>
<path d="M223.492,341.409v 4.61363" fill="none" stroke="black"/>
<path d="M238.61,341.409v 4.61363" fill="none" stroke="black"/>
<path d="M253.728,341.409v 4.61363" fill="none" stroke="black"/>
<path d="M268.846,341.409v 4.61363" fill="none" stroke="black"/>
<path d="M283.965,336.795v 9.22726" fill="none" stroke="black"/>
<path d="M299.083,341.409v 4.61363" fill="none" stroke="black"/>
<path d="M314.201,341.409v 4.61363" fill="none" stroke="black"/>
<path d="M329.319,341.409v 4.61363" fill="none" stroke="black"/>
<path d="M344.437,341.409v 4.61363" fill="none" stroke="black"/>
<path d="M359.555,336.795v 9.22726" fill="none" stroke="black"/>
<path d="M374.673,341.409v 4.61363" fill="none" stroke="black"/>
<path d="M389.791,341.409v 4.61363" fill="none" stroke="black"/>
<path d="M404.909,341.409v 4.61363" fill="none" stroke="black"/>
<path d="M420.028,341.409v 4.61363" fill="none" stroke="black"/>
<path d="M435.146,336.795v 9.22726" fill="none" stroke="black"/>
<path d="M450.264,341.409v 4.61363" fill="none" stroke="black"/>
<path d="M465.382,341.409v 4.61363" fill="none" stroke="black"/>
<path d="M480.5,341.409v 4.61363" fill="none" stroke="black"/>
<path d="M495.618,341.409v 4.61363" fill="none" stroke="black"/>
<path d="M510.736,336.795v 9.22726" fill="none" stroke="black"/>
<text xml:space="preserve" x="53.446" y="358.403" fill="black" font-size="12.8453" font-family="Helvetica">0</text>
<text xml:space="preserve" x="121.868" y="358.403" fill="black" font-size="12.8453" font-family="Helvetica">100</text>
<text xml:space="preserve" x="197.622" y="358.403" fill="black" font-size="12.8453" font-family="Helvetica">200</text>
<text xml:space="preserve" x="273.375" y="358.403" fill="black" font-size="12.8453" font-family="Helvetica">300</text>
<text xml:space="preserve" x="348.314" y="358.403" fill="black" font-size="12.8453" font-family="Helvetica">400</text>
<text xml:space="preserve" x="424.068" y="358.403" fill="black" font-size="12.8453" font-family="Helvetica">500</text>
<text xml:space="preserve" x="499.821" y="358.403" fill="black" font-size="12.8453" font-family="Helvetica">600</text>
<text xml:space="preserve" x="486.788" y="369.807" fill="black" font-size="12.8453" font-family="Helvetica">mpv</text>
<path d="M57.1929,346.022v -307.575" fill="none" stroke="black"/>
<path d="M70.7992,346.022h -13.6063" fill="none" stroke="black"/>
<path d="M63.9961,338.314h -6.80315" fill="none" stroke="black"/>
<path d="M63.9961,330.605h -6.80315" fill="none" stroke="black"/>
<path d="M63.9961,322.896h -6.80315" fill="none" stroke="black"/>
<path d="M70.7992,315.188h -13.6063" fill="none" stroke="black"/>
<path d="M63.9961,307.479h -6.80315" fill="none" stroke="black"/>
<path d="M63.9961,299.77h -6.80315" fill="none" stroke="black"/>
<path d="M63.9961,292.062h -6.80315" fill="none" stroke="black"/>
<path d="M70.7992,284.353h -13.6063" fill="none" stroke="black"/>
<path d="M63.9961,276.644h -6.80315" fill="none" stroke="black"/>
<path d="M63.9961,268.936h -6.80315" fill="none" stroke="black"/>
<path d="M63.9961,261.227h -6.80315" fill="none" stroke="black"/>
<path d="M70.7992,253.518h -13.6063" fill="none" stroke="black"/>
<path d="M63.9961,245.81h -6.80315" fill="none" stroke="black"/>
<path d="M63.9961,238.101h -6.80315" fill="none" stroke="black"/>
<path d="M63.9961,230.392h -6.80315" fill="none" stroke="black"/>
<path d="M70.7992,222.684h -13.6063" fill="none" stroke="black"/>
<path d="M63.9961,214.975h -6.80315" fill="none" stroke="black"/>
<path d="M63.9961,207.266h -6.80315" fill="none" stroke="black"/>
<path d="M63.9961,199.558h -6.80315" fill="none" stroke="black"/>
<path d="M70.7992,191.849h -13.6063" fill="none" stroke="black"/>
<path d="M63.9961,184.141h -6.80315" fill="none" stroke="black"/>
<path d="M63.9961,176.432h -6.80315" fill="none" stroke="black"/>
<path d="M63.9961,168.723h -6.80315" fill="none" stroke="black"/>
<path d="M70.7992,161.015h -13.6063" fill="none" stroke="black"/>
<path d="M63.9961,153.306h -6.80315" fill="none" stroke="black"/>
<path d="M63.9961,145.597h -6.80315" fill="none" stroke="black"/>
<path d="M63.9961,137.889h -6.80315" fill="none" stroke="black"/>
<path d="M70.7992,130.18h -13.6063" fill="none" stroke="black"/>
<path d="M63.9961,122.471h -6.80315" fill="none" stroke="black"/>
<path d="M63.9961,114.763h -6.80315" fill="none" stroke="black"/>
<path d="M63.9961,107.054h -6.80315" fill="none" stroke="black"/>
<path d="M70.7992,99.3453h -13.6063" fill="none" stroke="black"/>
<path d="M63.9961,91.6366h -6.80315" fill="none" stroke="black"/>
<path d="M63.9961,83.928h -6.80315" fill="none" stroke="black"/>
<path d="M63.9961,76.2193h -6.80315" fill="none" stroke="black"/>
<path d="M70.7992,68.5107h -13.6063" fill="none" stroke="black"/>
<path d="M70.7992,68.5107h -13.6063" fill="none" stroke="black"/>
<path d="M63.9961,60.802h -6.80315" fill="none" stroke="black"/>
<path d="M63.9961,53.0934h -6.80315" fill="none" stroke="black"/>
<path d="M63.9961,45.3847h -6.80315" fill="none" stroke="black"/>
<text xml:space="preserve" x="47.7441" y="350.258" fill="black" font-size="12.8453" font-family="Helvetica">0</text>
<text xml:space="preserve" x="47.7441" y="319.305" fill="black" font-size="12.8453" font-family="Helvetica">2</text>
<text xml:space="preserve" x="47.7441" y="289.166" fill="black" font-size="12.8453" font-family="Helvetica">4</text>
<text xml:space="preserve" x="47.7441" y="258.213" fill="black" font-size="12.8453" font-family="Helvetica">6</text>
<text xml:space="preserve" x="47.7441" y="227.26" fill="black" font-size="12.8453" font-family="Helvetica">8</text>
<text xml:space="preserve" x="41.2277" y="196.307" fill="black" font-size="12.8453" font-family="Helvetica">10</text>
<text xml:space="preserve" x="40.4131" y="165.354" fill="black" font-size="12.8453" font-family="Helvetica">12</text>
<text xml:space="preserve" x="40.4131" y="134.401" fill="black" font-size="12.8453" font-family="Helvetica">14</text>
<text xml:space="preserve" x="40.4131" y="103.448" fill="black" font-size="12.8453" font-family="Helvetica">16</text>
<text xml:space="preserve" x="40.4131" y="73.3098" fill="black" font-size="12.8453" font-family="Helvetica">18</text>
<g transform="rotate(-90,27.3803,86.3427)">
<text xml:space="preserve" x="27.3803" y="86.3427" fill="black" font-size="12.8453" font-family="Helvetica">n_blocks</text>
</g>
<text xml:space="preserve" x="242.422" y="17.9202" fill="black" font-size="18.7938" font-family="Helvetica">vop 69.26</text>
<rect x="351.996" y="24.9905" width="204.094" height="76.8938" fill="white"/>
<path d="M351.996,101.884h 204.094" fill="none" stroke="black"/>
<path d="M556.091,101.884v -76.8938" fill="none" stroke="black"/>
<path d="M556.091,24.9905h -204.094" fill="none" stroke="black"/>
<path d="M351.996,24.9905v 76.8938" fill="none" stroke="black"/>
<text xml:space="preserve" x="377.638" y="39.0986" fill="black" font-size="16.7253" font-family="Helvetica"> / ndf </text>
<text xml:space="preserve" x="371.122" y="34.2112" fill="black" font-size="11.3169" font-family="Helvetica">2</text>
<text xml:space="preserve" x="362.162" y="39.0986" fill="black" font-size="16.7253" font-family="Times">&#0967;</text>
<text xml:space="preserve" x="471.312" y="40.7277" fill="black" font-size="16.7253" font-family="Helvetica"> 9.865 / 11</text>
<text xml:space="preserve" x="362.162" y="60.2769" fill="black" font-size="16.7253" font-family="Helvetica">Constant </text>
<text xml:space="preserve" x="509.596" y="60.2769" fill="black" font-size="16.7253" font-family="Helvetica"> 2.09</text>
<text xml:space="preserve" x="500.636" y="60.2769" fill="black" font-size="16.7253" font-family="Times">&#0177;</text>
<text xml:space="preserve" x="450.133" y="60.2769" fill="black" font-size="16.7253" font-family="Helvetica"> 17.24 </text>
<text xml:space="preserve" x="362.162" y="79.0117" fill="black" font-size="16.7253" font-family="Helvetica">Mean     </text>
<text xml:space="preserve" x="521" y="79.0117" fill="black" font-size="16.7253" font-family="Helvetica"> 5.1</text>
<text xml:space="preserve" x="512.039" y="79.0117" fill="black" font-size="16.7253" font-family="Times">&#0177;</text>
<text xml:space="preserve" x="461.537" y="79.0117" fill="black" font-size="16.7253" font-family="Helvetica"> 269.7 </text>
<text xml:space="preserve" x="362.162" y="96.9318" fill="black" font-size="16.7253" font-family="Helvetica">Sigma    </text>
<text xml:space="preserve" x="509.596" y="98.561" fill="black" font-size="16.7253" font-family="Helvetica"> 3.83</text>
<text xml:space="preserve" x="500.636" y="98.561" fill="black" font-size="16.7253" font-family="Times">&#0177;</text>
<text xml:space="preserve" x="450.133" y="98.561" fill="black" font-size="16.7253" font-family="Helvetica"> 48.92 </text>
<path d="M64.752,346.022v -15.4173" fill="none" stroke="#817066"/>
<path d="M64.752,330.605v -15.4173" fill="none" stroke="#817066"/>
<path d="M57.1929,330.605h 7.55905" fill="none" stroke="#817066"/>
<path d="M64.752,330.605h 7.55905" fill="none" stroke="#817066"/>
<g stroke="black" stroke-width="1" fill="none">
<line x1="63.752" y1="330.605" x2="64.752" y2="330.605"/>
</g>
<g stroke="black" stroke-width="1" fill="none">
<line x1="78.8701" y1="346.022" x2="79.8701" y2="346.022"/>
</g>
<g stroke="black" stroke-width="1" fill="none">
<line x1="93.9882" y1="346.022" x2="94.9882" y2="346.022"/>
</g>
<g stroke="black" stroke-width="1" fill="none">
<line x1="109.106" y1="346.022" x2="110.106" y2="346.022"/>
</g>
<g stroke="black" stroke-width="1" fill="none">
<line x1="124.224" y1="346.022" x2="125.224" y2="346.022"/>
</g>
<path d="M140.343,346.022v -15.4173" fill="none" stroke="#817066"/>
<path d="M140.343,330.605v -15.4173" fill="none" stroke="#817066"/>
<path d="M132.783,330.605h 7.55905" fill="none" stroke="#817066"/>
<path d="M140.343,330.605h 7.55905" fill="none" stroke="#817066"/>
<g stroke="black" stroke-width="1" fill="none">
<line x1="139.343" y1="330.605" x2="140.343" y2="330.605"/>
</g>
<g stroke="black" stroke-width="1" fill="none">
<line x1="154.461" y1="346.022" x2="155.461" y2="346.022"/>
</g>
<g stroke="black" stroke-width="1" fill="none">
<line x1="169.579" y1="346.022" x2="170.579" y2="346.022"/>
</g>
<path d="M185.697,346.022v -15.4173" fill="none" stroke="#817066"/>
<path d="M185.697,330.605v -15.4173" fill="none" stroke="#817066"/>
<path d="M178.138,330.605h 7.55905" fill="none" stroke="#817066"/>
<path d="M185.697,330.605h 7.55905" fill="none" stroke="#817066"/>
<g stroke="black" stroke-width="1" fill="none">
<line x1="184.697" y1="330.605" x2="185.697" y2="330.605"/>
</g>
<path d="M200.815,303.41v -34.4742" fill="none" stroke="#817066"/>
<path d="M200.815,268.936v -34.4742" fill="none" stroke="#817066"/>
<path d="M193.256,268.936h 7.55905" fill="none" stroke="#817066"/>
<path d="M200.815,268.936h 7.55905" fill="none" stroke="#817066"/>
<g stroke="black" stroke-width="1" fill="none">
<line x1="199.815" y1="268.936" x2="200.815" y2="268.936"/>
</g>
<path d="M215.933,227.565v -51.1334" fill="none" stroke="#817066"/>
<path d="M215.933,176.432v -51.1334" fill="none" stroke="#817066"/>
<path d="M208.374,176.432h 7.55905" fill="none" stroke="#817066"/>
<path d="M215.933,176.432h 7.55905" fill="none" stroke="#817066"/>
<g stroke="black" stroke-width="1" fill="none">
<line x1="214.933" y1="176.432" x2="215.933" y2="176.432"/>
</g>
<path d="M231.051,120.296v -67.2025" fill="none" stroke="#817066"/>
<path d="M231.051,53.0934v -14.6464" fill="none" stroke="#817066"/>
<path d="M223.492,53.0934h 7.55905" fill="none" stroke="#817066"/>
<path d="M231.051,53.0934h 7.55905" fill="none" stroke="#817066"/>
<g stroke="black" stroke-width="1" fill="none">
<line x1="230.051" y1="53.0934" x2="231.051" y2="53.0934"/>
</g>
<path d="M246.169,174.474v -59.711" fill="none" stroke="#817066"/>
<path d="M246.169,114.763v -59.711" fill="none" stroke="#817066"/>
<path d="M238.61,114.763h 7.55905" fill="none" stroke="#817066"/>
<path d="M246.169,114.763h 7.55905" fill="none" stroke="#817066"/>
<g stroke="black" stroke-width="1" fill="none">
<line x1="245.169" y1="114.763" x2="246.169" y2="114.763"/>
</g>
<path d="M261.287,187.866v -57.6863" fill="none" stroke="#817066"/>
<path d="M261.287,130.18v -57.6863" fill="none" stroke="#817066"/>
<path d="M253.728,130.18h 7.55905" fill="none" stroke="#817066"/>
<path d="M261.287,130.18h 7.55905" fill="none" stroke="#817066"/>
<g stroke="black" stroke-width="1" fill="none">
<line x1="260.287" y1="130.18" x2="261.287" y2="130.18"/>
</g>
<path d="M276.406,174.474v -59.711" fill="none" stroke="#817066"/>
<path d="M276.406,114.763v -59.711" fill="none" stroke="#817066"/>
<path d="M268.846,114.763h 7.55905" fill="none" stroke="#817066"/>
<path d="M276.406,114.763h 7.55905" fill="none" stroke="#817066"/>
<g stroke="black" stroke-width="1" fill="none">
<line x1="275.406" y1="114.763" x2="276.406" y2="114.763"/>
</g>
<path d="M291.524,174.474v -59.711" fill="none" stroke="#817066"/>
<path d="M291.524,114.763v -59.711" fill="none" stroke="#817066"/>
<path d="M283.965,114.763h 7.55905" fill="none" stroke="#817066"/>
<path d="M291.524,114.763h 7.55905" fill="none" stroke="#817066"/>
<g stroke="black" stroke-width="1" fill="none">
<line x1="290.524" y1="114.763" x2="291.524" y2="114.763"/>
</g>
<path d="M306.642,291.283v -37.7645" fill="none" stroke="#817066"/>
<path d="M306.642,253.518v -37.7645" fill="none" stroke="#817066"/>
<path d="M299.083,253.518h 7.55905" fill="none" stroke="#817066"/>
<path d="M306.642,253.518h 7.55905" fill="none" stroke="#817066"/>
<g stroke="black" stroke-width="1" fill="none">
<line x1="305.642" y1="253.518" x2="306.642" y2="253.518"/>
</g>
<path d="M321.76,266.291v -43.6067" fill="none" stroke="#817066"/>
<path d="M321.76,222.684v -43.6067" fill="none" stroke="#817066"/>
<path d="M314.201,222.684h 7.55905" fill="none" stroke="#817066"/>
<path d="M321.76,222.684h 7.55905" fill="none" stroke="#817066"/>
<g stroke="black" stroke-width="1" fill="none">
<line x1="320.76" y1="222.684" x2="321.76" y2="222.684"/>
</g>
<path d="M336.878,336.991v -21.8034" fill="none" stroke="#817066"/>
<path d="M336.878,315.188v -21.8034" fill="none" stroke="#817066"/>
<path d="M329.319,315.188h 7.55905" fill="none" stroke="#817066"/>
<path d="M336.878,315.188h 7.55905" fill="none" stroke="#817066"/>
<g stroke="black" stroke-width="1" fill="none">
<line x1="335.878" y1="315.188" x2="336.878" y2="315.188"/>
</g>
<path d="M351.996,346.022v -15.4173" fill="none" stroke="#817066"/>
<path d="M351.996,330.605v -15.4173" fill="none" stroke="#817066"/>
<path d="M344.437,330.605h 7.55905" fill="none" stroke="#817066"/>
<path d="M351.996,330.605h 7.55905" fill="none" stroke="#817066"/>
<g stroke="black" stroke-width="1" fill="none">
<line x1="350.996" y1="330.605" x2="351.996" y2="330.605"/>
</g>
<g stroke="black" stroke-width="1" fill="none">
<line x1="366.114" y1="346.022" x2="367.114" y2="346.022"/>
</g>
<g stroke="black" stroke-width="1" fill="none">
<line x1="381.232" y1="346.022" x2="382.232" y2="346.022"/>
</g>
<g stroke="black" stroke-width="1" fill="none">
<line x1="396.35" y1="346.022" x2="397.35" y2="346.022"/>
</g>
<g stroke="black" stroke-width="1" fill="none">
<line x1="411.469" y1="346.022" x2="412.469" y2="346.022"/>
</g>
<g stroke="black" stroke-width="1" fill="none">
<line x1="426.587" y1="346.022" x2="427.587" y2="346.022"/>
</g>
<g stroke="black" stroke-width="1" fill="none">
<line x1="441.705" y1="346.022" x2="442.705" y2="346.022"/>
</g>
<g stroke="black" stroke-width="1" fill="none">
<line x1="456.823" y1="346.022" x2="457.823" y2="346.022"/>
</g>
<g stroke="black" stroke-width="1" fill="none">
<line x1="471.941" y1="346.022" x2="472.941" y2="346.022"/>
</g>
<g stroke="black" stroke-width="1" fill="none">
<line x1="487.059" y1="346.022" x2="488.059" y2="346.022"/>
</g>
<g stroke="black" stroke-width="1" fill="none">
<line x1="502.177" y1="346.022" x2="503.177" y2="346.022"/>
</g>
<path d="M59.4606,346.022h 40.8189l 4.53543, -0.0354775l 4.53543, -0.0236333l 4.53543, -0.0379063l 4.53543, -0.0598378l 4.53543, -0.0929588l 4.53543, -0.142111l 4.53543, -0.213775l 4.53543, -0.316405l 4.53543, -0.460733l 4.53543, -0.659983l 4.53543,
 -0.929923l 4.53543, -1.28866l 4.53543, -1.7561l 4.53543, -2.35294l 4.53543, -3.09917l 4.53543, -4.01204l 4.53543, -5.10349l 4.53543, -6.37727l 4.53543, -7.82577l 4.53543, -9.42716l 4.53543, -11.1429l 4.53543, -12.9165l 4.53543, -14.6733l 4.53543,
 -16.3225l 4.53543, -17.7609l 4.53543, -18.8791l 4.53543, -19.5685l 4.53543, -19.7309l 4.53543, -19.2875l 4.53543, -18.1878l 4.53543, -16.4168l 4.53543, -14.0001l 4.53543, -11.005l 4.53543, -7.53825l 4.53543, -3.74031l 4.53543, 0.224385l 4.53543,
 4.17903l 4.53543, 7.94757l 4.53543, 11.3677l 4.53543, 14.3024" fill="none" stroke="#817066" stroke-width="2"/>
<path d="M281.697,118.658l 4.53543, 16.6491l 4.53543, 18.345l 4.53543, 19.3695l 4.53543, 19.7416l 4.53543, 19.5156l 4.53543, 18.7728l 4.53543, 17.6131l 4.53543, 16.1455l 4.53543, 14.4792l 4.53543, 12.7163l 4.53543, 10.9458l 4.53543, 9.24046l 4.53543,
 7.65467l 4.53543, 6.22501l 4.53543, 4.9716l 4.53543, 3.9006l 4.53543, 3.0072l 4.53543, 2.2787l 4.53543, 1.69745l 4.53543, 1.24327l 4.53543, 0.895481l 4.53543, 0.634356l 4.53543, 0.442024l 4.53543, 0.302999l 4.53543, 0.204344l 4.53543, 0.135595l
 4.53543, 0.0885358l 4.53543, 0.0568881l 4.53543, 0.035973l 4.53543, 0.0223878l 4.53543, 0.0334662h 81.6378" fill="none" stroke="#817066" stroke-width="2"/>
<path d="M503.933,346.022h 4.53543" fill="none" stroke="#817066" stroke-width="2"/>
<rect x="351.996" y="24.9905" width="204.094" height="76.8938" fill="white"/>
<path d="M351.996,101.884h 204.094" fill="none" stroke="black"/>
<path d="M556.091,101.884v -76.8938" fill="none" stroke="black"/>
<path d="M556.091,24.9905h -204.094" fill="none" stroke="black"/>
<path d="M351.996,24.9905v 76.8938" fill="none" stroke="black"/>
<text xml:space="preserve" x="377.638" y="39.0986" fill="black" font-size="16.7253" font-family="Helvetica"> / ndf </text>
<text xml:space="preserve" x="371.122" y="34.2112" fill="black" font-size="11.3169" font-family="Helvetica">2</text>
<text xml:space="preserve" x="362.162" y="39.0986" fill="black" font-size="16.7253" font-family="Times">&#0967;</text>
<text xml:space="preserve" x="471.312" y="40.7277" fill="black" font-size="16.7253" font-family="Helvetica"> 9.865 / 11</text>
<text xml:space="preserve" x="362.162" y="60.2769" fill="black" font-size="16.7253" font-family="Helvetica">Constant </text>
<text xml:space="preserve" x="509.596" y="60.2769" fill="black" font-size="16.7253" font-family="Helvetica"> 2.09</text>
<text xml:space="preserve" x="500.636" y="60.2769" fill="black" font-size="16.7253" font-family="Times">&#0177;</text>
<text xml:space="preserve" x="450.133" y="60.2769" fill="black" font-size="16.7253" font-family="Helvetica"> 17.24 </text>
<text xml:space="preserve" x="362.162" y="79.0117" fill="black" font-size="16.7253" font-family="Helvetica">Mean     </text>
<text xml:space="preserve" x="521" y="79.0117" fill="black" font-size="16.7253" font-family="Helvetica"> 5.1</text>
<text xml:space="preserve" x="512.039" y="79.0117" fill="black" font-size="16.7253" font-family="Times">&#0177;</text>
<text xml:space="preserve" x="461.537" y="79.0117" fill="black" font-size="16.7253" font-family="Helvetica"> 269.7 </text>
<text xml:space="preserve" x="362.162" y="96.9318" fill="black" font-size="16.7253" font-family="Helvetica">Sigma    </text>
<text xml:space="preserve" x="509.596" y="98.561" fill="black" font-size="16.7253" font-family="Helvetica"> 3.83</text>
<text xml:space="preserve" x="500.636" y="98.561" fill="black" font-size="16.7253" font-family="Times">&#0177;</text>
<text xml:space="preserve" x="450.133" y="98.561" fill="black" font-size="16.7253" font-family="Helvetica"> 48.92 </text>
<text xml:space="preserve" x="242.422" y="17.9202" fill="black" font-size="18.7938" font-family="Helvetica">vop 69.26</text></svg>
