<?xml version="1.0" standalone="no"?>
<svg width="567.429" height="387.116" viewBox="0 0 567.429 387.116" xmlns="http://www.w3.org/2000/svg" shape-rendering="crispEdges">
<title>
./old_vop/vop_graphs/vop69.33.svg
</title>
<desc>
Creator: ROOT Version 6.24/00
CreationDate: Tue Jun 15 20:02:35 2021</desc>
<defs>
</defs>
<rect x="0.5" y="0" width="566.929" height="386.616" fill="white"/>
<rect x="57.1929" y="38.6616" width="453.543" height="309.293" fill="white"/>
<rect x="57.1929" y="38.6616" width="453.543" height="309.293" fill="none" stroke="black"/>
<path d="M57.1929,347.955h 90.7087v -8.92621h 30.2362v -8.92621h 15.1181v -44.631h 15.1181v -35.7048h 15.1181v -80.3359h 15.1181v -116.041h 15.1181v 80.3359h 15.1181v 26.7786h 15.1181v 62.4835h 15.1181v 71.4097h 15.1181v -26.7786h 15.1181v 71.4097h
 15.1181v 8.92621h 166.299" fill="none" stroke="#817066"/>
<path d="M59.4606,347.955h 58.9606l 4.53543, -0.0528l 4.53543, -0.0402283l 4.53543, -0.0676768l 4.53543, -0.111488l 4.53543, -0.179828l 4.53543, -0.283973l 4.53543, -0.438967l 4.53543, -0.664142l 4.53543, -0.98332l 4.53543, -1.42447l 4.53543,
 -2.01859l 4.53543, -2.7975l 4.53543, -3.79052l 4.53543, -5.01982l 4.53543, -6.49483l 4.53543, -8.20603l 4.53543, -10.1189l 4.53543, -12.1694l 4.53543, -14.2612l 4.53543, -16.2673l 4.53543, -18.0353l 4.53543, -19.3977l 4.53543, -20.1869l 4.53543,
 -20.2524l 4.53543, -19.48l 4.53543, -17.8091l 4.53543, -15.2458l 4.53543, -11.8695l 4.53543, -7.83102l 4.53543, -3.34247l 4.53543, 1.34127l 4.53543, 5.94647l 4.53543, 10.207l 4.53543, 13.8898l 4.53543, 16.8159l 4.53543, 18.8745" fill="none"
 stroke="#817066" stroke-width="2"/>
<path d="M281.697,176.188l 4.53543, 20.0286l 4.53543, 20.3113l 4.53543, 19.8158l 4.53543, 18.6794l 4.53543, 17.0645l 4.53543, 15.1407l 4.53543, 13.0685l 4.53543, 10.9866l 4.53543, 9.00496l 4.53543, 7.20137l 4.53543, 5.62254l 4.53543, 4.28802l
 4.53543, 3.19576l 4.53543, 2.32829l 4.53543, 1.65874l 4.53543, 1.15587l 4.53543, 0.788007l 4.53543, 0.525681l 4.53543, 0.34321l 4.53543, 0.219335l 4.53543, 0.137222l 4.53543, 0.0840542l 4.53543, 0.0504148l 4.53543, 0.0296115l 4.53543, 0.0378733h
 108.85" fill="none" stroke="#817066" stroke-width="2"/>
<path d="M503.933,347.955h 4.53543" fill="none" stroke="#817066" stroke-width="2"/>
<path d="M57.1929,347.955h 453.543" fill="none" stroke="black"/>
<path d="M57.1929,338.676v 9.27879" fill="none" stroke="black"/>
<path d="M72.311,343.315v 4.6394" fill="none" stroke="black"/>
<path d="M87.4291,343.315v 4.6394" fill="none" stroke="black"/>
<path d="M102.547,343.315v 4.6394" fill="none" stroke="black"/>
<path d="M117.665,343.315v 4.6394" fill="none" stroke="black"/>
<path d="M132.783,338.676v 9.27879" fill="none" stroke="black"/>
<path d="M147.902,343.315v 4.6394" fill="none" stroke="black"/>
<path d="M163.02,343.315v 4.6394" fill="none" stroke="black"/>
<path d="M178.138,343.315v 4.6394" fill="none" stroke="black"/>
<path d="M193.256,343.315v 4.6394" fill="none" stroke="black"/>
<path d="M208.374,338.676v 9.27879" fill="none" stroke="black"/>
<path d="M223.492,343.315v 4.6394" fill="none" stroke="black"/>
<path d="M238.61,343.315v 4.6394" fill="none" stroke="black"/>
<path d="M253.728,343.315v 4.6394" fill="none" stroke="black"/>
<path d="M268.846,343.315v 4.6394" fill="none" stroke="black"/>
<path d="M283.965,338.676v 9.27879" fill="none" stroke="black"/>
<path d="M299.083,343.315v 4.6394" fill="none" stroke="black"/>
<path d="M314.201,343.315v 4.6394" fill="none" stroke="black"/>
<path d="M329.319,343.315v 4.6394" fill="none" stroke="black"/>
<path d="M344.437,343.315v 4.6394" fill="none" stroke="black"/>
<path d="M359.555,338.676v 9.27879" fill="none" stroke="black"/>
<path d="M374.673,343.315v 4.6394" fill="none" stroke="black"/>
<path d="M389.791,343.315v 4.6394" fill="none" stroke="black"/>
<path d="M404.909,343.315v 4.6394" fill="none" stroke="black"/>
<path d="M420.028,343.315v 4.6394" fill="none" stroke="black"/>
<path d="M435.146,338.676v 9.27879" fill="none" stroke="black"/>
<path d="M450.264,343.315v 4.6394" fill="none" stroke="black"/>
<path d="M465.382,343.315v 4.6394" fill="none" stroke="black"/>
<path d="M480.5,343.315v 4.6394" fill="none" stroke="black"/>
<path d="M495.618,343.315v 4.6394" fill="none" stroke="black"/>
<path d="M510.736,338.676v 9.27879" fill="none" stroke="black"/>
<text xml:space="preserve" x="52.482" y="360.625" fill="black" font-size="12.9143" font-family="Helvetica">0</text>
<text xml:space="preserve" x="121.521" y="360.625" fill="black" font-size="12.9143" font-family="Helvetica">100</text>
<text xml:space="preserve" x="197.057" y="360.625" fill="black" font-size="12.9143" font-family="Helvetica">200</text>
<text xml:space="preserve" x="273.406" y="360.625" fill="black" font-size="12.9143" font-family="Helvetica">300</text>
<text xml:space="preserve" x="348.942" y="360.625" fill="black" font-size="12.9143" font-family="Helvetica">400</text>
<text xml:space="preserve" x="424.479" y="360.625" fill="black" font-size="12.9143" font-family="Helvetica">500</text>
<text xml:space="preserve" x="500.015" y="360.625" fill="black" font-size="12.9143" font-family="Helvetica">600</text>
<text xml:space="preserve" x="485.395" y="371.996" fill="black" font-size="12.9143" font-family="Helvetica">mpv</text>
<path d="M57.1929,347.955v -309.293" fill="none" stroke="black"/>
<path d="M70.7992,347.955h -13.6063" fill="none" stroke="black"/>
<path d="M63.9961,339.029h -6.80315" fill="none" stroke="black"/>
<path d="M63.9961,330.102h -6.80315" fill="none" stroke="black"/>
<path d="M63.9961,321.176h -6.80315" fill="none" stroke="black"/>
<path d="M63.9961,312.25h -6.80315" fill="none" stroke="black"/>
<path d="M70.7992,303.324h -13.6063" fill="none" stroke="black"/>
<path d="M63.9961,294.398h -6.80315" fill="none" stroke="black"/>
<path d="M63.9961,285.471h -6.80315" fill="none" stroke="black"/>
<path d="M63.9961,276.545h -6.80315" fill="none" stroke="black"/>
<path d="M63.9961,267.619h -6.80315" fill="none" stroke="black"/>
<path d="M70.7992,258.693h -13.6063" fill="none" stroke="black"/>
<path d="M63.9961,249.766h -6.80315" fill="none" stroke="black"/>
<path d="M63.9961,240.84h -6.80315" fill="none" stroke="black"/>
<path d="M63.9961,231.914h -6.80315" fill="none" stroke="black"/>
<path d="M63.9961,222.988h -6.80315" fill="none" stroke="black"/>
<path d="M70.7992,214.062h -13.6063" fill="none" stroke="black"/>
<path d="M63.9961,205.135h -6.80315" fill="none" stroke="black"/>
<path d="M63.9961,196.209h -6.80315" fill="none" stroke="black"/>
<path d="M63.9961,187.283h -6.80315" fill="none" stroke="black"/>
<path d="M63.9961,178.357h -6.80315" fill="none" stroke="black"/>
<path d="M70.7992,169.431h -13.6063" fill="none" stroke="black"/>
<path d="M63.9961,160.504h -6.80315" fill="none" stroke="black"/>
<path d="M63.9961,151.578h -6.80315" fill="none" stroke="black"/>
<path d="M63.9961,142.652h -6.80315" fill="none" stroke="black"/>
<path d="M63.9961,133.726h -6.80315" fill="none" stroke="black"/>
<path d="M70.7992,124.8h -13.6063" fill="none" stroke="black"/>
<path d="M63.9961,115.873h -6.80315" fill="none" stroke="black"/>
<path d="M63.9961,106.947h -6.80315" fill="none" stroke="black"/>
<path d="M63.9961,98.0209h -6.80315" fill="none" stroke="black"/>
<path d="M63.9961,89.0947h -6.80315" fill="none" stroke="black"/>
<path d="M70.7992,80.1685h -13.6063" fill="none" stroke="black"/>
<path d="M70.7992,80.1685h -13.6063" fill="none" stroke="black"/>
<path d="M63.9961,71.2423h -6.80315" fill="none" stroke="black"/>
<path d="M63.9961,62.3161h -6.80315" fill="none" stroke="black"/>
<path d="M63.9961,53.3899h -6.80315" fill="none" stroke="black"/>
<path d="M63.9961,44.4637h -6.80315" fill="none" stroke="black"/>
<text xml:space="preserve" x="46.7965" y="352.503" fill="black" font-size="12.9143" font-family="Helvetica">0</text>
<text xml:space="preserve" x="39.4865" y="307.831" fill="black" font-size="12.9143" font-family="Helvetica">10</text>
<text xml:space="preserve" x="39.4865" y="263.159" fill="black" font-size="12.9143" font-family="Helvetica">20</text>
<text xml:space="preserve" x="39.4865" y="218.487" fill="black" font-size="12.9143" font-family="Helvetica">30</text>
<text xml:space="preserve" x="39.4865" y="173.815" fill="black" font-size="12.9143" font-family="Helvetica">40</text>
<text xml:space="preserve" x="39.4865" y="129.143" fill="black" font-size="12.9143" font-family="Helvetica">50</text>
<text xml:space="preserve" x="39.4865" y="84.4708" fill="black" font-size="12.9143" font-family="Helvetica">60</text>
<g transform="rotate(-90,26.491,89.3441)">
<text xml:space="preserve" x="26.491" y="89.3441" fill="black" font-size="12.9143" font-family="Helvetica">n_blocks</text>
</g>
<text xml:space="preserve" x="243.354" y="17.8688" fill="black" font-size="18.7414" font-family="Helvetica">vop 69.33</text>
<rect x="351.996" y="25.1301" width="204.094" height="77.3233" fill="white"/>
<path d="M351.996,102.453h 204.094" fill="none" stroke="black"/>
<path d="M556.091,102.453v -77.3233" fill="none" stroke="black"/>
<path d="M556.091,25.1301h -204.094" fill="none" stroke="black"/>
<path d="M351.996,25.1301v 77.3233" fill="none" stroke="black"/>
<text xml:space="preserve" x="377.37" y="38.9865" fill="black" font-size="16.8159" font-family="Helvetica"> / ndf </text>
<text xml:space="preserve" x="370.872" y="34.1132" fill="black" font-size="11.3773" font-family="Helvetica">2</text>
<text xml:space="preserve" x="361.938" y="38.9865" fill="black" font-size="16.8159" font-family="Times">&#0967;</text>
<text xml:space="preserve" x="469.151" y="40.611" fill="black" font-size="16.8159" font-family="Helvetica"> 14.22 / 10</text>
<text xml:space="preserve" x="361.938" y="60.1042" fill="black" font-size="16.8159" font-family="Helvetica">Constant </text>
<text xml:space="preserve" x="512.198" y="60.1042" fill="black" font-size="16.8159" font-family="Helvetica"> 4.11</text>
<text xml:space="preserve" x="503.264" y="60.1042" fill="black" font-size="16.8159" font-family="Times">&#0177;</text>
<text xml:space="preserve" x="452.906" y="60.1042" fill="black" font-size="16.8159" font-family="Helvetica"> 53.54 </text>
<text xml:space="preserve" x="361.938" y="79.5975" fill="black" font-size="16.8159" font-family="Helvetica">Mean     </text>
<text xml:space="preserve" x="518.696" y="79.5975" fill="black" font-size="16.8159" font-family="Helvetica"> 2.6</text>
<text xml:space="preserve" x="509.762" y="79.5975" fill="black" font-size="16.8159" font-family="Times">&#0177;</text>
<text xml:space="preserve" x="459.404" y="79.5975" fill="black" font-size="16.8159" font-family="Helvetica"> 262.3 </text>
<text xml:space="preserve" x="361.938" y="97.4663" fill="black" font-size="16.8159" font-family="Helvetica">Sigma    </text>
<text xml:space="preserve" x="509.762" y="99.0908" fill="black" font-size="16.8159" font-family="Helvetica"> 2.16</text>
<text xml:space="preserve" x="500.827" y="99.0908" fill="black" font-size="16.8159" font-family="Times">&#0177;</text>
<text xml:space="preserve" x="450.47" y="99.0908" fill="black" font-size="16.8159" font-family="Helvetica"> 42.72 </text>
<g stroke="black" stroke-width="1" fill="none">
<line x1="63.752" y1="347.955" x2="64.752" y2="347.955"/>
</g>
<g stroke="black" stroke-width="1" fill="none">
<line x1="78.8701" y1="347.955" x2="79.8701" y2="347.955"/>
</g>
<g stroke="black" stroke-width="1" fill="none">
<line x1="93.9882" y1="347.955" x2="94.9882" y2="347.955"/>
</g>
<g stroke="black" stroke-width="1" fill="none">
<line x1="109.106" y1="347.955" x2="110.106" y2="347.955"/>
</g>
<g stroke="black" stroke-width="1" fill="none">
<line x1="124.224" y1="347.955" x2="125.224" y2="347.955"/>
</g>
<g stroke="black" stroke-width="1" fill="none">
<line x1="139.343" y1="347.955" x2="140.343" y2="347.955"/>
</g>
<path d="M155.461,345.34v -6.31178" fill="none" stroke="#817066"/>
<path d="M155.461,339.029v -6.31178" fill="none" stroke="#817066"/>
<path d="M147.902,339.029h 7.55905" fill="none" stroke="#817066"/>
<path d="M155.461,339.029h 7.55905" fill="none" stroke="#817066"/>
<g stroke="black" stroke-width="1" fill="none">
<line x1="154.461" y1="339.029" x2="155.461" y2="339.029"/>
</g>
<path d="M170.579,345.34v -6.31178" fill="none" stroke="#817066"/>
<path d="M170.579,339.029v -6.31178" fill="none" stroke="#817066"/>
<path d="M163.02,339.029h 7.55905" fill="none" stroke="#817066"/>
<path d="M170.579,339.029h 7.55905" fill="none" stroke="#817066"/>
<g stroke="black" stroke-width="1" fill="none">
<line x1="169.579" y1="339.029" x2="170.579" y2="339.029"/>
</g>
<path d="M185.697,339.029v -8.92621" fill="none" stroke="#817066"/>
<path d="M185.697,330.102v -8.92621" fill="none" stroke="#817066"/>
<path d="M178.138,330.102h 7.55905" fill="none" stroke="#817066"/>
<path d="M185.697,330.102h 7.55905" fill="none" stroke="#817066"/>
<g stroke="black" stroke-width="1" fill="none">
<line x1="184.697" y1="330.102" x2="185.697" y2="330.102"/>
</g>
<path d="M200.815,302.171v -16.6994" fill="none" stroke="#817066"/>
<path d="M200.815,285.471v -16.6994" fill="none" stroke="#817066"/>
<path d="M193.256,285.471h 7.55905" fill="none" stroke="#817066"/>
<path d="M200.815,285.471h 7.55905" fill="none" stroke="#817066"/>
<g stroke="black" stroke-width="1" fill="none">
<line x1="199.815" y1="285.471" x2="200.815" y2="285.471"/>
</g>
<path d="M215.933,270.7v -20.9338" fill="none" stroke="#817066"/>
<path d="M215.933,249.766v -20.9338" fill="none" stroke="#817066"/>
<path d="M208.374,249.766h 7.55905" fill="none" stroke="#817066"/>
<path d="M215.933,249.766h 7.55905" fill="none" stroke="#817066"/>
<g stroke="black" stroke-width="1" fill="none">
<line x1="214.933" y1="249.766" x2="215.933" y2="249.766"/>
</g>
<path d="M231.051,197.658v -28.2272" fill="none" stroke="#817066"/>
<path d="M231.051,169.431v -28.2272" fill="none" stroke="#817066"/>
<path d="M223.492,169.431h 7.55905" fill="none" stroke="#817066"/>
<path d="M231.051,169.431h 7.55905" fill="none" stroke="#817066"/>
<g stroke="black" stroke-width="1" fill="none">
<line x1="230.051" y1="169.431" x2="231.051" y2="169.431"/>
</g>
<path d="M246.169,89.6483v -36.2584" fill="none" stroke="#817066"/>
<path d="M246.169,53.3899v -14.7282" fill="none" stroke="#817066"/>
<path d="M238.61,53.3899h 7.55905" fill="none" stroke="#817066"/>
<path d="M246.169,53.3899h 7.55905" fill="none" stroke="#817066"/>
<g stroke="black" stroke-width="1" fill="none">
<line x1="245.169" y1="53.3899" x2="246.169" y2="53.3899"/>
</g>
<path d="M261.287,164.647v -30.9213" fill="none" stroke="#817066"/>
<path d="M261.287,133.726v -30.9213" fill="none" stroke="#817066"/>
<path d="M253.728,133.726h 7.55905" fill="none" stroke="#817066"/>
<path d="M261.287,133.726h 7.55905" fill="none" stroke="#817066"/>
<g stroke="black" stroke-width="1" fill="none">
<line x1="260.287" y1="133.726" x2="261.287" y2="133.726"/>
</g>
<path d="M276.406,189.429v -28.9242" fill="none" stroke="#817066"/>
<path d="M276.406,160.504v -28.9242" fill="none" stroke="#817066"/>
<path d="M268.846,160.504h 7.55905" fill="none" stroke="#817066"/>
<path d="M276.406,160.504h 7.55905" fill="none" stroke="#817066"/>
<g stroke="black" stroke-width="1" fill="none">
<line x1="275.406" y1="160.504" x2="276.406" y2="160.504"/>
</g>
<path d="M291.524,246.604v -23.6165" fill="none" stroke="#817066"/>
<path d="M291.524,222.988v -23.6165" fill="none" stroke="#817066"/>
<path d="M283.965,222.988h 7.55905" fill="none" stroke="#817066"/>
<path d="M291.524,222.988h 7.55905" fill="none" stroke="#817066"/>
<g stroke="black" stroke-width="1" fill="none">
<line x1="290.524" y1="222.988" x2="291.524" y2="222.988"/>
</g>
<path d="M306.642,309.858v -15.4606" fill="none" stroke="#817066"/>
<path d="M306.642,294.398v -15.4606" fill="none" stroke="#817066"/>
<path d="M299.083,294.398h 7.55905" fill="none" stroke="#817066"/>
<path d="M306.642,294.398h 7.55905" fill="none" stroke="#817066"/>
<g stroke="black" stroke-width="1" fill="none">
<line x1="305.642" y1="294.398" x2="306.642" y2="294.398"/>
</g>
<path d="M321.76,286.554v -18.9353" fill="none" stroke="#817066"/>
<path d="M321.76,267.619v -18.9353" fill="none" stroke="#817066"/>
<path d="M314.201,267.619h 7.55905" fill="none" stroke="#817066"/>
<path d="M321.76,267.619h 7.55905" fill="none" stroke="#817066"/>
<g stroke="black" stroke-width="1" fill="none">
<line x1="320.76" y1="267.619" x2="321.76" y2="267.619"/>
</g>
<path d="M336.878,345.34v -6.31178" fill="none" stroke="#817066"/>
<path d="M336.878,339.029v -6.31178" fill="none" stroke="#817066"/>
<path d="M329.319,339.029h 7.55905" fill="none" stroke="#817066"/>
<path d="M336.878,339.029h 7.55905" fill="none" stroke="#817066"/>
<g stroke="black" stroke-width="1" fill="none">
<line x1="335.878" y1="339.029" x2="336.878" y2="339.029"/>
</g>
<g stroke="black" stroke-width="1" fill="none">
<line x1="350.996" y1="347.955" x2="351.996" y2="347.955"/>
</g>
<g stroke="black" stroke-width="1" fill="none">
<line x1="366.114" y1="347.955" x2="367.114" y2="347.955"/>
</g>
<g stroke="black" stroke-width="1" fill="none">
<line x1="381.232" y1="347.955" x2="382.232" y2="347.955"/>
</g>
<g stroke="black" stroke-width="1" fill="none">
<line x1="396.35" y1="347.955" x2="397.35" y2="347.955"/>
</g>
<g stroke="black" stroke-width="1" fill="none">
<line x1="411.469" y1="347.955" x2="412.469" y2="347.955"/>
</g>
<g stroke="black" stroke-width="1" fill="none">
<line x1="426.587" y1="347.955" x2="427.587" y2="347.955"/>
</g>
<g stroke="black" stroke-width="1" fill="none">
<line x1="441.705" y1="347.955" x2="442.705" y2="347.955"/>
</g>
<g stroke="black" stroke-width="1" fill="none">
<line x1="456.823" y1="347.955" x2="457.823" y2="347.955"/>
</g>
<g stroke="black" stroke-width="1" fill="none">
<line x1="471.941" y1="347.955" x2="472.941" y2="347.955"/>
</g>
<g stroke="black" stroke-width="1" fill="none">
<line x1="487.059" y1="347.955" x2="488.059" y2="347.955"/>
</g>
<g stroke="black" stroke-width="1" fill="none">
<line x1="502.177" y1="347.955" x2="503.177" y2="347.955"/>
</g>
<path d="M59.4606,347.955h 58.9606l 4.53543, -0.0528l 4.53543, -0.0402283l 4.53543, -0.0676768l 4.53543, -0.111488l 4.53543, -0.179828l 4.53543, -0.283973l 4.53543, -0.438967l 4.53543, -0.664142l 4.53543, -0.98332l 4.53543, -1.42447l 4.53543,
 -2.01859l 4.53543, -2.7975l 4.53543, -3.79052l 4.53543, -5.01982l 4.53543, -6.49483l 4.53543, -8.20603l 4.53543, -10.1189l 4.53543, -12.1694l 4.53543, -14.2612l 4.53543, -16.2673l 4.53543, -18.0353l 4.53543, -19.3977l 4.53543, -20.1869l 4.53543,
 -20.2524l 4.53543, -19.48l 4.53543, -17.8091l 4.53543, -15.2458l 4.53543, -11.8695l 4.53543, -7.83102l 4.53543, -3.34247l 4.53543, 1.34127l 4.53543, 5.94647l 4.53543, 10.207l 4.53543, 13.8898l 4.53543, 16.8159l 4.53543, 18.8745" fill="none"
 stroke="#817066" stroke-width="2"/>
<path d="M281.697,176.188l 4.53543, 20.0286l 4.53543, 20.3113l 4.53543, 19.8158l 4.53543, 18.6794l 4.53543, 17.0645l 4.53543, 15.1407l 4.53543, 13.0685l 4.53543, 10.9866l 4.53543, 9.00496l 4.53543, 7.20137l 4.53543, 5.62254l 4.53543, 4.28802l
 4.53543, 3.19576l 4.53543, 2.32829l 4.53543, 1.65874l 4.53543, 1.15587l 4.53543, 0.788007l 4.53543, 0.525681l 4.53543, 0.34321l 4.53543, 0.219335l 4.53543, 0.137222l 4.53543, 0.0840542l 4.53543, 0.0504148l 4.53543, 0.0296115l 4.53543, 0.0378733h
 108.85" fill="none" stroke="#817066" stroke-width="2"/>
<path d="M503.933,347.955h 4.53543" fill="none" stroke="#817066" stroke-width="2"/>
<rect x="351.996" y="25.1301" width="204.094" height="77.3233" fill="white"/>
<path d="M351.996,102.453h 204.094" fill="none" stroke="black"/>
<path d="M556.091,102.453v -77.3233" fill="none" stroke="black"/>
<path d="M556.091,25.1301h -204.094" fill="none" stroke="black"/>
<path d="M351.996,25.1301v 77.3233" fill="none" stroke="black"/>
<text xml:space="preserve" x="377.37" y="38.9865" fill="black" font-size="16.8159" font-family="Helvetica"> / ndf </text>
<text xml:space="preserve" x="370.872" y="34.1132" fill="black" font-size="11.3773" font-family="Helvetica">2</text>
<text xml:space="preserve" x="361.938" y="38.9865" fill="black" font-size="16.8159" font-family="Times">&#0967;</text>
<text xml:space="preserve" x="469.151" y="40.611" fill="black" font-size="16.8159" font-family="Helvetica"> 14.22 / 10</text>
<text xml:space="preserve" x="361.938" y="60.1042" fill="black" font-size="16.8159" font-family="Helvetica">Constant </text>
<text xml:space="preserve" x="512.198" y="60.1042" fill="black" font-size="16.8159" font-family="Helvetica"> 4.11</text>
<text xml:space="preserve" x="503.264" y="60.1042" fill="black" font-size="16.8159" font-family="Times">&#0177;</text>
<text xml:space="preserve" x="452.906" y="60.1042" fill="black" font-size="16.8159" font-family="Helvetica"> 53.54 </text>
<text xml:space="preserve" x="361.938" y="79.5975" fill="black" font-size="16.8159" font-family="Helvetica">Mean     </text>
<text xml:space="preserve" x="518.696" y="79.5975" fill="black" font-size="16.8159" font-family="Helvetica"> 2.6</text>
<text xml:space="preserve" x="509.762" y="79.5975" fill="black" font-size="16.8159" font-family="Times">&#0177;</text>
<text xml:space="preserve" x="459.404" y="79.5975" fill="black" font-size="16.8159" font-family="Helvetica"> 262.3 </text>
<text xml:space="preserve" x="361.938" y="97.4663" fill="black" font-size="16.8159" font-family="Helvetica">Sigma    </text>
<text xml:space="preserve" x="509.762" y="99.0908" fill="black" font-size="16.8159" font-family="Helvetica"> 2.16</text>
<text xml:space="preserve" x="500.827" y="99.0908" fill="black" font-size="16.8159" font-family="Times">&#0177;</text>
<text xml:space="preserve" x="450.47" y="99.0908" fill="black" font-size="16.8159" font-family="Helvetica"> 42.72 </text>
<text xml:space="preserve" x="243.354" y="17.8688" fill="black" font-size="18.7414" font-family="Helvetica">vop 69.33</text></svg>
