<?xml version="1.0" standalone="no"?>
<svg width="567.429" height="387.116" viewBox="0 0 567.429 387.116" xmlns="http://www.w3.org/2000/svg" shape-rendering="crispEdges">
<title>
./old_vop/vop_graphs/vop69.36.svg
</title>
<desc>
Creator: ROOT Version 6.24/00
CreationDate: Tue Jun 15 22:08:25 2021</desc>
<defs>
</defs>
<rect x="0.5" y="0" width="566.929" height="386.616" fill="white"/>
<rect x="57.1929" y="38.6616" width="453.543" height="309.293" fill="white"/>
<rect x="57.1929" y="38.6616" width="453.543" height="309.293" fill="none" stroke="black"/>
<path d="M57.1929,347.955h 90.7087v -12.2735h 15.1181v 6.13677h 15.1181v -12.2735h 15.1181v -36.8206h 15.1181v -49.0942h 15.1181v -49.0942h 15.1181v -141.146h 15.1181v 36.8206h 15.1181v 85.9148h 15.1181v 18.4103h 15.1181v 79.778h 15.1181v 24.5471h
 15.1181v 42.9574h 30.2362v 6.13677h 151.181" fill="none" stroke="#007d34"/>
<path d="M59.4606,347.955h 58.9606l 4.53543, -0.0339002l 4.53543, -0.0273568l 4.53543, -0.0472048l 4.53543, -0.0797148l 4.53543, -0.131729l 4.53543, -0.212995l 4.53543, -0.336937l 4.53543, -0.52139l 4.53543, -0.789121l 4.53543, -1.16793l 4.53543,
 -1.69003l 4.53543, -2.39044l 4.53543, -3.30408l 4.53543, -4.46146l 4.53543, -5.88298l 4.53543, -7.57217l 4.53543, -9.50856l 4.53543, -11.6413l 4.53543, -13.8844l 4.53543, -16.1159l 4.53543, -18.1812l 4.53543, -19.9017l 4.53543, -21.0889l 4.53543,
 -21.5634l 4.53543, -21.1759l 4.53543, -19.8286l 4.53543, -17.4922l 4.53543, -14.2183l 4.53543, -10.1407l 4.53543, -5.46872l 4.53543, -0.469092l 4.53543, 4.55887l 4.53543, 9.31302l 4.53543, 13.5184l 4.53543, 16.9537l 4.53543, 19.4701" fill="none"
 stroke="#007d34" stroke-width="2"/>
<path d="M281.697,162.441l 4.53543, 21.0007l 4.53543, 21.5604l 4.53543, 21.2355l 4.53543, 20.1674l 4.53543, 18.5315l 4.53543, 16.516l 4.53543, 14.3027l 4.53543, 12.0515l 4.53543, 9.89079l 4.53543, 7.91321l 4.53543, 6.17587l 4.53543, 4.70442l 4.53543,
 3.49925l 4.53543, 2.54255l 4.53543, 1.80523l 4.53543, 1.25279l 4.53543, 0.849988l 4.53543, 0.563928l 4.53543, 0.365923l 4.53543, 0.232261l 4.53543, 0.144227l 4.53543, 0.0876294l 4.53543, 0.0520998l 4.53543, 0.0303143l 4.53543, 0.037884h 108.85"
 fill="none" stroke="#007d34" stroke-width="2"/>
<path d="M503.933,347.955h 4.53543" fill="none" stroke="#007d34" stroke-width="2"/>
<path d="M57.1929,347.955h 453.543" fill="none" stroke="black"/>
<path d="M57.1929,338.676v 9.27879" fill="none" stroke="black"/>
<path d="M72.311,343.315v 4.6394" fill="none" stroke="black"/>
<path d="M87.4291,343.315v 4.6394" fill="none" stroke="black"/>
<path d="M102.547,343.315v 4.6394" fill="none" stroke="black"/>
<path d="M117.665,343.315v 4.6394" fill="none" stroke="black"/>
<path d="M132.783,338.676v 9.27879" fill="none" stroke="black"/>
<path d="M147.902,343.315v 4.6394" fill="none" stroke="black"/>
<path d="M163.02,343.315v 4.6394" fill="none" stroke="black"/>
<path d="M178.138,343.315v 4.6394" fill="none" stroke="black"/>
<path d="M193.256,343.315v 4.6394" fill="none" stroke="black"/>
<path d="M208.374,338.676v 9.27879" fill="none" stroke="black"/>
<path d="M223.492,343.315v 4.6394" fill="none" stroke="black"/>
<path d="M238.61,343.315v 4.6394" fill="none" stroke="black"/>
<path d="M253.728,343.315v 4.6394" fill="none" stroke="black"/>
<path d="M268.846,343.315v 4.6394" fill="none" stroke="black"/>
<path d="M283.965,338.676v 9.27879" fill="none" stroke="black"/>
<path d="M299.083,343.315v 4.6394" fill="none" stroke="black"/>
<path d="M314.201,343.315v 4.6394" fill="none" stroke="black"/>
<path d="M329.319,343.315v 4.6394" fill="none" stroke="black"/>
<path d="M344.437,343.315v 4.6394" fill="none" stroke="black"/>
<path d="M359.555,338.676v 9.27879" fill="none" stroke="black"/>
<path d="M374.673,343.315v 4.6394" fill="none" stroke="black"/>
<path d="M389.791,343.315v 4.6394" fill="none" stroke="black"/>
<path d="M404.909,343.315v 4.6394" fill="none" stroke="black"/>
<path d="M420.028,343.315v 4.6394" fill="none" stroke="black"/>
<path d="M435.146,338.676v 9.27879" fill="none" stroke="black"/>
<path d="M450.264,343.315v 4.6394" fill="none" stroke="black"/>
<path d="M465.382,343.315v 4.6394" fill="none" stroke="black"/>
<path d="M480.5,343.315v 4.6394" fill="none" stroke="black"/>
<path d="M495.618,343.315v 4.6394" fill="none" stroke="black"/>
<path d="M510.736,338.676v 9.27879" fill="none" stroke="black"/>
<text xml:space="preserve" x="52.482" y="360.625" fill="black" font-size="12.9143" font-family="Helvetica">0</text>
<text xml:space="preserve" x="121.521" y="360.625" fill="black" font-size="12.9143" font-family="Helvetica">100</text>
<text xml:space="preserve" x="197.057" y="360.625" fill="black" font-size="12.9143" font-family="Helvetica">200</text>
<text xml:space="preserve" x="273.406" y="360.625" fill="black" font-size="12.9143" font-family="Helvetica">300</text>
<text xml:space="preserve" x="348.942" y="360.625" fill="black" font-size="12.9143" font-family="Helvetica">400</text>
<text xml:space="preserve" x="424.479" y="360.625" fill="black" font-size="12.9143" font-family="Helvetica">500</text>
<text xml:space="preserve" x="500.015" y="360.625" fill="black" font-size="12.9143" font-family="Helvetica">600</text>
<text xml:space="preserve" x="485.395" y="371.996" fill="black" font-size="12.9143" font-family="Helvetica">mpv</text>
<path d="M57.1929,347.955v -309.293" fill="none" stroke="black"/>
<path d="M70.7992,347.955h -13.6063" fill="none" stroke="black"/>
<path d="M63.9961,335.681h -6.80315" fill="none" stroke="black"/>
<path d="M63.9961,323.408h -6.80315" fill="none" stroke="black"/>
<path d="M63.9961,311.134h -6.80315" fill="none" stroke="black"/>
<path d="M63.9961,298.861h -6.80315" fill="none" stroke="black"/>
<path d="M70.7992,286.587h -13.6063" fill="none" stroke="black"/>
<path d="M63.9961,274.314h -6.80315" fill="none" stroke="black"/>
<path d="M63.9961,262.04h -6.80315" fill="none" stroke="black"/>
<path d="M63.9961,249.766h -6.80315" fill="none" stroke="black"/>
<path d="M63.9961,237.493h -6.80315" fill="none" stroke="black"/>
<path d="M70.7992,225.219h -13.6063" fill="none" stroke="black"/>
<path d="M63.9961,212.946h -6.80315" fill="none" stroke="black"/>
<path d="M63.9961,200.672h -6.80315" fill="none" stroke="black"/>
<path d="M63.9961,188.399h -6.80315" fill="none" stroke="black"/>
<path d="M63.9961,176.125h -6.80315" fill="none" stroke="black"/>
<path d="M70.7992,163.852h -13.6063" fill="none" stroke="black"/>
<path d="M63.9961,151.578h -6.80315" fill="none" stroke="black"/>
<path d="M63.9961,139.305h -6.80315" fill="none" stroke="black"/>
<path d="M63.9961,127.031h -6.80315" fill="none" stroke="black"/>
<path d="M63.9961,114.758h -6.80315" fill="none" stroke="black"/>
<path d="M70.7992,102.484h -13.6063" fill="none" stroke="black"/>
<path d="M63.9961,90.2105h -6.80315" fill="none" stroke="black"/>
<path d="M63.9961,77.937h -6.80315" fill="none" stroke="black"/>
<path d="M63.9961,65.6634h -6.80315" fill="none" stroke="black"/>
<path d="M63.9961,53.3899h -6.80315" fill="none" stroke="black"/>
<path d="M70.7992,41.1164h -13.6063" fill="none" stroke="black"/>
<path d="M70.7992,41.1164h -13.6063" fill="none" stroke="black"/>
<text xml:space="preserve" x="46.7965" y="352.503" fill="black" font-size="12.9143" font-family="Helvetica">0</text>
<text xml:space="preserve" x="39.4865" y="290.775" fill="black" font-size="12.9143" font-family="Helvetica">10</text>
<text xml:space="preserve" x="39.4865" y="229.858" fill="black" font-size="12.9143" font-family="Helvetica">20</text>
<text xml:space="preserve" x="39.4865" y="168.129" fill="black" font-size="12.9143" font-family="Helvetica">30</text>
<text xml:space="preserve" x="39.4865" y="107.213" fill="black" font-size="12.9143" font-family="Helvetica">40</text>
<text xml:space="preserve" x="39.4865" y="45.4843" fill="black" font-size="12.9143" font-family="Helvetica">50</text>
<g transform="rotate(-90,26.491,89.3441)">
<text xml:space="preserve" x="26.491" y="89.3441" fill="black" font-size="12.9143" font-family="Helvetica">n_blocks</text>
</g>
<text xml:space="preserve" x="242.541" y="17.8688" fill="black" font-size="18.7414" font-family="Helvetica">vop 69.36</text>
<rect x="351.996" y="25.1301" width="204.094" height="77.3233" fill="white"/>
<path d="M351.996,102.453h 204.094" fill="none" stroke="black"/>
<path d="M556.091,102.453v -77.3233" fill="none" stroke="black"/>
<path d="M556.091,25.1301h -204.094" fill="none" stroke="black"/>
<path d="M351.996,25.1301v 77.3233" fill="none" stroke="black"/>
<text xml:space="preserve" x="377.37" y="38.9865" fill="black" font-size="16.8159" font-family="Helvetica"> / ndf </text>
<text xml:space="preserve" x="370.872" y="34.1132" fill="black" font-size="11.3773" font-family="Helvetica">2</text>
<text xml:space="preserve" x="361.938" y="38.9865" fill="black" font-size="16.8159" font-family="Times">&#0967;</text>
<text xml:space="preserve" x="471.587" y="40.611" fill="black" font-size="16.8159" font-family="Helvetica"> 7.579 / 11</text>
<text xml:space="preserve" x="361.938" y="60.1042" fill="black" font-size="16.8159" font-family="Helvetica">Constant </text>
<text xml:space="preserve" x="518.696" y="60.1042" fill="black" font-size="16.8159" font-family="Helvetica"> 3.5</text>
<text xml:space="preserve" x="509.762" y="60.1042" fill="black" font-size="16.8159" font-family="Times">&#0177;</text>
<text xml:space="preserve" x="463.465" y="60.1042" fill="black" font-size="16.8159" font-family="Helvetica">  40.7 </text>
<text xml:space="preserve" x="361.938" y="79.5975" fill="black" font-size="16.8159" font-family="Helvetica">Mean     </text>
<text xml:space="preserve" x="518.696" y="79.5975" fill="black" font-size="16.8159" font-family="Helvetica"> 2.9</text>
<text xml:space="preserve" x="509.762" y="79.5975" fill="black" font-size="16.8159" font-family="Times">&#0177;</text>
<text xml:space="preserve" x="459.404" y="79.5975" fill="black" font-size="16.8159" font-family="Helvetica"> 264.6 </text>
<text xml:space="preserve" x="361.938" y="97.4663" fill="black" font-size="16.8159" font-family="Helvetica">Sigma    </text>
<text xml:space="preserve" x="509.762" y="99.0908" fill="black" font-size="16.8159" font-family="Helvetica"> 2.19</text>
<text xml:space="preserve" x="500.827" y="99.0908" fill="black" font-size="16.8159" font-family="Times">&#0177;</text>
<text xml:space="preserve" x="450.47" y="99.0908" fill="black" font-size="16.8159" font-family="Helvetica"> 42.07 </text>
<g stroke="black" stroke-width="1" fill="none">
<line x1="63.752" y1="347.955" x2="64.752" y2="347.955"/>
</g>
<g stroke="black" stroke-width="1" fill="none">
<line x1="78.8701" y1="347.955" x2="79.8701" y2="347.955"/>
</g>
<g stroke="black" stroke-width="1" fill="none">
<line x1="93.9882" y1="347.955" x2="94.9882" y2="347.955"/>
</g>
<g stroke="black" stroke-width="1" fill="none">
<line x1="109.106" y1="347.955" x2="110.106" y2="347.955"/>
</g>
<g stroke="black" stroke-width="1" fill="none">
<line x1="124.224" y1="347.955" x2="125.224" y2="347.955"/>
</g>
<g stroke="black" stroke-width="1" fill="none">
<line x1="139.343" y1="347.955" x2="140.343" y2="347.955"/>
</g>
<path d="M155.461,344.36v -8.6787" fill="none" stroke="#007d34"/>
<path d="M155.461,335.681v -8.6787" fill="none" stroke="#007d34"/>
<path d="M147.902,335.681h 7.55905" fill="none" stroke="#007d34"/>
<path d="M155.461,335.681h 7.55905" fill="none" stroke="#007d34"/>
<g stroke="black" stroke-width="1" fill="none">
<line x1="154.461" y1="335.681" x2="155.461" y2="335.681"/>
</g>
<path d="M170.579,347.955v -6.13677" fill="none" stroke="#007d34"/>
<path d="M170.579,341.818v -6.13677" fill="none" stroke="#007d34"/>
<path d="M163.02,341.818h 7.55905" fill="none" stroke="#007d34"/>
<path d="M170.579,341.818h 7.55905" fill="none" stroke="#007d34"/>
<g stroke="black" stroke-width="1" fill="none">
<line x1="169.579" y1="341.818" x2="170.579" y2="341.818"/>
</g>
<path d="M185.697,340.174v -10.6292" fill="none" stroke="#007d34"/>
<path d="M185.697,329.544v -10.6292" fill="none" stroke="#007d34"/>
<path d="M178.138,329.544h 7.55905" fill="none" stroke="#007d34"/>
<path d="M185.697,329.544h 7.55905" fill="none" stroke="#007d34"/>
<g stroke="black" stroke-width="1" fill="none">
<line x1="184.697" y1="329.544" x2="185.697" y2="329.544"/>
</g>
<path d="M200.815,311.134v -18.4103" fill="none" stroke="#007d34"/>
<path d="M200.815,292.724v -18.4103" fill="none" stroke="#007d34"/>
<path d="M193.256,292.724h 7.55905" fill="none" stroke="#007d34"/>
<path d="M200.815,292.724h 7.55905" fill="none" stroke="#007d34"/>
<g stroke="black" stroke-width="1" fill="none">
<line x1="199.815" y1="292.724" x2="200.815" y2="292.724"/>
</g>
<path d="M215.933,268.932v -25.3025" fill="none" stroke="#007d34"/>
<path d="M215.933,243.63v -25.3025" fill="none" stroke="#007d34"/>
<path d="M208.374,243.63h 7.55905" fill="none" stroke="#007d34"/>
<path d="M215.933,243.63h 7.55905" fill="none" stroke="#007d34"/>
<g stroke="black" stroke-width="1" fill="none">
<line x1="214.933" y1="243.63" x2="215.933" y2="243.63"/>
</g>
<path d="M231.051,225.219v -30.6838" fill="none" stroke="#007d34"/>
<path d="M231.051,194.536v -30.6838" fill="none" stroke="#007d34"/>
<path d="M223.492,194.536h 7.55905" fill="none" stroke="#007d34"/>
<path d="M231.051,194.536h 7.55905" fill="none" stroke="#007d34"/>
<g stroke="black" stroke-width="1" fill="none">
<line x1="230.051" y1="194.536" x2="231.051" y2="194.536"/>
</g>
<path d="M246.169,95.9067v -42.5168" fill="none" stroke="#007d34"/>
<path d="M246.169,53.3899v -14.7282" fill="none" stroke="#007d34"/>
<path d="M238.61,53.3899h 7.55905" fill="none" stroke="#007d34"/>
<path d="M246.169,53.3899h 7.55905" fill="none" stroke="#007d34"/>
<g stroke="black" stroke-width="1" fill="none">
<line x1="245.169" y1="53.3899" x2="246.169" y2="53.3899"/>
</g>
<path d="M261.287,129.981v -39.7708" fill="none" stroke="#007d34"/>
<path d="M261.287,90.2105v -39.7708" fill="none" stroke="#007d34"/>
<path d="M253.728,90.2105h 7.55905" fill="none" stroke="#007d34"/>
<path d="M261.287,90.2105h 7.55905" fill="none" stroke="#007d34"/>
<g stroke="black" stroke-width="1" fill="none">
<line x1="260.287" y1="90.2105" x2="261.287" y2="90.2105"/>
</g>
<path d="M276.406,208.598v -32.4727" fill="none" stroke="#007d34"/>
<path d="M276.406,176.125v -32.4727" fill="none" stroke="#007d34"/>
<path d="M268.846,176.125h 7.55905" fill="none" stroke="#007d34"/>
<path d="M276.406,176.125h 7.55905" fill="none" stroke="#007d34"/>
<g stroke="black" stroke-width="1" fill="none">
<line x1="275.406" y1="176.125" x2="276.406" y2="176.125"/>
</g>
<path d="M291.524,225.219v -30.6838" fill="none" stroke="#007d34"/>
<path d="M291.524,194.536v -30.6838" fill="none" stroke="#007d34"/>
<path d="M283.965,194.536h 7.55905" fill="none" stroke="#007d34"/>
<path d="M291.524,194.536h 7.55905" fill="none" stroke="#007d34"/>
<g stroke="black" stroke-width="1" fill="none">
<line x1="290.524" y1="194.536" x2="291.524" y2="194.536"/>
</g>
<path d="M306.642,295.572v -21.2584" fill="none" stroke="#007d34"/>
<path d="M306.642,274.314v -21.2584" fill="none" stroke="#007d34"/>
<path d="M299.083,274.314h 7.55905" fill="none" stroke="#007d34"/>
<path d="M306.642,274.314h 7.55905" fill="none" stroke="#007d34"/>
<g stroke="black" stroke-width="1" fill="none">
<line x1="305.642" y1="274.314" x2="306.642" y2="274.314"/>
</g>
<path d="M321.76,316.218v -17.3574" fill="none" stroke="#007d34"/>
<path d="M321.76,298.861v -17.3574" fill="none" stroke="#007d34"/>
<path d="M314.201,298.861h 7.55905" fill="none" stroke="#007d34"/>
<path d="M321.76,298.861h 7.55905" fill="none" stroke="#007d34"/>
<g stroke="black" stroke-width="1" fill="none">
<line x1="320.76" y1="298.861" x2="321.76" y2="298.861"/>
</g>
<path d="M336.878,347.955v -6.13677" fill="none" stroke="#007d34"/>
<path d="M336.878,341.818v -6.13677" fill="none" stroke="#007d34"/>
<path d="M329.319,341.818h 7.55905" fill="none" stroke="#007d34"/>
<path d="M336.878,341.818h 7.55905" fill="none" stroke="#007d34"/>
<g stroke="black" stroke-width="1" fill="none">
<line x1="335.878" y1="341.818" x2="336.878" y2="341.818"/>
</g>
<path d="M351.996,347.955v -6.13677" fill="none" stroke="#007d34"/>
<path d="M351.996,341.818v -6.13677" fill="none" stroke="#007d34"/>
<path d="M344.437,341.818h 7.55905" fill="none" stroke="#007d34"/>
<path d="M351.996,341.818h 7.55905" fill="none" stroke="#007d34"/>
<g stroke="black" stroke-width="1" fill="none">
<line x1="350.996" y1="341.818" x2="351.996" y2="341.818"/>
</g>
<g stroke="black" stroke-width="1" fill="none">
<line x1="366.114" y1="347.955" x2="367.114" y2="347.955"/>
</g>
<g stroke="black" stroke-width="1" fill="none">
<line x1="381.232" y1="347.955" x2="382.232" y2="347.955"/>
</g>
<g stroke="black" stroke-width="1" fill="none">
<line x1="396.35" y1="347.955" x2="397.35" y2="347.955"/>
</g>
<g stroke="black" stroke-width="1" fill="none">
<line x1="411.469" y1="347.955" x2="412.469" y2="347.955"/>
</g>
<g stroke="black" stroke-width="1" fill="none">
<line x1="426.587" y1="347.955" x2="427.587" y2="347.955"/>
</g>
<g stroke="black" stroke-width="1" fill="none">
<line x1="441.705" y1="347.955" x2="442.705" y2="347.955"/>
</g>
<g stroke="black" stroke-width="1" fill="none">
<line x1="456.823" y1="347.955" x2="457.823" y2="347.955"/>
</g>
<g stroke="black" stroke-width="1" fill="none">
<line x1="471.941" y1="347.955" x2="472.941" y2="347.955"/>
</g>
<g stroke="black" stroke-width="1" fill="none">
<line x1="487.059" y1="347.955" x2="488.059" y2="347.955"/>
</g>
<g stroke="black" stroke-width="1" fill="none">
<line x1="502.177" y1="347.955" x2="503.177" y2="347.955"/>
</g>
<path d="M59.4606,347.955h 58.9606l 4.53543, -0.0339002l 4.53543, -0.0273568l 4.53543, -0.0472048l 4.53543, -0.0797148l 4.53543, -0.131729l 4.53543, -0.212995l 4.53543, -0.336937l 4.53543, -0.52139l 4.53543, -0.789121l 4.53543, -1.16793l 4.53543,
 -1.69003l 4.53543, -2.39044l 4.53543, -3.30408l 4.53543, -4.46146l 4.53543, -5.88298l 4.53543, -7.57217l 4.53543, -9.50856l 4.53543, -11.6413l 4.53543, -13.8844l 4.53543, -16.1159l 4.53543, -18.1812l 4.53543, -19.9017l 4.53543, -21.0889l 4.53543,
 -21.5634l 4.53543, -21.1759l 4.53543, -19.8286l 4.53543, -17.4922l 4.53543, -14.2183l 4.53543, -10.1407l 4.53543, -5.46872l 4.53543, -0.469092l 4.53543, 4.55887l 4.53543, 9.31302l 4.53543, 13.5184l 4.53543, 16.9537l 4.53543, 19.4701" fill="none"
 stroke="#007d34" stroke-width="2"/>
<path d="M281.697,162.441l 4.53543, 21.0007l 4.53543, 21.5604l 4.53543, 21.2355l 4.53543, 20.1674l 4.53543, 18.5315l 4.53543, 16.516l 4.53543, 14.3027l 4.53543, 12.0515l 4.53543, 9.89079l 4.53543, 7.91321l 4.53543, 6.17587l 4.53543, 4.70442l 4.53543,
 3.49925l 4.53543, 2.54255l 4.53543, 1.80523l 4.53543, 1.25279l 4.53543, 0.849988l 4.53543, 0.563928l 4.53543, 0.365923l 4.53543, 0.232261l 4.53543, 0.144227l 4.53543, 0.0876294l 4.53543, 0.0520998l 4.53543, 0.0303143l 4.53543, 0.037884h 108.85"
 fill="none" stroke="#007d34" stroke-width="2"/>
<path d="M503.933,347.955h 4.53543" fill="none" stroke="#007d34" stroke-width="2"/>
<rect x="351.996" y="25.1301" width="204.094" height="77.3233" fill="white"/>
<path d="M351.996,102.453h 204.094" fill="none" stroke="black"/>
<path d="M556.091,102.453v -77.3233" fill="none" stroke="black"/>
<path d="M556.091,25.1301h -204.094" fill="none" stroke="black"/>
<path d="M351.996,25.1301v 77.3233" fill="none" stroke="black"/>
<text xml:space="preserve" x="377.37" y="38.9865" fill="black" font-size="16.8159" font-family="Helvetica"> / ndf </text>
<text xml:space="preserve" x="370.872" y="34.1132" fill="black" font-size="11.3773" font-family="Helvetica">2</text>
<text xml:space="preserve" x="361.938" y="38.9865" fill="black" font-size="16.8159" font-family="Times">&#0967;</text>
<text xml:space="preserve" x="471.587" y="40.611" fill="black" font-size="16.8159" font-family="Helvetica"> 7.579 / 11</text>
<text xml:space="preserve" x="361.938" y="60.1042" fill="black" font-size="16.8159" font-family="Helvetica">Constant </text>
<text xml:space="preserve" x="518.696" y="60.1042" fill="black" font-size="16.8159" font-family="Helvetica"> 3.5</text>
<text xml:space="preserve" x="509.762" y="60.1042" fill="black" font-size="16.8159" font-family="Times">&#0177;</text>
<text xml:space="preserve" x="463.465" y="60.1042" fill="black" font-size="16.8159" font-family="Helvetica">  40.7 </text>
<text xml:space="preserve" x="361.938" y="79.5975" fill="black" font-size="16.8159" font-family="Helvetica">Mean     </text>
<text xml:space="preserve" x="518.696" y="79.5975" fill="black" font-size="16.8159" font-family="Helvetica"> 2.9</text>
<text xml:space="preserve" x="509.762" y="79.5975" fill="black" font-size="16.8159" font-family="Times">&#0177;</text>
<text xml:space="preserve" x="459.404" y="79.5975" fill="black" font-size="16.8159" font-family="Helvetica"> 264.6 </text>
<text xml:space="preserve" x="361.938" y="97.4663" fill="black" font-size="16.8159" font-family="Helvetica">Sigma    </text>
<text xml:space="preserve" x="509.762" y="99.0908" fill="black" font-size="16.8159" font-family="Helvetica"> 2.19</text>
<text xml:space="preserve" x="500.827" y="99.0908" fill="black" font-size="16.8159" font-family="Times">&#0177;</text>
<text xml:space="preserve" x="450.47" y="99.0908" fill="black" font-size="16.8159" font-family="Helvetica"> 42.07 </text>
<text xml:space="preserve" x="242.541" y="17.8688" fill="black" font-size="18.7414" font-family="Helvetica">vop 69.36</text></svg>
