<?xml version="1.0" standalone="no"?>
<svg width="567.429" height="387.116" viewBox="0 0 567.429 387.116" xmlns="http://www.w3.org/2000/svg" shape-rendering="crispEdges">
<title>
./old_vop/vop_graphs/vop69.26.svg
</title>
<desc>
Creator: ROOT Version 6.24/00
CreationDate: Tue Jun 15 22:08:24 2021</desc>
<defs>
</defs>
<rect x="0.5" y="0" width="566.929" height="386.616" fill="white"/>
<rect x="57.1929" y="38.6616" width="453.543" height="309.293" fill="white"/>
<rect x="57.1929" y="38.6616" width="453.543" height="309.293" fill="none" stroke="black"/>
<path d="M57.1929,332.451h 15.1181v 15.5034h 60.4724v -15.5034h 15.1181v 15.5034h 30.2362v -15.5034h 15.1181v -62.0137h 15.1181v -93.0205h 15.1181v -124.027h 15.1181v 62.0137h 15.1181v 15.5034h 15.1181v -15.5034h 30.2362v 139.531h 15.1181v -31.0068h
 15.1181v 93.0205h 15.1181v 15.5034h 15.1181v 15.5034h 151.181" fill="none" stroke="#cea262"/>
<path d="M59.4606,347.955h 40.8189l 4.53543, -0.0356757l 4.53543, -0.0237653l 4.53543, -0.038118l 4.53543, -0.060172l 4.53543, -0.093478l 4.53543, -0.142905l 4.53543, -0.214969l 4.53543, -0.318172l 4.53543, -0.463306l 4.53543, -0.663669l 4.53543,
 -0.935117l 4.53543, -1.29586l 4.53543, -1.76591l 4.53543, -2.36608l 4.53543, -3.11648l 4.53543, -4.03444l 4.53543, -5.132l 4.53543, -6.41288l 4.53543, -7.86948l 4.53543, -9.47981l 4.53543, -11.2052l 4.53543, -12.9886l 4.53543, -14.7552l 4.53543,
 -16.4136l 4.53543, -17.8601l 4.53543, -18.9845l 4.53543, -19.6778l 4.53543, -19.8411l 4.53543, -19.3952l 4.53543, -18.2893l 4.53543, -16.5085l 4.53543, -14.0783l 4.53543, -11.0664l 4.53543, -7.58035l 4.53543, -3.7612l 4.53543, 0.225638l 4.53543,
 4.20237l 4.53543, 7.99196l 4.53543, 11.4312l 4.53543, 14.3823" fill="none" stroke="#cea262" stroke-width="2"/>
<path d="M281.697,119.32l 4.53543, 16.742l 4.53543, 18.4475l 4.53543, 19.4777l 4.53543, 19.8519l 4.53543, 19.6246l 4.53543, 18.8776l 4.53543, 17.7114l 4.53543, 16.2357l 4.53543, 14.5601l 4.53543, 12.7873l 4.53543, 11.007l 4.53543, 9.29206l 4.53543,
 7.69742l 4.53543, 6.25978l 4.53543, 4.99937l 4.53543, 3.92239l 4.53543, 3.02399l 4.53543, 2.29143l 4.53543, 1.70693l 4.53543, 1.25021l 4.53543, 0.900482l 4.53543, 0.637899l 4.53543, 0.444493l 4.53543, 0.304691l 4.53543, 0.205485l 4.53543, 0.136352l
 4.53543, 0.0890303l 4.53543, 0.0572058l 4.53543, 0.0361739l 4.53543, 0.0225128l 4.53543, 0.0336531h 81.6378" fill="none" stroke="#cea262" stroke-width="2"/>
<path d="M503.933,347.955h 4.53543" fill="none" stroke="#cea262" stroke-width="2"/>
<path d="M57.1929,347.955h 453.543" fill="none" stroke="black"/>
<path d="M57.1929,338.676v 9.27879" fill="none" stroke="black"/>
<path d="M72.311,343.315v 4.6394" fill="none" stroke="black"/>
<path d="M87.4291,343.315v 4.6394" fill="none" stroke="black"/>
<path d="M102.547,343.315v 4.6394" fill="none" stroke="black"/>
<path d="M117.665,343.315v 4.6394" fill="none" stroke="black"/>
<path d="M132.783,338.676v 9.27879" fill="none" stroke="black"/>
<path d="M147.902,343.315v 4.6394" fill="none" stroke="black"/>
<path d="M163.02,343.315v 4.6394" fill="none" stroke="black"/>
<path d="M178.138,343.315v 4.6394" fill="none" stroke="black"/>
<path d="M193.256,343.315v 4.6394" fill="none" stroke="black"/>
<path d="M208.374,338.676v 9.27879" fill="none" stroke="black"/>
<path d="M223.492,343.315v 4.6394" fill="none" stroke="black"/>
<path d="M238.61,343.315v 4.6394" fill="none" stroke="black"/>
<path d="M253.728,343.315v 4.6394" fill="none" stroke="black"/>
<path d="M268.846,343.315v 4.6394" fill="none" stroke="black"/>
<path d="M283.965,338.676v 9.27879" fill="none" stroke="black"/>
<path d="M299.083,343.315v 4.6394" fill="none" stroke="black"/>
<path d="M314.201,343.315v 4.6394" fill="none" stroke="black"/>
<path d="M329.319,343.315v 4.6394" fill="none" stroke="black"/>
<path d="M344.437,343.315v 4.6394" fill="none" stroke="black"/>
<path d="M359.555,338.676v 9.27879" fill="none" stroke="black"/>
<path d="M374.673,343.315v 4.6394" fill="none" stroke="black"/>
<path d="M389.791,343.315v 4.6394" fill="none" stroke="black"/>
<path d="M404.909,343.315v 4.6394" fill="none" stroke="black"/>
<path d="M420.028,343.315v 4.6394" fill="none" stroke="black"/>
<path d="M435.146,338.676v 9.27879" fill="none" stroke="black"/>
<path d="M450.264,343.315v 4.6394" fill="none" stroke="black"/>
<path d="M465.382,343.315v 4.6394" fill="none" stroke="black"/>
<path d="M480.5,343.315v 4.6394" fill="none" stroke="black"/>
<path d="M495.618,343.315v 4.6394" fill="none" stroke="black"/>
<path d="M510.736,338.676v 9.27879" fill="none" stroke="black"/>
<text xml:space="preserve" x="52.482" y="360.625" fill="black" font-size="12.9143" font-family="Helvetica">0</text>
<text xml:space="preserve" x="121.521" y="360.625" fill="black" font-size="12.9143" font-family="Helvetica">100</text>
<text xml:space="preserve" x="197.057" y="360.625" fill="black" font-size="12.9143" font-family="Helvetica">200</text>
<text xml:space="preserve" x="273.406" y="360.625" fill="black" font-size="12.9143" font-family="Helvetica">300</text>
<text xml:space="preserve" x="348.942" y="360.625" fill="black" font-size="12.9143" font-family="Helvetica">400</text>
<text xml:space="preserve" x="424.479" y="360.625" fill="black" font-size="12.9143" font-family="Helvetica">500</text>
<text xml:space="preserve" x="500.015" y="360.625" fill="black" font-size="12.9143" font-family="Helvetica">600</text>
<text xml:space="preserve" x="485.395" y="371.996" fill="black" font-size="12.9143" font-family="Helvetica">mpv</text>
<path d="M57.1929,347.955v -309.293" fill="none" stroke="black"/>
<path d="M70.7992,347.955h -13.6063" fill="none" stroke="black"/>
<path d="M63.9961,340.203h -6.80315" fill="none" stroke="black"/>
<path d="M63.9961,332.451h -6.80315" fill="none" stroke="black"/>
<path d="M63.9961,324.7h -6.80315" fill="none" stroke="black"/>
<path d="M70.7992,316.948h -13.6063" fill="none" stroke="black"/>
<path d="M63.9961,309.196h -6.80315" fill="none" stroke="black"/>
<path d="M63.9961,301.445h -6.80315" fill="none" stroke="black"/>
<path d="M63.9961,293.693h -6.80315" fill="none" stroke="black"/>
<path d="M70.7992,285.941h -13.6063" fill="none" stroke="black"/>
<path d="M63.9961,278.189h -6.80315" fill="none" stroke="black"/>
<path d="M63.9961,270.438h -6.80315" fill="none" stroke="black"/>
<path d="M63.9961,262.686h -6.80315" fill="none" stroke="black"/>
<path d="M70.7992,254.934h -13.6063" fill="none" stroke="black"/>
<path d="M63.9961,247.183h -6.80315" fill="none" stroke="black"/>
<path d="M63.9961,239.431h -6.80315" fill="none" stroke="black"/>
<path d="M63.9961,231.679h -6.80315" fill="none" stroke="black"/>
<path d="M70.7992,223.927h -13.6063" fill="none" stroke="black"/>
<path d="M63.9961,216.176h -6.80315" fill="none" stroke="black"/>
<path d="M63.9961,208.424h -6.80315" fill="none" stroke="black"/>
<path d="M63.9961,200.672h -6.80315" fill="none" stroke="black"/>
<path d="M70.7992,192.921h -13.6063" fill="none" stroke="black"/>
<path d="M63.9961,185.169h -6.80315" fill="none" stroke="black"/>
<path d="M63.9961,177.417h -6.80315" fill="none" stroke="black"/>
<path d="M63.9961,169.666h -6.80315" fill="none" stroke="black"/>
<path d="M70.7992,161.914h -13.6063" fill="none" stroke="black"/>
<path d="M63.9961,154.162h -6.80315" fill="none" stroke="black"/>
<path d="M63.9961,146.41h -6.80315" fill="none" stroke="black"/>
<path d="M63.9961,138.659h -6.80315" fill="none" stroke="black"/>
<path d="M70.7992,130.907h -13.6063" fill="none" stroke="black"/>
<path d="M63.9961,123.155h -6.80315" fill="none" stroke="black"/>
<path d="M63.9961,115.404h -6.80315" fill="none" stroke="black"/>
<path d="M63.9961,107.652h -6.80315" fill="none" stroke="black"/>
<path d="M70.7992,99.9001h -13.6063" fill="none" stroke="black"/>
<path d="M63.9961,92.1484h -6.80315" fill="none" stroke="black"/>
<path d="M63.9961,84.3967h -6.80315" fill="none" stroke="black"/>
<path d="M63.9961,76.645h -6.80315" fill="none" stroke="black"/>
<path d="M70.7992,68.8933h -13.6063" fill="none" stroke="black"/>
<path d="M70.7992,68.8933h -13.6063" fill="none" stroke="black"/>
<path d="M63.9961,61.1416h -6.80315" fill="none" stroke="black"/>
<path d="M63.9961,53.3899h -6.80315" fill="none" stroke="black"/>
<path d="M63.9961,45.6382h -6.80315" fill="none" stroke="black"/>
<text xml:space="preserve" x="46.7965" y="352.503" fill="black" font-size="12.9143" font-family="Helvetica">0</text>
<text xml:space="preserve" x="46.7965" y="322.451" fill="black" font-size="12.9143" font-family="Helvetica">2</text>
<text xml:space="preserve" x="46.7965" y="291.587" fill="black" font-size="12.9143" font-family="Helvetica">4</text>
<text xml:space="preserve" x="46.7965" y="259.098" fill="black" font-size="12.9143" font-family="Helvetica">6</text>
<text xml:space="preserve" x="46.7965" y="228.234" fill="black" font-size="12.9143" font-family="Helvetica">8</text>
<text xml:space="preserve" x="39.4865" y="197.369" fill="black" font-size="12.9143" font-family="Helvetica">10</text>
<text xml:space="preserve" x="39.4865" y="167.317" fill="black" font-size="12.9143" font-family="Helvetica">12</text>
<text xml:space="preserve" x="39.4865" y="136.453" fill="black" font-size="12.9143" font-family="Helvetica">14</text>
<text xml:space="preserve" x="39.4865" y="103.964" fill="black" font-size="12.9143" font-family="Helvetica">16</text>
<text xml:space="preserve" x="39.4865" y="73.0997" fill="black" font-size="12.9143" font-family="Helvetica">18</text>
<g transform="rotate(-90,26.491,89.3441)">
<text xml:space="preserve" x="26.491" y="89.3441" fill="black" font-size="12.9143" font-family="Helvetica">n_blocks</text>
</g>
<text xml:space="preserve" x="242.541" y="17.8688" fill="black" font-size="18.7414" font-family="Helvetica">vop 69.26</text>
<rect x="351.996" y="25.1301" width="204.094" height="77.3233" fill="white"/>
<path d="M351.996,102.453h 204.094" fill="none" stroke="black"/>
<path d="M556.091,102.453v -77.3233" fill="none" stroke="black"/>
<path d="M556.091,25.1301h -204.094" fill="none" stroke="black"/>
<path d="M351.996,25.1301v 77.3233" fill="none" stroke="black"/>
<text xml:space="preserve" x="377.37" y="38.9865" fill="black" font-size="16.8159" font-family="Helvetica"> / ndf </text>
<text xml:space="preserve" x="370.872" y="34.1132" fill="black" font-size="11.3773" font-family="Helvetica">2</text>
<text xml:space="preserve" x="361.938" y="38.9865" fill="black" font-size="16.8159" font-family="Times">&#0967;</text>
<text xml:space="preserve" x="471.587" y="40.611" fill="black" font-size="16.8159" font-family="Helvetica"> 9.865 / 11</text>
<text xml:space="preserve" x="361.938" y="60.1042" fill="black" font-size="16.8159" font-family="Helvetica">Constant </text>
<text xml:space="preserve" x="509.762" y="60.1042" fill="black" font-size="16.8159" font-family="Helvetica"> 2.09</text>
<text xml:space="preserve" x="500.827" y="60.1042" fill="black" font-size="16.8159" font-family="Times">&#0177;</text>
<text xml:space="preserve" x="450.47" y="60.1042" fill="black" font-size="16.8159" font-family="Helvetica"> 17.24 </text>
<text xml:space="preserve" x="361.938" y="79.5975" fill="black" font-size="16.8159" font-family="Helvetica">Mean     </text>
<text xml:space="preserve" x="521.133" y="79.5975" fill="black" font-size="16.8159" font-family="Helvetica"> 5.1</text>
<text xml:space="preserve" x="512.198" y="79.5975" fill="black" font-size="16.8159" font-family="Times">&#0177;</text>
<text xml:space="preserve" x="461.841" y="79.5975" fill="black" font-size="16.8159" font-family="Helvetica"> 269.7 </text>
<text xml:space="preserve" x="361.938" y="97.4663" fill="black" font-size="16.8159" font-family="Helvetica">Sigma    </text>
<text xml:space="preserve" x="509.762" y="99.0908" fill="black" font-size="16.8159" font-family="Helvetica"> 3.83</text>
<text xml:space="preserve" x="500.827" y="99.0908" fill="black" font-size="16.8159" font-family="Times">&#0177;</text>
<text xml:space="preserve" x="450.47" y="99.0908" fill="black" font-size="16.8159" font-family="Helvetica"> 48.92 </text>
<path d="M64.752,347.955v -15.5034" fill="none" stroke="#cea262"/>
<path d="M64.752,332.451v -15.5034" fill="none" stroke="#cea262"/>
<path d="M57.1929,332.451h 7.55905" fill="none" stroke="#cea262"/>
<path d="M64.752,332.451h 7.55905" fill="none" stroke="#cea262"/>
<g stroke="black" stroke-width="1" fill="none">
<line x1="63.752" y1="332.451" x2="64.752" y2="332.451"/>
</g>
<g stroke="black" stroke-width="1" fill="none">
<line x1="78.8701" y1="347.955" x2="79.8701" y2="347.955"/>
</g>
<g stroke="black" stroke-width="1" fill="none">
<line x1="93.9882" y1="347.955" x2="94.9882" y2="347.955"/>
</g>
<g stroke="black" stroke-width="1" fill="none">
<line x1="109.106" y1="347.955" x2="110.106" y2="347.955"/>
</g>
<g stroke="black" stroke-width="1" fill="none">
<line x1="124.224" y1="347.955" x2="125.224" y2="347.955"/>
</g>
<path d="M140.343,347.955v -15.5034" fill="none" stroke="#cea262"/>
<path d="M140.343,332.451v -15.5034" fill="none" stroke="#cea262"/>
<path d="M132.783,332.451h 7.55905" fill="none" stroke="#cea262"/>
<path d="M140.343,332.451h 7.55905" fill="none" stroke="#cea262"/>
<g stroke="black" stroke-width="1" fill="none">
<line x1="139.343" y1="332.451" x2="140.343" y2="332.451"/>
</g>
<g stroke="black" stroke-width="1" fill="none">
<line x1="154.461" y1="347.955" x2="155.461" y2="347.955"/>
</g>
<g stroke="black" stroke-width="1" fill="none">
<line x1="169.579" y1="347.955" x2="170.579" y2="347.955"/>
</g>
<path d="M185.697,347.955v -15.5034" fill="none" stroke="#cea262"/>
<path d="M185.697,332.451v -15.5034" fill="none" stroke="#cea262"/>
<path d="M178.138,332.451h 7.55905" fill="none" stroke="#cea262"/>
<path d="M185.697,332.451h 7.55905" fill="none" stroke="#cea262"/>
<g stroke="black" stroke-width="1" fill="none">
<line x1="184.697" y1="332.451" x2="185.697" y2="332.451"/>
</g>
<path d="M200.815,305.104v -34.6667" fill="none" stroke="#cea262"/>
<path d="M200.815,270.438v -34.6667" fill="none" stroke="#cea262"/>
<path d="M193.256,270.438h 7.55905" fill="none" stroke="#cea262"/>
<path d="M200.815,270.438h 7.55905" fill="none" stroke="#cea262"/>
<g stroke="black" stroke-width="1" fill="none">
<line x1="199.815" y1="270.438" x2="200.815" y2="270.438"/>
</g>
<path d="M215.933,228.836v -51.419" fill="none" stroke="#cea262"/>
<path d="M215.933,177.417v -51.419" fill="none" stroke="#cea262"/>
<path d="M208.374,177.417h 7.55905" fill="none" stroke="#cea262"/>
<path d="M215.933,177.417h 7.55905" fill="none" stroke="#cea262"/>
<g stroke="black" stroke-width="1" fill="none">
<line x1="214.933" y1="177.417" x2="215.933" y2="177.417"/>
</g>
<path d="M231.051,120.968v -67.5778" fill="none" stroke="#cea262"/>
<path d="M231.051,53.3899v -14.7282" fill="none" stroke="#cea262"/>
<path d="M223.492,53.3899h 7.55905" fill="none" stroke="#cea262"/>
<path d="M231.051,53.3899h 7.55905" fill="none" stroke="#cea262"/>
<g stroke="black" stroke-width="1" fill="none">
<line x1="230.051" y1="53.3899" x2="231.051" y2="53.3899"/>
</g>
<path d="M246.169,175.448v -60.0445" fill="none" stroke="#cea262"/>
<path d="M246.169,115.404v -60.0445" fill="none" stroke="#cea262"/>
<path d="M238.61,115.404h 7.55905" fill="none" stroke="#cea262"/>
<path d="M246.169,115.404h 7.55905" fill="none" stroke="#cea262"/>
<g stroke="black" stroke-width="1" fill="none">
<line x1="245.169" y1="115.404" x2="246.169" y2="115.404"/>
</g>
<path d="M261.287,188.915v -58.0085" fill="none" stroke="#cea262"/>
<path d="M261.287,130.907v -58.0085" fill="none" stroke="#cea262"/>
<path d="M253.728,130.907h 7.55905" fill="none" stroke="#cea262"/>
<path d="M261.287,130.907h 7.55905" fill="none" stroke="#cea262"/>
<g stroke="black" stroke-width="1" fill="none">
<line x1="260.287" y1="130.907" x2="261.287" y2="130.907"/>
</g>
<path d="M276.406,175.448v -60.0445" fill="none" stroke="#cea262"/>
<path d="M276.406,115.404v -60.0445" fill="none" stroke="#cea262"/>
<path d="M268.846,115.404h 7.55905" fill="none" stroke="#cea262"/>
<path d="M276.406,115.404h 7.55905" fill="none" stroke="#cea262"/>
<g stroke="black" stroke-width="1" fill="none">
<line x1="275.406" y1="115.404" x2="276.406" y2="115.404"/>
</g>
<path d="M291.524,175.448v -60.0445" fill="none" stroke="#cea262"/>
<path d="M291.524,115.404v -60.0445" fill="none" stroke="#cea262"/>
<path d="M283.965,115.404h 7.55905" fill="none" stroke="#cea262"/>
<path d="M291.524,115.404h 7.55905" fill="none" stroke="#cea262"/>
<g stroke="black" stroke-width="1" fill="none">
<line x1="290.524" y1="115.404" x2="291.524" y2="115.404"/>
</g>
<path d="M306.642,292.91v -37.9755" fill="none" stroke="#cea262"/>
<path d="M306.642,254.934v -37.9755" fill="none" stroke="#cea262"/>
<path d="M299.083,254.934h 7.55905" fill="none" stroke="#cea262"/>
<path d="M306.642,254.934h 7.55905" fill="none" stroke="#cea262"/>
<g stroke="black" stroke-width="1" fill="none">
<line x1="305.642" y1="254.934" x2="306.642" y2="254.934"/>
</g>
<path d="M321.76,267.778v -43.8503" fill="none" stroke="#cea262"/>
<path d="M321.76,223.927v -43.8503" fill="none" stroke="#cea262"/>
<path d="M314.201,223.927h 7.55905" fill="none" stroke="#cea262"/>
<path d="M321.76,223.927h 7.55905" fill="none" stroke="#cea262"/>
<g stroke="black" stroke-width="1" fill="none">
<line x1="320.76" y1="223.927" x2="321.76" y2="223.927"/>
</g>
<path d="M336.878,338.873v -21.9251" fill="none" stroke="#cea262"/>
<path d="M336.878,316.948v -21.9251" fill="none" stroke="#cea262"/>
<path d="M329.319,316.948h 7.55905" fill="none" stroke="#cea262"/>
<path d="M336.878,316.948h 7.55905" fill="none" stroke="#cea262"/>
<g stroke="black" stroke-width="1" fill="none">
<line x1="335.878" y1="316.948" x2="336.878" y2="316.948"/>
</g>
<path d="M351.996,347.955v -15.5034" fill="none" stroke="#cea262"/>
<path d="M351.996,332.451v -15.5034" fill="none" stroke="#cea262"/>
<path d="M344.437,332.451h 7.55905" fill="none" stroke="#cea262"/>
<path d="M351.996,332.451h 7.55905" fill="none" stroke="#cea262"/>
<g stroke="black" stroke-width="1" fill="none">
<line x1="350.996" y1="332.451" x2="351.996" y2="332.451"/>
</g>
<g stroke="black" stroke-width="1" fill="none">
<line x1="366.114" y1="347.955" x2="367.114" y2="347.955"/>
</g>
<g stroke="black" stroke-width="1" fill="none">
<line x1="381.232" y1="347.955" x2="382.232" y2="347.955"/>
</g>
<g stroke="black" stroke-width="1" fill="none">
<line x1="396.35" y1="347.955" x2="397.35" y2="347.955"/>
</g>
<g stroke="black" stroke-width="1" fill="none">
<line x1="411.469" y1="347.955" x2="412.469" y2="347.955"/>
</g>
<g stroke="black" stroke-width="1" fill="none">
<line x1="426.587" y1="347.955" x2="427.587" y2="347.955"/>
</g>
<g stroke="black" stroke-width="1" fill="none">
<line x1="441.705" y1="347.955" x2="442.705" y2="347.955"/>
</g>
<g stroke="black" stroke-width="1" fill="none">
<line x1="456.823" y1="347.955" x2="457.823" y2="347.955"/>
</g>
<g stroke="black" stroke-width="1" fill="none">
<line x1="471.941" y1="347.955" x2="472.941" y2="347.955"/>
</g>
<g stroke="black" stroke-width="1" fill="none">
<line x1="487.059" y1="347.955" x2="488.059" y2="347.955"/>
</g>
<g stroke="black" stroke-width="1" fill="none">
<line x1="502.177" y1="347.955" x2="503.177" y2="347.955"/>
</g>
<path d="M59.4606,347.955h 40.8189l 4.53543, -0.0356757l 4.53543, -0.0237653l 4.53543, -0.038118l 4.53543, -0.060172l 4.53543, -0.093478l 4.53543, -0.142905l 4.53543, -0.214969l 4.53543, -0.318172l 4.53543, -0.463306l 4.53543, -0.663669l 4.53543,
 -0.935117l 4.53543, -1.29586l 4.53543, -1.76591l 4.53543, -2.36608l 4.53543, -3.11648l 4.53543, -4.03444l 4.53543, -5.132l 4.53543, -6.41288l 4.53543, -7.86948l 4.53543, -9.47981l 4.53543, -11.2052l 4.53543, -12.9886l 4.53543, -14.7552l 4.53543,
 -16.4136l 4.53543, -17.8601l 4.53543, -18.9845l 4.53543, -19.6778l 4.53543, -19.8411l 4.53543, -19.3952l 4.53543, -18.2893l 4.53543, -16.5085l 4.53543, -14.0783l 4.53543, -11.0664l 4.53543, -7.58035l 4.53543, -3.7612l 4.53543, 0.225638l 4.53543,
 4.20237l 4.53543, 7.99196l 4.53543, 11.4312l 4.53543, 14.3823" fill="none" stroke="#cea262" stroke-width="2"/>
<path d="M281.697,119.32l 4.53543, 16.742l 4.53543, 18.4475l 4.53543, 19.4777l 4.53543, 19.8519l 4.53543, 19.6246l 4.53543, 18.8776l 4.53543, 17.7114l 4.53543, 16.2357l 4.53543, 14.5601l 4.53543, 12.7873l 4.53543, 11.007l 4.53543, 9.29206l 4.53543,
 7.69742l 4.53543, 6.25978l 4.53543, 4.99937l 4.53543, 3.92239l 4.53543, 3.02399l 4.53543, 2.29143l 4.53543, 1.70693l 4.53543, 1.25021l 4.53543, 0.900482l 4.53543, 0.637899l 4.53543, 0.444493l 4.53543, 0.304691l 4.53543, 0.205485l 4.53543, 0.136352l
 4.53543, 0.0890303l 4.53543, 0.0572058l 4.53543, 0.0361739l 4.53543, 0.0225128l 4.53543, 0.0336531h 81.6378" fill="none" stroke="#cea262" stroke-width="2"/>
<path d="M503.933,347.955h 4.53543" fill="none" stroke="#cea262" stroke-width="2"/>
<rect x="351.996" y="25.1301" width="204.094" height="77.3233" fill="white"/>
<path d="M351.996,102.453h 204.094" fill="none" stroke="black"/>
<path d="M556.091,102.453v -77.3233" fill="none" stroke="black"/>
<path d="M556.091,25.1301h -204.094" fill="none" stroke="black"/>
<path d="M351.996,25.1301v 77.3233" fill="none" stroke="black"/>
<text xml:space="preserve" x="377.37" y="38.9865" fill="black" font-size="16.8159" font-family="Helvetica"> / ndf </text>
<text xml:space="preserve" x="370.872" y="34.1132" fill="black" font-size="11.3773" font-family="Helvetica">2</text>
<text xml:space="preserve" x="361.938" y="38.9865" fill="black" font-size="16.8159" font-family="Times">&#0967;</text>
<text xml:space="preserve" x="471.587" y="40.611" fill="black" font-size="16.8159" font-family="Helvetica"> 9.865 / 11</text>
<text xml:space="preserve" x="361.938" y="60.1042" fill="black" font-size="16.8159" font-family="Helvetica">Constant </text>
<text xml:space="preserve" x="509.762" y="60.1042" fill="black" font-size="16.8159" font-family="Helvetica"> 2.09</text>
<text xml:space="preserve" x="500.827" y="60.1042" fill="black" font-size="16.8159" font-family="Times">&#0177;</text>
<text xml:space="preserve" x="450.47" y="60.1042" fill="black" font-size="16.8159" font-family="Helvetica"> 17.24 </text>
<text xml:space="preserve" x="361.938" y="79.5975" fill="black" font-size="16.8159" font-family="Helvetica">Mean     </text>
<text xml:space="preserve" x="521.133" y="79.5975" fill="black" font-size="16.8159" font-family="Helvetica"> 5.1</text>
<text xml:space="preserve" x="512.198" y="79.5975" fill="black" font-size="16.8159" font-family="Times">&#0177;</text>
<text xml:space="preserve" x="461.841" y="79.5975" fill="black" font-size="16.8159" font-family="Helvetica"> 269.7 </text>
<text xml:space="preserve" x="361.938" y="97.4663" fill="black" font-size="16.8159" font-family="Helvetica">Sigma    </text>
<text xml:space="preserve" x="509.762" y="99.0908" fill="black" font-size="16.8159" font-family="Helvetica"> 3.83</text>
<text xml:space="preserve" x="500.827" y="99.0908" fill="black" font-size="16.8159" font-family="Times">&#0177;</text>
<text xml:space="preserve" x="450.47" y="99.0908" fill="black" font-size="16.8159" font-family="Helvetica"> 48.92 </text>
<text xml:space="preserve" x="242.541" y="17.8688" fill="black" font-size="18.7414" font-family="Helvetica">vop 69.26</text></svg>
