<?xml version="1.0" standalone="no"?>
<svg width="567.429" height="384.969" viewBox="0 0 567.429 384.969" xmlns="http://www.w3.org/2000/svg" shape-rendering="crispEdges">
<title>
./old_vop/vop_graphs/vop_stacked.svg
</title>
<desc>
Creator: ROOT Version 6.22/02
CreationDate: Fri Jun 25 17:54:08 2021</desc>
<defs>
</defs>
<rect x="0.5" y="0" width="566.929" height="384.469" fill="white"/>
<rect x="57.1929" y="38.4469" width="453.543" height="307.575" fill="white"/>
<rect x="57.1929" y="38.4469" width="453.543" height="307.575" fill="none" stroke="black"/>
<path d="M57.1929,346.022h 453.543" fill="none" stroke="#000099"/>
<path d="M57.1929,346.022h 453.543" fill="none" stroke="black"/>
<path d="M57.1929,336.795v 9.22726" fill="none" stroke="black"/>
<path d="M72.311,341.409v 4.61363" fill="none" stroke="black"/>
<path d="M87.4291,341.409v 4.61363" fill="none" stroke="black"/>
<path d="M102.547,341.409v 4.61363" fill="none" stroke="black"/>
<path d="M117.665,341.409v 4.61363" fill="none" stroke="black"/>
<path d="M132.783,336.795v 9.22726" fill="none" stroke="black"/>
<path d="M147.902,341.409v 4.61363" fill="none" stroke="black"/>
<path d="M163.02,341.409v 4.61363" fill="none" stroke="black"/>
<path d="M178.138,341.409v 4.61363" fill="none" stroke="black"/>
<path d="M193.256,341.409v 4.61363" fill="none" stroke="black"/>
<path d="M208.374,336.795v 9.22726" fill="none" stroke="black"/>
<path d="M223.492,341.409v 4.61363" fill="none" stroke="black"/>
<path d="M238.61,341.409v 4.61363" fill="none" stroke="black"/>
<path d="M253.728,341.409v 4.61363" fill="none" stroke="black"/>
<path d="M268.846,341.409v 4.61363" fill="none" stroke="black"/>
<path d="M283.965,336.795v 9.22726" fill="none" stroke="black"/>
<path d="M299.083,341.409v 4.61363" fill="none" stroke="black"/>
<path d="M314.201,341.409v 4.61363" fill="none" stroke="black"/>
<path d="M329.319,341.409v 4.61363" fill="none" stroke="black"/>
<path d="M344.437,341.409v 4.61363" fill="none" stroke="black"/>
<path d="M359.555,336.795v 9.22726" fill="none" stroke="black"/>
<path d="M374.673,341.409v 4.61363" fill="none" stroke="black"/>
<path d="M389.791,341.409v 4.61363" fill="none" stroke="black"/>
<path d="M404.909,341.409v 4.61363" fill="none" stroke="black"/>
<path d="M420.028,341.409v 4.61363" fill="none" stroke="black"/>
<path d="M435.146,336.795v 9.22726" fill="none" stroke="black"/>
<path d="M450.264,341.409v 4.61363" fill="none" stroke="black"/>
<path d="M465.382,341.409v 4.61363" fill="none" stroke="black"/>
<path d="M480.5,341.409v 4.61363" fill="none" stroke="black"/>
<path d="M495.618,341.409v 4.61363" fill="none" stroke="black"/>
<path d="M510.736,336.795v 9.22726" fill="none" stroke="black"/>
<text xml:space="preserve" x="53.446" y="358.403" fill="black" font-size="12.8453" font-family="Helvetica">0</text>
<text xml:space="preserve" x="121.868" y="358.403" fill="black" font-size="12.8453" font-family="Helvetica">100</text>
<text xml:space="preserve" x="197.622" y="358.403" fill="black" font-size="12.8453" font-family="Helvetica">200</text>
<text xml:space="preserve" x="273.375" y="358.403" fill="black" font-size="12.8453" font-family="Helvetica">300</text>
<text xml:space="preserve" x="348.314" y="358.403" fill="black" font-size="12.8453" font-family="Helvetica">400</text>
<text xml:space="preserve" x="424.068" y="358.403" fill="black" font-size="12.8453" font-family="Helvetica">500</text>
<text xml:space="preserve" x="499.821" y="358.403" fill="black" font-size="12.8453" font-family="Helvetica">600</text>
<path d="M57.1929,346.022v -307.575" fill="none" stroke="black"/>
<path d="M70.7992,346.022h -13.6063" fill="none" stroke="black"/>
<path d="M63.9961,333.817h -6.80315" fill="none" stroke="black"/>
<path d="M63.9961,321.612h -6.80315" fill="none" stroke="black"/>
<path d="M63.9961,309.406h -6.80315" fill="none" stroke="black"/>
<path d="M63.9961,297.201h -6.80315" fill="none" stroke="black"/>
<path d="M70.7992,284.995h -13.6063" fill="none" stroke="black"/>
<path d="M63.9961,272.79h -6.80315" fill="none" stroke="black"/>
<path d="M63.9961,260.585h -6.80315" fill="none" stroke="black"/>
<path d="M63.9961,248.379h -6.80315" fill="none" stroke="black"/>
<path d="M63.9961,236.174h -6.80315" fill="none" stroke="black"/>
<path d="M70.7992,223.969h -13.6063" fill="none" stroke="black"/>
<path d="M63.9961,211.763h -6.80315" fill="none" stroke="black"/>
<path d="M63.9961,199.558h -6.80315" fill="none" stroke="black"/>
<path d="M63.9961,187.352h -6.80315" fill="none" stroke="black"/>
<path d="M63.9961,175.147h -6.80315" fill="none" stroke="black"/>
<path d="M70.7992,162.942h -13.6063" fill="none" stroke="black"/>
<path d="M63.9961,150.736h -6.80315" fill="none" stroke="black"/>
<path d="M63.9961,138.531h -6.80315" fill="none" stroke="black"/>
<path d="M63.9961,126.326h -6.80315" fill="none" stroke="black"/>
<path d="M63.9961,114.12h -6.80315" fill="none" stroke="black"/>
<path d="M70.7992,101.915h -13.6063" fill="none" stroke="black"/>
<path d="M63.9961,89.7095h -6.80315" fill="none" stroke="black"/>
<path d="M63.9961,77.5041h -6.80315" fill="none" stroke="black"/>
<path d="M63.9961,65.2987h -6.80315" fill="none" stroke="black"/>
<path d="M63.9961,53.0934h -6.80315" fill="none" stroke="black"/>
<path d="M70.7992,40.888h -13.6063" fill="none" stroke="black"/>
<path d="M70.7992,40.888h -13.6063" fill="none" stroke="black"/>
<text xml:space="preserve" x="47.7441" y="350.258" fill="black" font-size="12.8453" font-family="Helvetica">0</text>
<text xml:space="preserve" x="41.2277" y="289.166" fill="black" font-size="12.8453" font-family="Helvetica">10</text>
<text xml:space="preserve" x="41.2277" y="228.075" fill="black" font-size="12.8453" font-family="Helvetica">20</text>
<text xml:space="preserve" x="41.2277" y="167.798" fill="black" font-size="12.8453" font-family="Helvetica">30</text>
<text xml:space="preserve" x="41.2277" y="106.706" fill="black" font-size="12.8453" font-family="Helvetica">40</text>
<text xml:space="preserve" x="41.2277" y="45.615" fill="black" font-size="12.8453" font-family="Helvetica">50</text>
<text xml:space="preserve" x="148.749" y="17.9202" fill="black" font-size="18.7938" font-family="Helvetica">distributions of mpv for each vop</text>
<path d="M57.1929,346.022h 181.417v -24.4107h 30.2362v -61.0269h 30.2362v -67.1295h 15.1181v 109.848h 15.1181v 30.5134h 15.1181v 12.2054h 75.5906v -6.10269h 30.2362v 6.10269h 60.4724" fill="none" stroke="#ffb300"/>
<path d="M59.4606,346.022h 149.669l 4.53543, -0.056561l 4.53543, -0.0721311l 4.53543, -0.150639l 4.53543, -0.299058l 4.53543, -0.564103l 4.53543, -1.01038l 4.53543, -1.71718l 4.53543, -2.76659l 4.53543, -4.22043l 4.53543, -6.08668l 4.53543, -8.28172l
 4.53543, -10.6008l 4.53543, -12.7134l 4.53543, -14.1975l 4.53543, -14.6173l 4.53543, -13.6324" fill="none" stroke="#ffb300" stroke-width="2"/>
<path d="M281.697,255.035l 4.53543, -11.1082l 4.53543, -7.19072l 4.53543, -2.31194l 4.53543, 2.88516l 4.53543, 7.6857l 4.53543, 11.4643l 4.53543, 13.8184l 4.53543, 14.6353l 4.53543, 14.077l 4.53543, 12.5006l 4.53543, 10.3452l 4.53543, 8.02573l
 4.53543, 5.85962l 4.53543, 4.03724l 4.53543, 2.63025l 4.53543, 1.62277l 4.53543, 0.949212l 4.53543, 0.526881l 4.53543, 0.277727l 4.53543, 0.139103l 4.53543, 0.0662336l 4.53543, 0.0514525h 122.457" fill="none" stroke="#ffb300" stroke-width="2"/>
<path d="M503.933,346.022h 4.53543" fill="none" stroke="#ffb300" stroke-width="2"/>
<rect x="351.996" y="24.9905" width="204.094" height="76.8938" fill="white"/>
<path d="M351.996,101.884h 204.094" fill="none" stroke="black"/>
<path d="M556.091,101.884v -76.8938" fill="none" stroke="black"/>
<path d="M556.091,24.9905h -204.094" fill="none" stroke="black"/>
<path d="M351.996,24.9905v 76.8938" fill="none" stroke="black"/>
<text xml:space="preserve" x="377.638" y="39.0986" fill="black" font-size="16.7253" font-family="Helvetica"> / ndf </text>
<text xml:space="preserve" x="371.122" y="34.2112" fill="black" font-size="11.3169" font-family="Helvetica">2</text>
<text xml:space="preserve" x="362.162" y="39.0986" fill="black" font-size="16.7253" font-family="Times">&#0967;</text>
<text xml:space="preserve" x="481.901" y="40.7277" fill="black" font-size="16.7253" font-family="Helvetica">  9.33 / 6</text>
<text xml:space="preserve" x="362.162" y="60.2769" fill="black" font-size="16.7253" font-family="Helvetica">Constant </text>
<text xml:space="preserve" x="509.596" y="60.2769" fill="black" font-size="16.7253" font-family="Helvetica"> 3.10</text>
<text xml:space="preserve" x="500.636" y="60.2769" fill="black" font-size="16.7253" font-family="Times">&#0177;</text>
<text xml:space="preserve" x="450.133" y="60.2769" fill="black" font-size="16.7253" font-family="Helvetica"> 18.29 </text>
<text xml:space="preserve" x="362.162" y="79.0117" fill="black" font-size="16.7253" font-family="Helvetica">Mean     </text>
<text xml:space="preserve" x="518.556" y="79.0117" fill="black" font-size="16.7253" font-family="Helvetica"> 3.8</text>
<text xml:space="preserve" x="509.596" y="79.0117" fill="black" font-size="16.7253" font-family="Times">&#0177;</text>
<text xml:space="preserve" x="459.094" y="79.0117" fill="black" font-size="16.7253" font-family="Helvetica"> 314.7 </text>
<text xml:space="preserve" x="362.162" y="96.9318" fill="black" font-size="16.7253" font-family="Helvetica">Sigma    </text>
<text xml:space="preserve" x="509.596" y="98.561" fill="black" font-size="16.7253" font-family="Helvetica"> 3.37</text>
<text xml:space="preserve" x="500.636" y="98.561" fill="black" font-size="16.7253" font-family="Times">&#0177;</text>
<text xml:space="preserve" x="450.133" y="98.561" fill="black" font-size="16.7253" font-family="Helvetica"> 27.64 </text>
<path d="M57.1929,346.022h 136.063v -6.10269h 30.2362v -36.6161h 15.1181v -30.5134h 15.1181v -6.10269h 15.1181v -18.3081h 30.2362v 12.2054h 15.1181v 48.8215h 15.1181v 12.2054h 15.1181v 24.4107h 166.299" fill="none" stroke="#803e75"/>
<path d="M59.4606,346.022h 95.2441l 4.53543, -0.048273l 4.53543, -0.0365723l 4.53543, -0.0611116l 4.53543, -0.099794l 4.53543, -0.159234l 4.53543, -0.248231l 4.53543, -0.377996l 4.53543, -0.562143l 4.53543, -0.816278l 4.53543, -1.15704l 4.53543,
 -1.60045l 4.53543, -2.15956l 4.53543, -2.84142l 4.53543, -3.64357l 4.53543, -4.55058l 4.53543, -5.53122l 4.53543, -6.53683l 4.53543, -7.50179l 4.53543, -8.34658l 4.53543, -8.98358l 4.53543, -9.32545l 4.53543, -9.29533l 4.53543, -8.83747l 4.53543,
 -7.92686l 4.53543, -6.57603l 4.53543, -4.83764l 4.53543, -2.80207l 4.53543, -0.589924" fill="none" stroke="#803e75" stroke-width="2"/>
<path d="M281.697,240.569l 4.53543, 1.65981l 4.53543, 3.80416l 4.53543, 5.71123l 4.53543, 7.27362l 4.53543, 8.41833l 4.53543, 9.11187l 4.53543, 9.36027l 4.53543, 9.20425l 4.53543, 8.71096l 4.53543, 7.9636l 4.53543, 7.05082l 4.53543, 6.05728l 4.53543,
 5.05641l 4.53543, 4.10595l 4.53543, 3.24614l 4.53543, 2.50039l 4.53543, 1.8775l 4.53543, 1.37497l 4.53543, 0.982451l 4.53543, 0.685143l 4.53543, 0.466472l 4.53543, 0.310134l 4.53543, 0.201392l 4.53543, 0.127757l 4.53543, 0.0791858l 4.53543,
 0.0479611l 4.53543, 0.0283899l 4.53543, 0.0365977h 95.2441" fill="none" stroke="#803e75" stroke-width="2"/>
<path d="M503.933,346.022h 4.53543" fill="none" stroke="#803e75" stroke-width="2"/>
<rect x="351.996" y="24.9905" width="204.094" height="76.8938" fill="white"/>
<path d="M351.996,101.884h 204.094" fill="none" stroke="black"/>
<path d="M556.091,101.884v -76.8938" fill="none" stroke="black"/>
<path d="M556.091,24.9905h -204.094" fill="none" stroke="black"/>
<path d="M351.996,24.9905v 76.8938" fill="none" stroke="black"/>
<text xml:space="preserve" x="377.638" y="39.0986" fill="black" font-size="16.7253" font-family="Helvetica"> / ndf </text>
<text xml:space="preserve" x="371.122" y="34.2112" fill="black" font-size="11.3169" font-family="Helvetica">2</text>
<text xml:space="preserve" x="362.162" y="39.0986" fill="black" font-size="16.7253" font-family="Times">&#0967;</text>
<text xml:space="preserve" x="477.828" y="40.7277" fill="black" font-size="16.7253" font-family="Helvetica"> 3.121 / 7</text>
<text xml:space="preserve" x="362.162" y="60.2769" fill="black" font-size="16.7253" font-family="Helvetica">Constant </text>
<text xml:space="preserve" x="512.039" y="60.2769" fill="black" font-size="16.7253" font-family="Helvetica"> 2.31</text>
<text xml:space="preserve" x="503.079" y="60.2769" fill="black" font-size="16.7253" font-family="Times">&#0177;</text>
<text xml:space="preserve" x="452.577" y="60.2769" fill="black" font-size="16.7253" font-family="Helvetica"> 17.29 </text>
<text xml:space="preserve" x="362.162" y="79.0117" fill="black" font-size="16.7253" font-family="Helvetica">Mean     </text>
<text xml:space="preserve" x="518.556" y="79.0117" fill="black" font-size="16.7253" font-family="Helvetica"> 4.9</text>
<text xml:space="preserve" x="509.596" y="79.0117" fill="black" font-size="16.7253" font-family="Times">&#0177;</text>
<text xml:space="preserve" x="459.094" y="79.0117" fill="black" font-size="16.7253" font-family="Helvetica"> 295.6 </text>
<text xml:space="preserve" x="362.162" y="96.9318" fill="black" font-size="16.7253" font-family="Helvetica">Sigma    </text>
<text xml:space="preserve" x="509.596" y="98.561" fill="black" font-size="16.7253" font-family="Helvetica"> 3.76</text>
<text xml:space="preserve" x="500.636" y="98.561" fill="black" font-size="16.7253" font-family="Times">&#0177;</text>
<text xml:space="preserve" x="450.133" y="98.561" fill="black" font-size="16.7253" font-family="Helvetica"> 40.94 </text>
<path d="M57.1929,346.022h 105.827v -6.10269h 15.1181v -6.10269h 15.1181v -30.5134h 15.1181v -36.6161h 15.1181v -18.3081h 15.1181v -42.7188h 15.1181v 48.8215h 15.1181v -48.8215h 15.1181v 79.3349h 15.1181v -12.2054h 15.1181v 24.4107h 15.1181v 18.3081h
 15.1181v 24.4107h 15.1181v 6.10269h 15.1181v -12.2054h 15.1181v 12.2054h 60.4724v -6.10269h 15.1181v 6.10269h 15.1181v -6.10269h 15.1181v 6.10269h 15.1181" fill="none" stroke="#ff6800"/>
<path d="M59.4606,346.022h 36.2835l 4.53543, -0.0318383l 4.53543, -0.0184284l 4.53543, -0.0280672l 4.53543, -0.0421583l 4.53543, -0.0624475l 4.53543, -0.0912155l 4.53543, -0.131376l 4.53543, -0.186565l 4.53543, -0.2612l 4.53543, -0.360503l 4.53543,
 -0.490451l 4.53543, -0.657639l 4.53543, -0.869024l 4.53543, -1.13154l 4.53543, -1.45156l 4.53543, -1.83421l 4.53543, -2.28259l 4.53543, -2.79684l 4.53543, -3.3733l 4.53543, -4.00361l 4.53543, -4.67406l 4.53543, -5.36527l 4.53543, -6.05215l 4.53543,
 -6.70446l 4.53543, -7.28789l 4.53543, -7.76566l 4.53543, -8.10068l 4.53543, -8.25808l 4.53543, -8.20791l 4.53543, -7.9279l 4.53543, -7.40581l 4.53543, -6.64132l 4.53543, -5.64711l 4.53543, -4.44898l 4.53543, -3.0849l 4.53543, -1.60313l 4.53543,
 -0.0593732l 4.53543, 1.48669l 4.53543, 2.97523l 4.53543, 4.35011l 4.53543, 5.5624" fill="none" stroke="#ff6800" stroke-width="2"/>
<path d="M281.697,241.057l 4.53543, 6.57325l 4.53543, 7.3559l 4.53543, 7.89665l 4.53543, 8.19486l 4.53543, 8.2619l 4.53543, 8.11938l 4.53543, 7.79674l 4.53543, 7.32858l 4.53543, 6.7519l 4.53543, 6.10359l 4.53543, 5.41823l 4.53543, 4.72639l 4.53543,
 4.0536l 4.53543, 3.41968l 4.53543, 2.83875l 4.53543, 2.31955l 4.53543, 1.86611l 4.53543, 1.47851l 4.53543, 1.15387l 4.53543, 0.887182l 4.53543, 0.672133l 4.53543, 0.501818l 4.53543, 0.369265l 4.53543, 0.267842l 4.53543, 0.191517l 4.53543, 0.13501l
 4.53543, 0.0938391l 4.53543, 0.0643125l 4.53543, 0.0434637l 4.53543, 0.0289671l 4.53543, 0.0190393l 4.53543, 0.0329833h 77.1024" fill="none" stroke="#ff6800" stroke-width="2"/>
<path d="M503.933,346.022h 4.53543" fill="none" stroke="#ff6800" stroke-width="2"/>
<rect x="351.996" y="24.9905" width="204.094" height="76.8938" fill="white"/>
<path d="M351.996,101.884h 204.094" fill="none" stroke="black"/>
<path d="M556.091,101.884v -76.8938" fill="none" stroke="black"/>
<path d="M556.091,24.9905h -204.094" fill="none" stroke="black"/>
<path d="M351.996,24.9905v 76.8938" fill="none" stroke="black"/>
<text xml:space="preserve" x="377.638" y="39.0986" fill="black" font-size="16.7253" font-family="Helvetica"> / ndf </text>
<text xml:space="preserve" x="371.122" y="34.2112" fill="black" font-size="11.3169" font-family="Helvetica">2</text>
<text xml:space="preserve" x="362.162" y="39.0986" fill="black" font-size="16.7253" font-family="Times">&#0967;</text>
<text xml:space="preserve" x="468.868" y="40.7277" fill="black" font-size="16.7253" font-family="Helvetica"> 12.48 / 13</text>
<text xml:space="preserve" x="362.162" y="60.2769" fill="black" font-size="16.7253" font-family="Helvetica">Constant </text>
<text xml:space="preserve" x="509.596" y="60.2769" fill="black" font-size="16.7253" font-family="Helvetica"> 2.16</text>
<text xml:space="preserve" x="500.636" y="60.2769" fill="black" font-size="16.7253" font-family="Times">&#0177;</text>
<text xml:space="preserve" x="450.133" y="60.2769" fill="black" font-size="16.7253" font-family="Helvetica"> 19.58 </text>
<text xml:space="preserve" x="362.162" y="79.0117" fill="black" font-size="16.7253" font-family="Helvetica">Mean     </text>
<text xml:space="preserve" x="518.556" y="79.0117" fill="black" font-size="16.7253" font-family="Helvetica"> 5.0</text>
<text xml:space="preserve" x="509.596" y="79.0117" fill="black" font-size="16.7253" font-family="Times">&#0177;</text>
<text xml:space="preserve" x="459.094" y="79.0117" fill="black" font-size="16.7253" font-family="Helvetica"> 270.2 </text>
<text xml:space="preserve" x="362.162" y="96.9318" fill="black" font-size="16.7253" font-family="Helvetica">Sigma    </text>
<text xml:space="preserve" x="509.596" y="98.561" fill="black" font-size="16.7253" font-family="Helvetica"> 3.76</text>
<text xml:space="preserve" x="500.636" y="98.561" fill="black" font-size="16.7253" font-family="Times">&#0177;</text>
<text xml:space="preserve" x="450.133" y="98.561" fill="black" font-size="16.7253" font-family="Helvetica"> 52.56 </text>
<path d="M57.1929,346.022h 90.7087v -6.10269h 15.1181v 6.10269h 15.1181v -6.10269h 30.2362v -36.6161h 15.1181v -24.4107h 15.1181v -6.10269h 15.1181v -54.9242h 15.1181v 24.4107h 15.1181v 18.3081h 15.1181v 18.3081h 15.1181v 18.3081h 15.1181v -18.3081h
 15.1181v 6.10269h 15.1181v 48.8215h 15.1181v 12.2054h 136.063" fill="none" stroke="#a6bdd7"/>
<path d="M59.4606,346.022h 49.8898l 4.53543, -0.0325966l 4.53543, -0.0173484l 4.53543, -0.0256964l 4.53543, -0.0375921l 4.53543, -0.0543143l 4.53543, -0.0774999l 4.53543, -0.109203l 4.53543, -0.151946l 4.53543, -0.208753l 4.53543, -0.283164l 4.53543,
 -0.379199l 4.53543, -0.501283l 4.53543, -0.654095l 4.53543, -0.842351l 4.53543, -1.0705l 4.53543, -1.34232l 4.53543, -1.66048l 4.53543, -2.026l 4.53543, -2.43771l 4.53543, -2.89172l 4.53543, -3.38094l 4.53543, -3.89475l 4.53543, -4.41888l 4.53543,
 -4.93547l 4.53543, -5.4235l 4.53543, -5.85945l 4.53543, -6.21841l 4.53543, -6.47533l 4.53543, -6.60656l 4.53543, -6.59152l 4.53543, -6.41432l 4.53543, -6.06525l 4.53543, -5.542l 4.53543, -4.85042l 4.53543, -4.00479l 4.53543, -3.02748l 4.53543,
 -1.94806l 4.53543, -0.801778" fill="none" stroke="#a6bdd7" stroke-width="2"/>
<path d="M281.697,244.76l 4.53543, 0.372267l 4.53543, 1.5334l 4.53543, 2.64169l 4.53543, 3.66022l 4.53543, 4.55715l 4.53543, 5.30733l 4.53543, 5.89344l 4.53543, 6.30654l 4.53543, 6.54602l 4.53543, 6.61899l 4.53543, 6.53923l 4.53543, 6.32579l 4.53543,
 6.00138l 4.53543, 5.59073l 4.53543, 5.11898l 4.53543, 4.61027l 4.53543, 4.08666l 4.53543, 3.5672l 4.53543, 3.06754l 4.53543, 2.59962l 4.53543, 2.17178l 4.53543, 1.78905l 4.53543, 1.45353l 4.53543, 1.16495l 4.53543, 0.921175l 4.53543, 0.71878l
 4.53543, 0.553509l 4.53543, 0.420706l 4.53543, 0.315648l 4.53543, 0.233797l 4.53543, 0.170971l 4.53543, 0.123448l 4.53543, 0.0880154l 4.53543, 0.0619682l 4.53543, 0.0430865l 4.53543, 0.0295867l 4.53543, 0.0200658l 4.53543, 0.0381704h 49.8898"
 fill="none" stroke="#a6bdd7" stroke-width="2"/>
<path d="M503.933,346.022h 4.53543" fill="none" stroke="#a6bdd7" stroke-width="2"/>
<rect x="351.996" y="24.9905" width="204.094" height="76.8938" fill="white"/>
<path d="M351.996,101.884h 204.094" fill="none" stroke="black"/>
<path d="M556.091,101.884v -76.8938" fill="none" stroke="black"/>
<path d="M556.091,24.9905h -204.094" fill="none" stroke="black"/>
<path d="M351.996,24.9905v 76.8938" fill="none" stroke="black"/>
<text xml:space="preserve" x="377.638" y="39.0986" fill="black" font-size="16.7253" font-family="Helvetica"> / ndf </text>
<text xml:space="preserve" x="371.122" y="34.2112" fill="black" font-size="11.3169" font-family="Helvetica">2</text>
<text xml:space="preserve" x="362.162" y="39.0986" fill="black" font-size="16.7253" font-family="Times">&#0967;</text>
<text xml:space="preserve" x="471.312" y="40.7277" fill="black" font-size="16.7253" font-family="Helvetica"> 13.43 / 11</text>
<text xml:space="preserve" x="362.162" y="60.2769" fill="black" font-size="16.7253" font-family="Helvetica">Constant </text>
<text xml:space="preserve" x="518.556" y="60.2769" fill="black" font-size="16.7253" font-family="Helvetica"> 2.0</text>
<text xml:space="preserve" x="509.596" y="60.2769" fill="black" font-size="16.7253" font-family="Times">&#0177;</text>
<text xml:space="preserve" x="463.166" y="60.2769" fill="black" font-size="16.7253" font-family="Helvetica">  16.6 </text>
<text xml:space="preserve" x="362.162" y="79.0117" fill="black" font-size="16.7253" font-family="Helvetica">Mean     </text>
<text xml:space="preserve" x="518.556" y="79.0117" fill="black" font-size="16.7253" font-family="Helvetica"> 6.4</text>
<text xml:space="preserve" x="509.596" y="79.0117" fill="black" font-size="16.7253" font-family="Times">&#0177;</text>
<text xml:space="preserve" x="461.537" y="79.0117" fill="black" font-size="16.7253" font-family="Helvetica"> 298.1 </text>
<text xml:space="preserve" x="362.162" y="96.9318" fill="black" font-size="16.7253" font-family="Helvetica">Sigma    </text>
<text xml:space="preserve" x="509.596" y="98.561" fill="black" font-size="16.7253" font-family="Helvetica"> 4.86</text>
<text xml:space="preserve" x="500.636" y="98.561" fill="black" font-size="16.7253" font-family="Times">&#0177;</text>
<text xml:space="preserve" x="450.133" y="98.561" fill="black" font-size="16.7253" font-family="Helvetica"> 55.63 </text>
<path d="M57.1929,339.92h 15.1181v 6.10269h 45.3543v -6.10269h 15.1181v 6.10269h 30.2362v -6.10269h 15.1181v -48.8215h 15.1181v -42.7188h 15.1181v -73.2322h 15.1181v -109.848h 30.2362v 67.1295h 15.1181v 42.7188h 15.1181v 103.746h 15.1181v 18.3081h
 15.1181v 30.5134h 15.1181v 18.3081h 181.417" fill="none" stroke="#c10020"/>
<path d="M59.4606,346.022h 54.4252l 4.53543, -0.0361605l 4.53543, -0.031815l 4.53543, -0.0568929l 4.53543, -0.0992796l 4.53543, -0.169039l 4.53543, -0.280791l 4.53543, -0.454971l 4.53543, -0.71898l 4.53543, -1.10789l 4.53543, -1.6643l 4.53543,
 -2.43672l 4.53543, -3.4761l 4.53543, -4.82988l 4.53543, -6.53366l 4.53543, -8.6007l 4.53543, -11.0104l 4.53543, -13.6972l 4.53543, -16.543l 4.53543, -19.374l 4.53543, -21.9666l 4.53543, -24.0617l 4.53543, -25.3884l 4.53543, -25.6957l 4.53543,
 -24.787l 4.53543, -22.5538l 4.53543, -19.0011l 4.53543, -14.2604l 4.53543, -8.5855l 4.53543, -2.33158l 4.53543, 4.08168l 4.53543, 10.2166l 4.53543, 15.6668l 4.53543, 20.1019l 4.53543, 23.3003l 4.53543, 25.1654l 4.53543, 25.7254l 4.53543, 25.116"
 fill="none" stroke="#c10020" stroke-width="2"/>
<path d="M281.697,215.643l 4.53543, 23.552l 4.53543, 21.2935l 4.53543, 18.6108l 4.53543, 15.7554l 4.53543, 12.9383l 4.53543, 10.318l 4.53543, 7.9979l 4.53543, 6.03011l 4.53543, 4.42482l 4.53543, 3.16152l 4.53543, 2.20039l 4.53543, 1.49228l 4.53543,
 0.986452l 4.53543, 0.635743l 4.53543, 0.399539l 4.53543, 0.244901l 4.53543, 0.146435l 4.53543, 0.0854246l 4.53543, 0.0486252l 4.53543, 0.0572988h 131.528" fill="none" stroke="#c10020" stroke-width="2"/>
<path d="M503.933,346.022h 4.53543" fill="none" stroke="#c10020" stroke-width="2"/>
<rect x="351.996" y="24.9905" width="204.094" height="76.8938" fill="white"/>
<path d="M351.996,101.884h 204.094" fill="none" stroke="black"/>
<path d="M556.091,101.884v -76.8938" fill="none" stroke="black"/>
<path d="M556.091,24.9905h -204.094" fill="none" stroke="black"/>
<path d="M351.996,24.9905v 76.8938" fill="none" stroke="black"/>
<text xml:space="preserve" x="377.638" y="39.0986" fill="black" font-size="16.7253" font-family="Helvetica"> / ndf </text>
<text xml:space="preserve" x="371.122" y="34.2112" fill="black" font-size="11.3169" font-family="Helvetica">2</text>
<text xml:space="preserve" x="362.162" y="39.0986" fill="black" font-size="16.7253" font-family="Times">&#0967;</text>
<text xml:space="preserve" x="468.868" y="40.7277" fill="black" font-size="16.7253" font-family="Helvetica"> 7.085 / 10</text>
<text xml:space="preserve" x="362.162" y="60.2769" fill="black" font-size="16.7253" font-family="Helvetica">Constant </text>
<text xml:space="preserve" x="509.596" y="60.2769" fill="black" font-size="16.7253" font-family="Helvetica"> 3.85</text>
<text xml:space="preserve" x="500.636" y="60.2769" fill="black" font-size="16.7253" font-family="Times">&#0177;</text>
<text xml:space="preserve" x="450.133" y="60.2769" fill="black" font-size="16.7253" font-family="Helvetica"> 45.85 </text>
<text xml:space="preserve" x="362.162" y="79.0117" fill="black" font-size="16.7253" font-family="Helvetica">Mean     </text>
<text xml:space="preserve" x="518.556" y="79.0117" fill="black" font-size="16.7253" font-family="Helvetica"> 2.8</text>
<text xml:space="preserve" x="509.596" y="79.0117" fill="black" font-size="16.7253" font-family="Times">&#0177;</text>
<text xml:space="preserve" x="459.094" y="79.0117" fill="black" font-size="16.7253" font-family="Helvetica"> 248.2 </text>
<text xml:space="preserve" x="362.162" y="96.9318" fill="black" font-size="16.7253" font-family="Helvetica">Sigma    </text>
<text xml:space="preserve" x="512.039" y="98.561" fill="black" font-size="16.7253" font-family="Helvetica"> 2.11</text>
<text xml:space="preserve" x="503.079" y="98.561" fill="black" font-size="16.7253" font-family="Times">&#0177;</text>
<text xml:space="preserve" x="455.021" y="98.561" fill="black" font-size="16.7253" font-family="Helvetica"> 39.51 </text>
<path d="M57.1929,346.022h 211.654v -12.2054h 15.1181v -6.10269h 15.1181v -48.8215h 15.1181v -18.3081h 15.1181v -18.3081h 15.1181v 61.0269h 15.1181v 12.2054h 15.1181v 30.5134h 136.063" fill="none" stroke="#cea262"/>
<path d="M59.4606,346.022h 176.882l 4.53543, -0.055921l 4.53543, -0.0621943l 4.53543, -0.121661l 4.53543, -0.228042l 4.53543, -0.409419l 4.53543, -0.703743l 4.53543, -1.15747l 4.53543, -1.82038l 4.53543, -2.73527l 4.53543, -3.92245" fill="none"
 stroke="#cea262" stroke-width="2"/>
<path d="M281.697,334.806l 4.53543, -5.36085l 4.53543, -6.97001l 4.53543, -8.59952l 4.53543, -10.033l 4.53543, -11.0114l 4.53543, -11.2769l 4.53543, -10.6284l 4.53543, -8.9779l 4.53543, -6.38993l 4.53543, -3.08927l 4.53543, 0.568538l 4.53543,
 4.16002l 4.53543, 7.27444l 4.53543, 9.59105l 4.53543, 10.9329l 4.53543, 11.285l 4.53543, 10.7753l 4.53543, 9.62845l 4.53543, 8.1085l 4.53543, 6.465l 4.53543, 4.89563l 4.53543, 3.52892l 4.53543, 2.42547l 4.53543, 1.59157l 4.53543, 0.998074l 4.53543,
 0.598622l 4.53543, 0.343616l 4.53543, 0.188865l 4.53543, 0.0994434l 4.53543, 0.0501772l 4.53543, 0.044089h 81.6378" fill="none" stroke="#cea262" stroke-width="2"/>
<path d="M503.933,346.022h 4.53543" fill="none" stroke="#cea262" stroke-width="2"/>
<rect x="351.996" y="24.9905" width="204.094" height="76.8938" fill="white"/>
<path d="M351.996,101.884h 204.094" fill="none" stroke="black"/>
<path d="M556.091,101.884v -76.8938" fill="none" stroke="black"/>
<path d="M556.091,24.9905h -204.094" fill="none" stroke="black"/>
<path d="M351.996,24.9905v 76.8938" fill="none" stroke="black"/>
<text xml:space="preserve" x="377.638" y="39.0986" fill="black" font-size="16.7253" font-family="Helvetica"> / ndf </text>
<text xml:space="preserve" x="371.122" y="34.2112" fill="black" font-size="11.3169" font-family="Helvetica">2</text>
<text xml:space="preserve" x="362.162" y="39.0986" fill="black" font-size="16.7253" font-family="Times">&#0967;</text>
<text xml:space="preserve" x="477.828" y="40.7277" fill="black" font-size="16.7253" font-family="Helvetica"> 2.346 / 4</text>
<text xml:space="preserve" x="362.162" y="60.2769" fill="black" font-size="16.7253" font-family="Helvetica">Constant </text>
<text xml:space="preserve" x="509.596" y="60.2769" fill="black" font-size="16.7253" font-family="Helvetica"> 2.84</text>
<text xml:space="preserve" x="500.636" y="60.2769" fill="black" font-size="16.7253" font-family="Times">&#0177;</text>
<text xml:space="preserve" x="450.133" y="60.2769" fill="black" font-size="16.7253" font-family="Helvetica"> 15.37 </text>
<text xml:space="preserve" x="362.162" y="79.0117" fill="black" font-size="16.7253" font-family="Helvetica">Mean     </text>
<text xml:space="preserve" x="518.556" y="79.0117" fill="black" font-size="16.7253" font-family="Helvetica"> 4.5</text>
<text xml:space="preserve" x="509.596" y="79.0117" fill="black" font-size="16.7253" font-family="Times">&#0177;</text>
<text xml:space="preserve" x="461.537" y="79.0117" fill="black" font-size="16.7253" font-family="Helvetica"> 359.1 </text>
<text xml:space="preserve" x="362.162" y="96.9318" fill="black" font-size="16.7253" font-family="Helvetica">Sigma    </text>
<text xml:space="preserve" x="509.596" y="98.561" fill="black" font-size="16.7253" font-family="Helvetica"> 4.54</text>
<text xml:space="preserve" x="500.636" y="98.561" fill="black" font-size="16.7253" font-family="Times">&#0177;</text>
<text xml:space="preserve" x="450.133" y="98.561" fill="black" font-size="16.7253" font-family="Helvetica"> 30.12 </text>
<path d="M57.1929,339.92h 15.1181v 6.10269h 60.4724v -6.10269h 15.1181v 6.10269h 30.2362v -6.10269h 15.1181v -24.4107h 15.1181v -36.6161h 15.1181v -48.8215h 15.1181v 24.4107h 15.1181v 6.10269h 15.1181v -6.10269h 30.2362v 54.9242h 15.1181v -12.2054h
 15.1181v 36.6161h 15.1181v 6.10269h 15.1181v 6.10269h 151.181" fill="none" stroke="#817066"/>
<path d="M59.4606,346.022h 49.8898l 4.53543, -0.0384026l 4.53543, -0.0236858l 4.53543, -0.0367962l 4.53543, -0.0562523l 4.53543, -0.0846192l 4.53543, -0.125243l 4.53543, -0.182373l 4.53543, -0.261243l 4.53543, -0.368095l 4.53543, -0.510096l 4.53543,
 -0.695124l 4.53543, -0.931372l 4.53543, -1.22675l 4.53543, -1.5881l 4.53543, -2.02013l 4.53543, -2.52434l 4.53543, -3.0977l 4.53543, -3.73158l 4.53543, -4.41074l 4.53543, -5.11278l 4.53543, -5.80817l 4.53543, -6.46097l 4.53543, -7.03037l 4.53543,
 -7.47297l 4.53543, -7.74587l 4.53543, -7.81016l 4.53543, -7.63464l 4.53543, -7.19932l 4.53543, -6.49831l 4.53543, -5.5417l 4.53543, -4.35613l 4.53543, -2.98389l 4.53543, -1.48054l 4.53543, 0.088819l 4.53543, 1.6542l 4.53543, 3.14591l 4.53543,
 4.49971l 4.53543, 5.66136" fill="none" stroke="#817066" stroke-width="2"/>
<path d="M281.697,256.024l 4.53543, 6.59025l 4.53543, 7.26157l 4.53543, 7.66709l 4.53543, 7.8144l 4.53543, 7.72492l 4.53543, 7.43088l 4.53543, 6.97184l 4.53543, 6.39092l 4.53543, 5.73136l 4.53543, 5.03354l 4.53543, 4.33273l 4.53543, 3.65768l 4.53543,
 3.02997l 4.53543, 2.46407l 4.53543, 1.96793l 4.53543, 1.54399l 4.53543, 1.19035l 4.53543, 0.901987l 4.53543, 0.671907l 4.53543, 0.492126l 4.53543, 0.354461l 4.53543, 0.251099l 4.53543, 0.174968l 4.53543, 0.119937l 4.53543, 0.080886l 4.53543,
 0.0536728l 4.53543, 0.0350454l 4.53543, 0.0225182l 4.53543, 0.0363482h 90.7087" fill="none" stroke="#817066" stroke-width="2"/>
<path d="M503.933,346.022h 4.53543" fill="none" stroke="#817066" stroke-width="2"/>
<rect x="351.996" y="24.9905" width="204.094" height="76.8938" fill="white"/>
<path d="M351.996,101.884h 204.094" fill="none" stroke="black"/>
<path d="M556.091,101.884v -76.8938" fill="none" stroke="black"/>
<path d="M556.091,24.9905h -204.094" fill="none" stroke="black"/>
<path d="M351.996,24.9905v 76.8938" fill="none" stroke="black"/>
<text xml:space="preserve" x="377.638" y="39.0986" fill="black" font-size="16.7253" font-family="Helvetica"> / ndf </text>
<text xml:space="preserve" x="371.122" y="34.2112" fill="black" font-size="11.3169" font-family="Helvetica">2</text>
<text xml:space="preserve" x="362.162" y="39.0986" fill="black" font-size="16.7253" font-family="Times">&#0967;</text>
<text xml:space="preserve" x="471.312" y="40.7277" fill="black" font-size="16.7253" font-family="Helvetica"> 9.865 / 11</text>
<text xml:space="preserve" x="362.162" y="60.2769" fill="black" font-size="16.7253" font-family="Helvetica">Constant </text>
<text xml:space="preserve" x="509.596" y="60.2769" fill="black" font-size="16.7253" font-family="Helvetica"> 2.09</text>
<text xml:space="preserve" x="500.636" y="60.2769" fill="black" font-size="16.7253" font-family="Times">&#0177;</text>
<text xml:space="preserve" x="450.133" y="60.2769" fill="black" font-size="16.7253" font-family="Helvetica"> 17.24 </text>
<text xml:space="preserve" x="362.162" y="79.0117" fill="black" font-size="16.7253" font-family="Helvetica">Mean     </text>
<text xml:space="preserve" x="521" y="79.0117" fill="black" font-size="16.7253" font-family="Helvetica"> 5.1</text>
<text xml:space="preserve" x="512.039" y="79.0117" fill="black" font-size="16.7253" font-family="Times">&#0177;</text>
<text xml:space="preserve" x="461.537" y="79.0117" fill="black" font-size="16.7253" font-family="Helvetica"> 269.7 </text>
<text xml:space="preserve" x="362.162" y="96.9318" fill="black" font-size="16.7253" font-family="Helvetica">Sigma    </text>
<text xml:space="preserve" x="509.596" y="98.561" fill="black" font-size="16.7253" font-family="Helvetica"> 3.83</text>
<text xml:space="preserve" x="500.636" y="98.561" fill="black" font-size="16.7253" font-family="Times">&#0177;</text>
<text xml:space="preserve" x="450.133" y="98.561" fill="black" font-size="16.7253" font-family="Helvetica"> 48.92 </text>
<path d="M57.1929,346.022h 90.7087v -6.10269h 30.2362v -6.10269h 15.1181v -30.5134h 15.1181v -24.4107h 15.1181v -54.9242h 15.1181v -79.3349h 15.1181v 54.9242h 15.1181v 18.3081h 15.1181v 42.7188h 15.1181v 48.8215h 15.1181v -18.3081h 15.1181v 48.8215h
 15.1181v 6.10269h 166.299" fill="none" stroke="#007d34"/>
<path d="M59.4606,346.022h 58.9606l 4.53543, -0.0360984l 4.53543, -0.0275033l 4.53543, -0.0462694l 4.53543, -0.0762226l 4.53543, -0.122945l 4.53543, -0.194147l 4.53543, -0.300113l 4.53543, -0.454061l 4.53543, -0.672278l 4.53543, -0.973886l 4.53543,
 -1.38007l 4.53543, -1.9126l 4.53543, -2.59151l 4.53543, -3.43196l 4.53543, -4.4404l 4.53543, -5.61031l 4.53543, -6.91814l 4.53543, -8.32001l 4.53543, -9.75015l 4.53543, -11.1217l 4.53543, -12.3304l 4.53543, -13.2619l 4.53543, -13.8014l 4.53543,
 -13.8462l 4.53543, -13.3181l 4.53543, -12.1758l 4.53543, -10.4233l 4.53543, -8.11495l 4.53543, -5.35392l 4.53543, -2.28519l 4.53543, 0.917005l 4.53543, 4.06549l 4.53543, 6.97833l 4.53543, 9.49617l 4.53543, 11.4967l 4.53543, 12.9042" fill="none"
 stroke="#007d34" stroke-width="2"/>
<path d="M281.697,228.589l 4.53543, 13.6932l 4.53543, 13.8865l 4.53543, 13.5477l 4.53543, 12.7707l 4.53543, 11.6667l 4.53543, 10.3514l 4.53543, 8.93467l 4.53543, 7.51134l 4.53543, 6.15653l 4.53543, 4.92344l 4.53543, 3.84403l 4.53543, 2.93164l
 4.53543, 2.18488l 4.53543, 1.59181l 4.53543, 1.13405l 4.53543, 0.790249l 4.53543, 0.538746l 4.53543, 0.359398l 4.53543, 0.234647l 4.53543, 0.149956l 4.53543, 0.0938164l 4.53543, 0.0574663l 4.53543, 0.0344676l 4.53543, 0.0461381h 113.386" fill="none"
 stroke="#007d34" stroke-width="2"/>
<path d="M503.933,346.022h 4.53543" fill="none" stroke="#007d34" stroke-width="2"/>
<rect x="351.996" y="24.9905" width="204.094" height="76.8938" fill="white"/>
<path d="M351.996,101.884h 204.094" fill="none" stroke="black"/>
<path d="M556.091,101.884v -76.8938" fill="none" stroke="black"/>
<path d="M556.091,24.9905h -204.094" fill="none" stroke="black"/>
<path d="M351.996,24.9905v 76.8938" fill="none" stroke="black"/>
<text xml:space="preserve" x="377.638" y="39.0986" fill="black" font-size="16.7253" font-family="Helvetica"> / ndf </text>
<text xml:space="preserve" x="371.122" y="34.2112" fill="black" font-size="11.3169" font-family="Helvetica">2</text>
<text xml:space="preserve" x="362.162" y="39.0986" fill="black" font-size="16.7253" font-family="Times">&#0967;</text>
<text xml:space="preserve" x="468.868" y="40.7277" fill="black" font-size="16.7253" font-family="Helvetica"> 7.112 / 10</text>
<text xml:space="preserve" x="362.162" y="60.2769" fill="black" font-size="16.7253" font-family="Helvetica">Constant </text>
<text xml:space="preserve" x="512.039" y="60.2769" fill="black" font-size="16.7253" font-family="Helvetica"> 2.91</text>
<text xml:space="preserve" x="503.079" y="60.2769" fill="black" font-size="16.7253" font-family="Times">&#0177;</text>
<text xml:space="preserve" x="452.577" y="60.2769" fill="black" font-size="16.7253" font-family="Helvetica"> 26.77 </text>
<text xml:space="preserve" x="362.162" y="79.0117" fill="black" font-size="16.7253" font-family="Helvetica">Mean     </text>
<text xml:space="preserve" x="518.556" y="79.0117" fill="black" font-size="16.7253" font-family="Helvetica"> 3.7</text>
<text xml:space="preserve" x="509.596" y="79.0117" fill="black" font-size="16.7253" font-family="Times">&#0177;</text>
<text xml:space="preserve" x="459.094" y="79.0117" fill="black" font-size="16.7253" font-family="Helvetica"> 262.3 </text>
<text xml:space="preserve" x="362.162" y="96.9318" fill="black" font-size="16.7253" font-family="Helvetica">Sigma    </text>
<text xml:space="preserve" x="509.596" y="98.561" fill="black" font-size="16.7253" font-family="Helvetica"> 3.05</text>
<text xml:space="preserve" x="500.636" y="98.561" fill="black" font-size="16.7253" font-family="Times">&#0177;</text>
<text xml:space="preserve" x="450.133" y="98.561" fill="black" font-size="16.7253" font-family="Helvetica"> 42.72 </text>
<path d="M57.1929,346.022h 90.7087v -12.2054h 15.1181v 6.10269h 15.1181v -12.2054h 15.1181v -36.6161h 15.1181v -48.8215h 15.1181v -48.8215h 15.1181v -140.362h 15.1181v 36.6161h 15.1181v 85.4376h 15.1181v 18.3081h 15.1181v 79.3349h 15.1181v 24.4107h
 15.1181v 42.7188h 30.2362v 6.10269h 151.181" fill="none" stroke="#f6768e"/>
<path d="M59.4606,346.022h 58.9606l 4.53543, -0.0337119l 4.53543, -0.0272048l 4.53543, -0.0469426l 4.53543, -0.079272l 4.53543, -0.130998l 4.53543, -0.211812l 4.53543, -0.335066l 4.53543, -0.518494l 4.53543, -0.784738l 4.53543, -1.16144l 4.53543,
 -1.68064l 4.53543, -2.37716l 4.53543, -3.28573l 4.53543, -4.43668l 4.53543, -5.85031l 4.53543, -7.53011l 4.53543, -9.45575l 4.53543, -11.5766l 4.53543, -13.8073l 4.53543, -16.0264l 4.53543, -18.0803l 4.53543, -19.7911l 4.53543, -20.9717l 4.53543,
 -21.4436l 4.53543, -21.0583l 4.53543, -19.7184l 4.53543, -17.3951l 4.53543, -14.1393l 4.53543, -10.0844l 4.53543, -5.43835l 4.53543, -0.466487l 4.53543, 4.53355l 4.53543, 9.26129l 4.53543, 13.4434l 4.53543, 16.8596l 4.53543, 19.3619" fill="none"
 stroke="#f6768e" stroke-width="2"/>
<path d="M281.697,161.539l 4.53543, 20.8841l 4.53543, 21.4406l 4.53543, 21.1175l 4.53543, 20.0553l 4.53543, 18.4285l 4.53543, 16.4243l 4.53543, 14.2233l 4.53543, 11.9846l 4.53543, 9.83586l 4.53543, 7.86926l 4.53543, 6.14156l 4.53543, 4.67829l
 4.53543, 3.47982l 4.53543, 2.52843l 4.53543, 1.7952l 4.53543, 1.24583l 4.53543, 0.845267l 4.53543, 0.560796l 4.53543, 0.36389l 4.53543, 0.230971l 4.53543, 0.143426l 4.53543, 0.0871427l 4.53543, 0.0518105l 4.53543, 0.0301459l 4.53543, 0.0376736h
 108.85" fill="none" stroke="#f6768e" stroke-width="2"/>
<path d="M503.933,346.022h 4.53543" fill="none" stroke="#f6768e" stroke-width="2"/>
<rect x="351.996" y="24.9905" width="204.094" height="76.8938" fill="white"/>
<path d="M351.996,101.884h 204.094" fill="none" stroke="black"/>
<path d="M556.091,101.884v -76.8938" fill="none" stroke="black"/>
<path d="M556.091,24.9905h -204.094" fill="none" stroke="black"/>
<path d="M351.996,24.9905v 76.8938" fill="none" stroke="black"/>
<text xml:space="preserve" x="377.638" y="39.0986" fill="black" font-size="16.7253" font-family="Helvetica"> / ndf </text>
<text xml:space="preserve" x="371.122" y="34.2112" fill="black" font-size="11.3169" font-family="Helvetica">2</text>
<text xml:space="preserve" x="362.162" y="39.0986" fill="black" font-size="16.7253" font-family="Times">&#0967;</text>
<text xml:space="preserve" x="471.312" y="40.7277" fill="black" font-size="16.7253" font-family="Helvetica"> 7.579 / 11</text>
<text xml:space="preserve" x="362.162" y="60.2769" fill="black" font-size="16.7253" font-family="Helvetica">Constant </text>
<text xml:space="preserve" x="518.556" y="60.2769" fill="black" font-size="16.7253" font-family="Helvetica"> 3.5</text>
<text xml:space="preserve" x="509.596" y="60.2769" fill="black" font-size="16.7253" font-family="Times">&#0177;</text>
<text xml:space="preserve" x="463.166" y="60.2769" fill="black" font-size="16.7253" font-family="Helvetica">  40.7 </text>
<text xml:space="preserve" x="362.162" y="79.0117" fill="black" font-size="16.7253" font-family="Helvetica">Mean     </text>
<text xml:space="preserve" x="518.556" y="79.0117" fill="black" font-size="16.7253" font-family="Helvetica"> 2.9</text>
<text xml:space="preserve" x="509.596" y="79.0117" fill="black" font-size="16.7253" font-family="Times">&#0177;</text>
<text xml:space="preserve" x="459.094" y="79.0117" fill="black" font-size="16.7253" font-family="Helvetica"> 264.6 </text>
<text xml:space="preserve" x="362.162" y="96.9318" fill="black" font-size="16.7253" font-family="Helvetica">Sigma    </text>
<text xml:space="preserve" x="509.596" y="98.561" fill="black" font-size="16.7253" font-family="Helvetica"> 2.19</text>
<text xml:space="preserve" x="500.636" y="98.561" fill="black" font-size="16.7253" font-family="Times">&#0177;</text>
<text xml:space="preserve" x="450.133" y="98.561" fill="black" font-size="16.7253" font-family="Helvetica"> 42.07 </text>
<path d="M57.1929,346.022h 453.543" fill="none" stroke="black"/>
<path d="M57.1929,336.795v 9.22726" fill="none" stroke="black"/>
<path d="M72.311,341.409v 4.61363" fill="none" stroke="black"/>
<path d="M87.4291,341.409v 4.61363" fill="none" stroke="black"/>
<path d="M102.547,341.409v 4.61363" fill="none" stroke="black"/>
<path d="M117.665,341.409v 4.61363" fill="none" stroke="black"/>
<path d="M132.783,336.795v 9.22726" fill="none" stroke="black"/>
<path d="M147.902,341.409v 4.61363" fill="none" stroke="black"/>
<path d="M163.02,341.409v 4.61363" fill="none" stroke="black"/>
<path d="M178.138,341.409v 4.61363" fill="none" stroke="black"/>
<path d="M193.256,341.409v 4.61363" fill="none" stroke="black"/>
<path d="M208.374,336.795v 9.22726" fill="none" stroke="black"/>
<path d="M223.492,341.409v 4.61363" fill="none" stroke="black"/>
<path d="M238.61,341.409v 4.61363" fill="none" stroke="black"/>
<path d="M253.728,341.409v 4.61363" fill="none" stroke="black"/>
<path d="M268.846,341.409v 4.61363" fill="none" stroke="black"/>
<path d="M283.965,336.795v 9.22726" fill="none" stroke="black"/>
<path d="M299.083,341.409v 4.61363" fill="none" stroke="black"/>
<path d="M314.201,341.409v 4.61363" fill="none" stroke="black"/>
<path d="M329.319,341.409v 4.61363" fill="none" stroke="black"/>
<path d="M344.437,341.409v 4.61363" fill="none" stroke="black"/>
<path d="M359.555,336.795v 9.22726" fill="none" stroke="black"/>
<path d="M374.673,341.409v 4.61363" fill="none" stroke="black"/>
<path d="M389.791,341.409v 4.61363" fill="none" stroke="black"/>
<path d="M404.909,341.409v 4.61363" fill="none" stroke="black"/>
<path d="M420.028,341.409v 4.61363" fill="none" stroke="black"/>
<path d="M435.146,336.795v 9.22726" fill="none" stroke="black"/>
<path d="M450.264,341.409v 4.61363" fill="none" stroke="black"/>
<path d="M465.382,341.409v 4.61363" fill="none" stroke="black"/>
<path d="M480.5,341.409v 4.61363" fill="none" stroke="black"/>
<path d="M495.618,341.409v 4.61363" fill="none" stroke="black"/>
<path d="M510.736,336.795v 9.22726" fill="none" stroke="black"/>
<path d="M57.1929,346.022v -307.575" fill="none" stroke="black"/>
<path d="M70.7992,346.022h -13.6063" fill="none" stroke="black"/>
<path d="M63.9961,333.817h -6.80315" fill="none" stroke="black"/>
<path d="M63.9961,321.612h -6.80315" fill="none" stroke="black"/>
<path d="M63.9961,309.406h -6.80315" fill="none" stroke="black"/>
<path d="M63.9961,297.201h -6.80315" fill="none" stroke="black"/>
<path d="M70.7992,284.995h -13.6063" fill="none" stroke="black"/>
<path d="M63.9961,272.79h -6.80315" fill="none" stroke="black"/>
<path d="M63.9961,260.585h -6.80315" fill="none" stroke="black"/>
<path d="M63.9961,248.379h -6.80315" fill="none" stroke="black"/>
<path d="M63.9961,236.174h -6.80315" fill="none" stroke="black"/>
<path d="M70.7992,223.969h -13.6063" fill="none" stroke="black"/>
<path d="M63.9961,211.763h -6.80315" fill="none" stroke="black"/>
<path d="M63.9961,199.558h -6.80315" fill="none" stroke="black"/>
<path d="M63.9961,187.352h -6.80315" fill="none" stroke="black"/>
<path d="M63.9961,175.147h -6.80315" fill="none" stroke="black"/>
<path d="M70.7992,162.942h -13.6063" fill="none" stroke="black"/>
<path d="M63.9961,150.736h -6.80315" fill="none" stroke="black"/>
<path d="M63.9961,138.531h -6.80315" fill="none" stroke="black"/>
<path d="M63.9961,126.326h -6.80315" fill="none" stroke="black"/>
<path d="M63.9961,114.12h -6.80315" fill="none" stroke="black"/>
<path d="M70.7992,101.915h -13.6063" fill="none" stroke="black"/>
<path d="M63.9961,89.7095h -6.80315" fill="none" stroke="black"/>
<path d="M63.9961,77.5041h -6.80315" fill="none" stroke="black"/>
<path d="M63.9961,65.2987h -6.80315" fill="none" stroke="black"/>
<path d="M63.9961,53.0934h -6.80315" fill="none" stroke="black"/>
<path d="M70.7992,40.888h -13.6063" fill="none" stroke="black"/>
<path d="M70.7992,40.888h -13.6063" fill="none" stroke="black"/>
<rect x="58.0145" y="91.0456" width="170.079" height="80.7385" fill="white"/>
<path d="M58.0145,171.784h 170.079" fill="none" stroke="black"/>
<path d="M228.093,171.784v -80.7385" fill="none" stroke="black"/>
<path d="M228.093,91.0456h -170.079" fill="none" stroke="black"/>
<path d="M58.0145,91.0456v 80.7385" fill="none" stroke="black"/>
<text xml:space="preserve" x="99.8755" y="96.9318" fill="black" font-size="7.22567" font-family="Helvetica">vop 68.93</text>
<path d="M64.3925,98.6709h 29.7638v -6.27966h -29.7638z" fill="white"/>
<path d="M64.3925,95.531h 29.7638" fill="none" stroke="#ffb300"/>
<g stroke="black" stroke-width="1" fill="none">
<line x1="78.2744" y1="95.531" x2="79.2744" y2="95.531"/>
</g>
<text xml:space="preserve" x="99.8755" y="105.892" fill="black" font-size="7.22567" font-family="Helvetica">vop 68.98</text>
<path d="M64.3925,107.642h 29.7638v -6.27966h -29.7638z" fill="white"/>
<path d="M64.3925,104.502h 29.7638" fill="none" stroke="#803e75"/>
<g stroke="black" stroke-width="1" fill="none">
<line x1="78.2744" y1="104.502" x2="79.2744" y2="104.502"/>
</g>
<text xml:space="preserve" x="99.8755" y="114.852" fill="black" font-size="7.22567" font-family="Helvetica">vop 69.03</text>
<path d="M64.3925,116.613h 29.7638v -6.27966h -29.7638z" fill="white"/>
<path d="M64.3925,113.473h 29.7638" fill="none" stroke="#ff6800"/>
<g stroke="black" stroke-width="1" fill="none">
<line x1="78.2744" y1="113.473" x2="79.2744" y2="113.473"/>
</g>
<text xml:space="preserve" x="99.8755" y="123.812" fill="black" font-size="7.22567" font-family="Helvetica">vop 69.08</text>
<path d="M64.3925,125.584h 29.7638v -6.27966h -29.7638z" fill="white"/>
<path d="M64.3925,122.444h 29.7638" fill="none" stroke="#a6bdd7"/>
<g stroke="black" stroke-width="1" fill="none">
<line x1="78.2744" y1="122.444" x2="79.2744" y2="122.444"/>
</g>
<text xml:space="preserve" x="99.8755" y="132.772" fill="black" font-size="7.22567" font-family="Helvetica">vop 69.13</text>
<path d="M64.3925,134.555h 29.7638v -6.27966h -29.7638z" fill="white"/>
<path d="M64.3925,131.415h 29.7638" fill="none" stroke="#c10020"/>
<g stroke="black" stroke-width="1" fill="none">
<line x1="78.2744" y1="131.415" x2="79.2744" y2="131.415"/>
</g>
<text xml:space="preserve" x="99.8755" y="141.732" fill="black" font-size="7.22567" font-family="Helvetica">vop 69.23</text>
<path d="M64.3925,143.526h 29.7638v -6.27966h -29.7638z" fill="white"/>
<path d="M64.3925,140.386h 29.7638" fill="none" stroke="#cea262"/>
<g stroke="black" stroke-width="1" fill="none">
<line x1="78.2744" y1="140.386" x2="79.2744" y2="140.386"/>
</g>
<text xml:space="preserve" x="99.8755" y="150.692" fill="black" font-size="7.22567" font-family="Helvetica">vop 69.26</text>
<path d="M64.3925,152.497h 29.7638v -6.27966h -29.7638z" fill="white"/>
<path d="M64.3925,149.357h 29.7638" fill="none" stroke="#817066"/>
<g stroke="black" stroke-width="1" fill="none">
<line x1="78.2744" y1="149.357" x2="79.2744" y2="149.357"/>
</g>
<text xml:space="preserve" x="99.8755" y="159.652" fill="black" font-size="7.22567" font-family="Helvetica">vop 69.33</text>
<path d="M64.3925,161.468h 29.7638v -6.27966h -29.7638z" fill="white"/>
<path d="M64.3925,158.328h 29.7638" fill="none" stroke="#007d34"/>
<g stroke="black" stroke-width="1" fill="none">
<line x1="78.2744" y1="158.328" x2="79.2744" y2="158.328"/>
</g>
<text xml:space="preserve" x="99.8755" y="168.613" fill="black" font-size="7.22567" font-family="Helvetica">vop 69.36</text>
<path d="M64.3925,170.438h 29.7638v -6.27966h -29.7638z" fill="white"/>
<path d="M64.3925,167.299h 29.7638" fill="none" stroke="#f6768e"/>
<g stroke="black" stroke-width="1" fill="none">
<line x1="78.2744" y1="167.299" x2="79.2744" y2="167.299"/>
</g>
<text xml:space="preserve" x="148.749" y="17.9202" fill="black" font-size="18.7938" font-family="Helvetica">distributions of mpv for each vop</text></svg>
