<?xml version="1.0" standalone="no"?>
<svg width="567.429" height="384.969" viewBox="0 0 567.429 384.969" xmlns="http://www.w3.org/2000/svg" shape-rendering="crispEdges">
<title>
./new_vop/sector/sector1.svg
</title>
<desc>
Creator: ROOT Version 6.24/00
CreationDate: Thu Jun 24 01:25:22 2021</desc>
<defs>
</defs>
<rect x="0.5" y="0" width="566.929" height="384.469" fill="white"/>
<rect x="57.1929" y="38.4469" width="453.543" height="307.575" fill="white"/>
<rect x="57.1929" y="38.4469" width="453.543" height="307.575" fill="none" stroke="black"/>
<path d="M57.1929,346.022h 136.063v -22.533h 30.2362v -90.132h 15.1181v -90.132h 30.2362v -67.599h 15.1181v -22.533h 15.1181v 67.599h 15.1181v 135.198h 15.1181v 22.533h 15.1181v 67.599h 166.299" fill="none" stroke="#000099"/>
<path d="M59.4606,346.022h 81.6378l 4.53543, -0.0339269l 4.53543, -0.0279789l 4.53543, -0.0487377l 4.53543, -0.0830556l 4.53543, -0.138452l 4.53543, -0.225743l 4.53543, -0.359962l 4.53543, -0.561267l 4.53543, -0.85563l 4.53543, -1.27506l 4.53543,
 -1.85702l 4.53543, -2.64266l 4.53543, -3.67358l 4.53543, -4.98682l 4.53543, -6.6082l 4.53543, -8.54427l 4.53543, -10.7737l 4.53543, -13.2395l 4.53543, -15.8431l 4.53543, -18.4427l 4.53543, -20.8573l 4.53543, -22.8763l 4.53543, -24.2769l 4.53543,
 -24.8461l 4.53543, -24.4064l 4.53543, -22.8409l 4.53543, -20.1154l 4.53543, -16.2914l 4.53543, -11.5291l 4.53543, -6.07823l 4.53543, -0.256417" fill="none" stroke="#ff0000" stroke-width="2"/>
<path d="M281.697,61.4265l 4.53543, 5.58116l 4.53543, 11.0777l 4.53543, 15.911l 4.53543, 19.8245l 4.53543, 22.6496l 4.53543, 24.3159l 4.53543, 24.8501l 4.53543, 24.3624l 4.53543, 23.026l 4.53543, 21.0519l 4.53543, 18.6631l 4.53543, 16.0719l 4.53543,
 13.4624l 4.53543, 10.9801l 4.53543, 8.72726l 4.53543, 6.76435l 4.53543, 5.11548l 4.53543, 3.77622l 4.53543, 2.72208l 4.53543, 1.91671l 4.53543, 1.31869l 4.53543, 0.886671l 4.53543, 0.582777l 4.53543, 0.374489l 4.53543, 0.23531l 4.53543, 0.1446l
 4.53543, 0.0869104l 4.53543, 0.0510975l 4.53543, 0.0293896l 4.53543, 0.0357801h 86.1732" fill="none" stroke="#ff0000" stroke-width="2"/>
<path d="M503.933,346.022h 4.53543" fill="none" stroke="#ff0000" stroke-width="2"/>
<path d="M57.1929,346.022h 453.543" fill="none" stroke="black"/>
<path d="M57.1929,336.795v 9.22726" fill="none" stroke="black"/>
<path d="M72.311,341.409v 4.61363" fill="none" stroke="black"/>
<path d="M87.4291,341.409v 4.61363" fill="none" stroke="black"/>
<path d="M102.547,341.409v 4.61363" fill="none" stroke="black"/>
<path d="M117.665,341.409v 4.61363" fill="none" stroke="black"/>
<path d="M132.783,336.795v 9.22726" fill="none" stroke="black"/>
<path d="M147.902,341.409v 4.61363" fill="none" stroke="black"/>
<path d="M163.02,341.409v 4.61363" fill="none" stroke="black"/>
<path d="M178.138,341.409v 4.61363" fill="none" stroke="black"/>
<path d="M193.256,341.409v 4.61363" fill="none" stroke="black"/>
<path d="M208.374,336.795v 9.22726" fill="none" stroke="black"/>
<path d="M223.492,341.409v 4.61363" fill="none" stroke="black"/>
<path d="M238.61,341.409v 4.61363" fill="none" stroke="black"/>
<path d="M253.728,341.409v 4.61363" fill="none" stroke="black"/>
<path d="M268.846,341.409v 4.61363" fill="none" stroke="black"/>
<path d="M283.965,336.795v 9.22726" fill="none" stroke="black"/>
<path d="M299.083,341.409v 4.61363" fill="none" stroke="black"/>
<path d="M314.201,341.409v 4.61363" fill="none" stroke="black"/>
<path d="M329.319,341.409v 4.61363" fill="none" stroke="black"/>
<path d="M344.437,341.409v 4.61363" fill="none" stroke="black"/>
<path d="M359.555,336.795v 9.22726" fill="none" stroke="black"/>
<path d="M374.673,341.409v 4.61363" fill="none" stroke="black"/>
<path d="M389.791,341.409v 4.61363" fill="none" stroke="black"/>
<path d="M404.909,341.409v 4.61363" fill="none" stroke="black"/>
<path d="M420.028,341.409v 4.61363" fill="none" stroke="black"/>
<path d="M435.146,336.795v 9.22726" fill="none" stroke="black"/>
<path d="M450.264,341.409v 4.61363" fill="none" stroke="black"/>
<path d="M465.382,341.409v 4.61363" fill="none" stroke="black"/>
<path d="M480.5,341.409v 4.61363" fill="none" stroke="black"/>
<path d="M495.618,341.409v 4.61363" fill="none" stroke="black"/>
<path d="M510.736,336.795v 9.22726" fill="none" stroke="black"/>
<text xml:space="preserve" x="53.446" y="358.403" fill="black" font-size="12.8453" font-family="Helvetica">0</text>
<text xml:space="preserve" x="121.868" y="358.403" fill="black" font-size="12.8453" font-family="Helvetica">100</text>
<text xml:space="preserve" x="197.622" y="358.403" fill="black" font-size="12.8453" font-family="Helvetica">200</text>
<text xml:space="preserve" x="273.375" y="358.403" fill="black" font-size="12.8453" font-family="Helvetica">300</text>
<text xml:space="preserve" x="348.314" y="358.403" fill="black" font-size="12.8453" font-family="Helvetica">400</text>
<text xml:space="preserve" x="424.068" y="358.403" fill="black" font-size="12.8453" font-family="Helvetica">500</text>
<text xml:space="preserve" x="499.821" y="358.403" fill="black" font-size="12.8453" font-family="Helvetica">600</text>
<text xml:space="preserve" x="483.53" y="372.251" fill="black" font-size="12.8453" font-family="Helvetica">MPV</text>
<path d="M57.1929,346.022v -307.575" fill="none" stroke="black"/>
<path d="M70.7992,346.022h -13.6063" fill="none" stroke="black"/>
<path d="M63.9961,334.756h -6.80315" fill="none" stroke="black"/>
<path d="M63.9961,323.489h -6.80315" fill="none" stroke="black"/>
<path d="M63.9961,312.223h -6.80315" fill="none" stroke="black"/>
<path d="M70.7992,300.956h -13.6063" fill="none" stroke="black"/>
<path d="M63.9961,289.69h -6.80315" fill="none" stroke="black"/>
<path d="M63.9961,278.423h -6.80315" fill="none" stroke="black"/>
<path d="M63.9961,267.157h -6.80315" fill="none" stroke="black"/>
<path d="M70.7992,255.89h -13.6063" fill="none" stroke="black"/>
<path d="M63.9961,244.624h -6.80315" fill="none" stroke="black"/>
<path d="M63.9961,233.357h -6.80315" fill="none" stroke="black"/>
<path d="M63.9961,222.091h -6.80315" fill="none" stroke="black"/>
<path d="M70.7992,210.824h -13.6063" fill="none" stroke="black"/>
<path d="M63.9961,199.558h -6.80315" fill="none" stroke="black"/>
<path d="M63.9961,188.291h -6.80315" fill="none" stroke="black"/>
<path d="M63.9961,177.025h -6.80315" fill="none" stroke="black"/>
<path d="M70.7992,165.758h -13.6063" fill="none" stroke="black"/>
<path d="M63.9961,154.492h -6.80315" fill="none" stroke="black"/>
<path d="M63.9961,143.225h -6.80315" fill="none" stroke="black"/>
<path d="M63.9961,131.959h -6.80315" fill="none" stroke="black"/>
<path d="M70.7992,120.692h -13.6063" fill="none" stroke="black"/>
<path d="M63.9961,109.426h -6.80315" fill="none" stroke="black"/>
<path d="M63.9961,98.1593h -6.80315" fill="none" stroke="black"/>
<path d="M63.9961,86.8929h -6.80315" fill="none" stroke="black"/>
<path d="M70.7992,75.6264h -13.6063" fill="none" stroke="black"/>
<path d="M70.7992,75.6264h -13.6063" fill="none" stroke="black"/>
<path d="M63.9961,64.3599h -6.80315" fill="none" stroke="black"/>
<path d="M63.9961,53.0934h -6.80315" fill="none" stroke="black"/>
<path d="M63.9961,41.8269h -6.80315" fill="none" stroke="black"/>
<text xml:space="preserve" x="47.7441" y="350.258" fill="black" font-size="12.8453" font-family="Helvetica">0</text>
<text xml:space="preserve" x="47.7441" y="305.457" fill="black" font-size="12.8453" font-family="Helvetica">2</text>
<text xml:space="preserve" x="47.7441" y="260.657" fill="black" font-size="12.8453" font-family="Helvetica">4</text>
<text xml:space="preserve" x="47.7441" y="215.042" fill="black" font-size="12.8453" font-family="Helvetica">6</text>
<text xml:space="preserve" x="47.7441" y="170.242" fill="black" font-size="12.8453" font-family="Helvetica">8</text>
<text xml:space="preserve" x="41.2277" y="125.441" fill="black" font-size="12.8453" font-family="Helvetica">10</text>
<text xml:space="preserve" x="40.4131" y="79.8262" fill="black" font-size="12.8453" font-family="Helvetica">12</text>
<g transform="rotate(-90,27.3803,103.448)">
<text xml:space="preserve" x="27.3803" y="103.448" fill="black" font-size="12.8453" font-family="Helvetica">Num Blocks</text>
</g>
<text xml:space="preserve" x="254.641" y="18.7347" fill="black" font-size="16.9898" font-family="Helvetica">sector 1</text>
<g stroke="black" stroke-width="1" fill="none">
<line x1="63.752" y1="346.022" x2="64.752" y2="346.022"/>
</g>
<g stroke="black" stroke-width="1" fill="none">
<line x1="78.8701" y1="346.022" x2="79.8701" y2="346.022"/>
</g>
<g stroke="black" stroke-width="1" fill="none">
<line x1="93.9882" y1="346.022" x2="94.9882" y2="346.022"/>
</g>
<g stroke="black" stroke-width="1" fill="none">
<line x1="109.106" y1="346.022" x2="110.106" y2="346.022"/>
</g>
<g stroke="black" stroke-width="1" fill="none">
<line x1="124.224" y1="346.022" x2="125.224" y2="346.022"/>
</g>
<g stroke="black" stroke-width="1" fill="none">
<line x1="139.343" y1="346.022" x2="140.343" y2="346.022"/>
</g>
<g stroke="black" stroke-width="1" fill="none">
<line x1="154.461" y1="346.022" x2="155.461" y2="346.022"/>
</g>
<g stroke="black" stroke-width="1" fill="none">
<line x1="169.579" y1="346.022" x2="170.579" y2="346.022"/>
</g>
<g stroke="black" stroke-width="1" fill="none">
<line x1="184.697" y1="346.022" x2="185.697" y2="346.022"/>
</g>
<path d="M200.815,346.022v -22.533" fill="none" stroke="#000099"/>
<path d="M200.815,323.489v -22.533" fill="none" stroke="#000099"/>
<path d="M193.256,323.489h 7.55905" fill="none" stroke="#000099"/>
<path d="M200.815,323.489h 7.55905" fill="none" stroke="#000099"/>
<g stroke="black" stroke-width="1" fill="none">
<line x1="199.815" y1="323.489" x2="200.815" y2="323.489"/>
</g>
<path d="M215.933,346.022v -22.533" fill="none" stroke="#000099"/>
<path d="M215.933,323.489v -22.533" fill="none" stroke="#000099"/>
<path d="M208.374,323.489h 7.55905" fill="none" stroke="#000099"/>
<path d="M215.933,323.489h 7.55905" fill="none" stroke="#000099"/>
<g stroke="black" stroke-width="1" fill="none">
<line x1="214.933" y1="323.489" x2="215.933" y2="323.489"/>
</g>
<path d="M231.051,283.743v -50.3853" fill="none" stroke="#000099"/>
<path d="M231.051,233.357v -50.3853" fill="none" stroke="#000099"/>
<path d="M223.492,233.357h 7.55905" fill="none" stroke="#000099"/>
<path d="M231.051,233.357h 7.55905" fill="none" stroke="#000099"/>
<g stroke="black" stroke-width="1" fill="none">
<line x1="230.051" y1="233.357" x2="231.051" y2="233.357"/>
</g>
<path d="M246.169,210.824v -67.599" fill="none" stroke="#000099"/>
<path d="M246.169,143.225v -67.599" fill="none" stroke="#000099"/>
<path d="M238.61,143.225h 7.55905" fill="none" stroke="#000099"/>
<path d="M246.169,143.225h 7.55905" fill="none" stroke="#000099"/>
<g stroke="black" stroke-width="1" fill="none">
<line x1="245.169" y1="143.225" x2="246.169" y2="143.225"/>
</g>
<path d="M261.287,210.824v -67.599" fill="none" stroke="#000099"/>
<path d="M261.287,143.225v -67.599" fill="none" stroke="#000099"/>
<path d="M253.728,143.225h 7.55905" fill="none" stroke="#000099"/>
<path d="M261.287,143.225h 7.55905" fill="none" stroke="#000099"/>
<g stroke="black" stroke-width="1" fill="none">
<line x1="260.287" y1="143.225" x2="261.287" y2="143.225"/>
</g>
<path d="M276.406,153.683v -78.0566" fill="none" stroke="#000099"/>
<path d="M276.406,75.6264v -37.1794" fill="none" stroke="#000099"/>
<path d="M268.846,75.6264h 7.55905" fill="none" stroke="#000099"/>
<path d="M276.406,75.6264h 7.55905" fill="none" stroke="#000099"/>
<g stroke="black" stroke-width="1" fill="none">
<line x1="275.406" y1="75.6264" x2="276.406" y2="75.6264"/>
</g>
<path d="M291.524,134.337v -81.2439" fill="none" stroke="#000099"/>
<path d="M291.524,53.0934v -14.6464" fill="none" stroke="#000099"/>
<path d="M283.965,53.0934h 7.55905" fill="none" stroke="#000099"/>
<path d="M291.524,53.0934h 7.55905" fill="none" stroke="#000099"/>
<g stroke="black" stroke-width="1" fill="none">
<line x1="290.524" y1="53.0934" x2="291.524" y2="53.0934"/>
</g>
<path d="M306.642,191.948v -71.2556" fill="none" stroke="#000099"/>
<path d="M306.642,120.692v -71.2556" fill="none" stroke="#000099"/>
<path d="M299.083,120.692h 7.55905" fill="none" stroke="#000099"/>
<path d="M306.642,120.692h 7.55905" fill="none" stroke="#000099"/>
<g stroke="black" stroke-width="1" fill="none">
<line x1="305.642" y1="120.692" x2="306.642" y2="120.692"/>
</g>
<path d="M321.76,300.956v -45.066" fill="none" stroke="#000099"/>
<path d="M321.76,255.89v -45.066" fill="none" stroke="#000099"/>
<path d="M314.201,255.89h 7.55905" fill="none" stroke="#000099"/>
<path d="M321.76,255.89h 7.55905" fill="none" stroke="#000099"/>
<g stroke="black" stroke-width="1" fill="none">
<line x1="320.76" y1="255.89" x2="321.76" y2="255.89"/>
</g>
<path d="M336.878,317.452v -39.0283" fill="none" stroke="#000099"/>
<path d="M336.878,278.423v -39.0283" fill="none" stroke="#000099"/>
<path d="M329.319,278.423h 7.55905" fill="none" stroke="#000099"/>
<path d="M336.878,278.423h 7.55905" fill="none" stroke="#000099"/>
<g stroke="black" stroke-width="1" fill="none">
<line x1="335.878" y1="278.423" x2="336.878" y2="278.423"/>
</g>
<g stroke="black" stroke-width="1" fill="none">
<line x1="350.996" y1="346.022" x2="351.996" y2="346.022"/>
</g>
<g stroke="black" stroke-width="1" fill="none">
<line x1="366.114" y1="346.022" x2="367.114" y2="346.022"/>
</g>
<g stroke="black" stroke-width="1" fill="none">
<line x1="381.232" y1="346.022" x2="382.232" y2="346.022"/>
</g>
<g stroke="black" stroke-width="1" fill="none">
<line x1="396.35" y1="346.022" x2="397.35" y2="346.022"/>
</g>
<g stroke="black" stroke-width="1" fill="none">
<line x1="411.469" y1="346.022" x2="412.469" y2="346.022"/>
</g>
<g stroke="black" stroke-width="1" fill="none">
<line x1="426.587" y1="346.022" x2="427.587" y2="346.022"/>
</g>
<g stroke="black" stroke-width="1" fill="none">
<line x1="441.705" y1="346.022" x2="442.705" y2="346.022"/>
</g>
<g stroke="black" stroke-width="1" fill="none">
<line x1="456.823" y1="346.022" x2="457.823" y2="346.022"/>
</g>
<g stroke="black" stroke-width="1" fill="none">
<line x1="471.941" y1="346.022" x2="472.941" y2="346.022"/>
</g>
<g stroke="black" stroke-width="1" fill="none">
<line x1="487.059" y1="346.022" x2="488.059" y2="346.022"/>
</g>
<g stroke="black" stroke-width="1" fill="none">
<line x1="502.177" y1="346.022" x2="503.177" y2="346.022"/>
</g>
<path d="M59.4606,346.022h 81.6378l 4.53543, -0.0339269l 4.53543, -0.0279789l 4.53543, -0.0487377l 4.53543, -0.0830556l 4.53543, -0.138452l 4.53543, -0.225743l 4.53543, -0.359962l 4.53543, -0.561267l 4.53543, -0.85563l 4.53543, -1.27506l 4.53543,
 -1.85702l 4.53543, -2.64266l 4.53543, -3.67358l 4.53543, -4.98682l 4.53543, -6.6082l 4.53543, -8.54427l 4.53543, -10.7737l 4.53543, -13.2395l 4.53543, -15.8431l 4.53543, -18.4427l 4.53543, -20.8573l 4.53543, -22.8763l 4.53543, -24.2769l 4.53543,
 -24.8461l 4.53543, -24.4064l 4.53543, -22.8409l 4.53543, -20.1154l 4.53543, -16.2914l 4.53543, -11.5291l 4.53543, -6.07823l 4.53543, -0.256417" fill="none" stroke="#ff0000" stroke-width="2"/>
<path d="M281.697,61.4265l 4.53543, 5.58116l 4.53543, 11.0777l 4.53543, 15.911l 4.53543, 19.8245l 4.53543, 22.6496l 4.53543, 24.3159l 4.53543, 24.8501l 4.53543, 24.3624l 4.53543, 23.026l 4.53543, 21.0519l 4.53543, 18.6631l 4.53543, 16.0719l 4.53543,
 13.4624l 4.53543, 10.9801l 4.53543, 8.72726l 4.53543, 6.76435l 4.53543, 5.11548l 4.53543, 3.77622l 4.53543, 2.72208l 4.53543, 1.91671l 4.53543, 1.31869l 4.53543, 0.886671l 4.53543, 0.582777l 4.53543, 0.374489l 4.53543, 0.23531l 4.53543, 0.1446l
 4.53543, 0.0869104l 4.53543, 0.0510975l 4.53543, 0.0293896l 4.53543, 0.0357801h 86.1732" fill="none" stroke="#ff0000" stroke-width="2"/>
<path d="M503.933,346.022h 4.53543" fill="none" stroke="#ff0000" stroke-width="2"/>
<text xml:space="preserve" x="254.641" y="18.7347" fill="black" font-size="16.9898" font-family="Helvetica">sector 1</text></svg>
