<?xml version="1.0" standalone="no"?>
<svg width="567.429" height="384.969" viewBox="0 0 567.429 384.969" xmlns="http://www.w3.org/2000/svg" shape-rendering="crispEdges">
<title>
./new_vop/sector/sector6_combined.svg
</title>
<desc>
Creator: ROOT Version 6.24/00
CreationDate: Fri Jul 30 23:28:09 2021</desc>
<defs>
</defs>
<rect x="0.5" y="0" width="566.929" height="384.469" fill="white"/>
<rect x="57.1929" y="38.4469" width="453.543" height="307.575" fill="white"/>
<rect x="57.1929" y="38.4469" width="453.543" height="307.575" fill="none" stroke="black"/>
<path d="M57.1929,346.022h 453.543" fill="none" stroke="#000099"/>
<path d="M57.1929,346.022h 453.543" fill="none" stroke="black"/>
<path d="M57.1929,336.795v 9.22726" fill="none" stroke="black"/>
<path d="M72.311,341.409v 4.61363" fill="none" stroke="black"/>
<path d="M87.4291,341.409v 4.61363" fill="none" stroke="black"/>
<path d="M102.547,341.409v 4.61363" fill="none" stroke="black"/>
<path d="M117.665,341.409v 4.61363" fill="none" stroke="black"/>
<path d="M132.783,336.795v 9.22726" fill="none" stroke="black"/>
<path d="M147.902,341.409v 4.61363" fill="none" stroke="black"/>
<path d="M163.02,341.409v 4.61363" fill="none" stroke="black"/>
<path d="M178.138,341.409v 4.61363" fill="none" stroke="black"/>
<path d="M193.256,341.409v 4.61363" fill="none" stroke="black"/>
<path d="M208.374,336.795v 9.22726" fill="none" stroke="black"/>
<path d="M223.492,341.409v 4.61363" fill="none" stroke="black"/>
<path d="M238.61,341.409v 4.61363" fill="none" stroke="black"/>
<path d="M253.728,341.409v 4.61363" fill="none" stroke="black"/>
<path d="M268.846,341.409v 4.61363" fill="none" stroke="black"/>
<path d="M283.965,336.795v 9.22726" fill="none" stroke="black"/>
<path d="M299.083,341.409v 4.61363" fill="none" stroke="black"/>
<path d="M314.201,341.409v 4.61363" fill="none" stroke="black"/>
<path d="M329.319,341.409v 4.61363" fill="none" stroke="black"/>
<path d="M344.437,341.409v 4.61363" fill="none" stroke="black"/>
<path d="M359.555,336.795v 9.22726" fill="none" stroke="black"/>
<path d="M374.673,341.409v 4.61363" fill="none" stroke="black"/>
<path d="M389.791,341.409v 4.61363" fill="none" stroke="black"/>
<path d="M404.909,341.409v 4.61363" fill="none" stroke="black"/>
<path d="M420.028,341.409v 4.61363" fill="none" stroke="black"/>
<path d="M435.146,336.795v 9.22726" fill="none" stroke="black"/>
<path d="M450.264,341.409v 4.61363" fill="none" stroke="black"/>
<path d="M465.382,341.409v 4.61363" fill="none" stroke="black"/>
<path d="M480.5,341.409v 4.61363" fill="none" stroke="black"/>
<path d="M495.618,341.409v 4.61363" fill="none" stroke="black"/>
<path d="M510.736,336.795v 9.22726" fill="none" stroke="black"/>
<text xml:space="preserve" x="53.446" y="358.403" fill="black" font-size="12.8453" font-family="Helvetica">0</text>
<text xml:space="preserve" x="121.868" y="358.403" fill="black" font-size="12.8453" font-family="Helvetica">100</text>
<text xml:space="preserve" x="197.622" y="358.403" fill="black" font-size="12.8453" font-family="Helvetica">200</text>
<text xml:space="preserve" x="273.375" y="358.403" fill="black" font-size="12.8453" font-family="Helvetica">300</text>
<text xml:space="preserve" x="348.314" y="358.403" fill="black" font-size="12.8453" font-family="Helvetica">400</text>
<text xml:space="preserve" x="424.068" y="358.403" fill="black" font-size="12.8453" font-family="Helvetica">500</text>
<text xml:space="preserve" x="499.821" y="358.403" fill="black" font-size="12.8453" font-family="Helvetica">600</text>
<text xml:space="preserve" x="483.53" y="372.251" fill="black" font-size="12.8453" font-family="Helvetica">MPV</text>
<path d="M57.1929,346.022v -307.575" fill="none" stroke="black"/>
<path d="M70.7992,346.022h -13.6063" fill="none" stroke="black"/>
<path d="M63.9961,334.572h -6.80315" fill="none" stroke="black"/>
<path d="M63.9961,323.122h -6.80315" fill="none" stroke="black"/>
<path d="M63.9961,311.671h -6.80315" fill="none" stroke="black"/>
<path d="M63.9961,300.221h -6.80315" fill="none" stroke="black"/>
<path d="M70.7992,288.771h -13.6063" fill="none" stroke="black"/>
<path d="M63.9961,277.32h -6.80315" fill="none" stroke="black"/>
<path d="M63.9961,265.87h -6.80315" fill="none" stroke="black"/>
<path d="M63.9961,254.42h -6.80315" fill="none" stroke="black"/>
<path d="M63.9961,242.969h -6.80315" fill="none" stroke="black"/>
<path d="M70.7992,231.519h -13.6063" fill="none" stroke="black"/>
<path d="M63.9961,220.069h -6.80315" fill="none" stroke="black"/>
<path d="M63.9961,208.618h -6.80315" fill="none" stroke="black"/>
<path d="M63.9961,197.168h -6.80315" fill="none" stroke="black"/>
<path d="M63.9961,185.718h -6.80315" fill="none" stroke="black"/>
<path d="M70.7992,174.267h -13.6063" fill="none" stroke="black"/>
<path d="M63.9961,162.817h -6.80315" fill="none" stroke="black"/>
<path d="M63.9961,151.367h -6.80315" fill="none" stroke="black"/>
<path d="M63.9961,139.916h -6.80315" fill="none" stroke="black"/>
<path d="M63.9961,128.466h -6.80315" fill="none" stroke="black"/>
<path d="M70.7992,117.016h -13.6063" fill="none" stroke="black"/>
<path d="M63.9961,105.565h -6.80315" fill="none" stroke="black"/>
<path d="M63.9961,94.115h -6.80315" fill="none" stroke="black"/>
<path d="M63.9961,82.6647h -6.80315" fill="none" stroke="black"/>
<path d="M63.9961,71.2144h -6.80315" fill="none" stroke="black"/>
<path d="M70.7992,59.764h -13.6063" fill="none" stroke="black"/>
<path d="M70.7992,59.764h -13.6063" fill="none" stroke="black"/>
<path d="M63.9961,48.3137h -6.80315" fill="none" stroke="black"/>
<text xml:space="preserve" x="47.7441" y="350.258" fill="black" font-size="12.8453" font-family="Helvetica">0</text>
<text xml:space="preserve" x="47.7441" y="293.239" fill="black" font-size="12.8453" font-family="Helvetica">5</text>
<text xml:space="preserve" x="41.2277" y="236.22" fill="black" font-size="12.8453" font-family="Helvetica">10</text>
<text xml:space="preserve" x="40.4131" y="178.387" fill="black" font-size="12.8453" font-family="Helvetica">15</text>
<text xml:space="preserve" x="41.2277" y="121.368" fill="black" font-size="12.8453" font-family="Helvetica">20</text>
<text xml:space="preserve" x="40.4131" y="64.3497" fill="black" font-size="12.8453" font-family="Helvetica">25</text>
<g transform="rotate(-90,27.3803,103.448)">
<text xml:space="preserve" x="27.3803" y="103.448" fill="black" font-size="12.8453" font-family="Helvetica">Num Blocks</text>
</g>
<text xml:space="preserve" x="113.723" y="18.7347" fill="black" font-size="18.7938" font-family="Helvetica">Sector 6 Before and After FB Adjustment</text>
<g stroke="black" stroke-width="1" fill="none">
<line x1="63.752" y1="346.022" x2="64.752" y2="346.022"/>
</g>
<g stroke="black" stroke-width="1" fill="none">
<line x1="78.8701" y1="346.022" x2="79.8701" y2="346.022"/>
</g>
<g stroke="black" stroke-width="1" fill="none">
<line x1="93.9882" y1="346.022" x2="94.9882" y2="346.022"/>
</g>
<g stroke="black" stroke-width="1" fill="none">
<line x1="109.106" y1="346.022" x2="110.106" y2="346.022"/>
</g>
<g stroke="black" stroke-width="1" fill="none">
<line x1="124.224" y1="346.022" x2="125.224" y2="346.022"/>
</g>
<g stroke="black" stroke-width="1" fill="none">
<line x1="139.343" y1="346.022" x2="140.343" y2="346.022"/>
</g>
<g stroke="black" stroke-width="1" fill="none">
<line x1="154.461" y1="346.022" x2="155.461" y2="346.022"/>
</g>
<g stroke="black" stroke-width="1" fill="none">
<line x1="169.579" y1="346.022" x2="170.579" y2="346.022"/>
</g>
<path d="M185.697,346.022v -11.4503" fill="none" stroke="#ff0000" fill-opacity="0.50" stroke-opacity="0.50"/>
<path d="M185.697,334.572v -11.4503" fill="none" stroke="#ff0000" fill-opacity="0.50" stroke-opacity="0.50"/>
<path d="M178.138,334.572h 7.55905" fill="none" stroke="#ff0000" fill-opacity="0.50" stroke-opacity="0.50"/>
<path d="M185.697,334.572h 7.55905" fill="none" stroke="#ff0000" fill-opacity="0.50" stroke-opacity="0.50"/>
<g stroke="black" stroke-width="1" fill="none">
<line x1="184.697" y1="334.572" x2="185.697" y2="334.572"/>
</g>
<path d="M200.815,339.315v -16.1932" fill="none" stroke="#ff0000" fill-opacity="0.50" stroke-opacity="0.50"/>
<path d="M200.815,323.122v -16.1932" fill="none" stroke="#ff0000" fill-opacity="0.50" stroke-opacity="0.50"/>
<path d="M193.256,323.122h 7.55905" fill="none" stroke="#ff0000" fill-opacity="0.50" stroke-opacity="0.50"/>
<path d="M200.815,323.122h 7.55905" fill="none" stroke="#ff0000" fill-opacity="0.50" stroke-opacity="0.50"/>
<g stroke="black" stroke-width="1" fill="none">
<line x1="199.815" y1="323.122" x2="200.815" y2="323.122"/>
</g>
<path d="M215.933,305.368v -28.0475" fill="none" stroke="#ff0000" fill-opacity="0.50" stroke-opacity="0.50"/>
<path d="M215.933,277.32v -28.0475" fill="none" stroke="#ff0000" fill-opacity="0.50" stroke-opacity="0.50"/>
<path d="M208.374,277.32h 7.55905" fill="none" stroke="#ff0000" fill-opacity="0.50" stroke-opacity="0.50"/>
<path d="M215.933,277.32h 7.55905" fill="none" stroke="#ff0000" fill-opacity="0.50" stroke-opacity="0.50"/>
<g stroke="black" stroke-width="1" fill="none">
<line x1="214.933" y1="277.32" x2="215.933" y2="277.32"/>
</g>
<path d="M231.051,305.368v -28.0475" fill="none" stroke="#ff0000" fill-opacity="0.50" stroke-opacity="0.50"/>
<path d="M231.051,277.32v -28.0475" fill="none" stroke="#ff0000" fill-opacity="0.50" stroke-opacity="0.50"/>
<path d="M223.492,277.32h 7.55905" fill="none" stroke="#ff0000" fill-opacity="0.50" stroke-opacity="0.50"/>
<path d="M231.051,277.32h 7.55905" fill="none" stroke="#ff0000" fill-opacity="0.50" stroke-opacity="0.50"/>
<g stroke="black" stroke-width="1" fill="none">
<line x1="230.051" y1="277.32" x2="231.051" y2="277.32"/>
</g>
<path d="M246.169,208.618v -45.8013" fill="none" stroke="#ff0000" fill-opacity="0.50" stroke-opacity="0.50"/>
<path d="M246.169,162.817v -45.8013" fill="none" stroke="#ff0000" fill-opacity="0.50" stroke-opacity="0.50"/>
<path d="M238.61,162.817h 7.55905" fill="none" stroke="#ff0000" fill-opacity="0.50" stroke-opacity="0.50"/>
<path d="M246.169,162.817h 7.55905" fill="none" stroke="#ff0000" fill-opacity="0.50" stroke-opacity="0.50"/>
<g stroke="black" stroke-width="1" fill="none">
<line x1="245.169" y1="162.817" x2="246.169" y2="162.817"/>
</g>
<path d="M261.287,208.618v -45.8013" fill="none" stroke="#ff0000" fill-opacity="0.50" stroke-opacity="0.50"/>
<path d="M261.287,162.817v -45.8013" fill="none" stroke="#ff0000" fill-opacity="0.50" stroke-opacity="0.50"/>
<path d="M253.728,162.817h 7.55905" fill="none" stroke="#ff0000" fill-opacity="0.50" stroke-opacity="0.50"/>
<path d="M261.287,162.817h 7.55905" fill="none" stroke="#ff0000" fill-opacity="0.50" stroke-opacity="0.50"/>
<g stroke="black" stroke-width="1" fill="none">
<line x1="260.287" y1="162.817" x2="261.287" y2="162.817"/>
</g>
<path d="M276.406,258.045v -37.9764" fill="none" stroke="#ff0000" fill-opacity="0.50" stroke-opacity="0.50"/>
<path d="M276.406,220.069v -37.9764" fill="none" stroke="#ff0000" fill-opacity="0.50" stroke-opacity="0.50"/>
<path d="M268.846,220.069h 7.55905" fill="none" stroke="#ff0000" fill-opacity="0.50" stroke-opacity="0.50"/>
<path d="M276.406,220.069h 7.55905" fill="none" stroke="#ff0000" fill-opacity="0.50" stroke-opacity="0.50"/>
<g stroke="black" stroke-width="1" fill="none">
<line x1="275.406" y1="220.069" x2="276.406" y2="220.069"/>
</g>
<path d="M291.524,198.578v -47.2109" fill="none" stroke="#ff0000" fill-opacity="0.50" stroke-opacity="0.50"/>
<path d="M291.524,151.367v -47.2109" fill="none" stroke="#ff0000" fill-opacity="0.50" stroke-opacity="0.50"/>
<path d="M283.965,151.367h 7.55905" fill="none" stroke="#ff0000" fill-opacity="0.50" stroke-opacity="0.50"/>
<path d="M291.524,151.367h 7.55905" fill="none" stroke="#ff0000" fill-opacity="0.50" stroke-opacity="0.50"/>
<g stroke="black" stroke-width="1" fill="none">
<line x1="290.524" y1="151.367" x2="291.524" y2="151.367"/>
</g>
<path d="M306.642,277.32v -34.351" fill="none" stroke="#ff0000" fill-opacity="0.50" stroke-opacity="0.50"/>
<path d="M306.642,242.969v -34.351" fill="none" stroke="#ff0000" fill-opacity="0.50" stroke-opacity="0.50"/>
<path d="M299.083,242.969h 7.55905" fill="none" stroke="#ff0000" fill-opacity="0.50" stroke-opacity="0.50"/>
<path d="M306.642,242.969h 7.55905" fill="none" stroke="#ff0000" fill-opacity="0.50" stroke-opacity="0.50"/>
<g stroke="black" stroke-width="1" fill="none">
<line x1="305.642" y1="242.969" x2="306.642" y2="242.969"/>
</g>
<path d="M321.76,323.122v -22.9007" fill="none" stroke="#ff0000" fill-opacity="0.50" stroke-opacity="0.50"/>
<path d="M321.76,300.221v -22.9007" fill="none" stroke="#ff0000" fill-opacity="0.50" stroke-opacity="0.50"/>
<path d="M314.201,300.221h 7.55905" fill="none" stroke="#ff0000" fill-opacity="0.50" stroke-opacity="0.50"/>
<path d="M321.76,300.221h 7.55905" fill="none" stroke="#ff0000" fill-opacity="0.50" stroke-opacity="0.50"/>
<g stroke="black" stroke-width="1" fill="none">
<line x1="320.76" y1="300.221" x2="321.76" y2="300.221"/>
</g>
<path d="M336.878,346.022v -11.4503" fill="none" stroke="#ff0000" fill-opacity="0.50" stroke-opacity="0.50"/>
<path d="M336.878,334.572v -11.4503" fill="none" stroke="#ff0000" fill-opacity="0.50" stroke-opacity="0.50"/>
<path d="M329.319,334.572h 7.55905" fill="none" stroke="#ff0000" fill-opacity="0.50" stroke-opacity="0.50"/>
<path d="M336.878,334.572h 7.55905" fill="none" stroke="#ff0000" fill-opacity="0.50" stroke-opacity="0.50"/>
<g stroke="black" stroke-width="1" fill="none">
<line x1="335.878" y1="334.572" x2="336.878" y2="334.572"/>
</g>
<path d="M351.996,346.022v -11.4503" fill="none" stroke="#ff0000" fill-opacity="0.50" stroke-opacity="0.50"/>
<path d="M351.996,334.572v -11.4503" fill="none" stroke="#ff0000" fill-opacity="0.50" stroke-opacity="0.50"/>
<path d="M344.437,334.572h 7.55905" fill="none" stroke="#ff0000" fill-opacity="0.50" stroke-opacity="0.50"/>
<path d="M351.996,334.572h 7.55905" fill="none" stroke="#ff0000" fill-opacity="0.50" stroke-opacity="0.50"/>
<g stroke="black" stroke-width="1" fill="none">
<line x1="350.996" y1="334.572" x2="351.996" y2="334.572"/>
</g>
<g stroke="black" stroke-width="1" fill="none">
<line x1="366.114" y1="346.022" x2="367.114" y2="346.022"/>
</g>
<g stroke="black" stroke-width="1" fill="none">
<line x1="381.232" y1="346.022" x2="382.232" y2="346.022"/>
</g>
<g stroke="black" stroke-width="1" fill="none">
<line x1="396.35" y1="346.022" x2="397.35" y2="346.022"/>
</g>
<g stroke="black" stroke-width="1" fill="none">
<line x1="411.469" y1="346.022" x2="412.469" y2="346.022"/>
</g>
<g stroke="black" stroke-width="1" fill="none">
<line x1="426.587" y1="346.022" x2="427.587" y2="346.022"/>
</g>
<g stroke="black" stroke-width="1" fill="none">
<line x1="441.705" y1="346.022" x2="442.705" y2="346.022"/>
</g>
<g stroke="black" stroke-width="1" fill="none">
<line x1="456.823" y1="346.022" x2="457.823" y2="346.022"/>
</g>
<g stroke="black" stroke-width="1" fill="none">
<line x1="471.941" y1="346.022" x2="472.941" y2="346.022"/>
</g>
<g stroke="black" stroke-width="1" fill="none">
<line x1="487.059" y1="346.022" x2="488.059" y2="346.022"/>
</g>
<g stroke="black" stroke-width="1" fill="none">
<line x1="502.177" y1="346.022" x2="503.177" y2="346.022"/>
</g>
<path d="M59.4606,346.022h 68.0315l 4.53543, -0.0405388l 4.53543, -0.0298049l 4.53543, -0.0494506l 4.53543, -0.0804239l 4.53543, -0.1282l 4.53543, -0.200279l 4.53543, -0.306605l 4.53543, -0.459896l 4.53543, -0.675795l 4.53543, -0.972686l 4.53543,
 -1.37104l 4.53543, -1.89212l 4.53543, -2.556l 4.53543, -3.37875l 4.53543, -4.36899l 4.53543, -5.52404l 4.53543, -6.82597l 4.53543, -8.23832l 4.53543, -9.70406l 4.53543, -11.1455l 4.53543, -12.4668l 4.53543, -13.5594l 4.53543, -14.31l 4.53543,
 -14.6116l 4.53543, -14.3749l 4.53543, -13.5399l 4.53543, -12.0862l 4.53543, -10.0395l 4.53543, -7.47309l 4.53543, -4.50499l 4.53543, -1.28883l 4.53543, 1.99909l 4.53543, 5.17585l 4.53543, 8.06878" fill="none" stroke="#ff0000" stroke-width="2"/>
<path d="M281.697,185.062l 4.53543, 10.531l 4.53543, 12.4536l 4.53543, 13.7736l 4.53543, 14.4755l 4.53543, 14.5892l 4.53543, 14.1818l 4.53543, 13.3475l 4.53543, 12.1957l 4.53543, 10.8394l 4.53543, 9.38509l 4.53543, 7.92503l 4.53543, 6.53252l 4.53543,
 5.26005l 4.53543, 4.13982l 4.53543, 3.18614l 4.53543, 2.39891l 4.53543, 1.76757l 4.53543, 1.2749l 4.53543, 0.900373l 4.53543, 0.622739l 4.53543, 0.421898l 4.53543, 0.280026l 4.53543, 0.182113l 4.53543, 0.116062l 4.53543, 0.0724924l 4.53543,
 0.0443807l 4.53543, 0.0266339l 4.53543, 0.0358805h 95.2441" fill="none" stroke="#ff0000" stroke-width="2"/>
<path d="M503.933,346.022h 4.53543" fill="none" stroke="#ff0000" stroke-width="2"/>
<rect x="454.043" y="96.1173" width="113.386" height="115.341" fill="white"/>
<path d="M454.043,211.458h 113.386" fill="none" stroke="black"/>
<path d="M567.429,211.458v -115.341" fill="none" stroke="black"/>
<path d="M567.429,96.1173h -113.386" fill="none" stroke="black"/>
<path d="M454.043,96.1173v 115.341" fill="none" stroke="black"/>
<text xml:space="preserve" x="505.523" y="115.667" fill="black" font-size="19.9704" font-family="Helvetica">h</text>
<path d="M454.043,119.185h 113.386" fill="none" stroke="black"/>
<text xml:space="preserve" x="468.868" y="133.587" fill="black" font-size="10.4882" font-family="Helvetica"> / ndf </text>
<text xml:space="preserve" x="464.795" y="130.329" fill="black" font-size="7.15882" font-family="Helvetica">2</text>
<text xml:space="preserve" x="459.094" y="133.587" fill="black" font-size="10.4882" font-family="Times">&#0967;</text>
<text xml:space="preserve" x="521" y="134.401" fill="black" font-size="10.4882" font-family="Helvetica"> 5.973 / 9</text>
<text xml:space="preserve" x="459.094" y="157.209" fill="black" font-size="10.4882" font-family="Helvetica">Constant </text>
<text xml:space="preserve" x="541.363" y="157.209" fill="black" font-size="10.4882" font-family="Helvetica"> 2.11</text>
<text xml:space="preserve" x="535.662" y="157.209" fill="black" font-size="10.4882" font-family="Times">&#0177;</text>
<text xml:space="preserve" x="505.523" y="157.209" fill="black" font-size="10.4882" font-family="Helvetica"> 15.39 </text>
<text xml:space="preserve" x="459.094" y="180.831" fill="black" font-size="10.4882" font-family="Helvetica">Mean     </text>
<text xml:space="preserve" x="545.436" y="180.831" fill="black" font-size="10.4882" font-family="Helvetica"> 5.0</text>
<text xml:space="preserve" x="539.734" y="180.831" fill="black" font-size="10.4882" font-family="Times">&#0177;</text>
<text xml:space="preserve" x="509.596" y="180.831" fill="black" font-size="10.4882" font-family="Helvetica"> 278.3 </text>
<text xml:space="preserve" x="459.094" y="202.824" fill="black" font-size="10.4882" font-family="Helvetica">Sigma    </text>
<text xml:space="preserve" x="539.734" y="203.638" fill="black" font-size="10.4882" font-family="Helvetica"> 3.82</text>
<text xml:space="preserve" x="534.032" y="203.638" fill="black" font-size="10.4882" font-family="Times">&#0177;</text>
<text xml:space="preserve" x="503.894" y="203.638" fill="black" font-size="10.4882" font-family="Helvetica"> 43.82 </text>
<g stroke="black" stroke-width="1" fill="none">
<line x1="63.752" y1="346.022" x2="64.752" y2="346.022"/>
</g>
<g stroke="black" stroke-width="1" fill="none">
<line x1="78.8701" y1="346.022" x2="79.8701" y2="346.022"/>
</g>
<g stroke="black" stroke-width="1" fill="none">
<line x1="93.9882" y1="346.022" x2="94.9882" y2="346.022"/>
</g>
<g stroke="black" stroke-width="1" fill="none">
<line x1="109.106" y1="346.022" x2="110.106" y2="346.022"/>
</g>
<g stroke="black" stroke-width="1" fill="none">
<line x1="124.224" y1="346.022" x2="125.224" y2="346.022"/>
</g>
<g stroke="black" stroke-width="1" fill="none">
<line x1="139.343" y1="346.022" x2="140.343" y2="346.022"/>
</g>
<g stroke="black" stroke-width="1" fill="none">
<line x1="154.461" y1="346.022" x2="155.461" y2="346.022"/>
</g>
<g stroke="black" stroke-width="1" fill="none">
<line x1="169.579" y1="346.022" x2="170.579" y2="346.022"/>
</g>
<g stroke="black" stroke-width="1" fill="none">
<line x1="184.697" y1="346.022" x2="185.697" y2="346.022"/>
</g>
<path d="M200.815,339.315v -16.1932" fill="none" stroke="#0000ff" fill-opacity="0.50" stroke-opacity="0.50"/>
<path d="M200.815,323.122v -16.1932" fill="none" stroke="#0000ff" fill-opacity="0.50" stroke-opacity="0.50"/>
<path d="M193.256,323.122h 7.55905" fill="none" stroke="#0000ff" fill-opacity="0.50" stroke-opacity="0.50"/>
<path d="M200.815,323.122h 7.55905" fill="none" stroke="#0000ff" fill-opacity="0.50" stroke-opacity="0.50"/>
<g stroke="black" stroke-width="1" fill="none">
<line x1="199.815" y1="323.122" x2="200.815" y2="323.122"/>
</g>
<path d="M215.933,323.122v -22.9007" fill="none" stroke="#0000ff" fill-opacity="0.50" stroke-opacity="0.50"/>
<path d="M215.933,300.221v -22.9007" fill="none" stroke="#0000ff" fill-opacity="0.50" stroke-opacity="0.50"/>
<path d="M208.374,300.221h 7.55905" fill="none" stroke="#0000ff" fill-opacity="0.50" stroke-opacity="0.50"/>
<path d="M215.933,300.221h 7.55905" fill="none" stroke="#0000ff" fill-opacity="0.50" stroke-opacity="0.50"/>
<g stroke="black" stroke-width="1" fill="none">
<line x1="214.933" y1="300.221" x2="215.933" y2="300.221"/>
</g>
<path d="M231.051,305.368v -28.0475" fill="none" stroke="#0000ff" fill-opacity="0.50" stroke-opacity="0.50"/>
<path d="M231.051,277.32v -28.0475" fill="none" stroke="#0000ff" fill-opacity="0.50" stroke-opacity="0.50"/>
<path d="M223.492,277.32h 7.55905" fill="none" stroke="#0000ff" fill-opacity="0.50" stroke-opacity="0.50"/>
<path d="M231.051,277.32h 7.55905" fill="none" stroke="#0000ff" fill-opacity="0.50" stroke-opacity="0.50"/>
<g stroke="black" stroke-width="1" fill="none">
<line x1="230.051" y1="277.32" x2="231.051" y2="277.32"/>
</g>
<path d="M246.169,248.283v -39.6651" fill="none" stroke="#0000ff" fill-opacity="0.50" stroke-opacity="0.50"/>
<path d="M246.169,208.618v -39.6651" fill="none" stroke="#0000ff" fill-opacity="0.50" stroke-opacity="0.50"/>
<path d="M238.61,208.618h 7.55905" fill="none" stroke="#0000ff" fill-opacity="0.50" stroke-opacity="0.50"/>
<path d="M246.169,208.618h 7.55905" fill="none" stroke="#0000ff" fill-opacity="0.50" stroke-opacity="0.50"/>
<g stroke="black" stroke-width="1" fill="none">
<line x1="245.169" y1="208.618" x2="246.169" y2="208.618"/>
</g>
<path d="M261.287,277.32v -34.351" fill="none" stroke="#0000ff" fill-opacity="0.50" stroke-opacity="0.50"/>
<path d="M261.287,242.969v -34.351" fill="none" stroke="#0000ff" fill-opacity="0.50" stroke-opacity="0.50"/>
<path d="M253.728,242.969h 7.55905" fill="none" stroke="#0000ff" fill-opacity="0.50" stroke-opacity="0.50"/>
<path d="M261.287,242.969h 7.55905" fill="none" stroke="#0000ff" fill-opacity="0.50" stroke-opacity="0.50"/>
<g stroke="black" stroke-width="1" fill="none">
<line x1="260.287" y1="242.969" x2="261.287" y2="242.969"/>
</g>
<path d="M276.406,158.037v -52.472" fill="none" stroke="#0000ff" fill-opacity="0.50" stroke-opacity="0.50"/>
<path d="M276.406,105.565v -52.472" fill="none" stroke="#0000ff" fill-opacity="0.50" stroke-opacity="0.50"/>
<path d="M268.846,105.565h 7.55905" fill="none" stroke="#0000ff" fill-opacity="0.50" stroke-opacity="0.50"/>
<path d="M276.406,105.565h 7.55905" fill="none" stroke="#0000ff" fill-opacity="0.50" stroke-opacity="0.50"/>
<g stroke="black" stroke-width="1" fill="none">
<line x1="275.406" y1="105.565" x2="276.406" y2="105.565"/>
</g>
<path d="M291.524,267.728v -36.2091" fill="none" stroke="#0000ff" fill-opacity="0.50" stroke-opacity="0.50"/>
<path d="M291.524,231.519v -36.2091" fill="none" stroke="#0000ff" fill-opacity="0.50" stroke-opacity="0.50"/>
<path d="M283.965,231.519h 7.55905" fill="none" stroke="#0000ff" fill-opacity="0.50" stroke-opacity="0.50"/>
<path d="M291.524,231.519h 7.55905" fill="none" stroke="#0000ff" fill-opacity="0.50" stroke-opacity="0.50"/>
<g stroke="black" stroke-width="1" fill="none">
<line x1="290.524" y1="231.519" x2="291.524" y2="231.519"/>
</g>
<path d="M306.642,228.561v -42.8432" fill="none" stroke="#0000ff" fill-opacity="0.50" stroke-opacity="0.50"/>
<path d="M306.642,185.718v -42.8432" fill="none" stroke="#0000ff" fill-opacity="0.50" stroke-opacity="0.50"/>
<path d="M299.083,185.718h 7.55905" fill="none" stroke="#0000ff" fill-opacity="0.50" stroke-opacity="0.50"/>
<path d="M306.642,185.718h 7.55905" fill="none" stroke="#0000ff" fill-opacity="0.50" stroke-opacity="0.50"/>
<g stroke="black" stroke-width="1" fill="none">
<line x1="305.642" y1="185.718" x2="306.642" y2="185.718"/>
</g>
<path d="M321.76,286.806v -32.3864" fill="none" stroke="#0000ff" fill-opacity="0.50" stroke-opacity="0.50"/>
<path d="M321.76,254.42v -32.3864" fill="none" stroke="#0000ff" fill-opacity="0.50" stroke-opacity="0.50"/>
<path d="M314.201,254.42h 7.55905" fill="none" stroke="#0000ff" fill-opacity="0.50" stroke-opacity="0.50"/>
<path d="M321.76,254.42h 7.55905" fill="none" stroke="#0000ff" fill-opacity="0.50" stroke-opacity="0.50"/>
<g stroke="black" stroke-width="1" fill="none">
<line x1="320.76" y1="254.42" x2="321.76" y2="254.42"/>
</g>
<path d="M336.878,339.315v -16.1932" fill="none" stroke="#0000ff" fill-opacity="0.50" stroke-opacity="0.50"/>
<path d="M336.878,323.122v -16.1932" fill="none" stroke="#0000ff" fill-opacity="0.50" stroke-opacity="0.50"/>
<path d="M329.319,323.122h 7.55905" fill="none" stroke="#0000ff" fill-opacity="0.50" stroke-opacity="0.50"/>
<path d="M336.878,323.122h 7.55905" fill="none" stroke="#0000ff" fill-opacity="0.50" stroke-opacity="0.50"/>
<g stroke="black" stroke-width="1" fill="none">
<line x1="335.878" y1="323.122" x2="336.878" y2="323.122"/>
</g>
<path d="M351.996,346.022v -11.4503" fill="none" stroke="#0000ff" fill-opacity="0.50" stroke-opacity="0.50"/>
<path d="M351.996,334.572v -11.4503" fill="none" stroke="#0000ff" fill-opacity="0.50" stroke-opacity="0.50"/>
<path d="M344.437,334.572h 7.55905" fill="none" stroke="#0000ff" fill-opacity="0.50" stroke-opacity="0.50"/>
<path d="M351.996,334.572h 7.55905" fill="none" stroke="#0000ff" fill-opacity="0.50" stroke-opacity="0.50"/>
<g stroke="black" stroke-width="1" fill="none">
<line x1="350.996" y1="334.572" x2="351.996" y2="334.572"/>
</g>
<path d="M367.114,346.022v -11.4503" fill="none" stroke="#0000ff" fill-opacity="0.50" stroke-opacity="0.50"/>
<path d="M367.114,334.572v -11.4503" fill="none" stroke="#0000ff" fill-opacity="0.50" stroke-opacity="0.50"/>
<path d="M359.555,334.572h 7.55905" fill="none" stroke="#0000ff" fill-opacity="0.50" stroke-opacity="0.50"/>
<path d="M367.114,334.572h 7.55905" fill="none" stroke="#0000ff" fill-opacity="0.50" stroke-opacity="0.50"/>
<g stroke="black" stroke-width="1" fill="none">
<line x1="366.114" y1="334.572" x2="367.114" y2="334.572"/>
</g>
<g stroke="black" stroke-width="1" fill="none">
<line x1="381.232" y1="346.022" x2="382.232" y2="346.022"/>
</g>
<g stroke="black" stroke-width="1" fill="none">
<line x1="396.35" y1="346.022" x2="397.35" y2="346.022"/>
</g>
<g stroke="black" stroke-width="1" fill="none">
<line x1="411.469" y1="346.022" x2="412.469" y2="346.022"/>
</g>
<g stroke="black" stroke-width="1" fill="none">
<line x1="426.587" y1="346.022" x2="427.587" y2="346.022"/>
</g>
<g stroke="black" stroke-width="1" fill="none">
<line x1="441.705" y1="346.022" x2="442.705" y2="346.022"/>
</g>
<g stroke="black" stroke-width="1" fill="none">
<line x1="456.823" y1="346.022" x2="457.823" y2="346.022"/>
</g>
<g stroke="black" stroke-width="1" fill="none">
<line x1="471.941" y1="346.022" x2="472.941" y2="346.022"/>
</g>
<g stroke="black" stroke-width="1" fill="none">
<line x1="487.059" y1="346.022" x2="488.059" y2="346.022"/>
</g>
<g stroke="black" stroke-width="1" fill="none">
<line x1="502.177" y1="346.022" x2="503.177" y2="346.022"/>
</g>
<path d="M59.4606,346.022h 63.4961l 4.53543, -0.0310397l 4.53543, -0.0210147l 4.53543, -0.0338457l 4.53543, -0.0535845l 4.53543, -0.0833871l 4.53543, -0.127541l 4.53543, -0.191714l 4.53543, -0.283185l 4.53543, -0.411009l 4.53543, -0.586065l 4.53543,
 -0.82091l 4.53543, -1.12936l 4.53543, -1.52575l 4.53543, -2.02375l 4.53543, -2.63486l 4.53543, -3.3664l 4.53543, -4.21935l 4.53543, -5.18605l 4.53543, -6.24806l 4.53543, -7.37464l 4.53543, -8.52195l 4.53543, -9.63361l 4.53543, -10.6426l 4.53543,
 -11.4749l 4.53543, -12.0542l 4.53543, -12.3087l 4.53543, -12.1774l 4.53543, -11.6171l 4.53543, -10.6085l 4.53543, -9.16036l 4.53543, -7.31122l 4.53543, -5.12871l 4.53543, -2.70562l 4.53543, -0.153461l 4.53543, 2.40606" fill="none" stroke="#0000ff"
 stroke-width="2"/>
<path d="M281.697,188.578l 4.53543, 4.85066l 4.53543, 7.06713l 4.53543, 8.96007l 4.53543, 10.4586l 4.53543, 11.5206l 4.53543, 12.1338l 4.53543, 12.3143l 4.53543, 12.1029l 4.53543, 11.5586l 4.53543, 10.7525l 4.53543, 9.76058l 4.53543, 8.65746l
 4.53543, 7.51121l 4.53543, 6.37961l 4.53543, 5.30803l 4.53543, 4.32879l 4.53543, 3.46169l 4.53543, 2.71559l 4.53543, 2.09042l 4.53543, 1.57949l 4.53543, 1.17169l 4.53543, 0.853511l 4.53543, 0.610642l 4.53543, 0.429152l 4.53543, 0.296307l 4.53543,
 0.201017l 4.53543, 0.134008l 4.53543, 0.0877963l 4.53543, 0.0565339l 4.53543, 0.0357819l 4.53543, 0.0222622l 4.53543, 0.0330393h 77.1024" fill="none" stroke="#0000ff" stroke-width="2"/>
<path d="M503.933,346.022h 4.53543" fill="none" stroke="#0000ff" stroke-width="2"/>
<rect x="454.043" y="211.458" width="113.386" height="115.341" fill="white"/>
<path d="M454.043,326.799h 113.386" fill="none" stroke="black"/>
<path d="M567.429,326.799v -115.341" fill="none" stroke="black"/>
<path d="M567.429,211.458h -113.386" fill="none" stroke="black"/>
<path d="M454.043,211.458v 115.341" fill="none" stroke="black"/>
<text xml:space="preserve" x="486.788" y="228.075" fill="black" font-size="19.9704" font-family="Helvetica">adj_h</text>
<path d="M454.043,234.526h 113.386" fill="none" stroke="black"/>
<text xml:space="preserve" x="468.868" y="249.253" fill="black" font-size="10.4882" font-family="Helvetica"> / ndf </text>
<text xml:space="preserve" x="464.795" y="245.995" fill="black" font-size="7.15882" font-family="Helvetica">2</text>
<text xml:space="preserve" x="459.094" y="249.253" fill="black" font-size="10.4882" font-family="Times">&#0967;</text>
<text xml:space="preserve" x="521" y="250.068" fill="black" font-size="10.4882" font-family="Helvetica"> 8.276 / 9</text>
<text xml:space="preserve" x="459.094" y="272.875" fill="black" font-size="10.4882" font-family="Helvetica">Constant </text>
<text xml:space="preserve" x="539.734" y="272.875" fill="black" font-size="10.4882" font-family="Helvetica"> 1.98</text>
<text xml:space="preserve" x="534.032" y="272.875" fill="black" font-size="10.4882" font-family="Times">&#0177;</text>
<text xml:space="preserve" x="503.894" y="272.875" fill="black" font-size="10.4882" font-family="Helvetica"> 13.98 </text>
<text xml:space="preserve" x="459.094" y="295.683" fill="black" font-size="10.4882" font-family="Helvetica">Mean     </text>
<text xml:space="preserve" x="545.436" y="295.683" fill="black" font-size="10.4882" font-family="Helvetica"> 5.7</text>
<text xml:space="preserve" x="539.734" y="295.683" fill="black" font-size="10.4882" font-family="Times">&#0177;</text>
<text xml:space="preserve" x="509.596" y="295.683" fill="black" font-size="10.4882" font-family="Helvetica"> 288.4 </text>
<text xml:space="preserve" x="459.094" y="318.49" fill="black" font-size="10.4882" font-family="Helvetica">Sigma    </text>
<text xml:space="preserve" x="539.734" y="319.305" fill="black" font-size="10.4882" font-family="Helvetica"> 4.60</text>
<text xml:space="preserve" x="534.032" y="319.305" fill="black" font-size="10.4882" font-family="Times">&#0177;</text>
<text xml:space="preserve" x="503.894" y="319.305" fill="black" font-size="10.4882" font-family="Helvetica"> 47.25 </text>
<path d="M57.1929,346.022h 453.543" fill="none" stroke="black"/>
<path d="M57.1929,336.795v 9.22726" fill="none" stroke="black"/>
<path d="M72.311,341.409v 4.61363" fill="none" stroke="black"/>
<path d="M87.4291,341.409v 4.61363" fill="none" stroke="black"/>
<path d="M102.547,341.409v 4.61363" fill="none" stroke="black"/>
<path d="M117.665,341.409v 4.61363" fill="none" stroke="black"/>
<path d="M132.783,336.795v 9.22726" fill="none" stroke="black"/>
<path d="M147.902,341.409v 4.61363" fill="none" stroke="black"/>
<path d="M163.02,341.409v 4.61363" fill="none" stroke="black"/>
<path d="M178.138,341.409v 4.61363" fill="none" stroke="black"/>
<path d="M193.256,341.409v 4.61363" fill="none" stroke="black"/>
<path d="M208.374,336.795v 9.22726" fill="none" stroke="black"/>
<path d="M223.492,341.409v 4.61363" fill="none" stroke="black"/>
<path d="M238.61,341.409v 4.61363" fill="none" stroke="black"/>
<path d="M253.728,341.409v 4.61363" fill="none" stroke="black"/>
<path d="M268.846,341.409v 4.61363" fill="none" stroke="black"/>
<path d="M283.965,336.795v 9.22726" fill="none" stroke="black"/>
<path d="M299.083,341.409v 4.61363" fill="none" stroke="black"/>
<path d="M314.201,341.409v 4.61363" fill="none" stroke="black"/>
<path d="M329.319,341.409v 4.61363" fill="none" stroke="black"/>
<path d="M344.437,341.409v 4.61363" fill="none" stroke="black"/>
<path d="M359.555,336.795v 9.22726" fill="none" stroke="black"/>
<path d="M374.673,341.409v 4.61363" fill="none" stroke="black"/>
<path d="M389.791,341.409v 4.61363" fill="none" stroke="black"/>
<path d="M404.909,341.409v 4.61363" fill="none" stroke="black"/>
<path d="M420.028,341.409v 4.61363" fill="none" stroke="black"/>
<path d="M435.146,336.795v 9.22726" fill="none" stroke="black"/>
<path d="M450.264,341.409v 4.61363" fill="none" stroke="black"/>
<path d="M465.382,341.409v 4.61363" fill="none" stroke="black"/>
<path d="M480.5,341.409v 4.61363" fill="none" stroke="black"/>
<path d="M495.618,341.409v 4.61363" fill="none" stroke="black"/>
<path d="M510.736,336.795v 9.22726" fill="none" stroke="black"/>
<path d="M57.1929,346.022v -307.575" fill="none" stroke="black"/>
<path d="M70.7992,346.022h -13.6063" fill="none" stroke="black"/>
<path d="M63.9961,334.572h -6.80315" fill="none" stroke="black"/>
<path d="M63.9961,323.122h -6.80315" fill="none" stroke="black"/>
<path d="M63.9961,311.671h -6.80315" fill="none" stroke="black"/>
<path d="M63.9961,300.221h -6.80315" fill="none" stroke="black"/>
<path d="M70.7992,288.771h -13.6063" fill="none" stroke="black"/>
<path d="M63.9961,277.32h -6.80315" fill="none" stroke="black"/>
<path d="M63.9961,265.87h -6.80315" fill="none" stroke="black"/>
<path d="M63.9961,254.42h -6.80315" fill="none" stroke="black"/>
<path d="M63.9961,242.969h -6.80315" fill="none" stroke="black"/>
<path d="M70.7992,231.519h -13.6063" fill="none" stroke="black"/>
<path d="M63.9961,220.069h -6.80315" fill="none" stroke="black"/>
<path d="M63.9961,208.618h -6.80315" fill="none" stroke="black"/>
<path d="M63.9961,197.168h -6.80315" fill="none" stroke="black"/>
<path d="M63.9961,185.718h -6.80315" fill="none" stroke="black"/>
<path d="M70.7992,174.267h -13.6063" fill="none" stroke="black"/>
<path d="M63.9961,162.817h -6.80315" fill="none" stroke="black"/>
<path d="M63.9961,151.367h -6.80315" fill="none" stroke="black"/>
<path d="M63.9961,139.916h -6.80315" fill="none" stroke="black"/>
<path d="M63.9961,128.466h -6.80315" fill="none" stroke="black"/>
<path d="M70.7992,117.016h -13.6063" fill="none" stroke="black"/>
<path d="M63.9961,105.565h -6.80315" fill="none" stroke="black"/>
<path d="M63.9961,94.115h -6.80315" fill="none" stroke="black"/>
<path d="M63.9961,82.6647h -6.80315" fill="none" stroke="black"/>
<path d="M63.9961,71.2144h -6.80315" fill="none" stroke="black"/>
<path d="M70.7992,59.764h -13.6063" fill="none" stroke="black"/>
<path d="M70.7992,59.764h -13.6063" fill="none" stroke="black"/>
<path d="M63.9961,48.3137h -6.80315" fill="none" stroke="black"/>
<rect x="454.043" y="57.6704" width="113.386" height="38.4469" fill="white"/>
<path d="M454.043,96.1173h 113.386" fill="none" stroke="black"/>
<path d="M567.429,96.1173v -38.4469" fill="none" stroke="black"/>
<path d="M567.429,57.6704h -113.386" fill="none" stroke="black"/>
<path d="M454.043,57.6704v 38.4469" fill="none" stroke="black"/>
<text xml:space="preserve" x="481.901" y="70.8661" fill="black" font-size="15.4459" font-family="Helvetica">original</text>
<path d="M458.295,74.0103h 19.8425v -13.4564h -19.8425z" fill="white"/>
<path d="M458.295,67.2821h 19.8425" fill="none" stroke="#ff0000" fill-opacity="0.50" stroke-opacity="0.50"/>
<g stroke="black" stroke-width="1" fill="none">
<line x1="467.217" y1="67.2821" x2="468.217" y2="67.2821"/>
</g>
<text xml:space="preserve" x="481.901" y="90.4154" fill="black" font-size="15.4459" font-family="Helvetica">adjusted</text>
<path d="M458.295,93.2338h 19.8425v -13.4564h -19.8425z" fill="white"/>
<path d="M458.295,86.5056h 19.8425" fill="none" stroke="#0000ff" fill-opacity="0.50" stroke-opacity="0.50"/>
<g stroke="black" stroke-width="1" fill="none">
<line x1="467.217" y1="86.5056" x2="468.217" y2="86.5056"/>
</g>
<text xml:space="preserve" x="113.723" y="18.7347" fill="black" font-size="18.7938" font-family="Helvetica">Sector 6 Before and After FB Adjustment</text></svg>
