<?xml version="1.0" standalone="no"?>
<svg width="567.429" height="384.969" viewBox="0 0 567.429 384.969" xmlns="http://www.w3.org/2000/svg" shape-rendering="crispEdges">
<title>
./new_vop/sector/sector5_combined.svg
</title>
<desc>
Creator: ROOT Version 6.24/00
CreationDate: Mon Jul 19 21:24:19 2021</desc>
<defs>
</defs>
<rect x="0.5" y="0" width="566.929" height="384.469" fill="white"/>
<rect x="57.1929" y="38.4469" width="453.543" height="307.575" fill="white"/>
<rect x="57.1929" y="38.4469" width="453.543" height="307.575" fill="none" stroke="black"/>
<path d="M57.1929,346.022h 453.543" fill="none" stroke="#000099"/>
<path d="M57.1929,346.022h 453.543" fill="none" stroke="black"/>
<path d="M57.1929,336.795v 9.22726" fill="none" stroke="black"/>
<path d="M72.311,341.409v 4.61363" fill="none" stroke="black"/>
<path d="M87.4291,341.409v 4.61363" fill="none" stroke="black"/>
<path d="M102.547,341.409v 4.61363" fill="none" stroke="black"/>
<path d="M117.665,341.409v 4.61363" fill="none" stroke="black"/>
<path d="M132.783,336.795v 9.22726" fill="none" stroke="black"/>
<path d="M147.902,341.409v 4.61363" fill="none" stroke="black"/>
<path d="M163.02,341.409v 4.61363" fill="none" stroke="black"/>
<path d="M178.138,341.409v 4.61363" fill="none" stroke="black"/>
<path d="M193.256,341.409v 4.61363" fill="none" stroke="black"/>
<path d="M208.374,336.795v 9.22726" fill="none" stroke="black"/>
<path d="M223.492,341.409v 4.61363" fill="none" stroke="black"/>
<path d="M238.61,341.409v 4.61363" fill="none" stroke="black"/>
<path d="M253.728,341.409v 4.61363" fill="none" stroke="black"/>
<path d="M268.846,341.409v 4.61363" fill="none" stroke="black"/>
<path d="M283.965,336.795v 9.22726" fill="none" stroke="black"/>
<path d="M299.083,341.409v 4.61363" fill="none" stroke="black"/>
<path d="M314.201,341.409v 4.61363" fill="none" stroke="black"/>
<path d="M329.319,341.409v 4.61363" fill="none" stroke="black"/>
<path d="M344.437,341.409v 4.61363" fill="none" stroke="black"/>
<path d="M359.555,336.795v 9.22726" fill="none" stroke="black"/>
<path d="M374.673,341.409v 4.61363" fill="none" stroke="black"/>
<path d="M389.791,341.409v 4.61363" fill="none" stroke="black"/>
<path d="M404.909,341.409v 4.61363" fill="none" stroke="black"/>
<path d="M420.028,341.409v 4.61363" fill="none" stroke="black"/>
<path d="M435.146,336.795v 9.22726" fill="none" stroke="black"/>
<path d="M450.264,341.409v 4.61363" fill="none" stroke="black"/>
<path d="M465.382,341.409v 4.61363" fill="none" stroke="black"/>
<path d="M480.5,341.409v 4.61363" fill="none" stroke="black"/>
<path d="M495.618,341.409v 4.61363" fill="none" stroke="black"/>
<path d="M510.736,336.795v 9.22726" fill="none" stroke="black"/>
<text xml:space="preserve" x="53.446" y="358.403" fill="black" font-size="12.8453" font-family="Helvetica">0</text>
<text xml:space="preserve" x="121.868" y="358.403" fill="black" font-size="12.8453" font-family="Helvetica">100</text>
<text xml:space="preserve" x="197.622" y="358.403" fill="black" font-size="12.8453" font-family="Helvetica">200</text>
<text xml:space="preserve" x="273.375" y="358.403" fill="black" font-size="12.8453" font-family="Helvetica">300</text>
<text xml:space="preserve" x="348.314" y="358.403" fill="black" font-size="12.8453" font-family="Helvetica">400</text>
<text xml:space="preserve" x="424.068" y="358.403" fill="black" font-size="12.8453" font-family="Helvetica">500</text>
<text xml:space="preserve" x="499.821" y="358.403" fill="black" font-size="12.8453" font-family="Helvetica">600</text>
<text xml:space="preserve" x="483.53" y="372.251" fill="black" font-size="12.8453" font-family="Helvetica">MPV</text>
<path d="M57.1929,346.022v -307.575" fill="none" stroke="black"/>
<path d="M70.7992,346.022h -13.6063" fill="none" stroke="black"/>
<path d="M63.9961,333.651h -6.80315" fill="none" stroke="black"/>
<path d="M63.9961,321.28h -6.80315" fill="none" stroke="black"/>
<path d="M63.9961,308.909h -6.80315" fill="none" stroke="black"/>
<path d="M70.7992,296.538h -13.6063" fill="none" stroke="black"/>
<path d="M63.9961,284.167h -6.80315" fill="none" stroke="black"/>
<path d="M63.9961,271.796h -6.80315" fill="none" stroke="black"/>
<path d="M63.9961,259.424h -6.80315" fill="none" stroke="black"/>
<path d="M70.7992,247.053h -13.6063" fill="none" stroke="black"/>
<path d="M63.9961,234.682h -6.80315" fill="none" stroke="black"/>
<path d="M63.9961,222.311h -6.80315" fill="none" stroke="black"/>
<path d="M63.9961,209.94h -6.80315" fill="none" stroke="black"/>
<path d="M70.7992,197.569h -13.6063" fill="none" stroke="black"/>
<path d="M63.9961,185.198h -6.80315" fill="none" stroke="black"/>
<path d="M63.9961,172.827h -6.80315" fill="none" stroke="black"/>
<path d="M63.9961,160.456h -6.80315" fill="none" stroke="black"/>
<path d="M70.7992,148.084h -13.6063" fill="none" stroke="black"/>
<path d="M63.9961,135.713h -6.80315" fill="none" stroke="black"/>
<path d="M63.9961,123.342h -6.80315" fill="none" stroke="black"/>
<path d="M63.9961,110.971h -6.80315" fill="none" stroke="black"/>
<path d="M70.7992,98.6h -13.6063" fill="none" stroke="black"/>
<path d="M63.9961,86.2289h -6.80315" fill="none" stroke="black"/>
<path d="M63.9961,73.8578h -6.80315" fill="none" stroke="black"/>
<path d="M63.9961,61.4867h -6.80315" fill="none" stroke="black"/>
<path d="M70.7992,49.1156h -13.6063" fill="none" stroke="black"/>
<path d="M70.7992,49.1156h -13.6063" fill="none" stroke="black"/>
<text xml:space="preserve" x="47.7441" y="350.258" fill="black" font-size="12.8453" font-family="Helvetica">0</text>
<text xml:space="preserve" x="41.2277" y="301.385" fill="black" font-size="12.8453" font-family="Helvetica">20</text>
<text xml:space="preserve" x="41.2277" y="251.697" fill="black" font-size="12.8453" font-family="Helvetica">40</text>
<text xml:space="preserve" x="41.2277" y="202.009" fill="black" font-size="12.8453" font-family="Helvetica">60</text>
<text xml:space="preserve" x="41.2277" y="152.321" fill="black" font-size="12.8453" font-family="Helvetica">80</text>
<text xml:space="preserve" x="33.8967" y="103.448" fill="black" font-size="12.8453" font-family="Helvetica">100</text>
<text xml:space="preserve" x="33.8967" y="53.7605" fill="black" font-size="12.8453" font-family="Helvetica">120</text>
<g transform="rotate(-90,20.8638,103.448)">
<text xml:space="preserve" x="20.8638" y="103.448" fill="black" font-size="12.8453" font-family="Helvetica">Num Blocks</text>
</g>
<text xml:space="preserve" x="113.723" y="18.7347" fill="black" font-size="18.7938" font-family="Helvetica">Sector 5 Before and After FB Adjustment</text>
<path d="M64.752,337.238v -6.06058" fill="none" stroke="#ff0000" fill-opacity="0.50" stroke-opacity="0.50"/>
<path d="M64.752,331.177v -6.06058" fill="none" stroke="#ff0000" fill-opacity="0.50" stroke-opacity="0.50"/>
<path d="M57.1929,331.177h 7.55905" fill="none" stroke="#ff0000" fill-opacity="0.50" stroke-opacity="0.50"/>
<path d="M64.752,331.177h 7.55905" fill="none" stroke="#ff0000" fill-opacity="0.50" stroke-opacity="0.50"/>
<g stroke="black" stroke-width="1" fill="none">
<line x1="63.752" y1="331.177" x2="64.752" y2="331.177"/>
</g>
<g stroke="black" stroke-width="1" fill="none">
<line x1="78.8701" y1="346.022" x2="79.8701" y2="346.022"/>
</g>
<g stroke="black" stroke-width="1" fill="none">
<line x1="93.9882" y1="346.022" x2="94.9882" y2="346.022"/>
</g>
<g stroke="black" stroke-width="1" fill="none">
<line x1="109.106" y1="346.022" x2="110.106" y2="346.022"/>
</g>
<path d="M125.224,337.238v -6.06058" fill="none" stroke="#ff0000" fill-opacity="0.50" stroke-opacity="0.50"/>
<path d="M125.224,331.177v -6.06058" fill="none" stroke="#ff0000" fill-opacity="0.50" stroke-opacity="0.50"/>
<path d="M117.665,331.177h 7.55905" fill="none" stroke="#ff0000" fill-opacity="0.50" stroke-opacity="0.50"/>
<path d="M125.224,331.177h 7.55905" fill="none" stroke="#ff0000" fill-opacity="0.50" stroke-opacity="0.50"/>
<g stroke="black" stroke-width="1" fill="none">
<line x1="124.224" y1="331.177" x2="125.224" y2="331.177"/>
</g>
<g stroke="black" stroke-width="1" fill="none">
<line x1="139.343" y1="346.022" x2="140.343" y2="346.022"/>
</g>
<g stroke="black" stroke-width="1" fill="none">
<line x1="154.461" y1="346.022" x2="155.461" y2="346.022"/>
</g>
<path d="M170.579,337.238v -6.06058" fill="none" stroke="#ff0000" fill-opacity="0.50" stroke-opacity="0.50"/>
<path d="M170.579,331.177v -6.06058" fill="none" stroke="#ff0000" fill-opacity="0.50" stroke-opacity="0.50"/>
<path d="M163.02,331.177h 7.55905" fill="none" stroke="#ff0000" fill-opacity="0.50" stroke-opacity="0.50"/>
<path d="M170.579,331.177h 7.55905" fill="none" stroke="#ff0000" fill-opacity="0.50" stroke-opacity="0.50"/>
<g stroke="black" stroke-width="1" fill="none">
<line x1="169.579" y1="331.177" x2="170.579" y2="331.177"/>
</g>
<path d="M185.697,298.762v -12.1212" fill="none" stroke="#ff0000" fill-opacity="0.50" stroke-opacity="0.50"/>
<path d="M185.697,286.641v -12.1212" fill="none" stroke="#ff0000" fill-opacity="0.50" stroke-opacity="0.50"/>
<path d="M178.138,286.641h 7.55905" fill="none" stroke="#ff0000" fill-opacity="0.50" stroke-opacity="0.50"/>
<path d="M185.697,286.641h 7.55905" fill="none" stroke="#ff0000" fill-opacity="0.50" stroke-opacity="0.50"/>
<g stroke="black" stroke-width="1" fill="none">
<line x1="184.697" y1="286.641" x2="185.697" y2="286.641"/>
</g>
<path d="M200.815,258.14v -16.0348" fill="none" stroke="#ff0000" fill-opacity="0.50" stroke-opacity="0.50"/>
<path d="M200.815,242.105v -16.0348" fill="none" stroke="#ff0000" fill-opacity="0.50" stroke-opacity="0.50"/>
<path d="M193.256,242.105h 7.55905" fill="none" stroke="#ff0000" fill-opacity="0.50" stroke-opacity="0.50"/>
<path d="M200.815,242.105h 7.55905" fill="none" stroke="#ff0000" fill-opacity="0.50" stroke-opacity="0.50"/>
<g stroke="black" stroke-width="1" fill="none">
<line x1="199.815" y1="242.105" x2="200.815" y2="242.105"/>
</g>
<path d="M215.933,188.873v -20.9945" fill="none" stroke="#ff0000" fill-opacity="0.50" stroke-opacity="0.50"/>
<path d="M215.933,167.878v -20.9945" fill="none" stroke="#ff0000" fill-opacity="0.50" stroke-opacity="0.50"/>
<path d="M208.374,167.878h 7.55905" fill="none" stroke="#ff0000" fill-opacity="0.50" stroke-opacity="0.50"/>
<path d="M215.933,167.878h 7.55905" fill="none" stroke="#ff0000" fill-opacity="0.50" stroke-opacity="0.50"/>
<g stroke="black" stroke-width="1" fill="none">
<line x1="214.933" y1="167.878" x2="215.933" y2="167.878"/>
</g>
<path d="M231.051,104.519v -25.7129" fill="none" stroke="#ff0000" fill-opacity="0.50" stroke-opacity="0.50"/>
<path d="M231.051,78.8062v -25.7129" fill="none" stroke="#ff0000" fill-opacity="0.50" stroke-opacity="0.50"/>
<path d="M223.492,78.8062h 7.55905" fill="none" stroke="#ff0000" fill-opacity="0.50" stroke-opacity="0.50"/>
<path d="M231.051,78.8062h 7.55905" fill="none" stroke="#ff0000" fill-opacity="0.50" stroke-opacity="0.50"/>
<g stroke="black" stroke-width="1" fill="none">
<line x1="230.051" y1="78.8062" x2="231.051" y2="78.8062"/>
</g>
<path d="M246.169,132.739v -24.2423" fill="none" stroke="#ff0000" fill-opacity="0.50" stroke-opacity="0.50"/>
<path d="M246.169,108.497v -24.2423" fill="none" stroke="#ff0000" fill-opacity="0.50" stroke-opacity="0.50"/>
<path d="M238.61,108.497h 7.55905" fill="none" stroke="#ff0000" fill-opacity="0.50" stroke-opacity="0.50"/>
<path d="M246.169,108.497h 7.55905" fill="none" stroke="#ff0000" fill-opacity="0.50" stroke-opacity="0.50"/>
<g stroke="black" stroke-width="1" fill="none">
<line x1="245.169" y1="108.497" x2="246.169" y2="108.497"/>
</g>
<path d="M261.287,174.885v -21.8517" fill="none" stroke="#ff0000" fill-opacity="0.50" stroke-opacity="0.50"/>
<path d="M261.287,153.033v -21.8517" fill="none" stroke="#ff0000" fill-opacity="0.50" stroke-opacity="0.50"/>
<path d="M253.728,153.033h 7.55905" fill="none" stroke="#ff0000" fill-opacity="0.50" stroke-opacity="0.50"/>
<path d="M261.287,153.033h 7.55905" fill="none" stroke="#ff0000" fill-opacity="0.50" stroke-opacity="0.50"/>
<g stroke="black" stroke-width="1" fill="none">
<line x1="260.287" y1="153.033" x2="261.287" y2="153.033"/>
</g>
<path d="M276.406,230.596v -18.1817" fill="none" stroke="#ff0000" fill-opacity="0.50" stroke-opacity="0.50"/>
<path d="M276.406,212.414v -18.1817" fill="none" stroke="#ff0000" fill-opacity="0.50" stroke-opacity="0.50"/>
<path d="M268.846,212.414h 7.55905" fill="none" stroke="#ff0000" fill-opacity="0.50" stroke-opacity="0.50"/>
<path d="M276.406,212.414h 7.55905" fill="none" stroke="#ff0000" fill-opacity="0.50" stroke-opacity="0.50"/>
<g stroke="black" stroke-width="1" fill="none">
<line x1="275.406" y1="212.414" x2="276.406" y2="212.414"/>
</g>
<path d="M291.524,298.762v -12.1212" fill="none" stroke="#ff0000" fill-opacity="0.50" stroke-opacity="0.50"/>
<path d="M291.524,286.641v -12.1212" fill="none" stroke="#ff0000" fill-opacity="0.50" stroke-opacity="0.50"/>
<path d="M283.965,286.641h 7.55905" fill="none" stroke="#ff0000" fill-opacity="0.50" stroke-opacity="0.50"/>
<path d="M291.524,286.641h 7.55905" fill="none" stroke="#ff0000" fill-opacity="0.50" stroke-opacity="0.50"/>
<g stroke="black" stroke-width="1" fill="none">
<line x1="290.524" y1="286.641" x2="291.524" y2="286.641"/>
</g>
<path d="M306.642,311.983v -10.4972" fill="none" stroke="#ff0000" fill-opacity="0.50" stroke-opacity="0.50"/>
<path d="M306.642,301.486v -10.4972" fill="none" stroke="#ff0000" fill-opacity="0.50" stroke-opacity="0.50"/>
<path d="M299.083,301.486h 7.55905" fill="none" stroke="#ff0000" fill-opacity="0.50" stroke-opacity="0.50"/>
<path d="M306.642,301.486h 7.55905" fill="none" stroke="#ff0000" fill-opacity="0.50" stroke-opacity="0.50"/>
<g stroke="black" stroke-width="1" fill="none">
<line x1="305.642" y1="301.486" x2="306.642" y2="301.486"/>
</g>
<path d="M321.76,337.238v -6.06058" fill="none" stroke="#ff0000" fill-opacity="0.50" stroke-opacity="0.50"/>
<path d="M321.76,331.177v -6.06058" fill="none" stroke="#ff0000" fill-opacity="0.50" stroke-opacity="0.50"/>
<path d="M314.201,331.177h 7.55905" fill="none" stroke="#ff0000" fill-opacity="0.50" stroke-opacity="0.50"/>
<path d="M321.76,331.177h 7.55905" fill="none" stroke="#ff0000" fill-opacity="0.50" stroke-opacity="0.50"/>
<g stroke="black" stroke-width="1" fill="none">
<line x1="320.76" y1="331.177" x2="321.76" y2="331.177"/>
</g>
<g stroke="black" stroke-width="1" fill="none">
<line x1="335.878" y1="346.022" x2="336.878" y2="346.022"/>
</g>
<g stroke="black" stroke-width="1" fill="none">
<line x1="350.996" y1="346.022" x2="351.996" y2="346.022"/>
</g>
<g stroke="black" stroke-width="1" fill="none">
<line x1="366.114" y1="346.022" x2="367.114" y2="346.022"/>
</g>
<g stroke="black" stroke-width="1" fill="none">
<line x1="381.232" y1="346.022" x2="382.232" y2="346.022"/>
</g>
<g stroke="black" stroke-width="1" fill="none">
<line x1="396.35" y1="346.022" x2="397.35" y2="346.022"/>
</g>
<g stroke="black" stroke-width="1" fill="none">
<line x1="411.469" y1="346.022" x2="412.469" y2="346.022"/>
</g>
<g stroke="black" stroke-width="1" fill="none">
<line x1="426.587" y1="346.022" x2="427.587" y2="346.022"/>
</g>
<g stroke="black" stroke-width="1" fill="none">
<line x1="441.705" y1="346.022" x2="442.705" y2="346.022"/>
</g>
<g stroke="black" stroke-width="1" fill="none">
<line x1="456.823" y1="346.022" x2="457.823" y2="346.022"/>
</g>
<g stroke="black" stroke-width="1" fill="none">
<line x1="471.941" y1="346.022" x2="472.941" y2="346.022"/>
</g>
<g stroke="black" stroke-width="1" fill="none">
<line x1="487.059" y1="346.022" x2="488.059" y2="346.022"/>
</g>
<g stroke="black" stroke-width="1" fill="none">
<line x1="502.177" y1="346.022" x2="503.177" y2="346.022"/>
</g>
<path d="M59.4606,346.022h 45.3543l 4.53543, -0.0418458l 4.53543, -0.0333547l 4.53543, -0.0572024l 4.53543, -0.0959895l 4.53543, -0.157595l 4.53543, -0.253118l 4.53543, -0.397657l 4.53543, -0.610996l 4.53543, -0.917997l 4.53543, -1.34846l 4.53543,
 -1.93613l 4.53543, -2.7166l 4.53543, -3.72379l 4.53543, -4.98504l 4.53543, -6.51479l 4.53543, -8.30754l 4.53543, -10.3308l 4.53543, -12.5191l 4.53543, -14.7707l 4.53543, -16.9484l 4.53543, -18.8849l 4.53543, -20.3946l 4.53543, -21.2894l 4.53543,
 -21.3995l 4.53543, -20.5952l 4.53543, -18.8068l 4.53543, -16.0405l 4.53543, -12.3857l 4.53543, -8.01289l 4.53543, -3.16161l 4.53543, 1.8814l 4.53543, 6.81012l 4.53543, 11.33l 4.53543, 15.1873l 4.53543, 18.192l 4.53543, 20.2337l 4.53543, 21.2852l
 4.53543, 21.398l 4.53543, 20.6885" fill="none" stroke="#ff0000" stroke-width="2"/>
<path d="M281.697,235.39l 4.53543, 19.3181l 4.53543, 17.4724l 4.53543, 15.3394l 4.53543, 13.0922l 4.53543, 10.8767l 4.53543, 8.80372l 4.53543, 6.94786l 4.53543, 5.34955l 4.53543, 4.02052l 4.53543, 2.95073l 4.53543, 2.11548l 4.53543, 1.48202l 4.53543,
 1.01478l 4.53543, 0.679303l 4.53543, 0.444639l 4.53543, 0.284629l 4.53543, 0.178214l 4.53543, 0.109157l 4.53543, 0.0654119l 4.53543, 0.0383536l 4.53543, 0.0486891h 126.992" fill="none" stroke="#ff0000" stroke-width="2"/>
<path d="M503.933,346.022h 4.53543" fill="none" stroke="#ff0000" stroke-width="2"/>
<rect x="454.043" y="96.1173" width="113.386" height="115.341" fill="white"/>
<path d="M454.043,211.458h 113.386" fill="none" stroke="black"/>
<path d="M567.429,211.458v -115.341" fill="none" stroke="black"/>
<path d="M567.429,96.1173h -113.386" fill="none" stroke="black"/>
<path d="M454.043,96.1173v 115.341" fill="none" stroke="black"/>
<text xml:space="preserve" x="505.523" y="115.667" fill="black" font-size="19.9704" font-family="Helvetica">h</text>
<path d="M454.043,119.185h 113.386" fill="none" stroke="black"/>
<text xml:space="preserve" x="468.868" y="133.587" fill="black" font-size="10.4882" font-family="Helvetica"> / ndf </text>
<text xml:space="preserve" x="464.795" y="130.329" fill="black" font-size="7.15882" font-family="Helvetica">2</text>
<text xml:space="preserve" x="459.094" y="133.587" fill="black" font-size="10.4882" font-family="Times">&#0967;</text>
<text xml:space="preserve" x="515.298" y="134.401" fill="black" font-size="10.4882" font-family="Helvetica"> 18.44 / 10</text>
<text xml:space="preserve" x="459.094" y="157.209" fill="black" font-size="10.4882" font-family="Helvetica">Constant </text>
<text xml:space="preserve" x="545.436" y="157.209" fill="black" font-size="10.4882" font-family="Helvetica"> 5.7</text>
<text xml:space="preserve" x="539.734" y="157.209" fill="black" font-size="10.4882" font-family="Times">&#0177;</text>
<text xml:space="preserve" x="511.225" y="157.209" fill="black" font-size="10.4882" font-family="Helvetica"> 100.1 </text>
<text xml:space="preserve" x="459.094" y="180.831" fill="black" font-size="10.4882" font-family="Helvetica">Mean     </text>
<text xml:space="preserve" x="545.436" y="180.831" fill="black" font-size="10.4882" font-family="Helvetica"> 1.9</text>
<text xml:space="preserve" x="539.734" y="180.831" fill="black" font-size="10.4882" font-family="Times">&#0177;</text>
<text xml:space="preserve" x="509.596" y="180.831" fill="black" font-size="10.4882" font-family="Helvetica"> 243.8 </text>
<text xml:space="preserve" x="459.094" y="202.824" fill="black" font-size="10.4882" font-family="Helvetica">Sigma    </text>
<text xml:space="preserve" x="539.734" y="203.638" fill="black" font-size="10.4882" font-family="Helvetica"> 1.62</text>
<text xml:space="preserve" x="534.032" y="203.638" fill="black" font-size="10.4882" font-family="Times">&#0177;</text>
<text xml:space="preserve" x="503.894" y="203.638" fill="black" font-size="10.4882" font-family="Helvetica"> 41.93 </text>
<path d="M64.752,337.238v -6.06058" fill="none" stroke="#0000ff" fill-opacity="0.50" stroke-opacity="0.50"/>
<path d="M64.752,331.177v -6.06058" fill="none" stroke="#0000ff" fill-opacity="0.50" stroke-opacity="0.50"/>
<path d="M57.1929,331.177h 7.55905" fill="none" stroke="#0000ff" fill-opacity="0.50" stroke-opacity="0.50"/>
<path d="M64.752,331.177h 7.55905" fill="none" stroke="#0000ff" fill-opacity="0.50" stroke-opacity="0.50"/>
<g stroke="black" stroke-width="1" fill="none">
<line x1="63.752" y1="331.177" x2="64.752" y2="331.177"/>
</g>
<g stroke="black" stroke-width="1" fill="none">
<line x1="78.8701" y1="346.022" x2="79.8701" y2="346.022"/>
</g>
<g stroke="black" stroke-width="1" fill="none">
<line x1="93.9882" y1="346.022" x2="94.9882" y2="346.022"/>
</g>
<g stroke="black" stroke-width="1" fill="none">
<line x1="109.106" y1="346.022" x2="110.106" y2="346.022"/>
</g>
<g stroke="black" stroke-width="1" fill="none">
<line x1="124.224" y1="346.022" x2="125.224" y2="346.022"/>
</g>
<path d="M140.343,337.238v -6.06058" fill="none" stroke="#0000ff" fill-opacity="0.50" stroke-opacity="0.50"/>
<path d="M140.343,331.177v -6.06058" fill="none" stroke="#0000ff" fill-opacity="0.50" stroke-opacity="0.50"/>
<path d="M132.783,331.177h 7.55905" fill="none" stroke="#0000ff" fill-opacity="0.50" stroke-opacity="0.50"/>
<path d="M140.343,331.177h 7.55905" fill="none" stroke="#0000ff" fill-opacity="0.50" stroke-opacity="0.50"/>
<g stroke="black" stroke-width="1" fill="none">
<line x1="139.343" y1="331.177" x2="140.343" y2="331.177"/>
</g>
<g stroke="black" stroke-width="1" fill="none">
<line x1="154.461" y1="346.022" x2="155.461" y2="346.022"/>
</g>
<path d="M170.579,324.903v -8.57096" fill="none" stroke="#0000ff" fill-opacity="0.50" stroke-opacity="0.50"/>
<path d="M170.579,316.332v -8.57096" fill="none" stroke="#0000ff" fill-opacity="0.50" stroke-opacity="0.50"/>
<path d="M163.02,316.332h 7.55905" fill="none" stroke="#0000ff" fill-opacity="0.50" stroke-opacity="0.50"/>
<path d="M170.579,316.332h 7.55905" fill="none" stroke="#0000ff" fill-opacity="0.50" stroke-opacity="0.50"/>
<g stroke="black" stroke-width="1" fill="none">
<line x1="169.579" y1="316.332" x2="170.579" y2="316.332"/>
</g>
<path d="M185.697,324.903v -8.57096" fill="none" stroke="#0000ff" fill-opacity="0.50" stroke-opacity="0.50"/>
<path d="M185.697,316.332v -8.57096" fill="none" stroke="#0000ff" fill-opacity="0.50" stroke-opacity="0.50"/>
<path d="M178.138,316.332h 7.55905" fill="none" stroke="#0000ff" fill-opacity="0.50" stroke-opacity="0.50"/>
<path d="M185.697,316.332h 7.55905" fill="none" stroke="#0000ff" fill-opacity="0.50" stroke-opacity="0.50"/>
<g stroke="black" stroke-width="1" fill="none">
<line x1="184.697" y1="316.332" x2="185.697" y2="316.332"/>
</g>
<path d="M200.815,244.401v -17.1419" fill="none" stroke="#0000ff" fill-opacity="0.50" stroke-opacity="0.50"/>
<path d="M200.815,227.26v -17.1419" fill="none" stroke="#0000ff" fill-opacity="0.50" stroke-opacity="0.50"/>
<path d="M193.256,227.26h 7.55905" fill="none" stroke="#0000ff" fill-opacity="0.50" stroke-opacity="0.50"/>
<path d="M200.815,227.26h 7.55905" fill="none" stroke="#0000ff" fill-opacity="0.50" stroke-opacity="0.50"/>
<g stroke="black" stroke-width="1" fill="none">
<line x1="199.815" y1="227.26" x2="200.815" y2="227.26"/>
</g>
<path d="M215.933,230.596v -18.1817" fill="none" stroke="#0000ff" fill-opacity="0.50" stroke-opacity="0.50"/>
<path d="M215.933,212.414v -18.1817" fill="none" stroke="#0000ff" fill-opacity="0.50" stroke-opacity="0.50"/>
<path d="M208.374,212.414h 7.55905" fill="none" stroke="#0000ff" fill-opacity="0.50" stroke-opacity="0.50"/>
<path d="M215.933,212.414h 7.55905" fill="none" stroke="#0000ff" fill-opacity="0.50" stroke-opacity="0.50"/>
<g stroke="black" stroke-width="1" fill="none">
<line x1="214.933" y1="212.414" x2="215.933" y2="212.414"/>
</g>
<path d="M231.051,174.885v -21.8517" fill="none" stroke="#0000ff" fill-opacity="0.50" stroke-opacity="0.50"/>
<path d="M231.051,153.033v -21.8517" fill="none" stroke="#0000ff" fill-opacity="0.50" stroke-opacity="0.50"/>
<path d="M223.492,153.033h 7.55905" fill="none" stroke="#0000ff" fill-opacity="0.50" stroke-opacity="0.50"/>
<path d="M231.051,153.033h 7.55905" fill="none" stroke="#0000ff" fill-opacity="0.50" stroke-opacity="0.50"/>
<g stroke="black" stroke-width="1" fill="none">
<line x1="230.051" y1="153.033" x2="231.051" y2="153.033"/>
</g>
<path d="M246.169,146.815v -23.4725" fill="none" stroke="#0000ff" fill-opacity="0.50" stroke-opacity="0.50"/>
<path d="M246.169,123.342v -23.4725" fill="none" stroke="#0000ff" fill-opacity="0.50" stroke-opacity="0.50"/>
<path d="M238.61,123.342h 7.55905" fill="none" stroke="#0000ff" fill-opacity="0.50" stroke-opacity="0.50"/>
<path d="M246.169,123.342h 7.55905" fill="none" stroke="#0000ff" fill-opacity="0.50" stroke-opacity="0.50"/>
<g stroke="black" stroke-width="1" fill="none">
<line x1="245.169" y1="123.342" x2="246.169" y2="123.342"/>
</g>
<path d="M261.287,132.739v -24.2423" fill="none" stroke="#0000ff" fill-opacity="0.50" stroke-opacity="0.50"/>
<path d="M261.287,108.497v -24.2423" fill="none" stroke="#0000ff" fill-opacity="0.50" stroke-opacity="0.50"/>
<path d="M253.728,108.497h 7.55905" fill="none" stroke="#0000ff" fill-opacity="0.50" stroke-opacity="0.50"/>
<path d="M261.287,108.497h 7.55905" fill="none" stroke="#0000ff" fill-opacity="0.50" stroke-opacity="0.50"/>
<g stroke="black" stroke-width="1" fill="none">
<line x1="260.287" y1="108.497" x2="261.287" y2="108.497"/>
</g>
<path d="M276.406,230.596v -18.1817" fill="none" stroke="#0000ff" fill-opacity="0.50" stroke-opacity="0.50"/>
<path d="M276.406,212.414v -18.1817" fill="none" stroke="#0000ff" fill-opacity="0.50" stroke-opacity="0.50"/>
<path d="M268.846,212.414h 7.55905" fill="none" stroke="#0000ff" fill-opacity="0.50" stroke-opacity="0.50"/>
<path d="M276.406,212.414h 7.55905" fill="none" stroke="#0000ff" fill-opacity="0.50" stroke-opacity="0.50"/>
<g stroke="black" stroke-width="1" fill="none">
<line x1="275.406" y1="212.414" x2="276.406" y2="212.414"/>
</g>
<path d="M291.524,271.796v -14.8453" fill="none" stroke="#0000ff" fill-opacity="0.50" stroke-opacity="0.50"/>
<path d="M291.524,256.95v -14.8453" fill="none" stroke="#0000ff" fill-opacity="0.50" stroke-opacity="0.50"/>
<path d="M283.965,256.95h 7.55905" fill="none" stroke="#0000ff" fill-opacity="0.50" stroke-opacity="0.50"/>
<path d="M291.524,256.95h 7.55905" fill="none" stroke="#0000ff" fill-opacity="0.50" stroke-opacity="0.50"/>
<g stroke="black" stroke-width="1" fill="none">
<line x1="290.524" y1="256.95" x2="291.524" y2="256.95"/>
</g>
<path d="M306.642,311.983v -10.4972" fill="none" stroke="#0000ff" fill-opacity="0.50" stroke-opacity="0.50"/>
<path d="M306.642,301.486v -10.4972" fill="none" stroke="#0000ff" fill-opacity="0.50" stroke-opacity="0.50"/>
<path d="M299.083,301.486h 7.55905" fill="none" stroke="#0000ff" fill-opacity="0.50" stroke-opacity="0.50"/>
<path d="M306.642,301.486h 7.55905" fill="none" stroke="#0000ff" fill-opacity="0.50" stroke-opacity="0.50"/>
<g stroke="black" stroke-width="1" fill="none">
<line x1="305.642" y1="301.486" x2="306.642" y2="301.486"/>
</g>
<path d="M321.76,298.762v -12.1212" fill="none" stroke="#0000ff" fill-opacity="0.50" stroke-opacity="0.50"/>
<path d="M321.76,286.641v -12.1212" fill="none" stroke="#0000ff" fill-opacity="0.50" stroke-opacity="0.50"/>
<path d="M314.201,286.641h 7.55905" fill="none" stroke="#0000ff" fill-opacity="0.50" stroke-opacity="0.50"/>
<path d="M321.76,286.641h 7.55905" fill="none" stroke="#0000ff" fill-opacity="0.50" stroke-opacity="0.50"/>
<g stroke="black" stroke-width="1" fill="none">
<line x1="320.76" y1="286.641" x2="321.76" y2="286.641"/>
</g>
<path d="M336.878,337.238v -6.06058" fill="none" stroke="#0000ff" fill-opacity="0.50" stroke-opacity="0.50"/>
<path d="M336.878,331.177v -6.06058" fill="none" stroke="#0000ff" fill-opacity="0.50" stroke-opacity="0.50"/>
<path d="M329.319,331.177h 7.55905" fill="none" stroke="#0000ff" fill-opacity="0.50" stroke-opacity="0.50"/>
<path d="M336.878,331.177h 7.55905" fill="none" stroke="#0000ff" fill-opacity="0.50" stroke-opacity="0.50"/>
<g stroke="black" stroke-width="1" fill="none">
<line x1="335.878" y1="331.177" x2="336.878" y2="331.177"/>
</g>
<g stroke="black" stroke-width="1" fill="none">
<line x1="350.996" y1="346.022" x2="351.996" y2="346.022"/>
</g>
<g stroke="black" stroke-width="1" fill="none">
<line x1="366.114" y1="346.022" x2="367.114" y2="346.022"/>
</g>
<g stroke="black" stroke-width="1" fill="none">
<line x1="381.232" y1="346.022" x2="382.232" y2="346.022"/>
</g>
<g stroke="black" stroke-width="1" fill="none">
<line x1="396.35" y1="346.022" x2="397.35" y2="346.022"/>
</g>
<g stroke="black" stroke-width="1" fill="none">
<line x1="411.469" y1="346.022" x2="412.469" y2="346.022"/>
</g>
<g stroke="black" stroke-width="1" fill="none">
<line x1="426.587" y1="346.022" x2="427.587" y2="346.022"/>
</g>
<g stroke="black" stroke-width="1" fill="none">
<line x1="441.705" y1="346.022" x2="442.705" y2="346.022"/>
</g>
<g stroke="black" stroke-width="1" fill="none">
<line x1="456.823" y1="346.022" x2="457.823" y2="346.022"/>
</g>
<g stroke="black" stroke-width="1" fill="none">
<line x1="471.941" y1="346.022" x2="472.941" y2="346.022"/>
</g>
<g stroke="black" stroke-width="1" fill="none">
<line x1="487.059" y1="346.022" x2="488.059" y2="346.022"/>
</g>
<g stroke="black" stroke-width="1" fill="none">
<line x1="502.177" y1="346.022" x2="503.177" y2="346.022"/>
</g>
<path d="M59.4606,346.022h 36.2835l 4.53543, -0.0472375l 4.53543, -0.0313496l 4.53543, -0.0500943l 4.53543, -0.0787051l 4.53543, -0.121575l 4.53543, -0.184622l 4.53543, -0.275598l 4.53543, -0.404376l 4.53543, -0.583126l 4.53543, -0.826333l 4.53543,
 -1.15055l 4.53543, -1.57379l 4.53543, -2.11447l 4.53543, -2.78988l 4.53543, -3.61405l 4.53543, -4.59529l 4.53543, -5.73331l 4.53543, -7.01631l 4.53543, -8.41841l 4.53543, -9.89775l 4.53543, -11.3958l 4.53543, -12.838l 4.53543, -14.137l 4.53543,
 -15.1966l 4.53543, -15.919l 4.53543, -16.2123l 4.53543, -15.9998l 4.53543, -15.2279l 4.53543, -13.8741l 4.53543, -11.9519l 4.53543, -9.51294l 4.53543, -6.64604l 4.53543, -3.47176l 4.53543, -0.134253l 4.53543, 3.2096l 4.53543, 6.40243l 4.53543,
 9.29863l 4.53543, 11.7754l 4.53543, 13.7413l 4.53543, 15.1414l 4.53543, 15.9593" fill="none" stroke="#0000ff" stroke-width="2"/>
<path d="M281.697,209.526l 4.53543, 16.2148l 4.53543, 15.9592l 4.53543, 15.2678l 4.53543, 14.2315l 4.53543, 12.9481l 4.53543, 11.5139l 4.53543, 10.0174l 4.53543, 8.5342l 4.53543, 7.12418l 4.53543, 5.83054l 4.53543, 4.68036l 4.53543, 3.68647l 4.53543,
 2.84998l 4.53543, 2.16317l 4.53543, 1.61235l 4.53543, 1.18042l 4.53543, 0.848983l 4.53543, 0.599947l 4.53543, 0.416618l 4.53543, 0.284334l 4.53543, 0.190735l 4.53543, 0.125772l 4.53543, 0.0815327l 4.53543, 0.0519641l 4.53543, 0.0325635l 4.53543,
 0.0492228h 104.315" fill="none" stroke="#0000ff" stroke-width="2"/>
<path d="M503.933,346.022h 4.53543" fill="none" stroke="#0000ff" stroke-width="2"/>
<rect x="454.043" y="211.458" width="113.386" height="115.341" fill="white"/>
<path d="M454.043,326.799h 113.386" fill="none" stroke="black"/>
<path d="M567.429,326.799v -115.341" fill="none" stroke="black"/>
<path d="M567.429,211.458h -113.386" fill="none" stroke="black"/>
<path d="M454.043,211.458v 115.341" fill="none" stroke="black"/>
<text xml:space="preserve" x="486.788" y="228.075" fill="black" font-size="19.9704" font-family="Helvetica">adj_h</text>
<path d="M454.043,234.526h 113.386" fill="none" stroke="black"/>
<text xml:space="preserve" x="468.868" y="249.253" fill="black" font-size="10.4882" font-family="Helvetica"> / ndf </text>
<text xml:space="preserve" x="464.795" y="245.995" fill="black" font-size="7.15882" font-family="Helvetica">2</text>
<text xml:space="preserve" x="459.094" y="249.253" fill="black" font-size="10.4882" font-family="Times">&#0967;</text>
<text xml:space="preserve" x="516.927" y="250.068" fill="black" font-size="10.4882" font-family="Helvetica"> 33.14 / 11</text>
<text xml:space="preserve" x="459.094" y="272.875" fill="black" font-size="10.4882" font-family="Helvetica">Constant </text>
<text xml:space="preserve" x="539.734" y="272.875" fill="black" font-size="10.4882" font-family="Helvetica"> 5.27</text>
<text xml:space="preserve" x="534.032" y="272.875" fill="black" font-size="10.4882" font-family="Times">&#0177;</text>
<text xml:space="preserve" x="503.894" y="272.875" fill="black" font-size="10.4882" font-family="Helvetica"> 85.84 </text>
<text xml:space="preserve" x="459.094" y="295.683" fill="black" font-size="10.4882" font-family="Helvetica">Mean     </text>
<text xml:space="preserve" x="545.436" y="295.683" fill="black" font-size="10.4882" font-family="Helvetica"> 2.2</text>
<text xml:space="preserve" x="539.734" y="295.683" fill="black" font-size="10.4882" font-family="Times">&#0177;</text>
<text xml:space="preserve" x="509.596" y="295.683" fill="black" font-size="10.4882" font-family="Helvetica"> 252.2 </text>
<text xml:space="preserve" x="459.094" y="318.49" fill="black" font-size="10.4882" font-family="Helvetica">Sigma    </text>
<text xml:space="preserve" x="545.436" y="319.305" fill="black" font-size="10.4882" font-family="Helvetica"> 2.2</text>
<text xml:space="preserve" x="539.734" y="319.305" fill="black" font-size="10.4882" font-family="Times">&#0177;</text>
<text xml:space="preserve" x="512.039" y="319.305" fill="black" font-size="10.4882" font-family="Helvetica">  47.6 </text>
<path d="M57.1929,346.022h 453.543" fill="none" stroke="black"/>
<path d="M57.1929,336.795v 9.22726" fill="none" stroke="black"/>
<path d="M72.311,341.409v 4.61363" fill="none" stroke="black"/>
<path d="M87.4291,341.409v 4.61363" fill="none" stroke="black"/>
<path d="M102.547,341.409v 4.61363" fill="none" stroke="black"/>
<path d="M117.665,341.409v 4.61363" fill="none" stroke="black"/>
<path d="M132.783,336.795v 9.22726" fill="none" stroke="black"/>
<path d="M147.902,341.409v 4.61363" fill="none" stroke="black"/>
<path d="M163.02,341.409v 4.61363" fill="none" stroke="black"/>
<path d="M178.138,341.409v 4.61363" fill="none" stroke="black"/>
<path d="M193.256,341.409v 4.61363" fill="none" stroke="black"/>
<path d="M208.374,336.795v 9.22726" fill="none" stroke="black"/>
<path d="M223.492,341.409v 4.61363" fill="none" stroke="black"/>
<path d="M238.61,341.409v 4.61363" fill="none" stroke="black"/>
<path d="M253.728,341.409v 4.61363" fill="none" stroke="black"/>
<path d="M268.846,341.409v 4.61363" fill="none" stroke="black"/>
<path d="M283.965,336.795v 9.22726" fill="none" stroke="black"/>
<path d="M299.083,341.409v 4.61363" fill="none" stroke="black"/>
<path d="M314.201,341.409v 4.61363" fill="none" stroke="black"/>
<path d="M329.319,341.409v 4.61363" fill="none" stroke="black"/>
<path d="M344.437,341.409v 4.61363" fill="none" stroke="black"/>
<path d="M359.555,336.795v 9.22726" fill="none" stroke="black"/>
<path d="M374.673,341.409v 4.61363" fill="none" stroke="black"/>
<path d="M389.791,341.409v 4.61363" fill="none" stroke="black"/>
<path d="M404.909,341.409v 4.61363" fill="none" stroke="black"/>
<path d="M420.028,341.409v 4.61363" fill="none" stroke="black"/>
<path d="M435.146,336.795v 9.22726" fill="none" stroke="black"/>
<path d="M450.264,341.409v 4.61363" fill="none" stroke="black"/>
<path d="M465.382,341.409v 4.61363" fill="none" stroke="black"/>
<path d="M480.5,341.409v 4.61363" fill="none" stroke="black"/>
<path d="M495.618,341.409v 4.61363" fill="none" stroke="black"/>
<path d="M510.736,336.795v 9.22726" fill="none" stroke="black"/>
<path d="M57.1929,346.022v -307.575" fill="none" stroke="black"/>
<path d="M70.7992,346.022h -13.6063" fill="none" stroke="black"/>
<path d="M63.9961,333.651h -6.80315" fill="none" stroke="black"/>
<path d="M63.9961,321.28h -6.80315" fill="none" stroke="black"/>
<path d="M63.9961,308.909h -6.80315" fill="none" stroke="black"/>
<path d="M70.7992,296.538h -13.6063" fill="none" stroke="black"/>
<path d="M63.9961,284.167h -6.80315" fill="none" stroke="black"/>
<path d="M63.9961,271.796h -6.80315" fill="none" stroke="black"/>
<path d="M63.9961,259.424h -6.80315" fill="none" stroke="black"/>
<path d="M70.7992,247.053h -13.6063" fill="none" stroke="black"/>
<path d="M63.9961,234.682h -6.80315" fill="none" stroke="black"/>
<path d="M63.9961,222.311h -6.80315" fill="none" stroke="black"/>
<path d="M63.9961,209.94h -6.80315" fill="none" stroke="black"/>
<path d="M70.7992,197.569h -13.6063" fill="none" stroke="black"/>
<path d="M63.9961,185.198h -6.80315" fill="none" stroke="black"/>
<path d="M63.9961,172.827h -6.80315" fill="none" stroke="black"/>
<path d="M63.9961,160.456h -6.80315" fill="none" stroke="black"/>
<path d="M70.7992,148.084h -13.6063" fill="none" stroke="black"/>
<path d="M63.9961,135.713h -6.80315" fill="none" stroke="black"/>
<path d="M63.9961,123.342h -6.80315" fill="none" stroke="black"/>
<path d="M63.9961,110.971h -6.80315" fill="none" stroke="black"/>
<path d="M70.7992,98.6h -13.6063" fill="none" stroke="black"/>
<path d="M63.9961,86.2289h -6.80315" fill="none" stroke="black"/>
<path d="M63.9961,73.8578h -6.80315" fill="none" stroke="black"/>
<path d="M63.9961,61.4867h -6.80315" fill="none" stroke="black"/>
<path d="M70.7992,49.1156h -13.6063" fill="none" stroke="black"/>
<path d="M70.7992,49.1156h -13.6063" fill="none" stroke="black"/>
<rect x="454.043" y="57.6704" width="113.386" height="38.4469" fill="white"/>
<path d="M454.043,96.1173h 113.386" fill="none" stroke="black"/>
<path d="M567.429,96.1173v -38.4469" fill="none" stroke="black"/>
<path d="M567.429,57.6704h -113.386" fill="none" stroke="black"/>
<path d="M454.043,57.6704v 38.4469" fill="none" stroke="black"/>
<text xml:space="preserve" x="481.901" y="70.8661" fill="black" font-size="15.4459" font-family="Helvetica">original</text>
<path d="M458.295,74.0103h 19.8425v -13.4564h -19.8425z" fill="white"/>
<path d="M458.295,67.2821h 19.8425" fill="none" stroke="#ff0000" fill-opacity="0.50" stroke-opacity="0.50"/>
<g stroke="black" stroke-width="1" fill="none">
<line x1="467.217" y1="67.2821" x2="468.217" y2="67.2821"/>
</g>
<text xml:space="preserve" x="481.901" y="90.4154" fill="black" font-size="15.4459" font-family="Helvetica">adjusted</text>
<path d="M458.295,93.2338h 19.8425v -13.4564h -19.8425z" fill="white"/>
<path d="M458.295,86.5056h 19.8425" fill="none" stroke="#0000ff" fill-opacity="0.50" stroke-opacity="0.50"/>
<g stroke="black" stroke-width="1" fill="none">
<line x1="467.217" y1="86.5056" x2="468.217" y2="86.5056"/>
</g>
<text xml:space="preserve" x="113.723" y="18.7347" fill="black" font-size="18.7938" font-family="Helvetica">Sector 5 Before and After FB Adjustment</text></svg>
