<?xml version="1.0" standalone="no"?>
<svg width="567.429" height="384.969" viewBox="0 0 567.429 384.969" xmlns="http://www.w3.org/2000/svg" shape-rendering="crispEdges">
<title>
./new_vop/sector/sector12_combined.svg
</title>
<desc>
Creator: ROOT Version 6.24/00
CreationDate: Fri Jul 30 23:28:09 2021</desc>
<defs>
</defs>
<rect x="0.5" y="0" width="566.929" height="384.469" fill="white"/>
<rect x="57.1929" y="38.4469" width="453.543" height="307.575" fill="white"/>
<rect x="57.1929" y="38.4469" width="453.543" height="307.575" fill="none" stroke="black"/>
<path d="M57.1929,346.022h 453.543" fill="none" stroke="#000099"/>
<path d="M57.1929,346.022h 453.543" fill="none" stroke="black"/>
<path d="M57.1929,336.795v 9.22726" fill="none" stroke="black"/>
<path d="M72.311,341.409v 4.61363" fill="none" stroke="black"/>
<path d="M87.4291,341.409v 4.61363" fill="none" stroke="black"/>
<path d="M102.547,341.409v 4.61363" fill="none" stroke="black"/>
<path d="M117.665,341.409v 4.61363" fill="none" stroke="black"/>
<path d="M132.783,336.795v 9.22726" fill="none" stroke="black"/>
<path d="M147.902,341.409v 4.61363" fill="none" stroke="black"/>
<path d="M163.02,341.409v 4.61363" fill="none" stroke="black"/>
<path d="M178.138,341.409v 4.61363" fill="none" stroke="black"/>
<path d="M193.256,341.409v 4.61363" fill="none" stroke="black"/>
<path d="M208.374,336.795v 9.22726" fill="none" stroke="black"/>
<path d="M223.492,341.409v 4.61363" fill="none" stroke="black"/>
<path d="M238.61,341.409v 4.61363" fill="none" stroke="black"/>
<path d="M253.728,341.409v 4.61363" fill="none" stroke="black"/>
<path d="M268.846,341.409v 4.61363" fill="none" stroke="black"/>
<path d="M283.965,336.795v 9.22726" fill="none" stroke="black"/>
<path d="M299.083,341.409v 4.61363" fill="none" stroke="black"/>
<path d="M314.201,341.409v 4.61363" fill="none" stroke="black"/>
<path d="M329.319,341.409v 4.61363" fill="none" stroke="black"/>
<path d="M344.437,341.409v 4.61363" fill="none" stroke="black"/>
<path d="M359.555,336.795v 9.22726" fill="none" stroke="black"/>
<path d="M374.673,341.409v 4.61363" fill="none" stroke="black"/>
<path d="M389.791,341.409v 4.61363" fill="none" stroke="black"/>
<path d="M404.909,341.409v 4.61363" fill="none" stroke="black"/>
<path d="M420.028,341.409v 4.61363" fill="none" stroke="black"/>
<path d="M435.146,336.795v 9.22726" fill="none" stroke="black"/>
<path d="M450.264,341.409v 4.61363" fill="none" stroke="black"/>
<path d="M465.382,341.409v 4.61363" fill="none" stroke="black"/>
<path d="M480.5,341.409v 4.61363" fill="none" stroke="black"/>
<path d="M495.618,341.409v 4.61363" fill="none" stroke="black"/>
<path d="M510.736,336.795v 9.22726" fill="none" stroke="black"/>
<text xml:space="preserve" x="53.446" y="358.403" fill="black" font-size="12.8453" font-family="Helvetica">0</text>
<text xml:space="preserve" x="121.868" y="358.403" fill="black" font-size="12.8453" font-family="Helvetica">100</text>
<text xml:space="preserve" x="197.622" y="358.403" fill="black" font-size="12.8453" font-family="Helvetica">200</text>
<text xml:space="preserve" x="273.375" y="358.403" fill="black" font-size="12.8453" font-family="Helvetica">300</text>
<text xml:space="preserve" x="348.314" y="358.403" fill="black" font-size="12.8453" font-family="Helvetica">400</text>
<text xml:space="preserve" x="424.068" y="358.403" fill="black" font-size="12.8453" font-family="Helvetica">500</text>
<text xml:space="preserve" x="499.821" y="358.403" fill="black" font-size="12.8453" font-family="Helvetica">600</text>
<text xml:space="preserve" x="483.53" y="372.251" fill="black" font-size="12.8453" font-family="Helvetica">MPV</text>
<path d="M57.1929,346.022v -307.575" fill="none" stroke="black"/>
<path d="M70.7992,346.022h -13.6063" fill="none" stroke="black"/>
<path d="M63.9961,339.088h -6.80315" fill="none" stroke="black"/>
<path d="M63.9961,332.155h -6.80315" fill="none" stroke="black"/>
<path d="M63.9961,325.221h -6.80315" fill="none" stroke="black"/>
<path d="M70.7992,318.287h -13.6063" fill="none" stroke="black"/>
<path d="M63.9961,311.353h -6.80315" fill="none" stroke="black"/>
<path d="M63.9961,304.419h -6.80315" fill="none" stroke="black"/>
<path d="M63.9961,297.485h -6.80315" fill="none" stroke="black"/>
<path d="M70.7992,290.551h -13.6063" fill="none" stroke="black"/>
<path d="M63.9961,283.618h -6.80315" fill="none" stroke="black"/>
<path d="M63.9961,276.684h -6.80315" fill="none" stroke="black"/>
<path d="M63.9961,269.75h -6.80315" fill="none" stroke="black"/>
<path d="M70.7992,262.816h -13.6063" fill="none" stroke="black"/>
<path d="M63.9961,255.882h -6.80315" fill="none" stroke="black"/>
<path d="M63.9961,248.948h -6.80315" fill="none" stroke="black"/>
<path d="M63.9961,242.015h -6.80315" fill="none" stroke="black"/>
<path d="M70.7992,235.081h -13.6063" fill="none" stroke="black"/>
<path d="M63.9961,228.147h -6.80315" fill="none" stroke="black"/>
<path d="M63.9961,221.213h -6.80315" fill="none" stroke="black"/>
<path d="M63.9961,214.279h -6.80315" fill="none" stroke="black"/>
<path d="M70.7992,207.345h -13.6063" fill="none" stroke="black"/>
<path d="M63.9961,200.411h -6.80315" fill="none" stroke="black"/>
<path d="M63.9961,193.478h -6.80315" fill="none" stroke="black"/>
<path d="M63.9961,186.544h -6.80315" fill="none" stroke="black"/>
<path d="M70.7992,179.61h -13.6063" fill="none" stroke="black"/>
<path d="M63.9961,172.676h -6.80315" fill="none" stroke="black"/>
<path d="M63.9961,165.742h -6.80315" fill="none" stroke="black"/>
<path d="M63.9961,158.808h -6.80315" fill="none" stroke="black"/>
<path d="M70.7992,151.874h -13.6063" fill="none" stroke="black"/>
<path d="M63.9961,144.941h -6.80315" fill="none" stroke="black"/>
<path d="M63.9961,138.007h -6.80315" fill="none" stroke="black"/>
<path d="M63.9961,131.073h -6.80315" fill="none" stroke="black"/>
<path d="M70.7992,124.139h -13.6063" fill="none" stroke="black"/>
<path d="M63.9961,117.205h -6.80315" fill="none" stroke="black"/>
<path d="M63.9961,110.271h -6.80315" fill="none" stroke="black"/>
<path d="M63.9961,103.338h -6.80315" fill="none" stroke="black"/>
<path d="M70.7992,96.4037h -13.6063" fill="none" stroke="black"/>
<path d="M63.9961,89.4698h -6.80315" fill="none" stroke="black"/>
<path d="M63.9961,82.536h -6.80315" fill="none" stroke="black"/>
<path d="M63.9961,75.6021h -6.80315" fill="none" stroke="black"/>
<path d="M70.7992,68.6683h -13.6063" fill="none" stroke="black"/>
<path d="M63.9961,61.7344h -6.80315" fill="none" stroke="black"/>
<path d="M63.9961,54.8006h -6.80315" fill="none" stroke="black"/>
<path d="M63.9961,47.8667h -6.80315" fill="none" stroke="black"/>
<path d="M70.7992,40.9329h -13.6063" fill="none" stroke="black"/>
<path d="M70.7992,40.9329h -13.6063" fill="none" stroke="black"/>
<text xml:space="preserve" x="47.7441" y="350.258" fill="black" font-size="12.8453" font-family="Helvetica">0</text>
<text xml:space="preserve" x="47.7441" y="322.563" fill="black" font-size="12.8453" font-family="Helvetica">2</text>
<text xml:space="preserve" x="47.7441" y="294.868" fill="black" font-size="12.8453" font-family="Helvetica">4</text>
<text xml:space="preserve" x="47.7441" y="267.173" fill="black" font-size="12.8453" font-family="Helvetica">6</text>
<text xml:space="preserve" x="47.7441" y="239.479" fill="black" font-size="12.8453" font-family="Helvetica">8</text>
<text xml:space="preserve" x="41.2277" y="211.784" fill="black" font-size="12.8453" font-family="Helvetica">10</text>
<text xml:space="preserve" x="40.4131" y="184.089" fill="black" font-size="12.8453" font-family="Helvetica">12</text>
<text xml:space="preserve" x="40.4131" y="156.394" fill="black" font-size="12.8453" font-family="Helvetica">14</text>
<text xml:space="preserve" x="40.4131" y="128.699" fill="black" font-size="12.8453" font-family="Helvetica">16</text>
<text xml:space="preserve" x="40.4131" y="101.005" fill="black" font-size="12.8453" font-family="Helvetica">18</text>
<text xml:space="preserve" x="41.2277" y="73.3098" fill="black" font-size="12.8453" font-family="Helvetica">20</text>
<text xml:space="preserve" x="40.4131" y="45.615" fill="black" font-size="12.8453" font-family="Helvetica">22</text>
<g transform="rotate(-90,27.3803,103.448)">
<text xml:space="preserve" x="27.3803" y="103.448" fill="black" font-size="12.8453" font-family="Helvetica">Num Blocks</text>
</g>
<text xml:space="preserve" x="108.836" y="18.7347" fill="black" font-size="18.7938" font-family="Helvetica">Sector 12 Before and After FB Adjustment</text>
<g stroke="black" stroke-width="1" fill="none">
<line x1="63.752" y1="346.022" x2="64.752" y2="346.022"/>
</g>
<g stroke="black" stroke-width="1" fill="none">
<line x1="78.8701" y1="346.022" x2="79.8701" y2="346.022"/>
</g>
<g stroke="black" stroke-width="1" fill="none">
<line x1="93.9882" y1="346.022" x2="94.9882" y2="346.022"/>
</g>
<g stroke="black" stroke-width="1" fill="none">
<line x1="109.106" y1="346.022" x2="110.106" y2="346.022"/>
</g>
<g stroke="black" stroke-width="1" fill="none">
<line x1="124.224" y1="346.022" x2="125.224" y2="346.022"/>
</g>
<g stroke="black" stroke-width="1" fill="none">
<line x1="139.343" y1="346.022" x2="140.343" y2="346.022"/>
</g>
<g stroke="black" stroke-width="1" fill="none">
<line x1="154.461" y1="346.022" x2="155.461" y2="346.022"/>
</g>
<path d="M170.579,346.022v -13.8677" fill="none" stroke="#ff0000" fill-opacity="0.50" stroke-opacity="0.50"/>
<path d="M170.579,332.155v -13.8677" fill="none" stroke="#ff0000" fill-opacity="0.50" stroke-opacity="0.50"/>
<path d="M163.02,332.155h 7.55905" fill="none" stroke="#ff0000" fill-opacity="0.50" stroke-opacity="0.50"/>
<path d="M170.579,332.155h 7.55905" fill="none" stroke="#ff0000" fill-opacity="0.50" stroke-opacity="0.50"/>
<g stroke="black" stroke-width="1" fill="none">
<line x1="169.579" y1="332.155" x2="170.579" y2="332.155"/>
</g>
<g stroke="black" stroke-width="1" fill="none">
<line x1="184.697" y1="346.022" x2="185.697" y2="346.022"/>
</g>
<path d="M200.815,296.785v -33.9688" fill="none" stroke="#ff0000" fill-opacity="0.50" stroke-opacity="0.50"/>
<path d="M200.815,262.816v -33.9688" fill="none" stroke="#ff0000" fill-opacity="0.50" stroke-opacity="0.50"/>
<path d="M193.256,262.816h 7.55905" fill="none" stroke="#ff0000" fill-opacity="0.50" stroke-opacity="0.50"/>
<path d="M200.815,262.816h 7.55905" fill="none" stroke="#ff0000" fill-opacity="0.50" stroke-opacity="0.50"/>
<g stroke="black" stroke-width="1" fill="none">
<line x1="199.815" y1="262.816" x2="200.815" y2="262.816"/>
</g>
<path d="M215.933,296.785v -33.9688" fill="none" stroke="#ff0000" fill-opacity="0.50" stroke-opacity="0.50"/>
<path d="M215.933,262.816v -33.9688" fill="none" stroke="#ff0000" fill-opacity="0.50" stroke-opacity="0.50"/>
<path d="M208.374,262.816h 7.55905" fill="none" stroke="#ff0000" fill-opacity="0.50" stroke-opacity="0.50"/>
<path d="M215.933,262.816h 7.55905" fill="none" stroke="#ff0000" fill-opacity="0.50" stroke-opacity="0.50"/>
<g stroke="black" stroke-width="1" fill="none">
<line x1="214.933" y1="262.816" x2="215.933" y2="262.816"/>
</g>
<path d="M231.051,239.472v -45.994" fill="none" stroke="#ff0000" fill-opacity="0.50" stroke-opacity="0.50"/>
<path d="M231.051,193.478v -45.994" fill="none" stroke="#ff0000" fill-opacity="0.50" stroke-opacity="0.50"/>
<path d="M223.492,193.478h 7.55905" fill="none" stroke="#ff0000" fill-opacity="0.50" stroke-opacity="0.50"/>
<path d="M231.051,193.478h 7.55905" fill="none" stroke="#ff0000" fill-opacity="0.50" stroke-opacity="0.50"/>
<g stroke="black" stroke-width="1" fill="none">
<line x1="230.051" y1="193.478" x2="231.051" y2="193.478"/>
</g>
<path d="M246.169,167.449v -57.178" fill="none" stroke="#ff0000" fill-opacity="0.50" stroke-opacity="0.50"/>
<path d="M246.169,110.271v -57.178" fill="none" stroke="#ff0000" fill-opacity="0.50" stroke-opacity="0.50"/>
<path d="M238.61,110.271h 7.55905" fill="none" stroke="#ff0000" fill-opacity="0.50" stroke-opacity="0.50"/>
<path d="M246.169,110.271h 7.55905" fill="none" stroke="#ff0000" fill-opacity="0.50" stroke-opacity="0.50"/>
<g stroke="black" stroke-width="1" fill="none">
<line x1="245.169" y1="110.271" x2="246.169" y2="110.271"/>
</g>
<path d="M261.287,227.649v -48.0391" fill="none" stroke="#ff0000" fill-opacity="0.50" stroke-opacity="0.50"/>
<path d="M261.287,179.61v -48.0391" fill="none" stroke="#ff0000" fill-opacity="0.50" stroke-opacity="0.50"/>
<path d="M253.728,179.61h 7.55905" fill="none" stroke="#ff0000" fill-opacity="0.50" stroke-opacity="0.50"/>
<path d="M261.287,179.61h 7.55905" fill="none" stroke="#ff0000" fill-opacity="0.50" stroke-opacity="0.50"/>
<g stroke="black" stroke-width="1" fill="none">
<line x1="260.287" y1="179.61" x2="261.287" y2="179.61"/>
</g>
<path d="M276.406,191.716v -53.7094" fill="none" stroke="#ff0000" fill-opacity="0.50" stroke-opacity="0.50"/>
<path d="M276.406,138.007v -53.7094" fill="none" stroke="#ff0000" fill-opacity="0.50" stroke-opacity="0.50"/>
<path d="M268.846,138.007h 7.55905" fill="none" stroke="#ff0000" fill-opacity="0.50" stroke-opacity="0.50"/>
<path d="M276.406,138.007h 7.55905" fill="none" stroke="#ff0000" fill-opacity="0.50" stroke-opacity="0.50"/>
<g stroke="black" stroke-width="1" fill="none">
<line x1="275.406" y1="138.007" x2="276.406" y2="138.007"/>
</g>
<path d="M291.524,318.287v -27.7354" fill="none" stroke="#ff0000" fill-opacity="0.50" stroke-opacity="0.50"/>
<path d="M291.524,290.551v -27.7354" fill="none" stroke="#ff0000" fill-opacity="0.50" stroke-opacity="0.50"/>
<path d="M283.965,290.551h 7.55905" fill="none" stroke="#ff0000" fill-opacity="0.50" stroke-opacity="0.50"/>
<path d="M291.524,290.551h 7.55905" fill="none" stroke="#ff0000" fill-opacity="0.50" stroke-opacity="0.50"/>
<g stroke="black" stroke-width="1" fill="none">
<line x1="290.524" y1="290.551" x2="291.524" y2="290.551"/>
</g>
<path d="M306.642,285.639v -36.6905" fill="none" stroke="#ff0000" fill-opacity="0.50" stroke-opacity="0.50"/>
<path d="M306.642,248.948v -36.6905" fill="none" stroke="#ff0000" fill-opacity="0.50" stroke-opacity="0.50"/>
<path d="M299.083,248.948h 7.55905" fill="none" stroke="#ff0000" fill-opacity="0.50" stroke-opacity="0.50"/>
<path d="M306.642,248.948h 7.55905" fill="none" stroke="#ff0000" fill-opacity="0.50" stroke-opacity="0.50"/>
<g stroke="black" stroke-width="1" fill="none">
<line x1="305.642" y1="248.948" x2="306.642" y2="248.948"/>
</g>
<path d="M321.76,307.693v -31.0091" fill="none" stroke="#ff0000" fill-opacity="0.50" stroke-opacity="0.50"/>
<path d="M321.76,276.684v -31.0091" fill="none" stroke="#ff0000" fill-opacity="0.50" stroke-opacity="0.50"/>
<path d="M314.201,276.684h 7.55905" fill="none" stroke="#ff0000" fill-opacity="0.50" stroke-opacity="0.50"/>
<path d="M321.76,276.684h 7.55905" fill="none" stroke="#ff0000" fill-opacity="0.50" stroke-opacity="0.50"/>
<g stroke="black" stroke-width="1" fill="none">
<line x1="320.76" y1="276.684" x2="321.76" y2="276.684"/>
</g>
<path d="M336.878,307.693v -31.0091" fill="none" stroke="#ff0000" fill-opacity="0.50" stroke-opacity="0.50"/>
<path d="M336.878,276.684v -31.0091" fill="none" stroke="#ff0000" fill-opacity="0.50" stroke-opacity="0.50"/>
<path d="M329.319,276.684h 7.55905" fill="none" stroke="#ff0000" fill-opacity="0.50" stroke-opacity="0.50"/>
<path d="M336.878,276.684h 7.55905" fill="none" stroke="#ff0000" fill-opacity="0.50" stroke-opacity="0.50"/>
<g stroke="black" stroke-width="1" fill="none">
<line x1="335.878" y1="276.684" x2="336.878" y2="276.684"/>
</g>
<path d="M351.996,346.022v -13.8677" fill="none" stroke="#ff0000" fill-opacity="0.50" stroke-opacity="0.50"/>
<path d="M351.996,332.155v -13.8677" fill="none" stroke="#ff0000" fill-opacity="0.50" stroke-opacity="0.50"/>
<path d="M344.437,332.155h 7.55905" fill="none" stroke="#ff0000" fill-opacity="0.50" stroke-opacity="0.50"/>
<path d="M351.996,332.155h 7.55905" fill="none" stroke="#ff0000" fill-opacity="0.50" stroke-opacity="0.50"/>
<g stroke="black" stroke-width="1" fill="none">
<line x1="350.996" y1="332.155" x2="351.996" y2="332.155"/>
</g>
<g stroke="black" stroke-width="1" fill="none">
<line x1="366.114" y1="346.022" x2="367.114" y2="346.022"/>
</g>
<path d="M382.232,346.022v -13.8677" fill="none" stroke="#ff0000" fill-opacity="0.50" stroke-opacity="0.50"/>
<path d="M382.232,332.155v -13.8677" fill="none" stroke="#ff0000" fill-opacity="0.50" stroke-opacity="0.50"/>
<path d="M374.673,332.155h 7.55905" fill="none" stroke="#ff0000" fill-opacity="0.50" stroke-opacity="0.50"/>
<path d="M382.232,332.155h 7.55905" fill="none" stroke="#ff0000" fill-opacity="0.50" stroke-opacity="0.50"/>
<g stroke="black" stroke-width="1" fill="none">
<line x1="381.232" y1="332.155" x2="382.232" y2="332.155"/>
</g>
<g stroke="black" stroke-width="1" fill="none">
<line x1="396.35" y1="346.022" x2="397.35" y2="346.022"/>
</g>
<g stroke="black" stroke-width="1" fill="none">
<line x1="411.469" y1="346.022" x2="412.469" y2="346.022"/>
</g>
<g stroke="black" stroke-width="1" fill="none">
<line x1="426.587" y1="346.022" x2="427.587" y2="346.022"/>
</g>
<g stroke="black" stroke-width="1" fill="none">
<line x1="441.705" y1="346.022" x2="442.705" y2="346.022"/>
</g>
<g stroke="black" stroke-width="1" fill="none">
<line x1="456.823" y1="346.022" x2="457.823" y2="346.022"/>
</g>
<g stroke="black" stroke-width="1" fill="none">
<line x1="471.941" y1="346.022" x2="472.941" y2="346.022"/>
</g>
<g stroke="black" stroke-width="1" fill="none">
<line x1="487.059" y1="346.022" x2="488.059" y2="346.022"/>
</g>
<g stroke="black" stroke-width="1" fill="none">
<line x1="502.177" y1="346.022" x2="503.177" y2="346.022"/>
</g>
<path d="M59.4606,346.022h 18.1417l 4.53543, -0.0406187l 4.53543, -0.0215685l 4.53543, -0.0319593l 4.53543, -0.0467938l 4.53543, -0.067698l 4.53543, -0.0967701l 4.53543, -0.136666l 4.53543, -0.190684l 4.53543, -0.26283l 4.53543, -0.357862l 4.53543,
 -0.481287l 4.53543, -0.639303l 4.53543, -0.838662l 4.53543, -1.08643l 4.53543, -1.38965l 4.53543, -1.75486l 4.53543, -2.18753l 4.53543, -2.69139l 4.53543, -3.2676l 4.53543, -3.91405l 4.53543, -4.62449l 4.53543, -5.38798l 4.53543, -6.18831l 4.53543,
 -7.0039l 4.53543, -7.80788l 4.53543, -8.56871l 4.53543, -9.2512l 4.53543, -9.81799l 4.53543, -10.2314l 4.53543, -10.4557l 4.53543, -10.4595l 4.53543, -10.218l 4.53543, -9.71526l 4.53543, -8.94609l 4.53543, -7.91716l 4.53543, -6.64757l 4.53543,
 -5.16853l 4.53543, -3.52217l 4.53543, -1.75963l 4.53543, 0.0616011l 4.53543, 1.88077l 4.53543, 3.63724l 4.53543, 5.27385l 4.53543, 6.74001l 4.53543, 7.99424" fill="none" stroke="#ff0000" stroke-width="2"/>
<path d="M281.697,208.414l 4.53543, 9.00615l 4.53543, 9.75747l 4.53543, 10.2423l 4.53543, 10.4667l 4.53543, 10.4472l 4.53543, 10.2091l 4.53543, 9.78424l 4.53543, 9.20847l 4.53543, 8.51955l 4.53543, 7.75475l 4.53543, 6.94904l 4.53543, 6.1337l 4.53543,
 5.33522l 4.53543, 4.57486l 4.53543, 3.86843l 4.53543, 3.22657l 4.53543, 2.6552l 4.53543, 2.15621l 4.53543, 1.72821l 4.53543, 1.36736l 4.53543, 1.06809l 4.53543, 0.823804l 4.53543, 0.627448l 4.53543, 0.471966l 4.53543, 0.35064l 4.53543, 0.257313l
 4.53543, 0.186528l 4.53543, 0.133578l 4.53543, 0.0945065l 4.53543, 0.0660609l 4.53543, 0.0456253l 4.53543, 0.0311362l 4.53543, 0.0209962l 4.53543, 0.0394549h 68.0315" fill="none" stroke="#ff0000" stroke-width="2"/>
<path d="M503.933,346.022h 4.53543" fill="none" stroke="#ff0000" stroke-width="2"/>
<rect x="454.043" y="96.1173" width="113.386" height="115.341" fill="white"/>
<path d="M454.043,211.458h 113.386" fill="none" stroke="black"/>
<path d="M567.429,211.458v -115.341" fill="none" stroke="black"/>
<path d="M567.429,96.1173h -113.386" fill="none" stroke="black"/>
<path d="M454.043,96.1173v 115.341" fill="none" stroke="black"/>
<text xml:space="preserve" x="505.523" y="115.667" fill="black" font-size="19.9704" font-family="Helvetica">h</text>
<path d="M454.043,119.185h 113.386" fill="none" stroke="black"/>
<text xml:space="preserve" x="468.868" y="133.587" fill="black" font-size="10.4882" font-family="Helvetica"> / ndf </text>
<text xml:space="preserve" x="464.795" y="130.329" fill="black" font-size="7.15882" font-family="Helvetica">2</text>
<text xml:space="preserve" x="459.094" y="133.587" fill="black" font-size="10.4882" font-family="Times">&#0967;</text>
<text xml:space="preserve" x="521" y="134.401" fill="black" font-size="10.4882" font-family="Helvetica">    12 / 10</text>
<text xml:space="preserve" x="459.094" y="157.209" fill="black" font-size="10.4882" font-family="Helvetica">Constant </text>
<text xml:space="preserve" x="539.734" y="157.209" fill="black" font-size="10.4882" font-family="Helvetica"> 1.85</text>
<text xml:space="preserve" x="534.032" y="157.209" fill="black" font-size="10.4882" font-family="Times">&#0177;</text>
<text xml:space="preserve" x="503.894" y="157.209" fill="black" font-size="10.4882" font-family="Helvetica"> 11.78 </text>
<text xml:space="preserve" x="459.094" y="180.831" fill="black" font-size="10.4882" font-family="Helvetica">Mean     </text>
<text xml:space="preserve" x="545.436" y="180.831" fill="black" font-size="10.4882" font-family="Helvetica"> 7.4</text>
<text xml:space="preserve" x="539.734" y="180.831" fill="black" font-size="10.4882" font-family="Times">&#0177;</text>
<text xml:space="preserve" x="509.596" y="180.831" fill="black" font-size="10.4882" font-family="Helvetica"> 263.8 </text>
<text xml:space="preserve" x="459.094" y="202.824" fill="black" font-size="10.4882" font-family="Helvetica">Sigma    </text>
<text xml:space="preserve" x="539.734" y="203.638" fill="black" font-size="10.4882" font-family="Helvetica"> 7.44</text>
<text xml:space="preserve" x="534.032" y="203.638" fill="black" font-size="10.4882" font-family="Times">&#0177;</text>
<text xml:space="preserve" x="503.894" y="203.638" fill="black" font-size="10.4882" font-family="Helvetica"> 56.65 </text>
<g stroke="black" stroke-width="1" fill="none">
<line x1="63.752" y1="346.022" x2="64.752" y2="346.022"/>
</g>
<g stroke="black" stroke-width="1" fill="none">
<line x1="78.8701" y1="346.022" x2="79.8701" y2="346.022"/>
</g>
<g stroke="black" stroke-width="1" fill="none">
<line x1="93.9882" y1="346.022" x2="94.9882" y2="346.022"/>
</g>
<g stroke="black" stroke-width="1" fill="none">
<line x1="109.106" y1="346.022" x2="110.106" y2="346.022"/>
</g>
<g stroke="black" stroke-width="1" fill="none">
<line x1="124.224" y1="346.022" x2="125.224" y2="346.022"/>
</g>
<g stroke="black" stroke-width="1" fill="none">
<line x1="139.343" y1="346.022" x2="140.343" y2="346.022"/>
</g>
<g stroke="black" stroke-width="1" fill="none">
<line x1="154.461" y1="346.022" x2="155.461" y2="346.022"/>
</g>
<g stroke="black" stroke-width="1" fill="none">
<line x1="169.579" y1="346.022" x2="170.579" y2="346.022"/>
</g>
<path d="M185.697,346.022v -13.8677" fill="none" stroke="#0000ff" fill-opacity="0.50" stroke-opacity="0.50"/>
<path d="M185.697,332.155v -13.8677" fill="none" stroke="#0000ff" fill-opacity="0.50" stroke-opacity="0.50"/>
<path d="M178.138,332.155h 7.55905" fill="none" stroke="#0000ff" fill-opacity="0.50" stroke-opacity="0.50"/>
<path d="M185.697,332.155h 7.55905" fill="none" stroke="#0000ff" fill-opacity="0.50" stroke-opacity="0.50"/>
<g stroke="black" stroke-width="1" fill="none">
<line x1="184.697" y1="332.155" x2="185.697" y2="332.155"/>
</g>
<path d="M200.815,337.899v -19.6119" fill="none" stroke="#0000ff" fill-opacity="0.50" stroke-opacity="0.50"/>
<path d="M200.815,318.287v -19.6119" fill="none" stroke="#0000ff" fill-opacity="0.50" stroke-opacity="0.50"/>
<path d="M193.256,318.287h 7.55905" fill="none" stroke="#0000ff" fill-opacity="0.50" stroke-opacity="0.50"/>
<path d="M200.815,318.287h 7.55905" fill="none" stroke="#0000ff" fill-opacity="0.50" stroke-opacity="0.50"/>
<g stroke="black" stroke-width="1" fill="none">
<line x1="199.815" y1="318.287" x2="200.815" y2="318.287"/>
</g>
<path d="M215.933,262.816v -41.6031" fill="none" stroke="#0000ff" fill-opacity="0.50" stroke-opacity="0.50"/>
<path d="M215.933,221.213v -41.6031" fill="none" stroke="#0000ff" fill-opacity="0.50" stroke-opacity="0.50"/>
<path d="M208.374,221.213h 7.55905" fill="none" stroke="#0000ff" fill-opacity="0.50" stroke-opacity="0.50"/>
<path d="M215.933,221.213h 7.55905" fill="none" stroke="#0000ff" fill-opacity="0.50" stroke-opacity="0.50"/>
<g stroke="black" stroke-width="1" fill="none">
<line x1="214.933" y1="221.213" x2="215.933" y2="221.213"/>
</g>
<path d="M231.051,191.716v -53.7094" fill="none" stroke="#0000ff" fill-opacity="0.50" stroke-opacity="0.50"/>
<path d="M231.051,138.007v -53.7094" fill="none" stroke="#0000ff" fill-opacity="0.50" stroke-opacity="0.50"/>
<path d="M223.492,138.007h 7.55905" fill="none" stroke="#0000ff" fill-opacity="0.50" stroke-opacity="0.50"/>
<path d="M231.051,138.007h 7.55905" fill="none" stroke="#0000ff" fill-opacity="0.50" stroke-opacity="0.50"/>
<g stroke="black" stroke-width="1" fill="none">
<line x1="230.051" y1="138.007" x2="231.051" y2="138.007"/>
</g>
<path d="M246.169,215.743v -50.0007" fill="none" stroke="#0000ff" fill-opacity="0.50" stroke-opacity="0.50"/>
<path d="M246.169,165.742v -50.0007" fill="none" stroke="#0000ff" fill-opacity="0.50" stroke-opacity="0.50"/>
<path d="M238.61,165.742h 7.55905" fill="none" stroke="#0000ff" fill-opacity="0.50" stroke-opacity="0.50"/>
<path d="M246.169,165.742h 7.55905" fill="none" stroke="#0000ff" fill-opacity="0.50" stroke-opacity="0.50"/>
<g stroke="black" stroke-width="1" fill="none">
<line x1="245.169" y1="165.742" x2="246.169" y2="165.742"/>
</g>
<path d="M261.287,215.743v -50.0007" fill="none" stroke="#0000ff" fill-opacity="0.50" stroke-opacity="0.50"/>
<path d="M261.287,165.742v -50.0007" fill="none" stroke="#0000ff" fill-opacity="0.50" stroke-opacity="0.50"/>
<path d="M253.728,165.742h 7.55905" fill="none" stroke="#0000ff" fill-opacity="0.50" stroke-opacity="0.50"/>
<path d="M261.287,165.742h 7.55905" fill="none" stroke="#0000ff" fill-opacity="0.50" stroke-opacity="0.50"/>
<g stroke="black" stroke-width="1" fill="none">
<line x1="260.287" y1="165.742" x2="261.287" y2="165.742"/>
</g>
<path d="M276.406,227.649v -48.0391" fill="none" stroke="#0000ff" fill-opacity="0.50" stroke-opacity="0.50"/>
<path d="M276.406,179.61v -48.0391" fill="none" stroke="#0000ff" fill-opacity="0.50" stroke-opacity="0.50"/>
<path d="M268.846,179.61h 7.55905" fill="none" stroke="#0000ff" fill-opacity="0.50" stroke-opacity="0.50"/>
<path d="M276.406,179.61h 7.55905" fill="none" stroke="#0000ff" fill-opacity="0.50" stroke-opacity="0.50"/>
<g stroke="black" stroke-width="1" fill="none">
<line x1="275.406" y1="179.61" x2="276.406" y2="179.61"/>
</g>
<path d="M291.524,251.199v -43.8535" fill="none" stroke="#0000ff" fill-opacity="0.50" stroke-opacity="0.50"/>
<path d="M291.524,207.345v -43.8535" fill="none" stroke="#0000ff" fill-opacity="0.50" stroke-opacity="0.50"/>
<path d="M283.965,207.345h 7.55905" fill="none" stroke="#0000ff" fill-opacity="0.50" stroke-opacity="0.50"/>
<path d="M291.524,207.345h 7.55905" fill="none" stroke="#0000ff" fill-opacity="0.50" stroke-opacity="0.50"/>
<g stroke="black" stroke-width="1" fill="none">
<line x1="290.524" y1="207.345" x2="291.524" y2="207.345"/>
</g>
<path d="M306.642,285.639v -36.6905" fill="none" stroke="#0000ff" fill-opacity="0.50" stroke-opacity="0.50"/>
<path d="M306.642,248.948v -36.6905" fill="none" stroke="#0000ff" fill-opacity="0.50" stroke-opacity="0.50"/>
<path d="M299.083,248.948h 7.55905" fill="none" stroke="#0000ff" fill-opacity="0.50" stroke-opacity="0.50"/>
<path d="M306.642,248.948h 7.55905" fill="none" stroke="#0000ff" fill-opacity="0.50" stroke-opacity="0.50"/>
<g stroke="black" stroke-width="1" fill="none">
<line x1="305.642" y1="248.948" x2="306.642" y2="248.948"/>
</g>
<path d="M321.76,328.439v -24.0196" fill="none" stroke="#0000ff" fill-opacity="0.50" stroke-opacity="0.50"/>
<path d="M321.76,304.419v -24.0196" fill="none" stroke="#0000ff" fill-opacity="0.50" stroke-opacity="0.50"/>
<path d="M314.201,304.419h 7.55905" fill="none" stroke="#0000ff" fill-opacity="0.50" stroke-opacity="0.50"/>
<path d="M321.76,304.419h 7.55905" fill="none" stroke="#0000ff" fill-opacity="0.50" stroke-opacity="0.50"/>
<g stroke="black" stroke-width="1" fill="none">
<line x1="320.76" y1="304.419" x2="321.76" y2="304.419"/>
</g>
<path d="M336.878,328.439v -24.0196" fill="none" stroke="#0000ff" fill-opacity="0.50" stroke-opacity="0.50"/>
<path d="M336.878,304.419v -24.0196" fill="none" stroke="#0000ff" fill-opacity="0.50" stroke-opacity="0.50"/>
<path d="M329.319,304.419h 7.55905" fill="none" stroke="#0000ff" fill-opacity="0.50" stroke-opacity="0.50"/>
<path d="M336.878,304.419h 7.55905" fill="none" stroke="#0000ff" fill-opacity="0.50" stroke-opacity="0.50"/>
<g stroke="black" stroke-width="1" fill="none">
<line x1="335.878" y1="304.419" x2="336.878" y2="304.419"/>
</g>
<path d="M351.996,337.899v -19.6119" fill="none" stroke="#0000ff" fill-opacity="0.50" stroke-opacity="0.50"/>
<path d="M351.996,318.287v -19.6119" fill="none" stroke="#0000ff" fill-opacity="0.50" stroke-opacity="0.50"/>
<path d="M344.437,318.287h 7.55905" fill="none" stroke="#0000ff" fill-opacity="0.50" stroke-opacity="0.50"/>
<path d="M351.996,318.287h 7.55905" fill="none" stroke="#0000ff" fill-opacity="0.50" stroke-opacity="0.50"/>
<g stroke="black" stroke-width="1" fill="none">
<line x1="350.996" y1="318.287" x2="351.996" y2="318.287"/>
</g>
<path d="M367.114,346.022v -13.8677" fill="none" stroke="#0000ff" fill-opacity="0.50" stroke-opacity="0.50"/>
<path d="M367.114,332.155v -13.8677" fill="none" stroke="#0000ff" fill-opacity="0.50" stroke-opacity="0.50"/>
<path d="M359.555,332.155h 7.55905" fill="none" stroke="#0000ff" fill-opacity="0.50" stroke-opacity="0.50"/>
<path d="M367.114,332.155h 7.55905" fill="none" stroke="#0000ff" fill-opacity="0.50" stroke-opacity="0.50"/>
<g stroke="black" stroke-width="1" fill="none">
<line x1="366.114" y1="332.155" x2="367.114" y2="332.155"/>
</g>
<g stroke="black" stroke-width="1" fill="none">
<line x1="381.232" y1="346.022" x2="382.232" y2="346.022"/>
</g>
<g stroke="black" stroke-width="1" fill="none">
<line x1="396.35" y1="346.022" x2="397.35" y2="346.022"/>
</g>
<g stroke="black" stroke-width="1" fill="none">
<line x1="411.469" y1="346.022" x2="412.469" y2="346.022"/>
</g>
<g stroke="black" stroke-width="1" fill="none">
<line x1="426.587" y1="346.022" x2="427.587" y2="346.022"/>
</g>
<g stroke="black" stroke-width="1" fill="none">
<line x1="441.705" y1="346.022" x2="442.705" y2="346.022"/>
</g>
<g stroke="black" stroke-width="1" fill="none">
<line x1="456.823" y1="346.022" x2="457.823" y2="346.022"/>
</g>
<g stroke="black" stroke-width="1" fill="none">
<line x1="471.941" y1="346.022" x2="472.941" y2="346.022"/>
</g>
<g stroke="black" stroke-width="1" fill="none">
<line x1="487.059" y1="346.022" x2="488.059" y2="346.022"/>
</g>
<g stroke="black" stroke-width="1" fill="none">
<line x1="502.177" y1="346.022" x2="503.177" y2="346.022"/>
</g>
<path d="M59.4606,346.022h 49.8898l 4.53543, -0.0475312l 4.53543, -0.0306869l 4.53543, -0.0485359l 4.53543, -0.0755208l 4.53543, -0.115594l 4.53543, -0.174034l 4.53543, -0.257709l 4.53543, -0.375301l 4.53543, -0.537455l 4.53543, -0.756773l 4.53543,
 -1.0476l 4.53543, -1.42549l 4.53543, -1.90634l 4.53543, -2.50509l 4.53543, -3.23399l 4.53543, -4.10046l 4.53543, -5.10479l 4.53543, -6.23767l 4.53543, -7.47801l 4.53543, -8.79127l 4.53543, -10.1287l 4.53543, -11.4281l 4.53543, -12.6152l 4.53543,
 -13.6083l 4.53543, -14.3226l 4.53543, -14.6773l 4.53543, -14.6023l 4.53543, -14.046l 4.53543, -12.9815l 4.53543, -11.4115l 4.53543, -9.37113l 4.53543, -6.92738l 4.53543, -4.17605l 4.53543, -1.2356l 4.53543, 1.76133l 4.53543, 4.67783l 4.53543,
 7.38304l 4.53543, 9.76197" fill="none" stroke="#0000ff" stroke-width="2"/>
<path d="M281.697,173.825l 4.53543, 11.7235l 4.53543, 13.2061l 4.53543, 14.1804l 4.53543, 14.6492l 4.53543, 14.6442l 4.53543, 14.2207l 4.53543, 13.4513l 4.53543, 12.4179l 4.53543, 11.2052l 4.53543, 9.89407l 4.53543, 8.55671l 4.53543, 7.25316l
 4.53543, 6.02964l 4.53543, 4.91822l 4.53543, 3.93779l 4.53543, 3.0958l 4.53543, 2.39053l 4.53543, 1.81352l 4.53543, 1.35193l 4.53543, 0.990525l 4.53543, 0.713396l 4.53543, 0.50514l 4.53543, 0.351692l 4.53543, 0.240787l 4.53543, 0.162131l 4.53543,
 0.107375l 4.53543, 0.0699481l 4.53543, 0.0448249l 4.53543, 0.0282593l 4.53543, 0.0434707h 86.1732" fill="none" stroke="#0000ff" stroke-width="2"/>
<path d="M503.933,346.022h 4.53543" fill="none" stroke="#0000ff" stroke-width="2"/>
<rect x="454.043" y="211.458" width="113.386" height="115.341" fill="white"/>
<path d="M454.043,326.799h 113.386" fill="none" stroke="black"/>
<path d="M567.429,326.799v -115.341" fill="none" stroke="black"/>
<path d="M567.429,211.458h -113.386" fill="none" stroke="black"/>
<path d="M454.043,211.458v 115.341" fill="none" stroke="black"/>
<text xml:space="preserve" x="486.788" y="228.075" fill="black" font-size="19.9704" font-family="Helvetica">adj_h</text>
<path d="M454.043,234.526h 113.386" fill="none" stroke="black"/>
<text xml:space="preserve" x="468.868" y="249.253" fill="black" font-size="10.4882" font-family="Helvetica"> / ndf </text>
<text xml:space="preserve" x="464.795" y="245.995" fill="black" font-size="7.15882" font-family="Helvetica">2</text>
<text xml:space="preserve" x="459.094" y="249.253" fill="black" font-size="10.4882" font-family="Times">&#0967;</text>
<text xml:space="preserve" x="515.298" y="250.068" fill="black" font-size="10.4882" font-family="Helvetica"> 6.273 / 10</text>
<text xml:space="preserve" x="459.094" y="272.875" fill="black" font-size="10.4882" font-family="Helvetica">Constant </text>
<text xml:space="preserve" x="539.734" y="272.875" fill="black" font-size="10.4882" font-family="Helvetica"> 2.04</text>
<text xml:space="preserve" x="534.032" y="272.875" fill="black" font-size="10.4882" font-family="Times">&#0177;</text>
<text xml:space="preserve" x="503.894" y="272.875" fill="black" font-size="10.4882" font-family="Helvetica"> 14.12 </text>
<text xml:space="preserve" x="459.094" y="295.683" fill="black" font-size="10.4882" font-family="Helvetica">Mean     </text>
<text xml:space="preserve" x="545.436" y="295.683" fill="black" font-size="10.4882" font-family="Helvetica"> 5.9</text>
<text xml:space="preserve" x="539.734" y="295.683" fill="black" font-size="10.4882" font-family="Times">&#0177;</text>
<text xml:space="preserve" x="509.596" y="295.683" fill="black" font-size="10.4882" font-family="Helvetica"> 272.5 </text>
<text xml:space="preserve" x="459.094" y="318.49" fill="black" font-size="10.4882" font-family="Helvetica">Sigma    </text>
<text xml:space="preserve" x="545.436" y="319.305" fill="black" font-size="10.4882" font-family="Helvetica"> 4.9</text>
<text xml:space="preserve" x="539.734" y="319.305" fill="black" font-size="10.4882" font-family="Times">&#0177;</text>
<text xml:space="preserve" x="512.039" y="319.305" fill="black" font-size="10.4882" font-family="Helvetica">  48.4 </text>
<path d="M57.1929,346.022h 453.543" fill="none" stroke="black"/>
<path d="M57.1929,336.795v 9.22726" fill="none" stroke="black"/>
<path d="M72.311,341.409v 4.61363" fill="none" stroke="black"/>
<path d="M87.4291,341.409v 4.61363" fill="none" stroke="black"/>
<path d="M102.547,341.409v 4.61363" fill="none" stroke="black"/>
<path d="M117.665,341.409v 4.61363" fill="none" stroke="black"/>
<path d="M132.783,336.795v 9.22726" fill="none" stroke="black"/>
<path d="M147.902,341.409v 4.61363" fill="none" stroke="black"/>
<path d="M163.02,341.409v 4.61363" fill="none" stroke="black"/>
<path d="M178.138,341.409v 4.61363" fill="none" stroke="black"/>
<path d="M193.256,341.409v 4.61363" fill="none" stroke="black"/>
<path d="M208.374,336.795v 9.22726" fill="none" stroke="black"/>
<path d="M223.492,341.409v 4.61363" fill="none" stroke="black"/>
<path d="M238.61,341.409v 4.61363" fill="none" stroke="black"/>
<path d="M253.728,341.409v 4.61363" fill="none" stroke="black"/>
<path d="M268.846,341.409v 4.61363" fill="none" stroke="black"/>
<path d="M283.965,336.795v 9.22726" fill="none" stroke="black"/>
<path d="M299.083,341.409v 4.61363" fill="none" stroke="black"/>
<path d="M314.201,341.409v 4.61363" fill="none" stroke="black"/>
<path d="M329.319,341.409v 4.61363" fill="none" stroke="black"/>
<path d="M344.437,341.409v 4.61363" fill="none" stroke="black"/>
<path d="M359.555,336.795v 9.22726" fill="none" stroke="black"/>
<path d="M374.673,341.409v 4.61363" fill="none" stroke="black"/>
<path d="M389.791,341.409v 4.61363" fill="none" stroke="black"/>
<path d="M404.909,341.409v 4.61363" fill="none" stroke="black"/>
<path d="M420.028,341.409v 4.61363" fill="none" stroke="black"/>
<path d="M435.146,336.795v 9.22726" fill="none" stroke="black"/>
<path d="M450.264,341.409v 4.61363" fill="none" stroke="black"/>
<path d="M465.382,341.409v 4.61363" fill="none" stroke="black"/>
<path d="M480.5,341.409v 4.61363" fill="none" stroke="black"/>
<path d="M495.618,341.409v 4.61363" fill="none" stroke="black"/>
<path d="M510.736,336.795v 9.22726" fill="none" stroke="black"/>
<path d="M57.1929,346.022v -307.575" fill="none" stroke="black"/>
<path d="M70.7992,346.022h -13.6063" fill="none" stroke="black"/>
<path d="M63.9961,339.088h -6.80315" fill="none" stroke="black"/>
<path d="M63.9961,332.155h -6.80315" fill="none" stroke="black"/>
<path d="M63.9961,325.221h -6.80315" fill="none" stroke="black"/>
<path d="M70.7992,318.287h -13.6063" fill="none" stroke="black"/>
<path d="M63.9961,311.353h -6.80315" fill="none" stroke="black"/>
<path d="M63.9961,304.419h -6.80315" fill="none" stroke="black"/>
<path d="M63.9961,297.485h -6.80315" fill="none" stroke="black"/>
<path d="M70.7992,290.551h -13.6063" fill="none" stroke="black"/>
<path d="M63.9961,283.618h -6.80315" fill="none" stroke="black"/>
<path d="M63.9961,276.684h -6.80315" fill="none" stroke="black"/>
<path d="M63.9961,269.75h -6.80315" fill="none" stroke="black"/>
<path d="M70.7992,262.816h -13.6063" fill="none" stroke="black"/>
<path d="M63.9961,255.882h -6.80315" fill="none" stroke="black"/>
<path d="M63.9961,248.948h -6.80315" fill="none" stroke="black"/>
<path d="M63.9961,242.015h -6.80315" fill="none" stroke="black"/>
<path d="M70.7992,235.081h -13.6063" fill="none" stroke="black"/>
<path d="M63.9961,228.147h -6.80315" fill="none" stroke="black"/>
<path d="M63.9961,221.213h -6.80315" fill="none" stroke="black"/>
<path d="M63.9961,214.279h -6.80315" fill="none" stroke="black"/>
<path d="M70.7992,207.345h -13.6063" fill="none" stroke="black"/>
<path d="M63.9961,200.411h -6.80315" fill="none" stroke="black"/>
<path d="M63.9961,193.478h -6.80315" fill="none" stroke="black"/>
<path d="M63.9961,186.544h -6.80315" fill="none" stroke="black"/>
<path d="M70.7992,179.61h -13.6063" fill="none" stroke="black"/>
<path d="M63.9961,172.676h -6.80315" fill="none" stroke="black"/>
<path d="M63.9961,165.742h -6.80315" fill="none" stroke="black"/>
<path d="M63.9961,158.808h -6.80315" fill="none" stroke="black"/>
<path d="M70.7992,151.874h -13.6063" fill="none" stroke="black"/>
<path d="M63.9961,144.941h -6.80315" fill="none" stroke="black"/>
<path d="M63.9961,138.007h -6.80315" fill="none" stroke="black"/>
<path d="M63.9961,131.073h -6.80315" fill="none" stroke="black"/>
<path d="M70.7992,124.139h -13.6063" fill="none" stroke="black"/>
<path d="M63.9961,117.205h -6.80315" fill="none" stroke="black"/>
<path d="M63.9961,110.271h -6.80315" fill="none" stroke="black"/>
<path d="M63.9961,103.338h -6.80315" fill="none" stroke="black"/>
<path d="M70.7992,96.4037h -13.6063" fill="none" stroke="black"/>
<path d="M63.9961,89.4698h -6.80315" fill="none" stroke="black"/>
<path d="M63.9961,82.536h -6.80315" fill="none" stroke="black"/>
<path d="M63.9961,75.6021h -6.80315" fill="none" stroke="black"/>
<path d="M70.7992,68.6683h -13.6063" fill="none" stroke="black"/>
<path d="M63.9961,61.7344h -6.80315" fill="none" stroke="black"/>
<path d="M63.9961,54.8006h -6.80315" fill="none" stroke="black"/>
<path d="M63.9961,47.8667h -6.80315" fill="none" stroke="black"/>
<path d="M70.7992,40.9329h -13.6063" fill="none" stroke="black"/>
<path d="M70.7992,40.9329h -13.6063" fill="none" stroke="black"/>
<rect x="454.043" y="57.6704" width="113.386" height="38.4469" fill="white"/>
<path d="M454.043,96.1173h 113.386" fill="none" stroke="black"/>
<path d="M567.429,96.1173v -38.4469" fill="none" stroke="black"/>
<path d="M567.429,57.6704h -113.386" fill="none" stroke="black"/>
<path d="M454.043,57.6704v 38.4469" fill="none" stroke="black"/>
<text xml:space="preserve" x="481.901" y="70.8661" fill="black" font-size="15.4459" font-family="Helvetica">original</text>
<path d="M458.295,74.0103h 19.8425v -13.4564h -19.8425z" fill="white"/>
<path d="M458.295,67.2821h 19.8425" fill="none" stroke="#ff0000" fill-opacity="0.50" stroke-opacity="0.50"/>
<g stroke="black" stroke-width="1" fill="none">
<line x1="467.217" y1="67.2821" x2="468.217" y2="67.2821"/>
</g>
<text xml:space="preserve" x="481.901" y="90.4154" fill="black" font-size="15.4459" font-family="Helvetica">adjusted</text>
<path d="M458.295,93.2338h 19.8425v -13.4564h -19.8425z" fill="white"/>
<path d="M458.295,86.5056h 19.8425" fill="none" stroke="#0000ff" fill-opacity="0.50" stroke-opacity="0.50"/>
<g stroke="black" stroke-width="1" fill="none">
<line x1="467.217" y1="86.5056" x2="468.217" y2="86.5056"/>
</g>
<text xml:space="preserve" x="108.836" y="18.7347" fill="black" font-size="18.7938" font-family="Helvetica">Sector 12 Before and After FB Adjustment</text></svg>
