<?xml version="1.0" standalone="no"?>
<svg width="567.429" height="384.969" viewBox="0 0 567.429 384.969" xmlns="http://www.w3.org/2000/svg" shape-rendering="crispEdges">
<title>
./new_vop/sector/sector2_combined.svg
</title>
<desc>
Creator: ROOT Version 6.24/00
CreationDate: Sat Jul 24 11:09:17 2021</desc>
<defs>
</defs>
<rect x="0.5" y="0" width="566.929" height="384.469" fill="white"/>
<rect x="57.1929" y="38.4469" width="453.543" height="307.575" fill="white"/>
<rect x="57.1929" y="38.4469" width="453.543" height="307.575" fill="none" stroke="black"/>
<path d="M57.1929,346.022h 453.543" fill="none" stroke="#000099"/>
<path d="M57.1929,346.022h 453.543" fill="none" stroke="black"/>
<path d="M57.1929,336.795v 9.22726" fill="none" stroke="black"/>
<path d="M72.311,341.409v 4.61363" fill="none" stroke="black"/>
<path d="M87.4291,341.409v 4.61363" fill="none" stroke="black"/>
<path d="M102.547,341.409v 4.61363" fill="none" stroke="black"/>
<path d="M117.665,341.409v 4.61363" fill="none" stroke="black"/>
<path d="M132.783,336.795v 9.22726" fill="none" stroke="black"/>
<path d="M147.902,341.409v 4.61363" fill="none" stroke="black"/>
<path d="M163.02,341.409v 4.61363" fill="none" stroke="black"/>
<path d="M178.138,341.409v 4.61363" fill="none" stroke="black"/>
<path d="M193.256,341.409v 4.61363" fill="none" stroke="black"/>
<path d="M208.374,336.795v 9.22726" fill="none" stroke="black"/>
<path d="M223.492,341.409v 4.61363" fill="none" stroke="black"/>
<path d="M238.61,341.409v 4.61363" fill="none" stroke="black"/>
<path d="M253.728,341.409v 4.61363" fill="none" stroke="black"/>
<path d="M268.846,341.409v 4.61363" fill="none" stroke="black"/>
<path d="M283.965,336.795v 9.22726" fill="none" stroke="black"/>
<path d="M299.083,341.409v 4.61363" fill="none" stroke="black"/>
<path d="M314.201,341.409v 4.61363" fill="none" stroke="black"/>
<path d="M329.319,341.409v 4.61363" fill="none" stroke="black"/>
<path d="M344.437,341.409v 4.61363" fill="none" stroke="black"/>
<path d="M359.555,336.795v 9.22726" fill="none" stroke="black"/>
<path d="M374.673,341.409v 4.61363" fill="none" stroke="black"/>
<path d="M389.791,341.409v 4.61363" fill="none" stroke="black"/>
<path d="M404.909,341.409v 4.61363" fill="none" stroke="black"/>
<path d="M420.028,341.409v 4.61363" fill="none" stroke="black"/>
<path d="M435.146,336.795v 9.22726" fill="none" stroke="black"/>
<path d="M450.264,341.409v 4.61363" fill="none" stroke="black"/>
<path d="M465.382,341.409v 4.61363" fill="none" stroke="black"/>
<path d="M480.5,341.409v 4.61363" fill="none" stroke="black"/>
<path d="M495.618,341.409v 4.61363" fill="none" stroke="black"/>
<path d="M510.736,336.795v 9.22726" fill="none" stroke="black"/>
<text xml:space="preserve" x="53.446" y="358.403" fill="black" font-size="12.8453" font-family="Helvetica">0</text>
<text xml:space="preserve" x="121.868" y="358.403" fill="black" font-size="12.8453" font-family="Helvetica">100</text>
<text xml:space="preserve" x="197.622" y="358.403" fill="black" font-size="12.8453" font-family="Helvetica">200</text>
<text xml:space="preserve" x="273.375" y="358.403" fill="black" font-size="12.8453" font-family="Helvetica">300</text>
<text xml:space="preserve" x="348.314" y="358.403" fill="black" font-size="12.8453" font-family="Helvetica">400</text>
<text xml:space="preserve" x="424.068" y="358.403" fill="black" font-size="12.8453" font-family="Helvetica">500</text>
<text xml:space="preserve" x="499.821" y="358.403" fill="black" font-size="12.8453" font-family="Helvetica">600</text>
<text xml:space="preserve" x="483.53" y="372.251" fill="black" font-size="12.8453" font-family="Helvetica">MPV</text>
<path d="M57.1929,346.022v -307.575" fill="none" stroke="black"/>
<path d="M70.7992,346.022h -13.6063" fill="none" stroke="black"/>
<path d="M63.9961,339.752h -6.80315" fill="none" stroke="black"/>
<path d="M63.9961,333.482h -6.80315" fill="none" stroke="black"/>
<path d="M63.9961,327.212h -6.80315" fill="none" stroke="black"/>
<path d="M70.7992,320.942h -13.6063" fill="none" stroke="black"/>
<path d="M63.9961,314.671h -6.80315" fill="none" stroke="black"/>
<path d="M63.9961,308.401h -6.80315" fill="none" stroke="black"/>
<path d="M63.9961,302.131h -6.80315" fill="none" stroke="black"/>
<path d="M70.7992,295.861h -13.6063" fill="none" stroke="black"/>
<path d="M63.9961,289.591h -6.80315" fill="none" stroke="black"/>
<path d="M63.9961,283.32h -6.80315" fill="none" stroke="black"/>
<path d="M63.9961,277.05h -6.80315" fill="none" stroke="black"/>
<path d="M70.7992,270.78h -13.6063" fill="none" stroke="black"/>
<path d="M63.9961,264.51h -6.80315" fill="none" stroke="black"/>
<path d="M63.9961,258.24h -6.80315" fill="none" stroke="black"/>
<path d="M63.9961,251.97h -6.80315" fill="none" stroke="black"/>
<path d="M70.7992,245.699h -13.6063" fill="none" stroke="black"/>
<path d="M63.9961,239.429h -6.80315" fill="none" stroke="black"/>
<path d="M63.9961,233.159h -6.80315" fill="none" stroke="black"/>
<path d="M63.9961,226.889h -6.80315" fill="none" stroke="black"/>
<path d="M70.7992,220.619h -13.6063" fill="none" stroke="black"/>
<path d="M63.9961,214.349h -6.80315" fill="none" stroke="black"/>
<path d="M63.9961,208.078h -6.80315" fill="none" stroke="black"/>
<path d="M63.9961,201.808h -6.80315" fill="none" stroke="black"/>
<path d="M70.7992,195.538h -13.6063" fill="none" stroke="black"/>
<path d="M63.9961,189.268h -6.80315" fill="none" stroke="black"/>
<path d="M63.9961,182.998h -6.80315" fill="none" stroke="black"/>
<path d="M63.9961,176.727h -6.80315" fill="none" stroke="black"/>
<path d="M70.7992,170.457h -13.6063" fill="none" stroke="black"/>
<path d="M63.9961,164.187h -6.80315" fill="none" stroke="black"/>
<path d="M63.9961,157.917h -6.80315" fill="none" stroke="black"/>
<path d="M63.9961,151.647h -6.80315" fill="none" stroke="black"/>
<path d="M70.7992,145.377h -13.6063" fill="none" stroke="black"/>
<path d="M63.9961,139.106h -6.80315" fill="none" stroke="black"/>
<path d="M63.9961,132.836h -6.80315" fill="none" stroke="black"/>
<path d="M63.9961,126.566h -6.80315" fill="none" stroke="black"/>
<path d="M70.7992,120.296h -13.6063" fill="none" stroke="black"/>
<path d="M63.9961,114.026h -6.80315" fill="none" stroke="black"/>
<path d="M63.9961,107.756h -6.80315" fill="none" stroke="black"/>
<path d="M63.9961,101.485h -6.80315" fill="none" stroke="black"/>
<path d="M70.7992,95.2151h -13.6063" fill="none" stroke="black"/>
<path d="M63.9961,88.945h -6.80315" fill="none" stroke="black"/>
<path d="M63.9961,82.6748h -6.80315" fill="none" stroke="black"/>
<path d="M63.9961,76.4046h -6.80315" fill="none" stroke="black"/>
<path d="M70.7992,70.1344h -13.6063" fill="none" stroke="black"/>
<path d="M63.9961,63.8643h -6.80315" fill="none" stroke="black"/>
<path d="M63.9961,57.5941h -6.80315" fill="none" stroke="black"/>
<path d="M63.9961,51.3239h -6.80315" fill="none" stroke="black"/>
<path d="M70.7992,45.0537h -13.6063" fill="none" stroke="black"/>
<path d="M70.7992,45.0537h -13.6063" fill="none" stroke="black"/>
<path d="M63.9961,38.7836h -6.80315" fill="none" stroke="black"/>
<text xml:space="preserve" x="47.7441" y="350.258" fill="black" font-size="12.8453" font-family="Helvetica">0</text>
<text xml:space="preserve" x="47.7441" y="325.821" fill="black" font-size="12.8453" font-family="Helvetica">2</text>
<text xml:space="preserve" x="47.7441" y="300.57" fill="black" font-size="12.8453" font-family="Helvetica">4</text>
<text xml:space="preserve" x="47.7441" y="275.319" fill="black" font-size="12.8453" font-family="Helvetica">6</text>
<text xml:space="preserve" x="47.7441" y="250.068" fill="black" font-size="12.8453" font-family="Helvetica">8</text>
<text xml:space="preserve" x="41.2277" y="224.817" fill="black" font-size="12.8453" font-family="Helvetica">10</text>
<text xml:space="preserve" x="40.4131" y="200.38" fill="black" font-size="12.8453" font-family="Helvetica">12</text>
<text xml:space="preserve" x="40.4131" y="175.129" fill="black" font-size="12.8453" font-family="Helvetica">14</text>
<text xml:space="preserve" x="40.4131" y="149.878" fill="black" font-size="12.8453" font-family="Helvetica">16</text>
<text xml:space="preserve" x="40.4131" y="124.627" fill="black" font-size="12.8453" font-family="Helvetica">18</text>
<text xml:space="preserve" x="41.2277" y="99.3755" fill="black" font-size="12.8453" font-family="Helvetica">20</text>
<text xml:space="preserve" x="40.4131" y="74.9389" fill="black" font-size="12.8453" font-family="Helvetica">22</text>
<text xml:space="preserve" x="40.4131" y="49.6878" fill="black" font-size="12.8453" font-family="Helvetica">24</text>
<g transform="rotate(-90,27.3803,103.448)">
<text xml:space="preserve" x="27.3803" y="103.448" fill="black" font-size="12.8453" font-family="Helvetica">Num Blocks</text>
</g>
<text xml:space="preserve" x="113.723" y="18.7347" fill="black" font-size="18.7938" font-family="Helvetica">Sector 2 Before and After FB Adjustment</text>
<g stroke="black" stroke-width="1" fill="none">
<line x1="63.752" y1="346.022" x2="64.752" y2="346.022"/>
</g>
<g stroke="black" stroke-width="1" fill="none">
<line x1="78.8701" y1="346.022" x2="79.8701" y2="346.022"/>
</g>
<g stroke="black" stroke-width="1" fill="none">
<line x1="93.9882" y1="346.022" x2="94.9882" y2="346.022"/>
</g>
<g stroke="black" stroke-width="1" fill="none">
<line x1="109.106" y1="346.022" x2="110.106" y2="346.022"/>
</g>
<g stroke="black" stroke-width="1" fill="none">
<line x1="124.224" y1="346.022" x2="125.224" y2="346.022"/>
</g>
<g stroke="black" stroke-width="1" fill="none">
<line x1="139.343" y1="346.022" x2="140.343" y2="346.022"/>
</g>
<g stroke="black" stroke-width="1" fill="none">
<line x1="154.461" y1="346.022" x2="155.461" y2="346.022"/>
</g>
<g stroke="black" stroke-width="1" fill="none">
<line x1="169.579" y1="346.022" x2="170.579" y2="346.022"/>
</g>
<path d="M185.697,346.022v -12.5404" fill="none" stroke="#ff0000" fill-opacity="0.50" stroke-opacity="0.50"/>
<path d="M185.697,333.482v -12.5404" fill="none" stroke="#ff0000" fill-opacity="0.50" stroke-opacity="0.50"/>
<path d="M178.138,333.482h 7.55905" fill="none" stroke="#ff0000" fill-opacity="0.50" stroke-opacity="0.50"/>
<path d="M185.697,333.482h 7.55905" fill="none" stroke="#ff0000" fill-opacity="0.50" stroke-opacity="0.50"/>
<g stroke="black" stroke-width="1" fill="none">
<line x1="184.697" y1="333.482" x2="185.697" y2="333.482"/>
</g>
<g stroke="black" stroke-width="1" fill="none">
<line x1="199.815" y1="346.022" x2="200.815" y2="346.022"/>
</g>
<path d="M215.933,338.676v -17.7347" fill="none" stroke="#ff0000" fill-opacity="0.50" stroke-opacity="0.50"/>
<path d="M215.933,320.942v -17.7347" fill="none" stroke="#ff0000" fill-opacity="0.50" stroke-opacity="0.50"/>
<path d="M208.374,320.942h 7.55905" fill="none" stroke="#ff0000" fill-opacity="0.50" stroke-opacity="0.50"/>
<path d="M215.933,320.942h 7.55905" fill="none" stroke="#ff0000" fill-opacity="0.50" stroke-opacity="0.50"/>
<g stroke="black" stroke-width="1" fill="none">
<line x1="214.933" y1="320.942" x2="215.933" y2="320.942"/>
</g>
<path d="M231.051,238.979v -43.4411" fill="none" stroke="#ff0000" fill-opacity="0.50" stroke-opacity="0.50"/>
<path d="M231.051,195.538v -43.4411" fill="none" stroke="#ff0000" fill-opacity="0.50" stroke-opacity="0.50"/>
<path d="M223.492,195.538h 7.55905" fill="none" stroke="#ff0000" fill-opacity="0.50" stroke-opacity="0.50"/>
<path d="M231.051,195.538h 7.55905" fill="none" stroke="#ff0000" fill-opacity="0.50" stroke-opacity="0.50"/>
<g stroke="black" stroke-width="1" fill="none">
<line x1="230.051" y1="195.538" x2="231.051" y2="195.538"/>
</g>
<path d="M246.169,184.541v -51.7052" fill="none" stroke="#ff0000" fill-opacity="0.50" stroke-opacity="0.50"/>
<path d="M246.169,132.836v -51.7052" fill="none" stroke="#ff0000" fill-opacity="0.50" stroke-opacity="0.50"/>
<path d="M238.61,132.836h 7.55905" fill="none" stroke="#ff0000" fill-opacity="0.50" stroke-opacity="0.50"/>
<path d="M246.169,132.836h 7.55905" fill="none" stroke="#ff0000" fill-opacity="0.50" stroke-opacity="0.50"/>
<g stroke="black" stroke-width="1" fill="none">
<line x1="245.169" y1="132.836" x2="246.169" y2="132.836"/>
</g>
<path d="M261.287,249.67v -41.5917" fill="none" stroke="#ff0000" fill-opacity="0.50" stroke-opacity="0.50"/>
<path d="M261.287,208.078v -41.5917" fill="none" stroke="#ff0000" fill-opacity="0.50" stroke-opacity="0.50"/>
<path d="M253.728,208.078h 7.55905" fill="none" stroke="#ff0000" fill-opacity="0.50" stroke-opacity="0.50"/>
<path d="M261.287,208.078h 7.55905" fill="none" stroke="#ff0000" fill-opacity="0.50" stroke-opacity="0.50"/>
<g stroke="black" stroke-width="1" fill="none">
<line x1="260.287" y1="208.078" x2="261.287" y2="208.078"/>
</g>
<path d="M276.406,162.418v -54.6621" fill="none" stroke="#ff0000" fill-opacity="0.50" stroke-opacity="0.50"/>
<path d="M276.406,107.756v -54.6621" fill="none" stroke="#ff0000" fill-opacity="0.50" stroke-opacity="0.50"/>
<path d="M268.846,107.756h 7.55905" fill="none" stroke="#ff0000" fill-opacity="0.50" stroke-opacity="0.50"/>
<path d="M276.406,107.756h 7.55905" fill="none" stroke="#ff0000" fill-opacity="0.50" stroke-opacity="0.50"/>
<g stroke="black" stroke-width="1" fill="none">
<line x1="275.406" y1="107.756" x2="276.406" y2="107.756"/>
</g>
<path d="M291.524,249.67v -41.5917" fill="none" stroke="#ff0000" fill-opacity="0.50" stroke-opacity="0.50"/>
<path d="M291.524,208.078v -41.5917" fill="none" stroke="#ff0000" fill-opacity="0.50" stroke-opacity="0.50"/>
<path d="M283.965,208.078h 7.55905" fill="none" stroke="#ff0000" fill-opacity="0.50" stroke-opacity="0.50"/>
<path d="M291.524,208.078h 7.55905" fill="none" stroke="#ff0000" fill-opacity="0.50" stroke-opacity="0.50"/>
<g stroke="black" stroke-width="1" fill="none">
<line x1="290.524" y1="208.078" x2="291.524" y2="208.078"/>
</g>
<path d="M306.642,301.498v -30.7175" fill="none" stroke="#ff0000" fill-opacity="0.50" stroke-opacity="0.50"/>
<path d="M306.642,270.78v -30.7175" fill="none" stroke="#ff0000" fill-opacity="0.50" stroke-opacity="0.50"/>
<path d="M299.083,270.78h 7.55905" fill="none" stroke="#ff0000" fill-opacity="0.50" stroke-opacity="0.50"/>
<path d="M306.642,270.78h 7.55905" fill="none" stroke="#ff0000" fill-opacity="0.50" stroke-opacity="0.50"/>
<g stroke="black" stroke-width="1" fill="none">
<line x1="305.642" y1="270.78" x2="306.642" y2="270.78"/>
</g>
<path d="M321.76,270.78v -37.6211" fill="none" stroke="#ff0000" fill-opacity="0.50" stroke-opacity="0.50"/>
<path d="M321.76,233.159v -37.6211" fill="none" stroke="#ff0000" fill-opacity="0.50" stroke-opacity="0.50"/>
<path d="M314.201,233.159h 7.55905" fill="none" stroke="#ff0000" fill-opacity="0.50" stroke-opacity="0.50"/>
<path d="M321.76,233.159h 7.55905" fill="none" stroke="#ff0000" fill-opacity="0.50" stroke-opacity="0.50"/>
<g stroke="black" stroke-width="1" fill="none">
<line x1="320.76" y1="233.159" x2="321.76" y2="233.159"/>
</g>
<path d="M336.878,346.022v -12.5404" fill="none" stroke="#ff0000" fill-opacity="0.50" stroke-opacity="0.50"/>
<path d="M336.878,333.482v -12.5404" fill="none" stroke="#ff0000" fill-opacity="0.50" stroke-opacity="0.50"/>
<path d="M329.319,333.482h 7.55905" fill="none" stroke="#ff0000" fill-opacity="0.50" stroke-opacity="0.50"/>
<path d="M336.878,333.482h 7.55905" fill="none" stroke="#ff0000" fill-opacity="0.50" stroke-opacity="0.50"/>
<g stroke="black" stroke-width="1" fill="none">
<line x1="335.878" y1="333.482" x2="336.878" y2="333.482"/>
</g>
<g stroke="black" stroke-width="1" fill="none">
<line x1="350.996" y1="346.022" x2="351.996" y2="346.022"/>
</g>
<g stroke="black" stroke-width="1" fill="none">
<line x1="366.114" y1="346.022" x2="367.114" y2="346.022"/>
</g>
<g stroke="black" stroke-width="1" fill="none">
<line x1="381.232" y1="346.022" x2="382.232" y2="346.022"/>
</g>
<g stroke="black" stroke-width="1" fill="none">
<line x1="396.35" y1="346.022" x2="397.35" y2="346.022"/>
</g>
<g stroke="black" stroke-width="1" fill="none">
<line x1="411.469" y1="346.022" x2="412.469" y2="346.022"/>
</g>
<g stroke="black" stroke-width="1" fill="none">
<line x1="426.587" y1="346.022" x2="427.587" y2="346.022"/>
</g>
<g stroke="black" stroke-width="1" fill="none">
<line x1="441.705" y1="346.022" x2="442.705" y2="346.022"/>
</g>
<g stroke="black" stroke-width="1" fill="none">
<line x1="456.823" y1="346.022" x2="457.823" y2="346.022"/>
</g>
<g stroke="black" stroke-width="1" fill="none">
<line x1="471.941" y1="346.022" x2="472.941" y2="346.022"/>
</g>
<g stroke="black" stroke-width="1" fill="none">
<line x1="487.059" y1="346.022" x2="488.059" y2="346.022"/>
</g>
<g stroke="black" stroke-width="1" fill="none">
<line x1="502.177" y1="346.022" x2="503.177" y2="346.022"/>
</g>
<path d="M59.4606,346.022h 77.1024l 4.53543, -0.0376319l 4.53543, -0.030714l 4.53543, -0.0531338l 4.53543, -0.089835l 4.53543, -0.148427l 4.53543, -0.239616l 4.53543, -0.377917l 4.53543, -0.582213l 4.53543, -0.875978l 4.53543, -1.28688l 4.53543,
 -1.84549l 4.53543, -2.58279l 4.53543, -3.52635l 4.53543, -4.69514l 4.53543, -6.09327l 4.53543, -7.7034l 4.53543, -9.48061l 4.53543, -11.3483l 4.53543, -13.197l 4.53543, -14.8882l 4.53543, -16.2627l 4.53543, -17.1547l 4.53543, -17.4093l 4.53543,
 -16.9032l 4.53543, -15.563l 4.53543, -13.3816l 4.53543, -10.4259l 4.53543, -6.83686l 4.53543, -2.81896l 4.53543, 1.37876l 4.53543, 5.48831l 4.53543, 9.25102" fill="none" stroke="#ff0000" stroke-width="2"/>
<path d="M281.697,166.301l 4.53543, 12.4445l 4.53543, 14.9042l 4.53543, 16.5372l 4.53543, 17.3257l 4.53543, 17.3215l 4.53543, 16.6329l 4.53543, 15.4062l 4.53543, 13.8055l 4.53543, 11.9942l 4.53543, 10.1191l 4.53543, 8.30037l 4.53543, 6.62603l
 4.53543, 5.15157l 4.53543, 3.90324l 4.53543, 2.88357l 4.53543, 2.07796l 4.53543, 1.46118l 4.53543, 1.00289l 4.53543, 0.672055l 4.53543, 0.439796l 4.53543, 0.281111l 4.53543, 0.175532l 4.53543, 0.107091l 4.53543, 0.0638442l 4.53543, 0.0371976l
 4.53543, 0.0463396h 104.315" fill="none" stroke="#ff0000" stroke-width="2"/>
<path d="M503.933,346.022h 4.53543" fill="none" stroke="#ff0000" stroke-width="2"/>
<rect x="454.043" y="96.1173" width="113.386" height="115.341" fill="white"/>
<path d="M454.043,211.458h 113.386" fill="none" stroke="black"/>
<path d="M567.429,211.458v -115.341" fill="none" stroke="black"/>
<path d="M567.429,96.1173h -113.386" fill="none" stroke="black"/>
<path d="M454.043,96.1173v 115.341" fill="none" stroke="black"/>
<text xml:space="preserve" x="505.523" y="115.667" fill="black" font-size="19.9704" font-family="Helvetica">h</text>
<path d="M454.043,119.185h 113.386" fill="none" stroke="black"/>
<text xml:space="preserve" x="468.868" y="133.587" fill="black" font-size="10.4882" font-family="Helvetica"> / ndf </text>
<text xml:space="preserve" x="464.795" y="130.329" fill="black" font-size="7.15882" font-family="Helvetica">2</text>
<text xml:space="preserve" x="459.094" y="133.587" fill="black" font-size="10.4882" font-family="Times">&#0967;</text>
<text xml:space="preserve" x="521" y="134.401" fill="black" font-size="10.4882" font-family="Helvetica"> 11.04 / 7</text>
<text xml:space="preserve" x="459.094" y="157.209" fill="black" font-size="10.4882" font-family="Helvetica">Constant </text>
<text xml:space="preserve" x="539.734" y="157.209" fill="black" font-size="10.4882" font-family="Helvetica"> 2.22</text>
<text xml:space="preserve" x="534.032" y="157.209" fill="black" font-size="10.4882" font-family="Times">&#0177;</text>
<text xml:space="preserve" x="503.894" y="157.209" fill="black" font-size="10.4882" font-family="Helvetica"> 15.62 </text>
<text xml:space="preserve" x="459.094" y="180.831" fill="black" font-size="10.4882" font-family="Helvetica">Mean     </text>
<text xml:space="preserve" x="545.436" y="180.831" fill="black" font-size="10.4882" font-family="Helvetica"> 5.0</text>
<text xml:space="preserve" x="539.734" y="180.831" fill="black" font-size="10.4882" font-family="Times">&#0177;</text>
<text xml:space="preserve" x="512.039" y="180.831" fill="black" font-size="10.4882" font-family="Helvetica">   280 </text>
<text xml:space="preserve" x="459.094" y="202.824" fill="black" font-size="10.4882" font-family="Helvetica">Sigma    </text>
<text xml:space="preserve" x="539.734" y="203.638" fill="black" font-size="10.4882" font-family="Helvetica"> 4.03</text>
<text xml:space="preserve" x="534.032" y="203.638" fill="black" font-size="10.4882" font-family="Times">&#0177;</text>
<text xml:space="preserve" x="503.894" y="203.638" fill="black" font-size="10.4882" font-family="Helvetica"> 40.86 </text>
<g stroke="black" stroke-width="1" fill="none">
<line x1="63.752" y1="346.022" x2="64.752" y2="346.022"/>
</g>
<g stroke="black" stroke-width="1" fill="none">
<line x1="78.8701" y1="346.022" x2="79.8701" y2="346.022"/>
</g>
<g stroke="black" stroke-width="1" fill="none">
<line x1="93.9882" y1="346.022" x2="94.9882" y2="346.022"/>
</g>
<g stroke="black" stroke-width="1" fill="none">
<line x1="109.106" y1="346.022" x2="110.106" y2="346.022"/>
</g>
<g stroke="black" stroke-width="1" fill="none">
<line x1="124.224" y1="346.022" x2="125.224" y2="346.022"/>
</g>
<g stroke="black" stroke-width="1" fill="none">
<line x1="139.343" y1="346.022" x2="140.343" y2="346.022"/>
</g>
<g stroke="black" stroke-width="1" fill="none">
<line x1="154.461" y1="346.022" x2="155.461" y2="346.022"/>
</g>
<g stroke="black" stroke-width="1" fill="none">
<line x1="169.579" y1="346.022" x2="170.579" y2="346.022"/>
</g>
<path d="M185.697,346.022v -12.5404" fill="none" stroke="#0000ff" fill-opacity="0.50" stroke-opacity="0.50"/>
<path d="M185.697,333.482v -12.5404" fill="none" stroke="#0000ff" fill-opacity="0.50" stroke-opacity="0.50"/>
<path d="M178.138,333.482h 7.55905" fill="none" stroke="#0000ff" fill-opacity="0.50" stroke-opacity="0.50"/>
<path d="M185.697,333.482h 7.55905" fill="none" stroke="#0000ff" fill-opacity="0.50" stroke-opacity="0.50"/>
<g stroke="black" stroke-width="1" fill="none">
<line x1="184.697" y1="333.482" x2="185.697" y2="333.482"/>
</g>
<g stroke="black" stroke-width="1" fill="none">
<line x1="199.815" y1="346.022" x2="200.815" y2="346.022"/>
</g>
<path d="M215.933,338.676v -17.7347" fill="none" stroke="#0000ff" fill-opacity="0.50" stroke-opacity="0.50"/>
<path d="M215.933,320.942v -17.7347" fill="none" stroke="#0000ff" fill-opacity="0.50" stroke-opacity="0.50"/>
<path d="M208.374,320.942h 7.55905" fill="none" stroke="#0000ff" fill-opacity="0.50" stroke-opacity="0.50"/>
<path d="M215.933,320.942h 7.55905" fill="none" stroke="#0000ff" fill-opacity="0.50" stroke-opacity="0.50"/>
<g stroke="black" stroke-width="1" fill="none">
<line x1="214.933" y1="320.942" x2="215.933" y2="320.942"/>
</g>
<path d="M231.051,301.498v -30.7175" fill="none" stroke="#0000ff" fill-opacity="0.50" stroke-opacity="0.50"/>
<path d="M231.051,270.78v -30.7175" fill="none" stroke="#0000ff" fill-opacity="0.50" stroke-opacity="0.50"/>
<path d="M223.492,270.78h 7.55905" fill="none" stroke="#0000ff" fill-opacity="0.50" stroke-opacity="0.50"/>
<path d="M231.051,270.78h 7.55905" fill="none" stroke="#0000ff" fill-opacity="0.50" stroke-opacity="0.50"/>
<g stroke="black" stroke-width="1" fill="none">
<line x1="230.051" y1="270.78" x2="231.051" y2="270.78"/>
</g>
<path d="M246.169,238.979v -43.4411" fill="none" stroke="#0000ff" fill-opacity="0.50" stroke-opacity="0.50"/>
<path d="M246.169,195.538v -43.4411" fill="none" stroke="#0000ff" fill-opacity="0.50" stroke-opacity="0.50"/>
<path d="M238.61,195.538h 7.55905" fill="none" stroke="#0000ff" fill-opacity="0.50" stroke-opacity="0.50"/>
<path d="M246.169,195.538h 7.55905" fill="none" stroke="#0000ff" fill-opacity="0.50" stroke-opacity="0.50"/>
<g stroke="black" stroke-width="1" fill="none">
<line x1="245.169" y1="195.538" x2="246.169" y2="195.538"/>
</g>
<path d="M261.287,184.541v -51.7052" fill="none" stroke="#0000ff" fill-opacity="0.50" stroke-opacity="0.50"/>
<path d="M261.287,132.836v -51.7052" fill="none" stroke="#0000ff" fill-opacity="0.50" stroke-opacity="0.50"/>
<path d="M253.728,132.836h 7.55905" fill="none" stroke="#0000ff" fill-opacity="0.50" stroke-opacity="0.50"/>
<path d="M261.287,132.836h 7.55905" fill="none" stroke="#0000ff" fill-opacity="0.50" stroke-opacity="0.50"/>
<g stroke="black" stroke-width="1" fill="none">
<line x1="260.287" y1="132.836" x2="261.287" y2="132.836"/>
</g>
<path d="M276.406,249.67v -41.5917" fill="none" stroke="#0000ff" fill-opacity="0.50" stroke-opacity="0.50"/>
<path d="M276.406,208.078v -41.5917" fill="none" stroke="#0000ff" fill-opacity="0.50" stroke-opacity="0.50"/>
<path d="M268.846,208.078h 7.55905" fill="none" stroke="#0000ff" fill-opacity="0.50" stroke-opacity="0.50"/>
<path d="M276.406,208.078h 7.55905" fill="none" stroke="#0000ff" fill-opacity="0.50" stroke-opacity="0.50"/>
<g stroke="black" stroke-width="1" fill="none">
<line x1="275.406" y1="208.078" x2="276.406" y2="208.078"/>
</g>
<path d="M291.524,173.5v -53.2042" fill="none" stroke="#0000ff" fill-opacity="0.50" stroke-opacity="0.50"/>
<path d="M291.524,120.296v -53.2042" fill="none" stroke="#0000ff" fill-opacity="0.50" stroke-opacity="0.50"/>
<path d="M283.965,120.296h 7.55905" fill="none" stroke="#0000ff" fill-opacity="0.50" stroke-opacity="0.50"/>
<path d="M291.524,120.296h 7.55905" fill="none" stroke="#0000ff" fill-opacity="0.50" stroke-opacity="0.50"/>
<g stroke="black" stroke-width="1" fill="none">
<line x1="290.524" y1="120.296" x2="291.524" y2="120.296"/>
</g>
<path d="M306.642,291.418v -33.1787" fill="none" stroke="#0000ff" fill-opacity="0.50" stroke-opacity="0.50"/>
<path d="M306.642,258.24v -33.1787" fill="none" stroke="#0000ff" fill-opacity="0.50" stroke-opacity="0.50"/>
<path d="M299.083,258.24h 7.55905" fill="none" stroke="#0000ff" fill-opacity="0.50" stroke-opacity="0.50"/>
<path d="M306.642,258.24h 7.55905" fill="none" stroke="#0000ff" fill-opacity="0.50" stroke-opacity="0.50"/>
<g stroke="black" stroke-width="1" fill="none">
<line x1="305.642" y1="258.24" x2="306.642" y2="258.24"/>
</g>
<path d="M321.76,291.418v -33.1787" fill="none" stroke="#0000ff" fill-opacity="0.50" stroke-opacity="0.50"/>
<path d="M321.76,258.24v -33.1787" fill="none" stroke="#0000ff" fill-opacity="0.50" stroke-opacity="0.50"/>
<path d="M314.201,258.24h 7.55905" fill="none" stroke="#0000ff" fill-opacity="0.50" stroke-opacity="0.50"/>
<path d="M321.76,258.24h 7.55905" fill="none" stroke="#0000ff" fill-opacity="0.50" stroke-opacity="0.50"/>
<g stroke="black" stroke-width="1" fill="none">
<line x1="320.76" y1="258.24" x2="321.76" y2="258.24"/>
</g>
<path d="M336.878,291.418v -33.1787" fill="none" stroke="#0000ff" fill-opacity="0.50" stroke-opacity="0.50"/>
<path d="M336.878,258.24v -33.1787" fill="none" stroke="#0000ff" fill-opacity="0.50" stroke-opacity="0.50"/>
<path d="M329.319,258.24h 7.55905" fill="none" stroke="#0000ff" fill-opacity="0.50" stroke-opacity="0.50"/>
<path d="M336.878,258.24h 7.55905" fill="none" stroke="#0000ff" fill-opacity="0.50" stroke-opacity="0.50"/>
<g stroke="black" stroke-width="1" fill="none">
<line x1="335.878" y1="258.24" x2="336.878" y2="258.24"/>
</g>
<path d="M351.996,346.022v -12.5404" fill="none" stroke="#0000ff" fill-opacity="0.50" stroke-opacity="0.50"/>
<path d="M351.996,333.482v -12.5404" fill="none" stroke="#0000ff" fill-opacity="0.50" stroke-opacity="0.50"/>
<path d="M344.437,333.482h 7.55905" fill="none" stroke="#0000ff" fill-opacity="0.50" stroke-opacity="0.50"/>
<path d="M351.996,333.482h 7.55905" fill="none" stroke="#0000ff" fill-opacity="0.50" stroke-opacity="0.50"/>
<g stroke="black" stroke-width="1" fill="none">
<line x1="350.996" y1="333.482" x2="351.996" y2="333.482"/>
</g>
<g stroke="black" stroke-width="1" fill="none">
<line x1="366.114" y1="346.022" x2="367.114" y2="346.022"/>
</g>
<g stroke="black" stroke-width="1" fill="none">
<line x1="381.232" y1="346.022" x2="382.232" y2="346.022"/>
</g>
<g stroke="black" stroke-width="1" fill="none">
<line x1="396.35" y1="346.022" x2="397.35" y2="346.022"/>
</g>
<g stroke="black" stroke-width="1" fill="none">
<line x1="411.469" y1="346.022" x2="412.469" y2="346.022"/>
</g>
<g stroke="black" stroke-width="1" fill="none">
<line x1="426.587" y1="346.022" x2="427.587" y2="346.022"/>
</g>
<g stroke="black" stroke-width="1" fill="none">
<line x1="441.705" y1="346.022" x2="442.705" y2="346.022"/>
</g>
<g stroke="black" stroke-width="1" fill="none">
<line x1="456.823" y1="346.022" x2="457.823" y2="346.022"/>
</g>
<g stroke="black" stroke-width="1" fill="none">
<line x1="471.941" y1="346.022" x2="472.941" y2="346.022"/>
</g>
<g stroke="black" stroke-width="1" fill="none">
<line x1="487.059" y1="346.022" x2="488.059" y2="346.022"/>
</g>
<g stroke="black" stroke-width="1" fill="none">
<line x1="502.177" y1="346.022" x2="503.177" y2="346.022"/>
</g>
<path d="M59.4606,346.022h 72.5669l 4.53543, -0.0494884l 4.53543, -0.033923l 4.53543, -0.0547853l 4.53543, -0.0868743l 4.53543, -0.135251l 4.53543, -0.206716l 4.53543, -0.310131l 4.53543, -0.456672l 4.53543, -0.659926l 4.53543, -0.93574l 4.53543,
 -1.3017l 4.53543, -1.77616l 4.53543, -2.37668l 4.53543, -3.11793l 4.53543, -4.00907l 4.53543, -5.05068l 4.53543, -6.23167l 4.53543, -7.52648l 4.53543, -8.89302l 4.53543, -10.272l 4.53543, -11.5877l 4.53543, -12.7517l 4.53543, -13.6674l 4.53543,
 -14.2382l 4.53543, -14.3758l 4.53543, -14.0099l 4.53543, -13.0969l 4.53543, -11.6275l 4.53543, -9.63084l 4.53543, -7.17559l 4.53543, -4.36648l 4.53543, -1.33714l 4.53543, 1.76035" fill="none" stroke="#0000ff" stroke-width="2"/>
<path d="M281.697,166.433l 4.53543, 4.76818l 4.53543, 7.5361l 4.53543, 9.93388l 4.53543, 11.8614l 4.53543, 13.2553l 4.53543, 14.0918l 4.53543, 14.3854l 4.53543, 14.1837l 4.53543, 13.56l 4.53543, 12.6044l 4.53543, 11.4141l 4.53543, 10.0846l 4.53543,
 8.70328l 4.53543, 7.34346l 4.53543, 6.06216l 4.53543, 4.89913l 4.53543, 3.87781l 4.53543, 3.00749l 4.53543, 2.28624l 4.53543, 1.70397l 4.53543, 1.24548l 4.53543, 0.89297l 4.53543, 0.628121l 4.53543, 0.433539l 4.53543, 0.293665l 4.53543, 0.195242l
 4.53543, 0.12742l 4.53543, 0.0816376l 4.53543, 0.0513537l 4.53543, 0.0317187l 4.53543, 0.046006h 81.6378" fill="none" stroke="#0000ff" stroke-width="2"/>
<path d="M503.933,346.022h 4.53543" fill="none" stroke="#0000ff" stroke-width="2"/>
<rect x="454.043" y="211.458" width="113.386" height="115.341" fill="white"/>
<path d="M454.043,326.799h 113.386" fill="none" stroke="black"/>
<path d="M567.429,326.799v -115.341" fill="none" stroke="black"/>
<path d="M567.429,211.458h -113.386" fill="none" stroke="black"/>
<path d="M454.043,211.458v 115.341" fill="none" stroke="black"/>
<text xml:space="preserve" x="486.788" y="228.075" fill="black" font-size="19.9704" font-family="Helvetica">adj_h</text>
<path d="M454.043,234.526h 113.386" fill="none" stroke="black"/>
<text xml:space="preserve" x="468.868" y="249.253" fill="black" font-size="10.4882" font-family="Helvetica"> / ndf </text>
<text xml:space="preserve" x="464.795" y="245.995" fill="black" font-size="7.15882" font-family="Helvetica">2</text>
<text xml:space="preserve" x="459.094" y="249.253" fill="black" font-size="10.4882" font-family="Times">&#0967;</text>
<text xml:space="preserve" x="521" y="250.068" fill="black" font-size="10.4882" font-family="Helvetica"> 8.102 / 8</text>
<text xml:space="preserve" x="459.094" y="272.875" fill="black" font-size="10.4882" font-family="Helvetica">Constant </text>
<text xml:space="preserve" x="539.734" y="272.875" fill="black" font-size="10.4882" font-family="Helvetica"> 2.06</text>
<text xml:space="preserve" x="534.032" y="272.875" fill="black" font-size="10.4882" font-family="Times">&#0177;</text>
<text xml:space="preserve" x="503.894" y="272.875" fill="black" font-size="10.4882" font-family="Helvetica"> 14.46 </text>
<text xml:space="preserve" x="459.094" y="295.683" fill="black" font-size="10.4882" font-family="Helvetica">Mean     </text>
<text xml:space="preserve" x="545.436" y="295.683" fill="black" font-size="10.4882" font-family="Helvetica"> 5.5</text>
<text xml:space="preserve" x="539.734" y="295.683" fill="black" font-size="10.4882" font-family="Times">&#0177;</text>
<text xml:space="preserve" x="509.596" y="295.683" fill="black" font-size="10.4882" font-family="Helvetica"> 290.6 </text>
<text xml:space="preserve" x="459.094" y="318.49" fill="black" font-size="10.4882" font-family="Helvetica">Sigma    </text>
<text xml:space="preserve" x="539.734" y="319.305" fill="black" font-size="10.4882" font-family="Helvetica"> 4.69</text>
<text xml:space="preserve" x="534.032" y="319.305" fill="black" font-size="10.4882" font-family="Times">&#0177;</text>
<text xml:space="preserve" x="505.523" y="319.305" fill="black" font-size="10.4882" font-family="Helvetica"> 45.81 </text>
<path d="M57.1929,346.022h 453.543" fill="none" stroke="black"/>
<path d="M57.1929,336.795v 9.22726" fill="none" stroke="black"/>
<path d="M72.311,341.409v 4.61363" fill="none" stroke="black"/>
<path d="M87.4291,341.409v 4.61363" fill="none" stroke="black"/>
<path d="M102.547,341.409v 4.61363" fill="none" stroke="black"/>
<path d="M117.665,341.409v 4.61363" fill="none" stroke="black"/>
<path d="M132.783,336.795v 9.22726" fill="none" stroke="black"/>
<path d="M147.902,341.409v 4.61363" fill="none" stroke="black"/>
<path d="M163.02,341.409v 4.61363" fill="none" stroke="black"/>
<path d="M178.138,341.409v 4.61363" fill="none" stroke="black"/>
<path d="M193.256,341.409v 4.61363" fill="none" stroke="black"/>
<path d="M208.374,336.795v 9.22726" fill="none" stroke="black"/>
<path d="M223.492,341.409v 4.61363" fill="none" stroke="black"/>
<path d="M238.61,341.409v 4.61363" fill="none" stroke="black"/>
<path d="M253.728,341.409v 4.61363" fill="none" stroke="black"/>
<path d="M268.846,341.409v 4.61363" fill="none" stroke="black"/>
<path d="M283.965,336.795v 9.22726" fill="none" stroke="black"/>
<path d="M299.083,341.409v 4.61363" fill="none" stroke="black"/>
<path d="M314.201,341.409v 4.61363" fill="none" stroke="black"/>
<path d="M329.319,341.409v 4.61363" fill="none" stroke="black"/>
<path d="M344.437,341.409v 4.61363" fill="none" stroke="black"/>
<path d="M359.555,336.795v 9.22726" fill="none" stroke="black"/>
<path d="M374.673,341.409v 4.61363" fill="none" stroke="black"/>
<path d="M389.791,341.409v 4.61363" fill="none" stroke="black"/>
<path d="M404.909,341.409v 4.61363" fill="none" stroke="black"/>
<path d="M420.028,341.409v 4.61363" fill="none" stroke="black"/>
<path d="M435.146,336.795v 9.22726" fill="none" stroke="black"/>
<path d="M450.264,341.409v 4.61363" fill="none" stroke="black"/>
<path d="M465.382,341.409v 4.61363" fill="none" stroke="black"/>
<path d="M480.5,341.409v 4.61363" fill="none" stroke="black"/>
<path d="M495.618,341.409v 4.61363" fill="none" stroke="black"/>
<path d="M510.736,336.795v 9.22726" fill="none" stroke="black"/>
<path d="M57.1929,346.022v -307.575" fill="none" stroke="black"/>
<path d="M70.7992,346.022h -13.6063" fill="none" stroke="black"/>
<path d="M63.9961,339.752h -6.80315" fill="none" stroke="black"/>
<path d="M63.9961,333.482h -6.80315" fill="none" stroke="black"/>
<path d="M63.9961,327.212h -6.80315" fill="none" stroke="black"/>
<path d="M70.7992,320.942h -13.6063" fill="none" stroke="black"/>
<path d="M63.9961,314.671h -6.80315" fill="none" stroke="black"/>
<path d="M63.9961,308.401h -6.80315" fill="none" stroke="black"/>
<path d="M63.9961,302.131h -6.80315" fill="none" stroke="black"/>
<path d="M70.7992,295.861h -13.6063" fill="none" stroke="black"/>
<path d="M63.9961,289.591h -6.80315" fill="none" stroke="black"/>
<path d="M63.9961,283.32h -6.80315" fill="none" stroke="black"/>
<path d="M63.9961,277.05h -6.80315" fill="none" stroke="black"/>
<path d="M70.7992,270.78h -13.6063" fill="none" stroke="black"/>
<path d="M63.9961,264.51h -6.80315" fill="none" stroke="black"/>
<path d="M63.9961,258.24h -6.80315" fill="none" stroke="black"/>
<path d="M63.9961,251.97h -6.80315" fill="none" stroke="black"/>
<path d="M70.7992,245.699h -13.6063" fill="none" stroke="black"/>
<path d="M63.9961,239.429h -6.80315" fill="none" stroke="black"/>
<path d="M63.9961,233.159h -6.80315" fill="none" stroke="black"/>
<path d="M63.9961,226.889h -6.80315" fill="none" stroke="black"/>
<path d="M70.7992,220.619h -13.6063" fill="none" stroke="black"/>
<path d="M63.9961,214.349h -6.80315" fill="none" stroke="black"/>
<path d="M63.9961,208.078h -6.80315" fill="none" stroke="black"/>
<path d="M63.9961,201.808h -6.80315" fill="none" stroke="black"/>
<path d="M70.7992,195.538h -13.6063" fill="none" stroke="black"/>
<path d="M63.9961,189.268h -6.80315" fill="none" stroke="black"/>
<path d="M63.9961,182.998h -6.80315" fill="none" stroke="black"/>
<path d="M63.9961,176.727h -6.80315" fill="none" stroke="black"/>
<path d="M70.7992,170.457h -13.6063" fill="none" stroke="black"/>
<path d="M63.9961,164.187h -6.80315" fill="none" stroke="black"/>
<path d="M63.9961,157.917h -6.80315" fill="none" stroke="black"/>
<path d="M63.9961,151.647h -6.80315" fill="none" stroke="black"/>
<path d="M70.7992,145.377h -13.6063" fill="none" stroke="black"/>
<path d="M63.9961,139.106h -6.80315" fill="none" stroke="black"/>
<path d="M63.9961,132.836h -6.80315" fill="none" stroke="black"/>
<path d="M63.9961,126.566h -6.80315" fill="none" stroke="black"/>
<path d="M70.7992,120.296h -13.6063" fill="none" stroke="black"/>
<path d="M63.9961,114.026h -6.80315" fill="none" stroke="black"/>
<path d="M63.9961,107.756h -6.80315" fill="none" stroke="black"/>
<path d="M63.9961,101.485h -6.80315" fill="none" stroke="black"/>
<path d="M70.7992,95.2151h -13.6063" fill="none" stroke="black"/>
<path d="M63.9961,88.945h -6.80315" fill="none" stroke="black"/>
<path d="M63.9961,82.6748h -6.80315" fill="none" stroke="black"/>
<path d="M63.9961,76.4046h -6.80315" fill="none" stroke="black"/>
<path d="M70.7992,70.1344h -13.6063" fill="none" stroke="black"/>
<path d="M63.9961,63.8643h -6.80315" fill="none" stroke="black"/>
<path d="M63.9961,57.5941h -6.80315" fill="none" stroke="black"/>
<path d="M63.9961,51.3239h -6.80315" fill="none" stroke="black"/>
<path d="M70.7992,45.0537h -13.6063" fill="none" stroke="black"/>
<path d="M70.7992,45.0537h -13.6063" fill="none" stroke="black"/>
<path d="M63.9961,38.7836h -6.80315" fill="none" stroke="black"/>
<rect x="454.043" y="57.6704" width="113.386" height="38.4469" fill="white"/>
<path d="M454.043,96.1173h 113.386" fill="none" stroke="black"/>
<path d="M567.429,96.1173v -38.4469" fill="none" stroke="black"/>
<path d="M567.429,57.6704h -113.386" fill="none" stroke="black"/>
<path d="M454.043,57.6704v 38.4469" fill="none" stroke="black"/>
<text xml:space="preserve" x="481.901" y="70.8661" fill="black" font-size="15.4459" font-family="Helvetica">original</text>
<path d="M458.295,74.0103h 19.8425v -13.4564h -19.8425z" fill="white"/>
<path d="M458.295,67.2821h 19.8425" fill="none" stroke="#ff0000" fill-opacity="0.50" stroke-opacity="0.50"/>
<g stroke="black" stroke-width="1" fill="none">
<line x1="467.217" y1="67.2821" x2="468.217" y2="67.2821"/>
</g>
<text xml:space="preserve" x="481.901" y="90.4154" fill="black" font-size="15.4459" font-family="Helvetica">adjusted</text>
<path d="M458.295,93.2338h 19.8425v -13.4564h -19.8425z" fill="white"/>
<path d="M458.295,86.5056h 19.8425" fill="none" stroke="#0000ff" fill-opacity="0.50" stroke-opacity="0.50"/>
<g stroke="black" stroke-width="1" fill="none">
<line x1="467.217" y1="86.5056" x2="468.217" y2="86.5056"/>
</g>
<text xml:space="preserve" x="113.723" y="18.7347" fill="black" font-size="18.7938" font-family="Helvetica">Sector 2 Before and After FB Adjustment</text></svg>
