<?xml version="1.0" standalone="no"?>
<svg width="567.429" height="384.969" viewBox="0 0 567.429 384.969" xmlns="http://www.w3.org/2000/svg" shape-rendering="crispEdges">
<title>
./new_vop/sector/sector9_combined.svg
</title>
<desc>
Creator: ROOT Version 6.24/00
CreationDate: Mon Jul 19 13:27:57 2021</desc>
<defs>
</defs>
<rect x="0.5" y="0" width="566.929" height="384.469" fill="white"/>
<rect x="57.1929" y="38.4469" width="453.543" height="307.575" fill="white"/>
<rect x="57.1929" y="38.4469" width="453.543" height="307.575" fill="none" stroke="black"/>
<path d="M57.1929,346.022h 453.543" fill="none" stroke="#000099"/>
<path d="M57.1929,346.022h 453.543" fill="none" stroke="black"/>
<path d="M57.1929,336.795v 9.22726" fill="none" stroke="black"/>
<path d="M72.311,341.409v 4.61363" fill="none" stroke="black"/>
<path d="M87.4291,341.409v 4.61363" fill="none" stroke="black"/>
<path d="M102.547,341.409v 4.61363" fill="none" stroke="black"/>
<path d="M117.665,341.409v 4.61363" fill="none" stroke="black"/>
<path d="M132.783,336.795v 9.22726" fill="none" stroke="black"/>
<path d="M147.902,341.409v 4.61363" fill="none" stroke="black"/>
<path d="M163.02,341.409v 4.61363" fill="none" stroke="black"/>
<path d="M178.138,341.409v 4.61363" fill="none" stroke="black"/>
<path d="M193.256,341.409v 4.61363" fill="none" stroke="black"/>
<path d="M208.374,336.795v 9.22726" fill="none" stroke="black"/>
<path d="M223.492,341.409v 4.61363" fill="none" stroke="black"/>
<path d="M238.61,341.409v 4.61363" fill="none" stroke="black"/>
<path d="M253.728,341.409v 4.61363" fill="none" stroke="black"/>
<path d="M268.846,341.409v 4.61363" fill="none" stroke="black"/>
<path d="M283.965,336.795v 9.22726" fill="none" stroke="black"/>
<path d="M299.083,341.409v 4.61363" fill="none" stroke="black"/>
<path d="M314.201,341.409v 4.61363" fill="none" stroke="black"/>
<path d="M329.319,341.409v 4.61363" fill="none" stroke="black"/>
<path d="M344.437,341.409v 4.61363" fill="none" stroke="black"/>
<path d="M359.555,336.795v 9.22726" fill="none" stroke="black"/>
<path d="M374.673,341.409v 4.61363" fill="none" stroke="black"/>
<path d="M389.791,341.409v 4.61363" fill="none" stroke="black"/>
<path d="M404.909,341.409v 4.61363" fill="none" stroke="black"/>
<path d="M420.028,341.409v 4.61363" fill="none" stroke="black"/>
<path d="M435.146,336.795v 9.22726" fill="none" stroke="black"/>
<path d="M450.264,341.409v 4.61363" fill="none" stroke="black"/>
<path d="M465.382,341.409v 4.61363" fill="none" stroke="black"/>
<path d="M480.5,341.409v 4.61363" fill="none" stroke="black"/>
<path d="M495.618,341.409v 4.61363" fill="none" stroke="black"/>
<path d="M510.736,336.795v 9.22726" fill="none" stroke="black"/>
<text xml:space="preserve" x="53.446" y="358.403" fill="black" font-size="12.8453" font-family="Helvetica">0</text>
<text xml:space="preserve" x="121.868" y="358.403" fill="black" font-size="12.8453" font-family="Helvetica">100</text>
<text xml:space="preserve" x="197.622" y="358.403" fill="black" font-size="12.8453" font-family="Helvetica">200</text>
<text xml:space="preserve" x="273.375" y="358.403" fill="black" font-size="12.8453" font-family="Helvetica">300</text>
<text xml:space="preserve" x="348.314" y="358.403" fill="black" font-size="12.8453" font-family="Helvetica">400</text>
<text xml:space="preserve" x="424.068" y="358.403" fill="black" font-size="12.8453" font-family="Helvetica">500</text>
<text xml:space="preserve" x="499.821" y="358.403" fill="black" font-size="12.8453" font-family="Helvetica">600</text>
<text xml:space="preserve" x="483.53" y="372.251" fill="black" font-size="12.8453" font-family="Helvetica">MPV</text>
<path d="M57.1929,346.022v -307.575" fill="none" stroke="black"/>
<path d="M70.7992,346.022h -13.6063" fill="none" stroke="black"/>
<path d="M63.9961,338.262h -6.80315" fill="none" stroke="black"/>
<path d="M63.9961,330.501h -6.80315" fill="none" stroke="black"/>
<path d="M63.9961,322.741h -6.80315" fill="none" stroke="black"/>
<path d="M70.7992,314.98h -13.6063" fill="none" stroke="black"/>
<path d="M63.9961,307.22h -6.80315" fill="none" stroke="black"/>
<path d="M63.9961,299.459h -6.80315" fill="none" stroke="black"/>
<path d="M63.9961,291.699h -6.80315" fill="none" stroke="black"/>
<path d="M70.7992,283.938h -13.6063" fill="none" stroke="black"/>
<path d="M63.9961,276.177h -6.80315" fill="none" stroke="black"/>
<path d="M63.9961,268.417h -6.80315" fill="none" stroke="black"/>
<path d="M63.9961,260.656h -6.80315" fill="none" stroke="black"/>
<path d="M70.7992,252.896h -13.6063" fill="none" stroke="black"/>
<path d="M63.9961,245.135h -6.80315" fill="none" stroke="black"/>
<path d="M63.9961,237.375h -6.80315" fill="none" stroke="black"/>
<path d="M63.9961,229.614h -6.80315" fill="none" stroke="black"/>
<path d="M70.7992,221.854h -13.6063" fill="none" stroke="black"/>
<path d="M63.9961,214.093h -6.80315" fill="none" stroke="black"/>
<path d="M63.9961,206.333h -6.80315" fill="none" stroke="black"/>
<path d="M63.9961,198.572h -6.80315" fill="none" stroke="black"/>
<path d="M70.7992,190.812h -13.6063" fill="none" stroke="black"/>
<path d="M63.9961,183.051h -6.80315" fill="none" stroke="black"/>
<path d="M63.9961,175.29h -6.80315" fill="none" stroke="black"/>
<path d="M63.9961,167.53h -6.80315" fill="none" stroke="black"/>
<path d="M70.7992,159.769h -13.6063" fill="none" stroke="black"/>
<path d="M63.9961,152.009h -6.80315" fill="none" stroke="black"/>
<path d="M63.9961,144.248h -6.80315" fill="none" stroke="black"/>
<path d="M63.9961,136.488h -6.80315" fill="none" stroke="black"/>
<path d="M70.7992,128.727h -13.6063" fill="none" stroke="black"/>
<path d="M63.9961,120.967h -6.80315" fill="none" stroke="black"/>
<path d="M63.9961,113.206h -6.80315" fill="none" stroke="black"/>
<path d="M63.9961,105.446h -6.80315" fill="none" stroke="black"/>
<path d="M70.7992,97.6851h -13.6063" fill="none" stroke="black"/>
<path d="M63.9961,89.9246h -6.80315" fill="none" stroke="black"/>
<path d="M63.9961,82.1641h -6.80315" fill="none" stroke="black"/>
<path d="M63.9961,74.4035h -6.80315" fill="none" stroke="black"/>
<path d="M70.7992,66.643h -13.6063" fill="none" stroke="black"/>
<path d="M70.7992,66.643h -13.6063" fill="none" stroke="black"/>
<path d="M63.9961,58.8825h -6.80315" fill="none" stroke="black"/>
<path d="M63.9961,51.1219h -6.80315" fill="none" stroke="black"/>
<path d="M63.9961,43.3614h -6.80315" fill="none" stroke="black"/>
<text xml:space="preserve" x="47.7441" y="350.258" fill="black" font-size="12.8453" font-family="Helvetica">0</text>
<text xml:space="preserve" x="47.7441" y="319.305" fill="black" font-size="12.8453" font-family="Helvetica">2</text>
<text xml:space="preserve" x="47.7441" y="288.352" fill="black" font-size="12.8453" font-family="Helvetica">4</text>
<text xml:space="preserve" x="47.7441" y="257.399" fill="black" font-size="12.8453" font-family="Helvetica">6</text>
<text xml:space="preserve" x="47.7441" y="226.446" fill="black" font-size="12.8453" font-family="Helvetica">8</text>
<text xml:space="preserve" x="41.2277" y="195.493" fill="black" font-size="12.8453" font-family="Helvetica">10</text>
<text xml:space="preserve" x="40.4131" y="164.54" fill="black" font-size="12.8453" font-family="Helvetica">12</text>
<text xml:space="preserve" x="40.4131" y="133.587" fill="black" font-size="12.8453" font-family="Helvetica">14</text>
<text xml:space="preserve" x="40.4131" y="101.819" fill="black" font-size="12.8453" font-family="Helvetica">16</text>
<text xml:space="preserve" x="40.4131" y="70.8661" fill="black" font-size="12.8453" font-family="Helvetica">18</text>
<g transform="rotate(-90,27.3803,103.448)">
<text xml:space="preserve" x="27.3803" y="103.448" fill="black" font-size="12.8453" font-family="Helvetica">Num Blocks</text>
</g>
<text xml:space="preserve" x="113.723" y="18.7347" fill="black" font-size="18.7938" font-family="Helvetica">Sector 9 Before and After FB Adjustment</text>
<path d="M64.752,346.022v -15.5211" fill="none" stroke="#ff0000" fill-opacity="0.50" stroke-opacity="0.50"/>
<path d="M64.752,330.501v -15.5211" fill="none" stroke="#ff0000" fill-opacity="0.50" stroke-opacity="0.50"/>
<path d="M57.1929,330.501h 7.55905" fill="none" stroke="#ff0000" fill-opacity="0.50" stroke-opacity="0.50"/>
<path d="M64.752,330.501h 7.55905" fill="none" stroke="#ff0000" fill-opacity="0.50" stroke-opacity="0.50"/>
<g stroke="black" stroke-width="1" fill="none">
<line x1="63.752" y1="330.501" x2="64.752" y2="330.501"/>
</g>
<g stroke="black" stroke-width="1" fill="none">
<line x1="78.8701" y1="346.022" x2="79.8701" y2="346.022"/>
</g>
<g stroke="black" stroke-width="1" fill="none">
<line x1="93.9882" y1="346.022" x2="94.9882" y2="346.022"/>
</g>
<g stroke="black" stroke-width="1" fill="none">
<line x1="109.106" y1="346.022" x2="110.106" y2="346.022"/>
</g>
<g stroke="black" stroke-width="1" fill="none">
<line x1="124.224" y1="346.022" x2="125.224" y2="346.022"/>
</g>
<path d="M140.343,346.022v -15.5211" fill="none" stroke="#ff0000" fill-opacity="0.50" stroke-opacity="0.50"/>
<path d="M140.343,330.501v -15.5211" fill="none" stroke="#ff0000" fill-opacity="0.50" stroke-opacity="0.50"/>
<path d="M132.783,330.501h 7.55905" fill="none" stroke="#ff0000" fill-opacity="0.50" stroke-opacity="0.50"/>
<path d="M140.343,330.501h 7.55905" fill="none" stroke="#ff0000" fill-opacity="0.50" stroke-opacity="0.50"/>
<g stroke="black" stroke-width="1" fill="none">
<line x1="139.343" y1="330.501" x2="140.343" y2="330.501"/>
</g>
<g stroke="black" stroke-width="1" fill="none">
<line x1="154.461" y1="346.022" x2="155.461" y2="346.022"/>
</g>
<g stroke="black" stroke-width="1" fill="none">
<line x1="169.579" y1="346.022" x2="170.579" y2="346.022"/>
</g>
<path d="M185.697,346.022v -15.5211" fill="none" stroke="#ff0000" fill-opacity="0.50" stroke-opacity="0.50"/>
<path d="M185.697,330.501v -15.5211" fill="none" stroke="#ff0000" fill-opacity="0.50" stroke-opacity="0.50"/>
<path d="M178.138,330.501h 7.55905" fill="none" stroke="#ff0000" fill-opacity="0.50" stroke-opacity="0.50"/>
<path d="M185.697,330.501h 7.55905" fill="none" stroke="#ff0000" fill-opacity="0.50" stroke-opacity="0.50"/>
<g stroke="black" stroke-width="1" fill="none">
<line x1="184.697" y1="330.501" x2="185.697" y2="330.501"/>
</g>
<path d="M200.815,303.123v -34.7062" fill="none" stroke="#ff0000" fill-opacity="0.50" stroke-opacity="0.50"/>
<path d="M200.815,268.417v -34.7062" fill="none" stroke="#ff0000" fill-opacity="0.50" stroke-opacity="0.50"/>
<path d="M193.256,268.417h 7.55905" fill="none" stroke="#ff0000" fill-opacity="0.50" stroke-opacity="0.50"/>
<path d="M200.815,268.417h 7.55905" fill="none" stroke="#ff0000" fill-opacity="0.50" stroke-opacity="0.50"/>
<g stroke="black" stroke-width="1" fill="none">
<line x1="199.815" y1="268.417" x2="200.815" y2="268.417"/>
</g>
<path d="M215.933,278.44v -41.0649" fill="none" stroke="#ff0000" fill-opacity="0.50" stroke-opacity="0.50"/>
<path d="M215.933,237.375v -41.0649" fill="none" stroke="#ff0000" fill-opacity="0.50" stroke-opacity="0.50"/>
<path d="M208.374,237.375h 7.55905" fill="none" stroke="#ff0000" fill-opacity="0.50" stroke-opacity="0.50"/>
<path d="M215.933,237.375h 7.55905" fill="none" stroke="#ff0000" fill-opacity="0.50" stroke-opacity="0.50"/>
<g stroke="black" stroke-width="1" fill="none">
<line x1="214.933" y1="237.375" x2="215.933" y2="237.375"/>
</g>
<path d="M231.051,173.319v -60.1128" fill="none" stroke="#ff0000" fill-opacity="0.50" stroke-opacity="0.50"/>
<path d="M231.051,113.206v -60.1128" fill="none" stroke="#ff0000" fill-opacity="0.50" stroke-opacity="0.50"/>
<path d="M223.492,113.206h 7.55905" fill="none" stroke="#ff0000" fill-opacity="0.50" stroke-opacity="0.50"/>
<path d="M231.051,113.206h 7.55905" fill="none" stroke="#ff0000" fill-opacity="0.50" stroke-opacity="0.50"/>
<g stroke="black" stroke-width="1" fill="none">
<line x1="230.051" y1="113.206" x2="231.051" y2="113.206"/>
</g>
<path d="M246.169,239.893v -49.0819" fill="none" stroke="#ff0000" fill-opacity="0.50" stroke-opacity="0.50"/>
<path d="M246.169,190.812v -49.0819" fill="none" stroke="#ff0000" fill-opacity="0.50" stroke-opacity="0.50"/>
<path d="M238.61,190.812h 7.55905" fill="none" stroke="#ff0000" fill-opacity="0.50" stroke-opacity="0.50"/>
<path d="M246.169,190.812h 7.55905" fill="none" stroke="#ff0000" fill-opacity="0.50" stroke-opacity="0.50"/>
<g stroke="black" stroke-width="1" fill="none">
<line x1="245.169" y1="190.812" x2="246.169" y2="190.812"/>
</g>
<path d="M261.287,252.896v -46.5632" fill="none" stroke="#ff0000" fill-opacity="0.50" stroke-opacity="0.50"/>
<path d="M261.287,206.333v -46.5632" fill="none" stroke="#ff0000" fill-opacity="0.50" stroke-opacity="0.50"/>
<path d="M253.728,206.333h 7.55905" fill="none" stroke="#ff0000" fill-opacity="0.50" stroke-opacity="0.50"/>
<path d="M261.287,206.333h 7.55905" fill="none" stroke="#ff0000" fill-opacity="0.50" stroke-opacity="0.50"/>
<g stroke="black" stroke-width="1" fill="none">
<line x1="260.287" y1="206.333" x2="261.287" y2="206.333"/>
</g>
<path d="M276.406,213.536v -53.7666" fill="none" stroke="#ff0000" fill-opacity="0.50" stroke-opacity="0.50"/>
<path d="M276.406,159.769v -53.7666" fill="none" stroke="#ff0000" fill-opacity="0.50" stroke-opacity="0.50"/>
<path d="M268.846,159.769h 7.55905" fill="none" stroke="#ff0000" fill-opacity="0.50" stroke-opacity="0.50"/>
<path d="M276.406,159.769h 7.55905" fill="none" stroke="#ff0000" fill-opacity="0.50" stroke-opacity="0.50"/>
<g stroke="black" stroke-width="1" fill="none">
<line x1="275.406" y1="159.769" x2="276.406" y2="159.769"/>
</g>
<path d="M291.524,226.768v -51.4776" fill="none" stroke="#ff0000" fill-opacity="0.50" stroke-opacity="0.50"/>
<path d="M291.524,175.29v -51.4776" fill="none" stroke="#ff0000" fill-opacity="0.50" stroke-opacity="0.50"/>
<path d="M283.965,175.29h 7.55905" fill="none" stroke="#ff0000" fill-opacity="0.50" stroke-opacity="0.50"/>
<path d="M291.524,175.29h 7.55905" fill="none" stroke="#ff0000" fill-opacity="0.50" stroke-opacity="0.50"/>
<g stroke="black" stroke-width="1" fill="none">
<line x1="290.524" y1="175.29" x2="291.524" y2="175.29"/>
</g>
<path d="M306.642,290.915v -38.0187" fill="none" stroke="#ff0000" fill-opacity="0.50" stroke-opacity="0.50"/>
<path d="M306.642,252.896v -38.0187" fill="none" stroke="#ff0000" fill-opacity="0.50" stroke-opacity="0.50"/>
<path d="M299.083,252.896h 7.55905" fill="none" stroke="#ff0000" fill-opacity="0.50" stroke-opacity="0.50"/>
<path d="M306.642,252.896h 7.55905" fill="none" stroke="#ff0000" fill-opacity="0.50" stroke-opacity="0.50"/>
<g stroke="black" stroke-width="1" fill="none">
<line x1="305.642" y1="252.896" x2="306.642" y2="252.896"/>
</g>
<path d="M321.76,265.754v -43.9002" fill="none" stroke="#ff0000" fill-opacity="0.50" stroke-opacity="0.50"/>
<path d="M321.76,221.854v -43.9002" fill="none" stroke="#ff0000" fill-opacity="0.50" stroke-opacity="0.50"/>
<path d="M314.201,221.854h 7.55905" fill="none" stroke="#ff0000" fill-opacity="0.50" stroke-opacity="0.50"/>
<path d="M321.76,221.854h 7.55905" fill="none" stroke="#ff0000" fill-opacity="0.50" stroke-opacity="0.50"/>
<g stroke="black" stroke-width="1" fill="none">
<line x1="320.76" y1="221.854" x2="321.76" y2="221.854"/>
</g>
<path d="M336.878,336.93v -21.9501" fill="none" stroke="#ff0000" fill-opacity="0.50" stroke-opacity="0.50"/>
<path d="M336.878,314.98v -21.9501" fill="none" stroke="#ff0000" fill-opacity="0.50" stroke-opacity="0.50"/>
<path d="M329.319,314.98h 7.55905" fill="none" stroke="#ff0000" fill-opacity="0.50" stroke-opacity="0.50"/>
<path d="M336.878,314.98h 7.55905" fill="none" stroke="#ff0000" fill-opacity="0.50" stroke-opacity="0.50"/>
<g stroke="black" stroke-width="1" fill="none">
<line x1="335.878" y1="314.98" x2="336.878" y2="314.98"/>
</g>
<path d="M351.996,346.022v -15.5211" fill="none" stroke="#ff0000" fill-opacity="0.50" stroke-opacity="0.50"/>
<path d="M351.996,330.501v -15.5211" fill="none" stroke="#ff0000" fill-opacity="0.50" stroke-opacity="0.50"/>
<path d="M344.437,330.501h 7.55905" fill="none" stroke="#ff0000" fill-opacity="0.50" stroke-opacity="0.50"/>
<path d="M351.996,330.501h 7.55905" fill="none" stroke="#ff0000" fill-opacity="0.50" stroke-opacity="0.50"/>
<g stroke="black" stroke-width="1" fill="none">
<line x1="350.996" y1="330.501" x2="351.996" y2="330.501"/>
</g>
<g stroke="black" stroke-width="1" fill="none">
<line x1="366.114" y1="346.022" x2="367.114" y2="346.022"/>
</g>
<g stroke="black" stroke-width="1" fill="none">
<line x1="381.232" y1="346.022" x2="382.232" y2="346.022"/>
</g>
<g stroke="black" stroke-width="1" fill="none">
<line x1="396.35" y1="346.022" x2="397.35" y2="346.022"/>
</g>
<g stroke="black" stroke-width="1" fill="none">
<line x1="411.469" y1="346.022" x2="412.469" y2="346.022"/>
</g>
<g stroke="black" stroke-width="1" fill="none">
<line x1="426.587" y1="346.022" x2="427.587" y2="346.022"/>
</g>
<g stroke="black" stroke-width="1" fill="none">
<line x1="441.705" y1="346.022" x2="442.705" y2="346.022"/>
</g>
<g stroke="black" stroke-width="1" fill="none">
<line x1="456.823" y1="346.022" x2="457.823" y2="346.022"/>
</g>
<g stroke="black" stroke-width="1" fill="none">
<line x1="471.941" y1="346.022" x2="472.941" y2="346.022"/>
</g>
<g stroke="black" stroke-width="1" fill="none">
<line x1="487.059" y1="346.022" x2="488.059" y2="346.022"/>
</g>
<g stroke="black" stroke-width="1" fill="none">
<line x1="502.177" y1="346.022" x2="503.177" y2="346.022"/>
</g>
<path d="M59.4606,346.022h 31.748l 4.53543, -0.0419005l 4.53543, -0.023688l 4.53543, -0.0358278l 4.53543, -0.0534864l 4.53543, -0.0788095l 4.53543, -0.114605l 4.53543, -0.164473l 4.53543, -0.23293l 4.53543, -0.32551l 4.53543, -0.448831l 4.53543,
 -0.610581l 4.53543, -0.81942l 4.53543, -1.08475l 4.53543, -1.41631l 4.53543, -1.82366l 4.53543, -2.31537l 4.53543, -2.89811l 4.53543, -3.5756l 4.53543, -4.34736l 4.53543, -5.2076l 4.53543, -6.1441l 4.53543, -7.13738l 4.53543, -8.16021l 4.53543,
 -9.1777l 4.53543, -10.1479l 4.53543, -11.0234l 4.53543, -11.7531l 4.53543, -12.2851l 4.53543, -12.5702l 4.53543, -12.565l 4.53543, -12.2359l 4.53543, -11.5621l 4.53543, -10.5384l 4.53543, -9.17699l 4.53543, -7.50771l 4.53543, -5.57759l 4.53543,
 -3.44868l 4.53543, -1.19478l 4.53543, 1.10278l 4.53543, 3.36003l 4.53543, 5.49545l 4.53543, 7.43484" fill="none" stroke="#ff0000" stroke-width="2"/>
<path d="M281.697,175.59l 4.53543, 9.11562l 4.53543, 10.4901l 4.53543, 11.5277l 4.53543, 12.2156l 4.53543, 12.5582l 4.53543, 12.5758l 4.53543, 12.3017l 4.53543, 11.7786l 4.53543, 11.0559l 4.53543, 10.1853l 4.53543, 9.21788l 4.53543, 8.20144l 4.53543,
 7.1781l 4.53543, 6.18306l 4.53543, 5.24385l 4.53543, 4.38026l 4.53543, 3.6048l 4.53543, 2.92349l 4.53543, 2.33699l 4.53543, 1.84174l 4.53543, 1.43115l 4.53543, 1.09672l 4.53543, 0.828924l 4.53543, 0.618001l 4.53543, 0.454532l 4.53543, 0.329823l
 4.53543, 0.236143l 4.53543, 0.166831l 4.53543, 0.11631l 4.53543, 0.0800241l 4.53543, 0.0543394l 4.53543, 0.0364183l 4.53543, 0.0240911l 4.53543, 0.0426716h 68.0315" fill="none" stroke="#ff0000" stroke-width="2"/>
<path d="M503.933,346.022h 4.53543" fill="none" stroke="#ff0000" stroke-width="2"/>
<rect x="454.043" y="96.1173" width="113.386" height="115.341" fill="white"/>
<path d="M454.043,211.458h 113.386" fill="none" stroke="black"/>
<path d="M567.429,211.458v -115.341" fill="none" stroke="black"/>
<path d="M567.429,96.1173h -113.386" fill="none" stroke="black"/>
<path d="M454.043,96.1173v 115.341" fill="none" stroke="black"/>
<text xml:space="preserve" x="505.523" y="115.667" fill="black" font-size="19.9704" font-family="Helvetica">h</text>
<path d="M454.043,119.185h 113.386" fill="none" stroke="black"/>
<text xml:space="preserve" x="468.868" y="133.587" fill="black" font-size="10.4882" font-family="Helvetica"> / ndf </text>
<text xml:space="preserve" x="464.795" y="130.329" fill="black" font-size="7.15882" font-family="Helvetica">2</text>
<text xml:space="preserve" x="459.094" y="133.587" fill="black" font-size="10.4882" font-family="Times">&#0967;</text>
<text xml:space="preserve" x="516.927" y="134.401" fill="black" font-size="10.4882" font-family="Helvetica"> 8.943 / 11</text>
<text xml:space="preserve" x="459.094" y="157.209" fill="black" font-size="10.4882" font-family="Helvetica">Constant </text>
<text xml:space="preserve" x="545.436" y="157.209" fill="black" font-size="10.4882" font-family="Helvetica"> 1.7</text>
<text xml:space="preserve" x="539.734" y="157.209" fill="black" font-size="10.4882" font-family="Times">&#0177;</text>
<text xml:space="preserve" x="513.669" y="157.209" fill="black" font-size="10.4882" font-family="Helvetica">  12.1 </text>
<text xml:space="preserve" x="459.094" y="180.831" fill="black" font-size="10.4882" font-family="Helvetica">Mean     </text>
<text xml:space="preserve" x="545.436" y="180.831" fill="black" font-size="10.4882" font-family="Helvetica"> 6.5</text>
<text xml:space="preserve" x="539.734" y="180.831" fill="black" font-size="10.4882" font-family="Times">&#0177;</text>
<text xml:space="preserve" x="511.225" y="180.831" fill="black" font-size="10.4882" font-family="Helvetica"> 273.1 </text>
<text xml:space="preserve" x="459.094" y="202.824" fill="black" font-size="10.4882" font-family="Helvetica">Sigma    </text>
<text xml:space="preserve" x="539.734" y="203.638" fill="black" font-size="10.4882" font-family="Helvetica"> 5.05</text>
<text xml:space="preserve" x="534.032" y="203.638" fill="black" font-size="10.4882" font-family="Times">&#0177;</text>
<text xml:space="preserve" x="503.894" y="203.638" fill="black" font-size="10.4882" font-family="Helvetica"> 54.17 </text>
<path d="M64.752,346.022v -15.5211" fill="none" stroke="#0000ff" fill-opacity="0.50" stroke-opacity="0.50"/>
<path d="M64.752,330.501v -15.5211" fill="none" stroke="#0000ff" fill-opacity="0.50" stroke-opacity="0.50"/>
<path d="M57.1929,330.501h 7.55905" fill="none" stroke="#0000ff" fill-opacity="0.50" stroke-opacity="0.50"/>
<path d="M64.752,330.501h 7.55905" fill="none" stroke="#0000ff" fill-opacity="0.50" stroke-opacity="0.50"/>
<g stroke="black" stroke-width="1" fill="none">
<line x1="63.752" y1="330.501" x2="64.752" y2="330.501"/>
</g>
<g stroke="black" stroke-width="1" fill="none">
<line x1="78.8701" y1="346.022" x2="79.8701" y2="346.022"/>
</g>
<g stroke="black" stroke-width="1" fill="none">
<line x1="93.9882" y1="346.022" x2="94.9882" y2="346.022"/>
</g>
<g stroke="black" stroke-width="1" fill="none">
<line x1="109.106" y1="346.022" x2="110.106" y2="346.022"/>
</g>
<g stroke="black" stroke-width="1" fill="none">
<line x1="124.224" y1="346.022" x2="125.224" y2="346.022"/>
</g>
<path d="M140.343,346.022v -15.5211" fill="none" stroke="#0000ff" fill-opacity="0.50" stroke-opacity="0.50"/>
<path d="M140.343,330.501v -15.5211" fill="none" stroke="#0000ff" fill-opacity="0.50" stroke-opacity="0.50"/>
<path d="M132.783,330.501h 7.55905" fill="none" stroke="#0000ff" fill-opacity="0.50" stroke-opacity="0.50"/>
<path d="M140.343,330.501h 7.55905" fill="none" stroke="#0000ff" fill-opacity="0.50" stroke-opacity="0.50"/>
<g stroke="black" stroke-width="1" fill="none">
<line x1="139.343" y1="330.501" x2="140.343" y2="330.501"/>
</g>
<g stroke="black" stroke-width="1" fill="none">
<line x1="154.461" y1="346.022" x2="155.461" y2="346.022"/>
</g>
<g stroke="black" stroke-width="1" fill="none">
<line x1="169.579" y1="346.022" x2="170.579" y2="346.022"/>
</g>
<g stroke="black" stroke-width="1" fill="none">
<line x1="184.697" y1="346.022" x2="185.697" y2="346.022"/>
</g>
<path d="M200.815,326.342v -26.8833" fill="none" stroke="#0000ff" fill-opacity="0.50" stroke-opacity="0.50"/>
<path d="M200.815,299.459v -26.8833" fill="none" stroke="#0000ff" fill-opacity="0.50" stroke-opacity="0.50"/>
<path d="M193.256,299.459h 7.55905" fill="none" stroke="#0000ff" fill-opacity="0.50" stroke-opacity="0.50"/>
<path d="M200.815,299.459h 7.55905" fill="none" stroke="#0000ff" fill-opacity="0.50" stroke-opacity="0.50"/>
<g stroke="black" stroke-width="1" fill="none">
<line x1="199.815" y1="299.459" x2="200.815" y2="299.459"/>
</g>
<path d="M215.933,290.915v -38.0187" fill="none" stroke="#0000ff" fill-opacity="0.50" stroke-opacity="0.50"/>
<path d="M215.933,252.896v -38.0187" fill="none" stroke="#0000ff" fill-opacity="0.50" stroke-opacity="0.50"/>
<path d="M208.374,252.896h 7.55905" fill="none" stroke="#0000ff" fill-opacity="0.50" stroke-opacity="0.50"/>
<path d="M215.933,252.896h 7.55905" fill="none" stroke="#0000ff" fill-opacity="0.50" stroke-opacity="0.50"/>
<g stroke="black" stroke-width="1" fill="none">
<line x1="214.933" y1="252.896" x2="215.933" y2="252.896"/>
</g>
<path d="M231.051,278.44v -41.0649" fill="none" stroke="#0000ff" fill-opacity="0.50" stroke-opacity="0.50"/>
<path d="M231.051,237.375v -41.0649" fill="none" stroke="#0000ff" fill-opacity="0.50" stroke-opacity="0.50"/>
<path d="M223.492,237.375h 7.55905" fill="none" stroke="#0000ff" fill-opacity="0.50" stroke-opacity="0.50"/>
<path d="M231.051,237.375h 7.55905" fill="none" stroke="#0000ff" fill-opacity="0.50" stroke-opacity="0.50"/>
<g stroke="black" stroke-width="1" fill="none">
<line x1="230.051" y1="237.375" x2="231.051" y2="237.375"/>
</g>
<path d="M246.169,173.319v -60.1128" fill="none" stroke="#0000ff" fill-opacity="0.50" stroke-opacity="0.50"/>
<path d="M246.169,113.206v -60.1128" fill="none" stroke="#0000ff" fill-opacity="0.50" stroke-opacity="0.50"/>
<path d="M238.61,113.206h 7.55905" fill="none" stroke="#0000ff" fill-opacity="0.50" stroke-opacity="0.50"/>
<path d="M246.169,113.206h 7.55905" fill="none" stroke="#0000ff" fill-opacity="0.50" stroke-opacity="0.50"/>
<g stroke="black" stroke-width="1" fill="none">
<line x1="245.169" y1="113.206" x2="246.169" y2="113.206"/>
</g>
<path d="M261.287,226.768v -51.4776" fill="none" stroke="#0000ff" fill-opacity="0.50" stroke-opacity="0.50"/>
<path d="M261.287,175.29v -51.4776" fill="none" stroke="#0000ff" fill-opacity="0.50" stroke-opacity="0.50"/>
<path d="M253.728,175.29h 7.55905" fill="none" stroke="#0000ff" fill-opacity="0.50" stroke-opacity="0.50"/>
<path d="M261.287,175.29h 7.55905" fill="none" stroke="#0000ff" fill-opacity="0.50" stroke-opacity="0.50"/>
<g stroke="black" stroke-width="1" fill="none">
<line x1="260.287" y1="175.29" x2="261.287" y2="175.29"/>
</g>
<path d="M276.406,239.893v -49.0819" fill="none" stroke="#0000ff" fill-opacity="0.50" stroke-opacity="0.50"/>
<path d="M276.406,190.812v -49.0819" fill="none" stroke="#0000ff" fill-opacity="0.50" stroke-opacity="0.50"/>
<path d="M268.846,190.812h 7.55905" fill="none" stroke="#0000ff" fill-opacity="0.50" stroke-opacity="0.50"/>
<path d="M276.406,190.812h 7.55905" fill="none" stroke="#0000ff" fill-opacity="0.50" stroke-opacity="0.50"/>
<g stroke="black" stroke-width="1" fill="none">
<line x1="275.406" y1="190.812" x2="276.406" y2="190.812"/>
</g>
<path d="M291.524,200.21v -55.962" fill="none" stroke="#0000ff" fill-opacity="0.50" stroke-opacity="0.50"/>
<path d="M291.524,144.248v -55.962" fill="none" stroke="#0000ff" fill-opacity="0.50" stroke-opacity="0.50"/>
<path d="M283.965,144.248h 7.55905" fill="none" stroke="#0000ff" fill-opacity="0.50" stroke-opacity="0.50"/>
<path d="M291.524,144.248h 7.55905" fill="none" stroke="#0000ff" fill-opacity="0.50" stroke-opacity="0.50"/>
<g stroke="black" stroke-width="1" fill="none">
<line x1="290.524" y1="144.248" x2="291.524" y2="144.248"/>
</g>
<path d="M306.642,239.893v -49.0819" fill="none" stroke="#0000ff" fill-opacity="0.50" stroke-opacity="0.50"/>
<path d="M306.642,190.812v -49.0819" fill="none" stroke="#0000ff" fill-opacity="0.50" stroke-opacity="0.50"/>
<path d="M299.083,190.812h 7.55905" fill="none" stroke="#0000ff" fill-opacity="0.50" stroke-opacity="0.50"/>
<path d="M306.642,190.812h 7.55905" fill="none" stroke="#0000ff" fill-opacity="0.50" stroke-opacity="0.50"/>
<g stroke="black" stroke-width="1" fill="none">
<line x1="305.642" y1="190.812" x2="306.642" y2="190.812"/>
</g>
<path d="M321.76,290.915v -38.0187" fill="none" stroke="#0000ff" fill-opacity="0.50" stroke-opacity="0.50"/>
<path d="M321.76,252.896v -38.0187" fill="none" stroke="#0000ff" fill-opacity="0.50" stroke-opacity="0.50"/>
<path d="M314.201,252.896h 7.55905" fill="none" stroke="#0000ff" fill-opacity="0.50" stroke-opacity="0.50"/>
<path d="M321.76,252.896h 7.55905" fill="none" stroke="#0000ff" fill-opacity="0.50" stroke-opacity="0.50"/>
<g stroke="black" stroke-width="1" fill="none">
<line x1="320.76" y1="252.896" x2="321.76" y2="252.896"/>
</g>
<path d="M336.878,303.123v -34.7062" fill="none" stroke="#0000ff" fill-opacity="0.50" stroke-opacity="0.50"/>
<path d="M336.878,268.417v -34.7062" fill="none" stroke="#0000ff" fill-opacity="0.50" stroke-opacity="0.50"/>
<path d="M329.319,268.417h 7.55905" fill="none" stroke="#0000ff" fill-opacity="0.50" stroke-opacity="0.50"/>
<path d="M336.878,268.417h 7.55905" fill="none" stroke="#0000ff" fill-opacity="0.50" stroke-opacity="0.50"/>
<g stroke="black" stroke-width="1" fill="none">
<line x1="335.878" y1="268.417" x2="336.878" y2="268.417"/>
</g>
<g stroke="black" stroke-width="1" fill="none">
<line x1="350.996" y1="346.022" x2="351.996" y2="346.022"/>
</g>
<path d="M367.114,346.022v -15.5211" fill="none" stroke="#0000ff" fill-opacity="0.50" stroke-opacity="0.50"/>
<path d="M367.114,330.501v -15.5211" fill="none" stroke="#0000ff" fill-opacity="0.50" stroke-opacity="0.50"/>
<path d="M359.555,330.501h 7.55905" fill="none" stroke="#0000ff" fill-opacity="0.50" stroke-opacity="0.50"/>
<path d="M367.114,330.501h 7.55905" fill="none" stroke="#0000ff" fill-opacity="0.50" stroke-opacity="0.50"/>
<g stroke="black" stroke-width="1" fill="none">
<line x1="366.114" y1="330.501" x2="367.114" y2="330.501"/>
</g>
<g stroke="black" stroke-width="1" fill="none">
<line x1="381.232" y1="346.022" x2="382.232" y2="346.022"/>
</g>
<g stroke="black" stroke-width="1" fill="none">
<line x1="396.35" y1="346.022" x2="397.35" y2="346.022"/>
</g>
<g stroke="black" stroke-width="1" fill="none">
<line x1="411.469" y1="346.022" x2="412.469" y2="346.022"/>
</g>
<g stroke="black" stroke-width="1" fill="none">
<line x1="426.587" y1="346.022" x2="427.587" y2="346.022"/>
</g>
<g stroke="black" stroke-width="1" fill="none">
<line x1="441.705" y1="346.022" x2="442.705" y2="346.022"/>
</g>
<g stroke="black" stroke-width="1" fill="none">
<line x1="456.823" y1="346.022" x2="457.823" y2="346.022"/>
</g>
<g stroke="black" stroke-width="1" fill="none">
<line x1="471.941" y1="346.022" x2="472.941" y2="346.022"/>
</g>
<g stroke="black" stroke-width="1" fill="none">
<line x1="487.059" y1="346.022" x2="488.059" y2="346.022"/>
</g>
<g stroke="black" stroke-width="1" fill="none">
<line x1="502.177" y1="346.022" x2="503.177" y2="346.022"/>
</g>
<path d="M59.4606,346.022h 22.6772l 4.53543, -0.0345867l 4.53543, -0.0178803l 4.53543, -0.0263063l 4.53543, -0.0382809l 4.53543, -0.0550972l 4.53543, -0.0784304l 4.53543, -0.110416l 4.53543, -0.153726l 4.53543, -0.211649l 4.53543, -0.288147l 4.53543,
 -0.387896l 4.53543, -0.516291l 4.53543, -0.679394l 4.53543, -0.883819l 4.53543, -1.13654l 4.53543, -1.44459l 4.53543, -1.81466l 4.53543, -2.25264l 4.53543, -2.76297l 4.53543, -3.34796l 4.53543, -4.00715l 4.53543, -4.73649l 4.53543, -5.52773l
 4.53543, -6.3679l 4.53543, -7.23892l 4.53543, -8.11759l 4.53543, -8.97579l 4.53543, -9.7812l 4.53543, -10.4983l 4.53543, -11.0898l 4.53543, -11.5184l 4.53543, -11.749l 4.53543, -11.7506l 4.53543, -11.4986l 4.53543, -10.9771l 4.53543, -10.18l
 4.53543, -9.11258l 4.53543, -7.79191l 4.53543, -6.2467l 4.53543, -4.51641l 4.53543, -2.64957l 4.53543, -0.701595l 4.53543, 1.268l 4.53543, 3.19857" fill="none" stroke="#0000ff" stroke-width="2"/>
<path d="M281.697,159.214l 4.53543, 5.03147l 4.53543, 6.71303l 4.53543, 8.19711l 4.53543, 9.44722l 4.53543, 10.438l 4.53543, 11.1557l 4.53543, 11.5984l 4.53543, 11.7752l 4.53543, 11.7047l 4.53543, 11.4137l 4.53543, 10.9344l 4.53543, 10.3028l 4.53543,
 9.55649l 4.53543, 8.73233l 4.53543, 7.86508l 4.53543, 6.98595l 4.53543, 6.12166l 4.53543, 5.29397l 4.53543, 4.51945l 4.53543, 3.80969l 4.53543, 3.17164l 4.53543, 2.60826l 4.53543, 2.11914l 4.53543, 1.70126l 4.53543, 1.34971l 4.53543, 1.05832l
 4.53543, 0.820249l 4.53543, 0.62844l 4.53543, 0.475999l 4.53543, 0.356455l 4.53543, 0.26393l 4.53543, 0.193235l 4.53543, 0.1399l 4.53543, 0.100163l 4.53543, 0.0709205l 4.53543, 0.0496631l 4.53543, 0.034396l 4.53543, 0.0235619l 4.53543, 0.0465778h
 45.3543" fill="none" stroke="#0000ff" stroke-width="2"/>
<path d="M503.933,346.022h 4.53543" fill="none" stroke="#0000ff" stroke-width="2"/>
<rect x="454.043" y="211.458" width="113.386" height="115.341" fill="white"/>
<path d="M454.043,326.799h 113.386" fill="none" stroke="black"/>
<path d="M567.429,326.799v -115.341" fill="none" stroke="black"/>
<path d="M567.429,211.458h -113.386" fill="none" stroke="black"/>
<path d="M454.043,211.458v 115.341" fill="none" stroke="black"/>
<text xml:space="preserve" x="486.788" y="228.075" fill="black" font-size="19.9704" font-family="Helvetica">adj_h</text>
<path d="M454.043,234.526h 113.386" fill="none" stroke="black"/>
<text xml:space="preserve" x="468.868" y="249.253" fill="black" font-size="10.4882" font-family="Helvetica"> / ndf </text>
<text xml:space="preserve" x="464.795" y="245.995" fill="black" font-size="7.15882" font-family="Helvetica">2</text>
<text xml:space="preserve" x="459.094" y="249.253" fill="black" font-size="10.4882" font-family="Times">&#0967;</text>
<text xml:space="preserve" x="515.298" y="250.068" fill="black" font-size="10.4882" font-family="Helvetica"> 4.535 / 10</text>
<text xml:space="preserve" x="459.094" y="272.875" fill="black" font-size="10.4882" font-family="Helvetica">Constant </text>
<text xml:space="preserve" x="539.734" y="272.875" fill="black" font-size="10.4882" font-family="Helvetica"> 1.73</text>
<text xml:space="preserve" x="534.032" y="272.875" fill="black" font-size="10.4882" font-family="Times">&#0177;</text>
<text xml:space="preserve" x="503.894" y="272.875" fill="black" font-size="10.4882" font-family="Helvetica"> 12.32 </text>
<text xml:space="preserve" x="459.094" y="295.683" fill="black" font-size="10.4882" font-family="Helvetica">Mean     </text>
<text xml:space="preserve" x="545.436" y="295.683" fill="black" font-size="10.4882" font-family="Helvetica"> 7.7</text>
<text xml:space="preserve" x="539.734" y="295.683" fill="black" font-size="10.4882" font-family="Times">&#0177;</text>
<text xml:space="preserve" x="511.225" y="295.683" fill="black" font-size="10.4882" font-family="Helvetica"> 284.1 </text>
<text xml:space="preserve" x="459.094" y="318.49" fill="black" font-size="10.4882" font-family="Helvetica">Sigma    </text>
<text xml:space="preserve" x="541.363" y="319.305" fill="black" font-size="10.4882" font-family="Helvetica"> 7.31</text>
<text xml:space="preserve" x="535.662" y="319.305" fill="black" font-size="10.4882" font-family="Times">&#0177;</text>
<text xml:space="preserve" x="505.523" y="319.305" fill="black" font-size="10.4882" font-family="Helvetica"> 59.05 </text>
<path d="M57.1929,346.022h 453.543" fill="none" stroke="black"/>
<path d="M57.1929,336.795v 9.22726" fill="none" stroke="black"/>
<path d="M72.311,341.409v 4.61363" fill="none" stroke="black"/>
<path d="M87.4291,341.409v 4.61363" fill="none" stroke="black"/>
<path d="M102.547,341.409v 4.61363" fill="none" stroke="black"/>
<path d="M117.665,341.409v 4.61363" fill="none" stroke="black"/>
<path d="M132.783,336.795v 9.22726" fill="none" stroke="black"/>
<path d="M147.902,341.409v 4.61363" fill="none" stroke="black"/>
<path d="M163.02,341.409v 4.61363" fill="none" stroke="black"/>
<path d="M178.138,341.409v 4.61363" fill="none" stroke="black"/>
<path d="M193.256,341.409v 4.61363" fill="none" stroke="black"/>
<path d="M208.374,336.795v 9.22726" fill="none" stroke="black"/>
<path d="M223.492,341.409v 4.61363" fill="none" stroke="black"/>
<path d="M238.61,341.409v 4.61363" fill="none" stroke="black"/>
<path d="M253.728,341.409v 4.61363" fill="none" stroke="black"/>
<path d="M268.846,341.409v 4.61363" fill="none" stroke="black"/>
<path d="M283.965,336.795v 9.22726" fill="none" stroke="black"/>
<path d="M299.083,341.409v 4.61363" fill="none" stroke="black"/>
<path d="M314.201,341.409v 4.61363" fill="none" stroke="black"/>
<path d="M329.319,341.409v 4.61363" fill="none" stroke="black"/>
<path d="M344.437,341.409v 4.61363" fill="none" stroke="black"/>
<path d="M359.555,336.795v 9.22726" fill="none" stroke="black"/>
<path d="M374.673,341.409v 4.61363" fill="none" stroke="black"/>
<path d="M389.791,341.409v 4.61363" fill="none" stroke="black"/>
<path d="M404.909,341.409v 4.61363" fill="none" stroke="black"/>
<path d="M420.028,341.409v 4.61363" fill="none" stroke="black"/>
<path d="M435.146,336.795v 9.22726" fill="none" stroke="black"/>
<path d="M450.264,341.409v 4.61363" fill="none" stroke="black"/>
<path d="M465.382,341.409v 4.61363" fill="none" stroke="black"/>
<path d="M480.5,341.409v 4.61363" fill="none" stroke="black"/>
<path d="M495.618,341.409v 4.61363" fill="none" stroke="black"/>
<path d="M510.736,336.795v 9.22726" fill="none" stroke="black"/>
<path d="M57.1929,346.022v -307.575" fill="none" stroke="black"/>
<path d="M70.7992,346.022h -13.6063" fill="none" stroke="black"/>
<path d="M63.9961,338.262h -6.80315" fill="none" stroke="black"/>
<path d="M63.9961,330.501h -6.80315" fill="none" stroke="black"/>
<path d="M63.9961,322.741h -6.80315" fill="none" stroke="black"/>
<path d="M70.7992,314.98h -13.6063" fill="none" stroke="black"/>
<path d="M63.9961,307.22h -6.80315" fill="none" stroke="black"/>
<path d="M63.9961,299.459h -6.80315" fill="none" stroke="black"/>
<path d="M63.9961,291.699h -6.80315" fill="none" stroke="black"/>
<path d="M70.7992,283.938h -13.6063" fill="none" stroke="black"/>
<path d="M63.9961,276.177h -6.80315" fill="none" stroke="black"/>
<path d="M63.9961,268.417h -6.80315" fill="none" stroke="black"/>
<path d="M63.9961,260.656h -6.80315" fill="none" stroke="black"/>
<path d="M70.7992,252.896h -13.6063" fill="none" stroke="black"/>
<path d="M63.9961,245.135h -6.80315" fill="none" stroke="black"/>
<path d="M63.9961,237.375h -6.80315" fill="none" stroke="black"/>
<path d="M63.9961,229.614h -6.80315" fill="none" stroke="black"/>
<path d="M70.7992,221.854h -13.6063" fill="none" stroke="black"/>
<path d="M63.9961,214.093h -6.80315" fill="none" stroke="black"/>
<path d="M63.9961,206.333h -6.80315" fill="none" stroke="black"/>
<path d="M63.9961,198.572h -6.80315" fill="none" stroke="black"/>
<path d="M70.7992,190.812h -13.6063" fill="none" stroke="black"/>
<path d="M63.9961,183.051h -6.80315" fill="none" stroke="black"/>
<path d="M63.9961,175.29h -6.80315" fill="none" stroke="black"/>
<path d="M63.9961,167.53h -6.80315" fill="none" stroke="black"/>
<path d="M70.7992,159.769h -13.6063" fill="none" stroke="black"/>
<path d="M63.9961,152.009h -6.80315" fill="none" stroke="black"/>
<path d="M63.9961,144.248h -6.80315" fill="none" stroke="black"/>
<path d="M63.9961,136.488h -6.80315" fill="none" stroke="black"/>
<path d="M70.7992,128.727h -13.6063" fill="none" stroke="black"/>
<path d="M63.9961,120.967h -6.80315" fill="none" stroke="black"/>
<path d="M63.9961,113.206h -6.80315" fill="none" stroke="black"/>
<path d="M63.9961,105.446h -6.80315" fill="none" stroke="black"/>
<path d="M70.7992,97.6851h -13.6063" fill="none" stroke="black"/>
<path d="M63.9961,89.9246h -6.80315" fill="none" stroke="black"/>
<path d="M63.9961,82.1641h -6.80315" fill="none" stroke="black"/>
<path d="M63.9961,74.4035h -6.80315" fill="none" stroke="black"/>
<path d="M70.7992,66.643h -13.6063" fill="none" stroke="black"/>
<path d="M70.7992,66.643h -13.6063" fill="none" stroke="black"/>
<path d="M63.9961,58.8825h -6.80315" fill="none" stroke="black"/>
<path d="M63.9961,51.1219h -6.80315" fill="none" stroke="black"/>
<path d="M63.9961,43.3614h -6.80315" fill="none" stroke="black"/>
<rect x="454.043" y="57.6704" width="113.386" height="38.4469" fill="white"/>
<path d="M454.043,96.1173h 113.386" fill="none" stroke="black"/>
<path d="M567.429,96.1173v -38.4469" fill="none" stroke="black"/>
<path d="M567.429,57.6704h -113.386" fill="none" stroke="black"/>
<path d="M454.043,57.6704v 38.4469" fill="none" stroke="black"/>
<text xml:space="preserve" x="481.901" y="70.8661" fill="black" font-size="15.4459" font-family="Helvetica">original</text>
<path d="M458.295,74.0103h 19.8425v -13.4564h -19.8425z" fill="white"/>
<path d="M458.295,67.2821h 19.8425" fill="none" stroke="#ff0000" fill-opacity="0.50" stroke-opacity="0.50"/>
<g stroke="black" stroke-width="1" fill="none">
<line x1="467.217" y1="67.2821" x2="468.217" y2="67.2821"/>
</g>
<text xml:space="preserve" x="481.901" y="90.4154" fill="black" font-size="15.4459" font-family="Helvetica">adjusted</text>
<path d="M458.295,93.2338h 19.8425v -13.4564h -19.8425z" fill="white"/>
<path d="M458.295,86.5056h 19.8425" fill="none" stroke="#0000ff" fill-opacity="0.50" stroke-opacity="0.50"/>
<g stroke="black" stroke-width="1" fill="none">
<line x1="467.217" y1="86.5056" x2="468.217" y2="86.5056"/>
</g>
<text xml:space="preserve" x="113.723" y="18.7347" fill="black" font-size="18.7938" font-family="Helvetica">Sector 9 Before and After FB Adjustment</text></svg>
