<?xml version="1.0" standalone="no"?>
<svg width="567.429" height="384.969" viewBox="0 0 567.429 384.969" xmlns="http://www.w3.org/2000/svg" shape-rendering="crispEdges">
<title>
./new_vop/sector/sector1_combined.svg
</title>
<desc>
Creator: ROOT Version 6.24/00
CreationDate: Mon Jul 26 12:45:11 2021</desc>
<defs>
</defs>
<rect x="0.5" y="0" width="566.929" height="384.469" fill="white"/>
<rect x="57.1929" y="38.4469" width="453.543" height="307.575" fill="white"/>
<rect x="57.1929" y="38.4469" width="453.543" height="307.575" fill="none" stroke="black"/>
<path d="M57.1929,346.022h 453.543" fill="none" stroke="#000099"/>
<path d="M57.1929,346.022h 453.543" fill="none" stroke="black"/>
<path d="M57.1929,336.795v 9.22726" fill="none" stroke="black"/>
<path d="M72.311,341.409v 4.61363" fill="none" stroke="black"/>
<path d="M87.4291,341.409v 4.61363" fill="none" stroke="black"/>
<path d="M102.547,341.409v 4.61363" fill="none" stroke="black"/>
<path d="M117.665,341.409v 4.61363" fill="none" stroke="black"/>
<path d="M132.783,336.795v 9.22726" fill="none" stroke="black"/>
<path d="M147.902,341.409v 4.61363" fill="none" stroke="black"/>
<path d="M163.02,341.409v 4.61363" fill="none" stroke="black"/>
<path d="M178.138,341.409v 4.61363" fill="none" stroke="black"/>
<path d="M193.256,341.409v 4.61363" fill="none" stroke="black"/>
<path d="M208.374,336.795v 9.22726" fill="none" stroke="black"/>
<path d="M223.492,341.409v 4.61363" fill="none" stroke="black"/>
<path d="M238.61,341.409v 4.61363" fill="none" stroke="black"/>
<path d="M253.728,341.409v 4.61363" fill="none" stroke="black"/>
<path d="M268.846,341.409v 4.61363" fill="none" stroke="black"/>
<path d="M283.965,336.795v 9.22726" fill="none" stroke="black"/>
<path d="M299.083,341.409v 4.61363" fill="none" stroke="black"/>
<path d="M314.201,341.409v 4.61363" fill="none" stroke="black"/>
<path d="M329.319,341.409v 4.61363" fill="none" stroke="black"/>
<path d="M344.437,341.409v 4.61363" fill="none" stroke="black"/>
<path d="M359.555,336.795v 9.22726" fill="none" stroke="black"/>
<path d="M374.673,341.409v 4.61363" fill="none" stroke="black"/>
<path d="M389.791,341.409v 4.61363" fill="none" stroke="black"/>
<path d="M404.909,341.409v 4.61363" fill="none" stroke="black"/>
<path d="M420.028,341.409v 4.61363" fill="none" stroke="black"/>
<path d="M435.146,336.795v 9.22726" fill="none" stroke="black"/>
<path d="M450.264,341.409v 4.61363" fill="none" stroke="black"/>
<path d="M465.382,341.409v 4.61363" fill="none" stroke="black"/>
<path d="M480.5,341.409v 4.61363" fill="none" stroke="black"/>
<path d="M495.618,341.409v 4.61363" fill="none" stroke="black"/>
<path d="M510.736,336.795v 9.22726" fill="none" stroke="black"/>
<text xml:space="preserve" x="53.446" y="358.403" fill="black" font-size="12.8453" font-family="Helvetica">0</text>
<text xml:space="preserve" x="121.868" y="358.403" fill="black" font-size="12.8453" font-family="Helvetica">100</text>
<text xml:space="preserve" x="197.622" y="358.403" fill="black" font-size="12.8453" font-family="Helvetica">200</text>
<text xml:space="preserve" x="273.375" y="358.403" fill="black" font-size="12.8453" font-family="Helvetica">300</text>
<text xml:space="preserve" x="348.314" y="358.403" fill="black" font-size="12.8453" font-family="Helvetica">400</text>
<text xml:space="preserve" x="424.068" y="358.403" fill="black" font-size="12.8453" font-family="Helvetica">500</text>
<text xml:space="preserve" x="499.821" y="358.403" fill="black" font-size="12.8453" font-family="Helvetica">600</text>
<text xml:space="preserve" x="483.53" y="372.251" fill="black" font-size="12.8453" font-family="Helvetica">MPV</text>
<path d="M57.1929,346.022v -307.575" fill="none" stroke="black"/>
<path d="M70.7992,346.022h -13.6063" fill="none" stroke="black"/>
<path d="M63.9961,335.047h -6.80315" fill="none" stroke="black"/>
<path d="M63.9961,324.072h -6.80315" fill="none" stroke="black"/>
<path d="M63.9961,313.097h -6.80315" fill="none" stroke="black"/>
<path d="M63.9961,302.122h -6.80315" fill="none" stroke="black"/>
<path d="M70.7992,291.147h -13.6063" fill="none" stroke="black"/>
<path d="M63.9961,280.172h -6.80315" fill="none" stroke="black"/>
<path d="M63.9961,269.197h -6.80315" fill="none" stroke="black"/>
<path d="M63.9961,258.222h -6.80315" fill="none" stroke="black"/>
<path d="M63.9961,247.247h -6.80315" fill="none" stroke="black"/>
<path d="M70.7992,236.272h -13.6063" fill="none" stroke="black"/>
<path d="M63.9961,225.297h -6.80315" fill="none" stroke="black"/>
<path d="M63.9961,214.322h -6.80315" fill="none" stroke="black"/>
<path d="M63.9961,203.346h -6.80315" fill="none" stroke="black"/>
<path d="M63.9961,192.371h -6.80315" fill="none" stroke="black"/>
<path d="M70.7992,181.396h -13.6063" fill="none" stroke="black"/>
<path d="M63.9961,170.421h -6.80315" fill="none" stroke="black"/>
<path d="M63.9961,159.446h -6.80315" fill="none" stroke="black"/>
<path d="M63.9961,148.471h -6.80315" fill="none" stroke="black"/>
<path d="M63.9961,137.496h -6.80315" fill="none" stroke="black"/>
<path d="M70.7992,126.521h -13.6063" fill="none" stroke="black"/>
<path d="M63.9961,115.546h -6.80315" fill="none" stroke="black"/>
<path d="M63.9961,104.571h -6.80315" fill="none" stroke="black"/>
<path d="M63.9961,93.5959h -6.80315" fill="none" stroke="black"/>
<path d="M63.9961,82.6208h -6.80315" fill="none" stroke="black"/>
<path d="M70.7992,71.6458h -13.6063" fill="none" stroke="black"/>
<path d="M70.7992,71.6458h -13.6063" fill="none" stroke="black"/>
<path d="M63.9961,60.6707h -6.80315" fill="none" stroke="black"/>
<path d="M63.9961,49.6957h -6.80315" fill="none" stroke="black"/>
<path d="M63.9961,38.7206h -6.80315" fill="none" stroke="black"/>
<text xml:space="preserve" x="47.7441" y="350.258" fill="black" font-size="12.8453" font-family="Helvetica">0</text>
<text xml:space="preserve" x="47.7441" y="295.683" fill="black" font-size="12.8453" font-family="Helvetica">5</text>
<text xml:space="preserve" x="41.2277" y="241.108" fill="black" font-size="12.8453" font-family="Helvetica">10</text>
<text xml:space="preserve" x="40.4131" y="185.718" fill="black" font-size="12.8453" font-family="Helvetica">15</text>
<text xml:space="preserve" x="41.2277" y="131.143" fill="black" font-size="12.8453" font-family="Helvetica">20</text>
<text xml:space="preserve" x="40.4131" y="75.7535" fill="black" font-size="12.8453" font-family="Helvetica">25</text>
<g transform="rotate(-90,27.3803,103.448)">
<text xml:space="preserve" x="27.3803" y="103.448" fill="black" font-size="12.8453" font-family="Helvetica">Num Blocks</text>
</g>
<text xml:space="preserve" x="113.723" y="18.7347" fill="black" font-size="18.7938" font-family="Helvetica">Sector 1 Before and After FB Adjustment</text>
<g stroke="black" stroke-width="1" fill="none">
<line x1="63.752" y1="346.022" x2="64.752" y2="346.022"/>
</g>
<g stroke="black" stroke-width="1" fill="none">
<line x1="78.8701" y1="346.022" x2="79.8701" y2="346.022"/>
</g>
<g stroke="black" stroke-width="1" fill="none">
<line x1="93.9882" y1="346.022" x2="94.9882" y2="346.022"/>
</g>
<g stroke="black" stroke-width="1" fill="none">
<line x1="109.106" y1="346.022" x2="110.106" y2="346.022"/>
</g>
<g stroke="black" stroke-width="1" fill="none">
<line x1="124.224" y1="346.022" x2="125.224" y2="346.022"/>
</g>
<g stroke="black" stroke-width="1" fill="none">
<line x1="139.343" y1="346.022" x2="140.343" y2="346.022"/>
</g>
<g stroke="black" stroke-width="1" fill="none">
<line x1="154.461" y1="346.022" x2="155.461" y2="346.022"/>
</g>
<g stroke="black" stroke-width="1" fill="none">
<line x1="169.579" y1="346.022" x2="170.579" y2="346.022"/>
</g>
<g stroke="black" stroke-width="1" fill="none">
<line x1="184.697" y1="346.022" x2="185.697" y2="346.022"/>
</g>
<path d="M200.815,346.022v -10.9751" fill="none" stroke="#ff0000" fill-opacity="0.50" stroke-opacity="0.50"/>
<path d="M200.815,335.047v -10.9751" fill="none" stroke="#ff0000" fill-opacity="0.50" stroke-opacity="0.50"/>
<path d="M193.256,335.047h 7.55905" fill="none" stroke="#ff0000" fill-opacity="0.50" stroke-opacity="0.50"/>
<path d="M200.815,335.047h 7.55905" fill="none" stroke="#ff0000" fill-opacity="0.50" stroke-opacity="0.50"/>
<g stroke="black" stroke-width="1" fill="none">
<line x1="199.815" y1="335.047" x2="200.815" y2="335.047"/>
</g>
<path d="M215.933,346.022v -10.9751" fill="none" stroke="#ff0000" fill-opacity="0.50" stroke-opacity="0.50"/>
<path d="M215.933,335.047v -10.9751" fill="none" stroke="#ff0000" fill-opacity="0.50" stroke-opacity="0.50"/>
<path d="M208.374,335.047h 7.55905" fill="none" stroke="#ff0000" fill-opacity="0.50" stroke-opacity="0.50"/>
<path d="M215.933,335.047h 7.55905" fill="none" stroke="#ff0000" fill-opacity="0.50" stroke-opacity="0.50"/>
<g stroke="black" stroke-width="1" fill="none">
<line x1="214.933" y1="335.047" x2="215.933" y2="335.047"/>
</g>
<path d="M231.051,298.234v -29.0373" fill="none" stroke="#ff0000" fill-opacity="0.50" stroke-opacity="0.50"/>
<path d="M231.051,269.197v -29.0373" fill="none" stroke="#ff0000" fill-opacity="0.50" stroke-opacity="0.50"/>
<path d="M223.492,269.197h 7.55905" fill="none" stroke="#ff0000" fill-opacity="0.50" stroke-opacity="0.50"/>
<path d="M231.051,269.197h 7.55905" fill="none" stroke="#ff0000" fill-opacity="0.50" stroke-opacity="0.50"/>
<g stroke="black" stroke-width="1" fill="none">
<line x1="230.051" y1="269.197" x2="231.051" y2="269.197"/>
</g>
<path d="M246.169,252.34v -38.0187" fill="none" stroke="#ff0000" fill-opacity="0.50" stroke-opacity="0.50"/>
<path d="M246.169,214.322v -38.0187" fill="none" stroke="#ff0000" fill-opacity="0.50" stroke-opacity="0.50"/>
<path d="M238.61,214.322h 7.55905" fill="none" stroke="#ff0000" fill-opacity="0.50" stroke-opacity="0.50"/>
<path d="M246.169,214.322h 7.55905" fill="none" stroke="#ff0000" fill-opacity="0.50" stroke-opacity="0.50"/>
<g stroke="black" stroke-width="1" fill="none">
<line x1="245.169" y1="214.322" x2="246.169" y2="214.322"/>
</g>
<path d="M261.287,242.918v -39.5711" fill="none" stroke="#ff0000" fill-opacity="0.50" stroke-opacity="0.50"/>
<path d="M261.287,203.346v -39.5711" fill="none" stroke="#ff0000" fill-opacity="0.50" stroke-opacity="0.50"/>
<path d="M253.728,203.346h 7.55905" fill="none" stroke="#ff0000" fill-opacity="0.50" stroke-opacity="0.50"/>
<path d="M261.287,203.346h 7.55905" fill="none" stroke="#ff0000" fill-opacity="0.50" stroke-opacity="0.50"/>
<g stroke="black" stroke-width="1" fill="none">
<line x1="260.287" y1="203.346" x2="261.287" y2="203.346"/>
</g>
<path d="M276.406,214.322v -43.9002" fill="none" stroke="#ff0000" fill-opacity="0.50" stroke-opacity="0.50"/>
<path d="M276.406,170.421v -43.9002" fill="none" stroke="#ff0000" fill-opacity="0.50" stroke-opacity="0.50"/>
<path d="M268.846,170.421h 7.55905" fill="none" stroke="#ff0000" fill-opacity="0.50" stroke-opacity="0.50"/>
<path d="M276.406,170.421h 7.55905" fill="none" stroke="#ff0000" fill-opacity="0.50" stroke-opacity="0.50"/>
<g stroke="black" stroke-width="1" fill="none">
<line x1="275.406" y1="170.421" x2="276.406" y2="170.421"/>
</g>
<path d="M291.524,214.322v -43.9002" fill="none" stroke="#ff0000" fill-opacity="0.50" stroke-opacity="0.50"/>
<path d="M291.524,170.421v -43.9002" fill="none" stroke="#ff0000" fill-opacity="0.50" stroke-opacity="0.50"/>
<path d="M283.965,170.421h 7.55905" fill="none" stroke="#ff0000" fill-opacity="0.50" stroke-opacity="0.50"/>
<path d="M291.524,170.421h 7.55905" fill="none" stroke="#ff0000" fill-opacity="0.50" stroke-opacity="0.50"/>
<g stroke="black" stroke-width="1" fill="none">
<line x1="290.524" y1="170.421" x2="291.524" y2="170.421"/>
</g>
<path d="M306.642,233.436v -41.0649" fill="none" stroke="#ff0000" fill-opacity="0.50" stroke-opacity="0.50"/>
<path d="M306.642,192.371v -41.0649" fill="none" stroke="#ff0000" fill-opacity="0.50" stroke-opacity="0.50"/>
<path d="M299.083,192.371h 7.55905" fill="none" stroke="#ff0000" fill-opacity="0.50" stroke-opacity="0.50"/>
<path d="M306.642,192.371h 7.55905" fill="none" stroke="#ff0000" fill-opacity="0.50" stroke-opacity="0.50"/>
<g stroke="black" stroke-width="1" fill="none">
<line x1="305.642" y1="192.371" x2="306.642" y2="192.371"/>
</g>
<path d="M321.76,307.055v -26.8833" fill="none" stroke="#ff0000" fill-opacity="0.50" stroke-opacity="0.50"/>
<path d="M321.76,280.172v -26.8833" fill="none" stroke="#ff0000" fill-opacity="0.50" stroke-opacity="0.50"/>
<path d="M314.201,280.172h 7.55905" fill="none" stroke="#ff0000" fill-opacity="0.50" stroke-opacity="0.50"/>
<path d="M321.76,280.172h 7.55905" fill="none" stroke="#ff0000" fill-opacity="0.50" stroke-opacity="0.50"/>
<g stroke="black" stroke-width="1" fill="none">
<line x1="320.76" y1="280.172" x2="321.76" y2="280.172"/>
</g>
<path d="M336.878,324.072v -21.9501" fill="none" stroke="#ff0000" fill-opacity="0.50" stroke-opacity="0.50"/>
<path d="M336.878,302.122v -21.9501" fill="none" stroke="#ff0000" fill-opacity="0.50" stroke-opacity="0.50"/>
<path d="M329.319,302.122h 7.55905" fill="none" stroke="#ff0000" fill-opacity="0.50" stroke-opacity="0.50"/>
<path d="M336.878,302.122h 7.55905" fill="none" stroke="#ff0000" fill-opacity="0.50" stroke-opacity="0.50"/>
<g stroke="black" stroke-width="1" fill="none">
<line x1="335.878" y1="302.122" x2="336.878" y2="302.122"/>
</g>
<g stroke="black" stroke-width="1" fill="none">
<line x1="350.996" y1="346.022" x2="351.996" y2="346.022"/>
</g>
<g stroke="black" stroke-width="1" fill="none">
<line x1="366.114" y1="346.022" x2="367.114" y2="346.022"/>
</g>
<g stroke="black" stroke-width="1" fill="none">
<line x1="381.232" y1="346.022" x2="382.232" y2="346.022"/>
</g>
<g stroke="black" stroke-width="1" fill="none">
<line x1="396.35" y1="346.022" x2="397.35" y2="346.022"/>
</g>
<g stroke="black" stroke-width="1" fill="none">
<line x1="411.469" y1="346.022" x2="412.469" y2="346.022"/>
</g>
<g stroke="black" stroke-width="1" fill="none">
<line x1="426.587" y1="346.022" x2="427.587" y2="346.022"/>
</g>
<g stroke="black" stroke-width="1" fill="none">
<line x1="441.705" y1="346.022" x2="442.705" y2="346.022"/>
</g>
<g stroke="black" stroke-width="1" fill="none">
<line x1="456.823" y1="346.022" x2="457.823" y2="346.022"/>
</g>
<g stroke="black" stroke-width="1" fill="none">
<line x1="471.941" y1="346.022" x2="472.941" y2="346.022"/>
</g>
<g stroke="black" stroke-width="1" fill="none">
<line x1="487.059" y1="346.022" x2="488.059" y2="346.022"/>
</g>
<g stroke="black" stroke-width="1" fill="none">
<line x1="502.177" y1="346.022" x2="503.177" y2="346.022"/>
</g>
<path d="M59.4606,346.022h 90.7087l 4.53543, -0.0483438l 4.53543, -0.0384703l 4.53543, -0.0657715l 4.53543, -0.109903l 4.53543, -0.179469l 4.53543, -0.286367l 4.53543, -0.446418l 4.53543, -0.679787l 4.53543, -1.01096l 4.53543, -1.46799l 4.53543,
 -2.08081l 4.53543, -2.87824l 4.53543, -3.88376l 4.53543, -5.11001l 4.53543, -6.55258l 4.53543, -8.18376l 4.53543, -9.94734l 4.53543, -11.7558l 4.53543, -13.4912l 4.53543, -15.0105l 4.53543, -16.1561l 4.53543, -16.7709l 4.53543, -16.7167l 4.53543,
 -15.8933l 4.53543, -14.2557l 4.53543, -11.8263l 4.53543, -8.7l 4.53543, -5.03925l 4.53543, -1.06092" fill="none" stroke="#ff0000" stroke-width="2"/>
<path d="M281.697,156.376l 4.53543, 2.985l 4.53543, 6.84139l 4.53543, 10.2711l 4.53543, 13.0809l 4.53543, 15.1395l 4.53543, 16.3868l 4.53543, 16.8335l 4.53543, 16.5529l 4.53543, 15.6658l 4.53543, 14.3217l 4.53543, 12.6802l 4.53543, 10.8934l 4.53543,
 9.09344l 4.53543, 7.38412l 4.53543, 5.83785l 4.53543, 4.49669l 4.53543, 3.3765l 4.53543, 2.47274l 4.53543, 1.76684l 4.53543, 1.23216l 4.53543, 0.838903l 4.53543, 0.557744l 4.53543, 0.362184l 4.53543, 0.229759l 4.53543, 0.142408l 4.53543, 0.0862532l
 4.53543, 0.0510564l 4.53543, 0.0295398l 4.53543, 0.0362774h 90.7087" fill="none" stroke="#ff0000" stroke-width="2"/>
<path d="M503.933,346.022h 4.53543" fill="none" stroke="#ff0000" stroke-width="2"/>
<rect x="454.043" y="96.1173" width="113.386" height="115.341" fill="white"/>
<path d="M454.043,211.458h 113.386" fill="none" stroke="black"/>
<path d="M567.429,211.458v -115.341" fill="none" stroke="black"/>
<path d="M567.429,96.1173h -113.386" fill="none" stroke="black"/>
<path d="M454.043,96.1173v 115.341" fill="none" stroke="black"/>
<text xml:space="preserve" x="505.523" y="115.667" fill="black" font-size="19.9704" font-family="Helvetica">h</text>
<path d="M454.043,119.185h 113.386" fill="none" stroke="black"/>
<text xml:space="preserve" x="468.868" y="133.587" fill="black" font-size="10.4882" font-family="Helvetica"> / ndf </text>
<text xml:space="preserve" x="464.795" y="130.329" fill="black" font-size="7.15882" font-family="Helvetica">2</text>
<text xml:space="preserve" x="459.094" y="133.587" fill="black" font-size="10.4882" font-family="Times">&#0967;</text>
<text xml:space="preserve" x="521" y="134.401" fill="black" font-size="10.4882" font-family="Helvetica"> 3.121 / 7</text>
<text xml:space="preserve" x="459.094" y="157.209" fill="black" font-size="10.4882" font-family="Helvetica">Constant </text>
<text xml:space="preserve" x="541.363" y="157.209" fill="black" font-size="10.4882" font-family="Helvetica"> 2.31</text>
<text xml:space="preserve" x="535.662" y="157.209" fill="black" font-size="10.4882" font-family="Times">&#0177;</text>
<text xml:space="preserve" x="505.523" y="157.209" fill="black" font-size="10.4882" font-family="Helvetica"> 17.29 </text>
<text xml:space="preserve" x="459.094" y="180.831" fill="black" font-size="10.4882" font-family="Helvetica">Mean     </text>
<text xml:space="preserve" x="545.436" y="180.831" fill="black" font-size="10.4882" font-family="Helvetica"> 4.9</text>
<text xml:space="preserve" x="539.734" y="180.831" fill="black" font-size="10.4882" font-family="Times">&#0177;</text>
<text xml:space="preserve" x="509.596" y="180.831" fill="black" font-size="10.4882" font-family="Helvetica"> 295.6 </text>
<text xml:space="preserve" x="459.094" y="202.824" fill="black" font-size="10.4882" font-family="Helvetica">Sigma    </text>
<text xml:space="preserve" x="539.734" y="203.638" fill="black" font-size="10.4882" font-family="Helvetica"> 3.76</text>
<text xml:space="preserve" x="534.032" y="203.638" fill="black" font-size="10.4882" font-family="Times">&#0177;</text>
<text xml:space="preserve" x="503.894" y="203.638" fill="black" font-size="10.4882" font-family="Helvetica"> 40.94 </text>
<g stroke="black" stroke-width="1" fill="none">
<line x1="63.752" y1="346.022" x2="64.752" y2="346.022"/>
</g>
<g stroke="black" stroke-width="1" fill="none">
<line x1="78.8701" y1="346.022" x2="79.8701" y2="346.022"/>
</g>
<g stroke="black" stroke-width="1" fill="none">
<line x1="93.9882" y1="346.022" x2="94.9882" y2="346.022"/>
</g>
<g stroke="black" stroke-width="1" fill="none">
<line x1="109.106" y1="346.022" x2="110.106" y2="346.022"/>
</g>
<g stroke="black" stroke-width="1" fill="none">
<line x1="124.224" y1="346.022" x2="125.224" y2="346.022"/>
</g>
<g stroke="black" stroke-width="1" fill="none">
<line x1="139.343" y1="346.022" x2="140.343" y2="346.022"/>
</g>
<g stroke="black" stroke-width="1" fill="none">
<line x1="154.461" y1="346.022" x2="155.461" y2="346.022"/>
</g>
<g stroke="black" stroke-width="1" fill="none">
<line x1="169.579" y1="346.022" x2="170.579" y2="346.022"/>
</g>
<g stroke="black" stroke-width="1" fill="none">
<line x1="184.697" y1="346.022" x2="185.697" y2="346.022"/>
</g>
<path d="M200.815,346.022v -10.9751" fill="none" stroke="#0000ff" fill-opacity="0.50" stroke-opacity="0.50"/>
<path d="M200.815,335.047v -10.9751" fill="none" stroke="#0000ff" fill-opacity="0.50" stroke-opacity="0.50"/>
<path d="M193.256,335.047h 7.55905" fill="none" stroke="#0000ff" fill-opacity="0.50" stroke-opacity="0.50"/>
<path d="M200.815,335.047h 7.55905" fill="none" stroke="#0000ff" fill-opacity="0.50" stroke-opacity="0.50"/>
<g stroke="black" stroke-width="1" fill="none">
<line x1="199.815" y1="335.047" x2="200.815" y2="335.047"/>
</g>
<g stroke="black" stroke-width="1" fill="none">
<line x1="214.933" y1="346.022" x2="215.933" y2="346.022"/>
</g>
<path d="M231.051,339.593v -15.5211" fill="none" stroke="#0000ff" fill-opacity="0.50" stroke-opacity="0.50"/>
<path d="M231.051,324.072v -15.5211" fill="none" stroke="#0000ff" fill-opacity="0.50" stroke-opacity="0.50"/>
<path d="M223.492,324.072h 7.55905" fill="none" stroke="#0000ff" fill-opacity="0.50" stroke-opacity="0.50"/>
<path d="M231.051,324.072h 7.55905" fill="none" stroke="#0000ff" fill-opacity="0.50" stroke-opacity="0.50"/>
<g stroke="black" stroke-width="1" fill="none">
<line x1="230.051" y1="324.072" x2="231.051" y2="324.072"/>
</g>
<path d="M246.169,242.918v -39.5711" fill="none" stroke="#0000ff" fill-opacity="0.50" stroke-opacity="0.50"/>
<path d="M246.169,203.346v -39.5711" fill="none" stroke="#0000ff" fill-opacity="0.50" stroke-opacity="0.50"/>
<path d="M238.61,203.346h 7.55905" fill="none" stroke="#0000ff" fill-opacity="0.50" stroke-opacity="0.50"/>
<path d="M246.169,203.346h 7.55905" fill="none" stroke="#0000ff" fill-opacity="0.50" stroke-opacity="0.50"/>
<g stroke="black" stroke-width="1" fill="none">
<line x1="245.169" y1="203.346" x2="246.169" y2="203.346"/>
</g>
<path d="M261.287,289.264v -31.0422" fill="none" stroke="#0000ff" fill-opacity="0.50" stroke-opacity="0.50"/>
<path d="M261.287,258.222v -31.0422" fill="none" stroke="#0000ff" fill-opacity="0.50" stroke-opacity="0.50"/>
<path d="M253.728,258.222h 7.55905" fill="none" stroke="#0000ff" fill-opacity="0.50" stroke-opacity="0.50"/>
<path d="M261.287,258.222h 7.55905" fill="none" stroke="#0000ff" fill-opacity="0.50" stroke-opacity="0.50"/>
<g stroke="black" stroke-width="1" fill="none">
<line x1="260.287" y1="258.222" x2="261.287" y2="258.222"/>
</g>
<path d="M276.406,233.436v -41.0649" fill="none" stroke="#0000ff" fill-opacity="0.50" stroke-opacity="0.50"/>
<path d="M276.406,192.371v -41.0649" fill="none" stroke="#0000ff" fill-opacity="0.50" stroke-opacity="0.50"/>
<path d="M268.846,192.371h 7.55905" fill="none" stroke="#0000ff" fill-opacity="0.50" stroke-opacity="0.50"/>
<path d="M276.406,192.371h 7.55905" fill="none" stroke="#0000ff" fill-opacity="0.50" stroke-opacity="0.50"/>
<g stroke="black" stroke-width="1" fill="none">
<line x1="275.406" y1="192.371" x2="276.406" y2="192.371"/>
</g>
<path d="M291.524,156.049v -51.4776" fill="none" stroke="#0000ff" fill-opacity="0.50" stroke-opacity="0.50"/>
<path d="M291.524,104.571v -51.4776" fill="none" stroke="#0000ff" fill-opacity="0.50" stroke-opacity="0.50"/>
<path d="M283.965,104.571h 7.55905" fill="none" stroke="#0000ff" fill-opacity="0.50" stroke-opacity="0.50"/>
<path d="M291.524,104.571h 7.55905" fill="none" stroke="#0000ff" fill-opacity="0.50" stroke-opacity="0.50"/>
<g stroke="black" stroke-width="1" fill="none">
<line x1="290.524" y1="104.571" x2="291.524" y2="104.571"/>
</g>
<path d="M306.642,252.34v -38.0187" fill="none" stroke="#0000ff" fill-opacity="0.50" stroke-opacity="0.50"/>
<path d="M306.642,214.322v -38.0187" fill="none" stroke="#0000ff" fill-opacity="0.50" stroke-opacity="0.50"/>
<path d="M299.083,214.322h 7.55905" fill="none" stroke="#0000ff" fill-opacity="0.50" stroke-opacity="0.50"/>
<path d="M306.642,214.322h 7.55905" fill="none" stroke="#0000ff" fill-opacity="0.50" stroke-opacity="0.50"/>
<g stroke="black" stroke-width="1" fill="none">
<line x1="305.642" y1="214.322" x2="306.642" y2="214.322"/>
</g>
<path d="M321.76,280.172v -32.9252" fill="none" stroke="#0000ff" fill-opacity="0.50" stroke-opacity="0.50"/>
<path d="M321.76,247.247v -32.9252" fill="none" stroke="#0000ff" fill-opacity="0.50" stroke-opacity="0.50"/>
<path d="M314.201,247.247h 7.55905" fill="none" stroke="#0000ff" fill-opacity="0.50" stroke-opacity="0.50"/>
<path d="M321.76,247.247h 7.55905" fill="none" stroke="#0000ff" fill-opacity="0.50" stroke-opacity="0.50"/>
<g stroke="black" stroke-width="1" fill="none">
<line x1="320.76" y1="247.247" x2="321.76" y2="247.247"/>
</g>
<path d="M336.878,307.055v -26.8833" fill="none" stroke="#0000ff" fill-opacity="0.50" stroke-opacity="0.50"/>
<path d="M336.878,280.172v -26.8833" fill="none" stroke="#0000ff" fill-opacity="0.50" stroke-opacity="0.50"/>
<path d="M329.319,280.172h 7.55905" fill="none" stroke="#0000ff" fill-opacity="0.50" stroke-opacity="0.50"/>
<path d="M336.878,280.172h 7.55905" fill="none" stroke="#0000ff" fill-opacity="0.50" stroke-opacity="0.50"/>
<g stroke="black" stroke-width="1" fill="none">
<line x1="335.878" y1="280.172" x2="336.878" y2="280.172"/>
</g>
<path d="M351.996,339.593v -15.5211" fill="none" stroke="#0000ff" fill-opacity="0.50" stroke-opacity="0.50"/>
<path d="M351.996,324.072v -15.5211" fill="none" stroke="#0000ff" fill-opacity="0.50" stroke-opacity="0.50"/>
<path d="M344.437,324.072h 7.55905" fill="none" stroke="#0000ff" fill-opacity="0.50" stroke-opacity="0.50"/>
<path d="M351.996,324.072h 7.55905" fill="none" stroke="#0000ff" fill-opacity="0.50" stroke-opacity="0.50"/>
<g stroke="black" stroke-width="1" fill="none">
<line x1="350.996" y1="324.072" x2="351.996" y2="324.072"/>
</g>
<path d="M367.114,346.022v -10.9751" fill="none" stroke="#0000ff" fill-opacity="0.50" stroke-opacity="0.50"/>
<path d="M367.114,335.047v -10.9751" fill="none" stroke="#0000ff" fill-opacity="0.50" stroke-opacity="0.50"/>
<path d="M359.555,335.047h 7.55905" fill="none" stroke="#0000ff" fill-opacity="0.50" stroke-opacity="0.50"/>
<path d="M367.114,335.047h 7.55905" fill="none" stroke="#0000ff" fill-opacity="0.50" stroke-opacity="0.50"/>
<g stroke="black" stroke-width="1" fill="none">
<line x1="366.114" y1="335.047" x2="367.114" y2="335.047"/>
</g>
<g stroke="black" stroke-width="1" fill="none">
<line x1="381.232" y1="346.022" x2="382.232" y2="346.022"/>
</g>
<g stroke="black" stroke-width="1" fill="none">
<line x1="396.35" y1="346.022" x2="397.35" y2="346.022"/>
</g>
<g stroke="black" stroke-width="1" fill="none">
<line x1="411.469" y1="346.022" x2="412.469" y2="346.022"/>
</g>
<g stroke="black" stroke-width="1" fill="none">
<line x1="426.587" y1="346.022" x2="427.587" y2="346.022"/>
</g>
<g stroke="black" stroke-width="1" fill="none">
<line x1="441.705" y1="346.022" x2="442.705" y2="346.022"/>
</g>
<g stroke="black" stroke-width="1" fill="none">
<line x1="456.823" y1="346.022" x2="457.823" y2="346.022"/>
</g>
<g stroke="black" stroke-width="1" fill="none">
<line x1="471.941" y1="346.022" x2="472.941" y2="346.022"/>
</g>
<g stroke="black" stroke-width="1" fill="none">
<line x1="487.059" y1="346.022" x2="488.059" y2="346.022"/>
</g>
<g stroke="black" stroke-width="1" fill="none">
<line x1="502.177" y1="346.022" x2="503.177" y2="346.022"/>
</g>
<path d="M59.4606,346.022h 95.2441l 4.53543, -0.0379671l 4.53543, -0.0296137l 4.53543, -0.0502818l 4.53543, -0.0835401l 4.53543, -0.1358l 4.53543, -0.215961l 4.53543, -0.335941l 4.53543, -0.51109l 4.53543, -0.760336l 4.53543, -1.10587l 4.53543,
 -1.57214l 4.53543, -2.18403l 4.53543, -2.96396l 4.53543, -3.92803l 4.53543, -5.08139l 4.53543, -6.41314l 4.53543, -7.89164l 4.53543, -9.46098l 4.53543, -11.0396l 4.53543, -12.5222l 4.53543, -13.785l 4.53543, -14.6954l 4.53543, -15.1246l 4.53543,
 -14.9624l 4.53543, -14.1325l 4.53543, -12.6054l 4.53543, -10.4074l 4.53543, -7.6236" fill="none" stroke="#0000ff" stroke-width="2"/>
<path d="M281.697,176.363l 4.53543, -4.39356l 4.53543, -0.900066l 4.53543, 2.64796l 4.53543, 6.0361l 4.53543, 9.06594l 4.53543, 11.5743l 4.53543, 13.4475l 4.53543, 14.6295l 4.53543, 15.1223l 4.53543, 14.98l 4.53543, 14.2975l 4.53543, 13.1962l
 4.53543, 11.8084l 4.53543, 10.2638l 4.53543, 8.67804l 4.53543, 7.14503l 4.53543, 5.73369l 4.53543, 4.4876l 4.53543, 3.4276l 4.53543, 2.55604l 4.53543, 1.86172l 4.53543, 1.32488l 4.53543, 0.921455l 4.53543, 0.626489l 4.53543, 0.416471l 4.53543,
 0.27075l 4.53543, 0.17216l 4.53543, 0.107087l 4.53543, 0.0651686l 4.53543, 0.0388046l 4.53543, 0.0509436h 81.6378" fill="none" stroke="#0000ff" stroke-width="2"/>
<path d="M503.933,346.022h 4.53543" fill="none" stroke="#0000ff" stroke-width="2"/>
<rect x="454.043" y="211.458" width="113.386" height="115.341" fill="white"/>
<path d="M454.043,326.799h 113.386" fill="none" stroke="black"/>
<path d="M567.429,326.799v -115.341" fill="none" stroke="black"/>
<path d="M567.429,211.458h -113.386" fill="none" stroke="black"/>
<path d="M454.043,211.458v 115.341" fill="none" stroke="black"/>
<text xml:space="preserve" x="486.788" y="228.075" fill="black" font-size="19.9704" font-family="Helvetica">adj_h</text>
<path d="M454.043,234.526h 113.386" fill="none" stroke="black"/>
<text xml:space="preserve" x="468.868" y="249.253" fill="black" font-size="10.4882" font-family="Helvetica"> / ndf </text>
<text xml:space="preserve" x="464.795" y="245.995" fill="black" font-size="7.15882" font-family="Helvetica">2</text>
<text xml:space="preserve" x="459.094" y="249.253" fill="black" font-size="10.4882" font-family="Times">&#0967;</text>
<text xml:space="preserve" x="521" y="250.068" fill="black" font-size="10.4882" font-family="Helvetica"> 7.489 / 8</text>
<text xml:space="preserve" x="459.094" y="272.875" fill="black" font-size="10.4882" font-family="Helvetica">Constant </text>
<text xml:space="preserve" x="539.734" y="272.875" fill="black" font-size="10.4882" font-family="Helvetica"> 2.29</text>
<text xml:space="preserve" x="534.032" y="272.875" fill="black" font-size="10.4882" font-family="Times">&#0177;</text>
<text xml:space="preserve" x="503.894" y="272.875" fill="black" font-size="10.4882" font-family="Helvetica"> 15.95 </text>
<text xml:space="preserve" x="459.094" y="295.683" fill="black" font-size="10.4882" font-family="Helvetica">Mean     </text>
<text xml:space="preserve" x="545.436" y="295.683" fill="black" font-size="10.4882" font-family="Helvetica"> 4.9</text>
<text xml:space="preserve" x="539.734" y="295.683" fill="black" font-size="10.4882" font-family="Times">&#0177;</text>
<text xml:space="preserve" x="509.596" y="295.683" fill="black" font-size="10.4882" font-family="Helvetica"> 307.5 </text>
<text xml:space="preserve" x="459.094" y="318.49" fill="black" font-size="10.4882" font-family="Helvetica">Sigma    </text>
<text xml:space="preserve" x="545.436" y="319.305" fill="black" font-size="10.4882" font-family="Helvetica"> 4.3</text>
<text xml:space="preserve" x="539.734" y="319.305" fill="black" font-size="10.4882" font-family="Times">&#0177;</text>
<text xml:space="preserve" x="514.483" y="319.305" fill="black" font-size="10.4882" font-family="Helvetica">    42 </text>
<path d="M57.1929,346.022h 453.543" fill="none" stroke="black"/>
<path d="M57.1929,336.795v 9.22726" fill="none" stroke="black"/>
<path d="M72.311,341.409v 4.61363" fill="none" stroke="black"/>
<path d="M87.4291,341.409v 4.61363" fill="none" stroke="black"/>
<path d="M102.547,341.409v 4.61363" fill="none" stroke="black"/>
<path d="M117.665,341.409v 4.61363" fill="none" stroke="black"/>
<path d="M132.783,336.795v 9.22726" fill="none" stroke="black"/>
<path d="M147.902,341.409v 4.61363" fill="none" stroke="black"/>
<path d="M163.02,341.409v 4.61363" fill="none" stroke="black"/>
<path d="M178.138,341.409v 4.61363" fill="none" stroke="black"/>
<path d="M193.256,341.409v 4.61363" fill="none" stroke="black"/>
<path d="M208.374,336.795v 9.22726" fill="none" stroke="black"/>
<path d="M223.492,341.409v 4.61363" fill="none" stroke="black"/>
<path d="M238.61,341.409v 4.61363" fill="none" stroke="black"/>
<path d="M253.728,341.409v 4.61363" fill="none" stroke="black"/>
<path d="M268.846,341.409v 4.61363" fill="none" stroke="black"/>
<path d="M283.965,336.795v 9.22726" fill="none" stroke="black"/>
<path d="M299.083,341.409v 4.61363" fill="none" stroke="black"/>
<path d="M314.201,341.409v 4.61363" fill="none" stroke="black"/>
<path d="M329.319,341.409v 4.61363" fill="none" stroke="black"/>
<path d="M344.437,341.409v 4.61363" fill="none" stroke="black"/>
<path d="M359.555,336.795v 9.22726" fill="none" stroke="black"/>
<path d="M374.673,341.409v 4.61363" fill="none" stroke="black"/>
<path d="M389.791,341.409v 4.61363" fill="none" stroke="black"/>
<path d="M404.909,341.409v 4.61363" fill="none" stroke="black"/>
<path d="M420.028,341.409v 4.61363" fill="none" stroke="black"/>
<path d="M435.146,336.795v 9.22726" fill="none" stroke="black"/>
<path d="M450.264,341.409v 4.61363" fill="none" stroke="black"/>
<path d="M465.382,341.409v 4.61363" fill="none" stroke="black"/>
<path d="M480.5,341.409v 4.61363" fill="none" stroke="black"/>
<path d="M495.618,341.409v 4.61363" fill="none" stroke="black"/>
<path d="M510.736,336.795v 9.22726" fill="none" stroke="black"/>
<path d="M57.1929,346.022v -307.575" fill="none" stroke="black"/>
<path d="M70.7992,346.022h -13.6063" fill="none" stroke="black"/>
<path d="M63.9961,335.047h -6.80315" fill="none" stroke="black"/>
<path d="M63.9961,324.072h -6.80315" fill="none" stroke="black"/>
<path d="M63.9961,313.097h -6.80315" fill="none" stroke="black"/>
<path d="M63.9961,302.122h -6.80315" fill="none" stroke="black"/>
<path d="M70.7992,291.147h -13.6063" fill="none" stroke="black"/>
<path d="M63.9961,280.172h -6.80315" fill="none" stroke="black"/>
<path d="M63.9961,269.197h -6.80315" fill="none" stroke="black"/>
<path d="M63.9961,258.222h -6.80315" fill="none" stroke="black"/>
<path d="M63.9961,247.247h -6.80315" fill="none" stroke="black"/>
<path d="M70.7992,236.272h -13.6063" fill="none" stroke="black"/>
<path d="M63.9961,225.297h -6.80315" fill="none" stroke="black"/>
<path d="M63.9961,214.322h -6.80315" fill="none" stroke="black"/>
<path d="M63.9961,203.346h -6.80315" fill="none" stroke="black"/>
<path d="M63.9961,192.371h -6.80315" fill="none" stroke="black"/>
<path d="M70.7992,181.396h -13.6063" fill="none" stroke="black"/>
<path d="M63.9961,170.421h -6.80315" fill="none" stroke="black"/>
<path d="M63.9961,159.446h -6.80315" fill="none" stroke="black"/>
<path d="M63.9961,148.471h -6.80315" fill="none" stroke="black"/>
<path d="M63.9961,137.496h -6.80315" fill="none" stroke="black"/>
<path d="M70.7992,126.521h -13.6063" fill="none" stroke="black"/>
<path d="M63.9961,115.546h -6.80315" fill="none" stroke="black"/>
<path d="M63.9961,104.571h -6.80315" fill="none" stroke="black"/>
<path d="M63.9961,93.5959h -6.80315" fill="none" stroke="black"/>
<path d="M63.9961,82.6208h -6.80315" fill="none" stroke="black"/>
<path d="M70.7992,71.6458h -13.6063" fill="none" stroke="black"/>
<path d="M70.7992,71.6458h -13.6063" fill="none" stroke="black"/>
<path d="M63.9961,60.6707h -6.80315" fill="none" stroke="black"/>
<path d="M63.9961,49.6957h -6.80315" fill="none" stroke="black"/>
<path d="M63.9961,38.7206h -6.80315" fill="none" stroke="black"/>
<rect x="454.043" y="57.6704" width="113.386" height="38.4469" fill="white"/>
<path d="M454.043,96.1173h 113.386" fill="none" stroke="black"/>
<path d="M567.429,96.1173v -38.4469" fill="none" stroke="black"/>
<path d="M567.429,57.6704h -113.386" fill="none" stroke="black"/>
<path d="M454.043,57.6704v 38.4469" fill="none" stroke="black"/>
<text xml:space="preserve" x="481.901" y="70.8661" fill="black" font-size="15.4459" font-family="Helvetica">original</text>
<path d="M458.295,74.0103h 19.8425v -13.4564h -19.8425z" fill="white"/>
<path d="M458.295,67.2821h 19.8425" fill="none" stroke="#ff0000" fill-opacity="0.50" stroke-opacity="0.50"/>
<g stroke="black" stroke-width="1" fill="none">
<line x1="467.217" y1="67.2821" x2="468.217" y2="67.2821"/>
</g>
<text xml:space="preserve" x="481.901" y="90.4154" fill="black" font-size="15.4459" font-family="Helvetica">adjusted</text>
<path d="M458.295,93.2338h 19.8425v -13.4564h -19.8425z" fill="white"/>
<path d="M458.295,86.5056h 19.8425" fill="none" stroke="#0000ff" fill-opacity="0.50" stroke-opacity="0.50"/>
<g stroke="black" stroke-width="1" fill="none">
<line x1="467.217" y1="86.5056" x2="468.217" y2="86.5056"/>
</g>
<text xml:space="preserve" x="113.723" y="18.7347" fill="black" font-size="18.7938" font-family="Helvetica">Sector 1 Before and After FB Adjustment</text></svg>
