<?xml version="1.0" standalone="no"?>
<svg width="567.429" height="384.969" viewBox="0 0 567.429 384.969" xmlns="http://www.w3.org/2000/svg" shape-rendering="crispEdges">
<title>
./new_vop/sector/sector10_combined.svg
</title>
<desc>
Creator: ROOT Version 6.24/00
CreationDate: Mon Jul 19 21:24:19 2021</desc>
<defs>
</defs>
<rect x="0.5" y="0" width="566.929" height="384.469" fill="white"/>
<rect x="57.1929" y="38.4469" width="453.543" height="307.575" fill="white"/>
<rect x="57.1929" y="38.4469" width="453.543" height="307.575" fill="none" stroke="black"/>
<path d="M57.1929,346.022h 453.543" fill="none" stroke="#000099"/>
<path d="M57.1929,346.022h 453.543" fill="none" stroke="black"/>
<path d="M57.1929,336.795v 9.22726" fill="none" stroke="black"/>
<path d="M72.311,341.409v 4.61363" fill="none" stroke="black"/>
<path d="M87.4291,341.409v 4.61363" fill="none" stroke="black"/>
<path d="M102.547,341.409v 4.61363" fill="none" stroke="black"/>
<path d="M117.665,341.409v 4.61363" fill="none" stroke="black"/>
<path d="M132.783,336.795v 9.22726" fill="none" stroke="black"/>
<path d="M147.902,341.409v 4.61363" fill="none" stroke="black"/>
<path d="M163.02,341.409v 4.61363" fill="none" stroke="black"/>
<path d="M178.138,341.409v 4.61363" fill="none" stroke="black"/>
<path d="M193.256,341.409v 4.61363" fill="none" stroke="black"/>
<path d="M208.374,336.795v 9.22726" fill="none" stroke="black"/>
<path d="M223.492,341.409v 4.61363" fill="none" stroke="black"/>
<path d="M238.61,341.409v 4.61363" fill="none" stroke="black"/>
<path d="M253.728,341.409v 4.61363" fill="none" stroke="black"/>
<path d="M268.846,341.409v 4.61363" fill="none" stroke="black"/>
<path d="M283.965,336.795v 9.22726" fill="none" stroke="black"/>
<path d="M299.083,341.409v 4.61363" fill="none" stroke="black"/>
<path d="M314.201,341.409v 4.61363" fill="none" stroke="black"/>
<path d="M329.319,341.409v 4.61363" fill="none" stroke="black"/>
<path d="M344.437,341.409v 4.61363" fill="none" stroke="black"/>
<path d="M359.555,336.795v 9.22726" fill="none" stroke="black"/>
<path d="M374.673,341.409v 4.61363" fill="none" stroke="black"/>
<path d="M389.791,341.409v 4.61363" fill="none" stroke="black"/>
<path d="M404.909,341.409v 4.61363" fill="none" stroke="black"/>
<path d="M420.028,341.409v 4.61363" fill="none" stroke="black"/>
<path d="M435.146,336.795v 9.22726" fill="none" stroke="black"/>
<path d="M450.264,341.409v 4.61363" fill="none" stroke="black"/>
<path d="M465.382,341.409v 4.61363" fill="none" stroke="black"/>
<path d="M480.5,341.409v 4.61363" fill="none" stroke="black"/>
<path d="M495.618,341.409v 4.61363" fill="none" stroke="black"/>
<path d="M510.736,336.795v 9.22726" fill="none" stroke="black"/>
<text xml:space="preserve" x="53.446" y="358.403" fill="black" font-size="12.8453" font-family="Helvetica">0</text>
<text xml:space="preserve" x="121.868" y="358.403" fill="black" font-size="12.8453" font-family="Helvetica">100</text>
<text xml:space="preserve" x="197.622" y="358.403" fill="black" font-size="12.8453" font-family="Helvetica">200</text>
<text xml:space="preserve" x="273.375" y="358.403" fill="black" font-size="12.8453" font-family="Helvetica">300</text>
<text xml:space="preserve" x="348.314" y="358.403" fill="black" font-size="12.8453" font-family="Helvetica">400</text>
<text xml:space="preserve" x="424.068" y="358.403" fill="black" font-size="12.8453" font-family="Helvetica">500</text>
<text xml:space="preserve" x="499.821" y="358.403" fill="black" font-size="12.8453" font-family="Helvetica">600</text>
<text xml:space="preserve" x="483.53" y="372.251" fill="black" font-size="12.8453" font-family="Helvetica">MPV</text>
<path d="M57.1929,346.022v -307.575" fill="none" stroke="black"/>
<path d="M70.7992,346.022h -13.6063" fill="none" stroke="black"/>
<path d="M63.9961,339.275h -6.80315" fill="none" stroke="black"/>
<path d="M63.9961,332.528h -6.80315" fill="none" stroke="black"/>
<path d="M63.9961,325.781h -6.80315" fill="none" stroke="black"/>
<path d="M63.9961,319.034h -6.80315" fill="none" stroke="black"/>
<path d="M70.7992,312.287h -13.6063" fill="none" stroke="black"/>
<path d="M63.9961,305.54h -6.80315" fill="none" stroke="black"/>
<path d="M63.9961,298.793h -6.80315" fill="none" stroke="black"/>
<path d="M63.9961,292.046h -6.80315" fill="none" stroke="black"/>
<path d="M63.9961,285.299h -6.80315" fill="none" stroke="black"/>
<path d="M70.7992,278.552h -13.6063" fill="none" stroke="black"/>
<path d="M63.9961,271.805h -6.80315" fill="none" stroke="black"/>
<path d="M63.9961,265.058h -6.80315" fill="none" stroke="black"/>
<path d="M63.9961,258.311h -6.80315" fill="none" stroke="black"/>
<path d="M63.9961,251.564h -6.80315" fill="none" stroke="black"/>
<path d="M70.7992,244.817h -13.6063" fill="none" stroke="black"/>
<path d="M63.9961,238.07h -6.80315" fill="none" stroke="black"/>
<path d="M63.9961,231.322h -6.80315" fill="none" stroke="black"/>
<path d="M63.9961,224.575h -6.80315" fill="none" stroke="black"/>
<path d="M63.9961,217.828h -6.80315" fill="none" stroke="black"/>
<path d="M70.7992,211.081h -13.6063" fill="none" stroke="black"/>
<path d="M63.9961,204.334h -6.80315" fill="none" stroke="black"/>
<path d="M63.9961,197.587h -6.80315" fill="none" stroke="black"/>
<path d="M63.9961,190.84h -6.80315" fill="none" stroke="black"/>
<path d="M63.9961,184.093h -6.80315" fill="none" stroke="black"/>
<path d="M70.7992,177.346h -13.6063" fill="none" stroke="black"/>
<path d="M63.9961,170.599h -6.80315" fill="none" stroke="black"/>
<path d="M63.9961,163.852h -6.80315" fill="none" stroke="black"/>
<path d="M63.9961,157.105h -6.80315" fill="none" stroke="black"/>
<path d="M63.9961,150.358h -6.80315" fill="none" stroke="black"/>
<path d="M70.7992,143.611h -13.6063" fill="none" stroke="black"/>
<path d="M63.9961,136.864h -6.80315" fill="none" stroke="black"/>
<path d="M63.9961,130.117h -6.80315" fill="none" stroke="black"/>
<path d="M63.9961,123.37h -6.80315" fill="none" stroke="black"/>
<path d="M63.9961,116.623h -6.80315" fill="none" stroke="black"/>
<path d="M70.7992,109.876h -13.6063" fill="none" stroke="black"/>
<path d="M63.9961,103.129h -6.80315" fill="none" stroke="black"/>
<path d="M63.9961,96.3816h -6.80315" fill="none" stroke="black"/>
<path d="M63.9961,89.6346h -6.80315" fill="none" stroke="black"/>
<path d="M63.9961,82.8875h -6.80315" fill="none" stroke="black"/>
<path d="M70.7992,76.1405h -13.6063" fill="none" stroke="black"/>
<path d="M63.9961,69.3934h -6.80315" fill="none" stroke="black"/>
<path d="M63.9961,62.6464h -6.80315" fill="none" stroke="black"/>
<path d="M63.9961,55.8993h -6.80315" fill="none" stroke="black"/>
<path d="M63.9961,49.1523h -6.80315" fill="none" stroke="black"/>
<path d="M70.7992,42.4052h -13.6063" fill="none" stroke="black"/>
<path d="M70.7992,42.4052h -13.6063" fill="none" stroke="black"/>
<text xml:space="preserve" x="47.7441" y="350.258" fill="black" font-size="12.8453" font-family="Helvetica">0</text>
<text xml:space="preserve" x="41.2277" y="316.861" fill="black" font-size="12.8453" font-family="Helvetica">10</text>
<text xml:space="preserve" x="41.2277" y="282.65" fill="black" font-size="12.8453" font-family="Helvetica">20</text>
<text xml:space="preserve" x="41.2277" y="249.253" fill="black" font-size="12.8453" font-family="Helvetica">30</text>
<text xml:space="preserve" x="41.2277" y="215.857" fill="black" font-size="12.8453" font-family="Helvetica">40</text>
<text xml:space="preserve" x="41.2277" y="181.645" fill="black" font-size="12.8453" font-family="Helvetica">50</text>
<text xml:space="preserve" x="41.2277" y="148.249" fill="black" font-size="12.8453" font-family="Helvetica">60</text>
<text xml:space="preserve" x="41.2277" y="114.037" fill="black" font-size="12.8453" font-family="Helvetica">70</text>
<text xml:space="preserve" x="41.2277" y="80.6408" fill="black" font-size="12.8453" font-family="Helvetica">80</text>
<text xml:space="preserve" x="41.2277" y="47.2441" fill="black" font-size="12.8453" font-family="Helvetica">90</text>
<g transform="rotate(-90,28.1948,103.448)">
<text xml:space="preserve" x="28.1948" y="103.448" fill="black" font-size="12.8453" font-family="Helvetica">Num Blocks</text>
</g>
<text xml:space="preserve" x="108.836" y="18.7347" fill="black" font-size="18.7938" font-family="Helvetica">Sector 10 Before and After FB Adjustment</text>
<g stroke="black" stroke-width="1" fill="none">
<line x1="63.752" y1="346.022" x2="64.752" y2="346.022"/>
</g>
<g stroke="black" stroke-width="1" fill="none">
<line x1="78.8701" y1="346.022" x2="79.8701" y2="346.022"/>
</g>
<g stroke="black" stroke-width="1" fill="none">
<line x1="93.9882" y1="346.022" x2="94.9882" y2="346.022"/>
</g>
<g stroke="black" stroke-width="1" fill="none">
<line x1="109.106" y1="346.022" x2="110.106" y2="346.022"/>
</g>
<g stroke="black" stroke-width="1" fill="none">
<line x1="124.224" y1="346.022" x2="125.224" y2="346.022"/>
</g>
<g stroke="black" stroke-width="1" fill="none">
<line x1="139.343" y1="346.022" x2="140.343" y2="346.022"/>
</g>
<path d="M155.461,334.045v -8.26341" fill="none" stroke="#ff0000" fill-opacity="0.50" stroke-opacity="0.50"/>
<path d="M155.461,325.781v -8.26341" fill="none" stroke="#ff0000" fill-opacity="0.50" stroke-opacity="0.50"/>
<path d="M147.902,325.781h 7.55905" fill="none" stroke="#ff0000" fill-opacity="0.50" stroke-opacity="0.50"/>
<path d="M155.461,325.781h 7.55905" fill="none" stroke="#ff0000" fill-opacity="0.50" stroke-opacity="0.50"/>
<g stroke="black" stroke-width="1" fill="none">
<line x1="154.461" y1="325.781" x2="155.461" y2="325.781"/>
</g>
<g stroke="black" stroke-width="1" fill="none">
<line x1="169.579" y1="346.022" x2="170.579" y2="346.022"/>
</g>
<path d="M185.697,334.045v -8.26341" fill="none" stroke="#ff0000" fill-opacity="0.50" stroke-opacity="0.50"/>
<path d="M185.697,325.781v -8.26341" fill="none" stroke="#ff0000" fill-opacity="0.50" stroke-opacity="0.50"/>
<path d="M178.138,325.781h 7.55905" fill="none" stroke="#ff0000" fill-opacity="0.50" stroke-opacity="0.50"/>
<path d="M185.697,325.781h 7.55905" fill="none" stroke="#ff0000" fill-opacity="0.50" stroke-opacity="0.50"/>
<g stroke="black" stroke-width="1" fill="none">
<line x1="184.697" y1="325.781" x2="185.697" y2="325.781"/>
</g>
<path d="M200.815,334.045v -8.26341" fill="none" stroke="#ff0000" fill-opacity="0.50" stroke-opacity="0.50"/>
<path d="M200.815,325.781v -8.26341" fill="none" stroke="#ff0000" fill-opacity="0.50" stroke-opacity="0.50"/>
<path d="M193.256,325.781h 7.55905" fill="none" stroke="#ff0000" fill-opacity="0.50" stroke-opacity="0.50"/>
<path d="M200.815,325.781h 7.55905" fill="none" stroke="#ff0000" fill-opacity="0.50" stroke-opacity="0.50"/>
<g stroke="black" stroke-width="1" fill="none">
<line x1="199.815" y1="325.781" x2="200.815" y2="325.781"/>
</g>
<path d="M215.933,281.585v -16.5268" fill="none" stroke="#ff0000" fill-opacity="0.50" stroke-opacity="0.50"/>
<path d="M215.933,265.058v -16.5268" fill="none" stroke="#ff0000" fill-opacity="0.50" stroke-opacity="0.50"/>
<path d="M208.374,265.058h 7.55905" fill="none" stroke="#ff0000" fill-opacity="0.50" stroke-opacity="0.50"/>
<path d="M215.933,265.058h 7.55905" fill="none" stroke="#ff0000" fill-opacity="0.50" stroke-opacity="0.50"/>
<g stroke="black" stroke-width="1" fill="none">
<line x1="214.933" y1="265.058" x2="215.933" y2="265.058"/>
</g>
<path d="M231.051,281.585v -16.5268" fill="none" stroke="#ff0000" fill-opacity="0.50" stroke-opacity="0.50"/>
<path d="M231.051,265.058v -16.5268" fill="none" stroke="#ff0000" fill-opacity="0.50" stroke-opacity="0.50"/>
<path d="M223.492,265.058h 7.55905" fill="none" stroke="#ff0000" fill-opacity="0.50" stroke-opacity="0.50"/>
<path d="M231.051,265.058h 7.55905" fill="none" stroke="#ff0000" fill-opacity="0.50" stroke-opacity="0.50"/>
<g stroke="black" stroke-width="1" fill="none">
<line x1="230.051" y1="265.058" x2="231.051" y2="265.058"/>
</g>
<path d="M246.169,207.466v -23.3724" fill="none" stroke="#ff0000" fill-opacity="0.50" stroke-opacity="0.50"/>
<path d="M246.169,184.093v -23.3724" fill="none" stroke="#ff0000" fill-opacity="0.50" stroke-opacity="0.50"/>
<path d="M238.61,184.093h 7.55905" fill="none" stroke="#ff0000" fill-opacity="0.50" stroke-opacity="0.50"/>
<path d="M246.169,184.093h 7.55905" fill="none" stroke="#ff0000" fill-opacity="0.50" stroke-opacity="0.50"/>
<g stroke="black" stroke-width="1" fill="none">
<line x1="245.169" y1="184.093" x2="246.169" y2="184.093"/>
</g>
<path d="M261.287,150.776v -27.4066" fill="none" stroke="#ff0000" fill-opacity="0.50" stroke-opacity="0.50"/>
<path d="M261.287,123.37v -27.4066" fill="none" stroke="#ff0000" fill-opacity="0.50" stroke-opacity="0.50"/>
<path d="M253.728,123.37h 7.55905" fill="none" stroke="#ff0000" fill-opacity="0.50" stroke-opacity="0.50"/>
<path d="M261.287,123.37h 7.55905" fill="none" stroke="#ff0000" fill-opacity="0.50" stroke-opacity="0.50"/>
<g stroke="black" stroke-width="1" fill="none">
<line x1="260.287" y1="123.37" x2="261.287" y2="123.37"/>
</g>
<path d="M276.406,150.776v -27.4066" fill="none" stroke="#ff0000" fill-opacity="0.50" stroke-opacity="0.50"/>
<path d="M276.406,123.37v -27.4066" fill="none" stroke="#ff0000" fill-opacity="0.50" stroke-opacity="0.50"/>
<path d="M268.846,123.37h 7.55905" fill="none" stroke="#ff0000" fill-opacity="0.50" stroke-opacity="0.50"/>
<path d="M276.406,123.37h 7.55905" fill="none" stroke="#ff0000" fill-opacity="0.50" stroke-opacity="0.50"/>
<g stroke="black" stroke-width="1" fill="none">
<line x1="275.406" y1="123.37" x2="276.406" y2="123.37"/>
</g>
<path d="M291.524,226.197v -21.8629" fill="none" stroke="#ff0000" fill-opacity="0.50" stroke-opacity="0.50"/>
<path d="M291.524,204.334v -21.8629" fill="none" stroke="#ff0000" fill-opacity="0.50" stroke-opacity="0.50"/>
<path d="M283.965,204.334h 7.55905" fill="none" stroke="#ff0000" fill-opacity="0.50" stroke-opacity="0.50"/>
<path d="M291.524,204.334h 7.55905" fill="none" stroke="#ff0000" fill-opacity="0.50" stroke-opacity="0.50"/>
<g stroke="black" stroke-width="1" fill="none">
<line x1="290.524" y1="204.334" x2="291.524" y2="204.334"/>
</g>
<path d="M306.642,207.466v -23.3724" fill="none" stroke="#ff0000" fill-opacity="0.50" stroke-opacity="0.50"/>
<path d="M306.642,184.093v -23.3724" fill="none" stroke="#ff0000" fill-opacity="0.50" stroke-opacity="0.50"/>
<path d="M299.083,184.093h 7.55905" fill="none" stroke="#ff0000" fill-opacity="0.50" stroke-opacity="0.50"/>
<path d="M306.642,184.093h 7.55905" fill="none" stroke="#ff0000" fill-opacity="0.50" stroke-opacity="0.50"/>
<g stroke="black" stroke-width="1" fill="none">
<line x1="305.642" y1="184.093" x2="306.642" y2="184.093"/>
</g>
<path d="M321.76,207.466v -23.3724" fill="none" stroke="#ff0000" fill-opacity="0.50" stroke-opacity="0.50"/>
<path d="M321.76,184.093v -23.3724" fill="none" stroke="#ff0000" fill-opacity="0.50" stroke-opacity="0.50"/>
<path d="M314.201,184.093h 7.55905" fill="none" stroke="#ff0000" fill-opacity="0.50" stroke-opacity="0.50"/>
<path d="M321.76,184.093h 7.55905" fill="none" stroke="#ff0000" fill-opacity="0.50" stroke-opacity="0.50"/>
<g stroke="black" stroke-width="1" fill="none">
<line x1="320.76" y1="184.093" x2="321.76" y2="184.093"/>
</g>
<path d="M336.878,207.466v -23.3724" fill="none" stroke="#ff0000" fill-opacity="0.50" stroke-opacity="0.50"/>
<path d="M336.878,184.093v -23.3724" fill="none" stroke="#ff0000" fill-opacity="0.50" stroke-opacity="0.50"/>
<path d="M329.319,184.093h 7.55905" fill="none" stroke="#ff0000" fill-opacity="0.50" stroke-opacity="0.50"/>
<path d="M336.878,184.093h 7.55905" fill="none" stroke="#ff0000" fill-opacity="0.50" stroke-opacity="0.50"/>
<g stroke="black" stroke-width="1" fill="none">
<line x1="335.878" y1="184.093" x2="336.878" y2="184.093"/>
</g>
<path d="M351.996,169.742v -26.1312" fill="none" stroke="#ff0000" fill-opacity="0.50" stroke-opacity="0.50"/>
<path d="M351.996,143.611v -26.1312" fill="none" stroke="#ff0000" fill-opacity="0.50" stroke-opacity="0.50"/>
<path d="M344.437,143.611h 7.55905" fill="none" stroke="#ff0000" fill-opacity="0.50" stroke-opacity="0.50"/>
<path d="M351.996,143.611h 7.55905" fill="none" stroke="#ff0000" fill-opacity="0.50" stroke-opacity="0.50"/>
<g stroke="black" stroke-width="1" fill="none">
<line x1="350.996" y1="143.611" x2="351.996" y2="143.611"/>
</g>
<path d="M367.114,317.226v -11.6862" fill="none" stroke="#ff0000" fill-opacity="0.50" stroke-opacity="0.50"/>
<path d="M367.114,305.54v -11.6862" fill="none" stroke="#ff0000" fill-opacity="0.50" stroke-opacity="0.50"/>
<path d="M359.555,305.54h 7.55905" fill="none" stroke="#ff0000" fill-opacity="0.50" stroke-opacity="0.50"/>
<path d="M367.114,305.54h 7.55905" fill="none" stroke="#ff0000" fill-opacity="0.50" stroke-opacity="0.50"/>
<g stroke="black" stroke-width="1" fill="none">
<line x1="366.114" y1="305.54" x2="367.114" y2="305.54"/>
</g>
<g stroke="black" stroke-width="1" fill="none">
<line x1="381.232" y1="346.022" x2="382.232" y2="346.022"/>
</g>
<g stroke="black" stroke-width="1" fill="none">
<line x1="396.35" y1="346.022" x2="397.35" y2="346.022"/>
</g>
<g stroke="black" stroke-width="1" fill="none">
<line x1="411.469" y1="346.022" x2="412.469" y2="346.022"/>
</g>
<g stroke="black" stroke-width="1" fill="none">
<line x1="426.587" y1="346.022" x2="427.587" y2="346.022"/>
</g>
<g stroke="black" stroke-width="1" fill="none">
<line x1="441.705" y1="346.022" x2="442.705" y2="346.022"/>
</g>
<g stroke="black" stroke-width="1" fill="none">
<line x1="456.823" y1="346.022" x2="457.823" y2="346.022"/>
</g>
<g stroke="black" stroke-width="1" fill="none">
<line x1="471.941" y1="346.022" x2="472.941" y2="346.022"/>
</g>
<g stroke="black" stroke-width="1" fill="none">
<line x1="487.059" y1="346.022" x2="488.059" y2="346.022"/>
</g>
<g stroke="black" stroke-width="1" fill="none">
<line x1="502.177" y1="346.022" x2="503.177" y2="346.022"/>
</g>
<path d="M59.4606,346.022h 22.6772l 4.53543, -0.0356402l 4.53543, -0.0163299l 4.53543, -0.0231757l 4.53543, -0.0325983l 4.53543, -0.0454422l 4.53543, -0.0627791l 4.53543, -0.0859505l 4.53543, -0.116613l 4.53543, -0.156782l 4.53543, -0.208872l
 4.53543, -0.275728l 4.53543, -0.360648l 4.53543, -0.467375l 4.53543, -0.600075l 4.53543, -0.763274l 4.53543, -0.961753l 4.53543, -1.2004l 4.53543, -1.48402l 4.53543, -1.81704l 4.53543, -2.20325l 4.53543, -2.64544l 4.53543, -3.14495l 4.53543,
 -3.70134l 4.53543, -4.31194l 4.53543, -4.97147l 4.53543, -5.67174l 4.53543, -6.40143l 4.53543, -7.14595l 4.53543, -7.88757l 4.53543, -8.60563l 4.53543, -9.27701l 4.53543, -9.87676l 4.53543, -10.379l 4.53543, -10.7578l 4.53543, -10.9887l 4.53543,
 -11.0494l 4.53543, -10.9215l 4.53543, -10.5914l 4.53543, -10.0514l 4.53543, -9.30059l 4.53543, -8.34514l 4.53543, -7.19878l 4.53543, -5.88241l 4.53543, -4.42362" fill="none" stroke="#ff0000" stroke-width="2"/>
<path d="M281.697,151.573l 4.53543, -2.85571l 4.53543, -1.21646l 4.53543, 0.45339l 4.53543, 2.11182l 4.53543, 3.71729l 4.53543, 5.23046l 4.53543, 6.61581l 4.53543, 7.84301l 4.53543, 8.88799l 4.53543, 9.73372l 4.53543, 10.3705l 4.53543, 10.7961l
 4.53543, 11.0152l 4.53543, 11.0388l 4.53543, 10.8833l 4.53543, 10.5692l 4.53543, 10.1203l 4.53543, 9.56197l 4.53543, 8.92021l 4.53543, 8.22052l 4.53543, 7.48695l 4.53543, 6.74137l 4.53543, 6.0029l 4.53543, 5.28756l 4.53543, 4.60818l 4.53543,
 3.97435l 4.53543, 3.39267l 4.53543, 2.86694l 4.53543, 2.39859l 4.53543, 1.98703l 4.53543, 1.63007l 4.53543, 1.32436l 4.53543, 1.06571l 4.53543, 0.849451l 4.53543, 0.670707l 4.53543, 0.524627l 4.53543, 0.406552l 4.53543, 0.312142l 4.53543, 0.237453l
 4.53543, 0.178984l 4.53543, 0.133684l 4.53543, 0.0989433l 4.53543, 0.0725692l 4.53543, 0.0527461l 4.53543, 0.0379939l 4.53543, 0.0271228l 4.53543, 0.0191895l 4.53543, 0.0424011h 4.53543" fill="none" stroke="#ff0000" stroke-width="2"/>
<path d="M503.933,346.022h 4.53543" fill="none" stroke="#ff0000" stroke-width="2"/>
<rect x="454.043" y="96.1173" width="113.386" height="115.341" fill="white"/>
<path d="M454.043,211.458h 113.386" fill="none" stroke="black"/>
<path d="M567.429,211.458v -115.341" fill="none" stroke="black"/>
<path d="M567.429,96.1173h -113.386" fill="none" stroke="black"/>
<path d="M454.043,96.1173v 115.341" fill="none" stroke="black"/>
<text xml:space="preserve" x="505.523" y="115.667" fill="black" font-size="19.9704" font-family="Helvetica">h</text>
<path d="M454.043,119.185h 113.386" fill="none" stroke="black"/>
<text xml:space="preserve" x="468.868" y="133.587" fill="black" font-size="10.4882" font-family="Helvetica"> / ndf </text>
<text xml:space="preserve" x="464.795" y="130.329" fill="black" font-size="7.15882" font-family="Helvetica">2</text>
<text xml:space="preserve" x="459.094" y="133.587" fill="black" font-size="10.4882" font-family="Times">&#0967;</text>
<text xml:space="preserve" x="516.927" y="134.401" fill="black" font-size="10.4882" font-family="Helvetica"> 47.93 / 11</text>
<text xml:space="preserve" x="459.094" y="157.209" fill="black" font-size="10.4882" font-family="Helvetica">Constant </text>
<text xml:space="preserve" x="539.734" y="157.209" fill="black" font-size="10.4882" font-family="Helvetica"> 3.47</text>
<text xml:space="preserve" x="534.032" y="157.209" fill="black" font-size="10.4882" font-family="Times">&#0177;</text>
<text xml:space="preserve" x="503.894" y="157.209" fill="black" font-size="10.4882" font-family="Helvetica"> 58.86 </text>
<text xml:space="preserve" x="459.094" y="180.831" fill="black" font-size="10.4882" font-family="Helvetica">Mean     </text>
<text xml:space="preserve" x="545.436" y="180.831" fill="black" font-size="10.4882" font-family="Helvetica"> 3.7</text>
<text xml:space="preserve" x="539.734" y="180.831" fill="black" font-size="10.4882" font-family="Times">&#0177;</text>
<text xml:space="preserve" x="509.596" y="180.831" fill="black" font-size="10.4882" font-family="Helvetica"> 310.4 </text>
<text xml:space="preserve" x="459.094" y="202.824" fill="black" font-size="10.4882" font-family="Helvetica">Sigma    </text>
<text xml:space="preserve" x="539.734" y="203.638" fill="black" font-size="10.4882" font-family="Helvetica"> 3.12</text>
<text xml:space="preserve" x="534.032" y="203.638" fill="black" font-size="10.4882" font-family="Times">&#0177;</text>
<text xml:space="preserve" x="503.894" y="203.638" fill="black" font-size="10.4882" font-family="Helvetica"> 65.34 </text>
<g stroke="black" stroke-width="1" fill="none">
<line x1="63.752" y1="346.022" x2="64.752" y2="346.022"/>
</g>
<g stroke="black" stroke-width="1" fill="none">
<line x1="78.8701" y1="346.022" x2="79.8701" y2="346.022"/>
</g>
<g stroke="black" stroke-width="1" fill="none">
<line x1="93.9882" y1="346.022" x2="94.9882" y2="346.022"/>
</g>
<g stroke="black" stroke-width="1" fill="none">
<line x1="109.106" y1="346.022" x2="110.106" y2="346.022"/>
</g>
<g stroke="black" stroke-width="1" fill="none">
<line x1="124.224" y1="346.022" x2="125.224" y2="346.022"/>
</g>
<g stroke="black" stroke-width="1" fill="none">
<line x1="139.343" y1="346.022" x2="140.343" y2="346.022"/>
</g>
<path d="M155.461,334.045v -8.26341" fill="none" stroke="#0000ff" fill-opacity="0.50" stroke-opacity="0.50"/>
<path d="M155.461,325.781v -8.26341" fill="none" stroke="#0000ff" fill-opacity="0.50" stroke-opacity="0.50"/>
<path d="M147.902,325.781h 7.55905" fill="none" stroke="#0000ff" fill-opacity="0.50" stroke-opacity="0.50"/>
<path d="M155.461,325.781h 7.55905" fill="none" stroke="#0000ff" fill-opacity="0.50" stroke-opacity="0.50"/>
<g stroke="black" stroke-width="1" fill="none">
<line x1="154.461" y1="325.781" x2="155.461" y2="325.781"/>
</g>
<g stroke="black" stroke-width="1" fill="none">
<line x1="169.579" y1="346.022" x2="170.579" y2="346.022"/>
</g>
<g stroke="black" stroke-width="1" fill="none">
<line x1="184.697" y1="346.022" x2="185.697" y2="346.022"/>
</g>
<path d="M200.815,317.226v -11.6862" fill="none" stroke="#0000ff" fill-opacity="0.50" stroke-opacity="0.50"/>
<path d="M200.815,305.54v -11.6862" fill="none" stroke="#0000ff" fill-opacity="0.50" stroke-opacity="0.50"/>
<path d="M193.256,305.54h 7.55905" fill="none" stroke="#0000ff" fill-opacity="0.50" stroke-opacity="0.50"/>
<path d="M200.815,305.54h 7.55905" fill="none" stroke="#0000ff" fill-opacity="0.50" stroke-opacity="0.50"/>
<g stroke="black" stroke-width="1" fill="none">
<line x1="199.815" y1="305.54" x2="200.815" y2="305.54"/>
</g>
<g stroke="black" stroke-width="1" fill="none">
<line x1="214.933" y1="346.022" x2="215.933" y2="346.022"/>
</g>
<path d="M231.051,299.611v -14.3126" fill="none" stroke="#0000ff" fill-opacity="0.50" stroke-opacity="0.50"/>
<path d="M231.051,285.299v -14.3126" fill="none" stroke="#0000ff" fill-opacity="0.50" stroke-opacity="0.50"/>
<path d="M223.492,285.299h 7.55905" fill="none" stroke="#0000ff" fill-opacity="0.50" stroke-opacity="0.50"/>
<path d="M231.051,285.299h 7.55905" fill="none" stroke="#0000ff" fill-opacity="0.50" stroke-opacity="0.50"/>
<g stroke="black" stroke-width="1" fill="none">
<line x1="230.051" y1="285.299" x2="231.051" y2="285.299"/>
</g>
<path d="M246.169,244.817v -20.2411" fill="none" stroke="#0000ff" fill-opacity="0.50" stroke-opacity="0.50"/>
<path d="M246.169,224.575v -20.2411" fill="none" stroke="#0000ff" fill-opacity="0.50" stroke-opacity="0.50"/>
<path d="M238.61,224.575h 7.55905" fill="none" stroke="#0000ff" fill-opacity="0.50" stroke-opacity="0.50"/>
<path d="M246.169,224.575h 7.55905" fill="none" stroke="#0000ff" fill-opacity="0.50" stroke-opacity="0.50"/>
<g stroke="black" stroke-width="1" fill="none">
<line x1="245.169" y1="224.575" x2="246.169" y2="224.575"/>
</g>
<path d="M261.287,112.682v -29.7941" fill="none" stroke="#0000ff" fill-opacity="0.50" stroke-opacity="0.50"/>
<path d="M261.287,82.8875v -29.7941" fill="none" stroke="#0000ff" fill-opacity="0.50" stroke-opacity="0.50"/>
<path d="M253.728,82.8875h 7.55905" fill="none" stroke="#0000ff" fill-opacity="0.50" stroke-opacity="0.50"/>
<path d="M261.287,82.8875h 7.55905" fill="none" stroke="#0000ff" fill-opacity="0.50" stroke-opacity="0.50"/>
<g stroke="black" stroke-width="1" fill="none">
<line x1="260.287" y1="82.8875" x2="261.287" y2="82.8875"/>
</g>
<path d="M276.406,131.754v -28.6253" fill="none" stroke="#0000ff" fill-opacity="0.50" stroke-opacity="0.50"/>
<path d="M276.406,103.129v -28.6253" fill="none" stroke="#0000ff" fill-opacity="0.50" stroke-opacity="0.50"/>
<path d="M268.846,103.129h 7.55905" fill="none" stroke="#0000ff" fill-opacity="0.50" stroke-opacity="0.50"/>
<path d="M276.406,103.129h 7.55905" fill="none" stroke="#0000ff" fill-opacity="0.50" stroke-opacity="0.50"/>
<g stroke="black" stroke-width="1" fill="none">
<line x1="275.406" y1="103.129" x2="276.406" y2="103.129"/>
</g>
<path d="M291.524,207.466v -23.3724" fill="none" stroke="#0000ff" fill-opacity="0.50" stroke-opacity="0.50"/>
<path d="M291.524,184.093v -23.3724" fill="none" stroke="#0000ff" fill-opacity="0.50" stroke-opacity="0.50"/>
<path d="M283.965,184.093h 7.55905" fill="none" stroke="#0000ff" fill-opacity="0.50" stroke-opacity="0.50"/>
<path d="M291.524,184.093h 7.55905" fill="none" stroke="#0000ff" fill-opacity="0.50" stroke-opacity="0.50"/>
<g stroke="black" stroke-width="1" fill="none">
<line x1="290.524" y1="184.093" x2="291.524" y2="184.093"/>
</g>
<path d="M306.642,226.197v -21.8629" fill="none" stroke="#0000ff" fill-opacity="0.50" stroke-opacity="0.50"/>
<path d="M306.642,204.334v -21.8629" fill="none" stroke="#0000ff" fill-opacity="0.50" stroke-opacity="0.50"/>
<path d="M299.083,204.334h 7.55905" fill="none" stroke="#0000ff" fill-opacity="0.50" stroke-opacity="0.50"/>
<path d="M306.642,204.334h 7.55905" fill="none" stroke="#0000ff" fill-opacity="0.50" stroke-opacity="0.50"/>
<g stroke="black" stroke-width="1" fill="none">
<line x1="305.642" y1="204.334" x2="306.642" y2="204.334"/>
</g>
<path d="M321.76,131.754v -28.6253" fill="none" stroke="#0000ff" fill-opacity="0.50" stroke-opacity="0.50"/>
<path d="M321.76,103.129v -28.6253" fill="none" stroke="#0000ff" fill-opacity="0.50" stroke-opacity="0.50"/>
<path d="M314.201,103.129h 7.55905" fill="none" stroke="#0000ff" fill-opacity="0.50" stroke-opacity="0.50"/>
<path d="M321.76,103.129h 7.55905" fill="none" stroke="#0000ff" fill-opacity="0.50" stroke-opacity="0.50"/>
<g stroke="black" stroke-width="1" fill="none">
<line x1="320.76" y1="103.129" x2="321.76" y2="103.129"/>
</g>
<path d="M336.878,188.642v -24.7902" fill="none" stroke="#0000ff" fill-opacity="0.50" stroke-opacity="0.50"/>
<path d="M336.878,163.852v -24.7902" fill="none" stroke="#0000ff" fill-opacity="0.50" stroke-opacity="0.50"/>
<path d="M329.319,163.852h 7.55905" fill="none" stroke="#0000ff" fill-opacity="0.50" stroke-opacity="0.50"/>
<path d="M336.878,163.852h 7.55905" fill="none" stroke="#0000ff" fill-opacity="0.50" stroke-opacity="0.50"/>
<g stroke="black" stroke-width="1" fill="none">
<line x1="335.878" y1="163.852" x2="336.878" y2="163.852"/>
</g>
<path d="M351.996,263.294v -18.4775" fill="none" stroke="#0000ff" fill-opacity="0.50" stroke-opacity="0.50"/>
<path d="M351.996,244.817v -18.4775" fill="none" stroke="#0000ff" fill-opacity="0.50" stroke-opacity="0.50"/>
<path d="M344.437,244.817h 7.55905" fill="none" stroke="#0000ff" fill-opacity="0.50" stroke-opacity="0.50"/>
<path d="M351.996,244.817h 7.55905" fill="none" stroke="#0000ff" fill-opacity="0.50" stroke-opacity="0.50"/>
<g stroke="black" stroke-width="1" fill="none">
<line x1="350.996" y1="244.817" x2="351.996" y2="244.817"/>
</g>
<path d="M367.114,263.294v -18.4775" fill="none" stroke="#0000ff" fill-opacity="0.50" stroke-opacity="0.50"/>
<path d="M367.114,244.817v -18.4775" fill="none" stroke="#0000ff" fill-opacity="0.50" stroke-opacity="0.50"/>
<path d="M359.555,244.817h 7.55905" fill="none" stroke="#0000ff" fill-opacity="0.50" stroke-opacity="0.50"/>
<path d="M367.114,244.817h 7.55905" fill="none" stroke="#0000ff" fill-opacity="0.50" stroke-opacity="0.50"/>
<g stroke="black" stroke-width="1" fill="none">
<line x1="366.114" y1="244.817" x2="367.114" y2="244.817"/>
</g>
<path d="M382.232,334.045v -8.26341" fill="none" stroke="#0000ff" fill-opacity="0.50" stroke-opacity="0.50"/>
<path d="M382.232,325.781v -8.26341" fill="none" stroke="#0000ff" fill-opacity="0.50" stroke-opacity="0.50"/>
<path d="M374.673,325.781h 7.55905" fill="none" stroke="#0000ff" fill-opacity="0.50" stroke-opacity="0.50"/>
<path d="M382.232,325.781h 7.55905" fill="none" stroke="#0000ff" fill-opacity="0.50" stroke-opacity="0.50"/>
<g stroke="black" stroke-width="1" fill="none">
<line x1="381.232" y1="325.781" x2="382.232" y2="325.781"/>
</g>
<g stroke="black" stroke-width="1" fill="none">
<line x1="396.35" y1="346.022" x2="397.35" y2="346.022"/>
</g>
<g stroke="black" stroke-width="1" fill="none">
<line x1="411.469" y1="346.022" x2="412.469" y2="346.022"/>
</g>
<g stroke="black" stroke-width="1" fill="none">
<line x1="426.587" y1="346.022" x2="427.587" y2="346.022"/>
</g>
<g stroke="black" stroke-width="1" fill="none">
<line x1="441.705" y1="346.022" x2="442.705" y2="346.022"/>
</g>
<g stroke="black" stroke-width="1" fill="none">
<line x1="456.823" y1="346.022" x2="457.823" y2="346.022"/>
</g>
<g stroke="black" stroke-width="1" fill="none">
<line x1="471.941" y1="346.022" x2="472.941" y2="346.022"/>
</g>
<g stroke="black" stroke-width="1" fill="none">
<line x1="487.059" y1="346.022" x2="488.059" y2="346.022"/>
</g>
<g stroke="black" stroke-width="1" fill="none">
<line x1="502.177" y1="346.022" x2="503.177" y2="346.022"/>
</g>
<path d="M59.4606,346.022h 31.748l 4.53543, -0.0378331l 4.53543, -0.018051l 4.53543, -0.0259207l 4.53543, -0.0368658l 4.53543, -0.0519303l 4.53543, -0.0724478l 4.53543, -0.100097l 4.53543, -0.136962l 4.53543, -0.185582l 4.53543, -0.249011l 4.53543,
 -0.330847l 4.53543, -0.43525l 4.53543, -0.566933l 4.53543, -0.731107l 4.53543, -0.933382l 4.53543, -1.1796l 4.53543, -1.47564l 4.53543, -1.82705l 4.53543, -2.23876l 4.53543, -2.71461l 4.53543, -3.25684l 4.53543, -3.8656l 4.53543, -4.53841l 4.53543,
 -5.26963l 4.53543, -6.0501l 4.53543, -6.86673l 4.53543, -7.70245l 4.53543, -8.53619l 4.53543, -9.34323l 4.53543, -10.0957l 4.53543, -10.7637l 4.53543, -11.3158l 4.53543, -11.7211l 4.53543, -11.9502l 4.53543, -11.9771l 4.53543, -11.7807l 4.53543,
 -11.3462l 4.53543, -10.6664l 4.53543, -9.74276l 4.53543, -8.58598l 4.53543, -7.21583l 4.53543, -5.66093" fill="none" stroke="#0000ff" stroke-width="2"/>
<path d="M281.697,144.423l 4.53543, -3.95775l 4.53543, -2.14919l 4.53543, -0.282835l 4.53543, 1.59115l 4.53543, 3.42228l 4.53543, 5.16195l 4.53543, 6.76565l 4.53543, 8.19481l 4.53543, 9.41832l 4.53543, 10.4137l 4.53543, 11.1674l 4.53543, 11.6754l
 4.53543, 11.9423l 4.53543, 11.9807l 4.53543, 11.8099l 4.53543, 11.4546l 4.53543, 10.9435l 4.53543, 10.3071l 4.53543, 9.57684l 4.53543, 8.78317l 4.53543, 7.95471l 4.53543, 7.1172l 4.53543, 6.29284l 4.53543, 5.49993l 4.53543, 4.75274l 4.53543, 4.0616l
 4.53543, 3.43317l 4.53543, 2.87081l 4.53543, 2.37513l 4.53543, 1.94445l 4.53543, 1.57536l 4.53543, 1.26322l 4.53543, 1.00261l 4.53543, 0.787728l 4.53543, 0.612689l 4.53543, 0.471793l 4.53543, 0.359698l 4.53543, 0.271532l 4.53543, 0.202966l 4.53543,
 0.150233l 4.53543, 0.110119l 4.53543, 0.0799346l 4.53543, 0.0574639l 4.53543, 0.0409127l 4.53543, 0.0288495l 4.53543, 0.0201487l 4.53543, 0.0425879h 9.07087" fill="none" stroke="#0000ff" stroke-width="2"/>
<path d="M503.933,346.022h 4.53543" fill="none" stroke="#0000ff" stroke-width="2"/>
<rect x="454.043" y="211.458" width="113.386" height="115.341" fill="white"/>
<path d="M454.043,326.799h 113.386" fill="none" stroke="black"/>
<path d="M567.429,326.799v -115.341" fill="none" stroke="black"/>
<path d="M567.429,211.458h -113.386" fill="none" stroke="black"/>
<path d="M454.043,211.458v 115.341" fill="none" stroke="black"/>
<text xml:space="preserve" x="486.788" y="228.075" fill="black" font-size="19.9704" font-family="Helvetica">adj_h</text>
<path d="M454.043,234.526h 113.386" fill="none" stroke="black"/>
<text xml:space="preserve" x="468.868" y="249.253" fill="black" font-size="10.4882" font-family="Helvetica"> / ndf </text>
<text xml:space="preserve" x="464.795" y="245.995" fill="black" font-size="7.15882" font-family="Helvetica">2</text>
<text xml:space="preserve" x="459.094" y="249.253" fill="black" font-size="10.4882" font-family="Times">&#0967;</text>
<text xml:space="preserve" x="515.298" y="250.068" fill="black" font-size="10.4882" font-family="Helvetica"> 50.43 / 10</text>
<text xml:space="preserve" x="459.094" y="272.875" fill="black" font-size="10.4882" font-family="Helvetica">Constant </text>
<text xml:space="preserve" x="539.734" y="272.875" fill="black" font-size="10.4882" font-family="Helvetica"> 3.68</text>
<text xml:space="preserve" x="534.032" y="272.875" fill="black" font-size="10.4882" font-family="Times">&#0177;</text>
<text xml:space="preserve" x="503.894" y="272.875" fill="black" font-size="10.4882" font-family="Helvetica"> 61.69 </text>
<text xml:space="preserve" x="459.094" y="295.683" fill="black" font-size="10.4882" font-family="Helvetica">Mean     </text>
<text xml:space="preserve" x="545.436" y="295.683" fill="black" font-size="10.4882" font-family="Helvetica"> 3.5</text>
<text xml:space="preserve" x="539.734" y="295.683" fill="black" font-size="10.4882" font-family="Times">&#0177;</text>
<text xml:space="preserve" x="509.596" y="295.683" fill="black" font-size="10.4882" font-family="Helvetica"> 312.9 </text>
<text xml:space="preserve" x="459.094" y="318.49" fill="black" font-size="10.4882" font-family="Helvetica">Sigma    </text>
<text xml:space="preserve" x="545.436" y="319.305" fill="black" font-size="10.4882" font-family="Helvetica"> 3.2</text>
<text xml:space="preserve" x="539.734" y="319.305" fill="black" font-size="10.4882" font-family="Times">&#0177;</text>
<text xml:space="preserve" x="513.669" y="319.305" fill="black" font-size="10.4882" font-family="Helvetica">  63.1 </text>
<path d="M57.1929,346.022h 453.543" fill="none" stroke="black"/>
<path d="M57.1929,336.795v 9.22726" fill="none" stroke="black"/>
<path d="M72.311,341.409v 4.61363" fill="none" stroke="black"/>
<path d="M87.4291,341.409v 4.61363" fill="none" stroke="black"/>
<path d="M102.547,341.409v 4.61363" fill="none" stroke="black"/>
<path d="M117.665,341.409v 4.61363" fill="none" stroke="black"/>
<path d="M132.783,336.795v 9.22726" fill="none" stroke="black"/>
<path d="M147.902,341.409v 4.61363" fill="none" stroke="black"/>
<path d="M163.02,341.409v 4.61363" fill="none" stroke="black"/>
<path d="M178.138,341.409v 4.61363" fill="none" stroke="black"/>
<path d="M193.256,341.409v 4.61363" fill="none" stroke="black"/>
<path d="M208.374,336.795v 9.22726" fill="none" stroke="black"/>
<path d="M223.492,341.409v 4.61363" fill="none" stroke="black"/>
<path d="M238.61,341.409v 4.61363" fill="none" stroke="black"/>
<path d="M253.728,341.409v 4.61363" fill="none" stroke="black"/>
<path d="M268.846,341.409v 4.61363" fill="none" stroke="black"/>
<path d="M283.965,336.795v 9.22726" fill="none" stroke="black"/>
<path d="M299.083,341.409v 4.61363" fill="none" stroke="black"/>
<path d="M314.201,341.409v 4.61363" fill="none" stroke="black"/>
<path d="M329.319,341.409v 4.61363" fill="none" stroke="black"/>
<path d="M344.437,341.409v 4.61363" fill="none" stroke="black"/>
<path d="M359.555,336.795v 9.22726" fill="none" stroke="black"/>
<path d="M374.673,341.409v 4.61363" fill="none" stroke="black"/>
<path d="M389.791,341.409v 4.61363" fill="none" stroke="black"/>
<path d="M404.909,341.409v 4.61363" fill="none" stroke="black"/>
<path d="M420.028,341.409v 4.61363" fill="none" stroke="black"/>
<path d="M435.146,336.795v 9.22726" fill="none" stroke="black"/>
<path d="M450.264,341.409v 4.61363" fill="none" stroke="black"/>
<path d="M465.382,341.409v 4.61363" fill="none" stroke="black"/>
<path d="M480.5,341.409v 4.61363" fill="none" stroke="black"/>
<path d="M495.618,341.409v 4.61363" fill="none" stroke="black"/>
<path d="M510.736,336.795v 9.22726" fill="none" stroke="black"/>
<path d="M57.1929,346.022v -307.575" fill="none" stroke="black"/>
<path d="M70.7992,346.022h -13.6063" fill="none" stroke="black"/>
<path d="M63.9961,339.275h -6.80315" fill="none" stroke="black"/>
<path d="M63.9961,332.528h -6.80315" fill="none" stroke="black"/>
<path d="M63.9961,325.781h -6.80315" fill="none" stroke="black"/>
<path d="M63.9961,319.034h -6.80315" fill="none" stroke="black"/>
<path d="M70.7992,312.287h -13.6063" fill="none" stroke="black"/>
<path d="M63.9961,305.54h -6.80315" fill="none" stroke="black"/>
<path d="M63.9961,298.793h -6.80315" fill="none" stroke="black"/>
<path d="M63.9961,292.046h -6.80315" fill="none" stroke="black"/>
<path d="M63.9961,285.299h -6.80315" fill="none" stroke="black"/>
<path d="M70.7992,278.552h -13.6063" fill="none" stroke="black"/>
<path d="M63.9961,271.805h -6.80315" fill="none" stroke="black"/>
<path d="M63.9961,265.058h -6.80315" fill="none" stroke="black"/>
<path d="M63.9961,258.311h -6.80315" fill="none" stroke="black"/>
<path d="M63.9961,251.564h -6.80315" fill="none" stroke="black"/>
<path d="M70.7992,244.817h -13.6063" fill="none" stroke="black"/>
<path d="M63.9961,238.07h -6.80315" fill="none" stroke="black"/>
<path d="M63.9961,231.322h -6.80315" fill="none" stroke="black"/>
<path d="M63.9961,224.575h -6.80315" fill="none" stroke="black"/>
<path d="M63.9961,217.828h -6.80315" fill="none" stroke="black"/>
<path d="M70.7992,211.081h -13.6063" fill="none" stroke="black"/>
<path d="M63.9961,204.334h -6.80315" fill="none" stroke="black"/>
<path d="M63.9961,197.587h -6.80315" fill="none" stroke="black"/>
<path d="M63.9961,190.84h -6.80315" fill="none" stroke="black"/>
<path d="M63.9961,184.093h -6.80315" fill="none" stroke="black"/>
<path d="M70.7992,177.346h -13.6063" fill="none" stroke="black"/>
<path d="M63.9961,170.599h -6.80315" fill="none" stroke="black"/>
<path d="M63.9961,163.852h -6.80315" fill="none" stroke="black"/>
<path d="M63.9961,157.105h -6.80315" fill="none" stroke="black"/>
<path d="M63.9961,150.358h -6.80315" fill="none" stroke="black"/>
<path d="M70.7992,143.611h -13.6063" fill="none" stroke="black"/>
<path d="M63.9961,136.864h -6.80315" fill="none" stroke="black"/>
<path d="M63.9961,130.117h -6.80315" fill="none" stroke="black"/>
<path d="M63.9961,123.37h -6.80315" fill="none" stroke="black"/>
<path d="M63.9961,116.623h -6.80315" fill="none" stroke="black"/>
<path d="M70.7992,109.876h -13.6063" fill="none" stroke="black"/>
<path d="M63.9961,103.129h -6.80315" fill="none" stroke="black"/>
<path d="M63.9961,96.3816h -6.80315" fill="none" stroke="black"/>
<path d="M63.9961,89.6346h -6.80315" fill="none" stroke="black"/>
<path d="M63.9961,82.8875h -6.80315" fill="none" stroke="black"/>
<path d="M70.7992,76.1405h -13.6063" fill="none" stroke="black"/>
<path d="M63.9961,69.3934h -6.80315" fill="none" stroke="black"/>
<path d="M63.9961,62.6464h -6.80315" fill="none" stroke="black"/>
<path d="M63.9961,55.8993h -6.80315" fill="none" stroke="black"/>
<path d="M63.9961,49.1523h -6.80315" fill="none" stroke="black"/>
<path d="M70.7992,42.4052h -13.6063" fill="none" stroke="black"/>
<path d="M70.7992,42.4052h -13.6063" fill="none" stroke="black"/>
<rect x="454.043" y="57.6704" width="113.386" height="38.4469" fill="white"/>
<path d="M454.043,96.1173h 113.386" fill="none" stroke="black"/>
<path d="M567.429,96.1173v -38.4469" fill="none" stroke="black"/>
<path d="M567.429,57.6704h -113.386" fill="none" stroke="black"/>
<path d="M454.043,57.6704v 38.4469" fill="none" stroke="black"/>
<text xml:space="preserve" x="481.901" y="70.8661" fill="black" font-size="15.4459" font-family="Helvetica">original</text>
<path d="M458.295,74.0103h 19.8425v -13.4564h -19.8425z" fill="white"/>
<path d="M458.295,67.2821h 19.8425" fill="none" stroke="#ff0000" fill-opacity="0.50" stroke-opacity="0.50"/>
<g stroke="black" stroke-width="1" fill="none">
<line x1="467.217" y1="67.2821" x2="468.217" y2="67.2821"/>
</g>
<text xml:space="preserve" x="481.901" y="90.4154" fill="black" font-size="15.4459" font-family="Helvetica">adjusted</text>
<path d="M458.295,93.2338h 19.8425v -13.4564h -19.8425z" fill="white"/>
<path d="M458.295,86.5056h 19.8425" fill="none" stroke="#0000ff" fill-opacity="0.50" stroke-opacity="0.50"/>
<g stroke="black" stroke-width="1" fill="none">
<line x1="467.217" y1="86.5056" x2="468.217" y2="86.5056"/>
</g>
<text xml:space="preserve" x="108.836" y="18.7347" fill="black" font-size="18.7938" font-family="Helvetica">Sector 10 Before and After FB Adjustment</text></svg>
