<?xml version="1.0" standalone="no"?>
<svg width="567.429" height="387.116" viewBox="0 0 567.429 387.116" xmlns="http://www.w3.org/2000/svg" shape-rendering="crispEdges">
<title>
./old_vop/sector_by_vop/sector-16_all.svg
</title>
<desc>
Creator: ROOT Version 6.24/00
CreationDate: Tue Jun 15 20:02:41 2021</desc>
<defs>
</defs>
<rect x="0.5" y="0" width="566.929" height="386.616" fill="white"/>
<rect x="57.1929" y="38.6616" width="453.543" height="309.293" fill="white"/>
<rect x="57.1929" y="38.6616" width="453.543" height="309.293" fill="none" stroke="black"/>
<path d="M57.1929,347.955h 453.543" fill="none" stroke="#000099"/>
<path d="M57.1929,347.955h 453.543" fill="none" stroke="black"/>
<path d="M57.1929,338.676v 9.27879" fill="none" stroke="black"/>
<path d="M72.311,343.315v 4.6394" fill="none" stroke="black"/>
<path d="M87.4291,343.315v 4.6394" fill="none" stroke="black"/>
<path d="M102.547,343.315v 4.6394" fill="none" stroke="black"/>
<path d="M117.665,343.315v 4.6394" fill="none" stroke="black"/>
<path d="M132.783,338.676v 9.27879" fill="none" stroke="black"/>
<path d="M147.902,343.315v 4.6394" fill="none" stroke="black"/>
<path d="M163.02,343.315v 4.6394" fill="none" stroke="black"/>
<path d="M178.138,343.315v 4.6394" fill="none" stroke="black"/>
<path d="M193.256,343.315v 4.6394" fill="none" stroke="black"/>
<path d="M208.374,338.676v 9.27879" fill="none" stroke="black"/>
<path d="M223.492,343.315v 4.6394" fill="none" stroke="black"/>
<path d="M238.61,343.315v 4.6394" fill="none" stroke="black"/>
<path d="M253.728,343.315v 4.6394" fill="none" stroke="black"/>
<path d="M268.846,343.315v 4.6394" fill="none" stroke="black"/>
<path d="M283.965,338.676v 9.27879" fill="none" stroke="black"/>
<path d="M299.083,343.315v 4.6394" fill="none" stroke="black"/>
<path d="M314.201,343.315v 4.6394" fill="none" stroke="black"/>
<path d="M329.319,343.315v 4.6394" fill="none" stroke="black"/>
<path d="M344.437,343.315v 4.6394" fill="none" stroke="black"/>
<path d="M359.555,338.676v 9.27879" fill="none" stroke="black"/>
<path d="M374.673,343.315v 4.6394" fill="none" stroke="black"/>
<path d="M389.791,343.315v 4.6394" fill="none" stroke="black"/>
<path d="M404.909,343.315v 4.6394" fill="none" stroke="black"/>
<path d="M420.028,343.315v 4.6394" fill="none" stroke="black"/>
<path d="M435.146,338.676v 9.27879" fill="none" stroke="black"/>
<path d="M450.264,343.315v 4.6394" fill="none" stroke="black"/>
<path d="M465.382,343.315v 4.6394" fill="none" stroke="black"/>
<path d="M480.5,343.315v 4.6394" fill="none" stroke="black"/>
<path d="M495.618,343.315v 4.6394" fill="none" stroke="black"/>
<path d="M510.736,338.676v 9.27879" fill="none" stroke="black"/>
<text xml:space="preserve" x="52.482" y="360.625" fill="black" font-size="12.9143" font-family="Helvetica">0</text>
<text xml:space="preserve" x="121.521" y="360.625" fill="black" font-size="12.9143" font-family="Helvetica">100</text>
<text xml:space="preserve" x="197.057" y="360.625" fill="black" font-size="12.9143" font-family="Helvetica">200</text>
<text xml:space="preserve" x="273.406" y="360.625" fill="black" font-size="12.9143" font-family="Helvetica">300</text>
<text xml:space="preserve" x="348.942" y="360.625" fill="black" font-size="12.9143" font-family="Helvetica">400</text>
<text xml:space="preserve" x="424.479" y="360.625" fill="black" font-size="12.9143" font-family="Helvetica">500</text>
<text xml:space="preserve" x="500.015" y="360.625" fill="black" font-size="12.9143" font-family="Helvetica">600</text>
<text xml:space="preserve" x="485.395" y="371.996" fill="black" font-size="12.9143" font-family="Helvetica">mpv</text>
<path d="M57.1929,347.955v -309.293" fill="none" stroke="black"/>
<path d="M70.7992,347.955h -13.6063" fill="none" stroke="black"/>
<path d="M63.9961,339.291h -6.80315" fill="none" stroke="black"/>
<path d="M63.9961,330.627h -6.80315" fill="none" stroke="black"/>
<path d="M63.9961,321.964h -6.80315" fill="none" stroke="black"/>
<path d="M70.7992,313.3h -13.6063" fill="none" stroke="black"/>
<path d="M63.9961,304.636h -6.80315" fill="none" stroke="black"/>
<path d="M63.9961,295.973h -6.80315" fill="none" stroke="black"/>
<path d="M63.9961,287.309h -6.80315" fill="none" stroke="black"/>
<path d="M70.7992,278.645h -13.6063" fill="none" stroke="black"/>
<path d="M63.9961,269.982h -6.80315" fill="none" stroke="black"/>
<path d="M63.9961,261.318h -6.80315" fill="none" stroke="black"/>
<path d="M63.9961,252.654h -6.80315" fill="none" stroke="black"/>
<path d="M70.7992,243.991h -13.6063" fill="none" stroke="black"/>
<path d="M63.9961,235.327h -6.80315" fill="none" stroke="black"/>
<path d="M63.9961,226.663h -6.80315" fill="none" stroke="black"/>
<path d="M63.9961,218h -6.80315" fill="none" stroke="black"/>
<path d="M70.7992,209.336h -13.6063" fill="none" stroke="black"/>
<path d="M63.9961,200.672h -6.80315" fill="none" stroke="black"/>
<path d="M63.9961,192.009h -6.80315" fill="none" stroke="black"/>
<path d="M63.9961,183.345h -6.80315" fill="none" stroke="black"/>
<path d="M70.7992,174.681h -13.6063" fill="none" stroke="black"/>
<path d="M63.9961,166.018h -6.80315" fill="none" stroke="black"/>
<path d="M63.9961,157.354h -6.80315" fill="none" stroke="black"/>
<path d="M63.9961,148.69h -6.80315" fill="none" stroke="black"/>
<path d="M70.7992,140.027h -13.6063" fill="none" stroke="black"/>
<path d="M63.9961,131.363h -6.80315" fill="none" stroke="black"/>
<path d="M63.9961,122.699h -6.80315" fill="none" stroke="black"/>
<path d="M63.9961,114.036h -6.80315" fill="none" stroke="black"/>
<path d="M70.7992,105.372h -13.6063" fill="none" stroke="black"/>
<path d="M63.9961,96.7083h -6.80315" fill="none" stroke="black"/>
<path d="M63.9961,88.0446h -6.80315" fill="none" stroke="black"/>
<path d="M63.9961,79.3809h -6.80315" fill="none" stroke="black"/>
<path d="M70.7992,70.7172h -13.6063" fill="none" stroke="black"/>
<path d="M70.7992,70.7172h -13.6063" fill="none" stroke="black"/>
<path d="M63.9961,62.0536h -6.80315" fill="none" stroke="black"/>
<path d="M63.9961,53.3899h -6.80315" fill="none" stroke="black"/>
<path d="M63.9961,44.7262h -6.80315" fill="none" stroke="black"/>
<text xml:space="preserve" x="46.7965" y="352.503" fill="black" font-size="12.9143" font-family="Helvetica">0</text>
<text xml:space="preserve" x="46.7965" y="318.39" fill="black" font-size="12.9143" font-family="Helvetica">2</text>
<text xml:space="preserve" x="46.7965" y="284.277" fill="black" font-size="12.9143" font-family="Helvetica">4</text>
<text xml:space="preserve" x="46.7965" y="248.539" fill="black" font-size="12.9143" font-family="Helvetica">6</text>
<text xml:space="preserve" x="46.7965" y="213.614" fill="black" font-size="12.9143" font-family="Helvetica">8</text>
<text xml:space="preserve" x="39.4865" y="179.5" fill="black" font-size="12.9143" font-family="Helvetica">10</text>
<text xml:space="preserve" x="39.4865" y="145.387" fill="black" font-size="12.9143" font-family="Helvetica">12</text>
<text xml:space="preserve" x="39.4865" y="110.462" fill="black" font-size="12.9143" font-family="Helvetica">14</text>
<text xml:space="preserve" x="39.4865" y="75.5364" fill="black" font-size="12.9143" font-family="Helvetica">16</text>
<g transform="rotate(-90,26.491,89.3441)">
<text xml:space="preserve" x="26.491" y="89.3441" fill="black" font-size="12.9143" font-family="Helvetica">n_blocks</text>
</g>
<text xml:space="preserve" x="249.039" y="18.681" fill="black" font-size="17.0819" font-family="Helvetica">sector 16</text>
<rect x="57.6465" y="347.955" width="7.10551" height="0" fill="#ffb300" fill-opacity="0.50" stroke-opacity="0.50"/>
<rect x="72.7646" y="347.955" width="7.10551" height="0" fill="#ffb300" fill-opacity="0.50" stroke-opacity="0.50"/>
<rect x="87.8827" y="347.955" width="7.10551" height="0" fill="#ffb300" fill-opacity="0.50" stroke-opacity="0.50"/>
<rect x="103.001" y="347.955" width="7.10551" height="0" fill="#ffb300" fill-opacity="0.50" stroke-opacity="0.50"/>
<rect x="118.119" y="347.955" width="7.10551" height="0" fill="#ffb300" fill-opacity="0.50" stroke-opacity="0.50"/>
<rect x="133.237" y="347.955" width="7.10551" height="0" fill="#ffb300" fill-opacity="0.50" stroke-opacity="0.50"/>
<rect x="148.355" y="347.955" width="7.10551" height="0" fill="#ffb300" fill-opacity="0.50" stroke-opacity="0.50"/>
<rect x="163.473" y="347.955" width="7.10551" height="0" fill="#ffb300" fill-opacity="0.50" stroke-opacity="0.50"/>
<rect x="178.591" y="347.955" width="7.10551" height="0" fill="#ffb300" fill-opacity="0.50" stroke-opacity="0.50"/>
<rect x="193.709" y="347.955" width="7.10551" height="0" fill="#ffb300" fill-opacity="0.50" stroke-opacity="0.50"/>
<rect x="208.828" y="347.955" width="7.10551" height="0" fill="#ffb300" fill-opacity="0.50" stroke-opacity="0.50"/>
<rect x="223.946" y="347.955" width="7.10551" height="0" fill="#ffb300" fill-opacity="0.50" stroke-opacity="0.50"/>
<rect x="239.064" y="347.955" width="7.10551" height="0" fill="#ffb300" fill-opacity="0.50" stroke-opacity="0.50"/>
<rect x="254.182" y="347.955" width="7.10551" height="0" fill="#ffb300" fill-opacity="0.50" stroke-opacity="0.50"/>
<rect x="269.3" y="347.955" width="7.10551" height="0" fill="#ffb300" fill-opacity="0.50" stroke-opacity="0.50"/>
<rect x="284.418" y="347.955" width="7.10551" height="0" fill="#ffb300" fill-opacity="0.50" stroke-opacity="0.50"/>
<rect x="299.536" y="313.3" width="7.10551" height="34.6547" fill="#ffb300" fill-opacity="0.50" stroke-opacity="0.50"/>
<rect x="314.654" y="347.955" width="7.10551" height="0" fill="#ffb300" fill-opacity="0.50" stroke-opacity="0.50"/>
<rect x="329.772" y="347.955" width="7.10551" height="0" fill="#ffb300" fill-opacity="0.50" stroke-opacity="0.50"/>
<rect x="344.891" y="347.955" width="7.10551" height="0" fill="#ffb300" fill-opacity="0.50" stroke-opacity="0.50"/>
<rect x="360.009" y="347.955" width="7.10551" height="0" fill="#ffb300" fill-opacity="0.50" stroke-opacity="0.50"/>
<rect x="375.127" y="347.955" width="7.10551" height="0" fill="#ffb300" fill-opacity="0.50" stroke-opacity="0.50"/>
<rect x="390.245" y="347.955" width="7.10551" height="0" fill="#ffb300" fill-opacity="0.50" stroke-opacity="0.50"/>
<rect x="405.363" y="347.955" width="7.10551" height="0" fill="#ffb300" fill-opacity="0.50" stroke-opacity="0.50"/>
<rect x="420.481" y="347.955" width="7.10551" height="0" fill="#ffb300" fill-opacity="0.50" stroke-opacity="0.50"/>
<rect x="435.599" y="330.627" width="7.10551" height="17.3273" fill="#ffb300" fill-opacity="0.50" stroke-opacity="0.50"/>
<rect x="450.717" y="347.955" width="7.10551" height="0" fill="#ffb300" fill-opacity="0.50" stroke-opacity="0.50"/>
<rect x="465.835" y="347.955" width="7.10551" height="0" fill="#ffb300" fill-opacity="0.50" stroke-opacity="0.50"/>
<rect x="480.954" y="347.955" width="7.10551" height="0" fill="#ffb300" fill-opacity="0.50" stroke-opacity="0.50"/>
<rect x="496.072" y="347.955" width="7.10551" height="0" fill="#ffb300" fill-opacity="0.50" stroke-opacity="0.50"/>
<path d="M59.4606,347.955h 31.748l 4.53543, -0.0352028l 4.53543, -0.0100036l 4.53543, -0.0125869l 4.53543, -0.0157614l 4.53543, -0.0196414l 4.53543, -0.0243586l 4.53543, -0.0300625l 4.53543, -0.0369221l 4.53543, -0.0451261l 4.53543, -0.0548836l
 4.53543, -0.0664236l 4.53543, -0.0799946l 4.53543, -0.0958622l 4.53543, -0.114307l 4.53543, -0.135622l 4.53543, -0.160105l 4.53543, -0.188055l 4.53543, -0.219767l 4.53543, -0.255518l 4.53543, -0.295562l 4.53543, -0.340116l 4.53543, -0.389351l
 4.53543, -0.443376l 4.53543, -0.502228l 4.53543, -0.565856l 4.53543, -0.634109l 4.53543, -0.706722l 4.53543, -0.783307l 4.53543, -0.863342l 4.53543, -0.946165l 4.53543, -1.03097l 4.53543, -1.1168l 4.53543, -1.20258l 4.53543, -1.28706l 4.53543,
 -1.36892l 4.53543, -1.4467l 4.53543, -1.51888l 4.53543, -1.58388l 4.53543, -1.64011l 4.53543, -1.68598l 4.53543, -1.71997l 4.53543, -1.74065" fill="none" stroke="#ffb300" stroke-width="2"/>
<path d="M281.697,322.542l 4.53543, -1.74673l 4.53543, -1.73707l 4.53543, -1.71077l 4.53543, -1.66717l 4.53543, -1.60589l 4.53543, -1.52685l 4.53543, -1.43029l 4.53543, -1.31679l 4.53543, -1.18725l 4.53543, -1.04291l 4.53543, -0.885295l 4.53543,
 -0.716225l 4.53543, -0.537763l 4.53543, -0.352179l 4.53543, -0.161896l 4.53543, 0.0305546l 4.53543, 0.222596l 4.53543, 0.411658l 4.53543, 0.59524l 4.53543, 0.77096l 4.53543, 0.936611l 4.53543, 1.0902l 4.53543, 1.23l 4.53543, 1.35457l 4.53543,
 1.46278l 4.53543, 1.55383l 4.53543, 1.62725l 4.53543, 1.6829l 4.53543, 1.72096l 4.53543, 1.74189l 4.53543, 1.74645l 4.53543, 1.73562l 4.53543, 1.71057l 4.53543, 1.67265l 4.53543, 1.62332l 4.53543, 1.56414l 4.53543, 1.49669l 4.53543, 1.42257l
 4.53543, 1.34333l 4.53543, 1.26049l 4.53543, 1.17546l 4.53543, 1.08954l 4.53543, 1.00392l 4.53543, 0.919644l 4.53543, 0.837625l 4.53543, 0.758619l 4.53543, 0.683244l 4.53543, 0.611977l 4.53543, 0.545168" fill="none" stroke="#ffb300"
 stroke-width="2"/>
<path d="M503.933,344.55l 4.53543, 0.483043" fill="none" stroke="#ffb300" stroke-width="2"/>
<rect x="64.752" y="347.955" width="7.10551" height="0" fill="#cea262" fill-opacity="0.50" stroke-opacity="0.50"/>
<rect x="79.8701" y="347.955" width="7.10551" height="0" fill="#cea262" fill-opacity="0.50" stroke-opacity="0.50"/>
<rect x="94.9882" y="347.955" width="7.10551" height="0" fill="#cea262" fill-opacity="0.50" stroke-opacity="0.50"/>
<rect x="110.106" y="347.955" width="7.10551" height="0" fill="#cea262" fill-opacity="0.50" stroke-opacity="0.50"/>
<rect x="125.224" y="347.955" width="7.10551" height="0" fill="#cea262" fill-opacity="0.50" stroke-opacity="0.50"/>
<rect x="140.343" y="347.955" width="7.10551" height="0" fill="#cea262" fill-opacity="0.50" stroke-opacity="0.50"/>
<rect x="155.461" y="347.955" width="7.10551" height="0" fill="#cea262" fill-opacity="0.50" stroke-opacity="0.50"/>
<rect x="170.579" y="347.955" width="7.10551" height="0" fill="#cea262" fill-opacity="0.50" stroke-opacity="0.50"/>
<rect x="185.697" y="347.955" width="7.10551" height="0" fill="#cea262" fill-opacity="0.50" stroke-opacity="0.50"/>
<rect x="200.815" y="347.955" width="7.10551" height="0" fill="#cea262" fill-opacity="0.50" stroke-opacity="0.50"/>
<rect x="215.933" y="347.955" width="7.10551" height="0" fill="#cea262" fill-opacity="0.50" stroke-opacity="0.50"/>
<rect x="231.051" y="347.955" width="7.10551" height="0" fill="#cea262" fill-opacity="0.50" stroke-opacity="0.50"/>
<rect x="246.169" y="347.955" width="7.10551" height="0" fill="#cea262" fill-opacity="0.50" stroke-opacity="0.50"/>
<rect x="261.287" y="347.955" width="7.10551" height="0" fill="#cea262" fill-opacity="0.50" stroke-opacity="0.50"/>
<rect x="276.406" y="313.3" width="7.10551" height="34.6547" fill="#cea262" fill-opacity="0.50" stroke-opacity="0.50"/>
<rect x="291.524" y="295.973" width="7.10551" height="51.982" fill="#cea262" fill-opacity="0.50" stroke-opacity="0.50"/>
<rect x="306.642" y="157.354" width="7.10551" height="190.601" fill="#cea262" fill-opacity="0.50" stroke-opacity="0.50"/>
<rect x="321.76" y="105.372" width="7.10551" height="242.583" fill="#cea262" fill-opacity="0.50" stroke-opacity="0.50"/>
<rect x="336.878" y="53.3899" width="7.10551" height="294.565" fill="#cea262" fill-opacity="0.50" stroke-opacity="0.50"/>
<rect x="351.996" y="226.663" width="7.10551" height="121.291" fill="#cea262" fill-opacity="0.50" stroke-opacity="0.50"/>
<rect x="367.114" y="261.318" width="7.10551" height="86.6367" fill="#cea262" fill-opacity="0.50" stroke-opacity="0.50"/>
<rect x="382.232" y="347.955" width="7.10551" height="0" fill="#cea262" fill-opacity="0.50" stroke-opacity="0.50"/>
<rect x="397.35" y="347.955" width="7.10551" height="0" fill="#cea262" fill-opacity="0.50" stroke-opacity="0.50"/>
<rect x="412.469" y="347.955" width="7.10551" height="0" fill="#cea262" fill-opacity="0.50" stroke-opacity="0.50"/>
<rect x="427.587" y="347.955" width="7.10551" height="0" fill="#cea262" fill-opacity="0.50" stroke-opacity="0.50"/>
<rect x="442.705" y="347.955" width="7.10551" height="0" fill="#cea262" fill-opacity="0.50" stroke-opacity="0.50"/>
<rect x="457.823" y="347.955" width="7.10551" height="0" fill="#cea262" fill-opacity="0.50" stroke-opacity="0.50"/>
<rect x="472.941" y="347.955" width="7.10551" height="0" fill="#cea262" fill-opacity="0.50" stroke-opacity="0.50"/>
<rect x="488.059" y="347.955" width="7.10551" height="0" fill="#cea262" fill-opacity="0.50" stroke-opacity="0.50"/>
<rect x="503.177" y="347.955" width="7.10551" height="0" fill="#cea262" fill-opacity="0.50" stroke-opacity="0.50"/>
<path d="M59.4606,347.955h 167.811l 4.53543, -0.031596l 4.53543, -0.0406518l 4.53543, -0.0865287l 4.53543, -0.176588l 4.53543, -0.345433l 4.53543, -0.647479l 4.53543, -1.16246l 4.53543, -1.99814l 4.53543, -3.28641l 4.53543, -5.16861l 4.53543,
 -7.76625l 4.53543, -11.137" fill="none" stroke="#cea262" stroke-width="2"/>
<path d="M281.697,316.108l 4.53543, -15.2211l 4.53543, -19.79l 4.53543, -24.4166l 4.53543, -28.4865l 4.53543, -31.2648l 4.53543, -32.0185l 4.53543, -30.1771l 4.53543, -25.4909l 4.53543, -18.1429l 4.53543, -8.77137l 4.53543, 1.61425l 4.53543, 11.8116l
 4.53543, 20.6543l 4.53543, 27.2319l 4.53543, 31.0419l 4.53543, 32.0416l 4.53543, 30.5942l 4.53543, 27.338l 4.53543, 23.0224l 4.53543, 18.3561l 4.53543, 13.9002l 4.53543, 10.0197l 4.53543, 6.88662l 4.53543, 4.51893l 4.53543, 2.83383l 4.53543,
 1.69967l 4.53543, 0.975628l 4.53543, 0.536244l 4.53543, 0.28235l 4.53543, 0.142468l 4.53543, 0.0689107l 4.53543, 0.056271h 77.1024" fill="none" stroke="#cea262" stroke-width="2"/>
<path d="M503.933,347.955h 4.53543" fill="none" stroke="#cea262" stroke-width="2"/>
<path d="M57.1929,347.955h 453.543" fill="none" stroke="black"/>
<path d="M57.1929,338.676v 9.27879" fill="none" stroke="black"/>
<path d="M72.311,343.315v 4.6394" fill="none" stroke="black"/>
<path d="M87.4291,343.315v 4.6394" fill="none" stroke="black"/>
<path d="M102.547,343.315v 4.6394" fill="none" stroke="black"/>
<path d="M117.665,343.315v 4.6394" fill="none" stroke="black"/>
<path d="M132.783,338.676v 9.27879" fill="none" stroke="black"/>
<path d="M147.902,343.315v 4.6394" fill="none" stroke="black"/>
<path d="M163.02,343.315v 4.6394" fill="none" stroke="black"/>
<path d="M178.138,343.315v 4.6394" fill="none" stroke="black"/>
<path d="M193.256,343.315v 4.6394" fill="none" stroke="black"/>
<path d="M208.374,338.676v 9.27879" fill="none" stroke="black"/>
<path d="M223.492,343.315v 4.6394" fill="none" stroke="black"/>
<path d="M238.61,343.315v 4.6394" fill="none" stroke="black"/>
<path d="M253.728,343.315v 4.6394" fill="none" stroke="black"/>
<path d="M268.846,343.315v 4.6394" fill="none" stroke="black"/>
<path d="M283.965,338.676v 9.27879" fill="none" stroke="black"/>
<path d="M299.083,343.315v 4.6394" fill="none" stroke="black"/>
<path d="M314.201,343.315v 4.6394" fill="none" stroke="black"/>
<path d="M329.319,343.315v 4.6394" fill="none" stroke="black"/>
<path d="M344.437,343.315v 4.6394" fill="none" stroke="black"/>
<path d="M359.555,338.676v 9.27879" fill="none" stroke="black"/>
<path d="M374.673,343.315v 4.6394" fill="none" stroke="black"/>
<path d="M389.791,343.315v 4.6394" fill="none" stroke="black"/>
<path d="M404.909,343.315v 4.6394" fill="none" stroke="black"/>
<path d="M420.028,343.315v 4.6394" fill="none" stroke="black"/>
<path d="M435.146,338.676v 9.27879" fill="none" stroke="black"/>
<path d="M450.264,343.315v 4.6394" fill="none" stroke="black"/>
<path d="M465.382,343.315v 4.6394" fill="none" stroke="black"/>
<path d="M480.5,343.315v 4.6394" fill="none" stroke="black"/>
<path d="M495.618,343.315v 4.6394" fill="none" stroke="black"/>
<path d="M510.736,338.676v 9.27879" fill="none" stroke="black"/>
<path d="M57.1929,347.955v -309.293" fill="none" stroke="black"/>
<path d="M70.7992,347.955h -13.6063" fill="none" stroke="black"/>
<path d="M63.9961,339.291h -6.80315" fill="none" stroke="black"/>
<path d="M63.9961,330.627h -6.80315" fill="none" stroke="black"/>
<path d="M63.9961,321.964h -6.80315" fill="none" stroke="black"/>
<path d="M70.7992,313.3h -13.6063" fill="none" stroke="black"/>
<path d="M63.9961,304.636h -6.80315" fill="none" stroke="black"/>
<path d="M63.9961,295.973h -6.80315" fill="none" stroke="black"/>
<path d="M63.9961,287.309h -6.80315" fill="none" stroke="black"/>
<path d="M70.7992,278.645h -13.6063" fill="none" stroke="black"/>
<path d="M63.9961,269.982h -6.80315" fill="none" stroke="black"/>
<path d="M63.9961,261.318h -6.80315" fill="none" stroke="black"/>
<path d="M63.9961,252.654h -6.80315" fill="none" stroke="black"/>
<path d="M70.7992,243.991h -13.6063" fill="none" stroke="black"/>
<path d="M63.9961,235.327h -6.80315" fill="none" stroke="black"/>
<path d="M63.9961,226.663h -6.80315" fill="none" stroke="black"/>
<path d="M63.9961,218h -6.80315" fill="none" stroke="black"/>
<path d="M70.7992,209.336h -13.6063" fill="none" stroke="black"/>
<path d="M63.9961,200.672h -6.80315" fill="none" stroke="black"/>
<path d="M63.9961,192.009h -6.80315" fill="none" stroke="black"/>
<path d="M63.9961,183.345h -6.80315" fill="none" stroke="black"/>
<path d="M70.7992,174.681h -13.6063" fill="none" stroke="black"/>
<path d="M63.9961,166.018h -6.80315" fill="none" stroke="black"/>
<path d="M63.9961,157.354h -6.80315" fill="none" stroke="black"/>
<path d="M63.9961,148.69h -6.80315" fill="none" stroke="black"/>
<path d="M70.7992,140.027h -13.6063" fill="none" stroke="black"/>
<path d="M63.9961,131.363h -6.80315" fill="none" stroke="black"/>
<path d="M63.9961,122.699h -6.80315" fill="none" stroke="black"/>
<path d="M63.9961,114.036h -6.80315" fill="none" stroke="black"/>
<path d="M70.7992,105.372h -13.6063" fill="none" stroke="black"/>
<path d="M63.9961,96.7083h -6.80315" fill="none" stroke="black"/>
<path d="M63.9961,88.0446h -6.80315" fill="none" stroke="black"/>
<path d="M63.9961,79.3809h -6.80315" fill="none" stroke="black"/>
<path d="M70.7992,70.7172h -13.6063" fill="none" stroke="black"/>
<path d="M70.7992,70.7172h -13.6063" fill="none" stroke="black"/>
<path d="M63.9961,62.0536h -6.80315" fill="none" stroke="black"/>
<path d="M63.9961,53.3899h -6.80315" fill="none" stroke="black"/>
<path d="M63.9961,44.7262h -6.80315" fill="none" stroke="black"/>
<rect x="58.0145" y="264.298" width="170.079" height="81.1895" fill="white"/>
<path d="M58.0145,345.487h 170.079" fill="none" stroke="black"/>
<path d="M228.093,345.487v -81.1895" fill="none" stroke="black"/>
<path d="M228.093,264.298h -170.079" fill="none" stroke="black"/>
<path d="M58.0145,264.298v 81.1895" fill="none" stroke="black"/>
<text xml:space="preserve" x="100.403" y="293.211" fill="black" font-size="26.0796" font-family="Helvetica">vop 68.93</text>
<path d="M64.3925,298.803h 29.7638v -28.4163h -29.7638z" fill="#ffb300" fill-opacity="0.50" stroke-opacity="0.50"/>
<path d="M64.3925,284.595h 29.7638" fill="none" stroke="#ffb300" fill-opacity="0.00" stroke-opacity="0.00"/>
<g stroke="black" stroke-width="1" fill="none">
<line x1="78.2744" y1="284.595" x2="79.2744" y2="284.595"/>
</g>
<text xml:space="preserve" x="100.403" y="333.822" fill="black" font-size="26.0796" font-family="Helvetica">vop 69.23</text>
<path d="M64.3925,339.398h 29.7638v -28.4163h -29.7638z" fill="#cea262" fill-opacity="0.50" stroke-opacity="0.50"/>
<path d="M64.3925,325.19h 29.7638" fill="none" stroke="#cea262" fill-opacity="0.00" stroke-opacity="0.00"/>
<g stroke="black" stroke-width="1" fill="none">
<line x1="78.2744" y1="325.19" x2="79.2744" y2="325.19"/>
</g>
<text xml:space="preserve" x="249.039" y="18.681" fill="black" font-size="17.0819" font-family="Helvetica">sector 16</text></svg>
