<?xml version="1.0" standalone="no"?>
<svg width="567.429" height="384.969" viewBox="0 0 567.429 384.969" xmlns="http://www.w3.org/2000/svg" shape-rendering="crispEdges">
<title>
./old_vop/sector_by_vop/sector-11_all.svg
</title>
<desc>
Creator: ROOT Version 6.22/02
CreationDate: Fri Jun 25 17:54:08 2021</desc>
<defs>
</defs>
<rect x="0.5" y="0" width="566.929" height="384.469" fill="white"/>
<rect x="57.1929" y="38.4469" width="453.543" height="307.575" fill="white"/>
<rect x="57.1929" y="38.4469" width="453.543" height="307.575" fill="none" stroke="black"/>
<path d="M57.1929,346.022h 453.543" fill="none" stroke="#000099"/>
<path d="M57.1929,346.022h 453.543" fill="none" stroke="black"/>
<path d="M57.1929,336.795v 9.22726" fill="none" stroke="black"/>
<path d="M72.311,341.409v 4.61363" fill="none" stroke="black"/>
<path d="M87.4291,341.409v 4.61363" fill="none" stroke="black"/>
<path d="M102.547,341.409v 4.61363" fill="none" stroke="black"/>
<path d="M117.665,341.409v 4.61363" fill="none" stroke="black"/>
<path d="M132.783,336.795v 9.22726" fill="none" stroke="black"/>
<path d="M147.902,341.409v 4.61363" fill="none" stroke="black"/>
<path d="M163.02,341.409v 4.61363" fill="none" stroke="black"/>
<path d="M178.138,341.409v 4.61363" fill="none" stroke="black"/>
<path d="M193.256,341.409v 4.61363" fill="none" stroke="black"/>
<path d="M208.374,336.795v 9.22726" fill="none" stroke="black"/>
<path d="M223.492,341.409v 4.61363" fill="none" stroke="black"/>
<path d="M238.61,341.409v 4.61363" fill="none" stroke="black"/>
<path d="M253.728,341.409v 4.61363" fill="none" stroke="black"/>
<path d="M268.846,341.409v 4.61363" fill="none" stroke="black"/>
<path d="M283.965,336.795v 9.22726" fill="none" stroke="black"/>
<path d="M299.083,341.409v 4.61363" fill="none" stroke="black"/>
<path d="M314.201,341.409v 4.61363" fill="none" stroke="black"/>
<path d="M329.319,341.409v 4.61363" fill="none" stroke="black"/>
<path d="M344.437,341.409v 4.61363" fill="none" stroke="black"/>
<path d="M359.555,336.795v 9.22726" fill="none" stroke="black"/>
<path d="M374.673,341.409v 4.61363" fill="none" stroke="black"/>
<path d="M389.791,341.409v 4.61363" fill="none" stroke="black"/>
<path d="M404.909,341.409v 4.61363" fill="none" stroke="black"/>
<path d="M420.028,341.409v 4.61363" fill="none" stroke="black"/>
<path d="M435.146,336.795v 9.22726" fill="none" stroke="black"/>
<path d="M450.264,341.409v 4.61363" fill="none" stroke="black"/>
<path d="M465.382,341.409v 4.61363" fill="none" stroke="black"/>
<path d="M480.5,341.409v 4.61363" fill="none" stroke="black"/>
<path d="M495.618,341.409v 4.61363" fill="none" stroke="black"/>
<path d="M510.736,336.795v 9.22726" fill="none" stroke="black"/>
<text xml:space="preserve" x="53.446" y="358.403" fill="black" font-size="12.8453" font-family="Helvetica">0</text>
<text xml:space="preserve" x="121.868" y="358.403" fill="black" font-size="12.8453" font-family="Helvetica">100</text>
<text xml:space="preserve" x="197.622" y="358.403" fill="black" font-size="12.8453" font-family="Helvetica">200</text>
<text xml:space="preserve" x="273.375" y="358.403" fill="black" font-size="12.8453" font-family="Helvetica">300</text>
<text xml:space="preserve" x="348.314" y="358.403" fill="black" font-size="12.8453" font-family="Helvetica">400</text>
<text xml:space="preserve" x="424.068" y="358.403" fill="black" font-size="12.8453" font-family="Helvetica">500</text>
<text xml:space="preserve" x="499.821" y="358.403" fill="black" font-size="12.8453" font-family="Helvetica">600</text>
<text xml:space="preserve" x="486.788" y="369.807" fill="black" font-size="12.8453" font-family="Helvetica">mpv</text>
<path d="M57.1929,346.022v -307.575" fill="none" stroke="black"/>
<path d="M70.7992,346.022h -13.6063" fill="none" stroke="black"/>
<path d="M63.9961,331.376h -6.80315" fill="none" stroke="black"/>
<path d="M63.9961,316.729h -6.80315" fill="none" stroke="black"/>
<path d="M63.9961,302.083h -6.80315" fill="none" stroke="black"/>
<path d="M70.7992,287.436h -13.6063" fill="none" stroke="black"/>
<path d="M63.9961,272.79h -6.80315" fill="none" stroke="black"/>
<path d="M63.9961,258.144h -6.80315" fill="none" stroke="black"/>
<path d="M63.9961,243.497h -6.80315" fill="none" stroke="black"/>
<path d="M70.7992,228.851h -13.6063" fill="none" stroke="black"/>
<path d="M63.9961,214.204h -6.80315" fill="none" stroke="black"/>
<path d="M63.9961,199.558h -6.80315" fill="none" stroke="black"/>
<path d="M63.9961,184.911h -6.80315" fill="none" stroke="black"/>
<path d="M70.7992,170.265h -13.6063" fill="none" stroke="black"/>
<path d="M63.9961,155.618h -6.80315" fill="none" stroke="black"/>
<path d="M63.9961,140.972h -6.80315" fill="none" stroke="black"/>
<path d="M63.9961,126.326h -6.80315" fill="none" stroke="black"/>
<path d="M70.7992,111.679h -13.6063" fill="none" stroke="black"/>
<path d="M63.9961,97.0327h -6.80315" fill="none" stroke="black"/>
<path d="M63.9961,82.3863h -6.80315" fill="none" stroke="black"/>
<path d="M63.9961,67.7398h -6.80315" fill="none" stroke="black"/>
<path d="M70.7992,53.0934h -13.6063" fill="none" stroke="black"/>
<path d="M70.7992,53.0934h -13.6063" fill="none" stroke="black"/>
<path d="M63.9961,38.4469h -6.80315" fill="none" stroke="black"/>
<text xml:space="preserve" x="47.7441" y="350.258" fill="black" font-size="12.8453" font-family="Helvetica">0</text>
<text xml:space="preserve" x="47.7441" y="291.61" fill="black" font-size="12.8453" font-family="Helvetica">2</text>
<text xml:space="preserve" x="47.7441" y="232.962" fill="black" font-size="12.8453" font-family="Helvetica">4</text>
<text xml:space="preserve" x="47.7441" y="175.129" fill="black" font-size="12.8453" font-family="Helvetica">6</text>
<text xml:space="preserve" x="47.7441" y="116.481" fill="black" font-size="12.8453" font-family="Helvetica">8</text>
<text xml:space="preserve" x="41.2277" y="57.8333" fill="black" font-size="12.8453" font-family="Helvetica">10</text>
<g transform="rotate(-90,28.1948,86.3427)">
<text xml:space="preserve" x="28.1948" y="86.3427" fill="black" font-size="12.8453" font-family="Helvetica">n_blocks</text>
</g>
<text xml:space="preserve" x="250.568" y="18.7347" fill="black" font-size="16.9898" font-family="Helvetica">sector 11</text>
<rect x="57.6465" y="346.022" width="7.10551" height="0" fill="#ff6800" fill-opacity="0.50" stroke-opacity="0.50"/>
<rect x="72.7646" y="346.022" width="7.10551" height="0" fill="#ff6800" fill-opacity="0.50" stroke-opacity="0.50"/>
<rect x="87.8827" y="346.022" width="7.10551" height="0" fill="#ff6800" fill-opacity="0.50" stroke-opacity="0.50"/>
<rect x="103.001" y="346.022" width="7.10551" height="0" fill="#ff6800" fill-opacity="0.50" stroke-opacity="0.50"/>
<rect x="118.119" y="346.022" width="7.10551" height="0" fill="#ff6800" fill-opacity="0.50" stroke-opacity="0.50"/>
<rect x="133.237" y="346.022" width="7.10551" height="0" fill="#ff6800" fill-opacity="0.50" stroke-opacity="0.50"/>
<rect x="148.355" y="346.022" width="7.10551" height="0" fill="#ff6800" fill-opacity="0.50" stroke-opacity="0.50"/>
<rect x="163.473" y="346.022" width="7.10551" height="0" fill="#ff6800" fill-opacity="0.50" stroke-opacity="0.50"/>
<rect x="178.591" y="287.436" width="7.10551" height="58.5858" fill="#ff6800" fill-opacity="0.50" stroke-opacity="0.50"/>
<rect x="193.709" y="316.729" width="7.10551" height="29.2929" fill="#ff6800" fill-opacity="0.50" stroke-opacity="0.50"/>
<rect x="208.828" y="140.972" width="7.10551" height="205.05" fill="#ff6800" fill-opacity="0.50" stroke-opacity="0.50"/>
<rect x="223.946" y="199.558" width="7.10551" height="146.464" fill="#ff6800" fill-opacity="0.50" stroke-opacity="0.50"/>
<rect x="239.064" y="170.265" width="7.10551" height="175.757" fill="#ff6800" fill-opacity="0.50" stroke-opacity="0.50"/>
<rect x="254.182" y="258.144" width="7.10551" height="87.8787" fill="#ff6800" fill-opacity="0.50" stroke-opacity="0.50"/>
<rect x="269.3" y="82.3863" width="7.10551" height="263.636" fill="#ff6800" fill-opacity="0.50" stroke-opacity="0.50"/>
<rect x="284.418" y="170.265" width="7.10551" height="175.757" fill="#ff6800" fill-opacity="0.50" stroke-opacity="0.50"/>
<rect x="299.536" y="199.558" width="7.10551" height="146.464" fill="#ff6800" fill-opacity="0.50" stroke-opacity="0.50"/>
<rect x="314.654" y="258.144" width="7.10551" height="87.8787" fill="#ff6800" fill-opacity="0.50" stroke-opacity="0.50"/>
<rect x="329.772" y="346.022" width="7.10551" height="0" fill="#ff6800" fill-opacity="0.50" stroke-opacity="0.50"/>
<rect x="344.891" y="346.022" width="7.10551" height="0" fill="#ff6800" fill-opacity="0.50" stroke-opacity="0.50"/>
<rect x="360.009" y="346.022" width="7.10551" height="0" fill="#ff6800" fill-opacity="0.50" stroke-opacity="0.50"/>
<rect x="375.127" y="316.729" width="7.10551" height="29.2929" fill="#ff6800" fill-opacity="0.50" stroke-opacity="0.50"/>
<rect x="390.245" y="346.022" width="7.10551" height="0" fill="#ff6800" fill-opacity="0.50" stroke-opacity="0.50"/>
<rect x="405.363" y="346.022" width="7.10551" height="0" fill="#ff6800" fill-opacity="0.50" stroke-opacity="0.50"/>
<rect x="420.481" y="346.022" width="7.10551" height="0" fill="#ff6800" fill-opacity="0.50" stroke-opacity="0.50"/>
<rect x="435.599" y="346.022" width="7.10551" height="0" fill="#ff6800" fill-opacity="0.50" stroke-opacity="0.50"/>
<rect x="450.717" y="346.022" width="7.10551" height="0" fill="#ff6800" fill-opacity="0.50" stroke-opacity="0.50"/>
<rect x="465.835" y="346.022" width="7.10551" height="0" fill="#ff6800" fill-opacity="0.50" stroke-opacity="0.50"/>
<rect x="480.954" y="316.729" width="7.10551" height="29.2929" fill="#ff6800" fill-opacity="0.50" stroke-opacity="0.50"/>
<rect x="496.072" y="346.022" width="7.10551" height="0" fill="#ff6800" fill-opacity="0.50" stroke-opacity="0.50"/>
<path d="M59.4606,345.98l 4.53543, -0.0170844l 4.53543, -0.0234618l 4.53543, -0.0319725l 4.53543, -0.0432346l 4.53543, -0.0580122l 4.53543, -0.0772374l 4.53543, -0.102034l 4.53543, -0.133741l 4.53543, -0.173927l 4.53543, -0.224409l 4.53543,
 -0.287258l 4.53543, -0.364791l 4.53543, -0.459556l 4.53543, -0.574297l 4.53543, -0.711898l 4.53543, -0.875305l 4.53543, -1.06742l 4.53543, -1.29099l 4.53543, -1.54842l 4.53543, -1.84161l 4.53543, -2.17179l 4.53543, -2.53924l 4.53543, -2.94316l
 4.53543, -3.38139l 4.53543, -3.85026l 4.53543, -4.34445l 4.53543, -4.85683l 4.53543, -5.37851l 4.53543, -5.89879l 4.53543, -6.40535l 4.53543, -6.88446l 4.53543, -7.32126l 4.53543, -7.70028l 4.53543, -8.00584l 4.53543, -8.22268l 4.53543, -8.33661l
 4.53543, -8.3351l 4.53543, -8.20795l 4.53543, -7.94786l 4.53543, -7.55097l 4.53543, -7.01722l 4.53543, -6.35061l 4.53543, -5.5593l 4.53543, -4.65549l 4.53543, -3.65517l 4.53543, -2.57766l 4.53543, -1.44496l 4.53543, -0.281074l 4.53543, 0.888903"
 fill="none" stroke="#ff6800" stroke-width="2"/>
<path d="M281.697,185.138l 4.53543, 2.03965l 4.53543, 3.14652l 4.53543, 4.18647l 4.53543, 5.1388l 4.53543, 5.98585l 4.53543, 6.71356l 4.53543, 7.31181l 4.53543, 7.77461l 4.53543, 8.10007l 4.53543, 8.2903l 4.53543, 8.35098l 4.53543, 8.29101l 4.53543,
 8.12185l 4.53543, 7.85701l 4.53543, 7.51129l 4.53543, 7.10025l 4.53543, 6.63954l 4.53543, 6.14436l 4.53543, 5.62903l 4.53543, 5.10659l 4.53543, 4.58852l 4.53543, 4.0846l 4.53543, 3.60281l 4.53543, 3.14933l 4.53543, 2.72859l 4.53543, 2.34346l
 4.53543, 1.99537l 4.53543, 1.68453l 4.53543, 1.41015l 4.53543, 1.17061l 4.53543, 0.963725l 4.53543, 0.786898l 4.53543, 0.637283l 4.53543, 0.511939l 4.53543, 0.407942l 4.53543, 0.322473l 4.53543, 0.252883l 4.53543, 0.196741l 4.53543, 0.151858l
 4.53543, 0.116294l 4.53543, 0.0883623l 4.53543, 0.0666167l 4.53543, 0.0498329l 4.53543, 0.0369892l 4.53543, 0.027244l 4.53543, 0.0199119l 4.53543, 0.0144415l 4.53543, 0.0349084h 4.53543" fill="none" stroke="#ff6800" stroke-width="2"/>
<path d="M503.933,346.022h 4.53543" fill="none" stroke="#ff6800" stroke-width="2"/>
<rect x="64.752" y="346.022" width="7.10551" height="0" fill="#a6bdd7" fill-opacity="0.50" stroke-opacity="0.50"/>
<rect x="79.8701" y="346.022" width="7.10551" height="0" fill="#a6bdd7" fill-opacity="0.50" stroke-opacity="0.50"/>
<rect x="94.9882" y="346.022" width="7.10551" height="0" fill="#a6bdd7" fill-opacity="0.50" stroke-opacity="0.50"/>
<rect x="110.106" y="346.022" width="7.10551" height="0" fill="#a6bdd7" fill-opacity="0.50" stroke-opacity="0.50"/>
<rect x="125.224" y="346.022" width="7.10551" height="0" fill="#a6bdd7" fill-opacity="0.50" stroke-opacity="0.50"/>
<rect x="140.343" y="346.022" width="7.10551" height="0" fill="#a6bdd7" fill-opacity="0.50" stroke-opacity="0.50"/>
<rect x="155.461" y="346.022" width="7.10551" height="0" fill="#a6bdd7" fill-opacity="0.50" stroke-opacity="0.50"/>
<rect x="170.579" y="346.022" width="7.10551" height="0" fill="#a6bdd7" fill-opacity="0.50" stroke-opacity="0.50"/>
<rect x="185.697" y="346.022" width="7.10551" height="0" fill="#a6bdd7" fill-opacity="0.50" stroke-opacity="0.50"/>
<rect x="200.815" y="346.022" width="7.10551" height="0" fill="#a6bdd7" fill-opacity="0.50" stroke-opacity="0.50"/>
<rect x="215.933" y="258.144" width="7.10551" height="87.8787" fill="#a6bdd7" fill-opacity="0.50" stroke-opacity="0.50"/>
<rect x="231.051" y="140.972" width="7.10551" height="205.05" fill="#a6bdd7" fill-opacity="0.50" stroke-opacity="0.50"/>
<rect x="246.169" y="228.851" width="7.10551" height="117.172" fill="#a6bdd7" fill-opacity="0.50" stroke-opacity="0.50"/>
<rect x="261.287" y="53.0934" width="7.10551" height="292.929" fill="#a6bdd7" fill-opacity="0.50" stroke-opacity="0.50"/>
<rect x="276.406" y="170.265" width="7.10551" height="175.757" fill="#a6bdd7" fill-opacity="0.50" stroke-opacity="0.50"/>
<rect x="291.524" y="140.972" width="7.10551" height="205.05" fill="#a6bdd7" fill-opacity="0.50" stroke-opacity="0.50"/>
<rect x="306.642" y="258.144" width="7.10551" height="87.8787" fill="#a6bdd7" fill-opacity="0.50" stroke-opacity="0.50"/>
<rect x="321.76" y="346.022" width="7.10551" height="0" fill="#a6bdd7" fill-opacity="0.50" stroke-opacity="0.50"/>
<rect x="336.878" y="258.144" width="7.10551" height="87.8787" fill="#a6bdd7" fill-opacity="0.50" stroke-opacity="0.50"/>
<rect x="351.996" y="346.022" width="7.10551" height="0" fill="#a6bdd7" fill-opacity="0.50" stroke-opacity="0.50"/>
<rect x="367.114" y="346.022" width="7.10551" height="0" fill="#a6bdd7" fill-opacity="0.50" stroke-opacity="0.50"/>
<rect x="382.232" y="346.022" width="7.10551" height="0" fill="#a6bdd7" fill-opacity="0.50" stroke-opacity="0.50"/>
<rect x="397.35" y="346.022" width="7.10551" height="0" fill="#a6bdd7" fill-opacity="0.50" stroke-opacity="0.50"/>
<rect x="412.469" y="346.022" width="7.10551" height="0" fill="#a6bdd7" fill-opacity="0.50" stroke-opacity="0.50"/>
<rect x="427.587" y="346.022" width="7.10551" height="0" fill="#a6bdd7" fill-opacity="0.50" stroke-opacity="0.50"/>
<rect x="442.705" y="346.022" width="7.10551" height="0" fill="#a6bdd7" fill-opacity="0.50" stroke-opacity="0.50"/>
<rect x="457.823" y="346.022" width="7.10551" height="0" fill="#a6bdd7" fill-opacity="0.50" stroke-opacity="0.50"/>
<rect x="472.941" y="346.022" width="7.10551" height="0" fill="#a6bdd7" fill-opacity="0.50" stroke-opacity="0.50"/>
<rect x="488.059" y="346.022" width="7.10551" height="0" fill="#a6bdd7" fill-opacity="0.50" stroke-opacity="0.50"/>
<rect x="503.177" y="346.022" width="7.10551" height="0" fill="#a6bdd7" fill-opacity="0.50" stroke-opacity="0.50"/>
<path d="M59.4606,346.022h 13.6063l 4.53543, -0.0386383l 4.53543, -0.0191067l 4.53543, -0.0277188l 4.53543, -0.0397989l 4.53543, -0.0565537l 4.53543, -0.0795297l 4.53543, -0.110678l 4.53543, -0.152418l 4.53543, -0.207701l 4.53543, -0.280057l 4.53543,
 -0.373625l 4.53543, -0.493156l 4.53543, -0.643966l 4.53543, -0.831845l 4.53543, -1.06289l 4.53543, -1.34329l 4.53543, -1.67896l 4.53543, -2.07518l 4.53543, -2.53609l 4.53543, -3.06416l 4.53543, -3.65958l 4.53543, -4.31966l 4.53543, -5.03828l
 4.53543, -5.80539l 4.53543, -6.60671l 4.53543, -7.42353l 4.53543, -8.23289l 4.53543, -9.00795l 4.53543, -9.7187l 4.53543, -10.333l 4.53543, -10.818l 4.53543, -11.1417l 4.53543, -11.2744l 4.53543, -11.1912l 4.53543, -10.873l 4.53543, -10.3086l
 4.53543, -9.49569l 4.53543, -8.44187l 4.53543, -7.16469l 4.53543, -5.69153l 4.53543, -4.05865l 4.53543, -2.30977l 4.53543, -0.494103l 4.53543, 1.33592l 4.53543, 3.12719l 4.53543, 4.82844" fill="none" stroke="#a6bdd7" stroke-width="2"/>
<path d="M281.697,166.79l 4.53543, 6.39272l 4.53543, 7.77955l 4.53543, 8.95661l 4.53543, 9.90095l 4.53543, 10.5996l 4.53543, 11.0497l 4.53543, 11.2577l 4.53543, 11.2387l 4.53543, 11.0145l 4.53543, 10.6126l 4.53543, 10.064l 4.53543, 9.40112l 4.53543,
 8.65685l 4.53543, 7.86242l 4.53543, 7.04651l 4.53543, 6.23423l 4.53543, 5.44662l 4.53543, 4.70035l 4.53543, 4.00771l 4.53543, 3.37689l 4.53543, 2.81237l 4.53543, 2.31542l 4.53543, 1.88474l 4.53543, 1.51703l 4.53543, 1.20754l 4.53543, 0.950648l
 4.53543, 0.740265l 4.53543, 0.570214l 4.53543, 0.434514l 4.53543, 0.327577l 4.53543, 0.244338l 4.53543, 0.180328l 4.53543, 0.13169l 4.53543, 0.0951642l 4.53543, 0.0680533l 4.53543, 0.0481609l 4.53543, 0.0337307l 4.53543, 0.0233807l 4.53543,
 0.0160399l 4.53543, 0.0320016h 40.8189" fill="none" stroke="#a6bdd7" stroke-width="2"/>
<path d="M503.933,346.022h 4.53543" fill="none" stroke="#a6bdd7" stroke-width="2"/>
<path d="M57.1929,346.022h 453.543" fill="none" stroke="black"/>
<path d="M57.1929,336.795v 9.22726" fill="none" stroke="black"/>
<path d="M72.311,341.409v 4.61363" fill="none" stroke="black"/>
<path d="M87.4291,341.409v 4.61363" fill="none" stroke="black"/>
<path d="M102.547,341.409v 4.61363" fill="none" stroke="black"/>
<path d="M117.665,341.409v 4.61363" fill="none" stroke="black"/>
<path d="M132.783,336.795v 9.22726" fill="none" stroke="black"/>
<path d="M147.902,341.409v 4.61363" fill="none" stroke="black"/>
<path d="M163.02,341.409v 4.61363" fill="none" stroke="black"/>
<path d="M178.138,341.409v 4.61363" fill="none" stroke="black"/>
<path d="M193.256,341.409v 4.61363" fill="none" stroke="black"/>
<path d="M208.374,336.795v 9.22726" fill="none" stroke="black"/>
<path d="M223.492,341.409v 4.61363" fill="none" stroke="black"/>
<path d="M238.61,341.409v 4.61363" fill="none" stroke="black"/>
<path d="M253.728,341.409v 4.61363" fill="none" stroke="black"/>
<path d="M268.846,341.409v 4.61363" fill="none" stroke="black"/>
<path d="M283.965,336.795v 9.22726" fill="none" stroke="black"/>
<path d="M299.083,341.409v 4.61363" fill="none" stroke="black"/>
<path d="M314.201,341.409v 4.61363" fill="none" stroke="black"/>
<path d="M329.319,341.409v 4.61363" fill="none" stroke="black"/>
<path d="M344.437,341.409v 4.61363" fill="none" stroke="black"/>
<path d="M359.555,336.795v 9.22726" fill="none" stroke="black"/>
<path d="M374.673,341.409v 4.61363" fill="none" stroke="black"/>
<path d="M389.791,341.409v 4.61363" fill="none" stroke="black"/>
<path d="M404.909,341.409v 4.61363" fill="none" stroke="black"/>
<path d="M420.028,341.409v 4.61363" fill="none" stroke="black"/>
<path d="M435.146,336.795v 9.22726" fill="none" stroke="black"/>
<path d="M450.264,341.409v 4.61363" fill="none" stroke="black"/>
<path d="M465.382,341.409v 4.61363" fill="none" stroke="black"/>
<path d="M480.5,341.409v 4.61363" fill="none" stroke="black"/>
<path d="M495.618,341.409v 4.61363" fill="none" stroke="black"/>
<path d="M510.736,336.795v 9.22726" fill="none" stroke="black"/>
<path d="M57.1929,346.022v -307.575" fill="none" stroke="black"/>
<path d="M70.7992,346.022h -13.6063" fill="none" stroke="black"/>
<path d="M63.9961,331.376h -6.80315" fill="none" stroke="black"/>
<path d="M63.9961,316.729h -6.80315" fill="none" stroke="black"/>
<path d="M63.9961,302.083h -6.80315" fill="none" stroke="black"/>
<path d="M70.7992,287.436h -13.6063" fill="none" stroke="black"/>
<path d="M63.9961,272.79h -6.80315" fill="none" stroke="black"/>
<path d="M63.9961,258.144h -6.80315" fill="none" stroke="black"/>
<path d="M63.9961,243.497h -6.80315" fill="none" stroke="black"/>
<path d="M70.7992,228.851h -13.6063" fill="none" stroke="black"/>
<path d="M63.9961,214.204h -6.80315" fill="none" stroke="black"/>
<path d="M63.9961,199.558h -6.80315" fill="none" stroke="black"/>
<path d="M63.9961,184.911h -6.80315" fill="none" stroke="black"/>
<path d="M70.7992,170.265h -13.6063" fill="none" stroke="black"/>
<path d="M63.9961,155.618h -6.80315" fill="none" stroke="black"/>
<path d="M63.9961,140.972h -6.80315" fill="none" stroke="black"/>
<path d="M63.9961,126.326h -6.80315" fill="none" stroke="black"/>
<path d="M70.7992,111.679h -13.6063" fill="none" stroke="black"/>
<path d="M63.9961,97.0327h -6.80315" fill="none" stroke="black"/>
<path d="M63.9961,82.3863h -6.80315" fill="none" stroke="black"/>
<path d="M63.9961,67.7398h -6.80315" fill="none" stroke="black"/>
<path d="M70.7992,53.0934h -13.6063" fill="none" stroke="black"/>
<path d="M70.7992,53.0934h -13.6063" fill="none" stroke="black"/>
<path d="M63.9961,38.4469h -6.80315" fill="none" stroke="black"/>
<rect x="58.0145" y="172.848" width="170.079" height="80.7385" fill="white"/>
<path d="M58.0145,253.586h 170.079" fill="none" stroke="black"/>
<path d="M228.093,253.586v -80.7385" fill="none" stroke="black"/>
<path d="M228.093,172.848h -170.079" fill="none" stroke="black"/>
<path d="M58.0145,172.848v 80.7385" fill="none" stroke="black"/>
<text xml:space="preserve" x="99.8755" y="202.009" fill="black" font-size="26.0796" font-family="Helvetica">vop 69.03</text>
<path d="M64.3925,207.161h 29.7638v -28.2585h -29.7638z" fill="#ff6800" fill-opacity="0.50" stroke-opacity="0.50"/>
<path d="M64.3925,193.032h 29.7638" fill="none" stroke="#ff6800" fill-opacity="0.00" stroke-opacity="0.00"/>
<g stroke="black" stroke-width="1" fill="none">
<line x1="78.2744" y1="193.032" x2="79.2744" y2="193.032"/>
</g>
<text xml:space="preserve" x="99.8755" y="241.922" fill="black" font-size="26.0796" font-family="Helvetica">vop 69.08</text>
<path d="M64.3925,247.531h 29.7638v -28.2585h -29.7638z" fill="#a6bdd7" fill-opacity="0.50" stroke-opacity="0.50"/>
<path d="M64.3925,233.401h 29.7638" fill="none" stroke="#a6bdd7" fill-opacity="0.00" stroke-opacity="0.00"/>
<g stroke="black" stroke-width="1" fill="none">
<line x1="78.2744" y1="233.401" x2="79.2744" y2="233.401"/>
</g>
<text xml:space="preserve" x="250.568" y="18.7347" fill="black" font-size="16.9898" font-family="Helvetica">sector 11</text></svg>
