<?xml version="1.0" standalone="no"?>
<svg width="567.429" height="387.116" viewBox="0 0 567.429 387.116" xmlns="http://www.w3.org/2000/svg" shape-rendering="crispEdges">
<title>
./old_vop/sector_by_vop/sector-8_vop-69.18.svg
</title>
<desc>
Creator: ROOT Version 6.24/00
CreationDate: Tue Jun 15 20:02:40 2021</desc>
<defs>
</defs>
<rect x="0.5" y="0" width="566.929" height="386.616" fill="white"/>
<rect x="57.1929" y="38.6616" width="453.543" height="309.293" fill="white"/>
<rect x="57.1929" y="38.6616" width="453.543" height="309.293" fill="none" stroke="black"/>
<path d="M57.1929,347.955h 120.945v -22.6588h 15.1181v -45.3177h 30.2362v -45.3177h 15.1181v -158.612h 15.1181v -22.6588h 15.1181v 45.3177h 15.1181v 67.9765h 15.1181v 90.6354h 30.2362v 90.6354h 181.417" fill="none" stroke="#c10020"/>
<path d="M59.4606,347.955h 63.4961l 4.53543, -0.0438223l 4.53543, -0.0331369l 4.53543, -0.0556681l 4.53543, -0.091664l 4.53543, -0.147928l 4.53543, -0.233948l 4.53543, -0.362541l 4.53543, -0.550442l 4.53543, -0.818693l 4.53543, -1.19266l 4.53543,
 -1.70147l 4.53543, -2.37657l 4.53543, -3.24932l 4.53543, -4.34741l 4.53543, -5.69015l 4.53543, -7.28291l 4.53543, -9.11115l 4.53543, -11.1349l 4.53543, -13.2847l 4.53543, -15.4596l 4.53543, -17.5292l 4.53543, -19.3393l 4.53543, -20.7225l 4.53543,
 -21.512l 4.53543, -21.5594l 4.53543, -20.752l 4.53543, -19.0294l 4.53543, -16.3964l 4.53543, -12.9291l 4.53543, -8.77367l 4.53543, -4.13682l 4.53543, 0.730904l 4.53543, 5.55766l 4.53543, 10.0754l 4.53543, 14.0445" fill="none" stroke="#c10020"
 stroke-width="2"/>
<path d="M281.697,118.515l 4.53543, 17.2749l 4.53543, 19.6407l 4.53543, 21.0874l 4.53543, 21.6306l 4.53543, 21.3478l 4.53543, 20.3642l 4.53543, 18.8358l 4.53543, 16.931l 4.53543, 14.8148l 4.53543, 12.6349l 4.53543, 10.5136l 4.53543, 8.54236l 4.53543,
 6.78151l 4.53543, 5.26291l 4.53543, 3.99453l 4.53543, 2.96624l 4.53543, 2.15566l 4.53543, 1.53356l 4.53543, 1.06825l 4.53543, 0.728746l 4.53543, 0.486955l 4.53543, 0.318769l 4.53543, 0.204454l 4.53543, 0.128499l 4.53543, 0.0791467l 4.53543,
 0.0477791l 4.53543, 0.0282717l 4.53543, 0.036904h 95.2441" fill="none" stroke="#c10020" stroke-width="2"/>
<path d="M503.933,347.955h 4.53543" fill="none" stroke="#c10020" stroke-width="2"/>
<path d="M57.1929,347.955h 453.543" fill="none" stroke="black"/>
<path d="M57.1929,338.676v 9.27879" fill="none" stroke="black"/>
<path d="M72.311,343.315v 4.6394" fill="none" stroke="black"/>
<path d="M87.4291,343.315v 4.6394" fill="none" stroke="black"/>
<path d="M102.547,343.315v 4.6394" fill="none" stroke="black"/>
<path d="M117.665,343.315v 4.6394" fill="none" stroke="black"/>
<path d="M132.783,338.676v 9.27879" fill="none" stroke="black"/>
<path d="M147.902,343.315v 4.6394" fill="none" stroke="black"/>
<path d="M163.02,343.315v 4.6394" fill="none" stroke="black"/>
<path d="M178.138,343.315v 4.6394" fill="none" stroke="black"/>
<path d="M193.256,343.315v 4.6394" fill="none" stroke="black"/>
<path d="M208.374,338.676v 9.27879" fill="none" stroke="black"/>
<path d="M223.492,343.315v 4.6394" fill="none" stroke="black"/>
<path d="M238.61,343.315v 4.6394" fill="none" stroke="black"/>
<path d="M253.728,343.315v 4.6394" fill="none" stroke="black"/>
<path d="M268.846,343.315v 4.6394" fill="none" stroke="black"/>
<path d="M283.965,338.676v 9.27879" fill="none" stroke="black"/>
<path d="M299.083,343.315v 4.6394" fill="none" stroke="black"/>
<path d="M314.201,343.315v 4.6394" fill="none" stroke="black"/>
<path d="M329.319,343.315v 4.6394" fill="none" stroke="black"/>
<path d="M344.437,343.315v 4.6394" fill="none" stroke="black"/>
<path d="M359.555,338.676v 9.27879" fill="none" stroke="black"/>
<path d="M374.673,343.315v 4.6394" fill="none" stroke="black"/>
<path d="M389.791,343.315v 4.6394" fill="none" stroke="black"/>
<path d="M404.909,343.315v 4.6394" fill="none" stroke="black"/>
<path d="M420.028,343.315v 4.6394" fill="none" stroke="black"/>
<path d="M435.146,338.676v 9.27879" fill="none" stroke="black"/>
<path d="M450.264,343.315v 4.6394" fill="none" stroke="black"/>
<path d="M465.382,343.315v 4.6394" fill="none" stroke="black"/>
<path d="M480.5,343.315v 4.6394" fill="none" stroke="black"/>
<path d="M495.618,343.315v 4.6394" fill="none" stroke="black"/>
<path d="M510.736,338.676v 9.27879" fill="none" stroke="black"/>
<text xml:space="preserve" x="52.482" y="360.625" fill="black" font-size="12.9143" font-family="Helvetica">0</text>
<text xml:space="preserve" x="121.521" y="360.625" fill="black" font-size="12.9143" font-family="Helvetica">100</text>
<text xml:space="preserve" x="197.057" y="360.625" fill="black" font-size="12.9143" font-family="Helvetica">200</text>
<text xml:space="preserve" x="273.406" y="360.625" fill="black" font-size="12.9143" font-family="Helvetica">300</text>
<text xml:space="preserve" x="348.942" y="360.625" fill="black" font-size="12.9143" font-family="Helvetica">400</text>
<text xml:space="preserve" x="424.479" y="360.625" fill="black" font-size="12.9143" font-family="Helvetica">500</text>
<text xml:space="preserve" x="500.015" y="360.625" fill="black" font-size="12.9143" font-family="Helvetica">600</text>
<text xml:space="preserve" x="485.395" y="371.996" fill="black" font-size="12.9143" font-family="Helvetica">mpv</text>
<path d="M57.1929,347.955v -309.293" fill="none" stroke="black"/>
<path d="M70.7992,347.955h -13.6063" fill="none" stroke="black"/>
<path d="M63.9961,336.625h -6.80315" fill="none" stroke="black"/>
<path d="M63.9961,325.296h -6.80315" fill="none" stroke="black"/>
<path d="M63.9961,313.967h -6.80315" fill="none" stroke="black"/>
<path d="M70.7992,302.637h -13.6063" fill="none" stroke="black"/>
<path d="M63.9961,291.308h -6.80315" fill="none" stroke="black"/>
<path d="M63.9961,279.978h -6.80315" fill="none" stroke="black"/>
<path d="M63.9961,268.649h -6.80315" fill="none" stroke="black"/>
<path d="M70.7992,257.319h -13.6063" fill="none" stroke="black"/>
<path d="M63.9961,245.99h -6.80315" fill="none" stroke="black"/>
<path d="M63.9961,234.661h -6.80315" fill="none" stroke="black"/>
<path d="M63.9961,223.331h -6.80315" fill="none" stroke="black"/>
<path d="M70.7992,212.002h -13.6063" fill="none" stroke="black"/>
<path d="M63.9961,200.672h -6.80315" fill="none" stroke="black"/>
<path d="M63.9961,189.343h -6.80315" fill="none" stroke="black"/>
<path d="M63.9961,178.014h -6.80315" fill="none" stroke="black"/>
<path d="M70.7992,166.684h -13.6063" fill="none" stroke="black"/>
<path d="M63.9961,155.355h -6.80315" fill="none" stroke="black"/>
<path d="M63.9961,144.025h -6.80315" fill="none" stroke="black"/>
<path d="M63.9961,132.696h -6.80315" fill="none" stroke="black"/>
<path d="M70.7992,121.366h -13.6063" fill="none" stroke="black"/>
<path d="M63.9961,110.037h -6.80315" fill="none" stroke="black"/>
<path d="M63.9961,98.7076h -6.80315" fill="none" stroke="black"/>
<path d="M63.9961,87.3781h -6.80315" fill="none" stroke="black"/>
<path d="M70.7992,76.0487h -13.6063" fill="none" stroke="black"/>
<path d="M70.7992,76.0487h -13.6063" fill="none" stroke="black"/>
<path d="M63.9961,64.7193h -6.80315" fill="none" stroke="black"/>
<path d="M63.9961,53.3899h -6.80315" fill="none" stroke="black"/>
<path d="M63.9961,42.0605h -6.80315" fill="none" stroke="black"/>
<text xml:space="preserve" x="46.7965" y="352.503" fill="black" font-size="12.9143" font-family="Helvetica">0</text>
<text xml:space="preserve" x="46.7965" y="307.831" fill="black" font-size="12.9143" font-family="Helvetica">2</text>
<text xml:space="preserve" x="46.7965" y="262.347" fill="black" font-size="12.9143" font-family="Helvetica">4</text>
<text xml:space="preserve" x="46.7965" y="216.863" fill="black" font-size="12.9143" font-family="Helvetica">6</text>
<text xml:space="preserve" x="46.7965" y="171.378" fill="black" font-size="12.9143" font-family="Helvetica">8</text>
<text xml:space="preserve" x="39.4865" y="125.894" fill="black" font-size="12.9143" font-family="Helvetica">10</text>
<text xml:space="preserve" x="39.4865" y="81.2219" fill="black" font-size="12.9143" font-family="Helvetica">12</text>
<g transform="rotate(-90,26.491,89.3441)">
<text xml:space="preserve" x="26.491" y="89.3441" fill="black" font-size="12.9143" font-family="Helvetica">n_blocks</text>
</g>
<text xml:space="preserve" x="204.367" y="17.8688" fill="black" font-size="18.7414" font-family="Helvetica">sector 8, vop 69.18</text>
<rect x="351.996" y="25.1301" width="204.094" height="77.3233" fill="white"/>
<path d="M351.996,102.453h 204.094" fill="none" stroke="black"/>
<path d="M556.091,102.453v -77.3233" fill="none" stroke="black"/>
<path d="M556.091,25.1301h -204.094" fill="none" stroke="black"/>
<path d="M351.996,25.1301v 77.3233" fill="none" stroke="black"/>
<text xml:space="preserve" x="377.37" y="38.9865" fill="black" font-size="16.8159" font-family="Helvetica"> / ndf </text>
<text xml:space="preserve" x="370.872" y="34.1132" fill="black" font-size="11.3773" font-family="Helvetica">2</text>
<text xml:space="preserve" x="361.938" y="38.9865" fill="black" font-size="16.8159" font-family="Times">&#0967;</text>
<text xml:space="preserve" x="478.085" y="40.611" fill="black" font-size="16.8159" font-family="Helvetica"> 2.957 / 7</text>
<text xml:space="preserve" x="361.938" y="60.1042" fill="black" font-size="16.8159" font-family="Helvetica">Constant </text>
<text xml:space="preserve" x="509.762" y="60.1042" fill="black" font-size="16.8159" font-family="Helvetica"> 2.15</text>
<text xml:space="preserve" x="500.827" y="60.1042" fill="black" font-size="16.8159" font-family="Times">&#0177;</text>
<text xml:space="preserve" x="450.47" y="60.1042" fill="black" font-size="16.8159" font-family="Helvetica"> 11.48 </text>
<text xml:space="preserve" x="361.938" y="79.5975" fill="black" font-size="16.8159" font-family="Helvetica">Mean     </text>
<text xml:space="preserve" x="518.696" y="79.5975" fill="black" font-size="16.8159" font-family="Helvetica"> 6.2</text>
<text xml:space="preserve" x="509.762" y="79.5975" fill="black" font-size="16.8159" font-family="Times">&#0177;</text>
<text xml:space="preserve" x="461.841" y="79.5975" fill="black" font-size="16.8159" font-family="Helvetica"> 275.1 </text>
<text xml:space="preserve" x="361.938" y="97.4663" fill="black" font-size="16.8159" font-family="Helvetica">Sigma    </text>
<text xml:space="preserve" x="509.762" y="99.0908" fill="black" font-size="16.8159" font-family="Helvetica"> 7.07</text>
<text xml:space="preserve" x="500.827" y="99.0908" fill="black" font-size="16.8159" font-family="Times">&#0177;</text>
<text xml:space="preserve" x="450.47" y="99.0908" fill="black" font-size="16.8159" font-family="Helvetica"> 43.68 </text>
<g stroke="black" stroke-width="1" fill="none">
<line x1="63.752" y1="347.955" x2="64.752" y2="347.955"/>
</g>
<g stroke="black" stroke-width="1" fill="none">
<line x1="78.8701" y1="347.955" x2="79.8701" y2="347.955"/>
</g>
<g stroke="black" stroke-width="1" fill="none">
<line x1="93.9882" y1="347.955" x2="94.9882" y2="347.955"/>
</g>
<g stroke="black" stroke-width="1" fill="none">
<line x1="109.106" y1="347.955" x2="110.106" y2="347.955"/>
</g>
<g stroke="black" stroke-width="1" fill="none">
<line x1="124.224" y1="347.955" x2="125.224" y2="347.955"/>
</g>
<g stroke="black" stroke-width="1" fill="none">
<line x1="139.343" y1="347.955" x2="140.343" y2="347.955"/>
</g>
<g stroke="black" stroke-width="1" fill="none">
<line x1="154.461" y1="347.955" x2="155.461" y2="347.955"/>
</g>
<g stroke="black" stroke-width="1" fill="none">
<line x1="169.579" y1="347.955" x2="170.579" y2="347.955"/>
</g>
<path d="M185.697,347.955v -22.6588" fill="none" stroke="#c10020"/>
<path d="M185.697,325.296v -22.6588" fill="none" stroke="#c10020"/>
<path d="M178.138,325.296h 7.55905" fill="none" stroke="#c10020"/>
<path d="M185.697,325.296h 7.55905" fill="none" stroke="#c10020"/>
<g stroke="black" stroke-width="1" fill="none">
<line x1="184.697" y1="325.296" x2="185.697" y2="325.296"/>
</g>
<path d="M200.815,319.225v -39.2463" fill="none" stroke="#c10020"/>
<path d="M200.815,279.978v -39.2463" fill="none" stroke="#c10020"/>
<path d="M193.256,279.978h 7.55905" fill="none" stroke="#c10020"/>
<path d="M200.815,279.978h 7.55905" fill="none" stroke="#c10020"/>
<g stroke="black" stroke-width="1" fill="none">
<line x1="199.815" y1="279.978" x2="200.815" y2="279.978"/>
</g>
<path d="M215.933,319.225v -39.2463" fill="none" stroke="#c10020"/>
<path d="M215.933,279.978v -39.2463" fill="none" stroke="#c10020"/>
<path d="M208.374,279.978h 7.55905" fill="none" stroke="#c10020"/>
<path d="M215.933,279.978h 7.55905" fill="none" stroke="#c10020"/>
<g stroke="black" stroke-width="1" fill="none">
<line x1="214.933" y1="279.978" x2="215.933" y2="279.978"/>
</g>
<path d="M231.051,285.327v -50.6667" fill="none" stroke="#c10020"/>
<path d="M231.051,234.661v -50.6667" fill="none" stroke="#c10020"/>
<path d="M223.492,234.661h 7.55905" fill="none" stroke="#c10020"/>
<path d="M231.051,234.661h 7.55905" fill="none" stroke="#c10020"/>
<g stroke="black" stroke-width="1" fill="none">
<line x1="230.051" y1="234.661" x2="231.051" y2="234.661"/>
</g>
<path d="M246.169,154.541v -78.4925" fill="none" stroke="#c10020"/>
<path d="M246.169,76.0487v -37.3871" fill="none" stroke="#c10020"/>
<path d="M238.61,76.0487h 7.55905" fill="none" stroke="#c10020"/>
<path d="M246.169,76.0487h 7.55905" fill="none" stroke="#c10020"/>
<g stroke="black" stroke-width="1" fill="none">
<line x1="245.169" y1="76.0487" x2="246.169" y2="76.0487"/>
</g>
<path d="M261.287,135.087v -81.6976" fill="none" stroke="#c10020"/>
<path d="M261.287,53.3899v -14.7282" fill="none" stroke="#c10020"/>
<path d="M253.728,53.3899h 7.55905" fill="none" stroke="#c10020"/>
<path d="M261.287,53.3899h 7.55905" fill="none" stroke="#c10020"/>
<g stroke="black" stroke-width="1" fill="none">
<line x1="260.287" y1="53.3899" x2="261.287" y2="53.3899"/>
</g>
<path d="M276.406,173.858v -75.1509" fill="none" stroke="#c10020"/>
<path d="M276.406,98.7076v -60.0459" fill="none" stroke="#c10020"/>
<path d="M268.846,98.7076h 7.55905" fill="none" stroke="#c10020"/>
<path d="M276.406,98.7076h 7.55905" fill="none" stroke="#c10020"/>
<g stroke="black" stroke-width="1" fill="none">
<line x1="275.406" y1="98.7076" x2="276.406" y2="98.7076"/>
</g>
<path d="M291.524,230.773v -64.0889" fill="none" stroke="#c10020"/>
<path d="M291.524,166.684v -64.0889" fill="none" stroke="#c10020"/>
<path d="M283.965,166.684h 7.55905" fill="none" stroke="#c10020"/>
<path d="M291.524,166.684h 7.55905" fill="none" stroke="#c10020"/>
<g stroke="black" stroke-width="1" fill="none">
<line x1="290.524" y1="166.684" x2="291.524" y2="166.684"/>
</g>
<path d="M306.642,302.637v -45.3177" fill="none" stroke="#c10020"/>
<path d="M306.642,257.319v -45.3177" fill="none" stroke="#c10020"/>
<path d="M299.083,257.319h 7.55905" fill="none" stroke="#c10020"/>
<path d="M306.642,257.319h 7.55905" fill="none" stroke="#c10020"/>
<g stroke="black" stroke-width="1" fill="none">
<line x1="305.642" y1="257.319" x2="306.642" y2="257.319"/>
</g>
<path d="M321.76,302.637v -45.3177" fill="none" stroke="#c10020"/>
<path d="M321.76,257.319v -45.3177" fill="none" stroke="#c10020"/>
<path d="M314.201,257.319h 7.55905" fill="none" stroke="#c10020"/>
<path d="M321.76,257.319h 7.55905" fill="none" stroke="#c10020"/>
<g stroke="black" stroke-width="1" fill="none">
<line x1="320.76" y1="257.319" x2="321.76" y2="257.319"/>
</g>
<g stroke="black" stroke-width="1" fill="none">
<line x1="335.878" y1="347.955" x2="336.878" y2="347.955"/>
</g>
<g stroke="black" stroke-width="1" fill="none">
<line x1="350.996" y1="347.955" x2="351.996" y2="347.955"/>
</g>
<g stroke="black" stroke-width="1" fill="none">
<line x1="366.114" y1="347.955" x2="367.114" y2="347.955"/>
</g>
<g stroke="black" stroke-width="1" fill="none">
<line x1="381.232" y1="347.955" x2="382.232" y2="347.955"/>
</g>
<g stroke="black" stroke-width="1" fill="none">
<line x1="396.35" y1="347.955" x2="397.35" y2="347.955"/>
</g>
<g stroke="black" stroke-width="1" fill="none">
<line x1="411.469" y1="347.955" x2="412.469" y2="347.955"/>
</g>
<g stroke="black" stroke-width="1" fill="none">
<line x1="426.587" y1="347.955" x2="427.587" y2="347.955"/>
</g>
<g stroke="black" stroke-width="1" fill="none">
<line x1="441.705" y1="347.955" x2="442.705" y2="347.955"/>
</g>
<g stroke="black" stroke-width="1" fill="none">
<line x1="456.823" y1="347.955" x2="457.823" y2="347.955"/>
</g>
<g stroke="black" stroke-width="1" fill="none">
<line x1="471.941" y1="347.955" x2="472.941" y2="347.955"/>
</g>
<g stroke="black" stroke-width="1" fill="none">
<line x1="487.059" y1="347.955" x2="488.059" y2="347.955"/>
</g>
<g stroke="black" stroke-width="1" fill="none">
<line x1="502.177" y1="347.955" x2="503.177" y2="347.955"/>
</g>
<path d="M59.4606,347.955h 63.4961l 4.53543, -0.0438223l 4.53543, -0.0331369l 4.53543, -0.0556681l 4.53543, -0.091664l 4.53543, -0.147928l 4.53543, -0.233948l 4.53543, -0.362541l 4.53543, -0.550442l 4.53543, -0.818693l 4.53543, -1.19266l 4.53543,
 -1.70147l 4.53543, -2.37657l 4.53543, -3.24932l 4.53543, -4.34741l 4.53543, -5.69015l 4.53543, -7.28291l 4.53543, -9.11115l 4.53543, -11.1349l 4.53543, -13.2847l 4.53543, -15.4596l 4.53543, -17.5292l 4.53543, -19.3393l 4.53543, -20.7225l 4.53543,
 -21.512l 4.53543, -21.5594l 4.53543, -20.752l 4.53543, -19.0294l 4.53543, -16.3964l 4.53543, -12.9291l 4.53543, -8.77367l 4.53543, -4.13682l 4.53543, 0.730904l 4.53543, 5.55766l 4.53543, 10.0754l 4.53543, 14.0445" fill="none" stroke="#c10020"
 stroke-width="2"/>
<path d="M281.697,118.515l 4.53543, 17.2749l 4.53543, 19.6407l 4.53543, 21.0874l 4.53543, 21.6306l 4.53543, 21.3478l 4.53543, 20.3642l 4.53543, 18.8358l 4.53543, 16.931l 4.53543, 14.8148l 4.53543, 12.6349l 4.53543, 10.5136l 4.53543, 8.54236l 4.53543,
 6.78151l 4.53543, 5.26291l 4.53543, 3.99453l 4.53543, 2.96624l 4.53543, 2.15566l 4.53543, 1.53356l 4.53543, 1.06825l 4.53543, 0.728746l 4.53543, 0.486955l 4.53543, 0.318769l 4.53543, 0.204454l 4.53543, 0.128499l 4.53543, 0.0791467l 4.53543,
 0.0477791l 4.53543, 0.0282717l 4.53543, 0.036904h 95.2441" fill="none" stroke="#c10020" stroke-width="2"/>
<path d="M503.933,347.955h 4.53543" fill="none" stroke="#c10020" stroke-width="2"/>
<rect x="351.996" y="25.1301" width="204.094" height="77.3233" fill="white"/>
<path d="M351.996,102.453h 204.094" fill="none" stroke="black"/>
<path d="M556.091,102.453v -77.3233" fill="none" stroke="black"/>
<path d="M556.091,25.1301h -204.094" fill="none" stroke="black"/>
<path d="M351.996,25.1301v 77.3233" fill="none" stroke="black"/>
<text xml:space="preserve" x="377.37" y="38.9865" fill="black" font-size="16.8159" font-family="Helvetica"> / ndf </text>
<text xml:space="preserve" x="370.872" y="34.1132" fill="black" font-size="11.3773" font-family="Helvetica">2</text>
<text xml:space="preserve" x="361.938" y="38.9865" fill="black" font-size="16.8159" font-family="Times">&#0967;</text>
<text xml:space="preserve" x="478.085" y="40.611" fill="black" font-size="16.8159" font-family="Helvetica"> 2.957 / 7</text>
<text xml:space="preserve" x="361.938" y="60.1042" fill="black" font-size="16.8159" font-family="Helvetica">Constant </text>
<text xml:space="preserve" x="509.762" y="60.1042" fill="black" font-size="16.8159" font-family="Helvetica"> 2.15</text>
<text xml:space="preserve" x="500.827" y="60.1042" fill="black" font-size="16.8159" font-family="Times">&#0177;</text>
<text xml:space="preserve" x="450.47" y="60.1042" fill="black" font-size="16.8159" font-family="Helvetica"> 11.48 </text>
<text xml:space="preserve" x="361.938" y="79.5975" fill="black" font-size="16.8159" font-family="Helvetica">Mean     </text>
<text xml:space="preserve" x="518.696" y="79.5975" fill="black" font-size="16.8159" font-family="Helvetica"> 6.2</text>
<text xml:space="preserve" x="509.762" y="79.5975" fill="black" font-size="16.8159" font-family="Times">&#0177;</text>
<text xml:space="preserve" x="461.841" y="79.5975" fill="black" font-size="16.8159" font-family="Helvetica"> 275.1 </text>
<text xml:space="preserve" x="361.938" y="97.4663" fill="black" font-size="16.8159" font-family="Helvetica">Sigma    </text>
<text xml:space="preserve" x="509.762" y="99.0908" fill="black" font-size="16.8159" font-family="Helvetica"> 7.07</text>
<text xml:space="preserve" x="500.827" y="99.0908" fill="black" font-size="16.8159" font-family="Times">&#0177;</text>
<text xml:space="preserve" x="450.47" y="99.0908" fill="black" font-size="16.8159" font-family="Helvetica"> 43.68 </text>
<text xml:space="preserve" x="204.367" y="17.8688" fill="black" font-size="18.7414" font-family="Helvetica">sector 8, vop 69.18</text></svg>
