<?xml version="1.0" standalone="no"?>
<svg width="567.429" height="387.116" viewBox="0 0 567.429 387.116" xmlns="http://www.w3.org/2000/svg" shape-rendering="crispEdges">
<title>
./old_vop/sector_by_vop/sector-8_all.svg
</title>
<desc>
Creator: ROOT Version 6.24/00
CreationDate: Tue Jun 15 22:08:29 2021</desc>
<defs>
</defs>
<rect x="0.5" y="0" width="566.929" height="386.616" fill="white"/>
<rect x="57.1929" y="38.6616" width="453.543" height="309.293" fill="white"/>
<rect x="57.1929" y="38.6616" width="453.543" height="309.293" fill="none" stroke="black"/>
<path d="M57.1929,347.955h 453.543" fill="none" stroke="#000099"/>
<path d="M57.1929,347.955h 453.543" fill="none" stroke="black"/>
<path d="M57.1929,338.676v 9.27879" fill="none" stroke="black"/>
<path d="M72.311,343.315v 4.6394" fill="none" stroke="black"/>
<path d="M87.4291,343.315v 4.6394" fill="none" stroke="black"/>
<path d="M102.547,343.315v 4.6394" fill="none" stroke="black"/>
<path d="M117.665,343.315v 4.6394" fill="none" stroke="black"/>
<path d="M132.783,338.676v 9.27879" fill="none" stroke="black"/>
<path d="M147.902,343.315v 4.6394" fill="none" stroke="black"/>
<path d="M163.02,343.315v 4.6394" fill="none" stroke="black"/>
<path d="M178.138,343.315v 4.6394" fill="none" stroke="black"/>
<path d="M193.256,343.315v 4.6394" fill="none" stroke="black"/>
<path d="M208.374,338.676v 9.27879" fill="none" stroke="black"/>
<path d="M223.492,343.315v 4.6394" fill="none" stroke="black"/>
<path d="M238.61,343.315v 4.6394" fill="none" stroke="black"/>
<path d="M253.728,343.315v 4.6394" fill="none" stroke="black"/>
<path d="M268.846,343.315v 4.6394" fill="none" stroke="black"/>
<path d="M283.965,338.676v 9.27879" fill="none" stroke="black"/>
<path d="M299.083,343.315v 4.6394" fill="none" stroke="black"/>
<path d="M314.201,343.315v 4.6394" fill="none" stroke="black"/>
<path d="M329.319,343.315v 4.6394" fill="none" stroke="black"/>
<path d="M344.437,343.315v 4.6394" fill="none" stroke="black"/>
<path d="M359.555,338.676v 9.27879" fill="none" stroke="black"/>
<path d="M374.673,343.315v 4.6394" fill="none" stroke="black"/>
<path d="M389.791,343.315v 4.6394" fill="none" stroke="black"/>
<path d="M404.909,343.315v 4.6394" fill="none" stroke="black"/>
<path d="M420.028,343.315v 4.6394" fill="none" stroke="black"/>
<path d="M435.146,338.676v 9.27879" fill="none" stroke="black"/>
<path d="M450.264,343.315v 4.6394" fill="none" stroke="black"/>
<path d="M465.382,343.315v 4.6394" fill="none" stroke="black"/>
<path d="M480.5,343.315v 4.6394" fill="none" stroke="black"/>
<path d="M495.618,343.315v 4.6394" fill="none" stroke="black"/>
<path d="M510.736,338.676v 9.27879" fill="none" stroke="black"/>
<text xml:space="preserve" x="52.482" y="360.625" fill="black" font-size="12.9143" font-family="Helvetica">0</text>
<text xml:space="preserve" x="121.521" y="360.625" fill="black" font-size="12.9143" font-family="Helvetica">100</text>
<text xml:space="preserve" x="197.057" y="360.625" fill="black" font-size="12.9143" font-family="Helvetica">200</text>
<text xml:space="preserve" x="273.406" y="360.625" fill="black" font-size="12.9143" font-family="Helvetica">300</text>
<text xml:space="preserve" x="348.942" y="360.625" fill="black" font-size="12.9143" font-family="Helvetica">400</text>
<text xml:space="preserve" x="424.479" y="360.625" fill="black" font-size="12.9143" font-family="Helvetica">500</text>
<text xml:space="preserve" x="500.015" y="360.625" fill="black" font-size="12.9143" font-family="Helvetica">600</text>
<text xml:space="preserve" x="485.395" y="371.996" fill="black" font-size="12.9143" font-family="Helvetica">mpv</text>
<path d="M57.1929,347.955v -309.293" fill="none" stroke="black"/>
<path d="M70.7992,347.955h -13.6063" fill="none" stroke="black"/>
<path d="M63.9961,336.625h -6.80315" fill="none" stroke="black"/>
<path d="M63.9961,325.296h -6.80315" fill="none" stroke="black"/>
<path d="M63.9961,313.967h -6.80315" fill="none" stroke="black"/>
<path d="M70.7992,302.637h -13.6063" fill="none" stroke="black"/>
<path d="M63.9961,291.308h -6.80315" fill="none" stroke="black"/>
<path d="M63.9961,279.978h -6.80315" fill="none" stroke="black"/>
<path d="M63.9961,268.649h -6.80315" fill="none" stroke="black"/>
<path d="M70.7992,257.319h -13.6063" fill="none" stroke="black"/>
<path d="M63.9961,245.99h -6.80315" fill="none" stroke="black"/>
<path d="M63.9961,234.661h -6.80315" fill="none" stroke="black"/>
<path d="M63.9961,223.331h -6.80315" fill="none" stroke="black"/>
<path d="M70.7992,212.002h -13.6063" fill="none" stroke="black"/>
<path d="M63.9961,200.672h -6.80315" fill="none" stroke="black"/>
<path d="M63.9961,189.343h -6.80315" fill="none" stroke="black"/>
<path d="M63.9961,178.014h -6.80315" fill="none" stroke="black"/>
<path d="M70.7992,166.684h -13.6063" fill="none" stroke="black"/>
<path d="M63.9961,155.355h -6.80315" fill="none" stroke="black"/>
<path d="M63.9961,144.025h -6.80315" fill="none" stroke="black"/>
<path d="M63.9961,132.696h -6.80315" fill="none" stroke="black"/>
<path d="M70.7992,121.366h -13.6063" fill="none" stroke="black"/>
<path d="M63.9961,110.037h -6.80315" fill="none" stroke="black"/>
<path d="M63.9961,98.7076h -6.80315" fill="none" stroke="black"/>
<path d="M63.9961,87.3781h -6.80315" fill="none" stroke="black"/>
<path d="M70.7992,76.0487h -13.6063" fill="none" stroke="black"/>
<path d="M70.7992,76.0487h -13.6063" fill="none" stroke="black"/>
<path d="M63.9961,64.7193h -6.80315" fill="none" stroke="black"/>
<path d="M63.9961,53.3899h -6.80315" fill="none" stroke="black"/>
<path d="M63.9961,42.0605h -6.80315" fill="none" stroke="black"/>
<text xml:space="preserve" x="46.7965" y="352.503" fill="black" font-size="12.9143" font-family="Helvetica">0</text>
<text xml:space="preserve" x="46.7965" y="307.831" fill="black" font-size="12.9143" font-family="Helvetica">2</text>
<text xml:space="preserve" x="46.7965" y="262.347" fill="black" font-size="12.9143" font-family="Helvetica">4</text>
<text xml:space="preserve" x="46.7965" y="216.863" fill="black" font-size="12.9143" font-family="Helvetica">6</text>
<text xml:space="preserve" x="46.7965" y="171.378" fill="black" font-size="12.9143" font-family="Helvetica">8</text>
<text xml:space="preserve" x="39.4865" y="125.894" fill="black" font-size="12.9143" font-family="Helvetica">10</text>
<text xml:space="preserve" x="39.4865" y="81.2219" fill="black" font-size="12.9143" font-family="Helvetica">12</text>
<g transform="rotate(-90,26.491,89.3441)">
<text xml:space="preserve" x="26.491" y="89.3441" fill="black" font-size="12.9143" font-family="Helvetica">n_blocks</text>
</g>
<text xml:space="preserve" x="253.912" y="18.681" fill="black" font-size="17.0819" font-family="Helvetica">sector 8</text>
<rect x="57.6465" y="347.955" width="7.10551" height="0" fill="#cea262" fill-opacity="0.50" stroke-opacity="0.50"/>
<rect x="72.7646" y="347.955" width="7.10551" height="0" fill="#cea262" fill-opacity="0.50" stroke-opacity="0.50"/>
<rect x="87.8827" y="347.955" width="7.10551" height="0" fill="#cea262" fill-opacity="0.50" stroke-opacity="0.50"/>
<rect x="103.001" y="347.955" width="7.10551" height="0" fill="#cea262" fill-opacity="0.50" stroke-opacity="0.50"/>
<rect x="118.119" y="347.955" width="7.10551" height="0" fill="#cea262" fill-opacity="0.50" stroke-opacity="0.50"/>
<rect x="133.237" y="347.955" width="7.10551" height="0" fill="#cea262" fill-opacity="0.50" stroke-opacity="0.50"/>
<rect x="148.355" y="347.955" width="7.10551" height="0" fill="#cea262" fill-opacity="0.50" stroke-opacity="0.50"/>
<rect x="163.473" y="347.955" width="7.10551" height="0" fill="#cea262" fill-opacity="0.50" stroke-opacity="0.50"/>
<rect x="178.591" y="347.955" width="7.10551" height="0" fill="#cea262" fill-opacity="0.50" stroke-opacity="0.50"/>
<rect x="193.709" y="347.955" width="7.10551" height="0" fill="#cea262" fill-opacity="0.50" stroke-opacity="0.50"/>
<rect x="208.828" y="257.319" width="7.10551" height="90.6354" fill="#cea262" fill-opacity="0.50" stroke-opacity="0.50"/>
<rect x="223.946" y="257.319" width="7.10551" height="90.6354" fill="#cea262" fill-opacity="0.50" stroke-opacity="0.50"/>
<rect x="239.064" y="234.661" width="7.10551" height="113.294" fill="#cea262" fill-opacity="0.50" stroke-opacity="0.50"/>
<rect x="254.182" y="234.661" width="7.10551" height="113.294" fill="#cea262" fill-opacity="0.50" stroke-opacity="0.50"/>
<rect x="269.3" y="279.978" width="7.10551" height="67.9765" fill="#cea262" fill-opacity="0.50" stroke-opacity="0.50"/>
<rect x="284.418" y="257.319" width="7.10551" height="90.6354" fill="#cea262" fill-opacity="0.50" stroke-opacity="0.50"/>
<rect x="299.536" y="347.955" width="7.10551" height="0" fill="#cea262" fill-opacity="0.50" stroke-opacity="0.50"/>
<rect x="314.654" y="347.955" width="7.10551" height="0" fill="#cea262" fill-opacity="0.50" stroke-opacity="0.50"/>
<rect x="329.772" y="347.955" width="7.10551" height="0" fill="#cea262" fill-opacity="0.50" stroke-opacity="0.50"/>
<rect x="344.891" y="347.955" width="7.10551" height="0" fill="#cea262" fill-opacity="0.50" stroke-opacity="0.50"/>
<rect x="360.009" y="347.955" width="7.10551" height="0" fill="#cea262" fill-opacity="0.50" stroke-opacity="0.50"/>
<rect x="375.127" y="347.955" width="7.10551" height="0" fill="#cea262" fill-opacity="0.50" stroke-opacity="0.50"/>
<rect x="390.245" y="347.955" width="7.10551" height="0" fill="#cea262" fill-opacity="0.50" stroke-opacity="0.50"/>
<rect x="405.363" y="347.955" width="7.10551" height="0" fill="#cea262" fill-opacity="0.50" stroke-opacity="0.50"/>
<rect x="420.481" y="347.955" width="7.10551" height="0" fill="#cea262" fill-opacity="0.50" stroke-opacity="0.50"/>
<rect x="435.599" y="347.955" width="7.10551" height="0" fill="#cea262" fill-opacity="0.50" stroke-opacity="0.50"/>
<rect x="450.717" y="347.955" width="7.10551" height="0" fill="#cea262" fill-opacity="0.50" stroke-opacity="0.50"/>
<rect x="465.835" y="347.955" width="7.10551" height="0" fill="#cea262" fill-opacity="0.50" stroke-opacity="0.50"/>
<rect x="480.954" y="347.955" width="7.10551" height="0" fill="#cea262" fill-opacity="0.50" stroke-opacity="0.50"/>
<rect x="496.072" y="347.955" width="7.10551" height="0" fill="#cea262" fill-opacity="0.50" stroke-opacity="0.50"/>
<path d="M59.4606,346.81l 4.53543, -0.275799l 4.53543, -0.332852l 4.53543, -0.399318l 4.53543, -0.476192l 4.53543, -0.56445l 4.53543, -0.665015l 4.53543, -0.77872l 4.53543, -0.906264l 4.53543, -1.04817l 4.53543, -1.20471l 4.53543, -1.3759l 4.53543,
 -1.56139l 4.53543, -1.76046l 4.53543, -1.97194l 4.53543, -2.1942l 4.53543, -2.42511l 4.53543, -2.66198l 4.53543, -2.90165l 4.53543, -3.14041l 4.53543, -3.37411l 4.53543, -3.59817l 4.53543, -3.80768l 4.53543, -3.99747l 4.53543, -4.16227l 4.53543,
 -4.29681l 4.53543, -4.39598l 4.53543, -4.45499l 4.53543, -4.46952l 4.53543, -4.43588l 4.53543, -4.35118l 4.53543, -4.21345l 4.53543, -4.02173l 4.53543, -3.77622l 4.53543, -3.47827l 4.53543, -3.13045l 4.53543, -2.7365l 4.53543, -2.3013l 4.53543,
 -1.83076l 4.53543, -1.33169l 4.53543, -0.811637l 4.53543, -0.278707l 4.53543, 0.258662l 4.53543, 0.791911l 4.53543, 1.31259l 4.53543, 1.81259l 4.53543, 2.28432l 4.53543, 2.72095l 4.53543, 3.11653l 4.53543, 3.46615" fill="none" stroke="#cea262"
 stroke-width="2"/>
<path d="M281.697,262.674l 4.53543, 3.76602l 4.53543, 4.01353l 4.53543, 4.20726l 4.53543, 4.347l 4.53543, 4.43365l 4.53543, 4.46915l 4.53543, 4.45635l 4.53543, 4.39893l 4.53543, 4.30118l 4.53543, 4.16787l 4.53543, 4.00411l 4.53543, 3.81515l 4.53543,
 3.60629l 4.53543, 3.38269l 4.53543, 3.14926l 4.53543, 2.91061l 4.53543, 2.6709l 4.53543, 2.43386l 4.53543, 2.20269l 4.53543, 1.98006l 4.53543, 1.76814l 4.53543, 1.56858l 4.53543, 1.38257l 4.53543, 1.21084l 4.53543, 1.05375l 4.53543, 0.911304l
 4.53543, 0.783231l 4.53543, 0.669021l 4.53543, 0.56798l 4.53543, 0.479278l 4.53543, 0.401996l 4.53543, 0.335159l 4.53543, 0.277773l 4.53543, 0.22885l 4.53543, 0.187434l 4.53543, 0.152614l 4.53543, 0.123537l 4.53543, 0.0994191l 4.53543, 0.0795464l
 4.53543, 0.0632788l 4.53543, 0.0500486l 4.53543, 0.0393577l 4.53543, 0.0307735l 4.53543, 0.0239245l 4.53543, 0.0184941l 4.53543, 0.0142152l 4.53543, 0.0108645l 4.53543, 0.0322778h 4.53543" fill="none" stroke="#cea262" stroke-width="2"/>
<path d="M503.933,347.955h 4.53543" fill="none" stroke="#cea262" stroke-width="2"/>
<rect x="64.752" y="347.955" width="7.10551" height="0" fill="#007d34" fill-opacity="0.50" stroke-opacity="0.50"/>
<rect x="79.8701" y="347.955" width="7.10551" height="0" fill="#007d34" fill-opacity="0.50" stroke-opacity="0.50"/>
<rect x="94.9882" y="347.955" width="7.10551" height="0" fill="#007d34" fill-opacity="0.50" stroke-opacity="0.50"/>
<rect x="110.106" y="347.955" width="7.10551" height="0" fill="#007d34" fill-opacity="0.50" stroke-opacity="0.50"/>
<rect x="125.224" y="347.955" width="7.10551" height="0" fill="#007d34" fill-opacity="0.50" stroke-opacity="0.50"/>
<rect x="140.343" y="347.955" width="7.10551" height="0" fill="#007d34" fill-opacity="0.50" stroke-opacity="0.50"/>
<rect x="155.461" y="347.955" width="7.10551" height="0" fill="#007d34" fill-opacity="0.50" stroke-opacity="0.50"/>
<rect x="170.579" y="347.955" width="7.10551" height="0" fill="#007d34" fill-opacity="0.50" stroke-opacity="0.50"/>
<rect x="185.697" y="325.296" width="7.10551" height="22.6588" fill="#007d34" fill-opacity="0.50" stroke-opacity="0.50"/>
<rect x="200.815" y="279.978" width="7.10551" height="67.9765" fill="#007d34" fill-opacity="0.50" stroke-opacity="0.50"/>
<rect x="215.933" y="279.978" width="7.10551" height="67.9765" fill="#007d34" fill-opacity="0.50" stroke-opacity="0.50"/>
<rect x="231.051" y="234.661" width="7.10551" height="113.294" fill="#007d34" fill-opacity="0.50" stroke-opacity="0.50"/>
<rect x="246.169" y="53.3899" width="7.10551" height="294.565" fill="#007d34" fill-opacity="0.50" stroke-opacity="0.50"/>
<rect x="261.287" y="53.3899" width="7.10551" height="294.565" fill="#007d34" fill-opacity="0.50" stroke-opacity="0.50"/>
<rect x="276.406" y="98.7076" width="7.10551" height="249.247" fill="#007d34" fill-opacity="0.50" stroke-opacity="0.50"/>
<rect x="291.524" y="166.684" width="7.10551" height="181.271" fill="#007d34" fill-opacity="0.50" stroke-opacity="0.50"/>
<rect x="306.642" y="257.319" width="7.10551" height="90.6354" fill="#007d34" fill-opacity="0.50" stroke-opacity="0.50"/>
<rect x="321.76" y="257.319" width="7.10551" height="90.6354" fill="#007d34" fill-opacity="0.50" stroke-opacity="0.50"/>
<rect x="336.878" y="347.955" width="7.10551" height="0" fill="#007d34" fill-opacity="0.50" stroke-opacity="0.50"/>
<rect x="351.996" y="347.955" width="7.10551" height="0" fill="#007d34" fill-opacity="0.50" stroke-opacity="0.50"/>
<rect x="367.114" y="347.955" width="7.10551" height="0" fill="#007d34" fill-opacity="0.50" stroke-opacity="0.50"/>
<rect x="382.232" y="347.955" width="7.10551" height="0" fill="#007d34" fill-opacity="0.50" stroke-opacity="0.50"/>
<rect x="397.35" y="347.955" width="7.10551" height="0" fill="#007d34" fill-opacity="0.50" stroke-opacity="0.50"/>
<rect x="412.469" y="347.955" width="7.10551" height="0" fill="#007d34" fill-opacity="0.50" stroke-opacity="0.50"/>
<rect x="427.587" y="347.955" width="7.10551" height="0" fill="#007d34" fill-opacity="0.50" stroke-opacity="0.50"/>
<rect x="442.705" y="347.955" width="7.10551" height="0" fill="#007d34" fill-opacity="0.50" stroke-opacity="0.50"/>
<rect x="457.823" y="347.955" width="7.10551" height="0" fill="#007d34" fill-opacity="0.50" stroke-opacity="0.50"/>
<rect x="472.941" y="347.955" width="7.10551" height="0" fill="#007d34" fill-opacity="0.50" stroke-opacity="0.50"/>
<rect x="488.059" y="347.955" width="7.10551" height="0" fill="#007d34" fill-opacity="0.50" stroke-opacity="0.50"/>
<rect x="503.177" y="347.955" width="7.10551" height="0" fill="#007d34" fill-opacity="0.50" stroke-opacity="0.50"/>
<path d="M59.4606,347.955h 63.4961l 4.53543, -0.0388328l 4.53543, -0.0300543l 4.53543, -0.0509861l 4.53543, -0.084748l 4.53543, -0.138007l 4.53543, -0.220154l 4.53543, -0.343999l 4.53543, -0.526425l 4.53543, -0.788872l 4.53543, -1.15744l 4.53543,
 -1.66238l 4.53543, -2.33677l 4.53543, -3.21403l 4.53543, -4.32423l 4.53543, -5.68921l 4.53543, -7.31662l 4.53543, -9.19353l 4.53543, -11.2803l 4.53543, -13.5062l 4.53543, -15.7666l 4.53543, -17.9253l 4.53543, -19.8203l 4.53543, -21.2745l 4.53543,
 -22.1112l 4.53543, -22.1724l 4.53543, -21.3382l 4.53543, -19.5445l 4.53543, -16.7966l 4.53543, -13.1763l 4.53543, -8.84016l 4.53543, -4.00895l 4.53543, 1.05053l 4.53543, 6.04997l 4.53543, 10.7067l 4.53543, 14.7704" fill="none" stroke="#007d34"
 stroke-width="2"/>
<path d="M281.697,115.855l 4.53543, 18.0448l 4.53543, 20.4037l 4.53543, 21.7972l 4.53543, 22.2499l 4.53543, 21.8509l 4.53543, 20.7383l 4.53543, 19.08l 4.53543, 17.0551l 4.53543, 14.8359l 4.53543, 12.575l 4.53543, 10.396l 4.53543, 8.38919l 4.53543,
 6.61228l 4.53543, 5.09312l 4.53543, 3.83535l 4.53543, 2.82469l 4.53543, 2.03525l 4.53543, 1.43501l 4.53543, 0.99034l 4.53543, 0.669098l 4.53543, 0.442635l 4.53543, 0.286759l 4.53543, 0.181954l 4.53543, 0.113092l 4.53543, 0.0688611l 4.53543,
 0.0410796l 4.53543, 0.0544796h 99.7795" fill="none" stroke="#007d34" stroke-width="2"/>
<path d="M503.933,347.955h 4.53543" fill="none" stroke="#007d34" stroke-width="2"/>
<path d="M57.1929,347.955h 453.543" fill="none" stroke="black"/>
<path d="M57.1929,338.676v 9.27879" fill="none" stroke="black"/>
<path d="M72.311,343.315v 4.6394" fill="none" stroke="black"/>
<path d="M87.4291,343.315v 4.6394" fill="none" stroke="black"/>
<path d="M102.547,343.315v 4.6394" fill="none" stroke="black"/>
<path d="M117.665,343.315v 4.6394" fill="none" stroke="black"/>
<path d="M132.783,338.676v 9.27879" fill="none" stroke="black"/>
<path d="M147.902,343.315v 4.6394" fill="none" stroke="black"/>
<path d="M163.02,343.315v 4.6394" fill="none" stroke="black"/>
<path d="M178.138,343.315v 4.6394" fill="none" stroke="black"/>
<path d="M193.256,343.315v 4.6394" fill="none" stroke="black"/>
<path d="M208.374,338.676v 9.27879" fill="none" stroke="black"/>
<path d="M223.492,343.315v 4.6394" fill="none" stroke="black"/>
<path d="M238.61,343.315v 4.6394" fill="none" stroke="black"/>
<path d="M253.728,343.315v 4.6394" fill="none" stroke="black"/>
<path d="M268.846,343.315v 4.6394" fill="none" stroke="black"/>
<path d="M283.965,338.676v 9.27879" fill="none" stroke="black"/>
<path d="M299.083,343.315v 4.6394" fill="none" stroke="black"/>
<path d="M314.201,343.315v 4.6394" fill="none" stroke="black"/>
<path d="M329.319,343.315v 4.6394" fill="none" stroke="black"/>
<path d="M344.437,343.315v 4.6394" fill="none" stroke="black"/>
<path d="M359.555,338.676v 9.27879" fill="none" stroke="black"/>
<path d="M374.673,343.315v 4.6394" fill="none" stroke="black"/>
<path d="M389.791,343.315v 4.6394" fill="none" stroke="black"/>
<path d="M404.909,343.315v 4.6394" fill="none" stroke="black"/>
<path d="M420.028,343.315v 4.6394" fill="none" stroke="black"/>
<path d="M435.146,338.676v 9.27879" fill="none" stroke="black"/>
<path d="M450.264,343.315v 4.6394" fill="none" stroke="black"/>
<path d="M465.382,343.315v 4.6394" fill="none" stroke="black"/>
<path d="M480.5,343.315v 4.6394" fill="none" stroke="black"/>
<path d="M495.618,343.315v 4.6394" fill="none" stroke="black"/>
<path d="M510.736,338.676v 9.27879" fill="none" stroke="black"/>
<path d="M57.1929,347.955v -309.293" fill="none" stroke="black"/>
<path d="M70.7992,347.955h -13.6063" fill="none" stroke="black"/>
<path d="M63.9961,336.625h -6.80315" fill="none" stroke="black"/>
<path d="M63.9961,325.296h -6.80315" fill="none" stroke="black"/>
<path d="M63.9961,313.967h -6.80315" fill="none" stroke="black"/>
<path d="M70.7992,302.637h -13.6063" fill="none" stroke="black"/>
<path d="M63.9961,291.308h -6.80315" fill="none" stroke="black"/>
<path d="M63.9961,279.978h -6.80315" fill="none" stroke="black"/>
<path d="M63.9961,268.649h -6.80315" fill="none" stroke="black"/>
<path d="M70.7992,257.319h -13.6063" fill="none" stroke="black"/>
<path d="M63.9961,245.99h -6.80315" fill="none" stroke="black"/>
<path d="M63.9961,234.661h -6.80315" fill="none" stroke="black"/>
<path d="M63.9961,223.331h -6.80315" fill="none" stroke="black"/>
<path d="M70.7992,212.002h -13.6063" fill="none" stroke="black"/>
<path d="M63.9961,200.672h -6.80315" fill="none" stroke="black"/>
<path d="M63.9961,189.343h -6.80315" fill="none" stroke="black"/>
<path d="M63.9961,178.014h -6.80315" fill="none" stroke="black"/>
<path d="M70.7992,166.684h -13.6063" fill="none" stroke="black"/>
<path d="M63.9961,155.355h -6.80315" fill="none" stroke="black"/>
<path d="M63.9961,144.025h -6.80315" fill="none" stroke="black"/>
<path d="M63.9961,132.696h -6.80315" fill="none" stroke="black"/>
<path d="M70.7992,121.366h -13.6063" fill="none" stroke="black"/>
<path d="M63.9961,110.037h -6.80315" fill="none" stroke="black"/>
<path d="M63.9961,98.7076h -6.80315" fill="none" stroke="black"/>
<path d="M63.9961,87.3781h -6.80315" fill="none" stroke="black"/>
<path d="M70.7992,76.0487h -13.6063" fill="none" stroke="black"/>
<path d="M70.7992,76.0487h -13.6063" fill="none" stroke="black"/>
<path d="M63.9961,64.7193h -6.80315" fill="none" stroke="black"/>
<path d="M63.9961,53.3899h -6.80315" fill="none" stroke="black"/>
<path d="M63.9961,42.0605h -6.80315" fill="none" stroke="black"/>
<rect x="58.0145" y="173.813" width="170.079" height="81.1895" fill="white"/>
<path d="M58.0145,255.002h 170.079" fill="none" stroke="black"/>
<path d="M228.093,255.002v -81.1895" fill="none" stroke="black"/>
<path d="M228.093,173.813h -170.079" fill="none" stroke="black"/>
<path d="M58.0145,173.813v 81.1895" fill="none" stroke="black"/>
<text xml:space="preserve" x="100.403" y="203.055" fill="black" font-size="26.0796" font-family="Helvetica">vop 69.26</text>
<path d="M64.3925,208.318h 29.7638v -28.4163h -29.7638z" fill="#cea262" fill-opacity="0.50" stroke-opacity="0.50"/>
<path d="M64.3925,194.11h 29.7638" fill="none" stroke="#cea262" fill-opacity="0.00" stroke-opacity="0.00"/>
<g stroke="black" stroke-width="1" fill="none">
<line x1="78.2744" y1="194.11" x2="79.2744" y2="194.11"/>
</g>
<text xml:space="preserve" x="100.403" y="243.666" fill="black" font-size="26.0796" font-family="Helvetica">vop 69.36</text>
<path d="M64.3925,248.913h 29.7638v -28.4163h -29.7638z" fill="#007d34" fill-opacity="0.50" stroke-opacity="0.50"/>
<path d="M64.3925,234.705h 29.7638" fill="none" stroke="#007d34" fill-opacity="0.00" stroke-opacity="0.00"/>
<g stroke="black" stroke-width="1" fill="none">
<line x1="78.2744" y1="234.705" x2="79.2744" y2="234.705"/>
</g>
<text xml:space="preserve" x="253.912" y="18.681" fill="black" font-size="17.0819" font-family="Helvetica">sector 8</text></svg>
