<?xml version="1.0" standalone="no"?>
<svg width="567.429" height="384.969" viewBox="0 0 567.429 384.969" xmlns="http://www.w3.org/2000/svg" shape-rendering="crispEdges">
<title>
./old_vop/vop_by_sector/vop-68.98_all.svg
</title>
<desc>
Creator: ROOT Version 6.22/02
CreationDate: Mon Jun 21 13:44:59 2021</desc>
<defs>
</defs>
<rect x="0.5" y="0" width="566.929" height="384.469" fill="white"/>
<rect x="57.1929" y="38.4469" width="453.543" height="307.575" fill="white"/>
<rect x="57.1929" y="38.4469" width="453.543" height="307.575" fill="none" stroke="black"/>
<path d="M57.1929,346.022h 453.543" fill="none" stroke="#000099"/>
<path d="M57.1929,346.022h 453.543" fill="none" stroke="black"/>
<path d="M57.1929,336.795v 9.22726" fill="none" stroke="black"/>
<path d="M72.311,341.409v 4.61363" fill="none" stroke="black"/>
<path d="M87.4291,341.409v 4.61363" fill="none" stroke="black"/>
<path d="M102.547,341.409v 4.61363" fill="none" stroke="black"/>
<path d="M117.665,341.409v 4.61363" fill="none" stroke="black"/>
<path d="M132.783,336.795v 9.22726" fill="none" stroke="black"/>
<path d="M147.902,341.409v 4.61363" fill="none" stroke="black"/>
<path d="M163.02,341.409v 4.61363" fill="none" stroke="black"/>
<path d="M178.138,341.409v 4.61363" fill="none" stroke="black"/>
<path d="M193.256,341.409v 4.61363" fill="none" stroke="black"/>
<path d="M208.374,336.795v 9.22726" fill="none" stroke="black"/>
<path d="M223.492,341.409v 4.61363" fill="none" stroke="black"/>
<path d="M238.61,341.409v 4.61363" fill="none" stroke="black"/>
<path d="M253.728,341.409v 4.61363" fill="none" stroke="black"/>
<path d="M268.846,341.409v 4.61363" fill="none" stroke="black"/>
<path d="M283.965,336.795v 9.22726" fill="none" stroke="black"/>
<path d="M299.083,341.409v 4.61363" fill="none" stroke="black"/>
<path d="M314.201,341.409v 4.61363" fill="none" stroke="black"/>
<path d="M329.319,341.409v 4.61363" fill="none" stroke="black"/>
<path d="M344.437,341.409v 4.61363" fill="none" stroke="black"/>
<path d="M359.555,336.795v 9.22726" fill="none" stroke="black"/>
<path d="M374.673,341.409v 4.61363" fill="none" stroke="black"/>
<path d="M389.791,341.409v 4.61363" fill="none" stroke="black"/>
<path d="M404.909,341.409v 4.61363" fill="none" stroke="black"/>
<path d="M420.028,341.409v 4.61363" fill="none" stroke="black"/>
<path d="M435.146,336.795v 9.22726" fill="none" stroke="black"/>
<path d="M450.264,341.409v 4.61363" fill="none" stroke="black"/>
<path d="M465.382,341.409v 4.61363" fill="none" stroke="black"/>
<path d="M480.5,341.409v 4.61363" fill="none" stroke="black"/>
<path d="M495.618,341.409v 4.61363" fill="none" stroke="black"/>
<path d="M510.736,336.795v 9.22726" fill="none" stroke="black"/>
<text xml:space="preserve" x="53.446" y="358.403" fill="black" font-size="12.8453" font-family="Helvetica">0</text>
<text xml:space="preserve" x="121.868" y="358.403" fill="black" font-size="12.8453" font-family="Helvetica">100</text>
<text xml:space="preserve" x="197.622" y="358.403" fill="black" font-size="12.8453" font-family="Helvetica">200</text>
<text xml:space="preserve" x="273.375" y="358.403" fill="black" font-size="12.8453" font-family="Helvetica">300</text>
<text xml:space="preserve" x="348.314" y="358.403" fill="black" font-size="12.8453" font-family="Helvetica">400</text>
<text xml:space="preserve" x="424.068" y="358.403" fill="black" font-size="12.8453" font-family="Helvetica">500</text>
<text xml:space="preserve" x="499.821" y="358.403" fill="black" font-size="12.8453" font-family="Helvetica">600</text>
<text xml:space="preserve" x="486.788" y="369.807" fill="black" font-size="12.8453" font-family="Helvetica">mpv</text>
<path d="M57.1929,346.022v -307.575" fill="none" stroke="black"/>
<path d="M70.7992,346.022h -13.6063" fill="none" stroke="black"/>
<path d="M63.9961,336.868h -6.80315" fill="none" stroke="black"/>
<path d="M63.9961,327.714h -6.80315" fill="none" stroke="black"/>
<path d="M63.9961,318.56h -6.80315" fill="none" stroke="black"/>
<path d="M70.7992,309.406h -13.6063" fill="none" stroke="black"/>
<path d="M63.9961,300.252h -6.80315" fill="none" stroke="black"/>
<path d="M63.9961,291.098h -6.80315" fill="none" stroke="black"/>
<path d="M63.9961,281.944h -6.80315" fill="none" stroke="black"/>
<path d="M70.7992,272.79h -13.6063" fill="none" stroke="black"/>
<path d="M63.9961,263.636h -6.80315" fill="none" stroke="black"/>
<path d="M63.9961,254.482h -6.80315" fill="none" stroke="black"/>
<path d="M63.9961,245.328h -6.80315" fill="none" stroke="black"/>
<path d="M70.7992,236.174h -13.6063" fill="none" stroke="black"/>
<path d="M63.9961,227.02h -6.80315" fill="none" stroke="black"/>
<path d="M63.9961,217.866h -6.80315" fill="none" stroke="black"/>
<path d="M63.9961,208.712h -6.80315" fill="none" stroke="black"/>
<path d="M70.7992,199.558h -13.6063" fill="none" stroke="black"/>
<path d="M63.9961,190.404h -6.80315" fill="none" stroke="black"/>
<path d="M63.9961,181.25h -6.80315" fill="none" stroke="black"/>
<path d="M63.9961,172.096h -6.80315" fill="none" stroke="black"/>
<path d="M70.7992,162.942h -13.6063" fill="none" stroke="black"/>
<path d="M63.9961,153.788h -6.80315" fill="none" stroke="black"/>
<path d="M63.9961,144.634h -6.80315" fill="none" stroke="black"/>
<path d="M63.9961,135.48h -6.80315" fill="none" stroke="black"/>
<path d="M70.7992,126.326h -13.6063" fill="none" stroke="black"/>
<path d="M63.9961,117.172h -6.80315" fill="none" stroke="black"/>
<path d="M63.9961,108.018h -6.80315" fill="none" stroke="black"/>
<path d="M63.9961,98.8635h -6.80315" fill="none" stroke="black"/>
<path d="M70.7992,89.7095h -13.6063" fill="none" stroke="black"/>
<path d="M63.9961,80.5555h -6.80315" fill="none" stroke="black"/>
<path d="M63.9961,71.4014h -6.80315" fill="none" stroke="black"/>
<path d="M63.9961,62.2474h -6.80315" fill="none" stroke="black"/>
<path d="M70.7992,53.0934h -13.6063" fill="none" stroke="black"/>
<path d="M70.7992,53.0934h -13.6063" fill="none" stroke="black"/>
<path d="M63.9961,43.9393h -6.80315" fill="none" stroke="black"/>
<text xml:space="preserve" x="47.7441" y="350.258" fill="black" font-size="12.8453" font-family="Helvetica">0</text>
<text xml:space="preserve" x="47.7441" y="313.603" fill="black" font-size="12.8453" font-family="Helvetica">2</text>
<text xml:space="preserve" x="47.7441" y="276.948" fill="black" font-size="12.8453" font-family="Helvetica">4</text>
<text xml:space="preserve" x="47.7441" y="240.293" fill="black" font-size="12.8453" font-family="Helvetica">6</text>
<text xml:space="preserve" x="47.7441" y="203.638" fill="black" font-size="12.8453" font-family="Helvetica">8</text>
<text xml:space="preserve" x="41.2277" y="167.798" fill="black" font-size="12.8453" font-family="Helvetica">10</text>
<text xml:space="preserve" x="40.4131" y="131.143" fill="black" font-size="12.8453" font-family="Helvetica">12</text>
<text xml:space="preserve" x="40.4131" y="94.4882" fill="black" font-size="12.8453" font-family="Helvetica">14</text>
<text xml:space="preserve" x="40.4131" y="57.8333" fill="black" font-size="12.8453" font-family="Helvetica">16</text>
<g transform="rotate(-90,27.3803,86.3427)">
<text xml:space="preserve" x="27.3803" y="86.3427" fill="black" font-size="12.8453" font-family="Helvetica">n_blocks</text>
</g>
<text xml:space="preserve" x="242.422" y="17.9202" fill="black" font-size="18.7938" font-family="Helvetica">vop 68.98</text>
<rect x="57.6465" y="346.022" width="14.211" height="0" fill="#ffb300" fill-opacity="0.50" stroke-opacity="0.50"/>
<rect x="72.7646" y="346.022" width="14.211" height="0" fill="#ffb300" fill-opacity="0.50" stroke-opacity="0.50"/>
<rect x="87.8827" y="346.022" width="14.211" height="0" fill="#ffb300" fill-opacity="0.50" stroke-opacity="0.50"/>
<rect x="103.001" y="346.022" width="14.211" height="0" fill="#ffb300" fill-opacity="0.50" stroke-opacity="0.50"/>
<rect x="118.119" y="346.022" width="14.211" height="0" fill="#ffb300" fill-opacity="0.50" stroke-opacity="0.50"/>
<rect x="133.237" y="346.022" width="14.211" height="0" fill="#ffb300" fill-opacity="0.50" stroke-opacity="0.50"/>
<rect x="148.355" y="346.022" width="14.211" height="0" fill="#ffb300" fill-opacity="0.50" stroke-opacity="0.50"/>
<rect x="163.473" y="346.022" width="14.211" height="0" fill="#ffb300" fill-opacity="0.50" stroke-opacity="0.50"/>
<rect x="178.591" y="346.022" width="14.211" height="0" fill="#ffb300" fill-opacity="0.50" stroke-opacity="0.50"/>
<rect x="193.709" y="327.714" width="14.211" height="18.3081" fill="#ffb300" fill-opacity="0.50" stroke-opacity="0.50"/>
<rect x="208.828" y="327.714" width="14.211" height="18.3081" fill="#ffb300" fill-opacity="0.50" stroke-opacity="0.50"/>
<rect x="223.946" y="217.866" width="14.211" height="128.156" fill="#ffb300" fill-opacity="0.50" stroke-opacity="0.50"/>
<rect x="239.064" y="126.326" width="14.211" height="219.697" fill="#ffb300" fill-opacity="0.50" stroke-opacity="0.50"/>
<rect x="254.182" y="108.018" width="14.211" height="238.005" fill="#ffb300" fill-opacity="0.50" stroke-opacity="0.50"/>
<rect x="269.3" y="53.0934" width="14.211" height="292.929" fill="#ffb300" fill-opacity="0.50" stroke-opacity="0.50"/>
<rect x="284.418" y="53.0934" width="14.211" height="292.929" fill="#ffb300" fill-opacity="0.50" stroke-opacity="0.50"/>
<rect x="299.536" y="89.7095" width="14.211" height="256.313" fill="#ffb300" fill-opacity="0.50" stroke-opacity="0.50"/>
<rect x="314.654" y="236.174" width="14.211" height="109.848" fill="#ffb300" fill-opacity="0.50" stroke-opacity="0.50"/>
<rect x="329.772" y="272.79" width="14.211" height="73.2322" fill="#ffb300" fill-opacity="0.50" stroke-opacity="0.50"/>
<rect x="344.891" y="346.022" width="14.211" height="0" fill="#ffb300" fill-opacity="0.50" stroke-opacity="0.50"/>
<rect x="360.009" y="346.022" width="14.211" height="0" fill="#ffb300" fill-opacity="0.50" stroke-opacity="0.50"/>
<rect x="375.127" y="346.022" width="14.211" height="0" fill="#ffb300" fill-opacity="0.50" stroke-opacity="0.50"/>
<rect x="390.245" y="346.022" width="14.211" height="0" fill="#ffb300" fill-opacity="0.50" stroke-opacity="0.50"/>
<rect x="405.363" y="346.022" width="14.211" height="0" fill="#ffb300" fill-opacity="0.50" stroke-opacity="0.50"/>
<rect x="420.481" y="346.022" width="14.211" height="0" fill="#ffb300" fill-opacity="0.50" stroke-opacity="0.50"/>
<rect x="435.599" y="346.022" width="14.211" height="0" fill="#ffb300" fill-opacity="0.50" stroke-opacity="0.50"/>
<rect x="450.717" y="346.022" width="14.211" height="0" fill="#ffb300" fill-opacity="0.50" stroke-opacity="0.50"/>
<rect x="465.835" y="346.022" width="14.211" height="0" fill="#ffb300" fill-opacity="0.50" stroke-opacity="0.50"/>
<rect x="480.954" y="346.022" width="14.211" height="0" fill="#ffb300" fill-opacity="0.50" stroke-opacity="0.50"/>
<rect x="496.072" y="346.022" width="14.211" height="0" fill="#ffb300" fill-opacity="0.50" stroke-opacity="0.50"/>
<path d="M59.4606,346.022h 86.1732l 4.53543, -0.0439542l 4.53543, -0.0366906l 4.53543, -0.0641743l 4.53543, -0.109717l 4.53543, -0.183335l 4.53543, -0.299382l 4.53543, -0.477703l 4.53543, -0.744692l 4.53543, -1.13399l 4.53543, -1.68643l 4.53543,
 -2.44883l 4.53543, -3.47111l 4.53543, -4.80134l 4.53543, -6.47869l 4.53543, -8.52426l 4.53543, -10.9307l 4.53543, -13.6517l 4.53543, -16.5937l 4.53543, -19.6105l 4.53543, -22.5054l 4.53543, -25.0397l 4.53543, -26.9507l 4.53543, -27.9764l 4.53543,
 -27.886l 4.53543, -26.5124l 4.53543, -23.7806l 4.53543, -19.7281l 4.53543, -14.5129l 0.751153, -1.39223" fill="none" stroke="#ffb300" stroke-width="2"/>
<path d="M287.744,38.4469l 3.02355, 7.60814" fill="none" stroke="#ffb300" stroke-width="2"/>
<path d="M290.768,46.0551l 4.53543, 17.1337l 4.53543, 21.8209l 4.53543, 25.255l 4.53543, 27.3356l 4.53543, 28.0808l 4.53543, 27.6128l 4.53543, 26.1329l 4.53543, 23.8908l 4.53543, 21.1525l 4.53543, 18.1718l 4.53543, 15.1692l 4.53543, 12.3178l 4.53543,
 9.73842l 4.53543, 7.50116l 4.53543, 5.63251l 4.53543, 4.1249l 4.53543, 2.94735l 4.53543, 2.05543l 4.53543, 1.39942l 4.53543, 0.930402l 4.53543, 0.604177l 4.53543, 0.383272l 4.53543, 0.237558l 4.53543, 0.143883l 4.53543, 0.0851698l 4.53543,
 0.0492769l 4.53543, 0.0278693l 4.53543, 0.0326469h 90.7087" fill="none" stroke="#ffb300" stroke-width="2"/>
<path d="M57.1929,346.022h 453.543" fill="none" stroke="black"/>
<path d="M57.1929,336.795v 9.22726" fill="none" stroke="black"/>
<path d="M72.311,341.409v 4.61363" fill="none" stroke="black"/>
<path d="M87.4291,341.409v 4.61363" fill="none" stroke="black"/>
<path d="M102.547,341.409v 4.61363" fill="none" stroke="black"/>
<path d="M117.665,341.409v 4.61363" fill="none" stroke="black"/>
<path d="M132.783,336.795v 9.22726" fill="none" stroke="black"/>
<path d="M147.902,341.409v 4.61363" fill="none" stroke="black"/>
<path d="M163.02,341.409v 4.61363" fill="none" stroke="black"/>
<path d="M178.138,341.409v 4.61363" fill="none" stroke="black"/>
<path d="M193.256,341.409v 4.61363" fill="none" stroke="black"/>
<path d="M208.374,336.795v 9.22726" fill="none" stroke="black"/>
<path d="M223.492,341.409v 4.61363" fill="none" stroke="black"/>
<path d="M238.61,341.409v 4.61363" fill="none" stroke="black"/>
<path d="M253.728,341.409v 4.61363" fill="none" stroke="black"/>
<path d="M268.846,341.409v 4.61363" fill="none" stroke="black"/>
<path d="M283.965,336.795v 9.22726" fill="none" stroke="black"/>
<path d="M299.083,341.409v 4.61363" fill="none" stroke="black"/>
<path d="M314.201,341.409v 4.61363" fill="none" stroke="black"/>
<path d="M329.319,341.409v 4.61363" fill="none" stroke="black"/>
<path d="M344.437,341.409v 4.61363" fill="none" stroke="black"/>
<path d="M359.555,336.795v 9.22726" fill="none" stroke="black"/>
<path d="M374.673,341.409v 4.61363" fill="none" stroke="black"/>
<path d="M389.791,341.409v 4.61363" fill="none" stroke="black"/>
<path d="M404.909,341.409v 4.61363" fill="none" stroke="black"/>
<path d="M420.028,341.409v 4.61363" fill="none" stroke="black"/>
<path d="M435.146,336.795v 9.22726" fill="none" stroke="black"/>
<path d="M450.264,341.409v 4.61363" fill="none" stroke="black"/>
<path d="M465.382,341.409v 4.61363" fill="none" stroke="black"/>
<path d="M480.5,341.409v 4.61363" fill="none" stroke="black"/>
<path d="M495.618,341.409v 4.61363" fill="none" stroke="black"/>
<path d="M510.736,336.795v 9.22726" fill="none" stroke="black"/>
<path d="M57.1929,346.022v -307.575" fill="none" stroke="black"/>
<path d="M70.7992,346.022h -13.6063" fill="none" stroke="black"/>
<path d="M63.9961,336.868h -6.80315" fill="none" stroke="black"/>
<path d="M63.9961,327.714h -6.80315" fill="none" stroke="black"/>
<path d="M63.9961,318.56h -6.80315" fill="none" stroke="black"/>
<path d="M70.7992,309.406h -13.6063" fill="none" stroke="black"/>
<path d="M63.9961,300.252h -6.80315" fill="none" stroke="black"/>
<path d="M63.9961,291.098h -6.80315" fill="none" stroke="black"/>
<path d="M63.9961,281.944h -6.80315" fill="none" stroke="black"/>
<path d="M70.7992,272.79h -13.6063" fill="none" stroke="black"/>
<path d="M63.9961,263.636h -6.80315" fill="none" stroke="black"/>
<path d="M63.9961,254.482h -6.80315" fill="none" stroke="black"/>
<path d="M63.9961,245.328h -6.80315" fill="none" stroke="black"/>
<path d="M70.7992,236.174h -13.6063" fill="none" stroke="black"/>
<path d="M63.9961,227.02h -6.80315" fill="none" stroke="black"/>
<path d="M63.9961,217.866h -6.80315" fill="none" stroke="black"/>
<path d="M63.9961,208.712h -6.80315" fill="none" stroke="black"/>
<path d="M70.7992,199.558h -13.6063" fill="none" stroke="black"/>
<path d="M63.9961,190.404h -6.80315" fill="none" stroke="black"/>
<path d="M63.9961,181.25h -6.80315" fill="none" stroke="black"/>
<path d="M63.9961,172.096h -6.80315" fill="none" stroke="black"/>
<path d="M70.7992,162.942h -13.6063" fill="none" stroke="black"/>
<path d="M63.9961,153.788h -6.80315" fill="none" stroke="black"/>
<path d="M63.9961,144.634h -6.80315" fill="none" stroke="black"/>
<path d="M63.9961,135.48h -6.80315" fill="none" stroke="black"/>
<path d="M70.7992,126.326h -13.6063" fill="none" stroke="black"/>
<path d="M63.9961,117.172h -6.80315" fill="none" stroke="black"/>
<path d="M63.9961,108.018h -6.80315" fill="none" stroke="black"/>
<path d="M63.9961,98.8635h -6.80315" fill="none" stroke="black"/>
<path d="M70.7992,89.7095h -13.6063" fill="none" stroke="black"/>
<path d="M63.9961,80.5555h -6.80315" fill="none" stroke="black"/>
<path d="M63.9961,71.4014h -6.80315" fill="none" stroke="black"/>
<path d="M63.9961,62.2474h -6.80315" fill="none" stroke="black"/>
<path d="M70.7992,53.0934h -13.6063" fill="none" stroke="black"/>
<path d="M70.7992,53.0934h -13.6063" fill="none" stroke="black"/>
<path d="M63.9961,43.9393h -6.80315" fill="none" stroke="black"/>
<rect x="58.0145" y="246.469" width="170.079" height="80.7385" fill="white"/>
<path d="M58.0145,327.208h 170.079" fill="none" stroke="black"/>
<path d="M228.093,327.208v -80.7385" fill="none" stroke="black"/>
<path d="M228.093,246.469h -170.079" fill="none" stroke="black"/>
<path d="M58.0145,246.469v 80.7385" fill="none" stroke="black"/>
<text xml:space="preserve" x="99.8755" y="296.497" fill="black" font-size="26.1785" font-family="Helvetica">sector 1</text>
<path d="M64.3925,315.097h 29.7638v -56.517h -29.7638z" fill="#ffb300" fill-opacity="0.50" stroke-opacity="0.50"/>
<path d="M64.3925,286.839h 29.7638" fill="none" stroke="#ffb300" fill-opacity="0.00" stroke-opacity="0.00"/>
<g stroke="black" stroke-width="1" fill="none">
<line x1="78.2744" y1="286.839" x2="79.2744" y2="286.839"/>
</g>
<text xml:space="preserve" x="242.422" y="17.9202" fill="black" font-size="18.7938" font-family="Helvetica">vop 68.98</text></svg>
