<?xml version="1.0" standalone="no"?>
<svg width="567.429" height="387.116" viewBox="0 0 567.429 387.116" xmlns="http://www.w3.org/2000/svg" shape-rendering="crispEdges">
<title>
./old_vop/vop_by_sector/vop-69.08_all.svg
</title>
<desc>
Creator: ROOT Version 6.24/00
CreationDate: Tue Jun 15 22:08:33 2021</desc>
<defs>
</defs>
<rect x="0.5" y="0" width="566.929" height="386.616" fill="white"/>
<rect x="57.1929" y="38.6616" width="453.543" height="309.293" fill="white"/>
<rect x="57.1929" y="38.6616" width="453.543" height="309.293" fill="none" stroke="black"/>
<path d="M57.1929,347.955h 453.543" fill="none" stroke="#000099"/>
<path d="M57.1929,347.955h 453.543" fill="none" stroke="black"/>
<path d="M57.1929,338.676v 9.27879" fill="none" stroke="black"/>
<path d="M72.311,343.315v 4.6394" fill="none" stroke="black"/>
<path d="M87.4291,343.315v 4.6394" fill="none" stroke="black"/>
<path d="M102.547,343.315v 4.6394" fill="none" stroke="black"/>
<path d="M117.665,343.315v 4.6394" fill="none" stroke="black"/>
<path d="M132.783,338.676v 9.27879" fill="none" stroke="black"/>
<path d="M147.902,343.315v 4.6394" fill="none" stroke="black"/>
<path d="M163.02,343.315v 4.6394" fill="none" stroke="black"/>
<path d="M178.138,343.315v 4.6394" fill="none" stroke="black"/>
<path d="M193.256,343.315v 4.6394" fill="none" stroke="black"/>
<path d="M208.374,338.676v 9.27879" fill="none" stroke="black"/>
<path d="M223.492,343.315v 4.6394" fill="none" stroke="black"/>
<path d="M238.61,343.315v 4.6394" fill="none" stroke="black"/>
<path d="M253.728,343.315v 4.6394" fill="none" stroke="black"/>
<path d="M268.846,343.315v 4.6394" fill="none" stroke="black"/>
<path d="M283.965,338.676v 9.27879" fill="none" stroke="black"/>
<path d="M299.083,343.315v 4.6394" fill="none" stroke="black"/>
<path d="M314.201,343.315v 4.6394" fill="none" stroke="black"/>
<path d="M329.319,343.315v 4.6394" fill="none" stroke="black"/>
<path d="M344.437,343.315v 4.6394" fill="none" stroke="black"/>
<path d="M359.555,338.676v 9.27879" fill="none" stroke="black"/>
<path d="M374.673,343.315v 4.6394" fill="none" stroke="black"/>
<path d="M389.791,343.315v 4.6394" fill="none" stroke="black"/>
<path d="M404.909,343.315v 4.6394" fill="none" stroke="black"/>
<path d="M420.028,343.315v 4.6394" fill="none" stroke="black"/>
<path d="M435.146,338.676v 9.27879" fill="none" stroke="black"/>
<path d="M450.264,343.315v 4.6394" fill="none" stroke="black"/>
<path d="M465.382,343.315v 4.6394" fill="none" stroke="black"/>
<path d="M480.5,343.315v 4.6394" fill="none" stroke="black"/>
<path d="M495.618,343.315v 4.6394" fill="none" stroke="black"/>
<path d="M510.736,338.676v 9.27879" fill="none" stroke="black"/>
<text xml:space="preserve" x="52.482" y="360.625" fill="black" font-size="12.9143" font-family="Helvetica">0</text>
<text xml:space="preserve" x="121.521" y="360.625" fill="black" font-size="12.9143" font-family="Helvetica">100</text>
<text xml:space="preserve" x="197.057" y="360.625" fill="black" font-size="12.9143" font-family="Helvetica">200</text>
<text xml:space="preserve" x="273.406" y="360.625" fill="black" font-size="12.9143" font-family="Helvetica">300</text>
<text xml:space="preserve" x="348.942" y="360.625" fill="black" font-size="12.9143" font-family="Helvetica">400</text>
<text xml:space="preserve" x="424.479" y="360.625" fill="black" font-size="12.9143" font-family="Helvetica">500</text>
<text xml:space="preserve" x="500.015" y="360.625" fill="black" font-size="12.9143" font-family="Helvetica">600</text>
<text xml:space="preserve" x="485.395" y="371.996" fill="black" font-size="12.9143" font-family="Helvetica">mpv</text>
<path d="M57.1929,347.955v -309.293" fill="none" stroke="black"/>
<path d="M70.7992,347.955h -13.6063" fill="none" stroke="black"/>
<path d="M63.9961,334.565h -6.80315" fill="none" stroke="black"/>
<path d="M63.9961,321.176h -6.80315" fill="none" stroke="black"/>
<path d="M63.9961,307.787h -6.80315" fill="none" stroke="black"/>
<path d="M70.7992,294.398h -13.6063" fill="none" stroke="black"/>
<path d="M63.9961,281.008h -6.80315" fill="none" stroke="black"/>
<path d="M63.9961,267.619h -6.80315" fill="none" stroke="black"/>
<path d="M63.9961,254.23h -6.80315" fill="none" stroke="black"/>
<path d="M70.7992,240.84h -13.6063" fill="none" stroke="black"/>
<path d="M63.9961,227.451h -6.80315" fill="none" stroke="black"/>
<path d="M63.9961,214.062h -6.80315" fill="none" stroke="black"/>
<path d="M63.9961,200.672h -6.80315" fill="none" stroke="black"/>
<path d="M70.7992,187.283h -13.6063" fill="none" stroke="black"/>
<path d="M63.9961,173.894h -6.80315" fill="none" stroke="black"/>
<path d="M63.9961,160.504h -6.80315" fill="none" stroke="black"/>
<path d="M63.9961,147.115h -6.80315" fill="none" stroke="black"/>
<path d="M70.7992,133.726h -13.6063" fill="none" stroke="black"/>
<path d="M63.9961,120.336h -6.80315" fill="none" stroke="black"/>
<path d="M63.9961,106.947h -6.80315" fill="none" stroke="black"/>
<path d="M63.9961,93.5578h -6.80315" fill="none" stroke="black"/>
<path d="M70.7992,80.1685h -13.6063" fill="none" stroke="black"/>
<path d="M70.7992,80.1685h -13.6063" fill="none" stroke="black"/>
<path d="M63.9961,66.7792h -6.80315" fill="none" stroke="black"/>
<path d="M63.9961,53.3899h -6.80315" fill="none" stroke="black"/>
<path d="M63.9961,40.0006h -6.80315" fill="none" stroke="black"/>
<text xml:space="preserve" x="46.7965" y="352.503" fill="black" font-size="12.9143" font-family="Helvetica">0</text>
<text xml:space="preserve" x="46.7965" y="299.709" fill="black" font-size="12.9143" font-family="Helvetica">2</text>
<text xml:space="preserve" x="46.7965" y="246.102" fill="black" font-size="12.9143" font-family="Helvetica">4</text>
<text xml:space="preserve" x="46.7965" y="191.684" fill="black" font-size="12.9143" font-family="Helvetica">6</text>
<text xml:space="preserve" x="46.7965" y="138.077" fill="black" font-size="12.9143" font-family="Helvetica">8</text>
<text xml:space="preserve" x="39.4865" y="84.4708" fill="black" font-size="12.9143" font-family="Helvetica">10</text>
<g transform="rotate(-90,26.491,89.3441)">
<text xml:space="preserve" x="26.491" y="89.3441" fill="black" font-size="12.9143" font-family="Helvetica">n_blocks</text>
</g>
<text xml:space="preserve" x="242.541" y="17.8688" fill="black" font-size="18.7414" font-family="Helvetica">vop 69.08</text>
<rect x="57.6465" y="347.955" width="14.211" height="0" fill="#00538a" fill-opacity="0.50" stroke-opacity="0.50"/>
<rect x="72.7646" y="347.955" width="14.211" height="0" fill="#00538a" fill-opacity="0.50" stroke-opacity="0.50"/>
<rect x="87.8827" y="347.955" width="14.211" height="0" fill="#00538a" fill-opacity="0.50" stroke-opacity="0.50"/>
<rect x="103.001" y="347.955" width="14.211" height="0" fill="#00538a" fill-opacity="0.50" stroke-opacity="0.50"/>
<rect x="118.119" y="347.955" width="14.211" height="0" fill="#00538a" fill-opacity="0.50" stroke-opacity="0.50"/>
<rect x="133.237" y="347.955" width="14.211" height="0" fill="#00538a" fill-opacity="0.50" stroke-opacity="0.50"/>
<rect x="148.355" y="321.176" width="14.211" height="26.7786" fill="#00538a" fill-opacity="0.50" stroke-opacity="0.50"/>
<rect x="163.473" y="347.955" width="14.211" height="0" fill="#00538a" fill-opacity="0.50" stroke-opacity="0.50"/>
<rect x="178.591" y="321.176" width="14.211" height="26.7786" fill="#00538a" fill-opacity="0.50" stroke-opacity="0.50"/>
<rect x="193.709" y="321.176" width="14.211" height="26.7786" fill="#00538a" fill-opacity="0.50" stroke-opacity="0.50"/>
<rect x="208.828" y="240.84" width="14.211" height="107.115" fill="#00538a" fill-opacity="0.50" stroke-opacity="0.50"/>
<rect x="223.946" y="240.84" width="14.211" height="107.115" fill="#00538a" fill-opacity="0.50" stroke-opacity="0.50"/>
<rect x="239.064" y="133.726" width="14.211" height="214.229" fill="#00538a" fill-opacity="0.50" stroke-opacity="0.50"/>
<rect x="254.182" y="53.3899" width="14.211" height="294.565" fill="#00538a" fill-opacity="0.50" stroke-opacity="0.50"/>
<rect x="269.3" y="53.3899" width="14.211" height="294.565" fill="#00538a" fill-opacity="0.50" stroke-opacity="0.50"/>
<rect x="284.418" y="160.504" width="14.211" height="187.45" fill="#00538a" fill-opacity="0.50" stroke-opacity="0.50"/>
<rect x="299.536" y="133.726" width="14.211" height="214.229" fill="#00538a" fill-opacity="0.50" stroke-opacity="0.50"/>
<rect x="314.654" y="133.726" width="14.211" height="214.229" fill="#00538a" fill-opacity="0.50" stroke-opacity="0.50"/>
<rect x="329.772" y="133.726" width="14.211" height="214.229" fill="#00538a" fill-opacity="0.50" stroke-opacity="0.50"/>
<rect x="344.891" y="80.1685" width="14.211" height="267.786" fill="#00538a" fill-opacity="0.50" stroke-opacity="0.50"/>
<rect x="360.009" y="294.398" width="14.211" height="53.5573" fill="#00538a" fill-opacity="0.50" stroke-opacity="0.50"/>
<rect x="375.127" y="347.955" width="14.211" height="0" fill="#00538a" fill-opacity="0.50" stroke-opacity="0.50"/>
<rect x="390.245" y="347.955" width="14.211" height="0" fill="#00538a" fill-opacity="0.50" stroke-opacity="0.50"/>
<rect x="405.363" y="347.955" width="14.211" height="0" fill="#00538a" fill-opacity="0.50" stroke-opacity="0.50"/>
<rect x="420.481" y="347.955" width="14.211" height="0" fill="#00538a" fill-opacity="0.50" stroke-opacity="0.50"/>
<rect x="435.599" y="347.955" width="14.211" height="0" fill="#00538a" fill-opacity="0.50" stroke-opacity="0.50"/>
<rect x="450.717" y="347.955" width="14.211" height="0" fill="#00538a" fill-opacity="0.50" stroke-opacity="0.50"/>
<rect x="465.835" y="347.955" width="14.211" height="0" fill="#00538a" fill-opacity="0.50" stroke-opacity="0.50"/>
<rect x="480.954" y="347.955" width="14.211" height="0" fill="#00538a" fill-opacity="0.50" stroke-opacity="0.50"/>
<rect x="496.072" y="347.955" width="14.211" height="0" fill="#00538a" fill-opacity="0.50" stroke-opacity="0.50"/>
<path d="M59.4606,347.955h 18.1417l 4.53543, -0.032064l 4.53543, -0.0150873l 4.53543, -0.0216042l 4.53543, -0.030661l 4.53543, -0.043127l 4.53543, -0.0601192l 4.53543, -0.0830555l 4.53543, -0.113711l 4.53543, -0.154277l 4.53543, -0.207419l 4.53543,
 -0.276333l 4.53543, -0.364783l 4.53543, -0.47713l 4.53543, -0.618328l 4.53543, -0.793887l 4.53543, -1.0098l 4.53543, -1.27238l 4.53543, -1.58811l 4.53543, -1.96332l 4.53543, -2.40391l 4.53543, -2.91486l 4.53543, -3.49986l 4.53543, -4.1607l 4.53543,
 -4.8968l 4.53543, -5.70461l 4.53543, -6.57716l 4.53543, -7.50361l 4.53543, -8.46896l 4.53543, -9.45395l 4.53543, -10.4351l 4.53543, -11.3851l 4.53543, -12.2733l 4.53543, -13.0668l 4.53543, -13.7312l 4.53543, -14.2324l 4.53543, -14.5378l 4.53543,
 -14.6182l 4.53543, -14.449l 4.53543, -14.0122l 4.53543, -13.2979l 4.53543, -12.3045l 4.53543, -11.0405l 4.53543, -9.52384l 4.53543, -7.78231l 4.53543, -5.85236" fill="none" stroke="#00538a" stroke-width="2"/>
<path d="M281.697,90.7028l 4.53543, -3.77805l 4.53543, -1.60935l 4.53543, 0.599826l 4.53543, 2.7939l 4.53543, 4.9179l 4.53543, 6.9198l 4.53543, 8.75259l 4.53543, 10.3761l 4.53543, 11.7586l 4.53543, 12.8775l 4.53543, 13.72l 4.53543, 14.2831l 4.53543,
 14.5729l 4.53543, 14.6041l 4.53543, 14.3984l 4.53543, 13.9829l 4.53543, 13.389l 4.53543, 12.6503l 4.53543, 11.8013l 4.53543, 10.8756l 4.53543, 9.90509l 4.53543, 8.9187l 4.53543, 7.94171l 4.53543, 6.99534l 4.53543, 6.09653l 4.53543, 5.25799l 4.53543,
 4.48844l 4.53543, 3.79291l 4.53543, 3.17329l 4.53543, 2.6288l 4.53543, 2.15655l 4.53543, 1.7521l 4.53543, 1.40991l 4.53543, 1.12381l 4.53543, 0.887333l 4.53543, 0.694071l 4.53543, 0.53786l 4.53543, 0.412957l 4.53543, 0.314146l 4.53543, 0.236793l
 4.53543, 0.176861l 4.53543, 0.1309l 4.53543, 0.0960076l 4.53543, 0.0697821l 4.53543, 0.0502652l 4.53543, 0.035883l 4.53543, 0.0253873l 4.53543, 0.0178018l 4.53543, 0.0382941" fill="none" stroke="#00538a" stroke-width="2"/>
<path d="M503.933,347.955h 4.53543" fill="none" stroke="#00538a" stroke-width="2"/>
<path d="M57.1929,347.955h 453.543" fill="none" stroke="black"/>
<path d="M57.1929,338.676v 9.27879" fill="none" stroke="black"/>
<path d="M72.311,343.315v 4.6394" fill="none" stroke="black"/>
<path d="M87.4291,343.315v 4.6394" fill="none" stroke="black"/>
<path d="M102.547,343.315v 4.6394" fill="none" stroke="black"/>
<path d="M117.665,343.315v 4.6394" fill="none" stroke="black"/>
<path d="M132.783,338.676v 9.27879" fill="none" stroke="black"/>
<path d="M147.902,343.315v 4.6394" fill="none" stroke="black"/>
<path d="M163.02,343.315v 4.6394" fill="none" stroke="black"/>
<path d="M178.138,343.315v 4.6394" fill="none" stroke="black"/>
<path d="M193.256,343.315v 4.6394" fill="none" stroke="black"/>
<path d="M208.374,338.676v 9.27879" fill="none" stroke="black"/>
<path d="M223.492,343.315v 4.6394" fill="none" stroke="black"/>
<path d="M238.61,343.315v 4.6394" fill="none" stroke="black"/>
<path d="M253.728,343.315v 4.6394" fill="none" stroke="black"/>
<path d="M268.846,343.315v 4.6394" fill="none" stroke="black"/>
<path d="M283.965,338.676v 9.27879" fill="none" stroke="black"/>
<path d="M299.083,343.315v 4.6394" fill="none" stroke="black"/>
<path d="M314.201,343.315v 4.6394" fill="none" stroke="black"/>
<path d="M329.319,343.315v 4.6394" fill="none" stroke="black"/>
<path d="M344.437,343.315v 4.6394" fill="none" stroke="black"/>
<path d="M359.555,338.676v 9.27879" fill="none" stroke="black"/>
<path d="M374.673,343.315v 4.6394" fill="none" stroke="black"/>
<path d="M389.791,343.315v 4.6394" fill="none" stroke="black"/>
<path d="M404.909,343.315v 4.6394" fill="none" stroke="black"/>
<path d="M420.028,343.315v 4.6394" fill="none" stroke="black"/>
<path d="M435.146,338.676v 9.27879" fill="none" stroke="black"/>
<path d="M450.264,343.315v 4.6394" fill="none" stroke="black"/>
<path d="M465.382,343.315v 4.6394" fill="none" stroke="black"/>
<path d="M480.5,343.315v 4.6394" fill="none" stroke="black"/>
<path d="M495.618,343.315v 4.6394" fill="none" stroke="black"/>
<path d="M510.736,338.676v 9.27879" fill="none" stroke="black"/>
<path d="M57.1929,347.955v -309.293" fill="none" stroke="black"/>
<path d="M70.7992,347.955h -13.6063" fill="none" stroke="black"/>
<path d="M63.9961,334.565h -6.80315" fill="none" stroke="black"/>
<path d="M63.9961,321.176h -6.80315" fill="none" stroke="black"/>
<path d="M63.9961,307.787h -6.80315" fill="none" stroke="black"/>
<path d="M70.7992,294.398h -13.6063" fill="none" stroke="black"/>
<path d="M63.9961,281.008h -6.80315" fill="none" stroke="black"/>
<path d="M63.9961,267.619h -6.80315" fill="none" stroke="black"/>
<path d="M63.9961,254.23h -6.80315" fill="none" stroke="black"/>
<path d="M70.7992,240.84h -13.6063" fill="none" stroke="black"/>
<path d="M63.9961,227.451h -6.80315" fill="none" stroke="black"/>
<path d="M63.9961,214.062h -6.80315" fill="none" stroke="black"/>
<path d="M63.9961,200.672h -6.80315" fill="none" stroke="black"/>
<path d="M70.7992,187.283h -13.6063" fill="none" stroke="black"/>
<path d="M63.9961,173.894h -6.80315" fill="none" stroke="black"/>
<path d="M63.9961,160.504h -6.80315" fill="none" stroke="black"/>
<path d="M63.9961,147.115h -6.80315" fill="none" stroke="black"/>
<path d="M70.7992,133.726h -13.6063" fill="none" stroke="black"/>
<path d="M63.9961,120.336h -6.80315" fill="none" stroke="black"/>
<path d="M63.9961,106.947h -6.80315" fill="none" stroke="black"/>
<path d="M63.9961,93.5578h -6.80315" fill="none" stroke="black"/>
<path d="M70.7992,80.1685h -13.6063" fill="none" stroke="black"/>
<path d="M70.7992,80.1685h -13.6063" fill="none" stroke="black"/>
<path d="M63.9961,66.7792h -6.80315" fill="none" stroke="black"/>
<path d="M63.9961,53.3899h -6.80315" fill="none" stroke="black"/>
<path d="M63.9961,40.0006h -6.80315" fill="none" stroke="black"/>
<rect x="58.0145" y="239.62" width="170.079" height="81.1895" fill="white"/>
<path d="M58.0145,320.809h 170.079" fill="none" stroke="black"/>
<path d="M228.093,320.809v -81.1895" fill="none" stroke="black"/>
<path d="M228.093,239.62h -170.079" fill="none" stroke="black"/>
<path d="M58.0145,239.62v 81.1895" fill="none" stroke="black"/>
<text xml:space="preserve" x="100.403" y="287.526" fill="black" font-size="21.7154" font-family="Helvetica">sector 10</text>
<path d="M64.3925,308.631h 29.7638v -56.8326h -29.7638z" fill="#00538a" fill-opacity="0.50" stroke-opacity="0.50"/>
<path d="M64.3925,280.215h 29.7638" fill="none" stroke="#00538a" fill-opacity="0.00" stroke-opacity="0.00"/>
<g stroke="black" stroke-width="1" fill="none">
<line x1="78.2744" y1="280.215" x2="79.2744" y2="280.215"/>
</g>
<text xml:space="preserve" x="242.541" y="17.8688" fill="black" font-size="18.7414" font-family="Helvetica">vop 69.08</text></svg>
