<?xml version="1.0" standalone="no"?>
<svg width="567.429" height="384.68" viewBox="0 0 567.429 384.68" xmlns="http://www.w3.org/2000/svg" shape-rendering="crispEdges">
<title>
./vop_by_sector/sector-3_vop-69.33.svg
</title>
<desc>
Creator: ROOT Version 6.22/02
CreationDate: Tue Jun 15 19:03:32 2021</desc>
<defs>
</defs>
<rect x="0.5" y="0" width="566.929" height="384.18" fill="white"/>
<rect x="57.1929" y="38.418" width="453.543" height="307.344" fill="white"/>
<rect x="57.1929" y="38.418" width="453.543" height="307.344" fill="none" stroke="black"/>
<path d="M57.1929,345.762h 90.7087v -18.2943h 45.3543v -109.766h 15.1181v -36.5886h 15.1181v 18.2943h 15.1181v -146.354h 15.1181v 54.8828h 15.1181v 201.237h 15.1181v -18.2943h 15.1181v 54.8828h 211.654" fill="none" stroke="#817066"/>
<path d="M59.4606,345.762h 68.0315l 4.53543, -0.0549776l 4.53543, -0.0555214l 4.53543, -0.104874l 4.53543, -0.191713l 4.53543, -0.33909l 4.53543, -0.580172l 4.53543, -0.959958l 4.53543, -1.53553l 4.53543, -2.37358l 4.53543, -3.54393l 4.53543,
 -5.10803l 4.53543, -7.10242l 4.53543, -9.51842l 4.53543, -12.2814l 4.53543, -15.2348l 4.53543, -18.1346l 4.53543, -20.6602l 4.53543, -22.4451l 4.53543, -23.126l 4.53543, -22.4044l 4.53543, -20.1087l 4.53543, -16.2442l 4.53543, -11.0163l 4.53543,
 -4.81892l 4.53543, 1.81346l 4.53543, 8.2814l 4.53543, 14.0101l 4.53543, 18.5337l 4.53543, 21.5572l 4.53543, 22.9849l 4.53543, 22.9127l 4.53543, 21.5884l 4.53543, 19.3539l 4.53543, 16.5813" fill="none" stroke="#817066" stroke-width="2"/>
<path d="M281.697,295.436l 4.53543, 13.617l 4.53543, 10.7425l 4.53543, 8.15437l 4.53543, 5.96317l 4.53543, 4.2052l 4.53543, 2.86189l 4.53543, 1.88082l 4.53543, 1.19425l 4.53543, 0.732953l 4.53543, 0.434961l 4.53543, 0.249659l 4.53543, 0.138638l
 4.53543, 0.0744987l 4.53543, 0.0387466l 4.53543, 0.037122h 154.205" fill="none" stroke="#817066" stroke-width="2"/>
<path d="M503.933,345.762h 4.53543" fill="none" stroke="#817066" stroke-width="2"/>
<path d="M57.1929,345.762h 453.543" fill="none" stroke="black"/>
<path d="M57.1929,336.541v 9.22031" fill="none" stroke="black"/>
<path d="M72.311,341.152v 4.61016" fill="none" stroke="black"/>
<path d="M87.4291,341.152v 4.61016" fill="none" stroke="black"/>
<path d="M102.547,341.152v 4.61016" fill="none" stroke="black"/>
<path d="M117.665,341.152v 4.61016" fill="none" stroke="black"/>
<path d="M132.783,336.541v 9.22031" fill="none" stroke="black"/>
<path d="M147.902,341.152v 4.61016" fill="none" stroke="black"/>
<path d="M163.02,341.152v 4.61016" fill="none" stroke="black"/>
<path d="M178.138,341.152v 4.61016" fill="none" stroke="black"/>
<path d="M193.256,341.152v 4.61016" fill="none" stroke="black"/>
<path d="M208.374,336.541v 9.22031" fill="none" stroke="black"/>
<path d="M223.492,341.152v 4.61016" fill="none" stroke="black"/>
<path d="M238.61,341.152v 4.61016" fill="none" stroke="black"/>
<path d="M253.728,341.152v 4.61016" fill="none" stroke="black"/>
<path d="M268.846,341.152v 4.61016" fill="none" stroke="black"/>
<path d="M283.965,336.541v 9.22031" fill="none" stroke="black"/>
<path d="M299.083,341.152v 4.61016" fill="none" stroke="black"/>
<path d="M314.201,341.152v 4.61016" fill="none" stroke="black"/>
<path d="M329.319,341.152v 4.61016" fill="none" stroke="black"/>
<path d="M344.437,341.152v 4.61016" fill="none" stroke="black"/>
<path d="M359.555,336.541v 9.22031" fill="none" stroke="black"/>
<path d="M374.673,341.152v 4.61016" fill="none" stroke="black"/>
<path d="M389.791,341.152v 4.61016" fill="none" stroke="black"/>
<path d="M404.909,341.152v 4.61016" fill="none" stroke="black"/>
<path d="M420.028,341.152v 4.61016" fill="none" stroke="black"/>
<path d="M435.146,336.541v 9.22031" fill="none" stroke="black"/>
<path d="M450.264,341.152v 4.61016" fill="none" stroke="black"/>
<path d="M465.382,341.152v 4.61016" fill="none" stroke="black"/>
<path d="M480.5,341.152v 4.61016" fill="none" stroke="black"/>
<path d="M495.618,341.152v 4.61016" fill="none" stroke="black"/>
<path d="M510.736,336.541v 9.22031" fill="none" stroke="black"/>
<text xml:space="preserve" x="53.2943" y="358.189" fill="black" font-size="12.836" font-family="Helvetica">0</text>
<text xml:space="preserve" x="121.521" y="358.189" fill="black" font-size="12.836" font-family="Helvetica">100</text>
<text xml:space="preserve" x="197.057" y="358.189" fill="black" font-size="12.836" font-family="Helvetica">200</text>
<text xml:space="preserve" x="273.406" y="358.189" fill="black" font-size="12.836" font-family="Helvetica">300</text>
<text xml:space="preserve" x="348.942" y="358.189" fill="black" font-size="12.836" font-family="Helvetica">400</text>
<text xml:space="preserve" x="424.479" y="358.189" fill="black" font-size="12.836" font-family="Helvetica">500</text>
<text xml:space="preserve" x="500.015" y="358.189" fill="black" font-size="12.836" font-family="Helvetica">600</text>
<text xml:space="preserve" x="487.019" y="369.56" fill="black" font-size="12.836" font-family="Helvetica">mpv</text>
<path d="M57.1929,345.762v -307.344" fill="none" stroke="black"/>
<path d="M70.7992,345.762h -13.6063" fill="none" stroke="black"/>
<path d="M63.9961,336.615h -6.80315" fill="none" stroke="black"/>
<path d="M63.9961,327.468h -6.80315" fill="none" stroke="black"/>
<path d="M63.9961,318.32h -6.80315" fill="none" stroke="black"/>
<path d="M70.7992,309.173h -13.6063" fill="none" stroke="black"/>
<path d="M63.9961,300.026h -6.80315" fill="none" stroke="black"/>
<path d="M63.9961,290.879h -6.80315" fill="none" stroke="black"/>
<path d="M63.9961,281.732h -6.80315" fill="none" stroke="black"/>
<path d="M70.7992,272.585h -13.6063" fill="none" stroke="black"/>
<path d="M63.9961,263.438h -6.80315" fill="none" stroke="black"/>
<path d="M63.9961,254.29h -6.80315" fill="none" stroke="black"/>
<path d="M63.9961,245.143h -6.80315" fill="none" stroke="black"/>
<path d="M70.7992,235.996h -13.6063" fill="none" stroke="black"/>
<path d="M63.9961,226.849h -6.80315" fill="none" stroke="black"/>
<path d="M63.9961,217.702h -6.80315" fill="none" stroke="black"/>
<path d="M63.9961,208.555h -6.80315" fill="none" stroke="black"/>
<path d="M70.7992,199.408h -13.6063" fill="none" stroke="black"/>
<path d="M63.9961,190.26h -6.80315" fill="none" stroke="black"/>
<path d="M63.9961,181.113h -6.80315" fill="none" stroke="black"/>
<path d="M63.9961,171.966h -6.80315" fill="none" stroke="black"/>
<path d="M70.7992,162.819h -13.6063" fill="none" stroke="black"/>
<path d="M63.9961,153.672h -6.80315" fill="none" stroke="black"/>
<path d="M63.9961,144.525h -6.80315" fill="none" stroke="black"/>
<path d="M63.9961,135.378h -6.80315" fill="none" stroke="black"/>
<path d="M70.7992,126.23h -13.6063" fill="none" stroke="black"/>
<path d="M63.9961,117.083h -6.80315" fill="none" stroke="black"/>
<path d="M63.9961,107.936h -6.80315" fill="none" stroke="black"/>
<path d="M63.9961,98.7891h -6.80315" fill="none" stroke="black"/>
<path d="M70.7992,89.642h -13.6063" fill="none" stroke="black"/>
<path d="M63.9961,80.4948h -6.80315" fill="none" stroke="black"/>
<path d="M63.9961,71.3477h -6.80315" fill="none" stroke="black"/>
<path d="M63.9961,62.2005h -6.80315" fill="none" stroke="black"/>
<path d="M70.7992,53.0534h -13.6063" fill="none" stroke="black"/>
<path d="M70.7992,53.0534h -13.6063" fill="none" stroke="black"/>
<path d="M63.9961,43.9063h -6.80315" fill="none" stroke="black"/>
<text xml:space="preserve" x="47.6087" y="350.067" fill="black" font-size="12.836" font-family="Helvetica">0</text>
<text xml:space="preserve" x="47.6087" y="313.517" fill="black" font-size="12.836" font-family="Helvetica">2</text>
<text xml:space="preserve" x="47.6087" y="276.967" fill="black" font-size="12.836" font-family="Helvetica">4</text>
<text xml:space="preserve" x="47.6087" y="240.417" fill="black" font-size="12.836" font-family="Helvetica">6</text>
<text xml:space="preserve" x="47.6087" y="203.867" fill="black" font-size="12.836" font-family="Helvetica">8</text>
<text xml:space="preserve" x="41.111" y="167.317" fill="black" font-size="12.836" font-family="Helvetica">10</text>
<text xml:space="preserve" x="40.2988" y="130.767" fill="black" font-size="12.836" font-family="Helvetica">12</text>
<text xml:space="preserve" x="40.2988" y="94.2175" fill="black" font-size="12.836" font-family="Helvetica">14</text>
<text xml:space="preserve" x="40.2988" y="57.6676" fill="black" font-size="12.836" font-family="Helvetica">16</text>
<g transform="rotate(-90,27.3032,86.0953)">
<text xml:space="preserve" x="27.3032" y="86.0953" fill="black" font-size="12.836" font-family="Helvetica">n_blocks</text>
</g>
<text xml:space="preserve" x="204.367" y="17.8688" fill="black" font-size="18.7414" font-family="Helvetica">sector 3, vop 69.33</text>
<rect x="351.996" y="24.9717" width="204.094" height="76.836" fill="white"/>
<path d="M351.996,101.808h 204.094" fill="none" stroke="black"/>
<path d="M556.091,101.808v -76.836" fill="none" stroke="black"/>
<path d="M556.091,24.9717h -204.094" fill="none" stroke="black"/>
<path d="M351.996,24.9717v 76.836" fill="none" stroke="black"/>
<text xml:space="preserve" x="377.37" y="38.9865" fill="black" font-size="16.7131" font-family="Helvetica"> / ndf </text>
<text xml:space="preserve" x="370.872" y="34.1132" fill="black" font-size="11.3087" font-family="Helvetica">2</text>
<text xml:space="preserve" x="361.938" y="38.9865" fill="black" font-size="16.7131" font-family="Times">&#0967;</text>
<text xml:space="preserve" x="478.085" y="40.611" fill="black" font-size="16.7131" font-family="Helvetica"> 10.25 / 7</text>
<text xml:space="preserve" x="361.938" y="60.1042" fill="black" font-size="16.7131" font-family="Helvetica">Constant </text>
<text xml:space="preserve" x="509.762" y="60.1042" fill="black" font-size="16.7131" font-family="Helvetica"> 2.18</text>
<text xml:space="preserve" x="500.827" y="60.1042" fill="black" font-size="16.7131" font-family="Times">&#0177;</text>
<text xml:space="preserve" x="450.47" y="60.1042" fill="black" font-size="16.7131" font-family="Helvetica"> 11.92 </text>
<text xml:space="preserve" x="361.938" y="78.7853" fill="black" font-size="16.7131" font-family="Helvetica">Mean     </text>
<text xml:space="preserve" x="518.696" y="78.7853" fill="black" font-size="16.7131" font-family="Helvetica"> 5.0</text>
<text xml:space="preserve" x="509.762" y="78.7853" fill="black" font-size="16.7131" font-family="Times">&#0177;</text>
<text xml:space="preserve" x="459.404" y="78.7853" fill="black" font-size="16.7131" font-family="Helvetica"> 238.4 </text>
<text xml:space="preserve" x="361.938" y="96.6541" fill="black" font-size="16.7131" font-family="Helvetica">Sigma    </text>
<text xml:space="preserve" x="509.762" y="98.2785" fill="black" font-size="16.7131" font-family="Helvetica"> 4.24</text>
<text xml:space="preserve" x="500.827" y="98.2785" fill="black" font-size="16.7131" font-family="Times">&#0177;</text>
<text xml:space="preserve" x="450.47" y="98.2785" fill="black" font-size="16.7131" font-family="Helvetica"> 34.24 </text>
<g stroke="black" stroke-width="1" fill="none">
<line x1="63.752" y1="345.762" x2="64.752" y2="345.762"/>
</g>
<g stroke="black" stroke-width="1" fill="none">
<line x1="78.8701" y1="345.762" x2="79.8701" y2="345.762"/>
</g>
<g stroke="black" stroke-width="1" fill="none">
<line x1="93.9882" y1="345.762" x2="94.9882" y2="345.762"/>
</g>
<g stroke="black" stroke-width="1" fill="none">
<line x1="109.106" y1="345.762" x2="110.106" y2="345.762"/>
</g>
<g stroke="black" stroke-width="1" fill="none">
<line x1="124.224" y1="345.762" x2="125.224" y2="345.762"/>
</g>
<g stroke="black" stroke-width="1" fill="none">
<line x1="139.343" y1="345.762" x2="140.343" y2="345.762"/>
</g>
<path d="M155.461,345.762v -18.2943" fill="none" stroke="#817066"/>
<path d="M155.461,327.468v -18.2943" fill="none" stroke="#817066"/>
<path d="M147.902,327.468h 7.55905" fill="none" stroke="#817066"/>
<path d="M155.461,327.468h 7.55905" fill="none" stroke="#817066"/>
<g stroke="black" stroke-width="1" fill="none">
<line x1="154.461" y1="327.468" x2="155.461" y2="327.468"/>
</g>
<path d="M170.579,345.762v -18.2943" fill="none" stroke="#817066"/>
<path d="M170.579,327.468v -18.2943" fill="none" stroke="#817066"/>
<path d="M163.02,327.468h 7.55905" fill="none" stroke="#817066"/>
<path d="M170.579,327.468h 7.55905" fill="none" stroke="#817066"/>
<g stroke="black" stroke-width="1" fill="none">
<line x1="169.579" y1="327.468" x2="170.579" y2="327.468"/>
</g>
<path d="M185.697,345.762v -18.2943" fill="none" stroke="#817066"/>
<path d="M185.697,327.468v -18.2943" fill="none" stroke="#817066"/>
<path d="M178.138,327.468h 7.55905" fill="none" stroke="#817066"/>
<path d="M185.697,327.468h 7.55905" fill="none" stroke="#817066"/>
<g stroke="black" stroke-width="1" fill="none">
<line x1="184.697" y1="327.468" x2="185.697" y2="327.468"/>
</g>
<path d="M200.815,266.104v -48.4021" fill="none" stroke="#817066"/>
<path d="M200.815,217.702v -48.4021" fill="none" stroke="#817066"/>
<path d="M193.256,217.702h 7.55905" fill="none" stroke="#817066"/>
<path d="M200.815,217.702h 7.55905" fill="none" stroke="#817066"/>
<g stroke="black" stroke-width="1" fill="none">
<line x1="199.815" y1="217.702" x2="200.815" y2="217.702"/>
</g>
<path d="M215.933,235.996v -54.8828" fill="none" stroke="#817066"/>
<path d="M215.933,181.113v -54.8828" fill="none" stroke="#817066"/>
<path d="M208.374,181.113h 7.55905" fill="none" stroke="#817066"/>
<path d="M215.933,181.113h 7.55905" fill="none" stroke="#817066"/>
<g stroke="black" stroke-width="1" fill="none">
<line x1="214.933" y1="181.113" x2="215.933" y2="181.113"/>
</g>
<path d="M231.051,251.152v -51.744" fill="none" stroke="#817066"/>
<path d="M231.051,199.408v -51.744" fill="none" stroke="#817066"/>
<path d="M223.492,199.408h 7.55905" fill="none" stroke="#817066"/>
<path d="M231.051,199.408h 7.55905" fill="none" stroke="#817066"/>
<g stroke="black" stroke-width="1" fill="none">
<line x1="230.051" y1="199.408" x2="231.051" y2="199.408"/>
</g>
<path d="M246.169,126.23v -73.1771" fill="none" stroke="#817066"/>
<path d="M246.169,53.0534v -14.6354" fill="none" stroke="#817066"/>
<path d="M238.61,53.0534h 7.55905" fill="none" stroke="#817066"/>
<path d="M246.169,53.0534h 7.55905" fill="none" stroke="#817066"/>
<g stroke="black" stroke-width="1" fill="none">
<line x1="245.169" y1="53.0534" x2="246.169" y2="53.0534"/>
</g>
<path d="M261.287,173.897v -65.9609" fill="none" stroke="#817066"/>
<path d="M261.287,107.936v -65.9609" fill="none" stroke="#817066"/>
<path d="M253.728,107.936h 7.55905" fill="none" stroke="#817066"/>
<path d="M261.287,107.936h 7.55905" fill="none" stroke="#817066"/>
<g stroke="black" stroke-width="1" fill="none">
<line x1="260.287" y1="107.936" x2="261.287" y2="107.936"/>
</g>
<path d="M276.406,335.045v -25.872" fill="none" stroke="#817066"/>
<path d="M276.406,309.173v -25.872" fill="none" stroke="#817066"/>
<path d="M268.846,309.173h 7.55905" fill="none" stroke="#817066"/>
<path d="M276.406,309.173h 7.55905" fill="none" stroke="#817066"/>
<g stroke="black" stroke-width="1" fill="none">
<line x1="275.406" y1="309.173" x2="276.406" y2="309.173"/>
</g>
<path d="M291.524,322.566v -31.6866" fill="none" stroke="#817066"/>
<path d="M291.524,290.879v -31.6866" fill="none" stroke="#817066"/>
<path d="M283.965,290.879h 7.55905" fill="none" stroke="#817066"/>
<path d="M291.524,290.879h 7.55905" fill="none" stroke="#817066"/>
<g stroke="black" stroke-width="1" fill="none">
<line x1="290.524" y1="290.879" x2="291.524" y2="290.879"/>
</g>
<g stroke="black" stroke-width="1" fill="none">
<line x1="305.642" y1="345.762" x2="306.642" y2="345.762"/>
</g>
<g stroke="black" stroke-width="1" fill="none">
<line x1="320.76" y1="345.762" x2="321.76" y2="345.762"/>
</g>
<g stroke="black" stroke-width="1" fill="none">
<line x1="335.878" y1="345.762" x2="336.878" y2="345.762"/>
</g>
<g stroke="black" stroke-width="1" fill="none">
<line x1="350.996" y1="345.762" x2="351.996" y2="345.762"/>
</g>
<g stroke="black" stroke-width="1" fill="none">
<line x1="366.114" y1="345.762" x2="367.114" y2="345.762"/>
</g>
<g stroke="black" stroke-width="1" fill="none">
<line x1="381.232" y1="345.762" x2="382.232" y2="345.762"/>
</g>
<g stroke="black" stroke-width="1" fill="none">
<line x1="396.35" y1="345.762" x2="397.35" y2="345.762"/>
</g>
<g stroke="black" stroke-width="1" fill="none">
<line x1="411.469" y1="345.762" x2="412.469" y2="345.762"/>
</g>
<g stroke="black" stroke-width="1" fill="none">
<line x1="426.587" y1="345.762" x2="427.587" y2="345.762"/>
</g>
<g stroke="black" stroke-width="1" fill="none">
<line x1="441.705" y1="345.762" x2="442.705" y2="345.762"/>
</g>
<g stroke="black" stroke-width="1" fill="none">
<line x1="456.823" y1="345.762" x2="457.823" y2="345.762"/>
</g>
<g stroke="black" stroke-width="1" fill="none">
<line x1="471.941" y1="345.762" x2="472.941" y2="345.762"/>
</g>
<g stroke="black" stroke-width="1" fill="none">
<line x1="487.059" y1="345.762" x2="488.059" y2="345.762"/>
</g>
<g stroke="black" stroke-width="1" fill="none">
<line x1="502.177" y1="345.762" x2="503.177" y2="345.762"/>
</g>
<path d="M59.4606,345.762h 68.0315l 4.53543, -0.0549776l 4.53543, -0.0555214l 4.53543, -0.104874l 4.53543, -0.191713l 4.53543, -0.33909l 4.53543, -0.580172l 4.53543, -0.959958l 4.53543, -1.53553l 4.53543, -2.37358l 4.53543, -3.54393l 4.53543,
 -5.10803l 4.53543, -7.10242l 4.53543, -9.51842l 4.53543, -12.2814l 4.53543, -15.2348l 4.53543, -18.1346l 4.53543, -20.6602l 4.53543, -22.4451l 4.53543, -23.126l 4.53543, -22.4044l 4.53543, -20.1087l 4.53543, -16.2442l 4.53543, -11.0163l 4.53543,
 -4.81892l 4.53543, 1.81346l 4.53543, 8.2814l 4.53543, 14.0101l 4.53543, 18.5337l 4.53543, 21.5572l 4.53543, 22.9849l 4.53543, 22.9127l 4.53543, 21.5884l 4.53543, 19.3539l 4.53543, 16.5813" fill="none" stroke="#817066" stroke-width="2"/>
<path d="M281.697,295.436l 4.53543, 13.617l 4.53543, 10.7425l 4.53543, 8.15437l 4.53543, 5.96317l 4.53543, 4.2052l 4.53543, 2.86189l 4.53543, 1.88082l 4.53543, 1.19425l 4.53543, 0.732953l 4.53543, 0.434961l 4.53543, 0.249659l 4.53543, 0.138638l
 4.53543, 0.0744987l 4.53543, 0.0387466l 4.53543, 0.037122h 154.205" fill="none" stroke="#817066" stroke-width="2"/>
<path d="M503.933,345.762h 4.53543" fill="none" stroke="#817066" stroke-width="2"/>
<rect x="351.996" y="24.9717" width="204.094" height="76.836" fill="white"/>
<path d="M351.996,101.808h 204.094" fill="none" stroke="black"/>
<path d="M556.091,101.808v -76.836" fill="none" stroke="black"/>
<path d="M556.091,24.9717h -204.094" fill="none" stroke="black"/>
<path d="M351.996,24.9717v 76.836" fill="none" stroke="black"/>
<text xml:space="preserve" x="377.37" y="38.9865" fill="black" font-size="16.7131" font-family="Helvetica"> / ndf </text>
<text xml:space="preserve" x="370.872" y="34.1132" fill="black" font-size="11.3087" font-family="Helvetica">2</text>
<text xml:space="preserve" x="361.938" y="38.9865" fill="black" font-size="16.7131" font-family="Times">&#0967;</text>
<text xml:space="preserve" x="478.085" y="40.611" fill="black" font-size="16.7131" font-family="Helvetica"> 10.25 / 7</text>
<text xml:space="preserve" x="361.938" y="60.1042" fill="black" font-size="16.7131" font-family="Helvetica">Constant </text>
<text xml:space="preserve" x="509.762" y="60.1042" fill="black" font-size="16.7131" font-family="Helvetica"> 2.18</text>
<text xml:space="preserve" x="500.827" y="60.1042" fill="black" font-size="16.7131" font-family="Times">&#0177;</text>
<text xml:space="preserve" x="450.47" y="60.1042" fill="black" font-size="16.7131" font-family="Helvetica"> 11.92 </text>
<text xml:space="preserve" x="361.938" y="78.7853" fill="black" font-size="16.7131" font-family="Helvetica">Mean     </text>
<text xml:space="preserve" x="518.696" y="78.7853" fill="black" font-size="16.7131" font-family="Helvetica"> 5.0</text>
<text xml:space="preserve" x="509.762" y="78.7853" fill="black" font-size="16.7131" font-family="Times">&#0177;</text>
<text xml:space="preserve" x="459.404" y="78.7853" fill="black" font-size="16.7131" font-family="Helvetica"> 238.4 </text>
<text xml:space="preserve" x="361.938" y="96.6541" fill="black" font-size="16.7131" font-family="Helvetica">Sigma    </text>
<text xml:space="preserve" x="509.762" y="98.2785" fill="black" font-size="16.7131" font-family="Helvetica"> 4.24</text>
<text xml:space="preserve" x="500.827" y="98.2785" fill="black" font-size="16.7131" font-family="Times">&#0177;</text>
<text xml:space="preserve" x="450.47" y="98.2785" fill="black" font-size="16.7131" font-family="Helvetica"> 34.24 </text>
<text xml:space="preserve" x="204.367" y="17.8688" fill="black" font-size="18.7414" font-family="Helvetica">sector 3, vop 69.33</text></svg>
