<?xml version="1.0" standalone="no"?>
<svg width="567.429" height="384.68" viewBox="0 0 567.429 384.68" xmlns="http://www.w3.org/2000/svg" shape-rendering="crispEdges">
<title>
./vop_by_sector/sector-10_vop-69.08.svg
</title>
<desc>
Creator: ROOT Version 6.22/02
CreationDate: Tue Jun 15 19:03:39 2021</desc>
<defs>
</defs>
<rect x="0.5" y="0" width="566.929" height="384.18" fill="white"/>
<rect x="57.1929" y="38.418" width="453.543" height="307.344" fill="white"/>
<rect x="57.1929" y="38.418" width="453.543" height="307.344" fill="none" stroke="black"/>
<path d="M57.1929,345.762h 90.7087v -26.6099h 15.1181v 26.6099h 15.1181v -26.6099h 30.2362v -79.8296h 30.2362v -106.439h 15.1181v -79.8296h 30.2362v 106.439h 15.1181v -26.6099h 45.3543v -53.2197h 15.1181v 212.879h 15.1181v 53.2197h 136.063"
 fill="none" stroke="#ff6800"/>
<path d="M59.4606,345.762h 18.1417l 4.53543, -0.0318619l 4.53543, -0.0149922l 4.53543, -0.021468l 4.53543, -0.0304678l 4.53543, -0.0428552l 4.53543, -0.0597403l 4.53543, -0.082532l 4.53543, -0.112994l 4.53543, -0.153304l 4.53543, -0.206112l 4.53543,
 -0.274592l 4.53543, -0.362484l 4.53543, -0.474123l 4.53543, -0.614431l 4.53543, -0.788884l 4.53543, -1.00343l 4.53543, -1.26436l 4.53543, -1.5781l 4.53543, -1.95095l 4.53543, -2.38876l 4.53543, -2.89649l 4.53543, -3.4778l 4.53543, -4.13448l 4.53543,
 -4.86594l 4.53543, -5.66866l 4.53543, -6.53571l 4.53543, -7.45632l 4.53543, -8.41559l 4.53543, -9.39436l 4.53543, -10.3693l 4.53543, -11.3133l 4.53543, -12.196l 4.53543, -12.9844l 4.53543, -13.6446l 4.53543, -14.1427l 4.53543, -14.4462l 4.53543,
 -14.526l 4.53543, -14.3579l 4.53543, -13.9239l 4.53543, -13.2141l 4.53543, -12.227l 4.53543, -10.9709l 4.53543, -9.46382l 4.53543, -7.73326l 4.53543, -5.81548" fill="none" stroke="#ff6800" stroke-width="2"/>
<path d="M281.697,90.1312l 4.53543, -3.75424l 4.53543, -1.59921l 4.53543, 0.596045l 4.53543, 2.77629l 4.53543, 4.8869l 4.53543, 6.87619l 4.53543, 8.69743l 4.53543, 10.3108l 4.53543, 11.6845l 4.53543, 12.7964l 4.53543, 13.6335l 4.53543, 14.1931l
 4.53543, 14.4811l 4.53543, 14.5121l 4.53543, 14.3076l 4.53543, 13.8948l 4.53543, 13.3046l 4.53543, 12.5706l 4.53543, 11.7269l 4.53543, 10.807l 4.53543, 9.84267l 4.53543, 8.86249l 4.53543, 7.89166l 4.53543, 6.95125l 4.53543, 6.0581l 4.53543, 5.22485l
 4.53543, 4.46015l 4.53543, 3.769l 4.53543, 3.15329l 4.53543, 2.61223l 4.53543, 2.14296l 4.53543, 1.74106l 4.53543, 1.40103l 4.53543, 1.11672l 4.53543, 0.88174l 4.53543, 0.689697l 4.53543, 0.53447l 4.53543, 0.410355l 4.53543, 0.312166l 4.53543,
 0.2353l 4.53543, 0.175746l 4.53543, 0.130075l 4.53543, 0.0954026l 4.53543, 0.0693423l 4.53543, 0.0499484l 4.53543, 0.0356568l 4.53543, 0.0252273l 4.53543, 0.0176896l 4.53543, 0.0380527" fill="none" stroke="#ff6800" stroke-width="2"/>
<path d="M503.933,345.762h 4.53543" fill="none" stroke="#ff6800" stroke-width="2"/>
<path d="M57.1929,345.762h 453.543" fill="none" stroke="black"/>
<path d="M57.1929,336.541v 9.22031" fill="none" stroke="black"/>
<path d="M72.311,341.152v 4.61016" fill="none" stroke="black"/>
<path d="M87.4291,341.152v 4.61016" fill="none" stroke="black"/>
<path d="M102.547,341.152v 4.61016" fill="none" stroke="black"/>
<path d="M117.665,341.152v 4.61016" fill="none" stroke="black"/>
<path d="M132.783,336.541v 9.22031" fill="none" stroke="black"/>
<path d="M147.902,341.152v 4.61016" fill="none" stroke="black"/>
<path d="M163.02,341.152v 4.61016" fill="none" stroke="black"/>
<path d="M178.138,341.152v 4.61016" fill="none" stroke="black"/>
<path d="M193.256,341.152v 4.61016" fill="none" stroke="black"/>
<path d="M208.374,336.541v 9.22031" fill="none" stroke="black"/>
<path d="M223.492,341.152v 4.61016" fill="none" stroke="black"/>
<path d="M238.61,341.152v 4.61016" fill="none" stroke="black"/>
<path d="M253.728,341.152v 4.61016" fill="none" stroke="black"/>
<path d="M268.846,341.152v 4.61016" fill="none" stroke="black"/>
<path d="M283.965,336.541v 9.22031" fill="none" stroke="black"/>
<path d="M299.083,341.152v 4.61016" fill="none" stroke="black"/>
<path d="M314.201,341.152v 4.61016" fill="none" stroke="black"/>
<path d="M329.319,341.152v 4.61016" fill="none" stroke="black"/>
<path d="M344.437,341.152v 4.61016" fill="none" stroke="black"/>
<path d="M359.555,336.541v 9.22031" fill="none" stroke="black"/>
<path d="M374.673,341.152v 4.61016" fill="none" stroke="black"/>
<path d="M389.791,341.152v 4.61016" fill="none" stroke="black"/>
<path d="M404.909,341.152v 4.61016" fill="none" stroke="black"/>
<path d="M420.028,341.152v 4.61016" fill="none" stroke="black"/>
<path d="M435.146,336.541v 9.22031" fill="none" stroke="black"/>
<path d="M450.264,341.152v 4.61016" fill="none" stroke="black"/>
<path d="M465.382,341.152v 4.61016" fill="none" stroke="black"/>
<path d="M480.5,341.152v 4.61016" fill="none" stroke="black"/>
<path d="M495.618,341.152v 4.61016" fill="none" stroke="black"/>
<path d="M510.736,336.541v 9.22031" fill="none" stroke="black"/>
<text xml:space="preserve" x="53.2943" y="358.189" fill="black" font-size="12.836" font-family="Helvetica">0</text>
<text xml:space="preserve" x="121.521" y="358.189" fill="black" font-size="12.836" font-family="Helvetica">100</text>
<text xml:space="preserve" x="197.057" y="358.189" fill="black" font-size="12.836" font-family="Helvetica">200</text>
<text xml:space="preserve" x="273.406" y="358.189" fill="black" font-size="12.836" font-family="Helvetica">300</text>
<text xml:space="preserve" x="348.942" y="358.189" fill="black" font-size="12.836" font-family="Helvetica">400</text>
<text xml:space="preserve" x="424.479" y="358.189" fill="black" font-size="12.836" font-family="Helvetica">500</text>
<text xml:space="preserve" x="500.015" y="358.189" fill="black" font-size="12.836" font-family="Helvetica">600</text>
<text xml:space="preserve" x="487.019" y="369.56" fill="black" font-size="12.836" font-family="Helvetica">mpv</text>
<path d="M57.1929,345.762v -307.344" fill="none" stroke="black"/>
<path d="M70.7992,345.762h -13.6063" fill="none" stroke="black"/>
<path d="M63.9961,332.457h -6.80315" fill="none" stroke="black"/>
<path d="M63.9961,319.152h -6.80315" fill="none" stroke="black"/>
<path d="M63.9961,305.847h -6.80315" fill="none" stroke="black"/>
<path d="M70.7992,292.542h -13.6063" fill="none" stroke="black"/>
<path d="M63.9961,279.237h -6.80315" fill="none" stroke="black"/>
<path d="M63.9961,265.932h -6.80315" fill="none" stroke="black"/>
<path d="M63.9961,252.627h -6.80315" fill="none" stroke="black"/>
<path d="M70.7992,239.322h -13.6063" fill="none" stroke="black"/>
<path d="M63.9961,226.017h -6.80315" fill="none" stroke="black"/>
<path d="M63.9961,212.713h -6.80315" fill="none" stroke="black"/>
<path d="M63.9961,199.408h -6.80315" fill="none" stroke="black"/>
<path d="M70.7992,186.103h -13.6063" fill="none" stroke="black"/>
<path d="M63.9961,172.798h -6.80315" fill="none" stroke="black"/>
<path d="M63.9961,159.493h -6.80315" fill="none" stroke="black"/>
<path d="M63.9961,146.188h -6.80315" fill="none" stroke="black"/>
<path d="M70.7992,132.883h -13.6063" fill="none" stroke="black"/>
<path d="M63.9961,119.578h -6.80315" fill="none" stroke="black"/>
<path d="M63.9961,106.273h -6.80315" fill="none" stroke="black"/>
<path d="M63.9961,92.9682h -6.80315" fill="none" stroke="black"/>
<path d="M70.7992,79.6633h -13.6063" fill="none" stroke="black"/>
<path d="M70.7992,79.6633h -13.6063" fill="none" stroke="black"/>
<path d="M63.9961,66.3583h -6.80315" fill="none" stroke="black"/>
<path d="M63.9961,53.0534h -6.80315" fill="none" stroke="black"/>
<path d="M63.9961,39.7485h -6.80315" fill="none" stroke="black"/>
<text xml:space="preserve" x="47.6087" y="350.067" fill="black" font-size="12.836" font-family="Helvetica">0</text>
<text xml:space="preserve" x="47.6087" y="297.272" fill="black" font-size="12.836" font-family="Helvetica">2</text>
<text xml:space="preserve" x="47.6087" y="243.666" fill="black" font-size="12.836" font-family="Helvetica">4</text>
<text xml:space="preserve" x="47.6087" y="190.872" fill="black" font-size="12.836" font-family="Helvetica">6</text>
<text xml:space="preserve" x="47.6087" y="137.265" fill="black" font-size="12.836" font-family="Helvetica">8</text>
<text xml:space="preserve" x="41.111" y="84.4708" fill="black" font-size="12.836" font-family="Helvetica">10</text>
<g transform="rotate(-90,28.1155,86.0953)">
<text xml:space="preserve" x="28.1155" y="86.0953" fill="black" font-size="12.836" font-family="Helvetica">n_blocks</text>
</g>
<text xml:space="preserve" x="199.494" y="17.8688" fill="black" font-size="18.7414" font-family="Helvetica">sector 10, vop 69.08</text>
<rect x="351.996" y="24.9717" width="204.094" height="76.836" fill="white"/>
<path d="M351.996,101.808h 204.094" fill="none" stroke="black"/>
<path d="M556.091,101.808v -76.836" fill="none" stroke="black"/>
<path d="M556.091,24.9717h -204.094" fill="none" stroke="black"/>
<path d="M351.996,24.9717v 76.836" fill="none" stroke="black"/>
<text xml:space="preserve" x="377.37" y="38.9865" fill="black" font-size="16.7131" font-family="Helvetica"> / ndf </text>
<text xml:space="preserve" x="370.872" y="34.1132" fill="black" font-size="11.3087" font-family="Helvetica">2</text>
<text xml:space="preserve" x="361.938" y="38.9865" fill="black" font-size="16.7131" font-family="Times">&#0967;</text>
<text xml:space="preserve" x="471.587" y="40.611" fill="black" font-size="16.7131" font-family="Helvetica"> 7.988 / 11</text>
<text xml:space="preserve" x="361.938" y="60.1042" fill="black" font-size="16.7131" font-family="Helvetica">Constant </text>
<text xml:space="preserve" x="509.762" y="60.1042" fill="black" font-size="16.7131" font-family="Helvetica"> 1.42</text>
<text xml:space="preserve" x="500.827" y="60.1042" fill="black" font-size="16.7131" font-family="Times">&#0177;</text>
<text xml:space="preserve" x="457.78" y="60.1042" fill="black" font-size="16.7131" font-family="Helvetica">  9.81 </text>
<text xml:space="preserve" x="361.938" y="78.7853" fill="black" font-size="16.7131" font-family="Helvetica">Mean     </text>
<text xml:space="preserve" x="521.133" y="78.7853" fill="black" font-size="16.7131" font-family="Helvetica"> 9.1</text>
<text xml:space="preserve" x="512.198" y="78.7853" fill="black" font-size="16.7131" font-family="Times">&#0177;</text>
<text xml:space="preserve" x="461.841" y="78.7853" fill="black" font-size="16.7131" font-family="Helvetica"> 310.4 </text>
<text xml:space="preserve" x="361.938" y="96.6541" fill="black" font-size="16.7131" font-family="Helvetica">Sigma    </text>
<text xml:space="preserve" x="509.762" y="98.2785" fill="black" font-size="16.7131" font-family="Helvetica"> 7.63</text>
<text xml:space="preserve" x="500.827" y="98.2785" fill="black" font-size="16.7131" font-family="Times">&#0177;</text>
<text xml:space="preserve" x="450.47" y="98.2785" fill="black" font-size="16.7131" font-family="Helvetica"> 65.34 </text>
<g stroke="black" stroke-width="1" fill="none">
<line x1="63.752" y1="345.762" x2="64.752" y2="345.762"/>
</g>
<g stroke="black" stroke-width="1" fill="none">
<line x1="78.8701" y1="345.762" x2="79.8701" y2="345.762"/>
</g>
<g stroke="black" stroke-width="1" fill="none">
<line x1="93.9882" y1="345.762" x2="94.9882" y2="345.762"/>
</g>
<g stroke="black" stroke-width="1" fill="none">
<line x1="109.106" y1="345.762" x2="110.106" y2="345.762"/>
</g>
<g stroke="black" stroke-width="1" fill="none">
<line x1="124.224" y1="345.762" x2="125.224" y2="345.762"/>
</g>
<g stroke="black" stroke-width="1" fill="none">
<line x1="139.343" y1="345.762" x2="140.343" y2="345.762"/>
</g>
<path d="M155.461,345.762v -26.6099" fill="none" stroke="#ff6800"/>
<path d="M155.461,319.152v -26.6099" fill="none" stroke="#ff6800"/>
<path d="M147.902,319.152h 7.55905" fill="none" stroke="#ff6800"/>
<path d="M155.461,319.152h 7.55905" fill="none" stroke="#ff6800"/>
<g stroke="black" stroke-width="1" fill="none">
<line x1="154.461" y1="319.152" x2="155.461" y2="319.152"/>
</g>
<g stroke="black" stroke-width="1" fill="none">
<line x1="169.579" y1="345.762" x2="170.579" y2="345.762"/>
</g>
<path d="M185.697,345.762v -26.6099" fill="none" stroke="#ff6800"/>
<path d="M185.697,319.152v -26.6099" fill="none" stroke="#ff6800"/>
<path d="M178.138,319.152h 7.55905" fill="none" stroke="#ff6800"/>
<path d="M185.697,319.152h 7.55905" fill="none" stroke="#ff6800"/>
<g stroke="black" stroke-width="1" fill="none">
<line x1="184.697" y1="319.152" x2="185.697" y2="319.152"/>
</g>
<path d="M200.815,345.762v -26.6099" fill="none" stroke="#ff6800"/>
<path d="M200.815,319.152v -26.6099" fill="none" stroke="#ff6800"/>
<path d="M193.256,319.152h 7.55905" fill="none" stroke="#ff6800"/>
<path d="M200.815,319.152h 7.55905" fill="none" stroke="#ff6800"/>
<g stroke="black" stroke-width="1" fill="none">
<line x1="199.815" y1="319.152" x2="200.815" y2="319.152"/>
</g>
<path d="M215.933,292.542v -53.2197" fill="none" stroke="#ff6800"/>
<path d="M215.933,239.322v -53.2197" fill="none" stroke="#ff6800"/>
<path d="M208.374,239.322h 7.55905" fill="none" stroke="#ff6800"/>
<path d="M215.933,239.322h 7.55905" fill="none" stroke="#ff6800"/>
<g stroke="black" stroke-width="1" fill="none">
<line x1="214.933" y1="239.322" x2="215.933" y2="239.322"/>
</g>
<path d="M231.051,292.542v -53.2197" fill="none" stroke="#ff6800"/>
<path d="M231.051,239.322v -53.2197" fill="none" stroke="#ff6800"/>
<path d="M223.492,239.322h 7.55905" fill="none" stroke="#ff6800"/>
<path d="M231.051,239.322h 7.55905" fill="none" stroke="#ff6800"/>
<g stroke="black" stroke-width="1" fill="none">
<line x1="230.051" y1="239.322" x2="231.051" y2="239.322"/>
</g>
<path d="M246.169,208.147v -75.264" fill="none" stroke="#ff6800"/>
<path d="M246.169,132.883v -75.264" fill="none" stroke="#ff6800"/>
<path d="M238.61,132.883h 7.55905" fill="none" stroke="#ff6800"/>
<path d="M246.169,132.883h 7.55905" fill="none" stroke="#ff6800"/>
<g stroke="black" stroke-width="1" fill="none">
<line x1="245.169" y1="132.883" x2="246.169" y2="132.883"/>
</g>
<path d="M261.287,141.308v -88.2549" fill="none" stroke="#ff6800"/>
<path d="M261.287,53.0534v -14.6354" fill="none" stroke="#ff6800"/>
<path d="M253.728,53.0534h 7.55905" fill="none" stroke="#ff6800"/>
<path d="M261.287,53.0534h 7.55905" fill="none" stroke="#ff6800"/>
<g stroke="black" stroke-width="1" fill="none">
<line x1="260.287" y1="53.0534" x2="261.287" y2="53.0534"/>
</g>
<path d="M276.406,141.308v -88.2549" fill="none" stroke="#ff6800"/>
<path d="M276.406,53.0534v -14.6354" fill="none" stroke="#ff6800"/>
<path d="M268.846,53.0534h 7.55905" fill="none" stroke="#ff6800"/>
<path d="M276.406,53.0534h 7.55905" fill="none" stroke="#ff6800"/>
<g stroke="black" stroke-width="1" fill="none">
<line x1="275.406" y1="53.0534" x2="276.406" y2="53.0534"/>
</g>
<path d="M291.524,229.896v -70.4031" fill="none" stroke="#ff6800"/>
<path d="M291.524,159.493v -70.4031" fill="none" stroke="#ff6800"/>
<path d="M283.965,159.493h 7.55905" fill="none" stroke="#ff6800"/>
<path d="M291.524,159.493h 7.55905" fill="none" stroke="#ff6800"/>
<g stroke="black" stroke-width="1" fill="none">
<line x1="290.524" y1="159.493" x2="291.524" y2="159.493"/>
</g>
<path d="M306.642,208.147v -75.264" fill="none" stroke="#ff6800"/>
<path d="M306.642,132.883v -75.264" fill="none" stroke="#ff6800"/>
<path d="M299.083,132.883h 7.55905" fill="none" stroke="#ff6800"/>
<path d="M306.642,132.883h 7.55905" fill="none" stroke="#ff6800"/>
<g stroke="black" stroke-width="1" fill="none">
<line x1="305.642" y1="132.883" x2="306.642" y2="132.883"/>
</g>
<path d="M321.76,208.147v -75.264" fill="none" stroke="#ff6800"/>
<path d="M321.76,132.883v -75.264" fill="none" stroke="#ff6800"/>
<path d="M314.201,132.883h 7.55905" fill="none" stroke="#ff6800"/>
<path d="M321.76,132.883h 7.55905" fill="none" stroke="#ff6800"/>
<g stroke="black" stroke-width="1" fill="none">
<line x1="320.76" y1="132.883" x2="321.76" y2="132.883"/>
</g>
<path d="M336.878,208.147v -75.264" fill="none" stroke="#ff6800"/>
<path d="M336.878,132.883v -75.264" fill="none" stroke="#ff6800"/>
<path d="M329.319,132.883h 7.55905" fill="none" stroke="#ff6800"/>
<path d="M336.878,132.883h 7.55905" fill="none" stroke="#ff6800"/>
<g stroke="black" stroke-width="1" fill="none">
<line x1="335.878" y1="132.883" x2="336.878" y2="132.883"/>
</g>
<path d="M351.996,163.811v -84.1478" fill="none" stroke="#ff6800"/>
<path d="M351.996,79.6633v -41.2453" fill="none" stroke="#ff6800"/>
<path d="M344.437,79.6633h 7.55905" fill="none" stroke="#ff6800"/>
<path d="M351.996,79.6633h 7.55905" fill="none" stroke="#ff6800"/>
<g stroke="black" stroke-width="1" fill="none">
<line x1="350.996" y1="79.6633" x2="351.996" y2="79.6633"/>
</g>
<path d="M367.114,330.174v -37.632" fill="none" stroke="#ff6800"/>
<path d="M367.114,292.542v -37.632" fill="none" stroke="#ff6800"/>
<path d="M359.555,292.542h 7.55905" fill="none" stroke="#ff6800"/>
<path d="M367.114,292.542h 7.55905" fill="none" stroke="#ff6800"/>
<g stroke="black" stroke-width="1" fill="none">
<line x1="366.114" y1="292.542" x2="367.114" y2="292.542"/>
</g>
<g stroke="black" stroke-width="1" fill="none">
<line x1="381.232" y1="345.762" x2="382.232" y2="345.762"/>
</g>
<g stroke="black" stroke-width="1" fill="none">
<line x1="396.35" y1="345.762" x2="397.35" y2="345.762"/>
</g>
<g stroke="black" stroke-width="1" fill="none">
<line x1="411.469" y1="345.762" x2="412.469" y2="345.762"/>
</g>
<g stroke="black" stroke-width="1" fill="none">
<line x1="426.587" y1="345.762" x2="427.587" y2="345.762"/>
</g>
<g stroke="black" stroke-width="1" fill="none">
<line x1="441.705" y1="345.762" x2="442.705" y2="345.762"/>
</g>
<g stroke="black" stroke-width="1" fill="none">
<line x1="456.823" y1="345.762" x2="457.823" y2="345.762"/>
</g>
<g stroke="black" stroke-width="1" fill="none">
<line x1="471.941" y1="345.762" x2="472.941" y2="345.762"/>
</g>
<g stroke="black" stroke-width="1" fill="none">
<line x1="487.059" y1="345.762" x2="488.059" y2="345.762"/>
</g>
<g stroke="black" stroke-width="1" fill="none">
<line x1="502.177" y1="345.762" x2="503.177" y2="345.762"/>
</g>
<path d="M59.4606,345.762h 18.1417l 4.53543, -0.0318619l 4.53543, -0.0149922l 4.53543, -0.021468l 4.53543, -0.0304678l 4.53543, -0.0428552l 4.53543, -0.0597403l 4.53543, -0.082532l 4.53543, -0.112994l 4.53543, -0.153304l 4.53543, -0.206112l 4.53543,
 -0.274592l 4.53543, -0.362484l 4.53543, -0.474123l 4.53543, -0.614431l 4.53543, -0.788884l 4.53543, -1.00343l 4.53543, -1.26436l 4.53543, -1.5781l 4.53543, -1.95095l 4.53543, -2.38876l 4.53543, -2.89649l 4.53543, -3.4778l 4.53543, -4.13448l 4.53543,
 -4.86594l 4.53543, -5.66866l 4.53543, -6.53571l 4.53543, -7.45632l 4.53543, -8.41559l 4.53543, -9.39436l 4.53543, -10.3693l 4.53543, -11.3133l 4.53543, -12.196l 4.53543, -12.9844l 4.53543, -13.6446l 4.53543, -14.1427l 4.53543, -14.4462l 4.53543,
 -14.526l 4.53543, -14.3579l 4.53543, -13.9239l 4.53543, -13.2141l 4.53543, -12.227l 4.53543, -10.9709l 4.53543, -9.46382l 4.53543, -7.73326l 4.53543, -5.81548" fill="none" stroke="#ff6800" stroke-width="2"/>
<path d="M281.697,90.1312l 4.53543, -3.75424l 4.53543, -1.59921l 4.53543, 0.596045l 4.53543, 2.77629l 4.53543, 4.8869l 4.53543, 6.87619l 4.53543, 8.69743l 4.53543, 10.3108l 4.53543, 11.6845l 4.53543, 12.7964l 4.53543, 13.6335l 4.53543, 14.1931l
 4.53543, 14.4811l 4.53543, 14.5121l 4.53543, 14.3076l 4.53543, 13.8948l 4.53543, 13.3046l 4.53543, 12.5706l 4.53543, 11.7269l 4.53543, 10.807l 4.53543, 9.84267l 4.53543, 8.86249l 4.53543, 7.89166l 4.53543, 6.95125l 4.53543, 6.0581l 4.53543, 5.22485l
 4.53543, 4.46015l 4.53543, 3.769l 4.53543, 3.15329l 4.53543, 2.61223l 4.53543, 2.14296l 4.53543, 1.74106l 4.53543, 1.40103l 4.53543, 1.11672l 4.53543, 0.88174l 4.53543, 0.689697l 4.53543, 0.53447l 4.53543, 0.410355l 4.53543, 0.312166l 4.53543,
 0.2353l 4.53543, 0.175746l 4.53543, 0.130075l 4.53543, 0.0954026l 4.53543, 0.0693423l 4.53543, 0.0499484l 4.53543, 0.0356568l 4.53543, 0.0252273l 4.53543, 0.0176896l 4.53543, 0.0380527" fill="none" stroke="#ff6800" stroke-width="2"/>
<path d="M503.933,345.762h 4.53543" fill="none" stroke="#ff6800" stroke-width="2"/>
<rect x="351.996" y="24.9717" width="204.094" height="76.836" fill="white"/>
<path d="M351.996,101.808h 204.094" fill="none" stroke="black"/>
<path d="M556.091,101.808v -76.836" fill="none" stroke="black"/>
<path d="M556.091,24.9717h -204.094" fill="none" stroke="black"/>
<path d="M351.996,24.9717v 76.836" fill="none" stroke="black"/>
<text xml:space="preserve" x="377.37" y="38.9865" fill="black" font-size="16.7131" font-family="Helvetica"> / ndf </text>
<text xml:space="preserve" x="370.872" y="34.1132" fill="black" font-size="11.3087" font-family="Helvetica">2</text>
<text xml:space="preserve" x="361.938" y="38.9865" fill="black" font-size="16.7131" font-family="Times">&#0967;</text>
<text xml:space="preserve" x="471.587" y="40.611" fill="black" font-size="16.7131" font-family="Helvetica"> 7.988 / 11</text>
<text xml:space="preserve" x="361.938" y="60.1042" fill="black" font-size="16.7131" font-family="Helvetica">Constant </text>
<text xml:space="preserve" x="509.762" y="60.1042" fill="black" font-size="16.7131" font-family="Helvetica"> 1.42</text>
<text xml:space="preserve" x="500.827" y="60.1042" fill="black" font-size="16.7131" font-family="Times">&#0177;</text>
<text xml:space="preserve" x="457.78" y="60.1042" fill="black" font-size="16.7131" font-family="Helvetica">  9.81 </text>
<text xml:space="preserve" x="361.938" y="78.7853" fill="black" font-size="16.7131" font-family="Helvetica">Mean     </text>
<text xml:space="preserve" x="521.133" y="78.7853" fill="black" font-size="16.7131" font-family="Helvetica"> 9.1</text>
<text xml:space="preserve" x="512.198" y="78.7853" fill="black" font-size="16.7131" font-family="Times">&#0177;</text>
<text xml:space="preserve" x="461.841" y="78.7853" fill="black" font-size="16.7131" font-family="Helvetica"> 310.4 </text>
<text xml:space="preserve" x="361.938" y="96.6541" fill="black" font-size="16.7131" font-family="Helvetica">Sigma    </text>
<text xml:space="preserve" x="509.762" y="98.2785" fill="black" font-size="16.7131" font-family="Helvetica"> 7.63</text>
<text xml:space="preserve" x="500.827" y="98.2785" fill="black" font-size="16.7131" font-family="Times">&#0177;</text>
<text xml:space="preserve" x="450.47" y="98.2785" fill="black" font-size="16.7131" font-family="Helvetica"> 65.34 </text>
<text xml:space="preserve" x="199.494" y="17.8688" fill="black" font-size="18.7414" font-family="Helvetica">sector 10, vop 69.08</text></svg>
