<?xml version="1.0" standalone="no"?>
<svg width="567.429" height="384.68" viewBox="0 0 567.429 384.68" xmlns="http://www.w3.org/2000/svg" shape-rendering="crispEdges">
<title>
./vop_by_sector/sector-16_vop-69.23.svg
</title>
<desc>
Creator: ROOT Version 6.22/02
CreationDate: Tue Jun 15 19:03:40 2021</desc>
<defs>
</defs>
<rect x="0.5" y="0" width="566.929" height="384.18" fill="white"/>
<rect x="57.1929" y="38.418" width="453.543" height="307.344" fill="white"/>
<rect x="57.1929" y="38.418" width="453.543" height="307.344" fill="none" stroke="black"/>
<path d="M57.1929,345.762h 211.654v -34.4363h 15.1181v -17.2181h 15.1181v -137.745h 15.1181v -51.6544h 15.1181v -51.6544h 15.1181v 172.181h 15.1181v 34.4363h 15.1181v 86.0907h 136.063" fill="none" stroke="#cea262"/>
<path d="M59.4606,345.762h 167.811l 4.53543, -0.0313969l 4.53543, -0.0403956l 4.53543, -0.0859834l 4.53543, -0.175475l 4.53543, -0.343256l 4.53543, -0.643398l 4.53543, -1.15514l 4.53543, -1.98554l 4.53543, -3.2657l 4.53543, -5.13603l 4.53543,
 -7.7173l 4.53543, -11.0668" fill="none" stroke="#cea262" stroke-width="2"/>
<path d="M281.697,314.115l 4.53543, -15.1251l 4.53543, -19.6652l 4.53543, -24.2627l 4.53543, -28.307l 4.53543, -31.0677l 4.53543, -31.8167l 4.53543, -29.9869l 4.53543, -25.3303l 4.53543, -18.0286l 4.53543, -8.71609l 4.53543, 1.60408l 4.53543,
 11.7371l 4.53543, 20.5241l 4.53543, 27.0602l 4.53543, 30.8462l 4.53543, 31.8396l 4.53543, 30.4014l 4.53543, 27.1657l 4.53543, 22.8773l 4.53543, 18.2404l 4.53543, 13.8125l 4.53543, 9.9565l 4.53543, 6.84322l 4.53543, 4.49045l 4.53543, 2.81597l
 4.53543, 1.68896l 4.53543, 0.969479l 4.53543, 0.532864l 4.53543, 0.28057l 4.53543, 0.14157l 4.53543, 0.0684764l 4.53543, 0.0559164h 77.1024" fill="none" stroke="#cea262" stroke-width="2"/>
<path d="M503.933,345.762h 4.53543" fill="none" stroke="#cea262" stroke-width="2"/>
<path d="M57.1929,345.762h 453.543" fill="none" stroke="black"/>
<path d="M57.1929,336.541v 9.22031" fill="none" stroke="black"/>
<path d="M72.311,341.152v 4.61016" fill="none" stroke="black"/>
<path d="M87.4291,341.152v 4.61016" fill="none" stroke="black"/>
<path d="M102.547,341.152v 4.61016" fill="none" stroke="black"/>
<path d="M117.665,341.152v 4.61016" fill="none" stroke="black"/>
<path d="M132.783,336.541v 9.22031" fill="none" stroke="black"/>
<path d="M147.902,341.152v 4.61016" fill="none" stroke="black"/>
<path d="M163.02,341.152v 4.61016" fill="none" stroke="black"/>
<path d="M178.138,341.152v 4.61016" fill="none" stroke="black"/>
<path d="M193.256,341.152v 4.61016" fill="none" stroke="black"/>
<path d="M208.374,336.541v 9.22031" fill="none" stroke="black"/>
<path d="M223.492,341.152v 4.61016" fill="none" stroke="black"/>
<path d="M238.61,341.152v 4.61016" fill="none" stroke="black"/>
<path d="M253.728,341.152v 4.61016" fill="none" stroke="black"/>
<path d="M268.846,341.152v 4.61016" fill="none" stroke="black"/>
<path d="M283.965,336.541v 9.22031" fill="none" stroke="black"/>
<path d="M299.083,341.152v 4.61016" fill="none" stroke="black"/>
<path d="M314.201,341.152v 4.61016" fill="none" stroke="black"/>
<path d="M329.319,341.152v 4.61016" fill="none" stroke="black"/>
<path d="M344.437,341.152v 4.61016" fill="none" stroke="black"/>
<path d="M359.555,336.541v 9.22031" fill="none" stroke="black"/>
<path d="M374.673,341.152v 4.61016" fill="none" stroke="black"/>
<path d="M389.791,341.152v 4.61016" fill="none" stroke="black"/>
<path d="M404.909,341.152v 4.61016" fill="none" stroke="black"/>
<path d="M420.028,341.152v 4.61016" fill="none" stroke="black"/>
<path d="M435.146,336.541v 9.22031" fill="none" stroke="black"/>
<path d="M450.264,341.152v 4.61016" fill="none" stroke="black"/>
<path d="M465.382,341.152v 4.61016" fill="none" stroke="black"/>
<path d="M480.5,341.152v 4.61016" fill="none" stroke="black"/>
<path d="M495.618,341.152v 4.61016" fill="none" stroke="black"/>
<path d="M510.736,336.541v 9.22031" fill="none" stroke="black"/>
<text xml:space="preserve" x="53.2943" y="358.189" fill="black" font-size="12.836" font-family="Helvetica">0</text>
<text xml:space="preserve" x="121.521" y="358.189" fill="black" font-size="12.836" font-family="Helvetica">100</text>
<text xml:space="preserve" x="197.057" y="358.189" fill="black" font-size="12.836" font-family="Helvetica">200</text>
<text xml:space="preserve" x="273.406" y="358.189" fill="black" font-size="12.836" font-family="Helvetica">300</text>
<text xml:space="preserve" x="348.942" y="358.189" fill="black" font-size="12.836" font-family="Helvetica">400</text>
<text xml:space="preserve" x="424.479" y="358.189" fill="black" font-size="12.836" font-family="Helvetica">500</text>
<text xml:space="preserve" x="500.015" y="358.189" fill="black" font-size="12.836" font-family="Helvetica">600</text>
<text xml:space="preserve" x="487.019" y="369.56" fill="black" font-size="12.836" font-family="Helvetica">mpv</text>
<path d="M57.1929,345.762v -307.344" fill="none" stroke="black"/>
<path d="M70.7992,345.762h -13.6063" fill="none" stroke="black"/>
<path d="M63.9961,337.153h -6.80315" fill="none" stroke="black"/>
<path d="M63.9961,328.544h -6.80315" fill="none" stroke="black"/>
<path d="M63.9961,319.935h -6.80315" fill="none" stroke="black"/>
<path d="M70.7992,311.326h -13.6063" fill="none" stroke="black"/>
<path d="M63.9961,302.716h -6.80315" fill="none" stroke="black"/>
<path d="M63.9961,294.107h -6.80315" fill="none" stroke="black"/>
<path d="M63.9961,285.498h -6.80315" fill="none" stroke="black"/>
<path d="M70.7992,276.889h -13.6063" fill="none" stroke="black"/>
<path d="M63.9961,268.28h -6.80315" fill="none" stroke="black"/>
<path d="M63.9961,259.671h -6.80315" fill="none" stroke="black"/>
<path d="M63.9961,251.062h -6.80315" fill="none" stroke="black"/>
<path d="M70.7992,242.453h -13.6063" fill="none" stroke="black"/>
<path d="M63.9961,233.844h -6.80315" fill="none" stroke="black"/>
<path d="M63.9961,225.235h -6.80315" fill="none" stroke="black"/>
<path d="M63.9961,216.626h -6.80315" fill="none" stroke="black"/>
<path d="M70.7992,208.017h -13.6063" fill="none" stroke="black"/>
<path d="M63.9961,199.408h -6.80315" fill="none" stroke="black"/>
<path d="M63.9961,190.799h -6.80315" fill="none" stroke="black"/>
<path d="M63.9961,182.189h -6.80315" fill="none" stroke="black"/>
<path d="M70.7992,173.58h -13.6063" fill="none" stroke="black"/>
<path d="M63.9961,164.971h -6.80315" fill="none" stroke="black"/>
<path d="M63.9961,156.362h -6.80315" fill="none" stroke="black"/>
<path d="M63.9961,147.753h -6.80315" fill="none" stroke="black"/>
<path d="M70.7992,139.144h -13.6063" fill="none" stroke="black"/>
<path d="M63.9961,130.535h -6.80315" fill="none" stroke="black"/>
<path d="M63.9961,121.926h -6.80315" fill="none" stroke="black"/>
<path d="M63.9961,113.317h -6.80315" fill="none" stroke="black"/>
<path d="M70.7992,104.708h -13.6063" fill="none" stroke="black"/>
<path d="M63.9961,96.0988h -6.80315" fill="none" stroke="black"/>
<path d="M63.9961,87.4897h -6.80315" fill="none" stroke="black"/>
<path d="M63.9961,78.8806h -6.80315" fill="none" stroke="black"/>
<path d="M70.7992,70.2715h -13.6063" fill="none" stroke="black"/>
<path d="M70.7992,70.2715h -13.6063" fill="none" stroke="black"/>
<path d="M63.9961,61.6625h -6.80315" fill="none" stroke="black"/>
<path d="M63.9961,53.0534h -6.80315" fill="none" stroke="black"/>
<path d="M63.9961,44.4443h -6.80315" fill="none" stroke="black"/>
<text xml:space="preserve" x="47.6087" y="350.067" fill="black" font-size="12.836" font-family="Helvetica">0</text>
<text xml:space="preserve" x="47.6087" y="315.953" fill="black" font-size="12.836" font-family="Helvetica">2</text>
<text xml:space="preserve" x="47.6087" y="281.028" fill="black" font-size="12.836" font-family="Helvetica">4</text>
<text xml:space="preserve" x="47.6087" y="246.915" fill="black" font-size="12.836" font-family="Helvetica">6</text>
<text xml:space="preserve" x="47.6087" y="212.801" fill="black" font-size="12.836" font-family="Helvetica">8</text>
<text xml:space="preserve" x="41.111" y="177.876" fill="black" font-size="12.836" font-family="Helvetica">10</text>
<text xml:space="preserve" x="40.2988" y="143.763" fill="black" font-size="12.836" font-family="Helvetica">12</text>
<text xml:space="preserve" x="40.2988" y="108.837" fill="black" font-size="12.836" font-family="Helvetica">14</text>
<text xml:space="preserve" x="40.2988" y="74.7242" fill="black" font-size="12.836" font-family="Helvetica">16</text>
<g transform="rotate(-90,27.3032,86.0953)">
<text xml:space="preserve" x="27.3032" y="86.0953" fill="black" font-size="12.836" font-family="Helvetica">n_blocks</text>
</g>
<text xml:space="preserve" x="199.494" y="17.8688" fill="black" font-size="18.7414" font-family="Helvetica">sector 16, vop 69.23</text>
<rect x="351.996" y="24.9717" width="204.094" height="76.836" fill="white"/>
<path d="M351.996,101.808h 204.094" fill="none" stroke="black"/>
<path d="M556.091,101.808v -76.836" fill="none" stroke="black"/>
<path d="M556.091,24.9717h -204.094" fill="none" stroke="black"/>
<path d="M351.996,24.9717v 76.836" fill="none" stroke="black"/>
<text xml:space="preserve" x="377.37" y="38.9865" fill="black" font-size="16.7131" font-family="Helvetica"> / ndf </text>
<text xml:space="preserve" x="370.872" y="34.1132" fill="black" font-size="11.3087" font-family="Helvetica">2</text>
<text xml:space="preserve" x="361.938" y="38.9865" fill="black" font-size="16.7131" font-family="Times">&#0967;</text>
<text xml:space="preserve" x="478.085" y="40.611" fill="black" font-size="16.7131" font-family="Helvetica"> 2.346 / 4</text>
<text xml:space="preserve" x="361.938" y="60.1042" fill="black" font-size="16.7131" font-family="Helvetica">Constant </text>
<text xml:space="preserve" x="509.762" y="60.1042" fill="black" font-size="16.7131" font-family="Helvetica"> 2.84</text>
<text xml:space="preserve" x="500.827" y="60.1042" fill="black" font-size="16.7131" font-family="Times">&#0177;</text>
<text xml:space="preserve" x="450.47" y="60.1042" fill="black" font-size="16.7131" font-family="Helvetica"> 15.37 </text>
<text xml:space="preserve" x="361.938" y="78.7853" fill="black" font-size="16.7131" font-family="Helvetica">Mean     </text>
<text xml:space="preserve" x="518.696" y="78.7853" fill="black" font-size="16.7131" font-family="Helvetica"> 4.5</text>
<text xml:space="preserve" x="509.762" y="78.7853" fill="black" font-size="16.7131" font-family="Times">&#0177;</text>
<text xml:space="preserve" x="461.841" y="78.7853" fill="black" font-size="16.7131" font-family="Helvetica"> 359.1 </text>
<text xml:space="preserve" x="361.938" y="96.6541" fill="black" font-size="16.7131" font-family="Helvetica">Sigma    </text>
<text xml:space="preserve" x="509.762" y="98.2785" fill="black" font-size="16.7131" font-family="Helvetica"> 4.54</text>
<text xml:space="preserve" x="500.827" y="98.2785" fill="black" font-size="16.7131" font-family="Times">&#0177;</text>
<text xml:space="preserve" x="450.47" y="98.2785" fill="black" font-size="16.7131" font-family="Helvetica"> 30.12 </text>
<g stroke="black" stroke-width="1" fill="none">
<line x1="63.752" y1="345.762" x2="64.752" y2="345.762"/>
</g>
<g stroke="black" stroke-width="1" fill="none">
<line x1="78.8701" y1="345.762" x2="79.8701" y2="345.762"/>
</g>
<g stroke="black" stroke-width="1" fill="none">
<line x1="93.9882" y1="345.762" x2="94.9882" y2="345.762"/>
</g>
<g stroke="black" stroke-width="1" fill="none">
<line x1="109.106" y1="345.762" x2="110.106" y2="345.762"/>
</g>
<g stroke="black" stroke-width="1" fill="none">
<line x1="124.224" y1="345.762" x2="125.224" y2="345.762"/>
</g>
<g stroke="black" stroke-width="1" fill="none">
<line x1="139.343" y1="345.762" x2="140.343" y2="345.762"/>
</g>
<g stroke="black" stroke-width="1" fill="none">
<line x1="154.461" y1="345.762" x2="155.461" y2="345.762"/>
</g>
<g stroke="black" stroke-width="1" fill="none">
<line x1="169.579" y1="345.762" x2="170.579" y2="345.762"/>
</g>
<g stroke="black" stroke-width="1" fill="none">
<line x1="184.697" y1="345.762" x2="185.697" y2="345.762"/>
</g>
<g stroke="black" stroke-width="1" fill="none">
<line x1="199.815" y1="345.762" x2="200.815" y2="345.762"/>
</g>
<g stroke="black" stroke-width="1" fill="none">
<line x1="214.933" y1="345.762" x2="215.933" y2="345.762"/>
</g>
<g stroke="black" stroke-width="1" fill="none">
<line x1="230.051" y1="345.762" x2="231.051" y2="345.762"/>
</g>
<g stroke="black" stroke-width="1" fill="none">
<line x1="245.169" y1="345.762" x2="246.169" y2="345.762"/>
</g>
<g stroke="black" stroke-width="1" fill="none">
<line x1="260.287" y1="345.762" x2="261.287" y2="345.762"/>
</g>
<path d="M276.406,335.676v -24.3501" fill="none" stroke="#cea262"/>
<path d="M276.406,311.326v -24.3501" fill="none" stroke="#cea262"/>
<path d="M268.846,311.326h 7.55905" fill="none" stroke="#cea262"/>
<path d="M276.406,311.326h 7.55905" fill="none" stroke="#cea262"/>
<g stroke="black" stroke-width="1" fill="none">
<line x1="275.406" y1="311.326" x2="276.406" y2="311.326"/>
</g>
<path d="M291.524,323.93v -29.8227" fill="none" stroke="#cea262"/>
<path d="M291.524,294.107v -29.8227" fill="none" stroke="#cea262"/>
<path d="M283.965,294.107h 7.55905" fill="none" stroke="#cea262"/>
<path d="M291.524,294.107h 7.55905" fill="none" stroke="#cea262"/>
<g stroke="black" stroke-width="1" fill="none">
<line x1="290.524" y1="294.107" x2="291.524" y2="294.107"/>
</g>
<path d="M306.642,213.468v -57.1061" fill="none" stroke="#cea262"/>
<path d="M306.642,156.362v -57.1061" fill="none" stroke="#cea262"/>
<path d="M299.083,156.362h 7.55905" fill="none" stroke="#cea262"/>
<path d="M306.642,156.362h 7.55905" fill="none" stroke="#cea262"/>
<g stroke="black" stroke-width="1" fill="none">
<line x1="305.642" y1="156.362" x2="306.642" y2="156.362"/>
</g>
<path d="M321.76,169.132v -64.4244" fill="none" stroke="#cea262"/>
<path d="M321.76,104.708v -64.4244" fill="none" stroke="#cea262"/>
<path d="M314.201,104.708h 7.55905" fill="none" stroke="#cea262"/>
<path d="M321.76,104.708h 7.55905" fill="none" stroke="#cea262"/>
<g stroke="black" stroke-width="1" fill="none">
<line x1="320.76" y1="104.708" x2="321.76" y2="104.708"/>
</g>
<path d="M336.878,124.046v -70.9922" fill="none" stroke="#cea262"/>
<path d="M336.878,53.0534v -14.6354" fill="none" stroke="#cea262"/>
<path d="M329.319,53.0534h 7.55905" fill="none" stroke="#cea262"/>
<path d="M336.878,53.0534h 7.55905" fill="none" stroke="#cea262"/>
<g stroke="black" stroke-width="1" fill="none">
<line x1="335.878" y1="53.0534" x2="336.878" y2="53.0534"/>
</g>
<path d="M351.996,270.79v -45.5549" fill="none" stroke="#cea262"/>
<path d="M351.996,225.235v -45.5549" fill="none" stroke="#cea262"/>
<path d="M344.437,225.235h 7.55905" fill="none" stroke="#cea262"/>
<path d="M351.996,225.235h 7.55905" fill="none" stroke="#cea262"/>
<g stroke="black" stroke-width="1" fill="none">
<line x1="350.996" y1="225.235" x2="351.996" y2="225.235"/>
</g>
<path d="M367.114,298.172v -38.5009" fill="none" stroke="#cea262"/>
<path d="M367.114,259.671v -38.5009" fill="none" stroke="#cea262"/>
<path d="M359.555,259.671h 7.55905" fill="none" stroke="#cea262"/>
<path d="M367.114,259.671h 7.55905" fill="none" stroke="#cea262"/>
<g stroke="black" stroke-width="1" fill="none">
<line x1="366.114" y1="259.671" x2="367.114" y2="259.671"/>
</g>
<g stroke="black" stroke-width="1" fill="none">
<line x1="381.232" y1="345.762" x2="382.232" y2="345.762"/>
</g>
<g stroke="black" stroke-width="1" fill="none">
<line x1="396.35" y1="345.762" x2="397.35" y2="345.762"/>
</g>
<g stroke="black" stroke-width="1" fill="none">
<line x1="411.469" y1="345.762" x2="412.469" y2="345.762"/>
</g>
<g stroke="black" stroke-width="1" fill="none">
<line x1="426.587" y1="345.762" x2="427.587" y2="345.762"/>
</g>
<g stroke="black" stroke-width="1" fill="none">
<line x1="441.705" y1="345.762" x2="442.705" y2="345.762"/>
</g>
<g stroke="black" stroke-width="1" fill="none">
<line x1="456.823" y1="345.762" x2="457.823" y2="345.762"/>
</g>
<g stroke="black" stroke-width="1" fill="none">
<line x1="471.941" y1="345.762" x2="472.941" y2="345.762"/>
</g>
<g stroke="black" stroke-width="1" fill="none">
<line x1="487.059" y1="345.762" x2="488.059" y2="345.762"/>
</g>
<g stroke="black" stroke-width="1" fill="none">
<line x1="502.177" y1="345.762" x2="503.177" y2="345.762"/>
</g>
<path d="M59.4606,345.762h 167.811l 4.53543, -0.0313969l 4.53543, -0.0403956l 4.53543, -0.0859834l 4.53543, -0.175475l 4.53543, -0.343256l 4.53543, -0.643398l 4.53543, -1.15514l 4.53543, -1.98554l 4.53543, -3.2657l 4.53543, -5.13603l 4.53543,
 -7.7173l 4.53543, -11.0668" fill="none" stroke="#cea262" stroke-width="2"/>
<path d="M281.697,314.115l 4.53543, -15.1251l 4.53543, -19.6652l 4.53543, -24.2627l 4.53543, -28.307l 4.53543, -31.0677l 4.53543, -31.8167l 4.53543, -29.9869l 4.53543, -25.3303l 4.53543, -18.0286l 4.53543, -8.71609l 4.53543, 1.60408l 4.53543,
 11.7371l 4.53543, 20.5241l 4.53543, 27.0602l 4.53543, 30.8462l 4.53543, 31.8396l 4.53543, 30.4014l 4.53543, 27.1657l 4.53543, 22.8773l 4.53543, 18.2404l 4.53543, 13.8125l 4.53543, 9.9565l 4.53543, 6.84322l 4.53543, 4.49045l 4.53543, 2.81597l
 4.53543, 1.68896l 4.53543, 0.969479l 4.53543, 0.532864l 4.53543, 0.28057l 4.53543, 0.14157l 4.53543, 0.0684764l 4.53543, 0.0559164h 77.1024" fill="none" stroke="#cea262" stroke-width="2"/>
<path d="M503.933,345.762h 4.53543" fill="none" stroke="#cea262" stroke-width="2"/>
<rect x="351.996" y="24.9717" width="204.094" height="76.836" fill="white"/>
<path d="M351.996,101.808h 204.094" fill="none" stroke="black"/>
<path d="M556.091,101.808v -76.836" fill="none" stroke="black"/>
<path d="M556.091,24.9717h -204.094" fill="none" stroke="black"/>
<path d="M351.996,24.9717v 76.836" fill="none" stroke="black"/>
<text xml:space="preserve" x="377.37" y="38.9865" fill="black" font-size="16.7131" font-family="Helvetica"> / ndf </text>
<text xml:space="preserve" x="370.872" y="34.1132" fill="black" font-size="11.3087" font-family="Helvetica">2</text>
<text xml:space="preserve" x="361.938" y="38.9865" fill="black" font-size="16.7131" font-family="Times">&#0967;</text>
<text xml:space="preserve" x="478.085" y="40.611" fill="black" font-size="16.7131" font-family="Helvetica"> 2.346 / 4</text>
<text xml:space="preserve" x="361.938" y="60.1042" fill="black" font-size="16.7131" font-family="Helvetica">Constant </text>
<text xml:space="preserve" x="509.762" y="60.1042" fill="black" font-size="16.7131" font-family="Helvetica"> 2.84</text>
<text xml:space="preserve" x="500.827" y="60.1042" fill="black" font-size="16.7131" font-family="Times">&#0177;</text>
<text xml:space="preserve" x="450.47" y="60.1042" fill="black" font-size="16.7131" font-family="Helvetica"> 15.37 </text>
<text xml:space="preserve" x="361.938" y="78.7853" fill="black" font-size="16.7131" font-family="Helvetica">Mean     </text>
<text xml:space="preserve" x="518.696" y="78.7853" fill="black" font-size="16.7131" font-family="Helvetica"> 4.5</text>
<text xml:space="preserve" x="509.762" y="78.7853" fill="black" font-size="16.7131" font-family="Times">&#0177;</text>
<text xml:space="preserve" x="461.841" y="78.7853" fill="black" font-size="16.7131" font-family="Helvetica"> 359.1 </text>
<text xml:space="preserve" x="361.938" y="96.6541" fill="black" font-size="16.7131" font-family="Helvetica">Sigma    </text>
<text xml:space="preserve" x="509.762" y="98.2785" fill="black" font-size="16.7131" font-family="Helvetica"> 4.54</text>
<text xml:space="preserve" x="500.827" y="98.2785" fill="black" font-size="16.7131" font-family="Times">&#0177;</text>
<text xml:space="preserve" x="450.47" y="98.2785" fill="black" font-size="16.7131" font-family="Helvetica"> 30.12 </text>
<text xml:space="preserve" x="199.494" y="17.8688" fill="black" font-size="18.7414" font-family="Helvetica">sector 16, vop 69.23</text></svg>
