<?xml version="1.0" standalone="no"?>
<svg width="567.429" height="384.969" viewBox="0 0 567.429 384.969" xmlns="http://www.w3.org/2000/svg" shape-rendering="crispEdges">
<title>
./new_vop/vop_by_sector/vop-69.08_all.svg
</title>
<desc>
Creator: ROOT Version 6.24/00
CreationDate: Mon Jul 19 21:24:20 2021</desc>
<defs>
</defs>
<rect x="0.5" y="0" width="566.929" height="384.469" fill="white"/>
<rect x="57.1929" y="38.4469" width="453.543" height="307.575" fill="white"/>
<rect x="57.1929" y="38.4469" width="453.543" height="307.575" fill="none" stroke="black"/>
<path d="M57.1929,346.022h 453.543" fill="none" stroke="#000099"/>
<path d="M57.1929,346.022h 453.543" fill="none" stroke="black"/>
<path d="M57.1929,336.795v 9.22726" fill="none" stroke="black"/>
<path d="M72.311,341.409v 4.61363" fill="none" stroke="black"/>
<path d="M87.4291,341.409v 4.61363" fill="none" stroke="black"/>
<path d="M102.547,341.409v 4.61363" fill="none" stroke="black"/>
<path d="M117.665,341.409v 4.61363" fill="none" stroke="black"/>
<path d="M132.783,336.795v 9.22726" fill="none" stroke="black"/>
<path d="M147.902,341.409v 4.61363" fill="none" stroke="black"/>
<path d="M163.02,341.409v 4.61363" fill="none" stroke="black"/>
<path d="M178.138,341.409v 4.61363" fill="none" stroke="black"/>
<path d="M193.256,341.409v 4.61363" fill="none" stroke="black"/>
<path d="M208.374,336.795v 9.22726" fill="none" stroke="black"/>
<path d="M223.492,341.409v 4.61363" fill="none" stroke="black"/>
<path d="M238.61,341.409v 4.61363" fill="none" stroke="black"/>
<path d="M253.728,341.409v 4.61363" fill="none" stroke="black"/>
<path d="M268.846,341.409v 4.61363" fill="none" stroke="black"/>
<path d="M283.965,336.795v 9.22726" fill="none" stroke="black"/>
<path d="M299.083,341.409v 4.61363" fill="none" stroke="black"/>
<path d="M314.201,341.409v 4.61363" fill="none" stroke="black"/>
<path d="M329.319,341.409v 4.61363" fill="none" stroke="black"/>
<path d="M344.437,341.409v 4.61363" fill="none" stroke="black"/>
<path d="M359.555,336.795v 9.22726" fill="none" stroke="black"/>
<path d="M374.673,341.409v 4.61363" fill="none" stroke="black"/>
<path d="M389.791,341.409v 4.61363" fill="none" stroke="black"/>
<path d="M404.909,341.409v 4.61363" fill="none" stroke="black"/>
<path d="M420.028,341.409v 4.61363" fill="none" stroke="black"/>
<path d="M435.146,336.795v 9.22726" fill="none" stroke="black"/>
<path d="M450.264,341.409v 4.61363" fill="none" stroke="black"/>
<path d="M465.382,341.409v 4.61363" fill="none" stroke="black"/>
<path d="M480.5,341.409v 4.61363" fill="none" stroke="black"/>
<path d="M495.618,341.409v 4.61363" fill="none" stroke="black"/>
<path d="M510.736,336.795v 9.22726" fill="none" stroke="black"/>
<text xml:space="preserve" x="53.446" y="358.403" fill="black" font-size="12.8453" font-family="Helvetica">0</text>
<text xml:space="preserve" x="121.868" y="358.403" fill="black" font-size="12.8453" font-family="Helvetica">100</text>
<text xml:space="preserve" x="197.622" y="358.403" fill="black" font-size="12.8453" font-family="Helvetica">200</text>
<text xml:space="preserve" x="273.375" y="358.403" fill="black" font-size="12.8453" font-family="Helvetica">300</text>
<text xml:space="preserve" x="348.314" y="358.403" fill="black" font-size="12.8453" font-family="Helvetica">400</text>
<text xml:space="preserve" x="424.068" y="358.403" fill="black" font-size="12.8453" font-family="Helvetica">500</text>
<text xml:space="preserve" x="499.821" y="358.403" fill="black" font-size="12.8453" font-family="Helvetica">600</text>
<text xml:space="preserve" x="486.788" y="369.807" fill="black" font-size="12.8453" font-family="Helvetica">mpv</text>
<path d="M57.1929,346.022v -307.575" fill="none" stroke="black"/>
<path d="M70.7992,346.022h -13.6063" fill="none" stroke="black"/>
<path d="M63.9961,336.258h -6.80315" fill="none" stroke="black"/>
<path d="M63.9961,326.494h -6.80315" fill="none" stroke="black"/>
<path d="M63.9961,316.729h -6.80315" fill="none" stroke="black"/>
<path d="M70.7992,306.965h -13.6063" fill="none" stroke="black"/>
<path d="M63.9961,297.201h -6.80315" fill="none" stroke="black"/>
<path d="M63.9961,287.436h -6.80315" fill="none" stroke="black"/>
<path d="M63.9961,277.672h -6.80315" fill="none" stroke="black"/>
<path d="M70.7992,267.908h -13.6063" fill="none" stroke="black"/>
<path d="M63.9961,258.144h -6.80315" fill="none" stroke="black"/>
<path d="M63.9961,248.379h -6.80315" fill="none" stroke="black"/>
<path d="M63.9961,238.615h -6.80315" fill="none" stroke="black"/>
<path d="M70.7992,228.851h -13.6063" fill="none" stroke="black"/>
<path d="M63.9961,219.086h -6.80315" fill="none" stroke="black"/>
<path d="M63.9961,209.322h -6.80315" fill="none" stroke="black"/>
<path d="M63.9961,199.558h -6.80315" fill="none" stroke="black"/>
<path d="M70.7992,189.794h -13.6063" fill="none" stroke="black"/>
<path d="M63.9961,180.029h -6.80315" fill="none" stroke="black"/>
<path d="M63.9961,170.265h -6.80315" fill="none" stroke="black"/>
<path d="M63.9961,160.501h -6.80315" fill="none" stroke="black"/>
<path d="M70.7992,150.736h -13.6063" fill="none" stroke="black"/>
<path d="M63.9961,140.972h -6.80315" fill="none" stroke="black"/>
<path d="M63.9961,131.208h -6.80315" fill="none" stroke="black"/>
<path d="M63.9961,121.443h -6.80315" fill="none" stroke="black"/>
<path d="M70.7992,111.679h -13.6063" fill="none" stroke="black"/>
<path d="M63.9961,101.915h -6.80315" fill="none" stroke="black"/>
<path d="M63.9961,92.1506h -6.80315" fill="none" stroke="black"/>
<path d="M63.9961,82.3863h -6.80315" fill="none" stroke="black"/>
<path d="M70.7992,72.622h -13.6063" fill="none" stroke="black"/>
<path d="M70.7992,72.622h -13.6063" fill="none" stroke="black"/>
<path d="M63.9961,62.8577h -6.80315" fill="none" stroke="black"/>
<path d="M63.9961,53.0934h -6.80315" fill="none" stroke="black"/>
<path d="M63.9961,43.3291h -6.80315" fill="none" stroke="black"/>
<text xml:space="preserve" x="47.7441" y="350.258" fill="black" font-size="12.8453" font-family="Helvetica">0</text>
<text xml:space="preserve" x="47.7441" y="311.159" fill="black" font-size="12.8453" font-family="Helvetica">2</text>
<text xml:space="preserve" x="47.7441" y="272.061" fill="black" font-size="12.8453" font-family="Helvetica">4</text>
<text xml:space="preserve" x="47.7441" y="232.962" fill="black" font-size="12.8453" font-family="Helvetica">6</text>
<text xml:space="preserve" x="47.7441" y="194.678" fill="black" font-size="12.8453" font-family="Helvetica">8</text>
<text xml:space="preserve" x="41.2277" y="155.58" fill="black" font-size="12.8453" font-family="Helvetica">10</text>
<text xml:space="preserve" x="40.4131" y="116.481" fill="black" font-size="12.8453" font-family="Helvetica">12</text>
<text xml:space="preserve" x="40.4131" y="77.3826" fill="black" font-size="12.8453" font-family="Helvetica">14</text>
<g transform="rotate(-90,27.3803,86.3427)">
<text xml:space="preserve" x="27.3803" y="86.3427" fill="black" font-size="12.8453" font-family="Helvetica">n_blocks</text>
</g>
<text xml:space="preserve" x="242.422" y="17.9202" fill="black" font-size="18.7938" font-family="Helvetica">vop 69.08</text>
<rect x="57.6465" y="346.022" width="3.55276" height="0" fill="#007d34" fill-opacity="0.50" stroke-opacity="0.50"/>
<rect x="72.7646" y="346.022" width="3.55276" height="0" fill="#007d34" fill-opacity="0.50" stroke-opacity="0.50"/>
<rect x="87.8827" y="346.022" width="3.55276" height="0" fill="#007d34" fill-opacity="0.50" stroke-opacity="0.50"/>
<rect x="103.001" y="346.022" width="3.55276" height="0" fill="#007d34" fill-opacity="0.50" stroke-opacity="0.50"/>
<rect x="118.119" y="346.022" width="3.55276" height="0" fill="#007d34" fill-opacity="0.50" stroke-opacity="0.50"/>
<rect x="133.237" y="346.022" width="3.55276" height="0" fill="#007d34" fill-opacity="0.50" stroke-opacity="0.50"/>
<rect x="148.355" y="346.022" width="3.55276" height="0" fill="#007d34" fill-opacity="0.50" stroke-opacity="0.50"/>
<rect x="163.473" y="346.022" width="3.55276" height="0" fill="#007d34" fill-opacity="0.50" stroke-opacity="0.50"/>
<rect x="178.591" y="346.022" width="3.55276" height="0" fill="#007d34" fill-opacity="0.50" stroke-opacity="0.50"/>
<rect x="193.709" y="346.022" width="3.55276" height="0" fill="#007d34" fill-opacity="0.50" stroke-opacity="0.50"/>
<rect x="208.828" y="267.908" width="3.55276" height="78.1144" fill="#007d34" fill-opacity="0.50" stroke-opacity="0.50"/>
<rect x="223.946" y="267.908" width="3.55276" height="78.1144" fill="#007d34" fill-opacity="0.50" stroke-opacity="0.50"/>
<rect x="239.064" y="248.379" width="3.55276" height="97.643" fill="#007d34" fill-opacity="0.50" stroke-opacity="0.50"/>
<rect x="254.182" y="248.379" width="3.55276" height="97.643" fill="#007d34" fill-opacity="0.50" stroke-opacity="0.50"/>
<rect x="269.3" y="267.908" width="3.55276" height="78.1144" fill="#007d34" fill-opacity="0.50" stroke-opacity="0.50"/>
<rect x="284.418" y="248.379" width="3.55276" height="97.643" fill="#007d34" fill-opacity="0.50" stroke-opacity="0.50"/>
<rect x="299.536" y="346.022" width="3.55276" height="0" fill="#007d34" fill-opacity="0.50" stroke-opacity="0.50"/>
<rect x="314.654" y="346.022" width="3.55276" height="0" fill="#007d34" fill-opacity="0.50" stroke-opacity="0.50"/>
<rect x="329.772" y="346.022" width="3.55276" height="0" fill="#007d34" fill-opacity="0.50" stroke-opacity="0.50"/>
<rect x="344.891" y="346.022" width="3.55276" height="0" fill="#007d34" fill-opacity="0.50" stroke-opacity="0.50"/>
<rect x="360.009" y="346.022" width="3.55276" height="0" fill="#007d34" fill-opacity="0.50" stroke-opacity="0.50"/>
<rect x="375.127" y="346.022" width="3.55276" height="0" fill="#007d34" fill-opacity="0.50" stroke-opacity="0.50"/>
<rect x="390.245" y="346.022" width="3.55276" height="0" fill="#007d34" fill-opacity="0.50" stroke-opacity="0.50"/>
<rect x="405.363" y="346.022" width="3.55276" height="0" fill="#007d34" fill-opacity="0.50" stroke-opacity="0.50"/>
<rect x="420.481" y="346.022" width="3.55276" height="0" fill="#007d34" fill-opacity="0.50" stroke-opacity="0.50"/>
<rect x="435.599" y="346.022" width="3.55276" height="0" fill="#007d34" fill-opacity="0.50" stroke-opacity="0.50"/>
<rect x="450.717" y="346.022" width="3.55276" height="0" fill="#007d34" fill-opacity="0.50" stroke-opacity="0.50"/>
<rect x="465.835" y="346.022" width="3.55276" height="0" fill="#007d34" fill-opacity="0.50" stroke-opacity="0.50"/>
<rect x="480.954" y="346.022" width="3.55276" height="0" fill="#007d34" fill-opacity="0.50" stroke-opacity="0.50"/>
<rect x="496.072" y="346.022" width="3.55276" height="0" fill="#007d34" fill-opacity="0.50" stroke-opacity="0.50"/>
<path d="M59.4606,336.793l 4.53543, -0.932121l 4.53543, -1.00325l 4.53543, -1.07708l 4.53543, -1.15338l 4.53543, -1.2319l 4.53543, -1.31234l 4.53543, -1.39435l 4.53543, -1.47755l 4.53543, -1.56151l 4.53543, -1.64575l 4.53543, -1.72974l 4.53543,
 -1.81294l 4.53543, -1.89475l 4.53543, -1.97453l 4.53543, -2.05164l 4.53543, -2.12539l 4.53543, -2.19508l 4.53543, -2.25999l 4.53543, -2.31941l 4.53543, -2.37262l 4.53543, -2.4189l 4.53543, -2.45757l 4.53543, -2.48796l 4.53543, -2.50943l 4.53543,
 -2.52139l 4.53543, -2.52331l 4.53543, -2.51469l 4.53543, -2.49512l 4.53543, -2.46427l 4.53543, -2.42186l 4.53543, -2.36773l 4.53543, -2.30179l 4.53543, -2.22405l 4.53543, -2.13463l 4.53543, -2.03374l 4.53543, -1.92169l 4.53543, -1.7989l 4.53543,
 -1.66588l 4.53543, -1.52325l 4.53543, -1.37171l 4.53543, -1.21205l 4.53543, -1.04514l 4.53543, -0.871923l 4.53543, -0.693411l 4.53543, -0.51066l 4.53543, -0.324774l 4.53543, -0.136888l 4.53543, 0.051843l 4.53543, 0.240254" fill="none"
 stroke="#007d34" stroke-width="2"/>
<path d="M281.697,254.607l 4.53543, 0.427184l 4.53543, 0.611487l 4.53543, 0.792044l 4.53543, 0.967774l 4.53543, 1.13765l 4.53543, 1.30069l 4.53543, 1.45599l 4.53543, 1.60273l 4.53543, 1.74016l 4.53543, 1.86764l 4.53543, 1.98459l 4.53543, 2.09055l
 4.53543, 2.18518l 4.53543, 2.2682l 4.53543, 2.33947l 4.53543, 2.39892l 4.53543, 2.44659l 4.53543, 2.48263l 4.53543, 2.50725l 4.53543, 2.52075l 4.53543, 2.52353l 4.53543, 2.51603l 4.53543, 2.49878l 4.53543, 2.47233l 4.53543, 2.43732l 4.53543,
 2.39438l 4.53543, 2.34421l 4.53543, 2.2875l 4.53543, 2.22498l 4.53543, 2.15735l 4.53543, 2.08535l 4.53543, 2.00967l 4.53543, 1.931l 4.53543, 1.85003l 4.53543, 1.76738l 4.53543, 1.68368l 4.53543, 1.59948l 4.53543, 1.51534l 4.53543, 1.43174l 4.53543,
 1.34914l 4.53543, 1.26794l 4.53543, 1.18851l 4.53543, 1.11118l 4.53543, 1.03621l 4.53543, 0.963842l 4.53543, 0.894266l 4.53543, 0.827635l 4.53543, 0.764065l 4.53543, 0.703638" fill="none" stroke="#007d34" stroke-width="2"/>
<path d="M503.933,339.571l 4.53543, 0.6464" fill="none" stroke="#007d34" stroke-width="2"/>
<rect x="61.1992" y="326.494" width="3.55276" height="19.5286" fill="#f6768e" fill-opacity="0.50" stroke-opacity="0.50"/>
<rect x="76.3173" y="346.022" width="3.55276" height="0" fill="#f6768e" fill-opacity="0.50" stroke-opacity="0.50"/>
<rect x="91.4354" y="346.022" width="3.55276" height="0" fill="#f6768e" fill-opacity="0.50" stroke-opacity="0.50"/>
<rect x="106.554" y="346.022" width="3.55276" height="0" fill="#f6768e" fill-opacity="0.50" stroke-opacity="0.50"/>
<rect x="121.672" y="346.022" width="3.55276" height="0" fill="#f6768e" fill-opacity="0.50" stroke-opacity="0.50"/>
<rect x="136.79" y="326.494" width="3.55276" height="19.5286" fill="#f6768e" fill-opacity="0.50" stroke-opacity="0.50"/>
<rect x="151.908" y="346.022" width="3.55276" height="0" fill="#f6768e" fill-opacity="0.50" stroke-opacity="0.50"/>
<rect x="167.026" y="346.022" width="3.55276" height="0" fill="#f6768e" fill-opacity="0.50" stroke-opacity="0.50"/>
<rect x="182.144" y="326.494" width="3.55276" height="19.5286" fill="#f6768e" fill-opacity="0.50" stroke-opacity="0.50"/>
<rect x="197.262" y="248.379" width="3.55276" height="97.643" fill="#f6768e" fill-opacity="0.50" stroke-opacity="0.50"/>
<rect x="212.38" y="209.322" width="3.55276" height="136.7" fill="#f6768e" fill-opacity="0.50" stroke-opacity="0.50"/>
<rect x="227.498" y="53.0934" width="3.55276" height="292.929" fill="#f6768e" fill-opacity="0.50" stroke-opacity="0.50"/>
<rect x="242.617" y="150.736" width="3.55276" height="195.286" fill="#f6768e" fill-opacity="0.50" stroke-opacity="0.50"/>
<rect x="257.735" y="170.265" width="3.55276" height="175.757" fill="#f6768e" fill-opacity="0.50" stroke-opacity="0.50"/>
<rect x="272.853" y="111.679" width="3.55276" height="234.343" fill="#f6768e" fill-opacity="0.50" stroke-opacity="0.50"/>
<rect x="287.971" y="131.208" width="3.55276" height="214.815" fill="#f6768e" fill-opacity="0.50" stroke-opacity="0.50"/>
<rect x="303.089" y="228.851" width="3.55276" height="117.172" fill="#f6768e" fill-opacity="0.50" stroke-opacity="0.50"/>
<rect x="318.207" y="189.794" width="3.55276" height="156.229" fill="#f6768e" fill-opacity="0.50" stroke-opacity="0.50"/>
<rect x="333.325" y="306.965" width="3.55276" height="39.0572" fill="#f6768e" fill-opacity="0.50" stroke-opacity="0.50"/>
<rect x="348.443" y="326.494" width="3.55276" height="19.5286" fill="#f6768e" fill-opacity="0.50" stroke-opacity="0.50"/>
<rect x="363.561" y="346.022" width="3.55276" height="0" fill="#f6768e" fill-opacity="0.50" stroke-opacity="0.50"/>
<rect x="378.68" y="346.022" width="3.55276" height="0" fill="#f6768e" fill-opacity="0.50" stroke-opacity="0.50"/>
<rect x="393.798" y="346.022" width="3.55276" height="0" fill="#f6768e" fill-opacity="0.50" stroke-opacity="0.50"/>
<rect x="408.916" y="346.022" width="3.55276" height="0" fill="#f6768e" fill-opacity="0.50" stroke-opacity="0.50"/>
<rect x="424.034" y="346.022" width="3.55276" height="0" fill="#f6768e" fill-opacity="0.50" stroke-opacity="0.50"/>
<rect x="439.152" y="346.022" width="3.55276" height="0" fill="#f6768e" fill-opacity="0.50" stroke-opacity="0.50"/>
<rect x="454.27" y="346.022" width="3.55276" height="0" fill="#f6768e" fill-opacity="0.50" stroke-opacity="0.50"/>
<rect x="469.388" y="346.022" width="3.55276" height="0" fill="#f6768e" fill-opacity="0.50" stroke-opacity="0.50"/>
<rect x="484.506" y="346.022" width="3.55276" height="0" fill="#f6768e" fill-opacity="0.50" stroke-opacity="0.50"/>
<rect x="499.624" y="346.022" width="3.55276" height="0" fill="#f6768e" fill-opacity="0.50" stroke-opacity="0.50"/>
<path d="M59.4606,346.022h 27.2126l 4.53543, -0.0332683l 4.53543, -0.0194508l 4.53543, -0.0298043l 4.53543, -0.0450785l 4.53543, -0.0672965l 4.53543, -0.099158l 4.53543, -0.144196l 4.53543, -0.20694l 4.53543, -0.293072l 4.53543, -0.409557l 4.53543,
 -0.564719l 4.53543, -0.768233l 4.53543, -1.03099l 4.53543, -1.36483l 4.53543, -1.78201l 4.53543, -2.29453l 4.53543, -2.9132l 4.53543, -3.6464l 4.53543, -4.49881l 4.53543, -5.46984l 4.53543, -6.5522l 4.53543, -7.7305l 4.53543, -8.98024l 4.53543,
 -10.2672l 4.53543, -11.5474l 4.53543, -12.7681l 4.53543, -13.8697l 4.53543, -14.7877l 4.53543, -15.4571l 4.53543, -15.8158l 4.53543, -15.8093l 4.53543, -15.3952l 4.53543, -14.5474l 4.53543, -13.2594l 4.53543, -11.5465l 4.53543, -9.44619l 4.53543,
 -7.01771l 4.53543, -4.33912l 4.53543, -1.50327l 4.53543, 1.38751l 4.53543, 4.22758l 4.53543, 6.91437l 4.53543, 9.35451" fill="none" stroke="#f6768e" stroke-width="2"/>
<path d="M281.697,131.585l 4.53543, 11.4693l 4.53543, 13.1986l 4.53543, 14.5041l 4.53543, 15.3696l 4.53543, 15.8007l 4.53543, 15.8229l 4.53543, 15.4779l 4.53543, 14.8199l 4.53543, 13.9105l 4.53543, 12.8151l 4.53543, 11.5979l 4.53543, 10.319l 4.53543,
 9.03148l 4.53543, 7.77952l 4.53543, 6.59781l 4.53543, 5.51124l 4.53543, 4.53555l 4.53543, 3.67833l 4.53543, 2.94039l 4.53543, 2.31727l 4.53543, 1.80068l 4.53543, 1.3799l 4.53543, 1.04295l 4.53543, 0.777568l 4.53543, 0.571892l 4.53543, 0.414983l
 4.53543, 0.297114l 4.53543, 0.209906l 4.53543, 0.146341l 4.53543, 0.100686l 4.53543, 0.0683697l 4.53543, 0.0458215l 4.53543, 0.0303113l 4.53543, 0.0197921l 4.53543, 0.0338972h 63.4961" fill="none" stroke="#f6768e" stroke-width="2"/>
<path d="M503.933,346.022h 4.53543" fill="none" stroke="#f6768e" stroke-width="2"/>
<rect x="64.752" y="346.022" width="3.55276" height="0" fill="#00538a" fill-opacity="0.50" stroke-opacity="0.50"/>
<rect x="79.8701" y="346.022" width="3.55276" height="0" fill="#00538a" fill-opacity="0.50" stroke-opacity="0.50"/>
<rect x="94.9882" y="346.022" width="3.55276" height="0" fill="#00538a" fill-opacity="0.50" stroke-opacity="0.50"/>
<rect x="110.106" y="346.022" width="3.55276" height="0" fill="#00538a" fill-opacity="0.50" stroke-opacity="0.50"/>
<rect x="125.224" y="346.022" width="3.55276" height="0" fill="#00538a" fill-opacity="0.50" stroke-opacity="0.50"/>
<rect x="140.343" y="346.022" width="3.55276" height="0" fill="#00538a" fill-opacity="0.50" stroke-opacity="0.50"/>
<rect x="155.461" y="326.494" width="3.55276" height="19.5286" fill="#00538a" fill-opacity="0.50" stroke-opacity="0.50"/>
<rect x="170.579" y="346.022" width="3.55276" height="0" fill="#00538a" fill-opacity="0.50" stroke-opacity="0.50"/>
<rect x="185.697" y="326.494" width="3.55276" height="19.5286" fill="#00538a" fill-opacity="0.50" stroke-opacity="0.50"/>
<rect x="200.815" y="326.494" width="3.55276" height="19.5286" fill="#00538a" fill-opacity="0.50" stroke-opacity="0.50"/>
<rect x="215.933" y="267.908" width="3.55276" height="78.1144" fill="#00538a" fill-opacity="0.50" stroke-opacity="0.50"/>
<rect x="231.051" y="267.908" width="3.55276" height="78.1144" fill="#00538a" fill-opacity="0.50" stroke-opacity="0.50"/>
<rect x="246.169" y="189.794" width="3.55276" height="156.229" fill="#00538a" fill-opacity="0.50" stroke-opacity="0.50"/>
<rect x="261.287" y="131.208" width="3.55276" height="214.815" fill="#00538a" fill-opacity="0.50" stroke-opacity="0.50"/>
<rect x="276.406" y="131.208" width="3.55276" height="214.815" fill="#00538a" fill-opacity="0.50" stroke-opacity="0.50"/>
<rect x="291.524" y="209.322" width="3.55276" height="136.7" fill="#00538a" fill-opacity="0.50" stroke-opacity="0.50"/>
<rect x="306.642" y="189.794" width="3.55276" height="156.229" fill="#00538a" fill-opacity="0.50" stroke-opacity="0.50"/>
<rect x="321.76" y="189.794" width="3.55276" height="156.229" fill="#00538a" fill-opacity="0.50" stroke-opacity="0.50"/>
<rect x="336.878" y="189.794" width="3.55276" height="156.229" fill="#00538a" fill-opacity="0.50" stroke-opacity="0.50"/>
<rect x="351.996" y="150.736" width="3.55276" height="195.286" fill="#00538a" fill-opacity="0.50" stroke-opacity="0.50"/>
<rect x="367.114" y="306.965" width="3.55276" height="39.0572" fill="#00538a" fill-opacity="0.50" stroke-opacity="0.50"/>
<rect x="382.232" y="346.022" width="3.55276" height="0" fill="#00538a" fill-opacity="0.50" stroke-opacity="0.50"/>
<rect x="397.35" y="346.022" width="3.55276" height="0" fill="#00538a" fill-opacity="0.50" stroke-opacity="0.50"/>
<rect x="412.469" y="346.022" width="3.55276" height="0" fill="#00538a" fill-opacity="0.50" stroke-opacity="0.50"/>
<rect x="427.587" y="346.022" width="3.55276" height="0" fill="#00538a" fill-opacity="0.50" stroke-opacity="0.50"/>
<rect x="442.705" y="346.022" width="3.55276" height="0" fill="#00538a" fill-opacity="0.50" stroke-opacity="0.50"/>
<rect x="457.823" y="346.022" width="3.55276" height="0" fill="#00538a" fill-opacity="0.50" stroke-opacity="0.50"/>
<rect x="472.941" y="346.022" width="3.55276" height="0" fill="#00538a" fill-opacity="0.50" stroke-opacity="0.50"/>
<rect x="488.059" y="346.022" width="3.55276" height="0" fill="#00538a" fill-opacity="0.50" stroke-opacity="0.50"/>
<rect x="503.177" y="346.022" width="3.55276" height="0" fill="#00538a" fill-opacity="0.50" stroke-opacity="0.50"/>
<path d="M59.4606,346.022h 22.6772l 4.53543, -0.0343856l 4.53543, -0.0157551l 4.53543, -0.0223599l 4.53543, -0.0314508l 4.53543, -0.0438426l 4.53543, -0.0605691l 4.53543, -0.0829248l 4.53543, -0.112508l 4.53543, -0.151263l 4.53543, -0.201519l
 4.53543, -0.266022l 4.53543, -0.347952l 4.53543, -0.450922l 4.53543, -0.578951l 4.53543, -0.736404l 4.53543, -0.927897l 4.53543, -1.15814l 4.53543, -1.43177l 4.53543, -1.75307l 4.53543, -2.12569l 4.53543, -2.55231l 4.53543, -3.03424l 4.53543,
 -3.57104l 4.53543, -4.16015l 4.53543, -4.79646l 4.53543, -5.47208l 4.53543, -6.17608l 4.53543, -6.89439l 4.53543, -7.60991l 4.53543, -8.30269l 4.53543, -8.95043l 4.53543, -9.52907l 4.53543, -10.0136l 4.53543, -10.3791l 4.53543, -10.6019l 4.53543,
 -10.6604l 4.53543, -10.5371l 4.53543, -10.2186l 4.53543, -9.6976l 4.53543, -8.97319l 4.53543, -8.05137l 4.53543, -6.94536l 4.53543, -5.67533l 4.53543, -4.26789" fill="none" stroke="#00538a" stroke-width="2"/>
<path d="M281.697,158.419l 4.53543, -2.75518l 4.53543, -1.17364l 4.53543, 0.437429l 4.53543, 2.03748l 4.53543, 3.58643l 4.53543, 5.04634l 4.53543, 6.38292l 4.53543, 7.56692l 4.53543, 8.57511l 4.53543, 9.39106l 4.53543, 10.0055l 4.53543, 10.4161l
 4.53543, 10.6275l 4.53543, 10.6502l 4.53543, 10.5002l 4.53543, 10.1972l 4.53543, 9.76405l 4.53543, 9.22537l 4.53543, 8.60619l 4.53543, 7.93113l 4.53543, 7.22339l 4.53543, 6.50406l 4.53543, 5.79158l 4.53543, 5.10142l 4.53543, 4.44596l 4.53543,
 3.83445l 4.53543, 3.27324l 4.53543, 2.76602l 4.53543, 2.31415l 4.53543, 1.91708l 4.53543, 1.57269l 4.53543, 1.27774l 4.53543, 1.0282l 4.53543, 0.819548l 4.53543, 0.647097l 4.53543, 0.506159l 4.53543, 0.39224l 4.53543, 0.301153l 4.53543, 0.229094l
 4.53543, 0.172683l 4.53543, 0.128978l 4.53543, 0.0954602l 4.53543, 0.0700146l 4.53543, 0.0508893l 4.53543, 0.0366564l 4.53543, 0.026168l 4.53543, 0.018514l 4.53543, 0.0409085h 4.53543" fill="none" stroke="#00538a" stroke-width="2"/>
<path d="M503.933,346.022h 4.53543" fill="none" stroke="#00538a" stroke-width="2"/>
<rect x="68.3047" y="346.022" width="3.55276" height="0" fill="#ff7a5c" fill-opacity="0.50" stroke-opacity="0.50"/>
<rect x="83.4228" y="346.022" width="3.55276" height="0" fill="#ff7a5c" fill-opacity="0.50" stroke-opacity="0.50"/>
<rect x="98.5409" y="346.022" width="3.55276" height="0" fill="#ff7a5c" fill-opacity="0.50" stroke-opacity="0.50"/>
<rect x="113.659" y="346.022" width="3.55276" height="0" fill="#ff7a5c" fill-opacity="0.50" stroke-opacity="0.50"/>
<rect x="128.777" y="346.022" width="3.55276" height="0" fill="#ff7a5c" fill-opacity="0.50" stroke-opacity="0.50"/>
<rect x="143.895" y="346.022" width="3.55276" height="0" fill="#ff7a5c" fill-opacity="0.50" stroke-opacity="0.50"/>
<rect x="159.013" y="346.022" width="3.55276" height="0" fill="#ff7a5c" fill-opacity="0.50" stroke-opacity="0.50"/>
<rect x="174.132" y="346.022" width="3.55276" height="0" fill="#ff7a5c" fill-opacity="0.50" stroke-opacity="0.50"/>
<rect x="189.25" y="346.022" width="3.55276" height="0" fill="#ff7a5c" fill-opacity="0.50" stroke-opacity="0.50"/>
<rect x="204.368" y="346.022" width="3.55276" height="0" fill="#ff7a5c" fill-opacity="0.50" stroke-opacity="0.50"/>
<rect x="219.486" y="287.436" width="3.55276" height="58.5858" fill="#ff7a5c" fill-opacity="0.50" stroke-opacity="0.50"/>
<rect x="234.604" y="209.322" width="3.55276" height="136.7" fill="#ff7a5c" fill-opacity="0.50" stroke-opacity="0.50"/>
<rect x="249.722" y="248.379" width="3.55276" height="97.643" fill="#ff7a5c" fill-opacity="0.50" stroke-opacity="0.50"/>
<rect x="264.84" y="150.736" width="3.55276" height="195.286" fill="#ff7a5c" fill-opacity="0.50" stroke-opacity="0.50"/>
<rect x="279.958" y="228.851" width="3.55276" height="117.172" fill="#ff7a5c" fill-opacity="0.50" stroke-opacity="0.50"/>
<rect x="295.076" y="228.851" width="3.55276" height="117.172" fill="#ff7a5c" fill-opacity="0.50" stroke-opacity="0.50"/>
<rect x="310.194" y="306.965" width="3.55276" height="39.0572" fill="#ff7a5c" fill-opacity="0.50" stroke-opacity="0.50"/>
<rect x="325.313" y="346.022" width="3.55276" height="0" fill="#ff7a5c" fill-opacity="0.50" stroke-opacity="0.50"/>
<rect x="340.431" y="287.436" width="3.55276" height="58.5858" fill="#ff7a5c" fill-opacity="0.50" stroke-opacity="0.50"/>
<rect x="355.549" y="346.022" width="3.55276" height="0" fill="#ff7a5c" fill-opacity="0.50" stroke-opacity="0.50"/>
<rect x="370.667" y="346.022" width="3.55276" height="0" fill="#ff7a5c" fill-opacity="0.50" stroke-opacity="0.50"/>
<rect x="385.785" y="346.022" width="3.55276" height="0" fill="#ff7a5c" fill-opacity="0.50" stroke-opacity="0.50"/>
<rect x="400.903" y="346.022" width="3.55276" height="0" fill="#ff7a5c" fill-opacity="0.50" stroke-opacity="0.50"/>
<rect x="416.021" y="346.022" width="3.55276" height="0" fill="#ff7a5c" fill-opacity="0.50" stroke-opacity="0.50"/>
<rect x="431.139" y="346.022" width="3.55276" height="0" fill="#ff7a5c" fill-opacity="0.50" stroke-opacity="0.50"/>
<rect x="446.257" y="346.022" width="3.55276" height="0" fill="#ff7a5c" fill-opacity="0.50" stroke-opacity="0.50"/>
<rect x="461.376" y="346.022" width="3.55276" height="0" fill="#ff7a5c" fill-opacity="0.50" stroke-opacity="0.50"/>
<rect x="476.494" y="346.022" width="3.55276" height="0" fill="#ff7a5c" fill-opacity="0.50" stroke-opacity="0.50"/>
<rect x="491.612" y="346.022" width="3.55276" height="0" fill="#ff7a5c" fill-opacity="0.50" stroke-opacity="0.50"/>
<rect x="506.73" y="346.022" width="3.55276" height="0" fill="#ff7a5c" fill-opacity="0.50" stroke-opacity="0.50"/>
<path d="M59.4606,346.022h 49.8898l 4.53543, -0.0494965l 4.53543, -0.0309462l 4.53543, -0.0483054l 4.53543, -0.0741777l 4.53543, -0.112049l 4.53543, -0.166481l 4.53543, -0.24328l 4.53543, -0.349612l 4.53543, -0.494036l 4.53543, -0.686385l 4.53543,
 -0.937459l 4.53543, -1.25847l 4.53543, -1.66019l 4.53543, -2.15183l 4.53543, -2.73959l 4.53543, -3.42504l 4.53543, -4.20346l 4.53543, -5.06213l 4.53543, -5.97917l 4.53543, -6.92275l 4.53543, -7.85128l 4.53543, -8.7145l 4.53543, -9.45582l 4.53543,
 -10.0157l 4.53543, -10.336l 4.53543, -10.3651l 4.53543, -10.0627l 4.53543, -9.40504l 4.53543, -8.38837l 4.53543, -7.03138l 4.53543, -5.37551l 4.53543, -3.48324l 4.53543, -1.43426l 4.53543, 0.680026l 4.53543, 2.76329l 4.53543, 4.72155l 4.53543,
 6.47022l 4.53543, 7.9401" fill="none" stroke="#ff7a5c" stroke-width="2"/>
<path d="M281.697,230.084l 4.53543, 9.08192l 4.53543, 9.86879l 4.53543, 10.2966l 4.53543, 10.3823l 4.53543, 10.1608l 4.53543, 9.68017l 4.53543, 8.99692l 4.53543, 8.17059l 4.53543, 7.25927l 4.53543, 6.31582l 4.53543, 5.3851l 4.53543, 4.50251l 4.53543,
 3.69345l 4.53543, 2.9738l 4.53543, 2.35096l 4.53543, 1.82543l 4.53543, 1.39246l 4.53543, 1.04374l 4.53543, 0.768922l 4.53543, 0.556831l 4.53543, 0.396442l 4.53543, 0.27753l 4.53543, 0.191057l 4.53543, 0.129355l 4.53543, 0.0861416l 4.53543,
 0.0564272l 4.53543, 0.0363615l 4.53543, 0.0230517l 4.53543, 0.0359455h 90.7087" fill="none" stroke="#ff7a5c" stroke-width="2"/>
<path d="M503.933,346.022h 4.53543" fill="none" stroke="#ff7a5c" stroke-width="2"/>
<path d="M57.1929,346.022h 453.543" fill="none" stroke="black"/>
<path d="M57.1929,336.795v 9.22726" fill="none" stroke="black"/>
<path d="M72.311,341.409v 4.61363" fill="none" stroke="black"/>
<path d="M87.4291,341.409v 4.61363" fill="none" stroke="black"/>
<path d="M102.547,341.409v 4.61363" fill="none" stroke="black"/>
<path d="M117.665,341.409v 4.61363" fill="none" stroke="black"/>
<path d="M132.783,336.795v 9.22726" fill="none" stroke="black"/>
<path d="M147.902,341.409v 4.61363" fill="none" stroke="black"/>
<path d="M163.02,341.409v 4.61363" fill="none" stroke="black"/>
<path d="M178.138,341.409v 4.61363" fill="none" stroke="black"/>
<path d="M193.256,341.409v 4.61363" fill="none" stroke="black"/>
<path d="M208.374,336.795v 9.22726" fill="none" stroke="black"/>
<path d="M223.492,341.409v 4.61363" fill="none" stroke="black"/>
<path d="M238.61,341.409v 4.61363" fill="none" stroke="black"/>
<path d="M253.728,341.409v 4.61363" fill="none" stroke="black"/>
<path d="M268.846,341.409v 4.61363" fill="none" stroke="black"/>
<path d="M283.965,336.795v 9.22726" fill="none" stroke="black"/>
<path d="M299.083,341.409v 4.61363" fill="none" stroke="black"/>
<path d="M314.201,341.409v 4.61363" fill="none" stroke="black"/>
<path d="M329.319,341.409v 4.61363" fill="none" stroke="black"/>
<path d="M344.437,341.409v 4.61363" fill="none" stroke="black"/>
<path d="M359.555,336.795v 9.22726" fill="none" stroke="black"/>
<path d="M374.673,341.409v 4.61363" fill="none" stroke="black"/>
<path d="M389.791,341.409v 4.61363" fill="none" stroke="black"/>
<path d="M404.909,341.409v 4.61363" fill="none" stroke="black"/>
<path d="M420.028,341.409v 4.61363" fill="none" stroke="black"/>
<path d="M435.146,336.795v 9.22726" fill="none" stroke="black"/>
<path d="M450.264,341.409v 4.61363" fill="none" stroke="black"/>
<path d="M465.382,341.409v 4.61363" fill="none" stroke="black"/>
<path d="M480.5,341.409v 4.61363" fill="none" stroke="black"/>
<path d="M495.618,341.409v 4.61363" fill="none" stroke="black"/>
<path d="M510.736,336.795v 9.22726" fill="none" stroke="black"/>
<path d="M57.1929,346.022v -307.575" fill="none" stroke="black"/>
<path d="M70.7992,346.022h -13.6063" fill="none" stroke="black"/>
<path d="M63.9961,336.258h -6.80315" fill="none" stroke="black"/>
<path d="M63.9961,326.494h -6.80315" fill="none" stroke="black"/>
<path d="M63.9961,316.729h -6.80315" fill="none" stroke="black"/>
<path d="M70.7992,306.965h -13.6063" fill="none" stroke="black"/>
<path d="M63.9961,297.201h -6.80315" fill="none" stroke="black"/>
<path d="M63.9961,287.436h -6.80315" fill="none" stroke="black"/>
<path d="M63.9961,277.672h -6.80315" fill="none" stroke="black"/>
<path d="M70.7992,267.908h -13.6063" fill="none" stroke="black"/>
<path d="M63.9961,258.144h -6.80315" fill="none" stroke="black"/>
<path d="M63.9961,248.379h -6.80315" fill="none" stroke="black"/>
<path d="M63.9961,238.615h -6.80315" fill="none" stroke="black"/>
<path d="M70.7992,228.851h -13.6063" fill="none" stroke="black"/>
<path d="M63.9961,219.086h -6.80315" fill="none" stroke="black"/>
<path d="M63.9961,209.322h -6.80315" fill="none" stroke="black"/>
<path d="M63.9961,199.558h -6.80315" fill="none" stroke="black"/>
<path d="M70.7992,189.794h -13.6063" fill="none" stroke="black"/>
<path d="M63.9961,180.029h -6.80315" fill="none" stroke="black"/>
<path d="M63.9961,170.265h -6.80315" fill="none" stroke="black"/>
<path d="M63.9961,160.501h -6.80315" fill="none" stroke="black"/>
<path d="M70.7992,150.736h -13.6063" fill="none" stroke="black"/>
<path d="M63.9961,140.972h -6.80315" fill="none" stroke="black"/>
<path d="M63.9961,131.208h -6.80315" fill="none" stroke="black"/>
<path d="M63.9961,121.443h -6.80315" fill="none" stroke="black"/>
<path d="M70.7992,111.679h -13.6063" fill="none" stroke="black"/>
<path d="M63.9961,101.915h -6.80315" fill="none" stroke="black"/>
<path d="M63.9961,92.1506h -6.80315" fill="none" stroke="black"/>
<path d="M63.9961,82.3863h -6.80315" fill="none" stroke="black"/>
<path d="M70.7992,72.622h -13.6063" fill="none" stroke="black"/>
<path d="M70.7992,72.622h -13.6063" fill="none" stroke="black"/>
<path d="M63.9961,62.8577h -6.80315" fill="none" stroke="black"/>
<path d="M63.9961,53.0934h -6.80315" fill="none" stroke="black"/>
<path d="M63.9961,43.3291h -6.80315" fill="none" stroke="black"/>
<rect x="58.0145" y="123.766" width="170.079" height="80.7385" fill="white"/>
<path d="M58.0145,204.505h 170.079" fill="none" stroke="black"/>
<path d="M228.093,204.505v -80.7385" fill="none" stroke="black"/>
<path d="M228.093,123.766h -170.079" fill="none" stroke="black"/>
<path d="M58.0145,123.766v 80.7385" fill="none" stroke="black"/>
<text xml:space="preserve" x="99.8755" y="137.66" fill="black" font-size="12.4567" font-family="Helvetica">sector 8</text>
<path d="M64.3925,140.923h 29.7638v -14.1292h -29.7638z" fill="#007d34" fill-opacity="0.50" stroke-opacity="0.50"/>
<path d="M64.3925,133.859h 29.7638" fill="none" stroke="#007d34" fill-opacity="0.00" stroke-opacity="0.00"/>
<g stroke="black" stroke-width="1" fill="none">
<line x1="78.2744" y1="133.859" x2="79.2744" y2="133.859"/>
</g>
<text xml:space="preserve" x="99.8755" y="158.023" fill="black" font-size="12.4567" font-family="Helvetica">sector 9</text>
<path d="M64.3925,161.108h 29.7638v -14.1292h -29.7638z" fill="#f6768e" fill-opacity="0.50" stroke-opacity="0.50"/>
<path d="M64.3925,154.043h 29.7638" fill="none" stroke="#f6768e" fill-opacity="0.00" stroke-opacity="0.00"/>
<g stroke="black" stroke-width="1" fill="none">
<line x1="78.2744" y1="154.043" x2="79.2744" y2="154.043"/>
</g>
<text xml:space="preserve" x="99.8755" y="178.387" fill="black" font-size="12.4567" font-family="Helvetica">sector 10</text>
<path d="M64.3925,181.293h 29.7638v -14.1292h -29.7638z" fill="#00538a" fill-opacity="0.50" stroke-opacity="0.50"/>
<path d="M64.3925,174.228h 29.7638" fill="none" stroke="#00538a" fill-opacity="0.00" stroke-opacity="0.00"/>
<g stroke="black" stroke-width="1" fill="none">
<line x1="78.2744" y1="174.228" x2="79.2744" y2="174.228"/>
</g>
<text xml:space="preserve" x="99.8755" y="198.751" fill="black" font-size="12.4567" font-family="Helvetica">sector 11</text>
<path d="M64.3925,201.477h 29.7638v -14.1292h -29.7638z" fill="#ff7a5c" fill-opacity="0.50" stroke-opacity="0.50"/>
<path d="M64.3925,194.413h 29.7638" fill="none" stroke="#ff7a5c" fill-opacity="0.00" stroke-opacity="0.00"/>
<g stroke="black" stroke-width="1" fill="none">
<line x1="78.2744" y1="194.413" x2="79.2744" y2="194.413"/>
</g>
<text xml:space="preserve" x="242.422" y="17.9202" fill="black" font-size="18.7938" font-family="Helvetica">vop 69.08</text></svg>
