<?xml version="1.0" standalone="no"?>
<svg width="567.429" height="384.969" viewBox="0 0 567.429 384.969" xmlns="http://www.w3.org/2000/svg" shape-rendering="crispEdges">
<title>
./new_vop/vop_by_sector/vop-69.23_all.svg
</title>
<desc>
Creator: ROOT Version 6.22/02
CreationDate: Sat Jun 26 01:13:22 2021</desc>
<defs>
</defs>
<rect x="0.5" y="0" width="566.929" height="384.469" fill="white"/>
<rect x="57.1929" y="38.4469" width="453.543" height="307.575" fill="white"/>
<rect x="57.1929" y="38.4469" width="453.543" height="307.575" fill="none" stroke="black"/>
<path d="M57.1929,346.022h 453.543" fill="none" stroke="#000099"/>
<path d="M57.1929,346.022h 453.543" fill="none" stroke="black"/>
<path d="M57.1929,336.795v 9.22726" fill="none" stroke="black"/>
<path d="M72.311,341.409v 4.61363" fill="none" stroke="black"/>
<path d="M87.4291,341.409v 4.61363" fill="none" stroke="black"/>
<path d="M102.547,341.409v 4.61363" fill="none" stroke="black"/>
<path d="M117.665,341.409v 4.61363" fill="none" stroke="black"/>
<path d="M132.783,336.795v 9.22726" fill="none" stroke="black"/>
<path d="M147.902,341.409v 4.61363" fill="none" stroke="black"/>
<path d="M163.02,341.409v 4.61363" fill="none" stroke="black"/>
<path d="M178.138,341.409v 4.61363" fill="none" stroke="black"/>
<path d="M193.256,341.409v 4.61363" fill="none" stroke="black"/>
<path d="M208.374,336.795v 9.22726" fill="none" stroke="black"/>
<path d="M223.492,341.409v 4.61363" fill="none" stroke="black"/>
<path d="M238.61,341.409v 4.61363" fill="none" stroke="black"/>
<path d="M253.728,341.409v 4.61363" fill="none" stroke="black"/>
<path d="M268.846,341.409v 4.61363" fill="none" stroke="black"/>
<path d="M283.965,336.795v 9.22726" fill="none" stroke="black"/>
<path d="M299.083,341.409v 4.61363" fill="none" stroke="black"/>
<path d="M314.201,341.409v 4.61363" fill="none" stroke="black"/>
<path d="M329.319,341.409v 4.61363" fill="none" stroke="black"/>
<path d="M344.437,341.409v 4.61363" fill="none" stroke="black"/>
<path d="M359.555,336.795v 9.22726" fill="none" stroke="black"/>
<path d="M374.673,341.409v 4.61363" fill="none" stroke="black"/>
<path d="M389.791,341.409v 4.61363" fill="none" stroke="black"/>
<path d="M404.909,341.409v 4.61363" fill="none" stroke="black"/>
<path d="M420.028,341.409v 4.61363" fill="none" stroke="black"/>
<path d="M435.146,336.795v 9.22726" fill="none" stroke="black"/>
<path d="M450.264,341.409v 4.61363" fill="none" stroke="black"/>
<path d="M465.382,341.409v 4.61363" fill="none" stroke="black"/>
<path d="M480.5,341.409v 4.61363" fill="none" stroke="black"/>
<path d="M495.618,341.409v 4.61363" fill="none" stroke="black"/>
<path d="M510.736,336.795v 9.22726" fill="none" stroke="black"/>
<text xml:space="preserve" x="53.446" y="358.403" fill="black" font-size="12.8453" font-family="Helvetica">0</text>
<text xml:space="preserve" x="121.868" y="358.403" fill="black" font-size="12.8453" font-family="Helvetica">100</text>
<text xml:space="preserve" x="197.622" y="358.403" fill="black" font-size="12.8453" font-family="Helvetica">200</text>
<text xml:space="preserve" x="273.375" y="358.403" fill="black" font-size="12.8453" font-family="Helvetica">300</text>
<text xml:space="preserve" x="348.314" y="358.403" fill="black" font-size="12.8453" font-family="Helvetica">400</text>
<text xml:space="preserve" x="424.068" y="358.403" fill="black" font-size="12.8453" font-family="Helvetica">500</text>
<text xml:space="preserve" x="499.821" y="358.403" fill="black" font-size="12.8453" font-family="Helvetica">600</text>
<text xml:space="preserve" x="486.788" y="369.807" fill="black" font-size="12.8453" font-family="Helvetica">mpv</text>
<path d="M57.1929,346.022v -307.575" fill="none" stroke="black"/>
<path d="M70.7992,346.022h -13.6063" fill="none" stroke="black"/>
<path d="M63.9961,337.407h -6.80315" fill="none" stroke="black"/>
<path d="M63.9961,328.791h -6.80315" fill="none" stroke="black"/>
<path d="M63.9961,320.176h -6.80315" fill="none" stroke="black"/>
<path d="M70.7992,311.56h -13.6063" fill="none" stroke="black"/>
<path d="M63.9961,302.944h -6.80315" fill="none" stroke="black"/>
<path d="M63.9961,294.329h -6.80315" fill="none" stroke="black"/>
<path d="M63.9961,285.713h -6.80315" fill="none" stroke="black"/>
<path d="M70.7992,277.098h -13.6063" fill="none" stroke="black"/>
<path d="M63.9961,268.482h -6.80315" fill="none" stroke="black"/>
<path d="M63.9961,259.867h -6.80315" fill="none" stroke="black"/>
<path d="M63.9961,251.251h -6.80315" fill="none" stroke="black"/>
<path d="M70.7992,242.636h -13.6063" fill="none" stroke="black"/>
<path d="M63.9961,234.02h -6.80315" fill="none" stroke="black"/>
<path d="M63.9961,225.404h -6.80315" fill="none" stroke="black"/>
<path d="M63.9961,216.789h -6.80315" fill="none" stroke="black"/>
<path d="M70.7992,208.173h -13.6063" fill="none" stroke="black"/>
<path d="M63.9961,199.558h -6.80315" fill="none" stroke="black"/>
<path d="M63.9961,190.942h -6.80315" fill="none" stroke="black"/>
<path d="M63.9961,182.327h -6.80315" fill="none" stroke="black"/>
<path d="M70.7992,173.711h -13.6063" fill="none" stroke="black"/>
<path d="M63.9961,165.096h -6.80315" fill="none" stroke="black"/>
<path d="M63.9961,156.48h -6.80315" fill="none" stroke="black"/>
<path d="M63.9961,147.864h -6.80315" fill="none" stroke="black"/>
<path d="M70.7992,139.249h -13.6063" fill="none" stroke="black"/>
<path d="M63.9961,130.633h -6.80315" fill="none" stroke="black"/>
<path d="M63.9961,122.018h -6.80315" fill="none" stroke="black"/>
<path d="M63.9961,113.402h -6.80315" fill="none" stroke="black"/>
<path d="M70.7992,104.787h -13.6063" fill="none" stroke="black"/>
<path d="M63.9961,96.1711h -6.80315" fill="none" stroke="black"/>
<path d="M63.9961,87.5556h -6.80315" fill="none" stroke="black"/>
<path d="M63.9961,78.94h -6.80315" fill="none" stroke="black"/>
<path d="M70.7992,70.3245h -13.6063" fill="none" stroke="black"/>
<path d="M70.7992,70.3245h -13.6063" fill="none" stroke="black"/>
<path d="M63.9961,61.7089h -6.80315" fill="none" stroke="black"/>
<path d="M63.9961,53.0934h -6.80315" fill="none" stroke="black"/>
<path d="M63.9961,44.4778h -6.80315" fill="none" stroke="black"/>
<text xml:space="preserve" x="47.7441" y="350.258" fill="black" font-size="12.8453" font-family="Helvetica">0</text>
<text xml:space="preserve" x="47.7441" y="316.047" fill="black" font-size="12.8453" font-family="Helvetica">2</text>
<text xml:space="preserve" x="47.7441" y="281.835" fill="black" font-size="12.8453" font-family="Helvetica">4</text>
<text xml:space="preserve" x="47.7441" y="246.81" fill="black" font-size="12.8453" font-family="Helvetica">6</text>
<text xml:space="preserve" x="47.7441" y="212.598" fill="black" font-size="12.8453" font-family="Helvetica">8</text>
<text xml:space="preserve" x="41.2277" y="178.387" fill="black" font-size="12.8453" font-family="Helvetica">10</text>
<text xml:space="preserve" x="40.4131" y="143.361" fill="black" font-size="12.8453" font-family="Helvetica">12</text>
<text xml:space="preserve" x="40.4131" y="109.15" fill="black" font-size="12.8453" font-family="Helvetica">14</text>
<text xml:space="preserve" x="40.4131" y="74.9389" fill="black" font-size="12.8453" font-family="Helvetica">16</text>
<g transform="rotate(-90,27.3803,86.3427)">
<text xml:space="preserve" x="27.3803" y="86.3427" fill="black" font-size="12.8453" font-family="Helvetica">n_blocks</text>
</g>
<text xml:space="preserve" x="243.237" y="17.9202" fill="black" font-size="18.7938" font-family="Helvetica">vop 69.23</text>
<rect x="57.6465" y="346.022" width="14.211" height="0" fill="#ff8e00" fill-opacity="0.50" stroke-opacity="0.50"/>
<rect x="72.7646" y="346.022" width="14.211" height="0" fill="#ff8e00" fill-opacity="0.50" stroke-opacity="0.50"/>
<rect x="87.8827" y="346.022" width="14.211" height="0" fill="#ff8e00" fill-opacity="0.50" stroke-opacity="0.50"/>
<rect x="103.001" y="346.022" width="14.211" height="0" fill="#ff8e00" fill-opacity="0.50" stroke-opacity="0.50"/>
<rect x="118.119" y="346.022" width="14.211" height="0" fill="#ff8e00" fill-opacity="0.50" stroke-opacity="0.50"/>
<rect x="133.237" y="346.022" width="14.211" height="0" fill="#ff8e00" fill-opacity="0.50" stroke-opacity="0.50"/>
<rect x="148.355" y="346.022" width="14.211" height="0" fill="#ff8e00" fill-opacity="0.50" stroke-opacity="0.50"/>
<rect x="163.473" y="346.022" width="14.211" height="0" fill="#ff8e00" fill-opacity="0.50" stroke-opacity="0.50"/>
<rect x="178.591" y="346.022" width="14.211" height="0" fill="#ff8e00" fill-opacity="0.50" stroke-opacity="0.50"/>
<rect x="193.709" y="346.022" width="14.211" height="0" fill="#ff8e00" fill-opacity="0.50" stroke-opacity="0.50"/>
<rect x="208.828" y="346.022" width="14.211" height="0" fill="#ff8e00" fill-opacity="0.50" stroke-opacity="0.50"/>
<rect x="223.946" y="346.022" width="14.211" height="0" fill="#ff8e00" fill-opacity="0.50" stroke-opacity="0.50"/>
<rect x="239.064" y="346.022" width="14.211" height="0" fill="#ff8e00" fill-opacity="0.50" stroke-opacity="0.50"/>
<rect x="254.182" y="346.022" width="14.211" height="0" fill="#ff8e00" fill-opacity="0.50" stroke-opacity="0.50"/>
<rect x="269.3" y="311.56" width="14.211" height="34.4622" fill="#ff8e00" fill-opacity="0.50" stroke-opacity="0.50"/>
<rect x="284.418" y="294.329" width="14.211" height="51.6933" fill="#ff8e00" fill-opacity="0.50" stroke-opacity="0.50"/>
<rect x="299.536" y="156.48" width="14.211" height="189.542" fill="#ff8e00" fill-opacity="0.50" stroke-opacity="0.50"/>
<rect x="314.654" y="104.787" width="14.211" height="241.236" fill="#ff8e00" fill-opacity="0.50" stroke-opacity="0.50"/>
<rect x="329.772" y="53.0934" width="14.211" height="292.929" fill="#ff8e00" fill-opacity="0.50" stroke-opacity="0.50"/>
<rect x="344.891" y="225.404" width="14.211" height="120.618" fill="#ff8e00" fill-opacity="0.50" stroke-opacity="0.50"/>
<rect x="360.009" y="259.867" width="14.211" height="86.1556" fill="#ff8e00" fill-opacity="0.50" stroke-opacity="0.50"/>
<rect x="375.127" y="346.022" width="14.211" height="0" fill="#ff8e00" fill-opacity="0.50" stroke-opacity="0.50"/>
<rect x="390.245" y="346.022" width="14.211" height="0" fill="#ff8e00" fill-opacity="0.50" stroke-opacity="0.50"/>
<rect x="405.363" y="346.022" width="14.211" height="0" fill="#ff8e00" fill-opacity="0.50" stroke-opacity="0.50"/>
<rect x="420.481" y="346.022" width="14.211" height="0" fill="#ff8e00" fill-opacity="0.50" stroke-opacity="0.50"/>
<rect x="435.599" y="346.022" width="14.211" height="0" fill="#ff8e00" fill-opacity="0.50" stroke-opacity="0.50"/>
<rect x="450.717" y="346.022" width="14.211" height="0" fill="#ff8e00" fill-opacity="0.50" stroke-opacity="0.50"/>
<rect x="465.835" y="346.022" width="14.211" height="0" fill="#ff8e00" fill-opacity="0.50" stroke-opacity="0.50"/>
<rect x="480.954" y="346.022" width="14.211" height="0" fill="#ff8e00" fill-opacity="0.50" stroke-opacity="0.50"/>
<rect x="496.072" y="346.022" width="14.211" height="0" fill="#ff8e00" fill-opacity="0.50" stroke-opacity="0.50"/>
<path d="M59.4606,346.022h 167.811l 4.53543, -0.0314206l 4.53543, -0.040426l 4.53543, -0.0860482l 4.53543, -0.175608l 4.53543, -0.343515l 4.53543, -0.643883l 4.53543, -1.15601l 4.53543, -1.98704l 4.53543, -3.26816l 4.53543, -5.1399l 4.53543,
 -7.72311l 4.53543, -11.0752" fill="none" stroke="#ff8e00" stroke-width="2"/>
<path d="M281.697,314.352l 4.53543, -15.1365l 4.53543, -19.68l 4.53543, -24.281l 4.53543, -28.3283l 4.53543, -31.0911l 4.53543, -31.8407l 4.53543, -30.0095l 4.53543, -25.3494l 4.53543, -18.0422l 4.53543, -8.72265l 4.53543, 1.60528l 4.53543, 11.746l
 4.53543, 20.5396l 4.53543, 27.0806l 4.53543, 30.8695l 4.53543, 31.8636l 4.53543, 30.4243l 4.53543, 27.1862l 4.53543, 22.8946l 4.53543, 18.2541l 4.53543, 13.823l 4.53543, 9.964l 4.53543, 6.84838l 4.53543, 4.49384l 4.53543, 2.81809l 4.53543, 1.69023l
 4.53543, 0.970209l 4.53543, 0.533266l 4.53543, 0.280781l 4.53543, 0.141677l 4.53543, 0.068528l 4.53543, 0.0559585h 77.1024" fill="none" stroke="#ff8e00" stroke-width="2"/>
<path d="M503.933,346.022h 4.53543" fill="none" stroke="#ff8e00" stroke-width="2"/>
<path d="M57.1929,346.022h 453.543" fill="none" stroke="black"/>
<path d="M57.1929,336.795v 9.22726" fill="none" stroke="black"/>
<path d="M72.311,341.409v 4.61363" fill="none" stroke="black"/>
<path d="M87.4291,341.409v 4.61363" fill="none" stroke="black"/>
<path d="M102.547,341.409v 4.61363" fill="none" stroke="black"/>
<path d="M117.665,341.409v 4.61363" fill="none" stroke="black"/>
<path d="M132.783,336.795v 9.22726" fill="none" stroke="black"/>
<path d="M147.902,341.409v 4.61363" fill="none" stroke="black"/>
<path d="M163.02,341.409v 4.61363" fill="none" stroke="black"/>
<path d="M178.138,341.409v 4.61363" fill="none" stroke="black"/>
<path d="M193.256,341.409v 4.61363" fill="none" stroke="black"/>
<path d="M208.374,336.795v 9.22726" fill="none" stroke="black"/>
<path d="M223.492,341.409v 4.61363" fill="none" stroke="black"/>
<path d="M238.61,341.409v 4.61363" fill="none" stroke="black"/>
<path d="M253.728,341.409v 4.61363" fill="none" stroke="black"/>
<path d="M268.846,341.409v 4.61363" fill="none" stroke="black"/>
<path d="M283.965,336.795v 9.22726" fill="none" stroke="black"/>
<path d="M299.083,341.409v 4.61363" fill="none" stroke="black"/>
<path d="M314.201,341.409v 4.61363" fill="none" stroke="black"/>
<path d="M329.319,341.409v 4.61363" fill="none" stroke="black"/>
<path d="M344.437,341.409v 4.61363" fill="none" stroke="black"/>
<path d="M359.555,336.795v 9.22726" fill="none" stroke="black"/>
<path d="M374.673,341.409v 4.61363" fill="none" stroke="black"/>
<path d="M389.791,341.409v 4.61363" fill="none" stroke="black"/>
<path d="M404.909,341.409v 4.61363" fill="none" stroke="black"/>
<path d="M420.028,341.409v 4.61363" fill="none" stroke="black"/>
<path d="M435.146,336.795v 9.22726" fill="none" stroke="black"/>
<path d="M450.264,341.409v 4.61363" fill="none" stroke="black"/>
<path d="M465.382,341.409v 4.61363" fill="none" stroke="black"/>
<path d="M480.5,341.409v 4.61363" fill="none" stroke="black"/>
<path d="M495.618,341.409v 4.61363" fill="none" stroke="black"/>
<path d="M510.736,336.795v 9.22726" fill="none" stroke="black"/>
<path d="M57.1929,346.022v -307.575" fill="none" stroke="black"/>
<path d="M70.7992,346.022h -13.6063" fill="none" stroke="black"/>
<path d="M63.9961,337.407h -6.80315" fill="none" stroke="black"/>
<path d="M63.9961,328.791h -6.80315" fill="none" stroke="black"/>
<path d="M63.9961,320.176h -6.80315" fill="none" stroke="black"/>
<path d="M70.7992,311.56h -13.6063" fill="none" stroke="black"/>
<path d="M63.9961,302.944h -6.80315" fill="none" stroke="black"/>
<path d="M63.9961,294.329h -6.80315" fill="none" stroke="black"/>
<path d="M63.9961,285.713h -6.80315" fill="none" stroke="black"/>
<path d="M70.7992,277.098h -13.6063" fill="none" stroke="black"/>
<path d="M63.9961,268.482h -6.80315" fill="none" stroke="black"/>
<path d="M63.9961,259.867h -6.80315" fill="none" stroke="black"/>
<path d="M63.9961,251.251h -6.80315" fill="none" stroke="black"/>
<path d="M70.7992,242.636h -13.6063" fill="none" stroke="black"/>
<path d="M63.9961,234.02h -6.80315" fill="none" stroke="black"/>
<path d="M63.9961,225.404h -6.80315" fill="none" stroke="black"/>
<path d="M63.9961,216.789h -6.80315" fill="none" stroke="black"/>
<path d="M70.7992,208.173h -13.6063" fill="none" stroke="black"/>
<path d="M63.9961,199.558h -6.80315" fill="none" stroke="black"/>
<path d="M63.9961,190.942h -6.80315" fill="none" stroke="black"/>
<path d="M63.9961,182.327h -6.80315" fill="none" stroke="black"/>
<path d="M70.7992,173.711h -13.6063" fill="none" stroke="black"/>
<path d="M63.9961,165.096h -6.80315" fill="none" stroke="black"/>
<path d="M63.9961,156.48h -6.80315" fill="none" stroke="black"/>
<path d="M63.9961,147.864h -6.80315" fill="none" stroke="black"/>
<path d="M70.7992,139.249h -13.6063" fill="none" stroke="black"/>
<path d="M63.9961,130.633h -6.80315" fill="none" stroke="black"/>
<path d="M63.9961,122.018h -6.80315" fill="none" stroke="black"/>
<path d="M63.9961,113.402h -6.80315" fill="none" stroke="black"/>
<path d="M70.7992,104.787h -13.6063" fill="none" stroke="black"/>
<path d="M63.9961,96.1711h -6.80315" fill="none" stroke="black"/>
<path d="M63.9961,87.5556h -6.80315" fill="none" stroke="black"/>
<path d="M63.9961,78.94h -6.80315" fill="none" stroke="black"/>
<path d="M70.7992,70.3245h -13.6063" fill="none" stroke="black"/>
<path d="M70.7992,70.3245h -13.6063" fill="none" stroke="black"/>
<path d="M63.9961,61.7089h -6.80315" fill="none" stroke="black"/>
<path d="M63.9961,53.0934h -6.80315" fill="none" stroke="black"/>
<path d="M63.9961,44.4778h -6.80315" fill="none" stroke="black"/>
<rect x="58.0145" y="262.83" width="170.079" height="80.7385" fill="white"/>
<path d="M58.0145,343.568h 170.079" fill="none" stroke="black"/>
<path d="M228.093,343.568v -80.7385" fill="none" stroke="black"/>
<path d="M228.093,262.83h -170.079" fill="none" stroke="black"/>
<path d="M58.0145,262.83v 80.7385" fill="none" stroke="black"/>
<text xml:space="preserve" x="99.8755" y="311.159" fill="black" font-size="21.6202" font-family="Helvetica">sector 16</text>
<path d="M64.3925,331.457h 29.7638v -56.517h -29.7638z" fill="#ff8e00" fill-opacity="0.50" stroke-opacity="0.50"/>
<path d="M64.3925,303.199h 29.7638" fill="none" stroke="#ff8e00" fill-opacity="0.00" stroke-opacity="0.00"/>
<g stroke="black" stroke-width="1" fill="none">
<line x1="78.2744" y1="303.199" x2="79.2744" y2="303.199"/>
</g>
<text xml:space="preserve" x="243.237" y="17.9202" fill="black" font-size="18.7938" font-family="Helvetica">vop 69.23</text></svg>
