<?xml version="1.0" standalone="no"?>
<svg width="567.429" height="384.969" viewBox="0 0 567.429 384.969" xmlns="http://www.w3.org/2000/svg" shape-rendering="crispEdges">
<title>
./new_vop/vop_by_sector/vop-69.18_all.svg
</title>
<desc>
Creator: ROOT Version 6.24/00
CreationDate: Thu Jun 24 00:43:00 2021</desc>
<defs>
</defs>
<rect x="0.5" y="0" width="566.929" height="384.469" fill="white"/>
<rect x="57.1929" y="38.4469" width="453.543" height="307.575" fill="white"/>
<rect x="57.1929" y="38.4469" width="453.543" height="307.575" fill="none" stroke="black"/>
<path d="M57.1929,346.022h 453.543" fill="none" stroke="#000099"/>
<path d="M57.1929,346.022h 453.543" fill="none" stroke="black"/>
<path d="M57.1929,336.795v 9.22726" fill="none" stroke="black"/>
<path d="M72.311,341.409v 4.61363" fill="none" stroke="black"/>
<path d="M87.4291,341.409v 4.61363" fill="none" stroke="black"/>
<path d="M102.547,341.409v 4.61363" fill="none" stroke="black"/>
<path d="M117.665,341.409v 4.61363" fill="none" stroke="black"/>
<path d="M132.783,336.795v 9.22726" fill="none" stroke="black"/>
<path d="M147.902,341.409v 4.61363" fill="none" stroke="black"/>
<path d="M163.02,341.409v 4.61363" fill="none" stroke="black"/>
<path d="M178.138,341.409v 4.61363" fill="none" stroke="black"/>
<path d="M193.256,341.409v 4.61363" fill="none" stroke="black"/>
<path d="M208.374,336.795v 9.22726" fill="none" stroke="black"/>
<path d="M223.492,341.409v 4.61363" fill="none" stroke="black"/>
<path d="M238.61,341.409v 4.61363" fill="none" stroke="black"/>
<path d="M253.728,341.409v 4.61363" fill="none" stroke="black"/>
<path d="M268.846,341.409v 4.61363" fill="none" stroke="black"/>
<path d="M283.965,336.795v 9.22726" fill="none" stroke="black"/>
<path d="M299.083,341.409v 4.61363" fill="none" stroke="black"/>
<path d="M314.201,341.409v 4.61363" fill="none" stroke="black"/>
<path d="M329.319,341.409v 4.61363" fill="none" stroke="black"/>
<path d="M344.437,341.409v 4.61363" fill="none" stroke="black"/>
<path d="M359.555,336.795v 9.22726" fill="none" stroke="black"/>
<path d="M374.673,341.409v 4.61363" fill="none" stroke="black"/>
<path d="M389.791,341.409v 4.61363" fill="none" stroke="black"/>
<path d="M404.909,341.409v 4.61363" fill="none" stroke="black"/>
<path d="M420.028,341.409v 4.61363" fill="none" stroke="black"/>
<path d="M435.146,336.795v 9.22726" fill="none" stroke="black"/>
<path d="M450.264,341.409v 4.61363" fill="none" stroke="black"/>
<path d="M465.382,341.409v 4.61363" fill="none" stroke="black"/>
<path d="M480.5,341.409v 4.61363" fill="none" stroke="black"/>
<path d="M495.618,341.409v 4.61363" fill="none" stroke="black"/>
<path d="M510.736,336.795v 9.22726" fill="none" stroke="black"/>
<text xml:space="preserve" x="53.446" y="358.403" fill="black" font-size="12.8453" font-family="Helvetica">0</text>
<text xml:space="preserve" x="121.868" y="358.403" fill="black" font-size="12.8453" font-family="Helvetica">100</text>
<text xml:space="preserve" x="197.622" y="358.403" fill="black" font-size="12.8453" font-family="Helvetica">200</text>
<text xml:space="preserve" x="273.375" y="358.403" fill="black" font-size="12.8453" font-family="Helvetica">300</text>
<text xml:space="preserve" x="348.314" y="358.403" fill="black" font-size="12.8453" font-family="Helvetica">400</text>
<text xml:space="preserve" x="424.068" y="358.403" fill="black" font-size="12.8453" font-family="Helvetica">500</text>
<text xml:space="preserve" x="499.821" y="358.403" fill="black" font-size="12.8453" font-family="Helvetica">600</text>
<text xml:space="preserve" x="486.788" y="369.807" fill="black" font-size="12.8453" font-family="Helvetica">mpv</text>
<path d="M57.1929,346.022v -307.575" fill="none" stroke="black"/>
<path d="M70.7992,346.022h -13.6063" fill="none" stroke="black"/>
<path d="M63.9961,333.817h -6.80315" fill="none" stroke="black"/>
<path d="M63.9961,321.612h -6.80315" fill="none" stroke="black"/>
<path d="M63.9961,309.406h -6.80315" fill="none" stroke="black"/>
<path d="M63.9961,297.201h -6.80315" fill="none" stroke="black"/>
<path d="M70.7992,284.995h -13.6063" fill="none" stroke="black"/>
<path d="M63.9961,272.79h -6.80315" fill="none" stroke="black"/>
<path d="M63.9961,260.585h -6.80315" fill="none" stroke="black"/>
<path d="M63.9961,248.379h -6.80315" fill="none" stroke="black"/>
<path d="M63.9961,236.174h -6.80315" fill="none" stroke="black"/>
<path d="M70.7992,223.969h -13.6063" fill="none" stroke="black"/>
<path d="M63.9961,211.763h -6.80315" fill="none" stroke="black"/>
<path d="M63.9961,199.558h -6.80315" fill="none" stroke="black"/>
<path d="M63.9961,187.352h -6.80315" fill="none" stroke="black"/>
<path d="M63.9961,175.147h -6.80315" fill="none" stroke="black"/>
<path d="M70.7992,162.942h -13.6063" fill="none" stroke="black"/>
<path d="M63.9961,150.736h -6.80315" fill="none" stroke="black"/>
<path d="M63.9961,138.531h -6.80315" fill="none" stroke="black"/>
<path d="M63.9961,126.326h -6.80315" fill="none" stroke="black"/>
<path d="M63.9961,114.12h -6.80315" fill="none" stroke="black"/>
<path d="M70.7992,101.915h -13.6063" fill="none" stroke="black"/>
<path d="M63.9961,89.7095h -6.80315" fill="none" stroke="black"/>
<path d="M63.9961,77.5041h -6.80315" fill="none" stroke="black"/>
<path d="M63.9961,65.2987h -6.80315" fill="none" stroke="black"/>
<path d="M63.9961,53.0934h -6.80315" fill="none" stroke="black"/>
<path d="M70.7992,40.888h -13.6063" fill="none" stroke="black"/>
<path d="M70.7992,40.888h -13.6063" fill="none" stroke="black"/>
<text xml:space="preserve" x="47.7441" y="350.258" fill="black" font-size="12.8453" font-family="Helvetica">0</text>
<text xml:space="preserve" x="47.7441" y="289.166" fill="black" font-size="12.8453" font-family="Helvetica">5</text>
<text xml:space="preserve" x="41.2277" y="228.075" fill="black" font-size="12.8453" font-family="Helvetica">10</text>
<text xml:space="preserve" x="40.4131" y="167.798" fill="black" font-size="12.8453" font-family="Helvetica">15</text>
<text xml:space="preserve" x="41.2277" y="106.706" fill="black" font-size="12.8453" font-family="Helvetica">20</text>
<text xml:space="preserve" x="40.4131" y="45.615" fill="black" font-size="12.8453" font-family="Helvetica">25</text>
<g transform="rotate(-90,27.3803,86.3427)">
<text xml:space="preserve" x="27.3803" y="86.3427" fill="black" font-size="12.8453" font-family="Helvetica">n_blocks</text>
</g>
<text xml:space="preserve" x="242.422" y="17.9202" fill="black" font-size="18.7938" font-family="Helvetica">vop 69.18</text>
<rect x="57.6465" y="346.022" width="4.73197" height="0" fill="#cea262" fill-opacity="0.50" stroke-opacity="0.50"/>
<rect x="72.7646" y="346.022" width="4.73197" height="0" fill="#cea262" fill-opacity="0.50" stroke-opacity="0.50"/>
<rect x="87.8827" y="346.022" width="4.73197" height="0" fill="#cea262" fill-opacity="0.50" stroke-opacity="0.50"/>
<rect x="103.001" y="346.022" width="4.73197" height="0" fill="#cea262" fill-opacity="0.50" stroke-opacity="0.50"/>
<rect x="118.119" y="346.022" width="4.73197" height="0" fill="#cea262" fill-opacity="0.50" stroke-opacity="0.50"/>
<rect x="133.237" y="346.022" width="4.73197" height="0" fill="#cea262" fill-opacity="0.50" stroke-opacity="0.50"/>
<rect x="148.355" y="346.022" width="4.73197" height="0" fill="#cea262" fill-opacity="0.50" stroke-opacity="0.50"/>
<rect x="163.473" y="346.022" width="4.73197" height="0" fill="#cea262" fill-opacity="0.50" stroke-opacity="0.50"/>
<rect x="178.591" y="333.817" width="4.73197" height="12.2054" fill="#cea262" fill-opacity="0.50" stroke-opacity="0.50"/>
<rect x="193.709" y="321.612" width="4.73197" height="24.4107" fill="#cea262" fill-opacity="0.50" stroke-opacity="0.50"/>
<rect x="208.828" y="272.79" width="4.73197" height="73.2322" fill="#cea262" fill-opacity="0.50" stroke-opacity="0.50"/>
<rect x="223.946" y="297.201" width="4.73197" height="48.8215" fill="#cea262" fill-opacity="0.50" stroke-opacity="0.50"/>
<rect x="239.064" y="223.969" width="4.73197" height="122.054" fill="#cea262" fill-opacity="0.50" stroke-opacity="0.50"/>
<rect x="254.182" y="175.147" width="4.73197" height="170.875" fill="#cea262" fill-opacity="0.50" stroke-opacity="0.50"/>
<rect x="269.3" y="297.201" width="4.73197" height="48.8215" fill="#cea262" fill-opacity="0.50" stroke-opacity="0.50"/>
<rect x="284.418" y="175.147" width="4.73197" height="170.875" fill="#cea262" fill-opacity="0.50" stroke-opacity="0.50"/>
<rect x="299.536" y="272.79" width="4.73197" height="73.2322" fill="#cea262" fill-opacity="0.50" stroke-opacity="0.50"/>
<rect x="314.654" y="321.612" width="4.73197" height="24.4107" fill="#cea262" fill-opacity="0.50" stroke-opacity="0.50"/>
<rect x="329.772" y="333.817" width="4.73197" height="12.2054" fill="#cea262" fill-opacity="0.50" stroke-opacity="0.50"/>
<rect x="344.891" y="333.817" width="4.73197" height="12.2054" fill="#cea262" fill-opacity="0.50" stroke-opacity="0.50"/>
<rect x="360.009" y="346.022" width="4.73197" height="0" fill="#cea262" fill-opacity="0.50" stroke-opacity="0.50"/>
<rect x="375.127" y="346.022" width="4.73197" height="0" fill="#cea262" fill-opacity="0.50" stroke-opacity="0.50"/>
<rect x="390.245" y="346.022" width="4.73197" height="0" fill="#cea262" fill-opacity="0.50" stroke-opacity="0.50"/>
<rect x="405.363" y="346.022" width="4.73197" height="0" fill="#cea262" fill-opacity="0.50" stroke-opacity="0.50"/>
<rect x="420.481" y="346.022" width="4.73197" height="0" fill="#cea262" fill-opacity="0.50" stroke-opacity="0.50"/>
<rect x="435.599" y="346.022" width="4.73197" height="0" fill="#cea262" fill-opacity="0.50" stroke-opacity="0.50"/>
<rect x="450.717" y="346.022" width="4.73197" height="0" fill="#cea262" fill-opacity="0.50" stroke-opacity="0.50"/>
<rect x="465.835" y="346.022" width="4.73197" height="0" fill="#cea262" fill-opacity="0.50" stroke-opacity="0.50"/>
<rect x="480.954" y="346.022" width="4.73197" height="0" fill="#cea262" fill-opacity="0.50" stroke-opacity="0.50"/>
<rect x="496.072" y="346.022" width="4.73197" height="0" fill="#cea262" fill-opacity="0.50" stroke-opacity="0.50"/>
<path d="M59.4606,346.022h 45.3543l 4.53543, -0.0344249l 4.53543, -0.020295l 4.53543, -0.0310625l 4.53543, -0.0468442l 4.53543, -0.0696021l 4.53543, -0.101884l 4.53543, -0.146919l 4.53543, -0.208687l 4.53543, -0.29196l 4.53543, -0.402268l 4.53543,
 -0.545787l 4.53543, -0.729104l 4.53543, -0.95885l 4.53543, -1.24118l 4.53543, -1.5811l 4.53543, -1.98166l 4.53543, -2.44306l 4.53543, -2.96173l 4.53543, -3.52949l 4.53543, -4.1329l 4.53543, -4.75288l 4.53543, -5.36482l 4.53543, -5.93919l 4.53543,
 -6.4427l 4.53543, -6.84005l 4.53543, -7.09626l 4.53543, -7.17923l 4.53543, -7.06258l 4.53543, -6.72825l 4.53543, -6.16886l 4.53543, -5.38923l 4.53543, -4.4071l 4.53543, -3.25281l 4.53543, -1.96783l 4.53543, -0.602343l 4.53543, 0.787996l 4.53543,
 2.14584l 4.53543, 3.41606l 4.53543, 4.54947" fill="none" stroke="#cea262" stroke-width="2"/>
<path d="M281.697,256.269l 4.53543, 5.50596l 4.53543, 6.25683l 4.53543, 6.78606l 4.53543, 7.09054l 4.53543, 7.17919l 4.53543, 7.07132l 4.53543, 6.79425l 4.53543, 6.38061l 4.53543, 5.86559l 4.53543, 5.28432l 4.53543, 4.66968l 4.53543, 4.05061l
 4.53543, 3.451l 4.53543, 2.88915l 4.53543, 2.37779l 4.53543, 1.92443l 4.53543, 1.53208l 4.53543, 1.2001l 4.53543, 0.925143l 4.53543, 0.701991l 4.53543, 0.524396l 4.53543, 0.385703l 4.53543, 0.279363l 4.53543, 0.199276l 4.53543, 0.140009l 4.53543,
 0.0968973l 4.53543, 0.0660628l 4.53543, 0.0443735l 4.53543, 0.0293658l 4.53543, 0.0191485l 4.53543, 0.0323182h 81.6378" fill="none" stroke="#cea262" stroke-width="2"/>
<path d="M503.933,346.022h 4.53543" fill="none" stroke="#cea262" stroke-width="2"/>
<rect x="62.3784" y="346.022" width="4.73197" height="0" fill="#817066" fill-opacity="0.50" stroke-opacity="0.50"/>
<rect x="77.4965" y="346.022" width="4.73197" height="0" fill="#817066" fill-opacity="0.50" stroke-opacity="0.50"/>
<rect x="92.6146" y="346.022" width="4.73197" height="0" fill="#817066" fill-opacity="0.50" stroke-opacity="0.50"/>
<rect x="107.733" y="346.022" width="4.73197" height="0" fill="#817066" fill-opacity="0.50" stroke-opacity="0.50"/>
<rect x="122.851" y="346.022" width="4.73197" height="0" fill="#817066" fill-opacity="0.50" stroke-opacity="0.50"/>
<rect x="137.969" y="346.022" width="4.73197" height="0" fill="#817066" fill-opacity="0.50" stroke-opacity="0.50"/>
<rect x="153.087" y="321.612" width="4.73197" height="24.4107" fill="#817066" fill-opacity="0.50" stroke-opacity="0.50"/>
<rect x="168.205" y="333.817" width="4.73197" height="12.2054" fill="#817066" fill-opacity="0.50" stroke-opacity="0.50"/>
<rect x="183.323" y="333.817" width="4.73197" height="12.2054" fill="#817066" fill-opacity="0.50" stroke-opacity="0.50"/>
<rect x="198.441" y="297.201" width="4.73197" height="48.8215" fill="#817066" fill-opacity="0.50" stroke-opacity="0.50"/>
<rect x="213.56" y="248.379" width="4.73197" height="97.643" fill="#817066" fill-opacity="0.50" stroke-opacity="0.50"/>
<rect x="228.678" y="162.942" width="4.73197" height="183.081" fill="#817066" fill-opacity="0.50" stroke-opacity="0.50"/>
<rect x="243.796" y="53.0934" width="4.73197" height="292.929" fill="#817066" fill-opacity="0.50" stroke-opacity="0.50"/>
<rect x="258.914" y="162.942" width="4.73197" height="183.081" fill="#817066" fill-opacity="0.50" stroke-opacity="0.50"/>
<rect x="274.032" y="187.352" width="4.73197" height="158.67" fill="#817066" fill-opacity="0.50" stroke-opacity="0.50"/>
<rect x="289.15" y="309.406" width="4.73197" height="36.6161" fill="#817066" fill-opacity="0.50" stroke-opacity="0.50"/>
<rect x="304.268" y="297.201" width="4.73197" height="48.8215" fill="#817066" fill-opacity="0.50" stroke-opacity="0.50"/>
<rect x="319.386" y="321.612" width="4.73197" height="24.4107" fill="#817066" fill-opacity="0.50" stroke-opacity="0.50"/>
<rect x="334.504" y="346.022" width="4.73197" height="0" fill="#817066" fill-opacity="0.50" stroke-opacity="0.50"/>
<rect x="349.623" y="346.022" width="4.73197" height="0" fill="#817066" fill-opacity="0.50" stroke-opacity="0.50"/>
<rect x="364.741" y="346.022" width="4.73197" height="0" fill="#817066" fill-opacity="0.50" stroke-opacity="0.50"/>
<rect x="379.859" y="346.022" width="4.73197" height="0" fill="#817066" fill-opacity="0.50" stroke-opacity="0.50"/>
<rect x="394.977" y="346.022" width="4.73197" height="0" fill="#817066" fill-opacity="0.50" stroke-opacity="0.50"/>
<rect x="410.095" y="346.022" width="4.73197" height="0" fill="#817066" fill-opacity="0.50" stroke-opacity="0.50"/>
<rect x="425.213" y="346.022" width="4.73197" height="0" fill="#817066" fill-opacity="0.50" stroke-opacity="0.50"/>
<rect x="440.331" y="346.022" width="4.73197" height="0" fill="#817066" fill-opacity="0.50" stroke-opacity="0.50"/>
<rect x="455.449" y="346.022" width="4.73197" height="0" fill="#817066" fill-opacity="0.50" stroke-opacity="0.50"/>
<rect x="470.567" y="346.022" width="4.73197" height="0" fill="#817066" fill-opacity="0.50" stroke-opacity="0.50"/>
<rect x="485.686" y="346.022" width="4.73197" height="0" fill="#817066" fill-opacity="0.50" stroke-opacity="0.50"/>
<rect x="500.804" y="346.022" width="4.73197" height="0" fill="#817066" fill-opacity="0.50" stroke-opacity="0.50"/>
<path d="M59.4606,346.022h 77.1024l 4.53543, -0.057822l 4.53543, -0.0574805l 4.53543, -0.107846l 4.53543, -0.19599l 4.53543, -0.344925l 4.53543, -0.58773l 4.53543, -0.96934l 4.53543, -1.54698l 4.53543, -2.38802l 4.53543, -3.56411l 4.53543, -5.14029l
 4.53543, -7.15924l 4.53543, -9.6214l 4.53543, -12.4641l 4.53543, -15.5442l 4.53543, -18.6301l 4.53543, -21.4089l 4.53543, -23.5125l 4.53543, -24.5627l 4.53543, -24.2301l 4.53543, -22.2979l 4.53543, -18.716l 4.53543, -13.6329l 4.53543, -7.39537l
 4.53543, -0.511436l 4.53543, 6.41771l 4.53543, 12.7843l 4.53543, 18.0618l 4.53543, 21.8769l 4.53543, 24.0512l 4.53543, 24.607l 4.53543, 23.74" fill="none" stroke="#817066" stroke-width="2"/>
<path d="M281.697,242.914l 4.53543, 21.767l 4.53543, 19.0629l 4.53543, 16.0006l 4.53543, 12.9032l 4.53543, 10.0149l 4.53543, 7.49152l 4.53543, 5.40666l 4.53543, 3.76777l 4.53543, 2.53704l 4.53543, 1.65156l 4.53543, 1.03989l 4.53543, 0.633525l
 4.53543, 0.373566l 4.53543, 0.213264l 4.53543, 0.1179l 4.53543, 0.0631319l 4.53543, 0.0327488l 4.53543, 0.0313176h 140.598" fill="none" stroke="#817066" stroke-width="2"/>
<path d="M503.933,346.022h 4.53543" fill="none" stroke="#817066" stroke-width="2"/>
<rect x="67.1104" y="346.022" width="4.73197" height="0" fill="#007d34" fill-opacity="0.50" stroke-opacity="0.50"/>
<rect x="82.2285" y="346.022" width="4.73197" height="0" fill="#007d34" fill-opacity="0.50" stroke-opacity="0.50"/>
<rect x="97.3466" y="346.022" width="4.73197" height="0" fill="#007d34" fill-opacity="0.50" stroke-opacity="0.50"/>
<rect x="112.465" y="346.022" width="4.73197" height="0" fill="#007d34" fill-opacity="0.50" stroke-opacity="0.50"/>
<rect x="127.583" y="346.022" width="4.73197" height="0" fill="#007d34" fill-opacity="0.50" stroke-opacity="0.50"/>
<rect x="142.701" y="346.022" width="4.73197" height="0" fill="#007d34" fill-opacity="0.50" stroke-opacity="0.50"/>
<rect x="157.819" y="346.022" width="4.73197" height="0" fill="#007d34" fill-opacity="0.50" stroke-opacity="0.50"/>
<rect x="172.937" y="346.022" width="4.73197" height="0" fill="#007d34" fill-opacity="0.50" stroke-opacity="0.50"/>
<rect x="188.055" y="333.817" width="4.73197" height="12.2054" fill="#007d34" fill-opacity="0.50" stroke-opacity="0.50"/>
<rect x="203.173" y="309.406" width="4.73197" height="36.6161" fill="#007d34" fill-opacity="0.50" stroke-opacity="0.50"/>
<rect x="218.292" y="309.406" width="4.73197" height="36.6161" fill="#007d34" fill-opacity="0.50" stroke-opacity="0.50"/>
<rect x="233.41" y="284.995" width="4.73197" height="61.0269" fill="#007d34" fill-opacity="0.50" stroke-opacity="0.50"/>
<rect x="248.528" y="187.352" width="4.73197" height="158.67" fill="#007d34" fill-opacity="0.50" stroke-opacity="0.50"/>
<rect x="263.646" y="187.352" width="4.73197" height="158.67" fill="#007d34" fill-opacity="0.50" stroke-opacity="0.50"/>
<rect x="278.764" y="223.969" width="4.73197" height="122.054" fill="#007d34" fill-opacity="0.50" stroke-opacity="0.50"/>
<rect x="293.882" y="260.585" width="4.73197" height="85.4376" fill="#007d34" fill-opacity="0.50" stroke-opacity="0.50"/>
<rect x="309" y="297.201" width="4.73197" height="48.8215" fill="#007d34" fill-opacity="0.50" stroke-opacity="0.50"/>
<rect x="324.118" y="297.201" width="4.73197" height="48.8215" fill="#007d34" fill-opacity="0.50" stroke-opacity="0.50"/>
<rect x="339.236" y="346.022" width="4.73197" height="0" fill="#007d34" fill-opacity="0.50" stroke-opacity="0.50"/>
<rect x="354.354" y="346.022" width="4.73197" height="0" fill="#007d34" fill-opacity="0.50" stroke-opacity="0.50"/>
<rect x="369.473" y="346.022" width="4.73197" height="0" fill="#007d34" fill-opacity="0.50" stroke-opacity="0.50"/>
<rect x="384.591" y="346.022" width="4.73197" height="0" fill="#007d34" fill-opacity="0.50" stroke-opacity="0.50"/>
<rect x="399.709" y="346.022" width="4.73197" height="0" fill="#007d34" fill-opacity="0.50" stroke-opacity="0.50"/>
<rect x="414.827" y="346.022" width="4.73197" height="0" fill="#007d34" fill-opacity="0.50" stroke-opacity="0.50"/>
<rect x="429.945" y="346.022" width="4.73197" height="0" fill="#007d34" fill-opacity="0.50" stroke-opacity="0.50"/>
<rect x="445.063" y="346.022" width="4.73197" height="0" fill="#007d34" fill-opacity="0.50" stroke-opacity="0.50"/>
<rect x="460.181" y="346.022" width="4.73197" height="0" fill="#007d34" fill-opacity="0.50" stroke-opacity="0.50"/>
<rect x="475.299" y="346.022" width="4.73197" height="0" fill="#007d34" fill-opacity="0.50" stroke-opacity="0.50"/>
<rect x="490.417" y="346.022" width="4.73197" height="0" fill="#007d34" fill-opacity="0.50" stroke-opacity="0.50"/>
<rect x="505.536" y="346.022" width="4.73197" height="0" fill="#007d34" fill-opacity="0.50" stroke-opacity="0.50"/>
<path d="M59.4606,346.022h 68.0315l 4.53543, -0.0518654l 4.53543, -0.0363501l 4.53543, -0.059067l 4.53543, -0.0940945l 4.53543, -0.146934l 4.53543, -0.224888l 4.53543, -0.337323l 4.53543, -0.495789l 4.53543, -0.713918l 4.53543, -1.00698l 4.53543,
 -1.39098l 4.53543, -1.88123l 4.53543, -2.49034l 4.53543, -3.2257l 4.53543, -4.08662l 4.53543, -5.06141l 4.53543, -6.12479l 4.53543, -7.23623l 4.53543, -8.33963l 4.53543, -9.36484l 4.53543, -10.2314l 4.53543, -10.8541l 4.53543, -11.151l 4.53543,
 -11.0516l 4.53543, -10.5062l 4.53543, -9.49332l 4.53543, -8.02503l 4.53543, -6.14946l 4.53543, -3.94882l 4.53543, -1.5338l 4.53543, 0.965645l 4.53543, 3.41186l 4.53543, 5.67206l 4.53543, 7.63024" fill="none" stroke="#007d34" stroke-width="2"/>
<path d="M281.697,228.388l 4.53543, 9.19704l 4.53543, 10.3163l 4.53543, 10.9677l 4.53543, 11.1654l 4.53543, 10.9534l 4.53543, 10.3981l 4.53543, 9.57971l 4.53543, 8.58336l 4.53543, 7.49119l 4.53543, 6.37609l 4.53543, 5.2976l 4.53543, 4.29983l 4.53543,
 3.41143l 4.53543, 2.64699l 4.53543, 2.00946l 4.53543, 1.49304l 4.53543, 1.08607l 4.53543, 0.773654l 4.53543, 0.539806l 4.53543, 0.368988l 4.53543, 0.24714l 4.53543, 0.162216l 4.53543, 0.104357l 4.53543, 0.0658075l 4.53543, 0.0406819l 4.53543,
 0.0246569l 4.53543, 0.0339911h 99.7795" fill="none" stroke="#007d34" stroke-width="2"/>
<path d="M503.933,346.022h 4.53543" fill="none" stroke="#007d34" stroke-width="2"/>
<path d="M57.1929,346.022h 453.543" fill="none" stroke="black"/>
<path d="M57.1929,336.795v 9.22726" fill="none" stroke="black"/>
<path d="M72.311,341.409v 4.61363" fill="none" stroke="black"/>
<path d="M87.4291,341.409v 4.61363" fill="none" stroke="black"/>
<path d="M102.547,341.409v 4.61363" fill="none" stroke="black"/>
<path d="M117.665,341.409v 4.61363" fill="none" stroke="black"/>
<path d="M132.783,336.795v 9.22726" fill="none" stroke="black"/>
<path d="M147.902,341.409v 4.61363" fill="none" stroke="black"/>
<path d="M163.02,341.409v 4.61363" fill="none" stroke="black"/>
<path d="M178.138,341.409v 4.61363" fill="none" stroke="black"/>
<path d="M193.256,341.409v 4.61363" fill="none" stroke="black"/>
<path d="M208.374,336.795v 9.22726" fill="none" stroke="black"/>
<path d="M223.492,341.409v 4.61363" fill="none" stroke="black"/>
<path d="M238.61,341.409v 4.61363" fill="none" stroke="black"/>
<path d="M253.728,341.409v 4.61363" fill="none" stroke="black"/>
<path d="M268.846,341.409v 4.61363" fill="none" stroke="black"/>
<path d="M283.965,336.795v 9.22726" fill="none" stroke="black"/>
<path d="M299.083,341.409v 4.61363" fill="none" stroke="black"/>
<path d="M314.201,341.409v 4.61363" fill="none" stroke="black"/>
<path d="M329.319,341.409v 4.61363" fill="none" stroke="black"/>
<path d="M344.437,341.409v 4.61363" fill="none" stroke="black"/>
<path d="M359.555,336.795v 9.22726" fill="none" stroke="black"/>
<path d="M374.673,341.409v 4.61363" fill="none" stroke="black"/>
<path d="M389.791,341.409v 4.61363" fill="none" stroke="black"/>
<path d="M404.909,341.409v 4.61363" fill="none" stroke="black"/>
<path d="M420.028,341.409v 4.61363" fill="none" stroke="black"/>
<path d="M435.146,336.795v 9.22726" fill="none" stroke="black"/>
<path d="M450.264,341.409v 4.61363" fill="none" stroke="black"/>
<path d="M465.382,341.409v 4.61363" fill="none" stroke="black"/>
<path d="M480.5,341.409v 4.61363" fill="none" stroke="black"/>
<path d="M495.618,341.409v 4.61363" fill="none" stroke="black"/>
<path d="M510.736,336.795v 9.22726" fill="none" stroke="black"/>
<path d="M57.1929,346.022v -307.575" fill="none" stroke="black"/>
<path d="M70.7992,346.022h -13.6063" fill="none" stroke="black"/>
<path d="M63.9961,333.817h -6.80315" fill="none" stroke="black"/>
<path d="M63.9961,321.612h -6.80315" fill="none" stroke="black"/>
<path d="M63.9961,309.406h -6.80315" fill="none" stroke="black"/>
<path d="M63.9961,297.201h -6.80315" fill="none" stroke="black"/>
<path d="M70.7992,284.995h -13.6063" fill="none" stroke="black"/>
<path d="M63.9961,272.79h -6.80315" fill="none" stroke="black"/>
<path d="M63.9961,260.585h -6.80315" fill="none" stroke="black"/>
<path d="M63.9961,248.379h -6.80315" fill="none" stroke="black"/>
<path d="M63.9961,236.174h -6.80315" fill="none" stroke="black"/>
<path d="M70.7992,223.969h -13.6063" fill="none" stroke="black"/>
<path d="M63.9961,211.763h -6.80315" fill="none" stroke="black"/>
<path d="M63.9961,199.558h -6.80315" fill="none" stroke="black"/>
<path d="M63.9961,187.352h -6.80315" fill="none" stroke="black"/>
<path d="M63.9961,175.147h -6.80315" fill="none" stroke="black"/>
<path d="M70.7992,162.942h -13.6063" fill="none" stroke="black"/>
<path d="M63.9961,150.736h -6.80315" fill="none" stroke="black"/>
<path d="M63.9961,138.531h -6.80315" fill="none" stroke="black"/>
<path d="M63.9961,126.326h -6.80315" fill="none" stroke="black"/>
<path d="M63.9961,114.12h -6.80315" fill="none" stroke="black"/>
<path d="M70.7992,101.915h -13.6063" fill="none" stroke="black"/>
<path d="M63.9961,89.7095h -6.80315" fill="none" stroke="black"/>
<path d="M63.9961,77.5041h -6.80315" fill="none" stroke="black"/>
<path d="M63.9961,65.2987h -6.80315" fill="none" stroke="black"/>
<path d="M63.9961,53.0934h -6.80315" fill="none" stroke="black"/>
<path d="M70.7992,40.888h -13.6063" fill="none" stroke="black"/>
<path d="M70.7992,40.888h -13.6063" fill="none" stroke="black"/>
<rect x="58.0145" y="164.667" width="170.079" height="80.7385" fill="white"/>
<path d="M58.0145,245.406h 170.079" fill="none" stroke="black"/>
<path d="M228.093,245.406v -80.7385" fill="none" stroke="black"/>
<path d="M228.093,164.667h -170.079" fill="none" stroke="black"/>
<path d="M58.0145,164.667v 80.7385" fill="none" stroke="black"/>
<text xml:space="preserve" x="99.8755" y="184.089" fill="black" font-size="16.1932" font-family="Helvetica">sector 6</text>
<path d="M64.3925,187.543h 29.7638v -18.839h -29.7638z" fill="#cea262" fill-opacity="0.50" stroke-opacity="0.50"/>
<path d="M64.3925,178.124h 29.7638" fill="none" stroke="#cea262" fill-opacity="0.00" stroke-opacity="0.00"/>
<g stroke="black" stroke-width="1" fill="none">
<line x1="78.2744" y1="178.124" x2="79.2744" y2="178.124"/>
</g>
<text xml:space="preserve" x="99.8755" y="210.969" fill="black" font-size="16.1932" font-family="Helvetica">sector 7</text>
<path d="M64.3925,214.456h 29.7638v -18.839h -29.7638z" fill="#817066" fill-opacity="0.50" stroke-opacity="0.50"/>
<path d="M64.3925,205.037h 29.7638" fill="none" stroke="#817066" fill-opacity="0.00" stroke-opacity="0.00"/>
<g stroke="black" stroke-width="1" fill="none">
<line x1="78.2744" y1="205.037" x2="79.2744" y2="205.037"/>
</g>
<text xml:space="preserve" x="99.8755" y="237.85" fill="black" font-size="16.1932" font-family="Helvetica">sector 8</text>
<path d="M64.3925,241.369h 29.7638v -18.839h -29.7638z" fill="#007d34" fill-opacity="0.50" stroke-opacity="0.50"/>
<path d="M64.3925,231.949h 29.7638" fill="none" stroke="#007d34" fill-opacity="0.00" stroke-opacity="0.00"/>
<g stroke="black" stroke-width="1" fill="none">
<line x1="78.2744" y1="231.949" x2="79.2744" y2="231.949"/>
</g>
<text xml:space="preserve" x="242.422" y="17.9202" fill="black" font-size="18.7938" font-family="Helvetica">vop 69.18</text></svg>
