<?xml version="1.0" standalone="no"?>
<svg width="567.429" height="384.969" viewBox="0 0 567.429 384.969" xmlns="http://www.w3.org/2000/svg" shape-rendering="crispEdges">
<title>
./sector_diagrams/adjusted/sector6.svg
</title>
<desc>
Creator: ROOT Version 6.22/02
CreationDate: Mon Jul 12 13:04:21 2021</desc>
<defs>
</defs>
<rect x="0.5" y="0" width="566.929" height="384.469" fill="white"/>
<rect x="57.1929" y="38.4469" width="453.543" height="307.575" fill="white"/>
<rect x="57.1929" y="38.4469" width="453.543" height="307.575" fill="none" stroke="black"/>
<path d="M57.1929,346.022h 453.543" fill="none" stroke="black"/>
<path d="M57.1929,38.4469v 307.575" fill="none" stroke="black" stroke-dasharray=" 1, 2"/>
<path d="M104.934,38.4469v 307.575" fill="none" stroke="black" stroke-dasharray=" 1, 2"/>
<path d="M152.676,38.4469v 307.575" fill="none" stroke="black" stroke-dasharray=" 1, 2"/>
<path d="M200.417,38.4469v 307.575" fill="none" stroke="black" stroke-dasharray=" 1, 2"/>
<path d="M248.159,38.4469v 307.575" fill="none" stroke="black" stroke-dasharray=" 1, 2"/>
<path d="M295.9,38.4469v 307.575" fill="none" stroke="black" stroke-dasharray=" 1, 2"/>
<path d="M343.641,38.4469v 307.575" fill="none" stroke="black" stroke-dasharray=" 1, 2"/>
<path d="M391.383,38.4469v 307.575" fill="none" stroke="black" stroke-dasharray=" 1, 2"/>
<path d="M439.124,38.4469v 307.575" fill="none" stroke="black" stroke-dasharray=" 1, 2"/>
<path d="M486.866,38.4469v 307.575" fill="none" stroke="black" stroke-dasharray=" 1, 2"/>
<path d="M486.866,38.4469v 307.575" fill="none" stroke="black" stroke-dasharray=" 1, 2"/>
<path d="M57.1929,346.022v -307.575" fill="none" stroke="black"/>
<path d="M510.736,346.022h -453.543" fill="none" stroke="black" stroke-dasharray=" 1, 2"/>
<path d="M510.736,294.76h -453.543" fill="none" stroke="black" stroke-dasharray=" 1, 2"/>
<path d="M510.736,243.497h -453.543" fill="none" stroke="black" stroke-dasharray=" 1, 2"/>
<path d="M510.736,192.235h -453.543" fill="none" stroke="black" stroke-dasharray=" 1, 2"/>
<path d="M510.736,140.972h -453.543" fill="none" stroke="black" stroke-dasharray=" 1, 2"/>
<path d="M510.736,89.7095h -453.543" fill="none" stroke="black" stroke-dasharray=" 1, 2"/>
<path d="M510.736,38.4469h -453.543" fill="none" stroke="black" stroke-dasharray=" 1, 2"/>
<path d="M57.1929,346.022h 453.543" fill="none" stroke="#000099"/>
<path d="M57.1929,346.022h 453.543" fill="none" stroke="black"/>
<path d="M57.1929,336.795v 9.22726" fill="none" stroke="black"/>
<path d="M66.7412,341.409v 4.61363" fill="none" stroke="black"/>
<path d="M76.2895,341.409v 4.61363" fill="none" stroke="black"/>
<path d="M85.8378,341.409v 4.61363" fill="none" stroke="black"/>
<path d="M95.386,341.409v 4.61363" fill="none" stroke="black"/>
<path d="M104.934,336.795v 9.22726" fill="none" stroke="black"/>
<path d="M114.483,341.409v 4.61363" fill="none" stroke="black"/>
<path d="M124.031,341.409v 4.61363" fill="none" stroke="black"/>
<path d="M133.579,341.409v 4.61363" fill="none" stroke="black"/>
<path d="M143.127,341.409v 4.61363" fill="none" stroke="black"/>
<path d="M152.676,336.795v 9.22726" fill="none" stroke="black"/>
<path d="M162.224,341.409v 4.61363" fill="none" stroke="black"/>
<path d="M171.772,341.409v 4.61363" fill="none" stroke="black"/>
<path d="M181.321,341.409v 4.61363" fill="none" stroke="black"/>
<path d="M190.869,341.409v 4.61363" fill="none" stroke="black"/>
<path d="M200.417,336.795v 9.22726" fill="none" stroke="black"/>
<path d="M209.965,341.409v 4.61363" fill="none" stroke="black"/>
<path d="M219.514,341.409v 4.61363" fill="none" stroke="black"/>
<path d="M229.062,341.409v 4.61363" fill="none" stroke="black"/>
<path d="M238.61,341.409v 4.61363" fill="none" stroke="black"/>
<path d="M248.159,336.795v 9.22726" fill="none" stroke="black"/>
<path d="M257.707,341.409v 4.61363" fill="none" stroke="black"/>
<path d="M267.255,341.409v 4.61363" fill="none" stroke="black"/>
<path d="M276.803,341.409v 4.61363" fill="none" stroke="black"/>
<path d="M286.352,341.409v 4.61363" fill="none" stroke="black"/>
<path d="M295.9,336.795v 9.22726" fill="none" stroke="black"/>
<path d="M305.448,341.409v 4.61363" fill="none" stroke="black"/>
<path d="M314.996,341.409v 4.61363" fill="none" stroke="black"/>
<path d="M324.545,341.409v 4.61363" fill="none" stroke="black"/>
<path d="M334.093,341.409v 4.61363" fill="none" stroke="black"/>
<path d="M343.641,336.795v 9.22726" fill="none" stroke="black"/>
<path d="M353.19,341.409v 4.61363" fill="none" stroke="black"/>
<path d="M362.738,341.409v 4.61363" fill="none" stroke="black"/>
<path d="M372.286,341.409v 4.61363" fill="none" stroke="black"/>
<path d="M381.834,341.409v 4.61363" fill="none" stroke="black"/>
<path d="M391.383,336.795v 9.22726" fill="none" stroke="black"/>
<path d="M400.931,341.409v 4.61363" fill="none" stroke="black"/>
<path d="M410.479,341.409v 4.61363" fill="none" stroke="black"/>
<path d="M420.028,341.409v 4.61363" fill="none" stroke="black"/>
<path d="M429.576,341.409v 4.61363" fill="none" stroke="black"/>
<path d="M439.124,336.795v 9.22726" fill="none" stroke="black"/>
<path d="M448.672,341.409v 4.61363" fill="none" stroke="black"/>
<path d="M458.221,341.409v 4.61363" fill="none" stroke="black"/>
<path d="M467.769,341.409v 4.61363" fill="none" stroke="black"/>
<path d="M477.317,341.409v 4.61363" fill="none" stroke="black"/>
<path d="M486.866,336.795v 9.22726" fill="none" stroke="black"/>
<path d="M486.866,336.795v 9.22726" fill="none" stroke="black"/>
<path d="M496.414,341.409v 4.61363" fill="none" stroke="black"/>
<path d="M505.962,341.409v 4.61363" fill="none" stroke="black"/>
<text xml:space="preserve" x="53.446" y="358.403" fill="black" font-size="12.8453" font-family="Helvetica">0</text>
<text xml:space="preserve" x="98.2464" y="358.403" fill="black" font-size="12.8453" font-family="Helvetica">10</text>
<text xml:space="preserve" x="145.49" y="358.403" fill="black" font-size="12.8453" font-family="Helvetica">20</text>
<text xml:space="preserve" x="193.549" y="358.403" fill="black" font-size="12.8453" font-family="Helvetica">30</text>
<text xml:space="preserve" x="241.608" y="358.403" fill="black" font-size="12.8453" font-family="Helvetica">40</text>
<text xml:space="preserve" x="288.852" y="358.403" fill="black" font-size="12.8453" font-family="Helvetica">50</text>
<text xml:space="preserve" x="336.911" y="358.403" fill="black" font-size="12.8453" font-family="Helvetica">60</text>
<text xml:space="preserve" x="384.155" y="358.403" fill="black" font-size="12.8453" font-family="Helvetica">70</text>
<text xml:space="preserve" x="432.213" y="358.403" fill="black" font-size="12.8453" font-family="Helvetica">80</text>
<text xml:space="preserve" x="480.272" y="358.403" fill="black" font-size="12.8453" font-family="Helvetica">90</text>
<text xml:space="preserve" x="433.842" y="372.251" fill="black" font-size="12.8453" font-family="Helvetica">Block Number</text>
<path d="M57.1929,346.022v -307.575" fill="none" stroke="black"/>
<path d="M70.7992,346.022h -13.6063" fill="none" stroke="black"/>
<path d="M63.9961,335.77h -6.80315" fill="none" stroke="black"/>
<path d="M63.9961,325.517h -6.80315" fill="none" stroke="black"/>
<path d="M63.9961,315.265h -6.80315" fill="none" stroke="black"/>
<path d="M63.9961,305.012h -6.80315" fill="none" stroke="black"/>
<path d="M70.7992,294.76h -13.6063" fill="none" stroke="black"/>
<path d="M63.9961,284.507h -6.80315" fill="none" stroke="black"/>
<path d="M63.9961,274.255h -6.80315" fill="none" stroke="black"/>
<path d="M63.9961,264.002h -6.80315" fill="none" stroke="black"/>
<path d="M63.9961,253.75h -6.80315" fill="none" stroke="black"/>
<path d="M70.7992,243.497h -13.6063" fill="none" stroke="black"/>
<path d="M63.9961,233.245h -6.80315" fill="none" stroke="black"/>
<path d="M63.9961,222.992h -6.80315" fill="none" stroke="black"/>
<path d="M63.9961,212.74h -6.80315" fill="none" stroke="black"/>
<path d="M63.9961,202.487h -6.80315" fill="none" stroke="black"/>
<path d="M70.7992,192.235h -13.6063" fill="none" stroke="black"/>
<path d="M63.9961,181.982h -6.80315" fill="none" stroke="black"/>
<path d="M63.9961,171.73h -6.80315" fill="none" stroke="black"/>
<path d="M63.9961,161.477h -6.80315" fill="none" stroke="black"/>
<path d="M63.9961,151.225h -6.80315" fill="none" stroke="black"/>
<path d="M70.7992,140.972h -13.6063" fill="none" stroke="black"/>
<path d="M63.9961,130.72h -6.80315" fill="none" stroke="black"/>
<path d="M63.9961,120.467h -6.80315" fill="none" stroke="black"/>
<path d="M63.9961,110.215h -6.80315" fill="none" stroke="black"/>
<path d="M63.9961,99.962h -6.80315" fill="none" stroke="black"/>
<path d="M70.7992,89.7095h -13.6063" fill="none" stroke="black"/>
<path d="M63.9961,79.457h -6.80315" fill="none" stroke="black"/>
<path d="M63.9961,69.2045h -6.80315" fill="none" stroke="black"/>
<path d="M63.9961,58.9519h -6.80315" fill="none" stroke="black"/>
<path d="M63.9961,48.6994h -6.80315" fill="none" stroke="black"/>
<path d="M70.7992,38.4469h -13.6063" fill="none" stroke="black"/>
<text xml:space="preserve" x="47.7441" y="350.258" fill="black" font-size="12.8453" font-family="Helvetica">0</text>
<text xml:space="preserve" x="33.8967" y="298.941" fill="black" font-size="12.8453" font-family="Helvetica">100</text>
<text xml:space="preserve" x="33.8967" y="247.624" fill="black" font-size="12.8453" font-family="Helvetica">200</text>
<text xml:space="preserve" x="33.8967" y="197.122" fill="black" font-size="12.8453" font-family="Helvetica">300</text>
<text xml:space="preserve" x="33.8967" y="145.805" fill="black" font-size="12.8453" font-family="Helvetica">400</text>
<text xml:space="preserve" x="33.8967" y="94.4882" fill="black" font-size="12.8453" font-family="Helvetica">500</text>
<text xml:space="preserve" x="33.8967" y="43.1713" fill="black" font-size="12.8453" font-family="Helvetica">600</text>
<g transform="rotate(-90,21.6784,65.1643)">
<text xml:space="preserve" x="21.6784" y="65.1643" fill="black" font-size="12.8453" font-family="Helvetica">MPV</text>
</g>
<text xml:space="preserve" x="204.138" y="18.7347" fill="black" font-size="18.7938" font-family="Helvetica">Sector 6 (Adjusted)</text>
<g stroke="black" stroke-width="1" fill="none">
<line x1="75.93" y1="212.134" x2="80.5371" y2="216.741"/><line x1="75.93" y1="216.741" x2="80.5371" y2="212.134"/>
</g>
<g stroke="black" stroke-width="1" fill="none">
<line x1="80.6057" y1="218.514" x2="85.2128" y2="223.121"/><line x1="80.6057" y1="223.121" x2="85.2128" y2="218.514"/>
</g>
<g stroke="black" stroke-width="1" fill="none">
<line x1="85.2814" y1="194.547" x2="89.8885" y2="199.154"/><line x1="85.2814" y1="199.154" x2="89.8885" y2="194.547"/>
</g>
<g stroke="black" stroke-width="1" fill="none">
<line x1="89.9571" y1="232.868" x2="94.5643" y2="237.476"/><line x1="89.9571" y1="237.476" x2="94.5643" y2="232.868"/>
</g>
<g stroke="black" stroke-width="1" fill="none">
<line x1="94.6328" y1="206.889" x2="99.24" y2="211.496"/><line x1="94.6328" y1="211.496" x2="99.24" y2="206.889"/>
</g>
<g stroke="black" stroke-width="1" fill="none">
<line x1="99.3085" y1="194.039" x2="103.916" y2="198.646"/><line x1="99.3085" y1="198.646" x2="103.916" y2="194.039"/>
</g>
<g stroke="black" stroke-width="1" fill="none">
<line x1="103.984" y1="226.139" x2="108.591" y2="230.746"/><line x1="103.984" y1="230.746" x2="108.591" y2="226.139"/>
</g>
<g stroke="black" stroke-width="1" fill="none">
<line x1="108.66" y1="225.008" x2="113.267" y2="229.615"/><line x1="108.66" y1="229.615" x2="113.267" y2="225.008"/>
</g>
<g stroke="black" stroke-width="1" fill="none">
<line x1="113.336" y1="217.258" x2="117.943" y2="221.865"/><line x1="113.336" y1="221.865" x2="117.943" y2="217.258"/>
</g>
<g stroke="black" stroke-width="1" fill="none">
<line x1="118.011" y1="206.376" x2="122.618" y2="210.983"/><line x1="118.011" y1="210.983" x2="122.618" y2="206.376"/>
</g>
<g stroke="black" stroke-width="1" fill="none">
<line x1="122.687" y1="196.93" x2="127.294" y2="201.538"/><line x1="122.687" y1="201.538" x2="127.294" y2="196.93"/>
</g>
<g stroke="black" stroke-width="1" fill="none">
<line x1="127.363" y1="198.768" x2="131.97" y2="203.375"/><line x1="127.363" y1="203.375" x2="131.97" y2="198.768"/>
</g>
<g stroke="#ff0000" stroke-width="1" fill="none">
<line x1="132.038" y1="175.956" x2="136.646" y2="180.563"/><line x1="132.038" y1="180.563" x2="136.646" y2="175.956"/>
</g>
<g stroke="#ff0000" stroke-width="1" fill="none">
<line x1="136.714" y1="177.723" x2="141.321" y2="182.33"/><line x1="136.714" y1="182.33" x2="141.321" y2="177.723"/>
</g>
<g stroke="#ff0000" stroke-width="1" fill="none">
<line x1="141.39" y1="186.738" x2="145.997" y2="191.345"/><line x1="141.39" y1="191.345" x2="145.997" y2="186.738"/>
</g>
<g stroke="#ff0000" stroke-width="1" fill="none">
<line x1="146.066" y1="201.828" x2="150.673" y2="206.436"/><line x1="146.066" y1="206.436" x2="150.673" y2="201.828"/>
</g>
<g stroke="#ff0000" stroke-width="1" fill="none">
<line x1="150.741" y1="150.778" x2="155.348" y2="155.385"/><line x1="150.741" y1="155.385" x2="155.348" y2="150.778"/>
</g>
<g stroke="#ff0000" stroke-width="1" fill="none">
<line x1="155.417" y1="164.791" x2="160.024" y2="169.398"/><line x1="155.417" y1="169.398" x2="160.024" y2="164.791"/>
</g>
<g stroke="#ff0000" stroke-width="1" fill="none">
<line x1="160.093" y1="173.205" x2="164.7" y2="177.813"/><line x1="160.093" y1="177.813" x2="164.7" y2="173.205"/>
</g>
<g stroke="#ff0000" stroke-width="1" fill="none">
<line x1="164.768" y1="175.826" x2="169.376" y2="180.433"/><line x1="164.768" y1="180.433" x2="169.376" y2="175.826"/>
</g>
<g stroke="#ff0000" stroke-width="1" fill="none">
<line x1="169.444" y1="167.853" x2="174.051" y2="172.46"/><line x1="169.444" y1="172.46" x2="174.051" y2="167.853"/>
</g>
<g stroke="#ff0000" stroke-width="1" fill="none">
<line x1="174.12" y1="168.366" x2="178.727" y2="172.973"/><line x1="174.12" y1="172.973" x2="178.727" y2="168.366"/>
</g>
<g stroke="#ff0000" stroke-width="1" fill="none">
<line x1="178.796" y1="241.598" x2="183.403" y2="246.205"/><line x1="178.796" y1="246.205" x2="183.403" y2="241.598"/>
</g>
<g stroke="#ff0000" stroke-width="1" fill="none">
<line x1="183.471" y1="146.246" x2="188.078" y2="150.853"/><line x1="183.471" y1="150.853" x2="188.078" y2="146.246"/>
</g>
<g stroke="#ff0000" stroke-width="1" fill="none">
<line x1="188.147" y1="185.155" x2="192.754" y2="189.762"/><line x1="188.147" y1="189.762" x2="192.754" y2="185.155"/>
</g>
<g stroke="#ff0000" stroke-width="1" fill="none">
<line x1="192.823" y1="207.729" x2="197.43" y2="212.336"/><line x1="192.823" y1="212.336" x2="197.43" y2="207.729"/>
</g>
<g stroke="#ff0000" stroke-width="1" fill="none">
<line x1="197.498" y1="196.64" x2="202.105" y2="201.247"/><line x1="197.498" y1="201.247" x2="202.105" y2="196.64"/>
</g>
<g stroke="#ff0000" stroke-width="1" fill="none">
<line x1="202.174" y1="178.836" x2="206.781" y2="183.443"/><line x1="202.174" y1="183.443" x2="206.781" y2="178.836"/>
</g>
<g stroke="#009900" stroke-width="1" fill="none">
<line x1="206.85" y1="188.097" x2="211.457" y2="192.704"/><line x1="206.85" y1="192.704" x2="211.457" y2="188.097"/>
</g>
<g stroke="#009900" stroke-width="1" fill="none">
<line x1="211.525" y1="162.994" x2="216.133" y2="167.602"/><line x1="211.525" y1="167.602" x2="216.133" y2="162.994"/>
</g>
<g stroke="#009900" stroke-width="1" fill="none">
<line x1="216.201" y1="180.416" x2="220.808" y2="185.023"/><line x1="216.201" y1="185.023" x2="220.808" y2="180.416"/>
</g>
<g stroke="#009900" stroke-width="1" fill="none">
<line x1="220.877" y1="199.595" x2="225.484" y2="204.203"/><line x1="220.877" y1="204.203" x2="225.484" y2="199.595"/>
</g>
<g stroke="#009900" stroke-width="1" fill="none">
<line x1="225.553" y1="193.01" x2="230.16" y2="197.617"/><line x1="225.553" y1="197.617" x2="230.16" y2="193.01"/>
</g>
<g stroke="#009900" stroke-width="1" fill="none">
<line x1="230.228" y1="194.773" x2="234.835" y2="199.38"/><line x1="230.228" y1="199.38" x2="234.835" y2="194.773"/>
</g>
<g stroke="#009900" stroke-width="1" fill="none">
<line x1="234.904" y1="199.67" x2="239.511" y2="204.277"/><line x1="234.904" y1="204.277" x2="239.511" y2="199.67"/>
</g>
<g stroke="#009900" stroke-width="1" fill="none">
<line x1="239.58" y1="219.597" x2="244.187" y2="224.204"/><line x1="239.58" y1="224.204" x2="244.187" y2="219.597"/>
</g>
<g stroke="#009900" stroke-width="1" fill="none">
<line x1="244.255" y1="195.658" x2="248.862" y2="200.265"/><line x1="244.255" y1="200.265" x2="248.862" y2="195.658"/>
</g>
<g stroke="#009900" stroke-width="1" fill="none">
<line x1="248.931" y1="211.684" x2="253.538" y2="216.291"/><line x1="248.931" y1="216.291" x2="253.538" y2="211.684"/>
</g>
<g stroke="#009900" stroke-width="1" fill="none">
<line x1="253.607" y1="246.852" x2="258.214" y2="251.459"/><line x1="253.607" y1="251.459" x2="258.214" y2="246.852"/>
</g>
<g stroke="#009900" stroke-width="1" fill="none">
<line x1="258.283" y1="176.947" x2="262.89" y2="181.554"/><line x1="258.283" y1="181.554" x2="262.89" y2="176.947"/>
</g>
<g stroke="#009900" stroke-width="1" fill="none">
<line x1="262.958" y1="171.547" x2="267.565" y2="176.154"/><line x1="262.958" y1="176.154" x2="267.565" y2="171.547"/>
</g>
<g stroke="#009900" stroke-width="1" fill="none">
<line x1="267.634" y1="198.572" x2="272.241" y2="203.179"/><line x1="267.634" y1="203.179" x2="272.241" y2="198.572"/>
</g>
<g stroke="#009900" stroke-width="1" fill="none">
<line x1="272.31" y1="221.819" x2="276.917" y2="226.426"/><line x1="272.31" y1="226.426" x2="276.917" y2="221.819"/>
</g>
<g stroke="#009900" stroke-width="1" fill="none">
<line x1="276.985" y1="199.871" x2="281.592" y2="204.478"/><line x1="276.985" y1="204.478" x2="281.592" y2="199.871"/>
</g>
<g stroke="#0000ff" stroke-width="1" fill="none">
<line x1="281.661" y1="210.235" x2="286.268" y2="214.842"/><line x1="281.661" y1="214.842" x2="286.268" y2="210.235"/>
</g>
<g stroke="#0000ff" stroke-width="1" fill="none">
<line x1="286.337" y1="231.805" x2="290.944" y2="236.412"/><line x1="286.337" y1="236.412" x2="290.944" y2="231.805"/>
</g>
<g stroke="#0000ff" stroke-width="1" fill="none">
<line x1="291.012" y1="192.01" x2="295.62" y2="196.617"/><line x1="291.012" y1="196.617" x2="295.62" y2="192.01"/>
</g>
<g stroke="#0000ff" stroke-width="1" fill="none">
<line x1="295.688" y1="194.09" x2="300.295" y2="198.697"/><line x1="295.688" y1="198.697" x2="300.295" y2="194.09"/>
</g>
<g stroke="#0000ff" stroke-width="1" fill="none">
<line x1="300.364" y1="130.076" x2="304.971" y2="134.683"/><line x1="300.364" y1="134.683" x2="304.971" y2="130.076"/>
</g>
<g stroke="#0000ff" stroke-width="1" fill="none">
<line x1="305.04" y1="199.965" x2="309.647" y2="204.572"/><line x1="305.04" y1="204.572" x2="309.647" y2="199.965"/>
</g>
<g stroke="#0000ff" stroke-width="1" fill="none">
<line x1="309.715" y1="222.7" x2="314.322" y2="227.307"/><line x1="309.715" y1="227.307" x2="314.322" y2="222.7"/>
</g>
<g stroke="#0000ff" stroke-width="1" fill="none">
<line x1="314.391" y1="237.025" x2="318.998" y2="241.632"/><line x1="314.391" y1="241.632" x2="318.998" y2="237.025"/>
</g>
<g stroke="#0000ff" stroke-width="1" fill="none">
<line x1="319.067" y1="215.452" x2="323.674" y2="220.059"/><line x1="319.067" y1="220.059" x2="323.674" y2="215.452"/>
</g>
<g stroke="#0000ff" stroke-width="1" fill="none">
<line x1="323.742" y1="209.353" x2="328.349" y2="213.96"/><line x1="323.742" y1="213.96" x2="328.349" y2="209.353"/>
</g>
<g stroke="#0000ff" stroke-width="1" fill="none">
<line x1="328.418" y1="198.09" x2="333.025" y2="202.697"/><line x1="328.418" y1="202.697" x2="333.025" y2="198.09"/>
</g>
<g stroke="#0000ff" stroke-width="1" fill="none">
<line x1="333.094" y1="178.386" x2="337.701" y2="182.993"/><line x1="333.094" y1="182.993" x2="337.701" y2="178.386"/>
</g>
<g stroke="#0000ff" stroke-width="1" fill="none">
<line x1="337.769" y1="161.406" x2="342.377" y2="166.013"/><line x1="337.769" y1="166.013" x2="342.377" y2="161.406"/>
</g>
<g stroke="#0000ff" stroke-width="1" fill="none">
<line x1="342.445" y1="174.515" x2="347.052" y2="179.123"/><line x1="342.445" y1="179.123" x2="347.052" y2="174.515"/>
</g>
<g stroke="#0000ff" stroke-width="1" fill="none">
<line x1="347.121" y1="192.282" x2="351.728" y2="196.889"/><line x1="347.121" y1="196.889" x2="351.728" y2="192.282"/>
</g>
<g stroke="#0000ff" stroke-width="1" fill="none">
<line x1="351.797" y1="174.505" x2="356.404" y2="179.112"/><line x1="351.797" y1="179.112" x2="356.404" y2="174.505"/>
</g>
<g stroke="#cc00ff" stroke-width="1" fill="none">
<line x1="356.472" y1="172.824" x2="361.079" y2="177.431"/><line x1="356.472" y1="177.431" x2="361.079" y2="172.824"/>
</g>
<g stroke="#cc00ff" stroke-width="1" fill="none">
<line x1="361.148" y1="220.479" x2="365.755" y2="225.086"/><line x1="361.148" y1="225.086" x2="365.755" y2="220.479"/>
</g>
<g stroke="#cc00ff" stroke-width="1" fill="none">
<line x1="365.824" y1="197.138" x2="370.431" y2="201.745"/><line x1="365.824" y1="201.745" x2="370.431" y2="197.138"/>
</g>
<g stroke="#cc00ff" stroke-width="1" fill="none">
<line x1="370.499" y1="180.915" x2="375.107" y2="185.522"/><line x1="370.499" y1="185.522" x2="375.107" y2="180.915"/>
</g>
<g stroke="#cc00ff" stroke-width="1" fill="none">
<line x1="375.175" y1="222.56" x2="379.782" y2="227.168"/><line x1="375.175" y1="227.168" x2="379.782" y2="222.56"/>
</g>
<g stroke="#cc00ff" stroke-width="1" fill="none">
<line x1="379.851" y1="181.058" x2="384.458" y2="185.665"/><line x1="379.851" y1="185.665" x2="384.458" y2="181.058"/>
</g>
<g stroke="#cc00ff" stroke-width="1" fill="none">
<line x1="389.202" y1="194.168" x2="393.809" y2="198.775"/><line x1="389.202" y1="198.775" x2="393.809" y2="194.168"/>
</g>
<g stroke="#cc00ff" stroke-width="1" fill="none">
<line x1="393.878" y1="204.04" x2="398.485" y2="208.647"/><line x1="393.878" y1="208.647" x2="398.485" y2="204.04"/>
</g>
<g stroke="#cc00ff" stroke-width="1" fill="none">
<line x1="398.554" y1="174.31" x2="403.161" y2="178.917"/><line x1="398.554" y1="178.917" x2="403.161" y2="174.31"/>
</g>
<g stroke="#cc00ff" stroke-width="1" fill="none">
<line x1="403.229" y1="198.384" x2="407.836" y2="202.991"/><line x1="403.229" y1="202.991" x2="407.836" y2="198.384"/>
</g>
<g stroke="#cc00ff" stroke-width="1" fill="none">
<line x1="407.905" y1="174.98" x2="412.512" y2="179.587"/><line x1="407.905" y1="179.587" x2="412.512" y2="174.98"/>
</g>
<g stroke="#cc00ff" stroke-width="1" fill="none">
<line x1="412.581" y1="187.011" x2="417.188" y2="191.619"/><line x1="412.581" y1="191.619" x2="417.188" y2="187.011"/>
</g>
<g stroke="#cc00ff" stroke-width="1" fill="none">
<line x1="417.256" y1="174.193" x2="421.864" y2="178.8"/><line x1="417.256" y1="178.8" x2="421.864" y2="174.193"/>
</g>
<g stroke="#cc00ff" stroke-width="1" fill="none">
<line x1="421.932" y1="167.566" x2="426.539" y2="172.173"/><line x1="421.932" y1="172.173" x2="426.539" y2="167.566"/>
</g>
<g stroke="#cc00ff" stroke-width="1" fill="none">
<line x1="426.608" y1="189.772" x2="431.215" y2="194.379"/><line x1="426.608" y1="194.379" x2="431.215" y2="189.772"/>
</g>
<g stroke="#00ffff" stroke-width="1" fill="none">
<line x1="431.284" y1="176.773" x2="435.891" y2="181.38"/><line x1="431.284" y1="181.38" x2="435.891" y2="176.773"/>
</g>
<g stroke="#00ffff" stroke-width="1" fill="none">
<line x1="435.959" y1="179.738" x2="440.566" y2="184.346"/><line x1="435.959" y1="184.346" x2="440.566" y2="179.738"/>
</g>
<g stroke="#00ffff" stroke-width="1" fill="none">
<line x1="440.635" y1="216.932" x2="445.242" y2="221.539"/><line x1="440.635" y1="221.539" x2="445.242" y2="216.932"/>
</g>
<g stroke="#00ffff" stroke-width="1" fill="none">
<line x1="445.311" y1="195.3" x2="449.918" y2="199.907"/><line x1="445.311" y1="199.907" x2="449.918" y2="195.3"/>
</g>
<g stroke="#00ffff" stroke-width="1" fill="none">
<line x1="449.986" y1="212.238" x2="454.593" y2="216.845"/><line x1="449.986" y1="216.845" x2="454.593" y2="212.238"/>
</g>
<g stroke="#00ffff" stroke-width="1" fill="none">
<line x1="454.662" y1="214.595" x2="459.269" y2="219.202"/><line x1="454.662" y1="219.202" x2="459.269" y2="214.595"/>
</g>
<g stroke="#00ffff" stroke-width="1" fill="none">
<line x1="459.338" y1="168.418" x2="463.945" y2="173.025"/><line x1="459.338" y1="173.025" x2="463.945" y2="168.418"/>
</g>
<g stroke="#00ffff" stroke-width="1" fill="none">
<line x1="464.013" y1="213.499" x2="468.621" y2="218.106"/><line x1="464.013" y1="218.106" x2="468.621" y2="213.499"/>
</g>
<g stroke="#00ffff" stroke-width="1" fill="none">
<line x1="468.689" y1="192.987" x2="473.296" y2="197.594"/><line x1="468.689" y1="197.594" x2="473.296" y2="192.987"/>
</g>
<g stroke="#00ffff" stroke-width="1" fill="none">
<line x1="473.365" y1="231.422" x2="477.972" y2="236.029"/><line x1="473.365" y1="236.029" x2="477.972" y2="231.422"/>
</g>
<g stroke="#00ffff" stroke-width="1" fill="none">
<line x1="482.716" y1="217.167" x2="487.323" y2="221.774"/><line x1="482.716" y1="221.774" x2="487.323" y2="217.167"/>
</g>
<g stroke="#00ffff" stroke-width="1" fill="none">
<line x1="487.392" y1="160.005" x2="491.999" y2="164.612"/><line x1="487.392" y1="164.612" x2="491.999" y2="160.005"/>
</g>
<g stroke="#00ffff" stroke-width="1" fill="none">
<line x1="492.068" y1="220.374" x2="496.675" y2="224.981"/><line x1="492.068" y1="224.981" x2="496.675" y2="220.374"/>
</g>
<g stroke="#00ffff" stroke-width="1" fill="none">
<line x1="496.743" y1="202.84" x2="501.351" y2="207.447"/><line x1="496.743" y1="207.447" x2="501.351" y2="202.84"/>
</g>
<g stroke="#00ffff" stroke-width="1" fill="none">
<line x1="501.419" y1="155.453" x2="506.026" y2="160.06"/><line x1="501.419" y1="160.06" x2="506.026" y2="155.453"/>
</g>
<path d="M57.1929,346.022h 453.543" fill="none" stroke="black"/>
<path d="M57.1929,336.795v 9.22726" fill="none" stroke="black"/>
<path d="M66.7412,341.409v 4.61363" fill="none" stroke="black"/>
<path d="M76.2895,341.409v 4.61363" fill="none" stroke="black"/>
<path d="M85.8378,341.409v 4.61363" fill="none" stroke="black"/>
<path d="M95.386,341.409v 4.61363" fill="none" stroke="black"/>
<path d="M104.934,336.795v 9.22726" fill="none" stroke="black"/>
<path d="M114.483,341.409v 4.61363" fill="none" stroke="black"/>
<path d="M124.031,341.409v 4.61363" fill="none" stroke="black"/>
<path d="M133.579,341.409v 4.61363" fill="none" stroke="black"/>
<path d="M143.127,341.409v 4.61363" fill="none" stroke="black"/>
<path d="M152.676,336.795v 9.22726" fill="none" stroke="black"/>
<path d="M162.224,341.409v 4.61363" fill="none" stroke="black"/>
<path d="M171.772,341.409v 4.61363" fill="none" stroke="black"/>
<path d="M181.321,341.409v 4.61363" fill="none" stroke="black"/>
<path d="M190.869,341.409v 4.61363" fill="none" stroke="black"/>
<path d="M200.417,336.795v 9.22726" fill="none" stroke="black"/>
<path d="M209.965,341.409v 4.61363" fill="none" stroke="black"/>
<path d="M219.514,341.409v 4.61363" fill="none" stroke="black"/>
<path d="M229.062,341.409v 4.61363" fill="none" stroke="black"/>
<path d="M238.61,341.409v 4.61363" fill="none" stroke="black"/>
<path d="M248.159,336.795v 9.22726" fill="none" stroke="black"/>
<path d="M257.707,341.409v 4.61363" fill="none" stroke="black"/>
<path d="M267.255,341.409v 4.61363" fill="none" stroke="black"/>
<path d="M276.803,341.409v 4.61363" fill="none" stroke="black"/>
<path d="M286.352,341.409v 4.61363" fill="none" stroke="black"/>
<path d="M295.9,336.795v 9.22726" fill="none" stroke="black"/>
<path d="M305.448,341.409v 4.61363" fill="none" stroke="black"/>
<path d="M314.996,341.409v 4.61363" fill="none" stroke="black"/>
<path d="M324.545,341.409v 4.61363" fill="none" stroke="black"/>
<path d="M334.093,341.409v 4.61363" fill="none" stroke="black"/>
<path d="M343.641,336.795v 9.22726" fill="none" stroke="black"/>
<path d="M353.19,341.409v 4.61363" fill="none" stroke="black"/>
<path d="M362.738,341.409v 4.61363" fill="none" stroke="black"/>
<path d="M372.286,341.409v 4.61363" fill="none" stroke="black"/>
<path d="M381.834,341.409v 4.61363" fill="none" stroke="black"/>
<path d="M391.383,336.795v 9.22726" fill="none" stroke="black"/>
<path d="M400.931,341.409v 4.61363" fill="none" stroke="black"/>
<path d="M410.479,341.409v 4.61363" fill="none" stroke="black"/>
<path d="M420.028,341.409v 4.61363" fill="none" stroke="black"/>
<path d="M429.576,341.409v 4.61363" fill="none" stroke="black"/>
<path d="M439.124,336.795v 9.22726" fill="none" stroke="black"/>
<path d="M448.672,341.409v 4.61363" fill="none" stroke="black"/>
<path d="M458.221,341.409v 4.61363" fill="none" stroke="black"/>
<path d="M467.769,341.409v 4.61363" fill="none" stroke="black"/>
<path d="M477.317,341.409v 4.61363" fill="none" stroke="black"/>
<path d="M486.866,336.795v 9.22726" fill="none" stroke="black"/>
<path d="M486.866,336.795v 9.22726" fill="none" stroke="black"/>
<path d="M496.414,341.409v 4.61363" fill="none" stroke="black"/>
<path d="M505.962,341.409v 4.61363" fill="none" stroke="black"/>
<path d="M57.1929,346.022v -307.575" fill="none" stroke="black"/>
<path d="M70.7992,346.022h -13.6063" fill="none" stroke="black"/>
<path d="M63.9961,335.77h -6.80315" fill="none" stroke="black"/>
<path d="M63.9961,325.517h -6.80315" fill="none" stroke="black"/>
<path d="M63.9961,315.265h -6.80315" fill="none" stroke="black"/>
<path d="M63.9961,305.012h -6.80315" fill="none" stroke="black"/>
<path d="M70.7992,294.76h -13.6063" fill="none" stroke="black"/>
<path d="M63.9961,284.507h -6.80315" fill="none" stroke="black"/>
<path d="M63.9961,274.255h -6.80315" fill="none" stroke="black"/>
<path d="M63.9961,264.002h -6.80315" fill="none" stroke="black"/>
<path d="M63.9961,253.75h -6.80315" fill="none" stroke="black"/>
<path d="M70.7992,243.497h -13.6063" fill="none" stroke="black"/>
<path d="M63.9961,233.245h -6.80315" fill="none" stroke="black"/>
<path d="M63.9961,222.992h -6.80315" fill="none" stroke="black"/>
<path d="M63.9961,212.74h -6.80315" fill="none" stroke="black"/>
<path d="M63.9961,202.487h -6.80315" fill="none" stroke="black"/>
<path d="M70.7992,192.235h -13.6063" fill="none" stroke="black"/>
<path d="M63.9961,181.982h -6.80315" fill="none" stroke="black"/>
<path d="M63.9961,171.73h -6.80315" fill="none" stroke="black"/>
<path d="M63.9961,161.477h -6.80315" fill="none" stroke="black"/>
<path d="M63.9961,151.225h -6.80315" fill="none" stroke="black"/>
<path d="M70.7992,140.972h -13.6063" fill="none" stroke="black"/>
<path d="M63.9961,130.72h -6.80315" fill="none" stroke="black"/>
<path d="M63.9961,120.467h -6.80315" fill="none" stroke="black"/>
<path d="M63.9961,110.215h -6.80315" fill="none" stroke="black"/>
<path d="M63.9961,99.962h -6.80315" fill="none" stroke="black"/>
<path d="M70.7992,89.7095h -13.6063" fill="none" stroke="black"/>
<path d="M63.9961,79.457h -6.80315" fill="none" stroke="black"/>
<path d="M63.9961,69.2045h -6.80315" fill="none" stroke="black"/>
<path d="M63.9961,58.9519h -6.80315" fill="none" stroke="black"/>
<path d="M63.9961,48.6994h -6.80315" fill="none" stroke="black"/>
<path d="M70.7992,38.4469h -13.6063" fill="none" stroke="black"/>
<text xml:space="preserve" x="204.138" y="18.7347" fill="black" font-size="18.7938" font-family="Helvetica">Sector 6 (Adjusted)</text></svg>
