<?xml version="1.0" standalone="no"?>
<svg width="567.429" height="384.969" viewBox="0 0 567.429 384.969" xmlns="http://www.w3.org/2000/svg" shape-rendering="crispEdges">
<title>
./sector_diagrams/adjusted/sector16.svg
</title>
<desc>
Creator: ROOT Version 6.22/02
CreationDate: Mon Jul 12 11:35:43 2021</desc>
<defs>
</defs>
<rect x="0.5" y="0" width="566.929" height="384.469" fill="white"/>
<rect x="57.1929" y="38.4469" width="453.543" height="307.575" fill="white"/>
<rect x="57.1929" y="38.4469" width="453.543" height="307.575" fill="none" stroke="black"/>
<path d="M57.1929,346.022h 453.543" fill="none" stroke="black"/>
<path d="M57.1929,38.4469v 307.575" fill="none" stroke="black" stroke-dasharray=" 1, 2"/>
<path d="M104.934,38.4469v 307.575" fill="none" stroke="black" stroke-dasharray=" 1, 2"/>
<path d="M152.676,38.4469v 307.575" fill="none" stroke="black" stroke-dasharray=" 1, 2"/>
<path d="M200.417,38.4469v 307.575" fill="none" stroke="black" stroke-dasharray=" 1, 2"/>
<path d="M248.159,38.4469v 307.575" fill="none" stroke="black" stroke-dasharray=" 1, 2"/>
<path d="M295.9,38.4469v 307.575" fill="none" stroke="black" stroke-dasharray=" 1, 2"/>
<path d="M343.641,38.4469v 307.575" fill="none" stroke="black" stroke-dasharray=" 1, 2"/>
<path d="M391.383,38.4469v 307.575" fill="none" stroke="black" stroke-dasharray=" 1, 2"/>
<path d="M439.124,38.4469v 307.575" fill="none" stroke="black" stroke-dasharray=" 1, 2"/>
<path d="M486.866,38.4469v 307.575" fill="none" stroke="black" stroke-dasharray=" 1, 2"/>
<path d="M486.866,38.4469v 307.575" fill="none" stroke="black" stroke-dasharray=" 1, 2"/>
<path d="M57.1929,346.022v -307.575" fill="none" stroke="black"/>
<path d="M510.736,346.022h -453.543" fill="none" stroke="black" stroke-dasharray=" 1, 2"/>
<path d="M510.736,294.76h -453.543" fill="none" stroke="black" stroke-dasharray=" 1, 2"/>
<path d="M510.736,243.497h -453.543" fill="none" stroke="black" stroke-dasharray=" 1, 2"/>
<path d="M510.736,192.235h -453.543" fill="none" stroke="black" stroke-dasharray=" 1, 2"/>
<path d="M510.736,140.972h -453.543" fill="none" stroke="black" stroke-dasharray=" 1, 2"/>
<path d="M510.736,89.7095h -453.543" fill="none" stroke="black" stroke-dasharray=" 1, 2"/>
<path d="M510.736,38.4469h -453.543" fill="none" stroke="black" stroke-dasharray=" 1, 2"/>
<path d="M57.1929,346.022h 453.543" fill="none" stroke="#000099"/>
<path d="M57.1929,346.022h 453.543" fill="none" stroke="black"/>
<path d="M57.1929,336.795v 9.22726" fill="none" stroke="black"/>
<path d="M66.7412,341.409v 4.61363" fill="none" stroke="black"/>
<path d="M76.2895,341.409v 4.61363" fill="none" stroke="black"/>
<path d="M85.8378,341.409v 4.61363" fill="none" stroke="black"/>
<path d="M95.386,341.409v 4.61363" fill="none" stroke="black"/>
<path d="M104.934,336.795v 9.22726" fill="none" stroke="black"/>
<path d="M114.483,341.409v 4.61363" fill="none" stroke="black"/>
<path d="M124.031,341.409v 4.61363" fill="none" stroke="black"/>
<path d="M133.579,341.409v 4.61363" fill="none" stroke="black"/>
<path d="M143.127,341.409v 4.61363" fill="none" stroke="black"/>
<path d="M152.676,336.795v 9.22726" fill="none" stroke="black"/>
<path d="M162.224,341.409v 4.61363" fill="none" stroke="black"/>
<path d="M171.772,341.409v 4.61363" fill="none" stroke="black"/>
<path d="M181.321,341.409v 4.61363" fill="none" stroke="black"/>
<path d="M190.869,341.409v 4.61363" fill="none" stroke="black"/>
<path d="M200.417,336.795v 9.22726" fill="none" stroke="black"/>
<path d="M209.965,341.409v 4.61363" fill="none" stroke="black"/>
<path d="M219.514,341.409v 4.61363" fill="none" stroke="black"/>
<path d="M229.062,341.409v 4.61363" fill="none" stroke="black"/>
<path d="M238.61,341.409v 4.61363" fill="none" stroke="black"/>
<path d="M248.159,336.795v 9.22726" fill="none" stroke="black"/>
<path d="M257.707,341.409v 4.61363" fill="none" stroke="black"/>
<path d="M267.255,341.409v 4.61363" fill="none" stroke="black"/>
<path d="M276.803,341.409v 4.61363" fill="none" stroke="black"/>
<path d="M286.352,341.409v 4.61363" fill="none" stroke="black"/>
<path d="M295.9,336.795v 9.22726" fill="none" stroke="black"/>
<path d="M305.448,341.409v 4.61363" fill="none" stroke="black"/>
<path d="M314.996,341.409v 4.61363" fill="none" stroke="black"/>
<path d="M324.545,341.409v 4.61363" fill="none" stroke="black"/>
<path d="M334.093,341.409v 4.61363" fill="none" stroke="black"/>
<path d="M343.641,336.795v 9.22726" fill="none" stroke="black"/>
<path d="M353.19,341.409v 4.61363" fill="none" stroke="black"/>
<path d="M362.738,341.409v 4.61363" fill="none" stroke="black"/>
<path d="M372.286,341.409v 4.61363" fill="none" stroke="black"/>
<path d="M381.834,341.409v 4.61363" fill="none" stroke="black"/>
<path d="M391.383,336.795v 9.22726" fill="none" stroke="black"/>
<path d="M400.931,341.409v 4.61363" fill="none" stroke="black"/>
<path d="M410.479,341.409v 4.61363" fill="none" stroke="black"/>
<path d="M420.028,341.409v 4.61363" fill="none" stroke="black"/>
<path d="M429.576,341.409v 4.61363" fill="none" stroke="black"/>
<path d="M439.124,336.795v 9.22726" fill="none" stroke="black"/>
<path d="M448.672,341.409v 4.61363" fill="none" stroke="black"/>
<path d="M458.221,341.409v 4.61363" fill="none" stroke="black"/>
<path d="M467.769,341.409v 4.61363" fill="none" stroke="black"/>
<path d="M477.317,341.409v 4.61363" fill="none" stroke="black"/>
<path d="M486.866,336.795v 9.22726" fill="none" stroke="black"/>
<path d="M486.866,336.795v 9.22726" fill="none" stroke="black"/>
<path d="M496.414,341.409v 4.61363" fill="none" stroke="black"/>
<path d="M505.962,341.409v 4.61363" fill="none" stroke="black"/>
<text xml:space="preserve" x="53.446" y="358.403" fill="black" font-size="12.8453" font-family="Helvetica">0</text>
<text xml:space="preserve" x="98.2464" y="358.403" fill="black" font-size="12.8453" font-family="Helvetica">10</text>
<text xml:space="preserve" x="145.49" y="358.403" fill="black" font-size="12.8453" font-family="Helvetica">20</text>
<text xml:space="preserve" x="193.549" y="358.403" fill="black" font-size="12.8453" font-family="Helvetica">30</text>
<text xml:space="preserve" x="241.608" y="358.403" fill="black" font-size="12.8453" font-family="Helvetica">40</text>
<text xml:space="preserve" x="288.852" y="358.403" fill="black" font-size="12.8453" font-family="Helvetica">50</text>
<text xml:space="preserve" x="336.911" y="358.403" fill="black" font-size="12.8453" font-family="Helvetica">60</text>
<text xml:space="preserve" x="384.155" y="358.403" fill="black" font-size="12.8453" font-family="Helvetica">70</text>
<text xml:space="preserve" x="432.213" y="358.403" fill="black" font-size="12.8453" font-family="Helvetica">80</text>
<text xml:space="preserve" x="480.272" y="358.403" fill="black" font-size="12.8453" font-family="Helvetica">90</text>
<text xml:space="preserve" x="433.842" y="372.251" fill="black" font-size="12.8453" font-family="Helvetica">Block Number</text>
<path d="M57.1929,346.022v -307.575" fill="none" stroke="black"/>
<path d="M70.7992,346.022h -13.6063" fill="none" stroke="black"/>
<path d="M63.9961,335.77h -6.80315" fill="none" stroke="black"/>
<path d="M63.9961,325.517h -6.80315" fill="none" stroke="black"/>
<path d="M63.9961,315.265h -6.80315" fill="none" stroke="black"/>
<path d="M63.9961,305.012h -6.80315" fill="none" stroke="black"/>
<path d="M70.7992,294.76h -13.6063" fill="none" stroke="black"/>
<path d="M63.9961,284.507h -6.80315" fill="none" stroke="black"/>
<path d="M63.9961,274.255h -6.80315" fill="none" stroke="black"/>
<path d="M63.9961,264.002h -6.80315" fill="none" stroke="black"/>
<path d="M63.9961,253.75h -6.80315" fill="none" stroke="black"/>
<path d="M70.7992,243.497h -13.6063" fill="none" stroke="black"/>
<path d="M63.9961,233.245h -6.80315" fill="none" stroke="black"/>
<path d="M63.9961,222.992h -6.80315" fill="none" stroke="black"/>
<path d="M63.9961,212.74h -6.80315" fill="none" stroke="black"/>
<path d="M63.9961,202.487h -6.80315" fill="none" stroke="black"/>
<path d="M70.7992,192.235h -13.6063" fill="none" stroke="black"/>
<path d="M63.9961,181.982h -6.80315" fill="none" stroke="black"/>
<path d="M63.9961,171.73h -6.80315" fill="none" stroke="black"/>
<path d="M63.9961,161.477h -6.80315" fill="none" stroke="black"/>
<path d="M63.9961,151.225h -6.80315" fill="none" stroke="black"/>
<path d="M70.7992,140.972h -13.6063" fill="none" stroke="black"/>
<path d="M63.9961,130.72h -6.80315" fill="none" stroke="black"/>
<path d="M63.9961,120.467h -6.80315" fill="none" stroke="black"/>
<path d="M63.9961,110.215h -6.80315" fill="none" stroke="black"/>
<path d="M63.9961,99.962h -6.80315" fill="none" stroke="black"/>
<path d="M70.7992,89.7095h -13.6063" fill="none" stroke="black"/>
<path d="M63.9961,79.457h -6.80315" fill="none" stroke="black"/>
<path d="M63.9961,69.2045h -6.80315" fill="none" stroke="black"/>
<path d="M63.9961,58.9519h -6.80315" fill="none" stroke="black"/>
<path d="M63.9961,48.6994h -6.80315" fill="none" stroke="black"/>
<path d="M70.7992,38.4469h -13.6063" fill="none" stroke="black"/>
<text xml:space="preserve" x="47.7441" y="350.258" fill="black" font-size="12.8453" font-family="Helvetica">0</text>
<text xml:space="preserve" x="33.8967" y="298.941" fill="black" font-size="12.8453" font-family="Helvetica">100</text>
<text xml:space="preserve" x="33.8967" y="247.624" fill="black" font-size="12.8453" font-family="Helvetica">200</text>
<text xml:space="preserve" x="33.8967" y="197.122" fill="black" font-size="12.8453" font-family="Helvetica">300</text>
<text xml:space="preserve" x="33.8967" y="145.805" fill="black" font-size="12.8453" font-family="Helvetica">400</text>
<text xml:space="preserve" x="33.8967" y="94.4882" fill="black" font-size="12.8453" font-family="Helvetica">500</text>
<text xml:space="preserve" x="33.8967" y="43.1713" fill="black" font-size="12.8453" font-family="Helvetica">600</text>
<g transform="rotate(-90,21.6784,65.1643)">
<text xml:space="preserve" x="21.6784" y="65.1643" fill="black" font-size="12.8453" font-family="Helvetica">MPV</text>
</g>
<text xml:space="preserve" x="199.251" y="18.7347" fill="black" font-size="18.7938" font-family="Helvetica">Sector 16 (Adjusted)</text>
<g stroke="black" stroke-width="1" fill="none">
<line x1="113.336" y1="190.551" x2="117.943" y2="195.158"/><line x1="113.336" y1="195.158" x2="117.943" y2="190.551"/>
</g>
<g stroke="black" stroke-width="1" fill="none">
<line x1="118.011" y1="178.226" x2="122.618" y2="182.833"/><line x1="118.011" y1="182.833" x2="122.618" y2="178.226"/>
</g>
<g stroke="black" stroke-width="1" fill="none">
<line x1="122.687" y1="189.826" x2="127.294" y2="194.433"/><line x1="122.687" y1="194.433" x2="127.294" y2="189.826"/>
</g>
<g stroke="#ff0000" stroke-width="1" fill="none">
<line x1="132.038" y1="165.561" x2="136.646" y2="170.168"/><line x1="132.038" y1="170.168" x2="136.646" y2="165.561"/>
</g>
<g stroke="#ff0000" stroke-width="1" fill="none">
<line x1="136.714" y1="206.513" x2="141.321" y2="211.12"/><line x1="136.714" y1="211.12" x2="141.321" y2="206.513"/>
</g>
<g stroke="#ff0000" stroke-width="1" fill="none">
<line x1="141.39" y1="210.137" x2="145.997" y2="214.744"/><line x1="141.39" y1="214.744" x2="145.997" y2="210.137"/>
</g>
<g stroke="#ff0000" stroke-width="1" fill="none">
<line x1="150.741" y1="185.75" x2="155.348" y2="190.357"/><line x1="150.741" y1="190.357" x2="155.348" y2="185.75"/>
</g>
<g stroke="#ff0000" stroke-width="1" fill="none">
<line x1="155.417" y1="194.833" x2="160.024" y2="199.44"/><line x1="155.417" y1="199.44" x2="160.024" y2="194.833"/>
</g>
<g stroke="#ff0000" stroke-width="1" fill="none">
<line x1="160.093" y1="193.125" x2="164.7" y2="197.732"/><line x1="160.093" y1="197.732" x2="164.7" y2="193.125"/>
</g>
<g stroke="#ff0000" stroke-width="1" fill="none">
<line x1="169.444" y1="162.329" x2="174.051" y2="166.936"/><line x1="169.444" y1="166.936" x2="174.051" y2="162.329"/>
</g>
<g stroke="#ff0000" stroke-width="1" fill="none">
<line x1="174.12" y1="179.725" x2="178.727" y2="184.332"/><line x1="174.12" y1="184.332" x2="178.727" y2="179.725"/>
</g>
<g stroke="#ff0000" stroke-width="1" fill="none">
<line x1="178.796" y1="182.804" x2="183.403" y2="187.411"/><line x1="178.796" y1="187.411" x2="183.403" y2="182.804"/>
</g>
<g stroke="#ff0000" stroke-width="1" fill="none">
<line x1="188.147" y1="182.006" x2="192.754" y2="186.613"/><line x1="188.147" y1="186.613" x2="192.754" y2="182.006"/>
</g>
<g stroke="#ff0000" stroke-width="1" fill="none">
<line x1="192.823" y1="188.195" x2="197.43" y2="192.802"/><line x1="192.823" y1="192.802" x2="197.43" y2="188.195"/>
</g>
<g stroke="#ff0000" stroke-width="1" fill="none">
<line x1="197.498" y1="159.909" x2="202.105" y2="164.516"/><line x1="197.498" y1="164.516" x2="202.105" y2="159.909"/>
</g>
<g stroke="#009900" stroke-width="1" fill="none">
<line x1="206.85" y1="173.253" x2="211.457" y2="177.86"/><line x1="206.85" y1="177.86" x2="211.457" y2="173.253"/>
</g>
<g stroke="#009900" stroke-width="1" fill="none">
<line x1="211.525" y1="179.783" x2="216.133" y2="184.391"/><line x1="211.525" y1="184.391" x2="216.133" y2="179.783"/>
</g>
<g stroke="#009900" stroke-width="1" fill="none">
<line x1="216.201" y1="197.208" x2="220.808" y2="201.815"/><line x1="216.201" y1="201.815" x2="220.808" y2="197.208"/>
</g>
<g stroke="#009900" stroke-width="1" fill="none">
<line x1="225.553" y1="188.972" x2="230.16" y2="193.579"/><line x1="225.553" y1="193.579" x2="230.16" y2="188.972"/>
</g>
<g stroke="#009900" stroke-width="1" fill="none">
<line x1="230.228" y1="190.533" x2="234.835" y2="195.14"/><line x1="230.228" y1="195.14" x2="234.835" y2="190.533"/>
</g>
<g stroke="#009900" stroke-width="1" fill="none">
<line x1="234.904" y1="191.493" x2="239.511" y2="196.1"/><line x1="234.904" y1="196.1" x2="239.511" y2="191.493"/>
</g>
<g stroke="#009900" stroke-width="1" fill="none">
<line x1="244.255" y1="182.498" x2="248.862" y2="187.105"/><line x1="244.255" y1="187.105" x2="248.862" y2="182.498"/>
</g>
<g stroke="#009900" stroke-width="1" fill="none">
<line x1="248.931" y1="183.896" x2="253.538" y2="188.503"/><line x1="248.931" y1="188.503" x2="253.538" y2="183.896"/>
</g>
<g stroke="#009900" stroke-width="1" fill="none">
<line x1="253.607" y1="202.468" x2="258.214" y2="207.075"/><line x1="253.607" y1="207.075" x2="258.214" y2="202.468"/>
</g>
<g stroke="#009900" stroke-width="1" fill="none">
<line x1="262.958" y1="178.979" x2="267.565" y2="183.586"/><line x1="262.958" y1="183.586" x2="267.565" y2="178.979"/>
</g>
<g stroke="#009900" stroke-width="1" fill="none">
<line x1="267.634" y1="163.125" x2="272.241" y2="167.732"/><line x1="267.634" y1="167.732" x2="272.241" y2="163.125"/>
</g>
<g stroke="#009900" stroke-width="1" fill="none">
<line x1="272.31" y1="179.5" x2="276.917" y2="184.107"/><line x1="272.31" y1="184.107" x2="276.917" y2="179.5"/>
</g>
<g stroke="#0000ff" stroke-width="1" fill="none">
<line x1="281.661" y1="189.74" x2="286.268" y2="194.347"/><line x1="281.661" y1="194.347" x2="286.268" y2="189.74"/>
</g>
<g stroke="#0000ff" stroke-width="1" fill="none">
<line x1="286.337" y1="196.237" x2="290.944" y2="200.844"/><line x1="286.337" y1="200.844" x2="290.944" y2="196.237"/>
</g>
<g stroke="#0000ff" stroke-width="1" fill="none">
<line x1="291.012" y1="184.057" x2="295.62" y2="188.664"/><line x1="291.012" y1="188.664" x2="295.62" y2="184.057"/>
</g>
<g stroke="#0000ff" stroke-width="1" fill="none">
<line x1="300.364" y1="152.336" x2="304.971" y2="156.943"/><line x1="300.364" y1="156.943" x2="304.971" y2="152.336"/>
</g>
<g stroke="#0000ff" stroke-width="1" fill="none">
<line x1="305.04" y1="149.956" x2="309.647" y2="154.563"/><line x1="305.04" y1="154.563" x2="309.647" y2="149.956"/>
</g>
<g stroke="#0000ff" stroke-width="1" fill="none">
<line x1="309.715" y1="189.613" x2="314.322" y2="194.22"/><line x1="309.715" y1="194.22" x2="314.322" y2="189.613"/>
</g>
<g stroke="#0000ff" stroke-width="1" fill="none">
<line x1="319.067" y1="181.779" x2="323.674" y2="186.386"/><line x1="319.067" y1="186.386" x2="323.674" y2="181.779"/>
</g>
<g stroke="#0000ff" stroke-width="1" fill="none">
<line x1="323.742" y1="172.061" x2="328.349" y2="176.668"/><line x1="323.742" y1="176.668" x2="328.349" y2="172.061"/>
</g>
<g stroke="#0000ff" stroke-width="1" fill="none">
<line x1="328.418" y1="163.703" x2="333.025" y2="168.31"/><line x1="328.418" y1="168.31" x2="333.025" y2="163.703"/>
</g>
<g stroke="#0000ff" stroke-width="1" fill="none">
<line x1="337.769" y1="190.28" x2="342.377" y2="194.887"/><line x1="337.769" y1="194.887" x2="342.377" y2="190.28"/>
</g>
<g stroke="#0000ff" stroke-width="1" fill="none">
<line x1="342.445" y1="192.381" x2="347.052" y2="196.989"/><line x1="342.445" y1="196.989" x2="347.052" y2="192.381"/>
</g>
<g stroke="#0000ff" stroke-width="1" fill="none">
<line x1="347.121" y1="179.81" x2="351.728" y2="184.417"/><line x1="347.121" y1="184.417" x2="351.728" y2="179.81"/>
</g>
<g stroke="#cc00ff" stroke-width="1" fill="none">
<line x1="356.472" y1="170.125" x2="361.079" y2="174.732"/><line x1="356.472" y1="174.732" x2="361.079" y2="170.125"/>
</g>
<g stroke="#cc00ff" stroke-width="1" fill="none">
<line x1="361.148" y1="165.415" x2="365.755" y2="170.022"/><line x1="361.148" y1="170.022" x2="365.755" y2="165.415"/>
</g>
<g stroke="#cc00ff" stroke-width="1" fill="none">
<line x1="365.824" y1="196.551" x2="370.431" y2="201.158"/><line x1="365.824" y1="201.158" x2="370.431" y2="196.551"/>
</g>
<g stroke="#cc00ff" stroke-width="1" fill="none">
<line x1="375.175" y1="205.266" x2="379.782" y2="209.873"/><line x1="375.175" y1="209.873" x2="379.782" y2="205.266"/>
</g>
<g stroke="#cc00ff" stroke-width="1" fill="none">
<line x1="379.851" y1="191.002" x2="384.458" y2="195.609"/><line x1="379.851" y1="195.609" x2="384.458" y2="191.002"/>
</g>
<g stroke="#cc00ff" stroke-width="1" fill="none">
<line x1="384.526" y1="185.736" x2="389.134" y2="190.343"/><line x1="384.526" y1="190.343" x2="389.134" y2="185.736"/>
</g>
<path d="M57.1929,346.022h 453.543" fill="none" stroke="black"/>
<path d="M57.1929,336.795v 9.22726" fill="none" stroke="black"/>
<path d="M66.7412,341.409v 4.61363" fill="none" stroke="black"/>
<path d="M76.2895,341.409v 4.61363" fill="none" stroke="black"/>
<path d="M85.8378,341.409v 4.61363" fill="none" stroke="black"/>
<path d="M95.386,341.409v 4.61363" fill="none" stroke="black"/>
<path d="M104.934,336.795v 9.22726" fill="none" stroke="black"/>
<path d="M114.483,341.409v 4.61363" fill="none" stroke="black"/>
<path d="M124.031,341.409v 4.61363" fill="none" stroke="black"/>
<path d="M133.579,341.409v 4.61363" fill="none" stroke="black"/>
<path d="M143.127,341.409v 4.61363" fill="none" stroke="black"/>
<path d="M152.676,336.795v 9.22726" fill="none" stroke="black"/>
<path d="M162.224,341.409v 4.61363" fill="none" stroke="black"/>
<path d="M171.772,341.409v 4.61363" fill="none" stroke="black"/>
<path d="M181.321,341.409v 4.61363" fill="none" stroke="black"/>
<path d="M190.869,341.409v 4.61363" fill="none" stroke="black"/>
<path d="M200.417,336.795v 9.22726" fill="none" stroke="black"/>
<path d="M209.965,341.409v 4.61363" fill="none" stroke="black"/>
<path d="M219.514,341.409v 4.61363" fill="none" stroke="black"/>
<path d="M229.062,341.409v 4.61363" fill="none" stroke="black"/>
<path d="M238.61,341.409v 4.61363" fill="none" stroke="black"/>
<path d="M248.159,336.795v 9.22726" fill="none" stroke="black"/>
<path d="M257.707,341.409v 4.61363" fill="none" stroke="black"/>
<path d="M267.255,341.409v 4.61363" fill="none" stroke="black"/>
<path d="M276.803,341.409v 4.61363" fill="none" stroke="black"/>
<path d="M286.352,341.409v 4.61363" fill="none" stroke="black"/>
<path d="M295.9,336.795v 9.22726" fill="none" stroke="black"/>
<path d="M305.448,341.409v 4.61363" fill="none" stroke="black"/>
<path d="M314.996,341.409v 4.61363" fill="none" stroke="black"/>
<path d="M324.545,341.409v 4.61363" fill="none" stroke="black"/>
<path d="M334.093,341.409v 4.61363" fill="none" stroke="black"/>
<path d="M343.641,336.795v 9.22726" fill="none" stroke="black"/>
<path d="M353.19,341.409v 4.61363" fill="none" stroke="black"/>
<path d="M362.738,341.409v 4.61363" fill="none" stroke="black"/>
<path d="M372.286,341.409v 4.61363" fill="none" stroke="black"/>
<path d="M381.834,341.409v 4.61363" fill="none" stroke="black"/>
<path d="M391.383,336.795v 9.22726" fill="none" stroke="black"/>
<path d="M400.931,341.409v 4.61363" fill="none" stroke="black"/>
<path d="M410.479,341.409v 4.61363" fill="none" stroke="black"/>
<path d="M420.028,341.409v 4.61363" fill="none" stroke="black"/>
<path d="M429.576,341.409v 4.61363" fill="none" stroke="black"/>
<path d="M439.124,336.795v 9.22726" fill="none" stroke="black"/>
<path d="M448.672,341.409v 4.61363" fill="none" stroke="black"/>
<path d="M458.221,341.409v 4.61363" fill="none" stroke="black"/>
<path d="M467.769,341.409v 4.61363" fill="none" stroke="black"/>
<path d="M477.317,341.409v 4.61363" fill="none" stroke="black"/>
<path d="M486.866,336.795v 9.22726" fill="none" stroke="black"/>
<path d="M486.866,336.795v 9.22726" fill="none" stroke="black"/>
<path d="M496.414,341.409v 4.61363" fill="none" stroke="black"/>
<path d="M505.962,341.409v 4.61363" fill="none" stroke="black"/>
<path d="M57.1929,346.022v -307.575" fill="none" stroke="black"/>
<path d="M70.7992,346.022h -13.6063" fill="none" stroke="black"/>
<path d="M63.9961,335.77h -6.80315" fill="none" stroke="black"/>
<path d="M63.9961,325.517h -6.80315" fill="none" stroke="black"/>
<path d="M63.9961,315.265h -6.80315" fill="none" stroke="black"/>
<path d="M63.9961,305.012h -6.80315" fill="none" stroke="black"/>
<path d="M70.7992,294.76h -13.6063" fill="none" stroke="black"/>
<path d="M63.9961,284.507h -6.80315" fill="none" stroke="black"/>
<path d="M63.9961,274.255h -6.80315" fill="none" stroke="black"/>
<path d="M63.9961,264.002h -6.80315" fill="none" stroke="black"/>
<path d="M63.9961,253.75h -6.80315" fill="none" stroke="black"/>
<path d="M70.7992,243.497h -13.6063" fill="none" stroke="black"/>
<path d="M63.9961,233.245h -6.80315" fill="none" stroke="black"/>
<path d="M63.9961,222.992h -6.80315" fill="none" stroke="black"/>
<path d="M63.9961,212.74h -6.80315" fill="none" stroke="black"/>
<path d="M63.9961,202.487h -6.80315" fill="none" stroke="black"/>
<path d="M70.7992,192.235h -13.6063" fill="none" stroke="black"/>
<path d="M63.9961,181.982h -6.80315" fill="none" stroke="black"/>
<path d="M63.9961,171.73h -6.80315" fill="none" stroke="black"/>
<path d="M63.9961,161.477h -6.80315" fill="none" stroke="black"/>
<path d="M63.9961,151.225h -6.80315" fill="none" stroke="black"/>
<path d="M70.7992,140.972h -13.6063" fill="none" stroke="black"/>
<path d="M63.9961,130.72h -6.80315" fill="none" stroke="black"/>
<path d="M63.9961,120.467h -6.80315" fill="none" stroke="black"/>
<path d="M63.9961,110.215h -6.80315" fill="none" stroke="black"/>
<path d="M63.9961,99.962h -6.80315" fill="none" stroke="black"/>
<path d="M70.7992,89.7095h -13.6063" fill="none" stroke="black"/>
<path d="M63.9961,79.457h -6.80315" fill="none" stroke="black"/>
<path d="M63.9961,69.2045h -6.80315" fill="none" stroke="black"/>
<path d="M63.9961,58.9519h -6.80315" fill="none" stroke="black"/>
<path d="M63.9961,48.6994h -6.80315" fill="none" stroke="black"/>
<path d="M70.7992,38.4469h -13.6063" fill="none" stroke="black"/>
<text xml:space="preserve" x="199.251" y="18.7347" fill="black" font-size="18.7938" font-family="Helvetica">Sector 16 (Adjusted)</text></svg>
