<?xml version="1.0" standalone="no"?>
<svg width="567.429" height="384.969" viewBox="0 0 567.429 384.969" xmlns="http://www.w3.org/2000/svg" shape-rendering="crispEdges">
<title>
./sector_diagrams/adjusted/sector10.svg
</title>
<desc>
Creator: ROOT Version 6.22/02
CreationDate: Fri Jul 16 02:44:16 2021</desc>
<defs>
</defs>
<rect x="0.5" y="0" width="566.929" height="384.469" fill="white"/>
<rect x="57.1929" y="38.4469" width="453.543" height="307.575" fill="white"/>
<rect x="57.1929" y="38.4469" width="453.543" height="307.575" fill="none" stroke="black"/>
<path d="M57.1929,346.022h 453.543" fill="none" stroke="black"/>
<path d="M57.1929,38.4469v 307.575" fill="none" stroke="black" stroke-dasharray=" 1, 2"/>
<path d="M104.934,38.4469v 307.575" fill="none" stroke="black" stroke-dasharray=" 1, 2"/>
<path d="M152.676,38.4469v 307.575" fill="none" stroke="black" stroke-dasharray=" 1, 2"/>
<path d="M200.417,38.4469v 307.575" fill="none" stroke="black" stroke-dasharray=" 1, 2"/>
<path d="M248.159,38.4469v 307.575" fill="none" stroke="black" stroke-dasharray=" 1, 2"/>
<path d="M295.9,38.4469v 307.575" fill="none" stroke="black" stroke-dasharray=" 1, 2"/>
<path d="M343.641,38.4469v 307.575" fill="none" stroke="black" stroke-dasharray=" 1, 2"/>
<path d="M391.383,38.4469v 307.575" fill="none" stroke="black" stroke-dasharray=" 1, 2"/>
<path d="M439.124,38.4469v 307.575" fill="none" stroke="black" stroke-dasharray=" 1, 2"/>
<path d="M486.866,38.4469v 307.575" fill="none" stroke="black" stroke-dasharray=" 1, 2"/>
<path d="M486.866,38.4469v 307.575" fill="none" stroke="black" stroke-dasharray=" 1, 2"/>
<path d="M57.1929,346.022v -307.575" fill="none" stroke="black"/>
<path d="M510.736,346.022h -453.543" fill="none" stroke="black" stroke-dasharray=" 1, 2"/>
<path d="M510.736,294.76h -453.543" fill="none" stroke="black" stroke-dasharray=" 1, 2"/>
<path d="M510.736,243.497h -453.543" fill="none" stroke="black" stroke-dasharray=" 1, 2"/>
<path d="M510.736,192.235h -453.543" fill="none" stroke="black" stroke-dasharray=" 1, 2"/>
<path d="M510.736,140.972h -453.543" fill="none" stroke="black" stroke-dasharray=" 1, 2"/>
<path d="M510.736,89.7095h -453.543" fill="none" stroke="black" stroke-dasharray=" 1, 2"/>
<path d="M510.736,38.4469h -453.543" fill="none" stroke="black" stroke-dasharray=" 1, 2"/>
<path d="M57.1929,346.022h 453.543" fill="none" stroke="#000099"/>
<path d="M57.1929,346.022h 453.543" fill="none" stroke="black"/>
<path d="M57.1929,336.795v 9.22726" fill="none" stroke="black"/>
<path d="M66.7412,341.409v 4.61363" fill="none" stroke="black"/>
<path d="M76.2895,341.409v 4.61363" fill="none" stroke="black"/>
<path d="M85.8378,341.409v 4.61363" fill="none" stroke="black"/>
<path d="M95.386,341.409v 4.61363" fill="none" stroke="black"/>
<path d="M104.934,336.795v 9.22726" fill="none" stroke="black"/>
<path d="M114.483,341.409v 4.61363" fill="none" stroke="black"/>
<path d="M124.031,341.409v 4.61363" fill="none" stroke="black"/>
<path d="M133.579,341.409v 4.61363" fill="none" stroke="black"/>
<path d="M143.127,341.409v 4.61363" fill="none" stroke="black"/>
<path d="M152.676,336.795v 9.22726" fill="none" stroke="black"/>
<path d="M162.224,341.409v 4.61363" fill="none" stroke="black"/>
<path d="M171.772,341.409v 4.61363" fill="none" stroke="black"/>
<path d="M181.321,341.409v 4.61363" fill="none" stroke="black"/>
<path d="M190.869,341.409v 4.61363" fill="none" stroke="black"/>
<path d="M200.417,336.795v 9.22726" fill="none" stroke="black"/>
<path d="M209.965,341.409v 4.61363" fill="none" stroke="black"/>
<path d="M219.514,341.409v 4.61363" fill="none" stroke="black"/>
<path d="M229.062,341.409v 4.61363" fill="none" stroke="black"/>
<path d="M238.61,341.409v 4.61363" fill="none" stroke="black"/>
<path d="M248.159,336.795v 9.22726" fill="none" stroke="black"/>
<path d="M257.707,341.409v 4.61363" fill="none" stroke="black"/>
<path d="M267.255,341.409v 4.61363" fill="none" stroke="black"/>
<path d="M276.803,341.409v 4.61363" fill="none" stroke="black"/>
<path d="M286.352,341.409v 4.61363" fill="none" stroke="black"/>
<path d="M295.9,336.795v 9.22726" fill="none" stroke="black"/>
<path d="M305.448,341.409v 4.61363" fill="none" stroke="black"/>
<path d="M314.996,341.409v 4.61363" fill="none" stroke="black"/>
<path d="M324.545,341.409v 4.61363" fill="none" stroke="black"/>
<path d="M334.093,341.409v 4.61363" fill="none" stroke="black"/>
<path d="M343.641,336.795v 9.22726" fill="none" stroke="black"/>
<path d="M353.19,341.409v 4.61363" fill="none" stroke="black"/>
<path d="M362.738,341.409v 4.61363" fill="none" stroke="black"/>
<path d="M372.286,341.409v 4.61363" fill="none" stroke="black"/>
<path d="M381.834,341.409v 4.61363" fill="none" stroke="black"/>
<path d="M391.383,336.795v 9.22726" fill="none" stroke="black"/>
<path d="M400.931,341.409v 4.61363" fill="none" stroke="black"/>
<path d="M410.479,341.409v 4.61363" fill="none" stroke="black"/>
<path d="M420.028,341.409v 4.61363" fill="none" stroke="black"/>
<path d="M429.576,341.409v 4.61363" fill="none" stroke="black"/>
<path d="M439.124,336.795v 9.22726" fill="none" stroke="black"/>
<path d="M448.672,341.409v 4.61363" fill="none" stroke="black"/>
<path d="M458.221,341.409v 4.61363" fill="none" stroke="black"/>
<path d="M467.769,341.409v 4.61363" fill="none" stroke="black"/>
<path d="M477.317,341.409v 4.61363" fill="none" stroke="black"/>
<path d="M486.866,336.795v 9.22726" fill="none" stroke="black"/>
<path d="M486.866,336.795v 9.22726" fill="none" stroke="black"/>
<path d="M496.414,341.409v 4.61363" fill="none" stroke="black"/>
<path d="M505.962,341.409v 4.61363" fill="none" stroke="black"/>
<text xml:space="preserve" x="53.446" y="358.403" fill="black" font-size="12.8453" font-family="Helvetica">0</text>
<text xml:space="preserve" x="98.2464" y="358.403" fill="black" font-size="12.8453" font-family="Helvetica">10</text>
<text xml:space="preserve" x="145.49" y="358.403" fill="black" font-size="12.8453" font-family="Helvetica">20</text>
<text xml:space="preserve" x="193.549" y="358.403" fill="black" font-size="12.8453" font-family="Helvetica">30</text>
<text xml:space="preserve" x="241.608" y="358.403" fill="black" font-size="12.8453" font-family="Helvetica">40</text>
<text xml:space="preserve" x="288.852" y="358.403" fill="black" font-size="12.8453" font-family="Helvetica">50</text>
<text xml:space="preserve" x="336.911" y="358.403" fill="black" font-size="12.8453" font-family="Helvetica">60</text>
<text xml:space="preserve" x="384.155" y="358.403" fill="black" font-size="12.8453" font-family="Helvetica">70</text>
<text xml:space="preserve" x="432.213" y="358.403" fill="black" font-size="12.8453" font-family="Helvetica">80</text>
<text xml:space="preserve" x="480.272" y="358.403" fill="black" font-size="12.8453" font-family="Helvetica">90</text>
<text xml:space="preserve" x="433.842" y="372.251" fill="black" font-size="12.8453" font-family="Helvetica">Block Number</text>
<path d="M57.1929,346.022v -307.575" fill="none" stroke="black"/>
<path d="M70.7992,346.022h -13.6063" fill="none" stroke="black"/>
<path d="M63.9961,335.77h -6.80315" fill="none" stroke="black"/>
<path d="M63.9961,325.517h -6.80315" fill="none" stroke="black"/>
<path d="M63.9961,315.265h -6.80315" fill="none" stroke="black"/>
<path d="M63.9961,305.012h -6.80315" fill="none" stroke="black"/>
<path d="M70.7992,294.76h -13.6063" fill="none" stroke="black"/>
<path d="M63.9961,284.507h -6.80315" fill="none" stroke="black"/>
<path d="M63.9961,274.255h -6.80315" fill="none" stroke="black"/>
<path d="M63.9961,264.002h -6.80315" fill="none" stroke="black"/>
<path d="M63.9961,253.75h -6.80315" fill="none" stroke="black"/>
<path d="M70.7992,243.497h -13.6063" fill="none" stroke="black"/>
<path d="M63.9961,233.245h -6.80315" fill="none" stroke="black"/>
<path d="M63.9961,222.992h -6.80315" fill="none" stroke="black"/>
<path d="M63.9961,212.74h -6.80315" fill="none" stroke="black"/>
<path d="M63.9961,202.487h -6.80315" fill="none" stroke="black"/>
<path d="M70.7992,192.235h -13.6063" fill="none" stroke="black"/>
<path d="M63.9961,181.982h -6.80315" fill="none" stroke="black"/>
<path d="M63.9961,171.73h -6.80315" fill="none" stroke="black"/>
<path d="M63.9961,161.477h -6.80315" fill="none" stroke="black"/>
<path d="M63.9961,151.225h -6.80315" fill="none" stroke="black"/>
<path d="M70.7992,140.972h -13.6063" fill="none" stroke="black"/>
<path d="M63.9961,130.72h -6.80315" fill="none" stroke="black"/>
<path d="M63.9961,120.467h -6.80315" fill="none" stroke="black"/>
<path d="M63.9961,110.215h -6.80315" fill="none" stroke="black"/>
<path d="M63.9961,99.962h -6.80315" fill="none" stroke="black"/>
<path d="M70.7992,89.7095h -13.6063" fill="none" stroke="black"/>
<path d="M63.9961,79.457h -6.80315" fill="none" stroke="black"/>
<path d="M63.9961,69.2045h -6.80315" fill="none" stroke="black"/>
<path d="M63.9961,58.9519h -6.80315" fill="none" stroke="black"/>
<path d="M63.9961,48.6994h -6.80315" fill="none" stroke="black"/>
<path d="M70.7992,38.4469h -13.6063" fill="none" stroke="black"/>
<text xml:space="preserve" x="47.7441" y="350.258" fill="black" font-size="12.8453" font-family="Helvetica">0</text>
<text xml:space="preserve" x="33.8967" y="298.941" fill="black" font-size="12.8453" font-family="Helvetica">100</text>
<text xml:space="preserve" x="33.8967" y="247.624" fill="black" font-size="12.8453" font-family="Helvetica">200</text>
<text xml:space="preserve" x="33.8967" y="197.122" fill="black" font-size="12.8453" font-family="Helvetica">300</text>
<text xml:space="preserve" x="33.8967" y="145.805" fill="black" font-size="12.8453" font-family="Helvetica">400</text>
<text xml:space="preserve" x="33.8967" y="94.4882" fill="black" font-size="12.8453" font-family="Helvetica">500</text>
<text xml:space="preserve" x="33.8967" y="43.1713" fill="black" font-size="12.8453" font-family="Helvetica">600</text>
<g transform="rotate(-90,21.6784,65.1643)">
<text xml:space="preserve" x="21.6784" y="65.1643" fill="black" font-size="12.8453" font-family="Helvetica">MPV</text>
</g>
<text xml:space="preserve" x="199.251" y="18.7347" fill="black" font-size="18.7938" font-family="Helvetica">Sector 10 (Adjusted)</text>
<path d="M115.639,279.746v -0.000512626" fill="none" stroke="#000099"/>
<path d="M115.639,279.745v -0.000512626" fill="none" stroke="#000099"/>
<path d="M113.301,279.745h 2.33785" fill="none" stroke="#000099"/>
<path d="M115.639,279.745h 2.33785" fill="none" stroke="#000099"/>
<g stroke="black" stroke-width="1" fill="none">
<line x1="114.639" y1="279.745" x2="115.639" y2="279.745"/>
</g>
<path d="M120.315,168.418v -0.000512626" fill="none" stroke="#000099"/>
<path d="M120.315,168.418v -0.000512626" fill="none" stroke="#000099"/>
<path d="M117.977,168.418h 2.33785" fill="none" stroke="#000099"/>
<path d="M120.315,168.418h 2.33785" fill="none" stroke="#000099"/>
<g stroke="black" stroke-width="1" fill="none">
<line x1="119.315" y1="168.418" x2="120.315" y2="168.418"/>
</g>
<path d="M124.991,202.324v -0.000512626" fill="none" stroke="#000099"/>
<path d="M124.991,202.324v -0.000512626" fill="none" stroke="#000099"/>
<path d="M122.653,202.324h 2.33785" fill="none" stroke="#000099"/>
<path d="M124.991,202.324h 2.33785" fill="none" stroke="#000099"/>
<g stroke="black" stroke-width="1" fill="none">
<line x1="123.991" y1="202.324" x2="124.991" y2="202.324"/>
</g>
<path d="M129.666,189.52v -0.000512626" fill="none" stroke="#000099"/>
<path d="M129.666,189.52v -0.000512626" fill="none" stroke="#000099"/>
<path d="M127.328,189.52h 2.33785" fill="none" stroke="#000099"/>
<path d="M129.666,189.52h 2.33785" fill="none" stroke="#000099"/>
<g stroke="black" stroke-width="1" fill="none">
<line x1="128.666" y1="189.52" x2="129.666" y2="189.52"/>
</g>
<path d="M134.342,182.405v -0.000512626" fill="none" stroke="#000099"/>
<path d="M134.342,182.405v -0.000512626" fill="none" stroke="#000099"/>
<path d="M132.004,182.405h 2.33785" fill="none" stroke="#000099"/>
<path d="M134.342,182.405h 2.33785" fill="none" stroke="#000099"/>
<g stroke="#ff0000" stroke-width="1" fill="none">
<line x1="133.342" y1="182.405" x2="134.342" y2="182.405"/>
</g>
<path d="M139.018,167.768v -0.000512626" fill="none" stroke="#000099"/>
<path d="M139.018,167.768v -0.000512626" fill="none" stroke="#000099"/>
<path d="M136.68,167.768h 2.33785" fill="none" stroke="#000099"/>
<path d="M139.018,167.768h 2.33785" fill="none" stroke="#000099"/>
<g stroke="#ff0000" stroke-width="1" fill="none">
<line x1="138.018" y1="167.768" x2="139.018" y2="167.768"/>
</g>
<path d="M143.693,154.472v -0.000512626" fill="none" stroke="#000099"/>
<path d="M143.693,154.472v -0.000512626" fill="none" stroke="#000099"/>
<path d="M141.356,154.472h 2.33785" fill="none" stroke="#000099"/>
<path d="M143.693,154.472h 2.33785" fill="none" stroke="#000099"/>
<g stroke="#ff0000" stroke-width="1" fill="none">
<line x1="142.693" y1="154.472" x2="143.693" y2="154.472"/>
</g>
<path d="M148.369,154.76v -0.000512626" fill="none" stroke="#000099"/>
<path d="M148.369,154.76v -0.000512626" fill="none" stroke="#000099"/>
<path d="M146.031,154.76h 2.33785" fill="none" stroke="#000099"/>
<path d="M148.369,154.76h 2.33785" fill="none" stroke="#000099"/>
<g stroke="#ff0000" stroke-width="1" fill="none">
<line x1="147.369" y1="154.76" x2="148.369" y2="154.76"/>
</g>
<path d="M153.045,168.448v -0.000512626" fill="none" stroke="#000099"/>
<path d="M153.045,168.448v -0.000512626" fill="none" stroke="#000099"/>
<path d="M150.707,168.448h 2.33785" fill="none" stroke="#000099"/>
<path d="M153.045,168.448h 2.33785" fill="none" stroke="#000099"/>
<g stroke="#ff0000" stroke-width="1" fill="none">
<line x1="152.045" y1="168.448" x2="153.045" y2="168.448"/>
</g>
<path d="M157.721,170.605v -0.000512626" fill="none" stroke="#000099"/>
<path d="M157.721,170.604v -0.000512626" fill="none" stroke="#000099"/>
<path d="M155.383,170.604h 2.33785" fill="none" stroke="#000099"/>
<path d="M157.721,170.604h 2.33785" fill="none" stroke="#000099"/>
<g stroke="#ff0000" stroke-width="1" fill="none">
<line x1="156.721" y1="170.604" x2="157.721" y2="170.604"/>
</g>
<path d="M162.396,180.985v -0.000512626" fill="none" stroke="#000099"/>
<path d="M162.396,180.984v -0.000512626" fill="none" stroke="#000099"/>
<path d="M160.058,180.984h 2.33785" fill="none" stroke="#000099"/>
<path d="M162.396,180.984h 2.33785" fill="none" stroke="#000099"/>
<g stroke="#ff0000" stroke-width="1" fill="none">
<line x1="161.396" y1="180.984" x2="162.396" y2="180.984"/>
</g>
<path d="M167.072,145.165v -0.000512626" fill="none" stroke="#000099"/>
<path d="M167.072,145.164v -0.000512626" fill="none" stroke="#000099"/>
<path d="M164.734,145.164h 2.33785" fill="none" stroke="#000099"/>
<path d="M167.072,145.164h 2.33785" fill="none" stroke="#000099"/>
<g stroke="#ff0000" stroke-width="1" fill="none">
<line x1="166.072" y1="145.164" x2="167.072" y2="145.164"/>
</g>
<path d="M171.748,208.285v -0.000512626" fill="none" stroke="#000099"/>
<path d="M171.748,208.285v -0.000512626" fill="none" stroke="#000099"/>
<path d="M169.41,208.285h 2.33785" fill="none" stroke="#000099"/>
<path d="M171.748,208.285h 2.33785" fill="none" stroke="#000099"/>
<g stroke="#ff0000" stroke-width="1" fill="none">
<line x1="170.748" y1="208.285" x2="171.748" y2="208.285"/>
</g>
<path d="M176.423,163.362v -0.000512626" fill="none" stroke="#000099"/>
<path d="M176.423,163.362v -0.000512626" fill="none" stroke="#000099"/>
<path d="M174.086,163.362h 2.33785" fill="none" stroke="#000099"/>
<path d="M176.423,163.362h 2.33785" fill="none" stroke="#000099"/>
<g stroke="#ff0000" stroke-width="1" fill="none">
<line x1="175.423" y1="163.362" x2="176.423" y2="163.362"/>
</g>
<path d="M181.099,163.872v -0.000512626" fill="none" stroke="#000099"/>
<path d="M181.099,163.871v -0.000512626" fill="none" stroke="#000099"/>
<path d="M178.761,163.871h 2.33785" fill="none" stroke="#000099"/>
<path d="M181.099,163.871h 2.33785" fill="none" stroke="#000099"/>
<g stroke="#ff0000" stroke-width="1" fill="none">
<line x1="180.099" y1="163.871" x2="181.099" y2="163.871"/>
</g>
<path d="M185.775,188.674v -0.000512626" fill="none" stroke="#000099"/>
<path d="M185.775,188.673v -0.000512626" fill="none" stroke="#000099"/>
<path d="M183.437,188.673h 2.33785" fill="none" stroke="#000099"/>
<path d="M185.775,188.673h 2.33785" fill="none" stroke="#000099"/>
<g stroke="#ff0000" stroke-width="1" fill="none">
<line x1="184.775" y1="188.673" x2="185.775" y2="188.673"/>
</g>
<path d="M190.45,150.483v -0.000512626" fill="none" stroke="#000099"/>
<path d="M190.45,150.483v -0.000512626" fill="none" stroke="#000099"/>
<path d="M188.113,150.483h 2.33785" fill="none" stroke="#000099"/>
<path d="M190.45,150.483h 2.33785" fill="none" stroke="#000099"/>
<g stroke="#ff0000" stroke-width="1" fill="none">
<line x1="189.45" y1="150.483" x2="190.45" y2="150.483"/>
</g>
<path d="M195.126,203.081v -0.000512626" fill="none" stroke="#000099"/>
<path d="M195.126,203.08v -0.000512626" fill="none" stroke="#000099"/>
<path d="M192.788,203.08h 2.33785" fill="none" stroke="#000099"/>
<path d="M195.126,203.08h 2.33785" fill="none" stroke="#000099"/>
<g stroke="#ff0000" stroke-width="1" fill="none">
<line x1="194.126" y1="203.08" x2="195.126" y2="203.08"/>
</g>
<path d="M199.802,192.234v -0.000512626" fill="none" stroke="#000099"/>
<path d="M199.802,192.233v -0.000512626" fill="none" stroke="#000099"/>
<path d="M197.464,192.233h 2.33785" fill="none" stroke="#000099"/>
<path d="M199.802,192.233h 2.33785" fill="none" stroke="#000099"/>
<g stroke="#ff0000" stroke-width="1" fill="none">
<line x1="198.802" y1="192.233" x2="199.802" y2="192.233"/>
</g>
<path d="M204.478,252.408v -0.000512626" fill="none" stroke="#000099"/>
<path d="M204.478,252.408v -0.000512626" fill="none" stroke="#000099"/>
<path d="M202.14,252.408h 2.33785" fill="none" stroke="#000099"/>
<path d="M204.478,252.408h 2.33785" fill="none" stroke="#000099"/>
<g stroke="#ff0000" stroke-width="1" fill="none">
<line x1="203.478" y1="252.408" x2="204.478" y2="252.408"/>
</g>
<path d="M209.153,222.446v -0.000512626" fill="none" stroke="#000099"/>
<path d="M209.153,222.446v -0.000512626" fill="none" stroke="#000099"/>
<path d="M206.815,222.446h 2.33785" fill="none" stroke="#000099"/>
<path d="M209.153,222.446h 2.33785" fill="none" stroke="#000099"/>
<g stroke="#009900" stroke-width="1" fill="none">
<line x1="208.153" y1="222.446" x2="209.153" y2="222.446"/>
</g>
<path d="M213.829,202.379v -0.000512626" fill="none" stroke="#000099"/>
<path d="M213.829,202.379v -0.000512626" fill="none" stroke="#000099"/>
<path d="M211.491,202.379h 2.33785" fill="none" stroke="#000099"/>
<path d="M213.829,202.379h 2.33785" fill="none" stroke="#000099"/>
<g stroke="#009900" stroke-width="1" fill="none">
<line x1="212.829" y1="202.379" x2="213.829" y2="202.379"/>
</g>
<path d="M218.505,194.2v -0.000512626" fill="none" stroke="#000099"/>
<path d="M218.505,194.199v -0.000512626" fill="none" stroke="#000099"/>
<path d="M216.167,194.199h 2.33785" fill="none" stroke="#000099"/>
<path d="M218.505,194.199h 2.33785" fill="none" stroke="#000099"/>
<g stroke="#009900" stroke-width="1" fill="none">
<line x1="217.505" y1="194.199" x2="218.505" y2="194.199"/>
</g>
<path d="M223.18,203.404v -0.000512626" fill="none" stroke="#000099"/>
<path d="M223.18,203.403v -0.000512626" fill="none" stroke="#000099"/>
<path d="M220.843,203.403h 2.33785" fill="none" stroke="#000099"/>
<path d="M223.18,203.403h 2.33785" fill="none" stroke="#000099"/>
<g stroke="#009900" stroke-width="1" fill="none">
<line x1="222.18" y1="203.403" x2="223.18" y2="203.403"/>
</g>
<path d="M227.856,190.901v -0.000512626" fill="none" stroke="#000099"/>
<path d="M227.856,190.901v -0.000512626" fill="none" stroke="#000099"/>
<path d="M225.518,190.901h 2.33785" fill="none" stroke="#000099"/>
<path d="M227.856,190.901h 2.33785" fill="none" stroke="#000099"/>
<g stroke="#009900" stroke-width="1" fill="none">
<line x1="226.856" y1="190.901" x2="227.856" y2="190.901"/>
</g>
<path d="M232.532,188.798v -0.000512626" fill="none" stroke="#000099"/>
<path d="M232.532,188.798v -0.000512626" fill="none" stroke="#000099"/>
<path d="M230.194,188.798h 2.33785" fill="none" stroke="#000099"/>
<path d="M232.532,188.798h 2.33785" fill="none" stroke="#000099"/>
<g stroke="#009900" stroke-width="1" fill="none">
<line x1="231.532" y1="188.798" x2="232.532" y2="188.798"/>
</g>
<path d="M237.208,206.558v -0.000512626" fill="none" stroke="#000099"/>
<path d="M237.208,206.557v -0.000512626" fill="none" stroke="#000099"/>
<path d="M234.87,206.557h 2.33785" fill="none" stroke="#000099"/>
<path d="M237.208,206.557h 2.33785" fill="none" stroke="#000099"/>
<g stroke="#009900" stroke-width="1" fill="none">
<line x1="236.208" y1="206.557" x2="237.208" y2="206.557"/>
</g>
<path d="M241.883,195.812v -0.000512626" fill="none" stroke="#000099"/>
<path d="M241.883,195.812v -0.000512626" fill="none" stroke="#000099"/>
<path d="M239.545,195.812h 2.33785" fill="none" stroke="#000099"/>
<path d="M241.883,195.812h 2.33785" fill="none" stroke="#000099"/>
<g stroke="#009900" stroke-width="1" fill="none">
<line x1="240.883" y1="195.812" x2="241.883" y2="195.812"/>
</g>
<path d="M246.559,212.333v -0.000512626" fill="none" stroke="#000099"/>
<path d="M246.559,212.333v -0.000512626" fill="none" stroke="#000099"/>
<path d="M244.221,212.333h 2.33785" fill="none" stroke="#000099"/>
<path d="M246.559,212.333h 2.33785" fill="none" stroke="#000099"/>
<g stroke="#009900" stroke-width="1" fill="none">
<line x1="245.559" y1="212.333" x2="246.559" y2="212.333"/>
</g>
<path d="M251.235,177.281v -0.000512626" fill="none" stroke="#000099"/>
<path d="M251.235,177.28v -0.000512626" fill="none" stroke="#000099"/>
<path d="M248.897,177.28h 2.33785" fill="none" stroke="#000099"/>
<path d="M251.235,177.28h 2.33785" fill="none" stroke="#000099"/>
<g stroke="#009900" stroke-width="1" fill="none">
<line x1="250.235" y1="177.28" x2="251.235" y2="177.28"/>
</g>
<path d="M255.91,193.574v -0.000512626" fill="none" stroke="#000099"/>
<path d="M255.91,193.574v -0.000512626" fill="none" stroke="#000099"/>
<path d="M253.572,193.574h 2.33785" fill="none" stroke="#000099"/>
<path d="M255.91,193.574h 2.33785" fill="none" stroke="#000099"/>
<g stroke="#009900" stroke-width="1" fill="none">
<line x1="254.91" y1="193.574" x2="255.91" y2="193.574"/>
</g>
<path d="M260.586,247.337v -0.000512626" fill="none" stroke="#000099"/>
<path d="M260.586,247.337v -0.000512626" fill="none" stroke="#000099"/>
<path d="M258.248,247.337h 2.33785" fill="none" stroke="#000099"/>
<path d="M260.586,247.337h 2.33785" fill="none" stroke="#000099"/>
<g stroke="#009900" stroke-width="1" fill="none">
<line x1="259.586" y1="247.337" x2="260.586" y2="247.337"/>
</g>
<path d="M265.262,196.542v -0.000512626" fill="none" stroke="#000099"/>
<path d="M265.262,196.541v -0.000512626" fill="none" stroke="#000099"/>
<path d="M262.924,196.541h 2.33785" fill="none" stroke="#000099"/>
<path d="M265.262,196.541h 2.33785" fill="none" stroke="#000099"/>
<g stroke="#009900" stroke-width="1" fill="none">
<line x1="264.262" y1="196.541" x2="265.262" y2="196.541"/>
</g>
<path d="M269.937,194.611v -0.000512626" fill="none" stroke="#000099"/>
<path d="M269.937,194.61v -0.000512626" fill="none" stroke="#000099"/>
<path d="M267.6,194.61h 2.33785" fill="none" stroke="#000099"/>
<path d="M269.937,194.61h 2.33785" fill="none" stroke="#000099"/>
<g stroke="#009900" stroke-width="1" fill="none">
<line x1="268.937" y1="194.61" x2="269.937" y2="194.61"/>
</g>
<path d="M274.613,211.466v -0.000512626" fill="none" stroke="#000099"/>
<path d="M274.613,211.466v -0.000512626" fill="none" stroke="#000099"/>
<path d="M272.275,211.466h 2.33785" fill="none" stroke="#000099"/>
<path d="M274.613,211.466h 2.33785" fill="none" stroke="#000099"/>
<g stroke="#009900" stroke-width="1" fill="none">
<line x1="273.613" y1="211.466" x2="274.613" y2="211.466"/>
</g>
<path d="M279.289,164.123v -0.000512626" fill="none" stroke="#000099"/>
<path d="M279.289,164.122v -0.000512626" fill="none" stroke="#000099"/>
<path d="M276.951,164.122h 2.33785" fill="none" stroke="#000099"/>
<path d="M279.289,164.122h 2.33785" fill="none" stroke="#000099"/>
<g stroke="#009900" stroke-width="1" fill="none">
<line x1="278.289" y1="164.122" x2="279.289" y2="164.122"/>
</g>
<path d="M283.965,191.912v -0.000512626" fill="none" stroke="#000099"/>
<path d="M283.965,191.911v -0.000512626" fill="none" stroke="#000099"/>
<path d="M281.627,191.911h 2.33785" fill="none" stroke="#000099"/>
<path d="M283.965,191.911h 2.33785" fill="none" stroke="#000099"/>
<g stroke="#0000ff" stroke-width="1" fill="none">
<line x1="282.965" y1="191.911" x2="283.965" y2="191.911"/>
</g>
<path d="M288.64,222.329v -0.000512626" fill="none" stroke="#000099"/>
<path d="M288.64,222.329v -0.000512626" fill="none" stroke="#000099"/>
<path d="M286.302,222.329h 2.33785" fill="none" stroke="#000099"/>
<path d="M288.64,222.329h 2.33785" fill="none" stroke="#000099"/>
<g stroke="#0000ff" stroke-width="1" fill="none">
<line x1="287.64" y1="222.329" x2="288.64" y2="222.329"/>
</g>
<path d="M293.316,230.84v -0.000512626" fill="none" stroke="#000099"/>
<path d="M293.316,230.839v -0.000512626" fill="none" stroke="#000099"/>
<path d="M290.978,230.839h 2.33785" fill="none" stroke="#000099"/>
<path d="M293.316,230.839h 2.33785" fill="none" stroke="#000099"/>
<g stroke="#0000ff" stroke-width="1" fill="none">
<line x1="292.316" y1="230.839" x2="293.316" y2="230.839"/>
</g>
<path d="M297.992,193.066v -0.000512626" fill="none" stroke="#000099"/>
<path d="M297.992,193.065v -0.000512626" fill="none" stroke="#000099"/>
<path d="M295.654,193.065h 2.33785" fill="none" stroke="#000099"/>
<path d="M297.992,193.065h 2.33785" fill="none" stroke="#000099"/>
<g stroke="#0000ff" stroke-width="1" fill="none">
<line x1="296.992" y1="193.065" x2="297.992" y2="193.065"/>
</g>
<path d="M302.667,201.574v -0.000512626" fill="none" stroke="#000099"/>
<path d="M302.667,201.574v -0.000512626" fill="none" stroke="#000099"/>
<path d="M300.33,201.574h 2.33785" fill="none" stroke="#000099"/>
<path d="M302.667,201.574h 2.33785" fill="none" stroke="#000099"/>
<g stroke="#0000ff" stroke-width="1" fill="none">
<line x1="301.667" y1="201.574" x2="302.667" y2="201.574"/>
</g>
<path d="M307.343,162.306v -0.000512626" fill="none" stroke="#000099"/>
<path d="M307.343,162.305v -0.000512626" fill="none" stroke="#000099"/>
<path d="M305.005,162.305h 2.33785" fill="none" stroke="#000099"/>
<path d="M307.343,162.305h 2.33785" fill="none" stroke="#000099"/>
<g stroke="#0000ff" stroke-width="1" fill="none">
<line x1="306.343" y1="162.305" x2="307.343" y2="162.305"/>
</g>
<path d="M312.019,209.89v -0.000512626" fill="none" stroke="#000099"/>
<path d="M312.019,209.889v -0.000512626" fill="none" stroke="#000099"/>
<path d="M309.681,209.889h 2.33785" fill="none" stroke="#000099"/>
<path d="M312.019,209.889h 2.33785" fill="none" stroke="#000099"/>
<g stroke="#0000ff" stroke-width="1" fill="none">
<line x1="311.019" y1="209.889" x2="312.019" y2="209.889"/>
</g>
<path d="M316.694,180.829v -0.000512626" fill="none" stroke="#000099"/>
<path d="M316.694,180.828v -0.000512626" fill="none" stroke="#000099"/>
<path d="M314.357,180.828h 2.33785" fill="none" stroke="#000099"/>
<path d="M316.694,180.828h 2.33785" fill="none" stroke="#000099"/>
<g stroke="#0000ff" stroke-width="1" fill="none">
<line x1="315.694" y1="180.828" x2="316.694" y2="180.828"/>
</g>
<path d="M321.37,128.155v -0.000512626" fill="none" stroke="#000099"/>
<path d="M321.37,128.155v -0.000512626" fill="none" stroke="#000099"/>
<path d="M319.032,128.155h 2.33785" fill="none" stroke="#000099"/>
<path d="M321.37,128.155h 2.33785" fill="none" stroke="#000099"/>
<g stroke="#0000ff" stroke-width="1" fill="none">
<line x1="320.37" y1="128.155" x2="321.37" y2="128.155"/>
</g>
<path d="M326.046,191.007v -0.000512626" fill="none" stroke="#000099"/>
<path d="M326.046,191.006v -0.000512626" fill="none" stroke="#000099"/>
<path d="M323.708,191.006h 2.33785" fill="none" stroke="#000099"/>
<path d="M326.046,191.006h 2.33785" fill="none" stroke="#000099"/>
<g stroke="#0000ff" stroke-width="1" fill="none">
<line x1="325.046" y1="191.006" x2="326.046" y2="191.006"/>
</g>
<path d="M330.722,182.405v -0.000512626" fill="none" stroke="#000099"/>
<path d="M330.722,182.404v -0.000512626" fill="none" stroke="#000099"/>
<path d="M328.384,182.404h 2.33785" fill="none" stroke="#000099"/>
<path d="M330.722,182.404h 2.33785" fill="none" stroke="#000099"/>
<g stroke="#0000ff" stroke-width="1" fill="none">
<line x1="329.722" y1="182.404" x2="330.722" y2="182.404"/>
</g>
<path d="M335.397,212.02v -0.000512626" fill="none" stroke="#000099"/>
<path d="M335.397,212.02v -0.000512626" fill="none" stroke="#000099"/>
<path d="M333.059,212.02h 2.33785" fill="none" stroke="#000099"/>
<path d="M335.397,212.02h 2.33785" fill="none" stroke="#000099"/>
<g stroke="#0000ff" stroke-width="1" fill="none">
<line x1="334.397" y1="212.02" x2="335.397" y2="212.02"/>
</g>
<path d="M340.073,228.382v -0.000512626" fill="none" stroke="#000099"/>
<path d="M340.073,228.381v -0.000512626" fill="none" stroke="#000099"/>
<path d="M337.735,228.381h 2.33785" fill="none" stroke="#000099"/>
<path d="M340.073,228.381h 2.33785" fill="none" stroke="#000099"/>
<g stroke="#0000ff" stroke-width="1" fill="none">
<line x1="339.073" y1="228.381" x2="340.073" y2="228.381"/>
</g>
<path d="M344.749,230.001v -0.000512626" fill="none" stroke="#000099"/>
<path d="M344.749,230.001v -0.000512626" fill="none" stroke="#000099"/>
<path d="M342.411,230.001h 2.33785" fill="none" stroke="#000099"/>
<path d="M344.749,230.001h 2.33785" fill="none" stroke="#000099"/>
<g stroke="#0000ff" stroke-width="1" fill="none">
<line x1="343.749" y1="230.001" x2="344.749" y2="230.001"/>
</g>
<path d="M349.424,190.898v -0.000512626" fill="none" stroke="#000099"/>
<path d="M349.424,190.898v -0.000512626" fill="none" stroke="#000099"/>
<path d="M347.087,190.898h 2.33785" fill="none" stroke="#000099"/>
<path d="M349.424,190.898h 2.33785" fill="none" stroke="#000099"/>
<g stroke="#0000ff" stroke-width="1" fill="none">
<line x1="348.424" y1="190.898" x2="349.424" y2="190.898"/>
</g>
<path d="M354.1,149.366v -0.000512626" fill="none" stroke="#000099"/>
<path d="M354.1,149.366v -0.000512626" fill="none" stroke="#000099"/>
<path d="M351.762,149.366h 2.33785" fill="none" stroke="#000099"/>
<path d="M354.1,149.366h 2.33785" fill="none" stroke="#000099"/>
<g stroke="#0000ff" stroke-width="1" fill="none">
<line x1="353.1" y1="149.366" x2="354.1" y2="149.366"/>
</g>
<path d="M358.776,145.762v -0.000512626" fill="none" stroke="#000099"/>
<path d="M358.776,145.761v -0.000512626" fill="none" stroke="#000099"/>
<path d="M356.438,145.761h 2.33785" fill="none" stroke="#000099"/>
<path d="M358.776,145.761h 2.33785" fill="none" stroke="#000099"/>
<g stroke="#cc00ff" stroke-width="1" fill="none">
<line x1="357.776" y1="145.761" x2="358.776" y2="145.761"/>
</g>
<path d="M363.452,216.633v -0.000512626" fill="none" stroke="#000099"/>
<path d="M363.452,216.632v -0.000512626" fill="none" stroke="#000099"/>
<path d="M361.114,216.632h 2.33785" fill="none" stroke="#000099"/>
<path d="M363.452,216.632h 2.33785" fill="none" stroke="#000099"/>
<g stroke="#cc00ff" stroke-width="1" fill="none">
<line x1="362.452" y1="216.632" x2="363.452" y2="216.632"/>
</g>
<path d="M368.127,134.73v -0.000512626" fill="none" stroke="#000099"/>
<path d="M368.127,134.73v -0.000512626" fill="none" stroke="#000099"/>
<path d="M365.789,134.73h 2.33785" fill="none" stroke="#000099"/>
<path d="M368.127,134.73h 2.33785" fill="none" stroke="#000099"/>
<g stroke="#cc00ff" stroke-width="1" fill="none">
<line x1="367.127" y1="134.73" x2="368.127" y2="134.73"/>
</g>
<path d="M372.803,178.393v -0.000512626" fill="none" stroke="#000099"/>
<path d="M372.803,178.392v -0.000512626" fill="none" stroke="#000099"/>
<path d="M370.465,178.392h 2.33785" fill="none" stroke="#000099"/>
<path d="M372.803,178.392h 2.33785" fill="none" stroke="#000099"/>
<g stroke="#cc00ff" stroke-width="1" fill="none">
<line x1="371.803" y1="178.392" x2="372.803" y2="178.392"/>
</g>
<path d="M377.479,163.318v -0.000512626" fill="none" stroke="#000099"/>
<path d="M377.479,163.318v -0.000512626" fill="none" stroke="#000099"/>
<path d="M375.141,163.318h 2.33785" fill="none" stroke="#000099"/>
<path d="M377.479,163.318h 2.33785" fill="none" stroke="#000099"/>
<g stroke="#cc00ff" stroke-width="1" fill="none">
<line x1="376.479" y1="163.318" x2="377.479" y2="163.318"/>
</g>
<path d="M382.154,151.327v -0.000512626" fill="none" stroke="#000099"/>
<path d="M382.154,151.326v -0.000512626" fill="none" stroke="#000099"/>
<path d="M379.816,151.326h 2.33785" fill="none" stroke="#000099"/>
<path d="M382.154,151.326h 2.33785" fill="none" stroke="#000099"/>
<g stroke="#cc00ff" stroke-width="1" fill="none">
<line x1="381.154" y1="151.326" x2="382.154" y2="151.326"/>
</g>
<path d="M386.83,213.127v -0.000512626" fill="none" stroke="#000099"/>
<path d="M386.83,213.127v -0.000512626" fill="none" stroke="#000099"/>
<path d="M384.492,213.127h 2.33785" fill="none" stroke="#000099"/>
<path d="M386.83,213.127h 2.33785" fill="none" stroke="#000099"/>
<g stroke="#cc00ff" stroke-width="1" fill="none">
<line x1="385.83" y1="213.127" x2="386.83" y2="213.127"/>
</g>
<path d="M391.506,125.131v -0.000512626" fill="none" stroke="#000099"/>
<path d="M391.506,125.13v -0.000512626" fill="none" stroke="#000099"/>
<path d="M389.168,125.13h 2.33785" fill="none" stroke="#000099"/>
<path d="M391.506,125.13h 2.33785" fill="none" stroke="#000099"/>
<g stroke="#cc00ff" stroke-width="1" fill="none">
<line x1="390.506" y1="125.13" x2="391.506" y2="125.13"/>
</g>
<path d="M396.181,210.123v -0.000512626" fill="none" stroke="#000099"/>
<path d="M396.181,210.122v -0.000512626" fill="none" stroke="#000099"/>
<path d="M393.844,210.122h 2.33785" fill="none" stroke="#000099"/>
<path d="M396.181,210.122h 2.33785" fill="none" stroke="#000099"/>
<g stroke="#cc00ff" stroke-width="1" fill="none">
<line x1="395.181" y1="210.122" x2="396.181" y2="210.122"/>
</g>
<path d="M400.857,199.201v -0.000512626" fill="none" stroke="#000099"/>
<path d="M400.857,199.201v -0.000512626" fill="none" stroke="#000099"/>
<path d="M398.519,199.201h 2.33785" fill="none" stroke="#000099"/>
<path d="M400.857,199.201h 2.33785" fill="none" stroke="#000099"/>
<g stroke="#cc00ff" stroke-width="1" fill="none">
<line x1="399.857" y1="199.201" x2="400.857" y2="199.201"/>
</g>
<path d="M405.533,213.624v -0.000512626" fill="none" stroke="#000099"/>
<path d="M405.533,213.623v -0.000512626" fill="none" stroke="#000099"/>
<path d="M403.195,213.623h 2.33785" fill="none" stroke="#000099"/>
<path d="M405.533,213.623h 2.33785" fill="none" stroke="#000099"/>
<g stroke="#cc00ff" stroke-width="1" fill="none">
<line x1="404.533" y1="213.623" x2="405.533" y2="213.623"/>
</g>
<path d="M410.209,197.729v -0.000512626" fill="none" stroke="#000099"/>
<path d="M410.209,197.729v -0.000512626" fill="none" stroke="#000099"/>
<path d="M407.871,197.729h 2.33785" fill="none" stroke="#000099"/>
<path d="M410.209,197.729h 2.33785" fill="none" stroke="#000099"/>
<g stroke="#cc00ff" stroke-width="1" fill="none">
<line x1="409.209" y1="197.729" x2="410.209" y2="197.729"/>
</g>
<path d="M414.884,203.567v -0.000512626" fill="none" stroke="#000099"/>
<path d="M414.884,203.566v -0.000512626" fill="none" stroke="#000099"/>
<path d="M412.546,203.566h 2.33785" fill="none" stroke="#000099"/>
<path d="M414.884,203.566h 2.33785" fill="none" stroke="#000099"/>
<g stroke="#cc00ff" stroke-width="1" fill="none">
<line x1="413.884" y1="203.566" x2="414.884" y2="203.566"/>
</g>
<path d="M419.56,177.095v -0.000512626" fill="none" stroke="#000099"/>
<path d="M419.56,177.094v -0.000512626" fill="none" stroke="#000099"/>
<path d="M417.222,177.094h 2.33785" fill="none" stroke="#000099"/>
<path d="M419.56,177.094h 2.33785" fill="none" stroke="#000099"/>
<g stroke="#cc00ff" stroke-width="1" fill="none">
<line x1="418.56" y1="177.094" x2="419.56" y2="177.094"/>
</g>
<path d="M424.236,187.826v -0.000512626" fill="none" stroke="#000099"/>
<path d="M424.236,187.826v -0.000512626" fill="none" stroke="#000099"/>
<path d="M421.898,187.826h 2.33785" fill="none" stroke="#000099"/>
<path d="M424.236,187.826h 2.33785" fill="none" stroke="#000099"/>
<g stroke="#cc00ff" stroke-width="1" fill="none">
<line x1="423.236" y1="187.826" x2="424.236" y2="187.826"/>
</g>
<path d="M428.911,201.268v -0.000512626" fill="none" stroke="#000099"/>
<path d="M428.911,201.268v -0.000512626" fill="none" stroke="#000099"/>
<path d="M426.574,201.268h 2.33785" fill="none" stroke="#000099"/>
<path d="M428.911,201.268h 2.33785" fill="none" stroke="#000099"/>
<g stroke="#cc00ff" stroke-width="1" fill="none">
<line x1="427.911" y1="201.268" x2="428.911" y2="201.268"/>
</g>
<path d="M433.587,127.147v -0.000512626" fill="none" stroke="#000099"/>
<path d="M433.587,127.146v -0.000512626" fill="none" stroke="#000099"/>
<path d="M431.249,127.146h 2.33785" fill="none" stroke="#000099"/>
<path d="M433.587,127.146h 2.33785" fill="none" stroke="#000099"/>
<g stroke="#00ffff" stroke-width="1" fill="none">
<line x1="432.587" y1="127.146" x2="433.587" y2="127.146"/>
</g>
<path d="M438.263,142.167v -0.000512626" fill="none" stroke="#000099"/>
<path d="M438.263,142.167v -0.000512626" fill="none" stroke="#000099"/>
<path d="M435.925,142.167h 2.33785" fill="none" stroke="#000099"/>
<path d="M438.263,142.167h 2.33785" fill="none" stroke="#000099"/>
<g stroke="#00ffff" stroke-width="1" fill="none">
<line x1="437.263" y1="142.167" x2="438.263" y2="142.167"/>
</g>
<path d="M442.939,158.811v -0.000512626" fill="none" stroke="#000099"/>
<path d="M442.939,158.811v -0.000512626" fill="none" stroke="#000099"/>
<path d="M440.601,158.811h 2.33785" fill="none" stroke="#000099"/>
<path d="M442.939,158.811h 2.33785" fill="none" stroke="#000099"/>
<g stroke="#00ffff" stroke-width="1" fill="none">
<line x1="441.939" y1="158.811" x2="442.939" y2="158.811"/>
</g>
<path d="M447.614,153.61v -0.000512626" fill="none" stroke="#000099"/>
<path d="M447.614,153.61v -0.000512626" fill="none" stroke="#000099"/>
<path d="M445.276,153.61h 2.33785" fill="none" stroke="#000099"/>
<path d="M447.614,153.61h 2.33785" fill="none" stroke="#000099"/>
<g stroke="#00ffff" stroke-width="1" fill="none">
<line x1="446.614" y1="153.61" x2="447.614" y2="153.61"/>
</g>
<path d="M452.29,145.775v -0.000512626" fill="none" stroke="#000099"/>
<path d="M452.29,145.774v -0.000512626" fill="none" stroke="#000099"/>
<path d="M449.952,145.774h 2.33785" fill="none" stroke="#000099"/>
<path d="M452.29,145.774h 2.33785" fill="none" stroke="#000099"/>
<g stroke="#00ffff" stroke-width="1" fill="none">
<line x1="451.29" y1="145.774" x2="452.29" y2="145.774"/>
</g>
<path d="M456.966,126.08v -0.000512626" fill="none" stroke="#000099"/>
<path d="M456.966,126.079v -0.000512626" fill="none" stroke="#000099"/>
<path d="M454.628,126.079h 2.33785" fill="none" stroke="#000099"/>
<path d="M456.966,126.079h 2.33785" fill="none" stroke="#000099"/>
<g stroke="#00ffff" stroke-width="1" fill="none">
<line x1="455.966" y1="126.079" x2="456.966" y2="126.079"/>
</g>
<path d="M461.641,200.792v -0.000512626" fill="none" stroke="#000099"/>
<path d="M461.641,200.792v -0.000512626" fill="none" stroke="#000099"/>
<path d="M459.303,200.792h 2.33785" fill="none" stroke="#000099"/>
<path d="M461.641,200.792h 2.33785" fill="none" stroke="#000099"/>
<g stroke="#00ffff" stroke-width="1" fill="none">
<line x1="460.641" y1="200.792" x2="461.641" y2="200.792"/>
</g>
<path d="M466.317,139.829v -0.000512626" fill="none" stroke="#000099"/>
<path d="M466.317,139.829v -0.000512626" fill="none" stroke="#000099"/>
<path d="M463.979,139.829h 2.33785" fill="none" stroke="#000099"/>
<path d="M466.317,139.829h 2.33785" fill="none" stroke="#000099"/>
<g stroke="#00ffff" stroke-width="1" fill="none">
<line x1="465.317" y1="139.829" x2="466.317" y2="139.829"/>
</g>
<path d="M470.993,170.441v -0.000512626" fill="none" stroke="#000099"/>
<path d="M470.993,170.44v -0.000512626" fill="none" stroke="#000099"/>
<path d="M468.655,170.44h 2.33785" fill="none" stroke="#000099"/>
<path d="M470.993,170.44h 2.33785" fill="none" stroke="#000099"/>
<g stroke="#00ffff" stroke-width="1" fill="none">
<line x1="469.993" y1="170.44" x2="470.993" y2="170.44"/>
</g>
<path d="M475.668,182.924v -0.000512626" fill="none" stroke="#000099"/>
<path d="M475.668,182.923v -0.000512626" fill="none" stroke="#000099"/>
<path d="M473.331,182.923h 2.33785" fill="none" stroke="#000099"/>
<path d="M475.668,182.923h 2.33785" fill="none" stroke="#000099"/>
<g stroke="#00ffff" stroke-width="1" fill="none">
<line x1="474.668" y1="182.923" x2="475.668" y2="182.923"/>
</g>
<path d="M480.344,161.872v -0.000512626" fill="none" stroke="#000099"/>
<path d="M480.344,161.872v -0.000512626" fill="none" stroke="#000099"/>
<path d="M478.006,161.872h 2.33785" fill="none" stroke="#000099"/>
<path d="M480.344,161.872h 2.33785" fill="none" stroke="#000099"/>
<g stroke="#00ffff" stroke-width="1" fill="none">
<line x1="479.344" y1="161.872" x2="480.344" y2="161.872"/>
</g>
<path d="M485.02,161.277v -0.000512626" fill="none" stroke="#000099"/>
<path d="M485.02,161.277v -0.000512626" fill="none" stroke="#000099"/>
<path d="M482.682,161.277h 2.33785" fill="none" stroke="#000099"/>
<path d="M485.02,161.277h 2.33785" fill="none" stroke="#000099"/>
<g stroke="#00ffff" stroke-width="1" fill="none">
<line x1="484.02" y1="161.277" x2="485.02" y2="161.277"/>
</g>
<path d="M489.696,166.178v -0.000512626" fill="none" stroke="#000099"/>
<path d="M489.696,166.177v -0.000512626" fill="none" stroke="#000099"/>
<path d="M487.358,166.177h 2.33785" fill="none" stroke="#000099"/>
<path d="M489.696,166.177h 2.33785" fill="none" stroke="#000099"/>
<g stroke="#00ffff" stroke-width="1" fill="none">
<line x1="488.696" y1="166.177" x2="489.696" y2="166.177"/>
</g>
<path d="M494.371,173.371v -0.000512626" fill="none" stroke="#000099"/>
<path d="M494.371,173.371v -0.000512626" fill="none" stroke="#000099"/>
<path d="M492.033,173.371h 2.33785" fill="none" stroke="#000099"/>
<path d="M494.371,173.371h 2.33785" fill="none" stroke="#000099"/>
<g stroke="#00ffff" stroke-width="1" fill="none">
<line x1="493.371" y1="173.371" x2="494.371" y2="173.371"/>
</g>
<path d="M499.047,150.322v -0.000512626" fill="none" stroke="#000099"/>
<path d="M499.047,150.321v -0.000512626" fill="none" stroke="#000099"/>
<path d="M496.709,150.321h 2.33785" fill="none" stroke="#000099"/>
<path d="M499.047,150.321h 2.33785" fill="none" stroke="#000099"/>
<g stroke="#00ffff" stroke-width="1" fill="none">
<line x1="498.047" y1="150.321" x2="499.047" y2="150.321"/>
</g>
<path d="M503.723,159.679v -0.000512626" fill="none" stroke="#000099"/>
<path d="M503.723,159.678v -0.000512626" fill="none" stroke="#000099"/>
<path d="M501.385,159.678h 2.33785" fill="none" stroke="#000099"/>
<path d="M503.723,159.678h 2.33785" fill="none" stroke="#000099"/>
<g stroke="#00ffff" stroke-width="1" fill="none">
<line x1="502.723" y1="159.678" x2="503.723" y2="159.678"/>
</g>
<path d="M57.1929,346.022h 453.543" fill="none" stroke="black"/>
<path d="M57.1929,336.795v 9.22726" fill="none" stroke="black"/>
<path d="M66.7412,341.409v 4.61363" fill="none" stroke="black"/>
<path d="M76.2895,341.409v 4.61363" fill="none" stroke="black"/>
<path d="M85.8378,341.409v 4.61363" fill="none" stroke="black"/>
<path d="M95.386,341.409v 4.61363" fill="none" stroke="black"/>
<path d="M104.934,336.795v 9.22726" fill="none" stroke="black"/>
<path d="M114.483,341.409v 4.61363" fill="none" stroke="black"/>
<path d="M124.031,341.409v 4.61363" fill="none" stroke="black"/>
<path d="M133.579,341.409v 4.61363" fill="none" stroke="black"/>
<path d="M143.127,341.409v 4.61363" fill="none" stroke="black"/>
<path d="M152.676,336.795v 9.22726" fill="none" stroke="black"/>
<path d="M162.224,341.409v 4.61363" fill="none" stroke="black"/>
<path d="M171.772,341.409v 4.61363" fill="none" stroke="black"/>
<path d="M181.321,341.409v 4.61363" fill="none" stroke="black"/>
<path d="M190.869,341.409v 4.61363" fill="none" stroke="black"/>
<path d="M200.417,336.795v 9.22726" fill="none" stroke="black"/>
<path d="M209.965,341.409v 4.61363" fill="none" stroke="black"/>
<path d="M219.514,341.409v 4.61363" fill="none" stroke="black"/>
<path d="M229.062,341.409v 4.61363" fill="none" stroke="black"/>
<path d="M238.61,341.409v 4.61363" fill="none" stroke="black"/>
<path d="M248.159,336.795v 9.22726" fill="none" stroke="black"/>
<path d="M257.707,341.409v 4.61363" fill="none" stroke="black"/>
<path d="M267.255,341.409v 4.61363" fill="none" stroke="black"/>
<path d="M276.803,341.409v 4.61363" fill="none" stroke="black"/>
<path d="M286.352,341.409v 4.61363" fill="none" stroke="black"/>
<path d="M295.9,336.795v 9.22726" fill="none" stroke="black"/>
<path d="M305.448,341.409v 4.61363" fill="none" stroke="black"/>
<path d="M314.996,341.409v 4.61363" fill="none" stroke="black"/>
<path d="M324.545,341.409v 4.61363" fill="none" stroke="black"/>
<path d="M334.093,341.409v 4.61363" fill="none" stroke="black"/>
<path d="M343.641,336.795v 9.22726" fill="none" stroke="black"/>
<path d="M353.19,341.409v 4.61363" fill="none" stroke="black"/>
<path d="M362.738,341.409v 4.61363" fill="none" stroke="black"/>
<path d="M372.286,341.409v 4.61363" fill="none" stroke="black"/>
<path d="M381.834,341.409v 4.61363" fill="none" stroke="black"/>
<path d="M391.383,336.795v 9.22726" fill="none" stroke="black"/>
<path d="M400.931,341.409v 4.61363" fill="none" stroke="black"/>
<path d="M410.479,341.409v 4.61363" fill="none" stroke="black"/>
<path d="M420.028,341.409v 4.61363" fill="none" stroke="black"/>
<path d="M429.576,341.409v 4.61363" fill="none" stroke="black"/>
<path d="M439.124,336.795v 9.22726" fill="none" stroke="black"/>
<path d="M448.672,341.409v 4.61363" fill="none" stroke="black"/>
<path d="M458.221,341.409v 4.61363" fill="none" stroke="black"/>
<path d="M467.769,341.409v 4.61363" fill="none" stroke="black"/>
<path d="M477.317,341.409v 4.61363" fill="none" stroke="black"/>
<path d="M486.866,336.795v 9.22726" fill="none" stroke="black"/>
<path d="M486.866,336.795v 9.22726" fill="none" stroke="black"/>
<path d="M496.414,341.409v 4.61363" fill="none" stroke="black"/>
<path d="M505.962,341.409v 4.61363" fill="none" stroke="black"/>
<path d="M57.1929,346.022v -307.575" fill="none" stroke="black"/>
<path d="M70.7992,346.022h -13.6063" fill="none" stroke="black"/>
<path d="M63.9961,335.77h -6.80315" fill="none" stroke="black"/>
<path d="M63.9961,325.517h -6.80315" fill="none" stroke="black"/>
<path d="M63.9961,315.265h -6.80315" fill="none" stroke="black"/>
<path d="M63.9961,305.012h -6.80315" fill="none" stroke="black"/>
<path d="M70.7992,294.76h -13.6063" fill="none" stroke="black"/>
<path d="M63.9961,284.507h -6.80315" fill="none" stroke="black"/>
<path d="M63.9961,274.255h -6.80315" fill="none" stroke="black"/>
<path d="M63.9961,264.002h -6.80315" fill="none" stroke="black"/>
<path d="M63.9961,253.75h -6.80315" fill="none" stroke="black"/>
<path d="M70.7992,243.497h -13.6063" fill="none" stroke="black"/>
<path d="M63.9961,233.245h -6.80315" fill="none" stroke="black"/>
<path d="M63.9961,222.992h -6.80315" fill="none" stroke="black"/>
<path d="M63.9961,212.74h -6.80315" fill="none" stroke="black"/>
<path d="M63.9961,202.487h -6.80315" fill="none" stroke="black"/>
<path d="M70.7992,192.235h -13.6063" fill="none" stroke="black"/>
<path d="M63.9961,181.982h -6.80315" fill="none" stroke="black"/>
<path d="M63.9961,171.73h -6.80315" fill="none" stroke="black"/>
<path d="M63.9961,161.477h -6.80315" fill="none" stroke="black"/>
<path d="M63.9961,151.225h -6.80315" fill="none" stroke="black"/>
<path d="M70.7992,140.972h -13.6063" fill="none" stroke="black"/>
<path d="M63.9961,130.72h -6.80315" fill="none" stroke="black"/>
<path d="M63.9961,120.467h -6.80315" fill="none" stroke="black"/>
<path d="M63.9961,110.215h -6.80315" fill="none" stroke="black"/>
<path d="M63.9961,99.962h -6.80315" fill="none" stroke="black"/>
<path d="M70.7992,89.7095h -13.6063" fill="none" stroke="black"/>
<path d="M63.9961,79.457h -6.80315" fill="none" stroke="black"/>
<path d="M63.9961,69.2045h -6.80315" fill="none" stroke="black"/>
<path d="M63.9961,58.9519h -6.80315" fill="none" stroke="black"/>
<path d="M63.9961,48.6994h -6.80315" fill="none" stroke="black"/>
<path d="M70.7992,38.4469h -13.6063" fill="none" stroke="black"/>
<text xml:space="preserve" x="199.251" y="18.7347" fill="black" font-size="18.7938" font-family="Helvetica">Sector 10 (Adjusted)</text></svg>
