<?xml version="1.0" standalone="no"?>
<svg width="567.429" height="384.969" viewBox="0 0 567.429 384.969" xmlns="http://www.w3.org/2000/svg" shape-rendering="crispEdges">
<title>
./plots/sector_fb_legends/sector10.svg
</title>
<desc>
Creator: ROOT Version 6.22/02
CreationDate: Wed Sep  1 10:31:29 2021</desc>
<defs>
</defs>
<rect x="0.5" y="0" width="566.929" height="384.469" fill="white"/>
<rect x="0.5" y="0" width="566.929" height="384.469" fill="white"/>
<path d="M0.5,384.469h 566.929" fill="none" stroke="black"/>
<path d="M567.429,384.469v -384.469" fill="none" stroke="black"/>
<path d="M567.429,0h -566.929" fill="none" stroke="black"/>
<path d="M0.5,0v 384.469" fill="none" stroke="black"/>
<text xml:space="preserve" x="142.232" y="55.3896" fill="black" font-size="45.3378" font-family="Helvetica">FB 6: 1.089</text>
<path d="M21.7598,65.3598h 99.2126v -53.8257h -99.2126z" fill="#a6bdd7"/>
<path d="M21.7598,38.4469h 99.2126" fill="none" stroke="#a6bdd7"/>
<g stroke="black" stroke-width="1" fill="none">
<line x1="70.3661" y1="38.4469" x2="71.3661" y2="38.4469"/>
</g>
<text xml:space="preserve" x="142.232" y="131.958" fill="black" font-size="45.3378" font-family="Helvetica">FB 7: 1.103</text>
<path d="M21.7598,142.254h 99.2126v -53.8257h -99.2126z" fill="#c10020"/>
<path d="M21.7598,115.341h 99.2126" fill="none" stroke="#c10020"/>
<g stroke="black" stroke-width="1" fill="none">
<line x1="70.3661" y1="115.341" x2="71.3661" y2="115.341"/>
</g>
<text xml:space="preserve" x="142.232" y="209.34" fill="black" font-size="45.3378" font-family="Helvetica">FB 13: 0.981</text>
<path d="M21.7598,219.147h 99.2126v -53.8257h -99.2126z" fill="#ffb300"/>
<path d="M21.7598,192.235h 99.2126" fill="none" stroke="#ffb300"/>
<g stroke="black" stroke-width="1" fill="none">
<line x1="70.3661" y1="192.235" x2="71.3661" y2="192.235"/>
</g>
<text xml:space="preserve" x="142.232" y="285.908" fill="black" font-size="45.3378" font-family="Helvetica">FB 14: 0.917</text>
<path d="M21.7598,296.041h 99.2126v -53.8257h -99.2126z" fill="#803e75"/>
<path d="M21.7598,269.128h 99.2126" fill="none" stroke="#803e75"/>
<g stroke="black" stroke-width="1" fill="none">
<line x1="70.3661" y1="269.128" x2="71.3661" y2="269.128"/>
</g>
<text xml:space="preserve" x="142.232" y="363.291" fill="black" font-size="45.3378" font-family="Helvetica">FB 16: 0.984</text>
<path d="M21.7598,372.935h 99.2126v -53.8257h -99.2126z" fill="#ff6800"/>
<path d="M21.7598,346.022h 99.2126" fill="none" stroke="#ff6800"/>
<g stroke="black" stroke-width="1" fill="none">
<line x1="70.3661" y1="346.022" x2="71.3661" y2="346.022"/>
</g></svg>
