<?xml version="1.0" standalone="no"?>
<svg width="567.429" height="384.969" viewBox="0 0 567.429 384.969" xmlns="http://www.w3.org/2000/svg" shape-rendering="crispEdges">
<title>
./graphs/svg/sector1_ib2.svg
</title>
<desc>
Creator: ROOT Version 6.24/00
CreationDate: Tue Jun  1 16:43:15 2021</desc>
<defs>
</defs>
<rect x="0.5" y="0" width="566.929" height="384.469" fill="white"/>
<rect x="57.1929" y="38.4469" width="453.543" height="307.575" fill="white"/>
<rect x="57.1929" y="38.4469" width="453.543" height="307.575" fill="none" stroke="black"/>
<rect x="57.1929" y="38.4469" width="453.543" height="307.575" fill="white"/>
<rect x="57.1929" y="38.4469" width="453.543" height="307.575" fill="none" stroke="black"/>
<path d="M57.1929,346.022h 68.0315v -18.3081h 22.6772v 18.3081h 45.3543v -54.9242h 22.6772v -18.3081h 22.6772v -146.464h 22.6772v 109.848h 22.6772v -183.081h 22.6772v 219.697h 22.6772v 36.6161h 22.6772v 36.6161h 158.74" fill="none" stroke="#000099"/>
<path d="M59.4606,346.022h 36.2835l 4.53543, -0.035959l 4.53543, -0.0199443l 4.53543, -0.0299814l 4.53543, -0.0445048l 4.53543, -0.0652324l 4.53543, -0.0944066l 4.53543, -0.134896l 4.53543, -0.190297l 4.53543, -0.265016l 4.53543, -0.364324l 4.53543,
 -0.494365l 4.53543, -0.662086l 4.53543, -0.875078l 4.53543, -1.1413l 4.53543, -1.46866l 4.53543, -1.86446l 4.53543, -2.3347l 4.53543, -2.88323l 4.53543, -3.51087l 4.53543, -4.21441l 4.53543, -4.98578l 4.53543, -5.81123l 4.53543, -6.67093l 4.53543,
 -7.53875l 4.53543, -8.38265l 4.53543, -9.16551l 4.53543, -9.84656l 4.53543, -10.3833l 4.53543, -10.7341l 4.53543, -10.8605l 4.53543, -10.7306l 4.53543, -10.3215l 4.53543, -9.62155l 4.53543, -8.63268l 4.53543, -7.37085l 4.53543, -5.86634l 4.53543,
 -4.16263l 4.53543, -2.31446l 4.53543, -0.384876l 4.53543, 1.55832l 4.53543, 3.44653" fill="none" stroke="#ff0000" stroke-width="2"/>
<path d="M281.697,186.549l 4.53543, 5.21438l 4.53543, 6.80345l 4.53543, 8.16552l 4.53543, 9.26492l 4.53543, 10.08l 4.53543, 10.6033l 4.53543, 10.8413l 4.53543, 10.8128l 4.53543, 10.5463l 4.53543, 10.0782l 4.53543, 9.44902l 4.53543, 8.70136l 4.53543,
 7.8769l 4.53543, 7.01439l 4.53543, 6.14803l 4.53543, 5.30632l 4.53543, 4.51162l 4.53543, 3.78002l 4.53543, 3.12177l 4.53543, 2.54189l 4.53543, 2.04103l 4.53543, 1.61645l 4.53543, 1.26287l 4.53543, 0.973427l 4.53543, 0.740369l 4.53543, 0.555701l
 4.53543, 0.411648l 4.53543, 0.300981l 4.53543, 0.217229l 4.53543, 0.154772l 4.53543, 0.108865l 4.53543, 0.0756023l 4.53543, 0.0518388l 4.53543, 0.035097l 4.53543, 0.0234638l 4.53543, 0.0428662h 58.9606" fill="none" stroke="#ff0000"
 stroke-width="2"/>
<path d="M503.933,346.022h 4.53543" fill="none" stroke="#ff0000" stroke-width="2"/>
<rect x="351.996" y="24.9905" width="204.094" height="76.8938" fill="white"/>
<path d="M351.996,101.884h 204.094" fill="none" stroke="black"/>
<path d="M556.091,101.884v -76.8938" fill="none" stroke="black"/>
<path d="M556.091,24.9905h -204.094" fill="none" stroke="black"/>
<path d="M351.996,24.9905v 76.8938" fill="none" stroke="black"/>
<text xml:space="preserve" x="377.638" y="39.0986" fill="black" font-size="16.7253" font-family="Helvetica"> / ndf </text>
<text xml:space="preserve" x="371.122" y="34.2112" fill="black" font-size="11.3169" font-family="Helvetica">2</text>
<text xml:space="preserve" x="362.162" y="39.0986" fill="black" font-size="16.7253" font-family="Times">&#0967;</text>
<text xml:space="preserve" x="486.788" y="40.7277" fill="black" font-size="16.7253" font-family="Helvetica">   8.8 / 5</text>
<text xml:space="preserve" x="362.162" y="60.2769" fill="black" font-size="16.7253" font-family="Helvetica">Constant </text>
<text xml:space="preserve" x="503.079" y="60.2769" fill="black" font-size="16.7253" font-family="Helvetica"> 1.981</text>
<text xml:space="preserve" x="494.119" y="60.2769" fill="black" font-size="16.7253" font-family="Times">&#0177;</text>
<text xml:space="preserve" x="443.617" y="60.2769" fill="black" font-size="16.7253" font-family="Helvetica"> 8.989 </text>
<text xml:space="preserve" x="362.162" y="79.0117" fill="black" font-size="16.7253" font-family="Helvetica">Mean     </text>
<text xml:space="preserve" x="509.596" y="79.0117" fill="black" font-size="16.7253" font-family="Helvetica"> 10.5</text>
<text xml:space="preserve" x="500.636" y="79.0117" fill="black" font-size="16.7253" font-family="Times">&#0177;</text>
<text xml:space="preserve" x="450.133" y="79.0117" fill="black" font-size="16.7253" font-family="Helvetica"> 283.2 </text>
<text xml:space="preserve" x="362.162" y="96.9318" fill="black" font-size="16.7253" font-family="Helvetica">Sigma    </text>
<text xml:space="preserve" x="503.079" y="98.561" fill="black" font-size="16.7253" font-family="Helvetica"> 11.11</text>
<text xml:space="preserve" x="494.119" y="98.561" fill="black" font-size="16.7253" font-family="Times">&#0177;</text>
<text xml:space="preserve" x="443.617" y="98.561" fill="black" font-size="16.7253" font-family="Helvetica"> 55.09 </text>
<path d="M57.1929,346.022h 453.543" fill="none" stroke="black"/>
<path d="M57.1929,336.795v 9.22726" fill="none" stroke="black"/>
<path d="M72.311,341.409v 4.61363" fill="none" stroke="black"/>
<path d="M87.4291,341.409v 4.61363" fill="none" stroke="black"/>
<path d="M102.547,341.409v 4.61363" fill="none" stroke="black"/>
<path d="M117.665,341.409v 4.61363" fill="none" stroke="black"/>
<path d="M132.783,336.795v 9.22726" fill="none" stroke="black"/>
<path d="M147.902,341.409v 4.61363" fill="none" stroke="black"/>
<path d="M163.02,341.409v 4.61363" fill="none" stroke="black"/>
<path d="M178.138,341.409v 4.61363" fill="none" stroke="black"/>
<path d="M193.256,341.409v 4.61363" fill="none" stroke="black"/>
<path d="M208.374,336.795v 9.22726" fill="none" stroke="black"/>
<path d="M223.492,341.409v 4.61363" fill="none" stroke="black"/>
<path d="M238.61,341.409v 4.61363" fill="none" stroke="black"/>
<path d="M253.728,341.409v 4.61363" fill="none" stroke="black"/>
<path d="M268.846,341.409v 4.61363" fill="none" stroke="black"/>
<path d="M283.965,336.795v 9.22726" fill="none" stroke="black"/>
<path d="M299.083,341.409v 4.61363" fill="none" stroke="black"/>
<path d="M314.201,341.409v 4.61363" fill="none" stroke="black"/>
<path d="M329.319,341.409v 4.61363" fill="none" stroke="black"/>
<path d="M344.437,341.409v 4.61363" fill="none" stroke="black"/>
<path d="M359.555,336.795v 9.22726" fill="none" stroke="black"/>
<path d="M374.673,341.409v 4.61363" fill="none" stroke="black"/>
<path d="M389.791,341.409v 4.61363" fill="none" stroke="black"/>
<path d="M404.909,341.409v 4.61363" fill="none" stroke="black"/>
<path d="M420.028,341.409v 4.61363" fill="none" stroke="black"/>
<path d="M435.146,336.795v 9.22726" fill="none" stroke="black"/>
<path d="M450.264,341.409v 4.61363" fill="none" stroke="black"/>
<path d="M465.382,341.409v 4.61363" fill="none" stroke="black"/>
<path d="M480.5,341.409v 4.61363" fill="none" stroke="black"/>
<path d="M495.618,341.409v 4.61363" fill="none" stroke="black"/>
<path d="M510.736,336.795v 9.22726" fill="none" stroke="black"/>
<text xml:space="preserve" x="53.446" y="358.403" fill="black" font-size="12.8453" font-family="Helvetica">0</text>
<text xml:space="preserve" x="121.868" y="358.403" fill="black" font-size="12.8453" font-family="Helvetica">100</text>
<text xml:space="preserve" x="197.622" y="358.403" fill="black" font-size="12.8453" font-family="Helvetica">200</text>
<text xml:space="preserve" x="273.375" y="358.403" fill="black" font-size="12.8453" font-family="Helvetica">300</text>
<text xml:space="preserve" x="348.314" y="358.403" fill="black" font-size="12.8453" font-family="Helvetica">400</text>
<text xml:space="preserve" x="424.068" y="358.403" fill="black" font-size="12.8453" font-family="Helvetica">500</text>
<text xml:space="preserve" x="499.821" y="358.403" fill="black" font-size="12.8453" font-family="Helvetica">600</text>
<text xml:space="preserve" x="486.788" y="369.807" fill="black" font-size="12.8453" font-family="Helvetica">mpv</text>
<path d="M57.1929,346.022v -307.575" fill="none" stroke="black"/>
<path d="M70.7992,346.022h -13.6063" fill="none" stroke="black"/>
<path d="M63.9961,336.868h -6.80315" fill="none" stroke="black"/>
<path d="M63.9961,327.714h -6.80315" fill="none" stroke="black"/>
<path d="M63.9961,318.56h -6.80315" fill="none" stroke="black"/>
<path d="M70.7992,309.406h -13.6063" fill="none" stroke="black"/>
<path d="M63.9961,300.252h -6.80315" fill="none" stroke="black"/>
<path d="M63.9961,291.098h -6.80315" fill="none" stroke="black"/>
<path d="M63.9961,281.944h -6.80315" fill="none" stroke="black"/>
<path d="M70.7992,272.79h -13.6063" fill="none" stroke="black"/>
<path d="M63.9961,263.636h -6.80315" fill="none" stroke="black"/>
<path d="M63.9961,254.482h -6.80315" fill="none" stroke="black"/>
<path d="M63.9961,245.328h -6.80315" fill="none" stroke="black"/>
<path d="M70.7992,236.174h -13.6063" fill="none" stroke="black"/>
<path d="M63.9961,227.02h -6.80315" fill="none" stroke="black"/>
<path d="M63.9961,217.866h -6.80315" fill="none" stroke="black"/>
<path d="M63.9961,208.712h -6.80315" fill="none" stroke="black"/>
<path d="M70.7992,199.558h -13.6063" fill="none" stroke="black"/>
<path d="M63.9961,190.404h -6.80315" fill="none" stroke="black"/>
<path d="M63.9961,181.25h -6.80315" fill="none" stroke="black"/>
<path d="M63.9961,172.096h -6.80315" fill="none" stroke="black"/>
<path d="M70.7992,162.942h -13.6063" fill="none" stroke="black"/>
<path d="M63.9961,153.788h -6.80315" fill="none" stroke="black"/>
<path d="M63.9961,144.634h -6.80315" fill="none" stroke="black"/>
<path d="M63.9961,135.48h -6.80315" fill="none" stroke="black"/>
<path d="M70.7992,126.326h -13.6063" fill="none" stroke="black"/>
<path d="M63.9961,117.172h -6.80315" fill="none" stroke="black"/>
<path d="M63.9961,108.018h -6.80315" fill="none" stroke="black"/>
<path d="M63.9961,98.8635h -6.80315" fill="none" stroke="black"/>
<path d="M70.7992,89.7095h -13.6063" fill="none" stroke="black"/>
<path d="M63.9961,80.5555h -6.80315" fill="none" stroke="black"/>
<path d="M63.9961,71.4014h -6.80315" fill="none" stroke="black"/>
<path d="M63.9961,62.2474h -6.80315" fill="none" stroke="black"/>
<path d="M70.7992,53.0934h -13.6063" fill="none" stroke="black"/>
<path d="M70.7992,53.0934h -13.6063" fill="none" stroke="black"/>
<path d="M63.9961,43.9393h -6.80315" fill="none" stroke="black"/>
<text xml:space="preserve" x="47.7441" y="350.258" fill="black" font-size="12.8453" font-family="Helvetica">0</text>
<text xml:space="preserve" x="47.7441" y="313.603" fill="black" font-size="12.8453" font-family="Helvetica">2</text>
<text xml:space="preserve" x="47.7441" y="276.948" fill="black" font-size="12.8453" font-family="Helvetica">4</text>
<text xml:space="preserve" x="47.7441" y="240.293" fill="black" font-size="12.8453" font-family="Helvetica">6</text>
<text xml:space="preserve" x="47.7441" y="203.638" fill="black" font-size="12.8453" font-family="Helvetica">8</text>
<text xml:space="preserve" x="41.2277" y="167.798" fill="black" font-size="12.8453" font-family="Helvetica">10</text>
<text xml:space="preserve" x="40.4131" y="131.143" fill="black" font-size="12.8453" font-family="Helvetica">12</text>
<text xml:space="preserve" x="40.4131" y="94.4882" fill="black" font-size="12.8453" font-family="Helvetica">14</text>
<text xml:space="preserve" x="40.4131" y="57.8333" fill="black" font-size="12.8453" font-family="Helvetica">16</text>
<g transform="rotate(-90,28.1948,80.6408)">
<text xml:space="preserve" x="28.1948" y="80.6408" fill="black" font-size="12.8453" font-family="Helvetica">ntowers</text>
</g>
<rect x="351.996" y="24.9905" width="204.094" height="76.8938" fill="white"/>
<path d="M351.996,101.884h 204.094" fill="none" stroke="black"/>
<path d="M556.091,101.884v -76.8938" fill="none" stroke="black"/>
<path d="M556.091,24.9905h -204.094" fill="none" stroke="black"/>
<path d="M351.996,24.9905v 76.8938" fill="none" stroke="black"/>
<text xml:space="preserve" x="377.638" y="39.0986" fill="black" font-size="16.7253" font-family="Helvetica"> / ndf </text>
<text xml:space="preserve" x="371.122" y="34.2112" fill="black" font-size="11.3169" font-family="Helvetica">2</text>
<text xml:space="preserve" x="362.162" y="39.0986" fill="black" font-size="16.7253" font-family="Times">&#0967;</text>
<text xml:space="preserve" x="486.788" y="40.7277" fill="black" font-size="16.7253" font-family="Helvetica">   8.8 / 5</text>
<text xml:space="preserve" x="362.162" y="60.2769" fill="black" font-size="16.7253" font-family="Helvetica">Constant </text>
<text xml:space="preserve" x="503.079" y="60.2769" fill="black" font-size="16.7253" font-family="Helvetica"> 1.981</text>
<text xml:space="preserve" x="494.119" y="60.2769" fill="black" font-size="16.7253" font-family="Times">&#0177;</text>
<text xml:space="preserve" x="443.617" y="60.2769" fill="black" font-size="16.7253" font-family="Helvetica"> 8.989 </text>
<text xml:space="preserve" x="362.162" y="79.0117" fill="black" font-size="16.7253" font-family="Helvetica">Mean     </text>
<text xml:space="preserve" x="509.596" y="79.0117" fill="black" font-size="16.7253" font-family="Helvetica"> 10.5</text>
<text xml:space="preserve" x="500.636" y="79.0117" fill="black" font-size="16.7253" font-family="Times">&#0177;</text>
<text xml:space="preserve" x="450.133" y="79.0117" fill="black" font-size="16.7253" font-family="Helvetica"> 283.2 </text>
<text xml:space="preserve" x="362.162" y="96.9318" fill="black" font-size="16.7253" font-family="Helvetica">Sigma    </text>
<text xml:space="preserve" x="503.079" y="98.561" fill="black" font-size="16.7253" font-family="Helvetica"> 11.11</text>
<text xml:space="preserve" x="494.119" y="98.561" fill="black" font-size="16.7253" font-family="Times">&#0177;</text>
<text xml:space="preserve" x="443.617" y="98.561" fill="black" font-size="16.7253" font-family="Helvetica"> 55.09 </text>
<g stroke="black" stroke-width="1" fill="none">
<line x1="67.5315" y1="346.022" x2="68.5315" y2="346.022"/>
</g>
<g stroke="black" stroke-width="1" fill="none">
<line x1="90.2087" y1="346.022" x2="91.2087" y2="346.022"/>
</g>
<g stroke="black" stroke-width="1" fill="none">
<line x1="112.886" y1="346.022" x2="113.886" y2="346.022"/>
</g>
<path d="M136.563,346.022v -18.3081" fill="none" stroke="#000099"/>
<path d="M136.563,327.714v -18.3081" fill="none" stroke="#000099"/>
<path d="M125.224,327.714h 11.3386" fill="none" stroke="#000099"/>
<path d="M136.563,327.714h 11.3386" fill="none" stroke="#000099"/>
<g stroke="black" stroke-width="1" fill="none">
<line x1="135.563" y1="327.714" x2="136.563" y2="327.714"/>
</g>
<g stroke="black" stroke-width="1" fill="none">
<line x1="158.24" y1="346.022" x2="159.24" y2="346.022"/>
</g>
<g stroke="black" stroke-width="1" fill="none">
<line x1="180.917" y1="346.022" x2="181.917" y2="346.022"/>
</g>
<path d="M204.594,322.809v -31.7105" fill="none" stroke="#000099"/>
<path d="M204.594,291.098v -31.7105" fill="none" stroke="#000099"/>
<path d="M193.256,291.098h 11.3386" fill="none" stroke="#000099"/>
<path d="M204.594,291.098h 11.3386" fill="none" stroke="#000099"/>
<g stroke="black" stroke-width="1" fill="none">
<line x1="203.594" y1="291.098" x2="204.594" y2="291.098"/>
</g>
<path d="M227.272,309.406v -36.6161" fill="none" stroke="#000099"/>
<path d="M227.272,272.79v -36.6161" fill="none" stroke="#000099"/>
<path d="M215.933,272.79h 11.3386" fill="none" stroke="#000099"/>
<path d="M227.272,272.79h 11.3386" fill="none" stroke="#000099"/>
<g stroke="black" stroke-width="1" fill="none">
<line x1="226.272" y1="272.79" x2="227.272" y2="272.79"/>
</g>
<path d="M249.949,189.747v -63.421" fill="none" stroke="#000099"/>
<path d="M249.949,126.326v -63.421" fill="none" stroke="#000099"/>
<path d="M238.61,126.326h 11.3386" fill="none" stroke="#000099"/>
<path d="M249.949,126.326h 11.3386" fill="none" stroke="#000099"/>
<g stroke="black" stroke-width="1" fill="none">
<line x1="248.949" y1="126.326" x2="249.949" y2="126.326"/>
</g>
<path d="M272.626,281.019v -44.8454" fill="none" stroke="#000099"/>
<path d="M272.626,236.174v -44.8454" fill="none" stroke="#000099"/>
<path d="M261.287,236.174h 11.3386" fill="none" stroke="#000099"/>
<path d="M272.626,236.174h 11.3386" fill="none" stroke="#000099"/>
<g stroke="black" stroke-width="1" fill="none">
<line x1="271.626" y1="236.174" x2="272.626" y2="236.174"/>
</g>
<path d="M295.303,126.326v -73.2322" fill="none" stroke="#000099"/>
<path d="M295.303,53.0934v -14.6464" fill="none" stroke="#000099"/>
<path d="M283.965,53.0934h 11.3386" fill="none" stroke="#000099"/>
<path d="M295.303,53.0934h 11.3386" fill="none" stroke="#000099"/>
<g stroke="black" stroke-width="1" fill="none">
<line x1="294.303" y1="53.0934" x2="295.303" y2="53.0934"/>
</g>
<path d="M317.98,309.406v -36.6161" fill="none" stroke="#000099"/>
<path d="M317.98,272.79v -36.6161" fill="none" stroke="#000099"/>
<path d="M306.642,272.79h 11.3386" fill="none" stroke="#000099"/>
<path d="M317.98,272.79h 11.3386" fill="none" stroke="#000099"/>
<g stroke="black" stroke-width="1" fill="none">
<line x1="316.98" y1="272.79" x2="317.98" y2="272.79"/>
</g>
<path d="M340.657,335.298v -25.8915" fill="none" stroke="#000099"/>
<path d="M340.657,309.406v -25.8915" fill="none" stroke="#000099"/>
<path d="M329.319,309.406h 11.3386" fill="none" stroke="#000099"/>
<path d="M340.657,309.406h 11.3386" fill="none" stroke="#000099"/>
<g stroke="black" stroke-width="1" fill="none">
<line x1="339.657" y1="309.406" x2="340.657" y2="309.406"/>
</g>
<g stroke="black" stroke-width="1" fill="none">
<line x1="362.335" y1="346.022" x2="363.335" y2="346.022"/>
</g>
<g stroke="black" stroke-width="1" fill="none">
<line x1="385.012" y1="346.022" x2="386.012" y2="346.022"/>
</g>
<g stroke="black" stroke-width="1" fill="none">
<line x1="407.689" y1="346.022" x2="408.689" y2="346.022"/>
</g>
<g stroke="black" stroke-width="1" fill="none">
<line x1="430.366" y1="346.022" x2="431.366" y2="346.022"/>
</g>
<g stroke="black" stroke-width="1" fill="none">
<line x1="453.043" y1="346.022" x2="454.043" y2="346.022"/>
</g>
<g stroke="black" stroke-width="1" fill="none">
<line x1="475.72" y1="346.022" x2="476.72" y2="346.022"/>
</g>
<g stroke="black" stroke-width="1" fill="none">
<line x1="498.398" y1="346.022" x2="499.398" y2="346.022"/>
</g>
<path d="M59.4606,346.022h 36.2835l 4.53543, -0.035959l 4.53543, -0.0199443l 4.53543, -0.0299814l 4.53543, -0.0445048l 4.53543, -0.0652324l 4.53543, -0.0944066l 4.53543, -0.134896l 4.53543, -0.190297l 4.53543, -0.265016l 4.53543, -0.364324l 4.53543,
 -0.494365l 4.53543, -0.662086l 4.53543, -0.875078l 4.53543, -1.1413l 4.53543, -1.46866l 4.53543, -1.86446l 4.53543, -2.3347l 4.53543, -2.88323l 4.53543, -3.51087l 4.53543, -4.21441l 4.53543, -4.98578l 4.53543, -5.81123l 4.53543, -6.67093l 4.53543,
 -7.53875l 4.53543, -8.38265l 4.53543, -9.16551l 4.53543, -9.84656l 4.53543, -10.3833l 4.53543, -10.7341l 4.53543, -10.8605l 4.53543, -10.7306l 4.53543, -10.3215l 4.53543, -9.62155l 4.53543, -8.63268l 4.53543, -7.37085l 4.53543, -5.86634l 4.53543,
 -4.16263l 4.53543, -2.31446l 4.53543, -0.384876l 4.53543, 1.55832l 4.53543, 3.44653" fill="none" stroke="#ff0000" stroke-width="2"/>
<path d="M281.697,186.549l 4.53543, 5.21438l 4.53543, 6.80345l 4.53543, 8.16552l 4.53543, 9.26492l 4.53543, 10.08l 4.53543, 10.6033l 4.53543, 10.8413l 4.53543, 10.8128l 4.53543, 10.5463l 4.53543, 10.0782l 4.53543, 9.44902l 4.53543, 8.70136l 4.53543,
 7.8769l 4.53543, 7.01439l 4.53543, 6.14803l 4.53543, 5.30632l 4.53543, 4.51162l 4.53543, 3.78002l 4.53543, 3.12177l 4.53543, 2.54189l 4.53543, 2.04103l 4.53543, 1.61645l 4.53543, 1.26287l 4.53543, 0.973427l 4.53543, 0.740369l 4.53543, 0.555701l
 4.53543, 0.411648l 4.53543, 0.300981l 4.53543, 0.217229l 4.53543, 0.154772l 4.53543, 0.108865l 4.53543, 0.0756023l 4.53543, 0.0518388l 4.53543, 0.035097l 4.53543, 0.0234638l 4.53543, 0.0428662h 58.9606" fill="none" stroke="#ff0000"
 stroke-width="2"/>
<path d="M503.933,346.022h 4.53543" fill="none" stroke="#ff0000" stroke-width="2"/>
<rect x="351.996" y="24.9905" width="204.094" height="76.8938" fill="white"/>
<path d="M351.996,101.884h 204.094" fill="none" stroke="black"/>
<path d="M556.091,101.884v -76.8938" fill="none" stroke="black"/>
<path d="M556.091,24.9905h -204.094" fill="none" stroke="black"/>
<path d="M351.996,24.9905v 76.8938" fill="none" stroke="black"/>
<text xml:space="preserve" x="377.638" y="39.0986" fill="black" font-size="16.7253" font-family="Helvetica"> / ndf </text>
<text xml:space="preserve" x="371.122" y="34.2112" fill="black" font-size="11.3169" font-family="Helvetica">2</text>
<text xml:space="preserve" x="362.162" y="39.0986" fill="black" font-size="16.7253" font-family="Times">&#0967;</text>
<text xml:space="preserve" x="486.788" y="40.7277" fill="black" font-size="16.7253" font-family="Helvetica">   8.8 / 5</text>
<text xml:space="preserve" x="362.162" y="60.2769" fill="black" font-size="16.7253" font-family="Helvetica">Constant </text>
<text xml:space="preserve" x="503.079" y="60.2769" fill="black" font-size="16.7253" font-family="Helvetica"> 1.981</text>
<text xml:space="preserve" x="494.119" y="60.2769" fill="black" font-size="16.7253" font-family="Times">&#0177;</text>
<text xml:space="preserve" x="443.617" y="60.2769" fill="black" font-size="16.7253" font-family="Helvetica"> 8.989 </text>
<text xml:space="preserve" x="362.162" y="79.0117" fill="black" font-size="16.7253" font-family="Helvetica">Mean     </text>
<text xml:space="preserve" x="509.596" y="79.0117" fill="black" font-size="16.7253" font-family="Helvetica"> 10.5</text>
<text xml:space="preserve" x="500.636" y="79.0117" fill="black" font-size="16.7253" font-family="Times">&#0177;</text>
<text xml:space="preserve" x="450.133" y="79.0117" fill="black" font-size="16.7253" font-family="Helvetica"> 283.2 </text>
<text xml:space="preserve" x="362.162" y="96.9318" fill="black" font-size="16.7253" font-family="Helvetica">Sigma    </text>
<text xml:space="preserve" x="503.079" y="98.561" fill="black" font-size="16.7253" font-family="Helvetica"> 11.11</text>
<text xml:space="preserve" x="494.119" y="98.561" fill="black" font-size="16.7253" font-family="Times">&#0177;</text>
<text xml:space="preserve" x="443.617" y="98.561" fill="black" font-size="16.7253" font-family="Helvetica"> 55.09 </text>
<text xml:space="preserve" x="234.277" y="18.7347" fill="black" font-size="16.9898" font-family="Helvetica">Sector 1 IB 2</text></svg>
