<?xml version="1.0" standalone="no"?>
<svg width="567.429" height="384.969" viewBox="0 0 567.429 384.969" xmlns="http://www.w3.org/2000/svg" shape-rendering="crispEdges">
<title>
./graphs/svg/sector4_ib5.svg
</title>
<desc>
Creator: ROOT Version 6.24/00
CreationDate: Tue Jun  1 16:43:16 2021</desc>
<defs>
</defs>
<rect x="0.5" y="0" width="566.929" height="384.469" fill="white"/>
<rect x="57.1929" y="38.4469" width="453.543" height="307.575" fill="white"/>
<rect x="57.1929" y="38.4469" width="453.543" height="307.575" fill="none" stroke="black"/>
<rect x="57.1929" y="38.4469" width="453.543" height="307.575" fill="white"/>
<rect x="57.1929" y="38.4469" width="453.543" height="307.575" fill="none" stroke="black"/>
<path d="M57.1929,346.022h 90.7087v -61.7442h 22.6772v -30.8721h 22.6772v -185.232h 22.6772v 30.8721h 22.6772v -30.8721h 22.6772v 92.6162h 22.6772v 154.36h 45.3543v 30.8721h 181.417" fill="none" stroke="#000099"/>
<path d="M59.4606,346.022h 18.1417l 4.53543, -0.0480725l 4.53543, -0.0334342l 4.53543, -0.0544271l 4.53543, -0.0870632l 4.53543, -0.136842l 4.53543, -0.211317l 4.53543, -0.320585l 4.53543, -0.477752l 4.53543, -0.699307l 4.53543, -1.00528l 4.53543,
 -1.41905l 4.53543, -1.96668l 4.53543, -2.6756l 4.53543, -3.5725l 4.53543, -4.6804l 4.53543, -6.01505l 4.53543, -7.58057l 4.53543, -9.36502l 4.53543, -11.3362l 4.53543, -13.4381l 4.53543, -15.5899l 4.53543, -17.6857l 4.53543, -19.5987l 4.53543,
 -21.1878l 4.53543, -22.3068l 4.53543, -22.8169l 4.53543, -22.6l 4.53543, -21.5717l 4.53543, -19.6938l 4.53543, -16.982l 4.53543, -13.51l 4.53543, -9.40797l 4.53543, -4.85444l 4.53543, -0.0640202l 4.53543, 4.72954l 4.53543, 9.29224l 4.53543, 13.4088l
 4.53543, 16.8993l 4.53543, 19.6325l 4.53543, 21.533l 4.53543, 22.5835l 4.53543, 22.821l 4.53543, 22.3287l 4.53543, 21.2241l 4.53543, 19.6456" fill="none" stroke="#ff0000" stroke-width="2"/>
<path d="M281.697,247.128l 4.53543, 17.7393l 4.53543, 15.6467l 4.53543, 13.4949l 4.53543, 11.3905l 4.53543, 9.41504l 4.53543, 7.62513l 4.53543, 6.05357l 4.53543, 4.7128l 4.53543, 3.59904l 4.53543, 2.69683l 4.53543, 1.98327l 4.53543, 1.43171l 4.53543,
 1.01474l 4.53543, 0.70623l 4.53543, 0.482712l 4.53543, 0.324067l 4.53543, 0.213713l 4.53543, 0.138458l 4.53543, 0.0881328l 4.53543, 0.0551214l 4.53543, 0.0338764l 4.53543, 0.0487603h 122.457" fill="none" stroke="#ff0000" stroke-width="2"/>
<path d="M503.933,346.022h 4.53543" fill="none" stroke="#ff0000" stroke-width="2"/>
<rect x="351.996" y="24.9905" width="204.094" height="76.8938" fill="white"/>
<path d="M351.996,101.884h 204.094" fill="none" stroke="black"/>
<path d="M556.091,101.884v -76.8938" fill="none" stroke="black"/>
<path d="M556.091,24.9905h -204.094" fill="none" stroke="black"/>
<path d="M351.996,24.9905v 76.8938" fill="none" stroke="black"/>
<text xml:space="preserve" x="376.824" y="39.0986" fill="black" font-size="16.6263" font-family="Helvetica"> / ndf </text>
<text xml:space="preserve" x="371.122" y="34.2112" fill="black" font-size="11.2509" font-family="Helvetica">2</text>
<text xml:space="preserve" x="362.162" y="39.0986" fill="black" font-size="16.6263" font-family="Times">&#0967;</text>
<text xml:space="preserve" x="477.828" y="40.7277" fill="black" font-size="16.6263" font-family="Helvetica"> 2.298 / 5</text>
<text xml:space="preserve" x="362.162" y="60.2769" fill="black" font-size="16.6263" font-family="Helvetica">Constant </text>
<text xml:space="preserve" x="500.636" y="60.2769" fill="black" font-size="16.6263" font-family="Helvetica"> 2.044</text>
<text xml:space="preserve" x="491.676" y="60.2769" fill="black" font-size="16.6263" font-family="Times">&#0177;</text>
<text xml:space="preserve" x="441.173" y="60.2769" fill="black" font-size="16.6263" font-family="Helvetica"> 9.509 </text>
<text xml:space="preserve" x="362.162" y="79.0117" fill="black" font-size="16.6263" font-family="Helvetica">Mean     </text>
<text xml:space="preserve" x="518.556" y="79.0117" fill="black" font-size="16.6263" font-family="Helvetica"> 8.3</text>
<text xml:space="preserve" x="509.596" y="79.0117" fill="black" font-size="16.6263" font-family="Times">&#0177;</text>
<text xml:space="preserve" x="461.537" y="79.0117" fill="black" font-size="16.6263" font-family="Helvetica"> 228.1 </text>
<text xml:space="preserve" x="362.162" y="96.9318" fill="black" font-size="16.6263" font-family="Helvetica">Sigma    </text>
<text xml:space="preserve" x="509.596" y="98.561" fill="black" font-size="16.6263" font-family="Helvetica"> 7.04</text>
<text xml:space="preserve" x="500.636" y="98.561" fill="black" font-size="16.6263" font-family="Times">&#0177;</text>
<text xml:space="preserve" x="450.133" y="98.561" fill="black" font-size="16.6263" font-family="Helvetica"> 46.72 </text>
<path d="M57.1929,346.022h 453.543" fill="none" stroke="black"/>
<path d="M57.1929,336.795v 9.22726" fill="none" stroke="black"/>
<path d="M72.311,341.409v 4.61363" fill="none" stroke="black"/>
<path d="M87.4291,341.409v 4.61363" fill="none" stroke="black"/>
<path d="M102.547,341.409v 4.61363" fill="none" stroke="black"/>
<path d="M117.665,341.409v 4.61363" fill="none" stroke="black"/>
<path d="M132.783,336.795v 9.22726" fill="none" stroke="black"/>
<path d="M147.902,341.409v 4.61363" fill="none" stroke="black"/>
<path d="M163.02,341.409v 4.61363" fill="none" stroke="black"/>
<path d="M178.138,341.409v 4.61363" fill="none" stroke="black"/>
<path d="M193.256,341.409v 4.61363" fill="none" stroke="black"/>
<path d="M208.374,336.795v 9.22726" fill="none" stroke="black"/>
<path d="M223.492,341.409v 4.61363" fill="none" stroke="black"/>
<path d="M238.61,341.409v 4.61363" fill="none" stroke="black"/>
<path d="M253.728,341.409v 4.61363" fill="none" stroke="black"/>
<path d="M268.846,341.409v 4.61363" fill="none" stroke="black"/>
<path d="M283.965,336.795v 9.22726" fill="none" stroke="black"/>
<path d="M299.083,341.409v 4.61363" fill="none" stroke="black"/>
<path d="M314.201,341.409v 4.61363" fill="none" stroke="black"/>
<path d="M329.319,341.409v 4.61363" fill="none" stroke="black"/>
<path d="M344.437,341.409v 4.61363" fill="none" stroke="black"/>
<path d="M359.555,336.795v 9.22726" fill="none" stroke="black"/>
<path d="M374.673,341.409v 4.61363" fill="none" stroke="black"/>
<path d="M389.791,341.409v 4.61363" fill="none" stroke="black"/>
<path d="M404.909,341.409v 4.61363" fill="none" stroke="black"/>
<path d="M420.028,341.409v 4.61363" fill="none" stroke="black"/>
<path d="M435.146,336.795v 9.22726" fill="none" stroke="black"/>
<path d="M450.264,341.409v 4.61363" fill="none" stroke="black"/>
<path d="M465.382,341.409v 4.61363" fill="none" stroke="black"/>
<path d="M480.5,341.409v 4.61363" fill="none" stroke="black"/>
<path d="M495.618,341.409v 4.61363" fill="none" stroke="black"/>
<path d="M510.736,336.795v 9.22726" fill="none" stroke="black"/>
<text xml:space="preserve" x="53.446" y="358.403" fill="black" font-size="12.8453" font-family="Helvetica">0</text>
<text xml:space="preserve" x="121.868" y="358.403" fill="black" font-size="12.8453" font-family="Helvetica">100</text>
<text xml:space="preserve" x="197.622" y="358.403" fill="black" font-size="12.8453" font-family="Helvetica">200</text>
<text xml:space="preserve" x="273.375" y="358.403" fill="black" font-size="12.8453" font-family="Helvetica">300</text>
<text xml:space="preserve" x="348.314" y="358.403" fill="black" font-size="12.8453" font-family="Helvetica">400</text>
<text xml:space="preserve" x="424.068" y="358.403" fill="black" font-size="12.8453" font-family="Helvetica">500</text>
<text xml:space="preserve" x="499.821" y="358.403" fill="black" font-size="12.8453" font-family="Helvetica">600</text>
<text xml:space="preserve" x="486.788" y="369.807" fill="black" font-size="12.8453" font-family="Helvetica">mpv</text>
<path d="M57.1929,346.022v -307.575" fill="none" stroke="black"/>
<path d="M70.7992,346.022h -13.6063" fill="none" stroke="black"/>
<path d="M63.9961,339.848h -6.80315" fill="none" stroke="black"/>
<path d="M63.9961,333.673h -6.80315" fill="none" stroke="black"/>
<path d="M63.9961,327.499h -6.80315" fill="none" stroke="black"/>
<path d="M63.9961,321.325h -6.80315" fill="none" stroke="black"/>
<path d="M70.7992,315.15h -13.6063" fill="none" stroke="black"/>
<path d="M63.9961,308.976h -6.80315" fill="none" stroke="black"/>
<path d="M63.9961,302.801h -6.80315" fill="none" stroke="black"/>
<path d="M63.9961,296.627h -6.80315" fill="none" stroke="black"/>
<path d="M63.9961,290.453h -6.80315" fill="none" stroke="black"/>
<path d="M70.7992,284.278h -13.6063" fill="none" stroke="black"/>
<path d="M63.9961,278.104h -6.80315" fill="none" stroke="black"/>
<path d="M63.9961,271.929h -6.80315" fill="none" stroke="black"/>
<path d="M63.9961,265.755h -6.80315" fill="none" stroke="black"/>
<path d="M63.9961,259.58h -6.80315" fill="none" stroke="black"/>
<path d="M70.7992,253.406h -13.6063" fill="none" stroke="black"/>
<path d="M63.9961,247.232h -6.80315" fill="none" stroke="black"/>
<path d="M63.9961,241.057h -6.80315" fill="none" stroke="black"/>
<path d="M63.9961,234.883h -6.80315" fill="none" stroke="black"/>
<path d="M63.9961,228.708h -6.80315" fill="none" stroke="black"/>
<path d="M70.7992,222.534h -13.6063" fill="none" stroke="black"/>
<path d="M63.9961,216.36h -6.80315" fill="none" stroke="black"/>
<path d="M63.9961,210.185h -6.80315" fill="none" stroke="black"/>
<path d="M63.9961,204.011h -6.80315" fill="none" stroke="black"/>
<path d="M63.9961,197.836h -6.80315" fill="none" stroke="black"/>
<path d="M70.7992,191.662h -13.6063" fill="none" stroke="black"/>
<path d="M63.9961,185.487h -6.80315" fill="none" stroke="black"/>
<path d="M63.9961,179.313h -6.80315" fill="none" stroke="black"/>
<path d="M63.9961,173.139h -6.80315" fill="none" stroke="black"/>
<path d="M63.9961,166.964h -6.80315" fill="none" stroke="black"/>
<path d="M70.7992,160.79h -13.6063" fill="none" stroke="black"/>
<path d="M63.9961,154.615h -6.80315" fill="none" stroke="black"/>
<path d="M63.9961,148.441h -6.80315" fill="none" stroke="black"/>
<path d="M63.9961,142.267h -6.80315" fill="none" stroke="black"/>
<path d="M63.9961,136.092h -6.80315" fill="none" stroke="black"/>
<path d="M70.7992,129.918h -13.6063" fill="none" stroke="black"/>
<path d="M63.9961,123.743h -6.80315" fill="none" stroke="black"/>
<path d="M63.9961,117.569h -6.80315" fill="none" stroke="black"/>
<path d="M63.9961,111.394h -6.80315" fill="none" stroke="black"/>
<path d="M63.9961,105.22h -6.80315" fill="none" stroke="black"/>
<path d="M70.7992,99.0456h -13.6063" fill="none" stroke="black"/>
<path d="M63.9961,92.8712h -6.80315" fill="none" stroke="black"/>
<path d="M63.9961,86.6968h -6.80315" fill="none" stroke="black"/>
<path d="M63.9961,80.5224h -6.80315" fill="none" stroke="black"/>
<path d="M63.9961,74.348h -6.80315" fill="none" stroke="black"/>
<path d="M70.7992,68.1735h -13.6063" fill="none" stroke="black"/>
<path d="M70.7992,68.1735h -13.6063" fill="none" stroke="black"/>
<path d="M63.9961,61.9991h -6.80315" fill="none" stroke="black"/>
<path d="M63.9961,55.8247h -6.80315" fill="none" stroke="black"/>
<path d="M63.9961,49.6503h -6.80315" fill="none" stroke="black"/>
<path d="M63.9961,43.4759h -6.80315" fill="none" stroke="black"/>
<text xml:space="preserve" x="47.7441" y="350.258" fill="black" font-size="12.8453" font-family="Helvetica">0</text>
<text xml:space="preserve" x="49.3732" y="319.305" fill="black" font-size="12.8453" font-family="Helvetica">1</text>
<text xml:space="preserve" x="47.7441" y="288.352" fill="black" font-size="12.8453" font-family="Helvetica">2</text>
<text xml:space="preserve" x="47.7441" y="258.213" fill="black" font-size="12.8453" font-family="Helvetica">3</text>
<text xml:space="preserve" x="47.7441" y="227.26" fill="black" font-size="12.8453" font-family="Helvetica">4</text>
<text xml:space="preserve" x="47.7441" y="196.307" fill="black" font-size="12.8453" font-family="Helvetica">5</text>
<text xml:space="preserve" x="47.7441" y="165.354" fill="black" font-size="12.8453" font-family="Helvetica">6</text>
<text xml:space="preserve" x="47.7441" y="134.401" fill="black" font-size="12.8453" font-family="Helvetica">7</text>
<text xml:space="preserve" x="47.7441" y="103.448" fill="black" font-size="12.8453" font-family="Helvetica">8</text>
<text xml:space="preserve" x="47.7441" y="72.4952" fill="black" font-size="12.8453" font-family="Helvetica">9</text>
<g transform="rotate(-90,35.5258,80.6408)">
<text xml:space="preserve" x="35.5258" y="80.6408" fill="black" font-size="12.8453" font-family="Helvetica">ntowers</text>
</g>
<rect x="351.996" y="24.9905" width="204.094" height="76.8938" fill="white"/>
<path d="M351.996,101.884h 204.094" fill="none" stroke="black"/>
<path d="M556.091,101.884v -76.8938" fill="none" stroke="black"/>
<path d="M556.091,24.9905h -204.094" fill="none" stroke="black"/>
<path d="M351.996,24.9905v 76.8938" fill="none" stroke="black"/>
<text xml:space="preserve" x="376.824" y="39.0986" fill="black" font-size="16.6263" font-family="Helvetica"> / ndf </text>
<text xml:space="preserve" x="371.122" y="34.2112" fill="black" font-size="11.2509" font-family="Helvetica">2</text>
<text xml:space="preserve" x="362.162" y="39.0986" fill="black" font-size="16.6263" font-family="Times">&#0967;</text>
<text xml:space="preserve" x="477.828" y="40.7277" fill="black" font-size="16.6263" font-family="Helvetica"> 2.298 / 5</text>
<text xml:space="preserve" x="362.162" y="60.2769" fill="black" font-size="16.6263" font-family="Helvetica">Constant </text>
<text xml:space="preserve" x="500.636" y="60.2769" fill="black" font-size="16.6263" font-family="Helvetica"> 2.044</text>
<text xml:space="preserve" x="491.676" y="60.2769" fill="black" font-size="16.6263" font-family="Times">&#0177;</text>
<text xml:space="preserve" x="441.173" y="60.2769" fill="black" font-size="16.6263" font-family="Helvetica"> 9.509 </text>
<text xml:space="preserve" x="362.162" y="79.0117" fill="black" font-size="16.6263" font-family="Helvetica">Mean     </text>
<text xml:space="preserve" x="518.556" y="79.0117" fill="black" font-size="16.6263" font-family="Helvetica"> 8.3</text>
<text xml:space="preserve" x="509.596" y="79.0117" fill="black" font-size="16.6263" font-family="Times">&#0177;</text>
<text xml:space="preserve" x="461.537" y="79.0117" fill="black" font-size="16.6263" font-family="Helvetica"> 228.1 </text>
<text xml:space="preserve" x="362.162" y="96.9318" fill="black" font-size="16.6263" font-family="Helvetica">Sigma    </text>
<text xml:space="preserve" x="509.596" y="98.561" fill="black" font-size="16.6263" font-family="Helvetica"> 7.04</text>
<text xml:space="preserve" x="500.636" y="98.561" fill="black" font-size="16.6263" font-family="Times">&#0177;</text>
<text xml:space="preserve" x="450.133" y="98.561" fill="black" font-size="16.6263" font-family="Helvetica"> 46.72 </text>
<g stroke="black" stroke-width="1" fill="none">
<line x1="67.5315" y1="346.022" x2="68.5315" y2="346.022"/>
</g>
<g stroke="black" stroke-width="1" fill="none">
<line x1="90.2087" y1="346.022" x2="91.2087" y2="346.022"/>
</g>
<g stroke="black" stroke-width="1" fill="none">
<line x1="112.886" y1="346.022" x2="113.886" y2="346.022"/>
</g>
<g stroke="black" stroke-width="1" fill="none">
<line x1="135.563" y1="346.022" x2="136.563" y2="346.022"/>
</g>
<path d="M159.24,327.938v -43.6597" fill="none" stroke="#000099"/>
<path d="M159.24,284.278v -43.6597" fill="none" stroke="#000099"/>
<path d="M147.902,284.278h 11.3386" fill="none" stroke="#000099"/>
<path d="M159.24,284.278h 11.3386" fill="none" stroke="#000099"/>
<g stroke="black" stroke-width="1" fill="none">
<line x1="158.24" y1="284.278" x2="159.24" y2="284.278"/>
</g>
<path d="M181.917,306.878v -53.472" fill="none" stroke="#000099"/>
<path d="M181.917,253.406v -53.472" fill="none" stroke="#000099"/>
<path d="M170.579,253.406h 11.3386" fill="none" stroke="#000099"/>
<path d="M181.917,253.406h 11.3386" fill="none" stroke="#000099"/>
<g stroke="black" stroke-width="1" fill="none">
<line x1="180.917" y1="253.406" x2="181.917" y2="253.406"/>
</g>
<path d="M204.594,160.79v -92.6162" fill="none" stroke="#000099"/>
<path d="M204.594,68.1735v -29.7266" fill="none" stroke="#000099"/>
<path d="M193.256,68.1735h 11.3386" fill="none" stroke="#000099"/>
<path d="M204.594,68.1735h 11.3386" fill="none" stroke="#000099"/>
<g stroke="black" stroke-width="1" fill="none">
<line x1="203.594" y1="68.1735" x2="204.594" y2="68.1735"/>
</g>
<path d="M227.272,186.365v -87.3194" fill="none" stroke="#000099"/>
<path d="M227.272,99.0456v -60.5987" fill="none" stroke="#000099"/>
<path d="M215.933,99.0456h 11.3386" fill="none" stroke="#000099"/>
<path d="M227.272,99.0456h 11.3386" fill="none" stroke="#000099"/>
<g stroke="black" stroke-width="1" fill="none">
<line x1="226.272" y1="99.0456" x2="227.272" y2="99.0456"/>
</g>
<path d="M249.949,160.79v -92.6162" fill="none" stroke="#000099"/>
<path d="M249.949,68.1735v -29.7266" fill="none" stroke="#000099"/>
<path d="M238.61,68.1735h 11.3386" fill="none" stroke="#000099"/>
<path d="M249.949,68.1735h 11.3386" fill="none" stroke="#000099"/>
<g stroke="black" stroke-width="1" fill="none">
<line x1="248.949" y1="68.1735" x2="249.949" y2="68.1735"/>
</g>
<path d="M272.626,236.411v -75.6208" fill="none" stroke="#000099"/>
<path d="M272.626,160.79v -75.6208" fill="none" stroke="#000099"/>
<path d="M261.287,160.79h 11.3386" fill="none" stroke="#000099"/>
<path d="M272.626,160.79h 11.3386" fill="none" stroke="#000099"/>
<g stroke="black" stroke-width="1" fill="none">
<line x1="271.626" y1="160.79" x2="272.626" y2="160.79"/>
</g>
<path d="M295.303,346.022v -30.8721" fill="none" stroke="#000099"/>
<path d="M295.303,315.15v -30.8721" fill="none" stroke="#000099"/>
<path d="M283.965,315.15h 11.3386" fill="none" stroke="#000099"/>
<path d="M295.303,315.15h 11.3386" fill="none" stroke="#000099"/>
<g stroke="black" stroke-width="1" fill="none">
<line x1="294.303" y1="315.15" x2="295.303" y2="315.15"/>
</g>
<path d="M317.98,346.022v -30.8721" fill="none" stroke="#000099"/>
<path d="M317.98,315.15v -30.8721" fill="none" stroke="#000099"/>
<path d="M306.642,315.15h 11.3386" fill="none" stroke="#000099"/>
<path d="M317.98,315.15h 11.3386" fill="none" stroke="#000099"/>
<g stroke="black" stroke-width="1" fill="none">
<line x1="316.98" y1="315.15" x2="317.98" y2="315.15"/>
</g>
<g stroke="black" stroke-width="1" fill="none">
<line x1="339.657" y1="346.022" x2="340.657" y2="346.022"/>
</g>
<g stroke="black" stroke-width="1" fill="none">
<line x1="362.335" y1="346.022" x2="363.335" y2="346.022"/>
</g>
<g stroke="black" stroke-width="1" fill="none">
<line x1="385.012" y1="346.022" x2="386.012" y2="346.022"/>
</g>
<g stroke="black" stroke-width="1" fill="none">
<line x1="407.689" y1="346.022" x2="408.689" y2="346.022"/>
</g>
<g stroke="black" stroke-width="1" fill="none">
<line x1="430.366" y1="346.022" x2="431.366" y2="346.022"/>
</g>
<g stroke="black" stroke-width="1" fill="none">
<line x1="453.043" y1="346.022" x2="454.043" y2="346.022"/>
</g>
<g stroke="black" stroke-width="1" fill="none">
<line x1="475.72" y1="346.022" x2="476.72" y2="346.022"/>
</g>
<g stroke="black" stroke-width="1" fill="none">
<line x1="498.398" y1="346.022" x2="499.398" y2="346.022"/>
</g>
<path d="M59.4606,346.022h 18.1417l 4.53543, -0.0480725l 4.53543, -0.0334342l 4.53543, -0.0544271l 4.53543, -0.0870632l 4.53543, -0.136842l 4.53543, -0.211317l 4.53543, -0.320585l 4.53543, -0.477752l 4.53543, -0.699307l 4.53543, -1.00528l 4.53543,
 -1.41905l 4.53543, -1.96668l 4.53543, -2.6756l 4.53543, -3.5725l 4.53543, -4.6804l 4.53543, -6.01505l 4.53543, -7.58057l 4.53543, -9.36502l 4.53543, -11.3362l 4.53543, -13.4381l 4.53543, -15.5899l 4.53543, -17.6857l 4.53543, -19.5987l 4.53543,
 -21.1878l 4.53543, -22.3068l 4.53543, -22.8169l 4.53543, -22.6l 4.53543, -21.5717l 4.53543, -19.6938l 4.53543, -16.982l 4.53543, -13.51l 4.53543, -9.40797l 4.53543, -4.85444l 4.53543, -0.0640202l 4.53543, 4.72954l 4.53543, 9.29224l 4.53543, 13.4088l
 4.53543, 16.8993l 4.53543, 19.6325l 4.53543, 21.533l 4.53543, 22.5835l 4.53543, 22.821l 4.53543, 22.3287l 4.53543, 21.2241l 4.53543, 19.6456" fill="none" stroke="#ff0000" stroke-width="2"/>
<path d="M281.697,247.128l 4.53543, 17.7393l 4.53543, 15.6467l 4.53543, 13.4949l 4.53543, 11.3905l 4.53543, 9.41504l 4.53543, 7.62513l 4.53543, 6.05357l 4.53543, 4.7128l 4.53543, 3.59904l 4.53543, 2.69683l 4.53543, 1.98327l 4.53543, 1.43171l 4.53543,
 1.01474l 4.53543, 0.70623l 4.53543, 0.482712l 4.53543, 0.324067l 4.53543, 0.213713l 4.53543, 0.138458l 4.53543, 0.0881328l 4.53543, 0.0551214l 4.53543, 0.0338764l 4.53543, 0.0487603h 122.457" fill="none" stroke="#ff0000" stroke-width="2"/>
<path d="M503.933,346.022h 4.53543" fill="none" stroke="#ff0000" stroke-width="2"/>
<rect x="351.996" y="24.9905" width="204.094" height="76.8938" fill="white"/>
<path d="M351.996,101.884h 204.094" fill="none" stroke="black"/>
<path d="M556.091,101.884v -76.8938" fill="none" stroke="black"/>
<path d="M556.091,24.9905h -204.094" fill="none" stroke="black"/>
<path d="M351.996,24.9905v 76.8938" fill="none" stroke="black"/>
<text xml:space="preserve" x="376.824" y="39.0986" fill="black" font-size="16.6263" font-family="Helvetica"> / ndf </text>
<text xml:space="preserve" x="371.122" y="34.2112" fill="black" font-size="11.2509" font-family="Helvetica">2</text>
<text xml:space="preserve" x="362.162" y="39.0986" fill="black" font-size="16.6263" font-family="Times">&#0967;</text>
<text xml:space="preserve" x="477.828" y="40.7277" fill="black" font-size="16.6263" font-family="Helvetica"> 2.298 / 5</text>
<text xml:space="preserve" x="362.162" y="60.2769" fill="black" font-size="16.6263" font-family="Helvetica">Constant </text>
<text xml:space="preserve" x="500.636" y="60.2769" fill="black" font-size="16.6263" font-family="Helvetica"> 2.044</text>
<text xml:space="preserve" x="491.676" y="60.2769" fill="black" font-size="16.6263" font-family="Times">&#0177;</text>
<text xml:space="preserve" x="441.173" y="60.2769" fill="black" font-size="16.6263" font-family="Helvetica"> 9.509 </text>
<text xml:space="preserve" x="362.162" y="79.0117" fill="black" font-size="16.6263" font-family="Helvetica">Mean     </text>
<text xml:space="preserve" x="518.556" y="79.0117" fill="black" font-size="16.6263" font-family="Helvetica"> 8.3</text>
<text xml:space="preserve" x="509.596" y="79.0117" fill="black" font-size="16.6263" font-family="Times">&#0177;</text>
<text xml:space="preserve" x="461.537" y="79.0117" fill="black" font-size="16.6263" font-family="Helvetica"> 228.1 </text>
<text xml:space="preserve" x="362.162" y="96.9318" fill="black" font-size="16.6263" font-family="Helvetica">Sigma    </text>
<text xml:space="preserve" x="509.596" y="98.561" fill="black" font-size="16.6263" font-family="Helvetica"> 7.04</text>
<text xml:space="preserve" x="500.636" y="98.561" fill="black" font-size="16.6263" font-family="Times">&#0177;</text>
<text xml:space="preserve" x="450.133" y="98.561" fill="black" font-size="16.6263" font-family="Helvetica"> 46.72 </text>
<text xml:space="preserve" x="234.277" y="18.7347" fill="black" font-size="16.9898" font-family="Helvetica">Sector 4 IB 5</text></svg>
