<?xml version="1.0" standalone="no"?>
<svg width="567.429" height="384.969" viewBox="0 0 567.429 384.969" xmlns="http://www.w3.org/2000/svg" shape-rendering="crispEdges">
<title>
./graphs/svg/sector2_ib2.svg
</title>
<desc>
Creator: ROOT Version 6.24/00
CreationDate: Tue Jun  1 16:43:15 2021</desc>
<defs>
</defs>
<rect x="0.5" y="0" width="566.929" height="384.469" fill="white"/>
<rect x="57.1929" y="38.4469" width="453.543" height="307.575" fill="white"/>
<rect x="57.1929" y="38.4469" width="453.543" height="307.575" fill="none" stroke="black"/>
<rect x="57.1929" y="38.4469" width="453.543" height="307.575" fill="white"/>
<rect x="57.1929" y="38.4469" width="453.543" height="307.575" fill="none" stroke="black"/>
<path d="M57.1929,346.022h 136.063v -26.6299h 22.6772v -53.2598h 22.6772v -186.409h 22.6772v 53.2598h 22.6772v -53.2598h 22.6772v -26.6299h 22.6772v 159.779h 22.6772v 133.149h 158.74" fill="none" stroke="#000099"/>
<path d="M59.4606,346.022h 49.8898l 4.53543, -0.0325642l 4.53543, -0.0188575l 4.53543, -0.0288266l 4.53543, -0.0435196l 4.53543, -0.0648848l 4.53543, -0.0955322l 4.53543, -0.138895l 4.53543, -0.199401l 4.53543, -0.282653l 4.53543, -0.395583l 4.53543,
 -0.546576l 4.53543, -0.745524l 4.53543, -1.00377l 4.53543, -1.33393l 4.53543, -1.7495l 4.53543, -2.26426l 4.53543, -2.89148l 4.53543, -3.64278l 4.53543, -4.52684l 4.53543, -5.54789l 4.53543, -6.70412l 4.53543, -7.98603l 4.53543, -9.37507l 4.53543,
 -10.8425l 4.53543, -12.3488l 4.53543, -13.844l 4.53543, -15.2682l 4.53543, -16.5543l 4.53543, -17.6299l 4.53543, -18.4219l 4.53543, -18.8602l 4.53543, -18.8833l 4.53543, -18.4424l 4.53543, -17.5065l 4.53543, -16.0657l 4.53543, -14.1339l 4.53543,
 -11.7495l 4.53543, -8.9753" fill="none" stroke="#ff0000" stroke-width="2"/>
<path d="M281.697,66.8773l 4.53543, -5.89515l 4.53543, -2.61039l 4.53543, 0.765878l 4.53543, 4.11524l 4.53543, 7.32085l 4.53543, 10.2742l 4.53543, 12.8812l 4.53543, 15.0671l 4.53543, 16.78l 4.53543, 17.9926l 4.53543, 18.7019l 4.53543, 18.9278l
 4.53543, 18.7098l 4.53543, 18.1032l 4.53543, 17.1739l 4.53543, 15.9939l 4.53543, 14.6366l 4.53543, 13.1723l 4.53543, 11.6653l 4.53543, 10.171l 4.53543, 8.73477l 4.53543, 7.39129l 4.53543, 6.16453l 4.53543, 5.0688l 4.53543, 4.10992l 4.53543, 3.28677l
 4.53543, 2.59291l 4.53543, 2.01815l 4.53543, 1.54997l 4.53543, 1.17476l 4.53543, 0.878775l 4.53543, 0.648856l 4.53543, 0.472932l 4.53543, 0.340299l 4.53543, 0.24175l 4.53543, 0.169566l 4.53543, 0.117438l 4.53543, 0.0803146l 4.53543, 0.0542398l
 4.53543, 0.0361742l 4.53543, 0.0238261l 4.53543, 0.0418785h 31.748" fill="none" stroke="#ff0000" stroke-width="2"/>
<path d="M503.933,346.022h 4.53543" fill="none" stroke="#ff0000" stroke-width="2"/>
<rect x="351.996" y="24.9905" width="204.094" height="76.8938" fill="white"/>
<path d="M351.996,101.884h 204.094" fill="none" stroke="black"/>
<path d="M556.091,101.884v -76.8938" fill="none" stroke="black"/>
<path d="M556.091,24.9905h -204.094" fill="none" stroke="black"/>
<path d="M351.996,24.9905v 76.8938" fill="none" stroke="black"/>
<text xml:space="preserve" x="377.638" y="39.0986" fill="black" font-size="16.7253" font-family="Helvetica"> / ndf </text>
<text xml:space="preserve" x="371.122" y="34.2112" fill="black" font-size="11.3169" font-family="Helvetica">2</text>
<text xml:space="preserve" x="362.162" y="39.0986" fill="black" font-size="16.7253" font-family="Times">&#0967;</text>
<text xml:space="preserve" x="477.828" y="40.7277" fill="black" font-size="16.7253" font-family="Helvetica"> 2.151 / 4</text>
<text xml:space="preserve" x="362.162" y="60.2769" fill="black" font-size="16.7253" font-family="Helvetica">Constant </text>
<text xml:space="preserve" x="509.596" y="60.2769" fill="black" font-size="16.7253" font-family="Helvetica"> 1.97</text>
<text xml:space="preserve" x="500.636" y="60.2769" fill="black" font-size="16.7253" font-family="Times">&#0177;</text>
<text xml:space="preserve" x="452.577" y="60.2769" fill="black" font-size="16.7253" font-family="Helvetica"> 10.81 </text>
<text xml:space="preserve" x="362.162" y="79.0117" fill="black" font-size="16.7253" font-family="Helvetica">Mean     </text>
<text xml:space="preserve" x="509.596" y="79.0117" fill="black" font-size="16.7253" font-family="Helvetica"> 10.9</text>
<text xml:space="preserve" x="500.636" y="79.0117" fill="black" font-size="16.7253" font-family="Times">&#0177;</text>
<text xml:space="preserve" x="450.133" y="79.0117" fill="black" font-size="16.7253" font-family="Helvetica"> 310.6 </text>
<text xml:space="preserve" x="362.162" y="96.9318" fill="black" font-size="16.7253" font-family="Helvetica">Sigma    </text>
<text xml:space="preserve" x="509.596" y="98.561" fill="black" font-size="16.7253" font-family="Helvetica"> 9.02</text>
<text xml:space="preserve" x="500.636" y="98.561" fill="black" font-size="16.7253" font-family="Times">&#0177;</text>
<text xml:space="preserve" x="450.133" y="98.561" fill="black" font-size="16.7253" font-family="Helvetica"> 55.28 </text>
<path d="M57.1929,346.022h 453.543" fill="none" stroke="black"/>
<path d="M57.1929,336.795v 9.22726" fill="none" stroke="black"/>
<path d="M72.311,341.409v 4.61363" fill="none" stroke="black"/>
<path d="M87.4291,341.409v 4.61363" fill="none" stroke="black"/>
<path d="M102.547,341.409v 4.61363" fill="none" stroke="black"/>
<path d="M117.665,341.409v 4.61363" fill="none" stroke="black"/>
<path d="M132.783,336.795v 9.22726" fill="none" stroke="black"/>
<path d="M147.902,341.409v 4.61363" fill="none" stroke="black"/>
<path d="M163.02,341.409v 4.61363" fill="none" stroke="black"/>
<path d="M178.138,341.409v 4.61363" fill="none" stroke="black"/>
<path d="M193.256,341.409v 4.61363" fill="none" stroke="black"/>
<path d="M208.374,336.795v 9.22726" fill="none" stroke="black"/>
<path d="M223.492,341.409v 4.61363" fill="none" stroke="black"/>
<path d="M238.61,341.409v 4.61363" fill="none" stroke="black"/>
<path d="M253.728,341.409v 4.61363" fill="none" stroke="black"/>
<path d="M268.846,341.409v 4.61363" fill="none" stroke="black"/>
<path d="M283.965,336.795v 9.22726" fill="none" stroke="black"/>
<path d="M299.083,341.409v 4.61363" fill="none" stroke="black"/>
<path d="M314.201,341.409v 4.61363" fill="none" stroke="black"/>
<path d="M329.319,341.409v 4.61363" fill="none" stroke="black"/>
<path d="M344.437,341.409v 4.61363" fill="none" stroke="black"/>
<path d="M359.555,336.795v 9.22726" fill="none" stroke="black"/>
<path d="M374.673,341.409v 4.61363" fill="none" stroke="black"/>
<path d="M389.791,341.409v 4.61363" fill="none" stroke="black"/>
<path d="M404.909,341.409v 4.61363" fill="none" stroke="black"/>
<path d="M420.028,341.409v 4.61363" fill="none" stroke="black"/>
<path d="M435.146,336.795v 9.22726" fill="none" stroke="black"/>
<path d="M450.264,341.409v 4.61363" fill="none" stroke="black"/>
<path d="M465.382,341.409v 4.61363" fill="none" stroke="black"/>
<path d="M480.5,341.409v 4.61363" fill="none" stroke="black"/>
<path d="M495.618,341.409v 4.61363" fill="none" stroke="black"/>
<path d="M510.736,336.795v 9.22726" fill="none" stroke="black"/>
<text xml:space="preserve" x="53.446" y="358.403" fill="black" font-size="12.8453" font-family="Helvetica">0</text>
<text xml:space="preserve" x="121.868" y="358.403" fill="black" font-size="12.8453" font-family="Helvetica">100</text>
<text xml:space="preserve" x="197.622" y="358.403" fill="black" font-size="12.8453" font-family="Helvetica">200</text>
<text xml:space="preserve" x="273.375" y="358.403" fill="black" font-size="12.8453" font-family="Helvetica">300</text>
<text xml:space="preserve" x="348.314" y="358.403" fill="black" font-size="12.8453" font-family="Helvetica">400</text>
<text xml:space="preserve" x="424.068" y="358.403" fill="black" font-size="12.8453" font-family="Helvetica">500</text>
<text xml:space="preserve" x="499.821" y="358.403" fill="black" font-size="12.8453" font-family="Helvetica">600</text>
<text xml:space="preserve" x="486.788" y="369.807" fill="black" font-size="12.8453" font-family="Helvetica">mpv</text>
<path d="M57.1929,346.022v -307.575" fill="none" stroke="black"/>
<path d="M70.7992,346.022h -13.6063" fill="none" stroke="black"/>
<path d="M63.9961,332.707h -6.80315" fill="none" stroke="black"/>
<path d="M63.9961,319.392h -6.80315" fill="none" stroke="black"/>
<path d="M63.9961,306.077h -6.80315" fill="none" stroke="black"/>
<path d="M70.7992,292.762h -13.6063" fill="none" stroke="black"/>
<path d="M63.9961,279.448h -6.80315" fill="none" stroke="black"/>
<path d="M63.9961,266.133h -6.80315" fill="none" stroke="black"/>
<path d="M63.9961,252.818h -6.80315" fill="none" stroke="black"/>
<path d="M70.7992,239.503h -13.6063" fill="none" stroke="black"/>
<path d="M63.9961,226.188h -6.80315" fill="none" stroke="black"/>
<path d="M63.9961,212.873h -6.80315" fill="none" stroke="black"/>
<path d="M63.9961,199.558h -6.80315" fill="none" stroke="black"/>
<path d="M70.7992,186.243h -13.6063" fill="none" stroke="black"/>
<path d="M63.9961,172.928h -6.80315" fill="none" stroke="black"/>
<path d="M63.9961,159.613h -6.80315" fill="none" stroke="black"/>
<path d="M63.9961,146.298h -6.80315" fill="none" stroke="black"/>
<path d="M70.7992,132.983h -13.6063" fill="none" stroke="black"/>
<path d="M63.9961,119.668h -6.80315" fill="none" stroke="black"/>
<path d="M63.9961,106.353h -6.80315" fill="none" stroke="black"/>
<path d="M63.9961,93.0382h -6.80315" fill="none" stroke="black"/>
<path d="M70.7992,79.7233h -13.6063" fill="none" stroke="black"/>
<path d="M70.7992,79.7233h -13.6063" fill="none" stroke="black"/>
<path d="M63.9961,66.4083h -6.80315" fill="none" stroke="black"/>
<path d="M63.9961,53.0934h -6.80315" fill="none" stroke="black"/>
<path d="M63.9961,39.7784h -6.80315" fill="none" stroke="black"/>
<text xml:space="preserve" x="47.7441" y="350.258" fill="black" font-size="12.8453" font-family="Helvetica">0</text>
<text xml:space="preserve" x="47.7441" y="297.312" fill="black" font-size="12.8453" font-family="Helvetica">2</text>
<text xml:space="preserve" x="47.7441" y="244.366" fill="black" font-size="12.8453" font-family="Helvetica">4</text>
<text xml:space="preserve" x="47.7441" y="190.605" fill="black" font-size="12.8453" font-family="Helvetica">6</text>
<text xml:space="preserve" x="47.7441" y="137.66" fill="black" font-size="12.8453" font-family="Helvetica">8</text>
<text xml:space="preserve" x="41.2277" y="83.899" fill="black" font-size="12.8453" font-family="Helvetica">10</text>
<g transform="rotate(-90,29.0094,80.6408)">
<text xml:space="preserve" x="29.0094" y="80.6408" fill="black" font-size="12.8453" font-family="Helvetica">ntowers</text>
</g>
<rect x="351.996" y="24.9905" width="204.094" height="76.8938" fill="white"/>
<path d="M351.996,101.884h 204.094" fill="none" stroke="black"/>
<path d="M556.091,101.884v -76.8938" fill="none" stroke="black"/>
<path d="M556.091,24.9905h -204.094" fill="none" stroke="black"/>
<path d="M351.996,24.9905v 76.8938" fill="none" stroke="black"/>
<text xml:space="preserve" x="377.638" y="39.0986" fill="black" font-size="16.7253" font-family="Helvetica"> / ndf </text>
<text xml:space="preserve" x="371.122" y="34.2112" fill="black" font-size="11.3169" font-family="Helvetica">2</text>
<text xml:space="preserve" x="362.162" y="39.0986" fill="black" font-size="16.7253" font-family="Times">&#0967;</text>
<text xml:space="preserve" x="477.828" y="40.7277" fill="black" font-size="16.7253" font-family="Helvetica"> 2.151 / 4</text>
<text xml:space="preserve" x="362.162" y="60.2769" fill="black" font-size="16.7253" font-family="Helvetica">Constant </text>
<text xml:space="preserve" x="509.596" y="60.2769" fill="black" font-size="16.7253" font-family="Helvetica"> 1.97</text>
<text xml:space="preserve" x="500.636" y="60.2769" fill="black" font-size="16.7253" font-family="Times">&#0177;</text>
<text xml:space="preserve" x="452.577" y="60.2769" fill="black" font-size="16.7253" font-family="Helvetica"> 10.81 </text>
<text xml:space="preserve" x="362.162" y="79.0117" fill="black" font-size="16.7253" font-family="Helvetica">Mean     </text>
<text xml:space="preserve" x="509.596" y="79.0117" fill="black" font-size="16.7253" font-family="Helvetica"> 10.9</text>
<text xml:space="preserve" x="500.636" y="79.0117" fill="black" font-size="16.7253" font-family="Times">&#0177;</text>
<text xml:space="preserve" x="450.133" y="79.0117" fill="black" font-size="16.7253" font-family="Helvetica"> 310.6 </text>
<text xml:space="preserve" x="362.162" y="96.9318" fill="black" font-size="16.7253" font-family="Helvetica">Sigma    </text>
<text xml:space="preserve" x="509.596" y="98.561" fill="black" font-size="16.7253" font-family="Helvetica"> 9.02</text>
<text xml:space="preserve" x="500.636" y="98.561" fill="black" font-size="16.7253" font-family="Times">&#0177;</text>
<text xml:space="preserve" x="450.133" y="98.561" fill="black" font-size="16.7253" font-family="Helvetica"> 55.28 </text>
<g stroke="black" stroke-width="1" fill="none">
<line x1="67.5315" y1="346.022" x2="68.5315" y2="346.022"/>
</g>
<g stroke="black" stroke-width="1" fill="none">
<line x1="90.2087" y1="346.022" x2="91.2087" y2="346.022"/>
</g>
<g stroke="black" stroke-width="1" fill="none">
<line x1="112.886" y1="346.022" x2="113.886" y2="346.022"/>
</g>
<g stroke="black" stroke-width="1" fill="none">
<line x1="135.563" y1="346.022" x2="136.563" y2="346.022"/>
</g>
<g stroke="black" stroke-width="1" fill="none">
<line x1="158.24" y1="346.022" x2="159.24" y2="346.022"/>
</g>
<g stroke="black" stroke-width="1" fill="none">
<line x1="180.917" y1="346.022" x2="181.917" y2="346.022"/>
</g>
<path d="M204.594,346.022v -26.6299" fill="none" stroke="#000099"/>
<path d="M204.594,319.392v -26.6299" fill="none" stroke="#000099"/>
<path d="M193.256,319.392h 11.3386" fill="none" stroke="#000099"/>
<path d="M204.594,319.392h 11.3386" fill="none" stroke="#000099"/>
<g stroke="black" stroke-width="1" fill="none">
<line x1="203.594" y1="319.392" x2="204.594" y2="319.392"/>
</g>
<path d="M227.272,312.257v -46.1243" fill="none" stroke="#000099"/>
<path d="M227.272,266.133v -46.1243" fill="none" stroke="#000099"/>
<path d="M215.933,266.133h 11.3386" fill="none" stroke="#000099"/>
<path d="M227.272,266.133h 11.3386" fill="none" stroke="#000099"/>
<g stroke="black" stroke-width="1" fill="none">
<line x1="226.272" y1="266.133" x2="227.272" y2="266.133"/>
</g>
<path d="M249.949,163.934v -84.2111" fill="none" stroke="#000099"/>
<path d="M249.949,79.7233v -41.2763" fill="none" stroke="#000099"/>
<path d="M238.61,79.7233h 11.3386" fill="none" stroke="#000099"/>
<path d="M249.949,79.7233h 11.3386" fill="none" stroke="#000099"/>
<g stroke="black" stroke-width="1" fill="none">
<line x1="248.949" y1="79.7233" x2="249.949" y2="79.7233"/>
</g>
<path d="M272.626,208.304v -75.3207" fill="none" stroke="#000099"/>
<path d="M272.626,132.983v -75.3207" fill="none" stroke="#000099"/>
<path d="M261.287,132.983h 11.3386" fill="none" stroke="#000099"/>
<path d="M272.626,132.983h 11.3386" fill="none" stroke="#000099"/>
<g stroke="black" stroke-width="1" fill="none">
<line x1="271.626" y1="132.983" x2="272.626" y2="132.983"/>
</g>
<path d="M295.303,163.934v -84.2111" fill="none" stroke="#000099"/>
<path d="M295.303,79.7233v -41.2763" fill="none" stroke="#000099"/>
<path d="M283.965,79.7233h 11.3386" fill="none" stroke="#000099"/>
<path d="M295.303,79.7233h 11.3386" fill="none" stroke="#000099"/>
<g stroke="black" stroke-width="1" fill="none">
<line x1="294.303" y1="79.7233" x2="295.303" y2="79.7233"/>
</g>
<path d="M317.98,141.415v -88.3214" fill="none" stroke="#000099"/>
<path d="M317.98,53.0934v -14.6464" fill="none" stroke="#000099"/>
<path d="M306.642,53.0934h 11.3386" fill="none" stroke="#000099"/>
<path d="M317.98,53.0934h 11.3386" fill="none" stroke="#000099"/>
<g stroke="black" stroke-width="1" fill="none">
<line x1="316.98" y1="53.0934" x2="317.98" y2="53.0934"/>
</g>
<path d="M340.657,272.419v -59.5463" fill="none" stroke="#000099"/>
<path d="M340.657,212.873v -59.5463" fill="none" stroke="#000099"/>
<path d="M329.319,212.873h 11.3386" fill="none" stroke="#000099"/>
<path d="M340.657,212.873h 11.3386" fill="none" stroke="#000099"/>
<g stroke="black" stroke-width="1" fill="none">
<line x1="339.657" y1="212.873" x2="340.657" y2="212.873"/>
</g>
<g stroke="black" stroke-width="1" fill="none">
<line x1="362.335" y1="346.022" x2="363.335" y2="346.022"/>
</g>
<g stroke="black" stroke-width="1" fill="none">
<line x1="385.012" y1="346.022" x2="386.012" y2="346.022"/>
</g>
<g stroke="black" stroke-width="1" fill="none">
<line x1="407.689" y1="346.022" x2="408.689" y2="346.022"/>
</g>
<g stroke="black" stroke-width="1" fill="none">
<line x1="430.366" y1="346.022" x2="431.366" y2="346.022"/>
</g>
<g stroke="black" stroke-width="1" fill="none">
<line x1="453.043" y1="346.022" x2="454.043" y2="346.022"/>
</g>
<g stroke="black" stroke-width="1" fill="none">
<line x1="475.72" y1="346.022" x2="476.72" y2="346.022"/>
</g>
<g stroke="black" stroke-width="1" fill="none">
<line x1="498.398" y1="346.022" x2="499.398" y2="346.022"/>
</g>
<path d="M59.4606,346.022h 49.8898l 4.53543, -0.0325642l 4.53543, -0.0188575l 4.53543, -0.0288266l 4.53543, -0.0435196l 4.53543, -0.0648848l 4.53543, -0.0955322l 4.53543, -0.138895l 4.53543, -0.199401l 4.53543, -0.282653l 4.53543, -0.395583l 4.53543,
 -0.546576l 4.53543, -0.745524l 4.53543, -1.00377l 4.53543, -1.33393l 4.53543, -1.7495l 4.53543, -2.26426l 4.53543, -2.89148l 4.53543, -3.64278l 4.53543, -4.52684l 4.53543, -5.54789l 4.53543, -6.70412l 4.53543, -7.98603l 4.53543, -9.37507l 4.53543,
 -10.8425l 4.53543, -12.3488l 4.53543, -13.844l 4.53543, -15.2682l 4.53543, -16.5543l 4.53543, -17.6299l 4.53543, -18.4219l 4.53543, -18.8602l 4.53543, -18.8833l 4.53543, -18.4424l 4.53543, -17.5065l 4.53543, -16.0657l 4.53543, -14.1339l 4.53543,
 -11.7495l 4.53543, -8.9753" fill="none" stroke="#ff0000" stroke-width="2"/>
<path d="M281.697,66.8773l 4.53543, -5.89515l 4.53543, -2.61039l 4.53543, 0.765878l 4.53543, 4.11524l 4.53543, 7.32085l 4.53543, 10.2742l 4.53543, 12.8812l 4.53543, 15.0671l 4.53543, 16.78l 4.53543, 17.9926l 4.53543, 18.7019l 4.53543, 18.9278l
 4.53543, 18.7098l 4.53543, 18.1032l 4.53543, 17.1739l 4.53543, 15.9939l 4.53543, 14.6366l 4.53543, 13.1723l 4.53543, 11.6653l 4.53543, 10.171l 4.53543, 8.73477l 4.53543, 7.39129l 4.53543, 6.16453l 4.53543, 5.0688l 4.53543, 4.10992l 4.53543, 3.28677l
 4.53543, 2.59291l 4.53543, 2.01815l 4.53543, 1.54997l 4.53543, 1.17476l 4.53543, 0.878775l 4.53543, 0.648856l 4.53543, 0.472932l 4.53543, 0.340299l 4.53543, 0.24175l 4.53543, 0.169566l 4.53543, 0.117438l 4.53543, 0.0803146l 4.53543, 0.0542398l
 4.53543, 0.0361742l 4.53543, 0.0238261l 4.53543, 0.0418785h 31.748" fill="none" stroke="#ff0000" stroke-width="2"/>
<path d="M503.933,346.022h 4.53543" fill="none" stroke="#ff0000" stroke-width="2"/>
<rect x="351.996" y="24.9905" width="204.094" height="76.8938" fill="white"/>
<path d="M351.996,101.884h 204.094" fill="none" stroke="black"/>
<path d="M556.091,101.884v -76.8938" fill="none" stroke="black"/>
<path d="M556.091,24.9905h -204.094" fill="none" stroke="black"/>
<path d="M351.996,24.9905v 76.8938" fill="none" stroke="black"/>
<text xml:space="preserve" x="377.638" y="39.0986" fill="black" font-size="16.7253" font-family="Helvetica"> / ndf </text>
<text xml:space="preserve" x="371.122" y="34.2112" fill="black" font-size="11.3169" font-family="Helvetica">2</text>
<text xml:space="preserve" x="362.162" y="39.0986" fill="black" font-size="16.7253" font-family="Times">&#0967;</text>
<text xml:space="preserve" x="477.828" y="40.7277" fill="black" font-size="16.7253" font-family="Helvetica"> 2.151 / 4</text>
<text xml:space="preserve" x="362.162" y="60.2769" fill="black" font-size="16.7253" font-family="Helvetica">Constant </text>
<text xml:space="preserve" x="509.596" y="60.2769" fill="black" font-size="16.7253" font-family="Helvetica"> 1.97</text>
<text xml:space="preserve" x="500.636" y="60.2769" fill="black" font-size="16.7253" font-family="Times">&#0177;</text>
<text xml:space="preserve" x="452.577" y="60.2769" fill="black" font-size="16.7253" font-family="Helvetica"> 10.81 </text>
<text xml:space="preserve" x="362.162" y="79.0117" fill="black" font-size="16.7253" font-family="Helvetica">Mean     </text>
<text xml:space="preserve" x="509.596" y="79.0117" fill="black" font-size="16.7253" font-family="Helvetica"> 10.9</text>
<text xml:space="preserve" x="500.636" y="79.0117" fill="black" font-size="16.7253" font-family="Times">&#0177;</text>
<text xml:space="preserve" x="450.133" y="79.0117" fill="black" font-size="16.7253" font-family="Helvetica"> 310.6 </text>
<text xml:space="preserve" x="362.162" y="96.9318" fill="black" font-size="16.7253" font-family="Helvetica">Sigma    </text>
<text xml:space="preserve" x="509.596" y="98.561" fill="black" font-size="16.7253" font-family="Helvetica"> 9.02</text>
<text xml:space="preserve" x="500.636" y="98.561" fill="black" font-size="16.7253" font-family="Times">&#0177;</text>
<text xml:space="preserve" x="450.133" y="98.561" fill="black" font-size="16.7253" font-family="Helvetica"> 55.28 </text>
<text xml:space="preserve" x="234.277" y="18.7347" fill="black" font-size="16.9898" font-family="Helvetica">Sector 2 IB 2</text></svg>
