<?xml version="1.0" standalone="no"?>
<svg width="567.429" height="384.969" viewBox="0 0 567.429 384.969" xmlns="http://www.w3.org/2000/svg" shape-rendering="crispEdges">
<title>
./graphs/svg/sector1_ib0.svg
</title>
<desc>
Creator: ROOT Version 6.24/00
CreationDate: Tue Jun  1 16:43:15 2021</desc>
<defs>
</defs>
<rect x="0.5" y="0" width="566.929" height="384.469" fill="white"/>
<rect x="57.1929" y="38.4469" width="453.543" height="307.575" fill="white"/>
<rect x="57.1929" y="38.4469" width="453.543" height="307.575" fill="none" stroke="black"/>
<rect x="57.1929" y="38.4469" width="453.543" height="307.575" fill="white"/>
<rect x="57.1929" y="38.4469" width="453.543" height="307.575" fill="none" stroke="black"/>
<path d="M57.1929,346.022h 136.063v -17.2311h 22.6772v -51.6933h 22.6772v -17.2311h 22.6772v -206.773h 22.6772v 137.849h 22.6772v 103.387h 22.6772v 51.6933h 68.0315v -17.2311h 22.6772v 17.2311h 90.7087" fill="none" stroke="#000099"/>
<path d="M59.4606,346.022h 104.315l 4.53543, -0.0427074l 4.53543, -0.0435286l 4.53543, -0.0827042l 4.53543, -0.152157l 4.53543, -0.271008l 4.53543, -0.467198l 4.53543, -0.779353l 4.53543, -1.25762l 4.53543, -1.96241l 4.53543, -2.95985l 4.53543,
 -4.31283l 4.53543, -6.06729l 4.53543, -8.23434l 4.53543, -10.7706l 4.53543, -13.5606l 4.53543, -16.4072l 4.53543, -19.0349l 4.53543, -21.1099l 4.53543, -22.2799l 4.53543, -22.2265l 4.53543, -20.7256l 4.53543, -17.7005l 4.53543, -13.2561l 4.53543,
 -7.68475l 4.53543, -1.43646l 4.53543, 4.9402" fill="none" stroke="#ff0000" stroke-width="2"/>
<path d="M281.697,138.136l 4.53543, 10.8778l 4.53543, 15.8732l 4.53543, 19.5581l 4.53543, 21.7421l 4.53543, 22.4234l 4.53543, 21.766l 4.53543, 20.0532l 4.53543, 17.6295l 4.53543, 14.8426l 4.53543, 11.9979l 4.53543, 9.32906l 4.53543, 6.98744l 4.53543,
 5.04686l 4.53543, 3.51821l 4.53543, 2.36876l 4.53543, 1.54121l 4.53543, 0.969507l 4.53543, 0.589867l 4.53543, 0.347228l 4.53543, 0.197813l 4.53543, 0.109089l 4.53543, 0.0582477l 4.53543, 0.0587136h 117.921" fill="none" stroke="#ff0000"
 stroke-width="2"/>
<path d="M503.933,346.022h 4.53543" fill="none" stroke="#ff0000" stroke-width="2"/>
<rect x="351.996" y="24.9905" width="204.094" height="76.8938" fill="white"/>
<path d="M351.996,101.884h 204.094" fill="none" stroke="black"/>
<path d="M556.091,101.884v -76.8938" fill="none" stroke="black"/>
<path d="M556.091,24.9905h -204.094" fill="none" stroke="black"/>
<path d="M351.996,24.9905v 76.8938" fill="none" stroke="black"/>
<text xml:space="preserve" x="376.824" y="39.0986" fill="black" font-size="16.6263" font-family="Helvetica"> / ndf </text>
<text xml:space="preserve" x="371.122" y="34.2112" fill="black" font-size="11.2509" font-family="Helvetica">2</text>
<text xml:space="preserve" x="362.162" y="39.0986" fill="black" font-size="16.6263" font-family="Times">&#0967;</text>
<text xml:space="preserve" x="477.828" y="40.7277" fill="black" font-size="16.6263" font-family="Helvetica"> 4.996 / 4</text>
<text xml:space="preserve" x="362.162" y="60.2769" fill="black" font-size="16.6263" font-family="Helvetica">Constant </text>
<text xml:space="preserve" x="509.596" y="60.2769" fill="black" font-size="16.6263" font-family="Helvetica"> 4.00</text>
<text xml:space="preserve" x="500.636" y="60.2769" fill="black" font-size="16.6263" font-family="Times">&#0177;</text>
<text xml:space="preserve" x="450.133" y="60.2769" fill="black" font-size="16.6263" font-family="Helvetica"> 12.37 </text>
<text xml:space="preserve" x="362.162" y="79.0117" fill="black" font-size="16.6263" font-family="Helvetica">Mean     </text>
<text xml:space="preserve" x="518.556" y="79.0117" fill="black" font-size="16.6263" font-family="Helvetica"> 6.9</text>
<text xml:space="preserve" x="509.596" y="79.0117" fill="black" font-size="16.6263" font-family="Times">&#0177;</text>
<text xml:space="preserve" x="459.094" y="79.0117" fill="black" font-size="16.6263" font-family="Helvetica"> 289.3 </text>
<text xml:space="preserve" x="362.162" y="96.9318" fill="black" font-size="16.6263" font-family="Helvetica">Sigma    </text>
<text xml:space="preserve" x="500.636" y="98.561" fill="black" font-size="16.6263" font-family="Helvetica"> 10.45</text>
<text xml:space="preserve" x="491.676" y="98.561" fill="black" font-size="16.6263" font-family="Times">&#0177;</text>
<text xml:space="preserve" x="441.173" y="98.561" fill="black" font-size="16.6263" font-family="Helvetica"> 34.49 </text>
<path d="M57.1929,346.022h 453.543" fill="none" stroke="black"/>
<path d="M57.1929,336.795v 9.22726" fill="none" stroke="black"/>
<path d="M72.311,341.409v 4.61363" fill="none" stroke="black"/>
<path d="M87.4291,341.409v 4.61363" fill="none" stroke="black"/>
<path d="M102.547,341.409v 4.61363" fill="none" stroke="black"/>
<path d="M117.665,341.409v 4.61363" fill="none" stroke="black"/>
<path d="M132.783,336.795v 9.22726" fill="none" stroke="black"/>
<path d="M147.902,341.409v 4.61363" fill="none" stroke="black"/>
<path d="M163.02,341.409v 4.61363" fill="none" stroke="black"/>
<path d="M178.138,341.409v 4.61363" fill="none" stroke="black"/>
<path d="M193.256,341.409v 4.61363" fill="none" stroke="black"/>
<path d="M208.374,336.795v 9.22726" fill="none" stroke="black"/>
<path d="M223.492,341.409v 4.61363" fill="none" stroke="black"/>
<path d="M238.61,341.409v 4.61363" fill="none" stroke="black"/>
<path d="M253.728,341.409v 4.61363" fill="none" stroke="black"/>
<path d="M268.846,341.409v 4.61363" fill="none" stroke="black"/>
<path d="M283.965,336.795v 9.22726" fill="none" stroke="black"/>
<path d="M299.083,341.409v 4.61363" fill="none" stroke="black"/>
<path d="M314.201,341.409v 4.61363" fill="none" stroke="black"/>
<path d="M329.319,341.409v 4.61363" fill="none" stroke="black"/>
<path d="M344.437,341.409v 4.61363" fill="none" stroke="black"/>
<path d="M359.555,336.795v 9.22726" fill="none" stroke="black"/>
<path d="M374.673,341.409v 4.61363" fill="none" stroke="black"/>
<path d="M389.791,341.409v 4.61363" fill="none" stroke="black"/>
<path d="M404.909,341.409v 4.61363" fill="none" stroke="black"/>
<path d="M420.028,341.409v 4.61363" fill="none" stroke="black"/>
<path d="M435.146,336.795v 9.22726" fill="none" stroke="black"/>
<path d="M450.264,341.409v 4.61363" fill="none" stroke="black"/>
<path d="M465.382,341.409v 4.61363" fill="none" stroke="black"/>
<path d="M480.5,341.409v 4.61363" fill="none" stroke="black"/>
<path d="M495.618,341.409v 4.61363" fill="none" stroke="black"/>
<path d="M510.736,336.795v 9.22726" fill="none" stroke="black"/>
<text xml:space="preserve" x="53.446" y="358.403" fill="black" font-size="12.8453" font-family="Helvetica">0</text>
<text xml:space="preserve" x="121.868" y="358.403" fill="black" font-size="12.8453" font-family="Helvetica">100</text>
<text xml:space="preserve" x="197.622" y="358.403" fill="black" font-size="12.8453" font-family="Helvetica">200</text>
<text xml:space="preserve" x="273.375" y="358.403" fill="black" font-size="12.8453" font-family="Helvetica">300</text>
<text xml:space="preserve" x="348.314" y="358.403" fill="black" font-size="12.8453" font-family="Helvetica">400</text>
<text xml:space="preserve" x="424.068" y="358.403" fill="black" font-size="12.8453" font-family="Helvetica">500</text>
<text xml:space="preserve" x="499.821" y="358.403" fill="black" font-size="12.8453" font-family="Helvetica">600</text>
<text xml:space="preserve" x="486.788" y="369.807" fill="black" font-size="12.8453" font-family="Helvetica">mpv</text>
<path d="M57.1929,346.022v -307.575" fill="none" stroke="black"/>
<path d="M70.7992,346.022h -13.6063" fill="none" stroke="black"/>
<path d="M63.9961,337.407h -6.80315" fill="none" stroke="black"/>
<path d="M63.9961,328.791h -6.80315" fill="none" stroke="black"/>
<path d="M63.9961,320.176h -6.80315" fill="none" stroke="black"/>
<path d="M70.7992,311.56h -13.6063" fill="none" stroke="black"/>
<path d="M63.9961,302.944h -6.80315" fill="none" stroke="black"/>
<path d="M63.9961,294.329h -6.80315" fill="none" stroke="black"/>
<path d="M63.9961,285.713h -6.80315" fill="none" stroke="black"/>
<path d="M70.7992,277.098h -13.6063" fill="none" stroke="black"/>
<path d="M63.9961,268.482h -6.80315" fill="none" stroke="black"/>
<path d="M63.9961,259.867h -6.80315" fill="none" stroke="black"/>
<path d="M63.9961,251.251h -6.80315" fill="none" stroke="black"/>
<path d="M70.7992,242.636h -13.6063" fill="none" stroke="black"/>
<path d="M63.9961,234.02h -6.80315" fill="none" stroke="black"/>
<path d="M63.9961,225.404h -6.80315" fill="none" stroke="black"/>
<path d="M63.9961,216.789h -6.80315" fill="none" stroke="black"/>
<path d="M70.7992,208.173h -13.6063" fill="none" stroke="black"/>
<path d="M63.9961,199.558h -6.80315" fill="none" stroke="black"/>
<path d="M63.9961,190.942h -6.80315" fill="none" stroke="black"/>
<path d="M63.9961,182.327h -6.80315" fill="none" stroke="black"/>
<path d="M70.7992,173.711h -13.6063" fill="none" stroke="black"/>
<path d="M63.9961,165.096h -6.80315" fill="none" stroke="black"/>
<path d="M63.9961,156.48h -6.80315" fill="none" stroke="black"/>
<path d="M63.9961,147.864h -6.80315" fill="none" stroke="black"/>
<path d="M70.7992,139.249h -13.6063" fill="none" stroke="black"/>
<path d="M63.9961,130.633h -6.80315" fill="none" stroke="black"/>
<path d="M63.9961,122.018h -6.80315" fill="none" stroke="black"/>
<path d="M63.9961,113.402h -6.80315" fill="none" stroke="black"/>
<path d="M70.7992,104.787h -13.6063" fill="none" stroke="black"/>
<path d="M63.9961,96.1711h -6.80315" fill="none" stroke="black"/>
<path d="M63.9961,87.5556h -6.80315" fill="none" stroke="black"/>
<path d="M63.9961,78.94h -6.80315" fill="none" stroke="black"/>
<path d="M70.7992,70.3245h -13.6063" fill="none" stroke="black"/>
<path d="M70.7992,70.3245h -13.6063" fill="none" stroke="black"/>
<path d="M63.9961,61.7089h -6.80315" fill="none" stroke="black"/>
<path d="M63.9961,53.0934h -6.80315" fill="none" stroke="black"/>
<path d="M63.9961,44.4778h -6.80315" fill="none" stroke="black"/>
<text xml:space="preserve" x="47.7441" y="350.258" fill="black" font-size="12.8453" font-family="Helvetica">0</text>
<text xml:space="preserve" x="47.7441" y="316.047" fill="black" font-size="12.8453" font-family="Helvetica">2</text>
<text xml:space="preserve" x="47.7441" y="281.835" fill="black" font-size="12.8453" font-family="Helvetica">4</text>
<text xml:space="preserve" x="47.7441" y="246.81" fill="black" font-size="12.8453" font-family="Helvetica">6</text>
<text xml:space="preserve" x="47.7441" y="212.598" fill="black" font-size="12.8453" font-family="Helvetica">8</text>
<text xml:space="preserve" x="41.2277" y="178.387" fill="black" font-size="12.8453" font-family="Helvetica">10</text>
<text xml:space="preserve" x="40.4131" y="143.361" fill="black" font-size="12.8453" font-family="Helvetica">12</text>
<text xml:space="preserve" x="40.4131" y="109.15" fill="black" font-size="12.8453" font-family="Helvetica">14</text>
<text xml:space="preserve" x="40.4131" y="74.9389" fill="black" font-size="12.8453" font-family="Helvetica">16</text>
<g transform="rotate(-90,28.1948,80.6408)">
<text xml:space="preserve" x="28.1948" y="80.6408" fill="black" font-size="12.8453" font-family="Helvetica">ntowers</text>
</g>
<rect x="351.996" y="24.9905" width="204.094" height="76.8938" fill="white"/>
<path d="M351.996,101.884h 204.094" fill="none" stroke="black"/>
<path d="M556.091,101.884v -76.8938" fill="none" stroke="black"/>
<path d="M556.091,24.9905h -204.094" fill="none" stroke="black"/>
<path d="M351.996,24.9905v 76.8938" fill="none" stroke="black"/>
<text xml:space="preserve" x="376.824" y="39.0986" fill="black" font-size="16.6263" font-family="Helvetica"> / ndf </text>
<text xml:space="preserve" x="371.122" y="34.2112" fill="black" font-size="11.2509" font-family="Helvetica">2</text>
<text xml:space="preserve" x="362.162" y="39.0986" fill="black" font-size="16.6263" font-family="Times">&#0967;</text>
<text xml:space="preserve" x="477.828" y="40.7277" fill="black" font-size="16.6263" font-family="Helvetica"> 4.996 / 4</text>
<text xml:space="preserve" x="362.162" y="60.2769" fill="black" font-size="16.6263" font-family="Helvetica">Constant </text>
<text xml:space="preserve" x="509.596" y="60.2769" fill="black" font-size="16.6263" font-family="Helvetica"> 4.00</text>
<text xml:space="preserve" x="500.636" y="60.2769" fill="black" font-size="16.6263" font-family="Times">&#0177;</text>
<text xml:space="preserve" x="450.133" y="60.2769" fill="black" font-size="16.6263" font-family="Helvetica"> 12.37 </text>
<text xml:space="preserve" x="362.162" y="79.0117" fill="black" font-size="16.6263" font-family="Helvetica">Mean     </text>
<text xml:space="preserve" x="518.556" y="79.0117" fill="black" font-size="16.6263" font-family="Helvetica"> 6.9</text>
<text xml:space="preserve" x="509.596" y="79.0117" fill="black" font-size="16.6263" font-family="Times">&#0177;</text>
<text xml:space="preserve" x="459.094" y="79.0117" fill="black" font-size="16.6263" font-family="Helvetica"> 289.3 </text>
<text xml:space="preserve" x="362.162" y="96.9318" fill="black" font-size="16.6263" font-family="Helvetica">Sigma    </text>
<text xml:space="preserve" x="500.636" y="98.561" fill="black" font-size="16.6263" font-family="Helvetica"> 10.45</text>
<text xml:space="preserve" x="491.676" y="98.561" fill="black" font-size="16.6263" font-family="Times">&#0177;</text>
<text xml:space="preserve" x="441.173" y="98.561" fill="black" font-size="16.6263" font-family="Helvetica"> 34.49 </text>
<g stroke="black" stroke-width="1" fill="none">
<line x1="67.5315" y1="346.022" x2="68.5315" y2="346.022"/>
</g>
<g stroke="black" stroke-width="1" fill="none">
<line x1="90.2087" y1="346.022" x2="91.2087" y2="346.022"/>
</g>
<g stroke="black" stroke-width="1" fill="none">
<line x1="112.886" y1="346.022" x2="113.886" y2="346.022"/>
</g>
<g stroke="black" stroke-width="1" fill="none">
<line x1="135.563" y1="346.022" x2="136.563" y2="346.022"/>
</g>
<g stroke="black" stroke-width="1" fill="none">
<line x1="158.24" y1="346.022" x2="159.24" y2="346.022"/>
</g>
<g stroke="black" stroke-width="1" fill="none">
<line x1="180.917" y1="346.022" x2="181.917" y2="346.022"/>
</g>
<path d="M204.594,346.022v -17.2311" fill="none" stroke="#000099"/>
<path d="M204.594,328.791v -17.2311" fill="none" stroke="#000099"/>
<path d="M193.256,328.791h 11.3386" fill="none" stroke="#000099"/>
<path d="M204.594,328.791h 11.3386" fill="none" stroke="#000099"/>
<g stroke="black" stroke-width="1" fill="none">
<line x1="203.594" y1="328.791" x2="204.594" y2="328.791"/>
</g>
<path d="M227.272,311.56v -34.4622" fill="none" stroke="#000099"/>
<path d="M227.272,277.098v -34.4622" fill="none" stroke="#000099"/>
<path d="M215.933,277.098h 11.3386" fill="none" stroke="#000099"/>
<path d="M227.272,277.098h 11.3386" fill="none" stroke="#000099"/>
<g stroke="black" stroke-width="1" fill="none">
<line x1="226.272" y1="277.098" x2="227.272" y2="277.098"/>
</g>
<path d="M249.949,298.397v -38.5299" fill="none" stroke="#000099"/>
<path d="M249.949,259.867v -38.5299" fill="none" stroke="#000099"/>
<path d="M238.61,259.867h 11.3386" fill="none" stroke="#000099"/>
<path d="M249.949,259.867h 11.3386" fill="none" stroke="#000099"/>
<g stroke="black" stroke-width="1" fill="none">
<line x1="248.949" y1="259.867" x2="249.949" y2="259.867"/>
</g>
<path d="M272.626,124.139v -71.0457" fill="none" stroke="#000099"/>
<path d="M272.626,53.0934v -14.6464" fill="none" stroke="#000099"/>
<path d="M261.287,53.0934h 11.3386" fill="none" stroke="#000099"/>
<path d="M272.626,53.0934h 11.3386" fill="none" stroke="#000099"/>
<g stroke="black" stroke-width="1" fill="none">
<line x1="271.626" y1="53.0934" x2="272.626" y2="53.0934"/>
</g>
<path d="M295.303,242.636v -51.6933" fill="none" stroke="#000099"/>
<path d="M295.303,190.942v -51.6933" fill="none" stroke="#000099"/>
<path d="M283.965,190.942h 11.3386" fill="none" stroke="#000099"/>
<path d="M295.303,190.942h 11.3386" fill="none" stroke="#000099"/>
<g stroke="black" stroke-width="1" fill="none">
<line x1="294.303" y1="190.942" x2="295.303" y2="190.942"/>
</g>
<path d="M317.98,324.174v -29.8452" fill="none" stroke="#000099"/>
<path d="M317.98,294.329v -29.8452" fill="none" stroke="#000099"/>
<path d="M306.642,294.329h 11.3386" fill="none" stroke="#000099"/>
<path d="M317.98,294.329h 11.3386" fill="none" stroke="#000099"/>
<g stroke="black" stroke-width="1" fill="none">
<line x1="316.98" y1="294.329" x2="317.98" y2="294.329"/>
</g>
<g stroke="black" stroke-width="1" fill="none">
<line x1="339.657" y1="346.022" x2="340.657" y2="346.022"/>
</g>
<g stroke="black" stroke-width="1" fill="none">
<line x1="362.335" y1="346.022" x2="363.335" y2="346.022"/>
</g>
<g stroke="black" stroke-width="1" fill="none">
<line x1="385.012" y1="346.022" x2="386.012" y2="346.022"/>
</g>
<path d="M408.689,346.022v -17.2311" fill="none" stroke="#000099"/>
<path d="M408.689,328.791v -17.2311" fill="none" stroke="#000099"/>
<path d="M397.35,328.791h 11.3386" fill="none" stroke="#000099"/>
<path d="M408.689,328.791h 11.3386" fill="none" stroke="#000099"/>
<g stroke="black" stroke-width="1" fill="none">
<line x1="407.689" y1="328.791" x2="408.689" y2="328.791"/>
</g>
<g stroke="black" stroke-width="1" fill="none">
<line x1="430.366" y1="346.022" x2="431.366" y2="346.022"/>
</g>
<g stroke="black" stroke-width="1" fill="none">
<line x1="453.043" y1="346.022" x2="454.043" y2="346.022"/>
</g>
<g stroke="black" stroke-width="1" fill="none">
<line x1="475.72" y1="346.022" x2="476.72" y2="346.022"/>
</g>
<g stroke="black" stroke-width="1" fill="none">
<line x1="498.398" y1="346.022" x2="499.398" y2="346.022"/>
</g>
<path d="M59.4606,346.022h 104.315l 4.53543, -0.0427074l 4.53543, -0.0435286l 4.53543, -0.0827042l 4.53543, -0.152157l 4.53543, -0.271008l 4.53543, -0.467198l 4.53543, -0.779353l 4.53543, -1.25762l 4.53543, -1.96241l 4.53543, -2.95985l 4.53543,
 -4.31283l 4.53543, -6.06729l 4.53543, -8.23434l 4.53543, -10.7706l 4.53543, -13.5606l 4.53543, -16.4072l 4.53543, -19.0349l 4.53543, -21.1099l 4.53543, -22.2799l 4.53543, -22.2265l 4.53543, -20.7256l 4.53543, -17.7005l 4.53543, -13.2561l 4.53543,
 -7.68475l 4.53543, -1.43646l 4.53543, 4.9402" fill="none" stroke="#ff0000" stroke-width="2"/>
<path d="M281.697,138.136l 4.53543, 10.8778l 4.53543, 15.8732l 4.53543, 19.5581l 4.53543, 21.7421l 4.53543, 22.4234l 4.53543, 21.766l 4.53543, 20.0532l 4.53543, 17.6295l 4.53543, 14.8426l 4.53543, 11.9979l 4.53543, 9.32906l 4.53543, 6.98744l 4.53543,
 5.04686l 4.53543, 3.51821l 4.53543, 2.36876l 4.53543, 1.54121l 4.53543, 0.969507l 4.53543, 0.589867l 4.53543, 0.347228l 4.53543, 0.197813l 4.53543, 0.109089l 4.53543, 0.0582477l 4.53543, 0.0587136h 117.921" fill="none" stroke="#ff0000"
 stroke-width="2"/>
<path d="M503.933,346.022h 4.53543" fill="none" stroke="#ff0000" stroke-width="2"/>
<rect x="351.996" y="24.9905" width="204.094" height="76.8938" fill="white"/>
<path d="M351.996,101.884h 204.094" fill="none" stroke="black"/>
<path d="M556.091,101.884v -76.8938" fill="none" stroke="black"/>
<path d="M556.091,24.9905h -204.094" fill="none" stroke="black"/>
<path d="M351.996,24.9905v 76.8938" fill="none" stroke="black"/>
<text xml:space="preserve" x="376.824" y="39.0986" fill="black" font-size="16.6263" font-family="Helvetica"> / ndf </text>
<text xml:space="preserve" x="371.122" y="34.2112" fill="black" font-size="11.2509" font-family="Helvetica">2</text>
<text xml:space="preserve" x="362.162" y="39.0986" fill="black" font-size="16.6263" font-family="Times">&#0967;</text>
<text xml:space="preserve" x="477.828" y="40.7277" fill="black" font-size="16.6263" font-family="Helvetica"> 4.996 / 4</text>
<text xml:space="preserve" x="362.162" y="60.2769" fill="black" font-size="16.6263" font-family="Helvetica">Constant </text>
<text xml:space="preserve" x="509.596" y="60.2769" fill="black" font-size="16.6263" font-family="Helvetica"> 4.00</text>
<text xml:space="preserve" x="500.636" y="60.2769" fill="black" font-size="16.6263" font-family="Times">&#0177;</text>
<text xml:space="preserve" x="450.133" y="60.2769" fill="black" font-size="16.6263" font-family="Helvetica"> 12.37 </text>
<text xml:space="preserve" x="362.162" y="79.0117" fill="black" font-size="16.6263" font-family="Helvetica">Mean     </text>
<text xml:space="preserve" x="518.556" y="79.0117" fill="black" font-size="16.6263" font-family="Helvetica"> 6.9</text>
<text xml:space="preserve" x="509.596" y="79.0117" fill="black" font-size="16.6263" font-family="Times">&#0177;</text>
<text xml:space="preserve" x="459.094" y="79.0117" fill="black" font-size="16.6263" font-family="Helvetica"> 289.3 </text>
<text xml:space="preserve" x="362.162" y="96.9318" fill="black" font-size="16.6263" font-family="Helvetica">Sigma    </text>
<text xml:space="preserve" x="500.636" y="98.561" fill="black" font-size="16.6263" font-family="Helvetica"> 10.45</text>
<text xml:space="preserve" x="491.676" y="98.561" fill="black" font-size="16.6263" font-family="Times">&#0177;</text>
<text xml:space="preserve" x="441.173" y="98.561" fill="black" font-size="16.6263" font-family="Helvetica"> 34.49 </text>
<text xml:space="preserve" x="234.277" y="18.7347" fill="black" font-size="16.9898" font-family="Helvetica">Sector 1 IB 0</text></svg>
