<?xml version="1.0" standalone="no"?>
<svg width="567.429" height="384.969" viewBox="0 0 567.429 384.969" xmlns="http://www.w3.org/2000/svg" shape-rendering="crispEdges">
<title>
./plots/sector_correction_factors/sector6.svg
</title>
<desc>
Creator: ROOT Version 6.24/00
CreationDate: Tue Aug  3 20:07:20 2021</desc>
<defs>
</defs>
<rect x="0.5" y="0" width="566.929" height="384.469" fill="white"/>
<rect x="57.1929" y="38.4469" width="453.543" height="307.575" fill="white"/>
<rect x="57.1929" y="38.4469" width="453.543" height="307.575" fill="none" stroke="black"/>
<path d="M57.1929,346.022h 453.543" fill="none" stroke="black"/>
<path d="M57.1929,38.4469v 307.575" fill="none" stroke="black" stroke-dasharray=" 1, 2"/>
<path d="M104.437,38.4469v 307.575" fill="none" stroke="black" stroke-dasharray=" 1, 2"/>
<path d="M151.681,38.4469v 307.575" fill="none" stroke="black" stroke-dasharray=" 1, 2"/>
<path d="M198.925,38.4469v 307.575" fill="none" stroke="black" stroke-dasharray=" 1, 2"/>
<path d="M246.169,38.4469v 307.575" fill="none" stroke="black" stroke-dasharray=" 1, 2"/>
<path d="M293.413,38.4469v 307.575" fill="none" stroke="black" stroke-dasharray=" 1, 2"/>
<path d="M340.657,38.4469v 307.575" fill="none" stroke="black" stroke-dasharray=" 1, 2"/>
<path d="M387.902,38.4469v 307.575" fill="none" stroke="black" stroke-dasharray=" 1, 2"/>
<path d="M435.146,38.4469v 307.575" fill="none" stroke="black" stroke-dasharray=" 1, 2"/>
<path d="M482.39,38.4469v 307.575" fill="none" stroke="black" stroke-dasharray=" 1, 2"/>
<path d="M482.39,38.4469v 307.575" fill="none" stroke="black" stroke-dasharray=" 1, 2"/>
<path d="M57.1929,346.022v -307.575" fill="none" stroke="black"/>
<path d="M510.736,346.022h -453.543" fill="none" stroke="black" stroke-dasharray=" 1, 2"/>
<path d="M510.736,315.265h -453.543" fill="none" stroke="black" stroke-dasharray=" 1, 2"/>
<path d="M510.736,284.507h -453.543" fill="none" stroke="black" stroke-dasharray=" 1, 2"/>
<path d="M510.736,253.75h -453.543" fill="none" stroke="black" stroke-dasharray=" 1, 2"/>
<path d="M510.736,222.992h -453.543" fill="none" stroke="black" stroke-dasharray=" 1, 2"/>
<path d="M510.736,192.235h -453.543" fill="none" stroke="black" stroke-dasharray=" 1, 2"/>
<path d="M510.736,161.477h -453.543" fill="none" stroke="black" stroke-dasharray=" 1, 2"/>
<path d="M510.736,130.72h -453.543" fill="none" stroke="black" stroke-dasharray=" 1, 2"/>
<path d="M510.736,99.962h -453.543" fill="none" stroke="black" stroke-dasharray=" 1, 2"/>
<path d="M510.736,69.2045h -453.543" fill="none" stroke="black" stroke-dasharray=" 1, 2"/>
<path d="M510.736,38.4469h -453.543" fill="none" stroke="black" stroke-dasharray=" 1, 2"/>
<path d="M57.1929,346.022h 453.543" fill="none" stroke="#000099"/>
<path d="M57.1929,346.022h 453.543" fill="none" stroke="black"/>
<path d="M57.1929,336.795v 9.22726" fill="none" stroke="black"/>
<path d="M66.6417,341.409v 4.61363" fill="none" stroke="black"/>
<path d="M76.0906,341.409v 4.61363" fill="none" stroke="black"/>
<path d="M85.5394,341.409v 4.61363" fill="none" stroke="black"/>
<path d="M94.9882,341.409v 4.61363" fill="none" stroke="black"/>
<path d="M104.437,336.795v 9.22726" fill="none" stroke="black"/>
<path d="M113.886,341.409v 4.61363" fill="none" stroke="black"/>
<path d="M123.335,341.409v 4.61363" fill="none" stroke="black"/>
<path d="M132.783,341.409v 4.61363" fill="none" stroke="black"/>
<path d="M142.232,341.409v 4.61363" fill="none" stroke="black"/>
<path d="M151.681,336.795v 9.22726" fill="none" stroke="black"/>
<path d="M161.13,341.409v 4.61363" fill="none" stroke="black"/>
<path d="M170.579,341.409v 4.61363" fill="none" stroke="black"/>
<path d="M180.028,341.409v 4.61363" fill="none" stroke="black"/>
<path d="M189.476,341.409v 4.61363" fill="none" stroke="black"/>
<path d="M198.925,336.795v 9.22726" fill="none" stroke="black"/>
<path d="M208.374,341.409v 4.61363" fill="none" stroke="black"/>
<path d="M217.823,341.409v 4.61363" fill="none" stroke="black"/>
<path d="M227.272,341.409v 4.61363" fill="none" stroke="black"/>
<path d="M236.72,341.409v 4.61363" fill="none" stroke="black"/>
<path d="M246.169,336.795v 9.22726" fill="none" stroke="black"/>
<path d="M255.618,341.409v 4.61363" fill="none" stroke="black"/>
<path d="M265.067,341.409v 4.61363" fill="none" stroke="black"/>
<path d="M274.516,341.409v 4.61363" fill="none" stroke="black"/>
<path d="M283.965,341.409v 4.61363" fill="none" stroke="black"/>
<path d="M293.413,336.795v 9.22726" fill="none" stroke="black"/>
<path d="M302.862,341.409v 4.61363" fill="none" stroke="black"/>
<path d="M312.311,341.409v 4.61363" fill="none" stroke="black"/>
<path d="M321.76,341.409v 4.61363" fill="none" stroke="black"/>
<path d="M331.209,341.409v 4.61363" fill="none" stroke="black"/>
<path d="M340.657,336.795v 9.22726" fill="none" stroke="black"/>
<path d="M350.106,341.409v 4.61363" fill="none" stroke="black"/>
<path d="M359.555,341.409v 4.61363" fill="none" stroke="black"/>
<path d="M369.004,341.409v 4.61363" fill="none" stroke="black"/>
<path d="M378.453,341.409v 4.61363" fill="none" stroke="black"/>
<path d="M387.902,336.795v 9.22726" fill="none" stroke="black"/>
<path d="M397.35,341.409v 4.61363" fill="none" stroke="black"/>
<path d="M406.799,341.409v 4.61363" fill="none" stroke="black"/>
<path d="M416.248,341.409v 4.61363" fill="none" stroke="black"/>
<path d="M425.697,341.409v 4.61363" fill="none" stroke="black"/>
<path d="M435.146,336.795v 9.22726" fill="none" stroke="black"/>
<path d="M444.594,341.409v 4.61363" fill="none" stroke="black"/>
<path d="M454.043,341.409v 4.61363" fill="none" stroke="black"/>
<path d="M463.492,341.409v 4.61363" fill="none" stroke="black"/>
<path d="M472.941,341.409v 4.61363" fill="none" stroke="black"/>
<path d="M482.39,336.795v 9.22726" fill="none" stroke="black"/>
<path d="M482.39,336.795v 9.22726" fill="none" stroke="black"/>
<path d="M491.839,341.409v 4.61363" fill="none" stroke="black"/>
<path d="M501.287,341.409v 4.61363" fill="none" stroke="black"/>
<text xml:space="preserve" x="53.446" y="358.403" fill="black" font-size="12.8453" font-family="Helvetica">0</text>
<text xml:space="preserve" x="97.4318" y="358.403" fill="black" font-size="12.8453" font-family="Helvetica">10</text>
<text xml:space="preserve" x="144.676" y="358.403" fill="black" font-size="12.8453" font-family="Helvetica">20</text>
<text xml:space="preserve" x="191.92" y="358.403" fill="black" font-size="12.8453" font-family="Helvetica">30</text>
<text xml:space="preserve" x="239.164" y="358.403" fill="black" font-size="12.8453" font-family="Helvetica">40</text>
<text xml:space="preserve" x="286.408" y="358.403" fill="black" font-size="12.8453" font-family="Helvetica">50</text>
<text xml:space="preserve" x="333.652" y="358.403" fill="black" font-size="12.8453" font-family="Helvetica">60</text>
<text xml:space="preserve" x="380.896" y="358.403" fill="black" font-size="12.8453" font-family="Helvetica">70</text>
<text xml:space="preserve" x="428.141" y="358.403" fill="black" font-size="12.8453" font-family="Helvetica">80</text>
<text xml:space="preserve" x="475.385" y="358.403" fill="black" font-size="12.8453" font-family="Helvetica">90</text>
<text xml:space="preserve" x="433.842" y="372.251" fill="black" font-size="12.8453" font-family="Helvetica">Block Number</text>
<path d="M57.1929,346.022v -307.575" fill="none" stroke="black"/>
<path d="M70.7992,346.022h -13.6063" fill="none" stroke="black"/>
<path d="M63.9961,339.871h -6.80315" fill="none" stroke="black"/>
<path d="M63.9961,333.719h -6.80315" fill="none" stroke="black"/>
<path d="M63.9961,327.568h -6.80315" fill="none" stroke="black"/>
<path d="M63.9961,321.416h -6.80315" fill="none" stroke="black"/>
<path d="M70.7992,315.265h -13.6063" fill="none" stroke="black"/>
<path d="M63.9961,309.113h -6.80315" fill="none" stroke="black"/>
<path d="M63.9961,302.962h -6.80315" fill="none" stroke="black"/>
<path d="M63.9961,296.81h -6.80315" fill="none" stroke="black"/>
<path d="M63.9961,290.659h -6.80315" fill="none" stroke="black"/>
<path d="M70.7992,284.507h -13.6063" fill="none" stroke="black"/>
<path d="M63.9961,278.356h -6.80315" fill="none" stroke="black"/>
<path d="M63.9961,272.204h -6.80315" fill="none" stroke="black"/>
<path d="M63.9961,266.053h -6.80315" fill="none" stroke="black"/>
<path d="M63.9961,259.901h -6.80315" fill="none" stroke="black"/>
<path d="M70.7992,253.75h -13.6063" fill="none" stroke="black"/>
<path d="M63.9961,247.598h -6.80315" fill="none" stroke="black"/>
<path d="M63.9961,241.447h -6.80315" fill="none" stroke="black"/>
<path d="M63.9961,235.295h -6.80315" fill="none" stroke="black"/>
<path d="M63.9961,229.144h -6.80315" fill="none" stroke="black"/>
<path d="M70.7992,222.992h -13.6063" fill="none" stroke="black"/>
<path d="M63.9961,216.841h -6.80315" fill="none" stroke="black"/>
<path d="M63.9961,210.689h -6.80315" fill="none" stroke="black"/>
<path d="M63.9961,204.538h -6.80315" fill="none" stroke="black"/>
<path d="M63.9961,198.386h -6.80315" fill="none" stroke="black"/>
<path d="M70.7992,192.235h -13.6063" fill="none" stroke="black"/>
<path d="M63.9961,186.083h -6.80315" fill="none" stroke="black"/>
<path d="M63.9961,179.932h -6.80315" fill="none" stroke="black"/>
<path d="M63.9961,173.78h -6.80315" fill="none" stroke="black"/>
<path d="M63.9961,167.629h -6.80315" fill="none" stroke="black"/>
<path d="M70.7992,161.477h -13.6063" fill="none" stroke="black"/>
<path d="M63.9961,155.326h -6.80315" fill="none" stroke="black"/>
<path d="M63.9961,149.174h -6.80315" fill="none" stroke="black"/>
<path d="M63.9961,143.023h -6.80315" fill="none" stroke="black"/>
<path d="M63.9961,136.871h -6.80315" fill="none" stroke="black"/>
<path d="M70.7992,130.72h -13.6063" fill="none" stroke="black"/>
<path d="M63.9961,124.568h -6.80315" fill="none" stroke="black"/>
<path d="M63.9961,118.417h -6.80315" fill="none" stroke="black"/>
<path d="M63.9961,112.265h -6.80315" fill="none" stroke="black"/>
<path d="M63.9961,106.113h -6.80315" fill="none" stroke="black"/>
<path d="M70.7992,99.962h -13.6063" fill="none" stroke="black"/>
<path d="M63.9961,93.8105h -6.80315" fill="none" stroke="black"/>
<path d="M63.9961,87.659h -6.80315" fill="none" stroke="black"/>
<path d="M63.9961,81.5075h -6.80315" fill="none" stroke="black"/>
<path d="M63.9961,75.356h -6.80315" fill="none" stroke="black"/>
<path d="M70.7992,69.2045h -13.6063" fill="none" stroke="black"/>
<path d="M63.9961,63.0529h -6.80315" fill="none" stroke="black"/>
<path d="M63.9961,56.9014h -6.80315" fill="none" stroke="black"/>
<path d="M63.9961,50.7499h -6.80315" fill="none" stroke="black"/>
<path d="M63.9961,44.5984h -6.80315" fill="none" stroke="black"/>
<path d="M70.7992,38.4469h -13.6063" fill="none" stroke="black"/>
<text xml:space="preserve" x="30.6385" y="350.258" fill="black" font-size="12.8453" font-family="Helvetica">0.75</text>
<text xml:space="preserve" x="37.1549" y="320.119" fill="black" font-size="12.8453" font-family="Helvetica">0.8</text>
<text xml:space="preserve" x="30.6385" y="289.166" fill="black" font-size="12.8453" font-family="Helvetica">0.85</text>
<text xml:space="preserve" x="37.1549" y="258.213" fill="black" font-size="12.8453" font-family="Helvetica">0.9</text>
<text xml:space="preserve" x="30.6385" y="227.26" fill="black" font-size="12.8453" font-family="Helvetica">0.95</text>
<text xml:space="preserve" x="49.3732" y="197.122" fill="black" font-size="12.8453" font-family="Helvetica">1</text>
<text xml:space="preserve" x="30.6385" y="166.169" fill="black" font-size="12.8453" font-family="Helvetica">1.05</text>
<text xml:space="preserve" x="39.5986" y="135.216" fill="black" font-size="12.8453" font-family="Helvetica">1.1</text>
<text xml:space="preserve" x="30.6385" y="104.263" fill="black" font-size="12.8453" font-family="Helvetica">1.15</text>
<text xml:space="preserve" x="37.1549" y="73.3098" fill="black" font-size="12.8453" font-family="Helvetica">1.2</text>
<text xml:space="preserve" x="30.6385" y="43.1713" fill="black" font-size="12.8453" font-family="Helvetica">1.25</text>
<g transform="rotate(-90,18.4202,132.772)">
<text xml:space="preserve" x="18.4202" y="132.772" fill="black" font-size="12.8453" font-family="Helvetica">Correction Factor</text>
</g>
<text xml:space="preserve" x="252.197" y="18.7347" fill="black" font-size="16.9898" font-family="Helvetica">Sector 6</text>
<g fill="#ff8e00">
<polygon points=" 470.579, 170.35 473.837, 176.866 467.321, 176.866"/>
</g>
<g fill="#ff6800">
<polygon points=" 87.9016, 165.418 91.1598, 171.934 84.6434, 171.934"/>
<polygon points=" 102.075, 165.418 105.333, 171.934 98.8166, 171.934"/>
</g>
<g fill="#c10020">
<polygon points=" 172.941, 146.73 176.199, 153.246 169.683, 153.246"/>
<polygon points=" 177.665, 146.73 180.924, 153.246 174.407, 153.246"/>
<polygon points=" 210.736, 146.73 213.994, 153.246 207.478, 153.246"/>
<polygon points=" 239.083, 146.73 242.341, 153.246 235.824, 153.246"/>
<polygon points=" 257.98, 146.73 261.239, 153.246 254.722, 153.246"/>
<polygon points=" 262.705, 146.73 265.963, 153.246 259.447, 153.246"/>
<polygon points=" 267.429, 146.73 270.687, 153.246 264.171, 153.246"/>
</g>
<g fill="#f6768e">
<polygon points=" 324.122, 166.08 327.38, 172.597 320.864, 172.597"/>
<polygon points=" 328.846, 166.08 332.105, 172.597 325.588, 172.597"/>
<polygon points=" 333.571, 166.08 336.829, 172.597 330.313, 172.597"/>
<polygon points=" 338.295, 166.08 341.553, 172.597 335.037, 172.597"/>
<polygon points=" 343.02, 166.08 346.278, 172.597 339.761, 172.597"/>
<polygon points=" 357.193, 166.08 360.451, 172.597 353.935, 172.597"/>
<polygon points=" 371.366, 166.08 374.624, 172.597 368.108, 172.597"/>
<polygon points=" 376.091, 166.08 379.349, 172.597 372.832, 172.597"/>
<polygon points=" 385.539, 166.08 388.798, 172.597 382.281, 172.597"/>
</g>
<g fill="#ff7a5c">
<polygon points=" 401.179, 197.488 407.695, 197.488 404.437, 204.004"/>
<polygon points=" 415.352, 197.488 421.868, 197.488 418.61, 204.004"/>
<polygon points=" 420.076, 197.488 426.593, 197.488 423.335, 204.004"/>
<polygon points=" 424.801, 197.488 431.317, 197.488 428.059, 204.004"/>
<polygon points=" 429.525, 197.488 436.042, 197.488 432.783, 204.004"/>
</g>
<g fill="#53377a">
<polygon points=" 442.232, 163.78 445.491, 170.297 438.974, 170.297"/>
<polygon points=" 456.406, 163.78 459.664, 170.297 453.147, 170.297"/>
<polygon points=" 461.13, 163.78 464.388, 170.297 457.872, 170.297"/>
<polygon points=" 465.854, 163.78 469.113, 170.297 462.596, 170.297"/>
<polygon points=" 475.303, 163.78 478.561, 170.297 472.045, 170.297"/>
<polygon points=" 489.476, 163.78 492.735, 170.297 486.218, 170.297"/>
</g>
<g fill="#b32851">
<polygon points=" 480.028, 143.532 483.286, 150.048 476.769, 150.048"/>
<polygon points=" 494.201, 143.532 497.459, 150.048 490.943, 150.048"/>
<polygon points=" 498.925, 143.532 502.183, 150.048 495.667, 150.048"/>
<polygon points=" 503.65, 143.532 506.908, 150.048 500.391, 150.048"/>
<polygon points=" 508.374, 143.532 511.632, 150.048 505.116, 150.048"/>
</g>
<g fill="#00538a">
<polygon points=" 361.917, 148.04 365.176, 154.557 358.659, 154.557"/>
<polygon points=" 380.815, 148.04 384.073, 154.557 377.557, 154.557"/>
<polygon points=" 394.988, 148.04 398.246, 154.557 391.73, 154.557"/>
<polygon points=" 399.713, 148.04 402.971, 154.557 396.454, 154.557"/>
<polygon points=" 409.161, 148.04 412.42, 154.557 405.903, 154.557"/>
<polygon points=" 413.886, 148.04 417.144, 154.557 410.628, 154.557"/>
<polygon points=" 437.508, 148.04 440.766, 154.557 434.25, 154.557"/>
<polygon points=" 446.957, 148.04 450.215, 154.557 443.698, 154.557"/>
<polygon points=" 451.681, 148.04 454.939, 154.557 448.423, 154.557"/>
</g>
<g fill="#007d34">
<polygon points=" 314.673, 151.758 317.931, 158.274 311.415, 158.274"/>
<polygon points=" 347.744, 151.758 351.002, 158.274 344.486, 158.274"/>
<polygon points=" 352.469, 151.758 355.727, 158.274 349.21, 158.274"/>
<polygon points=" 366.642, 151.758 369.9, 158.274 363.384, 158.274"/>
</g>
<g fill="#817066">
<polygon points=" 248.531, 137.226 251.79, 143.742 245.273, 143.742"/>
<polygon points=" 272.154, 137.226 275.412, 143.742 268.895, 143.742"/>
<polygon points=" 276.878, 137.226 280.136, 143.742 273.62, 143.742"/>
<polygon points=" 281.602, 137.226 284.861, 143.742 278.344, 143.742"/>
<polygon points=" 286.327, 137.226 289.585, 143.742 283.069, 143.742"/>
<polygon points=" 291.051, 137.226 294.309, 143.742 287.793, 143.742"/>
<polygon points=" 295.776, 137.226 299.034, 143.742 292.517, 143.742"/>
<polygon points=" 300.5, 137.226 303.758, 143.742 297.242, 143.742"/>
<polygon points=" 305.224, 137.226 308.483, 143.742 301.966, 143.742"/>
<polygon points=" 309.949, 137.226 313.207, 143.742 306.691, 143.742"/>
<polygon points=" 319.398, 137.226 322.656, 143.742 316.139, 143.742"/>
</g>
<g fill="#cea262">
<polygon points=" 215.461, 126.302 218.719, 132.818 212.202, 132.818"/>
<polygon points=" 220.185, 126.302 223.443, 132.818 216.927, 132.818"/>
<polygon points=" 224.909, 126.302 228.168, 132.818 221.651, 132.818"/>
<polygon points=" 229.634, 126.302 232.892, 132.818 226.376, 132.818"/>
<polygon points=" 234.358, 126.302 237.616, 132.818 231.1, 132.818"/>
<polygon points=" 243.807, 126.302 247.065, 132.818 240.549, 132.818"/>
<polygon points=" 253.256, 126.302 256.514, 132.818 249.998, 132.818"/>
</g>
<g fill="#a6bdd7">
<polygon points=" 154.043, 162.198 157.302, 168.714 150.785, 168.714"/>
<polygon points=" 158.768, 162.198 162.026, 168.714 155.51, 168.714"/>
<polygon points=" 163.492, 162.198 166.75, 168.714 160.234, 168.714"/>
<polygon points=" 168.217, 162.198 171.475, 168.714 164.958, 168.714"/>
<polygon points=" 182.39, 162.198 185.648, 168.714 179.132, 168.714"/>
<polygon points=" 187.114, 162.198 190.372, 168.714 183.856, 168.714"/>
<polygon points=" 191.839, 162.198 195.097, 168.714 188.58, 168.714"/>
<polygon points=" 196.563, 162.198 199.821, 168.714 193.305, 168.714"/>
<polygon points=" 201.287, 162.198 204.546, 168.714 198.029, 168.714"/>
<polygon points=" 206.012, 162.198 209.27, 168.714 202.754, 168.714"/>
</g>
<g fill="#803e75">
<polygon points=" 79.919, 208.576 86.4354, 208.576 83.1772, 215.093"/>
<polygon points=" 94.0922, 208.576 100.609, 208.576 97.3504, 215.093"/>
<polygon points=" 108.265, 208.576 114.782, 208.576 111.524, 215.093"/>
<polygon points=" 112.99, 208.576 119.506, 208.576 116.248, 215.093"/>
<polygon points=" 117.714, 208.576 124.231, 208.576 120.972, 215.093"/>
<polygon points=" 122.439, 208.576 128.955, 208.576 125.697, 215.093"/>
<polygon points=" 127.163, 208.576 133.679, 208.576 130.421, 215.093"/>
<polygon points=" 131.887, 208.576 138.404, 208.576 135.146, 215.093"/>
<polygon points=" 136.612, 208.576 143.128, 208.576 139.87, 215.093"/>
<polygon points=" 141.336, 208.576 147.853, 208.576 144.594, 215.093"/>
<polygon points=" 146.061, 208.576 152.577, 208.576 149.319, 215.093"/>
</g>
<g fill="#ffb300">
<polygon points=" 75.1945, 252.669 81.711, 252.669 78.4528, 259.185"/>
<polygon points=" 89.3678, 252.669 95.8842, 252.669 92.626, 259.185"/>
<polygon points=" 103.541, 252.669 110.057, 252.669 106.799, 259.185"/>
</g>
<path d="M57.1929,346.022h 453.543" fill="none" stroke="black"/>
<path d="M57.1929,336.795v 9.22726" fill="none" stroke="black"/>
<path d="M66.6417,341.409v 4.61363" fill="none" stroke="black"/>
<path d="M76.0906,341.409v 4.61363" fill="none" stroke="black"/>
<path d="M85.5394,341.409v 4.61363" fill="none" stroke="black"/>
<path d="M94.9882,341.409v 4.61363" fill="none" stroke="black"/>
<path d="M104.437,336.795v 9.22726" fill="none" stroke="black"/>
<path d="M113.886,341.409v 4.61363" fill="none" stroke="black"/>
<path d="M123.335,341.409v 4.61363" fill="none" stroke="black"/>
<path d="M132.783,341.409v 4.61363" fill="none" stroke="black"/>
<path d="M142.232,341.409v 4.61363" fill="none" stroke="black"/>
<path d="M151.681,336.795v 9.22726" fill="none" stroke="black"/>
<path d="M161.13,341.409v 4.61363" fill="none" stroke="black"/>
<path d="M170.579,341.409v 4.61363" fill="none" stroke="black"/>
<path d="M180.028,341.409v 4.61363" fill="none" stroke="black"/>
<path d="M189.476,341.409v 4.61363" fill="none" stroke="black"/>
<path d="M198.925,336.795v 9.22726" fill="none" stroke="black"/>
<path d="M208.374,341.409v 4.61363" fill="none" stroke="black"/>
<path d="M217.823,341.409v 4.61363" fill="none" stroke="black"/>
<path d="M227.272,341.409v 4.61363" fill="none" stroke="black"/>
<path d="M236.72,341.409v 4.61363" fill="none" stroke="black"/>
<path d="M246.169,336.795v 9.22726" fill="none" stroke="black"/>
<path d="M255.618,341.409v 4.61363" fill="none" stroke="black"/>
<path d="M265.067,341.409v 4.61363" fill="none" stroke="black"/>
<path d="M274.516,341.409v 4.61363" fill="none" stroke="black"/>
<path d="M283.965,341.409v 4.61363" fill="none" stroke="black"/>
<path d="M293.413,336.795v 9.22726" fill="none" stroke="black"/>
<path d="M302.862,341.409v 4.61363" fill="none" stroke="black"/>
<path d="M312.311,341.409v 4.61363" fill="none" stroke="black"/>
<path d="M321.76,341.409v 4.61363" fill="none" stroke="black"/>
<path d="M331.209,341.409v 4.61363" fill="none" stroke="black"/>
<path d="M340.657,336.795v 9.22726" fill="none" stroke="black"/>
<path d="M350.106,341.409v 4.61363" fill="none" stroke="black"/>
<path d="M359.555,341.409v 4.61363" fill="none" stroke="black"/>
<path d="M369.004,341.409v 4.61363" fill="none" stroke="black"/>
<path d="M378.453,341.409v 4.61363" fill="none" stroke="black"/>
<path d="M387.902,336.795v 9.22726" fill="none" stroke="black"/>
<path d="M397.35,341.409v 4.61363" fill="none" stroke="black"/>
<path d="M406.799,341.409v 4.61363" fill="none" stroke="black"/>
<path d="M416.248,341.409v 4.61363" fill="none" stroke="black"/>
<path d="M425.697,341.409v 4.61363" fill="none" stroke="black"/>
<path d="M435.146,336.795v 9.22726" fill="none" stroke="black"/>
<path d="M444.594,341.409v 4.61363" fill="none" stroke="black"/>
<path d="M454.043,341.409v 4.61363" fill="none" stroke="black"/>
<path d="M463.492,341.409v 4.61363" fill="none" stroke="black"/>
<path d="M472.941,341.409v 4.61363" fill="none" stroke="black"/>
<path d="M482.39,336.795v 9.22726" fill="none" stroke="black"/>
<path d="M482.39,336.795v 9.22726" fill="none" stroke="black"/>
<path d="M491.839,341.409v 4.61363" fill="none" stroke="black"/>
<path d="M501.287,341.409v 4.61363" fill="none" stroke="black"/>
<path d="M57.1929,346.022v -307.575" fill="none" stroke="black"/>
<path d="M70.7992,346.022h -13.6063" fill="none" stroke="black"/>
<path d="M63.9961,339.871h -6.80315" fill="none" stroke="black"/>
<path d="M63.9961,333.719h -6.80315" fill="none" stroke="black"/>
<path d="M63.9961,327.568h -6.80315" fill="none" stroke="black"/>
<path d="M63.9961,321.416h -6.80315" fill="none" stroke="black"/>
<path d="M70.7992,315.265h -13.6063" fill="none" stroke="black"/>
<path d="M63.9961,309.113h -6.80315" fill="none" stroke="black"/>
<path d="M63.9961,302.962h -6.80315" fill="none" stroke="black"/>
<path d="M63.9961,296.81h -6.80315" fill="none" stroke="black"/>
<path d="M63.9961,290.659h -6.80315" fill="none" stroke="black"/>
<path d="M70.7992,284.507h -13.6063" fill="none" stroke="black"/>
<path d="M63.9961,278.356h -6.80315" fill="none" stroke="black"/>
<path d="M63.9961,272.204h -6.80315" fill="none" stroke="black"/>
<path d="M63.9961,266.053h -6.80315" fill="none" stroke="black"/>
<path d="M63.9961,259.901h -6.80315" fill="none" stroke="black"/>
<path d="M70.7992,253.75h -13.6063" fill="none" stroke="black"/>
<path d="M63.9961,247.598h -6.80315" fill="none" stroke="black"/>
<path d="M63.9961,241.447h -6.80315" fill="none" stroke="black"/>
<path d="M63.9961,235.295h -6.80315" fill="none" stroke="black"/>
<path d="M63.9961,229.144h -6.80315" fill="none" stroke="black"/>
<path d="M70.7992,222.992h -13.6063" fill="none" stroke="black"/>
<path d="M63.9961,216.841h -6.80315" fill="none" stroke="black"/>
<path d="M63.9961,210.689h -6.80315" fill="none" stroke="black"/>
<path d="M63.9961,204.538h -6.80315" fill="none" stroke="black"/>
<path d="M63.9961,198.386h -6.80315" fill="none" stroke="black"/>
<path d="M70.7992,192.235h -13.6063" fill="none" stroke="black"/>
<path d="M63.9961,186.083h -6.80315" fill="none" stroke="black"/>
<path d="M63.9961,179.932h -6.80315" fill="none" stroke="black"/>
<path d="M63.9961,173.78h -6.80315" fill="none" stroke="black"/>
<path d="M63.9961,167.629h -6.80315" fill="none" stroke="black"/>
<path d="M70.7992,161.477h -13.6063" fill="none" stroke="black"/>
<path d="M63.9961,155.326h -6.80315" fill="none" stroke="black"/>
<path d="M63.9961,149.174h -6.80315" fill="none" stroke="black"/>
<path d="M63.9961,143.023h -6.80315" fill="none" stroke="black"/>
<path d="M63.9961,136.871h -6.80315" fill="none" stroke="black"/>
<path d="M70.7992,130.72h -13.6063" fill="none" stroke="black"/>
<path d="M63.9961,124.568h -6.80315" fill="none" stroke="black"/>
<path d="M63.9961,118.417h -6.80315" fill="none" stroke="black"/>
<path d="M63.9961,112.265h -6.80315" fill="none" stroke="black"/>
<path d="M63.9961,106.113h -6.80315" fill="none" stroke="black"/>
<path d="M70.7992,99.962h -13.6063" fill="none" stroke="black"/>
<path d="M63.9961,93.8105h -6.80315" fill="none" stroke="black"/>
<path d="M63.9961,87.659h -6.80315" fill="none" stroke="black"/>
<path d="M63.9961,81.5075h -6.80315" fill="none" stroke="black"/>
<path d="M63.9961,75.356h -6.80315" fill="none" stroke="black"/>
<path d="M70.7992,69.2045h -13.6063" fill="none" stroke="black"/>
<path d="M63.9961,63.0529h -6.80315" fill="none" stroke="black"/>
<path d="M63.9961,56.9014h -6.80315" fill="none" stroke="black"/>
<path d="M63.9961,50.7499h -6.80315" fill="none" stroke="black"/>
<path d="M63.9961,44.5984h -6.80315" fill="none" stroke="black"/>
<path d="M70.7992,38.4469h -13.6063" fill="none" stroke="black"/>
<path d="M57.1929,192.235h 453.543" fill="none" stroke="black" stroke-width="2" stroke-dasharray=" 3, 3"/>
<text xml:space="preserve" x="252.197" y="18.7347" fill="black" font-size="16.9898" font-family="Helvetica">Sector 6</text></svg>
