<?xml version="1.0" standalone="no"?>
<svg width="567.429" height="384.969" viewBox="0 0 567.429 384.969" xmlns="http://www.w3.org/2000/svg" shape-rendering="crispEdges">
<title>
./plots/sector_before_after/sector10after.svg
</title>
<desc>
Creator: ROOT Version 6.22/02
CreationDate: Wed Sep  1 10:31:22 2021</desc>
<defs>
</defs>
<rect x="0.5" y="0" width="566.929" height="384.469" fill="white"/>
<rect x="57.1929" y="38.4469" width="453.543" height="307.575" fill="white"/>
<rect x="57.1929" y="38.4469" width="453.543" height="307.575" fill="none" stroke="black"/>
<path d="M57.1929,346.022h 453.543" fill="none" stroke="black"/>
<path d="M57.1929,38.4469v 307.575" fill="none" stroke="black" stroke-dasharray=" 1, 2"/>
<path d="M104.437,38.4469v 307.575" fill="none" stroke="black" stroke-dasharray=" 1, 2"/>
<path d="M151.681,38.4469v 307.575" fill="none" stroke="black" stroke-dasharray=" 1, 2"/>
<path d="M198.925,38.4469v 307.575" fill="none" stroke="black" stroke-dasharray=" 1, 2"/>
<path d="M246.169,38.4469v 307.575" fill="none" stroke="black" stroke-dasharray=" 1, 2"/>
<path d="M293.413,38.4469v 307.575" fill="none" stroke="black" stroke-dasharray=" 1, 2"/>
<path d="M340.657,38.4469v 307.575" fill="none" stroke="black" stroke-dasharray=" 1, 2"/>
<path d="M387.902,38.4469v 307.575" fill="none" stroke="black" stroke-dasharray=" 1, 2"/>
<path d="M435.146,38.4469v 307.575" fill="none" stroke="black" stroke-dasharray=" 1, 2"/>
<path d="M482.39,38.4469v 307.575" fill="none" stroke="black" stroke-dasharray=" 1, 2"/>
<path d="M482.39,38.4469v 307.575" fill="none" stroke="black" stroke-dasharray=" 1, 2"/>
<path d="M57.1929,346.022v -307.575" fill="none" stroke="black"/>
<path d="M510.736,346.022h -453.543" fill="none" stroke="black" stroke-dasharray=" 1, 2"/>
<path d="M510.736,297.201h -453.543" fill="none" stroke="black" stroke-dasharray=" 1, 2"/>
<path d="M510.736,248.379h -453.543" fill="none" stroke="black" stroke-dasharray=" 1, 2"/>
<path d="M510.736,199.558h -453.543" fill="none" stroke="black" stroke-dasharray=" 1, 2"/>
<path d="M510.736,150.736h -453.543" fill="none" stroke="black" stroke-dasharray=" 1, 2"/>
<path d="M510.736,101.915h -453.543" fill="none" stroke="black" stroke-dasharray=" 1, 2"/>
<path d="M510.736,53.0934h -453.543" fill="none" stroke="black" stroke-dasharray=" 1, 2"/>
<path d="M510.736,53.0934h -453.543" fill="none" stroke="black" stroke-dasharray=" 1, 2"/>
<path d="M57.1929,346.022h 453.543" fill="none" stroke="#000099"/>
<path d="M57.1929,346.022h 453.543" fill="none" stroke="black"/>
<path d="M57.1929,336.795v 9.22726" fill="none" stroke="black"/>
<path d="M66.6417,341.409v 4.61363" fill="none" stroke="black"/>
<path d="M76.0906,341.409v 4.61363" fill="none" stroke="black"/>
<path d="M85.5394,341.409v 4.61363" fill="none" stroke="black"/>
<path d="M94.9882,341.409v 4.61363" fill="none" stroke="black"/>
<path d="M104.437,336.795v 9.22726" fill="none" stroke="black"/>
<path d="M113.886,341.409v 4.61363" fill="none" stroke="black"/>
<path d="M123.335,341.409v 4.61363" fill="none" stroke="black"/>
<path d="M132.783,341.409v 4.61363" fill="none" stroke="black"/>
<path d="M142.232,341.409v 4.61363" fill="none" stroke="black"/>
<path d="M151.681,336.795v 9.22726" fill="none" stroke="black"/>
<path d="M161.13,341.409v 4.61363" fill="none" stroke="black"/>
<path d="M170.579,341.409v 4.61363" fill="none" stroke="black"/>
<path d="M180.028,341.409v 4.61363" fill="none" stroke="black"/>
<path d="M189.476,341.409v 4.61363" fill="none" stroke="black"/>
<path d="M198.925,336.795v 9.22726" fill="none" stroke="black"/>
<path d="M208.374,341.409v 4.61363" fill="none" stroke="black"/>
<path d="M217.823,341.409v 4.61363" fill="none" stroke="black"/>
<path d="M227.272,341.409v 4.61363" fill="none" stroke="black"/>
<path d="M236.72,341.409v 4.61363" fill="none" stroke="black"/>
<path d="M246.169,336.795v 9.22726" fill="none" stroke="black"/>
<path d="M255.618,341.409v 4.61363" fill="none" stroke="black"/>
<path d="M265.067,341.409v 4.61363" fill="none" stroke="black"/>
<path d="M274.516,341.409v 4.61363" fill="none" stroke="black"/>
<path d="M283.965,341.409v 4.61363" fill="none" stroke="black"/>
<path d="M293.413,336.795v 9.22726" fill="none" stroke="black"/>
<path d="M302.862,341.409v 4.61363" fill="none" stroke="black"/>
<path d="M312.311,341.409v 4.61363" fill="none" stroke="black"/>
<path d="M321.76,341.409v 4.61363" fill="none" stroke="black"/>
<path d="M331.209,341.409v 4.61363" fill="none" stroke="black"/>
<path d="M340.657,336.795v 9.22726" fill="none" stroke="black"/>
<path d="M350.106,341.409v 4.61363" fill="none" stroke="black"/>
<path d="M359.555,341.409v 4.61363" fill="none" stroke="black"/>
<path d="M369.004,341.409v 4.61363" fill="none" stroke="black"/>
<path d="M378.453,341.409v 4.61363" fill="none" stroke="black"/>
<path d="M387.902,336.795v 9.22726" fill="none" stroke="black"/>
<path d="M397.35,341.409v 4.61363" fill="none" stroke="black"/>
<path d="M406.799,341.409v 4.61363" fill="none" stroke="black"/>
<path d="M416.248,341.409v 4.61363" fill="none" stroke="black"/>
<path d="M425.697,341.409v 4.61363" fill="none" stroke="black"/>
<path d="M435.146,336.795v 9.22726" fill="none" stroke="black"/>
<path d="M444.594,341.409v 4.61363" fill="none" stroke="black"/>
<path d="M454.043,341.409v 4.61363" fill="none" stroke="black"/>
<path d="M463.492,341.409v 4.61363" fill="none" stroke="black"/>
<path d="M472.941,341.409v 4.61363" fill="none" stroke="black"/>
<path d="M482.39,336.795v 9.22726" fill="none" stroke="black"/>
<path d="M482.39,336.795v 9.22726" fill="none" stroke="black"/>
<path d="M491.839,341.409v 4.61363" fill="none" stroke="black"/>
<path d="M501.287,341.409v 4.61363" fill="none" stroke="black"/>
<text xml:space="preserve" x="53.446" y="358.403" fill="black" font-size="12.8453" font-family="Helvetica">0</text>
<text xml:space="preserve" x="97.4318" y="358.403" fill="black" font-size="12.8453" font-family="Helvetica">10</text>
<text xml:space="preserve" x="144.676" y="358.403" fill="black" font-size="12.8453" font-family="Helvetica">20</text>
<text xml:space="preserve" x="191.92" y="358.403" fill="black" font-size="12.8453" font-family="Helvetica">30</text>
<text xml:space="preserve" x="239.164" y="358.403" fill="black" font-size="12.8453" font-family="Helvetica">40</text>
<text xml:space="preserve" x="286.408" y="358.403" fill="black" font-size="12.8453" font-family="Helvetica">50</text>
<text xml:space="preserve" x="333.652" y="358.403" fill="black" font-size="12.8453" font-family="Helvetica">60</text>
<text xml:space="preserve" x="380.896" y="358.403" fill="black" font-size="12.8453" font-family="Helvetica">70</text>
<text xml:space="preserve" x="428.141" y="358.403" fill="black" font-size="12.8453" font-family="Helvetica">80</text>
<text xml:space="preserve" x="475.385" y="358.403" fill="black" font-size="12.8453" font-family="Helvetica">90</text>
<text xml:space="preserve" x="433.842" y="372.251" fill="black" font-size="12.8453" font-family="Helvetica">Block Number</text>
<path d="M57.1929,346.022v -307.575" fill="none" stroke="black"/>
<path d="M70.7992,346.022h -13.6063" fill="none" stroke="black"/>
<path d="M63.9961,336.258h -6.80315" fill="none" stroke="black"/>
<path d="M63.9961,326.494h -6.80315" fill="none" stroke="black"/>
<path d="M63.9961,316.729h -6.80315" fill="none" stroke="black"/>
<path d="M63.9961,306.965h -6.80315" fill="none" stroke="black"/>
<path d="M70.7992,297.201h -13.6063" fill="none" stroke="black"/>
<path d="M63.9961,287.436h -6.80315" fill="none" stroke="black"/>
<path d="M63.9961,277.672h -6.80315" fill="none" stroke="black"/>
<path d="M63.9961,267.908h -6.80315" fill="none" stroke="black"/>
<path d="M63.9961,258.144h -6.80315" fill="none" stroke="black"/>
<path d="M70.7992,248.379h -13.6063" fill="none" stroke="black"/>
<path d="M63.9961,238.615h -6.80315" fill="none" stroke="black"/>
<path d="M63.9961,228.851h -6.80315" fill="none" stroke="black"/>
<path d="M63.9961,219.086h -6.80315" fill="none" stroke="black"/>
<path d="M63.9961,209.322h -6.80315" fill="none" stroke="black"/>
<path d="M70.7992,199.558h -13.6063" fill="none" stroke="black"/>
<path d="M63.9961,189.794h -6.80315" fill="none" stroke="black"/>
<path d="M63.9961,180.029h -6.80315" fill="none" stroke="black"/>
<path d="M63.9961,170.265h -6.80315" fill="none" stroke="black"/>
<path d="M63.9961,160.501h -6.80315" fill="none" stroke="black"/>
<path d="M70.7992,150.736h -13.6063" fill="none" stroke="black"/>
<path d="M63.9961,140.972h -6.80315" fill="none" stroke="black"/>
<path d="M63.9961,131.208h -6.80315" fill="none" stroke="black"/>
<path d="M63.9961,121.443h -6.80315" fill="none" stroke="black"/>
<path d="M63.9961,111.679h -6.80315" fill="none" stroke="black"/>
<path d="M70.7992,101.915h -13.6063" fill="none" stroke="black"/>
<path d="M63.9961,92.1506h -6.80315" fill="none" stroke="black"/>
<path d="M63.9961,82.3863h -6.80315" fill="none" stroke="black"/>
<path d="M63.9961,72.622h -6.80315" fill="none" stroke="black"/>
<path d="M63.9961,62.8577h -6.80315" fill="none" stroke="black"/>
<path d="M70.7992,53.0934h -13.6063" fill="none" stroke="black"/>
<path d="M70.7992,53.0934h -13.6063" fill="none" stroke="black"/>
<path d="M63.9961,43.3291h -6.80315" fill="none" stroke="black"/>
<text xml:space="preserve" x="47.7441" y="350.258" fill="black" font-size="12.8453" font-family="Helvetica">0</text>
<text xml:space="preserve" x="33.8967" y="301.385" fill="black" font-size="12.8453" font-family="Helvetica">100</text>
<text xml:space="preserve" x="33.8967" y="252.512" fill="black" font-size="12.8453" font-family="Helvetica">200</text>
<text xml:space="preserve" x="33.8967" y="203.638" fill="black" font-size="12.8453" font-family="Helvetica">300</text>
<text xml:space="preserve" x="33.8967" y="155.58" fill="black" font-size="12.8453" font-family="Helvetica">400</text>
<text xml:space="preserve" x="33.8967" y="106.706" fill="black" font-size="12.8453" font-family="Helvetica">500</text>
<text xml:space="preserve" x="33.8967" y="57.8333" fill="black" font-size="12.8453" font-family="Helvetica">600</text>
<g transform="rotate(-90,21.6784,65.1643)">
<text xml:space="preserve" x="21.6784" y="65.1643" fill="black" font-size="12.8453" font-family="Helvetica">MPV</text>
</g>
<text xml:space="preserve" x="218.8" y="18.7347" fill="black" font-size="18.0316" font-family="Helvetica">Sector 10 (After)</text>
<g fill="black">
<circle cx="59.5551" cy="150.342" r="3.25821"/>
<circle cx="64.2795" cy="205.534" r="3.25821"/>
<circle cx="69.0039" cy="203.002" r="3.25821"/>
<circle cx="73.7283" cy="166.881" r="3.25821"/>
<circle cx="78.4528" cy="200.823" r="3.25821"/>
<circle cx="83.1772" cy="216.219" r="3.25821"/>
<circle cx="87.9016" cy="200.644" r="3.25821"/>
<circle cx="92.626" cy="173.109" r="3.25821"/>
<circle cx="102.075" cy="240.041" r="3.25821"/>
<circle cx="106.799" cy="302.746" r="3.25821"/>
<circle cx="111.524" cy="185.821" r="3.25821"/>
<circle cx="456.406" cy="236.444" r="3.25821"/>
<circle cx="475.303" cy="197.114" r="3.25821"/>
<circle cx="480.028" cy="206.932" r="3.25821"/>
<circle cx="484.752" cy="231.89" r="3.25821"/>
<circle cx="489.476" cy="255.987" r="3.25821"/>
<circle cx="494.201" cy="176.306" r="3.25821"/>
<circle cx="498.925" cy="194.943" r="3.25821"/>
<circle cx="503.65" cy="206.928" r="3.25821"/>
<circle cx="508.374" cy="170.768" r="3.25821"/>
</g>
<g fill="black">
<circle cx="59.5551" cy="150.342" r="3.25821"/>
<circle cx="64.2795" cy="205.534" r="3.25821"/>
<circle cx="69.0039" cy="203.002" r="3.25821"/>
<circle cx="73.7283" cy="166.881" r="3.25821"/>
<circle cx="78.4528" cy="200.823" r="3.25821"/>
<circle cx="83.1772" cy="216.219" r="3.25821"/>
<circle cx="87.9016" cy="200.644" r="3.25821"/>
<circle cx="92.626" cy="173.109" r="3.25821"/>
<circle cx="102.075" cy="240.041" r="3.25821"/>
<circle cx="106.799" cy="302.746" r="3.25821"/>
<circle cx="111.524" cy="185.821" r="3.25821"/>
<circle cx="475.303" cy="197.114" r="3.25821"/>
<circle cx="480.028" cy="206.932" r="3.25821"/>
<circle cx="484.752" cy="231.89" r="3.25821"/>
<circle cx="489.476" cy="255.987" r="3.25821"/>
<circle cx="498.925" cy="194.943" r="3.25821"/>
<circle cx="503.65" cy="206.928" r="3.25821"/>
<circle cx="508.374" cy="170.768" r="3.25821"/>
</g>
<g fill="black">
<circle cx="59.5551" cy="150.342" r="3.25821"/>
<circle cx="64.2795" cy="205.534" r="3.25821"/>
<circle cx="69.0039" cy="203.002" r="3.25821"/>
<circle cx="73.7283" cy="166.881" r="3.25821"/>
<circle cx="78.4528" cy="200.823" r="3.25821"/>
<circle cx="83.1772" cy="216.219" r="3.25821"/>
<circle cx="87.9016" cy="200.644" r="3.25821"/>
<circle cx="92.626" cy="173.109" r="3.25821"/>
<circle cx="102.075" cy="240.041" r="3.25821"/>
<circle cx="106.799" cy="302.746" r="3.25821"/>
<circle cx="111.524" cy="185.821" r="3.25821"/>
<circle cx="475.303" cy="197.114" r="3.25821"/>
<circle cx="480.028" cy="206.932" r="3.25821"/>
<circle cx="484.752" cy="231.89" r="3.25821"/>
<circle cx="489.476" cy="255.987" r="3.25821"/>
<circle cx="498.925" cy="194.943" r="3.25821"/>
<circle cx="503.65" cy="206.928" r="3.25821"/>
<circle cx="508.374" cy="170.768" r="3.25821"/>
</g>
<g fill="black">
<circle cx="59.5551" cy="150.342" r="3.25821"/>
<circle cx="64.2795" cy="205.534" r="3.25821"/>
<circle cx="69.0039" cy="203.002" r="3.25821"/>
<circle cx="73.7283" cy="166.881" r="3.25821"/>
<circle cx="78.4528" cy="200.823" r="3.25821"/>
<circle cx="83.1772" cy="216.219" r="3.25821"/>
<circle cx="87.9016" cy="200.644" r="3.25821"/>
<circle cx="92.626" cy="173.109" r="3.25821"/>
<circle cx="102.075" cy="240.041" r="3.25821"/>
<circle cx="106.799" cy="302.746" r="3.25821"/>
<circle cx="111.524" cy="185.821" r="3.25821"/>
<circle cx="475.303" cy="197.114" r="3.25821"/>
<circle cx="480.028" cy="206.932" r="3.25821"/>
<circle cx="484.752" cy="231.89" r="3.25821"/>
<circle cx="489.476" cy="255.987" r="3.25821"/>
<circle cx="498.925" cy="194.943" r="3.25821"/>
<circle cx="503.65" cy="206.928" r="3.25821"/>
<circle cx="508.374" cy="170.768" r="3.25821"/>
</g>
<g fill="black">
<circle cx="59.5551" cy="150.342" r="3.25821"/>
<circle cx="64.2795" cy="205.534" r="3.25821"/>
<circle cx="69.0039" cy="203.002" r="3.25821"/>
<circle cx="73.7283" cy="166.881" r="3.25821"/>
<circle cx="475.303" cy="197.114" r="3.25821"/>
<circle cx="480.028" cy="206.932" r="3.25821"/>
<circle cx="484.752" cy="231.89" r="3.25821"/>
<circle cx="489.476" cy="255.987" r="3.25821"/>
<circle cx="498.925" cy="194.943" r="3.25821"/>
<circle cx="503.65" cy="206.928" r="3.25821"/>
<circle cx="508.374" cy="170.768" r="3.25821"/>
</g>
<g fill="black">
<circle cx="59.5551" cy="150.342" r="3.25821"/>
<circle cx="64.2795" cy="205.534" r="3.25821"/>
<circle cx="69.0039" cy="203.002" r="3.25821"/>
<circle cx="73.7283" cy="166.881" r="3.25821"/>
<circle cx="475.303" cy="197.114" r="3.25821"/>
<circle cx="480.028" cy="206.932" r="3.25821"/>
<circle cx="484.752" cy="231.89" r="3.25821"/>
<circle cx="489.476" cy="255.987" r="3.25821"/>
<circle cx="498.925" cy="194.943" r="3.25821"/>
<circle cx="503.65" cy="206.928" r="3.25821"/>
<circle cx="508.374" cy="170.768" r="3.25821"/>
</g>
<g fill="black">
<circle cx="59.5551" cy="150.342" r="3.25821"/>
<circle cx="64.2795" cy="205.534" r="3.25821"/>
<circle cx="69.0039" cy="203.002" r="3.25821"/>
<circle cx="73.7283" cy="166.881" r="3.25821"/>
<circle cx="475.303" cy="197.114" r="3.25821"/>
<circle cx="480.028" cy="206.932" r="3.25821"/>
<circle cx="484.752" cy="231.89" r="3.25821"/>
<circle cx="489.476" cy="255.987" r="3.25821"/>
<circle cx="498.925" cy="194.943" r="3.25821"/>
<circle cx="503.65" cy="206.928" r="3.25821"/>
<circle cx="508.374" cy="170.768" r="3.25821"/>
</g>
<g fill="black">
<circle cx="475.303" cy="197.114" r="3.25821"/>
<circle cx="480.028" cy="206.932" r="3.25821"/>
<circle cx="484.752" cy="231.89" r="3.25821"/>
<circle cx="489.476" cy="255.987" r="3.25821"/>
<circle cx="498.925" cy="194.943" r="3.25821"/>
<circle cx="503.65" cy="206.928" r="3.25821"/>
<circle cx="508.374" cy="170.768" r="3.25821"/>
</g>
<g fill="black">
<circle cx="475.303" cy="197.114" r="3.25821"/>
<circle cx="480.028" cy="206.932" r="3.25821"/>
<circle cx="484.752" cy="231.89" r="3.25821"/>
<circle cx="489.476" cy="255.987" r="3.25821"/>
<circle cx="498.925" cy="194.943" r="3.25821"/>
<circle cx="503.65" cy="206.928" r="3.25821"/>
<circle cx="508.374" cy="170.768" r="3.25821"/>
</g>
<g fill="black">
<circle cx="475.303" cy="197.114" r="3.25821"/>
<circle cx="480.028" cy="206.932" r="3.25821"/>
<circle cx="484.752" cy="231.89" r="3.25821"/>
<circle cx="489.476" cy="255.987" r="3.25821"/>
<circle cx="498.925" cy="194.943" r="3.25821"/>
<circle cx="503.65" cy="206.928" r="3.25821"/>
<circle cx="508.374" cy="170.768" r="3.25821"/>
</g>
<g fill="black">
<circle cx="475.303" cy="197.114" r="3.25821"/>
<circle cx="480.028" cy="206.932" r="3.25821"/>
<circle cx="484.752" cy="231.89" r="3.25821"/>
<circle cx="489.476" cy="255.987" r="3.25821"/>
</g>
<g fill="black">
<circle cx="475.303" cy="197.114" r="3.25821"/>
<circle cx="480.028" cy="206.932" r="3.25821"/>
<circle cx="484.752" cy="231.89" r="3.25821"/>
<circle cx="489.476" cy="255.987" r="3.25821"/>
</g>
<g fill="black">
<circle cx="475.303" cy="197.114" r="3.25821"/>
<circle cx="480.028" cy="206.932" r="3.25821"/>
<circle cx="484.752" cy="231.89" r="3.25821"/>
<circle cx="489.476" cy="255.987" r="3.25821"/>
</g>
<path d="M57.1929,346.022h 453.543" fill="none" stroke="black"/>
<path d="M57.1929,336.795v 9.22726" fill="none" stroke="black"/>
<path d="M66.6417,341.409v 4.61363" fill="none" stroke="black"/>
<path d="M76.0906,341.409v 4.61363" fill="none" stroke="black"/>
<path d="M85.5394,341.409v 4.61363" fill="none" stroke="black"/>
<path d="M94.9882,341.409v 4.61363" fill="none" stroke="black"/>
<path d="M104.437,336.795v 9.22726" fill="none" stroke="black"/>
<path d="M113.886,341.409v 4.61363" fill="none" stroke="black"/>
<path d="M123.335,341.409v 4.61363" fill="none" stroke="black"/>
<path d="M132.783,341.409v 4.61363" fill="none" stroke="black"/>
<path d="M142.232,341.409v 4.61363" fill="none" stroke="black"/>
<path d="M151.681,336.795v 9.22726" fill="none" stroke="black"/>
<path d="M161.13,341.409v 4.61363" fill="none" stroke="black"/>
<path d="M170.579,341.409v 4.61363" fill="none" stroke="black"/>
<path d="M180.028,341.409v 4.61363" fill="none" stroke="black"/>
<path d="M189.476,341.409v 4.61363" fill="none" stroke="black"/>
<path d="M198.925,336.795v 9.22726" fill="none" stroke="black"/>
<path d="M208.374,341.409v 4.61363" fill="none" stroke="black"/>
<path d="M217.823,341.409v 4.61363" fill="none" stroke="black"/>
<path d="M227.272,341.409v 4.61363" fill="none" stroke="black"/>
<path d="M236.72,341.409v 4.61363" fill="none" stroke="black"/>
<path d="M246.169,336.795v 9.22726" fill="none" stroke="black"/>
<path d="M255.618,341.409v 4.61363" fill="none" stroke="black"/>
<path d="M265.067,341.409v 4.61363" fill="none" stroke="black"/>
<path d="M274.516,341.409v 4.61363" fill="none" stroke="black"/>
<path d="M283.965,341.409v 4.61363" fill="none" stroke="black"/>
<path d="M293.413,336.795v 9.22726" fill="none" stroke="black"/>
<path d="M302.862,341.409v 4.61363" fill="none" stroke="black"/>
<path d="M312.311,341.409v 4.61363" fill="none" stroke="black"/>
<path d="M321.76,341.409v 4.61363" fill="none" stroke="black"/>
<path d="M331.209,341.409v 4.61363" fill="none" stroke="black"/>
<path d="M340.657,336.795v 9.22726" fill="none" stroke="black"/>
<path d="M350.106,341.409v 4.61363" fill="none" stroke="black"/>
<path d="M359.555,341.409v 4.61363" fill="none" stroke="black"/>
<path d="M369.004,341.409v 4.61363" fill="none" stroke="black"/>
<path d="M378.453,341.409v 4.61363" fill="none" stroke="black"/>
<path d="M387.902,336.795v 9.22726" fill="none" stroke="black"/>
<path d="M397.35,341.409v 4.61363" fill="none" stroke="black"/>
<path d="M406.799,341.409v 4.61363" fill="none" stroke="black"/>
<path d="M416.248,341.409v 4.61363" fill="none" stroke="black"/>
<path d="M425.697,341.409v 4.61363" fill="none" stroke="black"/>
<path d="M435.146,336.795v 9.22726" fill="none" stroke="black"/>
<path d="M444.594,341.409v 4.61363" fill="none" stroke="black"/>
<path d="M454.043,341.409v 4.61363" fill="none" stroke="black"/>
<path d="M463.492,341.409v 4.61363" fill="none" stroke="black"/>
<path d="M472.941,341.409v 4.61363" fill="none" stroke="black"/>
<path d="M482.39,336.795v 9.22726" fill="none" stroke="black"/>
<path d="M482.39,336.795v 9.22726" fill="none" stroke="black"/>
<path d="M491.839,341.409v 4.61363" fill="none" stroke="black"/>
<path d="M501.287,341.409v 4.61363" fill="none" stroke="black"/>
<path d="M57.1929,346.022v -307.575" fill="none" stroke="black"/>
<path d="M70.7992,346.022h -13.6063" fill="none" stroke="black"/>
<path d="M63.9961,336.258h -6.80315" fill="none" stroke="black"/>
<path d="M63.9961,326.494h -6.80315" fill="none" stroke="black"/>
<path d="M63.9961,316.729h -6.80315" fill="none" stroke="black"/>
<path d="M63.9961,306.965h -6.80315" fill="none" stroke="black"/>
<path d="M70.7992,297.201h -13.6063" fill="none" stroke="black"/>
<path d="M63.9961,287.436h -6.80315" fill="none" stroke="black"/>
<path d="M63.9961,277.672h -6.80315" fill="none" stroke="black"/>
<path d="M63.9961,267.908h -6.80315" fill="none" stroke="black"/>
<path d="M63.9961,258.144h -6.80315" fill="none" stroke="black"/>
<path d="M70.7992,248.379h -13.6063" fill="none" stroke="black"/>
<path d="M63.9961,238.615h -6.80315" fill="none" stroke="black"/>
<path d="M63.9961,228.851h -6.80315" fill="none" stroke="black"/>
<path d="M63.9961,219.086h -6.80315" fill="none" stroke="black"/>
<path d="M63.9961,209.322h -6.80315" fill="none" stroke="black"/>
<path d="M70.7992,199.558h -13.6063" fill="none" stroke="black"/>
<path d="M63.9961,189.794h -6.80315" fill="none" stroke="black"/>
<path d="M63.9961,180.029h -6.80315" fill="none" stroke="black"/>
<path d="M63.9961,170.265h -6.80315" fill="none" stroke="black"/>
<path d="M63.9961,160.501h -6.80315" fill="none" stroke="black"/>
<path d="M70.7992,150.736h -13.6063" fill="none" stroke="black"/>
<path d="M63.9961,140.972h -6.80315" fill="none" stroke="black"/>
<path d="M63.9961,131.208h -6.80315" fill="none" stroke="black"/>
<path d="M63.9961,121.443h -6.80315" fill="none" stroke="black"/>
<path d="M63.9961,111.679h -6.80315" fill="none" stroke="black"/>
<path d="M70.7992,101.915h -13.6063" fill="none" stroke="black"/>
<path d="M63.9961,92.1506h -6.80315" fill="none" stroke="black"/>
<path d="M63.9961,82.3863h -6.80315" fill="none" stroke="black"/>
<path d="M63.9961,72.622h -6.80315" fill="none" stroke="black"/>
<path d="M63.9961,62.8577h -6.80315" fill="none" stroke="black"/>
<path d="M70.7992,53.0934h -13.6063" fill="none" stroke="black"/>
<path d="M70.7992,53.0934h -13.6063" fill="none" stroke="black"/>
<path d="M63.9961,43.3291h -6.80315" fill="none" stroke="black"/>
<path d="M57.1929,206.124h 453.543" fill="none" stroke="#ff0000" stroke-dasharray=" 3, 3"/>
<path d="M57.1929,209.01h 453.543" fill="none" stroke="#0000ff" stroke-dasharray=" 3, 3"/>
<rect x="397.35" y="38.4469" width="113.386" height="57.6704" fill="white"/>
<path d="M397.35,96.1173h 113.386" fill="none" stroke="black"/>
<path d="M510.736,96.1173v -57.6704" fill="none" stroke="black"/>
<path d="M510.736,38.4469h -113.386" fill="none" stroke="black"/>
<path d="M397.35,38.4469v 57.6704" fill="none" stroke="black"/>
<text xml:space="preserve" x="425.697" y="55.3896" fill="black" font-size="9.60713" font-family="Helvetica">Sector Avg (286.6)</text>
<path d="M401.602,52.8645h 19.8425" fill="none" stroke="#ff0000" stroke-dasharray=" 3, 3"/>
<text xml:space="preserve" x="425.697" y="84.7135" fill="black" font-size="9.60713" font-family="Helvetica">Overall Avg (280.6)</text>
<path d="M401.602,81.6997h 19.8425" fill="none" stroke="#0000ff" stroke-dasharray=" 3, 3"/>
<text xml:space="preserve" x="218.8" y="18.7347" fill="black" font-size="18.0316" font-family="Helvetica">Sector 10 (After)</text></svg>
